<svg width="245" height="144" viewBox="0 0 245 144" fill="none" xmlns="http://www.w3.org/2000/svg">
<mask id="mask0_4949_21904" style="mask-type:alpha" maskUnits="userSpaceOnUse" x="-135" y="0" width="380" height="144">
<rect x="-135" width="380" height="144" rx="10" fill="#D9D9D9"/>
</mask>
<g mask="url(#mask0_4949_21904)">
<path d="M278.026 143L164.978 142.961L108.17 142.941L105.008 142.939L93.5947 142.937C93.5947 142.937 77.2919 129.68 77.0095 110.939C76.453 74.0117 100.617 90.6451 97.3346 46.1394C94.339 5.52809 172.607 -16.371 215.106 14.6556C230.556 25.9359 231.768 33.8477 253.972 31.3463C279.035 28.5229 281.891 58.9914 273.119 75.8811C260.672 99.8451 307.633 95.9086 278.026 143Z" fill="#F7F0FF"/>
<mask id="mask1_4949_21904" style="mask-type:alpha" maskUnits="userSpaceOnUse" x="77" y="0" width="211" height="143">
<path d="M278.026 143L164.978 142.961L108.17 142.941L105.008 142.939L93.5947 142.937C93.5947 142.937 77.2919 129.68 77.0095 110.939C76.453 74.0117 100.617 90.6451 97.3346 46.1394C94.339 5.52809 172.607 -16.371 215.106 14.6556C230.556 25.9359 231.768 33.8477 253.972 31.3463C279.035 28.5229 281.891 58.9914 273.119 75.8811C260.672 99.8451 307.633 95.9086 278.026 143Z" fill="#CEF7F3"/>
</mask>
<g mask="url(#mask1_4949_21904)">
<path d="M129.75 79.6252C111.661 76.1393 83.0866 86.5315 83.0866 86.5315H72.9424V143H290.435V117.813C290.435 117.813 256.193 100.704 232.41 98.3127C208.903 95.9492 195.267 111.397 172.356 105.625C153.459 100.865 148.885 83.3127 129.75 79.6252Z" fill="#F1E6FF"/>
</g>
<g filter="url(#filter0_d_4949_21904)">
<circle cx="171" cy="72" r="58" fill="#DCFBF3"/>
</g>
<mask id="mask2_4949_21904" style="mask-type:alpha" maskUnits="userSpaceOnUse" x="113" y="14" width="116" height="116">
<circle cx="171" cy="72" r="58" fill="#D9D9D9"/>
</mask>
<g mask="url(#mask2_4949_21904)">
<rect x="-43.0205" y="75.4795" width="298.12" height="66.12" fill="#D1D1D1"/>
<path d="M183.18 67.9401C169.278 73.4167 172.353 76.2535 163.46 78.9601H255.1V51.7001C254.713 49.3801 253.012 43.4641 249.3 38.3601C245.588 33.2561 229 35.46 225.52 36.04C213.533 44.9333 202.32 60.4001 183.18 67.9401Z" fill="#EAEAEA"/>
<path d="M202.899 50.5395C201.983 52.4159 200.579 58.0795 200.579 58.0795L211.599 50.5395L216.819 44.7396C216.819 44.7396 213.525 43.9717 212.179 44.1595C207.824 44.7672 204.83 46.5878 202.899 50.5395Z" fill="#EAEAEA"/>
<path d="M177.766 68.7419C176.544 71.1638 176.22 75.4795 176.22 75.4795L189.366 68.7419L196.52 60.9795C196.52 60.9795 191.934 60.2648 190.14 60.5072C184.332 61.2917 180.34 63.6414 177.766 68.7419Z" fill="#EAEAEA"/>
<ellipse cx="2.01783" cy="4.47942" rx="2.01783" ry="4.47942" transform="matrix(-0.892871 0.450313 0.450313 0.892871 213.945 37.2002)" fill="#EAEAEA"/>
<path fill-rule="evenodd" clip-rule="evenodd" d="M234.529 34.0578C231.412 33.9062 227.458 34.0524 224.585 35.3968C221.711 36.7411 219.065 39.6818 217.183 42.1719C216.229 43.4346 215.446 44.616 214.902 45.4818C214.629 45.9152 214.416 46.2704 214.27 46.5186C214.197 46.6427 214.141 46.7401 214.102 46.8071L214.058 46.8844L214.047 46.9052L214.042 46.9126C214.042 46.9128 214.042 46.9136 214.802 47.3366L214.042 46.9126C213.809 47.3325 213.959 47.8632 214.379 48.0968C214.799 48.3304 215.329 48.1795 215.562 47.7598C215.562 47.7598 215.562 47.7598 215.562 47.7598M215.562 47.7598L215.565 47.7554L215.574 47.7389L215.613 47.6704C215.648 47.6094 215.7 47.5184 215.769 47.4009C215.908 47.1659 216.112 46.8254 216.375 46.4082C216.9 45.5729 217.655 44.4344 218.571 43.2209C220.432 40.7591 222.861 38.1238 225.322 36.9729C227.782 35.8219 231.362 35.6459 234.444 35.7958C235.964 35.8697 237.321 36.0201 238.299 36.1522C238.787 36.2182 239.18 36.2795 239.449 36.324C239.583 36.3462 239.687 36.3642 239.756 36.3766L239.834 36.3906L239.852 36.3941L239.856 36.3948C240.328 36.4845 240.784 36.1748 240.874 35.7028C240.964 35.2308 240.654 34.7753 240.182 34.6856L240.019 35.5403C240.182 34.6856 240.182 34.6856 240.182 34.6856L240.179 34.685L240.173 34.6838L240.149 34.6795L240.062 34.6636C239.986 34.65 239.875 34.6308 239.733 34.6073C239.449 34.5603 239.039 34.4964 238.532 34.4279C237.518 34.291 236.11 34.1347 234.529 34.0578" fill="#868686"/>
<path fill-rule="evenodd" clip-rule="evenodd" d="M212.983 43.8271C212.799 43.3832 212.29 43.1726 211.846 43.3566L212.18 44.1603C211.846 43.3566 211.847 43.3565 211.846 43.3566L211.844 43.3575L211.84 43.3595L211.823 43.3664L211.762 43.3924C211.709 43.415 211.632 43.4481 211.534 43.4912C211.339 43.5774 211.059 43.7037 210.715 43.8664C210.029 44.1913 209.087 44.6629 208.061 45.25C206.044 46.4053 203.579 48.0782 202.19 50.037C201.195 51.4401 200.437 53.4346 199.936 55.0118C199.682 55.8129 199.486 56.5307 199.353 57.0486C199.287 57.3078 199.236 57.5176 199.202 57.6636C199.185 57.7366 199.172 57.7937 199.163 57.833L199.153 57.8786L199.15 57.891L199.15 57.8945L199.149 57.896C199.149 57.8961 199.149 57.8962 200 58.0803L199.149 57.896C199.048 58.3656 199.346 58.8289 199.816 58.9306C200.285 59.0322 200.748 58.734 200.85 58.2645C200.85 58.2644 200.85 58.2645 200.85 58.2645L200.85 58.2623L200.852 58.2533L200.861 58.2147C200.869 58.18 200.881 58.1279 200.897 58.0601C200.928 57.9244 200.976 57.7261 201.039 57.4795C201.165 56.9857 201.352 56.301 201.594 55.5388C202.087 53.9894 202.779 52.2139 203.609 51.0435C204.764 49.415 206.939 47.8979 208.926 46.7599C209.903 46.2005 210.803 45.7497 211.46 45.439C211.788 45.2838 212.053 45.1639 212.236 45.0834C212.327 45.0431 212.398 45.0127 212.445 44.9926L212.498 44.9703L212.51 44.9651L212.513 44.964C212.513 44.964 212.513 44.9641 212.513 44.964M212.983 43.8271C213.167 44.2709 212.956 44.78 212.513 44.964L212.983 43.8271Z" fill="#868686"/>
<path fill-rule="evenodd" clip-rule="evenodd" d="M191.323 59.779C188.783 60.0551 185.579 60.6481 183.32 61.9706C180.993 63.3332 178.872 65.9362 177.371 68.1005C176.609 69.1985 175.985 70.2146 175.552 70.9564C175.335 71.3276 175.165 71.6311 175.049 71.8428C174.991 71.9487 174.946 72.0318 174.916 72.089L174.881 72.155L174.871 72.1728L174.869 72.1778L174.868 72.1793C174.868 72.1795 174.868 72.1801 175.64 72.5814L174.868 72.1793C174.646 72.6056 174.812 73.1317 175.238 73.3533C175.665 73.5749 176.19 73.409 176.411 72.9828M176.411 72.9828L176.413 72.9793L176.421 72.9655L176.451 72.9077C176.479 72.8562 176.52 72.779 176.575 72.6793C176.684 72.4799 176.846 72.1902 177.054 71.834C177.471 71.1208 178.07 70.1445 178.8 69.0925C180.282 66.9569 182.222 64.6299 184.199 63.4722C186.119 62.3482 189.005 61.7812 191.511 61.5089C192.745 61.3747 193.853 61.3152 194.652 61.2894C195.051 61.2765 195.373 61.272 195.593 61.2707C195.703 61.2701 195.787 61.2702 195.844 61.2705L195.907 61.271L195.922 61.2712L195.925 61.2713C195.925 61.2713 195.925 61.2713 195.925 61.2713C196.406 61.2788 196.802 60.8955 196.809 60.4151C196.817 59.9347 196.434 59.5391 195.953 59.5315L195.94 60.4014C195.953 59.5315 195.954 59.5315 195.953 59.5315L195.945 59.5314L195.926 59.5311L195.853 59.5306C195.791 59.5302 195.699 59.5301 195.583 59.5307C195.349 59.5321 195.012 59.5368 194.596 59.5503C193.764 59.5772 192.611 59.639 191.323 59.779" fill="#868686"/>
<path d="M216.704 73.1219C211.639 75.5693 208.678 79.5805 205.8 81.2801H255.267C256.226 73.4618 257.339 55.7857 254.116 47.6274C250.893 39.4691 249.282 37.4699 246.98 36.6201C249.666 40.1894 250.778 47.4234 248.936 54.7659C247.094 62.1083 235.89 69.0428 230.518 71.5922C228.024 71.0823 221.769 70.6744 216.704 73.1219Z" fill="#D1D1D1"/>
<path d="M205.219 43.1173C212.179 43.1173 215.853 37.5863 216.819 35.4596C213.726 32.9463 206.031 29.4293 199.999 30.3573C193.967 31.2853 193.619 34.9973 194.199 36.7373C194.973 38.8639 198.259 43.1173 205.219 43.1173Z" fill="#FFC596"/>
<path d="M121.419 84.3068L121.12 84.3359L121.7 72.7359L126.34 56.4959L126.92 45.3203L151.28 38.5159L171 33.2959L199.42 26.916C199.42 28.772 200.193 30.0093 200.58 30.396C192.46 30.976 193.04 35.4603 200 41.2603C204.466 44.9822 211.987 40.6803 214.5 38.9403C214.5 44.7403 213.572 58.816 209.86 65.776C206.148 72.736 191.3 77.5694 184.34 79.116H150.12C146.454 81.8656 129.474 83.5213 121.419 84.3068Z" fill="#9D9BFF"/>
<path d="M194.78 34.8803L206.38 38.9395L197.68 30.8203C197.68 30.8203 196.222 31.1178 195.36 31.9803C194.2 33.1403 194.78 34.8803 194.78 34.8803Z" fill="#CC966B"/>
<path d="M206.315 38.8565C202.466 36.4763 194.972 30.9333 195.789 27.8025C196.606 24.6717 206.591 12.1939 211.482 6.3464L219.554 14.6179L225.022 25.4497C225.92 27.1296 226.216 31.2579 220.215 34.3321L218.798 34.7936L213.34 36.6206L206.315 38.8565Z" fill="#FFC596"/>
<path d="M179.739 58.889L187.859 73.969C196.145 69.6854 199.533 67.4033 203.519 63.529C203.519 63.529 206.381 57.8041 204.679 54.829C202.605 51.2039 194.239 52.509 194.239 52.509L179.739 58.889Z" fill="#6160B8"/>
<path d="M136.902 67.386C137.655 76.6751 142.547 101.059 144.899 112.09C134.863 115.186 108.958 118.36 85.6235 106.284C62.2894 94.2083 -23.5884 94.614 -50.5605 101.581C-50.5605 101.581 -48.1119 90.5111 -44.7605 84.1808C-35.6557 66.9832 -4.23143 55.194 -4.23143 55.194C-0.624691 52.2911 2.81879 48.2151 8.01946 50.5408C9.68783 51.2869 21.643 58.0968 24.4657 59.258C27.2884 60.4191 42.3426 58.0968 45.1652 56.9357C47.4234 56.0068 58.3377 55.7745 63.5126 55.7745L125.611 44.1631L136.902 41.8408C136.588 46.4854 136.149 58.0968 136.902 67.386Z" fill="url(#paint0_linear_4949_21904)"/>
<path d="M103.054 82.9419C122.663 82.9419 147.983 82.5704 180.28 59.8203L187.24 72.5803L157.843 86.0163C157.843 86.0163 142.071 88.4596 131.891 89.0906C120.648 89.7875 103.054 89.0906 103.054 89.0906C103.054 89.0906 102.478 87.8609 100.171 87.8609C97.8639 87.8609 94.9802 88.6807 93.8268 89.0906H88.0596L103.054 82.9419Z" fill="#FFC596"/>
<path d="M205.596 3.68605C199.941 6.57557 211.252 12.5954 217.615 15.2442C223.978 17.8929 221.15 23.9128 221.15 23.9128L217.615 28.247C218.322 29.6918 223.271 25.3575 223.271 28.247C223.271 31.3119 219.412 32.2756 216.82 33.7204L214.5 38.9404L226.806 33.3037C227.749 32.3405 231.193 30.9883 233.876 28.247C235.997 26.0799 235.525 24.1536 234.583 22.468C233.169 21.0232 231.048 21.0232 228.927 19.5785C228.691 16.9297 227.372 10.9099 223.978 8.02036C220.585 5.13084 217.38 4.89003 216.201 5.13081C215.023 3.44525 211.252 0.796521 205.596 3.68605Z" fill="#6F3530"/>
<path fill-rule="evenodd" clip-rule="evenodd" d="M197.94 31.4618C197.653 31.3185 197.305 31.4346 197.162 31.7211L197.68 31.9805C197.162 31.7211 197.161 31.7222 197.161 31.7232L197.159 31.7253L197.157 31.7295L197.153 31.7386C197.15 31.7448 197.147 31.7514 197.144 31.7585C197.138 31.7726 197.132 31.7883 197.126 31.8056C197.114 31.8402 197.103 31.8811 197.094 31.928C197.077 32.0227 197.07 32.1373 197.087 32.27C197.12 32.5365 197.243 32.847 197.506 33.1985C198.023 33.8869 199.134 34.806 201.481 35.9793C202.626 36.5518 203.396 37.0088 203.909 37.3675C204.391 37.7052 204.618 37.937 204.717 38.0724C204.624 38.2351 204.611 38.4398 204.702 38.6199C204.845 38.9064 205.193 39.0225 205.48 38.8793L205.22 38.3605C205.48 38.8793 205.48 38.8789 205.481 38.8785L205.483 38.8776L205.486 38.8758L205.494 38.872L205.51 38.8629C205.522 38.8563 205.535 38.8483 205.55 38.8389C205.578 38.8202 205.613 38.795 205.649 38.7622C205.722 38.6968 205.809 38.5948 205.868 38.449C205.998 38.1239 205.914 37.7759 205.703 37.4588C205.499 37.1537 205.142 36.8146 204.574 36.4172C203.999 36.0147 203.175 35.5292 202 34.9417C199.706 33.795 198.788 32.9741 198.434 32.5025C198.28 32.2964 198.246 32.1748 198.239 32.1358C198.312 31.8737 198.192 31.588 197.94 31.4618Z" fill="#192E35"/>
<path d="M161.749 77.6325C167.648 76.1571 171.684 77.5392 172.965 78.4147C171.575 79.1039 167.459 81.1754 162.114 83.9473C156.768 86.7191 150.802 87.0567 149.54 85.9205C150.45 84.4116 155.85 79.1079 161.749 77.6325Z" fill="#EE4154"/>
<path d="M209.279 66.7809C205.915 71.2661 198.259 74.9009 194.199 76.0609C194.199 76.0609 194.199 71.4209 197.679 68.5209C201.159 65.6209 205.88 60.39 205.219 55.7609C204.639 51.7009 211.599 49.9609 213.919 49.3809C213.532 52.8609 212.759 62.1409 209.279 66.7809Z" fill="#EE4154"/>
<path d="M202.617 79.5553C202.617 79.5553 208.337 89.3202 208.337 89.8463C208.335 90.3727 208.972 77.92 208.797 77.4811C208.622 77.043 224.026 87.8657 224.026 87.8657L216.109 71.7857L225.415 70.4624L218.048 66.9814L225.862 62.4378C225.862 62.4378 216.049 61.3688 215.434 61.2812L221.039 62.9303L214.846 66.8898L220.062 69.7127L213.664 70.0292L218.426 81.2935L207.969 75.5127L206.668 83.2227L202.617 79.5553Z" fill="#EE4154"/>
<path d="M159.309 89.6887C159.309 89.6887 158.975 98.4166 158.756 98.7586C158.537 99.1005 164.122 91.2641 164.191 90.9059C164.259 90.5483 169.785 103.986 169.785 103.986L171.312 90.2377L177.916 93.2414L174.569 87.9175L181.539 88.2071C181.539 88.2071 175.599 83.4363 175.236 83.124L178.197 86.5246L172.524 86.5284L174.745 90.5309L170.451 88.0796L168.872 97.3849L164.47 89.2817L160.421 93.7569L159.309 89.6887Z" fill="#EE4154"/>
</g>
</g>
<defs>
<filter id="filter0_d_4949_21904" x="105" y="10" width="132" height="132" filterUnits="userSpaceOnUse" color-interpolation-filters="sRGB">
<feFlood flood-opacity="0" result="BackgroundImageFix"/>
<feColorMatrix in="SourceAlpha" type="matrix" values="0 0 0 0 0 0 0 0 0 0 0 0 0 0 0 0 0 0 127 0" result="hardAlpha"/>
<feOffset dy="4"/>
<feGaussianBlur stdDeviation="4"/>
<feComposite in2="hardAlpha" operator="out"/>
<feColorMatrix type="matrix" values="0 0 0 0 0 0 0 0 0 0 0 0 0 0 0 0 0 0 0.1 0"/>
<feBlend mode="normal" in2="BackgroundImageFix" result="effect1_dropShadow_4949_21904"/>
<feBlend mode="normal" in="SourceGraphic" in2="effect1_dropShadow_4949_21904" result="shape"/>
</filter>
<linearGradient id="paint0_linear_4949_21904" x1="47.1695" y1="41.8408" x2="47.1695" y2="114.921" gradientUnits="userSpaceOnUse">
<stop stop-color="#E0ECF3"/>
<stop offset="1" stop-color="#95ACB9"/>
</linearGradient>
</defs>
</svg>
