<svg width="380" height="181" viewBox="0 0 380 181" fill="none" xmlns="http://www.w3.org/2000/svg">
<mask id="mask0_4393_19589" style="mask-type:alpha" maskUnits="userSpaceOnUse" x="0" y="0" width="380" height="181">
<rect width="380" height="181" rx="10" fill="#00BB7E"/>
</mask>
<g mask="url(#mask0_4393_19589)">
<path fill-rule="evenodd" clip-rule="evenodd" d="M329.601 24.0649C346.943 22.9045 358.707 39.8515 371.393 51.6819C384.774 64.1608 406.072 75.1761 403.837 93.2953C401.604 111.402 375.4 113.102 362.251 125.805C349.53 138.094 347.324 164.887 329.601 165.008C311.897 165.128 308.895 138.843 296.503 126.252C284.376 113.93 259.876 110.527 259.023 93.2953C258.172 76.0858 280.745 69.0145 293.073 56.9225C305.225 45.0025 312.582 25.2037 329.601 24.0649Z" fill="#04AC79"/>
<path fill-rule="evenodd" clip-rule="evenodd" d="M330.151 44.0488C342.47 43.2176 350.826 55.3569 359.838 63.8312C369.343 72.77 384.472 80.6604 382.884 93.6394C381.298 106.61 362.684 107.827 353.343 116.927C344.307 125.729 342.741 144.922 330.151 145.008C317.575 145.094 315.443 126.266 306.64 117.247C298.026 108.42 280.622 105.983 280.017 93.6394C279.412 81.312 295.447 76.2468 304.203 67.5851C312.835 59.0467 318.061 44.8646 330.151 44.0488Z" fill="#00BB7E"/>
<path d="M402.077 143.051C402.353 142.871 402.634 142.693 402.919 142.515L402.655 142.091C403.22 141.739 403.802 141.392 404.398 141.048L404.647 141.482C405.221 141.151 405.809 140.824 406.408 140.499L406.17 140.059C406.757 139.741 407.355 139.426 407.962 139.112L408.191 139.557C408.784 139.25 409.385 138.946 409.993 138.643L409.77 138.195C410.371 137.895 410.978 137.597 411.59 137.299L411.809 137.748C412.412 137.454 413.021 137.161 413.633 136.867L413.416 136.416C413.993 136.14 414.572 135.863 415.152 135.585C415.183 135.57 415.215 135.555 415.246 135.54L415.462 135.991C416.071 135.7 416.682 135.408 417.292 135.115L417.076 134.664C417.685 134.371 418.295 134.077 418.902 133.781L419.121 134.23C419.731 133.933 420.339 133.633 420.944 133.331L420.72 132.884C421.328 132.58 421.932 132.275 422.53 131.966L422.759 132.41C423.366 132.097 423.968 131.78 424.562 131.46L424.325 131.02C424.925 130.696 425.517 130.369 426.1 130.037L426.347 130.471C426.945 130.131 427.532 129.787 428.109 129.436L427.849 129.009C428.433 128.653 429.005 128.293 429.563 127.926L429.838 128.343C430.415 127.963 430.978 127.576 431.523 127.181L431.23 126.776C431.787 126.373 432.325 125.962 432.842 125.542L433.157 125.93C433.7 125.49 434.22 125.04 434.716 124.578L434.376 124.212C434.879 123.744 435.355 123.265 435.801 122.774L436.171 123.11C436.644 122.59 437.085 122.055 437.491 121.504L437.089 121.208C437.495 120.656 437.864 120.09 438.192 119.507L438.628 119.753C438.972 119.141 439.273 118.51 439.527 117.86L439.061 117.679C439.306 117.052 439.504 116.407 439.652 115.742L440.14 115.851C440.29 115.175 440.391 114.481 440.438 113.766L439.939 113.733C439.982 113.079 439.978 112.406 439.924 111.715L440.423 111.676C440.396 111.33 440.357 110.981 440.306 110.627C440.255 110.273 440.193 109.927 440.12 109.588L439.632 109.693C439.487 109.019 439.298 108.376 439.069 107.761L439.537 107.586C439.289 106.923 438.996 106.292 438.661 105.691L438.224 105.934C437.896 105.345 437.525 104.784 437.116 104.25L437.513 103.946C437.093 103.398 436.635 102.878 436.142 102.383L435.788 102.736C435.32 102.265 434.818 101.817 434.288 101.389L434.601 101C434.073 100.574 433.517 100.168 432.938 99.7812L432.66 100.197C432.109 99.8289 431.535 99.4767 430.94 99.1383L431.188 98.7037C430.603 98.3706 429.999 98.0512 429.379 97.7435L429.157 98.1913C428.562 97.896 427.952 97.6112 427.328 97.3351L427.53 96.8779C426.916 96.6062 426.29 96.3432 425.654 96.0873L425.468 96.5512C424.85 96.3026 424.222 96.0604 423.585 95.8232L423.76 95.3547C423.131 95.1203 422.495 94.8909 421.854 94.6651L421.688 95.1368C421.057 94.9148 420.42 94.6961 419.78 94.4794L419.94 94.0058C419.304 93.7905 418.664 93.5774 418.023 93.365L417.865 93.8396C417.427 93.6945 416.988 93.5496 416.548 93.4046C416.349 93.3388 416.149 93.2728 415.949 93.2068L416.105 92.732C415.467 92.5212 414.828 92.3099 414.192 92.0967L414.033 92.5708C413.393 92.3568 412.756 92.1407 412.121 91.9214L412.285 91.4488C411.648 91.2288 411.015 91.0057 410.388 90.7782L410.218 91.2482C409.582 91.0173 408.951 90.7817 408.327 90.5401L408.508 90.0739C407.879 89.8305 407.259 89.5811 406.649 89.3243L406.455 89.7852C405.829 89.5221 405.213 89.2509 404.608 88.9704L404.818 88.5169C404.208 88.2336 403.61 87.941 403.027 87.6376L402.796 88.0811C402.193 87.7669 401.604 87.4408 401.032 87.1011L401.288 86.6713C400.712 86.3289 400.155 85.9731 399.619 85.6021L399.334 86.0132C398.775 85.6263 398.237 85.2225 397.724 84.8L398.041 84.4139C397.529 83.9922 397.042 83.5522 396.584 83.092L396.23 83.4449C395.752 82.9659 395.304 82.4646 394.887 81.9389L395.279 81.6284C394.875 81.1181 394.502 80.5847 394.163 80.0261L393.735 80.2855C393.39 79.7168 393.079 79.1222 392.804 78.4997L393.262 78.2979C393.13 78.0006 393.008 77.6966 392.894 77.3858C392.78 77.0719 392.674 76.7571 392.577 76.4413L392.099 76.588C391.899 75.9353 391.735 75.2786 391.605 74.6182L392.095 74.5216C391.967 73.8718 391.873 73.218 391.809 72.5602L391.312 72.6081C391.247 71.9349 391.214 71.2583 391.211 70.5786L391.711 70.5761C391.707 69.9163 391.732 69.2527 391.784 68.5856L391.285 68.5474C391.336 67.8765 391.414 67.203 391.514 66.5272L392.009 66.6008C392.106 65.9467 392.226 65.2897 392.366 64.63L391.877 64.526C392.017 63.8684 392.177 63.209 392.354 62.5481L392.837 62.6776C393.009 62.0356 393.198 61.3916 393.402 60.7457L392.926 60.595C393.129 59.9531 393.346 59.3101 393.576 58.6662L394.047 58.8344C394.272 58.2056 394.509 57.5755 394.756 56.9443L394.291 56.7618C394.537 56.1347 394.793 55.5071 395.057 54.8791L395.518 55.0731C395.778 54.4547 396.047 53.8356 396.322 53.216L395.865 53.013C396.14 52.3954 396.421 51.7778 396.706 51.1603L397.16 51.3701C397.443 50.7577 397.731 50.1451 398.022 49.5326L397.57 49.318C397.861 48.7059 398.155 48.0942 398.45 47.4831L398.9 47.7005C399.195 47.0902 399.491 46.4805 399.787 45.871L399.337 45.6526C399.356 45.6132 399.375 45.5738 399.395 45.5344C399.672 44.9631 399.949 44.3925 400.225 43.8229L400.675 44.0405C400.971 43.4273 401.266 42.8147 401.557 42.2033L401.106 41.9883C401.399 41.3729 401.688 40.7588 401.972 40.1463L402.426 40.3566C402.714 39.7354 402.996 39.1154 403.271 38.4969L402.815 38.2936C403.092 37.6692 403.363 37.0468 403.624 36.4266L404.085 36.6204C404.351 35.9861 404.609 35.3535 404.854 34.723L404.388 34.5415C404.637 33.9032 404.874 33.2676 405.096 32.6349L405.568 32.8006C405.797 32.1475 406.012 31.4969 406.209 30.8489L405.731 30.7031C405.931 30.0464 406.113 29.3932 406.275 28.7439L406.76 28.8649C406.929 28.1889 407.076 27.5161 407.198 26.8469L406.706 26.7567C406.83 26.0811 406.929 25.4102 406.999 24.7443L407.496 24.7968C407.57 24.101 407.613 23.4093 407.623 22.7224L407.123 22.715C407.133 22.0319 407.11 21.3548 407.049 20.6841L407.547 20.6391C407.484 19.9442 407.383 19.255 407.239 18.5723L406.75 18.6752C406.611 18.0159 406.432 17.3634 406.21 16.7184L406.682 16.5552C406.457 15.904 406.19 15.2601 405.876 14.6242L405.427 14.8455C405.134 14.2511 404.799 13.6637 404.42 13.0836L404.839 12.8101C404.648 12.5182 404.446 12.2282 404.234 11.9404C404.029 11.6631 403.82 11.3966 403.606 11.1404L403.222 11.4611C402.793 10.9481 402.346 10.4794 401.882 10.0528L402.22 9.68465C401.715 9.21998 401.189 8.80279 400.644 8.43046L400.362 8.8433C399.818 8.47188 399.256 8.14718 398.675 7.86609L398.893 7.41608C398.286 7.122 397.66 6.87427 397.019 6.6694L396.867 7.14571C396.252 6.94957 395.621 6.79378 394.975 6.67522L395.066 6.18344C394.416 6.06418 393.753 5.98175 393.078 5.93286L393.042 6.43155C392.405 6.38545 391.756 6.36982 391.096 6.38201L391.087 5.8821C390.435 5.89415 389.774 5.93273 389.105 5.99526L389.151 6.49309C388.515 6.5525 387.87 6.63401 387.216 6.73548L387.14 6.24141C386.498 6.34103 385.85 6.4595 385.196 6.59474L385.297 7.08439C384.67 7.21419 384.036 7.35979 383.396 7.51941L383.275 7.03429C382.646 7.1912 382.013 7.3614 381.375 7.54319L381.512 8.02403C380.894 8.20033 380.271 8.38776 379.644 8.58479L379.494 8.10781C378.876 8.30221 378.255 8.50579 377.631 8.71706L377.791 9.19065C377.18 9.3975 376.566 9.61188 375.95 9.83242L375.781 9.36166C375.17 9.58021 374.558 9.80469 373.944 10.0337L374.118 10.5022C373.512 10.7284 372.904 10.9591 372.295 11.1932L372.116 10.7264C371.509 10.9594 370.902 11.1955 370.295 11.4335L370.477 11.8991C369.872 12.1359 369.267 12.3746 368.662 12.6142L368.478 12.1493C368.064 12.3133 367.649 12.4777 367.235 12.6421C367.045 12.7175 366.855 12.7929 366.665 12.8682L366.849 13.333C366.244 13.5729 365.639 13.8124 365.035 14.0501L364.852 13.5848C364.246 13.8234 363.641 14.0601 363.038 14.2938L363.219 14.76C362.61 14.9958 362.003 15.2286 361.397 15.457L361.221 14.9892C360.611 15.2195 360.003 15.4452 359.398 15.665L359.569 16.1349C358.953 16.3586 358.34 16.5764 357.731 16.7868L357.568 16.3142C356.95 16.5272 356.337 16.7326 355.728 16.9288L355.881 17.4047C355.256 17.6063 354.634 17.7984 354.018 17.9795L353.877 17.4998C353.249 17.684 352.628 17.8566 352.013 18.0158L352.138 18.4999C351.499 18.6652 350.867 18.8166 350.241 18.9521L350.135 18.4634C349.821 18.5315 349.508 18.5955 349.198 18.6552C348.884 18.7156 348.568 18.7736 348.251 18.8294L348.338 19.3218C347.702 19.4335 347.062 19.5364 346.417 19.6315L346.344 19.1368C345.71 19.2304 345.071 19.3166 344.428 19.3965L344.489 19.8927C343.849 19.9723 343.205 20.0457 342.558 20.1142L342.506 19.617C341.866 19.6847 341.223 19.7476 340.577 19.8067L340.623 20.3046C339.979 20.3637 339.333 20.419 338.686 20.4719L338.645 19.9735C338.001 20.026 337.356 20.0761 336.709 20.1248L336.747 20.6233C336.101 20.672 335.454 20.7193 334.807 20.7663L334.771 20.2676C334.124 20.3147 333.477 20.3615 332.831 20.4093L332.868 20.9079C332.22 20.9558 331.574 21.0045 330.928 21.0553L330.889 20.5569C330.24 20.6079 329.593 20.6611 328.946 20.7176L328.99 21.2157C328.342 21.2723 327.697 21.3321 327.054 21.3964L327.004 20.8989C326.354 20.9639 325.707 21.0334 325.063 21.1087L325.121 21.6053C324.474 21.6809 323.831 21.7622 323.192 21.8506L323.124 21.3553C322.474 21.4452 321.828 21.5423 321.187 21.648L321.268 22.1414C320.625 22.2475 319.987 22.3622 319.354 22.4868L319.258 21.9963C318.612 22.1234 317.973 22.261 317.339 22.4103L317.454 22.8969C316.82 23.0465 316.192 23.2079 315.572 23.3825L315.437 22.9012C314.801 23.0802 314.173 23.2732 313.554 23.4815L313.713 23.9554C313.095 24.1631 312.487 24.3862 311.888 24.6261L311.702 24.162C311.089 24.4077 310.485 24.6711 309.892 24.9537L310.108 25.405C309.521 25.6846 308.946 25.983 308.383 26.302L308.136 25.8669C307.562 26.1922 307 26.5387 306.45 26.9079L306.729 27.3229C306.193 27.6832 305.67 28.0654 305.16 28.471L304.849 28.0799C304.334 28.4892 303.834 28.9221 303.348 29.3801L303.691 29.744C303.225 30.1832 302.772 30.6459 302.335 31.1334L301.963 30.7994C301.742 31.045 301.525 31.2968 301.312 31.5549C301.099 31.8126 300.894 32.0729 300.696 32.3356L301.095 32.6367C300.701 33.1583 300.337 33.6895 300 34.2299L299.575 33.9652C299.223 34.5307 298.899 35.1059 298.603 35.6901L299.049 35.9162C298.755 36.4949 298.489 37.0828 298.249 37.6792L297.785 37.4921C297.538 38.1043 297.317 38.7248 297.121 39.3531L297.598 39.5023C297.406 40.1172 297.237 40.7401 297.09 41.3704L296.603 41.2567C296.454 41.8937 296.327 42.5375 296.22 43.1873L296.713 43.2688C296.609 43.9021 296.523 44.542 296.454 45.1879L295.957 45.135C295.888 45.782 295.836 46.4344 295.799 47.0914L296.298 47.1196C296.262 47.7592 296.241 48.404 296.231 49.0534L295.731 49.0463C295.722 49.6937 295.725 50.3452 295.739 51L296.239 50.9895C296.253 51.6311 296.276 52.2765 296.309 52.9253L295.809 52.9503C295.842 53.5961 295.883 54.2448 295.93 54.8958L296.429 54.8592C296.476 55.4999 296.53 56.1433 296.589 56.7889L296.091 56.8344C296.15 57.4772 296.214 58.1219 296.281 58.7679L296.778 58.7159C296.845 59.3561 296.916 59.998 296.989 60.6412L296.492 60.6973C296.564 61.3386 296.639 61.9809 296.714 62.6235L297.211 62.5653C297.244 62.8482 297.277 63.1312 297.31 63.4143C297.353 63.7724 297.395 64.1307 297.436 64.489L296.94 64.5471C297.015 65.1879 297.089 65.8285 297.161 66.4689L297.658 66.4131C297.73 67.0552 297.8 67.6972 297.866 68.3387L297.369 68.3902C297.435 69.0317 297.498 69.6723 297.556 70.3116L298.054 70.2666C298.112 70.9112 298.165 71.5548 298.212 72.197L297.713 72.2331C297.76 72.8757 297.799 73.5163 297.831 74.1547L298.331 74.1297C298.363 74.7767 298.387 75.4217 298.402 76.0643L297.902 76.0755C297.916 76.7188 297.921 77.3591 297.914 77.9961L298.414 78.0014C298.407 78.65 298.388 79.2956 298.356 79.9377L297.857 79.9129C297.841 80.232 297.822 80.5502 297.799 80.8673C297.775 81.2027 297.747 81.5385 297.715 81.8746L298.213 81.9223C298.148 82.5991 298.067 83.2767 297.974 83.9546L297.478 83.8862C297.386 84.5538 297.281 85.2224 297.165 85.8918L297.658 85.9772C297.541 86.6475 297.415 87.318 297.28 87.9884L296.79 87.89C296.657 88.5539 296.515 89.2184 296.368 89.8831L296.856 89.9911C296.709 90.6566 296.556 91.3217 296.401 91.9864L295.914 91.8721C295.758 92.5349 295.599 93.1975 295.44 93.8602L295.926 93.9774C295.857 94.2611 295.789 94.5447 295.72 94.8281C295.628 95.2081 295.537 95.5877 295.445 95.9671L294.959 95.8502C294.799 96.5156 294.64 97.1808 294.486 97.8452L294.973 97.9586C294.817 98.6253 294.666 99.2908 294.521 99.9549L294.033 99.8483C293.886 100.521 293.746 101.193 293.614 101.863L294.105 101.959C293.974 102.632 293.851 103.303 293.741 103.972L293.247 103.891C293.135 104.574 293.034 105.256 292.948 105.936L293.444 105.998C293.358 106.679 293.287 107.358 293.235 108.034L292.736 107.995C292.682 108.688 292.646 109.378 292.632 110.067L293.132 110.077C293.118 110.763 293.126 111.445 293.158 112.124L292.659 112.148C292.692 112.842 292.75 113.535 292.837 114.225L293.333 114.162C293.418 114.838 293.531 115.511 293.675 116.179L293.186 116.285C293.332 116.962 293.509 117.636 293.721 118.307L294.197 118.156C294.4 118.8 294.635 119.44 294.905 120.076L294.445 120.271C294.581 120.591 294.725 120.91 294.879 121.227C295.031 121.542 295.189 121.852 295.353 122.156L295.793 121.918C296.12 122.523 296.469 123.105 296.841 123.666L296.424 123.942C296.81 124.524 297.218 125.084 297.647 125.624L298.038 125.312C298.462 125.845 298.908 126.358 299.372 126.853L299.007 127.195C299.481 127.699 299.974 128.185 300.484 128.652L300.821 128.284C301.321 128.742 301.837 129.183 302.369 129.61L302.056 130C302.591 130.429 303.142 130.843 303.705 131.244L303.995 130.837C304.545 131.229 305.109 131.608 305.684 131.976L305.415 132.397C305.99 132.765 306.577 133.123 307.172 133.47L307.424 133.039C308.007 133.379 308.6 133.711 309.201 134.035L308.963 134.475C309.562 134.799 310.169 135.115 310.781 135.425L311.007 134.979C311.611 135.285 312.22 135.585 312.835 135.881L312.618 136.331C313.23 136.626 313.847 136.917 314.466 137.205L314.677 136.752C315.292 137.037 315.91 137.32 316.529 137.602L316.322 138.057C316.922 138.33 317.524 138.602 318.125 138.874L318.18 138.899L318.386 138.443C319.005 138.723 319.624 139.003 320.242 139.284L320.035 139.739C320.653 140.021 321.269 140.304 321.883 140.589L322.094 140.136C322.711 140.423 323.325 140.714 323.935 141.008L323.717 141.458C324.329 141.754 324.935 142.053 325.535 142.358L325.762 141.912C326.37 142.221 326.972 142.536 327.567 142.859L327.328 143.298C327.625 143.459 327.92 143.622 328.213 143.787C328.501 143.949 328.79 144.114 329.077 144.28L329.328 143.847C329.904 144.181 330.478 144.522 331.051 144.869L330.791 145.297C331.359 145.641 331.925 145.991 332.489 146.346L332.755 145.922C333.32 146.277 333.883 146.636 334.446 146.997L334.175 147.418C334.736 147.778 335.296 148.141 335.855 148.505L336.128 148.085C336.528 148.346 336.927 148.606 337.326 148.867C337.486 148.971 337.646 149.075 337.806 149.18L337.533 149.598C338.093 149.964 338.653 150.329 339.214 150.691L339.486 150.272C340.047 150.635 340.609 150.996 341.172 151.353L340.904 151.775C341.471 152.135 342.039 152.491 342.608 152.842L342.87 152.416C343.44 152.767 344.012 153.113 344.585 153.451L344.331 153.882C344.911 154.224 345.493 154.56 346.078 154.887L346.322 154.45C346.907 154.777 347.495 155.094 348.085 155.401L347.854 155.845C348.454 156.157 349.057 156.458 349.664 156.746L349.878 156.294C350.483 156.582 351.092 156.857 351.705 157.117L351.509 157.577C352.133 157.842 352.76 158.091 353.393 158.325L353.566 157.855C354.194 158.087 354.826 158.301 355.464 158.497L355.317 158.975C355.965 159.174 356.618 159.354 357.278 159.513L357.395 159.027C358.043 159.184 358.697 159.32 359.357 159.434L359.272 159.926C359.938 160.041 360.611 160.134 361.29 160.202L361.34 159.705C362 159.771 362.666 159.815 363.339 159.833L363.326 160.333C363.664 160.342 364.005 160.345 364.347 160.342C364.703 160.338 365.058 160.329 365.41 160.314L365.389 159.814C366.091 159.785 366.786 159.732 367.476 159.659L367.529 160.156C368.236 160.08 368.937 159.983 369.632 159.865L369.548 159.372C370.238 159.255 370.921 159.117 371.6 158.96L371.713 159.447C372.402 159.288 373.086 159.109 373.764 158.913L373.625 158.433C374.295 158.239 374.959 158.027 375.619 157.799L375.783 158.272C376.448 158.042 377.109 157.796 377.766 157.536L377.581 157.071C378.228 156.814 378.871 156.543 379.509 156.258L379.713 156.715C380.354 156.429 380.992 156.13 381.625 155.82L381.405 155.371C382.03 155.065 382.651 154.748 383.269 154.421L383.503 154.863C384.123 154.535 384.739 154.197 385.352 153.851L385.106 153.416C385.712 153.074 386.315 152.724 386.916 152.366L387.171 152.796C387.773 152.438 388.371 152.074 388.968 151.703L388.704 151.279C389.296 150.911 389.886 150.538 390.474 150.161L390.744 150.582C391.332 150.205 391.919 149.823 392.504 149.439L392.229 149.021C392.812 148.638 393.393 148.252 393.974 147.865L394.251 148.281C394.832 147.893 395.412 147.503 395.991 147.114L395.712 146.699C396.034 146.482 396.355 146.265 396.677 146.049C396.934 145.875 397.191 145.702 397.447 145.529L397.727 145.944C398.306 145.554 398.884 145.165 399.463 144.778L399.185 144.363C399.766 143.974 400.347 143.588 400.929 143.205L401.204 143.623C401.495 143.431 401.786 143.241 402.077 143.051Z" stroke="white" stroke-dasharray="2 2"/>
<circle cx="1.5" cy="1.5" r="1.5" transform="matrix(1 0 0 -1 312 153.008)" fill="#70FED6"/>
<circle cx="1.5" cy="1.5" r="1.5" transform="matrix(1 0 0 -1 312 65.0083)" fill="#70FED6"/>
<circle cx="1.5" cy="1.5" r="1.5" transform="matrix(1 0 0 -1 347 172.008)" fill="#AC5AFE"/>
<circle cx="1.5" cy="1.5" r="1.5" transform="matrix(1 0 0 -1 320 24.0083)" fill="#70FED6"/>
<circle cx="1.5" cy="1.5" r="1.5" transform="matrix(1 0 0 -1 287 22.0083)" fill="#70FED6"/>
<circle cx="4" cy="4" r="4" transform="matrix(1 0 0 -1 287 87.0083)" fill="#ABFEE6"/>
<circle cx="4" cy="4" r="4" transform="matrix(1 0 0 -1 277 152.008)" fill="#ABFEE6"/>
<circle cx="4" cy="4" r="4" transform="matrix(1 0 0 -1 377 167.008)" fill="#ABFEE6"/>
<path d="M368.691 36.3484C368.529 36.414 368.367 36.4781 368.207 36.5499C368.367 36.4766 368.53 36.4096 368.691 36.3484ZM388.077 50.7024C388.288 48.9236 388.149 47.0895 387.622 45.2995C388.528 44.07 392.404 42.0436 392.404 42.0436L391.679 40.5863C389.962 41.4031 386.089 41.8542 386.089 41.8542C386.179 41.9897 386.277 42.1747 386.38 42.384C384.483 39.0445 381.348 36.7481 377.811 35.7919C377.157 34.4599 377.325 30.0511 377.325 30.0511L375.676 29.9336C375.535 31.757 374.057 35.1388 373.988 35.2942C372.621 35.3014 371.24 35.5088 369.888 35.923C368.658 35.1053 367.557 32.8559 367.557 32.8559L366.074 33.5732C366.859 35.148 367.143 36.8554 367.176 37.0656C366.083 37.6658 365.1 38.3909 364.237 39.2149C362.656 39.0304 358.936 36.7752 358.936 36.7752L358.006 38.1403C359.423 39.0741 361.439 41.5924 361.89 42.1679C361.1 43.5014 360.542 44.9557 360.239 46.4679C358.862 46.9958 356.679 46.8287 356.679 46.8287L356.582 48.4676C358.024 48.5541 359.382 48.959 359.976 49.1577C359.978 50.3824 360.148 51.6182 360.495 52.8347C359.251 54.0827 355.926 55.8226 355.926 55.8226L356.661 57.2974C358.048 56.6374 360.823 56.212 361.887 56.0678C362.693 57.4309 363.708 58.6138 364.874 59.5972C364.636 61.0263 363.405 62.774 363.405 62.774L364.8 63.6806C365.605 62.4967 366.65 61.5464 367.121 61.1463C368.869 62.1165 370.815 62.7148 372.822 62.892C373.739 64.2944 374.582 68.1895 374.582 68.1895L376.23 67.9054C375.976 66.4646 376.298 63.8622 376.459 62.7483C377.674 62.5428 378.882 62.1801 380.054 61.6421C380.645 61.3701 381.205 61.0603 381.739 60.7218C382.975 61.4969 384.123 63.2169 384.123 63.2169L385.505 62.2923C384.566 60.9331 384.042 59.401 383.919 59.0164C385.357 57.6397 386.46 55.9911 387.182 54.1963C388.944 54.0414 392.658 54.8718 392.658 54.8718L393.088 53.2848C391.432 52.8487 388.679 51.0938 388.077 50.7024Z" fill="#8F53BF"/>
<path d="M384.668 49.9449C383.939 49.9056 383.463 48.5813 382.476 46.9478C382.366 46.7394 382.213 46.5355 382.083 46.3184C381.947 46.1038 381.787 45.8901 381.638 45.6677C381.309 45.236 380.968 44.7839 380.56 44.3566C379.762 43.4903 378.78 42.6876 377.659 42.0684C376.527 41.4692 375.31 41.0822 374.137 40.8831C373.55 40.7733 372.979 40.7315 372.431 40.6888C372.159 40.684 371.89 40.6655 371.632 40.6665C371.376 40.6752 371.119 40.6577 370.879 40.6772C368.944 40.7306 367.55 41.0428 367.127 40.4591C367.027 40.3178 367.003 40.1338 367.059 39.907C367.117 39.686 367.242 39.3986 367.472 39.1145C367.915 38.5211 368.736 37.8442 369.923 37.2823C370.218 37.1313 370.541 37.0225 370.879 36.8948C371.219 36.7748 371.582 36.6811 371.961 36.5845C372.723 36.4233 373.56 36.3004 374.451 36.3038C375.339 36.3096 376.286 36.3835 377.244 36.6224C378.201 36.8525 379.175 37.207 380.111 37.7062C381.041 38.2161 381.866 38.8348 382.575 39.5059C383.292 40.1721 383.861 40.9175 384.34 41.6518C384.819 42.3889 385.159 43.1484 385.427 43.8661C385.546 44.2328 385.659 44.5834 385.737 44.9291C385.808 45.2783 385.887 45.6046 385.913 45.929C386.063 47.2134 385.918 48.256 385.642 48.9407C385.521 49.2825 385.339 49.5399 385.18 49.7065C385.014 49.8735 384.843 49.9517 384.668 49.9449Z" fill="#BE99E3"/>
<path d="M358.983 35.8609C359.238 36.0226 359.032 36.7767 358.524 37.5445C358.352 37.8043 358.167 38.032 357.989 38.2141C357.639 38.5701 357.311 38.7492 357.143 38.6424C356.889 38.4802 357.095 37.7266 357.603 36.9588C358.111 36.1906 358.729 35.6987 358.983 35.8609Z" fill="#8F53BF"/>
<path d="M358.039 38.1626C358.039 38.1626 358.687 37.4482 358.936 36.7752C359.201 36.9325 359.503 37.1112 359.813 37.2851C359.813 37.2851 358.884 38.214 358.334 38.3762L358.039 38.1626" fill="#624D9E"/>
<path d="M356.248 46.0164C356.551 46.03 356.763 46.7822 356.721 47.6966C356.707 48.0064 356.666 48.2943 356.606 48.5401C356.488 49.0208 356.297 49.3379 356.097 49.3292C355.795 49.3156 355.583 48.5634 355.624 47.649C355.666 46.7341 355.946 46.0033 356.248 46.0164Z" fill="#8F53BF"/>
<path d="M356.623 48.4701C356.623 48.4701 356.882 47.5577 356.68 46.8288C356.992 46.8506 357.331 46.8569 357.688 46.8526C357.688 46.8526 357.377 48.0875 356.986 48.4998L356.623 48.4701" fill="#624D9E"/>
<path d="M355.144 55.3225C355.414 55.1885 355.975 55.742 356.396 56.5593C356.539 56.8356 356.647 57.1066 356.717 57.3494C356.855 57.8253 356.848 58.1929 356.669 58.2818C356.399 58.4158 355.838 57.8622 355.416 57.0449C354.996 56.2277 354.873 55.4565 355.144 55.3225" fill="#8F53BF"/>
<path d="M356.697 57.2805C356.697 57.2805 356.394 56.3724 355.926 55.8227C356.198 55.6775 356.508 55.5105 356.817 55.3352C356.817 55.3352 357.167 56.5905 357.034 57.1378L356.697 57.2805Z" fill="#624D9E"/>
<path d="M362.472 62.7308C362.637 62.4812 363.406 62.6798 364.191 63.1756C364.457 63.3431 364.69 63.5233 364.876 63.6976C365.24 64.0395 365.424 64.36 365.315 64.5256C365.151 64.7757 364.382 64.5766 363.597 64.0808C362.812 63.5854 362.308 62.9809 362.472 62.7308Z" fill="#8F53BF"/>
<path d="M364.822 63.6482C364.822 63.6482 364.148 62.9693 363.404 62.7741C363.581 62.5211 363.757 62.2365 363.933 61.9316C363.933 61.9316 364.864 62.8168 365.031 63.3554L364.822 63.6482" fill="#624D9E"/>
<path d="M373.875 68.7876C373.819 68.4953 374.517 68.1204 375.434 67.95C375.745 67.8927 376.04 67.866 376.297 67.8664C376.802 67.8684 377.16 67.9772 377.197 68.1704C377.254 68.4628 376.556 68.8377 375.638 69.0081C374.721 69.1785 373.932 69.0795 373.875 68.7876" fill="#8F53BF"/>
<path d="M376.224 67.8665C376.224 67.8665 375.251 67.901 374.582 68.1895C374.515 67.8927 374.438 67.5543 374.352 67.2144C374.352 67.2144 375.679 67.2318 376.178 67.5101L376.224 67.8665" fill="#624D9E"/>
<path d="M369.461 53.4318C369.925 54.4011 369.761 55.435 369.096 55.7404C368.431 56.0463 367.517 55.5078 367.053 54.5385C366.59 53.5693 366.754 52.5354 367.419 52.23C368.084 51.924 368.998 52.4626 369.461 53.4318Z" fill="#624D9E"/>
<path d="M368.535 52.6464C368.998 53.6156 368.834 54.6495 368.17 54.9549C367.504 55.2604 366.59 54.7223 366.127 53.7531C365.663 52.7833 365.827 51.75 366.492 51.444C367.158 51.1386 368.072 51.6771 368.535 52.6464Z" fill="#DFB4EA"/>
<path d="M364.157 43.5689C364.814 42.7137 365.822 42.3714 366.408 42.8045C366.995 43.2377 366.938 44.2822 366.281 45.1374C365.624 45.993 364.617 46.3349 364.031 45.9022C363.444 45.4686 363.501 44.424 364.157 43.5689Z" fill="#624D9E"/>
<path d="M363.187 42.8904C363.844 42.0353 364.852 41.6929 365.438 42.1261C366.025 42.5593 365.969 43.6038 365.312 44.4594C364.655 45.3146 363.648 45.6569 363.061 45.2238C362.474 44.7901 362.531 43.7456 363.187 42.8904Z" fill="#DFB4EA"/>
<path d="M375.523 57.0798C375.827 57.7179 375.546 58.4778 374.896 58.7765C374.245 59.0751 373.471 58.8008 373.166 58.1622C372.862 57.5241 373.142 56.7641 373.792 56.4655C374.443 56.1664 375.217 56.4412 375.523 57.0798" fill="#624D9E"/>
<path d="M375.226 56.4607C375.531 57.0993 375.251 57.8588 374.6 58.1579C373.95 58.4566 373.175 58.1817 372.87 57.5436C372.566 56.9056 372.845 56.1456 373.496 55.8469C374.147 55.5478 374.922 55.8227 375.226 56.4607" fill="#DFB4EA"/>
<path d="M378.438 43.2144C378.172 44.0409 377.273 44.4989 376.431 44.2376C375.588 43.9763 375.121 43.095 375.387 42.2685C375.654 41.442 376.553 40.9841 377.395 41.2453C378.238 41.5066 378.704 42.3884 378.438 43.2144" fill="#624D9E"/>
<path d="M378.697 42.4132C378.431 43.2397 377.531 43.6976 376.689 43.4363C375.847 43.1751 375.38 42.2937 375.646 41.4672C375.913 40.6412 376.812 40.1828 377.654 40.444C378.496 40.7053 378.963 41.5871 378.697 42.4132Z" fill="#DFB4EA"/>
<path d="M381.848 55.0091C382.072 55.4768 381.866 56.0343 381.389 56.2533C380.912 56.4728 380.344 56.2712 380.121 55.8031C379.897 55.335 380.102 54.778 380.58 54.5585C381.057 54.3395 381.625 54.541 381.848 55.0091" fill="#DFB4EA"/>
<path d="M378.149 29.6458C378.131 29.9386 377.371 30.1328 376.451 30.0789C376.139 30.0609 375.849 30.0167 375.603 29.9546C375.121 29.8337 374.804 29.6448 374.816 29.451C374.834 29.1577 375.594 28.9635 376.514 29.0174C377.435 29.0713 378.167 29.3524 378.149 29.6458" fill="#8F53BF"/>
<path d="M375.673 29.972C375.673 29.972 376.615 30.1696 377.326 30.0511C377.317 30.3512 377.308 30.694 377.307 31.0398C377.307 31.0398 376.039 30.7096 375.63 30.325L375.673 29.972" fill="#624D9E"/>
<path d="M368.058 32.0965C368.194 32.3582 367.638 32.903 366.817 33.3144C366.539 33.4532 366.266 33.5591 366.022 33.6281C365.543 33.7631 365.173 33.7572 365.083 33.5844C364.947 33.3226 365.502 32.7773 366.324 32.3669C367.146 31.9556 367.922 31.8352 368.058 32.0965" fill="#8F53BF"/>
<path d="M366.092 33.6083C366.092 33.6083 367.018 33.382 367.557 32.8561C367.689 33.1294 367.85 33.4184 368.028 33.7175C368.028 33.7175 366.794 34.0565 366.242 33.9288L366.092 33.6083Z" fill="#624D9E"/>
<path d="M375.685 47.9242C376.147 48.8935 375.722 50.0477 374.733 50.5018C373.745 50.9563 372.568 50.5387 372.105 49.5689C371.642 48.5997 372.068 47.4454 373.056 46.9913C374.045 46.5368 375.221 46.9549 375.685 47.9242Z" fill="#624D9E"/>
<path d="M375.67 47.1248C376.133 48.094 375.707 49.2483 374.718 49.7028C373.73 50.1569 372.553 49.7388 372.091 48.7695C371.627 47.8002 372.053 46.646 373.042 46.1919C374.03 45.7374 375.207 46.155 375.67 47.1248" fill="#DFB4EA"/>
<path d="M384.909 55.3987C385.05 55.4939 385.011 55.8474 384.763 56.3981C384.517 56.9488 384.039 57.6811 383.299 58.474C382.93 58.8718 382.488 59.2719 381.985 59.673C381.473 60.0615 380.905 60.4573 380.262 60.804C378.986 61.5086 377.44 62.0656 375.745 62.3157C374.048 62.5512 372.403 62.4507 370.975 62.1321C370.258 61.9801 369.598 61.7606 368.994 61.5314C368.396 61.2876 367.855 61.0283 367.386 60.7506C366.446 60.1974 365.774 59.6298 365.378 59.1714C364.981 58.713 364.839 58.3852 364.947 58.2546C365.183 57.9685 366.303 58.5663 368.137 59.1505C368.593 59.2991 369.1 59.4346 369.642 59.5662C370.188 59.6827 370.769 59.8027 371.386 59.8736C372.618 60.0285 373.981 60.043 375.378 59.8512C376.773 59.6434 378.075 59.2476 379.21 58.7542C379.781 58.5134 380.303 58.2361 380.792 57.9714C381.273 57.6937 381.719 57.4217 382.114 57.1513C383.7 56.0776 384.6 55.1904 384.909 55.3987" fill="#624D9E"/>
<path d="M302.723 33.1402C302.632 33.1771 302.541 33.2132 302.451 33.2536C302.541 33.2123 302.633 33.1746 302.723 33.1402ZM313.659 41.2205C313.778 40.2191 313.699 39.1866 313.402 38.179C313.913 37.4869 316.1 36.3462 316.1 36.3462L315.691 35.5258C314.722 35.9856 312.538 36.2395 312.538 36.2395C312.588 36.3158 312.644 36.42 312.702 36.5378C311.632 34.6579 309.863 33.3652 307.868 32.8269C307.499 32.0771 307.594 29.5952 307.594 29.5952L306.664 29.5291C306.584 30.5556 305.75 32.4592 305.711 32.5467C304.94 32.5508 304.161 32.6675 303.398 32.9007C302.705 32.4404 302.084 31.1742 302.084 31.1742L301.247 31.5779C301.69 32.4644 301.85 33.4256 301.869 33.5439C301.252 33.8818 300.698 34.2899 300.211 34.7538C299.319 34.6499 297.22 33.3805 297.22 33.3805L296.696 34.1489C297.495 34.6746 298.632 36.0922 298.887 36.4161C298.441 37.1668 298.127 37.9855 297.956 38.8367C297.179 39.1339 295.948 39.0399 295.948 39.0399L295.893 39.9624C296.706 40.0111 297.472 40.2391 297.807 40.3509C297.808 41.0403 297.904 41.736 298.1 42.4208C297.398 43.1233 295.522 44.1028 295.522 44.1028L295.937 44.933C296.72 44.5615 298.285 44.322 298.885 44.2408C299.34 45.0081 299.912 45.674 300.57 46.2276C300.436 47.0321 299.741 48.0159 299.741 48.0159L300.528 48.5263C300.982 47.8598 301.572 47.3249 301.838 47.0996C302.824 47.6458 303.921 47.9826 305.054 48.0824C305.571 48.8718 306.046 51.0645 306.046 51.0645L306.976 50.9045C306.833 50.0935 307.015 48.6285 307.105 48.0014C307.791 47.8858 308.472 47.6816 309.133 47.3787C309.467 47.2256 309.783 47.0512 310.084 46.8607C310.781 47.297 311.429 48.2652 311.429 48.2652L312.208 47.7448C311.679 46.9796 311.383 46.1172 311.314 45.9007C312.125 45.1257 312.747 44.1976 313.154 43.1873C314.148 43.1001 316.243 43.5675 316.243 43.5675L316.486 42.6742C315.552 42.4287 313.999 41.4408 313.659 41.2205Z" fill="#8F53BF"/>
<path d="M311.798 32.4684L311.021 31.9638C310.423 32.8408 309.507 33.5386 309.507 33.5386C310.028 33.7972 310.957 34.4219 310.957 34.4219C310.996 33.6023 311.798 32.4684 311.798 32.4684Z" fill="#8F53BF"/>
<path d="M311.735 40.7942C311.324 40.7721 311.056 40.0266 310.499 39.107C310.436 38.9897 310.35 38.8749 310.277 38.7527C310.2 38.6319 310.11 38.5116 310.026 38.3864C309.84 38.1434 309.648 37.8889 309.418 37.6484C308.968 37.1607 308.414 36.7088 307.782 36.3603C307.143 36.023 306.456 35.8051 305.795 35.693C305.464 35.6312 305.141 35.6077 304.832 35.5837C304.679 35.5809 304.527 35.5706 304.382 35.5711C304.237 35.576 304.092 35.5662 303.957 35.5771C302.865 35.6072 302.079 35.783 301.84 35.4544C301.784 35.3748 301.77 35.2712 301.802 35.1436C301.835 35.0192 301.905 34.8574 302.035 34.6974C302.285 34.3634 302.748 33.9823 303.418 33.6661C303.584 33.581 303.766 33.5198 303.957 33.4479C304.148 33.3804 304.353 33.3276 304.567 33.2732C304.997 33.1825 305.469 33.1133 305.972 33.1152C306.473 33.1185 307.007 33.1601 307.547 33.2946C308.087 33.4241 308.636 33.6237 309.165 33.9047C309.689 34.1917 310.155 34.54 310.555 34.9178C310.959 35.2928 311.28 35.7124 311.55 36.1258C311.82 36.5407 312.012 36.9682 312.163 37.3723C312.231 37.5787 312.294 37.776 312.338 37.9707C312.378 38.1672 312.423 38.3509 312.438 38.5335C312.522 39.2566 312.44 39.8435 312.285 40.2289C312.216 40.4213 312.114 40.5662 312.024 40.66C311.93 40.754 311.834 40.798 311.735 40.7942Z" fill="#BE99E3"/>
<path d="M297.247 32.8659C297.39 32.9569 297.274 33.3815 296.988 33.8136C296.891 33.9599 296.787 34.0881 296.686 34.1906C296.488 34.391 296.304 34.4918 296.209 34.4317C296.066 34.3404 296.182 33.9161 296.468 33.484C296.755 33.0515 297.104 32.7746 297.247 32.8659Z" fill="#8F53BF"/>
<path d="M296.715 34.1615C296.715 34.1615 297.08 33.7593 297.221 33.3805C297.37 33.469 297.541 33.5696 297.716 33.6675C297.716 33.6675 297.191 34.1904 296.881 34.2817L296.715 34.1615" fill="#624D9E"/>
<path d="M295.704 38.5825C295.875 38.5902 295.995 39.0136 295.971 39.5284C295.963 39.7028 295.94 39.8649 295.906 40.0032C295.84 40.2738 295.732 40.4523 295.619 40.4474C295.449 40.4398 295.329 40.0163 295.353 39.5016C295.376 38.9866 295.534 38.5752 295.704 38.5825Z" fill="#8F53BF"/>
<path d="M295.915 39.964C295.915 39.964 296.061 39.4504 295.947 39.0401C296.123 39.0524 296.314 39.0559 296.516 39.0535C296.516 39.0535 296.34 39.7486 296.12 39.9807L295.915 39.964" fill="#624D9E"/>
<path d="M295.081 43.8214C295.234 43.746 295.55 44.0576 295.788 44.5177C295.868 44.6732 295.929 44.8257 295.969 44.9624C296.046 45.2303 296.043 45.4372 295.942 45.4873C295.789 45.5627 295.473 45.2511 295.235 44.791C294.998 44.331 294.929 43.8969 295.081 43.8214" fill="#8F53BF"/>
<path d="M295.957 44.9236C295.957 44.9236 295.786 44.4124 295.522 44.103C295.676 44.0212 295.851 43.9272 296.025 43.8285C296.025 43.8285 296.223 44.5351 296.148 44.8432L295.957 44.9236Z" fill="#624D9E"/>
<path d="M299.215 47.9919C299.307 47.8514 299.741 47.9632 300.184 48.2423C300.334 48.3366 300.466 48.438 300.571 48.5361C300.776 48.7286 300.88 48.909 300.818 49.0022C300.726 49.143 300.292 49.0309 299.849 48.7518C299.406 48.473 299.122 48.1326 299.215 47.9919Z" fill="#8F53BF"/>
<path d="M300.541 48.5081C300.541 48.5081 300.161 48.1259 299.741 48.016C299.841 47.8736 299.94 47.7134 300.039 47.5417C300.039 47.5417 300.565 48.0401 300.659 48.3432L300.541 48.5081" fill="#624D9E"/>
<path d="M305.647 51.4014C305.616 51.2369 306.009 51.0258 306.527 50.9299C306.702 50.8976 306.868 50.8826 307.014 50.8829C307.298 50.884 307.5 50.9452 307.521 51.054C307.553 51.2185 307.159 51.4296 306.642 51.5255C306.124 51.6215 305.679 51.5657 305.647 51.4014" fill="#8F53BF"/>
<path d="M306.972 50.8827C306.972 50.8827 306.423 50.9021 306.046 51.0645C306.008 50.8974 305.965 50.7069 305.916 50.5155C305.916 50.5155 306.665 50.5254 306.946 50.682L306.972 50.8827" fill="#624D9E"/>
<path d="M311.207 48.7331C311.108 48.5961 311.378 48.2451 311.81 47.9491C311.955 47.849 312.101 47.7681 312.233 47.7102C312.493 47.5964 312.703 47.5705 312.768 47.6612C312.866 47.7982 312.596 48.1492 312.165 48.4452C311.734 48.7413 311.305 48.87 311.207 48.7331" fill="#8F53BF"/>
<path d="M312.196 47.7266C312.196 47.7266 311.691 47.9267 311.428 48.2654C311.331 48.1216 311.217 47.9712 311.092 47.8163C311.092 47.8163 311.762 47.5284 312.084 47.5577L312.196 47.7266" fill="#624D9E"/>
<path d="M316.387 44.0634C316.222 44.0224 316.191 43.5842 316.32 43.0842C316.363 42.9152 316.419 42.7608 316.48 42.632C316.601 42.38 316.742 42.2261 316.852 42.2529C317.018 42.2936 317.048 42.7321 316.92 43.2318C316.792 43.7318 316.553 44.1041 316.387 44.0634Z" fill="#8F53BF"/>
<path d="M316.464 42.6685C316.464 42.6685 316.251 43.1647 316.244 43.5676C316.073 43.531 315.878 43.49 315.68 43.4525C315.68 43.4525 316.003 42.7918 316.267 42.6076L316.464 42.6685" fill="#624D9E"/>
<path d="M303.157 42.7571C303.419 43.3028 303.326 43.8848 302.951 44.0567C302.576 44.2289 302.06 43.9258 301.799 43.3801C301.538 42.8345 301.63 42.2525 302.005 42.0806C302.38 41.9084 302.896 42.2115 303.157 42.7571Z" fill="#624D9E"/>
<path d="M302.635 42.3149C302.896 42.8605 302.804 43.4425 302.429 43.6144C302.054 43.7864 301.538 43.4835 301.277 42.9379C301.015 42.392 301.108 41.8102 301.483 41.638C301.858 41.4661 302.374 41.7692 302.635 42.3149Z" fill="#DFB4EA"/>
<path d="M300.165 37.2048C300.536 36.7234 301.104 36.5307 301.435 36.7745C301.766 37.0184 301.734 37.6064 301.364 38.0877C300.993 38.5694 300.425 38.7619 300.094 38.5183C299.763 38.2742 299.795 37.6862 300.165 37.2048Z" fill="#624D9E"/>
<path d="M299.618 36.8231C299.989 36.3417 300.557 36.149 300.888 36.3928C301.219 36.6366 301.187 37.2246 300.817 37.7063C300.446 38.1877 299.878 38.3804 299.547 38.1366C299.216 37.8925 299.248 37.3045 299.618 36.8231Z" fill="#DFB4EA"/>
<path d="M306.577 44.8107C306.748 45.1699 306.59 45.5977 306.223 45.7658C305.856 45.9339 305.419 45.7795 305.247 45.42C305.075 45.0608 305.233 44.633 305.6 44.4649C305.967 44.2965 306.404 44.4512 306.577 44.8107" fill="#624D9E"/>
<path d="M306.41 44.462C306.582 44.8215 306.424 45.249 306.057 45.4174C305.69 45.5856 305.253 45.4308 305.081 45.0716C304.909 44.7124 305.067 44.2846 305.434 44.1165C305.801 43.9481 306.238 44.1028 306.41 44.462" fill="#DFB4EA"/>
<path d="M308.221 37.0052C308.071 37.4705 307.564 37.7283 307.089 37.5812C306.613 37.4342 306.35 36.938 306.5 36.4727C306.65 36.0075 307.158 35.7497 307.633 35.8968C308.108 36.0438 308.371 36.5403 308.221 37.0052" fill="#624D9E"/>
<path d="M308.368 36.5543C308.218 37.0196 307.71 37.2774 307.235 37.1303C306.76 36.9832 306.496 36.4871 306.647 36.0218C306.797 35.5568 307.304 35.2988 307.779 35.4458C308.255 35.5929 308.518 36.0893 308.368 36.5543Z" fill="#DFB4EA"/>
<path d="M310.268 43.9002C310.394 44.1637 310.278 44.4773 310.009 44.6008C309.74 44.7241 309.419 44.6107 309.293 44.3472C309.167 44.0836 309.283 43.7701 309.552 43.6468C309.821 43.5232 310.142 43.637 310.268 43.9002" fill="#624D9E"/>
<path d="M310.146 43.6449C310.272 43.9082 310.156 44.222 309.887 44.3453C309.618 44.4688 309.297 44.3554 309.171 44.0919C309.045 43.8284 309.161 43.5148 309.43 43.3913C309.699 43.268 310.02 43.3814 310.146 43.6449" fill="#DFB4EA"/>
<path d="M316.536 36.6246C316.385 36.6992 316.073 36.3911 315.838 35.9365C315.759 35.7829 315.699 35.632 315.66 35.497C315.583 35.2326 315.587 35.0279 315.687 34.9787C315.838 34.9041 316.15 35.2121 316.384 35.6667C316.619 36.1213 316.687 36.55 316.536 36.6246" fill="#8F53BF"/>
<path d="M315.671 35.5355C315.671 35.5355 315.84 36.0407 316.1 36.3463C315.948 36.4269 315.776 36.5199 315.603 36.6172C315.603 36.6172 315.408 35.919 315.483 35.6148L315.671 35.5355" fill="#624D9E"/>
<path d="M312.317 32.4928C312.226 32.6317 311.797 32.521 311.36 32.2452C311.212 32.1519 311.082 32.0516 310.978 31.9546C310.775 31.7646 310.673 31.5864 310.733 31.4942C310.825 31.3554 311.253 31.4661 311.691 31.7419C312.128 32.0174 312.409 32.3537 312.317 32.4928" fill="#8F53BF"/>
<path d="M311.008 31.9822C311.008 31.9822 311.383 32.3599 311.798 32.4685C311.7 32.6093 311.602 32.7675 311.503 32.937C311.503 32.937 310.985 32.4444 310.892 32.1451L311.008 31.9822Z" fill="#624D9E"/>
<path d="M308.058 29.3671C308.048 29.5319 307.619 29.6413 307.1 29.6109C306.924 29.6008 306.761 29.5759 306.622 29.5409C306.35 29.4729 306.171 29.3665 306.178 29.2575C306.188 29.0923 306.617 28.983 307.136 29.0133C307.656 29.0437 308.068 29.202 308.058 29.3671" fill="#8F53BF"/>
<path d="M306.662 29.5507C306.662 29.5507 307.193 29.662 307.594 29.5953C307.589 29.7642 307.584 29.9572 307.584 30.1519C307.584 30.1519 306.869 29.966 306.638 29.7495L306.662 29.5507" fill="#624D9E"/>
<path d="M302.367 30.7468C302.443 30.8942 302.13 31.2009 301.666 31.4324C301.509 31.5106 301.356 31.5702 301.218 31.609C300.948 31.685 300.739 31.6817 300.688 31.5844C300.612 31.4371 300.925 31.1301 301.389 30.8991C301.852 30.6675 302.29 30.5997 302.367 30.7468" fill="#8F53BF"/>
<path d="M301.257 31.5978C301.257 31.5978 301.779 31.4704 302.084 31.1744C302.158 31.3283 302.249 31.4909 302.349 31.6593C302.349 31.6593 301.653 31.8501 301.342 31.7782L301.257 31.5978Z" fill="#624D9E"/>
<path d="M311.242 41.4002C311.211 42.0021 310.852 42.4739 310.438 42.454C310.024 42.4343 309.713 41.9302 309.743 41.3283C309.773 40.7263 310.133 40.2545 310.547 40.2742C310.961 40.2942 311.271 40.798 311.242 41.4002" fill="#624D9E"/>
<path d="M311.404 40.9995C311.373 41.6015 311.014 42.0733 310.6 42.0536C310.186 42.0336 309.875 41.5298 309.905 40.9279C309.935 40.326 310.295 39.8539 310.709 39.8738C311.123 39.8935 311.434 40.3976 311.404 40.9995" fill="#DFB4EA"/>
<path d="M306.669 39.6567C306.93 40.2024 306.69 40.8521 306.132 41.1077C305.574 41.3636 304.911 41.1285 304.649 40.5826C304.388 40.037 304.629 39.3872 305.186 39.1316C305.744 38.8757 306.407 39.1111 306.669 39.6567Z" fill="#624D9E"/>
<path d="M306.66 39.2067C306.921 39.7523 306.681 40.4021 306.123 40.658C305.565 40.9136 304.902 40.6782 304.641 40.1326C304.379 39.587 304.62 38.9372 305.177 38.6816C305.735 38.4257 306.399 38.6608 306.66 39.2067" fill="#DFB4EA"/>
<path d="M311.872 43.8642C311.952 43.9178 311.93 44.1168 311.79 44.4268C311.651 44.7368 311.381 45.149 310.964 45.5954C310.756 45.8193 310.506 46.0445 310.223 46.2703C309.934 46.489 309.613 46.7118 309.251 46.907C308.531 47.3036 307.659 47.6172 306.703 47.758C305.745 47.8905 304.818 47.834 304.012 47.6546C303.607 47.5691 303.235 47.4455 302.895 47.3165C302.557 47.1793 302.252 47.0333 301.987 46.8769C301.457 46.5656 301.078 46.246 300.855 45.9879C300.63 45.7299 300.551 45.5454 300.611 45.4718C300.744 45.3108 301.377 45.6473 302.411 45.9762C302.668 46.0598 302.954 46.1361 303.26 46.2102C303.568 46.2758 303.895 46.3433 304.244 46.3832C304.939 46.4704 305.708 46.4786 306.496 46.3707C307.283 46.2537 308.017 46.0309 308.657 45.7531C308.979 45.6175 309.274 45.4615 309.55 45.3125C309.821 45.1561 310.073 45.003 310.295 44.8508C311.19 44.2464 311.698 43.7469 311.872 43.8642" fill="#624D9E"/>
<path d="M345.723 151.14C345.632 151.177 345.541 151.213 345.451 151.254C345.541 151.212 345.633 151.175 345.723 151.14ZM356.659 159.22C356.778 158.219 356.699 157.187 356.402 156.179C356.913 155.487 359.1 154.346 359.1 154.346L358.691 153.526C357.722 153.986 355.538 154.24 355.538 154.24C355.588 154.316 355.644 154.42 355.702 154.538C354.632 152.658 352.863 151.365 350.868 150.827C350.499 150.077 350.594 147.595 350.594 147.595L349.664 147.529C349.584 148.556 348.75 150.459 348.711 150.547C347.94 150.551 347.161 150.668 346.398 150.901C345.705 150.44 345.084 149.174 345.084 149.174L344.247 149.578C344.69 150.464 344.85 151.426 344.869 151.544C344.252 151.882 343.698 152.29 343.211 152.754C342.319 152.65 340.22 151.38 340.22 151.38L339.696 152.149C340.495 152.675 341.632 154.092 341.887 154.416C341.441 155.167 341.127 155.985 340.956 156.837C340.179 157.134 338.948 157.04 338.948 157.04L338.893 157.962C339.706 158.011 340.472 158.239 340.807 158.351C340.808 159.04 340.904 159.736 341.1 160.421C340.398 161.123 338.522 162.103 338.522 162.103L338.937 162.933C339.72 162.561 341.285 162.322 341.885 162.241C342.34 163.008 342.912 163.674 343.57 164.228C343.436 165.032 342.741 166.016 342.741 166.016L343.528 166.526C343.982 165.86 344.572 165.325 344.838 165.1C345.824 165.646 346.921 165.983 348.054 166.082C348.571 166.872 349.046 169.064 349.046 169.064L349.976 168.905C349.833 168.093 350.015 166.629 350.105 166.001C350.791 165.886 351.472 165.682 352.133 165.379C352.467 165.226 352.783 165.051 353.084 164.861C353.781 165.297 354.429 166.265 354.429 166.265L355.208 165.745C354.679 164.98 354.383 164.117 354.314 163.901C355.125 163.126 355.747 162.198 356.154 161.187C357.148 161.1 359.243 161.568 359.243 161.568L359.486 160.674C358.552 160.429 356.999 159.441 356.659 159.22Z" fill="#8F53BF"/>
<path d="M354.798 150.468L354.021 149.964C353.423 150.841 352.507 151.539 352.507 151.539C353.028 151.797 353.957 152.422 353.957 152.422C353.996 151.602 354.798 150.468 354.798 150.468Z" fill="#8F53BF"/>
<path d="M354.735 158.794C354.324 158.772 354.056 158.027 353.499 157.107C353.436 156.99 353.35 156.875 353.277 156.753C353.2 156.632 353.11 156.512 353.026 156.386C352.84 156.143 352.648 155.889 352.418 155.648C351.968 155.161 351.414 154.709 350.782 154.36C350.143 154.023 349.456 153.805 348.795 153.693C348.464 153.631 348.141 153.608 347.832 153.584C347.679 153.581 347.527 153.571 347.382 153.571C347.237 153.576 347.092 153.566 346.957 153.577C345.865 153.607 345.079 153.783 344.84 153.454C344.784 153.375 344.77 153.271 344.802 153.144C344.835 153.019 344.905 152.857 345.035 152.697C345.285 152.363 345.748 151.982 346.418 151.666C346.584 151.581 346.766 151.52 346.957 151.448C347.148 151.38 347.353 151.328 347.567 151.273C347.997 151.182 348.469 151.113 348.972 151.115C349.473 151.119 350.007 151.16 350.547 151.295C351.087 151.424 351.636 151.624 352.165 151.905C352.689 152.192 353.155 152.54 353.555 152.918C353.959 153.293 354.28 153.712 354.55 154.126C354.82 154.541 355.012 154.968 355.163 155.372C355.231 155.579 355.294 155.776 355.338 155.971C355.378 156.167 355.423 156.351 355.438 156.534C355.522 157.257 355.44 157.843 355.285 158.229C355.216 158.421 355.114 158.566 355.024 158.66C354.93 158.754 354.834 158.798 354.735 158.794Z" fill="#BE99E3"/>
<path d="M340.247 150.866C340.39 150.957 340.274 151.381 339.988 151.814C339.891 151.96 339.787 152.088 339.686 152.191C339.488 152.391 339.304 152.492 339.209 152.432C339.066 152.34 339.182 151.916 339.468 151.484C339.755 151.052 340.104 150.775 340.247 150.866Z" fill="#8F53BF"/>
<path d="M339.715 152.161C339.715 152.161 340.08 151.759 340.221 151.38C340.37 151.469 340.541 151.57 340.716 151.667C340.716 151.667 340.191 152.19 339.881 152.282L339.715 152.161" fill="#624D9E"/>
<path d="M338.704 156.583C338.875 156.59 338.995 157.014 338.971 157.528C338.963 157.703 338.94 157.865 338.906 158.003C338.84 158.274 338.732 158.452 338.619 158.447C338.449 158.44 338.329 158.016 338.353 157.502C338.376 156.987 338.534 156.575 338.704 156.583Z" fill="#8F53BF"/>
<path d="M338.915 157.964C338.915 157.964 339.061 157.45 338.947 157.04C339.123 157.052 339.314 157.056 339.516 157.053C339.516 157.053 339.34 157.749 339.12 157.981L338.915 157.964" fill="#624D9E"/>
<path d="M338.081 161.821C338.234 161.746 338.55 162.058 338.788 162.518C338.868 162.673 338.929 162.826 338.969 162.962C339.046 163.23 339.043 163.437 338.942 163.487C338.789 163.563 338.473 163.251 338.235 162.791C337.998 162.331 337.929 161.897 338.081 161.821" fill="#8F53BF"/>
<path d="M338.957 162.924C338.957 162.924 338.786 162.412 338.522 162.103C338.676 162.021 338.851 161.927 339.025 161.828C339.025 161.828 339.223 162.535 339.148 162.843L338.957 162.924Z" fill="#624D9E"/>
<path d="M342.215 165.992C342.307 165.851 342.741 165.963 343.184 166.242C343.334 166.337 343.466 166.438 343.571 166.536C343.776 166.729 343.88 166.909 343.818 167.002C343.726 167.143 343.292 167.031 342.849 166.752C342.406 166.473 342.122 166.133 342.215 165.992Z" fill="#8F53BF"/>
<path d="M343.541 166.508C343.541 166.508 343.161 166.126 342.741 166.016C342.841 165.874 342.94 165.713 343.039 165.542C343.039 165.542 343.565 166.04 343.659 166.343L343.541 166.508" fill="#624D9E"/>
<path d="M348.647 169.401C348.616 169.237 349.009 169.026 349.527 168.93C349.702 168.898 349.868 168.883 350.014 168.883C350.298 168.884 350.5 168.945 350.521 169.054C350.553 169.219 350.159 169.43 349.642 169.526C349.124 169.621 348.679 169.566 348.647 169.401" fill="#8F53BF"/>
<path d="M349.972 168.883C349.972 168.883 349.423 168.902 349.046 169.064C349.008 168.897 348.965 168.707 348.916 168.516C348.916 168.516 349.665 168.525 349.946 168.682L349.972 168.883" fill="#624D9E"/>
<path d="M354.207 166.733C354.108 166.596 354.378 166.245 354.81 165.949C354.955 165.849 355.101 165.768 355.233 165.71C355.493 165.596 355.703 165.57 355.768 165.661C355.866 165.798 355.596 166.149 355.165 166.445C354.734 166.741 354.305 166.87 354.207 166.733" fill="#8F53BF"/>
<path d="M355.196 165.727C355.196 165.727 354.691 165.927 354.428 166.265C354.331 166.122 354.217 165.971 354.092 165.816C354.092 165.816 354.762 165.528 355.084 165.558L355.196 165.727" fill="#624D9E"/>
<path d="M359.387 162.063C359.222 162.022 359.191 161.584 359.32 161.084C359.363 160.915 359.419 160.761 359.48 160.632C359.601 160.38 359.742 160.226 359.852 160.253C360.018 160.294 360.048 160.732 359.92 161.232C359.792 161.732 359.553 162.104 359.387 162.063Z" fill="#8F53BF"/>
<path d="M359.464 160.669C359.464 160.669 359.251 161.165 359.244 161.568C359.073 161.531 358.878 161.49 358.68 161.453C358.68 161.453 359.003 160.792 359.267 160.608L359.464 160.669" fill="#624D9E"/>
<path d="M346.157 160.757C346.419 161.303 346.326 161.885 345.951 162.057C345.576 162.229 345.06 161.926 344.799 161.38C344.538 160.835 344.63 160.253 345.005 160.081C345.38 159.908 345.896 160.212 346.157 160.757Z" fill="#624D9E"/>
<path d="M345.635 160.315C345.896 160.86 345.804 161.442 345.429 161.614C345.054 161.786 344.538 161.483 344.277 160.938C344.015 160.392 344.108 159.81 344.483 159.638C344.858 159.466 345.374 159.769 345.635 160.315Z" fill="#DFB4EA"/>
<path d="M343.165 155.205C343.536 154.723 344.104 154.531 344.435 154.775C344.766 155.018 344.734 155.606 344.364 156.088C343.993 156.569 343.425 156.762 343.094 156.518C342.763 156.274 342.795 155.686 343.165 155.205Z" fill="#624D9E"/>
<path d="M342.618 154.823C342.989 154.342 343.557 154.149 343.888 154.393C344.219 154.637 344.187 155.225 343.817 155.706C343.446 156.188 342.878 156.38 342.547 156.137C342.216 155.892 342.248 155.304 342.618 154.823Z" fill="#DFB4EA"/>
<path d="M349.577 162.811C349.748 163.17 349.59 163.598 349.223 163.766C348.856 163.934 348.419 163.779 348.247 163.42C348.075 163.061 348.233 162.633 348.6 162.465C348.967 162.296 349.404 162.451 349.577 162.811" fill="#624D9E"/>
<path d="M349.41 162.462C349.582 162.822 349.424 163.249 349.057 163.417C348.69 163.586 348.253 163.431 348.081 163.072C347.909 162.712 348.067 162.285 348.434 162.117C348.801 161.948 349.238 162.103 349.41 162.462" fill="#DFB4EA"/>
<path d="M351.221 155.005C351.071 155.471 350.564 155.728 350.089 155.581C349.613 155.434 349.35 154.938 349.5 154.473C349.65 154.007 350.158 153.75 350.633 153.897C351.108 154.044 351.371 154.54 351.221 155.005" fill="#624D9E"/>
<path d="M351.368 154.554C351.218 155.02 350.71 155.277 350.235 155.13C349.76 154.983 349.496 154.487 349.647 154.022C349.797 153.557 350.304 153.299 350.779 153.446C351.255 153.593 351.518 154.089 351.368 154.554Z" fill="#DFB4EA"/>
<path d="M353.268 161.9C353.394 162.164 353.278 162.477 353.009 162.601C352.74 162.724 352.419 162.611 352.293 162.347C352.167 162.084 352.283 161.77 352.552 161.647C352.821 161.523 353.142 161.637 353.268 161.9" fill="#624D9E"/>
<path d="M353.146 161.645C353.272 161.908 353.156 162.222 352.887 162.345C352.618 162.469 352.297 162.355 352.171 162.092C352.045 161.828 352.161 161.515 352.43 161.391C352.699 161.268 353.02 161.381 353.146 161.645" fill="#DFB4EA"/>
<path d="M359.536 154.625C359.385 154.699 359.073 154.391 358.838 153.937C358.759 153.783 358.699 153.632 358.66 153.497C358.583 153.233 358.587 153.028 358.687 152.979C358.838 152.904 359.15 153.212 359.384 153.667C359.619 154.121 359.687 154.55 359.536 154.625" fill="#8F53BF"/>
<path d="M358.671 153.535C358.671 153.535 358.84 154.041 359.1 154.346C358.948 154.427 358.776 154.52 358.603 154.617C358.603 154.617 358.408 153.919 358.483 153.615L358.671 153.535" fill="#624D9E"/>
<path d="M355.317 150.493C355.226 150.632 354.797 150.521 354.36 150.245C354.212 150.152 354.082 150.052 353.978 149.955C353.775 149.765 353.673 149.586 353.733 149.494C353.825 149.355 354.253 149.466 354.691 149.742C355.128 150.017 355.409 150.354 355.317 150.493" fill="#8F53BF"/>
<path d="M354.008 149.982C354.008 149.982 354.383 150.36 354.798 150.468C354.7 150.609 354.602 150.768 354.503 150.937C354.503 150.937 353.985 150.444 353.892 150.145L354.008 149.982Z" fill="#624D9E"/>
<path d="M351.058 147.367C351.048 147.532 350.619 147.641 350.1 147.611C349.924 147.601 349.761 147.576 349.622 147.541C349.35 147.473 349.171 147.367 349.178 147.257C349.188 147.092 349.617 146.983 350.136 147.013C350.656 147.044 351.068 147.202 351.058 147.367" fill="#8F53BF"/>
<path d="M349.662 147.551C349.662 147.551 350.193 147.662 350.594 147.595C350.589 147.764 350.584 147.957 350.584 148.152C350.584 148.152 349.869 147.966 349.638 147.749L349.662 147.551" fill="#624D9E"/>
<path d="M345.367 148.747C345.443 148.894 345.13 149.201 344.666 149.432C344.509 149.511 344.356 149.57 344.218 149.609C343.948 149.685 343.739 149.682 343.688 149.584C343.612 149.437 343.925 149.13 344.389 148.899C344.852 148.668 345.29 148.6 345.367 148.747" fill="#8F53BF"/>
<path d="M344.257 149.598C344.257 149.598 344.779 149.47 345.084 149.174C345.158 149.328 345.249 149.491 345.349 149.659C345.349 149.659 344.653 149.85 344.342 149.778L344.257 149.598Z" fill="#624D9E"/>
<path d="M354.242 159.4C354.211 160.002 353.852 160.474 353.438 160.454C353.024 160.434 352.713 159.93 352.743 159.328C352.773 158.726 353.133 158.255 353.547 158.274C353.961 158.294 354.271 158.798 354.242 159.4" fill="#624D9E"/>
<path d="M354.404 159C354.373 159.601 354.014 160.073 353.6 160.054C353.186 160.034 352.875 159.53 352.905 158.928C352.935 158.326 353.295 157.854 353.709 157.874C354.123 157.894 354.434 158.398 354.404 159" fill="#DFB4EA"/>
<path d="M349.669 157.657C349.93 158.202 349.69 158.852 349.132 159.108C348.574 159.364 347.911 159.129 347.649 158.583C347.388 158.037 347.629 157.387 348.186 157.132C348.744 156.876 349.407 157.111 349.669 157.657Z" fill="#624D9E"/>
<path d="M349.66 157.207C349.921 157.752 349.681 158.402 349.123 158.658C348.565 158.914 347.902 158.678 347.641 158.133C347.379 157.587 347.62 156.937 348.177 156.682C348.735 156.426 349.399 156.661 349.66 157.207" fill="#DFB4EA"/>
<path d="M354.872 161.864C354.952 161.918 354.93 162.117 354.79 162.427C354.651 162.737 354.381 163.149 353.964 163.595C353.756 163.819 353.506 164.045 353.223 164.27C352.934 164.489 352.613 164.712 352.251 164.907C351.531 165.304 350.659 165.617 349.703 165.758C348.745 165.891 347.818 165.834 347.012 165.655C346.607 165.569 346.235 165.446 345.895 165.316C345.557 165.179 345.252 165.033 344.987 164.877C344.457 164.566 344.078 164.246 343.855 163.988C343.63 163.73 343.551 163.545 343.611 163.472C343.744 163.311 344.377 163.647 345.411 163.976C345.668 164.06 345.954 164.136 346.26 164.21C346.568 164.276 346.895 164.343 347.244 164.383C347.939 164.47 348.708 164.479 349.496 164.371C350.283 164.254 351.017 164.031 351.657 163.753C351.979 163.618 352.274 163.461 352.55 163.312C352.821 163.156 353.073 163.003 353.295 162.851C354.19 162.246 354.698 161.747 354.872 161.864" fill="#624D9E"/>
<path d="M322.382 69.6579C322.058 69.7887 321.735 69.9167 321.415 70.0601C321.735 69.9138 322.061 69.78 322.382 69.6579ZM361.155 98.3064C361.577 94.7563 361.298 91.0956 360.244 87.5231C362.056 85.0691 369.808 81.0247 369.808 81.0247L368.358 78.1161C364.924 79.7463 357.18 80.6467 357.18 80.6467C357.358 80.9171 357.555 81.2863 357.76 81.7041C353.967 75.0389 347.696 70.4555 340.623 68.5472C339.314 65.8887 339.651 57.0893 339.651 57.0893L336.353 56.8548C336.071 60.4941 333.114 67.2436 332.976 67.5538C330.242 67.5683 327.481 67.9821 324.776 68.8089C322.316 67.1767 320.114 62.6874 320.114 62.6874L317.147 64.1189C318.719 67.262 319.287 70.6697 319.353 71.0894C317.166 72.2873 315.201 73.7343 313.475 75.3791C310.311 75.0108 302.872 70.5098 302.872 70.5098L301.012 73.2342C303.845 75.098 307.877 80.1243 308.779 81.2728C307.2 83.9342 306.085 86.8369 305.479 89.855C302.723 90.9086 298.359 90.5751 298.359 90.5751L298.165 93.8462C301.049 94.0187 303.765 94.827 304.951 95.2234C304.956 97.6677 305.296 100.134 305.991 102.562C303.503 105.053 296.852 108.526 296.852 108.526L298.322 111.469C301.096 110.152 306.645 109.303 308.774 109.015C310.386 111.736 312.416 114.097 314.748 116.059C314.272 118.912 311.809 122.4 311.809 122.4L314.6 124.209C316.21 121.846 318.301 119.95 319.243 119.151C322.738 121.087 326.629 122.282 330.645 122.635C332.478 125.434 334.164 133.208 334.164 133.208L337.461 132.641C336.953 129.766 337.597 124.572 337.917 122.348C340.348 121.938 342.765 121.214 345.108 120.141C346.291 119.598 347.411 118.979 348.479 118.304C350.951 119.851 353.247 123.284 353.247 123.284L356.011 121.438C354.133 118.726 353.085 115.668 352.839 114.9C355.715 112.152 357.92 108.862 359.365 105.28C362.889 104.971 370.317 106.628 370.317 106.628L371.176 103.461C367.865 102.59 362.358 99.0876 361.155 98.3064Z" fill="#8F53BF"/>
<path d="M354.556 67.2758L351.8 65.4866C349.681 68.5958 346.433 71.0702 346.433 71.0702C348.281 71.987 351.575 74.2017 351.575 74.2017C351.712 71.296 354.556 67.2758 354.556 67.2758Z" fill="#8F53BF"/>
<path d="M354.335 96.7948C352.877 96.7163 351.926 94.0733 349.951 90.813C349.73 90.3972 349.424 89.9901 349.166 89.5569C348.893 89.1285 348.574 88.702 348.276 88.2582C347.617 87.3965 346.935 86.4942 346.119 85.6413C344.524 83.9123 342.558 82.3102 340.318 81.0744C338.053 79.8785 335.619 79.106 333.273 78.7086C332.1 78.4896 330.956 78.4063 329.86 78.321C329.318 78.3113 328.78 78.2744 328.263 78.2764C327.751 78.2938 327.236 78.2589 326.758 78.2977C322.887 78.4043 320.098 79.0275 319.252 77.8625C319.052 77.5805 319.005 77.2132 319.117 76.7605C319.234 76.3196 319.483 75.7458 319.943 75.1788C320.829 73.9945 322.471 72.6434 324.846 71.522C325.434 71.2206 326.081 71.0035 326.758 70.7486C327.436 70.5092 328.163 70.3222 328.922 70.1293C330.445 69.8075 332.119 69.5623 333.9 69.5691C335.678 69.5807 337.571 69.728 339.487 70.2049C341.402 70.6643 343.349 71.3718 345.222 72.3682C347.081 73.3858 348.731 74.6206 350.15 75.96C351.584 77.2897 352.721 78.7775 353.68 80.2429C354.638 81.7141 355.318 83.2299 355.854 84.6624C356.092 85.3942 356.318 86.0939 356.474 86.784C356.615 87.4809 356.773 88.1321 356.826 88.7796C357.125 91.3431 356.835 93.424 356.284 94.7905C356.041 95.4729 355.677 95.9865 355.359 96.319C355.027 96.6524 354.685 96.8084 354.335 96.7948Z" fill="#BE99E3"/>
<path d="M302.966 68.6853C303.475 69.0081 303.063 70.5132 302.048 72.0455C301.704 72.564 301.335 73.0186 300.977 73.382C300.277 74.0925 299.623 74.4501 299.286 74.2369C298.778 73.9131 299.19 72.409 300.206 70.8767C301.223 69.3434 302.458 68.3616 302.966 68.6853Z" fill="#8F53BF"/>
<path d="M301.079 73.2791C301.079 73.2791 302.374 71.8534 302.872 70.5101C303.402 70.8241 304.007 71.1808 304.628 71.5278C304.628 71.5278 302.768 73.3819 301.669 73.7056L301.079 73.2791" fill="#624D9E"/>
<path d="M297.496 88.9542C298.101 88.9813 298.525 90.4826 298.442 92.3076C298.414 92.926 298.331 93.5007 298.211 93.9911C297.976 94.9506 297.594 95.5835 297.194 95.5661C296.589 95.5389 296.166 94.0376 296.249 92.2126C296.332 90.3867 296.891 88.928 297.496 88.9542Z" fill="#8F53BF"/>
<path d="M298.245 93.8513C298.245 93.8513 298.764 92.0301 298.359 90.5754C298.983 90.619 299.661 90.6316 300.375 90.6229C300.375 90.6229 299.752 93.0876 298.971 93.9104L298.245 93.8513" fill="#624D9E"/>
<path d="M295.287 107.528C295.828 107.26 296.95 108.365 297.793 109.996C298.078 110.548 298.295 111.088 298.434 111.573C298.709 112.523 298.697 113.257 298.338 113.434C297.798 113.701 296.676 112.597 295.833 110.965C294.991 109.334 294.747 107.795 295.287 107.528" fill="#8F53BF"/>
<path d="M298.393 111.436C298.393 111.436 297.787 109.623 296.852 108.526C297.395 108.236 298.015 107.903 298.634 107.553C298.634 107.553 299.335 110.058 299.068 111.151L298.393 111.436Z" fill="#624D9E"/>
<path d="M309.944 122.314C310.272 121.816 311.811 122.212 313.382 123.202C313.912 123.536 314.379 123.896 314.751 124.244C315.48 124.926 315.847 125.566 315.629 125.896C315.302 126.395 313.764 125.998 312.193 125.008C310.623 124.02 309.616 122.813 309.944 122.314Z" fill="#8F53BF"/>
<path d="M314.644 124.145C314.644 124.145 313.298 122.79 311.81 122.4C312.162 121.895 312.515 121.327 312.866 120.718C312.866 120.718 314.729 122.485 315.062 123.56L314.644 124.145" fill="#624D9E"/>
<path d="M332.749 134.402C332.638 133.819 334.033 133.071 335.868 132.731C336.488 132.616 337.079 132.563 337.593 132.564C338.602 132.568 339.318 132.785 339.393 133.171C339.507 133.754 338.11 134.502 336.276 134.842C334.441 135.183 332.863 134.985 332.749 134.402" fill="#8F53BF"/>
<path d="M337.448 132.564C337.448 132.564 335.501 132.633 334.165 133.208C334.03 132.616 333.875 131.941 333.703 131.262C333.703 131.262 336.358 131.297 337.356 131.852L337.448 132.564" fill="#624D9E"/>
<path d="M352.46 124.942C352.112 124.457 353.069 123.212 354.598 122.162C355.114 121.808 355.631 121.521 356.1 121.315C357.02 120.912 357.765 120.82 357.994 121.142C358.343 121.627 357.386 122.872 355.858 123.922C354.329 124.971 352.808 125.428 352.46 124.942" fill="#8F53BF"/>
<path d="M355.968 121.374C355.968 121.374 354.178 122.083 353.248 123.284C352.902 122.774 352.498 122.241 352.055 121.692C352.055 121.692 354.43 120.671 355.573 120.775L355.968 121.374" fill="#624D9E"/>
<path d="M370.829 108.385C370.242 108.24 370.134 106.686 370.589 104.914C370.742 104.315 370.941 103.767 371.159 103.311C371.586 102.417 372.088 101.871 372.477 101.966C373.064 102.111 373.173 103.665 372.719 105.437C372.263 107.21 371.418 108.53 370.829 108.385Z" fill="#8F53BF"/>
<path d="M371.099 103.441C371.099 103.441 370.344 105.2 370.318 106.628C369.712 106.499 369.02 106.353 368.318 106.22C368.318 106.22 369.465 103.878 370.4 103.225L371.099 103.441" fill="#624D9E"/>
<path d="M323.923 103.754C324.849 105.689 324.522 107.752 323.192 108.362C321.861 108.973 320.033 107.898 319.106 105.963C318.181 104.029 318.508 101.965 319.837 101.356C321.168 100.745 322.997 101.82 323.923 103.754Z" fill="#624D9E"/>
<path d="M322.07 102.186C322.996 104.121 322.669 106.184 321.339 106.794C320.008 107.404 318.18 106.33 317.254 104.395C316.327 102.46 316.654 100.397 317.984 99.7867C319.315 99.1771 321.144 100.252 322.07 102.186Z" fill="#DFB4EA"/>
<path d="M313.315 84.0691C314.628 82.3623 316.644 81.6791 317.816 82.5436C318.991 83.4081 318.877 85.4928 317.564 87.1996C316.25 88.9073 314.235 89.5896 313.063 88.7261C311.888 87.8606 312.002 85.7759 313.315 84.0691Z" fill="#624D9E"/>
<path d="M311.375 82.7151C312.689 81.0084 314.704 80.3251 315.878 81.1896C317.051 82.0541 316.938 84.1389 315.624 85.8466C314.311 87.5533 312.296 88.2366 311.123 87.3721C309.949 86.5066 310.062 84.4219 311.375 82.7151Z" fill="#DFB4EA"/>
<path d="M336.045 111.035C336.654 112.309 336.093 113.826 334.793 114.422C333.491 115.018 331.942 114.47 331.332 113.196C330.723 111.922 331.283 110.405 332.584 109.809C333.886 109.212 335.434 109.761 336.045 111.035" fill="#624D9E"/>
<path d="M335.454 109.8C336.064 111.074 335.503 112.59 334.201 113.187C332.901 113.783 331.35 113.234 330.741 111.961C330.132 110.687 330.692 109.171 331.994 108.575C333.295 107.977 334.845 108.526 335.454 109.8" fill="#DFB4EA"/>
<path d="M341.876 83.3616C341.344 85.0112 339.546 85.9252 337.861 85.4037C336.176 84.8823 335.242 83.1232 335.775 81.4736C336.307 79.8241 338.106 78.9101 339.791 79.4315C341.475 79.9529 342.409 81.713 341.876 83.3616" fill="#624D9E"/>
<path d="M342.395 81.7625C341.862 83.4121 340.063 84.326 338.379 83.8046C336.693 83.2832 335.76 81.5241 336.292 79.8745C336.825 78.2259 338.623 77.311 340.308 77.8324C341.993 78.3538 342.927 80.1139 342.395 81.7625Z" fill="#DFB4EA"/>
<path d="M349.131 107.808C349.578 108.742 349.167 109.854 348.213 110.292C347.259 110.729 346.122 110.327 345.676 109.392C345.229 108.458 345.64 107.346 346.594 106.909C347.548 106.471 348.684 106.874 349.131 107.808" fill="#624D9E"/>
<path d="M348.698 106.903C349.144 107.836 348.734 108.949 347.779 109.386C346.826 109.824 345.69 109.422 345.243 108.487C344.795 107.553 345.206 106.441 346.16 106.003C347.115 105.566 348.251 105.968 348.698 106.903" fill="#DFB4EA"/>
<path d="M371.355 82.0115C370.82 82.2761 369.712 81.1838 368.881 79.572C368.599 79.0273 368.386 78.4924 368.247 78.0136C367.975 77.0764 367.989 76.3504 368.343 76.176C368.878 75.9114 369.985 77.0037 370.817 78.6154C371.648 80.2272 371.889 81.7469 371.355 82.0115" fill="#8F53BF"/>
<path d="M368.288 78.1502C368.288 78.1502 368.887 79.9413 369.809 81.0249C369.273 81.3108 368.66 81.6403 368.049 81.9854C368.049 81.9854 367.357 79.51 367.622 78.4313L368.288 78.1502" fill="#624D9E"/>
<path d="M356.398 67.3623C356.075 67.8546 354.555 67.4621 353.004 66.4842C352.479 66.1537 352.019 65.798 351.651 65.4539C350.932 64.7804 350.568 64.1484 350.783 63.8218C351.108 63.3295 352.628 63.722 354.178 64.6999C355.729 65.6769 356.723 66.869 356.398 67.3623" fill="#8F53BF"/>
<path d="M351.757 65.5519C351.757 65.5519 353.086 66.8913 354.557 67.2761C354.208 67.7752 353.861 68.3364 353.512 68.9373C353.512 68.9373 351.673 67.1908 351.344 66.1295L351.757 65.5519Z" fill="#624D9E"/>
<path d="M341.299 56.2804C341.264 56.8648 339.743 57.2525 337.902 57.1449C337.279 57.1091 336.7 57.0208 336.207 56.8968C335.242 56.6555 334.609 56.2785 334.632 55.8917C334.668 55.3063 336.189 54.9187 338.03 55.0262C339.872 55.1338 341.335 55.695 341.299 56.2804" fill="#8F53BF"/>
<path d="M336.347 56.9317C336.347 56.9317 338.229 57.3262 339.651 57.0897C339.634 57.6887 339.616 58.3729 339.614 59.063C339.614 59.063 337.079 58.4039 336.26 57.6363L336.347 56.9317" fill="#624D9E"/>
<path d="M321.116 61.1718C321.388 61.6942 320.276 62.7817 318.634 63.6026C318.077 63.8798 317.533 64.0911 317.043 64.2287C316.086 64.4981 315.345 64.4865 315.166 64.1414C314.894 63.6191 316.005 62.5306 317.648 61.7117C319.292 60.8908 320.844 60.6504 321.116 61.1718" fill="#8F53BF"/>
<path d="M317.184 64.1889C317.184 64.1889 319.035 63.7373 320.115 62.6876C320.379 63.2333 320.7 63.8099 321.055 64.407C321.055 64.407 318.589 65.0835 317.485 64.8286L317.184 64.1889Z" fill="#624D9E"/>
<path d="M352.583 98.9435C352.476 101.078 351.201 102.75 349.734 102.68C348.267 102.61 347.164 100.823 347.271 98.6885C347.378 96.5544 348.653 94.8816 350.12 94.9513C351.587 95.0221 352.689 96.8083 352.583 98.9435" fill="#624D9E"/>
<path d="M353.16 97.5226C353.052 99.6568 351.777 101.33 350.311 101.26C348.843 101.189 347.741 99.4029 347.847 97.2687C347.954 95.1345 349.229 93.4607 350.696 93.5315C352.163 93.6013 353.266 95.3884 353.16 97.5226" fill="#DFB4EA"/>
<path d="M336.37 92.7621C337.296 94.6967 336.444 97.0005 334.467 97.9067C332.491 98.8138 330.137 97.9803 329.211 96.0448C328.285 94.1103 329.137 91.8065 331.113 90.9003C333.091 89.9931 335.443 90.8276 336.37 92.7621Z" fill="#624D9E"/>
<path d="M336.34 91.1665C337.267 93.101 336.414 95.4048 334.437 96.312C332.461 97.2182 330.107 96.3837 329.182 94.4491C328.255 92.5146 329.108 90.2108 331.084 89.3046C333.062 88.3975 335.414 89.231 336.34 91.1665" fill="#DFB4EA"/>
<path d="M354.819 107.68C355.101 107.87 355.023 108.575 354.527 109.674C354.034 110.774 353.078 112.235 351.599 113.818C350.861 114.612 349.976 115.41 348.97 116.211C347.947 116.986 346.81 117.776 345.525 118.468C342.972 119.874 339.88 120.986 336.491 121.485C333.095 121.955 329.807 121.755 326.949 121.119C325.515 120.815 324.196 120.377 322.988 119.92C321.791 119.433 320.709 118.916 319.771 118.361C317.891 117.257 316.548 116.124 315.756 115.21C314.961 114.295 314.679 113.64 314.894 113.38C315.365 112.809 317.607 114.002 321.273 115.168C322.186 115.464 323.2 115.735 324.284 115.998C325.376 116.23 326.537 116.47 327.772 116.611C330.236 116.92 332.963 116.949 335.757 116.566C338.546 116.152 341.15 115.362 343.421 114.377C344.563 113.896 345.606 113.343 346.585 112.815C347.546 112.26 348.438 111.718 349.227 111.178C352.4 109.035 354.201 107.264 354.819 107.68" fill="#624D9E"/>
</g>
</svg>
