<svg width="388" height="235" viewBox="0 0 388 235" fill="none" xmlns="http://www.w3.org/2000/svg">
<g filter="url(#filter0_di_4393_19856)">
<rect x="4" y="3" width="380" height="227" rx="10" fill="white"/>
<mask id="mask0_4393_19856" style="mask-type:alpha" maskUnits="userSpaceOnUse" x="4" y="3" width="380" height="227">
<rect x="4" y="3" width="380" height="227" rx="10" fill="white"/>
</mask>
<g mask="url(#mask0_4393_19856)">
<path fill-rule="evenodd" clip-rule="evenodd" d="M270.432 25.8946C294.372 15.937 314.824 51.1428 339.783 58.1981C366.147 65.6506 399.712 49.6499 419.943 68.1575C439.811 86.3334 429.998 119.702 435.779 146.018C441.6 172.51 467.523 200.29 454.152 223.864C439.822 249.129 398.652 238.781 374.252 254.496C355.327 266.685 350.949 295.987 329.882 303.903C308.498 311.937 284.925 302.546 262.939 296.319C240.272 289.899 211.841 287.427 199.896 267.087C187.607 246.16 204.244 219.891 203.805 195.624C203.465 176.863 191.518 158.377 197.607 140.636C203.677 122.95 226.163 117.072 236.179 101.291C251.224 77.5866 244.532 36.6677 270.432 25.8946Z" fill="#F8F9FA"/>
<path fill-rule="evenodd" clip-rule="evenodd" d="M281.719 62.6648C299.208 55.3903 314.149 81.1097 332.383 86.2639C351.643 91.7083 376.164 80.0191 390.943 93.5397C405.458 106.818 398.289 131.195 402.512 150.42C406.764 169.774 425.702 190.068 415.934 207.29C405.465 225.747 375.389 218.187 357.564 229.668C343.739 238.573 340.54 259.979 325.149 265.762C309.528 271.631 292.307 264.771 276.245 260.222C259.686 255.532 238.916 253.726 230.189 238.867C221.211 223.578 233.366 204.388 233.045 186.659C232.797 172.954 224.069 159.449 228.517 146.489C232.951 133.568 249.378 129.274 256.696 117.745C267.687 100.428 262.798 70.535 281.719 62.6648Z" fill="white"/>
<path d="M332.465 43.5838C332.119 43.6033 331.776 43.628 331.434 43.6578L331.477 44.1559C330.799 44.2151 330.128 44.295 329.464 44.3943L329.39 43.8998C328.708 44.0019 328.034 44.1242 327.366 44.2655L327.47 44.7547C326.806 44.8952 326.15 45.0548 325.5 45.2323L325.368 44.75C324.706 44.9308 324.05 45.1299 323.401 45.346L323.559 45.8204C322.918 46.034 322.283 46.2645 321.653 46.5108L321.471 46.0451C320.835 46.2939 320.204 46.5585 319.579 46.8375L319.783 47.2941C319.167 47.5691 318.556 47.8584 317.95 48.1609L317.726 47.7134C317.117 48.0174 316.513 48.3343 315.913 48.6629L316.153 49.1014C315.562 49.4252 314.975 49.7606 314.391 50.1065L314.136 49.6764C313.552 50.0227 312.972 50.3793 312.395 50.745L312.663 51.1673C312.094 51.528 311.528 51.8978 310.964 52.2756L310.686 51.8604C310.123 52.2378 309.563 52.623 309.005 53.0149L309.293 53.424C308.741 53.8114 308.192 54.2056 307.644 54.6054L307.349 54.2015C306.803 54.6005 306.258 55.005 305.714 55.4139L306.015 55.8134C305.476 56.2189 304.938 56.6288 304.401 57.0422L304.096 56.646C303.561 57.0585 303.026 57.4744 302.491 57.8924L302.8 58.2862C302.268 58.7021 301.737 59.1205 301.205 59.5401L300.895 59.1478C300.365 59.5667 299.835 59.9869 299.305 60.4072L299.615 60.7991C299.611 60.8021 299.608 60.8051 299.604 60.8081C299.078 61.2247 298.552 61.6417 298.025 62.058L297.715 61.6657C297.185 62.0845 296.654 62.5024 296.123 62.9185L296.431 63.3122C295.898 63.729 295.364 64.1442 294.829 64.5567L294.524 64.1606C293.989 64.5726 293.453 64.9818 292.915 65.3872L293.216 65.7865C292.676 66.1938 292.133 66.5975 291.588 66.9965L291.293 66.5931C290.749 66.9915 290.203 67.385 289.654 67.7728L289.942 68.1812C289.389 68.5718 288.833 68.9567 288.274 69.3348L287.994 68.9207C287.436 69.2979 286.875 69.6683 286.311 70.0307L286.581 70.4514C286.011 70.8173 285.438 71.1753 284.86 71.5244L284.601 71.0965C284.026 71.4442 283.447 71.7828 282.863 72.1112L283.109 72.5469C282.519 72.879 281.924 73.201 281.325 73.5117L281.095 73.0679C280.499 73.3765 279.9 73.6738 279.294 73.9589L279.508 74.4112C278.896 74.6994 278.279 74.9752 277.656 75.2377L277.462 74.7769C277.154 74.9068 276.844 75.0333 276.533 75.1563C276.222 75.2795 275.908 75.399 275.592 75.5151L275.765 75.9844C275.127 76.2185 274.482 76.4385 273.828 76.6452L273.677 76.1685C273.036 76.3711 272.388 76.561 271.731 76.7392L271.862 77.2217C271.209 77.3991 270.548 77.5649 269.881 77.7198L269.768 77.2328C269.113 77.3849 268.452 77.5265 267.785 77.6587L267.883 78.1491C267.217 78.281 266.546 78.4034 265.87 78.5171L265.787 78.024C265.122 78.1359 264.451 78.2395 263.776 78.3355L263.846 78.8305C263.174 78.9261 262.498 79.0142 261.818 79.0955L261.758 78.5991C261.088 78.6793 260.414 78.753 259.736 78.8209L259.786 79.3185C259.11 79.3863 258.43 79.4484 257.748 79.5055L257.707 79.0073C257.031 79.0639 256.353 79.1156 255.672 79.1632L255.707 79.662C255.029 79.7095 254.348 79.7529 253.666 79.7929L253.636 79.2938C252.959 79.3335 252.279 79.37 251.599 79.4038L251.624 79.9032C250.943 79.9371 250.261 79.9683 249.579 79.9977L249.558 79.4981C248.878 79.5274 248.197 79.5548 247.516 79.5811L247.535 80.0807C246.853 80.107 246.172 80.1322 245.491 80.1569L245.473 79.6572C245.092 79.671 244.713 79.6847 244.333 79.6983C244.031 79.7092 243.729 79.72 243.427 79.7309L243.445 80.2306C242.763 80.2553 242.081 80.2803 241.401 80.3063L241.382 79.8067C240.699 79.8328 240.017 79.86 239.337 79.8889L239.358 80.3885C238.675 80.4176 237.993 80.4485 237.313 80.482L237.289 79.9826C236.603 80.0164 235.92 80.0528 235.24 80.0926L235.269 80.5917C234.585 80.6317 233.905 80.6751 233.228 80.7227L233.193 80.224C232.508 80.2722 231.826 80.3247 231.149 80.3823L231.191 80.8805C230.507 80.9387 229.827 81.0022 229.152 81.0717L229.101 80.5744C228.414 80.6452 227.732 80.7223 227.055 80.8066L227.117 81.3028C226.435 81.3877 225.76 81.48 225.09 81.5806L225.016 81.0861C224.332 81.1888 223.655 81.3001 222.985 81.421L223.074 81.913C222.398 82.0349 221.73 82.1665 221.07 82.3088L220.965 81.8201C220.286 81.9667 219.614 82.1247 218.952 82.2952L219.077 82.7794C218.41 82.9512 217.753 83.1357 217.106 83.3341L216.959 82.856C216.294 83.0602 215.639 83.279 214.995 83.5137L215.166 83.9835C214.52 84.2189 213.886 84.4703 213.266 84.739L213.067 84.2801C212.428 84.5569 211.801 84.8519 211.189 85.1667L211.417 85.6114C210.808 85.9244 210.213 86.2569 209.634 86.6102L209.374 86.1834C208.78 86.5459 208.201 86.9302 207.639 87.3377L207.932 87.7425C207.381 88.1424 206.846 88.5649 206.328 89.0113L206.002 88.6327C205.477 89.0857 204.969 89.563 204.481 90.0659L204.839 90.4144C204.368 90.8986 203.915 91.4069 203.481 91.9407L203.093 91.6251C202.66 92.1575 202.245 92.7145 201.849 93.2973L202.263 93.5783C201.887 94.1319 201.528 94.7095 201.187 95.3122L200.752 95.0662C200.58 95.3699 200.413 95.6797 200.251 95.9957C200.093 96.3036 199.942 96.6117 199.798 96.92L200.251 97.1311C199.967 97.7414 199.712 98.3522 199.485 98.9633L199.016 98.7891C198.777 99.4315 198.569 100.075 198.389 100.718L198.87 100.853C198.689 101.5 198.538 102.147 198.416 102.795L197.924 102.702C197.797 103.373 197.7 104.044 197.631 104.715L198.128 104.766C198.06 105.428 198.02 106.09 198.006 106.753L197.506 106.743C197.491 107.419 197.504 108.095 197.542 108.771L198.041 108.743C198.078 109.404 198.14 110.065 198.224 110.726L197.728 110.79C197.813 111.456 197.921 112.123 198.05 112.789L198.541 112.694C198.667 113.342 198.813 113.991 198.978 114.641L198.494 114.764C198.658 115.41 198.841 116.057 199.042 116.703L199.519 116.555C199.714 117.184 199.925 117.813 200.151 118.442L199.681 118.611C199.906 119.237 200.146 119.864 200.399 120.49L200.862 120.303C201.11 120.914 201.37 121.526 201.642 122.139L201.185 122.342C201.455 122.95 201.737 123.559 202.03 124.168L202.48 123.952C202.765 124.545 203.06 125.138 203.363 125.733L202.918 125.96C203.22 126.551 203.53 127.141 203.848 127.733L204.289 127.496C204.602 128.078 204.923 128.66 205.25 129.243L204.814 129.488C205.139 130.067 205.471 130.647 205.808 131.228L206.24 130.976C206.572 131.547 206.909 132.118 207.25 132.69L206.821 132.946C207.161 133.516 207.505 134.086 207.853 134.656L208.28 134.396C208.625 134.962 208.973 135.528 209.324 136.096L208.899 136.359C209.248 136.923 209.6 137.487 209.953 138.052L210.377 137.787C210.728 138.349 211.081 138.912 211.435 139.475L211.012 139.741C211.2 140.04 211.389 140.34 211.577 140.64C211.743 140.903 211.908 141.166 212.073 141.429L212.496 141.163C212.85 141.725 213.203 142.287 213.555 142.851L213.132 143.116C213.484 143.679 213.835 144.242 214.184 144.806L214.609 144.542C214.959 145.107 215.308 145.673 215.654 146.24L215.227 146.5C215.573 147.067 215.917 147.633 216.257 148.201L216.686 147.944C217.028 148.515 217.367 149.086 217.701 149.659L217.27 149.911C217.605 150.485 217.936 151.059 218.262 151.633L218.697 151.387C219.025 151.966 219.349 152.546 219.666 153.127L219.227 153.366C219.546 153.948 219.858 154.531 220.163 155.115L220.606 154.883C220.915 155.474 221.218 156.067 221.512 156.66L221.064 156.882C221.359 157.476 221.646 158.071 221.924 158.666L222.377 158.455C222.659 159.059 222.932 159.664 223.195 160.269L222.736 160.468C223 161.077 223.254 161.685 223.496 162.295L223.961 162.11C224.207 162.731 224.443 163.353 224.666 163.976L224.195 164.144C224.418 164.766 224.629 165.39 224.825 166.013L225.302 165.863C225.503 166.499 225.689 167.135 225.861 167.773L225.378 167.903C225.55 168.54 225.706 169.178 225.847 169.817L226.335 169.709C226.478 170.36 226.605 171.013 226.714 171.666L226.22 171.748C226.274 172.071 226.324 172.394 226.369 172.718C226.413 173.036 226.453 173.355 226.488 173.673L226.985 173.618C227.058 174.265 227.112 174.913 227.15 175.561L226.651 175.59C226.689 176.231 226.711 176.873 226.717 177.515L227.217 177.51C227.224 178.159 227.216 178.809 227.193 179.46L226.694 179.443C226.671 180.084 226.636 180.727 226.587 181.37L227.086 181.407C227.037 182.054 226.975 182.702 226.902 183.349L226.406 183.293C226.334 183.932 226.251 184.572 226.157 185.212L226.652 185.284C226.558 185.926 226.455 186.568 226.342 187.21L225.85 187.124C225.738 187.758 225.618 188.393 225.49 189.029L225.981 189.127C225.853 189.763 225.717 190.399 225.575 191.035L225.087 190.926C224.946 191.556 224.799 192.186 224.646 192.817L225.132 192.934C224.98 193.565 224.822 194.196 224.659 194.827L224.175 194.702C224.014 195.329 223.848 195.956 223.68 196.583L224.162 196.713C223.994 197.341 223.822 197.968 223.648 198.595L223.166 198.461C222.993 199.087 222.817 199.712 222.641 200.338L223.122 200.474C222.955 201.063 222.788 201.652 222.621 202.24C222.611 202.277 222.6 202.314 222.59 202.351L222.109 202.214C221.931 202.84 221.754 203.466 221.577 204.092L222.059 204.228C221.882 204.855 221.707 205.481 221.534 206.107L221.052 205.973C220.878 206.602 220.706 207.231 220.538 207.859L221.021 207.988C220.853 208.618 220.688 209.247 220.528 209.875L220.043 209.752C219.882 210.386 219.725 211.02 219.574 211.653L220.06 211.769C219.908 212.404 219.763 213.038 219.624 213.671L219.136 213.564C218.996 214.205 218.863 214.846 218.738 215.486L219.229 215.581C219.104 216.222 218.988 216.862 218.882 217.501L218.389 217.419C218.281 218.068 218.183 218.716 218.096 219.364L218.591 219.43C218.505 220.077 218.43 220.723 218.367 221.368L217.869 221.32C217.806 221.975 217.755 222.631 217.719 223.285L218.218 223.313C218.182 223.964 218.16 224.613 218.154 225.262L217.654 225.257C217.648 225.917 217.658 226.575 217.685 227.232L218.185 227.212C218.212 227.862 218.256 228.51 218.319 229.157L217.822 229.205C217.886 229.861 217.968 230.516 218.072 231.169L218.566 231.091C218.667 231.731 218.788 232.369 218.93 233.006L218.442 233.115C218.585 233.756 218.75 234.396 218.937 235.034L219.417 234.894C219.598 235.513 219.801 236.13 220.026 236.745L219.557 236.917C219.671 237.228 219.79 237.538 219.916 237.848C220.042 238.158 220.17 238.467 220.302 238.775L220.762 238.578C221.023 239.188 221.296 239.79 221.58 240.386L221.128 240.601C221.416 241.205 221.716 241.803 222.026 242.393L222.469 242.16C222.777 242.747 223.096 243.326 223.426 243.899L222.992 244.148C223.326 244.728 223.67 245.3 224.024 245.866L224.448 245.6C224.799 246.161 225.161 246.715 225.532 247.262L225.119 247.543C225.493 248.096 225.878 248.641 226.272 249.18L226.676 248.885C227.066 249.419 227.465 249.946 227.874 250.467L227.481 250.776C227.892 251.3 228.312 251.818 228.741 252.33L229.124 252.009C229.549 252.516 229.982 253.016 230.423 253.51L230.05 253.843C230.493 254.34 230.945 254.831 231.404 255.315L231.767 254.971C232.221 255.451 232.683 255.925 233.152 256.393L232.799 256.747C233.27 257.217 233.748 257.681 234.233 258.139L234.577 257.776C235.057 258.229 235.543 258.677 236.037 259.12L235.702 259.492C236.197 259.936 236.698 260.375 237.205 260.808L237.529 260.428C238.031 260.858 238.539 261.282 239.053 261.701L238.737 262.088C239.251 262.508 239.771 262.923 240.297 263.333L240.604 262.939C241.125 263.345 241.651 263.747 242.182 264.144L241.882 264.544C242.414 264.942 242.95 265.335 243.491 265.723L243.783 265.317C244.319 265.703 244.86 266.084 245.405 266.461L245.121 266.872C245.667 267.249 246.218 267.622 246.771 267.991L247.048 267.575C247.599 267.941 248.153 268.303 248.71 268.661L248.439 269.082C248.998 269.441 249.559 269.796 250.124 270.147L250.388 269.722C250.95 270.071 251.514 270.416 252.082 270.758L251.824 271.186C252.392 271.528 252.964 271.867 253.537 272.201L253.789 271.77C254.361 272.103 254.934 272.433 255.51 272.759L255.263 273.194C255.841 273.522 256.42 273.846 257.001 274.166L257.242 273.728C257.822 274.048 258.403 274.364 258.986 274.678L258.749 275.118C259.334 275.432 259.92 275.743 260.507 276.051L260.739 275.609C261.326 275.916 261.914 276.221 262.502 276.522L262.274 276.967C262.865 277.27 263.456 277.57 264.048 277.867L264.272 277.421C264.865 277.718 265.458 278.013 266.05 278.304L265.829 278.753C266.425 279.046 267.021 279.337 267.617 279.625L267.834 279.174C268.432 279.463 269.029 279.749 269.625 280.033L269.41 280.484C269.709 280.627 270.008 280.768 270.307 280.909C270.607 281.051 270.909 281.192 271.211 281.33L271.42 280.876C272.021 281.153 272.625 281.423 273.23 281.687L273.03 282.146C273.64 282.412 274.252 282.671 274.866 282.925L275.057 282.463C275.668 282.715 276.282 282.962 276.898 283.202L276.716 283.668C277.335 283.91 277.957 284.146 278.58 284.375L278.753 283.906C279.374 284.135 279.996 284.358 280.621 284.575L280.457 285.047C281.085 285.265 281.715 285.477 282.346 285.683L282.501 285.208C283.13 285.413 283.761 285.612 284.393 285.806L284.247 286.284C284.882 286.478 285.519 286.667 286.158 286.85L286.296 286.369C286.932 286.551 287.569 286.727 288.208 286.897L288.079 287.38C288.721 287.552 289.365 287.717 290.009 287.877L290.13 287.392C290.772 287.551 291.415 287.704 292.06 287.852L291.948 288.339C292.595 288.488 293.244 288.631 293.894 288.768L293.997 288.279C294.644 288.416 295.292 288.547 295.942 288.673L295.847 289.164C296.499 289.29 297.152 289.411 297.806 289.527L297.893 289.034C298.544 289.149 299.196 289.259 299.849 289.363L299.77 289.857C300.426 289.962 301.083 290.061 301.74 290.156L301.811 289.661C302.466 289.755 303.121 289.843 303.777 289.927L303.714 290.423C304.373 290.507 305.032 290.586 305.692 290.659L305.747 290.162C306.405 290.236 307.062 290.304 307.721 290.368L307.673 290.865C308.334 290.929 308.995 290.988 309.657 291.041L309.697 290.543C310.356 290.597 311.016 290.645 311.676 290.689L311.643 291.188C312.305 291.232 312.968 291.272 313.631 291.306L313.657 290.807C314.317 290.841 314.978 290.871 315.639 290.896L315.62 291.396C316.283 291.421 316.946 291.441 317.61 291.457L317.622 290.958C318.283 290.973 318.944 290.985 319.606 290.992L319.601 291.492C320.264 291.499 320.928 291.501 321.591 291.499L321.59 290.999C322.251 290.998 322.913 290.991 323.574 290.981L323.582 291.481C324.245 291.47 324.909 291.455 325.572 291.436L325.558 290.936C326.219 290.917 326.88 290.894 327.541 290.867L327.561 291.366C328.224 291.339 328.887 291.307 329.55 291.271L329.523 290.772C330.183 290.737 330.843 290.697 331.503 290.653L331.536 291.152C331.867 291.13 332.198 291.107 332.529 291.083C332.866 291.059 333.203 291.033 333.539 291.005L333.498 290.506C334.168 290.45 334.836 290.387 335.502 290.316L335.555 290.813C336.227 290.741 336.897 290.662 337.565 290.576L337.501 290.08C338.168 289.994 338.833 289.901 339.495 289.801L339.57 290.296C340.238 290.195 340.904 290.087 341.568 289.973L341.483 289.48C342.145 289.366 342.805 289.245 343.463 289.118L343.558 289.609C344.221 289.481 344.882 289.346 345.541 289.205L345.436 288.716C346.093 288.576 346.748 288.429 347.401 288.276L347.515 288.763C348.172 288.61 348.827 288.45 349.48 288.285L349.358 287.8C350.008 287.636 350.658 287.465 351.305 287.289L351.436 287.772C352.087 287.595 352.735 287.413 353.383 287.226L353.244 286.746C353.888 286.559 354.532 286.367 355.173 286.17L355.32 286.648C355.964 286.451 356.606 286.249 357.248 286.041L357.094 285.566C357.732 285.359 358.369 285.148 359.005 284.933L359.166 285.406C359.803 285.19 360.439 284.97 361.075 284.745L360.908 284.273C361.54 284.05 362.171 283.822 362.801 283.59L362.974 284.059C363.606 283.826 364.236 283.59 364.865 283.35L364.687 282.883C365.314 282.644 365.939 282.401 366.564 282.155L366.747 282.62C367.373 282.373 367.998 282.123 368.622 281.87L368.434 281.407C369.055 281.154 369.676 280.899 370.296 280.64L370.488 281.102C371.108 280.843 371.728 280.582 372.347 280.317L372.151 279.857C372.768 279.594 373.384 279.328 373.999 279.059L374.199 279.518C374.815 279.249 375.43 278.978 376.045 278.705L375.842 278.248C376.455 277.975 377.067 277.701 377.679 277.424L377.885 277.88C378.497 277.603 379.109 277.324 379.72 277.044L379.512 276.59C380.121 276.31 380.731 276.028 381.34 275.746L381.55 276.199C382.159 275.916 382.768 275.632 383.377 275.346L383.164 274.894C383.771 274.609 384.379 274.323 384.986 274.035L385.199 274.487C385.806 274.2 386.413 273.912 387.019 273.623L386.804 273.172C387.41 272.883 388.016 272.594 388.621 272.304L388.837 272.755C389.14 272.61 389.443 272.465 389.746 272.32C390.035 272.182 390.326 272.044 390.619 271.907L390.407 271.454C390.992 271.18 391.582 270.91 392.177 270.643L392.382 271.099C392.969 270.836 393.562 270.576 394.158 270.318L393.96 269.859C394.553 269.602 395.151 269.348 395.752 269.096L395.945 269.557C396.54 269.308 397.139 269.06 397.74 268.814L397.551 268.351C398.15 268.106 398.752 267.863 399.356 267.62L399.543 268.084C400.143 267.844 400.745 267.604 401.35 267.365L401.166 266.9C401.768 266.661 402.372 266.424 402.977 266.186L403.16 266.651C403.458 266.534 403.757 266.417 404.055 266.3C404.361 266.18 404.666 266.061 404.972 265.941L404.789 265.475C405.393 265.239 405.998 265.002 406.602 264.764L406.785 265.229C407.389 264.992 407.994 264.753 408.598 264.514L408.413 264.049C409.017 263.81 409.62 263.569 410.222 263.327L410.408 263.791C411.012 263.548 411.615 263.303 412.216 263.057L412.026 262.594C412.627 262.347 413.227 262.098 413.824 261.847L414.018 262.308C414.619 262.055 415.218 261.8 415.814 261.541L415.615 261.082C416.212 260.824 416.805 260.562 417.396 260.297L417.601 260.753C418.197 260.485 418.789 260.214 419.377 259.939L419.166 259.486C419.755 259.21 420.341 258.93 420.922 258.646L421.142 259.095C421.73 258.807 422.313 258.514 422.891 258.217L422.663 257.772C423.242 257.474 423.816 257.17 424.384 256.861L424.623 257.301C425.199 256.987 425.769 256.668 426.333 256.342L426.083 255.909C426.647 255.583 427.205 255.25 427.755 254.911L428.017 255.336C428.576 254.991 429.128 254.639 429.671 254.279L429.395 253.862C429.939 253.502 430.473 253.134 430.999 252.758L431.29 253.165C431.825 252.782 432.351 252.391 432.867 251.991L432.561 251.596C433.075 251.196 433.58 250.788 434.073 250.37L434.396 250.751C434.899 250.326 435.39 249.89 435.87 249.444L435.529 249.078C436.005 248.635 436.469 248.181 436.921 247.717L437.279 248.065C437.738 247.593 438.184 247.11 438.616 246.614L438.24 246.286C438.666 245.797 439.079 245.296 439.478 244.784L439.872 245.091C440.276 244.572 440.665 244.04 441.038 243.496L440.626 243.213C440.992 242.68 441.343 242.135 441.679 241.576L442.107 241.833C442.445 241.272 442.766 240.697 443.072 240.108L442.628 239.878C442.925 239.306 443.206 238.722 443.471 238.124L443.929 238.326C444.062 238.025 444.192 237.72 444.317 237.412C444.446 237.096 444.568 236.78 444.684 236.464L444.215 236.292C444.445 235.664 444.651 235.036 444.834 234.407L445.314 234.546C445.503 233.895 445.668 233.243 445.81 232.59L445.321 232.484C445.462 231.834 445.58 231.183 445.675 230.531L446.17 230.604C446.268 229.936 446.343 229.268 446.396 228.6L445.898 228.56C445.951 227.9 445.983 227.239 445.995 226.578L446.495 226.587C446.507 225.916 446.499 225.245 446.472 224.573L445.972 224.593C445.946 223.934 445.901 223.273 445.84 222.613L446.338 222.566C446.276 221.901 446.197 221.236 446.102 220.571L445.607 220.641C445.515 219.989 445.407 219.336 445.285 218.682L445.777 218.591C445.655 217.937 445.52 217.282 445.371 216.628L444.884 216.738C444.739 216.096 444.581 215.453 444.413 214.809L444.896 214.683C444.728 214.041 444.549 213.398 444.361 212.755L443.881 212.896C443.695 212.264 443.5 211.631 443.297 210.998L443.773 210.845C443.57 210.214 443.36 209.583 443.142 208.951L442.669 209.114C442.454 208.491 442.232 207.867 442.004 207.243L442.473 207.071C442.246 206.449 442.013 205.827 441.775 205.204L441.308 205.382C441.073 204.766 440.833 204.149 440.589 203.532L441.054 203.348C440.811 202.733 440.564 202.117 440.314 201.501L439.851 201.689C439.603 201.077 439.352 200.465 439.099 199.851L439.562 199.661C439.31 199.049 439.056 198.437 438.801 197.825L438.34 198.017C438.175 197.62 438.009 197.222 437.844 196.825C437.755 196.611 437.666 196.397 437.577 196.184L438.039 195.992C437.784 195.381 437.531 194.77 437.278 194.158L436.816 194.349C436.563 193.738 436.311 193.125 436.061 192.513L436.524 192.324C436.274 191.711 436.027 191.099 435.782 190.486L435.318 190.671C435.072 190.056 434.83 189.44 434.591 188.824L435.058 188.643C434.819 188.027 434.584 187.41 434.355 186.793L433.886 186.968C433.655 186.346 433.429 185.724 433.208 185.102L433.679 184.935C433.459 184.312 433.244 183.689 433.037 183.066L432.563 183.224C432.353 182.594 432.15 181.964 431.956 181.333L432.434 181.185C432.239 180.555 432.053 179.924 431.876 179.293L431.394 179.428C431.215 178.789 431.045 178.149 430.885 177.509L431.37 177.388C431.211 176.748 431.062 176.109 430.924 175.47L430.436 175.575C430.296 174.926 430.168 174.276 430.053 173.627L430.546 173.54C430.489 173.217 430.435 172.894 430.384 172.572C430.334 172.255 430.287 171.937 430.242 171.62L429.747 171.69C429.656 171.05 429.573 170.41 429.499 169.769L429.995 169.711C429.921 169.073 429.855 168.435 429.796 167.796L429.299 167.842C429.239 167.199 429.187 166.555 429.142 165.911L429.64 165.875C429.595 165.234 429.556 164.593 429.522 163.951L429.023 163.977C428.989 163.332 428.961 162.687 428.938 162.041L429.438 162.023C429.415 161.38 429.397 160.737 429.382 160.093L428.882 160.104C428.868 159.459 428.858 158.813 428.851 158.167L429.351 158.162C429.343 157.517 429.34 156.873 429.338 156.228L428.838 156.229C428.836 155.583 428.837 154.938 428.84 154.292L429.34 154.294C429.342 153.648 429.346 153.003 429.351 152.358L428.851 152.354C428.855 151.756 428.86 151.157 428.865 150.559C428.866 150.512 428.866 150.464 428.866 150.417L429.366 150.421C429.372 149.775 429.377 149.129 429.382 148.483L428.882 148.479C428.886 147.833 428.89 147.187 428.892 146.542L429.392 146.543C429.393 145.896 429.394 145.249 429.391 144.602L428.891 144.604C428.889 143.957 428.884 143.312 428.876 142.666L429.375 142.66C429.367 142.012 429.355 141.364 429.339 140.717L428.839 140.729C428.823 140.083 428.803 139.437 428.778 138.793L429.277 138.773C429.252 138.124 429.221 137.476 429.184 136.829L428.685 136.857C428.649 136.212 428.606 135.568 428.556 134.924L429.055 134.886C429.005 134.238 428.948 133.591 428.884 132.944L428.386 132.994C428.322 132.351 428.25 131.709 428.17 131.069L428.666 131.006C428.585 130.361 428.495 129.717 428.395 129.074L427.901 129.15C427.803 128.512 427.695 127.875 427.576 127.24L428.068 127.148C427.949 126.509 427.819 125.87 427.678 125.233L427.19 125.341C427.051 124.712 426.9 124.084 426.738 123.457L427.222 123.332C427.059 122.703 426.884 122.075 426.697 121.448L426.218 121.592C426.033 120.975 425.836 120.361 425.625 119.748L426.098 119.585C425.992 119.277 425.883 118.969 425.771 118.661C425.655 118.344 425.538 118.028 425.42 117.711L424.951 117.886C424.716 117.256 424.477 116.627 424.233 116L424.7 115.819C424.456 115.19 424.208 114.562 423.956 113.935L423.492 114.122C423.241 113.498 422.985 112.875 422.726 112.254L423.187 112.062C422.927 111.439 422.663 110.817 422.394 110.198L421.935 110.397C421.667 109.78 421.395 109.164 421.119 108.551L421.575 108.346C421.298 107.73 421.016 107.116 420.73 106.505L420.277 106.716C419.992 106.107 419.702 105.499 419.408 104.894L419.858 104.676C419.563 104.068 419.264 103.463 418.96 102.86L418.513 103.085C418.21 102.484 417.902 101.885 417.59 101.29L418.033 101.058C417.72 100.459 417.402 99.8631 417.079 99.2699L416.64 99.5089C416.318 98.9176 415.992 98.3291 415.661 97.7436L416.096 97.4975C415.763 96.9091 415.426 96.3237 415.084 95.7414L414.653 95.9946C414.312 95.4142 413.966 94.8369 413.615 94.2629L414.042 94.0023C413.69 93.4253 413.333 92.8516 412.97 92.2813L412.548 92.5493C412.188 91.981 411.822 91.4162 411.451 90.855L411.868 90.5794C411.496 90.0152 411.118 89.4546 410.735 88.8977L410.323 89.1809C409.942 88.6261 409.556 88.0751 409.165 87.528L409.571 87.2372C409.178 86.6871 408.779 86.141 408.375 85.5989L407.975 85.8976C407.572 85.3579 407.165 84.8222 406.753 84.2908L407.148 83.9842C406.733 83.4499 406.313 82.9198 405.888 82.3942L405.499 82.7086C405.076 82.1854 404.648 81.6667 404.214 81.1524L404.596 80.83C404.16 80.313 403.718 79.8007 403.271 79.293L402.896 79.6234C402.451 79.1184 402.001 78.6182 401.546 78.1228L401.914 77.7844C401.456 77.2865 400.993 76.7935 400.524 76.3055L400.163 76.6519C399.697 76.1669 399.226 75.6868 398.749 75.212L399.101 74.8576C398.622 74.3805 398.137 73.9086 397.647 73.442L397.302 73.8043C396.815 73.341 396.322 72.8829 395.823 72.4302L396.16 72.0601C395.659 71.6056 395.153 71.1565 394.641 70.713L394.313 71.0909C393.805 70.6509 393.292 70.2164 392.772 69.7876L393.09 69.402C392.829 69.1866 392.567 68.9726 392.303 68.76C392.051 68.5571 391.798 68.3544 391.545 68.152L391.233 68.5428C390.728 68.1398 390.22 67.7379 389.71 67.3376L390.018 66.9441C389.508 66.5446 388.995 66.1465 388.48 65.7502L388.175 66.1467C387.662 65.7528 387.147 65.3608 386.629 64.9708L386.93 64.5713C386.412 64.1815 385.891 63.7938 385.367 63.4084L385.071 63.8111C384.55 63.4278 384.026 63.0468 383.5 62.6686L383.792 62.2626C383.265 61.8839 382.735 61.5079 382.203 61.1349L381.916 61.5444C381.386 61.173 380.854 60.8046 380.319 60.4395L380.6 60.0265C380.064 59.6605 379.525 59.2978 378.984 58.9386L378.707 59.3553C378.168 58.9975 377.626 58.6432 377.081 58.2929L377.352 57.8724C376.805 57.5207 376.256 57.1729 375.705 56.8293L375.44 57.2536C374.891 56.9111 374.339 56.5727 373.784 56.2389L374.042 55.8106C373.485 55.4751 372.925 55.144 372.363 54.8179L372.112 55.2503C371.552 54.925 370.989 54.6046 370.424 54.2893L370.668 53.8527C370.1 53.5354 369.529 53.2234 368.956 52.9167L368.72 53.3576C368.149 53.0518 367.575 52.7515 366.999 52.457L367.227 52.0118C366.647 51.7152 366.065 51.4244 365.481 51.1397L365.262 51.5892C364.679 51.3053 364.094 51.0276 363.507 50.7564L363.717 50.3025C363.125 50.0291 362.532 49.7622 361.936 49.5021L361.736 49.9604C361.142 49.7011 360.545 49.4487 359.947 49.2035L360.137 48.7408C359.533 48.4935 358.928 48.2534 358.321 48.0208L358.142 48.4878C357.536 48.256 356.929 48.0319 356.32 47.8157L356.487 47.3445C355.872 47.1263 355.255 46.9161 354.636 46.7143L354.481 47.1896C353.865 46.9885 353.247 46.7959 352.627 46.6119L352.769 46.1325C352.143 45.9468 351.516 45.7698 350.886 45.602L350.758 46.0851C350.131 45.9181 349.503 45.7602 348.874 45.6118L348.989 45.1252C348.353 44.9754 347.716 44.8351 347.077 44.7047L346.977 45.1946C346.342 45.0651 345.706 44.9454 345.068 44.8359L345.153 44.3432C344.509 44.2327 343.864 44.1325 343.218 44.0429L343.149 44.5382C342.508 44.4494 341.865 44.3711 341.221 44.3037L341.273 43.8065C340.624 43.7385 339.974 43.6816 339.322 43.6359L339.287 44.1346C338.642 44.0894 337.995 44.0554 337.348 44.0329L337.365 43.5332C336.713 43.5105 336.06 43.4993 335.405 43.5L335.406 44C334.76 44.0007 334.113 44.0131 333.464 44.0375L333.446 43.5379C333.119 43.5502 332.792 43.5655 332.465 43.5838Z" stroke="#00BB7E" stroke-dasharray="2 2"/>
</g>
<g clip-path="url(#clip0_4393_19856)">
<path d="M106.893 168.675C101.502 167.088 96.0279 170.634 91.7648 174.291C87.5016 177.949 82.9192 182.159 77.3012 182.179C71.6199 182.199 66.977 177.935 62.6621 174.243C58.3443 170.55 52.7665 166.985 47.3441 168.684C45.3276 169.317 43.5815 170.631 41.5851 171.321C37.463 172.744 32.7798 171.266 29.3279 168.601C28.4736 167.942 27.6825 167.22 26.9346 166.45C28.4822 173.435 30.3836 180.169 34.106 186.596C37.158 191.864 40.9983 196.652 45.5146 200.652C57.4525 211.231 74.0592 216.123 89.5239 213.135C104.989 210.147 118.911 199.18 125.343 184.356C125.602 183.761 125.847 183.163 126.083 182.559C122.386 180.882 118.969 178.605 116.043 175.787C113.227 173.078 110.641 169.78 106.893 168.675Z" fill="#ABFEE6"/>
<path d="M141.153 135.235C142.379 127.701 140.161 118.775 133.553 115.333C127.366 112.11 119.42 114.64 113.316 111.253C107.137 107.825 105.173 99.8078 101.016 93.9761C95.7114 86.5341 86.0977 82.6607 77.3097 84.4206C68.5245 86.1833 61.0137 93.493 58.7958 102.442C57.7861 106.517 57.8034 110.781 57.2453 114.948C56.6844 119.115 55.4129 123.416 52.4155 126.263C47.2807 131.14 39.1169 130.151 32.8632 133.352C23.9514 137.912 23.1776 148.546 25.0445 157.429C25.686 160.477 26.2786 163.485 26.9345 166.45C27.6824 167.217 28.4735 167.942 29.3278 168.601C32.7798 171.266 37.46 172.744 41.5851 171.321C43.5843 170.631 45.3275 169.317 47.344 168.684C52.7664 166.984 58.3442 170.55 62.662 174.242C66.9798 177.935 71.6198 182.202 77.3011 182.179C82.9191 182.159 87.5015 177.949 91.7647 174.291C96.0278 170.634 101.502 167.088 106.893 168.675C110.641 169.78 113.227 173.078 116.04 175.789C118.966 178.608 122.383 180.885 126.08 182.561C129.333 174.237 130.587 165.173 133.582 156.721C136.122 149.547 139.928 142.766 141.153 135.235Z" fill="#DCFBF3"/>
<path d="M51.9612 108.242C51.6562 111.667 49.9734 114.951 47.3701 117.196C44.3928 119.767 40.4662 120.892 36.6748 121.944C34.6181 122.516 32.5613 123.089 30.5045 123.661C29.3539 123.98 28.1773 124.305 26.9864 124.216C24.9153 124.063 23.1001 122.66 21.9265 120.943C19.4641 117.343 19.4957 112.426 21.2648 108.44C23.0339 104.455 26.3219 101.312 29.9522 98.8991C32.7713 97.0271 35.9125 95.5059 39.2782 95.1378C42.5345 94.7813 46.5733 95.6439 48.8429 98.1975C51.1528 100.797 52.2632 104.834 51.9612 108.242Z" fill="#DCFBF3"/>
<path d="M32.7457 191.112L31.9071 192.502C30.5895 194.682 29.8936 197.18 29.8936 199.729V211.139L53.5518 214L73.6734 212.283L68.6822 195.403L32.7457 191.112Z" fill="#974A21"/>
<path d="M37.2601 200.236L44.4274 201.589C49.8122 202.605 55.3482 202.482 60.6816 201.228L65.4874 200.098C67.076 199.724 68.4279 198.719 69.255 197.34L68.6818 195.403L32.7452 191.112L31.9067 192.502C31.4532 193.252 31.0767 194.039 30.7744 194.851L30.8771 195.094C32.0151 197.767 34.408 199.698 37.2601 200.236Z" fill="#5A2A10"/>
<path d="M54.0763 212.727C53.1978 211.743 52.0713 210.704 50.7622 209.734C49.4559 208.761 47.9671 207.854 46.407 207.099C44.8469 206.344 43.2126 205.74 41.6411 205.32C40.0696 204.896 38.558 204.656 37.2432 204.579C39.6988 205.543 42.839 206.759 45.8622 208.232C48.894 209.688 51.7946 211.396 54.0763 212.727Z" fill="#5A2A10"/>
<path d="M67.0535 203.795C66.0495 203.909 64.903 204.172 63.7279 204.61C62.5528 205.045 61.3521 205.651 60.2398 206.39C59.1275 207.131 58.1007 208 57.2451 208.916C56.3837 209.829 55.6935 210.787 55.1973 211.668C56.6832 210.295 58.6284 208.607 60.7731 207.194C62.9037 205.766 65.211 204.63 67.0535 203.795Z" fill="#5A2A10"/>
<path d="M54.9212 141.135L67.5675 142.995L83.7503 148.983L82.6808 163.122L76.0268 161.5L70.2969 178.521C69.273 181.562 69.4014 184.875 70.6592 187.827C71.703 190.276 71.5005 193.08 70.1201 195.355L69.4613 196.436C68.9108 197.343 68.001 197.97 66.96 198.161C60.7709 199.289 48.889 200.453 37.5376 197.538C34.7312 196.817 32.3383 194.98 30.935 192.437C29.6544 190.113 29.3008 187.39 29.9425 184.812C31.2174 179.685 33.559 170.924 35.815 165.886L26.1406 160.713L32.9999 149.945C35.2759 146.371 38.9466 143.922 43.1107 143.195L54.9212 141.135Z" fill="#D17B4D"/>
<path d="M82.6809 163.122L83.7504 148.983L67.5676 142.995L54.9727 141.144C57.685 150.972 61.7892 160.413 67.1397 169.085C68.4317 171.179 69.8293 173.259 71.435 175.122L76.0212 161.497L82.6809 163.122Z" fill="#974A21"/>
<path fill-rule="evenodd" clip-rule="evenodd" d="M42.5967 163L29.9424 184.815C31.2201 179.691 33.5617 170.927 35.8149 165.889L32.6947 164.221L42.5967 162V163Z" fill="#974A21"/>
<path d="M63.5085 152.168C62.3705 152.374 61.0671 152.411 59.7466 152.151C58.4289 151.893 57.1027 151.341 55.9932 150.494C54.8866 149.644 54.0053 148.506 53.412 147.298C52.8131 146.088 52.5079 144.818 52.4053 143.662C52.14 144.789 52.1657 146.208 52.6505 147.613C53.124 149.015 54.0481 150.391 55.3258 151.369C56.6036 152.348 58.1694 152.883 59.6439 152.972C61.1241 153.069 62.496 152.723 63.5085 152.168Z" fill="#974A21"/>
<path d="M72.8178 166.135C71.1864 166.021 69.3439 165.861 67.413 165.563C65.4793 165.268 63.46 164.836 61.4778 164.264C59.4984 163.686 57.559 162.968 55.7707 162.181C53.9796 161.397 52.3339 160.545 50.8965 159.767C52.0174 160.954 53.4948 162.17 55.2345 163.217C56.9715 164.27 58.9679 165.154 61.0471 165.76C63.1263 166.364 65.2854 166.687 67.3132 166.727C69.3411 166.773 71.2348 166.539 72.8178 166.135Z" fill="#974A21"/>
<path d="M68.8998 173.574C67.0688 174.567 64.9325 175.645 62.591 176.638C60.2522 177.634 57.7082 178.54 55.1127 179.267C52.5173 179.988 49.8734 180.532 47.355 180.892C44.8394 181.256 42.4551 181.439 40.373 181.539C42.4408 181.765 44.8623 181.831 47.4349 181.625C50.0075 181.422 52.7255 180.952 55.3723 180.214C58.019 179.473 60.5888 178.469 62.8961 177.307C65.2063 176.149 67.2456 174.838 68.8998 173.574Z" fill="#974A21"/>
<path d="M61.8544 175.774C59.7467 175.865 57.06 175.997 54.3733 175.908C51.6866 175.834 49.0113 175.542 46.915 175.325C48.8374 176.192 51.5697 176.838 54.3448 176.915C57.117 177.004 59.8836 176.521 61.8544 175.774Z" fill="#974A21"/>
<path d="M35.8121 165.886L27.2815 161.317L21.1865 171.52L35.8121 165.886Z" fill="#F57F62"/>
<path d="M27.2812 161.317L35.8119 165.886L28.9868 168.515L26.6338 162.404L27.2812 161.317Z" fill="#5A2A10"/>
<path d="M37.6514 160.101L37.1152 156.768L22.0332 170.567C19.3323 173.039 19.3209 177.299 22.0076 179.788C24.7969 182.369 29.2177 181.874 31.371 178.741L40.1042 166.035L39.9502 165.812C38.7665 164.101 37.9822 162.153 37.6514 160.101Z" fill="#F9A78D"/>
<path d="M37.5717 156.35L37.1182 156.765L37.6544 160.098C37.9852 162.15 38.7695 164.101 39.9532 165.806L40.1072 166.029L42.5966 162L37.5717 156.35Z" fill="#F57F62"/>
<path d="M45.2524 147.727C46.0938 147.241 47.1719 147.61 47.5426 148.511L48.7091 151.332C49.02 152.085 48.6835 152.949 47.9476 153.292C47.2004 153.641 46.3134 153.326 45.9512 152.582L44.6078 149.842C44.2313 149.078 44.5137 148.151 45.2524 147.727Z" fill="#F57F62"/>
<path d="M36.0544 149.492L39.0434 147.081C39.9846 146.32 41.3023 146.231 42.3376 146.857L44.0973 147.925C44.6421 148.254 45.0613 148.757 45.2866 149.355L48.3954 157.543C48.6094 158.104 48.5124 158.736 48.1445 159.211C48.1445 159.211 47.5291 160.031 47.1348 160.556C46.8508 159.788 46.4075 158.591 46.4075 158.591C44.7191 158.622 43.1248 159.392 42.0495 160.696L41.9383 160.831C41.9383 160.831 45.1054 160.663 47.1348 160.556C46.2716 161.301 45.6783 161.639 44.5966 162C43.2714 162.443 41.0313 162.296 41.0313 162.296C39.7906 162.035 38.7667 161.16 38.319 159.97L35.3471 152.082C35.002 151.158 35.2872 150.113 36.0544 149.492Z" fill="#F9A78D"/>
<path d="M47.1348 160.556C46.8508 159.788 46.4075 158.591 46.4075 158.591C44.7191 158.622 43.1248 159.392 42.0495 160.696L41.9383 160.831C41.9383 160.831 45.1054 160.663 47.1348 160.556Z" fill="#F9A78D"/>
<path d="M48.0331 156.585L44.4623 155.583C43.9375 155.438 43.3756 155.583 42.9906 155.97L41.0654 157.898L42.4829 155.724C43.0762 154.811 44.2712 154.513 45.2238 155.037L48.0331 156.585Z" fill="#F57F62"/>
<path d="M47.2778 154.591L43.6641 152.805C42.9083 152.431 41.9928 152.668 41.5108 153.363L40.1846 155.277L41.1058 153.169C41.622 151.984 43.0966 151.578 44.1433 152.333L47.2778 154.591Z" fill="#F57F62"/>
<path d="M46.0337 151.318L43.27 149.561C42.5114 149.081 41.5131 149.238 40.9399 149.93L39.5908 151.558L40.7117 149.475C41.2023 148.566 42.3973 148.328 43.1959 148.986L46.0337 151.318Z" fill="#F57F62"/>
<path d="M60.2203 142.892C61.5494 143.939 63.2407 144.511 64.9291 144.488C65.7277 144.477 66.5206 144.328 67.2736 144.065L68.3745 140.091L57.1087 137.616L56.9033 137.948C57.6477 139.839 58.6403 141.647 60.2203 142.892Z" fill="#5A2A10"/>
<path d="M64.9287 144.488C63.2402 144.511 61.5489 143.939 60.2199 142.892C58.6398 141.647 57.6472 139.842 56.9 137.948L54.9206 141.138C53.9424 142.717 53.8226 144.683 54.6012 146.371C55.8076 148.974 58.5286 150.591 61.3693 150.239C64.0417 149.907 66.1808 148.005 66.8767 145.487L67.2703 144.068C66.5202 144.328 65.7273 144.477 64.9287 144.488Z" fill="#F9A78D"/>
<path d="M74.3374 129.591L72.5549 122.41C71.9246 119.672 70.2504 117.449 68.0485 116.064C63.8474 116.267 59.6947 117.403 55.9813 119.386C56.4547 120.862 56.8968 122.484 56.6658 124.018C56.4519 125.446 55.5905 126.762 54.3727 127.531L54.2158 132.984L54.5153 134.186C55.7788 139.676 61.2434 143.101 66.7166 141.831C72.1898 140.563 75.6038 135.084 74.3374 129.591Z" fill="#F9A78D"/>
<path d="M66.1944 137.165C66.1417 137.051 65.4062 137.441 64.5493 137.088C63.6913 136.737 63.3566 135.908 63.2509 135.958C63.1992 135.972 63.2006 136.208 63.3681 136.545C63.53 136.875 63.8863 137.294 64.4106 137.51C64.9352 137.725 65.4498 137.663 65.7647 137.527C66.087 137.392 66.2253 137.213 66.1944 137.165Z" fill="#17282F"/>
<path d="M66.8742 133.978C66.8675 133.93 67.4123 133.814 68.297 133.664C68.5216 133.631 68.7331 133.578 68.7636 133.43C68.8085 133.273 68.7022 133.046 68.5795 132.802C68.3404 132.293 68.0897 131.76 67.8267 131.201C66.7778 128.92 66.0071 127.04 66.1039 127.001C66.2012 126.962 67.1298 128.778 68.1785 131.059C68.4315 131.622 68.6736 132.158 68.9038 132.671C69.002 132.911 69.1635 133.18 69.065 133.507C69.0127 133.67 68.8531 133.795 68.7103 133.838C68.5678 133.887 68.4409 133.895 68.3295 133.907C67.4358 133.995 66.8802 134.025 66.8742 133.978Z" fill="#17282F"/>
<path d="M73.5337 143.905L70.8528 143.685C69.8003 143.599 68.8449 144.3 68.6081 145.33L67.2705 151.152L68.0748 151.241C69.7918 151.432 71.3661 150.259 71.6799 148.554L71.9622 147.015L73.5337 143.905Z" fill="#B95C45"/>
<path d="M71.1266 149.032L70.2595 147.281C69.9344 146.623 70.1026 145.827 70.6645 145.361L73.1116 143.324C74.0414 142.552 75.2735 142.248 76.4543 142.506L81.7164 143.656L84.888 153.635L79.7656 158.276C79.2779 158.716 78.6419 158.954 77.983 158.94L76.2033 158.897C75.4133 158.877 74.7088 158.396 74.4036 157.664L73.9416 156.556L73.5765 156.479C72.8378 156.325 72.2788 155.715 72.1847 154.963L71.9565 153.135C71.3034 153.092 70.7358 152.674 70.4962 152.062L70.1854 151.266C69.9002 150.534 70.154 149.698 70.8014 149.255L71.1266 149.032Z" fill="#F57F62"/>
<path d="M71.127 149.032L75.9442 145.212L74.3784 145.942C73.1434 146.517 72.1052 147.441 71.3922 148.603L71.127 149.032Z" fill="#B95C45"/>
<path d="M71.9619 153.132L78.7129 151.581L77.1841 152.354C75.8408 153.032 74.3377 153.326 72.8375 153.203L71.9619 153.132Z" fill="#B95C45"/>
<path d="M73.9473 156.553H78.7131L77.9202 156.777C76.6368 157.134 75.2735 157.068 74.03 156.588L73.9473 156.553Z" fill="#B95C45"/>
<path d="M79.5145 158.994C83.5788 170.198 91.7187 178.847 100.603 181.407L107.362 183.356L111.786 181.739L110.614 178.512L111.29 177.505C116.455 169.814 117.148 157.941 113.084 146.737L103.421 120.107L69.8516 132.364L79.5145 158.994Z" fill="#852D70"/>
<path d="M93.6125 113.286L87.7286 115.435L83.305 117.051L72.9975 120.813C74.8371 125.886 73.431 131.056 69.8545 132.361L103.424 120.104C99.8444 121.411 95.4521 118.359 93.6125 113.286Z" fill="#BA3770"/>
<path d="M98.0363 111.673L77.4184 119.2C79.258 124.273 77.8519 129.442 74.2754 130.747L83.9383 157.377C88.0026 168.581 96.1425 177.23 105.027 179.791L111.786 181.739L115.716 175.888C120.882 168.198 121.575 156.325 117.51 145.121L107.848 118.49C104.268 119.798 99.8788 116.745 98.0363 111.673Z" fill="#DF4268"/>
<path d="M112.625 146.903L103.849 122.716C100.312 122.544 96.8182 120.196 94.5536 116.41L81.2941 121.251C81.9843 125.611 80.8121 129.666 78.2139 132.077L86.9898 156.264C90.6662 166.401 98.0988 174.406 105.922 176.661L109.253 177.622L111.19 174.738C115.739 167.966 116.304 157.04 112.625 146.903Z" fill="#BA3770"/>
<path d="M96.3848 115.741L94.5537 116.41C96.8183 120.196 100.315 122.544 103.849 122.716L105.68 122.047C102.143 121.878 98.6493 119.526 96.3848 115.741Z" fill="#852D70"/>
<path d="M112.625 146.903C116.301 157.04 115.739 167.963 111.19 174.735L109.253 177.619L110.411 177.954L113.021 174.069C117.57 167.297 118.132 156.373 114.456 146.237L105.68 122.05L103.849 122.719L112.625 146.903Z" fill="#852D70"/>
<path d="M105.426 139.173L100.19 141.087L97.634 134.043L91.5305 136.272L94.086 143.316L88.8467 145.227L91.0685 151.349L96.3078 149.435L98.8633 156.479L104.967 154.25L102.411 147.209L107.648 145.295L105.426 139.173Z" fill="#C7D2D7"/>
<path d="M107.129 138.552L101.89 140.466L99.3343 133.422L93.2336 135.651L95.7863 142.692L90.5498 144.606L92.7716 150.728L98.0081 148.814L100.564 155.858L106.667 153.63L104.112 146.589L109.351 144.675L107.129 138.552Z" fill="white"/>
<path d="M59.8175 110.801C60.2823 109.918 61.3562 109.4 62.3382 109.585C63.4968 108.678 65.2988 108.721 66.4119 109.682C67.2855 109.171 68.4277 109.155 69.3147 109.641C70.2017 110.127 70.8019 111.097 70.8397 112.107C71.8527 111.951 72.9357 112.503 73.4026 113.414C73.8694 114.325 73.685 115.525 72.9661 116.255C74.0659 116.618 74.783 117.878 74.5317 119.007C74.2807 120.136 73.0965 120.975 71.9464 120.84L60.2438 113.563C59.534 112.861 59.3525 111.684 59.8175 110.801Z" fill="#17282F"/>
<path d="M73.9127 120.53C73.9127 120.53 72.2713 116.582 70.3732 115.653C68.0754 114.529 67.0704 117.048 64.8781 116.425C62.6861 115.801 60.4927 114.722 58.2402 116.405C55.7744 118.248 56.9181 119.555 56.7518 122.346C56.0766 133.661 53.9899 136.851 53.429 131.517C53.3678 130.933 51.7465 130.46 51.5192 127.991C51.224 124.79 51.1214 120.904 51.8486 118.637C52.4619 116.726 53.5616 115.409 55.5293 113.961C58.6353 111.675 62.8855 111.646 65.7702 111.951C68.6547 112.255 74.2017 115.598 73.9127 120.53Z" fill="#17282F"/>
<path d="M53.96 123.014C54.5175 123.398 55.1065 123.795 55.7802 123.864C56.4542 123.934 57.2273 123.552 57.3441 122.885C57.397 122.586 57.3254 122.238 57.5239 122.008C57.7606 121.733 58.1944 121.822 58.5549 121.862C59.8071 122.001 61.0943 121.123 61.4196 119.907C61.7366 120.387 62.4823 120.37 62.9673 120.061C63.4523 119.752 63.7665 119.244 64.1472 118.814C64.5276 118.383 65.0609 117.999 65.6296 118.082C65.948 118.129 66.245 118.32 66.5659 118.293C67.1317 118.246 67.4114 117.586 67.4998 117.025C67.5887 116.465 67.6587 115.811 68.1394 115.509C68.5849 115.229 69.1597 115.395 69.6799 115.474C70.2004 115.553 70.8737 115.435 71.0095 114.927C71.0807 114.66 70.9678 114.379 70.8207 114.146C70.1556 113.088 68.695 112.612 67.5328 113.075C67.1188 111.651 65.7933 110.539 64.3176 110.376C62.8419 110.213 61.3043 111.009 60.5883 112.309C59.6819 111.479 58.3606 111.126 57.1606 111.393C55.9604 111.66 54.9137 112.54 54.4455 113.675C53.399 113.395 52.2025 113.793 51.5338 114.645C50.8658 115.497 50.7644 116.753 51.2877 117.7C50.5108 118.138 49.8438 118.903 49.823 119.793C49.8021 120.683 50.6665 121.575 51.5281 121.345C51.1766 122.036 51.4547 122.978 52.1252 123.369C52.7959 123.759 53.7546 123.538 54.1847 122.892" fill="#17282F"/>
<path d="M51.2121 121.334C51.1973 121.322 51.1308 121.695 51.476 122.162C51.6471 122.383 51.9402 122.614 52.3366 122.68C52.7243 122.747 53.2007 122.654 53.5669 122.33L53.3848 122.302C53.5958 122.673 53.8752 123.052 54.2388 123.379C54.4732 123.587 54.7335 123.765 55.0216 123.87C55.3035 123.984 55.6254 123.996 55.8881 123.955C56.4348 123.897 56.9124 123.607 57.1354 123.249C57.3666 122.899 57.4411 122.573 57.4888 122.355C57.5337 122.136 57.5385 122.011 57.5236 122.008C57.5052 122.004 57.4683 122.122 57.3955 122.33C57.3216 122.535 57.2205 122.843 56.9933 123.146C56.5817 123.761 55.2496 124.069 54.404 123.194C54.066 122.891 53.796 122.532 53.5895 122.184L53.5141 122.057L53.407 122.156C53.1103 122.43 52.7023 122.526 52.3666 122.481C52.0257 122.439 51.7598 122.256 51.589 122.067C51.2455 121.674 51.2497 121.323 51.2121 121.334Z" fill="#33535F"/>
<path d="M69.4846 109.743C69.5024 109.708 69.8729 109.962 70.1458 110.582C70.2818 110.887 70.4088 111.274 70.4285 111.727C70.459 112.177 70.3225 112.701 69.9926 113.119C69.6571 113.535 69.2138 113.791 68.8104 113.962C68.4038 114.135 68.0254 114.243 67.7094 114.33C67.0747 114.495 66.6828 114.586 66.6709 114.553C66.6584 114.518 67.0372 114.363 67.6548 114.154C67.9616 114.046 68.3282 113.92 68.7117 113.743C69.0938 113.567 69.4935 113.322 69.7871 112.958C70.0749 112.588 70.2019 112.144 70.1875 111.733C70.1828 111.321 70.0826 110.95 69.9747 110.652C69.7581 110.046 69.4618 109.768 69.4846 109.743Z" fill="#ADB5BD"/>
<path d="M70.8398 114.019C70.404 114.388 69.9072 114.579 69.5418 114.632C69.1741 114.687 68.947 114.637 68.9488 114.607C68.9489 114.565 69.1701 114.548 69.5014 114.451C69.8326 114.357 70.2705 114.158 70.6699 113.82C71.0672 113.48 71.333 113.08 71.4789 112.768C71.6269 112.456 71.6785 112.241 71.72 112.248C71.7497 112.25 71.7637 112.482 71.6507 112.836" fill="#ADB5BD"/>
<path d="M60.9813 129.18C61.0831 129.705 61.6137 130.052 62.1649 129.955C62.7156 129.859 63.0803 129.355 62.9781 128.83C62.8757 128.305 62.3459 127.957 61.7952 128.053C61.2437 128.15 60.8791 128.655 60.9813 129.18Z" fill="#17282F"/>
<path d="M59.2772 127.763C59.4295 127.864 60.0501 127.137 61.1151 126.894C62.1751 126.636 63.0823 127.002 63.1676 126.845C63.2108 126.774 63.032 126.57 62.6353 126.402C62.2436 126.233 61.6172 126.126 60.9549 126.282C60.2933 126.439 59.7922 126.811 59.5294 127.135C59.2604 127.461 59.2036 127.719 59.2772 127.763Z" fill="#17282F"/>
<path d="M68.9813 127.18C69.0831 127.705 69.6137 128.052 70.1649 127.955C70.7156 127.859 71.0803 127.355 70.9781 126.83C70.8757 126.305 70.3459 125.957 69.7952 126.053C69.2437 126.15 68.8791 126.655 68.9813 127.18Z" fill="#17282F"/>
<path d="M67.2772 125.763C67.4295 125.864 68.0501 125.137 69.1151 124.894C70.1751 124.636 71.0823 125.002 71.1676 124.845C71.2108 124.774 71.032 124.57 70.6353 124.402C70.2436 124.233 69.6172 124.126 68.9549 124.282C68.2933 124.439 67.7922 124.811 67.5294 125.135C67.2604 125.461 67.2036 125.719 67.2772 125.763Z" fill="#17282F"/>
<path d="M66.257 123.571C66.6652 123.848 67.4513 122.757 68.7151 121.872C69.9547 120.952 71.2412 120.549 71.1034 120.076C71.0323 119.854 70.5803 119.659 69.9155 119.654C69.2545 119.647 68.3968 119.864 67.6454 120.404C66.896 120.946 66.4216 121.689 66.2233 122.317C66.0216 122.947 66.067 123.435 66.257 123.571Z" fill="#17282F"/>
<path d="M58.1658 124.875C58.404 125.238 59.4356 124.922 60.6523 124.962C61.8707 124.958 62.8838 125.304 63.1415 124.948C63.2559 124.775 63.1144 124.416 62.6837 124.063C62.2597 123.711 61.5339 123.406 60.6967 123.393C59.8601 123.382 59.1181 123.665 58.6744 124.004C58.2239 124.345 58.0619 124.699 58.1658 124.875Z" fill="#17282F"/>
<path d="M55.0071 134.058C54.757 133.476 54.0691 133.203 53.5013 133.484C52.8128 133.825 52.1729 134.534 52.7843 135.995C53.8691 138.585 56.2428 136.962 56.2162 136.886C56.198 136.835 55.4706 135.138 55.0071 134.058Z" fill="#F9A78D"/>
<path d="M55.2441 136.148C55.2294 136.144 55.2122 136.198 55.1506 136.265C55.0908 136.33 54.9728 136.407 54.8167 136.413C54.5014 136.427 54.0894 136.089 53.8812 135.628C53.7761 135.395 53.7313 135.15 53.7368 134.929C53.7364 134.706 53.8036 134.523 53.9308 134.44C54.0544 134.351 54.1865 134.393 54.2486 134.453C54.3136 134.511 54.3188 134.569 54.3345 134.568C54.3444 134.571 54.3718 134.501 54.3061 134.403C54.2739 134.356 54.2179 134.308 54.1362 134.283C54.0531 134.259 53.9511 134.271 53.8597 134.322C53.6659 134.419 53.5633 134.678 53.557 134.921C53.54 135.168 53.5848 135.446 53.7029 135.708C53.9382 136.223 54.4096 136.6 54.8288 136.551C55.0309 136.522 55.1596 136.404 55.2124 136.31C55.2657 136.212 55.2551 136.149 55.2441 136.148Z" fill="#F57F62"/>
<path d="M115.787 115.34C115.625 115.406 115.464 115.47 115.304 115.542C115.464 115.468 115.627 115.401 115.787 115.34ZM135.174 129.694C135.385 127.915 135.245 126.081 134.718 124.291C135.624 123.062 139.501 121.035 139.501 121.035L138.775 119.578C137.058 120.395 133.186 120.846 133.186 120.846C133.275 120.981 133.374 121.166 133.476 121.376C131.58 118.036 128.444 115.74 124.908 114.784C124.253 113.452 124.422 109.043 124.422 109.043L122.773 108.925C122.632 110.749 121.154 114.13 121.085 114.286C119.717 114.293 118.337 114.5 116.984 114.915C115.755 114.097 114.654 111.848 114.654 111.848L113.17 112.565C113.956 114.14 114.24 115.847 114.273 116.057C113.18 116.658 112.197 117.383 111.334 118.207C109.752 118.022 106.033 115.767 106.033 115.767L105.103 117.132C106.519 118.066 108.535 120.584 108.986 121.16C108.197 122.493 107.639 123.947 107.336 125.46C105.958 125.987 103.776 125.82 103.776 125.82L103.679 127.459C105.121 127.546 106.479 127.951 107.072 128.149C107.075 129.374 107.245 130.61 107.592 131.826C106.348 133.074 103.022 134.814 103.022 134.814L103.758 136.289C105.145 135.629 107.919 135.204 108.984 135.06C109.79 136.423 110.805 137.606 111.971 138.589C111.733 140.018 110.501 141.766 110.501 141.766L111.896 142.672C112.701 141.488 113.747 140.538 114.218 140.138C115.966 141.108 117.911 141.706 119.919 141.884C120.836 143.286 121.678 147.181 121.678 147.181L123.327 146.897C123.073 145.456 123.395 142.854 123.555 141.74C124.771 141.535 125.979 141.172 127.151 140.634C127.742 140.362 128.302 140.052 128.836 139.714C130.072 140.489 131.22 142.209 131.22 142.209L132.602 141.284C131.663 139.925 131.139 138.393 131.016 138.008C132.454 136.631 133.556 134.983 134.279 133.188C136.041 133.033 139.755 133.863 139.755 133.863L140.184 132.277C138.529 131.84 135.775 130.085 135.174 129.694Z" fill="#8F53BF"/>
<path d="M131.874 114.147L130.496 113.25C129.437 114.808 127.812 116.048 127.812 116.048C128.737 116.507 130.383 117.617 130.383 117.617C130.452 116.161 131.874 114.147 131.874 114.147Z" fill="#8F53BF"/>
<path d="M131.764 128.937C131.036 128.897 130.56 127.573 129.573 125.939C129.462 125.731 129.309 125.527 129.18 125.31C129.043 125.095 128.884 124.882 128.735 124.659C128.406 124.228 128.065 123.776 127.657 123.348C126.859 122.482 125.876 121.679 124.756 121.06C123.624 120.461 122.407 120.074 121.234 119.875C120.647 119.765 120.075 119.723 119.527 119.681C119.256 119.676 118.987 119.657 118.729 119.658C118.473 119.667 118.215 119.649 117.976 119.669C116.041 119.722 114.646 120.035 114.223 119.451C114.123 119.31 114.1 119.125 114.156 118.899C114.214 118.678 114.339 118.39 114.568 118.106C115.012 117.513 115.832 116.836 117.02 116.274C117.314 116.123 117.638 116.014 117.976 115.886C118.315 115.767 118.679 115.673 119.058 115.576C119.819 115.415 120.657 115.292 121.547 115.296C122.436 115.301 123.383 115.375 124.341 115.614C125.298 115.844 126.271 116.199 127.208 116.698C128.137 117.208 128.963 117.826 129.672 118.498C130.389 119.164 130.957 119.909 131.437 120.643C131.916 121.381 132.256 122.14 132.524 122.858C132.643 123.224 132.756 123.575 132.834 123.921C132.905 124.27 132.983 124.596 133.01 124.921C133.159 126.205 133.014 127.248 132.739 127.932C132.617 128.274 132.436 128.532 132.276 128.698C132.11 128.865 131.94 128.943 131.764 128.937Z" fill="#BE99E3"/>
<path d="M106.08 114.853C106.334 115.014 106.128 115.768 105.62 116.536C105.449 116.796 105.264 117.024 105.085 117.206C104.735 117.562 104.408 117.741 104.24 117.634C103.986 117.472 104.192 116.718 104.7 115.951C105.208 115.182 105.826 114.69 106.08 114.853Z" fill="#8F53BF"/>
<path d="M105.136 117.154C105.136 117.154 105.783 116.44 106.032 115.767C106.297 115.924 106.6 116.103 106.91 116.277C106.91 116.277 105.98 117.206 105.431 117.368L105.136 117.154Z" fill="#624D9E"/>
<path d="M103.345 125.008C103.647 125.022 103.859 125.774 103.818 126.688C103.804 126.998 103.762 127.286 103.702 127.532C103.584 128.013 103.394 128.33 103.194 128.321C102.891 128.307 102.679 127.555 102.721 126.641C102.763 125.726 103.042 124.995 103.345 125.008Z" fill="#8F53BF"/>
<path d="M103.72 127.462C103.72 127.462 103.979 126.549 103.777 125.82C104.089 125.842 104.428 125.849 104.785 125.844C104.785 125.844 104.473 127.079 104.083 127.491L103.72 127.462Z" fill="#624D9E"/>
<path d="M102.24 134.314C102.511 134.18 103.072 134.734 103.493 135.551C103.636 135.827 103.744 136.098 103.814 136.341C103.951 136.817 103.945 137.185 103.766 137.273C103.495 137.407 102.934 136.854 102.513 136.037C102.092 135.219 101.97 134.448 102.24 134.314Z" fill="#8F53BF"/>
<path d="M103.793 136.272C103.793 136.272 103.49 135.364 103.022 134.814C103.294 134.669 103.604 134.502 103.914 134.327C103.914 134.327 104.264 135.582 104.13 136.129L103.793 136.272Z" fill="#624D9E"/>
<path d="M109.569 141.722C109.733 141.473 110.503 141.671 111.288 142.167C111.553 142.335 111.787 142.515 111.973 142.689C112.337 143.031 112.521 143.352 112.412 143.517C112.248 143.767 111.479 143.568 110.694 143.072C109.909 142.577 109.405 141.973 109.569 141.722Z" fill="#8F53BF"/>
<path d="M111.918 142.64C111.918 142.64 111.245 141.961 110.501 141.766C110.677 141.513 110.853 141.228 111.029 140.923C111.029 140.923 111.96 141.809 112.127 142.347L111.918 142.64Z" fill="#624D9E"/>
<path d="M120.972 147.779C120.916 147.487 121.614 147.112 122.531 146.942C122.841 146.884 123.136 146.858 123.394 146.858C123.898 146.86 124.256 146.969 124.293 147.162C124.35 147.454 123.652 147.829 122.735 148C121.818 148.17 121.029 148.071 120.972 147.779Z" fill="#8F53BF"/>
<path d="M123.321 146.858C123.321 146.858 122.347 146.893 121.679 147.181C121.612 146.884 121.534 146.546 121.448 146.206C121.448 146.206 122.776 146.224 123.275 146.502L123.321 146.858Z" fill="#624D9E"/>
<path d="M130.827 143.039C130.653 142.796 131.131 142.173 131.896 141.647C132.154 141.469 132.412 141.325 132.647 141.222C133.107 141.02 133.479 140.974 133.594 141.135C133.768 141.379 133.29 142.002 132.525 142.528C131.761 143.054 131.001 143.283 130.827 143.039Z" fill="#8F53BF"/>
<path d="M132.58 141.251C132.58 141.251 131.685 141.607 131.22 142.208C131.047 141.953 130.845 141.686 130.623 141.411C130.623 141.411 131.811 140.899 132.382 140.951L132.58 141.251Z" fill="#624D9E"/>
<path d="M140.012 134.744C139.718 134.671 139.664 133.893 139.892 133.004C139.968 132.704 140.068 132.43 140.177 132.201C140.39 131.754 140.641 131.48 140.836 131.528C141.129 131.6 141.184 132.379 140.957 133.267C140.729 134.155 140.306 134.816 140.012 134.744Z" fill="#8F53BF"/>
<path d="M140.146 132.266C140.146 132.266 139.769 133.148 139.755 133.864C139.452 133.798 139.107 133.726 138.756 133.659C138.756 133.659 139.329 132.485 139.797 132.158L140.146 132.266Z" fill="#624D9E"/>
<path d="M116.558 132.424C117.021 133.393 116.858 134.427 116.193 134.732C115.527 135.038 114.613 134.5 114.15 133.53C113.687 132.561 113.851 131.527 114.515 131.222C115.181 130.916 116.095 131.454 116.558 132.424Z" fill="#624D9E"/>
<path d="M115.632 131.638C116.094 132.607 115.931 133.641 115.266 133.947C114.601 134.252 113.687 133.714 113.223 132.745C112.76 131.775 112.924 130.742 113.589 130.436C114.254 130.13 115.169 130.669 115.632 131.638Z" fill="#DFB4EA"/>
<path d="M111.254 122.561C111.91 121.705 112.918 121.363 113.504 121.796C114.092 122.229 114.035 123.274 113.378 124.129C112.721 124.985 111.714 125.327 111.127 124.894C110.54 124.46 110.597 123.416 111.254 122.561Z" fill="#624D9E"/>
<path d="M110.284 121.882C110.941 121.027 111.948 120.685 112.535 121.118C113.122 121.551 113.065 122.595 112.408 123.451C111.752 124.306 110.744 124.649 110.158 124.215C109.571 123.782 109.627 122.737 110.284 121.882Z" fill="#DFB4EA"/>
<path d="M122.619 136.071C122.924 136.71 122.643 137.47 121.993 137.768C121.342 138.067 120.568 137.792 120.263 137.154C119.958 136.516 120.238 135.756 120.888 135.457C121.539 135.158 122.314 135.433 122.619 136.071Z" fill="#624D9E"/>
<path d="M122.323 135.452C122.628 136.091 122.348 136.85 121.697 137.15C121.047 137.448 120.271 137.173 119.967 136.535C119.662 135.897 119.942 135.137 120.593 134.839C121.244 134.539 122.018 134.814 122.323 135.452Z" fill="#DFB4EA"/>
<path d="M125.535 122.206C125.268 123.033 124.37 123.491 123.527 123.229C122.685 122.968 122.218 122.087 122.484 121.26C122.75 120.434 123.649 119.976 124.492 120.237C125.334 120.498 125.801 121.38 125.535 122.206Z" fill="#624D9E"/>
<path d="M125.794 121.405C125.528 122.231 124.628 122.689 123.786 122.428C122.943 122.167 122.476 121.285 122.743 120.459C123.009 119.633 123.908 119.174 124.75 119.436C125.593 119.697 126.06 120.579 125.794 121.405Z" fill="#DFB4EA"/>
<path d="M129.162 134.455C129.385 134.923 129.18 135.48 128.703 135.699C128.226 135.918 127.657 135.717 127.434 135.248C127.211 134.78 127.416 134.223 127.893 134.004C128.37 133.785 128.938 133.987 129.162 134.455Z" fill="#624D9E"/>
<path d="M128.945 134.001C129.168 134.468 128.963 135.026 128.486 135.245C128.009 135.464 127.441 135.263 127.218 134.795C126.993 134.327 127.199 133.77 127.676 133.55C128.153 133.331 128.722 133.533 128.945 134.001Z" fill="#DFB4EA"/>
<path d="M140.274 121.53C140.007 121.662 139.453 121.115 139.037 120.307C138.896 120.035 138.79 119.767 138.72 119.527C138.584 119.057 138.591 118.693 138.768 118.606C139.036 118.473 139.589 119.021 140.005 119.828C140.421 120.636 140.541 121.397 140.274 121.53Z" fill="#8F53BF"/>
<path d="M138.74 119.595C138.74 119.595 139.039 120.492 139.501 121.035C139.233 121.179 138.926 121.344 138.621 121.517C138.621 121.517 138.275 120.276 138.407 119.736L138.74 119.595Z" fill="#624D9E"/>
<path d="M132.795 114.19C132.633 114.436 131.873 114.24 131.098 113.75C130.836 113.584 130.606 113.406 130.422 113.234C130.062 112.896 129.88 112.579 129.988 112.416C130.15 112.169 130.91 112.366 131.685 112.856C132.461 113.345 132.958 113.943 132.795 114.19Z" fill="#8F53BF"/>
<path d="M130.474 113.283C130.474 113.283 131.139 113.954 131.874 114.146C131.7 114.397 131.526 114.678 131.352 114.979C131.352 114.979 130.432 114.104 130.268 113.572L130.474 113.283Z" fill="#624D9E"/>
<path d="M125.246 108.637C125.228 108.93 124.468 109.125 123.547 109.071C123.236 109.053 122.946 109.008 122.7 108.946C122.217 108.825 121.901 108.636 121.912 108.443C121.93 108.149 122.691 107.955 123.611 108.009C124.532 108.063 125.264 108.344 125.246 108.637Z" fill="#8F53BF"/>
<path d="M122.77 108.964C122.77 108.964 123.711 109.161 124.422 109.043C124.414 109.343 124.404 109.686 124.403 110.031C124.403 110.031 123.136 109.701 122.727 109.317L122.77 108.964Z" fill="#624D9E"/>
<path d="M115.155 111.088C115.291 111.35 114.735 111.895 113.914 112.306C113.635 112.445 113.363 112.551 113.118 112.62C112.64 112.755 112.269 112.749 112.18 112.576C112.044 112.314 112.599 111.769 113.421 111.359C114.243 110.947 115.019 110.827 115.155 111.088Z" fill="#8F53BF"/>
<path d="M113.188 112.6C113.188 112.6 114.114 112.374 114.654 111.848C114.786 112.121 114.947 112.41 115.124 112.709C115.124 112.709 113.891 113.048 113.339 112.92L113.188 112.6Z" fill="#624D9E"/>
<path d="M130.887 130.013C130.834 131.082 130.196 131.921 129.463 131.885C128.729 131.85 128.178 130.955 128.231 129.885C128.285 128.816 128.922 127.978 129.655 128.013C130.389 128.048 130.94 128.943 130.887 130.013Z" fill="#624D9E"/>
<path d="M131.177 129.301C131.123 130.371 130.485 131.209 129.752 131.174C129.018 131.138 128.467 130.243 128.52 129.174C128.574 128.105 129.211 127.266 129.944 127.302C130.678 127.337 131.23 128.232 131.177 129.301Z" fill="#DFB4EA"/>
<path d="M122.781 126.916C123.244 127.885 122.818 129.039 121.83 129.493C120.841 129.948 119.665 129.53 119.202 128.561C118.739 127.591 119.165 126.437 120.153 125.983C121.141 125.529 122.318 125.947 122.781 126.916Z" fill="#624D9E"/>
<path d="M122.766 126.116C123.23 127.086 122.803 128.24 121.815 128.695C120.827 129.149 119.65 128.73 119.187 127.761C118.724 126.792 119.15 125.638 120.138 125.184C121.127 124.729 122.303 125.147 122.766 126.116Z" fill="#DFB4EA"/>
<path d="M132.006 134.39C132.147 134.486 132.108 134.839 131.86 135.39C131.613 135.94 131.136 136.673 130.396 137.466C130.027 137.863 129.584 138.264 129.081 138.665C128.57 139.053 128.002 139.449 127.359 139.796C126.083 140.5 124.537 141.057 122.842 141.307C121.144 141.543 119.5 141.442 118.071 141.124C117.354 140.972 116.694 140.752 116.091 140.523C115.492 140.279 114.951 140.02 114.482 139.742C113.542 139.189 112.871 138.621 112.475 138.163C112.077 137.705 111.936 137.377 112.044 137.246C112.279 136.96 113.4 137.558 115.233 138.142C115.69 138.291 116.197 138.426 116.738 138.558C117.285 138.674 117.865 138.794 118.483 138.865C119.714 139.02 121.078 139.035 122.475 138.843C123.87 138.635 125.172 138.239 126.307 137.746C126.878 137.505 127.4 137.228 127.889 136.963C128.37 136.685 128.816 136.413 129.21 136.143C130.796 135.069 131.697 134.182 132.006 134.39Z" fill="#624D9E"/>
<path d="M108.138 161.24C108.044 161.337 107.949 161.434 107.859 161.536C107.949 161.433 108.043 161.334 108.138 161.24ZM126.445 165.269C126.03 163.94 125.349 162.683 124.407 161.581C124.66 160.421 126.766 157.753 126.766 157.753L125.789 156.95C124.83 158.074 122.227 159.623 122.227 159.623C122.333 159.691 122.462 159.791 122.601 159.907C120.196 158.14 117.243 157.506 114.431 157.95C113.544 157.213 112.264 154.032 112.264 154.032L111.057 154.472C111.536 155.81 111.56 158.678 111.561 158.81C110.593 159.25 109.68 159.835 108.852 160.558C107.72 160.368 106.225 159.122 106.225 159.122L105.4 160.102C106.458 160.969 107.201 162.09 107.291 162.229C106.706 163.002 106.239 163.828 105.888 164.686C104.708 165.057 101.353 164.638 101.353 164.638L101.127 165.902C102.428 166.115 104.658 167.261 105.16 167.526C105.023 168.723 105.089 169.931 105.354 171.1C104.545 171.912 102.944 172.486 102.944 172.486L103.395 173.679C104.445 173.283 105.537 173.139 106.021 173.092C106.411 173.96 106.924 174.783 107.557 175.535C107.07 176.815 105.263 179.105 105.263 179.105L106.253 179.918C107.028 179.009 108.861 177.827 109.57 177.387C110.574 178.098 111.67 178.615 112.809 178.942C113.094 180.032 112.775 181.662 112.775 181.662L114.052 181.863C114.248 180.767 114.688 179.761 114.895 179.328C116.442 179.462 118.012 179.269 119.493 178.757C120.588 179.461 122.422 181.956 122.422 181.956L123.501 181.232C122.864 180.29 122.266 178.342 122.027 177.501C122.824 176.97 123.566 176.329 124.226 175.575C124.559 175.195 124.858 174.797 125.129 174.388C126.252 174.545 127.612 175.401 127.612 175.401L128.299 174.306C127.202 173.64 126.344 172.72 126.134 172.486C126.718 171.053 126.976 169.534 126.919 168.031C128.12 167.362 131.018 166.772 131.018 166.772L130.819 165.51C129.506 165.726 126.996 165.355 126.445 165.269Z" fill="#8F53BF"/>
<path d="M119.17 155.287L117.909 155.089C117.651 156.53 116.893 157.925 116.893 157.925C117.694 157.957 119.214 158.222 119.214 158.222C118.801 157.167 119.17 155.287 119.17 155.287Z" fill="#8F53BF"/>
<path d="M123.786 165.814C123.257 166.017 122.499 165.229 121.28 164.383C121.136 164.27 120.962 164.174 120.802 164.061C120.637 163.952 120.456 163.851 120.28 163.741C119.909 163.539 119.524 163.327 119.099 163.153C118.258 162.792 117.306 162.534 116.315 162.451C115.321 162.385 114.335 162.497 113.44 162.728C112.989 162.836 112.57 162.988 112.168 163.131C111.974 163.214 111.777 163.286 111.594 163.369C111.416 163.457 111.227 163.526 111.064 163.615C109.708 164.268 108.818 164.932 108.333 164.652C108.217 164.583 108.142 164.46 108.109 164.282C108.081 164.106 108.078 163.863 108.151 163.589C108.277 163.027 108.644 162.286 109.308 161.511C109.469 161.31 109.664 161.131 109.864 160.932C110.066 160.74 110.294 160.558 110.532 160.369C111.021 160.013 111.576 159.66 112.209 159.38C112.841 159.102 113.536 158.854 114.292 158.719C115.044 158.579 115.847 158.521 116.67 158.578C117.491 158.645 118.273 158.822 118.989 159.073C119.709 159.318 120.349 159.666 120.922 160.035C121.495 160.406 121.978 160.836 122.396 161.26C122.597 161.483 122.788 161.696 122.953 161.916C123.114 162.141 123.273 162.348 123.395 162.569C123.909 163.433 124.137 164.219 124.159 164.792C124.181 165.073 124.134 165.313 124.074 165.482C124.009 165.653 123.913 165.763 123.786 165.814Z" fill="#BE99E3"/>
<path d="M101.097 163.975C101.329 164.009 101.423 164.609 101.306 165.315C101.266 165.554 101.208 165.774 101.139 165.96C101.003 166.323 100.828 166.554 100.675 166.532C100.443 166.497 100.35 165.897 100.467 165.192C100.584 164.485 100.866 163.94 101.097 163.975Z" fill="#8F53BF"/>
<path d="M101.158 165.907C101.158 165.907 101.39 165.195 101.353 164.638C101.591 164.666 101.863 164.697 102.138 164.721C102.138 164.721 101.773 165.675 101.435 165.965L101.158 165.907Z" fill="#624D9E"/>
<path d="M102.38 172.046C102.599 171.96 102.988 172.426 103.249 173.088C103.337 173.312 103.399 173.53 103.435 173.723C103.504 174.102 103.469 174.387 103.324 174.444C103.105 174.531 102.716 174.064 102.456 173.403C102.195 172.74 102.161 172.133 102.38 172.046Z" fill="#8F53BF"/>
<path d="M103.424 173.668C103.424 173.668 103.319 172.939 102.944 172.486C103.172 172.402 103.414 172.299 103.666 172.183C103.666 172.183 103.837 173.158 103.691 173.574L103.424 173.668Z" fill="#624D9E"/>
<path d="M104.55 178.998C104.699 178.817 105.273 179.032 105.831 179.478C106.02 179.629 106.183 179.787 106.309 179.937C106.558 180.231 106.67 180.493 106.571 180.613C106.422 180.794 105.848 180.58 105.29 180.134C104.732 179.687 104.401 179.179 104.55 178.998Z" fill="#8F53BF"/>
<path d="M106.273 179.894C106.273 179.894 105.77 179.346 105.264 179.105C105.411 178.916 105.577 178.699 105.741 178.476C105.741 178.476 106.388 179.255 106.467 179.686L106.273 179.894Z" fill="#624D9E"/>
<path d="M112.1 181.928C112.137 181.699 112.746 181.595 113.46 181.698C113.702 181.732 113.924 181.786 114.112 181.851C114.479 181.978 114.711 182.147 114.686 182.299C114.649 182.528 114.04 182.631 113.326 182.528C112.612 182.426 112.063 182.157 112.1 181.928Z" fill="#8F53BF"/>
<path d="M114.058 181.833C114.058 181.833 113.365 181.565 112.775 181.662C112.82 181.427 112.855 181.169 112.883 180.897C112.883 180.897 113.824 181.23 114.113 181.559L114.058 181.833Z" fill="#624D9E"/>
<path d="M122.111 182.605C121.978 182.416 122.354 181.928 122.951 181.516C123.153 181.377 123.354 181.264 123.537 181.183C123.895 181.024 124.183 180.988 124.271 181.113C124.404 181.302 124.028 181.79 123.431 182.202C122.835 182.614 122.244 182.794 122.111 182.605Z" fill="#8F53BF"/>
<path d="M123.484 181.206C123.484 181.206 122.805 181.54 122.422 181.956C122.281 181.767 122.118 181.552 121.949 181.338C121.949 181.338 122.896 180.929 123.339 180.968L123.484 181.206Z" fill="#624D9E"/>
<path d="M127.597 176.115C127.396 175.998 127.538 175.403 127.913 174.788C128.04 174.58 128.178 174.396 128.311 174.248C128.573 173.959 128.823 173.808 128.956 173.886C129.156 174.003 129.015 174.597 128.64 175.213C128.264 175.829 127.798 176.232 127.597 176.115Z" fill="#8F53BF"/>
<path d="M128.274 174.29C128.274 174.29 127.751 174.826 127.613 175.401C127.409 175.274 127.181 175.149 126.936 175.024C126.936 175.024 127.616 174.284 128.038 174.14L128.274 174.29Z" fill="#624D9E"/>
<path d="M131.48 167.315C131.249 167.357 130.964 166.822 130.843 166.12C130.802 165.883 130.786 165.656 130.79 165.46C130.799 165.074 130.891 164.801 131.044 164.773C131.275 164.731 131.561 165.266 131.681 165.968C131.802 166.67 131.712 167.273 131.48 167.315Z" fill="#8F53BF"/>
<path d="M130.789 165.515C130.789 165.515 130.801 166.26 131.019 166.772C130.783 166.822 130.515 166.88 130.245 166.945C130.245 166.945 130.279 165.93 130.507 165.55L130.789 165.515Z" fill="#624D9E"/>
<path d="M114.107 173.113C114.743 173.654 114.955 174.439 114.58 174.867C114.205 175.295 113.386 175.203 112.75 174.663C112.114 174.122 111.902 173.337 112.276 172.909C112.651 172.481 113.471 172.573 114.107 173.113Z" fill="#624D9E"/>
<path d="M113.2 172.85C113.836 173.391 114.048 174.176 113.673 174.604C113.298 175.031 112.479 174.94 111.843 174.399C111.206 173.859 110.995 173.073 111.369 172.645C111.744 172.218 112.564 172.309 113.2 172.85Z" fill="#DFB4EA"/>
<path d="M107.214 167.8C107.408 166.985 108.015 166.422 108.568 166.544C109.122 166.665 109.413 167.424 109.219 168.239C109.024 169.054 108.418 169.616 107.865 169.495C107.311 169.374 107.02 168.615 107.214 167.8Z" fill="#624D9E"/>
<path d="M106.311 167.627C106.505 166.812 107.111 166.249 107.665 166.37C108.218 166.491 108.51 167.25 108.315 168.065C108.121 168.88 107.515 169.443 106.962 169.322C106.408 169.201 106.116 168.442 106.311 167.627Z" fill="#DFB4EA"/>
<path d="M119.564 173.777C119.982 174.133 120.025 174.761 119.658 175.179C119.291 175.598 118.655 175.649 118.236 175.293C117.817 174.937 117.775 174.309 118.141 173.891C118.508 173.472 119.145 173.421 119.564 173.777Z" fill="#624D9E"/>
<path d="M119.157 173.432C119.576 173.788 119.619 174.416 119.252 174.835C118.885 175.253 118.248 175.304 117.83 174.948C117.411 174.592 117.368 173.964 117.735 173.546C118.102 173.127 118.739 173.076 119.157 173.432Z" fill="#DFB4EA"/>
<path d="M117.231 163.016C117.305 163.687 116.813 164.297 116.132 164.379C115.451 164.461 114.841 163.984 114.767 163.313C114.694 162.643 115.186 162.032 115.867 161.95C116.547 161.868 117.158 162.346 117.231 163.016Z" fill="#624D9E"/>
<path d="M117.16 162.366C117.234 163.037 116.741 163.647 116.061 163.729C115.38 163.811 114.769 163.334 114.696 162.663C114.623 161.993 115.115 161.382 115.795 161.3C116.476 161.218 117.087 161.695 117.16 162.366Z" fill="#DFB4EA"/>
<path d="M123.692 170.554C123.999 170.815 124.03 171.275 123.761 171.582C123.492 171.889 123.025 171.926 122.718 171.665C122.411 171.404 122.38 170.944 122.649 170.637C122.918 170.33 123.385 170.293 123.692 170.554Z" fill="#624D9E"/>
<path d="M123.394 170.3C123.701 170.561 123.732 171.022 123.463 171.329C123.194 171.636 122.728 171.673 122.421 171.412C122.113 171.151 122.082 170.691 122.351 170.384C122.62 170.077 123.087 170.039 123.394 170.3Z" fill="#DFB4EA"/>
<path d="M127.471 157.859C127.324 158.038 126.757 157.825 126.206 157.384C126.019 157.235 125.859 157.079 125.734 156.931C125.488 156.641 125.377 156.381 125.475 156.262C125.623 156.084 126.189 156.296 126.741 156.737C127.292 157.178 127.619 157.68 127.471 157.859Z" fill="#8F53BF"/>
<path d="M125.77 156.973C125.77 156.973 126.267 157.515 126.767 157.753C126.622 157.94 126.457 158.154 126.295 158.374C126.295 158.374 125.656 157.604 125.578 157.179L125.77 156.973Z" fill="#624D9E"/>
<path d="M119.837 155.026C119.8 155.252 119.199 155.354 118.493 155.252C118.255 155.218 118.035 155.165 117.85 155.101C117.488 154.975 117.258 154.809 117.282 154.658C117.319 154.432 117.921 154.33 118.626 154.432C119.332 154.533 119.874 154.799 119.837 155.026Z" fill="#8F53BF"/>
<path d="M117.903 155.119C117.903 155.119 118.588 155.384 119.17 155.287C119.126 155.52 119.092 155.774 119.064 156.043C119.064 156.043 118.134 155.714 117.848 155.39L117.903 155.119Z" fill="#624D9E"/>
<path d="M112.721 153.483C112.801 153.696 112.323 154.075 111.653 154.329C111.427 154.415 111.207 154.476 111.012 154.51C110.632 154.577 110.347 154.544 110.294 154.403C110.214 154.189 110.692 153.81 111.362 153.556C112.032 153.302 112.64 153.269 112.721 153.483Z" fill="#8F53BF"/>
<path d="M111.067 154.5C111.067 154.5 111.797 154.342 112.264 154.032C112.353 154.248 112.455 154.494 112.564 154.739C112.564 154.739 111.561 154.907 111.148 154.764L111.067 154.5Z" fill="#624D9E"/>
<path d="M106.339 158.424C106.519 158.567 106.297 159.13 105.845 159.682C105.692 159.869 105.533 160.03 105.381 160.157C105.084 160.405 104.82 160.518 104.701 160.424C104.522 160.281 104.743 159.718 105.195 159.166C105.648 158.614 106.16 158.282 106.339 158.424Z" fill="#8F53BF"/>
<path d="M105.424 160.121C105.424 160.121 106.009 159.666 106.225 159.122C106.406 159.274 106.611 159.428 106.832 159.584C106.832 159.584 106.065 160.216 105.633 160.3L105.424 160.121Z" fill="#624D9E"/>
<path d="M123.506 166.855C123.808 167.631 123.621 168.428 123.09 168.635C122.558 168.843 121.883 168.383 121.581 167.608C121.28 166.832 121.466 166.035 121.997 165.827C122.529 165.62 123.204 166.08 123.506 166.855Z" fill="#624D9E"/>
<path d="M123.485 166.259C123.786 167.034 123.6 167.831 123.068 168.039C122.537 168.247 121.862 167.787 121.56 167.012C121.258 166.236 121.445 165.439 121.976 165.231C122.508 165.023 123.183 165.484 123.485 166.259Z" fill="#DFB4EA"/>
<path d="M116.773 167.231C117.409 167.772 117.473 168.726 116.916 169.362C116.359 169.998 115.392 170.075 114.756 169.534C114.12 168.993 114.056 168.039 114.612 167.404C115.169 166.768 116.137 166.691 116.773 167.231Z" fill="#624D9E"/>
<path d="M116.103 166.662C116.739 167.203 116.803 168.157 116.246 168.793C115.689 169.429 114.722 169.506 114.086 168.965C113.45 168.424 113.386 167.47 113.943 166.835C114.5 166.198 115.467 166.121 116.103 166.662Z" fill="#DFB4EA"/>
<path d="M125.689 169.605C125.819 169.628 125.904 169.891 125.903 170.361C125.902 170.83 125.796 171.501 125.523 172.298C125.388 172.697 125.201 173.121 124.971 173.566C124.732 174.003 124.454 174.465 124.108 174.914C123.426 175.819 122.506 176.705 121.384 177.42C120.254 178.126 119.056 178.577 117.941 178.804C117.385 178.924 116.847 178.978 116.346 179.007C115.844 179.024 115.378 179.012 114.957 178.963C114.115 178.869 113.458 178.68 113.032 178.48C112.604 178.281 112.4 178.094 112.435 177.967C112.511 177.689 113.496 177.757 114.982 177.59C115.353 177.551 115.756 177.486 116.182 177.407C116.606 177.317 117.056 177.217 117.516 177.072C118.439 176.791 119.411 176.368 120.341 175.789C121.265 175.199 122.063 174.505 122.711 173.794C123.04 173.442 123.322 173.08 123.585 172.737C123.838 172.387 124.068 172.053 124.262 171.736C125.046 170.471 125.404 169.556 125.689 169.605Z" fill="#624D9E"/>
<path d="M94.7424 95.8835C94.6378 95.9057 94.5337 95.9271 94.4297 95.9534C94.5339 95.9263 94.6392 95.9032 94.7424 95.8835ZM104.895 106.601C105.212 105.552 105.324 104.432 105.197 103.297C105.874 102.652 108.426 101.844 108.426 101.844L108.144 100.889C107.023 101.198 104.641 101.057 104.641 101.057C104.68 101.148 104.72 101.27 104.759 101.407C103.973 99.1923 102.328 97.4739 100.298 96.5206C100.046 95.6481 100.618 93.0091 100.618 93.0091L99.6364 92.7624C99.3569 93.8463 98.1054 95.7267 98.0474 95.813C97.2225 95.6716 96.3685 95.6494 95.5092 95.7548C94.8553 95.1308 94.4315 93.6578 94.4315 93.6578L93.4611 93.9319C93.7667 94.9648 93.7559 96.024 93.7532 96.1542C93.0304 96.3994 92.3608 96.7315 91.7529 97.1361C90.8193 96.8563 88.8181 95.1006 88.8181 95.1006L88.1122 95.8241C88.8663 96.5379 89.8127 98.2706 90.0232 98.6654C89.4051 99.3849 88.914 100.202 88.5702 101.081C87.6835 101.252 86.3861 100.919 86.3861 100.919L86.1529 101.896C87.0128 102.102 87.7881 102.491 88.1243 102.674C87.9952 103.412 87.9658 104.175 88.0456 104.945C87.1627 105.565 84.973 106.259 84.973 106.259L85.2588 107.226C86.1652 106.976 87.8826 107.016 88.5395 107.042C88.8799 107.95 89.3654 108.771 89.9632 109.488C89.6673 110.323 88.7389 111.245 88.7389 111.245L89.4831 111.941C90.0944 111.313 90.8259 110.852 91.1524 110.661C92.1021 111.432 93.2109 112 94.4019 112.321C94.805 113.264 94.8975 115.701 94.8975 115.701L95.9213 115.706C95.9219 114.81 96.3933 113.276 96.6088 112.622C97.3632 112.628 98.1302 112.538 98.8935 112.339C99.2787 112.238 99.6495 112.111 100.007 111.964C100.67 112.563 101.178 113.722 101.178 113.722L102.109 113.312C101.688 112.392 101.536 111.413 101.503 111.168C102.516 110.492 103.357 109.616 103.983 108.611C105.062 108.706 107.212 109.602 107.212 109.602L107.639 108.692C106.688 108.252 105.216 106.901 104.895 106.601Z" fill="#8F53BF"/>
<path d="M104.565 96.8794L103.83 96.1922C103.026 97.0181 101.914 97.592 101.914 97.592C102.422 97.9674 103.297 98.8117 103.297 98.8117C103.493 97.9417 104.565 96.8794 104.565 96.8794Z" fill="#8F53BF"/>
<path d="M102.921 105.781C102.486 105.68 102.34 104.831 101.92 103.741C101.875 103.604 101.805 103.465 101.75 103.32C101.691 103.176 101.617 103.03 101.551 102.88C101.399 102.585 101.242 102.276 101.041 101.975C100.653 101.368 100.146 100.78 99.5372 100.287C98.9187 99.8052 98.2266 99.4421 97.541 99.1971C97.1991 99.0684 96.8589 98.9823 96.5332 98.8981C96.3702 98.8662 96.2101 98.8264 96.0543 98.7994C95.8991 98.7774 95.7458 98.7394 95.5996 98.7256C94.4276 98.5515 93.5538 98.5909 93.3612 98.1941C93.316 98.0983 93.3214 97.9848 93.3793 97.8541C93.438 97.7272 93.5439 97.5672 93.7126 97.4205C94.0429 97.1101 94.6098 96.7897 95.3855 96.5778C95.5788 96.5181 95.7853 96.487 96.003 96.4462C96.2201 96.41 96.4491 96.3923 96.688 96.3745C97.1641 96.3585 97.6817 96.3738 98.2181 96.4708C98.7531 96.5691 99.3157 96.7145 99.8675 96.9606C100.42 97.2014 100.969 97.5189 101.48 97.9196C101.986 98.326 102.417 98.7868 102.773 99.2669C103.134 99.7449 103.397 100.255 103.608 100.748C103.818 101.244 103.942 101.738 104.027 102.199C104.06 102.432 104.09 102.656 104.1 102.872C104.106 103.09 104.118 103.295 104.1 103.494C104.053 104.284 103.854 104.897 103.616 105.28C103.506 105.473 103.369 105.609 103.255 105.692C103.137 105.775 103.026 105.804 102.921 105.781Z" fill="#BE99E3"/>
<path d="M88.9442 94.5545C89.0803 94.6791 88.8758 95.1116 88.4878 95.5202C88.3565 95.6584 88.221 95.776 88.0938 95.8667C87.8449 96.0439 87.6286 96.1169 87.5386 96.0346C87.4028 95.9098 87.6073 95.4775 87.9953 95.069C88.3836 94.6603 88.8084 94.4297 88.9442 94.5545Z" fill="#8F53BF"/>
<path d="M88.1302 95.841C88.1302 95.841 88.5967 95.4795 88.8185 95.1005C88.9613 95.2235 89.1246 95.3635 89.2931 95.5013C89.2931 95.5013 88.6337 95.962 88.2853 96.0012L88.1302 95.841Z" fill="#624D9E"/>
<path d="M86.2128 100.383C86.3937 100.424 86.4412 100.9 86.3186 101.446C86.2772 101.631 86.2214 101.801 86.1591 101.942C86.0369 102.219 85.8882 102.39 85.7686 102.364C85.5877 102.323 85.5402 101.847 85.6628 101.301C85.7854 100.754 86.0319 100.343 86.2128 100.383Z" fill="#8F53BF"/>
<path d="M86.177 101.902C86.177 101.902 86.4306 101.38 86.3863 100.919C86.572 100.965 86.7757 101.005 86.9913 101.041C86.9913 101.041 86.6719 101.752 86.3925 101.958L86.177 101.902Z" fill="#624D9E"/>
<path d="M84.5547 105.874C84.7319 105.822 85.0109 106.215 85.1777 106.753C85.2341 106.935 85.2706 107.109 85.2867 107.263C85.319 107.565 85.2759 107.786 85.1584 107.82C84.9812 107.872 84.7022 107.478 84.5354 106.941C84.3689 106.404 84.3775 105.926 84.5547 105.874Z" fill="#8F53BF"/>
<path d="M85.282 107.219C85.282 107.219 85.1962 106.64 84.9728 106.259C85.1521 106.2 85.3567 106.133 85.5619 106.06C85.5619 106.06 85.6393 106.854 85.5004 107.169L85.282 107.219Z" fill="#624D9E"/>
<path d="M88.1815 111.12C88.3072 110.987 88.7497 111.189 89.17 111.571C89.3121 111.701 89.4334 111.834 89.527 111.959C89.7101 112.204 89.7866 112.417 89.7034 112.505C89.5779 112.638 89.1358 112.436 88.7154 112.054C88.295 111.671 88.0561 111.253 88.1815 111.12Z" fill="#8F53BF"/>
<path d="M89.4997 111.923C89.4997 111.923 89.1663 111.442 88.7387 111.245C88.8719 111.112 89.0085 110.959 89.1469 110.794C89.1469 110.794 89.6138 111.427 89.6569 111.769L89.4997 111.923Z" fill="#624D9E"/>
<path d="M94.4073 115.986C94.4048 115.804 94.8652 115.652 95.4362 115.648C95.6294 115.646 95.8101 115.661 95.9652 115.689C96.269 115.744 96.4732 115.848 96.4749 115.968C96.4781 116.151 96.0174 116.302 95.4463 116.307C94.8753 116.312 94.4105 116.168 94.4073 115.986Z" fill="#8F53BF"/>
<path d="M95.9217 115.681C95.9217 115.681 95.3314 115.598 94.8978 115.701C94.8889 115.515 94.8784 115.303 94.8628 115.089C94.8628 115.089 95.6608 115.241 95.9319 115.462L95.9217 115.681Z" fill="#624D9E"/>
<path d="M100.852 114.18C100.773 114.015 101.128 113.69 101.645 113.455C101.819 113.375 101.99 113.316 102.143 113.279C102.442 113.207 102.671 113.218 102.723 113.328C102.802 113.493 102.447 113.818 101.93 114.053C101.414 114.289 100.931 114.345 100.852 114.18Z" fill="#8F53BF"/>
<path d="M102.1 113.29C102.1 113.29 101.522 113.409 101.178 113.722C101.101 113.549 101.008 113.367 100.903 113.177C100.903 113.177 101.674 112.996 102.013 113.088L102.1 113.29Z" fill="#624D9E"/>
<path d="M107.272 110.16C107.103 110.085 107.153 109.61 107.385 109.099C107.463 108.927 107.553 108.772 107.643 108.646C107.819 108.398 107.999 108.26 108.112 108.31C108.281 108.385 108.23 108.86 107.999 109.371C107.767 109.882 107.442 110.235 107.272 110.16Z" fill="#8F53BF"/>
<path d="M107.618 108.682C107.618 108.682 107.296 109.172 107.212 109.602C107.036 109.531 106.836 109.45 106.631 109.373C106.631 109.373 107.102 108.726 107.418 108.579L107.618 108.682Z" fill="#624D9E"/>
<path d="M93.3857 106.261C93.5616 106.895 93.3526 107.5 92.9193 107.613C92.4857 107.727 91.9923 107.305 91.8164 106.671C91.6408 106.038 91.8498 105.432 92.2828 105.319C92.7164 105.206 93.2101 105.628 93.3857 106.261Z" fill="#624D9E"/>
<path d="M92.9103 105.689C93.0859 106.322 92.8772 106.928 92.4439 107.041C92.0104 107.154 91.5169 106.733 91.341 106.099C91.1651 105.465 91.3741 104.86 91.8074 104.747C92.241 104.633 92.7347 105.055 92.9103 105.689Z" fill="#DFB4EA"/>
<path d="M91.2408 99.7515C91.7276 99.3061 92.3716 99.2073 92.6787 99.5308C92.9864 99.8545 92.8407 100.478 92.3538 100.923C91.8667 101.369 91.223 101.467 90.9159 101.144C90.6083 100.82 90.754 100.197 91.2408 99.7515Z" fill="#624D9E"/>
<path d="M90.728 99.2393C91.2151 98.794 91.8588 98.6951 92.1662 99.0187C92.4736 99.3424 92.3282 99.9658 91.841 100.411C91.3542 100.857 90.7105 100.956 90.4031 100.632C90.0958 100.308 90.2412 99.6847 90.728 99.2393Z" fill="#DFB4EA"/>
<path d="M96.6491 109.106C96.7646 109.523 96.5143 109.951 96.0907 110.062C95.6665 110.172 95.2291 109.924 95.1134 109.507C94.998 109.09 95.2479 108.662 95.6715 108.551C96.0958 108.44 96.5331 108.688 96.6491 109.106Z" fill="#624D9E"/>
<path d="M96.5366 108.701C96.6523 109.119 96.4024 109.546 95.9782 109.657C95.5546 109.768 95.1166 109.52 95.0012 109.103C94.8857 108.686 95.1353 108.257 95.5595 108.147C95.9835 108.036 96.4211 108.284 96.5366 108.701Z" fill="#DFB4EA"/>
<path d="M99.8844 101.061C99.6357 101.531 99.0454 101.711 98.5654 101.463C98.0854 101.216 97.8981 100.635 98.1467 100.165C98.3954 99.6957 98.986 99.5156 99.466 99.7629C99.9457 100.01 100.133 100.591 99.8844 101.061Z" fill="#624D9E"/>
<path d="M100.126 100.605C99.8772 101.075 99.2863 101.255 98.8066 101.008C98.3267 100.761 98.1393 100.18 98.3879 99.7099C98.6365 99.2405 99.2272 99.0601 99.7069 99.3073C100.187 99.5546 100.374 100.136 100.126 100.605Z" fill="#DFB4EA"/>
<path d="M100.765 108.829C100.85 109.135 100.667 109.449 100.356 109.53C100.045 109.611 99.7238 109.429 99.6392 109.123C99.5545 108.818 99.7378 108.504 100.049 108.423C100.359 108.341 100.68 108.524 100.765 108.829Z" fill="#624D9E"/>
<path d="M100.682 108.533C100.767 108.838 100.584 109.152 100.273 109.233C99.9619 109.315 99.6412 109.133 99.5565 108.827C99.4713 108.521 99.6545 108.207 99.9655 108.126C100.277 108.045 100.598 108.227 100.682 108.533Z" fill="#DFB4EA"/>
<path d="M108.839 102.225C108.664 102.276 108.388 101.887 108.224 101.356C108.168 101.177 108.133 101.004 108.116 100.852C108.084 100.554 108.127 100.336 108.243 100.302C108.419 100.251 108.694 100.639 108.858 101.17C109.023 101.701 109.014 102.173 108.839 102.225Z" fill="#8F53BF"/>
<path d="M108.121 100.895C108.121 100.895 108.206 101.468 108.426 101.844C108.249 101.902 108.047 101.969 107.844 102.04C107.844 102.04 107.768 101.256 107.905 100.944L108.121 100.895Z" fill="#624D9E"/>
<path d="M105.115 97.0036C104.992 97.1351 104.555 96.9355 104.14 96.5575C103.999 96.4298 103.879 96.2978 103.787 96.1743C103.606 95.9326 103.53 95.7224 103.613 95.6352C103.737 95.5038 104.174 95.7034 104.589 96.0814C105.004 96.459 105.24 96.872 105.115 97.0036Z" fill="#8F53BF"/>
<path d="M103.813 96.2095C103.813 96.2095 104.142 96.6848 104.565 96.8794C104.433 97.0116 104.298 97.1625 104.161 97.3253C104.161 97.3253 103.7 96.6999 103.658 96.3619L103.813 96.2095Z" fill="#624D9E"/>
<path d="M101.158 92.8525C101.116 93.027 100.637 93.063 100.088 92.9324C99.9022 92.8883 99.7323 92.8308 99.5904 92.7671C99.3127 92.6428 99.1418 92.4952 99.1697 92.3796C99.2117 92.2048 99.6907 92.1688 100.24 92.2994C100.789 92.4301 101.2 92.6776 101.158 92.8525Z" fill="#8F53BF"/>
<path d="M99.6304 92.7852C99.6304 92.7852 100.176 93.0046 100.618 93.009C100.581 93.189 100.538 93.3946 100.501 93.6029C100.501 93.6029 99.7722 93.2687 99.5665 92.9933L99.6304 92.7852Z" fill="#624D9E"/>
<path d="M94.8146 93.2536C94.8687 93.4258 94.4756 93.6949 93.9367 93.8552C93.7542 93.9092 93.5788 93.944 93.4241 93.9595C93.1212 93.9898 92.8986 93.9468 92.863 93.833C92.8089 93.6608 93.2018 93.3914 93.7409 93.2317C94.28 93.0715 94.7604 93.0816 94.8146 93.2536Z" fill="#8F53BF"/>
<path d="M93.4679 93.9548C93.4679 93.9548 94.05 93.9171 94.4313 93.6577C94.4818 93.8366 94.5477 94.0278 94.6229 94.2271C94.6229 94.2271 93.8435 94.2998 93.5244 94.164L93.4679 93.9548Z" fill="#624D9E"/>
<path d="M102.278 106.336C102.132 106.975 101.658 107.412 101.22 107.313C100.782 107.213 100.545 106.615 100.691 105.976C100.837 105.337 101.311 104.9 101.749 105C102.188 105.099 102.424 105.697 102.278 106.336Z" fill="#624D9E"/>
<path d="M102.529 105.938C102.382 106.577 101.908 107.014 101.47 106.915C101.032 106.815 100.795 106.217 100.941 105.578C101.087 104.94 101.561 104.502 101.999 104.602C102.438 104.701 102.674 105.299 102.529 105.938Z" fill="#DFB4EA"/>
<path d="M97.7226 103.605C97.8982 104.239 97.5185 104.889 96.8743 105.057C96.2303 105.226 95.5656 104.849 95.39 104.215C95.2144 103.581 95.5941 102.931 96.238 102.763C96.8823 102.594 97.5467 102.972 97.7226 103.605Z" fill="#624D9E"/>
<path d="M97.5379 102.939C97.7138 103.572 97.3338 104.223 96.6895 104.391C96.0455 104.559 95.3809 104.182 95.2056 103.548C95.0297 102.915 95.4096 102.265 96.0536 102.096C96.6979 101.928 97.3623 102.305 97.5379 102.939Z" fill="#DFB4EA"/>
<path d="M102.485 109.094C102.56 109.166 102.499 109.375 102.291 109.68C102.084 109.986 101.718 110.376 101.187 110.775C100.923 110.976 100.613 111.17 100.267 111.358C99.9176 111.537 99.5329 111.715 99.1086 111.856C98.2643 112.144 97.2731 112.315 96.2251 112.285C95.1769 112.246 94.1967 112.01 93.3696 111.666C92.9537 111.498 92.5794 111.295 92.2402 111.093C91.9054 110.882 91.607 110.668 91.354 110.451C90.8464 110.017 90.5023 109.603 90.3125 109.285C90.1218 108.966 90.0717 108.754 90.1504 108.686C90.3229 108.539 90.9347 109.019 91.9773 109.566C92.2365 109.705 92.5276 109.84 92.84 109.977C93.1567 110.106 93.4938 110.24 93.8584 110.349C94.5842 110.573 95.4043 110.727 96.2668 110.761C97.1295 110.784 97.9564 110.685 98.6931 110.508C99.0628 110.424 99.4069 110.313 99.7299 110.205C100.049 110.089 100.347 109.973 100.614 109.852C101.684 109.374 102.321 108.935 102.485 109.094Z" fill="#624D9E"/>
</g>
<rect x="3.5" y="2.5" width="381" height="228" rx="10.5" stroke="#0B1324" stroke-opacity="0.07"/>
</g>
<defs>
<filter id="filter0_di_4393_19856" x="0" y="0" width="388" height="235" filterUnits="userSpaceOnUse" color-interpolation-filters="sRGB">
<feFlood flood-opacity="0" result="BackgroundImageFix"/>
<feColorMatrix in="SourceAlpha" type="matrix" values="0 0 0 0 0 0 0 0 0 0 0 0 0 0 0 0 0 0 127 0" result="hardAlpha"/>
<feOffset dy="1"/>
<feGaussianBlur stdDeviation="1.5"/>
<feColorMatrix type="matrix" values="0 0 0 0 0.0431373 0 0 0 0 0.0745098 0 0 0 0 0.141176 0 0 0 0.1 0"/>
<feBlend mode="normal" in2="BackgroundImageFix" result="effect1_dropShadow_4393_19856"/>
<feBlend mode="normal" in="SourceGraphic" in2="effect1_dropShadow_4393_19856" result="shape"/>
<feColorMatrix in="SourceAlpha" type="matrix" values="0 0 0 0 0 0 0 0 0 0 0 0 0 0 0 0 0 0 127 0" result="hardAlpha"/>
<feOffset dy="-1"/>
<feComposite in2="hardAlpha" operator="arithmetic" k2="-1" k3="1"/>
<feColorMatrix type="matrix" values="0 0 0 0 0 0 0 0 0 0 0 0 0 0 0 0 0 0 0.1 0"/>
<feBlend mode="normal" in2="shape" result="effect2_innerShadow_4393_19856"/>
</filter>
<clipPath id="clip0_4393_19856">
<rect width="121" height="130" fill="white" transform="translate(20 84)"/>
</clipPath>
</defs>
</svg>
