<svg width="428" height="194" viewBox="0 0 428 194" fill="none" xmlns="http://www.w3.org/2000/svg">
<mask id="mask0_4393_19563" style="mask-type:alpha" maskUnits="userSpaceOnUse" x="0" y="0" width="428" height="194">
<path d="M0 0H428V194H0V0Z" fill="white"/>
</mask>
<g mask="url(#mask0_4393_19563)">
<path fill-rule="evenodd" clip-rule="evenodd" d="M31.9328 80.4267C50.7377 75.2355 72.203 65.9279 88.1346 77.1741C103.71 88.169 93.7284 113.355 102.53 130.262C116.939 157.941 168.067 176.084 154.177 204.034C140.583 231.387 96.5434 204.721 66.0054 203.758C49.5187 203.237 32.2351 208.989 18.5737 199.754C5.57779 190.969 5.14579 173.349 -0.57803 158.748C-7.5468 140.971 -25.3164 124.111 -17.9945 106.472C-10.5161 88.4558 13.1224 85.6195 31.9328 80.4267Z" fill="#04AC79"/>
<path fill-rule="evenodd" clip-rule="evenodd" d="M24.9328 95.4267C43.7377 90.2355 65.203 80.9279 81.1346 92.1741C96.71 103.169 86.7284 128.355 95.5301 145.262C109.939 172.941 161.067 191.084 147.177 219.034C133.583 246.387 89.5434 219.721 59.0054 218.758C42.5187 218.237 25.2351 223.989 11.5737 214.754C-1.42221 205.969 -1.85421 188.349 -7.57803 173.748C-14.5468 155.971 -32.3164 139.111 -24.9945 121.472C-17.5161 103.456 6.12237 100.619 24.9328 95.4267Z" stroke="white" stroke-dasharray="2 2"/>
<path fill-rule="evenodd" clip-rule="evenodd" d="M35.9141 104.094C49.844 100.249 65.7446 93.3541 77.546 101.685C89.0836 109.829 81.6896 128.486 88.2096 141.01C98.8832 161.513 136.757 174.953 126.467 195.657C116.398 215.919 83.7749 196.166 61.1537 195.452C48.9411 195.067 36.1381 199.328 26.0183 192.487C16.3915 185.979 16.0715 172.927 11.8315 162.111C6.66934 148.943 -6.49359 136.453 -1.0699 123.387C4.46979 110.042 21.9802 107.941 35.9141 104.094Z" fill="#00BB7E"/>
<path d="M49.8591 71.822C49.6 71.6294 49.3392 71.4342 49.0767 71.2366L48.776 71.636C48.2597 71.2473 47.7376 70.8497 47.2101 70.4455L47.5142 70.0486C47.0006 69.6552 46.4817 69.2553 45.9577 68.8509L45.6522 69.2468C45.5023 69.1311 45.352 69.0151 45.2013 68.8988C44.8343 68.6155 44.4651 68.3305 44.0937 68.0445L44.3989 67.6483C43.8828 67.2508 43.3623 66.851 42.8378 66.451L42.5345 66.8485C42.0153 66.4525 41.4925 66.0563 40.9662 65.6618L41.2661 65.2618C40.7412 64.8683 40.2126 64.4763 39.6808 64.0876L39.3858 64.4913C38.8565 64.1045 38.3243 63.7211 37.7893 63.343L38.0779 62.9347C37.5393 62.554 36.9976 62.1783 36.4533 61.8096L36.1729 62.2236C35.6282 61.8546 35.0811 61.4928 34.532 61.14L34.8023 60.7193C34.2439 60.3606 33.683 60.0108 33.1199 59.672L32.8621 60.1004C32.297 59.7603 31.73 59.4316 31.1615 59.1161L31.4042 58.6789C30.8201 58.3548 30.2339 58.0443 29.6461 57.7495L29.422 58.1964C28.8305 57.8998 28.2378 57.6196 27.6443 57.358L27.846 56.9004C27.2313 56.6294 26.6149 56.3778 25.9975 56.1479L25.8231 56.6165C25.2019 56.3853 24.5803 56.1768 23.9588 55.9936L24.1002 55.514C23.4524 55.323 22.8035 55.1585 22.1543 55.0236L22.0525 55.5131C21.4051 55.3785 20.7583 55.2742 20.1126 55.2028L20.1676 54.7058C19.4952 54.6315 18.823 54.5919 18.1515 54.5904L18.1504 55.0904C17.4947 55.0889 16.8407 55.1247 16.1889 55.2008L16.1309 54.7042C15.4641 54.782 14.7991 54.9008 14.1368 55.0636L14.2561 55.5492C13.6286 55.7034 13.0037 55.8984 12.3819 56.1368L12.2029 55.6699C11.8894 55.7901 11.5768 55.921 11.2652 56.0628C10.9526 56.205 10.649 56.3555 10.3541 56.5139L10.5907 56.9544C10.0047 57.2692 9.45511 57.6159 8.93892 57.9921L8.64442 57.5881C8.09197 57.9907 7.57667 58.4258 7.09521 58.8904L7.4424 59.2502C6.97243 59.7037 6.53548 60.1865 6.12812 60.6959L5.73763 60.3836C5.32041 60.9053 4.93415 61.4529 4.5753 62.0233L4.99851 62.2896C4.65455 62.8363 4.33564 63.4057 4.03861 63.9953L3.59209 63.7703C3.29642 64.3571 3.02258 64.9622 2.76744 65.5829L3.22989 65.773C2.98508 66.3685 2.75726 66.9799 2.5437 67.605L2.07055 67.4433C1.85926 68.0618 1.66205 68.6924 1.47631 69.333L1.95654 69.4722C1.77701 70.0914 1.60802 70.7209 1.44721 71.3589L0.962373 71.2367C0.803139 71.8684 0.652023 72.5077 0.50677 73.1525L0.994547 73.2623C0.852104 73.8946 0.715144 74.533 0.58152 75.1758L0.0919863 75.074C-0.0404703 75.7112 -0.169572 76.3522 -0.297333 76.9949L0.193074 77.0924C0.104061 77.5402 0.0156211 77.9893 -0.0729483 78.439C-0.11051 78.6297 -0.148095 78.8206 -0.185757 79.0115L-0.676304 78.9147C-0.802357 79.5537 -0.929109 80.1927 -1.05867 80.8305L-0.568682 80.9301C-0.698597 81.5696 -0.831396 82.2084 -0.969099 82.8446L-1.45778 82.7389C-1.59555 83.3754 -1.73809 84.0087 -1.88745 84.6373L-1.40099 84.7529C-1.55243 85.3902 -1.71098 86.0233 -1.87873 86.6504L-2.36175 86.5212C-2.5298 87.1494 -2.70695 87.7708 -2.89532 88.3837L-2.41738 88.5305C-2.61007 89.1575 -2.81459 89.7764 -3.03318 90.3853L-3.50378 90.2164C-3.72293 90.8269 -3.95608 91.4264 -4.20548 92.013L-3.74533 92.2087C-4.00219 92.8129 -4.27636 93.4046 -4.57031 93.9818L-5.01586 93.7549C-5.30747 94.3275 -5.61843 94.8845 -5.95111 95.4242L-5.52548 95.6866C-5.86854 96.2431 -6.23473 96.7825 -6.62662 97.3024L-7.02592 97.0015C-7.21714 97.2552 -7.41452 97.5041 -7.61837 97.7478C-7.82179 97.991 -8.03094 98.2267 -8.24552 98.4553L-7.88093 98.7975C-8.32843 99.2743 -8.79853 99.721 -9.28855 100.141L-9.61396 99.7614C-10.0942 100.173 -10.5949 100.559 -11.1137 100.923L-10.8265 101.333C-11.3563 101.704 -11.9034 102.053 -12.4652 102.382L-12.7179 101.951C-13.2647 102.271 -13.8266 102.573 -14.4014 102.86L-14.1779 103.307C-14.7553 103.596 -15.3442 103.869 -15.942 104.13L-16.1422 103.672C-16.7272 103.928 -17.3217 104.172 -17.9235 104.409L-17.7405 104.874C-18.3422 105.111 -18.95 105.339 -19.5616 105.563L-19.7332 105.093C-20.3388 105.315 -20.9486 105.531 -21.5609 105.747L-21.3949 106.219C-21.7138 106.331 -22.033 106.443 -22.3522 106.554C-22.6455 106.657 -22.9389 106.76 -23.2321 106.863L-23.3979 106.391C-24.0118 106.607 -24.6259 106.825 -25.237 107.048L-25.0657 107.518C-25.6773 107.741 -26.2854 107.968 -26.8875 108.204L-27.0699 107.739C-27.6813 107.978 -28.2878 108.227 -28.8866 108.487L-28.6872 108.945C-29.2855 109.206 -29.875 109.477 -30.4532 109.764L-30.6755 109.316C-31.2685 109.611 -31.8509 109.921 -32.42 110.252L-32.1687 110.684C-32.7317 111.012 -33.2802 111.358 -33.8116 111.728L-34.097 111.317C-34.6419 111.696 -35.1701 112.099 -35.6786 112.53L-35.3552 112.912C-35.8476 113.329 -36.3202 113.773 -36.7705 114.247L-37.133 113.903C-37.3618 114.144 -37.5851 114.392 -37.8025 114.649C-38.009 114.893 -38.2167 115.138 -38.4255 115.385L-38.0434 115.708C-38.4544 116.195 -38.8691 116.688 -39.286 117.188L-39.6699 116.867C-40.0796 117.358 -40.4915 117.855 -40.904 118.358L-40.5174 118.675C-40.9234 119.17 -41.3299 119.671 -41.7353 120.176L-42.1254 119.863C-42.5275 120.365 -42.9287 120.872 -43.3275 121.383L-42.9332 121.691C-43.3281 122.197 -43.7205 122.708 -44.1091 123.224L-44.5084 122.923C-44.8973 123.438 -45.2825 123.959 -45.6626 124.483L-45.2577 124.777C-45.6356 125.298 -46.0082 125.824 -46.3742 126.353L-46.7855 126.069C-47.1544 126.602 -47.5169 127.14 -47.8713 127.681L-47.453 127.955C-47.807 128.495 -48.1527 129.039 -48.4888 129.586L-48.9148 129.324C-49.256 129.88 -49.5875 130.438 -49.9079 131L-49.4735 131.248C-49.7941 131.81 -50.1033 132.375 -50.3994 132.943L-50.8427 132.712C-51.1455 133.292 -51.4352 133.876 -51.7099 134.462L-51.2571 134.674C-51.5321 135.261 -51.7918 135.85 -52.0346 136.441L-52.4971 136.251C-52.747 136.859 -52.9795 137.47 -53.1927 138.084L-52.7204 138.248C-52.9333 138.86 -53.1265 139.474 -53.2981 140.089L-53.7797 139.955C-53.9571 140.59 -54.1121 141.228 -54.2427 141.867L-53.7528 141.967C-53.8823 142.601 -53.9872 143.236 -54.0656 143.872L-54.5618 143.811C-54.6426 144.466 -54.6959 145.122 -54.7193 145.779L-54.2197 145.797C-54.2427 146.441 -54.2365 147.084 -54.1991 147.727L-54.6982 147.756C-54.66 148.413 -54.59 149.069 -54.4862 149.725L-53.9924 149.647C-53.8925 150.277 -53.7606 150.907 -53.5946 151.535L-54.0781 151.663C-53.9941 151.981 -53.9016 152.299 -53.8004 152.616C-53.695 152.947 -53.5795 153.269 -53.4544 153.583L-52.9899 153.398C-52.7413 154.022 -52.4534 154.611 -52.1297 155.171L-52.5624 155.421C-52.2172 156.017 -51.8331 156.579 -51.4141 157.11L-51.0215 156.8C-50.6144 157.316 -50.1727 157.803 -49.7003 158.263L-50.0493 158.621C-49.5672 159.091 -49.0552 159.534 -48.5176 159.952L-48.2104 159.558C-47.6979 159.957 -47.1601 160.335 -46.6004 160.695L-46.8709 161.116C-46.3132 161.474 -45.7353 161.815 -45.141 162.14L-44.901 161.701C-44.3314 162.013 -43.7452 162.311 -43.1453 162.599L-43.3613 163.05C-42.7668 163.335 -42.1598 163.609 -41.5434 163.874L-41.3455 163.415C-40.7472 163.673 -40.139 163.923 -39.5233 164.169L-39.7084 164.633C-39.0977 164.877 -38.4805 165.115 -37.8595 165.35L-37.6824 164.882C-37.0696 165.115 -36.4523 165.344 -35.8329 165.573L-36.0063 166.042C-35.7781 166.127 -35.5499 166.211 -35.3217 166.295C-34.9331 166.439 -34.5445 166.582 -34.1555 166.726L-33.9815 166.258C-33.3646 166.487 -32.7479 166.718 -32.1339 166.952L-32.3125 167.419C-31.6986 167.654 -31.0882 167.893 -30.4835 168.137L-30.2961 167.674C-29.6834 167.921 -29.0758 168.175 -28.4759 168.438L-28.6764 168.896C-28.0755 169.159 -27.4833 169.43 -26.902 169.712L-26.6839 169.262C-26.0871 169.551 -25.5009 169.852 -24.9279 170.167L-25.1686 170.605C-24.596 170.919 -24.0379 171.247 -23.4969 171.591L-23.2288 171.169C-22.6694 171.524 -22.1268 171.896 -21.6039 172.289L-21.9041 172.689C-21.3869 173.077 -20.8904 173.484 -20.4175 173.913L-20.0815 173.543C-19.594 173.985 -19.1299 174.451 -18.6923 174.943L-19.0658 175.275C-18.8535 175.514 -18.6478 175.758 -18.449 176.009C-18.253 176.257 -18.0646 176.511 -17.8834 176.772L-17.4729 176.486C-17.1018 177.02 -16.7606 177.578 -16.4464 178.158L-16.8861 178.396C-16.5863 178.95 -16.3109 179.525 -16.0574 180.12L-15.5975 179.924C-15.344 180.518 -15.1124 181.13 -14.9001 181.758L-15.3736 181.918C-15.1696 182.52 -14.9833 183.138 -14.8123 183.768L-14.3297 183.637C-14.1604 184.262 -14.0061 184.897 -13.8646 185.542L-14.3529 185.649C-14.2154 186.275 -14.0898 186.911 -13.974 187.554L-13.4819 187.466C-13.3667 188.105 -13.2613 188.752 -13.1634 189.402L-13.6578 189.477C-13.5615 190.117 -13.4724 190.762 -13.3885 191.411L-12.8927 191.347C-12.8089 191.994 -12.7304 192.644 -12.6551 193.295L-13.1518 193.352C-13.0767 194.001 -13.0048 194.651 -12.9339 195.3L-12.4369 195.245C-12.4058 195.53 -12.3749 195.814 -12.3441 196.098C-12.3043 196.465 -12.2645 196.831 -12.2244 197.197L-12.7214 197.251C-12.6496 197.906 -12.5768 198.558 -12.5008 199.206L-12.0042 199.147C-11.9273 199.802 -11.8472 200.452 -11.7616 201.094L-12.2573 201.16C-12.1695 201.819 -12.0759 202.471 -11.974 203.113L-11.4802 203.035C-11.3761 203.692 -11.2635 204.338 -11.1398 204.97L-11.6305 205.066C-11.5014 205.727 -11.3599 206.375 -11.2033 207.007L-10.718 206.886C-10.5575 207.534 -10.3812 208.163 -10.1857 208.772L-10.6617 208.925C-10.4524 209.576 -10.2209 210.206 -9.96315 210.811L-9.5032 210.615C-9.24138 211.229 -8.95259 211.814 -8.63261 212.367L-9.06532 212.617C-8.71945 213.215 -8.33681 213.778 -7.91196 214.301L-7.52379 213.986C-7.10985 214.496 -6.65575 214.964 -6.15644 215.386L-6.47917 215.768C-5.96183 216.205 -5.39814 216.595 -4.7835 216.933L-4.54267 216.495C-3.98946 216.799 -3.39261 217.059 -2.74803 217.27L-2.9041 217.745C-2.58403 217.851 -2.25333 217.944 -1.91163 218.026C-1.55708 218.111 -1.20562 218.182 -0.857139 218.24L-0.774932 217.747C-0.0768324 217.863 0.60734 217.925 1.2787 217.935L1.27077 218.435C1.99815 218.447 2.7112 218.401 3.41092 218.302L3.34094 217.807C4.02572 217.71 4.69738 217.561 5.35722 217.363L5.50037 217.843C6.17917 217.64 6.84441 217.388 7.4973 217.094L7.29175 216.638C7.91177 216.359 8.52186 216.038 9.12323 215.681L9.37835 216.111C9.97578 215.757 10.5634 215.368 11.1424 214.95L10.8494 214.545C11.3993 214.147 11.9426 213.721 12.4802 213.27L12.8014 213.654C13.3288 213.211 13.8499 212.746 14.3657 212.262L14.0235 211.898C14.5195 211.432 15.0114 210.948 15.4999 210.447L15.8576 210.797C16.3382 210.305 16.815 209.798 17.2889 209.279L16.9198 208.942C17.38 208.438 17.8379 207.923 18.2943 207.399L18.6715 207.727C19.1228 207.208 19.5723 206.681 20.0206 206.148L19.6379 205.826C20.0794 205.301 20.52 204.77 20.9605 204.235L21.3465 204.553C21.784 204.021 22.2212 203.486 22.6584 202.95L22.271 202.634C22.391 202.487 22.511 202.34 22.6311 202.193C22.9465 201.806 23.2622 201.419 23.5786 201.032L23.9656 201.348C24.402 200.815 24.8391 200.283 25.2778 199.754L24.893 199.434C25.3342 198.902 25.7773 198.374 26.2228 197.85L26.6036 198.174C27.0505 197.649 27.4996 197.13 27.9514 196.619L27.5768 196.288C28.0365 195.768 28.4993 195.256 28.966 194.755L29.3319 195.096C29.8025 194.59 30.2765 194.096 30.7548 193.616L30.4005 193.263C30.8916 192.77 31.3876 192.291 31.8893 191.828L32.2283 192.196C32.7341 191.729 33.245 191.28 33.7617 190.852L33.4426 190.467C33.9802 190.021 34.5249 189.597 35.0773 189.196L35.3707 189.601C35.6458 189.402 35.9227 189.209 36.2014 189.023L36.998 188.49L36.7202 188.074C37.2518 187.719 37.7833 187.364 38.315 187.011L38.5916 187.428C39.1238 187.074 39.6559 186.723 40.1888 186.374L39.9149 185.956C40.4501 185.605 40.9862 185.258 41.5236 184.914L41.7931 185.335C42.3303 184.991 42.8685 184.651 43.4084 184.316L43.1447 183.891C43.6883 183.554 44.2338 183.221 44.7817 182.894L45.0379 183.324C45.5845 182.998 46.1333 182.678 46.6847 182.365L46.4379 181.93C46.9941 181.614 47.5534 181.305 48.1161 181.004L48.3519 181.445C48.9118 181.146 49.4749 180.855 50.0418 180.573L49.819 180.125C50.3913 179.84 50.9676 179.565 51.5485 179.299L51.7563 179.754C52.332 179.491 52.9119 179.238 53.4967 178.996L53.3058 178.534C53.8956 178.29 54.4905 178.058 55.0911 177.838L55.2633 178.307C55.8552 178.09 56.4525 177.885 57.0557 177.693L56.9042 177.217C57.511 177.024 58.124 176.844 58.7436 176.678L58.8728 177.161C59.1769 177.08 59.4826 177.002 59.7899 176.928C60.0993 176.853 60.4103 176.783 60.7226 176.716L60.6184 176.227C61.2497 176.092 61.8863 175.974 62.5277 175.871L62.6072 176.365C63.2363 176.263 63.8705 176.176 64.5094 176.102L64.452 175.606C65.0926 175.532 65.7373 175.471 66.3857 175.421L66.4238 175.92C67.0609 175.871 67.7019 175.834 68.3463 175.806L68.325 175.307C68.9696 175.279 69.6171 175.261 70.267 175.252L70.274 175.752C70.9149 175.743 71.5587 175.743 72.2047 175.749L72.2097 175.249C72.8554 175.256 73.5031 175.269 74.1521 175.289L74.1373 175.788C74.7803 175.807 75.4249 175.832 76.0709 175.861L76.0934 175.362C76.7394 175.391 77.3863 175.424 78.0336 175.461L78.0054 175.96C78.6499 175.997 79.2951 176.036 79.9407 176.078L79.9727 175.579C80.6191 175.62 81.2653 175.663 81.9111 175.707L81.8772 176.206C82.2202 176.23 82.5622 176.253 82.904 176.276C83.2076 176.297 83.511 176.318 83.8152 176.339L83.8492 175.84C84.4965 175.884 85.1428 175.928 85.7875 175.969L85.7554 176.468C86.4042 176.51 87.052 176.55 87.6981 176.587L87.7264 176.087C88.3752 176.124 89.022 176.158 89.6663 176.187L89.6438 176.686C90.2958 176.716 90.9456 176.741 91.5927 176.759L91.6072 176.26C92.2581 176.278 92.9058 176.291 93.5499 176.296L93.5458 176.796C94.2013 176.802 94.8535 176.799 95.5019 176.788L95.4929 176.288C96.1449 176.276 96.7925 176.255 97.435 176.223L97.4598 176.723C98.1171 176.69 98.7698 176.646 99.4172 176.59L99.3736 176.092C100.023 176.035 100.667 175.965 101.305 175.88L101.371 176.375C102.025 176.288 102.673 176.186 103.315 176.067L103.223 175.575C103.863 175.456 104.496 175.319 105.121 175.163L105.242 175.649C105.883 175.489 106.517 175.309 107.142 175.108L106.988 174.632C107.606 174.433 108.214 174.212 108.813 173.968L109.002 174.431C109.613 174.182 110.215 173.909 110.806 173.61L110.58 173.164C111.155 172.873 111.72 172.557 112.273 172.215L112.536 172.64C113.094 172.294 113.641 171.923 114.176 171.522L113.876 171.122C114.388 170.739 114.888 170.33 115.377 169.892L115.711 170.265C115.957 170.045 116.2 169.817 116.441 169.583C116.686 169.344 116.925 169.1 117.158 168.852L116.793 168.51C117.251 168.022 117.686 167.516 118.099 166.992L118.491 167.301C118.913 166.766 119.312 166.214 119.688 165.645L119.272 165.369C119.639 164.814 119.985 164.243 120.311 163.658L120.748 163.901C121.077 163.308 121.384 162.702 121.671 162.082L121.218 161.872C121.497 161.269 121.757 160.654 121.996 160.027L122.463 160.206C122.705 159.576 122.926 158.935 123.129 158.284L122.652 158.136C122.849 157.502 123.028 156.858 123.19 156.207L123.675 156.327C123.837 155.673 123.981 155.011 124.108 154.342L123.616 154.249C123.74 153.596 123.847 152.937 123.937 152.272L124.433 152.339C124.523 151.673 124.598 151.001 124.656 150.325L124.158 150.282C124.215 149.62 124.257 148.953 124.283 148.283L124.783 148.303C124.809 147.63 124.821 146.955 124.817 146.278L124.317 146.28C124.314 145.614 124.297 144.946 124.265 144.278L124.764 144.254C124.732 143.581 124.686 142.908 124.626 142.235L124.128 142.28C124.069 141.615 123.996 140.951 123.91 140.289L124.406 140.224C124.319 139.556 124.218 138.888 124.105 138.224L123.612 138.308C123.5 137.649 123.374 136.993 123.236 136.341L123.726 136.237C123.586 135.576 123.433 134.919 123.268 134.267L122.783 134.39C122.619 133.741 122.443 133.097 122.254 132.459L122.733 132.317C122.541 131.668 122.337 131.024 122.12 130.388L121.646 130.549C121.43 129.914 121.202 129.286 120.961 128.667L121.427 128.486C121.182 127.853 120.924 127.229 120.654 126.614L120.196 126.815C119.926 126.2 119.644 125.595 119.35 125.001L119.799 124.779C119.497 124.169 119.183 123.571 118.857 122.985L118.42 123.228C118.093 122.639 117.753 122.063 117.402 121.501L117.825 121.236C117.646 120.949 117.463 120.665 117.277 120.385C117.085 120.097 116.888 119.816 116.686 119.542L116.284 119.839C115.883 119.295 115.463 118.78 115.023 118.29L115.395 117.956C114.934 117.444 114.454 116.959 113.954 116.501L113.616 116.869C113.123 116.416 112.612 115.989 112.083 115.584L112.387 115.187C111.846 114.774 111.288 114.384 110.714 114.017L110.445 114.438C109.885 114.079 109.31 113.741 108.721 113.422L108.96 112.982C108.367 112.661 107.761 112.359 107.144 112.073L106.934 112.527C106.333 112.249 105.719 111.986 105.096 111.737L105.281 111.273C104.658 111.024 104.025 110.789 103.384 110.566L103.22 111.038C102.594 110.82 101.96 110.613 101.319 110.415L101.467 109.937C100.828 109.74 100.184 109.552 99.5335 109.372L99.3996 109.854C98.7604 109.676 98.1154 109.505 97.4659 109.339L97.5894 108.855C96.9429 108.69 96.2923 108.53 95.639 108.374L95.5227 108.86C94.8759 108.706 94.2259 108.554 93.5738 108.404L93.6858 107.917C93.0364 107.768 92.3851 107.62 91.7335 107.473L91.6231 107.961C91.5674 107.948 91.5116 107.935 91.4558 107.923C90.8616 107.788 90.2667 107.654 89.672 107.518L89.7834 107.03C89.134 106.882 88.4852 106.732 87.8381 106.578L87.7228 107.065C87.0731 106.911 86.4247 106.754 85.7787 106.592L85.9005 106.107C85.255 105.945 84.6124 105.778 83.9739 105.604L83.8429 106.087C83.1975 105.912 82.5556 105.73 81.9186 105.54L82.0616 105.061C81.4247 104.87 80.7931 104.672 80.1679 104.464L80.0098 104.938C79.3746 104.726 78.7455 104.504 78.1237 104.27L78.2998 103.802C77.6799 103.569 77.0679 103.323 76.465 103.064L76.2677 103.524C75.653 103.26 75.0471 102.982 74.4512 102.687L74.6726 102.239C74.0817 101.947 73.5014 101.64 72.9329 101.314L72.6847 101.749C72.1054 101.417 71.5375 101.068 70.9825 100.698L71.2596 100.282C70.987 100.101 70.7177 99.9143 70.4518 99.7229C70.194 99.5373 69.942 99.3463 69.6955 99.1502L69.3841 99.5414C68.8737 99.1352 68.3868 98.7079 67.9206 98.2617L68.2663 97.9005C67.8076 97.4616 67.3688 97.0036 66.9472 96.5287L66.5733 96.8607C66.1435 96.3766 65.7317 95.8761 65.3354 95.3617L65.7314 95.0565C65.3433 94.5528 64.9695 94.0349 64.6073 93.5049L64.1945 93.7869C63.8301 93.2537 63.4779 92.7093 63.1353 92.1563L63.5604 91.893C63.2235 91.3494 62.8955 90.7965 62.5737 90.2367L62.1402 90.4859C61.818 89.9254 61.5024 89.3589 61.1909 88.7886L61.6297 88.5489C61.3207 87.9832 61.0154 87.4133 60.7109 86.841L60.2695 87.0758C60.0979 86.7532 59.9267 86.4302 59.7555 86.1071C59.6232 85.8573 59.4908 85.6075 59.3582 85.3579L59.7998 85.1233C59.4952 84.5497 59.1888 83.976 58.8784 83.4051L58.4391 83.6439C58.1289 83.0732 57.8148 82.5058 57.4944 81.944L57.9288 81.6963C57.6046 81.1279 57.2734 80.5643 56.9327 80.0081L56.5064 80.2693C56.1666 79.7148 55.8176 79.1684 55.4568 78.6326L55.8715 78.3533C55.5036 77.8071 55.123 77.2708 54.7267 76.7473L54.328 77.0491C53.9361 76.5312 53.5292 76.0268 53.1045 75.5382L53.4819 75.2102C53.0489 74.712 52.5972 74.2292 52.1239 73.7646L51.7736 74.1215C51.3129 73.6693 50.8318 73.2353 50.3276 72.8221L50.6446 72.4354C50.3888 72.2257 50.1271 72.0211 49.8591 71.822Z" stroke="#70FED6" stroke-dasharray="2 2"/>
<path fill-rule="evenodd" clip-rule="evenodd" d="M424.155 -157.696C448.886 -160.562 471.236 -142.59 490.505 -126.815C508.278 -112.263 516.801 -90.8234 529.344 -71.5746C544.423 -48.4333 575.635 -29.6217 571.652 -2.2845C567.668 25.0647 530.406 32.0937 511.329 52.0804C493.532 70.7257 487.586 101.502 463.6 110.92C439.352 120.442 413.363 105.273 387.735 100.611C358.623 95.3155 317.015 107.671 302.847 81.6773C287.445 53.4175 322.949 22.2221 327.654 -9.62132C330.599 -29.5515 317.883 -49.9654 325.078 -68.7817C332.441 -88.034 351.661 -98.7393 366.997 -112.502C385.449 -129.061 399.535 -154.843 424.155 -157.696Z" fill="#04AC79"/>
<path fill-rule="evenodd" clip-rule="evenodd" d="M427.646 -115.79C444.767 -117.771 460.241 -105.349 473.58 -94.4455C485.885 -84.3877 491.785 -69.5691 500.469 -56.2648C510.908 -40.2701 532.516 -27.2679 529.759 -8.37311C527.001 10.53 501.204 15.3883 487.997 29.2027C475.676 42.0898 471.56 63.3616 454.954 69.8713C438.167 76.4523 420.174 65.9684 402.432 62.7461C382.277 59.0857 353.472 67.6259 343.664 49.6593C333 30.1268 357.58 8.56527 360.837 -13.4442C362.876 -27.2194 354.073 -41.329 359.054 -54.3344C364.151 -67.6412 377.458 -75.0404 388.075 -84.5532C400.849 -95.9982 410.601 -113.818 427.646 -115.79Z" fill="#00BB7E"/>
<path fill-rule="evenodd" clip-rule="evenodd" d="M413.399 -115.757C433.238 -118.054 451.168 -103.65 466.625 -91.0059C480.882 -79.3432 487.719 -62.16 497.781 -46.7326C509.878 -28.1855 534.916 -13.1086 531.721 8.8014C528.525 30.721 498.633 36.3545 483.33 52.3733C469.053 67.3169 464.283 91.9831 445.042 99.5317C425.59 107.163 404.742 95.006 384.183 91.2694C360.829 87.0249 327.452 96.9279 316.086 76.0943C303.73 53.4449 332.212 28.4427 335.986 2.92115C338.348 -13.0523 328.148 -29.4135 333.92 -44.4941C339.826 -59.9243 355.245 -68.5043 367.547 -79.5351C382.349 -92.8064 393.649 -113.47 413.399 -115.757Z" stroke="white" stroke-dasharray="2 2"/>
<path d="M393.824 -77.0218C393.493 -77.0499 393.16 -77.079 392.825 -77.109L392.78 -76.611C392.115 -76.6706 391.445 -76.7339 390.769 -76.7999L390.818 -77.2976C390.153 -77.3625 389.484 -77.4302 388.81 -77.4998L388.759 -77.0025C388.093 -77.0713 387.423 -77.142 386.75 -77.2138L386.803 -77.7109C386.137 -77.782 385.467 -77.8541 384.794 -77.9266L384.741 -77.4295C384.674 -77.4367 384.607 -77.4439 384.54 -77.4512C383.94 -77.5159 383.337 -77.5809 382.732 -77.6457L382.785 -78.1429C382.117 -78.2144 381.447 -78.2856 380.775 -78.3557L380.723 -77.8584C380.054 -77.9282 379.384 -77.997 378.713 -78.064L378.763 -78.5616C378.093 -78.6285 377.421 -78.6938 376.749 -78.7567L376.702 -78.2589C376.032 -78.3216 375.361 -78.3819 374.69 -78.4393L374.733 -78.9374C374.06 -78.9949 373.387 -79.0493 372.714 -79.1001L372.677 -78.6015C372.004 -78.6521 371.333 -78.6991 370.662 -78.7417L370.693 -79.2407C370.018 -79.2835 369.343 -79.322 368.67 -79.3553L368.645 -78.8559C367.971 -78.8893 367.298 -78.9175 366.627 -78.9399L366.643 -79.4396C365.965 -79.4622 365.289 -79.4789 364.614 -79.4889L364.607 -78.989C363.931 -78.999 363.257 -79.0024 362.587 -78.9983L362.584 -79.4983C361.904 -79.4942 361.226 -79.4824 360.552 -79.4623L360.567 -78.9626C359.89 -78.9424 359.217 -78.9138 358.549 -78.8759L358.52 -79.3751C357.84 -79.3366 357.163 -79.2885 356.49 -79.2301L356.534 -78.732C355.859 -78.6734 355.189 -78.6043 354.525 -78.524L354.465 -79.0204C353.786 -78.9383 353.113 -78.8445 352.446 -78.7382L352.524 -78.2444C351.855 -78.1377 351.192 -78.0183 350.537 -77.8853L350.437 -78.3753C349.766 -78.239 349.102 -78.0886 348.445 -77.923L348.568 -77.4382C347.911 -77.2726 347.262 -77.0917 346.623 -76.8945L346.476 -77.3724C345.82 -77.1703 345.173 -76.9514 344.536 -76.7145L344.711 -76.2458C344.077 -76.0101 343.453 -75.7564 342.84 -75.4838L342.637 -75.9407C342.01 -75.6619 341.394 -75.3635 340.79 -75.0444L341.023 -74.6022C340.427 -74.2877 339.843 -73.9529 339.272 -73.5967L339.007 -74.021C338.427 -73.6591 337.859 -73.2755 337.304 -72.869L337.6 -72.4657C337.06 -72.0697 336.532 -71.6517 336.019 -71.2107L335.693 -71.59C335.177 -71.1464 334.674 -70.6801 334.186 -70.1899L334.54 -69.8371C334.07 -69.3652 333.614 -68.8709 333.172 -68.3531L332.792 -68.6777C332.57 -68.4169 332.351 -68.1503 332.135 -67.8778C331.921 -67.6069 331.716 -67.3339 331.519 -67.0587L331.925 -66.7673C331.533 -66.2211 331.175 -65.6666 330.849 -65.1044L330.416 -65.3555C330.072 -64.7626 329.762 -64.1613 329.484 -63.5519L329.939 -63.3445C329.663 -62.7388 329.42 -62.1251 329.207 -61.5037L328.734 -61.6659C328.513 -61.0242 328.325 -60.375 328.166 -59.7188L328.652 -59.6011C328.497 -58.9599 328.37 -58.3115 328.27 -57.6562L327.776 -57.7318C327.674 -57.0683 327.6 -56.3987 327.549 -55.7235L328.048 -55.6861C327.999 -55.0316 327.973 -54.371 327.968 -53.7048L327.468 -53.7083C327.463 -53.0423 327.479 -52.3715 327.514 -51.6964L328.013 -51.722C328.047 -51.0675 328.098 -50.4082 328.166 -49.7444L327.668 -49.694C327.735 -49.0345 327.817 -48.3711 327.913 -47.7045L328.408 -47.7756C328.501 -47.1265 328.607 -46.4736 328.725 -45.8173L328.233 -45.729C328.35 -45.0779 328.478 -44.4239 328.615 -43.7675L329.104 -43.8697C329.239 -43.2267 329.382 -42.5807 329.533 -41.9322L329.046 -41.8188C329.196 -41.175 329.353 -40.5291 329.516 -39.8815L330.001 -40.0035C330.162 -39.3651 330.328 -38.7245 330.499 -38.0821L330.016 -37.9537C330.185 -37.3151 330.359 -36.675 330.536 -36.0337L331.018 -36.1665C331.193 -35.5307 331.371 -34.8935 331.55 -34.2551L331.068 -34.12C331.209 -33.617 331.351 -33.1133 331.493 -32.6093C331.531 -32.4763 331.568 -32.3432 331.606 -32.2102L332.087 -32.3458C332.266 -31.7099 332.446 -31.073 332.623 -30.4356L332.142 -30.3013C332.319 -29.6648 332.495 -29.0282 332.669 -28.3914L333.151 -28.5227C333.325 -27.8838 333.496 -27.2447 333.663 -26.6055L333.179 -26.4791C333.346 -25.8399 333.509 -25.2011 333.666 -24.5628L334.151 -24.6823C334.31 -24.0385 334.463 -23.3949 334.609 -22.752L334.121 -22.6413C334.268 -21.9976 334.407 -21.3549 334.537 -20.7134L335.027 -20.8131C335.159 -20.1627 335.283 -19.5132 335.397 -18.8649L334.904 -18.7786C335.018 -18.129 335.122 -17.4812 335.214 -16.8353L335.709 -16.9057C335.802 -16.2475 335.884 -15.5909 335.952 -14.9361L335.455 -14.8844C335.523 -14.2299 335.577 -13.5778 335.616 -12.9285L336.116 -12.9586C336.156 -12.2953 336.18 -11.6343 336.187 -10.976L335.687 -10.9707C335.694 -10.3156 335.683 -9.66381 335.653 -9.01553L336.153 -8.99276C336.123 -8.33041 336.073 -7.67118 336.002 -7.01544L335.505 -7.06931C335.435 -6.42227 335.344 -5.77917 335.23 -5.14034L335.722 -5.05265C335.606 -4.40278 335.467 -3.75678 335.304 -3.11502L334.819 -3.23861C334.739 -2.92431 334.653 -2.61111 334.56 -2.29907C334.466 -1.98251 334.366 -1.6687 334.258 -1.35756L334.731 -1.19436C334.511 -0.557716 334.264 0.0676193 333.992 0.682404L333.535 0.479958C333.268 1.0816 332.977 1.67348 332.663 2.25636L333.103 2.49356C332.785 3.08339 332.445 3.66358 332.083 4.23488L331.661 3.96768C331.309 4.52409 330.937 5.07248 330.546 5.61356L330.952 5.90613C330.561 6.44838 330.152 6.98283 329.727 7.51016L329.337 7.19642C328.923 7.71067 328.493 8.21853 328.049 8.72066L328.423 9.05187C327.98 9.55294 327.524 10.0479 327.056 10.5374L326.695 10.1919C326.236 10.6715 325.766 11.1461 325.287 11.6165L325.637 11.9735C325.158 12.4425 324.671 12.9068 324.175 13.3672L323.835 13.0009C323.347 13.4546 322.85 13.9047 322.348 14.3517L322.68 14.7253C322.179 15.1715 321.672 15.6144 321.16 16.0546L320.834 15.6756C320.327 16.1123 319.815 16.5465 319.3 16.9789L319.621 17.3618C319.106 17.7943 318.588 18.2247 318.069 18.6535L317.751 18.2681C317.232 18.6964 316.713 19.1234 316.193 19.5496L316.51 19.9362C316.336 20.0792 316.162 20.2222 315.988 20.365C315.641 20.6493 315.295 20.9332 314.949 21.217L314.632 20.8306C314.11 21.2597 313.589 21.6885 313.072 22.1177L313.392 22.5024C312.871 22.9344 312.355 23.3665 311.844 23.7994L311.52 23.4178C311.002 23.8567 310.489 24.2967 309.983 24.7383L310.311 25.1151C309.8 25.5608 309.297 26.008 308.802 26.4572L308.466 26.0871C307.96 26.5462 307.464 27.0079 306.979 27.4727L307.325 27.8338C306.834 28.304 306.354 28.7771 305.889 29.2538L305.531 28.9045C305.052 29.3958 304.586 29.8915 304.136 30.3923L304.508 30.7264C304.053 31.2329 303.615 31.7442 303.197 32.2611L302.808 31.9465C302.374 32.4831 301.959 33.0264 301.568 33.5772L301.975 33.8671C301.581 34.4214 301.21 34.9828 300.866 35.5522L300.438 35.2935C300.08 35.8863 299.749 36.4885 299.448 37.1011L299.897 37.3213C299.599 37.9292 299.332 38.5467 299.1 39.1748L298.631 39.0009C298.39 39.649 298.185 40.3088 298.018 40.9813L298.503 41.1019C298.342 41.7503 298.218 42.4104 298.133 43.0831L297.637 43.0205C297.552 43.6979 297.505 44.3875 297.5 45.0902L298 45.0936C297.996 45.7521 298.029 46.4226 298.102 47.1061L297.605 47.1593C297.642 47.5026 297.688 47.8488 297.745 48.1982C297.802 48.5526 297.868 48.9011 297.942 49.2438L298.431 49.1384C298.578 49.8225 298.759 50.482 298.97 51.1185L298.496 51.2763C298.721 51.9543 298.981 52.6072 299.274 53.2363L299.727 53.0255C300.019 53.6525 300.343 54.255 300.699 54.8349L300.272 55.0962C300.641 55.6981 301.042 56.2757 301.473 56.8309L301.868 56.5244C302.287 57.0638 302.734 57.5819 303.209 58.0806L302.847 58.4253C303.327 58.9294 303.833 59.4133 304.362 59.8787L304.692 59.5031C305.202 59.9511 305.736 60.3824 306.29 60.7984L305.99 61.1984C306.542 61.6124 307.114 62.0112 307.703 62.3961L307.977 61.9774C308.543 62.3473 309.128 62.7048 309.728 63.0513L309.478 63.4843C310.071 63.827 310.679 64.1588 311.301 64.4808L311.531 64.0368C312.133 64.3489 312.747 64.652 313.374 64.9475L313.16 65.3997C313.779 65.6918 314.409 65.9761 315.047 66.254L315.247 65.7955C315.87 66.0668 316.502 66.332 317.142 66.5922L316.954 67.0554C317.588 67.3131 318.229 67.5657 318.876 67.8144L319.055 67.3477C319.691 67.5923 320.333 67.8331 320.98 68.0713L320.807 68.5405C321.45 68.7769 322.096 69.0106 322.746 69.2424L322.914 68.7714C323.557 69.001 324.204 69.2289 324.853 69.4561L324.688 69.928C325.334 70.1542 325.983 70.3795 326.632 70.6049L326.796 70.1326C326.874 70.1598 326.952 70.1869 327.03 70.2141C327.599 70.4117 328.169 70.6096 328.738 70.8083L328.573 71.2804C329.22 71.5061 329.867 71.7328 330.511 71.9615L330.678 71.4902C331.325 71.7196 331.971 71.951 332.614 72.1853L332.443 72.6551C333.087 72.8898 333.728 73.1273 334.365 73.3685L334.542 72.9009C335.185 73.1445 335.825 73.3921 336.459 73.6445L336.274 74.1091C336.911 74.3625 337.543 74.6206 338.168 74.8845L338.362 74.4239C338.997 74.6921 339.626 74.9663 340.247 75.2476L340.04 75.703C340.664 75.9857 341.28 76.2755 341.886 76.5732L342.107 76.1244C342.726 76.4287 343.337 76.7416 343.936 77.064L343.699 77.5043C344.301 77.8283 344.892 78.1618 345.47 78.506L345.726 78.0764C346.319 78.4299 346.899 78.7947 347.465 79.172L347.188 79.588C347.469 79.7757 347.747 79.9665 348.021 80.1604C348.288 80.35 348.554 80.544 348.818 80.7423L349.118 80.3424C349.65 80.7414 350.175 81.157 350.693 81.5876L350.374 81.9722C350.879 82.3921 351.379 82.8267 351.874 83.2746L352.209 82.9039C352.702 83.3501 353.19 83.8089 353.673 84.2788L353.324 84.6371C353.797 85.0973 354.265 85.5685 354.73 86.0493L355.089 85.7018C355.552 86.1806 356.011 86.6685 356.466 87.164L356.097 87.5022C356.545 87.9902 356.99 88.4859 357.433 88.9879L357.808 88.6575C358.249 89.158 358.686 89.6646 359.122 90.1757L358.741 90.4999C359.173 91.0064 359.602 91.5176 360.029 92.0322L360.414 91.7128C360.841 92.2269 361.266 92.7442 361.69 93.2634L361.303 93.5795C361.725 94.097 362.146 94.6166 362.566 95.1369L362.955 94.8227C363.323 95.2777 363.69 95.7332 364.056 96.1881C364.109 96.2541 364.163 96.32 364.216 96.386L363.826 96.6997C364.247 97.2219 364.668 97.7437 365.088 98.2633L365.477 97.9487C365.899 98.4706 366.322 98.9902 366.745 99.5062L366.358 99.8232C366.785 100.344 367.212 100.862 367.641 101.374L368.025 101.053C368.456 101.57 368.889 102.081 369.323 102.585L368.944 102.911C369.386 103.424 369.829 103.93 370.274 104.428L370.647 104.095C371.097 104.598 371.548 105.092 372.003 105.576L371.638 105.918C372.103 106.413 372.571 106.899 373.043 107.372L373.398 107.02C373.874 107.498 374.355 107.964 374.839 108.416L374.498 108.781C374.997 109.247 375.501 109.698 376.011 110.133L376.336 109.752C376.85 110.191 377.37 110.613 377.896 111.016L377.592 111.413C378.137 111.83 378.69 112.228 379.25 112.603L379.528 112.188C380.089 112.564 380.658 112.917 381.235 113.245L380.988 113.68C381.585 114.02 382.192 114.333 382.809 114.618L383.018 114.164C383.628 114.446 384.247 114.699 384.877 114.92L384.711 115.392C385.357 115.619 386.015 115.814 386.685 115.974L386.801 115.488C387.448 115.643 388.105 115.764 388.774 115.85L388.71 116.346C389.383 116.432 390.066 116.483 390.762 116.496L390.772 115.996C391.428 116.009 392.096 115.988 392.775 115.93L392.818 116.429C393.159 116.4 393.502 116.362 393.849 116.315C394.184 116.27 394.515 116.218 394.842 116.159L394.753 115.667C395.403 115.549 396.035 115.404 396.65 115.233L396.784 115.715C397.432 115.535 398.063 115.326 398.676 115.091L398.497 114.624C399.108 114.39 399.702 114.128 400.279 113.841L400.501 114.289C401.099 113.992 401.678 113.668 402.242 113.32L401.979 112.894C402.531 112.553 403.068 112.188 403.59 111.799L403.888 112.2C404.418 111.806 404.933 111.39 405.434 110.952L405.105 110.576C405.59 110.151 406.063 109.707 406.524 109.243L406.879 109.596C407.34 109.132 407.79 108.65 408.229 108.151L407.854 107.821C408.279 107.338 408.694 106.839 409.1 106.325L409.493 106.635C409.897 106.124 410.292 105.599 410.678 105.061L410.272 104.769C410.648 104.247 411.017 103.712 411.378 103.166L411.795 103.442C412.154 102.9 412.507 102.348 412.853 101.787L412.428 101.524C412.766 100.976 413.099 100.418 413.428 99.8523L413.86 100.103C414.186 99.5421 414.507 98.9733 414.825 98.398L414.387 98.1564C414.699 97.5911 415.007 97.0192 415.313 96.4419L415.755 96.6758C416.058 96.1023 416.359 95.5237 416.657 94.9411L416.212 94.7132C416.507 94.1374 416.8 93.5574 417.091 92.9742L417.539 93.1976C417.829 92.6172 418.117 92.0339 418.405 91.4487L417.956 91.2281C418.242 90.6466 418.527 90.0629 418.813 89.4781L419.262 89.6974C419.362 89.4922 419.462 89.2874 419.562 89.0825C419.746 88.7041 419.931 88.3257 420.116 87.9463L419.667 87.727C419.951 87.1437 420.237 86.5602 420.523 85.9776L420.972 86.1983C421.259 85.616 421.546 85.0348 421.836 84.4556L421.389 84.232C421.68 83.6503 421.972 83.0704 422.268 82.4933L422.713 82.7213C423.009 82.1435 423.307 81.5689 423.609 80.9983L423.167 80.7646C423.472 80.1886 423.78 79.6166 424.092 79.0493L424.53 79.2903C424.842 78.7218 425.159 78.1584 425.48 77.6013L425.047 77.3514C425.373 76.7863 425.704 76.2273 426.041 75.6754L426.468 75.9357C426.805 75.3822 427.148 74.8363 427.498 74.299L427.079 74.0265C427.434 73.479 427.797 72.9401 428.167 72.4108L428.577 72.6973C428.948 72.1669 429.326 71.6468 429.712 71.1379L429.313 70.8357C429.708 70.3154 430.111 69.8064 430.524 69.3098L430.908 69.6294C431.113 69.3828 431.321 69.1393 431.53 68.8993C431.74 68.6598 431.951 68.4226 432.165 68.1876L431.794 67.8513C432.227 67.3757 432.667 66.9092 433.115 66.4508L433.473 66.8003C433.918 66.345 434.371 65.8975 434.83 65.4567L434.484 65.096C434.947 64.6513 435.416 64.2138 435.891 63.7823L436.227 64.1523C436.699 63.7233 437.177 63.3 437.659 62.8815L437.331 62.504C437.816 62.0831 438.305 61.6671 438.796 61.2551L439.117 61.6384C439.608 61.2278 440.101 60.8209 440.597 60.4166L440.281 60.0291C440.779 59.6233 441.279 59.2204 441.779 58.8193L442.092 59.2095C442.592 58.8085 443.094 58.4091 443.596 58.0101L443.285 57.6187C443.433 57.5004 443.582 57.3822 443.731 57.264C444.085 56.9827 444.439 56.7015 444.792 56.4202L445.103 56.8113C445.606 56.4105 446.108 56.009 446.608 55.606L446.295 55.2167C446.795 54.8132 447.293 54.4082 447.788 54.0007L448.106 54.3866C448.603 53.9763 449.098 53.5632 449.588 53.1462L449.264 52.7654C449.754 52.3486 450.239 51.9281 450.718 51.5028L451.05 51.8767C451.534 51.4474 452.012 51.0128 452.483 50.5719L452.142 50.2068C452.611 49.7676 453.074 49.3223 453.528 48.8698L453.881 49.224C454.34 48.7664 454.791 48.3013 455.232 47.8274L454.867 47.4865C455.304 47.0169 455.732 46.5388 456.15 46.0512L456.53 46.3763C456.951 45.8835 457.363 45.3806 457.762 44.8666L457.367 44.5598C457.76 44.0543 458.141 43.5383 458.509 43.0104L458.919 43.2964C459.29 42.7647 459.648 42.2209 459.992 41.664L459.567 41.4013C459.902 40.8587 460.223 40.3037 460.53 39.7352L460.97 39.9725C461.124 39.6864 461.275 39.3969 461.422 39.1038C461.572 38.8041 461.721 38.5037 461.867 38.2026L461.418 37.9835C461.71 37.3841 461.996 36.7819 462.274 36.1771L462.728 36.3863C463.009 35.7772 463.283 35.1654 463.549 34.551L463.091 34.352C463.356 33.7402 463.614 33.1259 463.866 32.5092L464.329 32.6978C464.582 32.0768 464.828 31.4533 465.066 30.8276L464.599 30.6495C464.837 30.0263 465.067 29.4008 465.29 28.7732L465.761 28.9405C465.985 28.3084 466.202 27.6742 466.412 27.0378L465.937 26.8816C466.145 26.2482 466.346 25.6128 466.539 24.9754L467.018 25.1205C467.212 24.4785 467.399 23.8346 467.578 23.1889L467.096 23.0553C467.275 22.4128 467.445 21.7685 467.607 21.1225L468.092 21.2444C468.256 20.5939 468.411 19.9417 468.559 19.288L468.071 19.1779C468.218 18.5276 468.357 17.8757 468.487 17.2224L468.977 17.3203C469.109 16.6626 469.232 16.0034 469.347 15.3428L468.854 15.2572C468.968 14.6005 469.074 13.9426 469.172 13.2834L469.666 13.3565C469.764 12.6931 469.854 12.0284 469.935 11.3626L469.439 11.3021C469.519 10.6407 469.592 9.97813 469.655 9.31466L470.153 9.36226C470.217 8.69469 470.272 8.02614 470.318 7.35675L469.819 7.32217C469.865 6.65762 469.903 5.99226 469.931 5.32621L470.431 5.34761C470.46 4.67773 470.479 4.00714 470.49 3.33598L469.99 3.3279C470.001 2.66196 470.003 1.99548 469.996 1.32856L470.496 1.3232C470.489 0.652977 470.472 -0.0177078 470.447 -0.688721L469.947 -0.66983C469.922 -1.33508 469.888 -2.00065 469.845 -2.66639L470.344 -2.69888C470.3 -3.36771 470.247 -4.03673 470.185 -4.70582L469.687 -4.65965C469.626 -5.32216 469.555 -5.98472 469.475 -6.64722L469.972 -6.70708C469.932 -7.04005 469.889 -7.373 469.844 -7.70592C469.8 -8.03459 469.755 -8.36349 469.709 -8.69259L469.214 -8.62342C469.122 -9.27878 469.027 -9.93482 468.929 -10.5912L469.423 -10.6656C469.324 -11.322 469.222 -11.9789 469.115 -12.6358L468.622 -12.5558C468.516 -13.2095 468.406 -13.8632 468.292 -14.5166L468.784 -14.6026C468.67 -15.2572 468.551 -15.9115 468.428 -16.5653L467.937 -16.4728C467.814 -17.124 467.687 -17.7745 467.555 -18.4241L468.046 -18.5235C467.913 -19.1754 467.776 -19.8265 467.634 -20.4764L467.146 -20.3697C467.004 -21.0174 466.858 -21.6638 466.706 -22.3087L467.193 -22.4232C467.04 -23.0714 466.882 -23.7181 466.719 -24.363L466.234 -24.2402C466.071 -24.8831 465.903 -25.5242 465.729 -26.163L466.211 -26.2946C466.036 -26.9375 465.855 -27.5784 465.667 -28.2168L465.188 -28.076C465.001 -28.7126 464.808 -29.3466 464.609 -29.9778L465.085 -30.1284C464.885 -30.7645 464.677 -31.3979 464.463 -32.0282L463.99 -31.8674C463.776 -32.4959 463.556 -33.1211 463.329 -33.7428L463.799 -33.9144C463.57 -34.5415 463.333 -35.1651 463.09 -35.785L462.625 -35.6021C462.382 -36.2198 462.132 -36.8337 461.874 -37.4432L462.335 -37.6379C462.075 -38.2532 461.807 -38.8643 461.531 -39.4709L461.076 -39.264C460.801 -39.868 460.519 -40.4674 460.228 -41.0619L460.677 -41.2816C460.383 -41.882 460.081 -42.4773 459.77 -43.0674L459.328 -42.8344C459.018 -43.4215 458.701 -44.0031 458.374 -44.5791L458.809 -44.8257C458.479 -45.4073 458.14 -45.9832 457.792 -46.553L457.365 -46.2923C457.019 -46.858 456.664 -47.4177 456.3 -47.9708L456.717 -48.2459C456.35 -48.8042 455.972 -49.356 455.585 -49.9011L455.177 -49.6114C454.793 -50.1514 454.4 -50.6846 453.996 -51.2106L454.393 -51.515C453.986 -52.0453 453.569 -52.5684 453.141 -53.084L452.756 -52.7649C452.334 -53.2742 451.901 -53.7761 451.458 -54.2702L451.83 -54.6041C451.384 -55.1011 450.928 -55.5904 450.46 -56.0716L450.102 -55.7233C449.641 -56.1973 449.17 -56.6633 448.688 -57.1209L449.033 -57.4835C448.79 -57.7139 448.545 -57.9423 448.296 -58.1685C448.054 -58.3897 447.809 -58.6084 447.564 -58.8245L447.233 -58.4489C446.745 -58.8785 446.25 -59.2978 445.749 -59.7071L446.065 -60.0943C445.557 -60.5095 445.043 -60.9146 444.523 -61.3098L444.221 -60.9117C443.703 -61.305 443.18 -61.6883 442.651 -62.0621L442.94 -62.4704C442.405 -62.8486 441.864 -63.217 441.318 -63.5759L441.043 -63.1581C440.501 -63.5147 439.953 -63.8618 439.4 -64.1998L439.66 -64.6265C439.102 -64.9677 438.538 -65.2996 437.97 -65.6225L437.723 -65.1877C437.159 -65.5081 436.59 -65.8197 436.016 -66.1225L436.249 -66.5647C435.671 -66.8698 435.089 -67.1662 434.502 -67.4541L434.282 -67.0052C433.7 -67.2908 433.113 -67.5679 432.522 -67.837L432.73 -68.292C432.135 -68.5627 431.537 -68.8252 430.935 -69.0798L430.74 -68.6193C430.143 -68.8718 429.543 -69.1165 428.938 -69.3538L429.121 -69.8192C428.514 -70.0575 427.903 -70.2883 427.289 -70.5118L427.118 -70.042C426.509 -70.2636 425.897 -70.4781 425.281 -70.6857L425.441 -71.1595C424.823 -71.3678 424.203 -71.5693 423.579 -71.7641L423.43 -71.2869C422.812 -71.4801 422.19 -71.6668 421.566 -71.8473L421.705 -72.3276C421.079 -72.5085 420.451 -72.6832 419.82 -72.8518L419.691 -72.3688C419.065 -72.5362 418.437 -72.6976 417.806 -72.8534L417.926 -73.3388C417.294 -73.4949 416.66 -73.6454 416.024 -73.7903L415.913 -73.3028C415.281 -73.4469 414.647 -73.5856 414.011 -73.7191L414.114 -74.2084C413.477 -74.3423 412.838 -74.471 412.198 -74.5948L412.103 -74.1039C411.467 -74.2271 410.829 -74.3454 410.19 -74.4592L410.277 -74.9514C409.637 -75.0655 408.995 -75.1749 408.352 -75.28L408.271 -74.7865C407.631 -74.8912 406.99 -74.9915 406.349 -75.0878L406.423 -75.5823C405.779 -75.6789 405.135 -75.7714 404.49 -75.86L404.422 -75.3647C403.779 -75.4531 403.136 -75.5377 402.493 -75.6188L402.555 -76.1149C401.909 -76.1963 401.263 -76.274 400.618 -76.3485L400.56 -75.8518C399.915 -75.9262 399.271 -75.9972 398.626 -76.0653L398.678 -76.5625C398.031 -76.6308 397.384 -76.696 396.737 -76.7584L396.689 -76.2607C396.043 -76.3232 395.397 -76.3828 394.751 -76.4398L394.795 -76.9379C394.471 -76.9665 394.148 -76.9945 393.824 -77.0218Z" stroke="#70FED6" stroke-dasharray="2 2"/>
</g>
</svg>
