<svg width="388" height="235" viewBox="0 0 388 235" fill="none" xmlns="http://www.w3.org/2000/svg">
<g filter="url(#filter0_di_4393_19855)">
<rect x="0" y="0" width="388" height="235" rx="10" fill="white"/>
<path d="M106.553 168.675C101.183 167.088 95.7301 170.634 91.4837 174.291C87.2372 177.949 82.6727 182.159 77.0767 182.179C71.4176 182.199 66.7929 177.935 62.4949 174.243C58.194 170.55 52.6381 166.985 47.2369 168.684C45.2283 169.317 43.489 170.631 41.5005 171.321C37.3944 172.744 32.7296 171.266 29.2912 168.601C28.4402 167.942 27.6522 167.22 26.9072 166.45C28.4488 173.435 30.3428 180.169 34.0506 186.596C37.0907 191.864 40.9159 196.652 45.4145 200.652C57.3057 211.231 73.8474 216.123 89.2516 213.135C104.656 210.147 118.524 199.18 124.931 184.356C125.189 183.761 125.432 183.163 125.667 182.559C121.985 180.882 118.581 178.605 115.667 175.787C112.862 173.078 110.286 169.78 106.553 168.675Z" fill="#ABFEE6"/>
<path d="M140.679 135.235C141.9 127.701 139.69 118.775 133.109 115.333C126.945 112.11 119.031 114.64 112.951 111.253C106.796 107.825 104.839 99.8078 100.699 93.9761C95.415 86.5341 85.839 82.6607 77.0853 84.4206C68.3345 86.1833 60.8531 93.493 58.6439 102.442C57.6381 106.517 57.6553 110.781 57.0995 114.948C56.5407 119.115 55.2742 123.416 52.2885 126.263C47.1739 131.14 39.042 130.151 32.8127 133.352C23.9359 137.912 23.1651 148.546 25.0247 157.429C25.6637 160.477 26.2539 163.485 26.9072 166.45C27.6522 167.217 28.4402 167.942 29.2912 168.601C32.7296 171.266 37.3916 172.744 41.5005 171.321C43.4919 170.631 45.2283 169.317 47.2369 168.684C52.6381 166.984 58.194 170.55 62.4949 174.242C66.7958 177.935 71.4176 182.202 77.0767 182.179C82.6727 182.159 87.2372 177.949 91.4837 174.291C95.7301 170.634 101.183 167.088 106.553 168.675C110.286 169.779 112.862 173.078 115.664 175.789C118.578 178.608 121.983 180.885 125.664 182.561C128.905 174.237 130.154 165.173 133.137 156.721C135.667 149.547 139.458 142.766 140.679 135.235Z" fill="#DCFBF3"/>
<path d="M51.8361 108.242C51.5323 111.667 49.8561 114.951 47.263 117.196C44.2973 119.767 40.3861 120.892 36.6096 121.944C34.5609 122.516 32.5121 123.089 30.4634 123.661C29.3173 123.98 28.1453 124.305 26.9591 124.216C24.896 124.063 23.088 122.66 21.9189 120.943C19.4662 117.343 19.4977 112.426 21.2599 108.44C23.0221 104.455 26.2972 101.312 29.9132 98.8991C32.7213 97.0271 35.8503 95.5059 39.2027 95.1378C42.4463 94.7813 46.4693 95.6439 48.73 98.1975C51.0309 100.797 52.1369 104.834 51.8361 108.242Z" fill="#DCFBF3"/>
<path d="M54.0579 149.419C54.7813 151.522 53.6633 153.81 51.526 154.544C49.4211 155.267 47.1326 154.149 46.4092 152.047C45.6743 149.91 46.7924 147.622 48.897 146.899C51.0343 146.165 53.3232 147.282 54.0579 149.419V149.419ZM37.9773 135.673C36.1453 135.455 34.9397 133.614 35.5249 131.866C36.2176 129.796 37.8868 127.317 41.8109 125.969C46.8209 124.247 52.4218 125.982 54.0402 130.688C55.1654 133.959 53.4154 136.8 50.6798 139.269C49.7165 140.162 50.0047 141.107 50.3835 142.209C50.7384 143.241 50.1886 144.366 49.1557 144.721L47.3857 145.329C46.3525 145.683 45.2272 145.134 44.872 144.102L44.2639 142.332C43.7585 140.864 43.4124 139.639 44.5822 138.155C46.1721 136.153 48.0418 135.399 47.2266 133.029C46.6752 131.426 45.0825 130.704 43.5797 131.221C42.2173 131.689 41.4725 132.663 41.106 133.704C40.6449 135.012 39.3551 135.838 37.9773 135.673" fill="#BE3FB3"/>
<mask id="path-7-inside-1_4393_19855" fill="white">
<path d="M52.7981 149.419C53.5215 151.522 52.4035 153.81 50.2662 154.544C48.1614 155.267 45.8729 154.149 45.1495 152.047C44.4145 149.91 45.5326 147.622 47.6372 146.899C49.7746 146.165 52.0635 147.282 52.7981 149.419V149.419ZM36.7175 135.673C34.8855 135.455 33.68 133.614 34.2652 131.866C34.9579 129.796 36.6271 127.317 40.5511 125.969C45.5611 124.247 51.162 125.982 52.7804 130.688C53.9056 133.959 52.1557 136.8 49.4201 139.269C48.4567 140.162 48.745 141.107 49.1237 142.209C49.4786 143.241 48.9289 144.366 47.896 144.721L46.126 145.329C45.0928 145.683 43.9675 145.134 43.6122 144.102L43.0041 142.332C42.4988 140.864 42.1526 139.639 43.3224 138.155C44.9123 136.153 46.782 135.399 45.9668 133.029C45.4155 131.426 43.8227 130.704 42.3199 131.221C40.9575 131.689 40.2128 132.663 39.8463 133.704C39.3851 135.012 38.0953 135.838 36.7175 135.673"/>
</mask>
<path d="M50.2662 154.544L50.5911 155.49L50.591 155.49L50.2662 154.544ZM45.1495 152.047L44.2039 152.372L44.2038 152.372L45.1495 152.047ZM47.6372 146.899L47.3124 145.953L47.3124 145.953L47.6372 146.899ZM52.7981 149.419L51.8525 149.745L51.8524 149.744L52.7981 149.419ZM34.2652 131.866L35.2135 132.183L35.2135 132.183L34.2652 131.866ZM40.5511 125.969L40.8761 126.915L40.8761 126.915L40.5511 125.969ZM52.7804 130.688L51.8348 131.014L51.8348 131.013L52.7804 130.688ZM49.4201 139.269L48.7406 138.536L48.75 138.527L49.4201 139.269ZM49.1237 142.209L50.0694 141.883L50.0694 141.884L49.1237 142.209ZM47.896 144.721L48.2211 145.666L48.221 145.666L47.896 144.721ZM46.126 145.329L46.451 146.275L46.4503 146.275L46.126 145.329ZM43.6122 144.102L42.6666 144.427L42.6665 144.427L43.6122 144.102ZM43.0041 142.332L43.9497 142.007L43.9499 142.007L43.0041 142.332ZM43.3224 138.155L42.537 137.536L42.5394 137.533L43.3224 138.155ZM45.9668 133.029L46.9124 132.703L46.9125 132.703L45.9668 133.029ZM42.3199 131.221L42.6452 132.167L42.6449 132.167L42.3199 131.221ZM39.8463 133.704L40.7895 134.036L40.7893 134.037L39.8463 133.704ZM53.7437 149.094C54.6488 151.725 53.2451 154.578 50.5911 155.49L49.9413 153.599C51.5619 153.042 52.3942 151.319 51.8525 149.745L53.7437 149.094ZM50.591 155.49C47.9642 156.392 45.1069 154.997 44.2039 152.372L46.095 151.721C46.6388 153.302 48.3585 154.142 49.9413 153.598L50.591 155.49ZM44.2038 152.372C43.2909 149.718 44.6804 146.858 47.3124 145.953L47.9621 147.845C46.3849 148.387 45.5381 150.102 46.0951 151.721L44.2038 152.372ZM47.3124 145.953C49.9716 145.04 52.8295 146.435 53.7438 149.094L51.8524 149.744C51.2974 148.13 49.5775 147.29 47.9621 147.845L47.3124 145.953ZM36.5993 136.666C34.1589 136.376 32.5237 133.918 33.3169 131.548L35.2135 132.183C34.8362 133.31 35.6121 134.534 36.8357 134.68L36.5993 136.666ZM33.3169 131.548C34.0978 129.215 35.978 126.483 40.2262 125.023L40.8761 126.915C37.2762 128.151 35.8179 130.377 35.2135 132.183L33.3169 131.548ZM40.2261 125.023C45.5577 123.191 51.8661 124.954 53.7261 130.363L51.8348 131.013C50.4579 127.009 45.5645 125.303 40.8761 126.915L40.2261 125.023ZM53.7261 130.363C55.0575 134.234 52.8994 137.476 50.0902 140.012L48.75 138.527C51.412 136.124 52.7538 133.685 51.8348 131.014L53.7261 130.363ZM50.0995 140.003C49.8171 140.265 49.769 140.461 49.7686 140.663C49.768 140.952 49.8704 141.305 50.0694 141.883L48.1781 142.534C47.9983 142.011 47.7672 141.34 47.7686 140.659C47.7702 139.889 48.0597 139.166 48.7406 138.536L50.0995 140.003ZM50.0694 141.884C50.6041 143.439 49.7756 145.132 48.2211 145.666L47.5709 143.775C48.0821 143.599 48.3532 143.043 48.1781 142.534L50.0694 141.884ZM48.221 145.666L46.451 146.275L45.8009 144.383L47.5709 143.775L48.221 145.666ZM46.4503 146.275C44.8959 146.808 43.2017 145.982 42.6666 144.427L44.5578 143.776C44.7332 144.286 45.2896 144.559 45.8016 144.383L46.4503 146.275ZM42.6665 144.427L42.0584 142.657L43.9499 142.007L44.5579 143.777L42.6665 144.427ZM42.0585 142.658C41.8104 141.936 41.5396 141.116 41.5351 140.254C41.5304 139.335 41.8235 138.441 42.537 137.536L44.1079 138.773C43.6515 139.353 43.5329 139.813 43.5351 140.244C43.5376 140.733 43.6925 141.259 43.9497 142.007L42.0585 142.658ZM42.5394 137.533C42.9748 136.984 43.4252 136.527 43.8111 136.138C44.2127 135.733 44.5183 135.427 44.7533 135.121C44.9776 134.829 45.0937 134.59 45.1399 134.355C45.1849 134.126 45.1798 133.815 45.0212 133.354L46.9125 132.703C47.1615 133.427 47.2283 134.1 47.1024 134.741C46.9775 135.377 46.6797 135.896 46.3397 136.339C46.0105 136.768 45.6015 137.173 45.2309 137.547C44.8446 137.936 44.465 138.324 44.1054 138.777L42.5394 137.533ZM45.0213 133.354C44.6522 132.282 43.6334 131.827 42.6452 132.167L41.9946 130.276C44.0121 129.582 46.1788 130.571 46.9124 132.703L45.0213 133.354ZM42.6449 132.167C41.6246 132.518 41.0748 133.226 40.7895 134.036L38.903 133.372C39.3508 132.1 40.2905 130.861 41.995 130.276L42.6449 132.167ZM40.7893 134.037C40.1769 135.773 38.4545 136.888 36.5985 136.666L36.8365 134.68C37.7362 134.788 38.5934 134.25 38.9032 133.372L40.7893 134.037Z" fill="#4E1749" mask="url(#path-7-inside-1_4393_19855)"/>
<path d="M66.2128 157.538C66.2128 157.538 58.7151 171.679 56.5989 177.117C54.4827 182.556 60.3818 189.471 60.3818 189.471L64.7612 185.335C64.7612 185.335 67.18 162.252 66.2128 157.538Z" fill="#6F3530"/>
<path d="M66.3936 157.778C66.3936 157.778 79.1029 150.639 89.6749 148.825C100.247 147.01 103.691 153.301 103.691 153.301L96.3033 195.045L97.4273 209.969L79.1625 211.985L60.8369 209.969L63.305 187.907C63.305 187.907 62.7111 167.216 66.3936 157.778Z" fill="#6C6FC3"/>
<path d="M83.227 108.352C82.3839 102.835 75.7444 103.568 72.6166 105.456C70.4457 103.271 68.9646 102.227 64.8033 102.597C61.742 102.869 57.3499 105.095 55.4857 108.504C53.6215 111.912 53.8248 116.327 55.9149 119.602C56.6061 120.686 57.517 121.743 57.5651 123.027C57.6353 124.884 55.9253 126.24 54.9221 127.805C53.2412 130.426 53.672 134.204 55.9002 136.38C57.3118 137.758 59.3468 138.566 60.2526 140.318C61.0114 141.786 60.778 143.553 61.1246 145.169C61.7611 148.138 64.4377 150.416 67.4005 151.09C70.3622 151.764 73.516 151.015 76.1828 149.56" fill="#1D2A30"/>
<path d="M64.2498 120.187C63.6178 124.631 64.2458 134.207 64.8818 138.157C65.5186 142.108 70.0145 145.446 74.5178 146.85C79.021 148.256 86.854 142.817 88.2447 139.694C89.6354 136.572 90.6282 121.148 90.6282 121.148C90.6282 121.148 64.8818 115.744 64.2498 120.187Z" fill="#BA6258"/>
<path d="M59.3867 113.439C60.9497 117.053 64.5211 122.46 68.433 122.935C72.3439 123.409 76.4494 121.672 78.832 118.536C79.4243 121.451 82.6609 122.999 85.5979 123.48C87.6743 123.821 89.8649 123.841 91.8182 123.06C93.7721 122.278 95.4457 120.577 95.7607 118.497C96.0758 116.418 93.1154 111.31 91.0474 110.923" fill="#1D2A30"/>
<path d="M81.9304 119.911C81.2525 121.422 81.198 123.202 81.783 124.752C82.3675 126.301 83.5843 127.602 85.0917 128.289C83.6461 130.083 83.3896 132.62 83.9393 134.857C84.4891 137.094 85.751 139.086 87.1048 140.95C87.1048 140.95 83.5832 146.039 90.671 149.755C90.671 149.755 95.646 148.215 93.4242 140.72C93.2664 140.19 93.255 139.579 93.513 139.089C93.7601 138.62 94.2808 138.378 94.7448 138.121C96.5923 137.094 98.0105 135.321 98.6043 133.294C99.1981 131.266 98.9609 129.008 97.958 127.149C97.6907 126.652 97.3652 126.168 97.2697 125.611C97.1264 124.77 96.4843 122.573 96.7755 121.771C98.2959 117.574 96.3384 112.36 91.4128 109.77C87.4604 107.692 82.5149 107.349 79.4912 110.633" fill="#1D2A30"/>
<path d="M66.7201 130.992C66.6956 131.372 66.9983 131.706 67.3957 131.738C67.792 131.771 68.1339 131.49 68.1585 131.11C68.1826 130.73 67.8804 130.396 67.4835 130.364C67.0861 130.331 66.7442 130.612 66.7201 130.992" fill="#17282F"/>
<path d="M66.3936 128.741C66.4803 128.838 67.0383 128.449 67.8147 128.473C68.5906 128.486 69.1491 128.901 69.2358 128.808C69.2787 128.768 69.192 128.596 68.949 128.408C68.7102 128.222 68.2985 128.036 67.8147 128.024C67.3309 128.013 66.9192 128.179 66.6799 128.354C66.4364 128.53 66.3502 128.698 66.3936 128.741" fill="#17282F"/>
<path d="M67.4381 125.031C67.4972 125.246 68.0616 125.282 68.659 125.52C69.2651 125.737 69.7116 126.084 69.8979 125.962C69.983 125.9 69.9709 125.705 69.8151 125.459C69.6619 125.216 69.3516 124.941 68.9378 124.784C68.5242 124.628 68.109 124.629 67.8333 124.709C67.5538 124.79 67.4158 124.929 67.4381 125.031" fill="#17282F"/>
<path d="M76.8032 132C76.7786 132.38 77.0813 132.714 77.4787 132.746C77.875 132.779 78.217 132.498 78.2415 132.118C78.2656 131.738 77.9634 131.404 77.5665 131.371C77.1692 131.338 76.8272 131.62 76.8032 132" fill="#17282F"/>
<path d="M76.4766 129.749C76.5633 129.845 77.1213 129.457 77.8977 129.481C78.6736 129.494 79.2321 129.908 79.3188 129.816C79.3617 129.776 79.275 129.604 79.032 129.416C78.7932 129.23 78.3815 129.044 77.8977 129.032C77.4139 129.021 77.0022 129.187 76.7629 129.362C76.5194 129.538 76.4332 129.706 76.4766 129.749" fill="#17282F"/>
<path d="M76.8256 127.091C76.9572 127.27 77.4975 127.103 78.1406 127.113C78.7843 127.1 79.3251 127.265 79.4557 127.084C79.5132 126.996 79.4322 126.818 79.1992 126.644C78.9693 126.472 78.5811 126.325 78.1386 126.326C77.6965 126.327 77.3089 126.476 77.08 126.649C76.8475 126.824 76.7681 127.003 76.8256 127.091" fill="#17282F"/>
<path d="M72.3789 136.801C72.3836 136.757 71.9034 136.66 71.1244 136.538C70.9264 136.512 70.7399 136.468 70.7101 136.332C70.6678 136.187 70.7566 135.977 70.8595 135.749C71.0596 135.276 71.2686 134.78 71.4886 134.26C72.3637 132.138 73.0038 130.392 72.9175 130.357C72.8319 130.323 72.0523 132.014 71.1772 134.136C70.9661 134.659 70.7644 135.158 70.5722 135.635C70.4906 135.857 70.3543 136.109 70.4473 136.408C70.4964 136.558 70.639 136.669 70.7649 136.707C70.8914 136.749 71.0027 136.755 71.1004 136.763C71.8862 136.828 72.3747 136.845 72.3789 136.801" fill="#17282F"/>
<path d="M73.0295 139.872C73.3482 139.347 73.9409 138.958 74.5506 138.876C74.9733 138.818 75.411 138.911 75.6878 139.178C75.9651 139.445 76.05 139.898 75.8391 140.267C75.6018 140.682 75.062 140.894 74.5916 140.879C74.1212 140.864 73.7044 140.667 73.3072 140.467C73.1979 140.412 73.0852 140.353 73.0126 140.259C72.94 140.164 72.9163 140.023 72.9908 139.913" fill="#6F3530"/>
<path d="M72.9113 140.942C73.0497 140.982 73.2424 140.227 74.1799 139.882C75.1155 139.535 76.0928 139.859 76.1267 139.755C76.1516 139.711 75.9415 139.555 75.5225 139.446C75.1117 139.335 74.4811 139.298 73.9081 139.509C73.3356 139.721 73.0144 140.109 72.9047 140.412C72.789 140.719 72.8464 140.932 72.9113 140.942" fill="#17282F"/>
<path d="M75.9107 145.488C75.9107 145.488 76.6654 150.351 75.707 154.602L88.2591 150.252L88.5558 138.777L75.9107 145.488Z" fill="#BA6258"/>
<path d="M76.085 147.076C76.085 147.076 81.7029 146.141 85.1098 143.201C85.1098 143.201 81.1544 150.312 76.1539 151.182L76.085 147.076" fill="#6F3530"/>
<path d="M70.8808 155.183C70.8808 155.183 70.0836 157.458 77.4387 157.538C84.7946 157.619 95.1131 150.045 95.1131 150.045L88.8254 149.56L75.7072 152.945L70.8808 155.183Z" fill="#BA6258"/>
<path d="M95.2324 132.498C96.9132 130.048 100.213 128.837 103.081 129.619C105.949 130.4 108.177 133.118 108.38 136.082C108.583 139.046 106.747 142.041 104.012 143.206C106.239 144.345 107.263 147.37 106.185 149.625C105.107 151.881 102.107 152.985 99.8228 151.968C99.2559 153.96 97.0264 155.164 94.9588 155.026C92.8918 154.889 91.0303 153.663 89.6184 152.147C86.6845 148.998 85.3675 144.346 86.4675 140.186C87.5675 136.026 91.1523 132.562 95.398 131.847" fill="#1D2A30"/>
<path d="M98.5167 129.259C98.5234 129.255 98.5525 129.305 98.6024 129.404C98.6475 129.504 98.73 129.648 98.8012 129.849C98.9564 130.245 99.1324 130.849 99.2004 131.631C99.2658 132.41 99.2164 133.373 98.8915 134.397C98.5832 135.421 97.9779 136.503 97.0394 137.396L97.0555 137.224C97.7277 138.131 98.2328 139.281 98.4316 140.532C98.7093 142.24 98.3885 143.938 97.6804 145.257C96.9745 146.583 95.9425 147.519 94.9884 148.106C94.0281 148.697 93.1436 148.971 92.53 149.087C92.2211 149.14 91.9808 149.175 91.8152 149.18C91.6512 149.19 91.565 149.191 91.5645 149.182C91.5614 149.154 91.906 149.129 92.5071 148.985C93.1051 148.838 93.9617 148.543 94.8856 147.945C95.8039 147.352 96.7907 146.427 97.4598 145.14C98.1305 143.863 98.4321 142.225 98.1653 140.574C97.9727 139.366 97.4889 138.256 96.8478 137.378L96.7798 137.285L96.8639 137.206C97.7697 136.356 98.3667 135.319 98.6813 134.33C99.0119 133.341 99.0799 132.405 99.0384 131.642C98.9439 130.102 98.458 129.275 98.5167 129.259Z" fill="#365462"/>
<path d="M102.853 153.55C102.853 153.55 106.602 154.034 107.69 161.526C108.779 169.02 101.513 188.23 98.984 192.345C94.7511 199.234 57.1436 193.553 57.1436 193.553L59.199 185.214L89.4307 181.468C89.4307 181.468 93.3003 164.669 95.598 158.506C97.8949 152.342 102.853 153.55 102.853 153.55" fill="#BA6258"/>
<path d="M59.4679 150.045C59.4679 150.045 62.4754 146.238 63.6787 145.876C64.882 145.513 68.9986 147.636 69.2985 148.267C69.5985 148.898 68.8727 150.045 68.8727 150.045C68.8727 150.045 68.6914 152.221 67.9656 152.583C67.2406 152.945 67.2406 152.945 67.2406 152.945C67.2406 152.945 66.0914 156.209 64.096 156.753C64.096 156.753 63.6728 160.56 61.2542 161.103L56.5986 157.176C56.5986 157.176 57.1982 153.973 59.4679 150.045" fill="#BA6258"/>
<path d="M62.7656 146.813C62.7656 146.813 64.5497 144.577 65.9099 143.882C67.2701 143.187 70.9585 144.063 71.3515 144.607C71.7444 145.15 70.9585 145.514 69.5373 145.392C68.1162 145.271 67.6326 145.219 67.6326 145.219L66.6053 147.078L62.7656 146.813Z" fill="#BA6258"/>
<path d="M56.5986 157.176C56.5986 157.176 47.791 181.227 47.9524 187.511C48.1137 193.795 52.1447 194.762 54.5632 194.601C56.9817 194.44 60.2683 190.889 61.6574 186.544C63.0468 182.198 61.6574 159.955 61.6574 159.955L56.5986 157.176" fill="#BA6258"/>
<path d="M94.4887 189.394C94.4421 189.4 94.3717 188.937 94.1279 188.231C94.0656 188.055 93.9972 187.863 93.9048 187.664C93.8239 187.46 93.7117 187.254 93.601 187.035C93.3625 186.605 93.0678 186.15 92.7089 185.711C92.3437 185.275 91.9527 184.9 91.5746 184.585C91.3798 184.435 91.1988 184.286 91.0138 184.169C90.8355 184.04 90.6592 183.937 90.4979 183.843C89.8502 183.47 89.4074 183.314 89.4226 183.269C89.4295 183.244 89.8985 183.336 90.5883 183.675C90.7598 183.761 90.9465 183.858 91.1356 183.982C91.3315 184.095 91.5237 184.241 91.7292 184.391C92.1282 184.705 92.5391 185.089 92.9165 185.539C93.2882 185.994 93.5872 186.47 93.8211 186.92C93.9296 187.15 94.0373 187.366 94.1117 187.58C94.1978 187.788 94.258 187.99 94.3099 188.174C94.5131 188.915 94.5159 189.392 94.4887 189.394" fill="#6F3530"/>
<path d="M59.1582 161.103C59.1582 161.103 60.5288 161.939 61.7161 160.95Z" fill="#6F3530"/>
<path d="M64.0957 156.753C64.0957 156.753 63.3906 156.451 63.6326 155.524L64.2496 154.114" fill="#6F3530"/>
<path d="M64.8018 151.576C64.8018 151.576 66.8974 152.06 67.2406 152.945Z" fill="#6F3530"/>
<path d="M65.8496 149.079C65.8496 149.079 67.7447 148.958 68.8731 150.045Z" fill="#6F3530"/>
<path d="M69.4082 159.581C69.4082 159.581 69.5004 161.267 75.0262 161.612C80.5519 161.958 85.8868 159.944 85.8868 159.944" fill="#56438C"/>
<path d="M114.611 132.465C113.947 135.294 111.119 137.047 108.244 136.373C105.413 135.709 103.66 132.882 104.323 130.054C104.997 127.179 107.826 125.426 110.656 126.09C113.531 126.764 115.285 129.591 114.611 132.465V132.465ZM106.392 106.084C104.519 104.568 104.466 101.695 106.33 100.167C108.537 98.3601 112.108 96.7779 117.387 98.0147C124.126 99.5945 129.113 105.406 127.627 111.736C126.595 116.137 122.683 118.062 117.938 118.891C116.253 119.207 115.913 120.454 115.565 121.936C115.239 123.324 113.848 124.186 112.459 123.86L110.078 123.302C108.689 122.977 107.827 121.587 108.152 120.198L108.711 117.818C109.174 115.842 109.643 114.247 111.971 113.419C115.122 112.311 117.715 112.777 118.462 109.589C118.968 107.433 117.709 105.527 115.687 105.054C113.855 104.624 112.353 105.184 111.223 106.081C109.803 107.207 107.802 107.223 106.392 106.084" fill="#BE3FB3"/>
<mask id="path-40-inside-2_4393_19855" fill="white">
<path d="M113.111 131.991C112.447 134.82 109.619 136.573 106.744 135.898C103.913 135.235 102.16 132.408 102.823 129.579C103.497 126.705 106.326 124.952 109.156 125.616C112.031 126.29 113.785 129.117 113.111 131.991V131.991ZM104.892 105.609C103.019 104.094 102.966 101.22 104.83 99.6924C107.037 97.8858 110.608 96.3036 115.887 97.5403C122.626 99.1202 127.613 104.931 126.127 111.262C125.095 115.662 121.183 117.587 116.438 118.417C114.753 118.733 114.413 119.979 114.065 121.461C113.739 122.85 112.348 123.712 110.959 123.386L108.578 122.828C107.189 122.502 106.327 121.113 106.652 119.724L107.211 117.344C107.674 115.368 108.143 113.773 110.471 112.945C113.622 111.836 116.215 112.302 116.962 109.114C117.468 106.958 116.209 105.053 114.187 104.579C112.355 104.15 110.853 104.71 109.723 105.606C108.303 106.732 106.302 106.749 104.892 105.609"/>
</mask>
<path d="M106.744 135.898L106.972 134.925L106.972 134.925L106.744 135.898ZM102.823 129.579L101.849 129.351L101.849 129.351L102.823 129.579ZM109.156 125.616L108.928 126.589L108.928 126.589L109.156 125.616ZM104.83 99.6924L104.196 98.9189L104.197 98.9187L104.83 99.6924ZM115.887 97.5403L116.115 96.5667L116.115 96.5667L115.887 97.5403ZM126.127 111.262L125.154 111.033L125.154 111.033L126.127 111.262ZM116.438 118.417L116.254 117.434L116.266 117.432L116.438 118.417ZM114.065 121.461L115.039 121.69L115.039 121.69L114.065 121.461ZM110.959 123.386L111.187 122.412L111.188 122.412L110.959 123.386ZM108.578 122.828L108.806 121.854L108.806 121.854L108.578 122.828ZM106.652 119.724L105.679 119.495L105.679 119.495L106.652 119.724ZM107.211 117.344L106.237 117.115L106.237 117.115L107.211 117.344ZM110.471 112.945L110.135 112.003L110.139 112.002L110.471 112.945ZM116.962 109.114L115.988 108.886L115.988 108.886L116.962 109.114ZM114.187 104.579L113.959 105.553L113.959 105.553L114.187 104.579ZM109.723 105.606L110.345 106.39L110.344 106.39L109.723 105.606ZM114.084 132.22C113.293 135.591 109.922 137.671 106.516 136.872L106.972 134.925C109.315 135.474 111.601 134.048 112.137 131.762L114.084 132.22ZM106.516 136.872C103.147 136.082 101.06 132.718 101.849 129.351L103.796 129.807C103.259 132.098 104.678 134.387 106.972 134.925L106.516 136.872ZM101.849 129.351C102.649 125.944 106.011 123.851 109.384 124.642L108.928 126.589C106.641 126.053 104.346 127.466 103.796 129.808L101.849 129.351ZM109.384 124.642C112.797 125.442 114.885 128.807 114.084 132.219L112.137 131.763C112.685 129.426 111.266 127.137 108.928 126.589L109.384 124.642ZM104.263 106.387C101.913 104.486 101.825 100.862 104.196 98.9189L105.464 100.466C104.106 101.579 104.124 103.702 105.521 104.832L104.263 106.387ZM104.197 98.9187C106.618 96.9363 110.502 95.2517 116.115 96.5667L115.658 98.514C110.713 97.3554 107.455 98.8353 105.464 100.466L104.197 98.9187ZM116.115 96.5667C123.185 98.2241 128.757 104.436 127.101 111.49L125.154 111.033C126.47 105.426 122.067 100.016 115.658 98.5139L116.115 96.5667ZM127.101 111.49C125.924 116.508 121.453 118.555 116.611 119.402L116.266 117.432C120.913 116.619 124.266 114.817 125.154 111.033L127.101 111.49ZM116.622 119.4C116.047 119.508 115.783 119.74 115.595 120.036C115.361 120.407 115.22 120.92 115.039 121.69L113.092 121.233C113.259 120.521 113.461 119.67 113.905 118.967C114.396 118.191 115.144 117.642 116.254 117.434L116.622 119.4ZM115.039 121.69C114.586 123.616 112.657 124.812 110.73 124.359L111.188 122.412C112.039 122.612 112.892 122.084 113.092 121.232L115.039 121.69ZM110.731 124.359L108.35 123.802L108.806 121.854L111.187 122.412L110.731 124.359ZM108.35 123.802C106.423 123.35 105.227 121.422 105.679 119.495L107.626 119.952C107.426 120.803 107.955 121.655 108.806 121.854L108.35 123.802ZM105.679 119.495L106.237 117.115L108.184 117.572L107.626 119.952L105.679 119.495ZM106.237 117.115C106.466 116.141 106.728 115.093 107.293 114.186C107.888 113.229 108.776 112.486 110.135 112.003L110.806 113.887C109.838 114.232 109.328 114.7 108.991 115.242C108.623 115.833 108.419 116.571 108.184 117.572L106.237 117.115ZM110.139 112.002C110.984 111.704 111.786 111.515 112.483 111.353C113.203 111.186 113.775 111.055 114.271 110.872C114.749 110.694 115.09 110.49 115.348 110.216C115.601 109.947 115.833 109.548 115.988 108.886L117.936 109.343C117.717 110.275 117.345 111.013 116.804 111.587C116.266 112.158 115.622 112.504 114.965 112.747C114.325 112.984 113.612 113.144 112.936 113.301C112.237 113.463 111.533 113.631 110.802 113.888L110.139 112.002ZM115.988 108.886C116.366 107.276 115.451 105.903 113.959 105.553L114.415 103.606C116.967 104.204 118.57 106.641 117.936 109.343L115.988 108.886ZM113.959 105.553C112.48 105.206 111.283 105.645 110.345 106.39L109.102 104.823C110.423 103.775 112.231 103.093 114.415 103.606L113.959 105.553ZM110.344 106.39C108.568 107.798 106.047 107.829 104.263 106.387L105.521 104.832C106.556 105.669 108.038 105.666 109.102 104.823L110.344 106.39Z" fill="#4E1749" mask="url(#path-40-inside-2_4393_19855)"/>
<mask id="mask0_4393_19855" style="mask-type:alpha" maskUnits="userSpaceOnUse" x="4" y="3" width="380" height="227">
<rect x="" y="" width="388" height="235" rx="10" fill="white"/>
</mask>
<g mask="url(#mask0_4393_19855)">
<path fill-rule="evenodd" clip-rule="evenodd" d="M270.432 25.8946C294.372 15.937 314.824 51.1428 339.783 58.1981C366.147 65.6506 399.712 49.6499 419.943 68.1575C439.811 86.3334 429.998 119.702 435.779 146.018C441.6 172.51 467.523 200.29 454.152 223.864C439.822 249.129 398.652 238.781 374.252 254.496C355.327 266.685 350.949 295.987 329.882 303.903C308.498 311.937 284.925 302.546 262.939 296.319C240.272 289.899 211.841 287.427 199.896 267.087C187.607 246.16 204.244 219.891 203.805 195.624C203.465 176.863 191.518 158.377 197.607 140.636C203.677 122.95 226.163 117.072 236.179 101.291C251.224 77.5866 244.532 36.6677 270.432 25.8946Z" fill="#F8F9FA"/>
<path fill-rule="evenodd" clip-rule="evenodd" d="M281.719 62.6648C299.208 55.3903 314.149 81.1097 332.383 86.2639C351.643 91.7083 376.164 80.0191 390.943 93.5397C405.458 106.818 398.289 131.195 402.512 150.42C406.764 169.774 425.702 190.068 415.934 207.29C405.465 225.747 375.389 218.187 357.564 229.668C343.739 238.573 340.54 259.979 325.149 265.762C309.528 271.631 292.307 264.771 276.245 260.222C259.686 255.532 238.916 253.726 230.189 238.867C221.211 223.578 233.366 204.388 233.045 186.659C232.797 172.954 224.069 159.449 228.517 146.489C232.951 133.568 249.378 129.274 256.696 117.745C267.687 100.428 262.798 70.535 281.719 62.6648Z" fill="white"/>
<path d="M332.465 43.5838C332.119 43.6033 331.776 43.628 331.434 43.6578L331.477 44.1559C330.799 44.2151 330.128 44.295 329.464 44.3943L329.39 43.8998C328.708 44.0019 328.034 44.1242 327.366 44.2655L327.47 44.7547C326.806 44.8952 326.15 45.0548 325.5 45.2323L325.368 44.75C324.706 44.9308 324.05 45.1299 323.401 45.346L323.559 45.8204C322.918 46.034 322.283 46.2645 321.653 46.5108L321.471 46.0451C320.835 46.2939 320.204 46.5585 319.579 46.8375L319.783 47.2941C319.167 47.5691 318.556 47.8584 317.95 48.1609L317.726 47.7134C317.117 48.0174 316.513 48.3343 315.913 48.6629L316.153 49.1014C315.562 49.4252 314.975 49.7606 314.391 50.1065L314.136 49.6764C313.552 50.0227 312.972 50.3793 312.395 50.745L312.663 51.1673C312.094 51.528 311.528 51.8978 310.964 52.2756L310.686 51.8604C310.123 52.2378 309.563 52.623 309.005 53.0149L309.293 53.424C308.741 53.8114 308.192 54.2056 307.644 54.6054L307.349 54.2015C306.803 54.6005 306.258 55.005 305.714 55.4139L306.015 55.8134C305.476 56.2189 304.938 56.6288 304.401 57.0422L304.096 56.646C303.561 57.0585 303.026 57.4744 302.491 57.8924L302.8 58.2862C302.268 58.7021 301.737 59.1205 301.205 59.5401L300.895 59.1478C300.365 59.5667 299.835 59.9869 299.305 60.4072L299.615 60.7991C299.611 60.8021 299.608 60.8051 299.604 60.8081C299.078 61.2247 298.552 61.6417 298.025 62.058L297.715 61.6657C297.185 62.0845 296.654 62.5024 296.123 62.9185L296.431 63.3122C295.898 63.729 295.364 64.1442 294.829 64.5567L294.524 64.1606C293.989 64.5726 293.453 64.9818 292.915 65.3872L293.216 65.7865C292.676 66.1938 292.133 66.5975 291.588 66.9965L291.293 66.5931C290.749 66.9915 290.203 67.385 289.654 67.7728L289.942 68.1812C289.389 68.5718 288.833 68.9567 288.274 69.3348L287.994 68.9207C287.436 69.2979 286.875 69.6683 286.311 70.0307L286.581 70.4514C286.011 70.8173 285.438 71.1753 284.86 71.5244L284.601 71.0965C284.026 71.4442 283.447 71.7828 282.863 72.1112L283.109 72.5469C282.519 72.879 281.924 73.201 281.325 73.5117L281.095 73.0679C280.499 73.3765 279.9 73.6738 279.294 73.9589L279.508 74.4112C278.896 74.6994 278.279 74.9752 277.656 75.2377L277.462 74.7769C277.154 74.9068 276.844 75.0333 276.533 75.1563C276.222 75.2795 275.908 75.399 275.592 75.5151L275.765 75.9844C275.127 76.2185 274.482 76.4385 273.828 76.6452L273.677 76.1685C273.036 76.3711 272.388 76.561 271.731 76.7392L271.862 77.2217C271.209 77.3991 270.548 77.5649 269.881 77.7198L269.768 77.2328C269.113 77.3849 268.452 77.5265 267.785 77.6587L267.883 78.1491C267.217 78.281 266.546 78.4034 265.87 78.5171L265.787 78.024C265.122 78.1359 264.451 78.2395 263.776 78.3355L263.846 78.8305C263.174 78.9261 262.498 79.0142 261.818 79.0955L261.758 78.5991C261.088 78.6793 260.414 78.753 259.736 78.8209L259.786 79.3185C259.11 79.3863 258.43 79.4484 257.748 79.5055L257.707 79.0073C257.031 79.0639 256.353 79.1156 255.672 79.1632L255.707 79.662C255.029 79.7095 254.348 79.7529 253.666 79.7929L253.636 79.2938C252.959 79.3335 252.279 79.37 251.599 79.4038L251.624 79.9032C250.943 79.9371 250.261 79.9683 249.579 79.9977L249.558 79.4981C248.878 79.5274 248.197 79.5548 247.516 79.5811L247.535 80.0807C246.853 80.107 246.172 80.1322 245.491 80.1569L245.473 79.6572C245.092 79.671 244.713 79.6847 244.333 79.6983C244.031 79.7092 243.729 79.72 243.427 79.7309L243.445 80.2306C242.763 80.2553 242.081 80.2803 241.401 80.3063L241.382 79.8067C240.699 79.8328 240.017 79.86 239.337 79.8889L239.358 80.3885C238.675 80.4176 237.993 80.4485 237.313 80.482L237.289 79.9826C236.603 80.0164 235.92 80.0528 235.24 80.0926L235.269 80.5917C234.585 80.6317 233.905 80.6751 233.228 80.7227L233.193 80.224C232.508 80.2722 231.826 80.3247 231.149 80.3823L231.191 80.8805C230.507 80.9387 229.827 81.0022 229.152 81.0717L229.101 80.5744C228.414 80.6452 227.732 80.7223 227.055 80.8066L227.117 81.3028C226.435 81.3877 225.76 81.48 225.09 81.5806L225.016 81.0861C224.332 81.1888 223.655 81.3001 222.985 81.421L223.074 81.913C222.398 82.0349 221.73 82.1665 221.07 82.3088L220.965 81.8201C220.286 81.9667 219.614 82.1247 218.952 82.2952L219.077 82.7794C218.41 82.9512 217.753 83.1357 217.106 83.3341L216.959 82.856C216.294 83.0602 215.639 83.279 214.995 83.5137L215.166 83.9835C214.52 84.2189 213.886 84.4703 213.266 84.739L213.067 84.2801C212.428 84.5569 211.801 84.8519 211.189 85.1667L211.417 85.6114C210.808 85.9244 210.213 86.2569 209.634 86.6102L209.374 86.1834C208.78 86.5459 208.201 86.9302 207.639 87.3377L207.932 87.7425C207.381 88.1424 206.846 88.5649 206.328 89.0113L206.002 88.6327C205.477 89.0857 204.969 89.563 204.481 90.0659L204.839 90.4144C204.368 90.8986 203.915 91.4069 203.481 91.9407L203.093 91.6251C202.66 92.1575 202.245 92.7145 201.849 93.2973L202.263 93.5783C201.887 94.1319 201.528 94.7095 201.187 95.3122L200.752 95.0662C200.58 95.3699 200.413 95.6797 200.251 95.9957C200.093 96.3036 199.942 96.6117 199.798 96.92L200.251 97.1311C199.967 97.7414 199.712 98.3522 199.485 98.9633L199.016 98.7891C198.777 99.4315 198.569 100.075 198.389 100.718L198.87 100.853C198.689 101.5 198.538 102.147 198.416 102.795L197.924 102.702C197.797 103.373 197.7 104.044 197.631 104.715L198.128 104.766C198.06 105.428 198.02 106.09 198.006 106.753L197.506 106.743C197.491 107.419 197.504 108.095 197.542 108.771L198.041 108.743C198.078 109.404 198.14 110.065 198.224 110.726L197.728 110.79C197.813 111.456 197.921 112.123 198.05 112.789L198.541 112.694C198.667 113.342 198.813 113.991 198.978 114.641L198.494 114.764C198.658 115.41 198.841 116.057 199.042 116.703L199.519 116.555C199.714 117.184 199.925 117.813 200.151 118.442L199.681 118.611C199.906 119.237 200.146 119.864 200.399 120.49L200.862 120.303C201.11 120.914 201.37 121.526 201.642 122.139L201.185 122.342C201.455 122.95 201.737 123.559 202.03 124.168L202.48 123.952C202.765 124.545 203.06 125.138 203.363 125.733L202.918 125.96C203.22 126.551 203.53 127.141 203.848 127.733L204.289 127.496C204.602 128.078 204.923 128.66 205.25 129.243L204.814 129.488C205.139 130.067 205.471 130.647 205.808 131.228L206.24 130.976C206.572 131.547 206.909 132.118 207.25 132.69L206.821 132.946C207.161 133.516 207.505 134.086 207.853 134.656L208.28 134.396C208.625 134.962 208.973 135.528 209.324 136.096L208.899 136.359C209.248 136.923 209.6 137.487 209.953 138.052L210.377 137.787C210.728 138.349 211.081 138.912 211.435 139.475L211.012 139.741C211.2 140.04 211.389 140.34 211.577 140.64C211.743 140.903 211.908 141.166 212.073 141.429L212.496 141.163C212.85 141.725 213.203 142.287 213.555 142.851L213.132 143.116C213.484 143.679 213.835 144.242 214.184 144.806L214.609 144.542C214.959 145.107 215.308 145.673 215.654 146.24L215.227 146.5C215.573 147.067 215.917 147.633 216.257 148.201L216.686 147.944C217.028 148.515 217.367 149.086 217.701 149.659L217.27 149.911C217.605 150.485 217.936 151.059 218.262 151.633L218.697 151.387C219.025 151.966 219.349 152.546 219.666 153.127L219.227 153.366C219.546 153.948 219.858 154.531 220.163 155.115L220.606 154.883C220.915 155.474 221.218 156.067 221.512 156.66L221.064 156.882C221.359 157.476 221.646 158.071 221.924 158.666L222.377 158.455C222.659 159.059 222.932 159.664 223.195 160.269L222.736 160.468C223 161.077 223.254 161.685 223.496 162.295L223.961 162.11C224.207 162.731 224.443 163.353 224.666 163.976L224.195 164.144C224.418 164.766 224.629 165.39 224.825 166.013L225.302 165.863C225.503 166.499 225.689 167.135 225.861 167.773L225.378 167.903C225.55 168.54 225.706 169.178 225.847 169.817L226.335 169.709C226.478 170.36 226.605 171.013 226.714 171.666L226.22 171.748C226.274 172.071 226.324 172.394 226.369 172.718C226.413 173.036 226.453 173.355 226.488 173.673L226.985 173.618C227.058 174.265 227.112 174.913 227.15 175.561L226.651 175.59C226.689 176.231 226.711 176.873 226.717 177.515L227.217 177.51C227.224 178.159 227.216 178.809 227.193 179.46L226.694 179.443C226.671 180.084 226.636 180.727 226.587 181.37L227.086 181.407C227.037 182.054 226.975 182.702 226.902 183.349L226.406 183.293C226.334 183.932 226.251 184.572 226.157 185.212L226.652 185.284C226.558 185.926 226.455 186.568 226.342 187.21L225.85 187.124C225.738 187.758 225.618 188.393 225.49 189.029L225.981 189.127C225.853 189.763 225.717 190.399 225.575 191.035L225.087 190.926C224.946 191.556 224.799 192.186 224.646 192.817L225.132 192.934C224.98 193.565 224.822 194.196 224.659 194.827L224.175 194.702C224.014 195.329 223.848 195.956 223.68 196.583L224.162 196.713C223.994 197.341 223.822 197.968 223.648 198.595L223.166 198.461C222.993 199.087 222.817 199.712 222.641 200.338L223.122 200.474C222.955 201.063 222.788 201.652 222.621 202.24C222.611 202.277 222.6 202.314 222.59 202.351L222.109 202.214C221.931 202.84 221.754 203.466 221.577 204.092L222.059 204.228C221.882 204.855 221.707 205.481 221.534 206.107L221.052 205.973C220.878 206.602 220.706 207.231 220.538 207.859L221.021 207.988C220.853 208.618 220.688 209.247 220.528 209.875L220.043 209.752C219.882 210.386 219.725 211.02 219.574 211.653L220.06 211.769C219.908 212.404 219.763 213.038 219.624 213.671L219.136 213.564C218.996 214.205 218.863 214.846 218.738 215.486L219.229 215.581C219.104 216.222 218.988 216.862 218.882 217.501L218.389 217.419C218.281 218.068 218.183 218.716 218.096 219.364L218.591 219.43C218.505 220.077 218.43 220.723 218.367 221.368L217.869 221.32C217.806 221.975 217.755 222.631 217.719 223.285L218.218 223.313C218.182 223.964 218.16 224.613 218.154 225.262L217.654 225.257C217.648 225.917 217.658 226.575 217.685 227.232L218.185 227.212C218.212 227.862 218.256 228.51 218.319 229.157L217.822 229.205C217.886 229.861 217.968 230.516 218.072 231.169L218.566 231.091C218.667 231.731 218.788 232.369 218.93 233.006L218.442 233.115C218.585 233.756 218.75 234.396 218.937 235.034L219.417 234.894C219.598 235.513 219.801 236.13 220.026 236.745L219.557 236.917C219.671 237.228 219.79 237.538 219.916 237.848C220.042 238.158 220.17 238.467 220.302 238.775L220.762 238.578C221.023 239.188 221.296 239.79 221.58 240.386L221.128 240.601C221.416 241.205 221.716 241.803 222.026 242.393L222.469 242.16C222.777 242.747 223.096 243.326 223.426 243.899L222.992 244.148C223.326 244.728 223.67 245.3 224.024 245.866L224.448 245.6C224.799 246.161 225.161 246.715 225.532 247.262L225.119 247.543C225.493 248.096 225.878 248.641 226.272 249.18L226.676 248.885C227.066 249.419 227.465 249.946 227.874 250.467L227.481 250.776C227.892 251.3 228.312 251.818 228.741 252.33L229.124 252.009C229.549 252.516 229.982 253.016 230.423 253.51L230.05 253.843C230.493 254.34 230.945 254.831 231.404 255.315L231.767 254.971C232.221 255.451 232.683 255.925 233.152 256.393L232.799 256.747C233.27 257.217 233.748 257.681 234.233 258.139L234.577 257.776C235.057 258.229 235.543 258.677 236.037 259.12L235.702 259.492C236.197 259.936 236.698 260.375 237.205 260.808L237.529 260.428C238.031 260.858 238.539 261.282 239.053 261.701L238.737 262.088C239.251 262.508 239.771 262.923 240.297 263.333L240.604 262.939C241.125 263.345 241.651 263.747 242.182 264.144L241.882 264.544C242.414 264.942 242.95 265.335 243.491 265.723L243.783 265.317C244.319 265.703 244.86 266.084 245.405 266.461L245.121 266.872C245.667 267.249 246.218 267.622 246.771 267.991L247.048 267.575C247.599 267.941 248.153 268.303 248.71 268.661L248.439 269.082C248.998 269.441 249.559 269.796 250.124 270.147L250.388 269.722C250.95 270.071 251.514 270.416 252.082 270.758L251.824 271.186C252.392 271.528 252.964 271.867 253.537 272.201L253.789 271.77C254.361 272.103 254.934 272.433 255.51 272.759L255.263 273.194C255.841 273.522 256.42 273.846 257.001 274.166L257.242 273.728C257.822 274.048 258.403 274.364 258.986 274.678L258.749 275.118C259.334 275.432 259.92 275.743 260.507 276.051L260.739 275.609C261.326 275.916 261.914 276.221 262.502 276.522L262.274 276.967C262.865 277.27 263.456 277.57 264.048 277.867L264.272 277.421C264.865 277.718 265.458 278.013 266.05 278.304L265.829 278.753C266.425 279.046 267.021 279.337 267.617 279.625L267.834 279.174C268.432 279.463 269.029 279.749 269.625 280.033L269.41 280.484C269.709 280.627 270.008 280.768 270.307 280.909C270.607 281.051 270.909 281.192 271.211 281.33L271.42 280.876C272.021 281.153 272.625 281.423 273.23 281.687L273.03 282.146C273.64 282.412 274.252 282.671 274.866 282.925L275.057 282.463C275.668 282.715 276.282 282.962 276.898 283.202L276.716 283.668C277.335 283.91 277.957 284.146 278.58 284.375L278.753 283.906C279.374 284.135 279.996 284.358 280.621 284.575L280.457 285.047C281.085 285.265 281.715 285.477 282.346 285.683L282.501 285.208C283.13 285.413 283.761 285.612 284.393 285.806L284.247 286.284C284.882 286.478 285.519 286.667 286.158 286.85L286.296 286.369C286.932 286.551 287.569 286.727 288.208 286.897L288.079 287.38C288.721 287.552 289.365 287.717 290.009 287.877L290.13 287.392C290.772 287.551 291.415 287.704 292.06 287.852L291.948 288.339C292.595 288.488 293.244 288.631 293.894 288.768L293.997 288.279C294.644 288.416 295.292 288.547 295.942 288.673L295.847 289.164C296.499 289.29 297.152 289.411 297.806 289.527L297.893 289.034C298.544 289.149 299.196 289.259 299.849 289.363L299.77 289.857C300.426 289.962 301.083 290.061 301.74 290.156L301.811 289.661C302.466 289.755 303.121 289.843 303.777 289.927L303.714 290.423C304.373 290.507 305.032 290.586 305.692 290.659L305.747 290.162C306.405 290.236 307.062 290.304 307.721 290.368L307.673 290.865C308.334 290.929 308.995 290.988 309.657 291.041L309.697 290.543C310.356 290.597 311.016 290.645 311.676 290.689L311.643 291.188C312.305 291.232 312.968 291.272 313.631 291.306L313.657 290.807C314.317 290.841 314.978 290.871 315.639 290.896L315.62 291.396C316.283 291.421 316.946 291.441 317.61 291.457L317.622 290.958C318.283 290.973 318.944 290.985 319.606 290.992L319.601 291.492C320.264 291.499 320.928 291.501 321.591 291.499L321.59 290.999C322.251 290.998 322.913 290.991 323.574 290.981L323.582 291.481C324.245 291.47 324.909 291.455 325.572 291.436L325.558 290.936C326.219 290.917 326.88 290.894 327.541 290.867L327.561 291.366C328.224 291.339 328.887 291.307 329.55 291.271L329.523 290.772C330.183 290.737 330.843 290.697 331.503 290.653L331.536 291.152C331.867 291.13 332.198 291.107 332.529 291.083C332.866 291.059 333.203 291.033 333.539 291.005L333.498 290.506C334.168 290.45 334.836 290.387 335.502 290.316L335.555 290.813C336.227 290.741 336.897 290.662 337.565 290.576L337.501 290.08C338.168 289.994 338.833 289.901 339.495 289.801L339.57 290.296C340.238 290.195 340.904 290.087 341.568 289.973L341.483 289.48C342.145 289.366 342.805 289.245 343.463 289.118L343.558 289.609C344.221 289.481 344.882 289.346 345.541 289.205L345.436 288.716C346.093 288.576 346.748 288.429 347.401 288.276L347.515 288.763C348.172 288.61 348.827 288.45 349.48 288.285L349.358 287.8C350.008 287.636 350.658 287.465 351.305 287.289L351.436 287.772C352.087 287.595 352.735 287.413 353.383 287.226L353.244 286.746C353.888 286.559 354.532 286.367 355.173 286.17L355.32 286.648C355.964 286.451 356.606 286.249 357.248 286.041L357.094 285.566C357.732 285.359 358.369 285.148 359.005 284.933L359.166 285.406C359.803 285.19 360.439 284.97 361.075 284.745L360.908 284.273C361.54 284.05 362.171 283.822 362.801 283.59L362.974 284.059C363.606 283.826 364.236 283.59 364.865 283.35L364.687 282.883C365.314 282.644 365.939 282.401 366.564 282.155L366.747 282.62C367.373 282.373 367.998 282.123 368.622 281.87L368.434 281.407C369.055 281.154 369.676 280.899 370.296 280.64L370.488 281.102C371.108 280.843 371.728 280.582 372.347 280.317L372.151 279.857C372.768 279.594 373.384 279.328 373.999 279.059L374.199 279.518C374.815 279.249 375.43 278.978 376.045 278.705L375.842 278.248C376.455 277.975 377.067 277.701 377.679 277.424L377.885 277.88C378.497 277.603 379.109 277.324 379.72 277.044L379.512 276.59C380.121 276.31 380.731 276.028 381.34 275.746L381.55 276.199C382.159 275.916 382.768 275.632 383.377 275.346L383.164 274.894C383.771 274.609 384.379 274.323 384.986 274.035L385.199 274.487C385.806 274.2 386.413 273.912 387.019 273.623L386.804 273.172C387.41 272.883 388.016 272.594 388.621 272.304L388.837 272.755C389.14 272.61 389.443 272.465 389.746 272.32C390.035 272.182 390.326 272.044 390.619 271.907L390.407 271.454C390.992 271.18 391.582 270.91 392.177 270.643L392.382 271.099C392.969 270.836 393.562 270.576 394.158 270.318L393.96 269.859C394.553 269.602 395.151 269.348 395.752 269.096L395.945 269.557C396.54 269.308 397.139 269.06 397.74 268.814L397.551 268.351C398.15 268.106 398.752 267.863 399.356 267.62L399.543 268.084C400.143 267.844 400.745 267.604 401.35 267.365L401.166 266.9C401.768 266.661 402.372 266.424 402.977 266.186L403.16 266.651C403.458 266.534 403.757 266.417 404.055 266.3C404.361 266.18 404.666 266.061 404.972 265.941L404.789 265.475C405.393 265.239 405.998 265.002 406.602 264.764L406.785 265.229C407.389 264.992 407.994 264.753 408.598 264.514L408.413 264.049C409.017 263.81 409.62 263.569 410.222 263.327L410.408 263.791C411.012 263.548 411.615 263.303 412.216 263.057L412.026 262.594C412.627 262.347 413.227 262.098 413.824 261.847L414.018 262.308C414.619 262.055 415.218 261.8 415.814 261.541L415.615 261.082C416.212 260.824 416.805 260.562 417.396 260.297L417.601 260.753C418.197 260.485 418.789 260.214 419.377 259.939L419.166 259.486C419.755 259.21 420.341 258.93 420.922 258.646L421.142 259.095C421.73 258.807 422.313 258.514 422.891 258.217L422.663 257.772C423.242 257.474 423.816 257.17 424.384 256.861L424.623 257.301C425.199 256.987 425.769 256.668 426.333 256.342L426.083 255.909C426.647 255.583 427.205 255.25 427.755 254.911L428.017 255.336C428.576 254.991 429.128 254.639 429.671 254.279L429.395 253.862C429.939 253.502 430.473 253.134 430.999 252.758L431.29 253.165C431.825 252.782 432.351 252.391 432.867 251.991L432.561 251.596C433.075 251.196 433.58 250.788 434.073 250.37L434.396 250.751C434.899 250.326 435.39 249.89 435.87 249.444L435.529 249.078C436.005 248.635 436.469 248.181 436.921 247.717L437.279 248.065C437.738 247.593 438.184 247.11 438.616 246.614L438.24 246.286C438.666 245.797 439.079 245.296 439.478 244.784L439.872 245.091C440.276 244.572 440.665 244.04 441.038 243.496L440.626 243.213C440.992 242.68 441.343 242.135 441.679 241.576L442.107 241.833C442.445 241.272 442.766 240.697 443.072 240.108L442.628 239.878C442.925 239.306 443.206 238.722 443.471 238.124L443.929 238.326C444.062 238.025 444.192 237.72 444.317 237.412C444.446 237.096 444.568 236.78 444.684 236.464L444.215 236.292C444.445 235.664 444.651 235.036 444.834 234.407L445.314 234.546C445.503 233.895 445.668 233.243 445.81 232.59L445.321 232.484C445.462 231.834 445.58 231.183 445.675 230.531L446.17 230.604C446.268 229.936 446.343 229.268 446.396 228.6L445.898 228.56C445.951 227.9 445.983 227.239 445.995 226.578L446.495 226.587C446.507 225.916 446.499 225.245 446.472 224.573L445.972 224.593C445.946 223.934 445.901 223.273 445.84 222.613L446.338 222.566C446.276 221.901 446.197 221.236 446.102 220.571L445.607 220.641C445.515 219.989 445.407 219.336 445.285 218.682L445.777 218.591C445.655 217.937 445.52 217.282 445.371 216.628L444.884 216.738C444.739 216.096 444.581 215.453 444.413 214.809L444.896 214.683C444.728 214.041 444.549 213.398 444.361 212.755L443.881 212.896C443.695 212.264 443.5 211.631 443.297 210.998L443.773 210.845C443.57 210.214 443.36 209.583 443.142 208.951L442.669 209.114C442.454 208.491 442.232 207.867 442.004 207.243L442.473 207.071C442.246 206.449 442.013 205.827 441.775 205.204L441.308 205.382C441.073 204.766 440.833 204.149 440.589 203.532L441.054 203.348C440.811 202.733 440.564 202.117 440.314 201.501L439.851 201.689C439.603 201.077 439.352 200.465 439.099 199.851L439.562 199.661C439.31 199.049 439.056 198.437 438.801 197.825L438.34 198.017C438.175 197.62 438.009 197.222 437.844 196.825C437.755 196.611 437.666 196.397 437.577 196.184L438.039 195.992C437.784 195.381 437.531 194.77 437.278 194.158L436.816 194.349C436.563 193.738 436.311 193.125 436.061 192.513L436.524 192.324C436.274 191.711 436.027 191.099 435.782 190.486L435.318 190.671C435.072 190.056 434.83 189.44 434.591 188.824L435.058 188.643C434.819 188.027 434.584 187.41 434.355 186.793L433.886 186.968C433.655 186.346 433.429 185.724 433.208 185.102L433.679 184.935C433.459 184.312 433.244 183.689 433.037 183.066L432.563 183.224C432.353 182.594 432.15 181.964 431.956 181.333L432.434 181.185C432.239 180.555 432.053 179.924 431.876 179.293L431.394 179.428C431.215 178.789 431.045 178.149 430.885 177.509L431.37 177.388C431.211 176.748 431.062 176.109 430.924 175.47L430.436 175.575C430.296 174.926 430.168 174.276 430.053 173.627L430.546 173.54C430.489 173.217 430.435 172.894 430.384 172.572C430.334 172.255 430.287 171.937 430.242 171.62L429.747 171.69C429.656 171.05 429.573 170.41 429.499 169.769L429.995 169.711C429.921 169.073 429.855 168.435 429.796 167.796L429.299 167.842C429.239 167.199 429.187 166.555 429.142 165.911L429.64 165.875C429.595 165.234 429.556 164.593 429.522 163.951L429.023 163.977C428.989 163.332 428.961 162.687 428.938 162.041L429.438 162.023C429.415 161.38 429.397 160.737 429.382 160.093L428.882 160.104C428.868 159.459 428.858 158.813 428.851 158.167L429.351 158.162C429.343 157.517 429.34 156.873 429.338 156.228L428.838 156.229C428.836 155.583 428.837 154.938 428.84 154.292L429.34 154.294C429.342 153.648 429.346 153.003 429.351 152.358L428.851 152.354C428.855 151.756 428.86 151.157 428.865 150.559C428.866 150.512 428.866 150.464 428.866 150.417L429.366 150.421C429.372 149.775 429.377 149.129 429.382 148.483L428.882 148.479C428.886 147.833 428.89 147.187 428.892 146.542L429.392 146.543C429.393 145.896 429.394 145.249 429.391 144.602L428.891 144.604C428.889 143.957 428.884 143.312 428.876 142.666L429.375 142.66C429.367 142.012 429.355 141.364 429.339 140.717L428.839 140.729C428.823 140.083 428.803 139.437 428.778 138.793L429.277 138.773C429.252 138.124 429.221 137.476 429.184 136.829L428.685 136.857C428.649 136.212 428.606 135.568 428.556 134.924L429.055 134.886C429.005 134.238 428.948 133.591 428.884 132.944L428.386 132.994C428.322 132.351 428.25 131.709 428.17 131.069L428.666 131.006C428.585 130.361 428.495 129.717 428.395 129.074L427.901 129.15C427.803 128.512 427.695 127.875 427.576 127.24L428.068 127.148C427.949 126.509 427.819 125.87 427.678 125.233L427.19 125.341C427.051 124.712 426.9 124.084 426.738 123.457L427.222 123.332C427.059 122.703 426.884 122.075 426.697 121.448L426.218 121.592C426.033 120.975 425.836 120.361 425.625 119.748L426.098 119.585C425.992 119.277 425.883 118.969 425.771 118.661C425.655 118.344 425.538 118.028 425.42 117.711L424.951 117.886C424.716 117.256 424.477 116.627 424.233 116L424.7 115.819C424.456 115.19 424.208 114.562 423.956 113.935L423.492 114.122C423.241 113.498 422.985 112.875 422.726 112.254L423.187 112.062C422.927 111.439 422.663 110.817 422.394 110.198L421.935 110.397C421.667 109.78 421.395 109.164 421.119 108.551L421.575 108.346C421.298 107.73 421.016 107.116 420.73 106.505L420.277 106.716C419.992 106.107 419.702 105.499 419.408 104.894L419.858 104.676C419.563 104.068 419.264 103.463 418.96 102.86L418.513 103.085C418.21 102.484 417.902 101.885 417.59 101.29L418.033 101.058C417.72 100.459 417.402 99.8631 417.079 99.2699L416.64 99.5089C416.318 98.9176 415.992 98.3291 415.661 97.7436L416.096 97.4975C415.763 96.9091 415.426 96.3237 415.084 95.7414L414.653 95.9946C414.312 95.4142 413.966 94.8369 413.615 94.2629L414.042 94.0023C413.69 93.4253 413.333 92.8516 412.97 92.2813L412.548 92.5493C412.188 91.981 411.822 91.4162 411.451 90.855L411.868 90.5794C411.496 90.0152 411.118 89.4546 410.735 88.8977L410.323 89.1809C409.942 88.6261 409.556 88.0751 409.165 87.528L409.571 87.2372C409.178 86.6871 408.779 86.141 408.375 85.5989L407.975 85.8976C407.572 85.3579 407.165 84.8222 406.753 84.2908L407.148 83.9842C406.733 83.4499 406.313 82.9198 405.888 82.3942L405.499 82.7086C405.076 82.1854 404.648 81.6667 404.214 81.1524L404.596 80.83C404.16 80.313 403.718 79.8007 403.271 79.293L402.896 79.6234C402.451 79.1184 402.001 78.6182 401.546 78.1228L401.914 77.7844C401.456 77.2865 400.993 76.7935 400.524 76.3055L400.163 76.6519C399.697 76.1669 399.226 75.6868 398.749 75.212L399.101 74.8576C398.622 74.3805 398.137 73.9086 397.647 73.442L397.302 73.8043C396.815 73.341 396.322 72.8829 395.823 72.4302L396.16 72.0601C395.659 71.6056 395.153 71.1565 394.641 70.713L394.313 71.0909C393.805 70.6509 393.292 70.2164 392.772 69.7876L393.09 69.402C392.829 69.1866 392.567 68.9726 392.303 68.76C392.051 68.5571 391.798 68.3544 391.545 68.152L391.233 68.5428C390.728 68.1398 390.22 67.7379 389.71 67.3376L390.018 66.9441C389.508 66.5446 388.995 66.1465 388.48 65.7502L388.175 66.1467C387.662 65.7528 387.147 65.3608 386.629 64.9708L386.93 64.5713C386.412 64.1815 385.891 63.7938 385.367 63.4084L385.071 63.8111C384.55 63.4278 384.026 63.0468 383.5 62.6686L383.792 62.2626C383.265 61.8839 382.735 61.5079 382.203 61.1349L381.916 61.5444C381.386 61.173 380.854 60.8046 380.319 60.4395L380.6 60.0265C380.064 59.6605 379.525 59.2978 378.984 58.9386L378.707 59.3553C378.168 58.9975 377.626 58.6432 377.081 58.2929L377.352 57.8724C376.805 57.5207 376.256 57.1729 375.705 56.8293L375.44 57.2536C374.891 56.9111 374.339 56.5727 373.784 56.2389L374.042 55.8106C373.485 55.4751 372.925 55.144 372.363 54.8179L372.112 55.2503C371.552 54.925 370.989 54.6046 370.424 54.2893L370.668 53.8527C370.1 53.5354 369.529 53.2234 368.956 52.9167L368.72 53.3576C368.149 53.0518 367.575 52.7515 366.999 52.457L367.227 52.0118C366.647 51.7152 366.065 51.4244 365.481 51.1397L365.262 51.5892C364.679 51.3053 364.094 51.0276 363.507 50.7564L363.717 50.3025C363.125 50.0291 362.532 49.7622 361.936 49.5021L361.736 49.9604C361.142 49.7011 360.545 49.4487 359.947 49.2035L360.137 48.7408C359.533 48.4935 358.928 48.2534 358.321 48.0208L358.142 48.4878C357.536 48.256 356.929 48.0319 356.32 47.8157L356.487 47.3445C355.872 47.1263 355.255 46.9161 354.636 46.7143L354.481 47.1896C353.865 46.9885 353.247 46.7959 352.627 46.6119L352.769 46.1325C352.143 45.9468 351.516 45.7698 350.886 45.602L350.758 46.0851C350.131 45.9181 349.503 45.7602 348.874 45.6118L348.989 45.1252C348.353 44.9754 347.716 44.8351 347.077 44.7047L346.977 45.1946C346.342 45.0651 345.706 44.9454 345.068 44.8359L345.153 44.3432C344.509 44.2327 343.864 44.1325 343.218 44.0429L343.149 44.5382C342.508 44.4494 341.865 44.3711 341.221 44.3037L341.273 43.8065C340.624 43.7385 339.974 43.6816 339.322 43.6359L339.287 44.1346C338.642 44.0894 337.995 44.0554 337.348 44.0329L337.365 43.5332C336.713 43.5105 336.06 43.4993 335.405 43.5L335.406 44C334.76 44.0007 334.113 44.0131 333.464 44.0375L333.446 43.5379C333.119 43.5502 332.792 43.5655 332.465 43.5838Z" stroke="#00BB7E" stroke-dasharray="2 2"/>
</g>
<rect x="0" y="0" width="388" height="235" rx="10.5" stroke="#0B1324" stroke-opacity="0.07"/>
</g>
<defs>
<filter id="filter0_di_4393_19855" x="0" y="0" width="388" height="235" filterUnits="userSpaceOnUse" color-interpolation-filters="sRGB">
<feFlood flood-opacity="0" result="BackgroundImageFix"/>
<feColorMatrix in="SourceAlpha" type="matrix" values="0 0 0 0 0 0 0 0 0 0 0 0 0 0 0 0 0 0 127 0" result="hardAlpha"/>
<feOffset dy="1"/>
<feGaussianBlur stdDeviation="1.5"/>
<feColorMatrix type="matrix" values="0 0 0 0 0.0431373 0 0 0 0 0.0745098 0 0 0 0 0.141176 0 0 0 0.1 0"/>
<feBlend mode="normal" in2="BackgroundImageFix" result="effect1_dropShadow_4393_19855"/>
<feBlend mode="normal" in="SourceGraphic" in2="effect1_dropShadow_4393_19855" result="shape"/>
<feColorMatrix in="SourceAlpha" type="matrix" values="0 0 0 0 0 0 0 0 0 0 0 0 0 0 0 0 0 0 127 0" result="hardAlpha"/>
<feOffset dy="-1"/>
<feComposite in2="hardAlpha" operator="arithmetic" k2="-1" k3="1"/>
<feColorMatrix type="matrix" values="0 0 0 0 0 0 0 0 0 0 0 0 0 0 0 0 0 0 0.1 0"/>
<feBlend mode="normal" in2="shape" result="effect2_innerShadow_4393_19855"/>
</filter>
</defs>
</svg>
