<svg width="388" height="235" viewBox="0 0 388 235" fill="none" xmlns="http://www.w3.org/2000/svg">
<g filter="url(#filter0_di_4393_23644)">
<rect x="4" y="3" width="380" height="227" rx="10" fill="white"/>
<path d="M106.503 168.675C101.137 167.088 95.6869 170.634 91.4429 174.291C87.1989 177.949 82.637 182.159 77.0442 182.179C71.3884 182.199 66.7664 177.935 62.4708 174.243C58.1724 170.55 52.6197 166.985 47.2216 168.684C45.2142 169.317 43.4759 170.631 41.4885 171.321C37.3848 172.744 32.7227 171.266 29.2863 168.601C28.4358 167.942 27.6482 167.22 26.9037 166.45C28.4444 173.435 30.3373 180.169 34.0429 186.596C37.0813 191.864 40.9043 196.652 45.4003 200.652C57.2847 211.231 73.8168 216.123 89.2121 213.135C104.607 210.147 118.468 199.18 124.871 184.356C125.129 183.761 125.372 183.163 125.607 182.559C121.927 180.882 118.525 178.605 115.613 175.787C112.809 173.078 110.235 169.78 106.503 168.675Z" fill="#ABFEE6"/>
<path d="M140.61 135.235C141.83 127.701 139.622 118.775 133.044 115.333C126.884 112.11 118.974 114.64 112.898 111.253C106.746 107.825 104.79 99.8078 100.652 93.9761C95.3717 86.5341 85.8013 82.6607 77.0527 84.4206C68.3069 86.1833 60.8298 93.493 58.6219 102.442C57.6167 106.517 57.6339 110.781 57.0784 114.948C56.5199 119.115 55.2542 123.416 52.2702 126.263C47.1585 131.14 39.0313 130.151 32.8056 133.352C23.9339 137.912 23.1636 148.546 25.0221 157.429C25.6607 160.477 26.2506 163.485 26.9035 166.45C27.6481 167.217 28.4356 167.942 29.2861 168.601C32.7226 171.266 37.3818 172.744 41.4884 171.321C43.4786 170.631 45.214 169.317 47.2215 168.684C52.6196 166.984 58.1723 170.55 62.4707 174.242C66.7691 177.935 71.3883 182.202 77.0441 182.179C82.6369 182.159 87.1988 177.949 91.4428 174.291C95.6868 170.634 101.136 167.088 106.503 168.675C110.234 169.779 112.809 173.078 115.61 175.789C118.522 178.608 121.924 180.885 125.604 182.561C128.843 174.237 130.091 165.173 133.072 156.721C135.601 149.547 139.39 142.766 140.61 135.235Z" fill="#DCFBF3"/>
<path d="M51.8177 108.242C51.5142 111.667 49.8389 114.951 47.2472 117.196C44.2833 119.767 40.3744 120.892 36.6 121.944C34.5525 122.516 32.5049 123.089 30.4574 123.661C29.3119 123.98 28.1406 124.305 26.9551 124.216C24.8932 124.063 23.0862 122.66 21.9178 120.943C19.4665 117.343 19.498 112.426 21.2592 108.44C23.0203 104.455 26.2935 101.312 29.9075 98.8991C32.714 97.0271 35.8411 95.5059 39.1916 95.1378C42.4334 94.7813 46.454 95.6439 48.7135 98.1975C51.013 100.797 52.1184 104.834 51.8177 108.242Z" fill="#DCFBF3"/>
<path d="M35.5315 117.646C35.4069 117.697 35.2828 117.746 35.1598 117.801C35.2828 117.745 35.4081 117.693 35.5315 117.646ZM50.4442 128.688C50.6065 127.32 50.4991 125.909 50.0939 124.532C50.7908 123.586 53.7724 122.027 53.7724 122.027L53.2145 120.906C51.8937 121.534 48.9152 121.882 48.9152 121.882C48.9837 121.986 49.0595 122.128 49.1384 122.289C47.6798 119.72 45.2675 117.954 42.5472 117.218C42.0438 116.194 42.1736 112.802 42.1736 112.802L40.9051 112.712C40.7965 114.114 39.6593 116.716 39.6064 116.835C38.5545 116.841 37.4928 117 36.4523 117.319C35.5063 116.69 34.6593 114.96 34.6593 114.96L33.5184 115.511C34.1227 116.723 34.3413 118.036 34.3665 118.198C33.5256 118.66 32.7696 119.217 32.1058 119.851C30.8891 119.709 28.0278 117.975 28.0278 117.975L27.3126 119.025C28.4022 119.743 29.953 121.68 30.2999 122.123C29.6925 123.149 29.2637 124.267 29.0306 125.431C27.9707 125.837 26.292 125.708 26.292 125.708L26.2173 126.969C27.3267 127.035 28.3714 127.347 28.8276 127.5C28.8295 128.442 28.9601 129.392 29.2275 130.328C28.2704 131.288 25.7123 132.626 25.7123 132.626L26.2779 133.761C27.345 133.253 29.4792 132.926 30.298 132.815C30.918 133.864 31.6987 134.774 32.5956 135.53C32.4124 136.629 31.4653 137.974 31.4653 137.974L32.5385 138.671C33.1577 137.76 33.962 137.029 34.3242 136.722C35.6686 137.468 37.1652 137.928 38.7095 138.064C39.4148 139.143 40.063 142.139 40.063 142.139L41.3312 141.921C41.1358 140.813 41.3834 138.811 41.5068 137.954C42.4417 137.796 43.3713 137.517 44.2724 137.103C44.7271 136.894 45.1582 136.655 45.5688 136.395C46.5197 136.991 47.4025 138.314 47.4025 138.314L48.4658 137.603C47.7433 136.558 47.3404 135.379 47.2456 135.083C48.3519 134.024 49.2001 132.756 49.7557 131.375C51.1111 131.256 53.9681 131.895 53.9681 131.895L54.2983 130.674C53.0248 130.339 50.907 128.989 50.4442 128.688Z" fill="#8F53BF"/>
<path d="M47.906 116.728L46.8461 116.039C46.0311 117.237 44.7816 118.191 44.7816 118.191C45.4926 118.544 46.7593 119.397 46.7593 119.397C46.8122 118.278 47.906 116.728 47.906 116.728Z" fill="#8F53BF"/>
<path d="M47.821 128.105C47.2604 128.075 46.8945 127.056 46.1351 125.799C46.0501 125.639 45.9325 125.482 45.8331 125.315C45.7279 125.15 45.6053 124.986 45.4907 124.815C45.2374 124.483 44.975 124.135 44.6612 123.806C44.0477 123.14 43.2917 122.522 42.4299 122.046C41.5589 121.585 40.6228 121.287 39.7206 121.134C39.2693 121.05 38.8295 121.018 38.4079 120.985C38.1992 120.981 37.9924 120.967 37.7936 120.968C37.5967 120.974 37.3987 120.961 37.2147 120.976C35.726 121.017 34.6532 121.257 34.328 120.808C34.2511 120.699 34.2328 120.558 34.2758 120.383C34.3208 120.213 34.4167 119.992 34.5934 119.774C34.9343 119.317 35.5657 118.797 36.4793 118.364C36.7056 118.248 36.9542 118.165 37.2147 118.066C37.4756 117.974 37.7551 117.902 38.0469 117.828C38.6326 117.704 39.2766 117.609 39.9617 117.612C40.6453 117.616 41.3735 117.673 42.1104 117.857C42.8469 118.034 43.5956 118.307 44.3162 118.691C45.031 119.083 45.6659 119.559 46.2116 120.075C46.7631 120.587 47.2003 121.161 47.5693 121.726C47.9376 122.293 48.1992 122.877 48.4052 123.429C48.497 123.711 48.5839 123.981 48.6436 124.247C48.6981 124.515 48.7586 124.766 48.7792 125.016C48.8942 126.004 48.7826 126.806 48.5709 127.332C48.4772 127.595 48.3374 127.793 48.2148 127.922C48.0872 128.05 47.9558 128.11 47.821 128.105Z" fill="#BE99E3"/>
<path d="M28.064 117.271C28.2597 117.396 28.1013 117.976 27.7106 118.566C27.5784 118.766 27.4364 118.941 27.2989 119.082C27.0296 119.355 26.7779 119.493 26.6484 119.411C26.4531 119.286 26.6115 118.706 27.0022 118.116C27.3933 117.525 27.8686 117.147 28.064 117.271Z" fill="#8F53BF"/>
<path d="M27.338 119.042C27.338 119.042 27.8362 118.492 28.0277 117.974C28.2315 118.096 28.4642 118.233 28.7029 118.367C28.7029 118.367 27.9877 119.081 27.565 119.206L27.338 119.042Z" fill="#624D9E"/>
<path d="M25.9601 125.083C26.1928 125.094 26.3558 125.672 26.3238 126.376C26.3132 126.614 26.2812 126.835 26.2351 127.024C26.1444 127.394 25.9978 127.638 25.844 127.631C25.6113 127.621 25.4483 127.042 25.4803 126.339C25.5123 125.635 25.7274 125.073 25.9601 125.083Z" fill="#8F53BF"/>
<path d="M26.2481 126.971C26.2481 126.971 26.4477 126.269 26.2919 125.708C26.5318 125.725 26.7927 125.73 27.0673 125.726C27.0673 125.726 26.8277 126.676 26.5273 126.993L26.2481 126.971Z" fill="#624D9E"/>
<path d="M25.1105 132.242C25.3185 132.139 25.7499 132.564 26.074 133.193C26.1837 133.406 26.2671 133.614 26.3208 133.801C26.4267 134.167 26.4218 134.45 26.2839 134.518C26.076 134.621 25.6445 134.195 25.3204 133.567C24.9967 132.938 24.9026 132.345 25.1105 132.242Z" fill="#8F53BF"/>
<path d="M26.3053 133.748C26.3053 133.748 26.0722 133.049 25.7123 132.626C25.9214 132.515 26.1598 132.386 26.3978 132.251C26.3978 132.251 26.6675 133.217 26.5647 133.638L26.3053 133.748Z" fill="#624D9E"/>
<path d="M30.7477 137.94C30.8741 137.748 31.4659 137.901 32.0699 138.283C32.2741 138.411 32.4534 138.55 32.5966 138.684C32.8769 138.947 33.0182 139.194 32.9344 139.321C32.8084 139.513 32.2169 139.36 31.6129 138.979C31.0089 138.598 30.6216 138.133 30.7477 137.94Z" fill="#8F53BF"/>
<path d="M32.5555 138.646C32.5555 138.646 32.0375 138.124 31.4651 137.974C31.6007 137.779 31.7363 137.56 31.8715 137.326C31.8715 137.326 32.5879 138.006 32.7162 138.421L32.5555 138.646Z" fill="#624D9E"/>
<path d="M39.5191 142.599C39.4761 142.375 40.0127 142.086 40.7184 141.955C40.9572 141.911 41.1842 141.89 41.3822 141.891C41.7703 141.892 42.0456 141.976 42.0742 142.125C42.118 142.35 41.581 142.638 40.8753 142.769C40.1696 142.9 39.5629 142.824 39.5191 142.599Z" fill="#8F53BF"/>
<path d="M41.3259 141.891C41.3259 141.891 40.5772 141.918 40.063 142.139C40.0112 141.911 39.9518 141.651 39.8856 141.389C39.8856 141.389 40.9066 141.403 41.2905 141.617L41.3259 141.891Z" fill="#624D9E"/>
<path d="M47.1 138.953C46.9659 138.766 47.3342 138.287 47.9222 137.882C48.1206 137.745 48.3194 137.635 48.5 137.556C48.8538 137.4 49.1401 137.365 49.2285 137.489C49.3625 137.676 48.9947 138.156 48.4066 138.56C47.8186 138.965 47.2337 139.141 47.1 138.953Z" fill="#8F53BF"/>
<path d="M48.4486 137.578C48.4486 137.578 47.76 137.851 47.4024 138.314C47.2695 138.118 47.1142 137.912 46.9435 137.7C46.9435 137.7 47.8572 137.307 48.2966 137.347L48.4486 137.578Z" fill="#624D9E"/>
<path d="M54.1654 132.572C53.9395 132.516 53.898 131.917 54.0728 131.234C54.1318 131.003 54.2084 130.792 54.2922 130.616C54.4563 130.272 54.6494 130.062 54.7991 130.098C55.0249 130.154 55.0668 130.753 54.892 131.436C54.7168 132.119 54.3916 132.628 54.1654 132.572Z" fill="#8F53BF"/>
<path d="M54.2685 130.666C54.2685 130.666 53.9783 131.344 53.9681 131.895C53.735 131.845 53.4692 131.789 53.1992 131.738C53.1992 131.738 53.6402 130.835 53.9997 130.583L54.2685 130.666Z" fill="#624D9E"/>
<path d="M36.1241 130.787C36.4805 131.533 36.3545 132.328 35.843 132.563C35.3312 132.799 34.6282 132.384 34.2717 131.639C33.9156 130.893 34.0417 130.098 34.5528 129.863C35.0646 129.628 35.768 130.042 36.1241 130.787Z" fill="#624D9E"/>
<path d="M35.4115 130.183C35.7676 130.929 35.6419 131.724 35.1304 131.959C34.6186 132.194 33.9155 131.78 33.5591 131.034C33.2026 130.288 33.3287 129.493 33.8401 129.258C34.352 129.023 35.0554 129.437 35.4115 130.183Z" fill="#DFB4EA"/>
<path d="M32.0441 123.2C32.5491 122.543 33.3245 122.279 33.7754 122.612C34.227 122.946 34.1832 123.749 33.6782 124.407C33.1729 125.065 32.3979 125.328 31.947 124.995C31.4953 124.662 31.5391 123.858 32.0441 123.2Z" fill="#624D9E"/>
<path d="M31.2981 122.678C31.8034 122.021 32.5784 121.757 33.0297 122.091C33.481 122.424 33.4376 123.227 32.9322 123.885C32.4273 124.543 31.6523 124.807 31.201 124.473C30.7497 124.14 30.7931 123.336 31.2981 122.678Z" fill="#DFB4EA"/>
<path d="M40.7866 133.593C41.0208 134.084 40.8049 134.669 40.3048 134.899C39.804 135.128 39.2084 134.917 38.9738 134.426C38.7396 133.935 38.9552 133.351 39.4552 133.121C39.956 132.891 40.5516 133.102 40.7866 133.593Z" fill="#624D9E"/>
<path d="M40.5589 133.117C40.7935 133.609 40.578 134.193 40.0772 134.423C39.5771 134.653 38.9807 134.441 38.7465 133.95C38.5123 133.459 38.7275 132.875 39.2283 132.645C39.7287 132.415 40.3247 132.626 40.5589 133.117Z" fill="#DFB4EA"/>
<path d="M43.0293 122.928C42.8244 123.563 42.1332 123.916 41.485 123.715C40.8368 123.514 40.4777 122.836 40.6826 122.2C40.8875 121.564 41.5791 121.212 42.2273 121.413C42.8751 121.614 43.2342 122.292 43.0293 122.928Z" fill="#624D9E"/>
<path d="M43.2285 122.311C43.0236 122.947 42.3316 123.3 41.6838 123.099C41.0356 122.898 40.6765 122.22 40.8814 121.584C41.0863 120.948 41.7779 120.596 42.4257 120.797C43.0739 120.998 43.433 121.676 43.2285 122.311Z" fill="#DFB4EA"/>
<path d="M45.8197 132.35C45.9915 132.71 45.8334 133.138 45.4667 133.307C45.0995 133.475 44.6623 133.32 44.4906 132.96C44.3188 132.6 44.4769 132.172 44.844 132.003C45.2108 131.834 45.6476 131.99 45.8197 132.35Z" fill="#624D9E"/>
<path d="M45.6529 132.001C45.8246 132.361 45.6666 132.789 45.2995 132.958C44.9327 133.127 44.4959 132.972 44.3241 132.612C44.1516 132.251 44.3097 131.823 44.6768 131.654C45.0439 131.486 45.4811 131.641 45.6529 132.001Z" fill="#DFB4EA"/>
<path d="M54.3669 122.407C54.1612 122.509 53.7351 122.088 53.4155 121.467C53.307 121.257 53.2251 121.051 53.1718 120.867C53.0671 120.505 53.0724 120.226 53.2087 120.158C53.4144 120.056 53.8402 120.477 54.1601 121.098C54.4796 121.72 54.5725 122.305 54.3669 122.407Z" fill="#8F53BF"/>
<path d="M53.187 120.919C53.187 120.919 53.4174 121.609 53.7723 122.027C53.5659 122.137 53.3301 122.264 53.0952 122.397C53.0952 122.397 52.829 121.443 52.931 121.027L53.187 120.919Z" fill="#624D9E"/>
<path d="M48.6143 116.761C48.4897 116.951 47.9051 116.8 47.3088 116.423C47.1069 116.296 46.9298 116.159 46.7885 116.026C46.512 115.766 46.3719 115.523 46.4545 115.397C46.5795 115.207 47.164 115.358 47.7604 115.735C48.3568 116.112 48.7392 116.571 48.6143 116.761Z" fill="#8F53BF"/>
<path d="M46.8289 116.064C46.8289 116.064 47.3404 116.58 47.9059 116.728C47.7719 116.921 47.6382 117.137 47.5041 117.368C47.5041 117.368 46.7969 116.695 46.6701 116.286L46.8289 116.064Z" fill="#624D9E"/>
<path d="M42.8073 112.49C42.7936 112.715 42.2087 112.865 41.5007 112.823C41.2611 112.81 41.0384 112.776 40.8487 112.728C40.4778 112.635 40.234 112.489 40.2432 112.34C40.2569 112.115 40.8418 111.965 41.5498 112.007C42.2582 112.048 42.8211 112.265 42.8073 112.49Z" fill="#8F53BF"/>
<path d="M40.9028 112.741C40.9028 112.741 41.6267 112.893 42.1736 112.802C42.1672 113.033 42.1599 113.297 42.1592 113.563C42.1592 113.563 41.1842 113.309 40.8693 113.013L40.9028 112.741Z" fill="#624D9E"/>
<path d="M35.0447 114.375C35.1495 114.577 34.7218 114.996 34.09 115.312C33.8759 115.419 33.6665 115.501 33.4783 115.554C33.1101 115.657 32.8252 115.653 32.7563 115.52C32.6515 115.319 33.0788 114.899 33.711 114.584C34.3432 114.267 34.94 114.175 35.0447 114.375Z" fill="#8F53BF"/>
<path d="M33.532 115.538C33.532 115.538 34.2442 115.364 34.6593 114.96C34.7609 115.17 34.8843 115.392 35.0211 115.623C35.0211 115.623 34.0724 115.883 33.6478 115.785L33.532 115.538Z" fill="#624D9E"/>
<path d="M47.147 128.933C47.1058 129.756 46.6153 130.4 46.0513 130.373C45.4869 130.346 45.0626 129.657 45.1038 128.835C45.1449 128.012 45.6354 127.368 46.1994 127.395C46.7638 127.422 47.1877 128.11 47.147 128.933Z" fill="#624D9E"/>
<path d="M47.3689 128.385C47.3274 129.208 46.8369 129.853 46.2729 129.826C45.7085 129.799 45.2846 129.11 45.3253 128.288C45.3665 127.465 45.857 126.82 46.421 126.847C46.9854 126.874 47.4097 127.563 47.3689 128.385Z" fill="#DFB4EA"/>
<path d="M40.9111 126.551C41.2672 127.296 40.9396 128.184 40.1791 128.533C39.419 128.883 38.5137 128.562 38.1576 127.816C37.8015 127.07 38.1291 126.182 38.8892 125.833C39.6497 125.483 40.5546 125.805 40.9111 126.551Z" fill="#624D9E"/>
<path d="M40.8999 125.936C41.2564 126.681 40.9285 127.569 40.168 127.919C39.4078 128.268 38.5026 127.947 38.1469 127.201C37.7904 126.455 38.1183 125.568 38.8785 125.218C39.639 124.869 40.5439 125.19 40.8999 125.936Z" fill="#DFB4EA"/>
<path d="M48.0071 132.3C48.1157 132.373 48.0856 132.645 47.8948 133.069C47.7051 133.493 47.3376 134.056 46.7687 134.666C46.4849 134.972 46.1445 135.28 45.7575 135.588C45.3641 135.887 44.9269 136.191 44.4326 136.458C43.4508 137 42.2615 137.429 40.9579 137.621C39.652 137.802 38.3872 137.725 37.2881 137.48C36.7367 137.363 36.229 137.194 35.7648 137.018C35.3043 136.83 34.8881 136.631 34.5274 136.417C33.8042 135.992 33.2878 135.555 32.9831 135.202C32.6773 134.85 32.5688 134.597 32.6514 134.497C32.8327 134.277 33.6949 134.737 35.1052 135.186C35.4563 135.3 35.8463 135.405 36.2629 135.506C36.683 135.596 37.1297 135.688 37.6046 135.742C38.5521 135.862 39.6009 135.873 40.6757 135.725C41.7485 135.565 42.7501 135.261 43.6233 134.881C44.0624 134.696 44.4638 134.483 44.8401 134.279C45.2099 134.066 45.553 133.856 45.8566 133.648C47.0768 132.822 47.7695 132.14 48.0071 132.3Z" fill="#624D9E"/>
<path d="M65.5315 131.646C65.4069 131.697 65.2828 131.746 65.1598 131.801C65.2828 131.745 65.4081 131.693 65.5315 131.646ZM80.4442 142.688C80.6065 141.32 80.4991 139.909 80.0939 138.532C80.7908 137.586 83.7724 136.027 83.7724 136.027L83.2145 134.906C81.8937 135.534 78.9152 135.882 78.9152 135.882C78.9837 135.986 79.0595 136.128 79.1384 136.289C77.6798 133.72 75.2675 131.954 72.5472 131.218C72.0438 130.194 72.1736 126.802 72.1736 126.802L70.9051 126.712C70.7965 128.114 69.6593 130.716 69.6064 130.835C68.5545 130.841 67.4928 131 66.4523 131.319C65.5063 130.69 64.6593 128.96 64.6593 128.96L63.5184 129.511C64.1227 130.723 64.3413 132.036 64.3665 132.198C63.5256 132.66 62.7696 133.217 62.1058 133.851C60.8891 133.709 58.0278 131.975 58.0278 131.975L57.3126 133.025C58.4022 133.743 59.953 135.68 60.2999 136.123C59.6925 137.149 59.2637 138.267 59.0306 139.431C57.9707 139.837 56.292 139.708 56.292 139.708L56.2173 140.969C57.3267 141.035 58.3714 141.347 58.8276 141.5C58.8295 142.442 58.9601 143.392 59.2275 144.328C58.2704 145.288 55.7123 146.626 55.7123 146.626L56.2779 147.761C57.345 147.253 59.4792 146.926 60.298 146.815C60.918 147.864 61.6987 148.774 62.5956 149.53C62.4124 150.629 61.4653 151.974 61.4653 151.974L62.5385 152.671C63.1577 151.76 63.962 151.029 64.3242 150.722C65.6686 151.468 67.1652 151.928 68.7095 152.064C69.4148 153.143 70.063 156.139 70.063 156.139L71.3312 155.921C71.1358 154.813 71.3834 152.811 71.5068 151.954C72.4417 151.796 73.3713 151.517 74.2724 151.103C74.7271 150.894 75.1582 150.655 75.5688 150.395C76.5197 150.991 77.4025 152.314 77.4025 152.314L78.4658 151.603C77.7433 150.558 77.3404 149.379 77.2456 149.083C78.3519 148.024 79.2001 146.756 79.7557 145.375C81.1111 145.256 83.9681 145.895 83.9681 145.895L84.2983 144.674C83.0248 144.339 80.907 142.989 80.4442 142.688Z" fill="#8F53BF"/>
<path d="M77.906 130.728L76.8461 130.039C76.0311 131.237 74.7816 132.191 74.7816 132.191C75.4926 132.544 76.7593 133.397 76.7593 133.397C76.8122 132.278 77.906 130.728 77.906 130.728Z" fill="#8F53BF"/>
<path d="M77.821 142.105C77.2604 142.075 76.8945 141.056 76.1351 139.799C76.0501 139.639 75.9325 139.482 75.8331 139.315C75.7279 139.15 75.6053 138.986 75.4907 138.815C75.2374 138.483 74.975 138.135 74.6612 137.806C74.0477 137.14 73.2917 136.522 72.4299 136.046C71.5589 135.585 70.6228 135.287 69.7206 135.134C69.2693 135.05 68.8295 135.018 68.4079 134.985C68.1992 134.981 67.9924 134.967 67.7936 134.968C67.5967 134.974 67.3987 134.961 67.2147 134.976C65.726 135.017 64.6532 135.257 64.328 134.808C64.2511 134.699 64.2328 134.558 64.2758 134.383C64.3208 134.213 64.4167 133.992 64.5934 133.774C64.9343 133.317 65.5657 132.797 66.4793 132.364C66.7056 132.248 66.9542 132.165 67.2147 132.066C67.4756 131.974 67.7551 131.902 68.0469 131.828C68.6326 131.704 69.2766 131.609 69.9617 131.612C70.6453 131.616 71.3735 131.673 72.1104 131.857C72.8469 132.034 73.5956 132.307 74.3162 132.691C75.031 133.083 75.6659 133.559 76.2116 134.075C76.7631 134.587 77.2003 135.161 77.5693 135.726C77.9376 136.293 78.1992 136.877 78.4052 137.429C78.497 137.711 78.5839 137.981 78.6436 138.247C78.6981 138.515 78.7586 138.766 78.7792 139.016C78.8942 140.004 78.7826 140.806 78.5709 141.332C78.4772 141.595 78.3374 141.793 78.2148 141.922C78.0872 142.05 77.9558 142.11 77.821 142.105Z" fill="#BE99E3"/>
<path d="M58.064 131.271C58.2597 131.396 58.1013 131.976 57.7106 132.566C57.5784 132.766 57.4364 132.941 57.2989 133.082C57.0296 133.355 56.7779 133.493 56.6484 133.411C56.4531 133.286 56.6115 132.706 57.0022 132.116C57.3933 131.525 57.8686 131.147 58.064 131.271Z" fill="#8F53BF"/>
<path d="M57.338 133.042C57.338 133.042 57.8362 132.492 58.0277 131.974C58.2315 132.096 58.4642 132.233 58.7029 132.367C58.7029 132.367 57.9877 133.081 57.565 133.206L57.338 133.042Z" fill="#624D9E"/>
<path d="M55.9601 139.083C56.1928 139.094 56.3558 139.672 56.3238 140.376C56.3132 140.614 56.2812 140.835 56.2351 141.024C56.1444 141.394 55.9978 141.638 55.844 141.631C55.6113 141.621 55.4483 141.042 55.4803 140.339C55.5123 139.635 55.7274 139.073 55.9601 139.083Z" fill="#8F53BF"/>
<path d="M56.2481 140.971C56.2481 140.971 56.4477 140.269 56.2919 139.708C56.5318 139.725 56.7927 139.73 57.0673 139.726C57.0673 139.726 56.8277 140.676 56.5273 140.993L56.2481 140.971Z" fill="#624D9E"/>
<path d="M55.1105 146.242C55.3185 146.139 55.7499 146.564 56.074 147.193C56.1837 147.406 56.2671 147.614 56.3208 147.801C56.4267 148.167 56.4218 148.45 56.2839 148.518C56.076 148.621 55.6445 148.195 55.3204 147.567C54.9967 146.938 54.9026 146.345 55.1105 146.242Z" fill="#8F53BF"/>
<path d="M56.3053 147.748C56.3053 147.748 56.0722 147.049 55.7123 146.626C55.9214 146.515 56.1598 146.386 56.3978 146.251C56.3978 146.251 56.6675 147.217 56.5647 147.638L56.3053 147.748Z" fill="#624D9E"/>
<path d="M60.7477 151.94C60.8741 151.748 61.4659 151.901 62.0699 152.283C62.2741 152.411 62.4534 152.55 62.5966 152.684C62.8769 152.947 63.0182 153.194 62.9344 153.321C62.8084 153.513 62.2169 153.36 61.6129 152.979C61.0089 152.598 60.6216 152.133 60.7477 151.94Z" fill="#8F53BF"/>
<path d="M62.5555 152.646C62.5555 152.646 62.0375 152.124 61.4651 151.974C61.6007 151.779 61.7363 151.56 61.8715 151.326C61.8715 151.326 62.5879 152.006 62.7162 152.421L62.5555 152.646Z" fill="#624D9E"/>
<path d="M69.5191 156.599C69.4761 156.375 70.0127 156.086 70.7184 155.955C70.9572 155.911 71.1842 155.89 71.3822 155.891C71.7703 155.892 72.0456 155.976 72.0742 156.125C72.118 156.35 71.581 156.638 70.8753 156.769C70.1696 156.9 69.5629 156.824 69.5191 156.599Z" fill="#8F53BF"/>
<path d="M71.3259 155.891C71.3259 155.891 70.5772 155.918 70.063 156.139C70.0112 155.911 69.9518 155.651 69.8856 155.389C69.8856 155.389 70.9066 155.403 71.2905 155.617L71.3259 155.891Z" fill="#624D9E"/>
<path d="M77.1 152.953C76.9659 152.766 77.3342 152.287 77.9222 151.882C78.1206 151.745 78.3194 151.635 78.5 151.556C78.8538 151.4 79.1401 151.365 79.2285 151.489C79.3625 151.676 78.9947 152.156 78.4066 152.56C77.8186 152.965 77.2337 153.141 77.1 152.953Z" fill="#8F53BF"/>
<path d="M78.4486 151.578C78.4486 151.578 77.76 151.851 77.4024 152.314C77.2695 152.118 77.1142 151.912 76.9435 151.7C76.9435 151.7 77.8572 151.307 78.2966 151.347L78.4486 151.578Z" fill="#624D9E"/>
<path d="M84.1654 146.572C83.9396 146.516 83.8981 145.917 84.0729 145.234C84.1319 145.003 84.2085 144.792 84.2922 144.616C84.4564 144.272 84.6495 144.062 84.7991 144.098C85.025 144.154 85.0669 144.753 84.8921 145.436C84.7169 146.119 84.3916 146.628 84.1654 146.572Z" fill="#8F53BF"/>
<path d="M84.2686 144.666C84.2686 144.666 83.9784 145.344 83.9681 145.895C83.7351 145.845 83.4692 145.789 83.1992 145.738C83.1992 145.738 83.6402 144.835 83.9997 144.583L84.2686 144.666Z" fill="#624D9E"/>
<path d="M66.1241 144.787C66.4805 145.533 66.3545 146.328 65.843 146.563C65.3312 146.799 64.6282 146.384 64.2717 145.639C63.9156 144.893 64.0417 144.098 64.5528 143.863C65.0646 143.628 65.768 144.042 66.1241 144.787Z" fill="#624D9E"/>
<path d="M65.4115 144.183C65.7676 144.929 65.6419 145.724 65.1304 145.959C64.6186 146.194 63.9155 145.78 63.5591 145.034C63.2026 144.288 63.3287 143.493 63.8401 143.258C64.352 143.023 65.0554 143.437 65.4115 144.183Z" fill="#DFB4EA"/>
<path d="M62.0441 137.2C62.5491 136.543 63.3245 136.279 63.7754 136.612C64.227 136.946 64.1832 137.749 63.6782 138.407C63.1729 139.065 62.3979 139.328 61.947 138.995C61.4953 138.662 61.5391 137.858 62.0441 137.2Z" fill="#624D9E"/>
<path d="M61.2981 136.678C61.8034 136.021 62.5784 135.757 63.0297 136.091C63.481 136.424 63.4376 137.227 62.9322 137.885C62.4273 138.543 61.6523 138.807 61.201 138.473C60.7497 138.14 60.7931 137.336 61.2981 136.678Z" fill="#DFB4EA"/>
<path d="M70.7866 147.593C71.0208 148.084 70.8049 148.669 70.3048 148.899C69.804 149.128 69.2084 148.917 68.9738 148.426C68.7396 147.935 68.9552 147.351 69.4552 147.121C69.956 146.891 70.5516 147.102 70.7866 147.593Z" fill="#624D9E"/>
<path d="M70.5589 147.117C70.7935 147.609 70.578 148.193 70.0772 148.423C69.5771 148.653 68.9807 148.441 68.7465 147.95C68.5123 147.459 68.7275 146.875 69.2283 146.645C69.7287 146.415 70.3247 146.626 70.5589 147.117Z" fill="#DFB4EA"/>
<path d="M73.0293 136.928C72.8244 137.563 72.1332 137.916 71.485 137.715C70.8368 137.514 70.4777 136.836 70.6826 136.2C70.8875 135.564 71.5791 135.212 72.2273 135.413C72.8751 135.614 73.2342 136.292 73.0293 136.928Z" fill="#624D9E"/>
<path d="M73.2285 136.311C73.0236 136.947 72.3316 137.3 71.6838 137.099C71.0356 136.898 70.6765 136.22 70.8814 135.584C71.0863 134.948 71.7779 134.596 72.4257 134.797C73.0739 134.998 73.433 135.676 73.2285 136.311Z" fill="#DFB4EA"/>
<path d="M75.8197 146.35C75.9915 146.71 75.8334 147.138 75.4667 147.307C75.0995 147.475 74.6623 147.32 74.4906 146.96C74.3188 146.6 74.4769 146.172 74.844 146.003C75.2108 145.834 75.6476 145.99 75.8197 146.35Z" fill="#624D9E"/>
<path d="M75.6529 146.001C75.8246 146.361 75.6666 146.789 75.2995 146.958C74.9327 147.127 74.4959 146.972 74.3241 146.612C74.1516 146.251 74.3097 145.823 74.6768 145.654C75.0439 145.486 75.4811 145.641 75.6529 146.001Z" fill="#DFB4EA"/>
<path d="M84.3668 136.407C84.1612 136.509 83.735 136.088 83.4155 135.467C83.3069 135.257 83.2251 135.051 83.1718 134.867C83.067 134.505 83.0723 134.226 83.2087 134.158C83.4143 134.056 83.8401 134.477 84.16 135.098C84.4795 135.72 84.5725 136.305 84.3668 136.407Z" fill="#8F53BF"/>
<path d="M83.187 134.919C83.187 134.919 83.4174 135.609 83.7723 136.027C83.5659 136.137 83.3301 136.264 83.0952 136.397C83.0952 136.397 82.829 135.443 82.931 135.027L83.187 134.919Z" fill="#624D9E"/>
<path d="M78.6143 130.761C78.4897 130.951 77.9051 130.8 77.3088 130.423C77.1069 130.296 76.9298 130.159 76.7885 130.026C76.512 129.766 76.3719 129.523 76.4545 129.397C76.5795 129.207 77.164 129.358 77.7604 129.735C78.3568 130.112 78.7392 130.571 78.6143 130.761Z" fill="#8F53BF"/>
<path d="M76.8289 130.064C76.8289 130.064 77.3404 130.58 77.9059 130.728C77.7719 130.921 77.6382 131.137 77.5041 131.368C77.5041 131.368 76.7969 130.695 76.6701 130.286L76.8289 130.064Z" fill="#624D9E"/>
<path d="M72.8073 126.49C72.7936 126.715 72.2087 126.865 71.5007 126.823C71.2611 126.81 71.0384 126.776 70.8487 126.728C70.4778 126.635 70.234 126.489 70.2432 126.34C70.2569 126.115 70.8418 125.965 71.5498 126.007C72.2582 126.048 72.8211 126.265 72.8073 126.49Z" fill="#8F53BF"/>
<path d="M70.9028 126.741C70.9028 126.741 71.6267 126.893 72.1736 126.802C72.1672 127.033 72.1599 127.297 72.1592 127.563C72.1592 127.563 71.1842 127.309 70.8693 127.013L70.9028 126.741Z" fill="#624D9E"/>
<path d="M65.0447 128.375C65.1495 128.577 64.7218 128.996 64.09 129.312C63.8759 129.419 63.6665 129.501 63.4783 129.554C63.1101 129.657 62.8252 129.653 62.7563 129.52C62.6515 129.319 63.0788 128.899 63.711 128.584C64.3432 128.267 64.94 128.175 65.0447 128.375Z" fill="#8F53BF"/>
<path d="M63.532 129.538C63.532 129.538 64.2442 129.364 64.6593 128.96C64.7609 129.17 64.8843 129.392 65.0211 129.623C65.0211 129.623 64.0724 129.883 63.6478 129.785L63.532 129.538Z" fill="#624D9E"/>
<path d="M77.147 142.933C77.1058 143.756 76.6153 144.4 76.0513 144.373C75.4869 144.346 75.0626 143.657 75.1038 142.835C75.1449 142.012 75.6354 141.368 76.1994 141.395C76.7638 141.422 77.1877 142.11 77.147 142.933Z" fill="#624D9E"/>
<path d="M77.3689 142.385C77.3274 143.208 76.8369 143.853 76.2729 143.826C75.7085 143.799 75.2846 143.11 75.3253 142.288C75.3665 141.465 75.857 140.82 76.421 140.847C76.9854 140.874 77.4097 141.563 77.3689 142.385Z" fill="#DFB4EA"/>
<path d="M70.9111 140.551C71.2672 141.296 70.9396 142.184 70.1791 142.533C69.419 142.883 68.5137 142.562 68.1576 141.816C67.8015 141.07 68.1291 140.182 68.8892 139.833C69.6497 139.483 70.5546 139.805 70.9111 140.551Z" fill="#624D9E"/>
<path d="M70.8999 139.936C71.2564 140.681 70.9285 141.569 70.168 141.919C69.4078 142.268 68.5026 141.947 68.1469 141.201C67.7904 140.455 68.1183 139.568 68.8785 139.218C69.639 138.869 70.5439 139.19 70.8999 139.936Z" fill="#DFB4EA"/>
<path d="M78.0071 146.3C78.1157 146.373 78.0856 146.645 77.8948 147.069C77.7051 147.493 77.3376 148.056 76.7687 148.666C76.4849 148.972 76.1445 149.28 75.7575 149.588C75.3641 149.887 74.9269 150.191 74.4326 150.458C73.4508 151 72.2615 151.429 70.9579 151.621C69.652 151.802 68.3872 151.725 67.2881 151.48C66.7367 151.363 66.229 151.194 65.7648 151.018C65.3043 150.83 64.8881 150.631 64.5274 150.417C63.8042 149.992 63.2878 149.555 62.9831 149.202C62.6773 148.85 62.5688 148.597 62.6514 148.497C62.8327 148.277 63.6949 148.737 65.1052 149.186C65.4563 149.3 65.8463 149.405 66.2629 149.506C66.683 149.596 67.1297 149.688 67.6046 149.742C68.5521 149.862 69.6009 149.873 70.6757 149.725C71.7485 149.565 72.7501 149.261 73.6233 148.881C74.0624 148.696 74.4638 148.483 74.8401 148.279C75.2099 148.066 75.553 147.856 75.8566 147.648C77.0768 146.822 77.7695 146.14 78.0071 146.3Z" fill="#624D9E"/>
<path d="M126.531 106.646C126.407 106.697 126.283 106.746 126.16 106.801C126.283 106.745 126.408 106.693 126.531 106.646ZM141.444 117.688C141.606 116.32 141.499 114.909 141.094 113.532C141.791 112.586 144.772 111.027 144.772 111.027L144.214 109.906C142.894 110.534 139.915 110.882 139.915 110.882C139.984 110.986 140.059 111.128 140.138 111.289C138.68 108.72 136.267 106.954 133.547 106.218C133.044 105.194 133.174 101.802 133.174 101.802L131.905 101.712C131.796 103.114 130.659 105.716 130.606 105.835C129.554 105.841 128.493 106 127.452 106.319C126.506 105.69 125.659 103.96 125.659 103.96L124.518 104.511C125.123 105.723 125.341 107.036 125.366 107.198C124.526 107.66 123.77 108.217 123.106 108.851C121.889 108.709 119.028 106.975 119.028 106.975L118.313 108.025C119.402 108.743 120.953 110.68 121.3 111.123C120.692 112.149 120.264 113.267 120.031 114.431C118.971 114.837 117.292 114.708 117.292 114.708L117.217 115.969C118.327 116.035 119.371 116.347 119.828 116.5C119.829 117.442 119.96 118.392 120.227 119.328C119.27 120.288 116.712 121.626 116.712 121.626L117.278 122.761C118.345 122.253 120.479 121.926 121.298 121.815C121.918 122.864 122.699 123.774 123.596 124.53C123.412 125.629 122.465 126.974 122.465 126.974L123.538 127.671C124.158 126.76 124.962 126.029 125.324 125.722C126.669 126.468 128.165 126.928 129.709 127.064C130.415 128.143 131.063 131.139 131.063 131.139L132.331 130.921C132.136 129.813 132.383 127.811 132.507 126.954C133.442 126.796 134.371 126.517 135.272 126.103C135.727 125.894 136.158 125.655 136.569 125.395C137.52 125.991 138.402 127.314 138.402 127.314L139.466 126.603C138.743 125.558 138.34 124.379 138.246 124.083C139.352 123.024 140.2 121.756 140.756 120.375C142.111 120.256 144.968 120.895 144.968 120.895L145.298 119.674C144.025 119.339 141.907 117.989 141.444 117.688Z" fill="#8F53BF"/>
<path d="M138.906 105.728L137.846 105.039C137.031 106.237 135.782 107.191 135.782 107.191C136.493 107.544 137.759 108.397 137.759 108.397C137.812 107.278 138.906 105.728 138.906 105.728Z" fill="#8F53BF"/>
<path d="M138.821 117.105C138.26 117.075 137.894 116.056 137.135 114.799C137.05 114.639 136.932 114.482 136.833 114.315C136.728 114.15 136.605 113.986 136.491 113.815C136.237 113.483 135.975 113.135 135.661 112.806C135.048 112.14 134.292 111.522 133.43 111.046C132.559 110.585 131.623 110.287 130.721 110.134C130.269 110.05 129.829 110.018 129.408 109.985C129.199 109.981 128.992 109.967 128.794 109.968C128.597 109.974 128.399 109.961 128.215 109.976C126.726 110.017 125.653 110.257 125.328 109.808C125.251 109.699 125.233 109.558 125.276 109.383C125.321 109.213 125.417 108.992 125.593 108.774C125.934 108.317 126.566 107.797 127.479 107.364C127.706 107.248 127.954 107.165 128.215 107.066C128.476 106.974 128.755 106.902 129.047 106.828C129.633 106.704 130.277 106.609 130.962 106.612C131.645 106.616 132.373 106.673 133.11 106.857C133.847 107.034 134.596 107.307 135.316 107.691C136.031 108.083 136.666 108.559 137.212 109.075C137.763 109.587 138.2 110.161 138.569 110.726C138.938 111.293 139.199 111.877 139.405 112.429C139.497 112.711 139.584 112.981 139.644 113.247C139.698 113.515 139.759 113.766 139.779 114.016C139.894 115.004 139.783 115.806 139.571 116.332C139.477 116.595 139.337 116.793 139.215 116.922C139.087 117.05 138.956 117.11 138.821 117.105Z" fill="#BE99E3"/>
<path d="M119.064 106.271C119.26 106.396 119.101 106.976 118.711 107.566C118.578 107.766 118.436 107.941 118.299 108.082C118.03 108.355 117.778 108.493 117.648 108.411C117.453 108.286 117.611 107.706 118.002 107.116C118.393 106.525 118.869 106.147 119.064 106.271Z" fill="#8F53BF"/>
<path d="M118.338 108.042C118.338 108.042 118.836 107.492 119.028 106.974C119.231 107.096 119.464 107.233 119.703 107.367C119.703 107.367 118.988 108.081 118.565 108.206L118.338 108.042Z" fill="#624D9E"/>
<path d="M116.96 114.083C117.193 114.094 117.356 114.672 117.324 115.376C117.313 115.614 117.281 115.835 117.235 116.024C117.144 116.394 116.998 116.638 116.844 116.631C116.611 116.621 116.448 116.042 116.48 115.339C116.512 114.635 116.727 114.073 116.96 114.083Z" fill="#8F53BF"/>
<path d="M117.248 115.971C117.248 115.971 117.448 115.269 117.292 114.708C117.532 114.725 117.793 114.73 118.067 114.726C118.067 114.726 117.828 115.676 117.527 115.993L117.248 115.971Z" fill="#624D9E"/>
<path d="M116.111 121.242C116.318 121.139 116.75 121.564 117.074 122.193C117.184 122.406 117.267 122.614 117.321 122.801C117.427 123.167 117.422 123.45 117.284 123.518C117.076 123.621 116.644 123.195 116.32 122.567C115.997 121.938 115.903 121.345 116.111 121.242Z" fill="#8F53BF"/>
<path d="M117.305 122.748C117.305 122.748 117.072 122.049 116.712 121.626C116.921 121.515 117.16 121.386 117.398 121.251C117.398 121.251 117.667 122.217 117.565 122.638L117.305 122.748Z" fill="#624D9E"/>
<path d="M121.748 126.94C121.874 126.748 122.466 126.901 123.07 127.283C123.274 127.411 123.453 127.55 123.597 127.684C123.877 127.947 124.018 128.194 123.934 128.321C123.808 128.513 123.217 128.36 122.613 127.979C122.009 127.598 121.622 127.133 121.748 126.94Z" fill="#8F53BF"/>
<path d="M123.555 127.646C123.555 127.646 123.037 127.124 122.465 126.974C122.601 126.779 122.736 126.56 122.871 126.326C122.871 126.326 123.588 127.006 123.716 127.421L123.555 127.646Z" fill="#624D9E"/>
<path d="M130.519 131.599C130.476 131.375 131.013 131.086 131.718 130.955C131.957 130.911 132.184 130.89 132.382 130.891C132.77 130.892 133.046 130.976 133.074 131.125C133.118 131.35 132.581 131.638 131.875 131.769C131.17 131.9 130.563 131.824 130.519 131.599Z" fill="#8F53BF"/>
<path d="M132.326 130.891C132.326 130.891 131.577 130.918 131.063 131.139C131.011 130.911 130.952 130.651 130.885 130.389C130.885 130.389 131.907 130.403 132.29 130.617L132.326 130.891Z" fill="#624D9E"/>
<path d="M138.1 127.953C137.966 127.766 138.334 127.287 138.922 126.882C139.121 126.745 139.32 126.635 139.5 126.556C139.854 126.4 140.14 126.365 140.229 126.489C140.363 126.676 139.995 127.156 139.407 127.56C138.819 127.965 138.234 128.141 138.1 127.953Z" fill="#8F53BF"/>
<path d="M139.449 126.578C139.449 126.578 138.76 126.851 138.403 127.314C138.27 127.118 138.114 126.912 137.944 126.7C137.944 126.7 138.857 126.307 139.297 126.347L139.449 126.578Z" fill="#624D9E"/>
<path d="M145.165 121.572C144.94 121.516 144.898 120.917 145.073 120.234C145.132 120.003 145.208 119.792 145.292 119.616C145.456 119.272 145.649 119.062 145.799 119.098C146.025 119.154 146.067 119.753 145.892 120.436C145.717 121.119 145.392 121.628 145.165 121.572Z" fill="#8F53BF"/>
<path d="M145.269 119.666C145.269 119.666 144.978 120.344 144.968 120.895C144.735 120.845 144.469 120.789 144.199 120.738C144.199 120.738 144.64 119.835 145 119.583L145.269 119.666Z" fill="#624D9E"/>
<path d="M127.124 119.787C127.48 120.533 127.354 121.328 126.843 121.563C126.331 121.799 125.628 121.384 125.272 120.639C124.916 119.893 125.042 119.098 125.553 118.863C126.065 118.628 126.768 119.042 127.124 119.787Z" fill="#624D9E"/>
<path d="M126.411 119.183C126.767 119.929 126.642 120.724 126.13 120.959C125.619 121.194 124.915 120.78 124.559 120.034C124.203 119.288 124.329 118.493 124.84 118.258C125.352 118.023 126.055 118.437 126.411 119.183Z" fill="#DFB4EA"/>
<path d="M123.044 112.2C123.549 111.543 124.324 111.279 124.775 111.612C125.227 111.946 125.183 112.749 124.678 113.407C124.173 114.065 123.398 114.328 122.947 113.995C122.495 113.662 122.539 112.858 123.044 112.2Z" fill="#624D9E"/>
<path d="M122.298 111.678C122.803 111.021 123.578 110.757 124.03 111.091C124.481 111.424 124.438 112.227 123.932 112.885C123.427 113.543 122.652 113.807 122.201 113.473C121.75 113.14 121.793 112.336 122.298 111.678Z" fill="#DFB4EA"/>
<path d="M131.787 122.593C132.021 123.084 131.805 123.669 131.305 123.899C130.804 124.128 130.208 123.917 129.974 123.426C129.74 122.935 129.955 122.351 130.455 122.121C130.956 121.891 131.552 122.102 131.787 122.593Z" fill="#624D9E"/>
<path d="M131.559 122.117C131.794 122.609 131.578 123.193 131.077 123.423C130.577 123.653 129.981 123.441 129.747 122.95C129.512 122.459 129.728 121.875 130.228 121.645C130.729 121.415 131.325 121.626 131.559 122.117Z" fill="#DFB4EA"/>
<path d="M134.029 111.928C133.824 112.563 133.133 112.916 132.485 112.715C131.837 112.514 131.478 111.836 131.683 111.2C131.887 110.564 132.579 110.212 133.227 110.413C133.875 110.614 134.234 111.292 134.029 111.928Z" fill="#624D9E"/>
<path d="M134.228 111.311C134.024 111.947 133.332 112.3 132.684 112.099C132.036 111.898 131.676 111.22 131.881 110.584C132.086 109.948 132.778 109.596 133.426 109.797C134.074 109.998 134.433 110.676 134.228 111.311Z" fill="#DFB4EA"/>
<path d="M136.82 121.35C136.991 121.71 136.833 122.138 136.467 122.307C136.099 122.475 135.662 122.32 135.491 121.96C135.319 121.6 135.477 121.172 135.844 121.003C136.211 120.834 136.648 120.99 136.82 121.35Z" fill="#624D9E"/>
<path d="M136.653 121.001C136.825 121.361 136.667 121.789 136.299 121.958C135.933 122.127 135.496 121.972 135.324 121.612C135.152 121.251 135.31 120.823 135.677 120.654C136.044 120.486 136.481 120.641 136.653 121.001Z" fill="#DFB4EA"/>
<path d="M145.367 111.407C145.161 111.509 144.735 111.088 144.415 110.467C144.307 110.257 144.225 110.051 144.172 109.867C144.067 109.505 144.072 109.226 144.209 109.158C144.414 109.056 144.84 109.477 145.16 110.098C145.48 110.72 145.572 111.305 145.367 111.407Z" fill="#8F53BF"/>
<path d="M144.187 109.919C144.187 109.919 144.417 110.609 144.772 111.027C144.566 111.137 144.33 111.264 144.095 111.397C144.095 111.397 143.829 110.443 143.931 110.027L144.187 109.919Z" fill="#624D9E"/>
<path d="M139.614 105.761C139.49 105.951 138.905 105.8 138.309 105.423C138.107 105.296 137.93 105.159 137.788 105.026C137.512 104.766 137.372 104.523 137.454 104.397C137.579 104.207 138.164 104.358 138.76 104.735C139.357 105.112 139.739 105.571 139.614 105.761Z" fill="#8F53BF"/>
<path d="M137.829 105.064C137.829 105.064 138.34 105.58 138.906 105.728C138.772 105.921 138.638 106.137 138.504 106.368C138.504 106.368 137.797 105.695 137.67 105.286L137.829 105.064Z" fill="#624D9E"/>
<path d="M133.807 101.49C133.794 101.715 133.209 101.865 132.501 101.823C132.261 101.81 132.038 101.776 131.849 101.728C131.478 101.635 131.234 101.489 131.243 101.34C131.257 101.115 131.842 100.965 132.55 101.007C133.258 101.048 133.821 101.265 133.807 101.49Z" fill="#8F53BF"/>
<path d="M131.903 101.741C131.903 101.741 132.627 101.893 133.174 101.802C133.167 102.033 133.16 102.297 133.159 102.563C133.159 102.563 132.184 102.309 131.869 102.013L131.903 101.741Z" fill="#624D9E"/>
<path d="M126.045 103.375C126.149 103.577 125.722 103.996 125.09 104.312C124.876 104.419 124.666 104.501 124.478 104.554C124.11 104.657 123.825 104.653 123.756 104.52C123.652 104.319 124.079 103.899 124.711 103.584C125.343 103.267 125.94 103.175 126.045 103.375Z" fill="#8F53BF"/>
<path d="M124.532 104.538C124.532 104.538 125.244 104.364 125.659 103.96C125.761 104.17 125.884 104.392 126.021 104.623C126.021 104.623 125.072 104.883 124.648 104.785L124.532 104.538Z" fill="#624D9E"/>
<path d="M138.147 117.933C138.106 118.756 137.615 119.4 137.051 119.373C136.487 119.346 136.063 118.657 136.104 117.835C136.145 117.012 136.635 116.368 137.199 116.395C137.764 116.422 138.188 117.11 138.147 117.933Z" fill="#624D9E"/>
<path d="M138.369 117.385C138.327 118.208 137.837 118.853 137.273 118.826C136.708 118.799 136.285 118.11 136.325 117.288C136.366 116.465 136.857 115.82 137.421 115.847C137.985 115.874 138.41 116.563 138.369 117.385Z" fill="#DFB4EA"/>
<path d="M131.911 115.551C132.267 116.296 131.94 117.184 131.179 117.533C130.419 117.883 129.514 117.562 129.158 116.816C128.801 116.07 129.129 115.182 129.889 114.833C130.65 114.483 131.555 114.805 131.911 115.551Z" fill="#624D9E"/>
<path d="M131.9 114.936C132.256 115.681 131.928 116.569 131.168 116.919C130.408 117.268 129.503 116.947 129.147 116.201C128.79 115.455 129.118 114.568 129.878 114.218C130.639 113.869 131.544 114.19 131.9 114.936Z" fill="#DFB4EA"/>
<path d="M139.007 121.3C139.116 121.373 139.086 121.645 138.895 122.069C138.705 122.493 138.338 123.056 137.769 123.666C137.485 123.972 137.145 124.28 136.758 124.588C136.364 124.887 135.927 125.191 135.433 125.458C134.451 126 133.262 126.429 131.958 126.621C130.652 126.802 129.387 126.725 128.288 126.48C127.737 126.363 127.229 126.194 126.765 126.018C126.304 125.83 125.888 125.631 125.527 125.417C124.804 124.992 124.288 124.555 123.983 124.202C123.677 123.85 123.569 123.597 123.651 123.497C123.833 123.277 124.695 123.737 126.105 124.186C126.456 124.3 126.846 124.405 127.263 124.506C127.683 124.596 128.13 124.688 128.605 124.742C129.552 124.862 130.601 124.873 131.676 124.725C132.749 124.565 133.75 124.261 134.623 123.881C135.062 123.696 135.464 123.483 135.84 123.279C136.21 123.066 136.553 122.856 136.857 122.648C138.077 121.822 138.77 121.14 139.007 121.3Z" fill="#624D9E"/>
<rect x="94.4346" y="93.5342" width="3.46041" height="20.3638" fill="white"/>
<mask id="mask0_4393_23644" style="mask-type:luminance" maskUnits="userSpaceOnUse" x="94" y="93" width="4" height="21">
<rect x="94.4346" y="93.5342" width="3.46041" height="20.3638" fill="white"/>
</mask>
<g mask="url(#mask0_4393_23644)">
<path d="M87.826 97.984C95.6058 100.403 96.7116 97.069 99.8981 96.5522C103.085 96.0353 95.0693 91.7761 95.0693 91.7761L90.777 94.4898" fill="#CED4DA"/>
</g>
<path d="M114.203 128.121H103.747V106.732C103.75 105.156 102.473 103.876 100.895 103.874H91.4353C89.8569 103.877 88.5797 105.156 88.5826 106.732V128.121H78.1268C73.6385 128.121 70 131.767 70 136.264V205.947C70 210.444 73.6385 214.09 78.1268 214.09H114.203C118.691 214.09 122.33 210.444 122.33 205.947V136.264C122.33 131.767 118.691 128.121 114.203 128.121Z" fill="#C1D1FF"/>
<mask id="mask1_4393_23644" style="mask-type:luminance" maskUnits="userSpaceOnUse" x="70" y="103" width="53" height="112">
<path fill-rule="evenodd" clip-rule="evenodd" d="M114.203 128.121H103.747V106.732C103.75 105.156 102.473 103.876 100.895 103.874H91.4353C89.8569 103.877 88.5797 105.156 88.5826 106.732V128.121H78.1268C73.6385 128.121 70 131.767 70 136.264V205.947C70 210.444 73.6385 214.09 78.1268 214.09H114.203C118.691 214.09 122.33 210.444 122.33 205.947V136.264C122.33 131.767 118.691 128.121 114.203 128.121Z" fill="white"/>
</mask>
<g mask="url(#mask1_4393_23644)">
<path d="M134.726 158.982C126.111 119.403 88.4333 127.124 88.4333 127.124L141.002 121.234L136.672 151.16L135.538 157.448" fill="#798FCF"/>
<path d="M66.0965 164.493C80.8512 218.267 124.042 214.09 124.042 214.09L60.1946 224.18L64.2187 176.873L65.2917 166.928" fill="#798FCF"/>
</g>
<path d="M116.34 87V87.0647C116.34 89.6667 114.798 91.776 112.897 91.776H106.197C104.478 91.776 103.085 93.6829 103.085 96.0352C103.085 96.3207 102.916 96.5521 102.707 96.5521H89.351C89.1425 96.5521 88.9734 96.3207 88.9734 96.0352V89.9749C88.9734 88.3319 89.9465 87 91.1469 87H116.34Z" fill="#4F4F5B"/>
<path d="M72.5999 157.884H119.73V202.54C119.73 205.042 118.734 207.442 116.962 209.211C115.189 210.981 112.785 211.975 110.278 211.975H82.0513C76.8314 211.975 72.5998 207.751 72.5999 202.54V157.884H72.5999Z" fill="#2B478B"/>
<rect x="94.4985" y="113.898" width="3.3329" height="79.5357" fill="white"/>
<rect x="86.9778" y="107.495" width="18.374" height="19.6291" rx="2.98823" fill="#2B478B"/>
<mask id="mask2_4393_23644" style="mask-type:luminance" maskUnits="userSpaceOnUse" x="86" y="107" width="20" height="21">
<rect x="86.9778" y="107.495" width="18.374" height="19.6291" rx="2.98823" fill="white"/>
</mask>
<g mask="url(#mask2_4393_23644)">
<rect x="89.4078" y="105.553" width="1.09962" height="22.988" fill="#798FCF"/>
<rect x="91.9229" y="105.553" width="1.09962" height="22.988" fill="#798FCF"/>
<rect x="95.0645" y="105.553" width="1.09962" height="22.988" fill="#798FCF"/>
<rect x="102.106" y="105.553" width="1.09962" height="22.988" fill="#798FCF"/>
</g>
<rect x="81.4976" y="164.493" width="29.3341" height="29.391" rx="4.35424" fill="#E3EEFF"/>
<path d="M105.594 177.055H98.2936V169.741H94.0362V177.055H86.7361V181.321H94.0362V188.635H98.2936V181.321H105.594V177.055Z" fill="#2B478B"/>
<path d="M92.3138 157.226C93.4086 157.822 94.0762 158.981 94.0422 160.225C93.4599 179.651 84.5462 199.191 66.9639 211.74C65.8036 212.57 64.2423 212.57 63.082 211.74C45.4756 199.174 36.5616 179.598 36.0012 160.145C35.9681 158.939 36.5954 157.81 37.6383 157.199C45.0275 152.866 53.6256 148.492 62.8897 143.533C64.222 142.819 65.8252 142.823 67.1539 143.543C72.3084 146.341 85.5244 153.516 92.3138 157.226Z" fill="#4F4F5B"/>
<path d="M92.3138 158.514C93.4086 159.11 94.0762 160.269 94.0422 161.513C93.4599 180.939 84.5462 200.479 66.9639 213.028C65.8036 213.858 64.2423 213.858 63.082 213.028C45.4756 200.462 36.5616 180.886 36.0012 161.434C35.9681 160.227 36.5954 159.098 37.6383 158.487C45.0275 154.154 53.6256 149.78 62.8897 144.821C64.222 144.107 65.8252 144.111 67.1539 144.831C72.3084 147.629 85.5244 154.804 92.3138 158.514Z" fill="white"/>
<path d="M92.3138 158.514C93.4086 159.11 94.0762 160.269 94.0422 161.513C93.4599 180.939 84.5462 200.479 66.9639 213.028C65.8036 213.858 64.2423 213.858 63.082 213.028C45.4756 200.462 36.5616 180.886 36.0012 161.434C35.9681 160.227 36.5954 159.098 37.6383 158.487C45.0275 154.154 53.6256 149.78 62.8897 144.821C64.222 144.107 65.8252 144.111 67.1539 144.831C72.3084 147.629 85.5244 154.804 92.3138 158.514Z" fill="#F8F9FA"/>
<mask id="mask3_4393_23644" style="mask-type:luminance" maskUnits="userSpaceOnUse" x="36" y="144" width="59" height="70">
<path fill-rule="evenodd" clip-rule="evenodd" d="M92.3138 158.514C93.4086 159.11 94.0762 160.269 94.0422 161.513C93.4599 180.939 84.5462 200.479 66.9639 213.028C65.8036 213.858 64.2423 213.858 63.082 213.028C45.4756 200.462 36.5616 180.886 36.0012 161.434C35.9681 160.227 36.5954 159.098 37.6383 158.487C45.0275 154.154 53.6256 149.78 62.8897 144.821C64.222 144.107 65.8252 144.111 67.1539 144.831C72.3084 147.629 85.5244 154.804 92.3138 158.514Z" fill="white"/>
</mask>
<g mask="url(#mask3_4393_23644)">
<path d="M34.4275 151.027C54.8023 181.549 90.9404 213.651 90.9404 213.651C90.9404 213.651 72.2662 217.184 70.2881 218.571C68.3099 219.959 53.6718 219.166 53.0783 218.77C52.4849 218.373 32.7833 197.207 32.7833 197.207L34.4275 151.027Z" fill="#0FB5AE"/>
</g>
<path d="M64 152C77.0557 158.739 88.2651 167.195 83.5176 182.919C78.77 198.642 90.9026 166.931 90.9026 166.931L86.8144 162.703" fill="#ABFEE6"/>
<path d="M85.3236 164.043C86.1333 164.47 86.6313 165.317 86.6093 166.231C86.1761 180.407 79.5455 194.666 66.4666 203.823C65.5998 204.429 64.4459 204.429 63.5791 203.823C50.4822 194.654 43.8514 180.368 43.4346 166.173C43.4129 165.287 43.8808 164.461 44.6523 164.023C50.1489 160.861 56.5447 157.669 63.436 154.05C64.4295 153.529 65.617 153.532 66.608 154.058C70.4423 156.099 80.2732 161.335 85.3236 164.043Z" fill="white" stroke="#4F4F5B" stroke-width="0.8" stroke-linecap="round" stroke-linejoin="round"/>
<path d="M74.9175 172.813H69.1122V166.997C69.1135 166.3 68.5484 165.733 67.8499 165.732H63.3069C62.6084 165.733 62.0433 166.3 62.0446 166.997V172.813H56.2393C55.5409 172.815 54.9758 173.381 54.9771 174.078V178.63C54.9758 179.327 55.5409 179.893 56.2393 179.895H62.0446V185.711C62.0433 186.408 62.6084 186.975 63.3068 186.976H67.8499C68.5483 186.975 69.1135 186.408 69.1122 185.711V179.895H74.9175C75.6159 179.893 76.181 179.327 76.1797 178.63V174.078C76.181 173.381 75.6159 172.815 74.9175 172.813Z" fill="#0FB5AE"/>
<mask id="mask4_4393_23644" style="mask-type:alpha" maskUnits="userSpaceOnUse" x="4" y="3" width="380" height="227">
<rect x="4" y="3" width="380" height="227" rx="10" fill="white"/>
</mask>
<g mask="url(#mask4_4393_23644)">
<path fill-rule="evenodd" clip-rule="evenodd" d="M270.432 25.8946C294.372 15.937 314.824 51.1428 339.783 58.1981C366.147 65.6506 399.712 49.6499 419.943 68.1575C439.811 86.3334 429.998 119.702 435.779 146.018C441.6 172.51 467.523 200.29 454.152 223.864C439.822 249.129 398.652 238.781 374.252 254.496C355.327 266.685 350.949 295.987 329.882 303.903C308.498 311.937 284.925 302.546 262.939 296.319C240.272 289.899 211.841 287.427 199.896 267.087C187.607 246.16 204.244 219.891 203.805 195.624C203.465 176.863 191.518 158.377 197.607 140.636C203.677 122.95 226.163 117.072 236.179 101.291C251.224 77.5866 244.532 36.6677 270.432 25.8946Z" fill="#F8F9FA"/>
<path fill-rule="evenodd" clip-rule="evenodd" d="M281.719 62.6648C299.209 55.3903 314.15 81.1097 332.383 86.2639C351.643 91.7083 376.164 80.0191 390.943 93.5397C405.458 106.818 398.289 131.195 402.513 150.42C406.765 169.774 425.703 190.068 415.934 207.29C405.466 225.747 375.389 218.187 357.564 229.668C343.739 238.573 340.541 259.979 325.15 265.762C309.528 271.631 292.307 264.771 276.245 260.222C259.686 255.532 238.916 253.726 230.19 238.867C221.212 223.578 233.366 204.388 233.045 186.659C232.797 172.954 224.069 159.449 228.517 146.489C232.951 133.568 249.379 129.274 256.696 117.745C267.687 100.428 262.798 70.535 281.719 62.6648Z" fill="white"/>
<path d="M332.465 43.5838C332.119 43.6033 331.776 43.628 331.434 43.6578L331.477 44.1559C330.799 44.2151 330.128 44.295 329.464 44.3943L329.39 43.8998C328.708 44.0019 328.034 44.1242 327.366 44.2655L327.47 44.7547C326.806 44.8952 326.15 45.0548 325.5 45.2323L325.368 44.75C324.706 44.9308 324.05 45.1299 323.401 45.346L323.559 45.8204C322.918 46.034 322.283 46.2645 321.653 46.5108L321.471 46.0451C320.835 46.2939 320.204 46.5585 319.579 46.8375L319.783 47.2941C319.167 47.5691 318.556 47.8584 317.95 48.1609L317.726 47.7134C317.117 48.0174 316.513 48.3343 315.913 48.6629L316.153 49.1014C315.562 49.4252 314.975 49.7606 314.391 50.1065L314.136 49.6764C313.552 50.0227 312.972 50.3793 312.395 50.745L312.663 51.1673C312.094 51.528 311.528 51.8978 310.964 52.2756L310.686 51.8604C310.123 52.2378 309.563 52.623 309.005 53.0149L309.293 53.424C308.741 53.8114 308.192 54.2056 307.644 54.6054L307.349 54.2015C306.803 54.6005 306.258 55.005 305.714 55.4139L306.015 55.8134C305.476 56.2189 304.938 56.6288 304.401 57.0422L304.096 56.646C303.561 57.0585 303.026 57.4744 302.491 57.8924L302.8 58.2862C302.268 58.7021 301.737 59.1205 301.205 59.5401L300.895 59.1478C300.365 59.5667 299.835 59.9869 299.305 60.4072L299.615 60.7991C299.611 60.8021 299.608 60.8051 299.604 60.8081C299.078 61.2247 298.552 61.6417 298.025 62.058L297.715 61.6657C297.185 62.0845 296.654 62.5024 296.123 62.9185L296.431 63.3122C295.898 63.729 295.364 64.1442 294.829 64.5567L294.524 64.1606C293.989 64.5726 293.453 64.9818 292.915 65.3872L293.216 65.7865C292.676 66.1938 292.133 66.5975 291.588 66.9965L291.293 66.5931C290.749 66.9915 290.203 67.385 289.654 67.7728L289.942 68.1812C289.389 68.5718 288.833 68.9567 288.274 69.3348L287.994 68.9207C287.436 69.2979 286.875 69.6683 286.311 70.0307L286.581 70.4514C286.011 70.8173 285.438 71.1753 284.86 71.5244L284.601 71.0965C284.026 71.4442 283.447 71.7828 282.863 72.1112L283.109 72.5469C282.519 72.879 281.924 73.201 281.325 73.5117L281.095 73.0679C280.499 73.3765 279.9 73.6738 279.294 73.9589L279.508 74.4112C278.896 74.6994 278.279 74.9752 277.656 75.2377L277.462 74.7769C277.154 74.9068 276.844 75.0333 276.533 75.1563C276.222 75.2795 275.908 75.399 275.592 75.5151L275.765 75.9844C275.127 76.2185 274.482 76.4385 273.828 76.6452L273.677 76.1685C273.036 76.3711 272.388 76.561 271.731 76.7392L271.862 77.2217C271.209 77.3991 270.548 77.5649 269.881 77.7198L269.768 77.2328C269.113 77.3849 268.452 77.5265 267.785 77.6587L267.883 78.1491C267.217 78.281 266.546 78.4034 265.87 78.5171L265.787 78.024C265.122 78.1359 264.451 78.2395 263.776 78.3355L263.846 78.8305C263.174 78.9261 262.498 79.0142 261.818 79.0955L261.758 78.5991C261.088 78.6793 260.414 78.753 259.736 78.8209L259.786 79.3185C259.11 79.3863 258.43 79.4484 257.748 79.5055L257.707 79.0073C257.031 79.0639 256.353 79.1156 255.672 79.1632L255.707 79.662C255.029 79.7095 254.348 79.7529 253.666 79.7929L253.636 79.2938C252.959 79.3335 252.279 79.37 251.599 79.4038L251.624 79.9032C250.943 79.9371 250.261 79.9683 249.579 79.9977L249.558 79.4981C248.878 79.5274 248.197 79.5548 247.516 79.5811L247.535 80.0807C246.853 80.107 246.172 80.1322 245.491 80.1569L245.473 79.6572C245.092 79.671 244.713 79.6847 244.333 79.6983C244.031 79.7092 243.729 79.72 243.427 79.7309L243.445 80.2306C242.763 80.2553 242.081 80.2803 241.401 80.3063L241.382 79.8067C240.699 79.8328 240.017 79.86 239.337 79.8889L239.358 80.3885C238.675 80.4176 237.993 80.4485 237.313 80.482L237.289 79.9826C236.603 80.0164 235.92 80.0528 235.24 80.0926L235.269 80.5917C234.585 80.6317 233.905 80.6751 233.228 80.7227L233.193 80.224C232.508 80.2722 231.826 80.3247 231.149 80.3823L231.191 80.8805C230.507 80.9387 229.827 81.0022 229.152 81.0717L229.101 80.5744C228.414 80.6452 227.732 80.7223 227.055 80.8066L227.117 81.3028C226.435 81.3877 225.76 81.48 225.09 81.5806L225.016 81.0861C224.332 81.1888 223.655 81.3001 222.985 81.421L223.074 81.913C222.398 82.0349 221.73 82.1665 221.07 82.3088L220.965 81.8201C220.286 81.9667 219.614 82.1247 218.952 82.2952L219.077 82.7794C218.41 82.9512 217.753 83.1357 217.106 83.3341L216.959 82.856C216.294 83.0602 215.639 83.279 214.995 83.5137L215.166 83.9835C214.52 84.2189 213.886 84.4703 213.266 84.739L213.067 84.2801C212.428 84.5569 211.801 84.8519 211.189 85.1667L211.417 85.6114C210.808 85.9244 210.213 86.2569 209.634 86.6102L209.374 86.1834C208.78 86.5459 208.201 86.9302 207.639 87.3377L207.932 87.7425C207.381 88.1424 206.846 88.5649 206.328 89.0113L206.002 88.6327C205.477 89.0857 204.969 89.563 204.481 90.0659L204.839 90.4144C204.368 90.8986 203.915 91.4069 203.481 91.9407L203.093 91.6251C202.66 92.1575 202.245 92.7145 201.849 93.2973L202.263 93.5783C201.887 94.1319 201.528 94.7095 201.187 95.3122L200.752 95.0662C200.58 95.3699 200.413 95.6797 200.251 95.9957C200.093 96.3036 199.942 96.6117 199.798 96.92L200.251 97.1311C199.967 97.7414 199.712 98.3522 199.485 98.9633L199.016 98.7891C198.777 99.4315 198.569 100.075 198.389 100.718L198.87 100.853C198.689 101.5 198.538 102.147 198.416 102.795L197.924 102.702C197.797 103.373 197.7 104.044 197.631 104.715L198.128 104.766C198.06 105.428 198.02 106.09 198.006 106.753L197.506 106.743C197.491 107.419 197.504 108.095 197.542 108.771L198.041 108.743C198.078 109.404 198.14 110.065 198.224 110.726L197.728 110.79C197.813 111.456 197.921 112.123 198.05 112.789L198.541 112.694C198.667 113.342 198.813 113.991 198.978 114.641L198.494 114.764C198.658 115.41 198.841 116.057 199.042 116.703L199.519 116.555C199.714 117.184 199.925 117.813 200.151 118.442L199.681 118.611C199.906 119.237 200.146 119.864 200.399 120.49L200.862 120.303C201.11 120.914 201.37 121.526 201.642 122.139L201.185 122.342C201.455 122.95 201.737 123.559 202.03 124.168L202.48 123.952C202.765 124.545 203.06 125.138 203.363 125.733L202.918 125.96C203.22 126.551 203.53 127.141 203.848 127.733L204.289 127.496C204.602 128.078 204.923 128.66 205.25 129.243L204.814 129.488C205.139 130.067 205.471 130.647 205.808 131.228L206.24 130.976C206.572 131.547 206.909 132.118 207.25 132.69L206.821 132.946C207.161 133.516 207.505 134.086 207.853 134.656L208.28 134.396C208.625 134.962 208.973 135.528 209.324 136.096L208.899 136.359C209.248 136.923 209.6 137.487 209.953 138.052L210.377 137.787C210.728 138.349 211.081 138.912 211.435 139.475L211.012 139.741C211.2 140.04 211.389 140.34 211.577 140.64C211.743 140.903 211.908 141.166 212.073 141.429L212.496 141.163C212.85 141.725 213.203 142.287 213.555 142.851L213.132 143.116C213.484 143.679 213.835 144.242 214.184 144.806L214.609 144.542C214.959 145.107 215.308 145.673 215.654 146.24L215.227 146.5C215.573 147.067 215.917 147.633 216.257 148.201L216.686 147.944C217.028 148.515 217.367 149.086 217.701 149.659L217.27 149.911C217.605 150.485 217.936 151.059 218.262 151.633L218.697 151.387C219.025 151.966 219.349 152.546 219.666 153.127L219.227 153.366C219.546 153.948 219.858 154.531 220.163 155.115L220.606 154.883C220.915 155.474 221.218 156.067 221.512 156.66L221.064 156.882C221.359 157.476 221.646 158.071 221.924 158.666L222.377 158.455C222.659 159.059 222.932 159.664 223.195 160.269L222.736 160.468C223 161.077 223.254 161.685 223.496 162.295L223.961 162.11C224.207 162.731 224.443 163.353 224.666 163.976L224.195 164.144C224.418 164.766 224.629 165.39 224.825 166.013L225.302 165.863C225.503 166.499 225.689 167.135 225.861 167.773L225.378 167.903C225.55 168.54 225.706 169.178 225.847 169.817L226.335 169.709C226.478 170.36 226.605 171.013 226.714 171.666L226.22 171.748C226.274 172.071 226.324 172.394 226.369 172.718C226.413 173.036 226.453 173.355 226.488 173.673L226.985 173.618C227.058 174.265 227.112 174.913 227.15 175.561L226.651 175.59C226.689 176.231 226.711 176.873 226.717 177.515L227.217 177.51C227.224 178.159 227.216 178.809 227.193 179.46L226.694 179.443C226.671 180.084 226.636 180.727 226.587 181.37L227.086 181.407C227.037 182.054 226.975 182.702 226.902 183.349L226.406 183.293C226.334 183.932 226.251 184.572 226.157 185.212L226.652 185.284C226.558 185.926 226.455 186.568 226.342 187.21L225.85 187.124C225.738 187.758 225.618 188.393 225.49 189.029L225.981 189.127C225.853 189.763 225.717 190.399 225.575 191.035L225.087 190.926C224.946 191.556 224.799 192.186 224.646 192.817L225.132 192.934C224.98 193.565 224.822 194.196 224.659 194.827L224.175 194.702C224.014 195.329 223.848 195.956 223.68 196.583L224.162 196.713C223.994 197.341 223.822 197.968 223.648 198.595L223.166 198.461C222.993 199.087 222.817 199.712 222.641 200.338L223.122 200.474C222.955 201.063 222.788 201.652 222.621 202.24C222.611 202.277 222.6 202.314 222.59 202.351L222.109 202.214C221.931 202.84 221.754 203.466 221.577 204.092L222.059 204.228C221.882 204.855 221.707 205.481 221.534 206.107L221.052 205.973C220.878 206.602 220.706 207.231 220.538 207.859L221.021 207.988C220.853 208.618 220.688 209.247 220.528 209.875L220.043 209.752C219.882 210.386 219.725 211.02 219.574 211.653L220.06 211.769C219.908 212.404 219.763 213.038 219.624 213.671L219.136 213.564C218.996 214.205 218.863 214.846 218.738 215.486L219.229 215.581C219.104 216.222 218.988 216.862 218.882 217.501L218.389 217.419C218.281 218.068 218.183 218.716 218.096 219.364L218.591 219.43C218.505 220.077 218.43 220.723 218.367 221.368L217.869 221.32C217.806 221.975 217.755 222.631 217.719 223.285L218.218 223.313C218.182 223.964 218.16 224.613 218.154 225.262L217.654 225.257C217.648 225.917 217.658 226.575 217.685 227.232L218.185 227.212C218.212 227.862 218.256 228.51 218.319 229.157L217.822 229.205C217.886 229.861 217.968 230.516 218.072 231.169L218.566 231.091C218.667 231.731 218.788 232.369 218.93 233.006L218.442 233.115C218.585 233.756 218.75 234.396 218.937 235.034L219.417 234.894C219.598 235.513 219.801 236.13 220.026 236.745L219.557 236.917C219.671 237.228 219.79 237.538 219.916 237.848C220.042 238.158 220.17 238.467 220.302 238.775L220.762 238.578C221.023 239.188 221.296 239.79 221.58 240.386L221.128 240.601C221.416 241.205 221.716 241.803 222.026 242.393L222.469 242.16C222.777 242.747 223.096 243.326 223.426 243.899L222.992 244.148C223.326 244.728 223.67 245.3 224.024 245.866L224.448 245.6C224.799 246.161 225.161 246.715 225.532 247.262L225.119 247.543C225.493 248.096 225.878 248.641 226.272 249.18L226.676 248.885C227.066 249.419 227.465 249.946 227.874 250.467L227.481 250.776C227.892 251.3 228.312 251.818 228.741 252.33L229.124 252.009C229.549 252.516 229.982 253.016 230.423 253.51L230.05 253.843C230.493 254.34 230.945 254.831 231.404 255.315L231.767 254.971C232.221 255.451 232.683 255.925 233.152 256.393L232.799 256.747C233.27 257.217 233.748 257.681 234.233 258.139L234.577 257.776C235.057 258.229 235.543 258.677 236.037 259.12L235.702 259.492C236.197 259.936 236.698 260.375 237.205 260.808L237.529 260.428C238.031 260.858 238.539 261.282 239.053 261.701L238.737 262.088C239.251 262.508 239.771 262.923 240.297 263.333L240.604 262.939C241.125 263.345 241.651 263.747 242.182 264.144L241.882 264.544C242.414 264.942 242.95 265.335 243.491 265.723L243.783 265.317C244.319 265.703 244.86 266.084 245.405 266.461L245.121 266.872C245.667 267.249 246.218 267.622 246.771 267.991L247.048 267.575C247.599 267.941 248.153 268.303 248.71 268.661L248.439 269.082C248.998 269.441 249.559 269.796 250.124 270.147L250.388 269.722C250.95 270.071 251.514 270.416 252.082 270.758L251.824 271.186C252.392 271.528 252.964 271.867 253.537 272.201L253.789 271.77C254.361 272.103 254.934 272.433 255.51 272.759L255.263 273.194C255.841 273.522 256.42 273.846 257.001 274.166L257.242 273.728C257.822 274.048 258.403 274.364 258.986 274.678L258.749 275.118C259.334 275.432 259.92 275.743 260.507 276.051L260.739 275.609C261.326 275.916 261.914 276.221 262.502 276.522L262.274 276.967C262.865 277.27 263.456 277.57 264.048 277.867L264.272 277.421C264.865 277.718 265.458 278.013 266.05 278.304L265.829 278.753C266.425 279.046 267.021 279.337 267.617 279.625L267.834 279.174C268.432 279.463 269.029 279.749 269.625 280.033L269.41 280.484C269.709 280.627 270.008 280.768 270.307 280.909C270.607 281.051 270.909 281.192 271.211 281.33L271.42 280.876C272.021 281.153 272.625 281.423 273.23 281.687L273.03 282.146C273.64 282.412 274.252 282.671 274.866 282.925L275.057 282.463C275.668 282.715 276.282 282.962 276.898 283.202L276.716 283.668C277.335 283.91 277.957 284.146 278.58 284.375L278.753 283.906C279.374 284.135 279.996 284.358 280.621 284.575L280.457 285.047C281.085 285.265 281.715 285.477 282.346 285.683L282.501 285.208C283.13 285.413 283.761 285.612 284.393 285.806L284.247 286.284C284.882 286.478 285.519 286.667 286.158 286.85L286.296 286.369C286.932 286.551 287.569 286.727 288.208 286.897L288.079 287.38C288.721 287.552 289.365 287.717 290.009 287.877L290.13 287.392C290.772 287.551 291.415 287.704 292.06 287.852L291.948 288.339C292.595 288.488 293.244 288.631 293.894 288.768L293.997 288.279C294.644 288.416 295.292 288.547 295.942 288.673L295.847 289.164C296.499 289.29 297.152 289.411 297.806 289.527L297.893 289.034C298.544 289.149 299.196 289.259 299.849 289.363L299.77 289.857C300.426 289.962 301.083 290.061 301.74 290.156L301.811 289.661C302.466 289.755 303.121 289.843 303.777 289.927L303.714 290.423C304.373 290.507 305.032 290.586 305.692 290.659L305.747 290.162C306.405 290.236 307.062 290.304 307.721 290.368L307.673 290.865C308.334 290.929 308.995 290.988 309.657 291.041L309.697 290.543C310.356 290.597 311.016 290.645 311.676 290.689L311.643 291.188C312.305 291.232 312.968 291.272 313.631 291.306L313.657 290.807C314.317 290.841 314.978 290.871 315.639 290.896L315.62 291.396C316.283 291.421 316.946 291.441 317.61 291.457L317.622 290.958C318.283 290.973 318.944 290.985 319.606 290.992L319.601 291.492C320.264 291.499 320.928 291.501 321.591 291.499L321.59 290.999C322.251 290.998 322.913 290.991 323.574 290.981L323.582 291.481C324.245 291.47 324.909 291.455 325.572 291.436L325.558 290.936C326.219 290.917 326.88 290.894 327.541 290.867L327.561 291.366C328.224 291.339 328.887 291.307 329.55 291.271L329.523 290.772C330.183 290.737 330.843 290.697 331.503 290.653L331.536 291.152C331.867 291.13 332.198 291.107 332.529 291.083C332.866 291.059 333.203 291.033 333.539 291.005L333.498 290.506C334.168 290.45 334.836 290.387 335.502 290.316L335.555 290.813C336.227 290.741 336.897 290.662 337.565 290.576L337.501 290.08C338.168 289.994 338.833 289.901 339.495 289.801L339.57 290.296C340.238 290.195 340.904 290.087 341.568 289.973L341.483 289.48C342.145 289.366 342.805 289.245 343.463 289.118L343.558 289.609C344.221 289.481 344.882 289.346 345.541 289.205L345.436 288.716C346.093 288.576 346.748 288.429 347.401 288.276L347.515 288.763C348.172 288.61 348.827 288.45 349.48 288.285L349.358 287.8C350.008 287.636 350.658 287.465 351.305 287.289L351.436 287.772C352.087 287.595 352.735 287.413 353.383 287.226L353.244 286.746C353.888 286.559 354.532 286.367 355.173 286.17L355.32 286.648C355.964 286.451 356.606 286.249 357.248 286.041L357.094 285.566C357.732 285.359 358.369 285.148 359.005 284.933L359.166 285.406C359.803 285.19 360.439 284.97 361.075 284.745L360.908 284.273C361.54 284.05 362.171 283.822 362.801 283.59L362.974 284.059C363.606 283.826 364.236 283.59 364.865 283.35L364.687 282.883C365.314 282.644 365.939 282.401 366.564 282.155L366.747 282.62C367.373 282.373 367.998 282.123 368.622 281.87L368.434 281.407C369.055 281.154 369.676 280.899 370.296 280.64L370.488 281.102C371.108 280.843 371.728 280.582 372.347 280.317L372.151 279.857C372.768 279.594 373.384 279.328 373.999 279.059L374.199 279.518C374.815 279.249 375.43 278.978 376.045 278.705L375.842 278.248C376.455 277.975 377.067 277.701 377.679 277.424L377.885 277.88C378.497 277.603 379.109 277.324 379.72 277.044L379.512 276.59C380.121 276.31 380.731 276.028 381.34 275.746L381.55 276.199C382.159 275.916 382.768 275.632 383.377 275.346L383.164 274.894C383.771 274.609 384.379 274.323 384.986 274.035L385.199 274.487C385.806 274.2 386.413 273.912 387.019 273.623L386.804 273.172C387.41 272.883 388.016 272.594 388.621 272.304L388.837 272.755C389.14 272.61 389.443 272.465 389.746 272.32C390.035 272.182 390.326 272.044 390.619 271.907L390.407 271.454C390.992 271.18 391.582 270.91 392.177 270.643L392.382 271.099C392.969 270.836 393.562 270.576 394.158 270.318L393.96 269.859C394.553 269.602 395.151 269.348 395.752 269.096L395.945 269.557C396.54 269.308 397.139 269.06 397.74 268.814L397.551 268.351C398.15 268.106 398.752 267.863 399.356 267.62L399.543 268.084C400.143 267.844 400.745 267.604 401.35 267.365L401.166 266.9C401.768 266.661 402.372 266.424 402.977 266.186L403.16 266.651C403.458 266.534 403.757 266.417 404.055 266.3C404.361 266.18 404.666 266.061 404.972 265.941L404.789 265.475C405.393 265.239 405.998 265.002 406.602 264.764L406.785 265.229C407.389 264.992 407.994 264.753 408.598 264.514L408.413 264.049C409.017 263.81 409.62 263.569 410.222 263.327L410.408 263.791C411.012 263.548 411.615 263.303 412.216 263.057L412.026 262.594C412.627 262.347 413.227 262.098 413.824 261.847L414.018 262.308C414.619 262.055 415.218 261.8 415.814 261.541L415.615 261.082C416.212 260.824 416.805 260.562 417.396 260.297L417.601 260.753C418.197 260.485 418.789 260.214 419.377 259.939L419.166 259.486C419.755 259.21 420.341 258.93 420.922 258.646L421.142 259.095C421.73 258.807 422.313 258.514 422.891 258.217L422.663 257.772C423.242 257.474 423.816 257.17 424.384 256.861L424.623 257.301C425.199 256.987 425.769 256.668 426.333 256.342L426.083 255.909C426.647 255.583 427.205 255.25 427.755 254.911L428.017 255.336C428.576 254.991 429.128 254.639 429.671 254.279L429.395 253.862C429.939 253.502 430.473 253.134 430.999 252.758L431.29 253.165C431.825 252.782 432.351 252.391 432.867 251.991L432.561 251.596C433.075 251.196 433.58 250.788 434.073 250.37L434.396 250.751C434.899 250.326 435.39 249.89 435.87 249.444L435.529 249.078C436.005 248.635 436.469 248.181 436.921 247.717L437.279 248.065C437.738 247.593 438.184 247.11 438.616 246.614L438.24 246.286C438.666 245.797 439.079 245.296 439.478 244.784L439.872 245.091C440.276 244.572 440.665 244.04 441.038 243.496L440.626 243.213C440.992 242.68 441.343 242.135 441.679 241.576L442.107 241.833C442.445 241.272 442.766 240.697 443.072 240.108L442.628 239.878C442.925 239.306 443.206 238.722 443.471 238.124L443.929 238.326C444.062 238.025 444.192 237.72 444.317 237.412C444.446 237.096 444.568 236.78 444.684 236.464L444.215 236.292C444.445 235.664 444.651 235.036 444.834 234.407L445.314 234.546C445.503 233.895 445.668 233.243 445.81 232.59L445.321 232.484C445.462 231.834 445.58 231.183 445.675 230.531L446.17 230.604C446.268 229.936 446.343 229.268 446.396 228.6L445.898 228.56C445.951 227.9 445.983 227.239 445.995 226.578L446.495 226.587C446.507 225.916 446.499 225.245 446.472 224.573L445.972 224.593C445.946 223.934 445.901 223.273 445.84 222.613L446.338 222.566C446.276 221.901 446.197 221.236 446.102 220.571L445.607 220.641C445.515 219.989 445.407 219.336 445.285 218.682L445.777 218.591C445.655 217.937 445.52 217.282 445.371 216.628L444.884 216.738C444.739 216.096 444.581 215.453 444.413 214.809L444.896 214.683C444.728 214.041 444.549 213.398 444.361 212.755L443.881 212.896C443.695 212.264 443.5 211.631 443.297 210.998L443.773 210.845C443.57 210.214 443.36 209.583 443.142 208.951L442.669 209.114C442.454 208.491 442.232 207.867 442.004 207.243L442.473 207.071C442.246 206.449 442.013 205.827 441.775 205.204L441.308 205.382C441.073 204.766 440.833 204.149 440.589 203.532L441.054 203.348C440.811 202.733 440.564 202.117 440.314 201.501L439.851 201.689C439.603 201.077 439.352 200.465 439.099 199.851L439.562 199.661C439.31 199.049 439.056 198.437 438.801 197.825L438.34 198.017C438.175 197.62 438.009 197.222 437.844 196.825C437.755 196.611 437.666 196.397 437.577 196.184L438.039 195.992C437.784 195.381 437.531 194.77 437.278 194.158L436.816 194.349C436.563 193.738 436.311 193.125 436.061 192.513L436.524 192.324C436.274 191.711 436.027 191.099 435.782 190.486L435.318 190.671C435.072 190.056 434.83 189.44 434.591 188.824L435.058 188.643C434.819 188.027 434.584 187.41 434.355 186.793L433.886 186.968C433.655 186.346 433.429 185.724 433.208 185.102L433.679 184.935C433.459 184.312 433.244 183.689 433.037 183.066L432.563 183.224C432.353 182.594 432.15 181.964 431.956 181.333L432.434 181.185C432.239 180.555 432.053 179.924 431.876 179.293L431.394 179.428C431.215 178.789 431.045 178.149 430.885 177.509L431.37 177.388C431.211 176.748 431.062 176.109 430.924 175.47L430.436 175.575C430.296 174.926 430.168 174.276 430.053 173.627L430.546 173.54C430.489 173.217 430.435 172.894 430.384 172.572C430.334 172.255 430.287 171.937 430.242 171.62L429.747 171.69C429.656 171.05 429.573 170.41 429.499 169.769L429.995 169.711C429.921 169.073 429.855 168.435 429.796 167.796L429.299 167.842C429.239 167.199 429.187 166.555 429.142 165.911L429.64 165.875C429.595 165.234 429.556 164.593 429.522 163.951L429.023 163.977C428.989 163.332 428.961 162.687 428.938 162.041L429.438 162.023C429.415 161.38 429.397 160.737 429.382 160.093L428.882 160.104C428.868 159.459 428.858 158.813 428.851 158.167L429.351 158.162C429.343 157.517 429.34 156.873 429.338 156.228L428.838 156.229C428.836 155.583 428.837 154.938 428.84 154.292L429.34 154.294C429.342 153.648 429.346 153.003 429.351 152.358L428.851 152.354C428.855 151.756 428.86 151.157 428.865 150.559C428.866 150.512 428.866 150.464 428.866 150.417L429.366 150.421C429.372 149.775 429.377 149.129 429.382 148.483L428.882 148.479C428.886 147.833 428.89 147.187 428.892 146.542L429.392 146.543C429.393 145.896 429.394 145.249 429.391 144.602L428.891 144.604C428.889 143.957 428.884 143.312 428.876 142.666L429.375 142.66C429.367 142.012 429.355 141.364 429.339 140.717L428.839 140.729C428.823 140.083 428.803 139.437 428.778 138.793L429.277 138.773C429.252 138.124 429.221 137.476 429.184 136.829L428.685 136.857C428.649 136.212 428.606 135.568 428.556 134.924L429.055 134.886C429.005 134.238 428.948 133.591 428.884 132.944L428.386 132.994C428.322 132.351 428.25 131.709 428.17 131.069L428.666 131.006C428.585 130.361 428.495 129.717 428.395 129.074L427.901 129.15C427.803 128.512 427.695 127.875 427.576 127.24L428.068 127.148C427.949 126.509 427.819 125.87 427.678 125.233L427.19 125.341C427.051 124.712 426.9 124.084 426.738 123.457L427.222 123.332C427.059 122.703 426.884 122.075 426.697 121.448L426.218 121.592C426.033 120.975 425.836 120.361 425.625 119.748L426.098 119.585C425.992 119.277 425.883 118.969 425.771 118.661C425.655 118.344 425.538 118.028 425.42 117.711L424.951 117.886C424.716 117.256 424.477 116.627 424.233 116L424.7 115.819C424.456 115.19 424.208 114.562 423.956 113.935L423.492 114.122C423.241 113.498 422.985 112.875 422.726 112.254L423.187 112.062C422.927 111.439 422.663 110.817 422.394 110.198L421.935 110.397C421.667 109.78 421.395 109.164 421.119 108.551L421.575 108.346C421.298 107.73 421.016 107.116 420.73 106.505L420.277 106.716C419.992 106.107 419.702 105.499 419.408 104.894L419.858 104.676C419.563 104.068 419.264 103.463 418.96 102.86L418.513 103.085C418.21 102.484 417.902 101.885 417.59 101.29L418.033 101.058C417.72 100.459 417.402 99.8631 417.079 99.2699L416.64 99.5089C416.318 98.9176 415.992 98.3291 415.661 97.7436L416.096 97.4975C415.763 96.9091 415.426 96.3237 415.084 95.7414L414.653 95.9946C414.312 95.4142 413.966 94.8369 413.615 94.2629L414.042 94.0023C413.69 93.4253 413.333 92.8516 412.97 92.2813L412.548 92.5493C412.188 91.981 411.822 91.4162 411.451 90.855L411.868 90.5794C411.496 90.0152 411.118 89.4546 410.735 88.8977L410.323 89.1809C409.942 88.6261 409.556 88.0751 409.165 87.528L409.571 87.2372C409.178 86.6871 408.779 86.141 408.375 85.5989L407.975 85.8976C407.572 85.3579 407.165 84.8222 406.753 84.2908L407.148 83.9842C406.733 83.4499 406.313 82.9198 405.888 82.3942L405.499 82.7086C405.076 82.1854 404.648 81.6667 404.214 81.1524L404.596 80.83C404.16 80.313 403.718 79.8007 403.271 79.293L402.896 79.6234C402.451 79.1184 402.001 78.6182 401.546 78.1228L401.914 77.7844C401.456 77.2865 400.993 76.7935 400.524 76.3055L400.163 76.6519C399.697 76.1669 399.226 75.6868 398.749 75.212L399.101 74.8576C398.622 74.3805 398.137 73.9086 397.647 73.442L397.302 73.8043C396.815 73.341 396.322 72.8829 395.823 72.4302L396.16 72.0601C395.659 71.6056 395.153 71.1565 394.641 70.713L394.313 71.0909C393.805 70.6509 393.292 70.2164 392.772 69.7876L393.09 69.402C392.829 69.1866 392.567 68.9726 392.303 68.76C392.051 68.5571 391.798 68.3544 391.545 68.152L391.233 68.5428C390.728 68.1398 390.22 67.7379 389.71 67.3376L390.018 66.9441C389.508 66.5446 388.995 66.1465 388.48 65.7502L388.175 66.1467C387.662 65.7528 387.147 65.3608 386.629 64.9708L386.93 64.5713C386.412 64.1815 385.891 63.7938 385.367 63.4084L385.071 63.8111C384.55 63.4278 384.026 63.0468 383.5 62.6686L383.792 62.2626C383.265 61.8839 382.735 61.5079 382.203 61.1349L381.916 61.5444C381.386 61.173 380.854 60.8046 380.319 60.4395L380.6 60.0265C380.064 59.6605 379.525 59.2978 378.984 58.9386L378.707 59.3553C378.168 58.9975 377.626 58.6432 377.081 58.2929L377.352 57.8724C376.805 57.5207 376.256 57.1729 375.705 56.8293L375.44 57.2536C374.891 56.9111 374.339 56.5727 373.784 56.2389L374.042 55.8106C373.485 55.4751 372.925 55.144 372.363 54.8179L372.112 55.2503C371.552 54.925 370.989 54.6046 370.424 54.2893L370.668 53.8527C370.1 53.5354 369.529 53.2234 368.956 52.9167L368.72 53.3576C368.149 53.0518 367.575 52.7515 366.999 52.457L367.227 52.0118C366.647 51.7152 366.065 51.4244 365.481 51.1397L365.262 51.5892C364.679 51.3053 364.094 51.0276 363.507 50.7564L363.717 50.3025C363.125 50.0291 362.532 49.7622 361.936 49.5021L361.736 49.9604C361.142 49.7011 360.545 49.4487 359.947 49.2035L360.137 48.7408C359.533 48.4935 358.928 48.2534 358.321 48.0208L358.142 48.4878C357.536 48.256 356.929 48.0319 356.32 47.8157L356.487 47.3445C355.872 47.1263 355.255 46.9161 354.636 46.7143L354.481 47.1896C353.865 46.9885 353.247 46.7959 352.627 46.6119L352.769 46.1325C352.143 45.9468 351.516 45.7698 350.886 45.602L350.758 46.0851C350.131 45.9181 349.503 45.7602 348.874 45.6118L348.989 45.1252C348.353 44.9754 347.716 44.8351 347.077 44.7047L346.977 45.1946C346.342 45.0651 345.706 44.9454 345.068 44.8359L345.153 44.3432C344.509 44.2327 343.864 44.1325 343.218 44.0429L343.149 44.5382C342.508 44.4494 341.865 44.3711 341.221 44.3037L341.273 43.8065C340.624 43.7385 339.974 43.6816 339.322 43.6359L339.287 44.1346C338.642 44.0894 337.995 44.0554 337.348 44.0329L337.365 43.5332C336.713 43.5105 336.06 43.4993 335.405 43.5L335.406 44C334.76 44.0007 334.113 44.0131 333.464 44.0375L333.446 43.5379C333.119 43.5502 332.792 43.5655 332.465 43.5838Z" stroke="#00BB7E" stroke-dasharray="2 2"/>
</g>
<rect x="3.5" y="2.5" width="381" height="228" rx="10.5" stroke="#0B1324" stroke-opacity="0.07"/>
</g>
<defs>
<filter id="filter0_di_4393_23644" x="0" y="0" width="388" height="235" filterUnits="userSpaceOnUse" color-interpolation-filters="sRGB">
<feFlood flood-opacity="0" result="BackgroundImageFix"/>
<feColorMatrix in="SourceAlpha" type="matrix" values="0 0 0 0 0 0 0 0 0 0 0 0 0 0 0 0 0 0 127 0" result="hardAlpha"/>
<feOffset dy="1"/>
<feGaussianBlur stdDeviation="1.5"/>
<feColorMatrix type="matrix" values="0 0 0 0 0.0431373 0 0 0 0 0.0745098 0 0 0 0 0.141176 0 0 0 0.1 0"/>
<feBlend mode="normal" in2="BackgroundImageFix" result="effect1_dropShadow_4393_23644"/>
<feBlend mode="normal" in="SourceGraphic" in2="effect1_dropShadow_4393_23644" result="shape"/>
<feColorMatrix in="SourceAlpha" type="matrix" values="0 0 0 0 0 0 0 0 0 0 0 0 0 0 0 0 0 0 127 0" result="hardAlpha"/>
<feOffset dy="-1"/>
<feComposite in2="hardAlpha" operator="arithmetic" k2="-1" k3="1"/>
<feColorMatrix type="matrix" values="0 0 0 0 0 0 0 0 0 0 0 0 0 0 0 0 0 0 0.1 0"/>
<feBlend mode="normal" in2="shape" result="effect2_innerShadow_4393_23644"/>
</filter>
</defs>
</svg>
