<svg width="380" height="227" viewBox="0 0 380 227" fill="none" xmlns="http://www.w3.org/2000/svg">
<mask id="mask0_4365_14338" style="mask-type:alpha" maskUnits="userSpaceOnUse" x="0" y="0" width="380" height="227">
<rect width="380" height="227" rx="10" fill="white"/>
</mask>
<g mask="url(#mask0_4365_14338)">
<path fill-rule="evenodd" clip-rule="evenodd" d="M266.432 22.8946C290.372 12.937 310.824 48.1428 335.783 55.1981C362.147 62.6506 395.712 46.6499 415.943 65.1575C435.811 83.3334 425.998 116.702 431.779 143.018C437.6 169.51 463.523 197.29 450.152 220.864C435.822 246.129 394.652 235.781 370.252 251.496C351.327 263.685 346.949 292.987 325.882 300.903C304.498 308.937 280.925 299.546 258.939 293.319C236.272 286.899 207.841 284.427 195.896 264.087C183.607 243.16 200.244 216.891 199.805 192.624C199.465 173.863 187.518 155.377 193.607 137.636C199.677 119.95 222.163 114.072 232.179 98.2909C247.224 74.5866 240.532 33.6677 266.432 22.8946Z" fill="#F8F9FA"/>
<path fill-rule="evenodd" clip-rule="evenodd" d="M277.719 59.6649C295.209 52.3904 310.149 78.1098 328.383 83.264C347.643 88.7084 372.164 77.0191 386.943 90.5397C401.458 103.818 394.289 128.195 398.513 147.42C402.765 166.774 421.702 187.068 411.934 204.29C401.466 222.747 371.389 215.187 353.564 226.668C339.739 235.573 336.541 256.979 321.15 262.762C305.528 268.631 288.307 261.771 272.245 257.222C255.686 252.532 234.916 250.726 226.19 235.867C217.212 220.578 229.366 201.388 229.045 183.659C228.797 169.954 220.069 156.449 224.517 143.489C228.951 130.568 245.379 126.274 252.696 114.745C263.687 97.4281 258.798 67.5351 277.719 59.6649Z" fill="white"/>
<path d="M328.465 40.5838C328.119 40.6033 327.776 40.628 327.434 40.6578L327.477 41.1559C326.799 41.2151 326.128 41.295 325.464 41.3943L325.39 40.8998C324.708 41.0019 324.034 41.1242 323.366 41.2655L323.47 41.7547C322.806 41.8952 322.15 42.0548 321.5 42.2323L321.368 41.75C320.706 41.9308 320.05 42.1299 319.401 42.346L319.559 42.8204C318.918 43.034 318.283 43.2645 317.653 43.5108L317.471 43.0451C316.835 43.2939 316.204 43.5585 315.579 43.8375L315.783 44.2941C315.167 44.5691 314.556 44.8584 313.95 45.1609L313.726 44.7134C313.117 45.0174 312.513 45.3343 311.913 45.6629L312.153 46.1014C311.562 46.4252 310.975 46.7606 310.391 47.1065L310.136 46.6764C309.552 47.0227 308.972 47.3793 308.395 47.745L308.663 48.1673C308.094 48.528 307.528 48.8978 306.964 49.2756L306.686 48.8604C306.123 49.2378 305.563 49.623 305.005 50.0149L305.293 50.424C304.741 50.8114 304.192 51.2056 303.644 51.6054L303.349 51.2015C302.803 51.6005 302.258 52.005 301.714 52.4139L302.015 52.8134C301.476 53.2189 300.938 53.6288 300.401 54.0422L300.096 53.646C299.561 54.0585 299.026 54.4744 298.491 54.8924L298.8 55.2862C298.268 55.7021 297.737 56.1205 297.205 56.5401L296.895 56.1478C296.365 56.5667 295.835 56.9869 295.305 57.4072L295.615 57.7991C295.611 57.8021 295.608 57.8051 295.604 57.8081C295.078 58.2247 294.552 58.6417 294.025 59.058L293.715 58.6657C293.185 59.0845 292.654 59.5024 292.123 59.9185L292.431 60.3122C291.898 60.729 291.364 61.1442 290.829 61.5567L290.524 61.1606C289.989 61.5726 289.453 61.9818 288.915 62.3872L289.216 62.7865C288.676 63.1938 288.133 63.5975 287.588 63.9965L287.293 63.5931C286.749 63.9915 286.203 64.385 285.654 64.7728L285.942 65.1812C285.389 65.5718 284.833 65.9567 284.274 66.3348L283.994 65.9207C283.436 66.2979 282.875 66.6683 282.311 67.0307L282.581 67.4514C282.011 67.8173 281.438 68.1753 280.86 68.5244L280.601 68.0965C280.026 68.4442 279.447 68.7828 278.863 69.1112L279.109 69.5469C278.519 69.879 277.924 70.201 277.325 70.5117L277.095 70.0679C276.499 70.3765 275.9 70.6738 275.294 70.9589L275.508 71.4112C274.896 71.6994 274.279 71.9752 273.656 72.2377L273.462 71.7769C273.154 71.9068 272.844 72.0333 272.533 72.1563C272.222 72.2795 271.908 72.399 271.592 72.5151L271.765 72.9844C271.127 73.2185 270.482 73.4385 269.828 73.6452L269.677 73.1685C269.036 73.3711 268.388 73.561 267.731 73.7392L267.862 74.2217C267.209 74.3991 266.548 74.5649 265.881 74.7198L265.768 74.2328C265.113 74.3849 264.452 74.5265 263.785 74.6587L263.883 75.1491C263.217 75.281 262.546 75.4034 261.87 75.5171L261.787 75.024C261.122 75.1359 260.451 75.2395 259.776 75.3355L259.846 75.8305C259.174 75.9261 258.498 76.0142 257.818 76.0955L257.758 75.5991C257.088 75.6793 256.414 75.753 255.736 75.8209L255.786 76.3185C255.11 76.3863 254.43 76.4484 253.748 76.5055L253.707 76.0073C253.031 76.0639 252.353 76.1156 251.672 76.1632L251.707 76.662C251.029 76.7095 250.348 76.7529 249.666 76.7929L249.636 76.2938C248.959 76.3335 248.279 76.37 247.599 76.4038L247.624 76.9032C246.943 76.9371 246.261 76.9683 245.579 76.9977L245.558 76.4981C244.878 76.5274 244.197 76.5548 243.516 76.5811L243.535 77.0807C242.853 77.107 242.172 77.1322 241.491 77.1569L241.473 76.6572C241.092 76.671 240.713 76.6847 240.333 76.6983C240.031 76.7092 239.729 76.72 239.427 76.7309L239.445 77.2306C238.763 77.2553 238.081 77.2803 237.401 77.3063L237.382 76.8067C236.699 76.8328 236.017 76.86 235.337 76.8889L235.358 77.3885C234.675 77.4176 233.993 77.4485 233.313 77.482L233.289 76.9826C232.603 77.0164 231.92 77.0528 231.24 77.0926L231.269 77.5917C230.585 77.6317 229.905 77.6751 229.228 77.7227L229.193 77.224C228.508 77.2722 227.826 77.3247 227.149 77.3823L227.191 77.8805C226.507 77.9387 225.827 78.0022 225.152 78.0717L225.101 77.5744C224.414 77.6452 223.732 77.7223 223.055 77.8066L223.117 78.3028C222.435 78.3877 221.76 78.48 221.09 78.5806L221.016 78.0861C220.332 78.1888 219.655 78.3001 218.985 78.421L219.074 78.913C218.398 79.0349 217.73 79.1665 217.07 79.3088L216.965 78.8201C216.286 78.9667 215.614 79.1247 214.952 79.2952L215.077 79.7794C214.41 79.9512 213.753 80.1357 213.106 80.3341L212.959 79.856C212.294 80.0602 211.639 80.279 210.995 80.5137L211.166 80.9835C210.52 81.2189 209.886 81.4703 209.266 81.739L209.067 81.2801C208.428 81.5569 207.801 81.8519 207.189 82.1667L207.417 82.6114C206.808 82.9244 206.213 83.2569 205.634 83.6102L205.374 83.1834C204.78 83.5459 204.201 83.9302 203.639 84.3377L203.932 84.7425C203.381 85.1424 202.846 85.5649 202.328 86.0113L202.002 85.6327C201.477 86.0857 200.969 86.563 200.481 87.0659L200.839 87.4144C200.368 87.8986 199.915 88.4069 199.481 88.9407L199.093 88.6251C198.66 89.1575 198.245 89.7145 197.849 90.2973L198.263 90.5783C197.887 91.1319 197.528 91.7095 197.187 92.3122L196.752 92.0662C196.58 92.3699 196.413 92.6797 196.251 92.9957C196.093 93.3036 195.942 93.6117 195.798 93.92L196.251 94.1311C195.967 94.7414 195.712 95.3522 195.485 95.9633L195.016 95.7891C194.777 96.4315 194.569 97.0745 194.389 97.7182L194.87 97.8528C194.689 98.4997 194.538 99.1471 194.416 99.795L193.924 99.7019C193.797 100.373 193.7 101.044 193.631 101.715L194.128 101.766C194.06 102.428 194.02 103.09 194.006 103.753L193.506 103.743C193.491 104.419 193.504 105.095 193.542 105.771L194.041 105.743C194.078 106.404 194.14 107.065 194.224 107.726L193.728 107.79C193.813 108.456 193.921 109.123 194.05 109.789L194.541 109.694C194.667 110.342 194.813 110.991 194.978 111.641L194.494 111.764C194.658 112.41 194.841 113.057 195.042 113.703L195.519 113.555C195.714 114.184 195.925 114.813 196.151 115.442L195.681 115.611C195.906 116.237 196.146 116.864 196.399 117.49L196.862 117.303C197.11 117.914 197.37 118.526 197.642 119.139L197.185 119.342C197.455 119.95 197.737 120.559 198.03 121.168L198.48 120.952C198.765 121.545 199.06 122.138 199.363 122.733L198.918 122.96C199.22 123.551 199.53 124.141 199.848 124.733L200.289 124.496C200.602 125.078 200.923 125.66 201.25 126.243L200.814 126.488C201.139 127.067 201.471 127.647 201.808 128.228L202.24 127.976C202.572 128.547 202.909 129.118 203.25 129.69L202.821 129.946C203.161 130.516 203.505 131.086 203.853 131.656L204.28 131.396C204.625 131.962 204.973 132.528 205.324 133.096L204.899 133.359C205.248 133.923 205.6 134.487 205.953 135.052L206.377 134.787C206.728 135.349 207.081 135.912 207.435 136.475L207.012 136.741C207.2 137.04 207.389 137.34 207.577 137.64C207.743 137.903 207.908 138.166 208.073 138.429L208.496 138.163C208.85 138.725 209.203 139.287 209.555 139.851L209.132 140.116C209.484 140.679 209.835 141.242 210.184 141.806L210.609 141.542C210.959 142.107 211.308 142.673 211.654 143.24L211.227 143.5C211.573 144.067 211.917 144.633 212.257 145.201L212.686 144.944C213.028 145.515 213.367 146.086 213.701 146.659L213.27 146.911C213.605 147.485 213.936 148.059 214.262 148.633L214.697 148.387C215.025 148.966 215.349 149.546 215.666 150.127L215.227 150.366C215.546 150.948 215.858 151.531 216.163 152.115L216.606 151.883C216.915 152.474 217.218 153.067 217.512 153.66L217.064 153.882C217.359 154.476 217.646 155.071 217.924 155.666L218.377 155.455C218.659 156.059 218.932 156.664 219.195 157.269L218.736 157.468C219 158.077 219.254 158.685 219.496 159.295L219.961 159.11C220.207 159.731 220.443 160.353 220.666 160.976L220.195 161.144C220.418 161.766 220.629 162.39 220.825 163.013L221.302 162.863C221.503 163.499 221.689 164.135 221.861 164.773L221.378 164.903C221.55 165.54 221.706 166.178 221.847 166.817L222.335 166.709C222.478 167.36 222.605 168.013 222.714 168.666L222.22 168.748C222.274 169.071 222.324 169.394 222.369 169.718C222.413 170.036 222.453 170.355 222.488 170.673L222.985 170.618C223.058 171.265 223.112 171.913 223.15 172.561L222.651 172.59C222.689 173.231 222.711 173.873 222.717 174.515L223.217 174.51C223.224 175.159 223.216 175.809 223.193 176.46L222.694 176.443C222.671 177.084 222.636 177.727 222.587 178.37L223.086 178.407C223.037 179.054 222.975 179.702 222.902 180.349L222.406 180.293C222.334 180.932 222.251 181.572 222.157 182.212L222.652 182.284C222.558 182.926 222.455 183.568 222.342 184.21L221.85 184.124C221.738 184.758 221.618 185.393 221.49 186.029L221.981 186.127C221.853 186.763 221.717 187.399 221.575 188.035L221.087 187.926C220.946 188.556 220.799 189.186 220.646 189.817L221.132 189.934C220.98 190.565 220.822 191.196 220.659 191.827L220.175 191.702C220.014 192.329 219.848 192.956 219.68 193.583L220.162 193.713C219.994 194.341 219.822 194.968 219.648 195.595L219.166 195.461C218.993 196.087 218.817 196.712 218.641 197.338L219.122 197.474C218.955 198.063 218.788 198.652 218.621 199.24C218.611 199.277 218.6 199.314 218.59 199.351L218.109 199.214C217.931 199.84 217.754 200.466 217.577 201.092L218.059 201.228C217.882 201.855 217.707 202.481 217.534 203.107L217.052 202.973C216.878 203.602 216.706 204.231 216.538 204.859L217.021 204.988C216.853 205.618 216.688 206.247 216.528 206.875L216.043 206.752C215.882 207.386 215.725 208.02 215.574 208.653L216.06 208.769C215.908 209.404 215.763 210.038 215.624 210.671L215.136 210.564C214.996 211.205 214.863 211.846 214.738 212.486L215.229 212.581C215.104 213.222 214.988 213.862 214.882 214.501L214.389 214.419C214.281 215.068 214.183 215.716 214.096 216.364L214.591 216.43C214.505 217.077 214.43 217.723 214.367 218.368L213.869 218.32C213.806 218.975 213.755 219.631 213.719 220.285L214.218 220.313C214.182 220.964 214.16 221.613 214.154 222.262L213.654 222.257C213.648 222.917 213.658 223.575 213.685 224.232L214.185 224.212C214.212 224.862 214.256 225.51 214.319 226.157L213.822 226.205C213.886 226.861 213.968 227.516 214.072 228.169L214.566 228.091C214.667 228.731 214.788 229.369 214.93 230.006L214.442 230.115C214.585 230.756 214.75 231.396 214.937 232.034L215.417 231.894C215.598 232.513 215.801 233.13 216.026 233.745L215.557 233.917C215.671 234.228 215.79 234.538 215.916 234.848C216.042 235.158 216.17 235.467 216.302 235.775L216.762 235.578C217.023 236.188 217.296 236.79 217.58 237.386L217.128 237.601C217.416 238.205 217.716 238.803 218.026 239.393L218.469 239.16C218.777 239.747 219.096 240.326 219.426 240.899L218.992 241.148C219.326 241.728 219.67 242.3 220.024 242.866L220.448 242.6C220.799 243.161 221.161 243.715 221.532 244.262L221.119 244.543C221.493 245.096 221.878 245.641 222.272 246.18L222.676 245.885C223.066 246.419 223.465 246.946 223.874 247.467L223.481 247.776C223.892 248.3 224.312 248.818 224.741 249.33L225.124 249.009C225.549 249.516 225.982 250.016 226.423 250.51L226.05 250.843C226.493 251.34 226.945 251.831 227.404 252.315L227.767 251.971C228.221 252.451 228.683 252.925 229.152 253.393L228.799 253.747C229.27 254.217 229.748 254.681 230.233 255.139L230.577 254.776C231.057 255.229 231.543 255.677 232.037 256.12L231.702 256.492C232.197 256.936 232.698 257.375 233.205 257.808L233.529 257.428C234.031 257.858 234.539 258.282 235.053 258.701L234.737 259.088C235.251 259.508 235.771 259.923 236.297 260.333L236.604 259.939C237.125 260.345 237.651 260.747 238.182 261.144L237.882 261.544C238.414 261.942 238.95 262.335 239.491 262.723L239.783 262.317C240.319 262.703 240.86 263.084 241.405 263.461L241.121 263.872C241.667 264.249 242.218 264.622 242.771 264.991L243.048 264.575C243.599 264.941 244.153 265.303 244.71 265.661L244.439 266.082C244.998 266.441 245.559 266.796 246.124 267.147L246.388 266.722C246.95 267.071 247.514 267.416 248.082 267.758L247.824 268.186C248.392 268.528 248.964 268.867 249.537 269.201L249.789 268.77C250.361 269.103 250.934 269.433 251.51 269.759L251.263 270.194C251.841 270.522 252.42 270.846 253.001 271.166L253.242 270.728C253.822 271.048 254.403 271.364 254.986 271.678L254.749 272.118C255.334 272.432 255.92 272.743 256.507 273.051L256.739 272.609C257.326 272.916 257.914 273.221 258.502 273.522L258.274 273.967C258.865 274.27 259.456 274.57 260.048 274.867L260.272 274.421C260.865 274.718 261.458 275.013 262.05 275.304L261.829 275.753C262.425 276.046 263.021 276.337 263.617 276.625L263.834 276.174C264.432 276.463 265.029 276.749 265.625 277.033L265.41 277.484C265.709 277.627 266.008 277.768 266.307 277.909C266.607 278.051 266.909 278.192 267.211 278.33L267.42 277.876C268.021 278.153 268.625 278.423 269.23 278.687L269.03 279.146C269.64 279.412 270.252 279.671 270.866 279.925L271.057 279.463C271.668 279.715 272.282 279.962 272.898 280.202L272.716 280.668C273.335 280.91 273.957 281.146 274.58 281.375L274.753 280.906C275.374 281.135 275.996 281.358 276.621 281.575L276.457 282.047C277.085 282.265 277.715 282.477 278.346 282.683L278.501 282.208C279.13 282.413 279.761 282.612 280.393 282.806L280.247 283.284C280.882 283.478 281.519 283.667 282.158 283.85L282.296 283.369C282.932 283.551 283.569 283.727 284.208 283.897L284.079 284.38C284.721 284.552 285.365 284.717 286.009 284.877L286.13 284.392C286.772 284.551 287.415 284.704 288.06 284.852L287.948 285.339C288.595 285.488 289.244 285.631 289.894 285.768L289.997 285.279C290.644 285.416 291.292 285.547 291.942 285.673L291.847 286.164C292.499 286.29 293.152 286.411 293.806 286.527L293.893 286.034C294.544 286.149 295.196 286.259 295.849 286.363L295.77 286.857C296.426 286.962 297.083 287.061 297.74 287.156L297.811 286.661C298.466 286.755 299.121 286.843 299.777 286.927L299.714 287.423C300.373 287.507 301.032 287.586 301.692 287.659L301.747 287.162C302.405 287.236 303.062 287.304 303.721 287.368L303.673 287.865C304.334 287.929 304.995 287.988 305.657 288.041L305.697 287.543C306.356 287.597 307.016 287.645 307.676 287.689L307.643 288.188C308.305 288.232 308.968 288.272 309.631 288.306L309.657 287.807C310.317 287.841 310.978 287.871 311.639 287.896L311.62 288.396C312.283 288.421 312.946 288.441 313.61 288.457L313.622 287.958C314.283 287.973 314.944 287.985 315.606 287.992L315.601 288.492C316.264 288.499 316.928 288.501 317.591 288.499L317.59 287.999C318.251 287.998 318.913 287.991 319.574 287.981L319.582 288.481C320.245 288.47 320.909 288.455 321.572 288.436L321.558 287.936C322.219 287.917 322.88 287.894 323.541 287.867L323.561 288.366C324.224 288.339 324.887 288.307 325.55 288.271L325.523 287.772C326.183 287.737 326.843 287.697 327.503 287.653L327.536 288.152C327.867 288.13 328.198 288.107 328.529 288.083C328.866 288.059 329.203 288.033 329.539 288.005L329.498 287.506C330.168 287.45 330.836 287.387 331.502 287.316L331.555 287.813C332.227 287.741 332.897 287.662 333.565 287.576L333.501 287.08C334.168 286.994 334.833 286.901 335.495 286.801L335.57 287.296C336.238 287.195 336.904 287.087 337.568 286.973L337.483 286.48C338.145 286.366 338.805 286.245 339.463 286.118L339.558 286.609C340.221 286.481 340.882 286.346 341.541 286.205L341.436 285.716C342.093 285.576 342.748 285.429 343.401 285.276L343.515 285.763C344.172 285.61 344.827 285.45 345.48 285.285L345.358 284.8C346.008 284.636 346.658 284.465 347.305 284.289L347.436 284.772C348.087 284.595 348.735 284.413 349.383 284.226L349.244 283.746C349.888 283.559 350.532 283.367 351.173 283.17L351.32 283.648C351.964 283.451 352.606 283.249 353.248 283.041L353.094 282.566C353.732 282.359 354.369 282.148 355.005 281.933L355.166 282.406C355.803 282.19 356.439 281.97 357.075 281.745L356.908 281.273C357.54 281.05 358.171 280.822 358.801 280.59L358.974 281.059C359.606 280.826 360.236 280.59 360.865 280.35L360.687 279.883C361.314 279.644 361.939 279.401 362.564 279.155L362.747 279.62C363.373 279.373 363.998 279.123 364.622 278.87L364.434 278.407C365.055 278.154 365.676 277.899 366.296 277.64L366.488 278.102C367.108 277.843 367.728 277.582 368.347 277.317L368.151 276.857C368.768 276.594 369.384 276.328 369.999 276.059L370.199 276.518C370.815 276.249 371.43 275.978 372.045 275.705L371.842 275.248C372.455 274.975 373.067 274.701 373.679 274.424L373.885 274.88C374.497 274.603 375.109 274.324 375.72 274.044L375.512 273.59C376.121 273.31 376.731 273.028 377.34 272.746L377.55 273.199C378.159 272.916 378.768 272.632 379.377 272.346L379.164 271.894C379.771 271.609 380.379 271.323 380.986 271.035L381.199 271.487C381.806 271.2 382.413 270.912 383.019 270.623L382.804 270.172C383.41 269.883 384.016 269.594 384.621 269.304L384.837 269.755C385.14 269.61 385.443 269.465 385.746 269.32C386.035 269.182 386.326 269.044 386.619 268.907L386.407 268.454C386.992 268.18 387.582 267.91 388.177 267.643L388.382 268.099C388.969 267.836 389.562 267.576 390.158 267.318L389.96 266.859C390.553 266.602 391.151 266.348 391.752 266.096L391.945 266.557C392.54 266.308 393.139 266.06 393.74 265.814L393.551 265.351C394.15 265.106 394.752 264.863 395.356 264.62L395.543 265.084C396.143 264.844 396.745 264.604 397.35 264.365L397.166 263.9C397.768 263.661 398.372 263.424 398.977 263.186L399.16 263.651C399.458 263.534 399.757 263.417 400.055 263.3C400.361 263.18 400.666 263.061 400.972 262.941L400.789 262.475C401.393 262.239 401.998 262.002 402.602 261.764L402.785 262.229C403.389 261.992 403.994 261.753 404.598 261.514L404.413 261.049C405.017 260.81 405.62 260.569 406.222 260.327L406.408 260.791C407.012 260.548 407.615 260.303 408.216 260.057L408.026 259.594C408.627 259.347 409.227 259.098 409.824 258.847L410.018 259.308C410.619 259.055 411.218 258.8 411.814 258.541L411.615 258.082C412.212 257.824 412.805 257.562 413.396 257.297L413.601 257.753C414.197 257.485 414.789 257.214 415.377 256.939L415.166 256.486C415.755 256.21 416.341 255.93 416.922 255.646L417.142 256.095C417.73 255.807 418.313 255.514 418.891 255.217L418.663 254.772C419.242 254.474 419.816 254.17 420.384 253.861L420.623 254.301C421.199 253.987 421.769 253.668 422.333 253.342L422.083 252.909C422.647 252.583 423.205 252.25 423.755 251.911L424.017 252.336C424.576 251.991 425.128 251.639 425.671 251.279L425.395 250.862C425.939 250.502 426.473 250.134 426.999 249.758L427.29 250.165C427.825 249.782 428.351 249.391 428.867 248.991L428.561 248.596C429.075 248.196 429.58 247.788 430.073 247.37L430.396 247.751C430.899 247.326 431.39 246.89 431.87 246.444L431.529 246.078C432.005 245.635 432.469 245.181 432.921 244.717L433.279 245.065C433.738 244.593 434.184 244.11 434.616 243.614L434.24 243.286C434.666 242.797 435.079 242.296 435.478 241.784L435.872 242.091C436.276 241.572 436.665 241.04 437.038 240.496L436.626 240.213C436.992 239.68 437.343 239.135 437.679 238.576L438.107 238.833C438.445 238.272 438.766 237.697 439.072 237.108L438.628 236.878C438.925 236.306 439.206 235.722 439.471 235.124L439.929 235.326C440.062 235.025 440.192 234.72 440.317 234.412C440.446 234.096 440.568 233.78 440.684 233.464L440.215 233.292C440.445 232.664 440.651 232.036 440.834 231.407L441.314 231.546C441.503 230.895 441.668 230.243 441.81 229.59L441.321 229.484C441.462 228.834 441.58 228.183 441.675 227.531L442.17 227.604C442.268 226.936 442.343 226.268 442.396 225.6L441.898 225.56C441.951 224.9 441.983 224.239 441.995 223.578L442.495 223.587C442.507 222.916 442.499 222.245 442.472 221.573L441.972 221.593C441.946 220.934 441.901 220.273 441.84 219.613L442.338 219.566C442.276 218.901 442.197 218.236 442.102 217.571L441.607 217.641C441.515 216.989 441.407 216.336 441.285 215.682L441.777 215.591C441.655 214.937 441.52 214.282 441.371 213.628L440.884 213.738C440.739 213.096 440.581 212.453 440.413 211.809L440.896 211.683C440.728 211.041 440.549 210.398 440.361 209.755L439.881 209.896C439.695 209.264 439.5 208.631 439.297 207.998L439.773 207.845C439.57 207.214 439.36 206.583 439.142 205.951L438.669 206.114C438.454 205.491 438.232 204.867 438.004 204.243L438.473 204.071C438.246 203.449 438.013 202.827 437.775 202.204L437.308 202.382C437.073 201.766 436.833 201.149 436.589 200.532L437.054 200.348C436.811 199.733 436.564 199.117 436.314 198.501L435.851 198.689C435.603 198.077 435.352 197.465 435.099 196.851L435.562 196.661C435.31 196.049 435.056 195.437 434.801 194.825L434.34 195.017C434.175 194.62 434.009 194.222 433.844 193.825C433.755 193.611 433.666 193.397 433.577 193.184L434.039 192.992C433.784 192.381 433.531 191.77 433.278 191.158L432.816 191.349C432.563 190.738 432.311 190.125 432.061 189.513L432.524 189.324C432.274 188.711 432.027 188.099 431.782 187.486L431.318 187.671C431.072 187.056 430.83 186.44 430.591 185.824L431.058 185.643C430.819 185.027 430.584 184.41 430.355 183.793L429.886 183.968C429.655 183.346 429.429 182.724 429.208 182.102L429.679 181.935C429.459 181.312 429.244 180.689 429.037 180.066L428.563 180.224C428.353 179.594 428.15 178.964 427.956 178.333L428.434 178.185C428.239 177.555 428.053 176.924 427.876 176.293L427.394 176.428C427.215 175.789 427.045 175.149 426.885 174.509L427.37 174.388C427.211 173.748 427.062 173.109 426.924 172.47L426.436 172.575C426.296 171.926 426.168 171.276 426.053 170.627L426.546 170.54C426.489 170.217 426.435 169.894 426.384 169.572C426.334 169.255 426.287 168.937 426.242 168.62L425.747 168.69C425.656 168.05 425.573 167.41 425.499 166.769L425.995 166.711C425.921 166.073 425.855 165.435 425.796 164.796L425.299 164.842C425.239 164.199 425.187 163.555 425.142 162.911L425.64 162.875C425.595 162.234 425.556 161.593 425.522 160.951L425.023 160.977C424.989 160.332 424.961 159.687 424.938 159.041L425.438 159.023C425.415 158.38 425.397 157.737 425.382 157.093L424.882 157.104C424.868 156.459 424.858 155.813 424.851 155.167L425.351 155.162C425.343 154.517 425.34 153.873 425.338 153.228L424.838 153.229C424.836 152.583 424.837 151.938 424.84 151.292L425.34 151.294C425.342 150.648 425.346 150.003 425.351 149.358L424.851 149.354C424.855 148.756 424.86 148.157 424.865 147.559C424.866 147.512 424.866 147.464 424.866 147.417L425.366 147.421C425.372 146.775 425.377 146.129 425.382 145.483L424.882 145.479C424.886 144.833 424.89 144.187 424.892 143.542L425.392 143.543C425.393 142.896 425.394 142.249 425.391 141.602L424.891 141.604C424.889 140.957 424.884 140.312 424.876 139.666L425.375 139.66C425.367 139.012 425.355 138.364 425.339 137.717L424.839 137.729C424.823 137.083 424.803 136.437 424.778 135.793L425.277 135.773C425.252 135.124 425.221 134.476 425.184 133.829L424.685 133.857C424.649 133.212 424.606 132.568 424.556 131.924L425.055 131.886C425.005 131.238 424.948 130.591 424.884 129.944L424.386 129.994C424.322 129.351 424.25 128.709 424.17 128.069L424.666 128.006C424.585 127.361 424.495 126.717 424.395 126.074L423.901 126.15C423.803 125.512 423.695 124.875 423.576 124.24L424.068 124.148C423.949 123.509 423.819 122.87 423.678 122.233L423.19 122.341C423.051 121.712 422.9 121.084 422.738 120.457L423.222 120.332C423.059 119.703 422.884 119.075 422.697 118.448L422.218 118.592C422.033 117.975 421.836 117.361 421.625 116.748L422.098 116.585C421.992 116.277 421.883 115.969 421.771 115.661C421.655 115.344 421.538 115.028 421.42 114.711L420.951 114.886C420.716 114.256 420.477 113.627 420.233 113L420.7 112.819C420.456 112.19 420.208 111.562 419.956 110.935L419.492 111.122C419.241 110.498 418.985 109.875 418.726 109.254L419.187 109.062C418.927 108.439 418.663 107.817 418.394 107.198L417.935 107.397C417.667 106.78 417.395 106.164 417.119 105.551L417.575 105.346C417.298 104.73 417.016 104.116 416.73 103.505L416.277 103.716C415.992 103.107 415.702 102.499 415.408 101.894L415.858 101.676C415.563 101.068 415.264 100.463 414.96 99.8599L414.513 100.085C414.21 99.484 413.902 98.8855 413.59 98.2897L414.033 98.0577C413.72 97.459 413.402 96.8631 413.079 96.2699L412.64 96.5089C412.318 95.9176 411.992 95.3291 411.661 94.7436L412.096 94.4975C411.763 93.9091 411.426 93.3237 411.084 92.7414L410.653 92.9946C410.312 92.4142 409.966 91.8369 409.615 91.2629L410.042 91.0023C409.69 90.4253 409.333 89.8516 408.97 89.2813L408.548 89.5493C408.188 88.981 407.822 88.4162 407.451 87.855L407.868 87.5794C407.496 87.0152 407.118 86.4546 406.735 85.8977L406.323 86.1809C405.942 85.6261 405.556 85.0751 405.165 84.528L405.571 84.2372C405.178 83.6871 404.779 83.141 404.375 82.5989L403.975 82.8976C403.572 82.3579 403.165 81.8222 402.753 81.2908L403.148 80.9842C402.733 80.4499 402.313 79.9198 401.888 79.3942L401.499 79.7086C401.076 79.1854 400.648 78.6667 400.214 78.1524L400.596 77.83C400.16 77.313 399.718 76.8007 399.271 76.293L398.896 76.6234C398.451 76.1184 398.001 75.6182 397.546 75.1228L397.914 74.7844C397.456 74.2865 396.993 73.7935 396.524 73.3055L396.163 73.6519C395.697 73.1669 395.226 72.6868 394.749 72.212L395.101 71.8576C394.622 71.3805 394.137 70.9086 393.647 70.442L393.302 70.8043C392.815 70.341 392.322 69.8829 391.823 69.4302L392.16 69.0601C391.659 68.6056 391.153 68.1565 390.641 67.713L390.313 68.0909C389.805 67.6509 389.292 67.2164 388.772 66.7876L389.09 66.402C388.829 66.1866 388.567 65.9726 388.303 65.76C388.051 65.5571 387.798 65.3544 387.545 65.152L387.233 65.5428C386.728 65.1398 386.22 64.7379 385.71 64.3376L386.018 63.9441C385.508 63.5446 384.995 63.1465 384.48 62.7502L384.175 63.1467C383.662 62.7528 383.147 62.3608 382.629 61.9708L382.93 61.5713C382.412 61.1815 381.891 60.7938 381.367 60.4084L381.071 60.8111C380.55 60.4278 380.026 60.0468 379.5 59.6686L379.792 59.2626C379.265 58.8839 378.735 58.5079 378.203 58.1349L377.916 58.5444C377.386 58.173 376.854 57.8046 376.319 57.4395L376.6 57.0265C376.064 56.6605 375.525 56.2978 374.984 55.9386L374.707 56.3553C374.168 55.9975 373.626 55.6432 373.081 55.2929L373.352 54.8724C372.805 54.5207 372.256 54.1729 371.705 53.8293L371.44 54.2536C370.891 53.9111 370.339 53.5727 369.784 53.2389L370.042 52.8106C369.485 52.4751 368.925 52.144 368.363 51.8179L368.112 52.2503C367.552 51.925 366.989 51.6046 366.424 51.2893L366.668 50.8527C366.1 50.5354 365.529 50.2234 364.956 49.9167L364.72 50.3576C364.149 50.0518 363.575 49.7515 362.999 49.457L363.227 49.0118C362.647 48.7152 362.065 48.4244 361.481 48.1397L361.262 48.5892C360.679 48.3053 360.094 48.0276 359.507 47.7564L359.717 47.3025C359.125 47.0291 358.532 46.7622 357.936 46.5021L357.736 46.9604C357.142 46.7011 356.545 46.4487 355.947 46.2035L356.137 45.7408C355.533 45.4935 354.928 45.2534 354.321 45.0208L354.142 45.4878C353.536 45.256 352.929 45.0319 352.32 44.8157L352.487 44.3445C351.872 44.1263 351.255 43.9161 350.636 43.7143L350.481 44.1896C349.865 43.9885 349.247 43.7959 348.627 43.6119L348.769 43.1325C348.143 42.9468 347.516 42.7698 346.886 42.602L346.758 43.0851C346.131 42.9181 345.503 42.7602 344.874 42.6118L344.989 42.1252C344.353 41.9754 343.716 41.8351 343.077 41.7047L342.977 42.1946C342.342 42.0651 341.706 41.9454 341.068 41.8359L341.153 41.3432C340.509 41.2327 339.864 41.1325 339.218 41.0429L339.149 41.5382C338.508 41.4494 337.865 41.3711 337.221 41.3037L337.273 40.8065C336.624 40.7385 335.974 40.6816 335.322 40.6359L335.287 41.1346C334.642 41.0894 333.995 41.0554 333.348 41.0329L333.365 40.5332C332.713 40.5105 332.06 40.4993 331.405 40.5L331.406 41C330.76 41.0007 330.113 41.0131 329.464 41.0375L329.446 40.5379C329.119 40.5502 328.792 40.5655 328.465 40.5838Z" stroke="#00BB7E" stroke-dasharray="2 2"/>
</g>
</svg>
