<svg width="276" height="187" viewBox="0 0 276 187" fill="none" xmlns="http://www.w3.org/2000/svg">
<path d="M262.954 187L115.081 186.949L40.7725 186.923L36.6355 186.92L21.7068 186.918C21.7068 186.918 0.381795 169.582 0.0123887 145.075C-0.715534 96.7846 30.893 118.536 26.5988 60.3361C22.6804 7.22905 125.059 -21.4082 180.65 19.165C200.861 33.9162 202.446 44.2624 231.489 40.9913C264.273 37.2992 268.009 77.1426 256.535 99.2292C240.253 130.567 301.681 125.419 262.954 187Z" fill="#F7F0FF"/>
<mask id="mask0_4951_28705" style="mask-type:alpha" maskUnits="userSpaceOnUse" x="0" y="0" width="276" height="187">
<path d="M262.954 187L115.081 186.949L40.7725 186.923L36.6355 186.92L21.7068 186.918C21.7068 186.918 0.381795 169.582 0.0123887 145.075C-0.715534 96.7846 30.893 118.536 26.5988 60.3361C22.6804 7.22905 125.059 -21.4082 180.65 19.165C200.861 33.9162 202.446 44.2624 231.489 40.9913C264.273 37.2992 268.009 77.1426 256.535 99.2292C240.253 130.567 301.681 125.419 262.954 187Z" fill="#CEF7F3"/>
</mask>
<g mask="url(#mask0_4951_28705)">
<path d="M69 104.125C45.3383 99.566 7.96149 113.156 7.96149 113.156H-5.30774V187H279.185V154.062C279.185 154.062 234.394 131.689 203.285 128.562C172.536 125.471 154.7 145.672 124.731 138.125C100.013 131.899 94.029 108.947 69 104.125Z" fill="#F1E6FF"/>
</g>
<path fill-rule="evenodd" clip-rule="evenodd" d="M65.8298 181.779V109.912L62.417 109.912C62.4145 109.912 62.4121 109.912 62.4096 109.912C60.3187 109.908 58.6249 108.189 58.6249 106.069V72.249C58.6249 70.4863 59.7959 69.0007 61.3925 68.5478V13.0643C61.3925 10.6234 63.3449 8.64467 65.7533 8.64467H208.335C210.744 8.64467 212.696 10.6234 212.696 13.0643V68.4075C214.738 68.4681 216.375 70.1648 216.375 72.249V106.069C216.375 108.189 214.681 109.908 212.59 109.912C212.588 109.912 212.585 109.912 212.583 109.912L208.412 109.912V181.779L205.831 181.779V182.355H69.6951V181.779L65.8298 181.779ZM65.0702 186.424L61.2049 186.424V114.47C57.1021 113.875 54 110.308 54 106.069V72.249C54 69.7618 55.063 67.5144 56.7676 65.9575V13.0643C56.7676 8.09826 60.751 4 65.7533 4H208.335C213.338 4 217.321 8.09825 217.321 13.0643V65.2316C219.55 66.7661 221 69.3499 221 72.249V106.069C221 110.566 217.51 114.306 213.037 114.545V186.424L210.455 186.424V187H65.0702V186.424Z" fill="#192E35"/>
<rect x="64.5809" y="110.064" width="144.941" height="72.6314" fill="white"/>
<path d="M57.2567 72.0012C57.2567 69.8561 58.9826 68.1172 61.1115 68.1172H213.762C215.891 68.1172 217.617 69.8561 217.617 72.0012V106.181C217.617 108.326 215.891 110.065 213.762 110.065H61.1115C58.9825 110.065 57.2567 108.326 57.2567 106.181V72.0012Z" fill="white"/>
<path d="M60.6483 12.1877C60.6483 10.0427 62.3741 8.30371 64.5031 8.30371H209.444C211.573 8.30371 213.299 10.0427 213.299 12.1877V84.8191C213.299 86.9642 211.573 88.7032 209.444 88.7032H64.5031C62.3741 88.7032 60.6483 86.9642 60.6483 84.8191V12.1877Z" fill="#ADB5BD"/>
<path fill-rule="evenodd" clip-rule="evenodd" d="M64.503 7.7207H209.444C211.892 7.7207 213.877 9.72049 213.877 12.1873V84.8188C213.877 87.2856 211.892 89.2854 209.444 89.2854H64.503C62.0547 89.2854 60.07 87.2856 60.07 84.8188V12.1873C60.07 9.72049 62.0547 7.7207 64.503 7.7207ZM64.503 8.30331C62.374 8.30331 60.6482 10.0423 60.6482 12.1873V84.8188C60.6482 86.9638 62.374 88.7028 64.503 88.7028H209.444C211.573 88.7028 213.299 86.9638 213.299 84.8188V12.1873C213.299 10.0422 211.573 8.30331 209.444 8.30331H64.503Z" fill="#192E35"/>
<path d="M60.6483 16.0715C60.6483 13.9264 62.3741 12.1875 64.5031 12.1875H209.444C211.573 12.1875 213.299 13.9264 213.299 16.0715V84.8189C213.299 86.964 211.573 88.7029 209.444 88.7029H64.5031C62.3741 88.7029 60.6483 86.964 60.6483 84.8189V16.0715Z" fill="#CED4DA"/>
<path d="M72.172 39.3762C72.172 37.2311 73.8979 35.4922 76.0268 35.4922H199.381C201.51 35.4922 203.236 37.2311 203.236 39.3762V162.5C203.236 164.645 201.51 166.384 199.381 166.384H76.0268C73.8979 166.384 72.172 164.645 72.172 162.5V39.3762Z" fill="#F8F9FA"/>
<path fill-rule="evenodd" clip-rule="evenodd" d="M76.0269 34.9092H199.381C201.829 34.9092 203.814 36.909 203.814 39.3758V162.5C203.814 164.967 201.829 166.966 199.381 166.966H76.0269C73.5786 166.966 71.5939 164.967 71.5939 162.5V39.3758C71.5939 36.909 73.5786 34.9092 76.0269 34.9092ZM76.0269 35.4918C73.898 35.4918 72.1721 37.2307 72.1721 39.3758V162.5C72.1721 164.645 73.898 166.384 76.0269 166.384H199.381C201.51 166.384 203.236 164.645 203.236 162.5V39.3758C203.236 37.2307 201.51 35.4918 199.381 35.4918H76.0269Z" fill="#192E35"/>
<path d="M69.0883 68.8948C69.0883 66.7497 70.8141 65.0107 72.9431 65.0107H202.465C204.594 65.0107 206.32 66.7497 206.32 68.8948V182.697H69.0883V68.8948Z" fill="#B9F1FD"/>
<path fill-rule="evenodd" clip-rule="evenodd" d="M206.898 183.279H68.51V68.8944C68.51 66.4275 70.4947 64.4277 72.943 64.4277H202.465C204.913 64.4277 206.898 66.4275 206.898 68.8944V183.279ZM72.943 65.0103C70.8141 65.0103 69.0882 66.7493 69.0882 68.8944V182.697H206.32V68.8944C206.32 66.7493 204.594 65.0103 202.465 65.0103H72.943Z" fill="#192E35"/>
<path fill-rule="evenodd" clip-rule="evenodd" d="M111.536 100.093C100.107 99.2468 91.3606 100.429 87.3189 100.88L85.6639 100.972C89.5472 100.238 100.164 99.0069 111.927 99.8781C117.721 100.307 121.696 100.575 124.31 100.735C126.952 100.898 128.157 100.947 128.452 100.947L127.669 101.132C127.246 101.132 125.572 101.107 122.968 100.947C120.336 100.785 117.144 100.433 111.536 100.093Z" fill="#243D42"/>
<path fill-rule="evenodd" clip-rule="evenodd" d="M129.994 134.662C125.567 133.815 122.179 134.997 120.613 135.448L119.972 135.54C121.476 134.807 125.589 133.575 130.146 134.446C132.39 134.876 133.93 135.143 134.943 135.304C135.966 135.466 136.433 135.515 136.547 135.515L136.244 135.7C136.08 135.7 135.432 135.675 134.423 135.515C133.403 135.354 132.167 135.002 129.994 134.662Z" fill="#243D42"/>
<path fill-rule="evenodd" clip-rule="evenodd" d="M182.455 157.189C171.541 156.342 163.189 157.524 159.329 157.976L157.749 158.068C161.457 157.334 171.596 156.103 182.829 156.974C188.362 157.403 192.158 157.671 194.655 157.831C197.177 157.993 198.328 158.043 198.61 158.043L197.862 158.227C197.458 158.227 195.86 158.203 193.373 158.043C190.859 157.881 187.811 157.529 182.455 157.189Z" fill="#243D42"/>
<path fill-rule="evenodd" clip-rule="evenodd" d="M101.119 169.229C90.2049 168.383 81.8525 169.564 77.9929 170.016L76.4124 170.108C80.1208 169.374 90.2598 168.143 101.493 169.014C107.025 169.443 110.822 169.711 113.318 169.871C115.841 170.033 116.992 170.083 117.273 170.083L116.525 170.267C116.121 170.267 114.523 170.243 112.036 170.083C109.523 169.921 106.475 169.569 101.119 169.229Z" fill="#243D42"/>
<path fill-rule="evenodd" clip-rule="evenodd" d="M171.178 106.696C157.072 105.849 146.277 107.031 141.289 107.482L139.246 107.575C144.039 106.841 157.143 105.609 171.661 106.481C178.812 106.91 183.718 107.178 186.945 107.338C190.205 107.5 191.693 107.55 192.057 107.55L191.09 107.734C190.568 107.734 188.502 107.709 185.288 107.55C182.039 107.388 178.1 107.036 171.178 106.696Z" fill="#243D42"/>
<path d="M115.181 43.9362L115.181 43.9362C114.842 44.1513 114.72 44.5215 114.676 44.8391C114.63 45.1674 114.651 45.5567 114.703 45.9676C114.799 46.7319 115.02 47.6971 115.256 48.7257C115.274 48.806 115.293 48.8866 115.311 48.9676C115.835 51.2579 116.392 53.8365 116.075 55.7881C116.049 55.9469 116.022 56.1103 115.995 56.2779C115.667 58.2861 115.242 60.8939 115.021 63.3246C114.901 64.6416 114.839 65.9201 114.888 67.0324C114.936 68.1303 115.093 69.1256 115.449 69.8376L115.181 43.9362ZM115.181 43.9362C115.546 43.7039 116.477 43.3167 117.764 42.8743C119.075 42.4241 120.806 41.8997 122.813 41.4004C126.825 40.4026 131.96 39.4998 137.051 39.4998C143.041 39.4998 148.63 40.5994 152.793 41.8394C154.875 42.4595 156.608 43.117 157.863 43.6944C158.489 43.9826 159.005 44.2548 159.388 44.4966C159.58 44.6173 159.746 44.7357 159.88 44.85C160.004 44.9561 160.139 45.091 160.219 45.2516C160.291 45.3956 160.326 45.5615 160.345 45.7104C160.365 45.8674 160.374 46.0465 160.374 46.2394C160.375 46.6255 160.343 47.104 160.289 47.6418C160.18 48.7194 159.979 50.0799 159.748 51.5063C159.579 52.5493 159.394 53.6257 159.217 54.6589C158.907 56.4717 158.619 58.1512 158.478 59.2832L158.478 59.2833M115.181 43.9362L158.478 59.2833M158.478 59.2833C158.372 60.1247 158.403 61.221 158.494 62.4461C158.55 63.2044 158.627 63.9895 158.704 64.7796C158.752 65.2679 158.8 65.7582 158.843 66.2453C158.955 67.5036 159.035 68.7284 158.984 69.744C158.959 70.2524 158.9 70.7266 158.788 71.136C158.677 71.5412 158.504 71.9221 158.223 72.2031C157.754 72.6707 157.037 73.0651 156.055 73.4014C155.067 73.7398 153.775 74.0318 152.121 74.2718C148.812 74.7518 144 75.0312 137.163 75.0312C130.31 75.0312 125.254 74.4148 121.742 73.4776M158.478 59.2833L121.742 73.4776M121.742 73.4776C119.986 73.0091 118.601 72.4566 117.566 71.8509M121.742 73.4776L117.566 71.8509M117.566 71.8509C116.537 71.2485 115.817 70.572 115.449 69.8377L117.566 71.8509Z" fill="#708BA6" stroke="#192E35"/>
<mask id="path-20-outside-1_4951_28705" maskUnits="userSpaceOnUse" x="100.13" y="39" width="79" height="140" fill="black">
<rect fill="white" x="100.13" y="39" width="79" height="140"/>
<path fill-rule="evenodd" clip-rule="evenodd" d="M147.755 85.7814C147.973 85.6413 148.282 85.4221 148.73 85.0912C151.034 83.3912 163.813 67.1185 165.863 63.6633C166.907 61.9044 168.59 58.0599 170.132 54.5376C171.62 51.1393 172.976 48.0409 173.501 47.405C173.756 47.0955 174.2 46.6953 174.715 46.2319C176.352 44.7568 178.701 42.6402 177.952 40.7609C176.968 38.2912 173.15 42.5055 172.659 43.8804C172.659 43.8804 173.294 40.8628 171.96 40.7345C170.827 40.6255 170.625 44.0684 170.531 45.6552C170.515 45.9351 170.502 46.1573 170.488 46.292C170.393 47.1907 161.808 60.5688 160.703 62.2749C159.598 63.9795 150.979 73.3952 150.395 73.7929C148.76 74.9065 147.121 75.0539 146.279 75.0412C146.266 74.7437 146.243 74.551 146.201 74.4962C145.819 74.0068 144.801 73.6762 144.541 74.484C143.916 74.3128 143.049 74.0419 142.675 73.7707C142.328 73.5185 142.141 72.5375 142.044 71.7301C145.872 71.9385 146.63 68.8923 146.978 67.4957C147.075 67.1078 147.14 66.8472 147.23 66.8189C147.659 66.6831 148.946 66.0077 148.088 64.7918C147.041 63.3088 147.561 61.2508 148.03 59.3919C148.363 58.0714 148.671 56.8515 148.374 56.0096L147.803 54.9304C147.807 54.5065 147.635 53.7906 147.201 52.6691C146.982 52.5197 146.777 52.3755 146.58 52.2378C145.679 51.6069 144.97 51.1101 144.12 50.8518C143.304 49.3098 141.753 48.149 140.037 48.1494C139.906 48.1494 139.774 48.1558 139.642 48.1622C139.39 48.1745 139.137 48.1868 138.887 48.1537C138.461 48.0976 138.066 47.9139 137.674 47.7312C137.589 47.6915 137.504 47.652 137.418 47.6138C135.46 46.7361 129.875 46.6689 128.445 48.2816C128.08 49.0926 128.279 49.2307 128.507 49.3883C128.761 49.5646 129.051 49.7652 128.623 50.9598C127.653 51.2626 126.646 51.586 125.905 52.2875C125.163 52.989 124.775 54.1868 125.296 55.0686C124.001 56.0484 122.594 58.0464 123.4 59.4636C123.425 59.5061 123.45 59.5483 123.475 59.5906C123.588 59.7809 123.703 59.9731 123.729 60.1913C123.75 60.3709 123.709 60.5511 123.669 60.7276L123.666 60.7395C123.373 62.0261 124.302 63.6278 125.359 64.4018C125.394 64.4271 125.43 64.4514 125.465 64.4758L125.465 64.4758L125.465 64.4758C125.594 64.5634 125.723 64.6516 125.801 64.7851C125.903 64.9609 125.892 65.1746 125.882 65.3812L125.879 65.4326L125.878 65.4662C125.824 66.8604 126.752 68.2367 128.055 68.6952L135.878 69.4048C136.309 69.7732 136.797 70.1125 137.347 70.4131C137.294 71.028 137.053 73.2045 136.24 73.8263C135.574 74.3348 134.606 74.5968 134.085 74.7082C133.633 74.1799 132.246 74.2165 132.261 75.0378C131.525 75.0669 129.919 74.9665 128.291 73.7919C127.741 73.395 119.599 63.9792 118.557 62.2739C117.513 60.5685 109.405 47.1912 109.316 46.2917C109.302 46.1561 109.29 45.9322 109.274 45.6499C109.186 44.0609 108.994 40.6259 107.925 40.7342C106.665 40.8624 107.265 43.8808 107.265 43.8808C106.8 42.5059 103.194 38.2915 102.266 40.7605C101.558 42.6399 103.777 44.7565 105.323 46.2316C105.809 46.6951 106.228 47.0952 106.469 47.4047C106.965 48.0402 108.246 51.1386 109.651 54.5371L109.651 54.5371C111.107 58.0593 112.697 61.9037 113.683 63.6623C115.62 67.1183 127.688 83.391 129.864 85.0919C130.245 85.3896 130.519 85.5969 130.721 85.7374C130.813 86.1644 130.926 86.6585 131.047 87.1913C131.514 89.2429 132.111 91.868 132.209 93.4388C132.313 95.0868 130.979 98.8882 130 101.677C129.386 103.426 128.912 104.777 129.02 104.949C129.028 104.962 129.037 104.977 129.048 104.994C129.128 105.127 129.29 105.391 129.58 105.724C129.049 109.947 126.85 127.936 127.59 130.399C127.653 130.607 127.747 130.79 127.868 130.951C127.394 135.614 126.388 141.374 125.738 144.629C125.32 146.727 125.138 150.342 124.954 154.001C124.73 158.451 124.502 162.966 123.843 164.895C122.641 168.411 121.691 175.521 125.038 175.816C127.665 176.047 127.923 170.353 128.094 166.551C128.141 165.511 128.182 164.613 128.263 164.017C128.639 161.239 129.387 157.811 130.571 154.629C131.754 151.449 134.304 141.739 134.65 139.52C134.76 138.812 134.852 137.819 134.958 136.673C135.105 135.08 135.28 133.19 135.57 131.36C135.597 131.354 135.621 131.35 135.642 131.346C135.667 131.341 135.688 131.337 135.706 131.334C136.034 131.284 136.651 128.333 137.328 125.097C138.154 121.145 139.069 116.77 139.653 116.739C140.256 116.707 141.015 121.308 141.672 125.295C142.174 128.337 142.616 131.023 142.886 131.023C142.917 131.035 142.964 131.049 143.026 131.064C143.446 133.465 143.573 136.211 143.674 138.399V138.399C143.727 139.546 143.773 140.54 143.851 141.251C144.095 143.484 146.196 153.3 147.232 156.532C148.268 159.763 148.858 163.222 149.107 166.014C149.16 166.614 149.159 167.512 149.159 168.553C149.155 172.358 149.151 178.06 151.787 177.948C155.143 177.807 154.521 170.66 153.482 167.093C152.912 165.136 152.892 160.618 152.872 156.163C152.856 152.499 152.841 148.878 152.519 146.762C151.948 143.01 151.061 135.964 150.94 131.066C150.953 131.057 150.966 131.049 150.978 131.04C150.986 131.034 150.995 131.029 151.003 131.023C151.758 130.471 151.913 123.824 151.684 117.317C151.692 117.139 151.696 117.042 151.696 117.042L151.674 117.045C151.499 112.299 151.12 107.674 150.622 105.598C150.965 105.305 151.126 105.116 151.126 105.116C150.977 104.203 150.294 102.385 149.526 100.342C148.275 97.0092 146.797 93.0758 147.04 91.4828C147.076 91.2473 147.114 91.003 147.152 90.7529C147.421 89.0178 147.732 87.0067 147.755 85.7814Z"/>
</mask>
<path fill-rule="evenodd" clip-rule="evenodd" d="M147.755 85.7814C147.973 85.6413 148.282 85.4221 148.73 85.0912C151.034 83.3912 163.813 67.1185 165.863 63.6633C166.907 61.9044 168.59 58.0599 170.132 54.5376C171.62 51.1393 172.976 48.0409 173.501 47.405C173.756 47.0955 174.2 46.6953 174.715 46.2319C176.352 44.7568 178.701 42.6402 177.952 40.7609C176.968 38.2912 173.15 42.5055 172.659 43.8804C172.659 43.8804 173.294 40.8628 171.96 40.7345C170.827 40.6255 170.625 44.0684 170.531 45.6552C170.515 45.9351 170.502 46.1573 170.488 46.292C170.393 47.1907 161.808 60.5688 160.703 62.2749C159.598 63.9795 150.979 73.3952 150.395 73.7929C148.76 74.9065 147.121 75.0539 146.279 75.0412C146.266 74.7437 146.243 74.551 146.201 74.4962C145.819 74.0068 144.801 73.6762 144.541 74.484C143.916 74.3128 143.049 74.0419 142.675 73.7707C142.328 73.5185 142.141 72.5375 142.044 71.7301C145.872 71.9385 146.63 68.8923 146.978 67.4957C147.075 67.1078 147.14 66.8472 147.23 66.8189C147.659 66.6831 148.946 66.0077 148.088 64.7918C147.041 63.3088 147.561 61.2508 148.03 59.3919C148.363 58.0714 148.671 56.8515 148.374 56.0096L147.803 54.9304C147.807 54.5065 147.635 53.7906 147.201 52.6691C146.982 52.5197 146.777 52.3755 146.58 52.2378C145.679 51.6069 144.97 51.1101 144.12 50.8518C143.304 49.3098 141.753 48.149 140.037 48.1494C139.906 48.1494 139.774 48.1558 139.642 48.1622C139.39 48.1745 139.137 48.1868 138.887 48.1537C138.461 48.0976 138.066 47.9139 137.674 47.7312C137.589 47.6915 137.504 47.652 137.418 47.6138C135.46 46.7361 129.875 46.6689 128.445 48.2816C128.08 49.0926 128.279 49.2307 128.507 49.3883C128.761 49.5646 129.051 49.7652 128.623 50.9598C127.653 51.2626 126.646 51.586 125.905 52.2875C125.163 52.989 124.775 54.1868 125.296 55.0686C124.001 56.0484 122.594 58.0464 123.4 59.4636C123.425 59.5061 123.45 59.5483 123.475 59.5906C123.588 59.7809 123.703 59.9731 123.729 60.1913C123.75 60.3709 123.709 60.5511 123.669 60.7276L123.666 60.7395C123.373 62.0261 124.302 63.6278 125.359 64.4018C125.394 64.4271 125.43 64.4514 125.465 64.4758L125.465 64.4758L125.465 64.4758C125.594 64.5634 125.723 64.6516 125.801 64.7851C125.903 64.9609 125.892 65.1746 125.882 65.3812L125.879 65.4326L125.878 65.4662C125.824 66.8604 126.752 68.2367 128.055 68.6952L135.878 69.4048C136.309 69.7732 136.797 70.1125 137.347 70.4131C137.294 71.028 137.053 73.2045 136.24 73.8263C135.574 74.3348 134.606 74.5968 134.085 74.7082C133.633 74.1799 132.246 74.2165 132.261 75.0378C131.525 75.0669 129.919 74.9665 128.291 73.7919C127.741 73.395 119.599 63.9792 118.557 62.2739C117.513 60.5685 109.405 47.1912 109.316 46.2917C109.302 46.1561 109.29 45.9322 109.274 45.6499C109.186 44.0609 108.994 40.6259 107.925 40.7342C106.665 40.8624 107.265 43.8808 107.265 43.8808C106.8 42.5059 103.194 38.2915 102.266 40.7605C101.558 42.6399 103.777 44.7565 105.323 46.2316C105.809 46.6951 106.228 47.0952 106.469 47.4047C106.965 48.0402 108.246 51.1386 109.651 54.5371L109.651 54.5371C111.107 58.0593 112.697 61.9037 113.683 63.6623C115.62 67.1183 127.688 83.391 129.864 85.0919C130.245 85.3896 130.519 85.5969 130.721 85.7374C130.813 86.1644 130.926 86.6585 131.047 87.1913C131.514 89.2429 132.111 91.868 132.209 93.4388C132.313 95.0868 130.979 98.8882 130 101.677C129.386 103.426 128.912 104.777 129.02 104.949C129.028 104.962 129.037 104.977 129.048 104.994C129.128 105.127 129.29 105.391 129.58 105.724C129.049 109.947 126.85 127.936 127.59 130.399C127.653 130.607 127.747 130.79 127.868 130.951C127.394 135.614 126.388 141.374 125.738 144.629C125.32 146.727 125.138 150.342 124.954 154.001C124.73 158.451 124.502 162.966 123.843 164.895C122.641 168.411 121.691 175.521 125.038 175.816C127.665 176.047 127.923 170.353 128.094 166.551C128.141 165.511 128.182 164.613 128.263 164.017C128.639 161.239 129.387 157.811 130.571 154.629C131.754 151.449 134.304 141.739 134.65 139.52C134.76 138.812 134.852 137.819 134.958 136.673C135.105 135.08 135.28 133.19 135.57 131.36C135.597 131.354 135.621 131.35 135.642 131.346C135.667 131.341 135.688 131.337 135.706 131.334C136.034 131.284 136.651 128.333 137.328 125.097C138.154 121.145 139.069 116.77 139.653 116.739C140.256 116.707 141.015 121.308 141.672 125.295C142.174 128.337 142.616 131.023 142.886 131.023C142.917 131.035 142.964 131.049 143.026 131.064C143.446 133.465 143.573 136.211 143.674 138.399V138.399C143.727 139.546 143.773 140.54 143.851 141.251C144.095 143.484 146.196 153.3 147.232 156.532C148.268 159.763 148.858 163.222 149.107 166.014C149.16 166.614 149.159 167.512 149.159 168.553C149.155 172.358 149.151 178.06 151.787 177.948C155.143 177.807 154.521 170.66 153.482 167.093C152.912 165.136 152.892 160.618 152.872 156.163C152.856 152.499 152.841 148.878 152.519 146.762C151.948 143.01 151.061 135.964 150.94 131.066C150.953 131.057 150.966 131.049 150.978 131.04C150.986 131.034 150.995 131.029 151.003 131.023C151.758 130.471 151.913 123.824 151.684 117.317C151.692 117.139 151.696 117.042 151.696 117.042L151.674 117.045C151.499 112.299 151.12 107.674 150.622 105.598C150.965 105.305 151.126 105.116 151.126 105.116C150.977 104.203 150.294 102.385 149.526 100.342C148.275 97.0092 146.797 93.0758 147.04 91.4828C147.076 91.2473 147.114 91.003 147.152 90.7529C147.421 89.0178 147.732 87.0067 147.755 85.7814Z" fill="#192E35"/>
<path d="M147.755 85.7814L147.215 84.9395L146.765 85.228L146.755 85.7624L147.755 85.7814ZM148.73 85.0912L149.324 85.8958L149.324 85.8958L148.73 85.0912ZM165.863 63.6633L165.003 63.1529L165.003 63.153L165.863 63.6633ZM170.132 54.5376L171.048 54.9387V54.9387L170.132 54.5376ZM173.501 47.405L172.73 46.7683L172.729 46.7688L173.501 47.405ZM174.715 46.2319L174.045 45.489V45.489L174.715 46.2319ZM177.952 40.7609L177.023 41.1308L177.023 41.1313L177.952 40.7609ZM172.659 43.8804L171.68 43.6744L173.6 44.2171L172.659 43.8804ZM171.96 40.7345L172.056 39.7391V39.7391L171.96 40.7345ZM170.531 45.6552L169.533 45.5966V45.5966L170.531 45.6552ZM170.488 46.292L169.493 46.1874V46.1875L170.488 46.292ZM160.703 62.2749L161.542 62.8187L161.542 62.8184L160.703 62.2749ZM150.395 73.7929L149.832 72.9664L149.832 72.9664L150.395 73.7929ZM146.279 75.0412L145.28 75.0842L145.321 76.0268L146.264 76.0411L146.279 75.0412ZM146.201 74.4962L146.99 73.8823L146.989 73.8812L146.201 74.4962ZM144.541 74.484L144.277 75.4485L145.2 75.7014L145.493 74.7903L144.541 74.484ZM142.675 73.7707L142.087 74.5795L142.088 74.5801L142.675 73.7707ZM142.044 71.7301L142.098 70.7315L140.909 70.6668L141.051 71.8494L142.044 71.7301ZM146.978 67.4957L146.008 67.254V67.254L146.978 67.4957ZM147.23 66.8189L147.53 67.7729L147.532 67.7722L147.23 66.8189ZM148.088 64.7918L148.905 64.2152L148.905 64.2151L148.088 64.7918ZM148.03 59.3919L149 59.6366V59.6366L148.03 59.3919ZM148.374 56.0096L149.317 55.677L149.293 55.6071L149.258 55.5416L148.374 56.0096ZM147.803 54.9304L146.803 54.9204L146.8 55.1741L146.919 55.3983L147.803 54.9304ZM147.201 52.6691L148.133 52.3078L148.021 52.0188L147.766 51.8438L147.201 52.6691ZM146.58 52.2378L147.154 51.4186V51.4186L146.58 52.2378ZM144.12 50.8518L143.235 51.3191L143.43 51.6874L143.829 51.8085L144.12 50.8518ZM140.037 48.1494V49.1494H140.037L140.037 48.1494ZM139.642 48.1622L139.594 47.1634L139.642 48.1622ZM138.887 48.1537L139.018 47.1624L139.018 47.1623L138.887 48.1537ZM137.674 47.7312L138.096 46.8246L138.096 46.8246L137.674 47.7312ZM137.418 47.6138L137.828 46.7013L137.827 46.7013L137.418 47.6138ZM128.445 48.2816L127.697 47.6183L127.596 47.732L127.534 47.8704L128.445 48.2816ZM128.507 49.3883L127.938 50.2105L127.938 50.2105L128.507 49.3883ZM128.623 50.9598L128.921 51.9144L129.396 51.766L129.564 51.2973L128.623 50.9598ZM125.905 52.2875L126.592 53.014L126.592 53.0139L125.905 52.2875ZM125.296 55.0686L125.899 55.866L126.61 55.328L126.157 54.5603L125.296 55.0686ZM123.4 59.4636L124.269 58.9689L124.269 58.9689L123.4 59.4636ZM123.475 59.5906L124.334 59.0785L124.334 59.0785L123.475 59.5906ZM123.729 60.1913L124.722 60.0731L124.722 60.0725L123.729 60.1913ZM123.669 60.7276L122.694 60.5051L122.694 60.5051L123.669 60.7276ZM123.666 60.7395L122.691 60.517L122.691 60.5174L123.666 60.7395ZM125.359 64.4018L125.95 63.595L125.95 63.595L125.359 64.4018ZM125.465 64.4758L124.902 65.302L124.911 65.3078L125.465 64.4758ZM125.465 64.4758L126.029 63.6496L126.02 63.6438L125.465 64.4758ZM125.801 64.7851L126.666 64.2837L126.666 64.2831L125.801 64.7851ZM125.882 65.3812L124.883 65.3322L124.883 65.3334L125.882 65.3812ZM125.879 65.4326L124.881 65.3848L124.88 65.3903L125.879 65.4326ZM125.878 65.4662L124.879 65.4238L124.879 65.4275L125.878 65.4662ZM128.055 68.6952L127.723 69.6385L127.84 69.6798L127.964 69.6911L128.055 68.6952ZM135.878 69.4048L136.527 68.6446L136.285 68.4377L135.968 68.4089L135.878 69.4048ZM137.347 70.4131L138.343 70.4982L138.398 69.8483L137.826 69.5356L137.347 70.4131ZM136.24 73.8263L136.846 74.6212L136.847 74.6208L136.24 73.8263ZM134.085 74.7082L133.326 75.3588L133.713 75.8106L134.295 75.6861L134.085 74.7082ZM132.261 75.0378L132.3 76.037L133.279 75.9983L133.261 75.0195L132.261 75.0378ZM128.291 73.7919L128.877 72.981L128.876 72.9807L128.291 73.7919ZM118.557 62.2739L119.41 61.7522L119.41 61.7517L118.557 62.2739ZM109.316 46.2917L110.311 46.193L110.311 46.1921L109.316 46.2917ZM109.274 45.6499L110.272 45.5944L109.274 45.6499ZM107.925 40.7342L107.824 39.7392L107.823 39.7393L107.925 40.7342ZM107.265 43.8808L106.318 44.2012L108.246 43.6858L107.265 43.8808ZM102.266 40.7605L103.202 41.1127L103.202 41.1126L102.266 40.7605ZM105.323 46.2316L104.633 46.9551V46.9551L105.323 46.2316ZM106.469 47.4047L107.258 46.79L107.258 46.7897L106.469 47.4047ZM109.651 54.5371L108.727 54.9192L108.74 54.9522L108.756 54.9843L109.651 54.5371ZM109.651 54.5371L110.575 54.155L110.561 54.1219L110.545 54.0899L109.651 54.5371ZM113.683 63.6623L114.555 63.1733L114.555 63.1733L113.683 63.6623ZM129.864 85.0919L129.248 85.8796L129.248 85.8799L129.864 85.0919ZM130.721 85.7374L131.698 85.5254L131.615 85.1417L131.293 84.9172L130.721 85.7374ZM131.047 87.1913L132.022 86.9694H132.022L131.047 87.1913ZM132.209 93.4388L131.211 93.501L131.211 93.5015L132.209 93.4388ZM130 101.677L130.943 102.008L130 101.677ZM129.02 104.949L128.171 105.479L128.172 105.48L129.02 104.949ZM129.048 104.994L128.194 105.515L128.194 105.515L129.048 104.994ZM129.58 105.724L130.572 105.848L130.628 105.404L130.333 105.067L129.58 105.724ZM127.59 130.399L128.548 130.112L128.548 130.111L127.59 130.399ZM127.868 130.951L128.863 131.052L128.903 130.661L128.666 130.348L127.868 130.951ZM125.738 144.629L124.758 144.433L124.757 144.434L125.738 144.629ZM124.954 154.001L123.955 153.951L124.954 154.001ZM123.843 164.895L122.897 164.571L123.843 164.895ZM125.038 175.816L125.125 174.82H125.125L125.038 175.816ZM128.094 166.551L127.095 166.506L128.094 166.551ZM128.263 164.017L129.254 164.151L129.254 164.151L128.263 164.017ZM130.571 154.629L129.634 154.281L129.633 154.281L130.571 154.629ZM134.65 139.52L133.662 139.366L133.662 139.366L134.65 139.52ZM134.958 136.673L133.962 136.581L134.958 136.673ZM135.57 131.36L135.372 130.379L134.691 130.517L134.582 131.203L135.57 131.36ZM135.642 131.346L135.457 130.363L135.457 130.363L135.642 131.346ZM135.706 131.334L135.555 130.346L135.553 130.346L135.706 131.334ZM137.328 125.097L138.306 125.302L137.328 125.097ZM139.653 116.739L139.601 115.74L139.6 115.74L139.653 116.739ZM141.672 125.295L142.659 125.133L141.672 125.295ZM142.886 131.023L143.257 130.094L143.078 130.023H142.886V131.023ZM143.026 131.064L144.012 130.892L143.899 130.251L143.268 130.094L143.026 131.064ZM143.674 138.399H144.674V138.376L144.673 138.353L143.674 138.399ZM143.674 138.399H142.674V138.422L142.676 138.445L143.674 138.399ZM143.851 141.251L142.857 141.359L142.857 141.359L143.851 141.251ZM147.232 156.532L146.28 156.837L146.28 156.837L147.232 156.532ZM149.107 166.014L148.111 166.103V166.103L149.107 166.014ZM149.159 168.553L148.159 168.552L149.159 168.553ZM151.787 177.948L151.745 176.949H151.744L151.787 177.948ZM153.482 167.093L154.442 166.814L153.482 167.093ZM152.872 156.163L153.872 156.159L152.872 156.163ZM152.519 146.762L153.507 146.612L152.519 146.762ZM150.94 131.066L150.401 130.223L149.926 130.527L149.94 131.09L150.94 131.066ZM150.978 131.04L150.41 130.217L150.409 130.218L150.978 131.04ZM151.003 131.023L150.413 130.215L150.413 130.215L151.003 131.023ZM151.684 117.317L150.685 117.272L150.683 117.312L150.685 117.352L151.684 117.317ZM151.696 117.042L152.695 117.085L152.745 115.917L151.584 116.049L151.696 117.042ZM151.674 117.045L150.675 117.082L150.715 118.16L151.787 118.039L151.674 117.045ZM150.622 105.598L149.972 104.838L149.507 105.236L149.65 105.831L150.622 105.598ZM151.126 105.116L151.886 105.766L152.188 105.413L152.113 104.955L151.126 105.116ZM149.526 100.342L148.59 100.693L149.526 100.342ZM147.04 91.4828L146.051 91.332L146.051 91.3322L147.04 91.4828ZM147.152 90.7529L148.141 90.9058V90.9058L147.152 90.7529ZM148.295 86.6232C148.543 86.4638 148.875 86.2272 149.324 85.8958L148.137 84.2867C147.689 84.617 147.403 84.8189 147.215 84.9395L148.295 86.6232ZM149.324 85.8958C149.696 85.6215 150.205 85.1167 150.775 84.5067C151.362 83.8772 152.069 83.0764 152.851 82.1614C154.416 80.3304 156.301 78.0189 158.175 75.657C161.901 70.9608 165.656 65.9716 166.723 64.1736L165.003 63.153C164.02 64.8102 160.36 69.685 156.608 74.4139C154.743 76.7646 152.874 79.0559 151.33 80.8622C150.558 81.7659 149.873 82.5422 149.313 83.1415C148.735 83.7604 148.341 84.136 148.137 84.2867L149.324 85.8958ZM166.723 64.1737C167.807 62.347 169.522 58.4256 171.048 54.9387L169.216 54.1366C167.659 57.6941 166.007 61.4617 165.003 63.1529L166.723 64.1737ZM171.048 54.9387C171.793 53.2363 172.5 51.6225 173.086 50.3547C173.378 49.7205 173.636 49.183 173.85 48.7696C174.079 48.328 174.218 48.1068 174.272 48.0413L172.729 46.7688C172.521 47.0212 172.294 47.4257 172.074 47.8501C171.84 48.3027 171.568 48.8714 171.27 49.5161C170.674 50.806 169.959 52.4406 169.216 54.1366L171.048 54.9387ZM174.272 48.0418C174.469 47.8034 174.843 47.4621 175.384 46.9748L174.045 45.489C173.558 45.9286 173.044 46.3876 172.73 46.7683L174.272 48.0418ZM175.384 46.9748C176.186 46.2524 177.264 45.2863 178.034 44.2409C178.779 43.2285 179.458 41.838 178.881 40.3905L177.023 41.1313C177.195 41.5631 177.074 42.1706 176.423 43.0551C175.796 43.9066 174.881 44.7362 174.045 45.489L175.384 46.9748ZM178.881 40.391C178.699 39.9339 178.408 39.5284 177.973 39.2697C177.535 39.0097 177.063 38.9647 176.643 39.0224C175.86 39.13 175.098 39.6133 174.494 40.0999C173.858 40.6118 173.254 41.2443 172.776 41.8387C172.317 42.409 171.898 43.0368 171.717 43.5437L173.6 44.2171C173.665 44.0366 173.908 43.6219 174.334 43.0925C174.741 42.5873 175.245 42.0628 175.748 41.6579C176.282 41.2278 176.69 41.0347 176.915 41.0038C176.999 40.9922 176.99 41.0124 176.952 40.9893C176.915 40.9675 176.959 40.9705 177.023 41.1308L178.881 40.391ZM172.659 43.8804C173.637 44.0864 173.637 44.0862 173.637 44.0859C173.637 44.0858 173.637 44.0856 173.638 44.0854C173.638 44.0851 173.638 44.0846 173.638 44.0842C173.638 44.0833 173.638 44.0821 173.638 44.0808C173.639 44.0783 173.64 44.0749 173.641 44.0709C173.642 44.0628 173.644 44.0519 173.647 44.0383C173.652 44.0112 173.659 43.9733 173.668 43.9261C173.685 43.8319 173.707 43.6998 173.728 43.5415C173.77 43.2296 173.814 42.7963 173.81 42.3453C173.805 41.9141 173.757 41.3696 173.552 40.8888C173.331 40.3689 172.867 39.8171 172.056 39.7391L171.865 41.7299C171.721 41.7161 171.677 41.5896 171.712 41.6715C171.763 41.7927 171.806 42.0266 171.81 42.3658C171.813 42.6852 171.781 43.0144 171.746 43.2722C171.729 43.3989 171.712 43.5034 171.699 43.5748C171.693 43.6104 171.688 43.6374 171.684 43.6546C171.682 43.6631 171.681 43.6692 171.681 43.6725C171.68 43.6742 171.68 43.6752 171.68 43.6755C171.68 43.6757 171.68 43.6757 171.68 43.6755C171.68 43.6754 171.68 43.6752 171.68 43.675C171.68 43.675 171.68 43.6748 171.68 43.6747C171.68 43.6746 171.68 43.6744 172.659 43.8804ZM172.056 39.7391C171.149 39.6519 170.627 40.3248 170.393 40.7582C170.139 41.2264 169.982 41.8163 169.874 42.3675C169.655 43.4903 169.579 44.8163 169.533 45.5966L171.53 45.7139C171.577 44.9073 171.648 43.7184 171.837 42.7503C171.934 42.256 172.045 41.9065 172.151 41.7102C172.277 41.4792 172.205 41.7626 171.865 41.7299L172.056 39.7391ZM169.533 45.5966C169.516 45.8894 169.504 46.0818 169.493 46.1874L171.482 46.3966C171.5 46.2328 171.514 45.9809 171.53 45.7139L169.533 45.5966ZM169.493 46.1875C169.504 46.0867 169.529 46.0309 169.516 46.0665C169.51 46.0837 169.495 46.1204 169.467 46.1811C169.411 46.3016 169.325 46.4715 169.206 46.6914C168.969 47.1289 168.63 47.7183 168.215 48.4181C167.385 49.8151 166.273 51.6171 165.127 53.4503C162.834 57.1151 160.414 60.8817 159.864 61.7314L161.542 62.8184C162.097 61.9619 164.522 58.1865 166.822 54.5111C167.971 52.6741 169.093 50.8565 169.934 49.4391C170.354 48.7316 170.71 48.1151 170.965 47.6423C171.092 47.4071 171.201 47.1957 171.282 47.0207C171.322 46.9336 171.361 46.8439 171.393 46.7577C171.418 46.6899 171.466 46.5535 171.482 46.3966L169.493 46.1875ZM159.864 61.731C159.633 62.0876 158.938 62.9393 157.951 64.085C156.985 65.2055 155.792 66.5484 154.612 67.8533C153.432 69.158 152.27 70.4206 151.368 71.3802C150.917 71.8605 150.533 72.2615 150.247 72.5527C150.104 72.6988 149.989 72.8128 149.904 72.8937C149.796 72.9966 149.788 72.9963 149.832 72.9664L150.958 74.6194C151.075 74.5397 151.203 74.4192 151.286 74.3397C151.392 74.2381 151.524 74.1074 151.674 73.9546C151.975 73.6482 152.369 73.235 152.825 72.75C153.738 71.7791 154.909 70.5067 156.096 69.1946C157.282 67.8829 158.487 66.5273 159.466 65.3905C160.424 64.279 161.221 63.3144 161.542 62.8187L159.864 61.731ZM149.832 72.9664C148.424 73.9255 147.012 74.0521 146.294 74.0413L146.264 76.0411C147.231 76.0557 149.097 75.8875 150.958 74.6193L149.832 72.9664ZM145.411 75.1101C145.378 75.0668 145.353 75.0272 145.335 74.9959C145.318 74.9644 145.305 74.9367 145.296 74.9153C145.278 74.8738 145.269 74.842 145.265 74.8271C145.26 74.811 145.258 74.8015 145.258 74.8011C145.258 74.8003 145.259 74.8041 145.26 74.8138C145.263 74.8338 145.267 74.8663 145.27 74.9141C145.274 74.9611 145.277 75.0175 145.28 75.0842L147.278 74.9982C147.271 74.8395 147.261 74.6803 147.242 74.5416C147.232 74.4729 147.218 74.387 147.193 74.2982C147.176 74.2337 147.125 74.0555 146.99 73.8823L145.411 75.1101ZM145.493 74.7903C145.493 74.7902 145.484 74.8169 145.454 74.8544C145.424 74.8932 145.382 74.9288 145.334 74.955C145.24 75.0061 145.178 74.993 145.198 74.9956C145.217 74.9979 145.264 75.0102 145.322 75.0433C145.349 75.0585 145.371 75.0745 145.389 75.0889C145.406 75.1036 145.413 75.1123 145.412 75.1112L146.989 73.8812C146.636 73.4282 146.048 73.088 145.452 73.0118C145.137 72.9714 144.749 72.9967 144.379 73.1977C143.989 73.4094 143.723 73.7606 143.589 74.1777L145.493 74.7903ZM144.805 73.5196C144.505 73.4374 144.16 73.3347 143.853 73.224C143.517 73.1031 143.325 73.0066 143.262 72.9612L142.088 74.5801C142.399 74.8059 142.827 74.9806 143.175 75.1057C143.551 75.2411 143.952 75.3594 144.277 75.4485L144.805 73.5196ZM143.263 72.9619C143.371 73.0408 143.383 73.1047 143.344 73.0232C143.313 72.9596 143.273 72.853 143.231 72.6974C143.147 72.3876 143.083 71.9951 143.037 71.6108L141.051 71.8494C141.102 72.2725 141.18 72.7742 141.3 73.2198C141.361 73.442 141.439 73.6783 141.544 73.8948C141.64 74.0935 141.805 74.3745 142.087 74.5795L143.263 72.9619ZM141.99 72.7286C144.227 72.8504 145.689 72.0002 146.604 70.8307C147.464 69.7313 147.779 68.4194 147.949 67.7374L146.008 67.254C145.83 67.9686 145.592 68.8781 145.028 69.5988C144.52 70.2495 143.688 70.8181 142.098 70.7315L141.99 72.7286ZM147.949 67.7374C147.973 67.6384 147.994 67.5574 148.012 67.4869C148.031 67.4152 148.045 67.3701 148.054 67.3425C148.066 67.3064 148.06 67.3351 148.028 67.3889C148.011 67.4179 147.972 67.4793 147.905 67.5472C147.836 67.6159 147.713 67.7153 147.53 67.7729L146.93 65.8649C146.54 65.9876 146.356 66.2875 146.304 66.3751C146.232 66.4979 146.187 66.6214 146.159 66.7025C146.103 66.8676 146.052 67.0769 146.008 67.254L147.949 67.7374ZM147.532 67.7722C147.85 67.6714 148.487 67.3842 148.925 66.8322C149.161 66.535 149.362 66.1303 149.376 65.6309C149.39 65.1309 149.214 64.6527 148.905 64.2152L147.271 65.3683C147.391 65.5388 147.376 65.601 147.377 65.5739C147.377 65.5474 147.391 65.548 147.358 65.5886C147.32 65.6367 147.249 65.699 147.148 65.7603C147.047 65.8211 146.959 65.8558 146.928 65.8655L147.532 67.7722ZM148.905 64.2151C148.563 63.7302 148.439 63.1043 148.489 62.2945C148.54 61.472 148.76 60.5856 149 59.6366L147.06 59.1472C146.831 60.0571 146.557 61.1291 146.492 62.171C146.427 63.2258 146.567 64.3703 147.271 65.3685L148.905 64.2151ZM149 59.6366C149.163 58.9902 149.338 58.3001 149.429 57.6616C149.518 57.0338 149.546 56.326 149.317 55.677L147.431 56.3421C147.499 56.535 147.522 56.8581 147.448 57.3809C147.376 57.8931 147.231 58.4732 147.06 59.1472L149 59.6366ZM149.258 55.5416L148.687 54.4624L146.919 55.3983L147.491 56.4775L149.258 55.5416ZM148.803 54.9404C148.809 54.3082 148.57 53.4353 148.133 52.3078L146.268 53.0304C146.701 54.1459 146.805 54.7049 146.803 54.9204L148.803 54.9404ZM147.766 51.8438C147.552 51.6979 147.351 51.5567 147.154 51.4186L146.006 53.0569C146.203 53.1943 146.413 53.3415 146.636 53.4944L147.766 51.8438ZM147.154 51.4186C146.282 50.8082 145.44 50.2081 144.41 49.895L143.829 51.8085C144.499 52.0122 145.076 52.4056 146.006 53.0569L147.154 51.4186ZM145.004 50.3844C144.06 48.5998 142.211 47.149 140.037 47.1494L140.037 49.1494C141.295 49.1491 142.549 50.0199 143.235 51.3191L145.004 50.3844ZM140.037 47.1494C139.877 47.1494 139.721 47.1572 139.594 47.1634L139.691 49.161C139.827 49.1544 139.934 49.1494 140.037 49.1494V47.1494ZM139.594 47.1634C139.326 47.1765 139.164 47.1816 139.018 47.1624L138.756 49.1451C139.111 49.192 139.454 49.1726 139.691 49.161L139.594 47.1634ZM139.018 47.1623C138.77 47.1296 138.514 47.0193 138.096 46.8246L137.252 48.6378C137.618 48.8084 138.152 49.0656 138.757 49.1452L139.018 47.1623ZM138.096 46.8246C138.012 46.7855 137.92 46.7429 137.828 46.7013L137.009 48.5262C137.087 48.5611 137.166 48.5976 137.252 48.6378L138.096 46.8246ZM137.827 46.7013C136.638 46.1683 134.569 45.9372 132.693 46.0146C131.733 46.0542 130.76 46.1766 129.911 46.409C129.093 46.633 128.248 46.9967 127.697 47.6183L129.194 48.9449C129.358 48.7602 129.747 48.5275 130.439 48.338C131.101 48.1568 131.915 48.0484 132.775 48.0129C134.539 47.9402 136.24 48.1816 137.009 48.5263L137.827 46.7013ZM127.534 47.8704C127.34 48.2997 127.172 48.7941 127.275 49.2851C127.399 49.8777 127.855 50.1532 127.938 50.2105L129.076 48.5661C129.061 48.5557 129.052 48.5495 129.044 48.5439C129.037 48.5386 129.034 48.5366 129.034 48.5367C129.034 48.5369 129.039 48.5404 129.046 48.5469C129.054 48.5534 129.065 48.5636 129.078 48.5774C129.105 48.6059 129.138 48.6481 129.169 48.7042C129.2 48.7612 129.221 48.8197 129.232 48.8749C129.255 48.9808 129.235 49.035 129.244 48.9944C129.253 48.9538 129.281 48.8604 129.357 48.6929L127.534 47.8704ZM127.938 50.2105C128.013 50.2631 127.984 50.2474 127.951 50.2108C127.899 50.1531 127.861 50.0799 127.846 50.0154C127.835 49.9676 127.849 49.9766 127.833 50.0834C127.816 50.1897 127.775 50.3614 127.681 50.6223L129.564 51.2973C129.792 50.6604 129.913 50.0823 129.796 49.569C129.653 48.945 129.215 48.6624 129.076 48.5661L127.938 50.2105ZM128.325 50.0052C127.392 50.2964 126.154 50.6748 125.218 51.5611L126.592 53.0139C127.138 52.4972 127.913 52.2289 128.921 51.9144L128.325 50.0052ZM125.218 51.561C124.276 52.4514 123.592 54.1488 124.435 55.577L126.157 54.5603C125.959 54.2248 126.05 53.5266 126.592 53.014L125.218 51.561ZM124.692 54.2713C123.943 54.8386 123.162 55.6938 122.672 56.6431C122.193 57.5695 121.883 58.8189 122.531 59.9584L124.269 58.9689C124.111 58.6911 124.101 58.2329 124.449 57.5611C124.784 56.9122 125.354 56.2785 125.899 55.866L124.692 54.2713ZM122.531 59.9583C122.561 60.011 122.592 60.0619 122.616 60.1028L124.334 59.0785C124.308 59.0347 124.288 59.0011 124.269 58.9689L122.531 59.9583ZM122.616 60.1028C122.678 60.2058 122.707 60.2574 122.728 60.3022C122.746 60.3404 122.74 60.3383 122.736 60.3101L124.722 60.0725C124.666 59.6072 124.426 59.2326 124.334 59.0785L122.616 60.1028ZM122.736 60.3095C122.733 60.2866 122.737 60.2849 122.732 60.3207C122.726 60.3616 122.716 60.4097 122.694 60.5051L124.644 60.9502C124.677 60.8061 124.767 60.4541 124.722 60.0731L122.736 60.3095ZM122.694 60.5051L122.691 60.517L124.641 60.9621L124.644 60.9502L122.694 60.5051ZM122.691 60.5174C122.476 61.4626 122.722 62.4275 123.111 63.2087C123.505 63.9987 124.102 64.7204 124.769 65.2087L125.95 63.595C125.56 63.3092 125.164 62.843 124.902 62.317C124.635 61.7822 124.564 61.303 124.641 60.9617L122.691 60.5174ZM124.769 65.2086C124.819 65.2455 124.869 65.2792 124.902 65.302L126.029 63.6496C125.99 63.6236 125.969 63.6087 125.95 63.595L124.769 65.2086ZM124.911 65.3078L124.911 65.3079L126.02 63.6438L126.02 63.6437L124.911 65.3078ZM124.911 65.3079L124.911 65.3079L126.02 63.6438L126.02 63.6438L124.911 65.3079ZM124.902 65.302C124.918 65.3133 124.932 65.3223 124.945 65.3312C124.957 65.3398 124.967 65.3469 124.976 65.3531C124.993 65.3658 125 65.3718 125.002 65.3731C125.005 65.3759 124.971 65.3476 124.936 65.287L126.666 64.2831C126.455 63.9197 126.12 63.7117 126.029 63.6496L124.902 65.302ZM124.935 65.2864C124.889 65.2064 124.886 65.1473 124.887 65.1586C124.888 65.1639 124.888 65.1789 124.888 65.2098C124.888 65.2248 124.887 65.242 124.886 65.2627C124.885 65.2838 124.884 65.3056 124.883 65.3322L126.881 65.4303C126.887 65.2933 126.942 64.7609 126.666 64.2837L124.935 65.2864ZM124.883 65.3334L124.881 65.3848L126.878 65.4804L126.881 65.4291L124.883 65.3334ZM124.88 65.3903L124.879 65.4238L126.877 65.5085L126.879 65.4749L124.88 65.3903ZM124.879 65.4275C124.808 67.2538 126 69.0324 127.723 69.6385L128.387 67.7518C127.503 67.441 126.84 66.467 126.877 65.5049L124.879 65.4275ZM127.964 69.6911L135.787 70.4007L135.968 68.4089L128.145 67.6992L127.964 69.6911ZM135.228 70.165C135.712 70.5787 136.257 70.9573 136.867 71.2906L137.826 69.5356C137.336 69.2677 136.905 68.9676 136.527 68.6446L135.228 70.165ZM136.35 70.328C136.326 70.6148 136.258 71.2554 136.106 71.8827C136.031 72.1969 135.941 72.4792 135.839 72.701C135.789 72.8104 135.742 72.8926 135.701 72.9511C135.681 72.9797 135.664 72.9999 135.651 73.0134C135.639 73.0268 135.632 73.0319 135.632 73.0318L136.847 74.6208C137.239 74.3213 137.491 73.8981 137.658 73.5333C137.832 73.1528 137.958 72.736 138.051 72.3515C138.236 71.5814 138.315 70.8262 138.343 70.4982L136.35 70.328ZM135.633 73.0314C135.156 73.3958 134.379 73.6228 133.876 73.7304L134.295 75.6861C134.834 75.5707 135.992 75.2738 136.846 74.6212L135.633 73.0314ZM133.261 75.0195C133.261 75.0617 133.253 75.1258 133.219 75.1957C133.187 75.2641 133.144 75.3111 133.11 75.3388C133.078 75.3648 133.058 75.3716 133.061 75.3704C133.064 75.3693 133.08 75.3639 133.111 75.3605C133.177 75.3529 133.256 75.36 133.32 75.3792C133.35 75.3881 133.365 75.3963 133.368 75.3981C133.371 75.4001 133.353 75.3899 133.326 75.3588L134.845 74.0576C134.571 73.7375 134.209 73.5579 133.895 73.4635C133.572 73.3666 133.22 73.3351 132.884 73.3733C132.557 73.4106 132.169 73.524 131.842 73.7922C131.483 74.0863 131.251 74.5286 131.261 75.0561L133.261 75.0195ZM132.221 74.0386C131.624 74.0622 130.264 73.9824 128.877 72.981L127.706 74.6028C129.574 75.9506 131.426 76.0716 132.3 76.037L132.221 74.0386ZM128.876 72.9807C128.922 73.0135 128.917 73.0167 128.814 72.9129C128.734 72.8324 128.626 72.7186 128.491 72.5726C128.221 72.2816 127.859 71.8808 127.432 71.4006C126.581 70.4413 125.483 69.1788 124.369 67.8742C123.255 66.5693 122.128 65.2265 121.216 64.106C120.284 62.9603 119.628 62.1089 119.41 61.7522L117.704 62.7955C118.007 63.2914 118.76 64.2565 119.665 65.3683C120.59 66.5053 121.728 67.8611 122.848 69.1729C123.969 70.485 125.075 71.7575 125.937 72.7285C126.367 73.2135 126.74 73.6267 127.025 73.9333C127.167 74.0861 127.291 74.217 127.392 74.3189C127.469 74.3974 127.592 74.5207 127.707 74.6031L128.876 72.9807ZM119.41 61.7517C118.89 60.9028 116.605 57.1366 114.439 53.4718C113.356 51.6387 112.306 49.8367 111.523 48.4395C111.13 47.7397 110.81 47.15 110.586 46.7122C110.474 46.4921 110.392 46.3217 110.339 46.2005C110.312 46.1395 110.298 46.1019 110.292 46.0834C110.279 46.0477 110.301 46.0989 110.311 46.193L108.321 46.3904C108.335 46.5407 108.379 46.6724 108.403 46.7402C108.432 46.8252 108.468 46.9141 108.506 47.0008C108.582 47.1752 108.685 47.3861 108.805 47.6213C109.046 48.0938 109.382 48.7101 109.778 49.4176C110.573 50.8349 111.632 52.6524 112.717 54.4893C114.889 58.1644 117.18 61.9396 117.704 62.796L119.41 61.7517ZM110.311 46.1921C110.3 46.0844 110.289 45.889 110.272 45.5944L108.275 45.7055C108.29 45.9753 108.304 46.2279 108.321 46.3913L110.311 46.1921ZM110.272 45.5944C110.229 44.8124 110.157 43.4915 109.951 42.3742C109.85 41.8261 109.702 41.2415 109.465 40.7776C109.255 40.3685 108.75 39.6455 107.824 39.7392L108.026 41.7291C107.635 41.7686 107.554 41.4344 107.684 41.6887C107.786 41.888 107.892 42.2412 107.984 42.7369C108.163 43.7074 108.231 44.8984 108.275 45.7055L110.272 45.5944ZM107.823 39.7393C107.006 39.8226 106.563 40.4065 106.362 40.9073C106.172 41.381 106.127 41.918 106.123 42.3459C106.118 42.7933 106.159 43.2238 106.199 43.5344C106.22 43.6919 106.24 43.8234 106.256 43.917C106.264 43.9639 106.271 44.0015 106.275 44.0284C106.278 44.0419 106.28 44.0527 106.282 44.0606C106.282 44.0646 106.283 44.0678 106.283 44.0704C106.284 44.0716 106.284 44.0727 106.284 44.0736C106.284 44.0741 106.284 44.0745 106.284 44.0748C106.284 44.075 106.284 44.0752 106.284 44.0753C106.284 44.0755 106.284 44.0758 107.265 43.8808C108.246 43.6858 108.246 43.686 108.246 43.6861C108.246 43.6862 108.246 43.6864 108.246 43.6864C108.246 43.6866 108.246 43.6867 108.246 43.6868C108.246 43.687 108.246 43.687 108.246 43.6868C108.246 43.6864 108.246 43.6854 108.246 43.6836C108.245 43.6801 108.244 43.674 108.242 43.6653C108.239 43.6479 108.234 43.6206 108.228 43.5847C108.216 43.5127 108.199 43.4074 108.183 43.2799C108.15 43.0206 108.12 42.6884 108.123 42.3652C108.126 42.0226 108.167 41.7809 108.218 41.6526C108.259 41.5513 108.214 41.7098 108.026 41.729L107.823 39.7393ZM108.213 43.5603C108.043 43.0587 107.649 42.4327 107.215 41.8609C106.763 41.2663 106.191 40.6322 105.588 40.1181C105.019 39.6331 104.285 39.1355 103.517 39.0236C103.1 38.9627 102.629 39.0108 102.196 39.2826C101.771 39.5494 101.498 39.9601 101.33 40.4085L103.202 41.1126C103.265 40.9438 103.308 40.946 103.26 40.9761C103.204 41.0112 103.171 40.9942 103.229 41.0027C103.413 41.0295 103.784 41.2085 104.291 41.6403C104.763 42.043 105.238 42.566 105.622 43.0712C106.024 43.599 106.255 44.0154 106.318 44.2012L108.213 43.5603ZM101.33 40.4083C100.795 41.8292 101.42 43.2 102.128 44.2185C102.856 45.2649 103.875 46.2325 104.633 46.9551L106.013 45.5081C105.224 44.7556 104.362 43.9274 103.77 43.0768C103.16 42.1984 103.029 41.5712 103.202 41.1127L101.33 40.4083ZM104.633 46.9551C105.144 47.4427 105.496 47.7825 105.681 48.0197L107.258 46.7897C106.96 46.4078 106.474 45.9474 106.013 45.5081L104.633 46.9551ZM105.681 48.0194C105.731 48.0846 105.863 48.3064 106.079 48.7486C106.282 49.1624 106.526 49.7002 106.802 50.3346C107.355 51.6027 108.023 53.2169 108.727 54.9192L110.575 54.155C109.874 52.4588 109.198 50.8246 108.635 49.535C108.354 48.8905 108.097 48.3221 107.876 47.8701C107.669 47.4464 107.455 47.0425 107.258 46.79L105.681 48.0194ZM108.756 54.9843L108.756 54.9843L110.545 54.0899L110.545 54.0898L108.756 54.9843ZM108.727 54.9192C110.169 58.4068 111.787 62.3264 112.81 64.1513L114.555 63.1733C113.606 61.4811 112.046 57.7118 110.575 54.155L108.727 54.9192ZM112.81 64.1512C113.818 65.949 117.364 70.9382 120.884 75.6349C122.653 77.9969 124.434 80.3087 125.912 82.1399C126.65 83.055 127.318 83.8561 127.873 84.4859C128.411 85.0953 128.893 85.6025 129.248 85.8796L130.48 84.3041C130.29 84.156 129.92 83.7826 129.373 83.163C128.845 82.5639 128.198 81.7877 127.468 80.884C126.011 79.0777 124.246 76.7864 122.484 74.4356C118.941 69.7068 115.485 64.8316 114.555 63.1733L112.81 64.1512ZM129.248 85.8799C129.631 86.1792 129.924 86.4007 130.149 86.5577L131.293 84.9172C131.115 84.7932 130.858 84.6 130.479 84.3038L129.248 85.8799ZM132.022 86.9694C131.901 86.4351 131.789 85.9464 131.698 85.5254L129.743 85.9494C129.837 86.3823 129.951 86.8819 130.072 87.4133L132.022 86.9694ZM133.207 93.3766C133.103 91.7046 132.48 88.9823 132.022 86.9694L130.072 87.4133C130.548 89.5035 131.12 92.0314 131.211 93.501L133.207 93.3766ZM130.943 102.008C131.431 100.619 132.018 98.9465 132.47 97.4125C132.696 96.6449 132.892 95.8967 133.026 95.2244C133.157 94.5674 133.241 93.9193 133.207 93.3761L131.211 93.5015C131.229 93.7823 131.185 94.2273 131.065 94.8338C130.947 95.4249 130.768 96.1103 130.551 96.8478C130.117 98.3237 129.547 99.9465 129.056 101.346L130.943 102.008ZM129.868 104.419C129.973 104.588 129.994 104.74 130 104.788C130.007 104.85 130.004 104.891 130.003 104.898C130.002 104.913 130.003 104.893 130.018 104.824C130.047 104.691 130.104 104.486 130.193 104.204C130.369 103.646 130.634 102.889 130.943 102.008L129.056 101.346C128.752 102.214 128.473 103.007 128.285 103.604C128.192 103.9 128.113 104.174 128.064 104.398C128.04 104.506 128.017 104.635 128.008 104.763C128.004 104.827 128.001 104.917 128.013 105.018C128.023 105.106 128.053 105.288 128.171 105.479L129.868 104.419ZM129.901 104.474C129.892 104.458 129.879 104.437 129.867 104.418L128.172 105.48C128.176 105.486 128.182 105.496 128.194 105.515L129.901 104.474ZM130.333 105.067C130.098 104.797 129.971 104.588 129.901 104.474L128.194 105.515C128.286 105.665 128.481 105.986 128.826 106.381L130.333 105.067ZM128.548 130.111C128.501 129.955 128.451 129.536 128.441 128.792C128.432 128.087 128.458 127.19 128.513 126.151C128.622 124.074 128.842 121.48 129.103 118.819C129.626 113.5 130.307 107.957 130.572 105.848L128.587 105.599C128.322 107.713 127.638 113.277 127.113 118.624C126.851 121.296 126.627 123.925 126.515 126.046C126.46 127.106 126.431 128.051 126.441 128.818C126.451 129.546 126.495 130.228 126.633 130.687L128.548 130.111ZM128.666 130.348C128.617 130.283 128.576 130.207 128.548 130.112L126.632 130.687C126.729 131.008 126.877 131.298 127.07 131.553L128.666 130.348ZM126.719 144.825C127.371 141.554 128.384 135.76 128.863 131.052L126.873 130.85C126.404 135.468 125.404 141.193 124.758 144.433L126.719 144.825ZM125.952 154.051C126.139 150.354 126.319 146.832 126.719 144.825L124.757 144.434C124.321 146.622 124.137 150.331 123.955 153.951L125.952 154.051ZM124.789 165.218C125.164 164.123 125.391 162.396 125.558 160.48C125.727 158.532 125.841 156.271 125.952 154.051L123.955 153.951C123.843 156.181 123.731 158.402 123.565 160.307C123.397 162.243 123.182 163.738 122.897 164.571L124.789 165.218ZM125.125 174.82C124.727 174.785 124.424 174.579 124.173 174.05C123.9 173.476 123.749 172.617 123.734 171.55C123.706 169.432 124.218 166.89 124.789 165.218L122.897 164.571C122.266 166.415 121.702 169.187 121.735 171.577C121.751 172.764 121.914 173.957 122.367 174.909C122.841 175.906 123.675 176.7 124.95 176.812L125.125 174.82ZM127.095 166.506C127.008 168.431 126.902 170.711 126.511 172.48C126.313 173.371 126.064 174.025 125.783 174.423C125.531 174.78 125.334 174.838 125.125 174.82L124.95 176.812C126.055 176.909 126.875 176.343 127.416 175.578C127.928 174.854 128.246 173.891 128.463 172.912C128.9 170.941 129.009 168.473 129.093 166.596L127.095 166.506ZM127.272 163.882C127.183 164.534 127.141 165.488 127.095 166.506L129.093 166.596C129.141 165.535 129.18 164.692 129.254 164.151L127.272 163.882ZM129.633 154.281C128.419 157.545 127.656 161.048 127.272 163.882L129.254 164.151C129.622 161.431 130.356 158.077 131.508 154.978L129.633 154.281ZM133.662 139.366C133.499 140.413 132.79 143.341 131.958 146.456C131.129 149.562 130.206 152.741 129.634 154.281L131.508 154.978C132.118 153.337 133.063 150.071 133.891 146.972C134.716 143.882 135.455 140.846 135.638 139.673L133.662 139.366ZM133.962 136.581C133.855 137.741 133.766 138.696 133.662 139.366L135.638 139.674C135.754 138.928 135.849 137.898 135.954 136.765L133.962 136.581ZM134.582 131.203C134.286 133.07 134.109 134.992 133.962 136.581L135.954 136.765C136.101 135.167 136.274 133.309 136.558 131.516L134.582 131.203ZM135.457 130.363C135.43 130.368 135.402 130.374 135.372 130.379L135.768 132.34C135.791 132.335 135.811 132.331 135.827 132.328L135.457 130.363ZM135.553 130.346C135.521 130.351 135.488 130.357 135.457 130.363L135.827 132.328C135.846 132.325 135.856 132.323 135.86 132.323L135.553 130.346ZM136.349 124.893C136.009 126.517 135.69 128.045 135.415 129.174C135.276 129.742 135.156 130.18 135.057 130.47C135.005 130.62 134.973 130.691 134.962 130.71C134.956 130.721 134.976 130.68 135.028 130.622C135.064 130.583 135.237 130.395 135.555 130.346L135.858 132.323C136.217 132.268 136.433 132.05 136.514 131.961C136.612 131.853 136.679 131.74 136.722 131.66C136.811 131.495 136.886 131.302 136.949 131.118C137.079 130.739 137.216 130.228 137.358 129.647C137.642 128.479 137.969 126.914 138.306 125.302L136.349 124.893ZM139.6 115.74C139.251 115.759 139.005 115.931 138.875 116.047C138.74 116.168 138.642 116.303 138.574 116.41C138.438 116.625 138.323 116.887 138.225 117.147C138.023 117.679 137.817 118.397 137.612 119.201C137.2 120.818 136.76 122.924 136.349 124.893L138.306 125.302C138.721 123.319 139.152 121.261 139.55 119.694C139.751 118.907 139.934 118.278 140.094 117.857C140.176 117.641 140.235 117.525 140.264 117.48C140.279 117.456 140.262 117.49 140.205 117.541C140.152 117.588 139.982 117.723 139.706 117.737L139.6 115.74ZM142.659 125.133C142.331 123.146 141.973 120.975 141.621 119.303C141.445 118.473 141.264 117.728 141.077 117.18C140.987 116.913 140.877 116.638 140.739 116.413C140.672 116.301 140.567 116.152 140.415 116.023C140.259 115.891 139.98 115.72 139.601 115.74L139.705 117.737C139.402 117.753 139.199 117.614 139.121 117.549C139.046 117.485 139.021 117.436 139.033 117.455C139.055 117.491 139.108 117.601 139.184 117.823C139.33 118.254 139.492 118.902 139.664 119.716C140.005 121.334 140.355 123.457 140.685 125.458L142.659 125.133ZM142.886 130.023C143.297 130.023 143.53 130.27 143.58 130.326C143.618 130.369 143.643 130.406 143.654 130.424C143.667 130.444 143.673 130.458 143.675 130.461C143.677 130.466 143.672 130.454 143.659 130.418C143.646 130.384 143.631 130.337 143.613 130.275C143.539 130.021 143.45 129.627 143.347 129.107C143.144 128.074 142.91 126.66 142.659 125.133L140.685 125.458C140.935 126.973 141.174 128.423 141.385 129.493C141.489 130.024 141.593 130.491 141.693 130.836C141.741 131.001 141.802 131.184 141.879 131.342C141.916 131.417 141.982 131.539 142.087 131.657C142.174 131.754 142.442 132.023 142.886 132.023V130.023ZM143.268 130.094C143.258 130.092 143.25 130.09 143.243 130.088C143.237 130.086 143.232 130.085 143.23 130.084C143.228 130.083 143.229 130.084 143.232 130.085C143.236 130.086 143.244 130.089 143.257 130.094L142.516 131.952C142.612 131.99 142.712 132.017 142.785 132.035L143.268 130.094ZM144.673 138.353C144.573 136.178 144.444 133.367 144.012 130.892L142.041 131.237C142.448 133.564 142.574 136.244 142.676 138.445L144.673 138.353ZM144.674 138.399V138.399H142.674V138.399H144.674ZM144.845 141.143C144.772 140.47 144.727 139.514 144.673 138.353L142.676 138.445C142.728 139.579 142.775 140.61 142.857 141.359L144.845 141.143ZM148.184 156.227C147.683 154.662 146.908 151.444 146.221 148.303C145.533 145.154 144.96 142.196 144.845 141.142L142.857 141.359C142.985 142.539 143.585 145.605 144.267 148.73C144.952 151.864 145.745 155.17 146.28 156.837L148.184 156.227ZM150.103 165.925C149.849 163.076 149.248 159.542 148.184 156.226L146.28 156.837C147.289 159.984 147.867 163.369 148.111 166.103L150.103 165.925ZM150.159 168.554C150.159 167.535 150.161 166.581 150.103 165.925L148.111 166.103C148.159 166.646 148.159 167.49 148.159 168.552L150.159 168.554ZM151.744 176.949C151.535 176.958 151.341 176.891 151.106 176.523C150.843 176.113 150.624 175.448 150.468 174.548C150.158 172.764 150.157 170.481 150.159 168.554L148.159 168.552C148.157 170.431 148.152 172.901 148.498 174.891C148.669 175.878 148.944 176.855 149.421 177.602C149.927 178.391 150.72 178.994 151.829 178.947L151.744 176.949ZM152.522 167.373C153.016 169.069 153.41 171.632 153.284 173.746C153.221 174.811 153.03 175.663 152.731 176.224C152.456 176.741 152.144 176.932 151.745 176.949L151.829 178.947C153.107 178.894 153.977 178.139 154.496 177.165C154.992 176.234 155.21 175.05 155.281 173.865C155.423 171.479 154.987 168.684 154.442 166.814L152.522 167.373ZM151.872 156.167C151.882 158.39 151.892 160.653 151.971 162.605C152.05 164.526 152.198 166.262 152.522 167.373L154.442 166.814C154.196 165.968 154.049 164.465 153.97 162.524C153.892 160.615 153.882 158.391 153.872 156.159L151.872 156.167ZM151.53 146.913C151.838 148.937 151.856 152.464 151.872 156.167L153.872 156.159C153.857 152.533 153.843 148.819 153.507 146.612L151.53 146.913ZM149.94 131.09C150.063 136.054 150.957 143.149 151.53 146.913L153.507 146.612C152.938 142.87 152.059 135.875 151.94 131.041L149.94 131.09ZM150.409 130.218C150.407 130.219 150.405 130.221 150.401 130.223L151.478 131.908C151.501 131.894 151.524 131.879 151.547 131.863L150.409 130.218ZM150.413 130.215C150.412 130.216 150.411 130.216 150.41 130.217L151.546 131.863C151.562 131.852 151.577 131.842 151.592 131.83L150.413 130.215ZM150.685 117.352C150.799 120.59 150.817 123.851 150.714 126.362C150.662 127.621 150.581 128.667 150.471 129.419C150.415 129.798 150.357 130.071 150.303 130.248C150.275 130.337 150.257 130.376 150.253 130.382C150.243 130.401 150.285 130.308 150.413 130.215L151.592 131.831C151.815 131.668 151.946 131.459 152.021 131.317C152.103 131.162 152.165 130.995 152.214 130.837C152.312 130.519 152.388 130.132 152.45 129.708C152.574 128.855 152.659 127.729 152.712 126.444C152.818 123.866 152.799 120.551 152.683 117.282L150.685 117.352ZM151.696 117.042C150.697 117 150.697 117 150.697 117C150.697 117 150.697 117 150.697 117C150.697 117 150.697 117 150.697 117C150.697 117 150.697 117 150.697 117C150.697 117 150.697 117 150.697 117.001C150.697 117.001 150.697 117.002 150.697 117.004C150.697 117.007 150.697 117.011 150.696 117.017C150.696 117.029 150.695 117.046 150.694 117.069C150.692 117.115 150.689 117.183 150.685 117.272L152.683 117.362C152.687 117.273 152.69 117.204 152.692 117.157C152.693 117.134 152.694 117.116 152.694 117.104C152.695 117.098 152.695 117.093 152.695 117.09C152.695 117.089 152.695 117.087 152.695 117.087C152.695 117.086 152.695 117.086 152.695 117.086C152.695 117.086 152.695 117.086 152.695 117.085C152.695 117.085 152.695 117.085 152.695 117.085C152.695 117.085 152.695 117.085 152.695 117.085C152.695 117.085 152.695 117.085 152.695 117.085C152.695 117.085 152.695 117.085 151.696 117.042ZM151.787 118.039L151.809 118.036L151.584 116.049L151.562 116.051L151.787 118.039ZM149.65 105.831C150.121 107.796 150.499 112.323 150.675 117.082L152.673 117.008C152.499 112.274 152.119 107.552 151.595 105.365L149.65 105.831ZM151.126 105.116C150.366 104.467 150.366 104.467 150.366 104.467C150.366 104.467 150.366 104.466 150.366 104.466C150.366 104.466 150.366 104.466 150.366 104.466C150.367 104.466 150.367 104.465 150.367 104.465C150.367 104.465 150.368 104.464 150.368 104.464C150.369 104.463 150.369 104.463 150.37 104.462C150.37 104.461 150.37 104.461 150.37 104.462C150.369 104.463 150.365 104.467 150.359 104.474C150.347 104.487 150.325 104.51 150.293 104.543C150.228 104.608 150.122 104.71 149.972 104.838L151.273 106.358C151.465 106.193 151.611 106.054 151.712 105.952C151.763 105.9 151.803 105.859 151.832 105.827C151.846 105.812 151.858 105.798 151.867 105.788C151.871 105.783 151.875 105.779 151.878 105.775C151.88 105.773 151.881 105.771 151.883 105.77C151.883 105.769 151.884 105.769 151.885 105.768C151.885 105.768 151.885 105.767 151.885 105.767C151.885 105.767 151.886 105.767 151.886 105.766C151.886 105.766 151.886 105.766 151.886 105.766C151.886 105.766 151.886 105.766 151.126 105.116ZM148.59 100.693C148.975 101.719 149.333 102.671 149.613 103.48C149.9 104.308 150.08 104.916 150.139 105.277L152.113 104.955C152.023 104.403 151.787 103.646 151.503 102.826C151.213 101.987 150.845 101.008 150.463 99.9901L148.59 100.693ZM146.051 91.3322C145.964 91.9041 146.039 92.5856 146.168 93.2592C146.302 93.9549 146.514 94.7391 146.768 95.5559C147.273 97.1885 147.967 99.0341 148.59 100.693L150.463 99.9901C149.834 98.3168 149.163 96.5294 148.678 94.964C148.436 94.1817 148.246 93.4756 148.132 92.8817C148.014 92.2656 147.994 91.858 148.028 91.6334L146.051 91.3322ZM146.164 90.6C146.125 90.8499 146.087 91.0953 146.051 91.332L148.028 91.6336C148.064 91.3994 148.102 91.1561 148.141 90.9058L146.164 90.6ZM146.755 85.7624C146.734 86.9033 146.437 88.8323 146.164 90.6L148.141 90.9058C148.404 89.2032 148.73 87.11 148.755 85.8004L146.755 85.7624Z" fill="#192E35" mask="url(#path-20-outside-1_4951_28705)"/>
<path d="M123.4 59.4636C122.594 58.0464 124.001 56.0484 125.296 55.0686C124.775 54.1868 125.163 52.989 125.905 52.2875C126.646 51.586 127.653 51.2626 128.623 50.9598C129.434 48.6976 127.67 50 128.445 48.2816C129.875 46.6689 135.46 46.7361 137.418 47.6138C137.896 47.8281 138.369 48.0855 138.887 48.1537C139.268 48.204 139.653 48.1494 140.037 48.1494C142.148 48.149 144.009 49.9052 144.558 51.9667C144.646 52.2962 144.708 52.6395 144.878 52.9348C145.1 53.3221 145.481 53.584 145.792 53.9022C146.466 54.5902 146.819 55.5865 146.732 56.5509C146.657 57.3699 146.286 58.1992 146.527 58.985C146.648 59.3789 146.915 59.7198 146.996 60.1239C147.231 61.2949 145.852 62.2719 145.925 63.4645C145.94 63.7077 146.016 63.9429 146.051 64.1844C146.12 64.6778 146.006 65.1956 145.734 65.6121C145.525 65.9331 145.219 66.2118 145.146 66.5895C145.091 66.876 145.182 67.1685 145.201 67.4596C145.249 68.1721 143.081 69.7035 142.439 70L128.055 68.6952C126.752 68.2367 125.824 66.8604 125.878 65.4662C125.887 65.2342 125.917 64.9852 125.801 64.7851C125.702 64.6145 125.518 64.5178 125.359 64.4018C124.302 63.6278 123.373 62.0261 123.666 60.7395C123.707 60.5592 123.751 60.3749 123.729 60.1913C123.697 59.9245 123.533 59.6967 123.4 59.4636Z" fill="#192E35"/>
<path d="M132.254 85.7581C130.736 85.5431 132.039 86.7912 129.864 85.0918C127.688 83.391 115.62 67.1183 113.683 63.6623C111.745 60.207 107.478 48.6988 106.469 47.4047C105.459 46.1098 101.336 43.2303 102.266 40.7605C103.194 38.2915 106.8 42.5059 107.265 43.8808C107.265 43.8808 106.665 40.8624 107.925 40.7342C109.184 40.6066 109.226 45.393 109.316 46.2917C109.405 47.1912 117.513 60.5685 118.557 62.2738C119.599 63.9792 127.741 73.395 128.291 73.7919C130.505 75.3894 132.678 75 132.678 75L132.241 78.5133L132.254 85.7581Z" fill="#FFC596"/>
<path d="M146.199 85.7583C147.806 85.5432 146.427 86.7913 148.73 85.0912C151.034 83.3912 163.813 67.1185 165.863 63.6633C167.914 60.2073 172.433 48.6999 173.501 47.405C174.57 46.1102 178.937 43.2307 177.952 40.7609C176.968 38.2912 173.15 42.5055 172.659 43.8804C172.659 43.8804 173.294 40.8628 171.96 40.7345C170.627 40.6062 170.582 45.3933 170.488 46.292C170.393 47.1907 161.808 60.5688 160.703 62.2749C159.598 63.9795 150.979 73.3952 150.395 73.7929C148.051 75.3896 145.698 75 145.698 75L146.214 78.5135L146.199 85.7583Z" fill="#FFC596"/>
<path d="M137.481 116.507C137.481 116.507 137.14 124.77 136.15 128.522C135.16 132.273 134.996 137.3 134.65 139.519C134.304 141.739 131.754 151.448 130.571 154.629C129.387 157.81 128.639 161.239 128.263 164.016C127.886 166.794 128.384 176.11 125.038 175.815C121.691 175.521 122.641 168.41 123.843 164.894C125.044 161.379 124.811 149.278 125.738 144.629C126.666 139.979 128.322 130.22 128.114 125.844C127.905 121.468 128.935 115 128.935 115L137.481 116.507Z" fill="#FFC596"/>
<path d="M142.08 118.133C142.08 118.133 142.041 126.403 142.858 130.196C143.675 133.988 143.608 139.018 143.851 141.251C144.094 143.484 146.196 153.3 147.232 156.532C148.268 159.763 148.858 163.223 149.107 166.014C149.355 168.806 148.43 178.09 151.787 177.949C155.143 177.807 154.521 170.661 153.482 167.094C152.443 163.526 153.232 151.45 152.519 146.762C151.805 142.075 150.599 132.251 151.009 127.889C151.417 123.527 151.696 117.043 151.696 117.043L142.08 118.133Z" fill="#FFC596"/>
<path d="M129.692 104.838C129.692 104.838 126.75 127.606 127.59 130.4C128.429 133.194 134.979 131.447 135.706 131.335C136.434 131.223 138.59 116.795 139.653 116.739C140.716 116.683 142.262 131.023 142.886 131.023C143.446 131.246 149.548 132.085 151.003 131.023C152.458 129.961 151.685 106.29 150.23 104.559C148.776 102.827 129.468 104.894 129.468 104.894" fill="#192E35"/>
<path d="M133.721 74.7759C133.721 74.7759 135.288 74.5527 136.24 73.8261C137.19 73.0994 137.359 70.2499 137.359 70.2499L141.948 70.5851C141.948 70.5851 142.06 73.3233 142.675 73.7704C143.291 74.2176 145.249 74.664 145.249 74.664C145.249 74.664 143.795 79.3582 143.683 79.5258C143.57 79.6927 141.668 82.5985 141.388 82.7105C141.108 82.8217 136.855 83.2695 136.855 83.2695L133.776 81.6487C133.776 81.6487 132.881 80.0842 132.937 79.8053C132.993 79.5258 133.721 74.7759 133.721 74.7759Z" fill="#FFC596"/>
<path d="M148.374 56.0096C149.089 58.0367 146.298 62.2553 148.088 64.7918C148.946 66.0077 147.659 66.6831 147.23 66.8189C146.801 66.9538 146.944 72.3573 141.509 71.6818C136.075 71.0072 133.787 67.7642 133.216 64.7918C132.643 61.8194 138.935 53.307 138.935 53.307L143.941 50.7402L146.514 52.4967L148.374 56.0096Z" fill="#FFC596"/>
<mask id="mask1_4951_28705" style="mask-type:alpha" maskUnits="userSpaceOnUse" x="133" y="50" width="16" height="22">
<path d="M148.374 56.0096C149.089 58.0367 146.298 62.2553 148.088 64.7918C148.946 66.0077 147.659 66.6831 147.23 66.8189C146.801 66.9538 146.944 72.3573 141.509 71.6818C136.075 71.0072 133.787 67.7642 133.216 64.7918C132.643 61.8194 138.935 53.307 138.935 53.307L143.941 50.7402L146.514 52.4967L148.374 56.0096Z" fill="white"/>
</mask>
<g mask="url(#mask1_4951_28705)">
<path d="M142.083 63.2471C141.454 63.2471 140.819 62.967 140.257 62.4081C140.186 62.338 140.169 62.1992 140.217 62.0978C140.266 61.9952 140.362 61.9698 140.433 62.0399C141.448 63.0503 142.727 63.0527 143.69 62.0435C143.759 61.9711 143.856 61.9928 143.906 62.093C143.956 62.192 143.941 62.332 143.872 62.4044C143.336 62.9658 142.713 63.2471 142.083 63.2471Z" fill="#17282F"/>
<path d="M143.204 69.2369C142.843 69.2046 142.483 69.0905 142.111 68.8906C141.766 68.7054 141.351 68.4573 141.205 68.1808C141.172 68.1185 141.2 68.0432 141.268 68.013C141.335 67.9822 141.417 68.0079 141.449 68.0709C141.577 68.3131 142.064 68.5744 142.247 68.6727C142.654 68.8915 143.025 68.9943 143.413 68.9949C144.115 68.997 144.727 68.7698 145.336 68.281C145.394 68.2356 145.479 68.2412 145.528 68.2934C145.578 68.3463 145.571 68.4256 145.515 68.4711C144.852 69.0022 144.184 69.2482 143.412 69.2467C143.343 69.2459 143.273 69.2431 143.204 69.2369Z" fill="#192E35"/>
<path d="M132.892 59.6395C133.227 57.7141 134.098 55.9395 135.226 54.406C135.7 53.7627 136.224 53.1535 136.847 52.669C137.557 52.1164 138.377 51.7387 139.194 51.3723C140.259 50.8943 141.047 50.7684 142.215 50.6769C144.391 50.5063 146.604 51.5207 148.467 52.7951C149.176 53.2797 149.768 53.8831 150.335 54.5431C151.012 55.333 151.683 56.1041 152.063 57.0817C152.612 58.4946 153.213 59.0006 153.086 61.4016L153.043 62.078C152.31 61.432 151.887 60.6477 152.049 59.6847C151.504 59.7607 151.053 58.9688 150.802 58.4452C150.55 57.9216 150.203 57.621 150.292 57.0549C150.31 56.9432 150.331 56.8252 150.292 56.7172C150.231 56.5477 150.05 56.4658 149.894 56.3864C149.09 55.9769 148.498 55.12 148.385 54.201C147.501 54.4452 146.549 54.4516 145.645 54.2196C145.168 54.7653 144.405 55.0191 143.695 54.8691C142.984 54.7188 142.349 54.1693 142.071 53.464C141.775 53.9353 141.228 54.1793 140.684 54.2314C140.139 54.2837 139.589 54.1694 139.047 54.0555C139.155 55.1905 138.329 56.302 137.259 56.4619C137.115 56.4835 136.948 56.5009 136.868 56.6268C136.785 56.7576 136.839 56.9351 136.876 57.0915C137.11 58.0814 136.379 59.16 135.419 59.2415C136 59.8647 135.794 61.0512 135.05 61.374C134.897 61.4403 134.698 61.5175 134.7 61.693C134.701 61.7597 134.734 61.8219 134.766 61.8811C135.011 62.3329 135.251 62.8217 135.227 63.3314C135.204 63.8413 134.812 64.353 134.324 64.295C134.551 64.5728 134.754 64.9155 134.718 65.2711C134.683 65.6267 134.296 65.931 133.993 65.7509C133.865 65.6743 133.386 65.7179 133.315 65.5823C132.647 63.7696 132.556 61.5648 132.892 59.6395Z" fill="#192E35"/>
</g>
<path d="M132.266 75.1112C132.158 74.1565 133.833 74.1613 134.168 74.8323C134.504 75.5026 134.951 77.303 139.541 77.4142C144.129 77.5262 144.298 75.4463 144.522 74.5528C144.745 73.6586 145.809 73.9937 146.201 74.4965C146.508 74.8914 145.795 82.47 147.6 84.7222C148.048 85.2813 147.432 88.913 147.04 91.483C146.648 94.053 150.734 102.714 151.126 105.117C151.126 105.117 147.879 108.916 139.541 108.916C131.202 108.916 129.3 105.396 129.02 104.949C128.74 104.502 132.378 96.1203 132.209 93.439C132.042 90.7571 130.419 85.0017 130.475 84.2751C130.531 83.5485 132.658 78.5754 132.266 75.1112Z" fill="#9685FF"/>
</svg>
