<svg width="276" height="187" viewBox="0 0 276 187" fill="none" xmlns="http://www.w3.org/2000/svg">
<path d="M262.954 187L115.081 186.949L40.7725 186.923L36.6355 186.92L21.7068 186.918C21.7068 186.918 0.381795 169.582 0.0123887 145.075C-0.715534 96.7846 30.893 118.536 26.5988 60.3361C22.6804 7.22905 125.059 -21.4082 180.65 19.165C200.861 33.9162 202.446 44.2624 231.489 40.9913C264.273 37.2992 268.009 77.1426 256.535 99.2292C240.253 130.567 301.681 125.419 262.954 187Z" fill="#F7F0FF"/>
<mask id="mask0_4951_28691" style="mask-type:alpha" maskUnits="userSpaceOnUse" x="0" y="0" width="276" height="187">
<path d="M262.954 187L115.081 186.949L40.7725 186.923L36.6355 186.92L21.7068 186.918C21.7068 186.918 0.381795 169.582 0.0123887 145.075C-0.715534 96.7846 30.893 118.536 26.5988 60.3361C22.6804 7.22905 125.059 -21.4082 180.65 19.165C200.861 33.9162 202.446 44.2624 231.489 40.9913C264.273 37.2992 268.009 77.1426 256.535 99.2292C240.253 130.567 301.681 125.419 262.954 187Z" fill="#CEF7F3"/>
</mask>
<g mask="url(#mask0_4951_28691)">
<path d="M69 104.125C45.3383 99.566 7.96149 113.156 7.96149 113.156H-5.30774V187H279.185V154.062C279.185 154.062 234.394 131.689 203.285 128.562C172.536 125.471 154.7 145.672 124.731 138.125C100.013 131.899 94.029 108.947 69 104.125Z" fill="#F1E6FF"/>
</g>
<path fill-rule="evenodd" clip-rule="evenodd" d="M65.8298 181.779V109.912L62.417 109.912C62.4145 109.912 62.4121 109.912 62.4096 109.912C60.3187 109.908 58.6249 108.189 58.6249 106.069V72.249C58.6249 70.4863 59.7959 69.0007 61.3925 68.5478V13.0643C61.3925 10.6234 63.3449 8.64467 65.7533 8.64467H208.335C210.744 8.64467 212.696 10.6234 212.696 13.0643V68.4075C214.738 68.4681 216.375 70.1648 216.375 72.249V106.069C216.375 108.189 214.681 109.908 212.59 109.912C212.588 109.912 212.585 109.912 212.583 109.912L208.412 109.912V181.779L205.831 181.779V182.355H69.6951V181.779L65.8298 181.779ZM65.0702 186.424L61.2049 186.424V114.47C57.1021 113.875 54 110.308 54 106.069V72.249C54 69.7618 55.063 67.5144 56.7676 65.9575V13.0643C56.7676 8.09826 60.751 4 65.7533 4H208.335C213.338 4 217.321 8.09825 217.321 13.0643V65.2316C219.55 66.7661 221 69.3499 221 72.249V106.069C221 110.566 217.51 114.306 213.037 114.545V186.424L210.455 186.424V187H65.0702V186.424Z" fill="#192E35"/>
<rect x="64.5809" y="110.064" width="144.941" height="72.6314" fill="white"/>
<path d="M57.2567 72.0012C57.2567 69.8561 58.9826 68.1172 61.1115 68.1172H213.762C215.891 68.1172 217.617 69.8561 217.617 72.0012V106.181C217.617 108.326 215.891 110.065 213.762 110.065H61.1115C58.9826 110.065 57.2567 108.326 57.2567 106.181V72.0012Z" fill="white"/>
<path d="M60.6483 12.1877C60.6483 10.0427 62.3741 8.30371 64.5031 8.30371H209.444C211.573 8.30371 213.299 10.0427 213.299 12.1877V84.8191C213.299 86.9642 211.573 88.7032 209.444 88.7032H64.5031C62.3741 88.7032 60.6483 86.9642 60.6483 84.8191V12.1877Z" fill="#ADB5BD"/>
<path fill-rule="evenodd" clip-rule="evenodd" d="M64.503 7.7207H209.444C211.892 7.7207 213.877 9.72049 213.877 12.1873V84.8188C213.877 87.2856 211.892 89.2854 209.444 89.2854H64.503C62.0547 89.2854 60.0699 87.2856 60.0699 84.8188V12.1873C60.0699 9.72049 62.0547 7.7207 64.503 7.7207ZM64.503 8.30331C62.374 8.30331 60.6482 10.0423 60.6482 12.1873V84.8188C60.6482 86.9638 62.374 88.7028 64.503 88.7028H209.444C211.573 88.7028 213.299 86.9638 213.299 84.8188V12.1873C213.299 10.0422 211.573 8.30331 209.444 8.30331H64.503Z" fill="#192E35"/>
<path d="M60.6483 16.0715C60.6483 13.9264 62.3741 12.1875 64.5031 12.1875H209.444C211.573 12.1875 213.299 13.9264 213.299 16.0715V84.8189C213.299 86.964 211.573 88.7029 209.444 88.7029H64.5031C62.3741 88.7029 60.6483 86.964 60.6483 84.8189V16.0715Z" fill="#CED4DA"/>
<path d="M72.172 39.3762C72.172 37.2311 73.8979 35.4922 76.0268 35.4922H199.381C201.51 35.4922 203.236 37.2311 203.236 39.3762V162.5C203.236 164.645 201.51 166.384 199.381 166.384H76.0268C73.8979 166.384 72.172 164.645 72.172 162.5V39.3762Z" fill="#F8F9FA"/>
<path fill-rule="evenodd" clip-rule="evenodd" d="M76.0269 34.9092H199.381C201.829 34.9092 203.814 36.909 203.814 39.3758V162.5C203.814 164.967 201.829 166.966 199.381 166.966H76.0269C73.5786 166.966 71.5939 164.967 71.5939 162.5V39.3758C71.5939 36.909 73.5786 34.9092 76.0269 34.9092ZM76.0269 35.4918C73.898 35.4918 72.1721 37.2307 72.1721 39.3758V162.5C72.1721 164.645 73.898 166.384 76.0269 166.384H199.381C201.51 166.384 203.236 164.645 203.236 162.5V39.3758C203.236 37.2307 201.51 35.4918 199.381 35.4918H76.0269Z" fill="#192E35"/>
<path d="M69.0883 68.8948C69.0883 66.7497 70.8141 65.0107 72.9431 65.0107H202.465C204.594 65.0107 206.32 66.7497 206.32 68.8948V182.697H69.0883V68.8948Z" fill="#B9F1FD"/>
<path fill-rule="evenodd" clip-rule="evenodd" d="M206.898 183.279H68.51V68.8944C68.51 66.4275 70.4947 64.4277 72.943 64.4277H202.465C204.913 64.4277 206.898 66.4275 206.898 68.8944V183.279ZM72.943 65.0103C70.8141 65.0103 69.0882 66.7493 69.0882 68.8944V182.697H206.32V68.8944C206.32 66.7493 204.594 65.0103 202.465 65.0103H72.943Z" fill="#192E35"/>
<path fill-rule="evenodd" clip-rule="evenodd" d="M111.536 100.093C100.107 99.2468 91.3606 100.429 87.3189 100.88L85.6639 100.972C89.5472 100.238 100.165 99.0069 111.927 99.8781C117.721 100.307 121.696 100.575 124.31 100.735C126.952 100.898 128.157 100.947 128.452 100.947L127.669 101.132C127.246 101.132 125.572 101.107 122.968 100.947C120.336 100.785 117.144 100.433 111.536 100.093Z" fill="#243D42"/>
<path fill-rule="evenodd" clip-rule="evenodd" d="M129.994 134.662C125.567 133.815 122.179 134.997 120.613 135.448L119.972 135.54C121.476 134.807 125.589 133.575 130.146 134.446C132.39 134.876 133.93 135.143 134.943 135.304C135.966 135.466 136.433 135.515 136.548 135.515L136.244 135.7C136.08 135.7 135.432 135.675 134.423 135.515C133.403 135.354 132.167 135.002 129.994 134.662Z" fill="#243D42"/>
<path fill-rule="evenodd" clip-rule="evenodd" d="M182.455 157.189C171.541 156.342 163.189 157.524 159.329 157.976L157.749 158.068C161.457 157.334 171.596 156.103 182.829 156.974C188.362 157.403 192.158 157.671 194.655 157.831C197.177 157.993 198.328 158.043 198.61 158.043L197.862 158.227C197.458 158.227 195.86 158.203 193.373 158.043C190.859 157.881 187.811 157.529 182.455 157.189Z" fill="#243D42"/>
<path fill-rule="evenodd" clip-rule="evenodd" d="M101.119 169.229C90.2049 168.383 81.8525 169.564 77.9929 170.016L76.4125 170.108C80.1208 169.374 90.2599 168.143 101.493 169.014C107.025 169.443 110.822 169.711 113.318 169.871C115.841 170.033 116.992 170.083 117.274 170.083L116.525 170.267C116.121 170.267 114.523 170.243 112.036 170.083C109.523 169.921 106.475 169.569 101.119 169.229Z" fill="#243D42"/>
<path fill-rule="evenodd" clip-rule="evenodd" d="M171.178 106.696C157.072 105.849 146.277 107.031 141.289 107.482L139.246 107.575C144.039 106.841 157.143 105.609 171.661 106.481C178.812 106.91 183.718 107.178 186.945 107.338C190.205 107.5 191.693 107.55 192.057 107.55L191.09 107.734C190.568 107.734 188.502 107.709 185.288 107.55C182.039 107.388 178.1 107.036 171.178 106.696Z" fill="#243D42"/>
<path d="M110.5 151.5C106.082 151.5 102.5 155.082 102.5 159.5C102.5 163.918 106.082 167.5 110.5 167.5H161.5C165.918 167.5 169.5 163.918 169.5 159.5C169.5 155.082 165.918 151.5 161.5 151.5H110.5Z" fill="#708BA6" stroke="#192E35"/>
<path d="M115.181 43.9362L115.181 43.9362C114.842 44.1513 114.72 44.5215 114.676 44.8391C114.63 45.1674 114.651 45.5567 114.703 45.9676C114.799 46.7319 115.02 47.6971 115.256 48.7257C115.274 48.806 115.293 48.8866 115.311 48.9676C115.835 51.2579 116.392 53.8365 116.075 55.7881C116.049 55.9469 116.022 56.1103 115.995 56.2779C115.667 58.2861 115.242 60.8939 115.021 63.3246C114.901 64.6416 114.839 65.9201 114.888 67.0324C114.936 68.1303 115.093 69.1256 115.449 69.8376L115.181 43.9362ZM115.181 43.9362C115.546 43.7039 116.477 43.3167 117.764 42.8743C119.075 42.4241 120.806 41.8997 122.813 41.4004C126.825 40.4026 131.96 39.4998 137.051 39.4998C143.041 39.4998 148.63 40.5994 152.793 41.8394C154.875 42.4595 156.608 43.117 157.863 43.6944C158.489 43.9826 159.005 44.2548 159.388 44.4966C159.58 44.6173 159.746 44.7357 159.88 44.85C160.004 44.9561 160.139 45.091 160.219 45.2516C160.291 45.3956 160.326 45.5615 160.345 45.7104C160.365 45.8674 160.374 46.0465 160.374 46.2394C160.375 46.6255 160.343 47.104 160.289 47.6418C160.18 48.7194 159.979 50.0799 159.748 51.5063C159.579 52.5493 159.394 53.6257 159.217 54.6589C158.907 56.4717 158.619 58.1512 158.478 59.2832L158.478 59.2833M115.181 43.9362L158.478 59.2833M158.478 59.2833C158.372 60.1247 158.403 61.221 158.494 62.4461C158.55 63.2044 158.627 63.9895 158.704 64.7796C158.752 65.2679 158.8 65.7582 158.843 66.2453C158.955 67.5036 159.035 68.7284 158.984 69.744C158.959 70.2524 158.9 70.7266 158.788 71.136C158.677 71.5412 158.504 71.9221 158.223 72.2031C157.754 72.6707 157.037 73.0651 156.055 73.4014C155.067 73.7398 153.775 74.0318 152.121 74.2718C148.812 74.7518 144 75.0312 137.163 75.0312C130.31 75.0312 125.254 74.4148 121.742 73.4776M158.478 59.2833L121.742 73.4776M121.742 73.4776C119.986 73.0091 118.601 72.4566 117.566 71.8509M121.742 73.4776L117.566 71.8509M117.566 71.8509C116.537 71.2485 115.817 70.572 115.449 69.8377L117.566 71.8509Z" fill="#708BA6" stroke="#192E35"/>
<mask id="path-21-outside-1_4951_28691" maskUnits="userSpaceOnUse" x="114.889" y="42" width="48" height="135" fill="black">
<rect fill="white" x="114.889" y="42" width="48" height="135"/>
<path fill-rule="evenodd" clip-rule="evenodd" d="M148.982 54.1472C149.717 52.8796 149.347 51.0927 148.168 50.2164C148.642 49.4277 148.288 48.3564 147.613 47.729C146.937 47.1016 146.021 46.8124 145.137 46.5415C144.398 44.5183 141.843 43.3669 139.823 44.1463C138.521 42.7038 136.17 42.7639 134.386 43.5489C134.308 43.5831 134.231 43.6185 134.153 43.6539L134.153 43.6539L134.153 43.6539C133.796 43.8173 133.436 43.9817 133.048 44.0319C132.82 44.0614 132.59 44.0505 132.36 44.0395C132.24 44.0337 132.12 44.028 132 44.028C130.077 44.0276 128.381 45.5984 127.881 47.4421C127.865 47.4997 127.851 47.5578 127.836 47.616L127.836 47.616C127.775 47.8552 127.714 48.0955 127.59 48.3079C127.449 48.5482 127.24 48.7345 127.029 48.921L127.029 48.921C126.937 49.0035 126.844 49.0859 126.757 49.1732C126.143 49.7885 125.821 50.6796 125.901 51.5421C125.923 51.7826 125.975 52.0241 126.026 52.2649C126.131 52.7574 126.235 53.2471 126.088 53.7191C126.039 53.875 125.964 54.0216 125.889 54.1679C125.795 54.3523 125.701 54.5362 125.66 54.7377C125.548 55.2851 125.838 55.7851 126.131 56.2901C126.398 56.7511 126.667 57.2163 126.636 57.7255C126.628 57.8541 126.6 57.9802 126.572 58.1064C126.553 58.1937 126.534 58.281 126.521 58.3693C126.458 58.8106 126.562 59.2737 126.81 59.6462C126.866 59.7306 126.929 59.8119 126.993 59.893C127.146 60.0877 127.298 60.282 127.345 60.5203C127.379 60.6924 127.353 60.8669 127.327 61.0418C127.314 61.1274 127.301 61.213 127.295 61.2985C127.262 61.7809 128.386 62.683 129.188 63.208C130.257 66.207 132.277 68.6868 134.943 69.4767C134.794 70.3427 134.506 71.4187 133.973 71.8264C133.307 72.3349 132.34 72.5968 131.819 72.7083C131.423 72.2459 130.311 72.2162 130.049 72.7665C129.28 72.9358 126.806 73.6071 126.194 75.3468C125.807 76.4454 124.14 80.1639 122.562 83.684L122.562 83.6841C121.171 86.7876 119.849 89.7369 119.534 90.6006C118.863 92.4446 117.911 108.872 117.855 110.548C117.835 111.162 117.447 112.211 117.02 113.362C116.283 115.354 115.432 117.653 116.177 118.539C117.352 119.935 119.289 118.074 119.478 115.241C119.499 114.928 119.551 115.115 119.649 115.465C119.814 116.052 120.107 117.1 120.597 117.03C121.381 116.919 121.941 116.136 121.549 114.348C121.385 113.6 121.221 112.95 121.073 112.364C120.868 111.551 120.695 110.863 120.597 110.213C120.43 109.096 123.844 92.4446 124.459 90.7125C124.962 89.2965 127.373 84.37 128.236 82.6191C128.312 83.1347 128.527 84.0787 128.78 85.1914C129.247 87.243 129.845 89.8681 129.943 91.4389C130.046 93.0868 128.712 96.8883 127.733 99.6773C127.119 101.426 126.645 102.777 126.753 102.949C126.761 102.962 126.77 102.977 126.781 102.994C126.862 103.127 127.023 103.391 127.313 103.724C127.108 105.352 126.656 109.026 126.219 113.068L125.658 112.978C125.658 112.978 125.651 115.399 125.692 118.281C125.253 123.02 124.99 127.289 125.323 128.399C125.386 128.608 125.48 128.79 125.601 128.951C125.127 133.614 124.121 139.374 123.471 142.629C123.053 144.727 122.871 148.342 122.687 152.001C122.463 156.451 122.236 160.966 121.576 162.895C120.374 166.411 119.424 173.521 122.771 173.816C125.399 174.047 125.656 168.353 125.828 164.551C125.875 163.511 125.915 162.613 125.996 162.017C126.372 159.239 127.121 155.811 128.304 152.63C129.487 149.449 132.038 139.739 132.383 137.52C132.493 136.812 132.585 135.82 132.691 134.674L132.691 134.674L132.691 134.673L132.691 134.673C132.839 133.08 133.013 131.19 133.303 129.36C133.36 129.348 133.406 129.34 133.44 129.334C133.767 129.284 134.384 126.333 135.061 123.097C135.887 119.146 136.802 114.77 137.386 114.739C137.99 114.707 138.748 119.308 139.405 123.295C139.907 126.337 140.349 129.023 140.62 129.023C140.65 129.035 140.698 129.049 140.76 129.065C141.18 131.465 141.307 134.211 141.408 136.399C141.461 137.546 141.507 138.54 141.584 139.251C141.828 141.484 143.93 151.3 144.965 154.532C146.002 157.763 146.591 161.222 146.84 164.014C146.893 164.614 146.893 165.512 146.892 166.553C146.889 170.358 146.884 176.06 149.52 175.948C152.877 175.807 152.254 168.66 151.215 165.093C150.645 163.136 150.625 158.618 150.606 154.163V154.163C150.59 150.499 150.574 146.878 150.252 144.762C149.681 141.01 148.794 133.964 148.673 129.066C148.695 129.052 148.716 129.037 148.736 129.023C149.492 128.471 149.647 121.824 149.417 115.317C149.425 115.139 149.429 115.043 149.429 115.043L149.407 115.045C149.232 110.299 148.853 105.674 148.356 103.598C148.698 103.305 148.859 103.116 148.859 103.116C148.71 102.203 148.027 100.385 147.26 98.3417C146.008 95.0093 144.531 91.0759 144.773 89.4829C144.809 89.2474 144.847 89.003 144.886 88.753C145.269 86.2732 145.74 83.2299 145.333 82.722L145.333 82.7217L145.334 82.7223C145.893 83.0387 150.818 93.7296 151.341 95.5181C151.863 97.3058 155.893 111.312 155.743 112.131C155.72 112.254 155.675 112.455 155.617 112.708C155.289 114.136 154.579 117.231 155.594 117.421C156.788 117.645 157.012 114.814 157.012 114.814C157.086 116.154 159.325 120.848 160.817 118.911C161.953 117.438 160.453 114.972 159.408 113.254L159.408 113.254C159.08 112.713 158.796 112.247 158.653 111.908C158.36 111.213 157.977 108.126 157.557 104.741L157.556 104.741C157.121 101.236 156.646 97.4118 156.191 95.5925C155.295 92.0163 149.027 76.4455 147.46 74.3594C146.413 72.9657 145.666 72.9023 144.885 72.836C144.596 72.8115 144.302 72.7866 143.986 72.6935C143.973 72.5926 143.956 72.5252 143.934 72.4963C143.552 72.0069 142.534 71.6763 142.274 72.4841C141.65 72.3129 140.782 72.0419 140.408 71.7708C139.997 71.472 139.811 70.1504 139.732 69.3062C143.059 68.2652 145.141 65.472 146.015 62.2488C147.008 61.7358 147.681 60.6322 147.637 59.5157C147.636 59.4906 147.635 59.4652 147.634 59.4398L147.634 59.4397C147.624 59.2549 147.615 59.0638 147.708 58.9065C147.778 58.7872 147.896 58.7083 148.013 58.6299L148.013 58.6298L148.013 58.6298C148.046 58.608 148.078 58.5863 148.11 58.5638C149.073 57.8714 149.007 56.4389 148.74 55.2883L148.737 55.2776C148.7 55.1197 148.663 54.9586 148.682 54.798C148.706 54.6028 148.811 54.4309 148.914 54.2608L148.914 54.2606L148.914 54.2605L148.914 54.2603L148.914 54.2602L148.914 54.26L148.915 54.2599L148.915 54.2597C148.937 54.2222 148.96 54.1848 148.982 54.1472Z"/>
</mask>
<path fill-rule="evenodd" clip-rule="evenodd" d="M148.982 54.1472C149.717 52.8796 149.347 51.0927 148.168 50.2164C148.642 49.4277 148.288 48.3564 147.613 47.729C146.937 47.1016 146.021 46.8124 145.137 46.5415C144.398 44.5183 141.843 43.3669 139.823 44.1463C138.521 42.7038 136.17 42.7639 134.386 43.5489C134.308 43.5831 134.231 43.6185 134.153 43.6539L134.153 43.6539L134.153 43.6539C133.796 43.8173 133.436 43.9817 133.048 44.0319C132.82 44.0614 132.59 44.0505 132.36 44.0395C132.24 44.0337 132.12 44.028 132 44.028C130.077 44.0276 128.381 45.5984 127.881 47.4421C127.865 47.4997 127.851 47.5578 127.836 47.616L127.836 47.616C127.775 47.8552 127.714 48.0955 127.59 48.3079C127.449 48.5482 127.24 48.7345 127.029 48.921L127.029 48.921C126.937 49.0035 126.844 49.0859 126.757 49.1732C126.143 49.7885 125.821 50.6796 125.901 51.5421C125.923 51.7826 125.975 52.0241 126.026 52.2649C126.131 52.7574 126.235 53.2471 126.088 53.7191C126.039 53.875 125.964 54.0216 125.889 54.1679C125.795 54.3523 125.701 54.5362 125.66 54.7377C125.548 55.2851 125.838 55.7851 126.131 56.2901C126.398 56.7511 126.667 57.2163 126.636 57.7255C126.628 57.8541 126.6 57.9802 126.572 58.1064C126.553 58.1937 126.534 58.281 126.521 58.3693C126.458 58.8106 126.562 59.2737 126.81 59.6462C126.866 59.7306 126.929 59.8119 126.993 59.893C127.146 60.0877 127.298 60.282 127.345 60.5203C127.379 60.6924 127.353 60.8669 127.327 61.0418C127.314 61.1274 127.301 61.213 127.295 61.2985C127.262 61.7809 128.386 62.683 129.188 63.208C130.257 66.207 132.277 68.6868 134.943 69.4767C134.794 70.3427 134.506 71.4187 133.973 71.8264C133.307 72.3349 132.34 72.5968 131.819 72.7083C131.423 72.2459 130.311 72.2162 130.049 72.7665C129.28 72.9358 126.806 73.6071 126.194 75.3468C125.807 76.4454 124.14 80.1639 122.562 83.684L122.562 83.6841C121.171 86.7876 119.849 89.7369 119.534 90.6006C118.863 92.4446 117.911 108.872 117.855 110.548C117.835 111.162 117.447 112.211 117.02 113.362C116.283 115.354 115.432 117.653 116.177 118.539C117.352 119.935 119.289 118.074 119.478 115.241C119.499 114.928 119.551 115.115 119.649 115.465C119.814 116.052 120.107 117.1 120.597 117.03C121.381 116.919 121.941 116.136 121.549 114.348C121.385 113.6 121.221 112.95 121.073 112.364C120.868 111.551 120.695 110.863 120.597 110.213C120.43 109.096 123.844 92.4446 124.459 90.7125C124.962 89.2965 127.373 84.37 128.236 82.6191C128.312 83.1347 128.527 84.0787 128.78 85.1914C129.247 87.243 129.845 89.8681 129.943 91.4389C130.046 93.0868 128.712 96.8883 127.733 99.6773C127.119 101.426 126.645 102.777 126.753 102.949C126.761 102.962 126.77 102.977 126.781 102.994C126.862 103.127 127.023 103.391 127.313 103.724C127.108 105.352 126.656 109.026 126.219 113.068L125.658 112.978C125.658 112.978 125.651 115.399 125.692 118.281C125.253 123.02 124.99 127.289 125.323 128.399C125.386 128.608 125.48 128.79 125.601 128.951C125.127 133.614 124.121 139.374 123.471 142.629C123.053 144.727 122.871 148.342 122.687 152.001C122.463 156.451 122.236 160.966 121.576 162.895C120.374 166.411 119.424 173.521 122.771 173.816C125.399 174.047 125.656 168.353 125.828 164.551C125.875 163.511 125.915 162.613 125.996 162.017C126.372 159.239 127.121 155.811 128.304 152.63C129.487 149.449 132.038 139.739 132.383 137.52C132.493 136.812 132.585 135.82 132.691 134.674L132.691 134.674L132.691 134.673L132.691 134.673C132.839 133.08 133.013 131.19 133.303 129.36C133.36 129.348 133.406 129.34 133.44 129.334C133.767 129.284 134.384 126.333 135.061 123.097C135.887 119.146 136.802 114.77 137.386 114.739C137.99 114.707 138.748 119.308 139.405 123.295C139.907 126.337 140.349 129.023 140.62 129.023C140.65 129.035 140.698 129.049 140.76 129.065C141.18 131.465 141.307 134.211 141.408 136.399C141.461 137.546 141.507 138.54 141.584 139.251C141.828 141.484 143.93 151.3 144.965 154.532C146.002 157.763 146.591 161.222 146.84 164.014C146.893 164.614 146.893 165.512 146.892 166.553C146.889 170.358 146.884 176.06 149.52 175.948C152.877 175.807 152.254 168.66 151.215 165.093C150.645 163.136 150.625 158.618 150.606 154.163V154.163C150.59 150.499 150.574 146.878 150.252 144.762C149.681 141.01 148.794 133.964 148.673 129.066C148.695 129.052 148.716 129.037 148.736 129.023C149.492 128.471 149.647 121.824 149.417 115.317C149.425 115.139 149.429 115.043 149.429 115.043L149.407 115.045C149.232 110.299 148.853 105.674 148.356 103.598C148.698 103.305 148.859 103.116 148.859 103.116C148.71 102.203 148.027 100.385 147.26 98.3417C146.008 95.0093 144.531 91.0759 144.773 89.4829C144.809 89.2474 144.847 89.003 144.886 88.753C145.269 86.2732 145.74 83.2299 145.333 82.722L145.333 82.7217L145.334 82.7223C145.893 83.0387 150.818 93.7296 151.341 95.5181C151.863 97.3058 155.893 111.312 155.743 112.131C155.72 112.254 155.675 112.455 155.617 112.708C155.289 114.136 154.579 117.231 155.594 117.421C156.788 117.645 157.012 114.814 157.012 114.814C157.086 116.154 159.325 120.848 160.817 118.911C161.953 117.438 160.453 114.972 159.408 113.254L159.408 113.254C159.08 112.713 158.796 112.247 158.653 111.908C158.36 111.213 157.977 108.126 157.557 104.741L157.556 104.741C157.121 101.236 156.646 97.4118 156.191 95.5925C155.295 92.0163 149.027 76.4455 147.46 74.3594C146.413 72.9657 145.666 72.9023 144.885 72.836C144.596 72.8115 144.302 72.7866 143.986 72.6935C143.973 72.5926 143.956 72.5252 143.934 72.4963C143.552 72.0069 142.534 71.6763 142.274 72.4841C141.65 72.3129 140.782 72.0419 140.408 71.7708C139.997 71.472 139.811 70.1504 139.732 69.3062C143.059 68.2652 145.141 65.472 146.015 62.2488C147.008 61.7358 147.681 60.6322 147.637 59.5157C147.636 59.4906 147.635 59.4652 147.634 59.4398L147.634 59.4397C147.624 59.2549 147.615 59.0638 147.708 58.9065C147.778 58.7872 147.896 58.7083 148.013 58.6299L148.013 58.6298L148.013 58.6298C148.046 58.608 148.078 58.5863 148.11 58.5638C149.073 57.8714 149.007 56.4389 148.74 55.2883L148.737 55.2776C148.7 55.1197 148.663 54.9586 148.682 54.798C148.706 54.6028 148.811 54.4309 148.914 54.2608L148.914 54.2606L148.914 54.2605L148.914 54.2603L148.914 54.2602L148.914 54.26L148.915 54.2599L148.915 54.2597C148.937 54.2222 148.96 54.1848 148.982 54.1472Z" fill="#192E35"/>
<path d="M148.168 50.2164L147.311 49.7011L146.843 50.4782L147.571 51.019L148.168 50.2164ZM148.982 54.1472L148.117 53.6455L148.117 53.6458L148.982 54.1472ZM147.613 47.729L146.932 48.4617L146.932 48.4618L147.613 47.729ZM145.137 46.5415L144.197 46.8846L144.368 47.3519L144.844 47.4977L145.137 46.5415ZM139.823 44.1463L139.081 44.8164L139.542 45.3267L140.183 45.0792L139.823 44.1463ZM134.386 43.5489L133.983 42.6336L133.983 42.6337L134.386 43.5489ZM134.153 43.6539L133.738 42.7443L133.732 42.7471L134.153 43.6539ZM134.153 43.6539L134.563 44.5664L134.575 44.5607L134.153 43.6539ZM134.153 43.6539L133.744 42.7415L133.738 42.7444L134.153 43.6539ZM133.048 44.0319L132.919 43.0401L132.919 43.0402L133.048 44.0319ZM132.36 44.0395L132.407 43.0406V43.0406L132.36 44.0395ZM132 44.028L132 45.028H132V44.028ZM127.881 47.4421L128.846 47.7042L128.846 47.7039L127.881 47.4421ZM127.836 47.616L128.785 47.9322L128.796 47.8976L128.805 47.8622L127.836 47.616ZM127.836 47.616L126.887 47.2997L126.876 47.3343L126.867 47.3697L127.836 47.616ZM127.59 48.3079L126.727 47.8031L126.726 47.8034L127.59 48.3079ZM127.029 48.921L126.366 48.1732L126.361 48.1777L127.029 48.921ZM127.029 48.921L127.693 49.6688L127.698 49.6643L127.029 48.921ZM126.757 49.1732L126.049 48.467L126.049 48.4671L126.757 49.1732ZM125.901 51.5421L126.897 51.45L126.897 51.4499L125.901 51.5421ZM126.026 52.2649L125.048 52.473V52.473L126.026 52.2649ZM126.088 53.7191L127.042 54.0174L127.042 54.0169L126.088 53.7191ZM125.889 54.1679L126.78 54.6225V54.6225L125.889 54.1679ZM125.66 54.7377L126.64 54.9379L126.64 54.9378L125.66 54.7377ZM126.131 56.2901L125.265 56.7914L125.265 56.7914L126.131 56.2901ZM126.636 57.7255L127.634 57.7882L127.634 57.7876L126.636 57.7255ZM126.572 58.1064L125.595 57.8926L125.595 57.8926L126.572 58.1064ZM126.521 58.3693L127.511 58.5116L127.511 58.5116L126.521 58.3693ZM126.81 59.6462L125.976 60.1991L125.977 60.1995L126.81 59.6462ZM126.993 59.893L127.78 59.2758L127.78 59.2758L126.993 59.893ZM127.345 60.5203L128.326 60.3275L128.326 60.3275L127.345 60.5203ZM127.327 61.0418L126.338 60.8937L126.338 60.8937L127.327 61.0418ZM127.295 61.2985L128.293 61.367L128.293 61.3666L127.295 61.2985ZM129.188 63.208L130.13 62.8722L130.017 62.5555L129.736 62.3713L129.188 63.208ZM134.943 69.4767L135.928 69.6467L136.079 68.7706L135.227 68.5179L134.943 69.4767ZM133.973 71.8264L134.58 72.6213L134.58 72.6209L133.973 71.8264ZM131.819 72.7083L131.059 73.3589L131.446 73.8106L132.028 73.6861L131.819 72.7083ZM130.049 72.7665L130.264 73.7432L130.743 73.638L130.953 73.1955L130.049 72.7665ZM126.194 75.3468L127.137 75.6789L127.137 75.6788L126.194 75.3468ZM122.562 83.684L121.65 83.2749L121.644 83.2875L122.562 83.684ZM122.562 83.6841L123.475 84.0932L123.48 84.0805L122.562 83.6841ZM119.534 90.6006L118.594 90.2582L118.594 90.2585L119.534 90.6006ZM117.855 110.548L116.856 110.514L116.856 110.515L117.855 110.548ZM117.02 113.362L117.958 113.709H117.958L117.02 113.362ZM116.177 118.539L115.411 119.183L115.411 119.183L116.177 118.539ZM119.478 115.241L120.476 115.308L120.476 115.308L119.478 115.241ZM119.649 115.465L120.612 115.196H120.612L119.649 115.465ZM120.597 117.03L120.457 116.04L120.456 116.04L120.597 117.03ZM121.549 114.348L122.526 114.134L122.526 114.134L121.549 114.348ZM121.073 112.364L122.043 112.12H122.043L121.073 112.364ZM120.597 110.213L119.609 110.362L119.609 110.362L120.597 110.213ZM124.459 90.7125L123.516 90.3773L123.516 90.378L124.459 90.7125ZM128.236 82.6191L129.226 82.4735L128.758 79.2988L127.339 82.177L128.236 82.6191ZM128.78 85.1914L129.755 84.9695V84.9695L128.78 85.1914ZM129.943 91.4389L128.944 91.5011L128.945 91.5016L129.943 91.4389ZM127.733 99.6773L128.677 100.008L128.677 100.008L127.733 99.6773ZM126.753 102.949L125.905 103.479L125.905 103.48L126.753 102.949ZM126.781 102.994L127.635 102.474L127.635 102.474L126.781 102.994ZM127.313 103.724L128.305 103.848L128.361 103.404L128.067 103.067L127.313 103.724ZM126.219 113.068L126.061 114.055L127.1 114.222L127.213 113.175L126.219 113.068ZM125.658 112.978L125.816 111.991L124.662 111.806L124.658 112.975L125.658 112.978ZM125.692 118.281L126.688 118.373L126.693 118.32L126.692 118.266L125.692 118.281ZM125.323 128.399L126.281 128.112L126.281 128.112L125.323 128.399ZM125.601 128.951L126.596 129.052L126.636 128.661L126.399 128.348L125.601 128.951ZM123.471 142.629L122.491 142.433L122.491 142.434L123.471 142.629ZM122.687 152.001L121.688 151.951L122.687 152.001ZM121.576 162.895L120.63 162.571L121.576 162.895ZM122.771 173.816L122.859 172.82H122.859L122.771 173.816ZM125.828 164.551L124.829 164.506L125.828 164.551ZM125.996 162.017L126.987 162.151L126.987 162.151L125.996 162.017ZM128.304 152.63L127.367 152.281L127.367 152.281L128.304 152.63ZM132.383 137.52L131.395 137.366L131.395 137.366L132.383 137.52ZM132.691 134.674L131.699 134.55L131.697 134.566L131.695 134.582L132.691 134.674ZM132.691 134.674L133.683 134.798L133.686 134.777L133.688 134.757L132.691 134.674ZM132.691 134.673L131.696 134.574L131.695 134.582L131.695 134.59L132.691 134.673ZM132.691 134.673L133.686 134.773L133.687 134.765L132.691 134.673ZM133.303 129.36L133.105 128.38L132.424 128.517L132.316 129.203L133.303 129.36ZM133.44 129.334L133.289 128.346L133.287 128.346L133.44 129.334ZM135.061 123.097L136.04 123.302L135.061 123.097ZM137.386 114.739L137.334 113.74L137.333 113.74L137.386 114.739ZM139.405 123.295L140.392 123.133L139.405 123.295ZM140.62 129.023L140.99 128.094L140.812 128.023H140.62V129.023ZM140.76 129.065L141.745 128.892L141.633 128.251L141.001 128.094L140.76 129.065ZM141.408 136.399L142.407 136.353L141.408 136.399ZM141.584 139.251L140.59 139.359L140.59 139.359L141.584 139.251ZM144.965 154.532L144.013 154.837L144.013 154.837L144.965 154.532ZM146.84 164.014L145.844 164.103L146.84 164.014ZM146.892 166.553L147.892 166.554L146.892 166.553ZM149.52 175.948L149.478 174.949H149.478L149.52 175.948ZM151.215 165.093L152.175 164.814L151.215 165.093ZM150.606 154.163H149.606L149.606 154.168L150.606 154.163ZM150.606 154.163H151.606L151.606 154.159L150.606 154.163ZM150.252 144.762L151.241 144.612L150.252 144.762ZM148.673 129.066L148.135 128.223L147.659 128.527L147.673 129.09L148.673 129.066ZM148.736 129.023L148.147 128.215L148.146 128.215L148.736 129.023ZM149.417 115.317L148.418 115.272L148.416 115.312L148.418 115.352L149.417 115.317ZM149.429 115.043L150.428 115.085L150.479 113.917L149.317 114.049L149.429 115.043ZM149.407 115.045L148.408 115.082L148.448 116.16L149.52 116.039L149.407 115.045ZM148.356 103.598L147.706 102.838L147.241 103.236L147.383 103.831L148.356 103.598ZM148.859 103.116L149.619 103.766L149.921 103.413L149.846 102.955L148.859 103.116ZM147.26 98.3417L148.196 97.9901L147.26 98.3417ZM144.773 89.4829L143.785 89.332L143.785 89.3323L144.773 89.4829ZM144.886 88.753L143.897 88.6001L144.886 88.753ZM145.333 82.722L146.114 82.0969L146.112 82.0954L145.333 82.722ZM145.333 82.7217L145.825 81.851L144.553 83.3483L145.333 82.7217ZM145.334 82.7223L145.826 81.852L145.826 81.8517L145.334 82.7223ZM151.341 95.5181L150.381 95.7984L150.381 95.7985L151.341 95.5181ZM155.743 112.131L154.759 111.951L154.759 111.952L155.743 112.131ZM155.617 112.708L154.642 112.484L154.642 112.484L155.617 112.708ZM155.594 117.421L155.409 118.404L155.41 118.404L155.594 117.421ZM157.012 114.814L158.01 114.758L156.015 114.735L157.012 114.814ZM160.817 118.911L160.025 118.3L160.025 118.301L160.817 118.911ZM159.408 113.254L158.551 113.768L158.554 113.773L159.408 113.254ZM159.408 113.254L160.266 112.739L160.263 112.734L159.408 113.254ZM158.653 111.908L159.575 111.52H159.575L158.653 111.908ZM157.557 104.741L158.549 104.618L158.549 104.617L157.557 104.741ZM157.556 104.741L156.564 104.865L156.564 104.865L157.556 104.741ZM156.191 95.5925L155.221 95.8354L156.191 95.5925ZM147.46 74.3594L146.661 74.96H146.661L147.46 74.3594ZM144.885 72.836L144.97 71.8396L144.885 72.836ZM143.986 72.6935L142.994 72.8207L143.077 73.4681L143.704 73.6527L143.986 72.6935ZM143.934 72.4963L144.723 71.8824L144.722 71.8813L143.934 72.4963ZM142.274 72.4841L142.01 73.4485L142.933 73.7015L143.226 72.7904L142.274 72.4841ZM140.408 71.7708L139.82 72.5796L139.821 72.5802L140.408 71.7708ZM139.732 69.3062L139.434 68.3519L138.662 68.5935L138.737 69.3988L139.732 69.3062ZM146.015 62.2488L145.556 61.3603L145.165 61.5623L145.05 61.9871L146.015 62.2488ZM147.637 59.5157L148.636 59.4763V59.4762L147.637 59.5157ZM147.634 59.4398L148.632 59.3899L148.632 59.3816L148.631 59.3733L147.634 59.4398ZM147.634 59.4397L146.635 59.4897L146.635 59.4979L146.636 59.5062L147.634 59.4397ZM147.708 58.9065L146.847 58.3976L146.847 58.3982L147.708 58.9065ZM148.013 58.6299L148.569 59.4609L148.576 59.4562L148.013 58.6299ZM148.013 58.6298L147.459 57.7977L147.45 57.8036L148.013 58.6298ZM148.013 58.6298L148.568 59.4618L148.57 59.4608L148.013 58.6298ZM148.11 58.5638L147.526 57.7517L147.526 57.7518L148.11 58.5638ZM148.74 55.2883L149.714 55.0622L149.714 55.0618L148.74 55.2883ZM148.737 55.2776L149.711 55.0512L149.711 55.0511L148.737 55.2776ZM148.682 54.798L147.69 54.677L147.69 54.6776L148.682 54.798ZM148.914 54.2608L148.062 53.7367L148.059 53.7416L148.914 54.2608ZM148.915 54.2597L149.766 54.7838L149.769 54.7788L148.915 54.2597ZM147.571 51.019C148.344 51.5933 148.596 52.8196 148.117 53.6455L149.847 54.6488C150.838 52.9396 150.35 50.5921 148.764 49.4138L147.571 51.019ZM146.932 48.4618C147.408 48.9035 147.451 49.4677 147.311 49.7011L149.025 50.7317C149.833 49.3877 149.169 47.8092 148.293 46.9962L146.932 48.4618ZM144.844 47.4977C145.766 47.7802 146.452 48.016 146.932 48.4617L148.293 46.9963C147.422 46.1873 146.275 45.8446 145.429 45.5854L144.844 47.4977ZM140.183 45.0792C141.686 44.4994 143.652 45.3916 144.197 46.8846L146.076 46.1985C145.143 43.645 142 42.2344 139.463 43.2133L140.183 45.0792ZM134.789 44.4642C135.552 44.1284 136.424 43.9553 137.216 44.01C138.004 44.0643 138.647 44.3353 139.081 44.8164L140.565 43.4761C139.697 42.5148 138.513 42.0947 137.354 42.0147C136.199 41.935 135.004 42.1845 133.983 42.6336L134.789 44.4642ZM134.569 44.5634C134.648 44.5275 134.719 44.4951 134.789 44.4642L133.983 42.6337C133.898 42.6711 133.814 42.7094 133.738 42.7443L134.569 44.5634ZM134.575 44.5607L134.575 44.5607L133.732 42.7471L133.732 42.7471L134.575 44.5607ZM134.563 44.5663L134.563 44.5663L133.744 42.7415L133.744 42.7416L134.563 44.5663ZM133.176 45.0236C133.739 44.9508 134.236 44.7154 134.569 44.5635L133.738 42.7444C133.355 42.9193 133.133 43.0126 132.919 43.0401L133.176 45.0236ZM132.312 45.0383C132.527 45.0486 132.846 45.0664 133.176 45.0236L132.919 43.0402C132.794 43.0564 132.653 43.0523 132.407 43.0406L132.312 45.0383ZM132 45.028C132.092 45.028 132.188 45.0324 132.312 45.0383L132.407 43.0406C132.292 43.0351 132.148 43.028 132 43.028V45.028ZM128.846 47.7039C129.254 46.2022 130.619 45.0277 132 45.028L132 43.028C129.536 43.0275 127.509 44.9945 126.916 47.1803L128.846 47.7039ZM128.805 47.8622C128.82 47.8027 128.833 47.7526 128.846 47.7042L126.916 47.18C126.898 47.2468 126.881 47.3129 126.867 47.3697L128.805 47.8622ZM128.785 47.9322L128.785 47.9322L126.887 47.2997L126.887 47.2997L128.785 47.9322ZM128.453 48.8128C128.66 48.458 128.751 48.0768 128.805 47.8623L126.867 47.3697C126.8 47.6336 126.768 47.733 126.727 47.8031L128.453 48.8128ZM127.693 49.6688C127.882 49.5018 128.219 49.2135 128.453 48.8125L126.726 47.8034C126.68 47.8828 126.598 47.9671 126.366 48.1732L127.693 49.6688ZM127.698 49.6643L127.698 49.6643L126.361 48.1777L126.361 48.1777L127.698 49.6643ZM127.465 49.8793C127.527 49.8172 127.597 49.7547 127.693 49.6688L126.366 48.1732C126.277 48.2522 126.161 48.3547 126.049 48.467L127.465 49.8793ZM126.897 51.4499C126.844 50.8842 127.06 50.2853 127.465 49.8793L126.049 48.4671C125.226 49.2918 124.798 50.4749 124.905 51.6343L126.897 51.4499ZM127.004 52.0567C126.951 51.8053 126.913 51.6219 126.897 51.45L124.905 51.6342C124.934 51.9433 124.999 52.2428 125.048 52.473L127.004 52.0567ZM127.042 54.0169C127.281 53.2519 127.097 52.4959 127.004 52.0567L125.048 52.473C125.164 53.019 125.189 53.2422 125.133 53.4213L127.042 54.0169ZM126.78 54.6225C126.848 54.4894 126.964 54.2678 127.042 54.0174L125.133 53.4208C125.114 53.4822 125.08 53.5537 124.999 53.7133L126.78 54.6225ZM126.64 54.9378C126.649 54.8921 126.675 54.8286 126.78 54.6225L124.999 53.7133C124.916 53.876 124.753 54.1803 124.681 54.5376L126.64 54.9378ZM126.996 55.7887C126.84 55.5203 126.742 55.3444 126.682 55.1825C126.628 55.0389 126.633 54.9733 126.64 54.9379L124.681 54.5375C124.479 55.5246 125.022 56.3713 125.265 56.7914L126.996 55.7887ZM127.634 57.7876C127.688 56.9218 127.226 56.1857 126.996 55.7887L125.265 56.7914C125.57 57.3165 125.647 57.5108 125.638 57.6634L127.634 57.7876ZM127.549 58.3202C127.574 58.2067 127.62 58.0059 127.634 57.7882L125.638 57.6628C125.635 57.7022 125.626 57.7536 125.595 57.8926L127.549 58.3202ZM127.511 58.5116C127.518 58.4653 127.529 58.4135 127.549 58.3202L125.595 57.8926C125.578 57.9739 125.55 58.0967 125.532 58.227L127.511 58.5116ZM127.643 59.0932C127.531 58.925 127.483 58.7092 127.511 58.5116L125.532 58.227C125.433 58.9119 125.594 59.6225 125.976 60.1991L127.643 59.0932ZM127.78 59.2758C127.712 59.189 127.673 59.1388 127.643 59.0928L125.977 60.1995C126.058 60.3225 126.147 60.4347 126.206 60.5103L127.78 59.2758ZM128.326 60.3275C128.225 59.8129 127.902 59.4315 127.78 59.2758L126.206 60.5103C126.246 60.5608 126.275 60.5984 126.302 60.6345C126.328 60.6695 126.345 60.6946 126.357 60.7135C126.38 60.7512 126.371 60.7467 126.364 60.7132L128.326 60.3275ZM128.316 61.1899C128.337 61.0468 128.399 60.6982 128.326 60.3275L126.364 60.7132C126.359 60.689 126.362 60.6842 126.36 60.716C126.359 60.7317 126.357 60.7529 126.353 60.7834C126.349 60.8149 126.344 60.8482 126.338 60.8937L128.316 61.1899ZM128.293 61.3666C128.295 61.3281 128.302 61.2825 128.316 61.1899L126.338 60.8937C126.326 60.9723 126.307 61.0979 126.297 61.2305L128.293 61.3666ZM129.736 62.3713C129.366 62.1293 128.933 61.8071 128.61 61.5057C128.446 61.353 128.339 61.2318 128.281 61.1503C128.195 61.0274 128.309 61.1252 128.293 61.367L126.298 61.2301C126.264 61.7131 126.507 62.1045 126.647 62.3028C126.816 62.5425 127.033 62.7701 127.247 62.9688C127.677 63.3704 128.208 63.7616 128.64 64.0446L129.736 62.3713ZM135.227 68.5179C132.98 67.8521 131.138 65.7016 130.13 62.8722L128.246 63.5437C129.375 66.7124 131.574 69.5214 134.659 70.4355L135.227 68.5179ZM134.58 72.6209C135.081 72.2379 135.367 71.6405 135.541 71.1679C135.727 70.6603 135.849 70.1093 135.928 69.6467L133.957 69.3068C133.888 69.7102 133.791 70.1301 133.663 70.4789C133.6 70.6522 133.535 70.7892 133.474 70.8901C133.444 70.9395 133.418 70.9748 133.398 70.9989C133.388 71.0107 133.38 71.019 133.374 71.0244C133.368 71.0299 133.366 71.032 133.366 71.0319L134.58 72.6209ZM132.028 73.6861C132.567 73.5708 133.725 73.2739 134.58 72.6213L133.366 71.0315C132.889 71.3959 132.112 71.6229 131.609 71.7304L132.028 73.6861ZM130.953 73.1955C130.893 73.3208 130.806 73.3651 130.797 73.3695C130.791 73.372 130.797 73.3687 130.816 73.3649C130.835 73.3611 130.861 73.3579 130.893 73.3576C130.962 73.3569 131.027 73.3692 131.072 73.3855C131.094 73.3932 131.102 73.3988 131.101 73.3981C131.1 73.3974 131.083 73.3863 131.059 73.3589L132.578 72.0576C132.118 71.5206 131.402 71.3525 130.874 71.3577C130.374 71.3627 129.524 71.5416 129.146 72.3375L130.953 73.1955ZM127.137 75.6788C127.317 75.1672 127.814 74.7197 128.52 74.3572C129.202 74.0067 129.919 73.8192 130.264 73.7432L129.835 71.7898C129.411 71.8831 128.506 72.1159 127.606 72.5783C126.729 73.0287 125.683 73.7867 125.251 75.0148L127.137 75.6788ZM123.475 84.093C125.038 80.6064 126.732 76.8289 127.137 75.6789L125.251 75.0147C124.882 76.062 123.243 79.7214 121.65 83.2749L123.475 84.093ZM123.48 84.0805L123.48 84.0804L121.644 83.2875L121.644 83.2877L123.48 84.0805ZM120.474 90.943C120.772 90.1237 122.07 87.2262 123.475 84.0932L121.65 83.275C120.272 86.349 118.925 89.35 118.594 90.2582L120.474 90.943ZM118.855 110.581C118.882 109.764 119.133 105.254 119.461 100.709C119.625 98.4396 119.808 96.1718 119.991 94.3602C120.083 93.4535 120.174 92.6697 120.261 92.0606C120.354 91.4158 120.431 91.0601 120.474 90.9427L118.594 90.2585C118.469 90.602 118.37 91.1631 118.282 91.7762C118.188 92.425 118.094 93.2402 118.001 94.1591C117.816 95.9986 117.631 98.2882 117.467 100.565C117.138 105.114 116.885 109.656 116.856 110.514L118.855 110.581ZM117.958 113.709C118.169 113.14 118.382 112.566 118.543 112.055C118.698 111.566 118.839 111.037 118.855 110.581L116.856 110.515C116.851 110.673 116.788 110.975 116.637 111.452C116.492 111.907 116.298 112.432 116.083 113.014L117.958 113.709ZM116.942 117.895C116.956 117.912 116.899 117.856 116.89 117.6C116.881 117.352 116.921 117.014 117.018 116.586C117.212 115.729 117.583 114.722 117.958 113.709L116.083 113.014C115.72 113.993 115.297 115.132 115.067 116.144C114.952 116.652 114.873 117.179 114.891 117.673C114.909 118.159 115.025 118.723 115.411 119.183L116.942 117.895ZM118.481 115.175C118.398 116.406 117.938 117.328 117.496 117.763C117.275 117.981 117.131 118.011 117.098 118.013C117.087 118.014 117.082 118.013 117.07 118.008C117.056 118.001 117.009 117.975 116.942 117.895L115.411 119.183C115.878 119.737 116.512 120.055 117.225 120.009C117.892 119.966 118.464 119.616 118.899 119.189C119.766 118.334 120.369 116.909 120.476 115.308L118.481 115.175ZM120.612 115.196C120.589 115.112 120.564 115.021 120.54 114.945C120.525 114.896 120.483 114.754 120.413 114.626C120.392 114.588 120.351 114.517 120.285 114.44C120.233 114.378 120.079 114.209 119.811 114.127C119.461 114.019 119.117 114.114 118.88 114.306C118.696 114.454 118.614 114.626 118.586 114.69C118.524 114.83 118.505 114.959 118.499 114.999C118.489 115.061 118.484 115.122 118.481 115.175L120.476 115.308C120.478 115.282 120.479 115.281 120.477 115.294C120.476 115.302 120.472 115.322 120.466 115.35C120.46 115.373 120.445 115.43 120.414 115.5C120.391 115.554 120.314 115.719 120.135 115.862C119.903 116.05 119.564 116.144 119.221 116.038C118.958 115.957 118.811 115.793 118.765 115.739C118.705 115.669 118.67 115.608 118.657 115.583C118.615 115.506 118.605 115.456 118.628 115.532C118.643 115.579 118.661 115.643 118.686 115.735L120.612 115.196ZM120.456 116.04C120.748 115.998 120.932 116.151 120.967 116.185C120.99 116.207 120.962 116.186 120.904 116.065C120.792 115.83 120.699 115.507 120.612 115.196L118.686 115.735C118.763 116.01 118.899 116.505 119.098 116.923C119.196 117.129 119.343 117.393 119.564 117.61C119.797 117.839 120.202 118.097 120.739 118.02L120.456 116.04ZM120.572 114.562C120.745 115.354 120.668 115.757 120.597 115.918C120.552 116.021 120.518 116.031 120.457 116.04L120.738 118.02C121.46 117.917 122.098 117.481 122.43 116.718C122.738 116.013 122.744 115.131 122.526 114.134L120.572 114.562ZM120.104 112.609C120.251 113.195 120.412 113.831 120.572 114.562L122.526 114.134C122.358 113.369 122.191 112.705 122.043 112.12L120.104 112.609ZM119.609 110.362C119.715 111.069 119.902 111.808 120.104 112.609L122.043 112.12C121.835 111.294 121.675 110.656 121.586 110.065L119.609 110.362ZM123.516 90.378C123.337 90.8839 122.993 92.325 122.596 94.1167C122.19 95.9465 121.71 98.2318 121.254 100.496C120.799 102.76 120.367 105.009 120.059 106.766C119.905 107.643 119.78 108.405 119.699 108.988C119.659 109.279 119.628 109.535 119.61 109.743C119.595 109.913 119.578 110.158 119.609 110.362L121.586 110.065C121.596 110.129 121.586 110.113 121.603 109.916C121.617 109.756 121.642 109.538 121.68 109.263C121.757 108.715 121.876 107.979 122.028 107.111C122.333 105.377 122.761 103.146 123.215 100.891C123.669 98.6362 124.146 96.364 124.549 94.5496C124.959 92.697 125.273 91.4072 125.401 91.0471L123.516 90.378ZM127.339 82.177C126.495 83.8904 124.045 88.8905 123.516 90.3773L125.401 91.0478C125.879 89.7026 128.252 84.8496 129.133 83.0613L127.339 82.177ZM129.755 84.9695C129.497 83.8334 129.294 82.94 129.226 82.4735L127.247 82.7648C127.33 83.3294 127.557 84.324 127.805 85.4133L129.755 84.9695ZM130.941 91.3767C130.836 89.7046 130.213 86.9823 129.755 84.9695L127.805 85.4133C128.281 87.5036 128.853 90.0315 128.944 91.5011L130.941 91.3767ZM128.677 100.008C129.164 98.619 129.752 96.9466 130.203 95.4126C130.429 94.645 130.626 93.8967 130.759 93.2245C130.89 92.5675 130.975 91.9193 130.941 91.3761L128.945 91.5016C128.962 91.7824 128.919 92.2274 128.798 92.8338C128.68 93.425 128.501 94.1104 128.284 94.8478C127.85 96.3238 127.281 97.9466 126.789 99.3461L128.677 100.008ZM127.601 102.419C127.706 102.588 127.727 102.74 127.733 102.788C127.74 102.85 127.737 102.891 127.737 102.898C127.736 102.913 127.736 102.894 127.751 102.824C127.78 102.691 127.838 102.486 127.926 102.204C128.102 101.646 128.368 100.889 128.677 100.008L126.789 99.3461C126.485 100.214 126.206 101.007 126.019 101.604C125.925 101.9 125.846 102.174 125.797 102.398C125.774 102.507 125.75 102.635 125.741 102.763C125.737 102.827 125.734 102.917 125.746 103.018C125.756 103.106 125.786 103.289 125.905 103.479L127.601 102.419ZM127.635 102.474C127.625 102.458 127.612 102.437 127.6 102.418L125.905 103.48C125.91 103.486 125.916 103.496 125.927 103.515L127.635 102.474ZM128.067 103.067C127.832 102.797 127.704 102.588 127.635 102.474L125.927 103.515C126.019 103.665 126.215 103.986 126.559 104.381L128.067 103.067ZM127.213 113.175C127.649 109.142 128.101 105.474 128.305 103.848L126.321 103.599C126.116 105.23 125.662 108.911 125.225 112.961L127.213 113.175ZM125.5 113.966L126.061 114.055L126.377 112.08L125.816 111.991L125.5 113.966ZM126.692 118.266C126.672 116.83 126.663 115.508 126.66 114.546C126.658 114.064 126.658 113.673 126.658 113.402C126.658 113.266 126.658 113.161 126.658 113.09C126.658 113.054 126.658 113.027 126.658 113.009C126.658 112.999 126.658 112.993 126.658 112.988C126.658 112.986 126.658 112.984 126.658 112.983C126.658 112.982 126.658 112.982 126.658 112.982C126.658 112.982 126.658 112.981 126.658 112.981C126.658 112.981 126.658 112.981 126.658 112.981C126.658 112.981 126.658 112.981 125.658 112.978C124.658 112.975 124.658 112.975 124.658 112.975C124.658 112.975 124.658 112.975 124.658 112.975C124.658 112.975 124.658 112.975 124.658 112.976C124.658 112.976 124.658 112.976 124.658 112.977C124.658 112.978 124.658 112.98 124.658 112.982C124.658 112.987 124.658 112.994 124.658 113.004C124.658 113.022 124.658 113.05 124.658 113.086C124.658 113.158 124.658 113.265 124.658 113.401C124.658 113.674 124.658 114.068 124.66 114.552C124.663 115.52 124.672 116.85 124.693 118.295L126.692 118.266ZM126.281 128.112C126.24 127.976 126.194 127.623 126.178 126.992C126.164 126.394 126.178 125.633 126.217 124.745C126.295 122.97 126.469 120.737 126.688 118.373L124.697 118.189C124.477 120.564 124.299 122.835 124.219 124.657C124.179 125.567 124.163 126.378 124.179 127.041C124.194 127.67 124.239 128.267 124.366 128.687L126.281 128.112ZM126.399 128.348C126.35 128.283 126.31 128.207 126.281 128.112L124.366 128.687C124.462 129.008 124.61 129.298 124.803 129.554L126.399 128.348ZM124.452 142.825C125.105 139.554 126.118 133.76 126.596 129.052L124.606 128.85C124.137 133.468 123.137 139.194 122.491 142.433L124.452 142.825ZM123.686 152.052C123.872 148.354 124.052 144.832 124.452 142.825L122.491 142.434C122.054 144.622 121.87 148.331 121.688 151.951L123.686 152.052ZM122.522 163.218C122.897 162.123 123.125 160.396 123.291 158.48C123.46 156.532 123.574 154.271 123.686 152.052L121.688 151.951C121.576 154.181 121.464 156.402 121.299 158.307C121.13 160.243 120.915 161.738 120.63 162.571L122.522 163.218ZM122.859 172.82C122.46 172.785 122.158 172.579 121.906 172.05C121.633 171.476 121.482 170.617 121.468 169.55C121.439 167.432 121.951 164.89 122.522 163.218L120.63 162.571C120 164.415 119.435 167.187 119.468 169.577C119.484 170.764 119.647 171.957 120.1 172.909C120.574 173.906 121.408 174.7 122.683 174.812L122.859 172.82ZM124.829 164.506C124.742 166.431 124.636 168.711 124.244 170.48C124.046 171.371 123.798 172.025 123.516 172.423C123.265 172.78 123.067 172.838 122.859 172.82L122.683 174.812C123.788 174.91 124.609 174.343 125.15 173.578C125.661 172.854 125.98 171.891 126.197 170.912C126.633 168.941 126.742 166.473 126.827 164.596L124.829 164.506ZM125.005 161.882C124.917 162.534 124.875 163.488 124.829 164.506L126.827 164.596C126.874 163.535 126.914 162.692 126.987 162.151L125.005 161.882ZM127.367 152.281C126.153 155.545 125.389 159.048 125.005 161.882L126.987 162.151C127.355 159.431 128.089 156.077 129.241 152.978L127.367 152.281ZM131.395 137.366C131.232 138.413 130.523 141.342 129.692 144.456C128.862 147.562 127.94 150.741 127.367 152.281L129.241 152.978C129.852 151.337 130.796 148.071 131.624 144.972C132.449 141.882 133.189 138.846 133.371 137.673L131.395 137.366ZM131.695 134.582C131.588 135.741 131.499 136.697 131.395 137.366L133.371 137.674C133.487 136.928 133.582 135.898 133.687 134.766L131.695 134.582ZM131.699 134.55L131.699 134.55L133.683 134.798L133.683 134.798L131.699 134.55ZM131.695 134.59L131.695 134.591L133.688 134.757L133.688 134.757L131.695 134.59ZM131.696 134.574L131.696 134.574L133.686 134.773L133.686 134.773L131.696 134.574ZM132.316 129.203C132.02 131.07 131.842 132.992 131.695 134.581L133.687 134.765C133.835 133.167 134.007 131.309 134.291 129.516L132.316 129.203ZM133.287 128.346C133.229 128.355 133.165 128.368 133.105 128.38L133.501 130.34C133.556 130.329 133.583 130.324 133.593 130.323L133.287 128.346ZM134.082 122.893C133.742 124.517 133.423 126.045 133.148 127.174C133.009 127.742 132.889 128.18 132.79 128.47C132.739 128.62 132.706 128.691 132.696 128.71C132.689 128.722 132.709 128.68 132.762 128.622C132.797 128.583 132.97 128.395 133.289 128.346L133.591 130.323C133.95 130.268 134.167 130.051 134.247 129.961C134.345 129.853 134.412 129.74 134.456 129.66C134.544 129.495 134.619 129.302 134.682 129.118C134.812 128.739 134.95 128.228 135.091 127.647C135.376 126.479 135.703 124.914 136.04 123.302L134.082 122.893ZM137.333 113.74C136.984 113.759 136.738 113.931 136.608 114.047C136.473 114.168 136.375 114.303 136.308 114.41C136.171 114.625 136.056 114.887 135.958 115.147C135.756 115.679 135.55 116.397 135.345 117.201C134.934 118.818 134.494 120.924 134.082 122.893L136.04 123.302C136.454 121.319 136.885 119.261 137.283 117.694C137.484 116.907 137.668 116.278 137.828 115.857C137.91 115.641 137.968 115.525 137.997 115.48C138.012 115.456 137.995 115.49 137.938 115.541C137.886 115.588 137.716 115.723 137.439 115.737L137.333 113.74ZM140.392 123.133C140.065 121.146 139.707 118.975 139.354 117.303C139.179 116.473 138.997 115.728 138.811 115.18C138.72 114.913 138.61 114.638 138.473 114.413C138.405 114.301 138.3 114.152 138.148 114.023C137.993 113.892 137.713 113.72 137.334 113.74L137.439 115.737C137.135 115.753 136.932 115.614 136.855 115.549C136.78 115.485 136.754 115.436 136.766 115.455C136.788 115.491 136.841 115.601 136.917 115.823C137.063 116.254 137.225 116.902 137.397 117.716C137.739 119.334 138.089 121.457 138.419 123.458L140.392 123.133ZM140.62 128.023C141.03 128.023 141.263 128.27 141.313 128.326C141.352 128.369 141.376 128.406 141.387 128.424C141.4 128.444 141.407 128.458 141.408 128.461C141.411 128.466 141.405 128.454 141.392 128.418C141.38 128.384 141.364 128.337 141.346 128.276C141.272 128.021 141.183 127.627 141.08 127.107C140.877 126.074 140.644 124.66 140.392 123.133L138.419 123.458C138.668 124.973 138.907 126.423 139.118 127.493C139.223 128.024 139.326 128.491 139.426 128.836C139.475 129.001 139.535 129.184 139.613 129.342C139.649 129.417 139.715 129.539 139.821 129.657C139.907 129.754 140.175 130.023 140.62 130.023V128.023ZM141.001 128.094C140.991 128.092 140.983 128.09 140.977 128.088C140.97 128.086 140.966 128.085 140.963 128.084C140.961 128.083 140.962 128.084 140.966 128.085C140.969 128.086 140.977 128.089 140.99 128.094L140.249 129.952C140.345 129.99 140.445 130.017 140.518 130.035L141.001 128.094ZM142.407 136.353C142.306 134.178 142.177 131.367 141.745 128.892L139.775 129.237C140.182 131.564 140.307 134.244 140.409 136.445L142.407 136.353ZM142.578 139.143C142.505 138.47 142.46 137.514 142.407 136.353L140.409 136.445C140.461 137.579 140.508 138.61 140.59 139.359L142.578 139.143ZM145.918 154.227C145.416 152.662 144.641 149.444 143.955 146.303C143.267 143.154 142.693 140.196 142.578 139.142L140.59 139.359C140.719 140.539 141.318 143.605 142.001 146.73C142.685 149.864 143.479 153.17 144.013 154.837L145.918 154.227ZM147.836 163.926C147.582 161.076 146.981 157.542 145.917 154.226L144.013 154.837C145.022 157.984 145.601 161.369 145.844 164.103L147.836 163.926ZM147.892 166.554C147.893 165.535 147.894 164.581 147.836 163.926L145.844 164.103C145.892 164.646 145.893 165.49 145.892 166.552L147.892 166.554ZM149.478 174.949C149.268 174.958 149.074 174.891 148.839 174.523C148.576 174.113 148.358 173.448 148.201 172.548C147.891 170.764 147.89 168.481 147.892 166.554L145.892 166.552C145.89 168.431 145.885 170.901 146.231 172.891C146.403 173.878 146.677 174.855 147.155 175.602C147.66 176.391 148.453 176.994 149.562 176.948L149.478 174.949ZM150.255 165.373C150.749 167.07 151.144 169.632 151.018 171.746C150.954 172.811 150.764 173.663 150.465 174.224C150.189 174.741 149.878 174.932 149.478 174.949L149.562 176.948C150.841 176.894 151.71 176.139 152.23 175.165C152.725 174.235 152.944 173.05 153.014 171.865C153.156 169.479 152.72 166.684 152.175 164.814L150.255 165.373ZM149.606 154.168C149.615 156.39 149.625 158.653 149.705 160.605C149.783 162.526 149.931 164.262 150.255 165.373L152.175 164.814C151.929 163.968 151.782 162.465 151.703 160.524C151.625 158.615 151.615 156.391 151.606 154.159L149.606 154.168ZM149.606 154.163V154.163H151.606V154.163H149.606ZM149.263 144.913C149.571 146.937 149.589 150.464 149.606 154.167L151.606 154.159C151.59 150.533 151.576 146.819 151.241 144.612L149.263 144.913ZM147.673 129.09C147.796 134.054 148.691 141.149 149.263 144.913L151.241 144.612C150.671 140.87 149.792 133.875 149.673 129.041L147.673 129.09ZM148.146 128.215C148.144 128.217 148.14 128.219 148.135 128.223L149.211 129.908C149.249 129.884 149.288 129.858 149.325 129.831L148.146 128.215ZM148.418 115.352C148.532 118.59 148.55 121.851 148.447 124.362C148.395 125.621 148.314 126.667 148.204 127.419C148.149 127.798 148.09 128.071 148.036 128.248C148.009 128.337 147.99 128.376 147.987 128.382C147.977 128.401 148.018 128.308 148.147 128.215L149.325 129.831C149.548 129.668 149.679 129.459 149.755 129.317C149.837 129.162 149.898 128.995 149.947 128.837C150.045 128.519 150.121 128.132 150.183 127.708C150.308 126.855 150.392 125.729 150.445 124.444C150.551 121.866 150.532 118.551 150.417 115.282L148.418 115.352ZM149.429 115.043C148.43 115 148.43 115 148.43 115C148.43 115 148.43 115 148.43 115C148.43 115 148.43 115 148.43 115C148.43 115 148.43 115 148.43 115.001C148.43 115.001 148.43 115.002 148.43 115.004C148.43 115.007 148.43 115.011 148.43 115.017C148.429 115.029 148.428 115.046 148.427 115.069C148.425 115.115 148.422 115.183 148.418 115.272L150.416 115.362C150.42 115.273 150.423 115.204 150.425 115.157C150.426 115.134 150.427 115.116 150.428 115.104C150.428 115.098 150.428 115.093 150.428 115.09C150.428 115.089 150.428 115.088 150.428 115.087C150.428 115.086 150.428 115.086 150.428 115.086C150.428 115.086 150.428 115.086 150.428 115.086C150.428 115.086 150.428 115.085 150.428 115.085C150.428 115.085 150.428 115.085 150.428 115.085C150.428 115.085 150.428 115.085 150.428 115.085C150.428 115.085 150.428 115.085 149.429 115.043ZM149.52 116.039L149.542 116.036L149.317 114.049L149.295 114.051L149.52 116.039ZM147.383 103.831C147.854 105.796 148.232 110.323 148.408 115.082L150.407 115.008C150.232 110.274 149.853 105.552 149.328 103.365L147.383 103.831ZM148.859 103.116C148.099 102.467 148.099 102.467 148.099 102.467C148.099 102.467 148.099 102.466 148.099 102.466C148.099 102.466 148.099 102.466 148.1 102.466C148.1 102.466 148.1 102.466 148.1 102.465C148.101 102.465 148.101 102.464 148.101 102.464C148.102 102.463 148.102 102.463 148.103 102.462C148.103 102.461 148.104 102.461 148.103 102.462C148.102 102.463 148.098 102.467 148.092 102.474C148.08 102.487 148.058 102.51 148.026 102.543C147.961 102.608 147.855 102.71 147.706 102.838L149.006 104.358C149.199 104.193 149.344 104.054 149.446 103.952C149.496 103.9 149.536 103.859 149.565 103.827C149.579 103.812 149.591 103.799 149.6 103.788C149.605 103.783 149.608 103.779 149.612 103.775C149.613 103.773 149.615 103.772 149.616 103.77C149.617 103.769 149.617 103.769 149.618 103.768C149.618 103.768 149.618 103.767 149.619 103.767C149.619 103.767 149.619 103.767 149.619 103.767C149.619 103.766 149.619 103.766 149.619 103.766C149.619 103.766 149.619 103.766 148.859 103.116ZM146.324 98.6934C146.709 99.7189 147.066 100.671 147.346 101.48C147.633 102.308 147.813 102.916 147.872 103.278L149.846 102.955C149.756 102.404 149.52 101.646 149.236 100.826C148.946 99.987 148.578 99.0083 148.196 97.9901L146.324 98.6934ZM143.785 89.3323C143.697 89.9042 143.772 90.5857 143.901 91.2593C144.035 91.955 144.248 92.7392 144.501 93.556C145.007 95.1886 145.7 97.0342 146.324 98.6934L148.196 97.9901C147.567 96.3168 146.896 94.5295 146.411 92.964C146.169 92.1818 145.979 91.4757 145.865 90.8817C145.747 90.2656 145.728 89.858 145.762 89.6334L143.785 89.3323ZM143.897 88.6001C143.859 88.85 143.821 89.0954 143.785 89.332L145.762 89.6337C145.797 89.3994 145.835 89.1561 145.874 88.9058L143.897 88.6001ZM144.553 83.3472C144.446 83.2138 144.446 83.117 144.463 83.2074C144.474 83.2687 144.486 83.3785 144.489 83.5478C144.495 83.8841 144.467 84.3436 144.411 84.8973C144.299 86.0001 144.09 87.3527 143.897 88.6001L145.874 88.9058C146.064 87.6735 146.283 86.2645 146.401 85.0987C146.459 84.5181 146.497 83.9666 146.489 83.512C146.484 83.2858 146.469 83.0551 146.43 82.8432C146.396 82.6602 146.322 82.3572 146.114 82.0969L144.553 83.3472ZM144.553 83.3483L144.554 83.3487L146.112 82.0954L146.112 82.095L144.553 83.3483ZM145.826 81.8517L145.825 81.851L144.841 83.5923L144.842 83.593L145.826 81.8517ZM152.301 95.2377C152.149 94.719 151.715 93.6542 151.178 92.4121C150.63 91.1433 149.944 89.6208 149.258 88.1462C148.572 86.6727 147.882 85.2387 147.326 84.149C147.049 83.606 146.799 83.1369 146.596 82.7878C146.496 82.6149 146.398 82.456 146.309 82.3271C146.264 82.2634 146.212 82.1923 146.153 82.1252C146.112 82.0784 145.999 81.9496 145.826 81.852L144.842 83.5927C144.761 83.547 144.708 83.5009 144.688 83.4818C144.663 83.4594 144.649 83.4428 144.645 83.4384C144.638 83.4305 144.645 83.4376 144.667 83.4699C144.711 83.5333 144.777 83.6382 144.866 83.7915C145.042 84.0946 145.273 84.5266 145.544 85.0583C146.085 86.118 146.764 87.5279 147.445 88.9902C148.125 90.4514 148.803 91.9568 149.342 93.2054C149.894 94.4807 150.271 95.4229 150.381 95.7984L152.301 95.2377ZM156.727 112.311C156.754 112.16 156.747 112.02 156.743 111.952C156.737 111.866 156.726 111.774 156.714 111.686C156.688 111.509 156.647 111.292 156.597 111.052C156.496 110.567 156.345 109.931 156.162 109.198C155.794 107.731 155.286 105.838 154.758 103.922C153.702 100.089 152.563 96.1354 152.301 95.2376L150.381 95.7985C150.641 96.6884 151.777 100.632 152.83 104.453C153.356 106.365 153.86 108.24 154.222 109.684C154.403 110.408 154.546 111.014 154.639 111.46C154.686 111.684 154.717 111.854 154.734 111.973C154.743 112.032 154.746 112.066 154.747 112.081C154.749 112.114 154.741 112.052 154.759 111.951L156.727 112.311ZM156.591 112.931C156.646 112.691 156.699 112.462 156.727 112.31L154.759 111.952C154.742 112.047 154.703 112.219 154.642 112.484L156.591 112.931ZM155.778 116.439C156.15 116.508 156.151 116.835 156.102 116.601C156.063 116.411 156.055 116.082 156.098 115.622C156.182 114.723 156.425 113.658 156.591 112.931L154.642 112.484C154.481 113.186 154.205 114.382 154.106 115.436C154.058 115.952 154.042 116.521 154.145 117.01C154.238 117.455 154.53 118.239 155.409 118.404L155.778 116.439ZM157.012 114.814C156.015 114.735 156.015 114.735 156.015 114.735C156.015 114.734 156.015 114.734 156.015 114.734C156.015 114.734 156.015 114.734 156.015 114.734C156.015 114.734 156.015 114.733 156.015 114.734C156.015 114.734 156.015 114.735 156.015 114.736C156.015 114.739 156.014 114.745 156.013 114.752C156.012 114.768 156.009 114.793 156.006 114.826C155.999 114.891 155.987 114.987 155.969 115.103C155.934 115.338 155.877 115.634 155.793 115.912C155.704 116.209 155.609 116.396 155.541 116.48C155.497 116.534 155.598 116.405 155.778 116.438L155.41 118.404C156.187 118.55 156.763 118.15 157.097 117.736C157.407 117.352 157.592 116.873 157.708 116.49C157.829 116.089 157.903 115.691 157.947 115.402C157.969 115.256 157.984 115.133 157.994 115.044C157.999 115 158.002 114.964 158.005 114.939C158.006 114.926 158.007 114.916 158.007 114.908C158.008 114.904 158.008 114.901 158.008 114.898C158.008 114.897 158.008 114.896 158.008 114.895C158.009 114.895 158.009 114.894 158.009 114.894C158.009 114.894 158.009 114.893 158.009 114.893C158.009 114.893 158.009 114.893 157.012 114.814ZM160.025 118.301C159.934 118.419 159.908 118.396 159.971 118.38C160.037 118.362 160.065 118.387 160.012 118.364C159.852 118.292 159.559 118.038 159.207 117.525C158.877 117.046 158.576 116.46 158.354 115.915C158.121 115.341 158.019 114.922 158.01 114.758L156.013 114.869C156.041 115.376 156.248 116.046 156.502 116.669C156.767 117.32 157.132 118.038 157.559 118.658C157.961 119.244 158.513 119.884 159.195 120.189C159.563 120.354 160.011 120.439 160.486 120.312C160.956 120.187 161.327 119.887 161.609 119.521L160.025 118.301ZM158.554 113.773C159.088 114.652 159.666 115.609 159.989 116.511C160.325 117.45 160.265 117.989 160.025 118.3L161.609 119.521C162.505 118.359 162.263 116.929 161.872 115.837C161.468 114.709 160.774 113.574 160.263 112.734L158.554 113.773ZM158.551 113.768L158.551 113.768L160.266 112.739L160.266 112.739L158.551 113.768ZM157.732 112.296C157.91 112.72 158.244 113.263 158.554 113.773L160.263 112.734C159.916 112.163 159.682 111.773 159.575 111.52L157.732 112.296ZM156.564 104.865C156.774 106.554 156.976 108.182 157.163 109.476C157.256 110.122 157.347 110.696 157.435 111.158C157.517 111.588 157.612 112.011 157.732 112.297L159.575 111.52C159.548 111.457 159.485 111.234 159.4 110.784C159.32 110.365 159.234 109.825 159.142 109.19C158.959 107.921 158.759 106.314 158.549 104.618L156.564 104.865ZM156.564 104.865L156.564 104.865L158.549 104.617L158.549 104.617L156.564 104.865ZM155.221 95.8354C155.657 97.5791 156.124 101.322 156.564 104.865L158.549 104.618C158.118 101.151 157.635 97.2445 157.161 95.3495L155.221 95.8354ZM146.661 74.96C146.799 75.1447 147.035 75.5463 147.358 76.179C147.671 76.7926 148.041 77.5708 148.449 78.4679C149.264 80.2611 150.217 82.5018 151.151 84.7945C153.033 89.4111 154.793 94.1293 155.221 95.8354L157.161 95.3495C156.692 93.4795 154.871 88.6241 153.003 84.0398C152.063 81.732 151.099 79.4654 150.27 77.6406C149.856 76.7287 149.472 75.9202 149.139 75.2691C148.816 74.6369 148.513 74.0957 148.26 73.7588L146.661 74.96ZM144.801 73.8325C145.2 73.8663 145.411 73.8919 145.642 74.0023C145.868 74.1104 146.2 74.3469 146.661 74.96L148.26 73.7588C147.673 72.9783 147.108 72.4862 146.504 72.1976C145.905 71.9113 145.352 71.872 144.97 71.8396L144.801 73.8325ZM143.704 73.6527C144.13 73.7783 144.52 73.8086 144.801 73.8325L144.97 71.8396C144.672 71.8144 144.474 71.7948 144.269 71.7343L143.704 73.6527ZM143.145 73.1101C143.077 73.0232 143.042 72.9457 143.026 72.9081C143.009 72.8664 143 72.8351 142.996 72.8218C142.99 72.7967 142.991 72.7918 142.994 72.8207L144.978 72.5663C144.969 72.4942 144.955 72.4052 144.931 72.314C144.914 72.2506 144.864 72.0629 144.723 71.8824L143.145 73.1101ZM143.226 72.7904C143.226 72.7902 143.218 72.817 143.188 72.8545C143.157 72.8932 143.115 72.9288 143.067 72.955C142.973 73.0061 142.912 72.9931 142.931 72.9956C142.95 72.998 142.997 73.0103 143.055 73.0434C143.082 73.0585 143.105 73.0746 143.122 73.0889C143.139 73.1037 143.146 73.1124 143.145 73.1113L144.722 71.8813C144.369 71.4282 143.781 71.0881 143.185 71.0118C142.87 70.9715 142.482 70.9967 142.112 71.1977C141.723 71.4094 141.457 71.7607 141.322 72.1778L143.226 72.7904ZM139.821 72.5802C140.132 72.806 140.561 72.9806 140.908 73.1058C141.284 73.2412 141.685 73.3595 142.01 73.4485L142.539 71.5197C142.239 71.4375 141.893 71.3347 141.586 71.224C141.25 71.1031 141.058 71.0067 140.995 70.9613L139.821 72.5802ZM138.737 69.3988C138.777 69.8373 138.848 70.429 138.971 70.9651C139.031 71.2317 139.111 71.5153 139.221 71.7711C139.317 71.9974 139.494 72.3422 139.82 72.5796L140.996 70.9619C141.117 71.0499 141.116 71.1175 141.06 70.9856C141.016 70.8832 140.968 70.7277 140.921 70.521C140.827 70.1106 140.766 69.6194 140.728 69.2137L138.737 69.3988ZM145.05 61.9871C144.239 64.9771 142.349 67.4394 139.434 68.3519L140.031 70.2606C143.768 69.0909 146.043 65.9669 146.98 62.5106L145.05 61.9871ZM146.638 59.5551C146.666 60.2651 146.221 61.0168 145.556 61.3603L146.474 63.1373C147.795 62.4547 148.697 60.9992 148.636 59.4763L146.638 59.5551ZM146.635 59.4897C146.636 59.5161 146.637 59.5362 146.638 59.5551L148.636 59.4762C148.635 59.445 148.634 59.4144 148.632 59.3899L146.635 59.4897ZM146.636 59.5062L146.636 59.5063L148.631 59.3733L148.631 59.3732L146.636 59.5062ZM146.847 58.3982C146.574 58.8601 146.629 59.375 146.635 59.4897L148.632 59.3897C148.631 59.3659 148.63 59.347 148.63 59.3287C148.629 59.3108 148.628 59.2965 148.628 59.2845C148.628 59.2594 148.629 59.2505 148.628 59.2514C148.628 59.2529 148.622 59.3243 148.569 59.4148L146.847 58.3982ZM147.457 57.7989C147.379 57.8513 147.053 58.0487 146.847 58.3976L148.569 59.4154C148.528 59.4833 148.488 59.5171 148.486 59.5186C148.485 59.5196 148.489 59.5157 148.504 59.5053C148.511 59.5002 148.52 59.4942 148.531 59.4867C148.542 59.479 148.554 59.471 148.569 59.4609L147.457 57.7989ZM147.45 57.8036L147.45 57.8037L148.576 59.4562L148.577 59.4561L147.45 57.8036ZM147.459 57.7977L147.459 57.7978L148.568 59.4619L148.568 59.4618L147.459 57.7977ZM147.526 57.7518C147.51 57.763 147.492 57.7754 147.457 57.7988L148.57 59.4608C148.6 59.4406 148.646 59.4096 148.693 59.3757L147.526 57.7518ZM147.766 55.5144C147.886 56.0335 147.944 56.5521 147.893 56.979C147.843 57.3967 147.705 57.623 147.526 57.7517L148.693 59.3758C149.477 58.8122 149.788 57.9761 149.879 57.2168C149.969 56.4667 149.86 55.6937 149.714 55.0622L147.766 55.5144ZM147.763 55.5041L147.766 55.5147L149.714 55.0618L149.711 55.0512L147.763 55.5041ZM147.69 54.6776C147.645 55.0433 147.734 55.3794 147.763 55.5042L149.711 55.0511C149.702 55.0099 149.695 54.9806 149.689 54.9529C149.683 54.9263 149.68 54.9086 149.679 54.8964C149.675 54.871 149.679 54.8839 149.675 54.9184L147.69 54.6776ZM148.059 53.7416C147.979 53.8745 147.744 54.2309 147.69 54.677L149.675 54.919C149.67 54.961 149.659 54.9755 149.672 54.9481C149.678 54.9347 149.689 54.9153 149.705 54.8862C149.723 54.856 149.742 54.8243 149.769 54.7799L148.059 53.7416ZM148.062 53.7365L148.062 53.7367L149.766 54.7849L149.766 54.7847L148.062 53.7365ZM148.063 53.7364L148.062 53.7365L149.766 54.7847L149.766 54.7846L148.063 53.7364ZM148.063 53.7362L148.063 53.7364L149.766 54.7846L149.766 54.7844L148.063 53.7362ZM148.063 53.7361L148.063 53.7362L149.766 54.7844L149.766 54.7843L148.063 53.7361ZM148.063 53.7359L148.063 53.7361L149.766 54.7843L149.766 54.7841L148.063 53.7359ZM148.063 53.7358L148.063 53.7359L149.766 54.7841L149.766 54.784L148.063 53.7358ZM148.063 53.7356L148.063 53.7358L149.766 54.784L149.766 54.7838L148.063 53.7356ZM148.117 53.6458C148.101 53.673 148.084 53.7016 148.06 53.7406L149.769 54.7788C149.791 54.7428 149.819 54.6965 149.847 54.6485L148.117 53.6458Z" fill="#192E35" mask="url(#path-21-outside-1_4951_28691)"/>
<path d="M135.214 114.507C135.214 114.507 134.873 122.77 133.883 126.522C132.893 130.273 132.729 135.3 132.383 137.519C132.038 139.739 129.487 149.448 128.304 152.629C127.121 155.81 126.372 159.239 125.996 162.016C125.619 164.794 126.117 174.11 122.771 173.815C119.424 173.521 120.374 166.41 121.576 162.894C122.778 159.379 122.545 147.278 123.471 142.629C124.399 137.979 126.055 128.22 125.847 123.844C125.638 119.468 126.669 113 126.669 113L135.214 114.507Z" fill="#FFC596"/>
<path d="M143.655 72.5716C144.998 73.1676 145.893 72.2733 147.46 74.3594C149.027 76.4454 155.295 92.0163 156.191 95.5924C157.086 99.1686 158.056 110.492 158.653 111.908C159.25 113.324 162.309 116.974 160.817 118.911C159.325 120.848 157.086 116.154 157.012 114.814C157.012 114.814 156.787 117.645 155.594 117.421C154.4 117.197 155.594 112.951 155.743 112.131C155.892 111.312 151.863 97.3057 151.341 95.518C150.818 93.7296 145.893 83.0387 145.334 82.7223C144.774 82.4052 142.759 80.9158 142.759 80.9158L142.909 77.4884L143.655 72.5716Z" fill="#FFC596"/>
<path d="M130.279 72.7209C130.279 72.7209 126.922 73.2793 126.194 75.3472C125.466 77.4145 120.206 88.7577 119.534 90.601C118.863 92.4451 117.911 108.873 117.855 110.548C117.799 112.226 115.001 117.142 116.177 118.539C117.352 119.935 119.289 118.075 119.478 115.242C119.534 114.404 119.814 117.142 120.597 117.03C121.381 116.919 121.941 116.137 121.549 114.348C121.157 112.561 120.765 111.331 120.597 110.214C120.43 109.096 123.844 92.4451 124.459 90.7129C125.075 88.9808 128.545 81.9961 128.545 81.9961L130.951 76.4647L130.279 72.7209Z" fill="#FFC596"/>
<path d="M139.813 116.133C139.813 116.133 139.774 124.403 140.591 128.196C141.408 131.988 141.341 137.018 141.584 139.251C141.828 141.484 143.93 151.3 144.965 154.532C146.001 157.763 146.591 161.223 146.84 164.014C147.089 166.806 146.163 176.09 149.52 175.949C152.877 175.807 152.254 168.661 151.215 165.094C150.176 161.526 150.965 149.45 150.252 144.762C149.539 140.075 148.332 130.251 148.742 125.889C149.151 121.527 149.429 115.043 149.429 115.043L139.813 116.133Z" fill="#FFC596"/>
<path d="M127.425 102.838C127.425 102.838 124.483 125.606 125.323 128.4C126.163 131.194 132.712 129.447 133.44 129.335C134.167 129.223 136.323 114.795 137.386 114.739C138.45 114.683 139.995 129.023 140.619 129.023C141.179 129.246 147.281 130.085 148.736 129.023C150.191 127.961 149.419 104.29 147.963 102.559C146.509 100.827 127.201 102.894 127.201 102.894" fill="#192E35"/>
<path d="M131.454 72.7759C131.454 72.7759 133.021 72.5527 133.973 71.8261C134.924 71.0994 135.092 68.2499 135.092 68.2499L139.681 68.5851C139.681 68.5851 139.793 71.3233 140.408 71.7704C141.024 72.2176 142.983 72.664 142.983 72.664C142.983 72.664 141.528 77.3582 141.416 77.5258C141.304 77.6927 139.401 80.5985 139.121 80.7105C138.841 80.8217 134.588 81.2695 134.588 81.2695L131.51 79.6487C131.51 79.6487 130.615 78.0842 130.67 77.8053C130.726 77.5258 131.454 72.7759 131.454 72.7759Z" fill="#FFC596"/>
<path d="M148.982 54.1468C149.717 52.8793 149.347 51.0924 148.168 50.2161C148.642 49.4274 148.288 48.3561 147.613 47.7287C146.937 47.1013 146.021 46.8121 145.137 46.5412C144.398 44.518 141.843 43.3666 139.823 44.146C138.521 42.7035 136.17 42.7636 134.386 43.5486C133.95 43.7404 133.52 43.9705 133.048 44.0316C132.701 44.0765 132.35 44.0277 132 44.0277C130.077 44.0273 128.381 45.5981 127.881 47.4418C127.801 47.7365 127.744 48.0436 127.59 48.3076C127.387 48.6541 127.041 48.8883 126.757 49.1729C126.143 49.7882 125.821 50.6793 125.901 51.5418C125.969 52.2742 126.307 53.016 126.088 53.7188C125.978 54.071 125.734 54.376 125.66 54.7374C125.446 55.7847 126.702 56.6585 126.636 57.7252C126.622 57.9427 126.553 58.153 126.522 58.369C126.458 58.8103 126.563 59.2734 126.81 59.6458C127 59.933 127.279 60.1823 127.345 60.52C127.396 60.7763 127.313 61.0378 127.295 61.2982C127.251 61.9355 129.227 63.3051 129.812 63.5703L145.654 62.4033C146.841 61.9932 147.686 60.7624 147.637 59.5154C147.629 59.3079 147.602 59.0852 147.708 58.9062C147.798 58.7536 147.965 58.6672 148.11 58.5635C149.073 57.8711 149.007 56.4386 148.74 55.288C148.702 55.1267 148.663 54.9619 148.683 54.7977C148.712 54.559 148.861 54.3553 148.982 54.1468Z" fill="#192E35"/>
<path d="M136.897 70C127.779 70 124.635 50 137.998 50C148.844 50 148.844 70 136.897 70Z" fill="#FFC596"/>
<path d="M129.999 73.1112C129.891 72.1565 131.566 72.1613 131.902 72.8323C132.237 73.5026 132.684 75.303 137.274 75.4142C141.863 75.5262 142.031 73.4463 142.255 72.5528C142.478 71.6586 143.542 71.9937 143.934 72.4965C144.241 72.8914 143.529 80.47 145.333 82.7222C145.781 83.2813 145.165 86.913 144.773 89.483C144.382 92.053 148.467 100.714 148.859 103.117C148.859 103.117 145.612 106.916 137.274 106.916C128.936 106.916 127.033 103.396 126.753 102.949C126.474 102.502 130.111 94.1203 129.943 91.439C129.775 88.7571 128.152 83.0017 128.208 82.2751C128.264 81.5485 130.391 76.5754 129.999 73.1112Z" fill="#9685FF"/>
<path d="M134.397 61.7002C133.768 61.7002 133.133 61.4201 132.57 60.8612C132.5 60.7912 132.482 60.6523 132.531 60.5509C132.579 60.4483 132.676 60.423 132.746 60.493C133.762 61.5034 135.041 61.5058 136.004 60.4966C136.073 60.4242 136.17 60.4459 136.22 60.5461C136.27 60.6451 136.255 60.7851 136.186 60.8576C135.65 61.4189 135.026 61.7002 134.397 61.7002Z" fill="#17282F"/>
<path d="M141.888 61.7002C141.26 61.7002 140.624 61.4201 140.062 60.8612C139.992 60.7912 139.974 60.6523 140.023 60.5509C140.071 60.4483 140.168 60.423 140.238 60.493C141.254 61.5034 142.532 61.5058 143.495 60.4966C143.565 60.4242 143.661 60.4459 143.712 60.5461C143.762 60.6451 143.747 60.7851 143.677 60.8576C143.142 61.4189 142.518 61.7002 141.888 61.7002Z" fill="#17282F"/>
<path d="M137.867 64.8174C137.907 64.8174 137.946 64.8037 137.971 64.7782C138.009 64.7366 137.995 64.6803 137.938 64.6519C137.483 64.4278 137.198 64.1473 137.136 63.8614C137.083 63.6172 137.186 63.3729 137.442 63.1346L137.481 63.0988C137.772 62.8277 138.023 62.5937 138.099 62.2188C138.125 62.0891 138.129 61.9471 138.112 61.7846C138.107 61.7347 138.047 61.697 137.979 61.7009C137.91 61.7048 137.858 61.7484 137.863 61.7983C137.879 61.9471 137.875 62.0763 137.851 62.1923C137.786 62.5203 137.564 62.7263 137.284 62.9872L137.245 63.023C136.949 63.2985 136.827 63.5981 136.89 63.8898C136.964 64.23 137.277 64.5457 137.797 64.8017C137.819 64.8125 137.843 64.8174 137.867 64.8174Z" fill="#192E35"/>
<path d="M137.638 67.3013C137.276 67.269 136.917 67.1549 136.545 66.955C136.199 66.7698 135.784 66.5218 135.639 66.2453C135.606 66.1829 135.634 66.1076 135.702 66.0775C135.769 66.0467 135.85 66.0724 135.883 66.1354C136.011 66.3775 136.498 66.6389 136.681 66.7372C137.088 66.9559 137.459 67.0587 137.847 67.0593C138.549 67.0614 139.16 66.8342 139.77 66.3454C139.827 66.3 139.913 66.3057 139.962 66.3579C140.011 66.4107 140.005 66.49 139.949 66.5355C139.286 67.0666 138.618 67.3126 137.846 67.3112C137.777 67.3104 137.707 67.3076 137.638 67.3013Z" fill="#192E35"/>
<path d="M146.097 55.1583C145.228 53.6117 143.927 52.3455 142.468 51.3579C141.856 50.9435 141.209 50.5726 140.511 50.336C139.716 50.066 138.873 49.9765 138.038 49.8955C136.949 49.7898 136.21 49.9058 135.144 50.1586C133.158 50.6296 131.49 52.1215 130.211 53.7359C129.724 54.3499 129.376 55.0322 129.068 55.7554C128.699 56.6207 128.33 57.4684 128.283 58.4095C128.213 59.7696 127.829 60.3713 128.654 62.3823L128.893 62.9468C129.353 62.1885 129.497 61.3998 129.068 60.6246C129.574 60.5353 129.741 59.7322 129.809 59.2146C129.878 58.697 130.098 58.3422 129.85 57.885C129.801 57.7947 129.748 57.7 129.75 57.5969C129.755 57.435 129.891 57.3139 130.006 57.202C130.6 56.6251 130.873 55.7269 130.7 54.9114C131.56 54.8689 132.408 54.6048 133.144 54.1509C133.73 54.4809 134.484 54.4812 135.071 54.152C135.659 53.8225 136.061 53.1742 136.099 52.4941C136.503 52.8119 137.061 52.865 137.561 52.7552C138.061 52.6456 138.517 52.3921 138.965 52.1415C139.206 53.1397 140.27 53.8534 141.269 53.6867C141.404 53.6642 141.557 53.6318 141.666 53.7165C141.778 53.8044 141.783 53.9711 141.796 54.1149C141.882 55.0251 142.853 55.7375 143.731 55.535C143.399 56.2309 143.933 57.1844 144.692 57.2486C144.847 57.2618 145.047 57.2713 145.097 57.4214C145.116 57.4786 145.106 57.541 145.094 57.6006C145.01 58.0551 144.942 58.5398 145.114 58.9678C145.286 59.396 145.787 59.721 146.203 59.5334C146.084 59.8347 146.005 60.1842 146.142 60.4774C146.279 60.7705 146.713 60.9204 146.929 60.681C147.021 60.5792 147.46 60.4809 147.483 60.345C147.54 58.6102 146.967 56.7048 146.097 55.1583Z" fill="#192E35"/>
</svg>
