<svg width="276" height="187" viewBox="0 0 276 187" fill="none" xmlns="http://www.w3.org/2000/svg">
<path d="M262.954 187L115.081 186.949L40.7725 186.923L36.6355 186.92L21.7068 186.918C21.7068 186.918 0.381795 169.582 0.0123887 145.075C-0.715534 96.7846 30.893 118.536 26.5988 60.3361C22.6804 7.22905 125.059 -21.4082 180.65 19.165C200.861 33.9162 202.446 44.2624 231.489 40.9913C264.273 37.2992 268.009 77.1426 256.535 99.2292C240.253 130.567 301.681 125.419 262.954 187Z" fill="#F7F0FF"/>
<mask id="mask0_4951_28719" style="mask-type:alpha" maskUnits="userSpaceOnUse" x="0" y="0" width="276" height="187">
<path d="M262.954 187L115.081 186.949L40.7725 186.923L36.6355 186.92L21.7068 186.918C21.7068 186.918 0.381795 169.582 0.0123887 145.075C-0.715534 96.7846 30.893 118.536 26.5988 60.3361C22.6804 7.22905 125.059 -21.4082 180.65 19.165C200.861 33.9162 202.446 44.2624 231.489 40.9913C264.273 37.2992 268.009 77.1426 256.535 99.2292C240.253 130.567 301.681 125.419 262.954 187Z" fill="#CEF7F3"/>
</mask>
<g mask="url(#mask0_4951_28719)">
<path d="M69 104.125C45.3383 99.566 7.96149 113.156 7.96149 113.156H-5.30774V187H279.185V154.062C279.185 154.062 234.394 131.689 203.285 128.562C172.536 125.471 154.7 145.672 124.731 138.125C100.013 131.899 94.029 108.947 69 104.125Z" fill="#F1E6FF"/>
</g>
<path fill-rule="evenodd" clip-rule="evenodd" d="M65.8298 181.779V109.912L62.417 109.912C62.4145 109.912 62.4121 109.912 62.4096 109.912C60.3187 109.908 58.6249 108.189 58.6249 106.069V72.249C58.6249 70.4863 59.7959 69.0007 61.3925 68.5478V13.0643C61.3925 10.6234 63.3449 8.64467 65.7533 8.64467H208.335C210.744 8.64467 212.696 10.6234 212.696 13.0643V68.4075C214.738 68.4681 216.375 70.1648 216.375 72.249V106.069C216.375 108.189 214.681 109.908 212.59 109.912C212.588 109.912 212.585 109.912 212.583 109.912L208.412 109.912V181.779L205.831 181.779V182.355H69.6951V181.779L65.8298 181.779ZM65.0702 186.424L61.2049 186.424V114.47C57.1021 113.875 54 110.308 54 106.069V72.249C54 69.7618 55.063 67.5144 56.7676 65.9575V13.0643C56.7676 8.09826 60.751 4 65.7533 4H208.335C213.338 4 217.321 8.09825 217.321 13.0643V65.2316C219.55 66.7661 221 69.3499 221 72.249V106.069C221 110.566 217.51 114.306 213.037 114.545V186.424L210.455 186.424V187H65.0702V186.424Z" fill="#192E35"/>
<rect x="64.5808" y="110.064" width="144.941" height="72.6314" fill="white"/>
<path d="M57.2567 72.0012C57.2567 69.8561 58.9825 68.1172 61.1115 68.1172H213.762C215.891 68.1172 217.617 69.8561 217.617 72.0012V106.181C217.617 108.326 215.891 110.065 213.762 110.065H61.1115C58.9825 110.065 57.2567 108.326 57.2567 106.181V72.0012Z" fill="white"/>
<path d="M60.6483 12.1877C60.6483 10.0427 62.3741 8.30371 64.5031 8.30371H209.444C211.573 8.30371 213.299 10.0427 213.299 12.1877V84.8191C213.299 86.9642 211.573 88.7032 209.444 88.7032H64.5031C62.3741 88.7032 60.6483 86.9642 60.6483 84.8191V12.1877Z" fill="#ADB5BD"/>
<path fill-rule="evenodd" clip-rule="evenodd" d="M64.503 7.7207H209.444C211.892 7.7207 213.877 9.72049 213.877 12.1873V84.8188C213.877 87.2856 211.892 89.2854 209.444 89.2854H64.503C62.0547 89.2854 60.0699 87.2856 60.0699 84.8188V12.1873C60.0699 9.72049 62.0547 7.7207 64.503 7.7207ZM64.503 8.30331C62.374 8.30331 60.6482 10.0423 60.6482 12.1873V84.8188C60.6482 86.9638 62.374 88.7028 64.503 88.7028H209.444C211.573 88.7028 213.299 86.9638 213.299 84.8188V12.1873C213.299 10.0422 211.573 8.30331 209.444 8.30331H64.503Z" fill="#192E35"/>
<path d="M60.6483 16.0715C60.6483 13.9264 62.3741 12.1875 64.5031 12.1875H209.444C211.573 12.1875 213.299 13.9264 213.299 16.0715V84.8189C213.299 86.964 211.573 88.7029 209.444 88.7029H64.5031C62.3741 88.7029 60.6483 86.964 60.6483 84.8189V16.0715Z" fill="#CED4DA"/>
<path d="M72.172 39.3762C72.172 37.2311 73.8979 35.4922 76.0268 35.4922H199.381C201.51 35.4922 203.236 37.2311 203.236 39.3762V162.5C203.236 164.645 201.51 166.384 199.381 166.384H76.0268C73.8979 166.384 72.172 164.645 72.172 162.5V39.3762Z" fill="#F8F9FA"/>
<path fill-rule="evenodd" clip-rule="evenodd" d="M76.0269 34.9092H199.381C201.829 34.9092 203.814 36.909 203.814 39.3758V162.5C203.814 164.967 201.829 166.966 199.381 166.966H76.0269C73.5786 166.966 71.5939 164.967 71.5939 162.5V39.3758C71.5939 36.909 73.5786 34.9092 76.0269 34.9092ZM76.0269 35.4918C73.898 35.4918 72.1721 37.2307 72.1721 39.3758V162.5C72.1721 164.645 73.898 166.384 76.0269 166.384H199.381C201.51 166.384 203.236 164.645 203.236 162.5V39.3758C203.236 37.2307 201.51 35.4918 199.381 35.4918H76.0269Z" fill="#192E35"/>
<path d="M69.0883 68.8948C69.0883 66.7497 70.8141 65.0107 72.9431 65.0107H202.465C204.594 65.0107 206.32 66.7497 206.32 68.8948V182.697H69.0883V68.8948Z" fill="#B9F1FD"/>
<path fill-rule="evenodd" clip-rule="evenodd" d="M206.898 183.279H68.51V68.8944C68.51 66.4275 70.4947 64.4277 72.943 64.4277H202.465C204.913 64.4277 206.898 66.4275 206.898 68.8944V183.279ZM72.943 65.0103C70.8141 65.0103 69.0882 66.7493 69.0882 68.8944V182.697H206.32V68.8944C206.32 66.7493 204.594 65.0103 202.465 65.0103H72.943Z" fill="#192E35"/>
<path fill-rule="evenodd" clip-rule="evenodd" d="M111.536 100.093C100.107 99.2468 91.3606 100.429 87.3189 100.88L85.6639 100.972C89.5472 100.238 100.165 99.0069 111.927 99.8781C117.721 100.307 121.696 100.575 124.31 100.735C126.952 100.898 128.157 100.947 128.452 100.947L127.669 101.132C127.246 101.132 125.572 101.107 122.968 100.947C120.336 100.785 117.144 100.433 111.536 100.093Z" fill="#243D42"/>
<path fill-rule="evenodd" clip-rule="evenodd" d="M129.994 134.662C125.567 133.815 122.179 134.997 120.613 135.448L119.972 135.54C121.476 134.807 125.589 133.575 130.146 134.446C132.39 134.876 133.93 135.143 134.943 135.304C135.966 135.466 136.433 135.515 136.548 135.515L136.244 135.7C136.08 135.7 135.432 135.675 134.423 135.515C133.403 135.354 132.167 135.002 129.994 134.662Z" fill="#00895F"/>
<path fill-rule="evenodd" clip-rule="evenodd" d="M182.455 157.189C171.541 156.342 163.189 157.524 159.329 157.976L157.749 158.068C161.457 157.334 171.596 156.103 182.829 156.974C188.362 157.403 192.158 157.671 194.655 157.831C197.177 157.993 198.328 158.043 198.61 158.043L197.862 158.227C197.458 158.227 195.86 158.203 193.373 158.043C190.859 157.881 187.811 157.529 182.455 157.189Z" fill="#243D42"/>
<path fill-rule="evenodd" clip-rule="evenodd" d="M101.119 169.229C90.2049 168.383 81.8525 169.564 77.9929 170.016L76.4124 170.108C80.1208 169.374 90.2598 168.143 101.493 169.014C107.025 169.443 110.822 169.711 113.318 169.871C115.841 170.033 116.992 170.083 117.273 170.083L116.525 170.267C116.121 170.267 114.523 170.243 112.036 170.083C109.523 169.921 106.475 169.569 101.119 169.229Z" fill="#243D42"/>
<path fill-rule="evenodd" clip-rule="evenodd" d="M171.178 106.696C157.072 105.849 146.277 107.031 141.289 107.482L139.246 107.575C144.039 106.841 157.143 105.609 171.661 106.481C178.812 106.91 183.718 107.178 186.945 107.338C190.205 107.5 191.693 107.55 192.057 107.55L191.09 107.734C190.568 107.734 188.502 107.709 185.288 107.55C182.039 107.388 178.1 107.036 171.178 106.696Z" fill="#243D42"/>
<path d="M115.181 43.9364L115.181 43.9364C115.546 43.7041 116.477 43.3169 117.764 42.8745C119.075 42.4244 120.806 41.8999 122.813 41.4007C126.825 40.4029 131.96 39.5 137.051 39.5C143.041 39.5 148.63 40.5997 152.793 41.8397C154.875 42.4598 156.608 43.1172 157.863 43.6946C158.489 43.9828 159.005 44.255 159.388 44.4969C159.58 44.6176 159.746 44.736 159.88 44.8502C160.004 44.9563 160.139 45.0913 160.219 45.2518C160.291 45.3959 160.326 45.5617 160.345 45.7106C160.365 45.8676 160.374 46.0468 160.374 46.2397C160.375 46.6258 160.343 47.1042 160.289 47.6421C160.18 48.7196 159.979 50.0801 159.748 51.5066C159.579 52.5495 159.394 53.626 159.217 54.6592C158.907 56.4719 158.619 58.1515 158.478 59.2834L158.478 59.2835C158.372 60.1249 158.403 61.2212 158.494 62.4464C158.55 63.2047 158.627 63.9897 158.704 64.7798C158.752 65.2681 158.8 65.7584 158.843 66.2455C158.955 67.5039 159.035 68.7286 158.984 69.7443C158.959 70.2527 158.9 70.7269 158.788 71.1363C158.677 71.5414 158.504 71.9223 158.223 72.2034C157.754 72.6709 157.037 73.0653 156.055 73.4016C155.067 73.74 153.775 74.0321 152.121 74.272C148.812 74.752 144 75.0315 137.163 75.0315C130.31 75.0315 125.254 74.415 121.742 73.4779C119.986 73.0093 118.601 72.4569 117.566 71.8512C116.537 71.2488 115.817 70.5722 115.449 69.8379C115.093 69.1259 114.936 68.1306 114.888 67.0326C114.839 65.9203 114.901 64.6419 115.021 63.3248C115.242 60.8941 115.667 58.2863 115.995 56.2781C116.022 56.1105 116.049 55.9471 116.075 55.7883L115.181 43.9364ZM115.181 43.9364C114.842 44.1516 114.72 44.5217 114.676 44.8394M115.181 43.9364L114.676 44.8394M114.676 44.8394C114.63 45.1677 114.651 45.5569 114.703 45.9679M114.676 44.8394L114.703 45.9679M114.703 45.9679C114.799 46.7322 115.02 47.6973 115.256 48.7259M114.703 45.9679L115.256 48.7259M115.256 48.7259C115.274 48.8062 115.293 48.8869 115.311 48.9678M115.256 48.7259L115.311 48.9678M115.311 48.9678C115.835 51.2581 116.392 53.8367 116.075 55.7883L115.311 48.9678Z" fill="#708BA6" stroke="#192E35"/>
<mask id="path-20-outside-1_4951_28719" maskUnits="userSpaceOnUse" x="114.151" y="49" width="46" height="127" fill="black">
<rect fill="white" x="114.151" y="49" width="46" height="127"/>
<path fill-rule="evenodd" clip-rule="evenodd" d="M152.795 62.4636C153.602 61.0464 152.194 59.0484 150.9 58.0686C151.42 57.1868 151.032 55.989 150.29 55.2875C149.549 54.586 148.543 54.2626 147.572 53.9598C147.144 52.7652 147.434 52.5646 147.689 52.3883C147.916 52.2307 148.116 52.0926 147.75 51.2816C146.32 49.6689 140.735 49.7361 138.777 50.6138C138.692 50.652 138.607 50.6915 138.522 50.7312C138.129 50.9139 137.734 51.0976 137.308 51.1537C137.058 51.1868 136.806 51.1745 136.553 51.1622C136.421 51.1558 136.29 51.1494 136.158 51.1494C134.048 51.149 132.186 52.9052 131.637 54.9667C131.62 55.0311 131.604 55.0961 131.587 55.1611C131.521 55.4286 131.454 55.6973 131.317 55.9348C131.163 56.2034 130.933 56.4117 130.702 56.6203L130.702 56.6203C130.6 56.7125 130.498 56.8047 130.403 56.9022C129.729 57.5902 129.376 58.5865 129.464 59.5509C129.476 59.6835 129.496 59.8164 129.519 59.9493L128.291 62.2693C127.994 63.1112 128.302 64.3312 128.635 65.6517C128.77 66.1872 128.91 66.7392 129.015 67.2892C127.847 68.7005 125.888 71.0935 123.955 73.5663C123.64 73.2625 123.101 72.0241 122.631 70.9454C122.495 70.6327 122.365 70.3334 122.247 70.0742C121.625 68.698 119.727 68.4248 118.441 70.568C117.41 72.2864 119.408 75.3335 120.609 77.164C120.712 77.3216 120.809 77.4702 120.899 77.6082C119.732 79.2217 118.807 80.6245 118.411 81.4981C116.987 84.6371 121.769 88.2655 126.335 90.202C128.49 94.8273 130.994 99.3391 133.147 100.733C133.532 100.983 134.073 101.048 134.733 100.967C134.998 101.635 135.281 102.058 135.556 102.468C136.043 103.195 136.503 103.881 136.78 105.818C137.28 109.337 140.568 120.626 141.962 122.562C139.334 123.503 134.31 125.39 133.371 126.378C133.016 126.753 133.18 127.548 133.641 128.51C132.949 128.828 132.213 129.165 131.449 129.515L131.449 129.515C125.207 132.371 117.054 136.102 115.486 137.634C113.765 139.315 119.039 150.871 122.711 158.345C123.299 160.6 123.796 162.395 124.05 163.315C124.128 163.595 124.183 163.794 124.211 163.9C124.526 165.077 122.207 167.242 120.144 169.168C118.392 170.804 116.825 172.267 117.213 172.806C117.669 173.437 120.107 172.44 122.721 171.122C121.471 172.92 120.443 174.471 120.901 174.891C121.951 175.855 128.298 170.177 130.951 167.802L130.951 167.802L131.119 167.652C132.935 166.03 131.128 163.043 130.095 162.237C129.692 161.923 129.026 159.34 128.349 156.196C128.328 151.205 128.569 144.863 128.667 143.75C128.767 142.625 134.902 141.808 140.008 141.129C140.86 141.015 141.683 140.906 142.445 140.799C142.94 141.575 143.359 142.038 143.616 141.998C150.36 140.94 159.154 131.511 158.137 124.196C157.64 120.618 155.962 117.95 155.057 116.731C155.112 116.65 155.164 116.568 155.213 116.486C155.213 116.486 152.357 106.989 152.357 100.744C152.357 94.5 153.915 90.4662 153.915 90.4662L153.839 89.722C156.269 87.6797 155.219 84.058 152.695 83.2244C152.19 82.6417 151.326 81.9828 150.01 82.0003C150.131 81.6518 150.205 81.4369 150.205 81.4369L145.698 72H144.78L148.141 71.6952C149.443 71.2367 150.371 69.8604 150.317 68.4662L150.315 68.4228L150.313 68.3812V68.3812C150.303 68.1746 150.293 67.9609 150.395 67.7851C150.472 67.6516 150.601 67.5634 150.73 67.4758C150.766 67.4514 150.801 67.4271 150.836 67.4018C151.893 66.6278 152.822 65.0261 152.529 63.7395L152.526 63.7277C152.486 63.5511 152.445 63.3709 152.466 63.1913C152.492 62.9731 152.607 62.7809 152.72 62.5906C152.746 62.5483 152.771 62.5061 152.795 62.4636ZM129.807 74.2217C128.911 75.2501 127.577 76.8096 126.39 78.3104C126.629 79.1718 127.831 81.6878 129.327 84.4002C131.057 84.739 132.964 84.9144 134.71 84.6681C137.974 84.2074 139.925 83.206 140.702 82.5455C140.408 80.3492 139.523 77.6871 139.192 76.7405C138.098 77.3169 136.765 77.7418 135.156 77.9416C131.276 78.4239 130.239 75.807 129.807 74.2217ZM135.481 92.9373C135.626 92.5872 135.767 92.2682 135.894 91.9909C135.375 91.9802 134.824 91.9594 134.254 91.9243C134.719 92.4349 135.137 92.7915 135.481 92.9373Z"/>
</mask>
<path fill-rule="evenodd" clip-rule="evenodd" d="M152.795 62.4636C153.602 61.0464 152.194 59.0484 150.9 58.0686C151.42 57.1868 151.032 55.989 150.29 55.2875C149.549 54.586 148.543 54.2626 147.572 53.9598C147.144 52.7652 147.434 52.5646 147.689 52.3883C147.916 52.2307 148.116 52.0926 147.75 51.2816C146.32 49.6689 140.735 49.7361 138.777 50.6138C138.692 50.652 138.607 50.6915 138.522 50.7312C138.129 50.9139 137.734 51.0976 137.308 51.1537C137.058 51.1868 136.806 51.1745 136.553 51.1622C136.421 51.1558 136.29 51.1494 136.158 51.1494C134.048 51.149 132.186 52.9052 131.637 54.9667C131.62 55.0311 131.604 55.0961 131.587 55.1611C131.521 55.4286 131.454 55.6973 131.317 55.9348C131.163 56.2034 130.933 56.4117 130.702 56.6203L130.702 56.6203C130.6 56.7125 130.498 56.8047 130.403 56.9022C129.729 57.5902 129.376 58.5865 129.464 59.5509C129.476 59.6835 129.496 59.8164 129.519 59.9493L128.291 62.2693C127.994 63.1112 128.302 64.3312 128.635 65.6517C128.77 66.1872 128.91 66.7392 129.015 67.2892C127.847 68.7005 125.888 71.0935 123.955 73.5663C123.64 73.2625 123.101 72.0241 122.631 70.9454C122.495 70.6327 122.365 70.3334 122.247 70.0742C121.625 68.698 119.727 68.4248 118.441 70.568C117.41 72.2864 119.408 75.3335 120.609 77.164C120.712 77.3216 120.809 77.4702 120.899 77.6082C119.732 79.2217 118.807 80.6245 118.411 81.4981C116.987 84.6371 121.769 88.2655 126.335 90.202C128.49 94.8273 130.994 99.3391 133.147 100.733C133.532 100.983 134.073 101.048 134.733 100.967C134.998 101.635 135.281 102.058 135.556 102.468C136.043 103.195 136.503 103.881 136.78 105.818C137.28 109.337 140.568 120.626 141.962 122.562C139.334 123.503 134.31 125.39 133.371 126.378C133.016 126.753 133.18 127.548 133.641 128.51C132.949 128.828 132.213 129.165 131.449 129.515L131.449 129.515C125.207 132.371 117.054 136.102 115.486 137.634C113.765 139.315 119.039 150.871 122.711 158.345C123.299 160.6 123.796 162.395 124.05 163.315C124.128 163.595 124.183 163.794 124.211 163.9C124.526 165.077 122.207 167.242 120.144 169.168C118.392 170.804 116.825 172.267 117.213 172.806C117.669 173.437 120.107 172.44 122.721 171.122C121.471 172.92 120.443 174.471 120.901 174.891C121.951 175.855 128.298 170.177 130.951 167.802L130.951 167.802L131.119 167.652C132.935 166.03 131.128 163.043 130.095 162.237C129.692 161.923 129.026 159.34 128.349 156.196C128.328 151.205 128.569 144.863 128.667 143.75C128.767 142.625 134.902 141.808 140.008 141.129C140.86 141.015 141.683 140.906 142.445 140.799C142.94 141.575 143.359 142.038 143.616 141.998C150.36 140.94 159.154 131.511 158.137 124.196C157.64 120.618 155.962 117.95 155.057 116.731C155.112 116.65 155.164 116.568 155.213 116.486C155.213 116.486 152.357 106.989 152.357 100.744C152.357 94.5 153.915 90.4662 153.915 90.4662L153.839 89.722C156.269 87.6797 155.219 84.058 152.695 83.2244C152.19 82.6417 151.326 81.9828 150.01 82.0003C150.131 81.6518 150.205 81.4369 150.205 81.4369L145.698 72H144.78L148.141 71.6952C149.443 71.2367 150.371 69.8604 150.317 68.4662L150.315 68.4228L150.313 68.3812V68.3812C150.303 68.1746 150.293 67.9609 150.395 67.7851C150.472 67.6516 150.601 67.5634 150.73 67.4758C150.766 67.4514 150.801 67.4271 150.836 67.4018C151.893 66.6278 152.822 65.0261 152.529 63.7395L152.526 63.7277C152.486 63.5511 152.445 63.3709 152.466 63.1913C152.492 62.9731 152.607 62.7809 152.72 62.5906C152.746 62.5483 152.771 62.5061 152.795 62.4636ZM129.807 74.2217C128.911 75.2501 127.577 76.8096 126.39 78.3104C126.629 79.1718 127.831 81.6878 129.327 84.4002C131.057 84.739 132.964 84.9144 134.71 84.6681C137.974 84.2074 139.925 83.206 140.702 82.5455C140.408 80.3492 139.523 77.6871 139.192 76.7405C138.098 77.3169 136.765 77.7418 135.156 77.9416C131.276 78.4239 130.239 75.807 129.807 74.2217ZM135.481 92.9373C135.626 92.5872 135.767 92.2682 135.894 91.9909C135.375 91.9802 134.824 91.9594 134.254 91.9243C134.719 92.4349 135.137 92.7915 135.481 92.9373Z" fill="#192E35"/>
<path d="M150.9 58.0686L150.038 57.5603L149.585 58.328L150.296 58.866L150.9 58.0686ZM152.795 62.4636L151.926 61.9689L151.926 61.969L152.795 62.4636ZM150.29 55.2875L149.603 56.0139L149.603 56.014L150.29 55.2875ZM147.572 53.9598L146.631 54.2973L146.799 54.766L147.275 54.9144L147.572 53.9598ZM147.689 52.3883L148.258 53.2105L148.258 53.2105L147.689 52.3883ZM147.75 51.2816L148.661 50.8704L148.599 50.732L148.498 50.6183L147.75 51.2816ZM138.777 50.6138L138.368 49.7013L138.368 49.7013L138.777 50.6138ZM138.522 50.7312L138.944 51.6378V51.6378L138.522 50.7312ZM137.308 51.1537L137.177 50.1623L137.177 50.1624L137.308 51.1537ZM136.553 51.1622L136.504 52.161L136.553 51.1622ZM136.158 51.1494L136.158 52.1494H136.158V51.1494ZM131.637 54.9667L132.603 55.2243L132.603 55.224L131.637 54.9667ZM131.587 55.1611L132.558 55.4031L132.558 55.4031L131.587 55.1611ZM131.317 55.9348L130.45 55.4369L130.45 55.4372L131.317 55.9348ZM130.702 56.6203L131.327 57.4011L131.351 57.3822L131.373 57.3619L130.702 56.6203ZM130.702 56.6203L130.078 55.8394L130.054 55.8583L130.032 55.8786L130.702 56.6203ZM130.403 56.9022L129.688 56.2026L129.688 56.2027L130.403 56.9022ZM129.464 59.5509L130.46 59.4605L130.46 59.4604L129.464 59.5509ZM129.519 59.9493L130.403 60.4172L130.564 60.1126L130.504 59.7734L129.519 59.9493ZM128.291 62.2693L127.407 61.8014L127.372 61.8669L127.348 61.9367L128.291 62.2693ZM128.635 65.6517L129.605 65.4069V65.4069L128.635 65.6517ZM129.015 67.2892L129.785 67.9267L130.085 67.5641L129.997 67.1019L129.015 67.2892ZM123.955 73.5663L123.261 74.286L124.06 75.0566L124.743 74.1821L123.955 73.5663ZM122.631 70.9454L121.714 71.3448L122.631 70.9454ZM122.247 70.0742L121.336 70.4861L121.336 70.4866L122.247 70.0742ZM118.441 70.568L117.584 70.0534L117.584 70.0535L118.441 70.568ZM120.609 77.164L119.772 77.7124L120.609 77.164ZM120.899 77.6082L121.709 78.194L122.109 77.64L121.739 77.0657L120.899 77.6082ZM118.411 81.4981L119.322 81.9111L119.322 81.9109L118.411 81.4981ZM126.335 90.202L127.241 89.7796L127.079 89.4314L126.725 89.2814L126.335 90.202ZM133.147 100.733L132.603 101.573L132.603 101.573L133.147 100.733ZM134.733 100.967L135.663 100.599L135.379 99.8806L134.612 99.9746L134.733 100.967ZM135.556 102.468L136.387 101.911L135.556 102.468ZM136.78 105.818L137.77 105.678L137.769 105.677L136.78 105.818ZM141.962 122.562L142.299 123.504L143.549 123.056L142.774 121.978L141.962 122.562ZM133.371 126.378L132.646 125.689L132.646 125.69L133.371 126.378ZM133.641 128.51L134.059 129.418L134.982 128.994L134.543 128.078L133.641 128.51ZM131.449 129.515L131.033 128.605L131.023 128.61L131.449 129.515ZM131.449 129.515L131.865 130.424L131.874 130.419L131.449 129.515ZM115.486 137.634L116.185 138.35L116.185 138.349L115.486 137.634ZM122.711 158.345L123.679 158.092L123.653 157.994L123.609 157.904L122.711 158.345ZM124.05 163.315L125.014 163.049H125.014L124.05 163.315ZM124.211 163.9L123.245 164.158L123.245 164.158L124.211 163.9ZM120.144 169.168L120.827 169.899H120.827L120.144 169.168ZM117.213 172.806L116.403 173.391L116.403 173.391L117.213 172.806ZM122.721 171.122L123.542 171.693L122.271 170.229L122.721 171.122ZM120.901 174.891L121.577 174.154L121.577 174.154L120.901 174.891ZM130.951 167.802L131.618 168.548L131.677 168.495L131.728 168.433L130.951 167.802ZM130.951 167.802L130.285 167.057L130.226 167.11L130.175 167.172L130.951 167.802ZM131.119 167.652L130.453 166.906L130.453 166.907L131.119 167.652ZM130.095 162.237L130.71 161.449L130.71 161.449L130.095 162.237ZM128.349 156.196L127.349 156.201L127.349 156.305L127.371 156.407L128.349 156.196ZM128.667 143.75L127.671 143.662L127.671 143.662L128.667 143.75ZM140.008 141.129L139.876 140.137H139.876L140.008 141.129ZM142.445 140.799L143.288 140.261L142.943 139.72L142.307 139.809L142.445 140.799ZM143.616 141.998L143.77 142.986L143.771 142.986L143.616 141.998ZM158.137 124.196L157.147 124.334L157.147 124.334L158.137 124.196ZM155.057 116.731L154.229 116.171L153.831 116.759L154.254 117.328L155.057 116.731ZM155.213 116.486L156.071 117L156.298 116.621L156.171 116.198L155.213 116.486ZM153.915 90.4662L154.848 90.8265L154.934 90.6031L154.91 90.3649L153.915 90.4662ZM153.839 89.722L153.196 88.9565L152.791 89.297L152.845 89.8234L153.839 89.722ZM152.695 83.2244L151.939 83.8793L152.119 84.0875L152.381 84.174L152.695 83.2244ZM150.01 82.0003L149.065 81.6715L148.596 83.0192L150.023 83.0003L150.01 82.0003ZM150.205 81.4369L151.15 81.7642L151.285 81.3763L151.108 81.0059L150.205 81.4369ZM145.698 72L146.601 71.569L146.329 71H145.698V72ZM144.78 72L144.69 71.0041L144.78 73V72ZM148.141 71.6952L148.231 72.6911L148.355 72.6798L148.473 72.6385L148.141 71.6952ZM150.317 68.4662L151.317 68.4275L151.316 68.423L150.317 68.4662ZM150.315 68.4228L151.315 68.3797L151.314 68.3746L150.315 68.4228ZM150.313 68.3812H149.313V68.4053L149.315 68.4295L150.313 68.3812ZM150.313 68.3812H151.313V68.3567L151.312 68.3322L150.313 68.3812ZM150.395 67.7851L149.53 67.2831L149.529 67.2837L150.395 67.7851ZM150.73 67.4758L150.167 66.6496L150.167 66.6496L150.73 67.4758ZM150.836 67.4018L150.245 66.595L150.245 66.5951L150.836 67.4018ZM152.529 63.7395L153.504 63.5174L153.504 63.5169L152.529 63.7395ZM152.526 63.7277L151.551 63.9502L151.551 63.9503L152.526 63.7277ZM152.466 63.1913L151.473 63.0725L151.473 63.0731L152.466 63.1913ZM152.72 62.5906L151.861 62.0785L151.861 62.0785L152.72 62.5906ZM126.39 78.3104L125.606 77.6902L125.291 78.0885L125.426 78.5778L126.39 78.3104ZM129.807 74.2217L130.772 73.9588L130.281 72.1562L129.053 73.5647L129.807 74.2217ZM129.327 84.4002L128.452 84.8832L128.677 85.2919L129.135 85.3816L129.327 84.4002ZM134.71 84.6681L134.849 85.6583L134.849 85.6583L134.71 84.6681ZM140.702 82.5455L141.35 83.3075L141.766 82.9539L141.693 82.4125L140.702 82.5455ZM139.192 76.7405L140.137 76.4107L139.754 75.3148L138.727 75.8557L139.192 76.7405ZM135.156 77.9416L135.033 76.9492L135.032 76.9492L135.156 77.9416ZM135.894 91.9909L136.803 92.4089L137.441 91.0225L135.915 90.9911L135.894 91.9909ZM135.481 92.9373L135.092 93.8583L136.021 94.2515L136.406 93.3187L135.481 92.9373ZM134.254 91.9243L134.315 90.9262L131.854 90.7751L133.515 92.5977L134.254 91.9243ZM150.296 58.866C150.841 59.2785 151.411 59.9122 151.747 60.5611C152.094 61.2329 152.084 61.6911 151.926 61.9689L153.664 62.9584C154.313 61.8189 154.002 60.5695 153.524 59.6431C153.033 58.6938 152.252 57.8386 151.503 57.2713L150.296 58.866ZM149.603 56.014C150.145 56.5266 150.236 57.2248 150.038 57.5603L151.761 58.577C152.604 57.1488 151.919 55.4514 150.977 54.561L149.603 56.014ZM147.275 54.9144C148.282 55.2289 149.057 55.4972 149.603 56.0139L150.978 54.5611C150.041 53.6749 148.803 53.2964 147.87 53.0052L147.275 54.9144ZM147.119 51.5661C146.98 51.6624 146.542 51.945 146.4 52.569C146.282 53.0823 146.403 53.6604 146.631 54.2973L148.514 53.6223C148.42 53.3614 148.379 53.1897 148.363 53.0834C148.346 52.9766 148.36 52.9676 148.349 53.0154C148.334 53.0799 148.297 53.1531 148.245 53.2108C148.212 53.2474 148.182 53.2631 148.258 53.2105L147.119 51.5661ZM146.838 51.6929C146.914 51.8604 146.942 51.9539 146.951 51.9944C146.96 52.035 146.941 51.9808 146.963 51.8749C146.975 51.8197 146.995 51.7612 147.026 51.7042C147.057 51.6481 147.091 51.6059 147.118 51.5774C147.131 51.5636 147.142 51.5534 147.149 51.5469C147.156 51.5404 147.161 51.5369 147.161 51.5367C147.161 51.5366 147.159 51.5386 147.151 51.5439C147.143 51.5495 147.134 51.5557 147.119 51.5661L148.258 53.2105C148.341 53.1532 148.796 52.8777 148.92 52.2851C149.023 51.7941 148.855 51.2997 148.661 50.8704L146.838 51.6929ZM139.186 51.5263C139.955 51.1816 141.657 50.9402 143.42 51.0129C144.28 51.0484 145.094 51.1568 145.756 51.338C146.448 51.5275 146.838 51.7602 147.001 51.9449L148.498 50.6183C147.947 49.9967 147.102 49.633 146.284 49.409C145.435 49.1766 144.463 49.0542 143.503 49.0146C141.627 48.9372 139.557 49.1683 138.368 49.7013L139.186 51.5263ZM138.944 51.6378C139.03 51.5976 139.108 51.5611 139.186 51.5262L138.368 49.7013C138.275 49.7429 138.184 49.7855 138.1 49.8246L138.944 51.6378ZM137.438 52.1452C138.043 52.0656 138.577 51.8084 138.944 51.6378L138.1 49.8246C137.681 50.0193 137.426 50.1296 137.177 50.1623L137.438 52.1452ZM136.504 52.161C136.741 52.1726 137.085 52.192 137.439 52.1451L137.177 50.1624C137.031 50.1816 136.87 50.1765 136.602 50.1634L136.504 52.161ZM136.158 52.1494C136.261 52.1494 136.369 52.1544 136.504 52.161L136.602 50.1634C136.474 50.1572 136.318 50.1494 136.158 50.1494V52.1494ZM132.603 55.224C133.064 53.4946 134.602 52.1491 136.158 52.1494L136.158 50.1494C133.493 50.1489 131.308 52.3158 130.671 54.7093L132.603 55.224ZM132.558 55.4031C132.574 55.3368 132.589 55.2797 132.603 55.2243L130.671 54.709C130.651 54.7826 130.633 54.8553 130.617 54.9191L132.558 55.4031ZM132.185 56.4327C132.402 56.0539 132.497 55.646 132.558 55.4031L130.617 54.9191C130.544 55.2113 130.505 55.3406 130.45 55.4369L132.185 56.4327ZM131.373 57.3619C131.582 57.1726 131.938 56.8618 132.185 56.4324L130.45 55.4372C130.388 55.5451 130.283 55.6508 130.032 55.8786L131.373 57.3619ZM131.327 57.4011L131.327 57.4011L130.078 55.8394L130.078 55.8394L131.327 57.4011ZM131.117 57.6018C131.188 57.5296 131.267 57.4576 131.373 57.3619L130.032 55.8786C129.933 55.9673 129.809 56.0797 129.688 56.2026L131.117 57.6018ZM130.46 59.4604C130.398 58.786 130.65 58.079 131.118 57.6017L129.688 56.2027C128.809 57.1014 128.354 58.387 128.468 59.6414L130.46 59.4604ZM130.504 59.7734C130.483 59.6583 130.468 59.5555 130.46 59.4605L128.468 59.6413C128.483 59.8115 128.508 59.9744 128.535 60.1251L130.504 59.7734ZM129.175 62.7373L130.403 60.4172L128.636 59.4813L127.407 61.8014L129.175 62.7373ZM129.605 65.4069C129.435 64.733 129.289 64.1528 129.217 63.6407C129.143 63.1179 129.166 62.7948 129.234 62.6019L127.348 61.9367C127.119 62.5858 127.148 63.2936 127.237 63.9214C127.327 64.5598 127.502 65.2499 127.666 65.8964L129.605 65.4069ZM129.997 67.1019C129.886 66.5181 129.739 65.9375 129.605 65.4069L127.666 65.8964C127.802 66.4368 127.934 66.9602 128.032 67.4765L129.997 67.1019ZM124.743 74.1821C126.668 71.7196 128.62 69.3345 129.785 67.9267L128.244 66.6518C127.074 68.0665 125.108 70.4675 123.167 72.9506L124.743 74.1821ZM121.714 71.3448C121.947 71.8793 122.208 72.4778 122.451 72.9813C122.572 73.2331 122.697 73.4759 122.817 73.6832C122.924 73.8675 123.075 74.1067 123.261 74.286L124.65 72.8467C124.678 72.874 124.643 72.8445 124.546 72.6775C124.462 72.5335 124.363 72.3423 124.252 72.1116C124.029 71.6503 123.785 71.0903 123.548 70.5461L121.714 71.3448ZM121.336 70.4866C121.45 70.738 121.577 71.0302 121.714 71.3448L123.548 70.5461C123.412 70.2352 123.279 69.9288 123.158 69.6618L121.336 70.4866ZM119.299 71.0826C119.826 70.2042 120.355 70.0113 120.632 70.0006C120.902 69.9901 121.177 70.1348 121.336 70.4861L123.158 69.6623C122.695 68.6373 121.71 67.9574 120.555 68.002C119.406 68.0465 118.343 68.7885 117.584 70.0534L119.299 71.0826ZM121.445 76.6157C120.836 75.6871 120.087 74.5398 119.606 73.4274C119.367 72.8737 119.216 72.3764 119.17 71.9569C119.125 71.5414 119.188 71.2677 119.299 71.0824L117.584 70.0535C117.179 70.7275 117.106 71.4791 117.182 72.1754C117.258 72.8677 117.489 73.5689 117.77 74.2205C118.331 75.519 119.181 76.8104 119.772 77.7124L121.445 76.6157ZM121.739 77.0657C121.647 76.9243 121.548 76.7726 121.445 76.6157L119.772 77.7124C119.876 77.8707 119.972 78.0162 120.058 78.1506L121.739 77.0657ZM119.322 81.9109C119.67 81.1422 120.536 79.8164 121.709 78.194L120.088 77.0224C118.928 78.6269 117.943 80.1069 117.5 81.0853L119.322 81.9109ZM126.725 89.2814C124.514 88.3434 122.295 87.0119 120.824 85.5834C119.291 84.0957 118.893 82.8564 119.322 81.9111L117.5 81.0851C116.505 83.2788 117.787 85.4232 119.431 87.0186C121.135 88.6731 123.59 90.1241 125.944 91.1226L126.725 89.2814ZM133.69 99.8939C132.817 99.3282 131.751 98.0245 130.592 96.1528C129.457 94.3203 128.311 92.076 127.241 89.7796L125.428 90.6243C126.514 92.9533 127.697 95.2775 128.892 97.2058C130.061 99.0949 131.324 100.744 132.603 101.573L133.69 99.8939ZM134.612 99.9746C134.048 100.044 133.788 99.9569 133.69 99.8939L132.603 101.573C133.275 102.008 134.098 102.053 134.855 101.96L134.612 99.9746ZM136.387 101.911C136.118 101.51 135.886 101.162 135.663 100.599L133.804 101.335C134.109 102.108 134.444 102.605 134.725 103.025L136.387 101.911ZM137.769 105.677C137.623 104.648 137.421 103.906 137.17 103.304C136.918 102.701 136.631 102.276 136.387 101.911L134.725 103.025C134.968 103.387 135.155 103.669 135.324 104.074C135.494 104.482 135.66 105.051 135.79 105.96L137.769 105.677ZM142.774 121.978C142.518 121.623 142.093 120.686 141.573 119.277C141.07 117.917 140.519 116.235 139.993 114.495C138.935 110.993 138.008 107.355 137.77 105.678L135.789 105.959C136.052 107.801 137.019 111.567 138.079 115.073C138.612 116.837 139.175 118.56 139.697 119.971C140.2 121.334 140.709 122.534 141.15 123.147L142.774 121.978ZM134.097 127.066C134.199 126.959 134.542 126.723 135.197 126.387C135.808 126.073 136.579 125.727 137.419 125.375C139.097 124.672 140.991 123.972 142.299 123.504L141.625 121.621C140.305 122.093 138.373 122.807 136.647 123.53C135.785 123.891 134.96 124.26 134.283 124.607C133.65 124.932 133.013 125.303 132.646 125.689L134.097 127.066ZM134.543 128.078C134.332 127.637 134.222 127.301 134.189 127.077C134.152 126.826 134.234 126.921 134.097 127.066L132.646 125.69C132.153 126.209 132.139 126.89 132.211 127.37C132.286 127.878 132.489 128.42 132.739 128.942L134.543 128.078ZM131.865 130.424C132.629 130.074 133.366 129.737 134.059 129.418L133.223 127.601C132.532 127.919 131.797 128.255 131.033 128.605L131.865 130.424ZM131.874 130.419L131.875 130.419L131.023 128.61L131.023 128.61L131.874 130.419ZM116.185 138.349C116.471 138.071 117.162 137.608 118.255 136.992C119.314 136.396 120.656 135.706 122.156 134.969C125.155 133.495 128.741 131.854 131.865 130.424L131.033 128.605C127.915 130.032 124.303 131.685 121.274 133.174C119.76 133.918 118.379 134.627 117.273 135.25C116.202 135.854 115.286 136.432 114.788 136.919L116.185 138.349ZM123.609 157.904C121.776 154.173 119.555 149.447 118.009 145.456C117.234 143.455 116.643 141.677 116.35 140.318C116.203 139.634 116.141 139.104 116.152 138.727C116.163 138.31 116.256 138.28 116.185 138.35L114.788 136.919C114.286 137.409 114.168 138.108 114.152 138.673C114.136 139.279 114.233 139.986 114.395 140.739C114.722 142.253 115.357 144.146 116.144 146.178C117.723 150.254 119.975 155.042 121.814 158.786L123.609 157.904ZM125.014 163.049C124.76 162.13 124.265 160.34 123.679 158.092L121.744 158.597C122.334 160.86 122.832 162.661 123.086 163.582L125.014 163.049ZM125.177 163.642C125.147 163.531 125.091 163.326 125.014 163.049L123.086 163.582C123.165 163.865 123.218 164.058 123.245 164.158L125.177 163.642ZM120.827 169.899C121.846 168.947 122.986 167.884 123.828 166.904C124.248 166.415 124.63 165.906 124.887 165.407C125.131 164.934 125.353 164.298 125.177 163.642L123.245 164.158C123.227 164.09 123.277 164.166 123.109 164.491C122.956 164.788 122.689 165.161 122.311 165.601C121.556 166.48 120.505 167.463 119.462 168.437L120.827 169.899ZM118.024 172.221C118.282 172.577 118.062 172.873 118.155 172.689C118.215 172.568 118.36 172.362 118.626 172.06C119.149 171.467 119.937 170.73 120.827 169.899L119.462 168.437C118.6 169.242 117.728 170.055 117.126 170.737C116.83 171.073 116.546 171.435 116.367 171.792C116.221 172.084 115.951 172.765 116.403 173.391L118.024 172.221ZM122.271 170.229C120.974 170.883 119.762 171.436 118.838 171.747C118.369 171.905 118.032 171.981 117.823 171.997C117.528 172.019 117.802 171.913 118.024 172.22L116.403 173.391C116.852 174.014 117.603 174.02 117.974 173.991C118.432 173.957 118.953 173.819 119.477 173.642C120.54 173.284 121.854 172.679 123.172 172.015L122.271 170.229ZM121.577 174.154C121.875 174.428 121.761 174.737 121.793 174.594C121.814 174.497 121.887 174.304 122.052 173.995C122.376 173.391 122.91 172.602 123.542 171.693L121.9 170.551C121.282 171.441 120.677 172.326 120.289 173.051C120.098 173.408 119.922 173.793 119.84 174.161C119.769 174.484 119.698 175.144 120.225 175.628L121.577 174.154ZM130.285 167.057C128.953 168.248 126.729 170.238 124.71 171.809C123.696 172.599 122.771 173.254 122.057 173.649C121.694 173.85 121.441 173.952 121.29 173.989C121.084 174.038 121.32 173.918 121.577 174.154L120.224 175.627C120.744 176.105 121.408 176.018 121.761 175.932C122.168 175.834 122.604 175.632 123.025 175.399C123.879 174.926 124.904 174.194 125.939 173.388C128.02 171.767 130.296 169.731 131.618 168.548L130.285 167.057ZM130.175 167.172L130.175 167.172L131.728 168.433L131.728 168.433L130.175 167.172ZM130.453 166.907L130.285 167.057L131.618 168.548L131.786 168.397L130.453 166.907ZM129.48 163.026C129.824 163.294 130.429 164.07 130.728 164.958C131.024 165.835 130.928 166.482 130.453 166.906L131.786 168.398C133.126 167.2 133.035 165.542 132.623 164.319C132.215 163.106 131.399 161.986 130.71 161.449L129.48 163.026ZM127.371 156.407C127.711 157.985 128.052 159.44 128.362 160.548C128.516 161.099 128.668 161.585 128.815 161.964C128.888 162.152 128.967 162.335 129.054 162.494C129.125 162.625 129.26 162.854 129.48 163.026L130.71 161.449C130.83 161.542 130.856 161.621 130.811 161.539C130.781 161.484 130.737 161.389 130.68 161.242C130.567 160.951 130.435 160.535 130.288 160.009C129.994 158.96 129.663 157.551 129.327 155.986L127.371 156.407ZM127.671 143.662C127.568 144.82 127.328 151.197 127.349 156.201L129.349 156.192C129.328 151.213 129.569 144.906 129.663 143.839L127.671 143.662ZM139.876 140.137C137.333 140.476 134.489 140.854 132.267 141.291C131.163 141.509 130.164 141.749 129.419 142.023C129.051 142.158 128.691 142.32 128.4 142.524C128.143 142.704 127.724 143.068 127.671 143.662L129.663 143.839C129.636 144.151 129.43 144.244 129.548 144.161C129.632 144.103 129.806 144.011 130.108 143.9C130.701 143.683 131.574 143.466 132.654 143.254C134.801 142.831 137.577 142.461 140.14 142.12L139.876 140.137ZM142.307 139.809C141.549 139.915 140.729 140.024 139.876 140.137L140.14 142.12C140.991 142.007 141.818 141.896 142.584 141.789L142.307 139.809ZM143.461 141.01C143.728 140.968 143.898 141.073 143.908 141.079C143.932 141.093 143.91 141.084 143.842 141.013C143.71 140.875 143.522 140.628 143.288 140.261L141.602 141.336C141.863 141.746 142.132 142.119 142.397 142.396C142.528 142.533 142.69 142.68 142.88 142.794C143.056 142.9 143.376 143.047 143.77 142.986L143.461 141.01ZM157.147 124.334C157.598 127.576 155.864 131.48 153.027 134.793C150.198 138.097 146.51 140.532 143.461 141.01L143.771 142.986C147.466 142.406 151.547 139.597 154.547 136.094C157.539 132.599 159.694 128.13 159.128 124.059L157.147 124.334ZM154.254 117.328C155.105 118.473 156.681 120.984 157.147 124.334L159.128 124.059C158.599 120.252 156.819 117.427 155.86 116.135L154.254 117.328ZM154.355 115.972C154.316 116.038 154.274 116.104 154.229 116.171L155.885 117.291C155.95 117.196 156.012 117.098 156.071 117L154.355 115.972ZM151.357 100.744C151.357 103.984 152.093 108.01 152.81 111.178C153.171 112.772 153.531 114.168 153.802 115.166C153.937 115.666 154.05 116.066 154.129 116.342C154.169 116.48 154.2 116.587 154.222 116.66C154.233 116.697 154.241 116.725 154.247 116.744C154.25 116.753 154.252 116.761 154.253 116.766C154.254 116.768 154.255 116.77 154.255 116.772C154.255 116.772 154.255 116.773 154.255 116.773C154.256 116.774 154.256 116.774 154.256 116.774C154.256 116.774 154.256 116.774 155.213 116.486C156.171 116.198 156.171 116.198 156.171 116.198C156.171 116.198 156.171 116.198 156.171 116.198C156.171 116.198 156.171 116.198 156.171 116.197C156.17 116.196 156.17 116.195 156.169 116.193C156.168 116.188 156.166 116.182 156.164 116.173C156.158 116.156 156.151 116.13 156.141 116.096C156.12 116.027 156.09 115.924 156.052 115.79C155.975 115.522 155.865 115.132 155.732 114.643C155.467 113.665 155.114 112.297 154.761 110.736C154.049 107.594 153.357 103.749 153.357 100.744H151.357ZM153.915 90.4662C152.982 90.1059 152.982 90.1061 152.982 90.1064C152.982 90.1065 152.982 90.1068 152.982 90.107C152.982 90.1075 152.982 90.108 152.981 90.1085C152.981 90.1096 152.98 90.111 152.98 90.1126C152.979 90.1159 152.977 90.1201 152.975 90.1253C152.971 90.1357 152.966 90.1501 152.959 90.1682C152.946 90.2046 152.927 90.2564 152.904 90.3232C152.857 90.4568 152.793 90.6504 152.716 90.9005C152.562 91.4006 152.36 92.127 152.159 93.0509C151.757 94.8981 151.357 97.5397 151.357 100.744H153.357C153.357 97.7048 153.736 95.2072 154.113 93.4764C154.302 92.6113 154.489 91.939 154.628 91.4876C154.697 91.2619 154.754 91.0916 154.793 90.9802C154.812 90.9246 154.827 90.8836 154.836 90.8578C154.841 90.845 154.845 90.8359 154.847 90.8306C154.848 90.828 154.848 90.8264 154.848 90.8257C154.849 90.8253 154.849 90.8252 154.849 90.8254C154.848 90.8255 154.848 90.8256 154.848 90.8258C154.848 90.8259 154.848 90.8261 154.848 90.8261C154.848 90.8263 154.848 90.8265 153.915 90.4662ZM152.845 89.8234L152.92 90.5676L154.91 90.3649L154.834 89.6207L152.845 89.8234ZM152.381 84.174C154.224 84.7824 154.977 87.4592 153.196 88.9565L154.483 90.4875C157.561 87.9002 156.214 83.3335 153.008 82.2748L152.381 84.174ZM150.023 83.0003C150.954 82.9879 151.559 83.4407 151.939 83.8793L153.45 82.5695C152.821 81.8428 151.698 80.9778 149.996 81.0004L150.023 83.0003ZM150.205 81.4369C149.261 81.1096 149.261 81.1096 149.261 81.1096C149.261 81.1096 149.261 81.1096 149.261 81.1096C149.261 81.1096 149.261 81.1096 149.261 81.1096C149.261 81.1096 149.261 81.1097 149.261 81.1097C149.26 81.1098 149.26 81.11 149.26 81.1102C149.26 81.1106 149.26 81.1112 149.26 81.112C149.259 81.1136 149.258 81.1161 149.257 81.1193C149.255 81.1258 149.252 81.1355 149.247 81.1483C149.238 81.1738 149.225 81.2114 149.208 81.2599C149.175 81.357 149.126 81.4975 149.065 81.6715L150.954 82.3292C151.015 82.1547 151.064 82.0135 151.098 81.9159C151.115 81.8672 151.128 81.8293 151.137 81.8036C151.141 81.7907 151.145 81.7809 151.147 81.7743C151.148 81.771 151.149 81.7685 151.149 81.7668C151.15 81.7659 151.15 81.7653 151.15 81.7649C151.15 81.7647 151.15 81.7645 151.15 81.7644C151.15 81.7643 151.15 81.7643 151.15 81.7643C151.15 81.7642 151.15 81.7642 151.15 81.7642C151.15 81.7642 151.15 81.7642 151.15 81.7642C151.15 81.7642 151.15 81.7642 150.205 81.4369ZM144.796 72.431L149.303 81.8679L151.108 81.0059L146.601 71.569L144.796 72.431ZM144.78 73H145.698V71H144.78V73ZM148.05 70.6992L144.69 71.0041L144.87 72.9959L148.231 72.6911L148.05 70.6992ZM149.318 68.5049C149.355 69.467 148.692 70.441 147.809 70.7518L148.473 72.6385C150.195 72.0324 151.387 70.2538 151.317 68.4275L149.318 68.5049ZM149.316 68.466L149.318 68.5093L151.316 68.423L151.315 68.3797L149.316 68.466ZM149.315 68.4295L149.317 68.4711L151.314 68.3746L151.312 68.333L149.315 68.4295ZM149.313 68.3812V68.3812H151.313V68.3812H149.313ZM149.529 67.2837C149.253 67.7608 149.308 68.2933 149.315 68.4302L151.312 68.3322C151.311 68.3056 151.31 68.2838 151.309 68.2627C151.308 68.242 151.308 68.2248 151.307 68.2098C151.307 68.1789 151.308 68.1639 151.308 68.1586C151.309 68.1473 151.306 68.2064 151.26 68.2864L149.529 67.2837ZM150.167 66.6496C150.076 66.7117 149.741 66.9197 149.53 67.2831L151.26 68.287C151.224 68.3476 151.19 68.3759 151.193 68.3731C151.195 68.3718 151.202 68.3658 151.22 68.3531C151.228 68.3469 151.238 68.3398 151.251 68.3312C151.264 68.3224 151.277 68.3133 151.293 68.302L150.167 66.6496ZM150.245 66.5951C150.226 66.6087 150.205 66.6236 150.167 66.6496L151.293 68.302C151.327 68.2793 151.376 68.2455 151.427 68.2086L150.245 66.5951ZM151.554 63.9617C151.632 64.303 151.56 64.7822 151.294 65.317C151.032 65.843 150.636 66.3092 150.245 66.595L151.427 68.2087C152.094 67.7204 152.69 66.9987 153.084 66.2087C153.473 65.4275 153.719 64.4626 153.504 63.5174L151.554 63.9617ZM151.551 63.9503L151.554 63.9622L153.504 63.5169L153.501 63.505L151.551 63.9503ZM151.473 63.0731C151.428 63.4541 151.518 63.8061 151.551 63.9502L153.501 63.5051C153.479 63.4097 153.469 63.3616 153.463 63.3208C153.458 63.2849 153.462 63.2866 153.459 63.3095L151.473 63.0731ZM151.861 62.0785C151.77 62.2326 151.529 62.6072 151.473 63.0725L153.459 63.3101C153.456 63.3383 153.449 63.3404 153.467 63.3022C153.488 63.2575 153.518 63.2058 153.579 63.1028L151.861 62.0785ZM151.926 61.969C151.908 62.0011 151.888 62.0347 151.861 62.0785L153.579 63.1028C153.604 63.0619 153.634 63.011 153.664 62.9583L151.926 61.969ZM127.175 78.9306C128.346 77.4482 129.669 75.9024 130.561 74.8787L129.053 73.5647C128.153 74.5978 126.807 76.1711 125.606 77.6902L127.175 78.9306ZM130.203 83.9173C129.463 82.5751 128.797 81.2846 128.288 80.2277C127.766 79.1424 127.446 78.3751 127.354 78.043L125.426 78.5778C125.573 79.1071 125.973 80.0285 126.486 81.0946C127.013 82.1892 127.696 83.5129 128.452 84.8832L130.203 83.9173ZM134.57 83.6779C132.975 83.9028 131.19 83.7459 129.519 83.4189L129.135 85.3816C130.924 85.732 132.952 85.9259 134.849 85.6583L134.57 83.6779ZM140.055 81.7834C139.468 82.2821 137.718 83.2337 134.57 83.6779L134.849 85.6583C138.231 85.1811 140.382 84.1298 141.35 83.3075L140.055 81.7834ZM138.248 77.0704C138.579 78.0151 139.431 80.5925 139.711 82.6784L141.693 82.4125C141.384 80.1058 140.468 77.3591 140.137 76.4107L138.248 77.0704ZM135.279 78.934C136.994 78.7211 138.445 78.2642 139.658 77.6253L138.727 75.8557C137.751 76.3697 136.536 76.7626 135.033 76.9492L135.279 78.934ZM128.842 74.4846C129.069 75.316 129.491 76.582 130.484 77.5668C131.528 78.6026 133.075 79.2079 135.279 78.934L135.032 76.9492C133.356 77.1576 132.445 76.6955 131.893 76.1472C131.289 75.5479 130.977 74.7127 130.772 73.9588L128.842 74.4846ZM134.986 91.5728C134.853 91.8608 134.707 92.1921 134.557 92.556L136.406 93.3187C136.545 92.9823 136.68 92.6756 136.803 92.4089L134.986 91.5728ZM134.193 92.9224C134.778 92.9584 135.343 92.9797 135.874 92.9907L135.915 90.9911C135.408 90.9806 134.871 90.9603 134.315 90.9262L134.193 92.9224ZM135.871 92.0164C135.74 91.961 135.445 91.7474 134.993 91.2509L133.515 92.5977C133.993 93.1225 134.534 93.6221 135.092 93.8583L135.871 92.0164Z" fill="#192E35" mask="url(#path-20-outside-1_4951_28719)"/>
<path d="M152.795 62.4636C153.602 61.0464 152.194 59.0484 150.9 58.0686C151.42 57.1868 151.032 55.989 150.29 55.2875C149.549 54.586 148.543 54.2626 147.573 53.9598C146.761 51.6976 148.525 53 147.75 51.2816C146.32 49.6689 140.735 49.7361 138.777 50.6138C138.299 50.8281 137.827 51.0855 137.308 51.1537C136.928 51.204 136.542 51.1494 136.158 51.1494C134.048 51.149 132.186 52.9052 131.637 54.9667C131.549 55.2962 131.487 55.6395 131.317 55.9348C131.095 56.3221 130.715 56.584 130.403 56.9022C129.729 57.5902 129.376 58.5865 129.464 59.5509C129.538 60.3699 129.909 61.1992 129.669 61.985C129.548 62.3789 129.281 62.7198 129.2 63.1239C128.965 64.2949 130.343 65.2719 130.27 66.4645C130.255 66.7077 130.179 66.9429 130.145 67.1844C130.075 67.6778 130.19 68.1956 130.461 68.6121C130.67 68.9331 130.976 69.2118 131.049 69.5895C131.104 69.876 131.013 70.1685 130.994 70.4596C130.946 71.1721 133.114 72.7035 133.756 73L148.141 71.6952C149.443 71.2367 150.371 69.8604 150.317 68.4662C150.308 68.2342 150.279 67.9852 150.395 67.7851C150.494 67.6145 150.678 67.5178 150.836 67.4018C151.893 66.6278 152.822 65.0261 152.529 63.7395C152.488 63.5592 152.444 63.3749 152.466 63.1913C152.498 62.9245 152.662 62.6967 152.795 62.4636Z" fill="#192E35"/>
<path d="M138.743 126.013C137.015 127.247 117.972 135.205 115.486 137.634C112.999 140.063 125.117 163.105 125.903 164.667C126.926 166.698 119.828 173.906 120.901 174.891C121.973 175.876 128.577 169.926 131.119 167.652C132.935 166.03 131.128 163.043 130.095 162.237C129.062 161.431 126.29 145.685 126.069 143.853C125.848 142.022 141.284 137.768 142.887 136.473C144.492 135.178 139.314 125.604 138.743 126.013Z" fill="#CC966B"/>
<path d="M110.03 132.936L110.03 132.936C110.396 132.704 111.326 132.317 112.614 131.875C113.924 131.424 115.655 130.9 117.663 130.401C121.674 129.403 126.81 128.5 131.9 128.5C137.89 128.5 143.479 129.6 147.643 130.84C149.725 131.46 151.458 132.117 152.712 132.695C153.339 132.983 153.854 133.255 154.238 133.497C154.429 133.618 154.596 133.736 154.729 133.85C154.853 133.956 154.988 134.091 155.068 134.252C155.141 134.396 155.175 134.562 155.194 134.711C155.215 134.868 155.223 135.047 155.224 135.24C155.224 135.626 155.192 136.104 155.138 136.642C155.03 137.72 154.828 139.08 154.597 140.507C154.428 141.55 154.244 142.626 154.067 143.659C153.756 145.472 153.469 147.151 153.327 148.283L153.327 148.284C153.222 149.125 153.253 150.221 153.343 151.446C153.399 152.205 153.476 152.99 153.553 153.78C153.601 154.268 153.649 154.758 153.693 155.246C153.805 156.504 153.885 157.729 153.834 158.744C153.808 159.253 153.749 159.727 153.637 160.136C153.527 160.541 153.353 160.922 153.072 161.203C152.604 161.671 151.886 162.065 150.905 162.402C149.917 162.74 148.625 163.032 146.97 163.272C143.662 163.752 138.849 164.031 132.012 164.031C125.16 164.031 120.104 163.415 116.591 162.478C114.835 162.009 113.45 161.457 112.415 160.851C111.386 160.249 110.667 159.572 110.299 158.838C109.942 158.126 109.785 157.131 109.737 156.033C109.689 154.92 109.75 153.642 109.87 152.325C110.092 149.894 110.517 147.286 110.844 145.278C110.872 145.111 110.898 144.947 110.924 144.788L110.03 132.936ZM110.03 132.936C109.691 133.152 109.569 133.522 109.525 133.839M110.03 132.936L109.525 133.839M109.525 133.839C109.48 134.168 109.5 134.557 109.552 134.968M109.525 133.839L109.552 134.968M109.552 134.968C109.648 135.732 109.869 136.697 110.105 137.726M109.552 134.968L110.105 137.726M110.105 137.726C110.124 137.806 110.142 137.887 110.161 137.968M110.105 137.726L110.161 137.968M110.161 137.968C110.685 140.258 111.241 142.837 110.924 144.788L110.161 137.968Z" fill="#708BA6" stroke="#192E35"/>
<path d="M143.566 122C143.566 122 134.654 125.027 133.371 126.378C132.089 127.729 137.56 134.527 139.317 134.979C141.075 135.429 144.535 128.548 144.535 128.548L145.198 124.702L143.566 122Z" fill="#192E35"/>
<path d="M144.733 129.006C142.789 129.854 122.539 133.732 119.608 135.586C116.677 137.441 123.764 162.227 124.211 163.9C124.793 166.076 116.368 171.634 117.213 172.806C118.059 173.977 125.739 169.538 128.693 167.847C130.802 166.639 129.653 163.379 128.809 162.389C127.965 161.399 128.506 145.571 128.667 143.75C128.829 141.93 144.79 140.916 146.626 139.985C148.46 139.053 145.376 128.725 144.733 129.006Z" fill="#FFC596"/>
<path d="M154.467 116C154.467 116 157.446 119.218 158.137 124.196C159.154 131.511 150.36 140.94 143.616 141.998C142.37 142.193 137.298 130.541 138.322 128.69C139.315 126.897 143.624 126.84 142.941 121.641C142.257 116.441 154.467 116 154.467 116Z" fill="#192E35"/>
<path d="M141.094 82.0266C141.094 82.4671 139.078 84.0517 134.71 84.6681C130.34 85.2845 124.964 83.2594 123.871 82.643C122.779 82.0266 130.845 73.0451 130.845 73.0451L130.088 66C130.088 66 119.997 77.9977 118.411 81.4981C116.814 85.0207 123.031 89.1596 127.987 90.8321C132.945 92.5055 139.834 91.8891 139.834 91.8891L143.195 85.2845L141.094 82.0266Z" fill="#CC966B"/>
<path d="M136.184 91.671C137.363 89.4108 139.853 87.2846 140.639 85.0253C141.426 82.7659 139.066 76.3856 139.066 76.3856L141.426 72H145.698L150.205 81.4369C150.205 81.4369 148.502 86.3542 148.108 87.2846C147.715 88.215 145.225 91.5379 144.439 91.9365C143.652 92.3351 140.639 93 139.983 93C139.329 93 136.184 91.671 136.184 91.671Z" fill="#FFC596"/>
<path d="M153.266 84.0914C153.266 84.0914 152.098 81.3593 148.981 82.1405C146.948 82.6496 145.087 89.5555 142.232 91.2474C139.376 92.9384 137.233 91.6376 136.454 90.8572C136.454 90.8572 133.533 96.191 134.313 99.5731C135.091 102.956 136.259 102.176 136.78 105.818C137.298 109.461 140.803 121.43 142.102 122.731C143.4 124.032 152.876 120.39 155.213 116.486C155.213 116.486 152.357 106.989 152.357 100.744C152.357 94.5 153.915 90.4662 153.915 90.4662L153.266 84.0914Z" fill="#9685FF"/>
<path d="M153.508 89.9754C157.133 87.4548 154.477 81.8221 150.229 83.2905C145.98 84.758 137.915 91.8785 136.033 92.9509C134.153 94.0225 126.919 80.3771 126.379 78.2679C125.838 76.1587 127.151 73.4967 126.432 72.2877C125.715 71.0795 124.428 73.2235 124.147 73.5985C123.867 73.9743 122.872 71.4553 122.247 70.0742C121.625 68.698 119.727 68.4248 118.441 70.568C117.155 72.712 120.584 76.924 121.296 78.2614C122.007 79.5989 128.422 97.6737 133.147 100.733C136.424 102.855 151.072 91.6684 153.508 89.9754Z" fill="#FFC596"/>
<path d="M128.291 62.2693C127.576 64.2964 130.368 68.5151 128.577 71.0515C127.719 72.2675 129.007 72.9429 129.435 73.0786C129.865 73.2136 129.721 78.617 135.156 77.9416C140.59 77.267 142.878 74.0239 143.45 71.0515C144.022 68.0792 137.73 59.5668 137.73 59.5668L132.724 57L130.151 58.7564L128.291 62.2693Z" fill="#FFC596"/>
<mask id="mask1_4951_28719" style="mask-type:alpha" maskUnits="userSpaceOnUse" x="128" y="57" width="16" height="21">
<path d="M128.291 62.2693C127.576 64.2964 130.368 68.5151 128.577 71.0515C127.719 72.2675 129.007 72.9429 129.435 73.0786C129.865 73.2136 129.721 78.617 135.156 77.9416C140.59 77.267 142.878 74.0239 143.45 71.0515C144.022 68.0792 137.73 59.5668 137.73 59.5668L132.724 57L130.151 58.7564L128.291 62.2693Z" fill="#FFC596"/>
</mask>
<g mask="url(#mask1_4951_28719)">
<path d="M134.582 69.5068C135.211 69.5068 135.846 69.2268 136.409 68.6678C136.479 68.5978 136.497 68.459 136.448 68.3576C136.4 68.255 136.303 68.2296 136.233 68.2996C135.217 69.3101 133.938 69.3125 132.975 68.3033C132.906 68.2308 132.809 68.2526 132.759 68.3527C132.709 68.4517 132.724 68.5918 132.793 68.6642C133.329 69.2256 133.953 69.5068 134.582 69.5068Z" fill="#17282F"/>
<path d="M133.461 75.4967C133.823 75.4643 134.182 75.3502 134.554 75.1503C134.9 74.9652 135.315 74.7171 135.46 74.4406C135.493 74.3782 135.465 74.3029 135.398 74.2728C135.33 74.242 135.249 74.2677 135.216 74.3307C135.088 74.5729 134.601 74.8342 134.418 74.9325C134.011 75.1512 133.64 75.254 133.252 75.2546C132.55 75.2567 131.939 75.0295 131.329 74.5408C131.272 74.4954 131.186 74.501 131.137 74.5532C131.088 74.606 131.094 74.6853 131.15 74.7308C131.813 75.2619 132.481 75.508 133.253 75.5065C133.322 75.5057 133.392 75.5029 133.461 75.4967Z" fill="#192E35"/>
<path d="M143.773 65.8992C143.438 63.9738 142.568 62.1993 141.439 60.6658C140.965 60.0224 140.441 59.4133 139.818 58.9288C139.109 58.3762 138.288 57.9984 137.471 57.6321C136.406 57.1541 135.618 57.0282 134.45 56.9366C132.274 56.7661 130.061 57.7804 128.198 59.0549C127.49 59.5395 126.897 60.1429 126.331 60.8029C125.653 61.5927 124.982 62.3639 124.602 63.3415C124.053 64.7543 123.452 65.2603 123.58 67.6614L123.623 68.3378C124.355 67.6917 124.779 66.9074 124.617 65.9444C125.161 66.0204 125.612 65.2286 125.864 64.705C126.115 64.1814 126.463 63.8808 126.373 63.3146C126.355 63.2029 126.334 63.0849 126.373 62.977C126.435 62.8074 126.615 62.7255 126.772 62.6461C127.576 62.2367 128.167 61.3798 128.28 60.4607C129.165 60.705 130.116 60.7113 131.02 60.4794C131.497 61.0251 132.26 61.2789 132.971 61.1288C133.681 60.9785 134.316 60.4291 134.594 59.7238C134.891 60.1951 135.437 60.4391 135.982 60.4912C136.526 60.5435 137.077 60.4292 137.618 60.3152C137.511 61.4503 138.336 62.5617 139.406 62.7216C139.55 62.7433 139.717 62.7607 139.797 62.8865C139.88 63.0173 139.826 63.1949 139.789 63.3513C139.555 64.3411 140.287 65.4198 141.247 65.5012C140.666 66.1245 140.871 67.311 141.616 67.6338C141.769 67.7001 141.967 67.7773 141.965 67.9527C141.965 68.0195 141.932 68.0817 141.899 68.1409C141.654 68.5926 141.415 69.0815 141.438 69.5912C141.461 70.1011 141.854 70.6128 142.341 70.5548C142.114 70.8326 141.912 71.1752 141.947 71.5309C141.982 71.8865 142.369 72.1908 142.672 72.0106C142.801 71.934 143.279 71.9777 143.351 71.8421C144.019 70.0294 144.109 67.8246 143.773 65.8992Z" fill="#192E35"/>
</g>
</svg>
