<svg width="713" height="284" viewBox="0 0 713 284" fill="none" xmlns="http://www.w3.org/2000/svg">
<rect width="713" height="284" fill="#FFFAE6"/>
<mask id="mask0_4598_16412" style="mask-type:alpha" maskUnits="userSpaceOnUse" x="0" y="0" width="713" height="284">
<rect width="713" height="284" fill="#D9D9D9"/>
</mask>
<g mask="url(#mask0_4598_16412)">
<path fill-rule="evenodd" clip-rule="evenodd" d="M687.382 22.447C716.783 37.1753 757.971 42.9331 768.576 74.0866C779.078 104.937 756.033 138.361 735.496 163.787C718.299 185.079 685.975 184.283 665.19 202.086C637.247 226.021 631.837 281.156 595.218 283.941C560.422 286.587 547.509 236.745 522.057 212.972C497.952 190.458 450.482 181.557 450.212 148.503C449.925 113.273 507.003 105.635 520.916 73.2164C534.73 41.0287 498.214 -8.22874 526.402 -29.0314C553.505 -49.0339 588.363 -10.3936 620.348 -0.165262C643.374 7.19785 665.775 11.6239 687.382 22.447Z" fill="#FFE9C2"/>
<path fill-rule="evenodd" clip-rule="evenodd" d="M666.656 41.66C689.389 53.0478 721.235 57.4997 729.435 81.5871C737.555 105.44 719.737 131.283 703.858 150.942C690.561 167.405 665.569 166.789 649.498 180.554C627.892 199.06 623.71 241.69 595.396 243.844C568.493 245.89 558.509 207.352 538.829 188.971C520.192 171.564 483.489 164.682 483.28 139.125C483.058 111.886 527.19 105.98 537.947 80.9143C548.628 56.0272 520.394 17.942 542.189 1.85765C563.145 -13.608 590.096 16.2681 614.827 24.1765C632.63 29.8696 649.951 33.2917 666.656 41.66Z" fill="#FFFAE6"/>
<path d="M600.304 -2.89479C599.964 -2.8745 599.624 -2.85383 599.284 -2.83274L599.315 -2.3337C598.635 -2.29165 597.954 -2.24797 597.272 -2.20247L597.239 -2.70136C596.558 -2.656 595.877 -2.60882 595.194 -2.5596L595.23 -2.0609C594.551 -2.01199 593.871 -1.96108 593.19 -1.90793L593.151 -2.40642C592.471 -2.35336 591.79 -2.29808 591.109 -2.24038L591.151 -1.74216C590.472 -1.6847 589.792 -1.62484 589.112 -1.56236L589.067 -2.06027C588.387 -1.99781 587.706 -1.93275 587.025 -1.86486L587.075 -1.36733C586.397 -1.29971 585.718 -1.22929 585.04 -1.15588L584.986 -1.65297C584.307 -1.5795 583.627 -1.50302 582.948 -1.42333L583.006 -0.926732C582.329 -0.847268 581.652 -0.76461 580.975 -0.678554L580.912 -1.17456C580.234 -1.08832 579.556 -0.99866 578.878 -0.905388L578.947 -0.41006C578.271 -0.317022 577.596 -0.220386 576.921 -0.119945L576.847 -0.614491C576.171 -0.513698 575.495 -0.409076 574.819 -0.30042L574.899 0.193228C574.225 0.301686 573.552 0.414165 572.88 0.530871L572.795 0.0382528C572.12 0.155484 571.447 0.276978 570.775 0.402941L570.867 0.894385C570.196 1.02013 569.526 1.15034 568.858 1.28521L568.759 0.795109C568.088 0.930733 567.418 1.07107 566.75 1.21633L566.856 1.70492C566.189 1.85007 565.523 2.00014 564.859 2.15535L564.746 1.66849C564.078 1.82471 563.412 1.98612 562.749 2.15295L562.871 2.63785C562.208 2.80444 561.548 2.97643 560.891 3.15403L560.76 2.67134C560.098 2.85024 559.438 3.03484 558.782 3.22534L558.921 3.70555C558.265 3.89585 557.612 4.09204 556.961 4.29436L556.813 3.81694C556.157 4.02105 555.504 4.23138 554.855 4.44815L555.013 4.92242C554.365 5.13881 553.72 5.36163 553.079 5.5911L552.911 5.12035C552.264 5.35182 551.621 5.59007 550.982 5.8353L551.161 6.30212C550.523 6.54679 549.889 6.79842 549.26 7.05725L549.07 6.5948C548.434 6.85607 547.803 7.12467 547.176 7.40081L547.377 7.85839C546.752 8.13386 546.131 8.41686 545.515 8.70761L545.302 8.25544C544.68 8.54889 544.063 8.85023 543.451 9.1597L543.676 9.6059C543.067 9.91404 542.463 10.2302 541.864 10.5548L541.626 10.1151C541.021 10.4426 540.422 10.7786 539.828 11.1232L540.079 11.5556C539.489 11.8982 538.905 12.2495 538.326 12.6096L538.062 12.1851C537.478 12.5484 536.9 12.9206 536.329 13.3021L536.606 13.718C536.039 14.0965 535.478 14.4842 534.923 14.8811L534.632 14.4745C534.073 14.8744 533.521 15.2838 532.975 15.7028L533.279 16.0994C532.739 16.5143 532.205 16.9388 531.678 17.373L531.36 16.9872C530.83 17.4241 530.307 17.8709 529.791 18.3277L530.122 18.7021C529.613 19.1535 529.11 19.6147 528.614 20.0861L528.27 19.7239C527.773 20.1966 527.283 20.6795 526.801 21.1728L527.159 21.5223C526.684 22.0082 526.216 22.5043 525.756 23.0106L525.386 22.6745C525.155 22.9294 524.925 23.187 524.697 23.4472C524.468 23.7099 524.243 23.9748 524.024 24.2417L524.41 24.559C523.975 25.0884 523.562 25.6258 523.169 26.1709L522.763 25.8783C522.357 26.4413 521.972 27.0123 521.607 27.591L522.03 27.8576C521.666 28.4349 521.323 29.02 520.998 29.6126L520.56 29.3725C520.227 29.9793 519.915 30.5937 519.622 31.2152L520.074 31.4287C519.783 32.0437 519.512 32.6659 519.257 33.295L518.794 33.1075C518.536 33.7454 518.295 34.3899 518.072 35.0405L518.545 35.203C518.325 35.8441 518.12 36.4915 517.931 37.145L517.451 37.0061C517.261 37.6642 517.086 38.328 516.925 38.9971L517.411 39.1141C517.252 39.7721 517.108 40.4356 516.975 41.1042L516.485 41.0072C516.352 41.6773 516.232 42.3522 516.124 43.0314L516.617 43.1104C516.511 43.7786 516.415 44.4513 516.329 45.1283L515.833 45.0655C515.747 45.7415 515.672 46.4214 515.605 47.1047L516.103 47.1533C516.037 47.826 515.98 48.5024 515.931 49.1822L515.432 49.146C515.383 49.8242 515.341 50.5055 515.306 51.1895L515.805 51.2151C515.771 51.8908 515.742 52.5694 515.72 53.2507L515.22 53.234C515.197 53.9134 515.18 54.5951 515.168 55.2788L515.668 55.288C515.655 55.9654 515.647 56.6449 515.642 57.3263L515.142 57.3229C515.138 58.0022 515.137 58.6831 515.138 59.3653L515.638 59.3643C515.64 60.0417 515.644 60.7207 515.649 61.4009L515.149 61.4051C515.155 62.0838 515.162 62.7636 515.17 63.4441L515.67 63.4382C515.677 64.0071 515.684 64.5766 515.691 65.1466C515.693 65.2563 515.694 65.3661 515.695 65.4758L515.195 65.4821C515.204 66.1609 515.212 66.8398 515.22 67.519L515.72 67.5135C515.727 68.1925 515.734 68.8718 515.738 69.551L515.238 69.5544C515.243 70.2327 515.245 70.9108 515.245 71.5885L515.745 71.5885C515.745 72.2682 515.742 72.9476 515.736 73.6263L515.236 73.6216C515.229 74.2997 515.219 74.9769 515.205 75.653L515.705 75.6638C515.69 76.3437 515.671 77.0227 515.646 77.7004L515.147 77.6823C515.122 78.3592 515.092 79.0347 515.056 79.7083L515.555 79.7353C515.518 80.4147 515.475 81.0925 515.425 81.7685L514.926 81.7314C514.876 82.4066 514.819 83.0797 514.753 83.7504L515.25 83.7991C515.184 84.4766 515.109 85.1518 515.025 85.8244L514.529 85.7624C514.445 86.433 514.352 87.1007 514.249 87.7654L514.743 87.842C514.639 88.5142 514.524 89.1835 514.398 89.8495L513.907 89.7566C513.782 90.4191 513.645 91.078 513.497 91.7332L513.984 91.8438C513.834 92.5068 513.671 93.1662 513.495 93.8216L513.012 93.6918C512.838 94.3412 512.65 94.9865 512.448 95.6272L512.925 95.7774C512.721 96.4246 512.503 97.0675 512.27 97.7058L511.8 97.5341C511.685 97.8494 511.566 98.1635 511.443 98.4764C511.324 98.7796 511.201 99.0815 511.075 99.3822L511.536 99.5758C511.28 100.184 511.011 100.787 510.728 101.384L510.276 101.17C509.998 101.759 509.706 102.344 509.402 102.923L509.844 103.156C509.539 103.738 509.221 104.316 508.892 104.89L508.458 104.641C508.133 105.207 507.797 105.768 507.451 106.326L507.875 106.59C507.527 107.149 507.169 107.705 506.802 108.256L506.386 107.979C506.024 108.522 505.653 109.061 505.273 109.597L505.681 109.886C505.3 110.422 504.911 110.956 504.514 111.486L504.114 111.186C503.722 111.71 503.321 112.231 502.914 112.749L503.307 113.058C502.901 113.575 502.488 114.09 502.068 114.602L501.682 114.285C501.266 114.791 500.845 115.295 500.418 115.797L500.799 116.121C500.372 116.623 499.94 117.122 499.503 117.62L499.127 117.29C498.694 117.783 498.257 118.274 497.815 118.764L498.186 119.099C497.745 119.588 497.299 120.075 496.851 120.561L496.484 120.221C496.037 120.705 495.588 121.186 495.136 121.667L495.5 122.009C495.048 122.49 494.594 122.969 494.137 123.447L493.776 123.101C493.321 123.578 492.864 124.054 492.406 124.528L492.766 124.875C492.307 125.35 491.848 125.825 491.388 126.298L491.029 125.95C490.569 126.423 490.109 126.896 489.649 127.368L490.007 127.717C489.903 127.824 489.798 127.932 489.694 128.039C489.337 128.405 488.98 128.771 488.625 129.136L488.266 128.788C487.805 129.262 487.344 129.736 486.886 130.209L487.245 130.557C486.785 131.032 486.327 131.507 485.872 131.981L485.511 131.635C485.051 132.114 484.594 132.593 484.141 133.073L484.504 133.416C484.048 133.898 483.596 134.379 483.148 134.861L482.782 134.521C482.33 135.006 481.882 135.493 481.439 135.981L481.809 136.317C481.363 136.808 480.921 137.299 480.486 137.792L480.111 137.461C479.67 137.96 479.234 138.461 478.805 138.963L479.185 139.288C478.754 139.792 478.33 140.297 477.913 140.804L477.527 140.486C477.104 141.001 476.688 141.517 476.281 142.036L476.674 142.345C476.263 142.868 475.861 143.393 475.469 143.921L475.068 143.622C474.668 144.159 474.279 144.699 473.9 145.241L474.309 145.527C473.929 146.071 473.56 146.618 473.203 147.167L472.784 146.895C472.419 147.456 472.066 148.02 471.727 148.588L472.156 148.845C471.815 149.416 471.487 149.99 471.175 150.568L470.735 150.33C470.415 150.92 470.11 151.515 469.822 152.114L470.272 152.331C469.985 152.928 469.713 153.53 469.459 154.135L468.998 153.942C468.739 154.561 468.497 155.185 468.275 155.814L468.746 155.981C468.525 156.604 468.323 157.232 468.142 157.866L467.661 157.728C467.477 158.373 467.312 159.023 467.17 159.679L467.658 159.786C467.518 160.428 467.4 161.077 467.303 161.731L466.809 161.659C466.711 162.319 466.636 162.986 466.584 163.659L467.083 163.698C467.033 164.352 467.005 165.012 467.001 165.678L466.501 165.675C466.496 166.34 466.515 167.011 466.558 167.688L467.057 167.657C467.098 168.305 467.161 168.96 467.247 169.621L466.751 169.686C466.795 170.02 466.845 170.356 466.9 170.693C466.954 171.022 467.013 171.349 467.075 171.674L467.566 171.58C467.689 172.224 467.829 172.859 467.984 173.486L467.498 173.606C467.658 174.251 467.833 174.887 468.024 175.516L468.503 175.37C468.694 175.997 468.9 176.615 469.122 177.225L468.652 177.396C468.879 178.019 469.121 178.633 469.378 179.239L469.838 179.043C470.093 179.644 470.364 180.236 470.648 180.821L470.199 181.04C470.488 181.634 470.792 182.219 471.111 182.797L471.549 182.555C471.863 183.126 472.192 183.688 472.534 184.243L472.108 184.506C472.454 185.066 472.813 185.619 473.185 186.164L473.598 185.882C473.965 186.419 474.344 186.948 474.736 187.471L474.336 187.771C474.731 188.297 475.137 188.815 475.556 189.326L475.943 189.01C476.354 189.512 476.777 190.008 477.211 190.497L476.837 190.829C477.272 191.319 477.717 191.802 478.173 192.279L478.534 191.933C478.983 192.402 479.442 192.865 479.91 193.322L479.561 193.68C480.03 194.137 480.509 194.588 480.996 195.033L481.333 194.663C481.813 195.101 482.301 195.533 482.798 195.959L482.473 196.338C482.969 196.763 483.473 197.183 483.984 197.597L484.299 197.208C484.803 197.616 485.316 198.019 485.835 198.417L485.531 198.814C486.05 199.211 486.577 199.604 487.11 199.991L487.404 199.587C487.929 199.968 488.46 200.345 488.998 200.717L488.713 201.128C489.25 201.499 489.792 201.866 490.34 202.228L490.616 201.811C491.158 202.169 491.706 202.523 492.259 202.872L491.992 203.295C492.544 203.644 493.101 203.989 493.663 204.33L493.923 203.902C494.478 204.238 495.037 204.571 495.601 204.9L495.349 205.332C495.913 205.66 496.482 205.985 497.054 206.306L497.298 205.87C497.866 206.189 498.437 206.503 499.012 206.815L498.773 207.254C499.347 207.565 499.924 207.872 500.504 208.176L500.736 207.733C501.312 208.035 501.891 208.334 502.473 208.629L502.247 209.075C502.829 209.371 503.414 209.663 504.001 209.952L504.222 209.504C504.806 209.791 505.393 210.076 505.981 210.358L505.765 210.809C506.354 211.091 506.944 211.37 507.536 211.647L507.748 211.194C508.338 211.469 508.93 211.742 509.523 212.012L509.316 212.467C509.911 212.738 510.506 213.006 511.102 213.272L511.306 212.815C511.901 213.08 512.498 213.343 513.095 213.604L512.895 214.062C513.494 214.323 514.093 214.582 514.693 214.839L514.89 214.379C515.489 214.636 516.089 214.89 516.688 215.143L516.494 215.603C517.097 215.857 517.7 216.109 518.302 216.358L518.493 215.897C519.097 216.147 519.7 216.395 520.301 216.641L520.112 217.104C520.717 217.351 521.32 217.597 521.922 217.84L522.11 217.377C522.717 217.623 523.322 217.866 523.925 218.108L523.739 218.572C524.347 218.816 524.953 219.058 525.556 219.299L525.742 218.834C526.349 219.076 526.954 219.317 527.557 219.556L527.372 220.021C527.981 220.262 528.587 220.502 529.189 220.741L529.373 220.276C529.458 220.31 529.544 220.343 529.629 220.377C530.153 220.585 530.675 220.791 531.193 220.997L531.009 221.462L531.912 221.82C532.231 221.947 532.551 222.07 532.87 222.188L533.044 221.72C533.68 221.956 534.317 222.177 534.955 222.383L534.802 222.858C535.453 223.069 536.106 223.264 536.76 223.444L536.893 222.962C537.545 223.143 538.198 223.308 538.853 223.461L538.74 223.948C539.405 224.102 540.071 224.243 540.738 224.371L540.832 223.88C541.495 224.007 542.16 224.121 542.826 224.223L542.75 224.718C543.423 224.821 544.097 224.912 544.772 224.992L544.831 224.495C545.5 224.574 546.171 224.642 546.843 224.7L546.801 225.198C547.477 225.256 548.155 225.304 548.834 225.342L548.862 224.842C549.534 224.88 550.208 224.908 550.883 224.928L550.869 225.428C551.546 225.448 552.225 225.459 552.904 225.462L552.906 224.962C553.58 224.966 554.254 224.962 554.93 224.951L554.938 225.451C555.614 225.44 556.292 225.422 556.97 225.399L556.952 224.899C557.625 224.875 558.299 224.846 558.974 224.812L558.999 225.311C559.674 225.277 560.349 225.237 561.026 225.194L560.993 224.695C561.665 224.652 562.338 224.604 563.012 224.553L563.049 225.052C563.723 225.001 564.396 224.947 565.07 224.891L565.029 224.392C565.7 224.336 566.372 224.277 567.044 224.217L567.089 224.715C567.761 224.654 568.433 224.592 569.106 224.529L569.059 224.031C569.73 223.968 570.402 223.904 571.074 223.841L571.121 224.338L571.292 224.322C571.906 224.264 572.52 224.205 573.135 224.147L573.088 223.65C573.759 223.587 574.431 223.524 575.103 223.463L575.148 223.961C575.819 223.9 576.49 223.841 577.161 223.784L577.119 223.286C577.791 223.229 578.463 223.174 579.135 223.122L579.174 223.62C579.845 223.569 580.516 223.52 581.187 223.475L581.153 222.976C581.827 222.931 582.5 222.89 583.173 222.854L583.2 223.353C583.871 223.317 584.543 223.285 585.214 223.258L585.194 222.759C585.868 222.732 586.542 222.711 587.217 222.696L587.228 223.196C587.899 223.182 588.57 223.173 589.241 223.171L589.24 222.671C589.914 222.67 590.589 222.675 591.263 222.688L591.253 223.188C591.924 223.201 592.594 223.222 593.263 223.251L593.285 222.752C593.959 222.781 594.632 222.819 595.305 222.867L595.27 223.366C595.938 223.413 596.605 223.469 597.271 223.535L597.321 223.038C597.991 223.104 598.661 223.181 599.331 223.269L599.266 223.764C599.598 223.808 599.929 223.854 600.261 223.903C600.592 223.951 600.923 224.003 601.253 224.058L601.335 223.565C602.002 223.676 602.668 223.798 603.334 223.932L603.235 224.423C603.891 224.555 604.547 224.698 605.203 224.852L605.317 224.365C605.974 224.52 606.63 224.684 607.286 224.858L607.158 225.342C607.806 225.514 608.454 225.696 609.101 225.886L609.242 225.407C609.891 225.597 610.538 225.797 611.185 226.004L611.032 226.48C611.671 226.685 612.309 226.898 612.947 227.118L613.11 226.645C613.748 226.865 614.386 227.093 615.023 227.326L614.851 227.796C615.483 228.027 616.114 228.266 616.745 228.509L616.926 228.043C617.555 228.286 618.185 228.535 618.813 228.789L618.626 229.253C619.25 229.505 619.874 229.762 620.497 230.024L620.691 229.563C621.314 229.824 621.938 230.09 622.56 230.36L622.361 230.818C622.98 231.086 623.599 231.358 624.217 231.632L624.42 231.175C625.038 231.45 625.656 231.727 626.273 232.007L626.067 232.462C626.682 232.741 627.297 233.022 627.912 233.305L628.121 232.85C628.736 233.133 629.35 233.418 629.964 233.703L629.753 234.157C630.367 234.442 630.98 234.728 631.593 235.015L631.805 234.562C632.319 234.803 632.833 235.044 633.346 235.284C633.446 235.331 633.545 235.377 633.644 235.424L633.432 235.877C634.046 236.164 634.659 236.451 635.271 236.737L635.483 236.284C636.098 236.571 636.712 236.858 637.325 237.142L637.115 237.596C637.731 237.881 638.347 238.165 638.962 238.447L639.17 237.992C639.787 238.274 640.403 238.554 641.018 238.831L640.813 239.287C641.434 239.566 642.054 239.842 642.674 240.115L642.875 239.657C643.497 239.93 644.119 240.2 644.74 240.465L644.543 240.925C645.17 241.192 645.796 241.455 646.421 241.712L646.611 241.25C647.24 241.509 647.867 241.762 648.494 242.009L648.311 242.474C648.947 242.725 649.582 242.969 650.217 243.207L650.392 242.738C651.029 242.977 651.666 243.208 652.301 243.431L652.136 243.903C652.78 244.129 653.424 244.347 654.068 244.557L654.222 244.081C654.87 244.292 655.517 244.494 656.163 244.686L656.021 245.165C656.678 245.36 657.335 245.546 657.991 245.72L658.12 245.237C658.777 245.411 659.434 245.575 660.09 245.726L659.977 246.213C660.645 246.368 661.312 246.51 661.979 246.639L662.074 246.148C662.742 246.277 663.409 246.393 664.076 246.494L664 246.988C664.68 247.092 665.359 247.181 666.037 247.254L666.091 246.757C666.766 246.83 667.44 246.887 668.114 246.927L668.083 247.426C668.769 247.468 669.453 247.492 670.137 247.498L670.142 246.998C670.819 247.005 671.496 246.993 672.172 246.963L672.195 247.462C672.879 247.431 673.564 247.381 674.248 247.311L674.197 246.814C674.868 246.745 675.538 246.657 676.208 246.548L676.288 247.041C676.963 246.931 677.637 246.801 678.31 246.649L678.2 246.161C678.857 246.013 679.513 245.844 680.168 245.653L680.308 246.133C680.962 245.942 681.616 245.73 682.269 245.496L682.1 245.026C682.729 244.8 683.357 244.554 683.984 244.285L684.181 244.745C684.498 244.61 684.815 244.469 685.131 244.322C685.443 244.178 685.752 244.03 686.057 243.88L685.836 243.431C686.442 243.132 687.036 242.821 687.619 242.497L687.862 242.934C688.46 242.602 689.046 242.257 689.621 241.9L689.357 241.475C689.93 241.118 690.492 240.749 691.043 240.367L691.328 240.778C691.888 240.39 692.437 239.989 692.975 239.576L692.671 239.179C693.205 238.77 693.727 238.348 694.239 237.915L694.562 238.296C695.082 237.856 695.59 237.405 696.087 236.942L695.747 236.576C696.239 236.118 696.72 235.65 697.191 235.17L697.548 235.52C698.023 235.036 698.488 234.541 698.943 234.036L698.572 233.702C699.021 233.203 699.46 232.694 699.889 232.176L700.274 232.495C700.706 231.973 701.129 231.441 701.542 230.9L701.145 230.597C701.551 230.064 701.949 229.523 702.338 228.973L702.746 229.261C703.136 228.709 703.517 228.149 703.889 227.581L703.471 227.307C703.838 226.746 704.197 226.178 704.547 225.602L704.974 225.862C705.326 225.285 705.669 224.701 706.005 224.109L705.57 223.862C705.9 223.28 706.223 222.691 706.539 222.095L706.981 222.329C707.296 221.734 707.604 221.132 707.905 220.524L707.458 220.302C707.755 219.702 708.046 219.096 708.33 218.484L708.784 218.695C709.068 218.083 709.346 217.466 709.617 216.843L709.159 216.643C709.427 216.03 709.689 215.412 709.945 214.788L710.407 214.979C710.663 214.356 710.913 213.729 711.158 213.097L710.692 212.917C710.934 212.291 711.171 211.662 711.403 211.029L711.872 211.201C712.104 210.568 712.331 209.932 712.552 209.292L712.08 209.129C712.299 208.496 712.514 207.859 712.724 207.22L713.199 207.376C713.41 206.736 713.615 206.094 713.817 205.448L713.34 205.299C713.54 204.659 713.736 204.015 713.928 203.369L714.408 203.512C714.6 202.867 714.788 202.22 714.972 201.571L714.491 201.434C714.674 200.789 714.854 200.141 715.031 199.492L715.513 199.623C715.69 198.973 715.863 198.321 716.033 197.668L715.55 197.542C715.719 196.893 715.885 196.241 716.049 195.589L716.534 195.711C716.697 195.058 716.858 194.403 717.016 193.748L716.53 193.631C716.688 192.978 716.843 192.324 716.996 191.669L717.483 191.783C717.636 191.127 717.787 190.471 717.936 189.815L717.448 189.704C717.597 189.048 717.743 188.392 717.888 187.736L718.376 187.843C718.521 187.186 718.664 186.528 718.806 185.871L718.317 185.766C718.458 185.108 718.598 184.451 718.737 183.794L719.226 183.897C719.365 183.238 719.503 182.579 719.639 181.921L719.149 181.819C719.286 181.16 719.422 180.501 719.557 179.844L720.046 179.945C720.182 179.285 720.316 178.627 720.449 177.97L719.959 177.87C720.094 177.209 720.227 176.55 720.361 175.893L720.851 175.992L720.918 175.659C721.03 175.109 721.141 174.561 721.252 174.015L720.762 173.916C720.896 173.255 721.03 172.596 721.163 171.941L721.653 172.041C721.788 171.38 721.923 170.723 722.059 170.068L721.569 169.967C721.706 169.305 721.843 168.646 721.981 167.99L722.47 168.093C722.539 167.765 722.608 167.438 722.677 167.112C722.746 166.79 722.813 166.467 722.879 166.145L722.389 166.045C722.52 165.402 722.646 164.759 722.767 164.117L723.258 164.209C723.38 163.561 723.496 162.914 723.607 162.267L723.114 162.182C723.225 161.536 723.331 160.889 723.432 160.242L723.926 160.319C724.027 159.668 724.123 159.017 724.214 158.366L723.719 158.297C723.81 157.648 723.896 156.998 723.977 156.348L724.473 156.41C724.554 155.757 724.63 155.104 724.701 154.451L724.204 154.396C724.275 153.744 724.341 153.093 724.403 152.441L724.9 152.488C724.962 151.832 725.019 151.177 725.07 150.522L724.572 150.482C724.624 149.829 724.67 149.175 724.712 148.521L725.211 148.554C725.254 147.897 725.291 147.24 725.324 146.584L724.825 146.559C724.857 145.904 724.885 145.25 724.909 144.595L725.409 144.613C725.432 143.956 725.451 143.299 725.465 142.642L724.966 142.631C724.98 141.975 724.99 141.32 724.995 140.665L725.495 140.669C725.5 140.012 725.501 139.354 725.498 138.697L724.998 138.699C724.995 138.044 724.987 137.389 724.975 136.734L725.475 136.725C725.463 136.067 725.446 135.41 725.426 134.753L724.926 134.769C724.905 134.114 724.881 133.459 724.852 132.804L725.351 132.782C725.323 132.126 725.29 131.469 725.253 130.813L724.753 130.841C724.717 130.187 724.676 129.533 724.631 128.879L725.13 128.845C725.085 128.19 725.036 127.534 724.983 126.879L724.485 126.919C724.432 126.266 724.376 125.614 724.316 124.961L724.814 124.915C724.754 124.261 724.69 123.607 724.622 122.953L724.125 123.004C724.057 122.353 723.986 121.701 723.912 121.05L724.408 120.993C724.334 120.341 724.255 119.689 724.174 119.036L723.677 119.099C723.596 118.449 723.511 117.799 723.423 117.15L723.918 117.082C723.83 116.432 723.738 115.781 723.643 115.131L723.148 115.203C723.053 114.555 722.955 113.907 722.854 113.259L723.348 113.182C723.246 112.534 723.142 111.885 723.034 111.237L722.541 111.319C722.433 110.673 722.323 110.027 722.209 109.381L722.702 109.295C722.588 108.648 722.472 108.002 722.352 107.356L721.86 107.447C721.741 106.803 721.619 106.159 721.494 105.516L721.985 105.42C721.86 104.776 721.732 104.132 721.601 103.488L721.111 103.587C720.981 102.946 720.848 102.304 720.713 101.662L721.202 101.559C721.066 100.917 720.928 100.275 720.787 99.6339L720.299 99.7411C720.158 99.1016 720.015 98.4621 719.87 97.8228L720.357 97.7119C720.212 97.0721 720.064 96.4325 719.913 95.7931L719.426 95.9076C719.276 95.2701 719.124 94.6328 718.969 93.9955L719.455 93.8775C719.3 93.2402 719.143 92.6029 718.984 91.9659L718.499 92.0872C718.34 91.452 718.179 90.8169 718.015 90.182L718.5 90.0575C718.418 89.7396 718.336 89.4218 718.253 89.104C718.169 88.7809 718.085 88.4574 718.001 88.1335L717.517 88.2589C717.349 87.6112 717.182 86.9622 717.015 86.3119L717.499 86.1877C717.333 85.5401 717.167 84.8912 717.002 84.2412L716.517 84.3648C716.352 83.7167 716.187 83.0676 716.021 82.4177L716.506 82.2945L716.364 81.7376C716.246 81.2743 716.128 80.8106 716.01 80.3466L715.526 80.4699C715.36 79.8212 715.195 79.1718 715.029 78.5221L715.513 78.3982C715.347 77.7494 715.181 77.1002 715.014 76.4507L714.529 76.5754C714.363 75.927 714.195 75.2784 714.026 74.6299L714.51 74.504C714.341 73.8553 714.171 73.2066 714 72.5581L713.517 72.6856C713.346 72.0379 713.174 71.3904 713 70.7432L713.483 70.6137C713.309 69.9659 713.134 69.3184 712.957 68.6715L712.475 68.8034C712.298 68.157 712.12 67.5111 711.939 66.8661L712.421 66.7315C712.24 66.085 712.057 65.4393 711.873 64.7945L711.392 64.9322C711.207 64.288 711.021 63.6447 710.831 63.0025L711.311 62.8613C711.121 62.2169 710.929 61.5736 710.734 60.9317L710.256 61.0769C710.061 60.4351 709.864 59.7948 709.664 59.1559L710.141 59.0065C709.94 58.365 709.736 57.7251 709.529 57.0869L709.053 57.2411C708.847 56.6033 708.637 55.9672 708.424 55.3332L708.898 55.1738C708.683 54.5362 708.465 53.9005 708.244 53.2668L707.772 53.4317C707.551 52.7982 707.326 52.1669 707.097 51.538L707.567 51.3672C707.337 50.7346 707.104 50.1044 706.866 49.4767L706.398 49.6539C706.161 49.0267 705.919 48.4021 705.673 47.7804L706.138 47.5964C705.89 46.9702 705.637 46.3467 705.381 45.7262L704.919 45.9175C704.662 45.2973 704.4 44.6802 704.134 44.0664L704.593 43.8675C704.325 43.2492 704.052 42.6342 703.773 42.0227L703.318 42.2297C703.041 41.6192 702.758 41.0121 702.469 40.4089L702.92 40.1932C702.63 39.5851 702.333 38.9807 702.031 38.3802L701.585 38.6048C701.283 38.0052 700.976 37.4096 700.663 36.8182L701.105 36.5842C700.789 35.9881 700.467 35.3963 700.139 34.8088L699.702 35.0527C699.375 34.4672 699.042 33.8862 698.702 33.3099L699.133 33.0559C698.79 32.475 698.441 31.8987 698.085 31.3274L697.661 31.5919C697.306 31.0229 696.944 30.4589 696.575 29.9001L696.993 29.6247C696.621 29.0616 696.242 28.5036 695.856 27.9511L695.446 28.2376C695.062 27.6885 694.671 27.1449 694.272 26.6069L694.674 26.3091C694.272 25.7673 693.862 25.2312 693.445 24.701L693.052 25.0103C692.638 24.4842 692.215 23.964 691.785 23.45L692.168 23.129C691.735 22.6121 691.294 22.1014 690.845 21.5969L690.472 21.9296C690.027 21.4303 689.573 20.9374 689.112 20.451L689.474 20.1067C689.01 19.618 688.537 19.1358 688.056 18.6604L687.705 19.0162C687.229 18.5465 686.744 18.0834 686.251 17.6273L686.59 17.2601C686.096 16.8031 685.593 16.3529 685.08 15.9098L684.753 16.2881C684.249 15.8519 683.735 15.4226 683.212 15.0004L683.527 14.6114C683.264 14.399 682.998 14.1883 682.73 13.9794C682.459 13.7679 682.187 13.5588 681.914 13.352L681.612 13.7509C681.068 13.3399 680.52 12.9384 679.967 12.5462L680.257 12.1384C679.697 11.7412 679.132 11.3533 678.563 10.9748L678.286 11.391C677.719 11.0135 677.147 10.6452 676.571 10.2859L676.835 9.86162C676.253 9.49874 675.667 9.14504 675.076 8.80032L674.824 9.23214C674.237 8.88905 673.645 8.55489 673.048 8.22946L673.288 7.7906C672.687 7.46232 672.081 7.14288 671.472 6.8321L671.245 7.27751C670.639 6.96837 670.029 6.66782 669.415 6.37566L669.63 5.92419C669.011 5.62999 668.39 5.34425 667.764 5.06679L667.561 5.52384C666.94 5.24816 666.315 4.98067 665.686 4.72117L665.877 4.259C665.245 3.99797 664.609 3.74499 663.97 3.49985L663.791 3.96668C663.156 3.72326 662.518 3.4876 661.877 3.25949L662.045 2.78842C661.401 2.55932 660.754 2.33782 660.104 2.12371L659.948 2.5986C659.302 2.38603 658.654 2.18077 658.003 1.9826L658.149 1.50427C657.495 1.30537 656.839 1.1136 656.18 0.928773L656.045 1.41019C655.391 1.22668 654.734 1.05003 654.074 0.880022L654.199 0.395854C653.538 0.225493 652.875 0.0617962 652.21 -0.0954375L652.095 0.391168C651.434 0.235047 650.771 0.0853138 650.105 -0.0582278L650.211 -0.546986C649.543 -0.690876 648.874 -0.828559 648.203 -0.960233L648.107 -0.469587C647.44 -0.600375 646.772 -0.72522 646.101 -0.844317L646.188 -1.33661C645.517 -1.45586 644.844 -1.56936 644.169 -1.6773L644.09 -1.18357C643.419 -1.29081 642.747 -1.39254 642.073 -1.48898L642.144 -1.98393C641.469 -2.08054 640.792 -2.17183 640.114 -2.258L640.051 -1.76199C639.377 -1.84766 638.702 -1.92826 638.025 -2.00397L638.081 -2.50087C637.403 -2.57667 636.725 -2.64758 636.045 -2.71379L635.996 -2.21615C635.32 -2.282 634.643 -2.34319 633.965 -2.39992L634.007 -2.89818C633.328 -2.955 632.647 -3.00734 631.966 -3.0554L631.931 -2.55664C631.253 -2.60447 630.574 -2.64805 629.895 -2.68755L629.924 -3.18671C629.244 -3.22627 628.562 -3.26174 627.881 -3.29333L627.858 -2.79386C627.179 -2.82532 626.499 -2.85291 625.82 -2.87681L625.837 -3.3765C625.156 -3.40044 624.474 -3.42069 623.793 -3.43743L623.78 -2.93758C623.101 -2.95427 622.421 -2.96746 621.741 -2.97733L621.748 -3.47727C621.066 -3.48717 620.385 -3.49373 619.703 -3.49716L619.701 -2.99717C619.021 -3.00059 618.341 -3.00088 617.661 -2.99821L617.659 -3.49821C616.977 -3.49554 616.296 -3.4899 615.614 -3.4815L615.621 -2.98153C614.94 -2.97314 614.26 -2.96196 613.581 -2.94819L613.571 -3.44809C612.889 -3.43428 612.208 -3.41787 611.528 -3.39904L611.542 -2.89923C610.861 -2.8804 610.181 -2.85914 609.502 -2.83564L609.485 -3.33534C608.803 -3.31177 608.123 -3.28594 607.443 -3.25805L607.463 -2.75847C606.783 -2.73056 606.104 -2.70058 605.426 -2.66872L605.402 -3.16817C604.721 -3.13616 604.041 -3.10226 603.362 -3.06665L603.388 -2.56733C602.708 -2.53164 602.029 -2.49423 601.351 -2.45528L601.322 -2.95446C600.982 -2.93495 600.643 -2.91505 600.304 -2.89479Z" stroke="#FAB031" stroke-dasharray="2 2"/>
<path fill-rule="evenodd" clip-rule="evenodd" d="M78.2945 81.7111C105.234 62.8751 115.523 19.6809 148.34 17.7326C186.785 15.4503 235.452 34.5779 245.514 71.7837C255.62 109.157 201.934 131.609 188.998 168.081C176.278 203.946 203.975 254.887 172.829 276.721C141.984 298.345 102.335 265.605 66.4932 253.961C29.3284 241.887 -24.4391 245.726 -36.7735 208.627C-49.248 171.107 -8.33153 137.991 18.2052 108.722C33.5412 91.8068 59.5846 94.7929 78.2945 81.7111Z" fill="#FFE9C2"/>
<path fill-rule="evenodd" clip-rule="evenodd" d="M86.925 100.403C107.949 85.7033 115.978 51.9939 141.59 50.4735C171.592 48.6923 209.573 63.6197 217.425 92.6556C225.312 121.822 183.415 139.344 173.32 167.807C163.393 195.797 185.008 235.552 160.701 252.592C136.629 269.467 105.687 243.917 77.7151 234.829C48.7112 225.407 6.75028 228.403 -2.87562 199.45C-12.6109 170.169 19.3209 144.325 40.0305 121.483C51.9989 108.282 72.3235 110.612 86.925 100.403Z" fill="#FFFAE6"/>
<path d="M91.8238 6.46255C91.4888 6.57394 91.1584 6.69038 90.8325 6.81178L91.0071 7.28032C90.3631 7.52025 89.7374 7.77976 89.129 8.05805L88.921 7.60337C88.2841 7.89477 87.6658 8.20645 87.0653 8.53751L87.3067 8.97537C86.7054 9.30691 86.1223 9.6582 85.5566 10.0283L85.2829 9.60988C84.7005 9.99088 84.1364 10.3914 83.5894 10.8104L83.8935 11.2073C83.3527 11.6215 82.8289 12.0543 82.3211 12.5045L81.9894 12.1304C81.4718 12.5893 80.9709 13.0659 80.4856 13.5591L80.842 13.9098C80.366 14.3934 79.9051 14.8935 79.4582 15.4091L79.0804 15.0816C78.6305 15.6006 78.195 16.1347 77.7728 16.6829L78.1689 16.988C77.7563 17.5237 77.3563 18.0734 76.9679 18.6362L76.5564 18.3523C76.1676 18.9158 75.7906 19.4919 75.4245 20.0797L75.8489 20.344C75.4909 20.9187 75.1432 21.505 74.805 22.1021L74.37 21.8556C74.0345 22.4479 73.7084 23.0502 73.3908 23.6619L73.8346 23.8923C73.5235 24.4915 73.2204 25.1001 72.9247 25.7173L72.4738 25.5012C72.1793 26.1157 71.8922 26.7384 71.6116 27.3683L72.0683 27.5718C71.7928 28.1903 71.5235 28.8163 71.2597 29.4489L70.7983 29.2564C70.537 29.883 70.2812 30.5157 70.0302 31.154L70.4955 31.337C70.2477 31.9669 70.0046 32.6024 69.7653 33.2428L69.2969 33.0678C69.0586 33.7055 68.8242 34.3479 68.5931 34.9942L69.0639 35.1626C68.8359 35.8001 68.611 36.4417 68.3885 37.0868L67.9158 36.9238C67.6943 37.566 67.4752 38.2115 67.258 38.8596L67.7321 39.0185C67.5163 39.6622 67.3022 40.3087 67.0893 40.9573L66.6143 40.8013C66.4023 41.447 66.1915 42.0947 65.9812 42.7435L66.4568 42.8977C66.2475 43.5436 66.0387 44.1911 65.8297 44.8393L65.3538 44.6859L65.2399 45.0394C65.0693 45.5689 64.8985 46.0987 64.7273 46.6287L65.2031 46.7825C64.994 47.4295 64.7842 48.0768 64.5731 48.7237L64.0978 48.5686C63.8869 49.2149 63.6747 49.8606 63.4607 50.5052L63.9352 50.6627C63.7206 51.3089 63.5042 51.954 63.2851 52.5976L62.8118 52.4365C62.5929 53.0797 62.3716 53.7211 62.1472 54.3601L62.6189 54.5258C62.3929 55.1692 62.1638 55.8104 61.9309 56.4488L61.4612 56.2774C61.2282 56.9158 60.9916 57.5512 60.7506 58.1829L61.2177 58.3612C60.9749 58.9977 60.7276 59.6306 60.4752 60.2595L60.0112 60.0732C59.7579 60.7044 59.4995 61.3312 59.2354 61.953L59.6956 62.1484C59.4287 62.7769 59.1559 63.4004 58.8765 64.0183L58.4209 63.8124C58.1417 64.4301 57.856 65.042 57.5632 65.6474L58.0133 65.8651C57.7158 66.4801 57.411 67.0887 57.098 67.6902L56.6545 67.4594C56.3415 68.061 56.0204 68.6552 55.6907 69.2412L56.1265 69.4864C55.7919 70.0811 55.4483 70.6678 55.095 71.2458L54.6684 70.985C54.316 71.5614 53.954 72.1287 53.5817 72.6863L53.9975 72.964C53.6183 73.5319 53.2283 74.09 52.8269 74.6377L52.4236 74.3421C52.0251 74.8856 51.6154 75.4184 51.1937 75.9398L51.5824 76.2543C51.1543 76.7835 50.7138 77.3014 50.2602 77.807L49.888 77.4731C49.4396 77.9729 48.9783 78.4605 48.5034 78.935L48.8569 79.2887C48.3769 79.7684 47.8829 80.2353 47.3744 80.6884L47.0417 80.3151C46.7912 80.5383 46.5372 80.7582 46.2794 80.9745C46.0203 81.1921 45.7583 81.4046 45.4937 81.6121L45.8023 82.0055C45.2629 82.4288 44.7125 82.8319 44.1518 83.216L43.8692 82.8036C43.3134 83.1845 42.747 83.5466 42.1709 83.8911L42.4275 84.3202C41.8409 84.671 41.2445 85.0036 40.639 85.3193L40.4078 84.8759C39.8111 85.187 39.2051 85.4816 38.5905 85.7608L38.7973 86.216C38.177 86.4978 37.5483 86.764 36.912 87.0157L36.7281 86.5508C36.1023 86.7983 35.4688 87.0319 34.828 87.2526L34.9908 87.7253C34.3473 87.9469 33.697 88.1556 33.0405 88.3525L32.8969 87.8736C32.251 88.0673 31.5987 88.2495 30.9406 88.4214L31.067 88.9052C30.4083 89.0773 29.7442 89.239 29.0753 89.3914L28.9642 88.9039C28.3056 89.054 27.6421 89.1952 26.9742 89.3283L27.072 89.8187C26.4048 89.9517 25.7336 90.0768 25.059 90.195L24.9727 89.7025C24.3055 89.8194 23.6347 89.9296 22.9609 90.034L23.0375 90.5281C22.3641 90.6325 21.6879 90.7311 21.0096 90.8251L20.941 90.3298C20.268 90.423 19.5925 90.5116 18.9152 90.5966L18.9774 91.0927C18.3006 91.1776 17.6223 91.2589 16.9429 91.3375L16.8855 90.8408C16.209 90.9191 15.5312 90.9947 14.8527 91.0688L14.907 91.5658C14.228 91.6399 13.5486 91.7123 12.8693 91.784L12.8168 91.2868C12.1372 91.3586 11.4582 91.4296 10.7789 91.5011L10.8312 91.9983C10.1512 92.0698 9.4719 92.1417 8.79382 92.2148L8.74022 91.7177C8.05948 91.7911 7.37967 91.8658 6.70145 91.9428L6.75789 92.4397C6.07721 92.517 5.39834 92.5966 4.72188 92.6796L4.661 92.1833C3.97891 92.267 3.29895 92.3541 2.62175 92.4457L2.68873 92.9412C2.00926 93.033 1.33284 93.1293 0.660088 93.2311L0.58527 92.7368C-0.0956535 92.8398 -0.77319 92.9485 -1.44668 93.064L-1.36217 93.5568C-2.03804 93.6727 -2.70949 93.7954 -3.37592 93.926L-3.47206 93.4353C-4.15007 93.5682 -4.8233 93.7092 -5.49104 93.8596L-5.38117 94.3474C-6.0516 94.4984 -6.7161 94.6588 -7.374 94.8298L-7.49981 94.3459C-8.17041 94.5203 -8.83466 94.7056 -9.4918 94.9033L-9.34778 95.3821C-10.0053 95.5799 -10.6552 95.7899 -11.2968 96.0136L-11.4614 95.5414C-12.1164 95.7697 -12.7634 96.0122 -13.4015 96.2701L-13.2141 96.7337C-13.8495 96.9905 -14.4755 97.2628 -15.0914 97.5517L-15.3037 97.099C-15.932 97.3937 -16.5504 97.7058 -17.1579 98.0366L-16.9188 98.4757C-17.519 98.8025 -18.1081 99.1477 -18.6854 99.5126L-18.9526 99.0899C-19.5385 99.4603 -20.1128 99.8509 -20.6744 100.263L-20.3786 100.666C-20.9266 101.068 -21.4622 101.491 -21.9846 101.936L-22.3088 101.555C-22.8337 102.002 -23.3457 102.471 -23.8438 102.963L-23.4924 103.319C-23.9727 103.794 -24.44 104.29 -24.8935 104.81L-25.2702 104.481C-25.4992 104.743 -25.7247 105.011 -25.9467 105.285C-26.1587 105.547 -26.3682 105.81 -26.5751 106.075L-26.1813 106.383C-26.5921 106.908 -26.9928 107.439 -27.3836 107.975L-27.7877 107.681C-28.1838 108.224 -28.5697 108.773 -28.9457 109.328L-28.5319 109.608C-28.9063 110.16 -29.2708 110.717 -29.6256 111.28L-30.0484 111.013C-30.407 111.581 -30.7556 112.154 -31.0945 112.732L-30.6632 112.985C-31 113.56 -31.3271 114.139 -31.6448 114.723L-32.0841 114.484C-32.4047 115.074 -32.7158 115.668 -33.0174 116.267L-32.5709 116.492C-32.8704 117.086 -33.1606 117.685 -33.4417 118.289L-33.8949 118.078C-34.1781 118.685 -34.452 119.297 -34.717 119.913L-34.2577 120.111C-34.5204 120.722 -34.7744 121.337 -35.0195 121.956L-35.4844 121.772C-35.7311 122.395 -35.969 123.021 -36.1983 123.652L-35.7284 123.823C-35.9558 124.448 -36.1747 125.076 -36.3852 125.709L-36.8596 125.551C-37.0711 126.185 -37.2742 126.824 -37.4693 127.465L-36.9909 127.611C-37.1842 128.246 -37.3695 128.886 -37.547 129.528L-38.0289 129.395C-38.2071 130.039 -38.3774 130.687 -38.54 131.338L-38.0549 131.459C-38.2161 132.104 -38.3698 132.752 -38.516 133.403L-39.0039 133.293C-39.1504 133.945 -39.2896 134.599 -39.4216 135.256L-38.9313 135.355C-39.0622 136.006 -39.1859 136.66 -39.3026 137.316L-39.7949 137.229C-39.912 137.887 -40.0221 138.547 -40.1255 139.209L-39.6314 139.286C-39.734 139.943 -39.8298 140.602 -39.9191 141.262L-40.4146 141.195C-40.5041 141.857 -40.587 142.521 -40.6636 143.186L-40.1669 143.243C-40.2429 143.903 -40.3127 144.565 -40.3763 145.228L-40.874 145.181C-40.9378 145.845 -40.9955 146.512 -41.0473 147.179L-40.5488 147.218C-40.6002 147.881 -40.6458 148.545 -40.6856 149.21L-41.1847 149.18C-41.2246 149.847 -41.2588 150.514 -41.2875 151.183L-40.788 151.204C-40.8165 151.868 -40.8395 152.534 -40.8572 153.199L-41.357 153.186C-41.3748 153.854 -41.3872 154.522 -41.3945 155.19L-40.8945 155.196C-40.9017 155.861 -40.9038 156.527 -40.901 157.193L-41.401 157.195C-41.3982 157.863 -41.3904 158.531 -41.3778 159.199L-40.8778 159.189C-40.8653 159.855 -40.848 160.52 -40.8261 161.185L-41.3258 161.202C-41.3038 161.869 -41.2773 162.537 -41.2462 163.204L-40.7468 163.181C-40.7158 163.845 -40.6805 164.51 -40.6408 165.175L-41.14 165.204C-41.1002 165.871 -41.0561 166.537 -41.008 167.203L-40.5093 167.167C-40.4612 167.831 -40.4091 168.495 -40.353 169.158L-40.8512 169.2C-40.7949 169.865 -40.7346 170.53 -40.6705 171.194L-40.1728 171.146C-40.1088 171.809 -40.041 172.471 -39.9696 173.132L-40.4667 173.186C-40.3949 173.85 -40.3195 174.514 -40.2405 175.176L-39.7441 175.116C-39.6651 175.778 -39.5827 176.439 -39.497 177.098L-39.9928 177.163C-39.9066 177.826 -39.817 178.487 -39.7243 179.147L-39.2291 179.077C-39.1364 179.737 -39.0404 180.396 -38.9414 181.052L-39.4358 181.127C-39.3361 181.788 -39.2333 182.447 -39.1276 183.105L-38.634 183.025C-38.5281 183.684 -38.4192 184.341 -38.3077 184.996L-38.8005 185.08C-38.7446 185.409 -38.6879 185.737 -38.6306 186.064L-38.4618 187.029L-37.9693 186.942C-37.9577 187.009 -37.9461 187.075 -37.9345 187.141C-37.8332 187.72 -37.7313 188.303 -37.6288 188.888L-38.1213 188.974C-38.0088 189.616 -37.8955 190.261 -37.7811 190.91L-37.2887 190.823C-37.1752 191.467 -37.0607 192.113 -36.945 192.763L-37.4373 192.85C-37.3223 193.496 -37.2062 194.144 -37.0887 194.794L-36.5967 194.705C-36.4806 195.348 -36.3633 195.992 -36.2444 196.639L-36.7362 196.73C-36.6177 197.374 -36.4978 198.02 -36.3762 198.669L-35.8848 198.576C-35.7639 199.22 -35.6415 199.866 -35.5172 200.513L-36.0083 200.607C-35.8847 201.251 -35.7593 201.896 -35.632 202.541L-35.1414 202.445C-35.0146 203.088 -34.8858 203.732 -34.755 204.377L-35.245 204.476C-35.1144 205.12 -34.9818 205.764 -34.8469 206.409L-34.3575 206.306C-34.2232 206.948 -34.0866 207.59 -33.9477 208.232L-34.4363 208.338C-34.2973 208.981 -34.1559 209.623 -34.0119 210.266L-33.524 210.156C-33.3805 210.797 -33.2345 211.437 -33.0857 212.076L-33.5727 212.19C-33.4237 212.83 -33.2719 213.471 -33.1173 214.111L-32.6313 213.993C-32.477 214.631 -32.3199 215.269 -32.1597 215.905L-32.6446 216.027C-32.4838 216.666 -32.32 217.304 -32.1529 217.94L-31.6693 217.813C-31.5025 218.449 -31.3324 219.083 -31.1591 219.716L-31.6413 219.848C-31.4671 220.483 -31.2895 221.117 -31.1083 221.749L-30.6276 221.612C-30.4464 222.244 -30.2615 222.874 -30.073 223.503L-30.5519 223.646C-30.3622 224.278 -30.1689 224.908 -29.9715 225.535L-29.4946 225.384C-29.2971 226.012 -29.0956 226.637 -28.89 227.259L-29.3647 227.416C-29.1574 228.044 -28.9458 228.668 -28.7299 229.29L-28.2576 229.126C-28.0418 229.747 -27.8217 230.365 -27.5971 230.979L-28.0666 231.151C-27.8394 231.772 -27.6075 232.39 -27.3708 233.004L-26.9042 232.824C-26.6673 233.439 -26.4256 234.05 -26.1788 234.656L-26.642 234.844C-26.3929 235.457 -26.1388 236.064 -25.8794 236.668L-25.42 236.47C-25.1594 237.076 -24.8935 237.678 -24.6221 238.274L-25.0772 238.481C-24.8027 239.084 -24.5225 239.682 -24.2365 240.275L-23.7862 240.058C-23.5003 240.65 -23.2086 241.237 -22.9109 241.818L-23.3559 242.046C-23.0531 242.637 -22.744 243.222 -22.4285 243.801L-21.9895 243.562C-21.6741 244.141 -21.3522 244.713 -21.0238 245.279L-21.4561 245.53C-21.1234 246.103 -20.7837 246.67 -20.437 247.229L-20.0121 246.965C-19.6646 247.526 -19.31 248.079 -18.9481 248.625L-19.3648 248.901C-18.9976 249.455 -18.6229 250.001 -18.2404 250.539L-17.8329 250.249C-17.4515 250.786 -17.0624 251.314 -16.6654 251.833L-17.0627 252.137C-16.6592 252.665 -16.2475 253.184 -15.8275 253.694L-15.4415 253.376C-15.0228 253.884 -14.5957 254.383 -14.1601 254.873L-14.5335 255.205C-14.0919 255.701 -13.6414 256.188 -13.1818 256.664L-12.822 256.316C-12.3656 256.789 -11.9003 257.252 -11.4258 257.704L-11.7707 258.066C-11.2895 258.524 -10.799 258.972 -10.2988 259.408L-9.97011 259.031C-9.47552 259.462 -8.97146 259.882 -8.45771 260.291L-8.76893 260.682C-8.24959 261.095 -7.72037 261.497 -7.18104 261.886L-6.88839 261.481C-6.35708 261.864 -5.81591 262.236 -5.26464 262.595L-5.53765 263.014C-4.98322 263.375 -4.41864 263.724 -3.84372 264.061L-3.59123 263.629C-3.02695 263.959 -2.4526 264.277 -1.86796 264.582L-2.09916 265.025C-1.51184 265.332 -0.914276 265.625 -0.306244 265.905L-0.0968971 265.451C0.493908 265.724 1.09473 265.983 1.70578 266.23L1.51851 266.694C1.82752 266.819 2.13911 266.94 2.45329 267.059C2.76709 267.177 3.08099 267.291 3.39497 267.401L3.56036 266.929C4.18115 267.146 4.80222 267.348 5.42354 267.535L5.27987 268.014C5.9206 268.206 6.56163 268.382 7.2029 268.542L7.32417 268.057C7.96271 268.217 8.60147 268.361 9.24042 268.489L9.14182 268.979C9.79326 269.11 10.4449 269.226 11.0966 269.326L11.1725 268.831C11.8229 268.931 12.4735 269.016 13.1242 269.085L13.0711 269.582C13.7312 269.653 14.3914 269.708 15.0515 269.749L15.0822 269.25C15.7366 269.29 16.3911 269.316 17.0456 269.327L17.0368 269.827C17.6992 269.839 18.3615 269.836 19.0237 269.82L19.0114 269.32C19.6656 269.304 20.32 269.274 20.9743 269.231L21.0069 269.73C21.6667 269.687 22.3263 269.631 22.9856 269.562L22.9335 269.064C23.5838 268.996 24.2339 268.916 24.884 268.823L24.9546 269.318C25.6071 269.225 26.2595 269.12 26.9115 269.004L26.8236 268.511C27.4671 268.396 28.1106 268.27 28.7539 268.133L28.8581 268.622C29.5022 268.485 30.1459 268.337 30.7893 268.178L30.6699 267.693C31.3034 267.537 31.9367 267.371 32.5698 267.195L32.7034 267.677C33.3377 267.501 33.9716 267.316 34.6051 267.121L34.4583 266.643C35.0824 266.451 35.7062 266.251 36.3297 266.042L36.4888 266.516C37.1111 266.307 37.733 266.09 38.3544 265.864L38.1841 265.394C38.7987 265.172 39.413 264.941 40.0269 264.703L40.2077 265.169C40.8195 264.932 41.4308 264.687 42.0416 264.436L41.8512 263.973C42.4547 263.725 43.0579 263.469 43.6607 263.207L43.86 263.666C44.4628 263.404 45.0652 263.136 45.667 262.861L45.4597 262.406C46.0532 262.136 46.6464 261.859 47.2392 261.577L47.454 262.029C48.0464 261.747 48.6384 261.46 49.2298 261.167L49.0081 260.719C49.5945 260.429 50.1804 260.134 50.7658 259.834L50.9937 260.279C51.5769 259.981 52.1595 259.677 52.7415 259.37L52.5079 258.928C53.0864 258.622 53.6645 258.312 54.242 257.998L54.4807 258.438C55.0568 258.124 55.6324 257.808 56.2072 257.487L55.9638 257.05C56.5351 256.732 57.1058 256.41 57.676 256.085L57.9237 256.519C58.4939 256.194 59.0636 255.866 59.6326 255.535L59.3811 255.103C59.9464 254.774 60.511 254.442 61.0751 254.108L61.3299 254.538C61.8944 254.204 62.4582 253.867 63.0214 253.528L62.7636 253.1C63.3246 252.762 63.8851 252.422 64.4449 252.081L64.7053 252.508C65.2653 252.166 65.8246 251.822 66.3831 251.478L66.1205 251.052C66.6781 250.708 67.235 250.362 67.7912 250.016L68.0557 250.44C68.6125 250.093 69.1685 249.745 69.7238 249.396L69.4578 248.972C70.0129 248.624 70.5673 248.274 71.121 247.924L71.3882 248.346C71.9427 247.996 72.4965 247.645 73.0494 247.294L72.7813 246.872C73.3353 246.52 73.8886 246.168 74.441 245.816L74.7095 246.238C75.2227 245.911 75.7352 245.584 76.2468 245.258L76.3667 245.182L76.098 244.76C76.652 244.407 77.2051 244.055 77.7574 243.703L78.0259 244.125C78.5797 243.773 79.1326 243.421 79.6845 243.071L79.4166 242.648C79.9707 242.297 80.524 241.946 81.0763 241.597L81.3433 242.02C81.8991 241.669 82.454 241.32 83.0077 240.972L82.742 240.549C83.2983 240.2 83.8536 239.853 84.408 239.508L84.672 239.933C85.23 239.586 85.7869 239.241 86.3427 238.899L86.0808 238.473C86.6415 238.129 87.2012 237.787 87.7598 237.448L88.0191 237.875C88.5796 237.535 89.1389 237.199 89.697 236.866L89.4408 236.436C90.0072 236.098 90.5724 235.764 91.1364 235.434L91.3891 235.865C91.6705 235.7 91.9515 235.537 92.2322 235.374C92.5269 235.203 92.8172 235.028 93.1032 234.847L92.8366 234.424C93.4013 234.068 93.9494 233.694 94.4822 233.302L94.7785 233.704C95.3242 233.303 95.8538 232.884 96.3686 232.449L96.0459 232.067C96.5536 231.638 97.0469 231.193 97.5273 230.734L97.8729 231.095C98.3594 230.63 98.8323 230.15 99.2931 229.658L98.9281 229.316C99.3811 228.833 99.8225 228.336 100.254 227.828L100.635 228.152C101.068 227.641 101.491 227.12 101.905 226.589L101.511 226.281C101.918 225.759 102.316 225.227 102.707 224.687L103.112 224.98C103.504 224.439 103.888 223.891 104.265 223.336L103.852 223.055C104.225 222.507 104.592 221.952 104.953 221.393L105.373 221.664C105.735 221.105 106.092 220.54 106.445 219.973L106.021 219.709C106.371 219.145 106.718 218.578 107.062 218.009L107.49 218.268C107.835 217.698 108.176 217.127 108.517 216.555L108.087 216.299C108.39 215.791 108.691 215.282 108.993 214.774C109.03 214.711 109.067 214.648 109.105 214.585L109.535 214.84C109.874 214.267 110.213 213.696 110.552 213.127L110.123 212.871C110.464 212.299 110.806 211.729 111.151 211.163L111.578 211.422C111.924 210.855 112.271 210.291 112.622 209.732L112.198 209.466C112.552 208.901 112.91 208.341 113.273 207.787L113.691 208.061C114.054 207.506 114.422 206.958 114.796 206.418L114.385 206.133C114.764 205.584 115.15 205.043 115.543 204.512L115.945 204.809C116.339 204.277 116.74 203.755 117.15 203.244L116.759 202.931C117.177 202.41 117.604 201.901 118.041 201.404L118.416 201.734C118.851 201.24 119.297 200.759 119.753 200.293L119.396 199.943C119.862 199.467 120.341 199.006 120.833 198.562L121.168 198.933C121.653 198.494 122.151 198.072 122.664 197.669L122.355 197.276C122.876 196.866 123.412 196.474 123.965 196.102L124.244 196.516C124.782 196.155 125.335 195.812 125.905 195.49L125.659 195.055C126.233 194.731 126.823 194.428 127.432 194.147L127.641 194.601C127.936 194.465 128.236 194.334 128.54 194.209C128.851 194.08 129.164 193.955 129.478 193.835L129.299 193.368C129.935 193.124 130.575 192.896 131.22 192.684L131.376 193.159C132.015 192.948 132.659 192.753 133.307 192.572L133.172 192.091C133.827 191.908 134.486 191.74 135.148 191.585L135.262 192.072C135.917 191.92 136.575 191.781 137.238 191.655L137.144 191.163C137.812 191.036 138.483 190.922 139.157 190.82L139.232 191.314C139.896 191.213 140.564 191.124 141.236 191.046L141.178 190.55C141.852 190.471 142.528 190.404 143.207 190.347L143.249 190.845C143.921 190.788 144.595 190.742 145.272 190.704L145.244 190.205C145.921 190.167 146.601 190.139 147.283 190.119L147.298 190.619C147.971 190.599 148.647 190.588 149.325 190.584L149.322 190.084C150.001 190.079 150.681 190.083 151.363 190.093L151.356 190.593C152.032 190.602 152.709 190.619 153.388 190.641L153.405 190.141C154.083 190.163 154.762 190.191 155.442 190.224L155.418 190.723C156.094 190.756 156.771 190.793 157.449 190.835L157.48 190.335C158.158 190.377 158.837 190.423 159.516 190.472L159.48 190.971C160.156 191.02 160.833 191.072 161.51 191.127L161.551 190.629C162.228 190.684 162.906 190.741 163.584 190.801L163.54 191.299C164.217 191.358 164.894 191.42 165.571 191.482L165.617 190.984C166.294 191.047 166.972 191.11 167.648 191.174L167.601 191.672C168.025 191.712 168.447 191.752 168.87 191.793L169.633 191.865L169.681 191.367C170.359 191.432 171.036 191.496 171.712 191.559L171.666 192.057C172.344 192.12 173.022 192.182 173.699 192.242L173.743 191.744C174.423 191.804 175.101 191.863 175.778 191.919L175.737 192.417C176.418 192.474 177.098 192.527 177.776 192.578L177.813 192.079C178.493 192.129 179.171 192.176 179.847 192.219L179.816 192.718C180.499 192.761 181.181 192.8 181.861 192.833L181.885 192.334C182.568 192.368 183.248 192.396 183.926 192.419L183.909 192.919C184.594 192.942 185.277 192.958 185.958 192.968L185.965 192.468C186.647 192.478 187.326 192.481 188.003 192.476L188.006 192.976C188.695 192.971 189.38 192.957 190.062 192.935L190.046 192.435C190.729 192.413 191.409 192.382 192.085 192.34L192.115 192.839C192.802 192.797 193.485 192.745 194.164 192.681L194.118 192.184C194.797 192.12 195.473 192.045 196.144 191.958L196.208 192.454C196.892 192.365 197.572 192.263 198.248 192.148L198.164 191.655C198.837 191.541 199.505 191.412 200.167 191.269L200.273 191.758C200.947 191.612 201.615 191.452 202.279 191.275L202.15 190.792C202.808 190.617 203.461 190.426 204.107 190.218L204.26 190.694C204.916 190.482 205.566 190.254 206.211 190.007L206.032 189.54C206.665 189.297 207.293 189.036 207.914 188.756L208.119 189.212C208.746 188.929 209.366 188.628 209.979 188.306L209.746 187.863C210.346 187.548 210.939 187.214 211.524 186.86L211.783 187.287C212.37 186.932 212.949 186.557 213.522 186.16L213.237 185.749C213.789 185.367 214.335 184.964 214.873 184.541L215.182 184.934C215.455 184.719 215.725 184.5 215.994 184.275C216.246 184.064 216.497 183.852 216.748 183.637L216.423 183.257C216.922 182.831 217.418 182.398 217.911 181.959L218.243 182.332C218.734 181.894 219.223 181.451 219.708 181.001L219.368 180.634C219.849 180.188 220.327 179.736 220.802 179.278L221.149 179.638C221.623 179.181 222.094 178.717 222.562 178.248L222.208 177.895C222.671 177.431 223.131 176.962 223.587 176.487L223.948 176.833C224.405 176.357 224.858 175.876 225.309 175.39L224.942 175.05C225.387 174.569 225.829 174.083 226.267 173.592L226.64 173.925C227.079 173.433 227.514 172.936 227.945 172.434L227.566 172.108C227.994 171.61 228.418 171.108 228.839 170.601L229.224 170.92C229.644 170.412 230.061 169.9 230.474 169.384L230.083 169.072C230.493 168.559 230.899 168.041 231.301 167.519L231.697 167.824C232.1 167.302 232.498 166.775 232.892 166.245L232.49 165.947C232.882 165.42 233.269 164.888 233.652 164.353L234.059 164.644C234.443 164.107 234.822 163.566 235.197 163.022L234.785 162.738C235.158 162.197 235.526 161.653 235.889 161.105L236.306 161.381C236.671 160.831 237.031 160.277 237.386 159.72L236.965 159.451C237.318 158.897 237.666 158.339 238.01 157.779L238.436 158.04C238.781 157.477 239.121 156.911 239.456 156.341L239.025 156.088C239.358 155.521 239.687 154.951 240.009 154.379L240.445 154.625C240.769 154.049 241.089 153.471 241.402 152.89L240.963 152.652C241.275 152.074 241.582 151.492 241.883 150.908L242.328 151.138C242.631 150.55 242.928 149.961 243.22 149.368L242.772 149.147C243.062 148.557 243.347 147.965 243.626 147.37L244.079 147.582C244.36 146.984 244.635 146.383 244.904 145.78L244.447 145.577C244.715 144.976 244.977 144.372 245.232 143.767L245.693 143.962C245.95 143.353 246.201 142.742 246.446 142.129L245.981 141.944C246.225 141.332 246.463 140.719 246.694 140.104L247.162 140.28C247.395 139.66 247.621 139.039 247.84 138.417L247.368 138.251C247.587 137.63 247.798 137.008 248.003 136.384L248.478 136.54C248.685 135.911 248.884 135.28 249.076 134.648L248.598 134.503C248.79 133.873 248.974 133.243 249.151 132.611L249.632 132.746C249.811 132.108 249.982 131.469 250.146 130.829L249.661 130.705C249.824 130.067 249.98 129.428 250.128 128.789L250.615 128.901C250.764 128.256 250.905 127.611 251.038 126.964L250.548 126.864C250.681 126.218 250.805 125.572 250.922 124.925L251.414 125.014C251.531 124.362 251.64 123.71 251.741 123.058L251.247 122.981C251.347 122.33 251.439 121.679 251.522 121.028L252.018 121.092C252.102 120.434 252.177 119.776 252.243 119.118L251.745 119.068C251.811 118.414 251.868 117.759 251.915 117.105L252.414 117.142C252.462 116.48 252.501 115.818 252.531 115.157L252.031 115.135C252.06 114.478 252.08 113.82 252.09 113.164L252.59 113.172C252.6 112.509 252.6 111.847 252.591 111.186L252.091 111.193C252.081 110.535 252.062 109.877 252.032 109.221L252.532 109.198C252.502 108.536 252.462 107.875 252.411 107.215L251.913 107.253C251.862 106.597 251.802 105.943 251.73 105.29L252.227 105.236C252.156 104.576 252.073 103.918 251.979 103.262L251.484 103.333C251.392 102.682 251.288 102.033 251.174 101.386L251.666 101.299C251.55 100.646 251.424 99.9951 251.286 99.3464L250.797 99.4503C250.66 98.8077 250.512 98.1674 250.353 97.5293L250.838 97.4084C250.678 96.7651 250.506 96.1242 250.323 95.4859L249.842 95.624C249.661 94.9933 249.468 94.3651 249.264 93.7397L249.74 93.5845C249.636 93.269 249.53 92.9541 249.422 92.6399C249.309 92.3162 249.194 91.9953 249.075 91.6773L248.606 91.8524C248.371 91.2238 248.123 90.6065 247.863 90L248.322 89.8026C248.052 89.1748 247.769 88.5585 247.473 87.9534L247.024 88.1732C246.729 87.5701 246.42 86.9782 246.1 86.3972L246.537 86.1555C246.209 85.562 245.869 84.9797 245.515 84.4083L245.09 84.6712C244.737 84.1002 244.371 83.5401 243.993 82.9907L244.405 82.7073C244.021 82.1493 243.625 81.6022 243.217 81.0655L242.819 81.3682C242.414 80.8362 241.998 80.3145 241.57 79.8027L241.953 79.4819C241.52 78.9637 241.075 78.4557 240.618 77.9574L240.25 78.295C239.799 77.8029 239.338 77.3204 238.866 76.8469L239.22 76.4939C238.744 76.0166 238.258 75.5486 237.762 75.0895L237.422 75.4565C236.933 75.004 236.434 74.56 235.925 74.1243L236.251 73.7446C235.741 73.3076 235.221 72.879 234.693 72.4583L234.382 72.8493C233.861 72.4343 233.331 72.0269 232.792 71.6267L233.091 71.2255C232.552 70.8251 232.005 70.432 231.451 70.0459L231.165 70.4563C230.619 70.0765 230.066 69.7035 229.506 69.3367L229.78 68.9183C229.219 68.5512 228.65 68.1904 228.076 67.8357L227.813 68.2612C227.247 67.9117 226.674 67.5679 226.094 67.2296L226.346 66.7978C225.769 66.4608 225.186 66.1292 224.597 65.8027L224.354 66.24C223.772 65.917 223.183 65.599 222.589 65.2855L222.823 64.8434C222.232 64.5313 221.635 64.2238 221.034 63.9207L220.809 64.3671C220.215 64.0676 219.616 63.7722 219.013 63.4807L219.231 63.0305C218.628 62.7392 218.021 62.4518 217.41 62.1679L217.199 62.6213C216.596 62.3411 215.989 62.0644 215.378 61.7907L215.582 61.3344C214.972 61.0612 214.359 60.7911 213.743 60.5239L213.544 60.9827C212.932 60.7174 212.317 60.455 211.698 60.195L211.892 59.7341C211.277 59.4754 210.659 59.2193 210.039 58.9653L209.849 59.428C209.232 59.1753 208.612 58.9247 207.99 58.676L208.176 58.2117C207.556 57.9637 206.933 57.7177 206.309 57.4732L206.127 57.9388C205.506 57.6956 204.883 57.454 204.259 57.2136L204.439 56.747C203.815 56.5068 203.189 56.2679 202.563 56.0301L202.385 56.4975C201.762 56.2609 201.137 56.0252 200.512 55.7903L200.687 55.3222C200.062 55.0873 199.435 54.8532 198.809 54.6196L198.634 55.0881C198.008 54.8549 197.382 54.6222 196.755 54.3897L196.929 53.9209C196.422 53.7328 195.915 53.5448 195.408 53.3568L195.05 53.2241L194.876 53.6929C194.25 53.4608 193.623 53.2285 192.997 52.9959L193.171 52.5272C192.545 52.2945 191.919 52.0615 191.294 51.8279L191.119 52.2963C190.492 52.0624 189.867 51.8279 189.242 51.5925L189.418 51.1246C188.793 50.8891 188.169 50.6527 187.546 50.4152L187.368 50.8824C186.743 50.644 186.119 50.4044 185.496 50.1634L185.677 49.6971C185.054 49.4561 184.433 49.2137 183.814 48.9696L183.631 49.4347C183.008 49.1891 182.387 48.9418 181.768 48.6924L181.955 48.2286C181.335 47.979 180.718 47.7274 180.103 47.4735L179.912 47.9357C179.294 47.6804 178.678 47.4228 178.065 47.1626L178.26 46.7023C177.644 46.441 177.032 46.1772 176.422 45.9105L176.222 46.3685C175.609 46.1001 174.999 45.8288 174.393 45.5543L174.599 45.0988C173.99 44.8233 173.385 44.5446 172.784 44.2624L172.572 44.715C171.965 44.4299 171.362 44.1412 170.763 43.8486L170.983 43.3994C170.384 43.1067 169.79 42.8102 169.201 42.5095L168.973 42.9549C168.375 42.6498 167.782 42.3404 167.194 42.0263L167.43 41.5853C167.137 41.429 166.846 41.2716 166.556 41.113C166.264 40.9533 165.972 40.7912 165.68 40.6268L165.435 41.0624C164.85 40.7326 164.265 40.3937 163.681 40.0465L163.937 39.6167C163.363 39.2753 162.789 38.9258 162.216 38.5688L161.952 38.9932C161.382 38.6385 160.813 38.2765 160.245 37.9081L160.517 37.4886C159.956 37.1246 159.395 36.7541 158.834 36.3778L158.555 36.793C157.997 36.418 157.438 36.0374 156.881 35.6519L157.165 35.2405C156.614 34.8594 156.062 34.4734 155.512 34.083L155.223 34.4909C154.674 34.1022 154.126 33.7092 153.578 33.3127L153.871 32.9076C153.326 32.5137 152.782 32.1163 152.238 31.7159L151.942 32.1186C151.399 31.7191 150.856 31.3168 150.314 30.9123L150.613 30.5115C150.074 30.1094 149.535 29.7051 148.996 29.2991L148.695 29.6985C148.157 29.2929 147.618 28.8857 147.08 28.4775L147.382 28.0791C146.845 27.6717 146.308 27.2633 145.77 26.8545L145.468 27.2524C145.163 27.0208 144.859 26.789 144.554 26.5572C144.322 26.3802 144.089 26.2032 143.857 26.0263L144.16 25.6284C143.622 25.2194 143.085 24.8106 142.547 24.4026L142.245 24.8009C141.707 24.3926 141.168 23.9851 140.63 23.5792L140.931 23.1799C140.391 22.773 139.852 22.3674 139.311 21.9638L139.012 22.3643C138.47 21.9595 137.928 21.5567 137.385 21.1567L137.682 20.7543C137.137 20.352 136.591 19.9524 136.044 19.5561L135.751 19.9608C135.203 19.5637 134.656 19.17 134.107 18.7803L134.397 18.3728C133.844 17.9796 133.29 17.5904 132.736 17.2059L132.451 17.6167C131.894 17.2303 131.337 16.8486 130.779 16.4725L131.058 16.0579C130.494 15.6777 129.93 15.3031 129.364 14.9346L129.091 15.3535C128.524 14.9838 127.956 14.6204 127.388 14.264L127.653 13.8404C127.076 13.4784 126.497 13.1235 125.918 12.7766L125.661 13.2055C125.079 12.8565 124.495 12.5155 123.911 12.1835L124.158 11.7488C123.565 11.4114 122.97 11.083 122.375 10.7643L122.139 11.2052C121.541 10.8853 120.942 10.5754 120.342 10.2763L120.565 9.82889C119.954 9.52389 119.341 9.22991 118.727 8.94779L118.518 9.40215C117.9 9.11841 117.282 8.8469 116.662 8.58846L116.854 8.12695C116.221 7.86327 115.587 7.61294 114.952 7.3769L114.778 7.84563C114.142 7.6095 113.505 7.38793 112.866 7.18183L113.02 6.706C112.367 6.49552 111.714 6.30089 111.058 6.1231L110.927 6.60567C110.274 6.42848 109.619 6.2683 108.962 6.1261L109.068 5.63743C108.397 5.49219 107.725 5.3654 107.05 5.25809L106.972 5.75189C106.304 5.64573 105.635 5.55895 104.964 5.49256L105.014 4.99499C104.333 4.9276 103.649 4.88088 102.964 4.85587L102.946 5.35554C102.274 5.331 101.599 5.32771 100.923 5.34666L100.909 4.84685C100.227 4.86597 99.5423 4.90737 98.8558 4.97205L98.9027 5.46984C98.2345 5.5328 97.5642 5.61817 96.8919 5.72689L96.812 5.2333C96.1423 5.34159 95.4707 5.47266 94.7971 5.6274L94.9091 6.11471C94.2602 6.26377 93.6093 6.43517 92.9564 6.62972L92.8136 6.15055C92.4841 6.24872 92.1542 6.35269 91.8238 6.46255Z" stroke="#FAB031" stroke-dasharray="2 2"/>
<g filter="url(#filter0_d_4598_16412)">
<path d="M400.64 175.297C391.542 172.611 382.304 178.611 375.11 184.801C367.915 190.991 360.182 198.115 350.701 198.149C341.113 198.183 333.278 190.967 325.996 184.718C318.71 178.47 309.297 172.435 300.146 175.311C296.743 176.382 293.796 178.606 290.427 179.774C283.471 182.183 275.568 179.681 269.742 175.17C268.3 174.056 266.965 172.834 265.703 171.53C268.315 183.351 271.524 194.748 277.805 205.624C282.956 214.539 289.437 222.642 297.058 229.411C317.205 247.314 345.23 255.592 371.328 250.536C397.426 245.48 420.922 226.919 431.776 201.833C432.213 200.826 432.626 199.814 433.024 198.792C426.786 195.955 421.019 192.1 416.082 187.331C411.329 182.747 406.965 177.166 400.64 175.297Z" fill="#E9ECEF"/>
<path d="M458.457 118.705C460.525 105.956 456.782 90.8503 445.631 85.0253C435.189 79.5701 421.781 83.8525 411.479 78.1199C401.052 72.3192 397.736 58.7517 390.722 48.8827C381.77 36.2885 365.546 29.7335 350.715 32.7117C335.89 35.6948 323.215 48.0651 319.472 63.2093C317.768 70.105 317.797 77.3218 316.855 84.3732C315.908 91.4246 313.763 98.7046 308.704 103.522C300.039 111.776 286.262 110.102 275.708 115.518C260.669 123.236 259.363 141.232 262.514 156.264C263.596 161.423 264.596 166.513 265.703 171.53C266.965 172.829 268.3 174.056 269.742 175.17C275.567 179.681 283.466 182.182 290.427 179.774C293.801 178.606 296.743 176.382 300.146 175.311C309.297 172.435 318.71 178.469 325.996 184.718C333.283 190.966 341.113 198.188 350.701 198.149C360.182 198.115 367.915 190.991 375.109 184.801C382.304 178.611 391.542 172.61 400.639 175.297C406.965 177.165 411.329 182.747 416.077 187.336C421.014 192.105 426.781 195.959 433.019 198.796C438.509 184.708 440.626 169.369 445.68 155.067C449.966 142.925 456.389 131.45 458.457 118.705Z" fill="white"/>
<path d="M307.937 73.0248C307.423 78.8206 304.583 84.378 300.189 88.1787C295.165 92.5292 288.538 94.432 282.14 96.2131C278.669 97.1815 275.198 98.1499 271.727 99.1183C269.785 99.6585 267.8 100.208 265.79 100.057C262.295 99.7996 259.232 97.4248 257.251 94.5196C253.096 88.4269 253.149 80.1054 256.135 73.3606C259.12 66.6158 264.669 61.2968 270.795 57.2139C275.553 54.0459 280.854 51.4716 286.534 50.8487C292.029 50.2453 298.845 51.7052 302.675 56.0265C306.573 60.4257 308.447 67.2581 307.937 73.0248Z" fill="white"/>
<path d="M442.827 242.019H270.942V159.423H442.827V242.019Z" fill="#EDEDED"/>
<path d="M399.605 242.019H314.164V98.0002H399.605V242.019Z" fill="#EAFBFF"/>
<path d="M382.982 242.019H334.269V209.121H382.982V242.019Z" fill="#B4C6CA"/>
<path d="M345.598 128.212H322.415V104.867H345.598V128.212Z" fill="#82C5BE"/>
<path d="M345.598 166.237H322.415V142.894H345.598V166.237Z" fill="#82C5BE"/>
<path d="M391.355 128.212H368.172V104.867H391.355V128.212Z" fill="#82C5BE"/>
<path d="M391.355 166.237H368.172V142.894H391.355V166.237Z" fill="#82C5BE"/>
<path d="M303.087 188.302H279.901V164.956H303.087V188.302Z" fill="#68ADA4"/>
<path d="M303.087 235.413H279.901V212.067H303.087V235.413Z" fill="#68ADA4"/>
<path d="M433.867 188.309H410.682V164.965H433.867V188.309Z" fill="#68ADA4"/>
<path d="M433.867 235.413H410.682V212.067H433.867V235.413Z" fill="#68ADA4"/>
<path d="M361.659 197.736H352.112V172.492H361.659V197.736Z" fill="#F96544"/>
<path d="M344.353 189.921V180.307H369.418V189.921H344.353Z" fill="#F96544"/>
<path d="M395.068 212.067H318.702V206.174H395.068V212.067Z" fill="#82C5BE"/>
<path d="M337.75 242.019H330.786V209.192H337.75V242.019Z" fill="#82C5BE"/>
<path d="M382.983 242.019H376.019V209.192H382.983V242.019Z" fill="#82C5BE"/>
<path d="M411.106 208.129C411.106 209.395 410.09 210.424 408.834 210.424C407.578 210.424 406.56 209.395 406.56 208.129V202.959C406.56 201.693 407.578 200.666 408.834 200.666C410.09 200.666 411.106 201.693 411.106 202.959V208.129Z" fill="#E44D24"/>
<path d="M412.164 205.9H405.506V203.897H412.164V205.9Z" fill="#B4C6CA"/>
<path d="M396.967 208.948L389.121 221.107L382.544 222.917C379.706 223.698 377.407 226.737 377.407 229.705V242.78H445.948V215.734C445.948 209.798 441.714 204.985 435.832 204.985H405.889C402.95 204.985 398.955 206.759 396.967 208.948Z" fill="#DFE8EA"/>
<path d="M378.832 242.78C378.832 237.105 383.391 232.505 389.015 232.505C394.639 232.505 399.198 237.105 399.198 242.78C399.198 248.456 378.832 248.456 378.832 242.78Z" fill="#B4C6CA"/>
<path d="M397.23 243.708C397.23 248.287 393.552 252 389.016 252C384.479 252 380.801 248.287 380.801 243.708C380.801 239.13 384.479 235.419 389.016 235.419C393.552 235.419 397.23 239.13 397.23 243.708Z" fill="#68ADA4"/>
<path d="M393.007 243.708C393.007 245.933 391.219 247.739 389.015 247.739C386.808 247.739 385.02 245.933 385.02 243.708C385.02 241.483 386.808 239.677 389.015 239.677C391.219 239.677 393.007 241.483 393.007 243.708Z" fill="white"/>
<path d="M422.147 242.78C422.147 237.105 426.705 232.505 432.33 232.505C437.953 232.505 442.513 237.105 442.513 242.78C442.513 248.456 422.147 248.456 422.147 242.78Z" fill="#B4C6CA"/>
<path d="M440.544 243.708C440.544 248.287 436.867 252 432.33 252C427.793 252 424.116 248.287 424.116 243.708C424.116 239.13 427.793 235.419 432.33 235.419C436.867 235.419 440.544 239.13 440.544 243.708Z" fill="#68ADA4"/>
<path d="M436.323 243.708C436.323 245.933 434.535 247.739 432.33 247.739C430.124 247.739 428.336 245.933 428.336 243.708C428.336 241.483 430.124 239.677 432.33 239.677C434.535 239.677 436.323 241.483 436.323 243.708Z" fill="white"/>
<path d="M391.944 221.883L395.039 225.899H410.185V209.189H400.43L391.944 221.883Z" fill="#82C5BE"/>
<path d="M412.566 209.189V225.899H438.952V209.189H412.566Z" fill="#82C5BE"/>
<path d="M378.439 242.78H373.546V235.419H378.439V242.78Z" fill="#F3B071"/>
<path d="M448.835 242.78H442.794V235.419H448.835V242.78Z" fill="#F3B071"/>
<path d="M425.518 223.884H420.64V210.874H425.518V223.884Z" fill="white"/>
<path d="M416.635 219.84V214.918H429.526V219.84H416.635Z" fill="white"/>
<path d="M445.948 230.432V227.454H377.83C377.56 228.182 377.407 228.945 377.407 229.705V230.432H445.948Z" fill="#E44D24"/>
</g>
</g>
<defs>
<filter id="filter0_d_4598_16412" x="239" y="19" width="235" height="250" filterUnits="userSpaceOnUse" color-interpolation-filters="sRGB">
<feFlood flood-opacity="0" result="BackgroundImageFix"/>
<feColorMatrix in="SourceAlpha" type="matrix" values="0 0 0 0 0 0 0 0 0 0 0 0 0 0 0 0 0 0 127 0" result="hardAlpha"/>
<feOffset dy="2"/>
<feGaussianBlur stdDeviation="7.5"/>
<feComposite in2="hardAlpha" operator="out"/>
<feColorMatrix type="matrix" values="0 0 0 0 0.829167 0 0 0 0 0.560787 0 0 0 0 0.100191 0 0 0 0.3 0"/>
<feBlend mode="normal" in2="BackgroundImageFix" result="effect1_dropShadow_4598_16412"/>
<feBlend mode="normal" in="SourceGraphic" in2="effect1_dropShadow_4598_16412" result="shape"/>
</filter>
</defs>
</svg>
