<svg width="324" height="203" viewBox="0 0 324 203" fill="none" xmlns="http://www.w3.org/2000/svg">
<path d="M287.454 203L139.581 202.949L65.2725 202.923L61.1355 202.92L46.2068 202.918C46.2068 202.918 24.8818 185.582 24.5124 161.075C23.7845 112.785 55.393 134.536 51.0988 76.3361C47.1804 23.229 149.559 -5.40823 205.15 35.165C225.361 49.9162 226.946 60.2624 255.989 56.9913C288.773 53.2992 292.509 93.1426 281.035 115.229C264.753 146.567 326.181 141.419 287.454 203Z" fill="#F7F0FF"/>
<mask id="mask0_4951_22421" style="mask-type:alpha" maskUnits="userSpaceOnUse" x="24" y="16" width="277" height="187">
<path d="M287.454 203L139.581 202.949L65.2725 202.923L61.1355 202.92L46.2068 202.918C46.2068 202.918 24.8818 185.582 24.5124 161.075C23.7845 112.785 55.393 134.536 51.0988 76.3361C47.1804 23.229 149.559 -5.40823 205.15 35.165C225.361 49.9162 226.946 60.2624 255.989 56.9913C288.773 53.2992 292.509 93.1426 281.035 115.229C264.753 146.567 326.181 141.419 287.454 203Z" fill="#CEF7F3"/>
</mask>
<g mask="url(#mask0_4951_22421)">
<path d="M93.5001 120.125C69.8384 115.566 32.4616 129.156 32.4616 129.156H19.1924V203H303.685V170.062C303.685 170.062 258.894 147.689 227.785 144.562C197.036 141.471 179.2 161.672 149.231 154.125C124.513 147.899 118.529 124.947 93.5001 120.125Z" fill="#F1E6FF"/>
</g>
<path d="M172.22 34.1023C172.806 34.1248 173.475 34.0405 174.226 33.8156C174.624 33.6967 174.924 33.44 175.141 33.1975C175.363 32.9479 175.557 32.6454 175.728 32.3252C176.069 31.6847 176.384 30.8499 176.675 29.9071C177.259 28.0129 177.795 25.5233 178.251 22.8972C179.162 17.6488 179.779 11.7017 179.808 8.58273C179.826 6.64687 178.801 5.1755 177.333 4.13089C175.89 3.10465 173.962 2.43805 171.936 2.03102C167.884 1.21699 163.079 1.3726 160.005 2.13936C156.698 2.964 154.58 5.41648 153.283 7.98665C151.994 10.544 151.449 13.3414 151.338 15.1708C151.021 18.3057 151.848 25.9071 157.423 32.6185C157.429 33.0386 157.445 33.4154 157.472 33.7515L154.815 39.318C153.643 39.6516 152.3 40.1317 150.703 40.7463L150.699 40.7481C148.447 41.627 145.843 42.8059 143.487 44.2303C141.148 45.6438 138.964 47.3515 137.649 49.3199C134.292 54.3432 122.744 67.7085 116.873 73.7672L116.766 73.8776L116.697 74.0151C115.306 76.7914 113.086 80.8966 110.858 85.0191L110.858 85.019L110.858 85.0193L110.852 85.0309L110.851 85.0311L110.791 85.1436C107.74 90.7867 104.648 96.5065 103.777 98.6786C102.95 100.74 103.099 102.614 103.699 103.971C103.996 104.641 104.414 105.209 104.907 105.598C105.38 105.972 106.052 106.272 106.773 106.092C107.068 106.018 107.334 105.872 107.544 105.653C107.813 106.151 108.147 106.629 108.563 107.044C109.242 107.722 110.146 107.807 110.915 107.693C111.685 107.58 112.496 107.25 113.246 106.858C114.694 106.102 116.158 104.989 117.112 104.157C117.523 103.961 117.851 103.649 118.041 103.223C118.246 102.767 118.243 102.288 118.179 101.889C118.053 101.109 117.629 100.277 117.208 99.5855C116.771 98.8684 116.266 98.1899 115.877 97.6974C115.737 97.5204 115.61 97.3654 115.505 97.2389L116.7 90.1168C117.585 89.1995 118.62 87.9482 119.609 86.7518L119.636 86.72C120.452 85.733 121.242 84.7779 121.935 84.015C122.282 83.634 122.591 83.3146 122.858 83.0701C123.138 82.8135 123.318 82.688 123.408 82.6432C123.806 82.4451 124.218 82.0643 124.588 81.6786C124.986 81.2644 125.434 80.7374 125.908 80.1413C126.857 78.9469 127.948 77.4248 129.003 75.8559C130.058 74.2855 131.088 72.6547 131.913 71.2388C132.722 69.8508 133.382 68.592 133.647 67.7984C133.67 67.732 133.767 67.5517 134.048 67.2561C134.313 66.9762 134.684 66.6541 135.153 66.2977C136.089 65.5858 137.337 64.7962 138.721 63.9998C141.148 62.6027 143.92 61.2261 145.988 60.2665L146.412 60.9844C148.038 64.3493 150.086 68.8782 151.645 72.998C152.427 75.067 153.079 77.013 153.493 78.6465C153.92 80.3294 154.051 81.5226 153.929 82.1707C153.69 83.4411 153.17 85.2592 152.527 87.4987L152.504 87.5778C150.827 93.4224 148.399 101.882 148.846 109.107L148.846 109.128L148.848 109.254L148.857 109.748C148.864 110.181 148.875 110.816 148.89 111.626C148.919 113.247 148.962 115.568 149.016 118.369C149.125 123.972 149.281 131.496 149.469 139.182C149.658 146.867 149.878 154.717 150.117 160.971C150.236 164.097 150.36 166.829 150.487 168.943C150.611 171.026 150.743 172.587 150.888 173.314C151.293 175.33 151.618 176.405 151.862 177.21C152.055 177.848 152.177 178.253 152.259 178.832C152.344 179.425 152.39 180.225 152.39 181.617C152.39 183.062 152.552 184.906 152.793 186.587C152.95 187.686 153.148 188.763 153.369 189.636C151.498 189.972 149.045 190.396 146.757 190.76C143.937 191.208 141.489 191.544 140.614 191.544C140.194 191.544 139.689 191.665 139.332 192.097C138.995 192.505 138.959 192.99 138.989 193.334C139.046 194.003 139.399 194.762 139.786 195.43C140.59 196.82 141.907 198.426 143.003 199.372C144.891 201.003 146.966 200.859 148.754 200.598C149.019 200.559 149.277 200.519 149.528 200.48C151.061 200.239 152.363 200.035 153.686 200.475C156.215 201.316 158.812 201.063 160.787 200.309C161.774 199.931 162.648 199.413 163.293 198.799C163.921 198.2 164.435 197.406 164.435 196.491C164.435 195.408 164.357 191.901 164.204 188.553C164.127 186.878 164.031 185.229 163.915 183.936C163.857 183.292 163.792 182.72 163.72 182.271C163.684 182.048 163.644 181.839 163.597 181.659C163.565 181.536 163.512 181.348 163.415 181.169C163.403 181.113 163.389 181.02 163.376 180.885C163.349 180.603 163.332 180.207 163.328 179.712C163.32 178.727 163.363 177.418 163.45 175.978C163.625 173.09 163.972 169.757 164.415 167.546L164.431 167.466L164.434 167.385C164.637 161.616 164.926 152.902 165.134 145.507C165.238 141.81 165.322 138.44 165.365 135.932C165.386 134.679 165.397 133.636 165.395 132.873C165.394 132.492 165.39 132.174 165.381 131.932C165.375 131.742 165.364 131.474 165.318 131.288C165.32 131.296 165.32 131.296 165.319 131.283C165.318 131.253 165.315 131.15 165.337 130.945C165.364 130.69 165.421 130.357 165.51 129.958C165.685 129.162 165.969 128.163 166.323 127.105C166.85 125.529 167.506 123.894 168.15 122.642C168.793 123.894 169.45 125.529 169.976 127.105C170.33 128.163 170.614 129.162 170.79 129.958C170.878 130.357 170.935 130.69 170.963 130.945C170.985 131.15 170.981 131.253 170.98 131.283C170.979 131.296 170.979 131.296 170.982 131.288C170.935 131.474 170.924 131.742 170.918 131.932C170.91 132.174 170.905 132.492 170.904 132.873C170.902 133.636 170.913 134.679 170.935 135.932C170.977 138.44 171.061 141.81 171.165 145.507C171.373 152.902 171.662 161.616 171.865 167.385L171.868 167.466L171.884 167.546C172.327 169.757 172.675 173.09 172.849 175.978C172.936 177.418 172.979 178.727 172.971 179.712C172.967 180.207 172.95 180.603 172.923 180.885C172.91 181.02 172.896 181.113 172.884 181.169C172.788 181.348 172.734 181.536 172.702 181.659C172.655 181.839 172.615 182.048 172.579 182.271C172.507 182.72 172.443 183.292 172.385 183.936C172.268 185.229 172.172 186.878 172.095 188.553C171.942 191.901 171.864 195.408 171.864 196.491C171.864 197.406 172.378 198.2 173.007 198.799C173.651 199.413 174.525 199.931 175.512 200.309C177.487 201.063 180.084 201.316 182.613 200.475C183.936 200.035 185.238 200.239 186.771 200.48C187.022 200.519 187.28 200.559 187.545 200.598C189.334 200.859 191.408 201.003 193.296 199.372C194.392 198.426 195.709 196.82 196.513 195.43C196.9 194.762 197.254 194.003 197.311 193.334C197.34 192.99 197.305 192.505 196.967 192.097C196.61 191.665 196.105 191.544 195.686 191.544C194.811 191.544 192.362 191.208 189.543 190.76C187.254 190.396 184.802 189.972 182.93 189.636C183.152 188.763 183.349 187.686 183.506 186.587C183.747 184.906 183.909 183.062 183.909 181.617C183.909 180.225 183.955 179.425 184.04 178.832C184.123 178.253 184.244 177.848 184.437 177.21C184.681 176.405 185.007 175.33 185.411 173.314C185.556 172.588 185.691 171.034 185.821 168.959C185.954 166.853 186.086 164.133 186.215 161.021C186.473 154.797 186.72 146.984 186.934 139.337C187.149 131.689 187.331 124.203 187.46 118.629C187.524 115.842 187.575 113.533 187.61 111.92C187.627 111.114 187.64 110.482 187.649 110.052L187.66 109.56L187.662 109.435L187.663 109.403L187.663 109.395L187.663 109.393C187.663 109.392 187.663 109.392 186.663 109.371L187.663 109.392L187.666 109.267L187.638 109.146C187.156 107.063 186.332 104.181 185.517 101.329L185.51 101.306C184.871 99.0693 184.236 96.8473 183.761 95.0002C183.523 94.0767 183.328 93.2583 183.193 92.586C183.055 91.8944 182.993 91.4211 182.993 91.1584C182.993 90.008 183.328 86.9948 183.725 83.434L183.726 83.4311L183.726 83.4304L183.726 83.4302L183.726 83.4294L183.726 83.4284L183.726 83.4264C183.933 81.5726 184.154 79.5943 184.345 77.7087C184.516 77.9025 184.663 78.1001 184.777 78.2992C185.148 78.9481 186.051 79.9998 187.123 81.1532C188.226 82.3408 189.599 83.7289 190.996 85.0842C192.393 86.4396 193.822 87.7697 195.04 88.8407C196.227 89.8848 197.292 90.7536 197.929 91.1165C198.073 91.1985 198.319 91.394 198.661 91.7439C198.991 92.0811 199.368 92.5174 199.775 93.0315C200.589 94.0589 201.49 95.3555 202.331 96.6979C203.173 98.0409 203.941 99.4097 204.495 100.579C204.773 101.165 204.989 101.686 205.135 102.12C205.287 102.573 205.336 102.858 205.336 102.997C205.336 103.67 205.541 104.38 205.809 105.038C206.083 105.71 206.453 106.401 206.851 107.053C207.544 108.193 208.354 109.273 208.973 110.023C208.803 115.223 210.086 118.168 212.256 119.472C214.425 120.775 217.005 120.139 218.625 119.385L219.203 119.116V118.478V107.55V107.263L219.05 107.02L198.359 73.9329L198.327 73.8813L198.289 73.8341C198.015 73.4957 197.724 73.1795 197.445 72.8769L197.435 72.8665C196.628 71.99 195.782 71.0695 194.968 69.3372C194.144 67.5824 193.334 64.9499 192.72 60.6616C191.984 55.5219 190.93 51.1742 189.568 48.0081C188.887 46.4252 188.111 45.0943 187.225 44.1036C186.337 43.1102 185.293 42.4111 184.089 42.2109L184.037 42.2024L183.985 42.1992C179.155 41.9072 176.337 40.4114 174.668 38.7354C173.165 37.2259 172.509 35.4839 172.22 34.1023ZM172.873 181.213C172.874 181.212 172.875 181.208 172.877 181.201C172.874 181.211 172.873 181.215 172.873 181.213Z" fill="#FFC596" stroke="#192E35" stroke-width="2"/>
<path d="M168.314 31.2923C161.011 29.8352 158.162 31.3587 158.365 32.2694C157.351 31.3587 155.262 28.6875 152.584 21.6451C149.352 13.1457 154.621 3.97271 161.315 2.45495C166.671 1.24075 173.275 2.62258 177.231 4.64625L179.361 8.59241L175.008 13.9899V21.2751C174.805 20.2633 173.913 17.9968 171.965 17.0254C170.018 16.054 171.965 22.2869 173.182 25.5248L168.314 31.2923Z" fill="#192E35"/>
<path d="M146.498 60.1958L144.064 55.6426" stroke="#192E35" stroke-width="2" stroke-linecap="round"/>
<path d="M184.533 77.1952C183.215 74.4632 181.491 73.2893 181.491 68.6957L179.969 58.375" stroke="#192E35" stroke-width="2" stroke-linecap="round"/>
<path d="M171.145 121.816C173.174 123.031 178.144 122.727 182.099 120.906C186.009 119.105 186.663 114.531 186.968 112.71" stroke="#192E35" stroke-width="2" stroke-linecap="round"/>
<path d="M155.018 122.12C157.047 123.319 160.495 124.425 164.451 122.626C166.07 121.89 167.392 120.267 168.407 118.491M169.928 112.71C169.75 113.764 169.842 115.978 168.407 118.491M167.189 123.941L168.407 118.491" stroke="#192E35" stroke-width="2" stroke-linecap="round"/>
<path d="M169.049 98.7517C165.267 98.9208 163.742 105.552 166.386 108.339C168.565 110.635 172.979 111.209 174.374 108.339C175.072 106.903 174.785 105.778 174.374 104.23C173.6 101.311 171.987 98.6203 169.049 98.7517Z" fill="#F64B4B"/>
<path d="M158.143 117.659C158.05 119.836 161.793 121.045 163.532 119.67C164.965 118.537 165.518 116.035 163.935 115.09C163.144 114.618 162.481 114.726 161.568 114.883C159.848 115.179 158.216 115.968 158.143 117.659Z" fill="#F64B4B"/>
<path d="M155.932 195.758C155.839 197.935 159.582 199.144 161.321 197.769C162.754 196.635 163.307 194.134 161.724 193.189C160.933 192.717 160.27 192.824 159.357 192.981C157.637 193.278 156.005 194.067 155.932 195.758Z" fill="#F64B4B"/>
<path d="M174.502 195.758C174.408 197.935 178.151 199.144 179.89 197.769C181.323 196.635 181.877 194.134 180.294 193.189C179.502 192.717 178.839 192.824 177.927 192.981C176.206 193.278 174.574 194.067 174.502 195.758Z" fill="#F64B4B"/>
<path d="M156.541 18.8037C158.045 21.5178 163.492 20.219 164.583 17.2621C165.482 14.8252 164.296 11.3759 161.67 11.3985C160.357 11.4099 159.632 12.0311 158.639 12.8969C156.769 14.5294 155.373 16.6947 156.541 18.8037Z" fill="#F64B4B"/>
<path d="M173.175 117.659C173.081 119.836 176.825 121.045 178.563 119.67C179.996 118.537 180.55 116.035 178.967 115.09C178.175 114.618 177.513 114.726 176.6 114.883C174.879 115.179 173.248 115.968 173.175 117.659Z" fill="#F64B4B"/>
<path d="M158.061 52.6074C151.975 56.0072 155.525 59.2855 158.061 60.4997C158.568 60.095 159.582 58.9213 159.582 57.4642C159.582 56.0072 158.568 53.6193 158.061 52.6074Z" fill="#F64B4B"/>
<path d="M173.579 49.875C179.056 47.7501 174.898 60.8028 172.362 62.017C171.855 61.6123 171.145 58.9208 171.145 57.4637C171.145 56.0067 173.072 50.8868 173.579 49.875Z" fill="#F64B4B"/>
<path d="M156.844 64.446C157.959 62.827 160.008 58.8606 159.278 55.9465C158.548 53.0324 156.337 48.8637 155.322 47.1436" stroke="#192E35" stroke-width="2" stroke-linecap="round"/>
<path d="M173.733 64.446C172.617 62.827 170.568 58.8606 171.299 55.9465C172.029 53.0324 174.24 48.8637 175.254 47.1436" stroke="#192E35" stroke-width="2" stroke-linecap="round"/>
</svg>
