<svg width="276" height="187" viewBox="0 0 276 187" fill="none" xmlns="http://www.w3.org/2000/svg">
<path d="M262.954 187L115.081 186.949L40.7725 186.923L36.6355 186.92L21.7068 186.918C21.7068 186.918 0.381795 169.582 0.0123887 145.075C-0.715534 96.7846 30.893 118.536 26.5988 60.3361C22.6804 7.22905 125.059 -21.4082 180.65 19.165C200.861 33.9162 202.446 44.2624 231.489 40.9913C264.273 37.2992 268.009 77.1426 256.535 99.2292C240.253 130.567 301.681 125.419 262.954 187Z" fill="#F7F0FF"/>
<mask id="mask0_4951_22395" style="mask-type:alpha" maskUnits="userSpaceOnUse" x="0" y="0" width="276" height="187">
<path d="M262.954 187L115.081 186.949L40.7725 186.923L36.6355 186.92L21.7068 186.918C21.7068 186.918 0.381795 169.582 0.0123887 145.075C-0.715534 96.7846 30.893 118.536 26.5988 60.3361C22.6804 7.22905 125.059 -21.4082 180.65 19.165C200.861 33.9162 202.446 44.2624 231.489 40.9913C264.273 37.2992 268.009 77.1426 256.535 99.2292C240.253 130.567 301.681 125.419 262.954 187Z" fill="#CEF7F3"/>
</mask>
<g mask="url(#mask0_4951_22395)">
<path d="M69.0001 104.125C45.3384 99.566 7.96161 113.156 7.96161 113.156H-5.30762V187H279.185V154.062C279.185 154.062 234.394 131.689 203.285 128.562C172.536 125.471 154.7 145.672 124.731 138.125C100.013 131.899 94.0291 108.947 69.0001 104.125Z" fill="#F1E6FF"/>
</g>
<g filter="url(#filter0_d_4951_22395)">
<circle cx="137.5" cy="93.5" r="77.5" fill="#DCFBF3"/>
</g>
<mask id="mask1_4951_22395" style="mask-type:alpha" maskUnits="userSpaceOnUse" x="60" y="16" width="155" height="155">
<circle cx="137.5" cy="93.5" r="77.5" fill="#D9D9D9"/>
</mask>
<g mask="url(#mask1_4951_22395)">
<path d="M77.0083 97.1534C71.6259 91.732 66.67 80.1038 89.9051 76.9619C100.842 80.9969 124.474 86.672 131.503 77.0923C138.532 67.5126 145.006 54.3412 147.365 48.9529L168.019 -15.3575L247.357 3.45336L182.563 75.766C182.131 76.5056 181.823 77.1306 181.654 77.6288C181.17 79.0531 180.578 80.8492 179.915 82.8902L174.884 98.7346C171.628 109.129 168.63 118.877 168.63 118.877C168.63 118.877 165.701 139.838 161.792 147.202C155.353 149.28 140.236 151.074 131.122 140.262C122.008 129.45 112.187 122.075 108.416 119.739L77.0083 97.1534Z" fill="#CC966B"/>
<path d="M89.9051 76.9619C66.67 80.1038 71.6259 91.732 77.0083 97.1534L108.416 119.739C112.187 122.075 122.008 129.45 131.122 140.262C140.236 151.074 155.353 149.28 161.792 147.202C165.701 139.838 168.63 118.877 168.63 118.877C168.63 118.877 178.082 88.1361 181.654 77.6288C184.512 69.2229 226.647 24.676 247.357 3.45336L168.019 -15.3575L147.365 48.9529C145.006 54.3412 138.532 67.5126 131.503 77.0923C124.474 86.672 100.842 80.9969 89.9051 76.9619Z" fill="#FFC596"/>
<path d="M175.077 69.695L168.566 118.632L181.966 76.4331L247.357 3.45358L222.182 -2.51527L175.077 69.695Z" fill="#CC966B"/>
<path d="M158.143 71.9185C156.405 83.2285 148.311 106.229 129.847 107.75" stroke="#CC966B" stroke-width="2" stroke-linecap="round"/>
<path d="M151.681 113.494C129.683 105.102 118.646 116.817 114.678 124.006L114.688 124.017C121.369 131.656 135.958 148.335 146.746 148.625C157.539 148.915 161.342 148.304 163.271 145.737L170.375 113.389L151.681 113.494Z" fill="#FFAA95"/>
<path d="M151.492 120.826C137.031 115.309 129.775 123.01 127.167 127.737L127.173 127.744C131.565 132.766 141.156 143.731 148.248 143.922C155.343 144.112 157.844 143.711 159.112 142.023L163.782 120.757L151.492 120.826Z" fill="#F64B4B"/>
<path d="M148.928 124.01C139.676 120.48 135.034 125.407 133.365 128.431L133.369 128.436C136.179 131.648 142.315 138.664 146.853 138.786C151.392 138.908 152.992 138.651 153.803 137.571L156.791 123.965L148.928 124.01Z" fill="#C43737"/>
<path fill-rule="evenodd" clip-rule="evenodd" d="M90.1549 74.7009L90.6678 74.8901C96.0138 76.8624 104.461 79.2301 112.367 79.9337C116.322 80.2857 120.029 80.2103 123.1 79.5259C126.176 78.8405 128.401 77.5962 129.729 75.7857C136.576 66.4538 142.937 53.5553 145.304 48.1704L166.547 -17.9755L251.473 2.16038L184.354 77.0686C184.02 77.6559 183.829 78.0729 183.738 78.3384C183.259 79.7471 182.672 81.5298 182.012 83.5636C182.011 83.5658 182.01 83.5681 182.01 83.5703L176.985 99.3935C176.985 99.3952 176.984 99.3968 176.984 99.3985C175.357 104.59 173.795 109.621 172.639 113.355C172.061 115.222 171.585 116.765 171.254 117.841C171.088 118.378 170.958 118.8 170.87 119.086L170.786 119.359L170.776 119.427C170.753 119.586 170.719 119.819 170.675 120.116C170.586 120.711 170.455 121.567 170.285 122.617C169.947 124.715 169.454 127.592 168.837 130.706C167.627 136.809 165.869 144.219 163.736 148.237L163.316 149.028L162.465 149.303C159 150.421 153.295 151.443 147.212 150.759C141.099 150.072 134.456 147.639 129.439 141.688C120.482 131.061 110.84 123.837 107.257 121.617L107.192 121.577L75.5749 98.8407L75.4463 98.7111C73.9592 97.2133 72.4686 95.2579 71.4786 93.0649C70.4903 90.8756 69.9342 88.2918 70.5887 85.6694C71.943 80.2425 77.8795 76.3608 89.6131 74.7742L90.1549 74.7009ZM168.63 118.877C168.63 118.877 171.627 109.128 174.884 98.7344L179.915 82.89C180.577 80.849 181.17 79.0529 181.654 77.6286C181.823 77.1304 182.131 76.5054 182.563 75.7658L247.357 3.45315L168.019 -15.3577L147.365 48.9527C145.006 54.341 138.532 67.5124 131.503 77.0921C124.474 86.6718 100.842 80.9967 89.905 76.9617C66.6699 80.1036 71.6258 91.7319 77.0082 97.1532L108.416 119.739C112.187 122.075 122.008 129.45 131.122 140.262C140.236 151.074 155.352 149.28 161.792 147.202C165.7 139.838 168.63 118.877 168.63 118.877Z" fill="#192E35"/>
</g>
<path d="M74.1097 85.9563C75.9367 84.7708 80.7502 83.2522 85.3877 86.6609C90.0252 90.0697 88.9151 89.5069 90.0455 90.1891" stroke="#CC966B" stroke-width="2" stroke-linecap="round"/>
<path d="M78.1097 81.1604C79.9367 79.9749 84.7502 78.4563 89.3877 81.865C94.0252 85.2738 92.9151 84.711 94.0455 85.3932" stroke="#CC966B" stroke-width="2" stroke-linecap="round"/>
<path d="M86.1097 79.1604C87.9367 77.9749 92.7502 76.4563 97.3877 79.865C102.025 83.2738 100.915 82.711 102.046 83.3932" stroke="#CC966B" stroke-width="2" stroke-linecap="round"/>
<defs>
<filter id="filter0_d_4951_22395" x="52" y="12" width="171" height="171" filterUnits="userSpaceOnUse" color-interpolation-filters="sRGB">
<feFlood flood-opacity="0" result="BackgroundImageFix"/>
<feColorMatrix in="SourceAlpha" type="matrix" values="0 0 0 0 0 0 0 0 0 0 0 0 0 0 0 0 0 0 127 0" result="hardAlpha"/>
<feOffset dy="4"/>
<feGaussianBlur stdDeviation="4"/>
<feComposite in2="hardAlpha" operator="out"/>
<feColorMatrix type="matrix" values="0 0 0 0 0 0 0 0 0 0 0 0 0 0 0 0 0 0 0.1 0"/>
<feBlend mode="normal" in2="BackgroundImageFix" result="effect1_dropShadow_4951_22395"/>
<feBlend mode="normal" in="SourceGraphic" in2="effect1_dropShadow_4951_22395" result="shape"/>
</filter>
</defs>
</svg>
