<svg width="276" height="187" viewBox="0 0 276 187" fill="none" xmlns="http://www.w3.org/2000/svg">
<path d="M262.954 187L115.081 186.949L40.7725 186.923L36.6355 186.92L21.7068 186.918C21.7068 186.918 0.381795 169.582 0.0123887 145.075C-0.715534 96.7846 30.893 118.536 26.5988 60.3361C22.6804 7.22905 125.059 -21.4082 180.65 19.165C200.861 33.9162 202.446 44.2624 231.489 40.9913C264.273 37.2992 268.009 77.1426 256.535 99.2292C240.253 130.567 301.681 125.419 262.954 187Z" fill="#F7F0FF"/>
<mask id="mask0_4951_22408" style="mask-type:alpha" maskUnits="userSpaceOnUse" x="0" y="0" width="276" height="187">
<path d="M262.954 187L115.081 186.949L40.7725 186.923L36.6355 186.92L21.7068 186.918C21.7068 186.918 0.381795 169.582 0.0123887 145.075C-0.715534 96.7846 30.893 118.536 26.5988 60.3361C22.6804 7.22905 125.059 -21.4082 180.65 19.165C200.861 33.9162 202.446 44.2624 231.489 40.9913C264.273 37.2992 268.009 77.1426 256.535 99.2292C240.253 130.567 301.681 125.419 262.954 187Z" fill="#CEF7F3"/>
</mask>
<g mask="url(#mask0_4951_22408)">
<path d="M69.0001 104.125C45.3384 99.566 7.96161 113.156 7.96161 113.156H-5.30762V187H279.185V154.062C279.185 154.062 234.394 131.689 203.285 128.562C172.536 125.471 154.7 145.672 124.731 138.125C100.013 131.899 94.0291 108.947 69.0001 104.125Z" fill="#F1E6FF"/>
</g>
<g filter="url(#filter0_d_4951_22408)">
<circle cx="137.5" cy="93.5" r="77.5" fill="#DCFBF3"/>
<mask id="mask1_4951_22408" style="mask-type:alpha" maskUnits="userSpaceOnUse" x="60" y="16" width="155" height="155">
<circle cx="137.5" cy="93.5" r="77.5" fill="#D9D9D9"/>
</mask>
<g mask="url(#mask1_4951_22408)">
<path d="M86.7675 156.755C89.7392 148.966 95.9467 130.785 97.0033 120.37C98.0599 109.955 85.9971 67.9625 79.8336 48.268C75.8714 50.0483 67.2865 54.5435 64.645 58.2822C62.0035 62.0208 63.5444 31.8003 64.645 16.2227H209.267C210.367 31.8003 211.908 62.0208 209.267 58.2822C206.625 54.5435 198.04 50.0483 194.078 48.268C187.914 67.9625 175.852 109.955 176.908 120.37C177.965 130.785 184.172 148.966 187.144 156.755V177.117H86.7675V156.755Z" fill="#FFC596"/>
<path fill-rule="evenodd" clip-rule="evenodd" d="M82.2959 155.922L82.5926 155.145C85.5817 147.31 91.5667 129.653 92.5548 119.914C92.7434 118.054 92.3312 114.095 91.24 108.319C90.1868 102.744 88.6115 96.0077 86.7957 88.9206C83.7383 76.9873 80.0395 64.2179 77.1171 54.6341C76.1177 55.1746 75.0792 55.7651 74.0647 56.3842C71.0817 58.2048 69.0209 59.8528 68.2909 60.8861C68.0514 61.225 67.6232 61.7654 66.9591 62.2287C66.2508 62.7228 65.0514 63.2682 63.5463 63.0453C62.0817 62.8284 61.127 62.0002 60.6297 61.4232C60.1435 60.8593 59.8687 60.2872 59.719 59.9289C59.1989 58.6843 59.0198 57.0686 58.9195 55.8488C58.6889 53.0457 58.6746 48.9291 58.7711 44.3997C58.966 35.2589 59.632 23.7266 60.1847 15.9041L60.4798 11.7266H213.432L213.727 15.9041C214.28 23.7266 214.946 35.2589 215.141 44.3997C215.237 48.9291 215.223 53.0457 214.993 55.8488C214.892 57.0686 214.713 58.6843 214.193 59.9289C214.043 60.2872 213.769 60.8593 213.282 61.4232C212.785 62.0002 211.83 62.8284 210.366 63.0453C208.861 63.2682 207.661 62.7228 206.953 62.2287C206.289 61.7654 205.861 61.225 205.621 60.8861C204.891 59.8528 202.83 58.2048 199.847 56.3842C198.833 55.7651 197.794 55.1746 196.795 54.6341C193.873 64.2179 190.174 76.9873 187.116 88.9206C185.3 96.0077 183.725 102.744 182.672 108.319C181.581 114.095 181.169 118.054 181.357 119.914C182.345 129.653 188.33 147.31 191.319 155.145L191.616 155.922V181.613H82.2959V155.922ZM192.74 52.5947C193.209 51.06 193.658 49.6121 194.078 48.2681C195.16 48.7541 196.586 49.4426 198.142 50.2628C200.76 51.6429 203.746 53.3961 206.073 55.1856C206.225 55.3026 206.374 55.4199 206.521 55.5372C207.677 56.4639 208.639 57.3944 209.267 58.2822C209.703 58.8991 210.025 58.5914 210.253 57.5775C210.425 56.8191 210.544 55.6657 210.619 54.2086C210.636 53.882 210.651 53.5401 210.664 53.1839C210.978 44.3796 210.019 26.8765 209.267 16.2227H64.6453C63.8925 26.8766 62.9339 44.3796 63.2481 53.1839C63.2608 53.5401 63.2756 53.882 63.2925 54.2086C63.3682 55.6657 63.4873 56.8191 63.6585 57.5775C63.8874 58.5914 64.2094 58.8991 64.6453 58.2822C65.2725 57.3944 66.235 56.4639 67.3912 55.5372C67.5375 55.4199 67.687 55.3026 67.8393 55.1855C70.1665 53.3961 73.1515 51.6429 75.7697 50.2628C77.3256 49.4426 78.752 48.7541 79.8338 48.2681C80.2545 49.6121 80.7026 51.0601 81.1721 52.5947C87.5827 73.5472 97.988 110.666 97.0035 120.37C95.9469 130.785 89.7394 148.966 86.7677 156.755V177.117H187.144V156.755C184.173 148.966 177.965 130.785 176.908 120.37C175.924 110.666 186.329 73.5472 192.74 52.5947Z" fill="#192E35"/>
<path d="M133.275 16.0029H138.329L136.644 33.923V92.5265V162.269L134.623 121.263L135.802 69.2788L133.275 16.0029Z" fill="#CC966B"/>
<path d="M121.018 26.7957C121.398 25.4613 121.908 24.0673 122.627 22.6162C122.627 22.6162 122.195 24.2948 121.018 26.7957C118.234 36.5633 122.393 43.1347 102.559 45.4788C80.0156 48.1431 91.8855 46.9003 91.0315 46.3453C91.0315 46.3453 104.182 45.6589 111.953 38.8519C116.694 34.6984 119.487 30.0506 121.018 26.7957Z" fill="#CC966B"/>
<path d="M150.772 26.7957C150.391 25.4613 149.881 24.0673 149.163 22.6162C149.163 22.6162 149.595 24.2948 150.772 26.7957C153.556 36.5633 149.396 43.1347 169.23 45.4788C191.774 48.1431 179.904 46.9003 180.758 46.3453C180.758 46.3453 167.607 45.6589 159.837 38.8519C155.095 34.6984 152.303 30.0506 150.772 26.7957Z" fill="#CC966B"/>
<path d="M98.2132 96.67L97.1518 114.251L93.4368 95.6045L87.0682 73.7612L79.6382 48.1886L74.3311 50.8524L86.5375 24.7471L89.7218 27.9436L87.0682 48.1886L89.7218 73.7612L98.2132 96.67Z" fill="#CC966B"/>
<path d="M175.698 96.67L176.76 114.251L180.475 95.6045L186.843 73.7612L194.273 48.1886L199.581 50.8524L187.374 24.7471L184.19 27.9436L186.843 48.1886L184.19 73.7612L175.698 96.67Z" fill="#CC966B"/>
<ellipse cx="112.72" cy="49.8347" rx="29.72" ry="29.8347" fill="url(#paint0_radial_4951_22408)"/>
<ellipse cx="112.72" cy="49.8347" rx="19.1057" ry="19.1795" fill="url(#paint1_radial_4951_22408)"/>
<ellipse cx="112.72" cy="49.8347" rx="7.43" ry="7.45868" fill="url(#paint2_radial_4951_22408)"/>
<ellipse cx="161.72" cy="49.8347" rx="29.72" ry="29.8347" fill="url(#paint3_radial_4951_22408)"/>
<ellipse cx="161.72" cy="49.8347" rx="19.1057" ry="19.1795" fill="url(#paint4_radial_4951_22408)"/>
<ellipse cx="161.72" cy="49.8347" rx="7.43" ry="7.45868" fill="url(#paint5_radial_4951_22408)"/>
</g>
<mask id="mask2_4951_22408" style="mask-type:alpha" maskUnits="userSpaceOnUse" x="60" y="16" width="155" height="155">
<circle cx="137.5" cy="93.5" r="77.5" fill="#D9D9D9"/>
</mask>
<g mask="url(#mask2_4951_22408)">
</g>
<path d="M97.5324 66.7818C97.5324 66.7818 91.5295 74.8955 91.0977 75.0787C90.6654 75.2613 101.105 71.4371 101.404 71.1399C101.702 70.8432 98.2304 87.2894 98.2304 87.2894L108.643 75.1649L112.996 82.3559L113.265 75.082L119.736 79.9221C119.736 79.9221 117.168 71.4786 117.024 70.9424L117.639 76.1279L112.216 72.4171L111.732 77.6923L109.226 72.5408L101.657 80.39L102.728 69.7721L95.9459 71.3938L97.5324 66.7818Z" fill="url(#paint6_linear_4951_22408)"/>
<path d="M174.061 66.7818C174.061 66.7818 180.064 74.8955 180.496 75.0787C180.928 75.2613 170.489 71.4371 170.19 71.1399C169.892 70.8432 173.363 87.2894 173.363 87.2894L162.951 75.1649L158.598 82.3559L158.328 75.082L151.857 79.9221C151.857 79.9221 154.426 71.4786 154.57 70.9424L153.955 76.1279L159.377 72.4171L159.862 77.6923L162.368 72.5408L169.937 80.39L168.866 69.7721L175.648 71.3938L174.061 66.7818Z" fill="url(#paint7_linear_4951_22408)"/>
</g>
<defs>
<filter id="filter0_d_4951_22408" x="52" y="12" width="171" height="171" filterUnits="userSpaceOnUse" color-interpolation-filters="sRGB">
<feFlood flood-opacity="0" result="BackgroundImageFix"/>
<feColorMatrix in="SourceAlpha" type="matrix" values="0 0 0 0 0 0 0 0 0 0 0 0 0 0 0 0 0 0 127 0" result="hardAlpha"/>
<feOffset dy="4"/>
<feGaussianBlur stdDeviation="4"/>
<feComposite in2="hardAlpha" operator="out"/>
<feColorMatrix type="matrix" values="0 0 0 0 0 0 0 0 0 0 0 0 0 0 0 0 0 0 0.1 0"/>
<feBlend mode="normal" in2="BackgroundImageFix" result="effect1_dropShadow_4951_22408"/>
<feBlend mode="normal" in="SourceGraphic" in2="effect1_dropShadow_4951_22408" result="shape"/>
</filter>
<radialGradient id="paint0_radial_4951_22408" cx="0" cy="0" r="1" gradientUnits="userSpaceOnUse" gradientTransform="translate(112.72 49.8347) rotate(90) scale(27.5971 27.491)">
<stop stop-color="#F64B4B" stop-opacity="0.6"/>
<stop offset="1" stop-color="#F64B4B" stop-opacity="0"/>
</radialGradient>
<radialGradient id="paint1_radial_4951_22408" cx="0" cy="0" r="1" gradientUnits="userSpaceOnUse" gradientTransform="translate(112.72 49.8347) rotate(90) scale(17.741 17.6728)">
<stop stop-color="#F64B4B" stop-opacity="0.6"/>
<stop offset="1" stop-color="#F64B4B" stop-opacity="0"/>
</radialGradient>
<radialGradient id="paint2_radial_4951_22408" cx="0" cy="0" r="1" gradientUnits="userSpaceOnUse" gradientTransform="translate(112.72 49.8347) rotate(90) scale(6.89928 6.87275)">
<stop stop-color="#F64B4B" stop-opacity="0.6"/>
<stop offset="1" stop-color="#F64B4B" stop-opacity="0"/>
</radialGradient>
<radialGradient id="paint3_radial_4951_22408" cx="0" cy="0" r="1" gradientUnits="userSpaceOnUse" gradientTransform="translate(161.72 49.8347) rotate(90) scale(27.5971 27.491)">
<stop stop-color="#F64B4B" stop-opacity="0.6"/>
<stop offset="1" stop-color="#F64B4B" stop-opacity="0"/>
</radialGradient>
<radialGradient id="paint4_radial_4951_22408" cx="0" cy="0" r="1" gradientUnits="userSpaceOnUse" gradientTransform="translate(161.72 49.8347) rotate(90) scale(17.741 17.6728)">
<stop stop-color="#F64B4B" stop-opacity="0.6"/>
<stop offset="1" stop-color="#F64B4B" stop-opacity="0"/>
</radialGradient>
<radialGradient id="paint5_radial_4951_22408" cx="0" cy="0" r="1" gradientUnits="userSpaceOnUse" gradientTransform="translate(161.72 49.8347) rotate(90) scale(6.89928 6.87275)">
<stop stop-color="#F64B4B" stop-opacity="0.6"/>
<stop offset="1" stop-color="#F64B4B" stop-opacity="0"/>
</radialGradient>
<linearGradient id="paint6_linear_4951_22408" x1="98.6092" y1="86.9032" x2="106.664" y2="67.7136" gradientUnits="userSpaceOnUse">
<stop stop-color="#EE4154"/>
<stop offset="1" stop-color="#EE4154" stop-opacity="0"/>
</linearGradient>
<linearGradient id="paint7_linear_4951_22408" x1="172.985" y1="86.9032" x2="164.93" y2="67.7136" gradientUnits="userSpaceOnUse">
<stop stop-color="#EE4154"/>
<stop offset="1" stop-color="#EE4154" stop-opacity="0"/>
</linearGradient>
</defs>
</svg>
