<svg width="40" height="40" viewBox="0 0 40 40" fill="none" xmlns="http://www.w3.org/2000/svg">
<rect width="40" height="40" rx="20" fill="#00BB7E"/>
<g clip-path="url(#clip0_4604_5464)">
<path d="M20 9L11 13V19C11 24.55 14.84 29.74 20 31C25.16 29.74 29 24.55 29 19V13L20 9ZM27 19C27 23.52 24.02 27.69 20 28.93C15.98 27.69 13 23.52 13 19V14.3L20 11.19L27 14.3V19ZM15.41 19.59L14 21L18 25L26 17L24.59 15.58L18 22.17L15.41 19.59Z" fill="white"/>
</g>
<defs>
<clipPath id="clip0_4604_5464">
<rect width="24" height="24" fill="white" transform="translate(8 8)"/>
</clipPath>
</defs>
</svg>
