<svg width="102" height="126" viewBox="0 0 102 126" fill="none" xmlns="http://www.w3.org/2000/svg">
<g clip-path="url(#clip0_4393_19573)">
<path d="M58.5 63.5801V70.0001C58.5 71.9892 57.7098 73.8969 56.3033 75.3034C54.8968 76.7099 52.9891 77.5001 51 77.5001C49.0109 77.5001 47.1032 76.7099 45.6967 75.3034C44.2902 73.8969 43.5 71.9892 43.5 70.0001V63.5801L41 64.3001V70.0001C41 72.6522 42.0536 75.1958 43.9289 77.0711C45.8043 78.9465 48.3478 80.0001 51 80.0001C53.6522 80.0001 56.1957 78.9465 58.0711 77.0711C59.9464 75.1958 61 72.6522 61 70.0001V64.3001L58.5 63.5801Z" fill="white"/>
<path d="M81 30H61V10C61 7.34784 59.9464 4.8043 58.0711 2.92893C56.1957 1.05357 53.6522 0 51 0C48.3478 0 45.8043 1.05357 43.9289 2.92893C42.0536 4.8043 41 7.34784 41 10V30H21C18.3478 30 15.8043 31.0536 13.9289 32.9289C12.0536 34.8043 11 37.3478 11 40C11 42.6522 12.0536 45.1957 13.9289 47.0711C15.8043 48.9464 18.3478 50 21 50H31L32.25 47.5H21C19.0109 47.5 17.1032 46.7098 15.6967 45.3033C14.2902 43.8968 13.5 41.9891 13.5 40C13.5 38.0109 14.2902 36.1032 15.6967 34.6967C17.1032 33.2902 19.0109 32.5 21 32.5H39.79L43.5 25.08V10C43.5 8.01088 44.2902 6.10322 45.6967 4.6967C47.1032 3.29018 49.0109 2.5 51 2.5C52.9891 2.5 54.8968 3.29018 56.3033 4.6967C57.7098 6.10322 58.5 8.01088 58.5 10V25.06L62.22 32.5H81C82.9891 32.5 84.8968 33.2902 86.3033 34.6967C87.7098 36.1032 88.5 38.0109 88.5 40C88.5 41.9891 87.7098 43.8968 86.3033 45.3033C84.8968 46.7098 82.9891 47.5 81 47.5H69.72L71 50H81C83.6522 50 86.1957 48.9464 88.0711 47.0711C89.9464 45.1957 91 42.6522 91 40C91 37.3478 89.9464 34.8043 88.0711 32.9289C86.1957 31.0536 83.6522 30 81 30Z" fill="white"/>
<path d="M51.0098 61.5L26.0098 68.5H75.9998L51.0098 61.5Z" fill="url(#paint0_linear_4393_19573)"/>
<path d="M51 15L26 65L51 57.78L76 65L51 15Z" fill="white"/>
<path d="M51.0098 20.0701V54.3001L71.0098 60.0701L51.0098 20.0701Z" fill="white"/>
<path d="M51.01 20.0701V54.3001L31 60.0701L51.01 20.0701Z" fill="#00BB7E"/>
</g>
<path d="M14.6477 102.42C14.5568 101.504 14.1667 100.792 13.4773 100.284C12.7879 99.7765 11.8523 99.5227 10.6705 99.5227C9.86742 99.5227 9.18939 99.6364 8.63636 99.8636C8.08333 100.083 7.65909 100.39 7.36364 100.784C7.07576 101.178 6.93182 101.625 6.93182 102.125C6.91667 102.542 7.00379 102.905 7.19318 103.216C7.39015 103.527 7.65909 103.795 8 104.023C8.34091 104.242 8.73485 104.436 9.18182 104.602C9.62879 104.761 10.1061 104.898 10.6136 105.011L12.7045 105.511C13.7197 105.739 14.6515 106.042 15.5 106.42C16.3485 106.799 17.0833 107.265 17.7045 107.818C18.3258 108.371 18.8068 109.023 19.1477 109.773C19.4962 110.523 19.6742 111.383 19.6818 112.352C19.6742 113.777 19.3106 115.011 18.5909 116.057C17.8788 117.095 16.8485 117.902 15.5 118.477C14.1591 119.045 12.5417 119.33 10.6477 119.33C8.76894 119.33 7.13258 119.042 5.73864 118.466C4.35227 117.89 3.26894 117.038 2.48864 115.909C1.71591 114.773 1.31061 113.367 1.27273 111.693H6.03409C6.08712 112.473 6.31061 113.125 6.70455 113.648C7.10606 114.163 7.64015 114.553 8.30682 114.818C8.98106 115.076 9.74242 115.205 10.5909 115.205C11.4242 115.205 12.1477 115.083 12.7614 114.841C13.3826 114.598 13.8636 114.261 14.2045 113.83C14.5455 113.398 14.7159 112.902 14.7159 112.341C14.7159 111.818 14.5606 111.379 14.25 111.023C13.947 110.667 13.5 110.364 12.9091 110.114C12.3258 109.864 11.6098 109.636 10.7614 109.432L8.22727 108.795C6.26515 108.318 4.71591 107.572 3.57955 106.557C2.44318 105.542 1.87879 104.174 1.88636 102.455C1.87879 101.045 2.25379 99.8144 3.01136 98.7614C3.77652 97.7083 4.82576 96.8864 6.15909 96.2955C7.49242 95.7045 9.00758 95.4091 10.7045 95.4091C12.4318 95.4091 13.9394 95.7045 15.2273 96.2955C16.5227 96.8864 17.5303 97.7083 18.25 98.7614C18.9697 99.8144 19.3409 101.034 19.3636 102.42H14.6477ZM22.9915 119V95.7273H38.6733V99.7841H27.9119V105.33H37.8665V109.386H27.9119V114.943H38.7188V119H22.9915ZM42.5852 119V95.7273H51.767C53.5322 95.7273 55.036 96.0644 56.2784 96.7386C57.5208 97.4053 58.4678 98.3333 59.1193 99.5227C59.7784 100.705 60.108 102.068 60.108 103.614C60.108 105.159 59.7746 106.523 59.108 107.705C58.4413 108.886 57.4754 109.807 56.2102 110.466C54.9527 111.125 53.4299 111.455 51.642 111.455H45.7898V107.511H50.8466C51.7936 107.511 52.5739 107.348 53.1875 107.023C53.8087 106.689 54.2708 106.231 54.5739 105.648C54.8845 105.057 55.0398 104.379 55.0398 103.614C55.0398 102.841 54.8845 102.167 54.5739 101.591C54.2708 101.008 53.8087 100.557 53.1875 100.239C52.5663 99.9129 51.7784 99.75 50.8239 99.75H47.5057V119H42.5852ZM75.929 102.42C75.8381 101.504 75.4479 100.792 74.7585 100.284C74.0691 99.7765 73.1335 99.5227 71.9517 99.5227C71.1487 99.5227 70.4706 99.6364 69.9176 99.8636C69.3646 100.083 68.9403 100.39 68.6449 100.784C68.357 101.178 68.2131 101.625 68.2131 102.125C68.1979 102.542 68.285 102.905 68.4744 103.216C68.6714 103.527 68.9403 103.795 69.2812 104.023C69.6222 104.242 70.0161 104.436 70.4631 104.602C70.91 104.761 71.3873 104.898 71.8949 105.011L73.9858 105.511C75.0009 105.739 75.9328 106.042 76.7812 106.42C77.6297 106.799 78.3646 107.265 78.9858 107.818C79.607 108.371 80.0881 109.023 80.429 109.773C80.7775 110.523 80.9555 111.383 80.9631 112.352C80.9555 113.777 80.5919 115.011 79.8722 116.057C79.16 117.095 78.1297 117.902 76.7812 118.477C75.4403 119.045 73.8229 119.33 71.929 119.33C70.0502 119.33 68.4138 119.042 67.0199 118.466C65.6335 117.89 64.5502 117.038 63.7699 115.909C62.9972 114.773 62.5919 113.367 62.554 111.693H67.3153C67.3684 112.473 67.5919 113.125 67.9858 113.648C68.3873 114.163 68.9214 114.553 69.5881 114.818C70.2623 115.076 71.0237 115.205 71.8722 115.205C72.7055 115.205 73.429 115.083 74.0426 114.841C74.6638 114.598 75.1449 114.261 75.4858 113.83C75.8267 113.398 75.9972 112.902 75.9972 112.341C75.9972 111.818 75.8419 111.379 75.5312 111.023C75.2282 110.667 74.7813 110.364 74.1903 110.114C73.607 109.864 72.8911 109.636 72.0426 109.432L69.5085 108.795C67.5464 108.318 65.9972 107.572 64.8608 106.557C63.7244 105.542 63.16 104.174 63.1676 102.455C63.16 101.045 63.535 99.8144 64.2926 98.7614C65.0578 97.7083 66.107 96.8864 67.4403 96.2955C68.7737 95.7045 70.2888 95.4091 71.9858 95.4091C73.7131 95.4091 75.2206 95.7045 76.5085 96.2955C77.804 96.8864 78.8116 97.7083 79.5312 98.7614C80.2509 99.8144 80.6222 101.034 80.6449 102.42H75.929ZM84.2727 119V95.7273H99.9545V99.7841H89.1932V105.33H99.1477V109.386H89.1932V114.943H100V119H84.2727Z" fill="white"/>
<defs>
<linearGradient id="paint0_linear_4393_19573" x1="50.9998" y1="62.15" x2="50.9998" y2="67.59" gradientUnits="userSpaceOnUse">
<stop stop-color="white"/>
<stop offset="0.16" stop-color="white" stop-opacity="0.76"/>
<stop offset="0.32" stop-color="white" stop-opacity="0.53"/>
<stop offset="0.49" stop-color="white" stop-opacity="0.34"/>
<stop offset="0.64" stop-color="white" stop-opacity="0.19"/>
<stop offset="0.78" stop-color="white" stop-opacity="0.09"/>
<stop offset="0.9" stop-color="white" stop-opacity="0.02"/>
<stop offset="1" stop-color="white" stop-opacity="0"/>
</linearGradient>
<clipPath id="clip0_4393_19573">
<rect width="80" height="80" fill="white" transform="translate(11)"/>
</clipPath>
</defs>
</svg>
