<svg width="81" height="80" viewBox="0 0 81 80" fill="none" xmlns="http://www.w3.org/2000/svg">
<g clip-path="url(#clip0_4949_21958)">
<path d="M48 63.5801V70.0001C48 71.9892 47.2098 73.8969 45.8033 75.3034C44.3968 76.7099 42.4891 77.5001 40.5 77.5001C38.5109 77.5001 36.6032 76.7099 35.1967 75.3034C33.7902 73.8969 33 71.9892 33 70.0001V63.5801L30.5 64.3001V70.0001C30.5 72.6522 31.5536 75.1958 33.4289 77.0711C35.3043 78.9465 37.8478 80.0001 40.5 80.0001C43.1522 80.0001 45.6957 78.9465 47.5711 77.0711C49.4464 75.1958 50.5 72.6522 50.5 70.0001V64.3001L48 63.5801Z" fill="white"/>
<path d="M70.5 30H50.5V10C50.5 7.34784 49.4464 4.8043 47.5711 2.92893C45.6957 1.05357 43.1522 0 40.5 0C37.8478 0 35.3043 1.05357 33.4289 2.92893C31.5536 4.8043 30.5 7.34784 30.5 10V30H10.5C7.84784 30 5.3043 31.0536 3.42893 32.9289C1.55357 34.8043 0.5 37.3478 0.5 40C0.5 42.6522 1.55357 45.1957 3.42893 47.0711C5.3043 48.9464 7.84784 50 10.5 50H20.5L21.75 47.5H10.5C8.51088 47.5 6.60322 46.7098 5.1967 45.3033C3.79018 43.8968 3 41.9891 3 40C3 38.0109 3.79018 36.1032 5.1967 34.6967C6.60322 33.2902 8.51088 32.5 10.5 32.5H29.29L33 25.08V10C33 8.01088 33.7902 6.10322 35.1967 4.6967C36.6032 3.29018 38.5109 2.5 40.5 2.5C42.4891 2.5 44.3968 3.29018 45.8033 4.6967C47.2098 6.10322 48 8.01088 48 10V25.06L51.72 32.5H70.5C72.4891 32.5 74.3968 33.2902 75.8033 34.6967C77.2098 36.1032 78 38.0109 78 40C78 41.9891 77.2098 43.8968 75.8033 45.3033C74.3968 46.7098 72.4891 47.5 70.5 47.5H59.22L60.5 50H70.5C73.1522 50 75.6957 48.9464 77.5711 47.0711C79.4464 45.1957 80.5 42.6522 80.5 40C80.5 37.3478 79.4464 34.8043 77.5711 32.9289C75.6957 31.0536 73.1522 30 70.5 30Z" fill="white"/>
<path d="M40.5098 61.5L15.5098 68.5H65.4998L40.5098 61.5Z" fill="url(#paint0_linear_4949_21958)"/>
<path d="M40.5 15L15.5 65L40.5 57.78L65.5 65L40.5 15Z" fill="white"/>
<path d="M40.5098 20.0703V54.3003L60.5098 60.0703L40.5098 20.0703Z" fill="white"/>
<path d="M40.51 20.0703V54.3003L20.5 60.0703L40.51 20.0703Z" fill="#00BB7E"/>
</g>
<defs>
<linearGradient id="paint0_linear_4949_21958" x1="40.4998" y1="62.15" x2="40.4998" y2="67.59" gradientUnits="userSpaceOnUse">
<stop stop-color="white"/>
<stop offset="0.16" stop-color="white" stop-opacity="0.76"/>
<stop offset="0.32" stop-color="white" stop-opacity="0.53"/>
<stop offset="0.49" stop-color="white" stop-opacity="0.34"/>
<stop offset="0.64" stop-color="white" stop-opacity="0.19"/>
<stop offset="0.78" stop-color="white" stop-opacity="0.09"/>
<stop offset="0.9" stop-color="white" stop-opacity="0.02"/>
<stop offset="1" stop-color="white" stop-opacity="0"/>
</linearGradient>
<clipPath id="clip0_4949_21958">
<rect width="80" height="80" fill="white" transform="translate(0.5)"/>
</clipPath>
</defs>
</svg>
