<svg width="25" height="24" viewBox="0 0 25 24" fill="none" xmlns="http://www.w3.org/2000/svg">
<g clip-path="url(#clip0_5040_538)">
<path fill-rule="evenodd" clip-rule="evenodd" d="M20.333 3H4.33301C3.23301 3 2.33301 3.9 2.33301 5V19C2.33301 20.1 3.23301 21 4.33301 21H20.333C21.433 21 22.333 20.1 22.333 19V5C22.333 3.9 21.433 3 20.333 3ZM20.333 19H4.33301V5H20.333V19Z" fill="#ADB5BD"/>
<path fill-rule="evenodd" clip-rule="evenodd" d="M19.743 10.42L18.323 9L15.153 12.17L13.743 10.75L12.333 12.16L15.153 15L19.743 10.42Z" fill="#ADB5BD"/>
<path d="M10.333 7H5.33301V9H10.333V7Z" fill="#ADB5BD"/>
<path d="M10.333 11H5.33301V13H10.333V11Z" fill="#ADB5BD"/>
<path d="M10.333 15H5.33301V17H10.333V15Z" fill="#ADB5BD"/>
</g>
<defs>
<clipPath id="clip0_5040_538">
<rect width="24" height="24" fill="white" transform="translate(0.333008)"/>
</clipPath>
</defs>
</svg>
