<svg width="121" height="130" viewBox="0 0 121 130" fill="none" xmlns="http://www.w3.org/2000/svg">
<g clip-path="url(#clip0_4126_4596)">
<path d="M86.8931 84.6753C81.5023 83.088 76.0281 86.6336 71.765 90.2914C67.5019 93.9491 62.9194 98.159 57.3014 98.1791C51.6201 98.1992 46.9772 93.9347 42.6623 90.2425C38.3445 86.5502 32.7668 82.9845 27.3444 84.684C25.3279 85.3166 23.5818 86.6307 21.5854 87.3209C17.4632 88.7443 12.7801 87.2662 9.32816 84.6006C8.4738 83.9421 7.68273 83.2203 6.93481 82.4496C8.48243 89.4344 10.3839 96.1691 14.1062 102.596C17.1583 107.864 20.9986 112.652 25.5148 116.652C37.4528 127.231 54.0595 132.123 69.5241 129.135C84.9888 126.147 98.9116 115.18 105.344 100.356C105.603 99.7607 105.847 99.1626 106.083 98.5587C102.387 96.8822 98.9691 94.6047 96.0436 91.7867C93.2274 89.0779 90.6413 85.7796 86.8931 84.6753Z" fill="#ABFEE6"/>
<path d="M121.153 51.2351C122.379 43.701 120.161 34.7752 113.553 31.3331C107.366 28.1096 99.4206 30.6401 93.3165 27.2527C87.1375 23.825 85.1728 15.8078 81.0161 9.97614C75.7116 2.53413 66.098 -1.33929 57.3099 0.420568C48.5248 2.1833 41.0139 9.49305 38.7961 18.4419C37.7864 22.5166 37.8036 26.7811 37.2456 30.9478C36.6846 35.1145 35.4132 39.4164 32.4157 42.2632C27.281 47.1402 19.1172 46.151 12.8634 49.3516C3.95168 53.9122 3.17787 64.5462 5.04479 73.4289C5.68627 76.477 6.27885 79.4848 6.93472 82.4496C7.68264 83.2174 8.47371 83.942 9.32806 84.6005C12.78 87.2662 17.4602 88.7442 21.5853 87.3208C23.5845 86.6307 25.3278 85.3165 27.3443 84.6839C32.7667 82.9844 38.3444 86.5502 42.6622 90.2424C46.98 93.9347 51.62 98.202 57.3013 98.179C62.9193 98.1589 67.5018 93.9491 71.7649 90.2913C76.0281 86.6336 81.5022 83.088 86.893 84.6753C90.6412 85.7795 93.2273 89.0778 96.0406 91.7895C98.9661 94.6076 102.384 96.885 106.08 98.5615C109.333 90.2367 110.588 81.1728 113.582 72.7215C116.122 65.5469 119.928 58.7662 121.153 51.2351Z" fill="#DCFBF3"/>
<path d="M31.9612 24.2419C31.6562 27.6667 29.9734 30.9506 27.3701 33.1965C24.3928 35.7673 20.4662 36.8916 16.6748 37.9441C14.6181 38.5163 12.5613 39.0886 10.5045 39.6608C9.35386 39.98 8.17733 40.3049 6.98641 40.2158C4.91525 40.0634 3.10011 38.6601 1.92645 36.9434C-0.535926 33.3431 -0.504283 28.4259 1.26483 24.4403C3.03395 20.4548 6.32192 17.3117 9.9522 14.8991C12.7713 13.0271 15.9125 11.5059 19.2782 11.1378C22.5345 10.7813 26.5733 11.644 28.8429 14.1975C31.1528 16.797 32.2632 20.8343 31.9612 24.2419Z" fill="#DCFBF3"/>
<path d="M12.7457 107.112L11.9071 108.502C10.5895 110.682 9.89355 113.18 9.89355 115.729V127.139L33.5518 130L53.6734 128.283L48.6822 111.403L12.7457 107.112Z" fill="#974A21"/>
<path d="M17.2606 116.236L24.4279 117.589C29.8127 118.605 35.3487 118.482 40.6821 117.228L45.4879 116.098C47.0765 115.723 48.4284 114.719 49.2555 113.34L48.6822 111.403L12.7457 107.112L11.9072 108.502C11.4537 109.252 11.0772 110.039 10.7749 110.851L10.8776 111.094C12.0156 113.767 14.4085 115.698 17.2606 116.236Z" fill="#5A2A10"/>
<path d="M34.0765 128.727C33.1981 127.743 32.0715 126.704 30.7624 125.734C29.4561 124.761 27.9673 123.855 26.4072 123.099C24.8471 122.344 23.2129 121.74 21.6414 121.32C20.0698 120.896 18.5582 120.656 17.2434 120.579C19.6991 121.543 22.8392 122.759 25.8625 124.232C28.8943 125.688 31.7949 127.396 34.0765 128.727Z" fill="#5A2A10"/>
<path d="M47.0535 119.795C46.0495 119.909 44.903 120.172 43.7279 120.61C42.5528 121.045 41.3521 121.652 40.2398 122.39C39.1275 123.131 38.1007 124 37.2451 124.916C36.3837 125.829 35.6935 126.787 35.1973 127.668C36.6832 126.295 38.6284 124.607 40.7731 123.194C42.9037 121.766 45.211 120.63 47.0535 119.795Z" fill="#5A2A10"/>
<path d="M34.9207 57.1354L47.567 58.9951L63.7498 64.9832L62.6803 79.1224L56.0263 77.5002L50.2965 94.5204C49.2725 97.5617 49.4009 100.875 50.6587 103.827C51.7025 106.276 51.5 109.08 50.1196 111.355L49.4608 112.436C48.9103 113.343 48.0005 113.97 46.9595 114.161C40.7704 115.289 28.8885 116.453 17.5372 113.538C14.7307 112.817 12.3378 110.98 10.9345 108.436C9.65393 106.113 9.30027 103.39 9.942 100.812C11.2169 95.6848 13.5585 86.9244 15.8145 81.8861L6.14014 76.7134L12.9995 65.9445C15.2754 62.3711 18.9461 59.922 23.1102 59.1953L34.9207 57.1354Z" fill="#D17B4D"/>
<path d="M62.6801 79.1224L63.7497 64.9832L47.5668 58.9951L34.9719 57.144C37.6843 66.9716 41.7885 76.413 47.139 85.0848C48.431 87.179 49.8285 89.259 51.4343 91.1215L56.0205 77.4973L62.6801 79.1224Z" fill="#974A21"/>
<path fill-rule="evenodd" clip-rule="evenodd" d="M22.5962 79L9.94189 100.815C11.2196 95.6906 13.5612 86.9272 15.8144 81.889L12.6942 80.221L22.5962 78V79Z" fill="#974A21"/>
<path d="M43.5085 68.1675C42.3705 68.3735 41.0671 68.4107 39.7466 68.1503C38.4289 67.8929 37.1027 67.3407 35.9932 66.4938C34.8866 65.6441 34.0053 64.5054 33.412 63.298C32.8131 62.0878 32.5079 60.8175 32.4053 59.6617C32.14 60.7889 32.1657 62.208 32.6505 63.6128C33.124 65.0147 34.0481 66.3908 35.3258 67.3693C36.6036 68.3478 38.1694 68.8828 39.6439 68.9715C41.1241 69.0687 42.496 68.7225 43.5085 68.1675Z" fill="#974A21"/>
<path d="M52.8178 82.135C51.1864 82.0206 49.3439 81.8604 47.413 81.5628C45.4793 81.2681 43.46 80.8361 41.4778 80.2639C39.4984 79.686 37.559 78.9679 35.7707 78.1811C33.9796 77.3972 32.3339 76.5446 30.8965 75.7664C32.0174 76.9537 33.4948 78.1696 35.2345 79.2168C36.9715 80.2696 38.9679 81.1537 41.0471 81.7602C43.1263 82.3639 45.2854 82.6872 47.3132 82.7273C49.3411 82.773 51.2348 82.5384 52.8178 82.135Z" fill="#974A21"/>
<path d="M48.8988 89.5737C47.0678 90.5665 44.9316 91.6451 42.59 92.6379C40.2513 93.6335 37.7072 94.5405 35.1118 95.2672C32.5163 95.9881 29.8724 96.5317 27.354 96.8922C24.8385 97.2556 22.4541 97.4387 20.3721 97.5388C22.4398 97.7648 24.8613 97.8306 27.4339 97.6246C30.0065 97.4215 32.7245 96.9523 35.3713 96.2142C38.0181 95.4731 40.5878 94.4689 42.8952 93.3074C45.2054 92.1486 47.2446 90.8383 48.8988 89.5737Z" fill="#974A21"/>
<path d="M41.8541 91.7738C39.7464 91.8654 37.0597 91.997 34.3731 91.9083C31.6864 91.8339 29.0111 91.5421 26.9148 91.3247C28.8371 92.1916 31.5694 92.8381 34.3445 92.9154C37.1168 93.0041 39.8833 92.5206 41.8541 91.7738Z" fill="#974A21"/>
<path d="M15.8116 81.8861L7.28099 77.3171L1.18604 87.5195L15.8116 81.8861Z" fill="#F57F62"/>
<path d="M7.28097 77.3171L15.8116 81.8861L8.98653 84.5154L6.63354 78.4043L7.28097 77.3171Z" fill="#5A2A10"/>
<path d="M17.6514 76.1011L17.1152 72.768L2.03322 86.5667C-0.667726 89.0387 -0.679133 93.2987 2.00755 95.7878C4.79691 98.3685 9.21768 97.8735 11.371 94.7407L20.1042 82.0349L19.9502 81.8117C18.7665 80.1008 17.9822 78.1525 17.6514 76.1011Z" fill="#F9A78D"/>
<path d="M17.5714 72.3503L17.1179 72.7652L17.6541 76.0983C17.985 78.1496 18.7693 80.1008 19.9529 81.806L20.1069 82.0292L22.5963 78L17.5714 72.3503Z" fill="#F57F62"/>
<path d="M25.2521 63.7272C26.0935 63.2408 27.1716 63.6099 27.5424 64.5111L28.7089 67.3321C29.0198 68.0845 28.6832 68.9486 27.9474 69.2919C27.2001 69.6409 26.3131 69.3262 25.9509 68.5824L24.6076 65.8415C24.2311 65.0776 24.5135 64.1506 25.2521 63.7272Z" fill="#F57F62"/>
<path d="M16.0541 65.4925L19.0431 63.0806C19.9843 62.3196 21.302 62.2309 22.3373 62.8575L24.0971 63.9246C24.6418 64.2536 25.0611 64.7572 25.2864 65.3551L28.3952 73.5434C28.6091 74.1041 28.5121 74.7364 28.1442 75.2114C28.1442 75.2114 27.5289 76.0309 27.1346 76.556C26.8505 75.7885 26.4073 74.5905 26.4073 74.5905C24.7188 74.622 23.1245 75.3916 22.0493 76.6962L21.938 76.8307C21.938 76.8307 25.1052 76.6633 27.1346 76.556C26.2713 77.3013 25.6781 77.6388 24.5964 78C23.2712 78.4425 21.0311 78.2955 21.0311 78.2955C19.7904 78.0352 18.7665 77.1597 18.3187 75.9695L15.3468 68.0817C15.0017 67.1576 15.2869 66.1133 16.0541 65.4925Z" fill="#F9A78D"/>
<path d="M27.1346 76.556C26.8505 75.7885 26.4073 74.5905 26.4073 74.5905C24.7188 74.622 23.1245 75.3916 22.0493 76.6962L21.938 76.8307C21.938 76.8307 25.1052 76.6633 27.1346 76.556Z" fill="#F9A78D"/>
<path d="M28.0331 72.5849L24.4623 71.5836C23.9375 71.4377 23.3756 71.5836 22.9906 71.9698L21.0654 73.8982L22.4829 71.7238C23.0762 70.8111 24.2712 70.5136 25.2238 71.0371L28.0331 72.5849Z" fill="#F57F62"/>
<path d="M27.2773 70.5908L23.6637 68.8055C22.9078 68.4307 21.9923 68.6682 21.5103 69.3634L20.1841 71.2774L21.1053 69.1689C21.6215 67.9844 23.0961 67.5781 24.1428 68.3334L27.2773 70.5908Z" fill="#F57F62"/>
<path d="M26.0337 67.3178L23.27 65.5611C22.5114 65.0804 21.5131 65.2378 20.9399 65.9302L19.5908 67.5581L20.7117 65.4753C21.2023 64.5655 22.3973 64.328 23.1959 64.986L26.0337 67.3178Z" fill="#F57F62"/>
<path d="M40.2201 58.892C41.5492 59.9392 43.2405 60.5114 44.9289 60.4885C45.7275 60.4771 46.5204 60.3283 47.2733 60.0651L48.3742 56.0911L37.1084 53.6163L36.9031 53.9482C37.6475 55.8393 38.64 57.6475 40.2201 58.892Z" fill="#5A2A10"/>
<path d="M44.9289 60.4885C43.2405 60.5114 41.5492 59.9392 40.2201 58.892C38.64 57.6475 37.6475 55.8422 36.9002 53.9482L34.9209 57.1382C33.9426 58.7175 33.8228 60.6831 34.6014 62.3711C35.8079 64.9746 38.5288 66.5911 41.3695 66.2392C44.0419 65.9073 46.181 64.0047 46.8769 61.487L47.2705 60.0679C46.5204 60.3283 45.7275 60.4771 44.9289 60.4885Z" fill="#F9A78D"/>
<path d="M54.3379 45.5912L52.5554 38.41C51.925 35.672 50.2508 33.449 48.049 32.0642C43.8479 32.2674 39.6952 33.4032 35.9818 35.3859C36.4552 36.8622 36.8973 38.4844 36.6663 40.0179C36.4524 41.4455 35.591 42.7616 34.3732 43.5312L34.2163 48.9843L34.5158 50.186C35.7793 55.6763 41.2439 59.1009 46.7171 57.8306C52.1903 56.5632 55.6043 51.0843 54.3379 45.5912Z" fill="#F9A78D"/>
<path d="M46.1949 53.1645C46.1422 53.0511 45.4067 53.4407 44.5498 53.0878C43.6918 52.7373 43.3571 51.9084 43.2514 51.9576C43.1997 51.9718 43.2011 52.2081 43.3686 52.5446C43.5305 52.8753 43.8868 53.2943 44.411 53.5102C44.9357 53.7246 45.4503 53.6626 45.7652 53.5274C46.0875 53.3917 46.2258 53.2132 46.1949 53.1645Z" fill="#17282F"/>
<path d="M46.8747 49.9777C46.868 49.9299 47.4128 49.8138 48.2975 49.6638C48.5221 49.6312 48.7336 49.5784 48.7641 49.4301C48.809 49.2728 48.7027 49.0461 48.58 48.8016C48.3408 48.293 48.0901 47.7596 47.8272 47.2005C46.7783 44.9197 46.0075 43.04 46.1044 43.0006C46.2017 42.9616 47.1303 44.7782 48.1789 47.059C48.4319 47.6218 48.6741 48.158 48.9043 48.6713C49.0025 48.9109 49.164 49.1803 49.0655 49.5072C49.0131 49.6704 48.8535 49.7946 48.7108 49.8382C48.5683 49.887 48.4414 49.8953 48.33 49.9069C47.4363 49.995 46.8807 50.025 46.8747 49.9777Z" fill="#17282F"/>
<path d="M53.5337 59.9049L50.8528 59.6846C49.8003 59.5987 48.8449 60.2997 48.6081 61.3297L47.2705 67.1518L48.0748 67.2405C49.7918 67.4322 51.3661 66.2592 51.6799 64.554L51.9622 63.0148L53.5337 59.9049Z" fill="#B95C45"/>
<path d="M51.1266 65.0318L50.2595 63.2808C49.9344 62.6228 50.1026 61.8274 50.6645 61.3611L53.1116 59.324C54.0414 58.5516 55.2735 58.2483 56.4543 58.5058L61.7164 59.6559L64.888 69.6352L59.7656 74.2758C59.2779 74.7164 58.6419 74.9538 57.983 74.9395L56.2033 74.8966C55.4133 74.8766 54.7088 74.3959 54.4036 73.6635L53.9416 72.5563L53.5765 72.479C52.8378 72.3246 52.2788 71.7151 52.1847 70.9627L51.9565 69.1345C51.3034 69.0916 50.7358 68.6739 50.4962 68.0616L50.1854 67.2663C49.9002 66.5338 50.154 65.6984 50.8014 65.255L51.1266 65.0318Z" fill="#F57F62"/>
<path d="M51.1265 65.0318L55.9437 61.2123L54.3779 61.9419C53.1429 62.517 52.1047 63.4411 51.3917 64.6026L51.1265 65.0318Z" fill="#B95C45"/>
<path d="M51.9622 69.1317L58.7131 67.581L57.1844 68.3535C55.841 69.0315 54.338 69.3262 52.8378 69.2032L51.9622 69.1317Z" fill="#B95C45"/>
<path d="M53.9473 72.5535H58.7131L57.9202 72.7766C56.6368 73.1343 55.2735 73.0685 54.03 72.5878L53.9473 72.5535Z" fill="#B95C45"/>
<path d="M59.5147 74.9939C63.579 86.1977 71.7189 94.8466 80.6032 97.4072L87.3627 99.3556L91.7863 97.7391L90.6141 94.5119L91.2901 93.5048C96.4552 85.8143 97.1483 73.9411 93.084 62.7373L83.4211 36.1069L49.8518 48.3635L59.5147 74.9939Z" fill="#852D70"/>
<path d="M73.6125 29.2862L67.7286 31.4348L63.305 33.0513L52.9975 36.8135C54.8371 41.8861 53.431 47.056 49.8545 48.3606L83.4238 36.104C79.8444 37.4115 75.4521 34.3588 73.6125 29.2862Z" fill="#BA3770"/>
<path d="M78.0363 27.6726L57.4184 35.1999C59.258 40.2725 57.8519 45.4424 54.2754 46.747L63.9383 73.3774C68.0026 84.5812 76.1425 93.2301 85.0268 95.7907L91.7863 97.7391L95.7165 91.8883C100.882 84.1978 101.575 72.3246 97.5105 61.1208L87.8475 34.4904C84.2681 35.7979 79.8788 32.7452 78.0363 27.6726Z" fill="#DF4268"/>
<path d="M92.6248 62.9032L83.8488 38.7161C80.3122 38.5445 76.8184 36.1956 74.5538 32.4104L61.2944 37.2513C61.9846 41.6115 60.8124 45.6655 58.2141 48.0774L66.99 72.2645C70.6664 82.4011 78.099 90.4063 85.9223 92.6607L89.2536 93.6221L91.1902 90.7381C95.7393 83.9661 96.304 73.0398 92.6248 62.9032Z" fill="#BA3770"/>
<path d="M76.385 31.7409L74.554 32.4104C76.8185 36.1955 80.3152 38.5444 83.849 38.7161L85.68 38.0466C82.1434 37.8778 78.6496 35.5261 76.385 31.7409Z" fill="#852D70"/>
<path d="M92.625 62.9032C96.3014 73.0398 95.7395 83.9632 91.1904 90.7353L89.2539 93.6192L90.4118 93.9539L93.0215 90.0686C97.5706 83.2966 98.1325 72.3732 94.4561 62.2366L85.6802 38.0495L83.8491 38.719L92.625 62.9032Z" fill="#852D70"/>
<path d="M85.426 55.1727L80.1895 57.0868L77.634 50.0429L71.5305 52.2717L74.086 59.3155L68.8467 61.2267L71.0685 67.3493L76.3078 65.4352L78.8633 72.4791L84.9668 70.2503L82.4113 63.2094L87.6478 61.2953L85.426 55.1727Z" fill="#C7D2D7"/>
<path d="M87.1286 54.5519L81.8893 56.4659L79.3338 49.4221L73.2331 51.6508L75.7858 58.6918L70.5493 60.6058L72.7711 66.7284L78.0076 64.8144L80.5631 71.8582L86.6666 69.6295L84.1111 62.5885L89.3504 60.6745L87.1286 54.5519Z" fill="white"/>
<path d="M39.8166 26.8008C40.2814 25.9177 41.3552 25.3995 42.3372 25.5847C43.4958 24.6778 45.2978 24.7209 46.411 25.6821C47.2845 25.1714 48.4268 25.1553 49.3137 25.6411C50.2007 26.1268 50.8009 27.0972 50.8387 28.1067C51.8517 27.951 52.9348 28.5034 53.4016 29.414C53.8684 30.3249 53.684 31.5254 52.9651 32.2548C54.0649 32.6176 54.782 33.8779 54.5307 35.0068C54.2797 36.1361 53.0955 36.9754 51.9454 36.8398L40.2428 29.563C39.533 28.861 39.3516 27.6842 39.8166 26.8008Z" fill="#17282F"/>
<path d="M53.9125 36.5302C53.9125 36.5302 52.271 32.582 50.373 31.6531C48.0752 30.5286 47.0701 33.0482 44.8779 32.4249C42.6858 31.8013 40.4925 30.7222 38.2399 32.4054C35.7741 34.2479 36.9178 35.5548 36.7516 38.3457C36.0764 49.6606 33.9896 52.8509 33.4288 47.5168C33.3675 46.9325 31.7463 46.46 31.5189 43.9909C31.2238 40.7899 31.1211 36.9041 31.8483 34.6366C32.4617 32.7257 33.5614 31.4088 35.5291 29.9608C38.635 27.6746 42.8852 27.6462 45.77 27.9507C48.6545 28.2549 54.2014 31.5982 53.9125 36.5302Z" fill="#17282F"/>
<path d="M33.9597 39.0144C34.5172 39.3985 35.1063 39.7947 35.78 39.8645C36.454 39.9345 37.2271 39.5517 37.3439 38.8853C37.3968 38.5863 37.3252 38.2385 37.5237 38.0082C37.7604 37.7332 38.1942 37.8219 38.5547 37.8618C39.8069 38.0008 41.0941 37.1227 41.4194 35.9074C41.7364 36.3867 42.4821 36.3697 42.967 36.0609C43.452 35.7524 43.7662 35.2445 44.1469 34.8137C44.5274 34.383 45.0607 33.9987 45.6294 34.0823C45.9478 34.1291 46.2448 34.32 46.5656 34.2931C47.1315 34.246 47.4111 33.5858 47.4996 33.0256C47.5885 32.4653 47.6584 31.8114 48.1392 31.5091C48.5847 31.2289 49.1594 31.3951 49.6797 31.4743C50.2001 31.5534 50.8734 31.4348 51.0092 30.9268C51.0805 30.6606 50.9675 30.3793 50.8205 30.1457C50.1554 29.0881 48.6947 28.6123 47.5325 29.0747C47.1185 27.6513 45.793 26.5387 44.3173 26.376C42.8416 26.213 41.304 27.0096 40.588 28.3087C39.6816 27.4792 38.3603 27.1266 37.1603 27.3936C35.9601 27.6606 34.9135 28.5403 34.4453 29.6755C33.3987 29.3948 32.2022 29.7934 31.5335 30.6454C30.8656 31.4973 30.7642 32.7527 31.2874 33.6998C30.5106 34.1378 29.8436 34.9027 29.8227 35.7932C29.8019 36.6834 30.6662 37.5748 31.5279 37.3448C31.1763 38.0363 31.4544 38.9785 32.1249 39.369C32.7957 39.7595 33.7543 39.5377 34.1845 38.8922" fill="#17282F"/>
<path d="M31.2118 37.3336C31.197 37.3222 31.1306 37.6948 31.4757 38.1617C31.6469 38.3834 31.94 38.6146 32.3364 38.6801C32.724 38.7471 33.2004 38.6542 33.5667 38.3298L33.3845 38.3018C33.5956 38.6731 33.8749 39.0517 34.2386 39.3786C34.473 39.587 34.7333 39.7648 35.0214 39.8696C35.3033 39.9837 35.6251 39.9958 35.8879 39.9548C36.4345 39.8972 36.9122 39.6069 37.1352 39.2488C37.3663 38.8988 37.4409 38.5729 37.4886 38.3555C37.5335 38.1356 37.5383 38.0113 37.5233 38.0082C37.5049 38.004 37.4681 38.122 37.3952 38.33C37.3213 38.5356 37.2202 38.8433 36.9931 39.1462C36.5815 39.7611 35.2494 40.0695 34.4038 39.1937C34.0657 38.8906 33.7957 38.5326 33.5892 38.1845L33.5138 38.0575L33.4068 38.1563C33.1101 38.4306 32.702 38.5264 32.3664 38.4816C32.0254 38.4395 31.7595 38.2559 31.5888 38.0676C31.2452 37.6738 31.2495 37.3226 31.2118 37.3336Z" fill="#33535F"/>
<path d="M49.4839 25.7426C49.5017 25.7076 49.8722 25.9622 50.1451 26.5823C50.2811 26.887 50.4081 27.2741 50.4277 27.7265C50.4582 28.1772 50.3218 28.7005 49.9919 29.1194C49.6564 29.5348 49.2131 29.7908 48.8097 29.9617C48.4031 30.1354 48.0247 30.2435 47.7086 30.3299C47.074 30.4949 46.682 30.5856 46.6702 30.5526C46.6577 30.5176 47.0365 30.3628 47.654 30.1535C47.9609 30.0455 48.3274 29.9202 48.7109 29.7426C49.0931 29.567 49.4927 29.3219 49.7863 28.9582C50.0741 28.588 50.2012 28.1438 50.1867 27.7334C50.182 27.3211 50.0818 26.9495 49.974 26.6523C49.7573 26.0464 49.4611 25.7683 49.4839 25.7426Z" fill="#ADB5BD"/>
<path d="M50.839 30.0187C50.4033 30.3882 49.9065 30.5786 49.5411 30.6317C49.1734 30.6873 48.9462 30.6367 48.9481 30.607C48.9481 30.5653 49.1694 30.5481 49.5006 30.4513C49.8319 30.3568 50.2698 30.1579 50.6692 29.8201C51.0665 29.4797 51.3323 29.0795 51.4781 28.7677C51.6261 28.4563 51.6778 28.241 51.7193 28.2475C51.749 28.2505 51.7629 28.4824 51.65 28.8362" fill="#ADB5BD"/>
<path d="M40.981 45.1798C41.0829 45.7051 41.6134 46.052 42.1647 45.9552C42.7153 45.8586 43.08 45.3554 42.9779 44.8298C42.8755 44.3045 42.3457 43.9569 41.795 44.0533C41.2434 44.1501 40.8789 44.6544 40.981 45.1798Z" fill="#17282F"/>
<path d="M39.2767 43.7629C39.429 43.8635 40.0496 43.137 41.1146 42.8939C42.1746 42.6357 43.0818 43.0018 43.1671 42.845C43.2103 42.7741 43.0315 42.5705 42.6348 42.4023C42.2431 42.2335 41.6167 42.1262 40.9544 42.2821C40.2928 42.439 39.7917 42.8113 39.5289 43.1347C39.2599 43.4609 39.2031 43.7193 39.2767 43.7629Z" fill="#17282F"/>
<path d="M48.981 43.1798C49.0829 43.7052 49.6134 44.052 50.1647 43.9553C50.7153 43.8586 51.08 43.3554 50.9779 42.8298C50.8755 42.3045 50.3457 41.9569 49.795 42.0534C49.2434 42.1501 48.8789 42.6544 48.981 43.1798Z" fill="#17282F"/>
<path d="M47.2767 41.7629C47.429 41.8635 48.0496 41.1369 49.1146 40.8938C50.1746 40.6356 51.0818 41.0017 51.1671 40.845C51.2103 40.7741 51.0315 40.5705 50.6348 40.4023C50.2431 40.2335 49.6167 40.1262 48.9544 40.2821C48.2928 40.439 47.7917 40.8113 47.5289 41.1347C47.2599 41.4609 47.2031 41.7193 47.2767 41.7629Z" fill="#17282F"/>
<path d="M46.2565 39.571C46.6647 39.8483 47.4508 38.7571 48.7146 37.8722C49.9542 36.9521 51.2407 36.5489 51.1029 36.0758C51.0319 35.8541 50.5799 35.6594 49.915 35.6539C49.2541 35.6468 48.3963 35.8634 47.6449 36.404C46.8955 36.9461 46.4212 37.689 46.2228 38.3169C46.0211 38.9472 46.0666 39.4353 46.2565 39.571Z" fill="#17282F"/>
<path d="M38.1655 40.8754C38.4037 41.2384 39.4353 40.9221 40.6521 40.9622C41.8704 40.9577 42.8836 41.3041 43.1413 40.9484C43.2557 40.7752 43.1142 40.4162 42.6835 40.063C42.2595 39.7112 41.5337 39.406 40.6965 39.3931C39.8599 39.3818 39.1179 39.6651 38.6741 40.0044C38.2236 40.3447 38.0616 40.699 38.1655 40.8754Z" fill="#17282F"/>
<path d="M35.0064 50.0585C34.7563 49.4757 34.0684 49.2028 33.5006 49.4839C32.8121 49.8247 32.1721 50.5345 32.7835 51.9948C33.8684 54.585 36.242 52.9625 36.2155 52.8863C36.1972 52.8347 35.4699 51.1383 35.0064 50.0585Z" fill="#F9A78D"/>
<path d="M35.2444 52.1476C35.2296 52.1441 35.2125 52.1981 35.1509 52.2651C35.0911 52.33 34.9731 52.4072 34.8169 52.413C34.5017 52.4272 34.0896 52.0892 33.8814 51.6274C33.7763 51.3945 33.7315 51.1494 33.737 50.9286C33.7367 50.706 33.8038 50.5224 33.9311 50.4403C34.0547 50.3511 34.1867 50.3928 34.2488 50.4524C34.3139 50.5104 34.3191 50.5689 34.3348 50.5677C34.3447 50.5711 34.3721 50.501 34.3064 50.4027C34.2742 50.3558 34.2182 50.3075 34.1365 50.2831C34.0534 50.2587 33.9514 50.271 33.8599 50.3216C33.6661 50.419 33.5635 50.6781 33.5572 50.9204C33.5403 51.1684 33.585 51.4462 33.7032 51.7078C33.9384 52.223 34.4098 52.5995 34.8291 52.551C35.0311 52.5223 35.1598 52.4038 35.2126 52.3098C35.2659 52.2122 35.2554 52.1485 35.2444 52.1476Z" fill="#F57F62"/>
<path d="M95.7871 31.3401C95.6252 31.4057 95.4638 31.4698 95.3039 31.5417C95.4638 31.4683 95.6266 31.4013 95.7871 31.3401ZM115.174 45.6941C115.385 43.9153 115.245 42.0812 114.718 40.2913C115.624 39.0617 119.5 37.0353 119.5 37.0353L118.775 35.578C117.058 36.3948 113.186 36.8459 113.186 36.8459C113.275 36.9814 113.374 37.1664 113.476 37.3757C111.58 34.0362 108.444 31.7398 104.908 30.7836C104.253 29.4516 104.422 25.0428 104.422 25.0428L102.773 24.9253C102.632 26.7487 101.153 30.1305 101.084 30.2859C99.7171 30.2932 98.3368 30.5005 96.9842 30.9147C95.7544 30.097 94.6533 27.8477 94.6533 27.8477L93.17 28.5649C93.9557 30.1397 94.2399 31.8471 94.2726 32.0574C93.1794 32.6576 92.1967 33.3826 91.3338 34.2066C89.752 34.0221 86.0324 31.767 86.0324 31.767L85.1026 33.132C86.519 34.0658 88.535 36.5842 88.986 37.1596C88.1964 38.4931 87.6389 39.9475 87.3359 41.4596C85.9581 41.9875 83.7758 41.8204 83.7758 41.8204L83.6787 43.4593C85.1209 43.5458 86.4789 43.9508 87.072 44.1494C87.0745 45.3741 87.2443 46.6099 87.5919 47.8264C86.3477 49.0744 83.0222 50.8143 83.0222 50.8143L83.7574 52.2891C85.1447 51.6291 87.9191 51.2038 88.9836 51.0595C89.7896 52.4226 90.8045 53.6055 91.9704 54.5889C91.7323 56.018 90.501 57.7657 90.501 57.7657L91.8962 58.6723C92.7012 57.4884 93.7468 56.5381 94.2176 56.138C95.9653 57.1082 97.911 57.7065 99.9186 57.8837C100.835 59.2861 101.678 63.1812 101.678 63.1812L103.327 62.8971C103.073 61.4563 103.395 58.854 103.555 57.74C104.77 57.5346 105.979 57.1718 107.15 56.6338C107.741 56.3618 108.302 56.052 108.836 55.7136C110.072 56.4886 111.219 58.2086 111.219 58.2086L112.602 57.284C111.663 55.9248 111.139 54.3927 111.015 54.0081C112.454 52.6314 113.556 50.9828 114.279 49.188C116.041 49.0331 119.755 49.8635 119.755 49.8635L120.184 48.2765C118.528 47.8405 115.775 46.0855 115.174 45.6941Z" fill="#8F53BF"/>
<path d="M111.874 30.1465L110.496 29.2501C109.437 30.8079 107.812 32.0476 107.812 32.0476C108.737 32.507 110.383 33.6166 110.383 33.6166C110.452 32.1608 111.874 30.1465 111.874 30.1465Z" fill="#8F53BF"/>
<path d="M111.764 44.9365C111.035 44.8972 110.559 43.573 109.572 41.9394C109.461 41.7311 109.308 41.5271 109.179 41.31C109.043 41.0954 108.883 40.8817 108.734 40.6593C108.405 40.2276 108.064 39.7755 107.656 39.3482C106.858 38.4819 105.876 37.6792 104.755 37.06C103.623 36.4608 102.406 36.0738 101.233 35.8747C100.646 35.7649 100.075 35.7232 99.5265 35.6804C99.2552 35.6756 98.9864 35.6571 98.728 35.6581C98.472 35.6668 98.2146 35.6494 97.9754 35.6688C96.0401 35.7222 94.6455 36.0344 94.2227 35.4508C94.1227 35.3094 94.0989 35.1254 94.1549 34.8986C94.2133 34.6777 94.338 34.3902 94.5677 34.1061C95.0108 33.5127 95.8317 32.8358 97.0194 32.2739C97.3135 32.1229 97.6368 32.0141 97.9754 31.8864C98.3146 31.7665 98.678 31.6728 99.0572 31.5761C99.8186 31.4149 100.656 31.292 101.546 31.2954C102.435 31.3013 103.382 31.3751 104.34 31.614C105.297 31.8442 106.271 32.1987 107.207 32.6979C108.137 33.2077 108.962 33.8264 109.671 34.4975C110.388 35.1638 110.957 35.9092 111.436 36.6434C111.915 37.3805 112.255 38.14 112.523 38.8577C112.642 39.2244 112.755 39.575 112.833 39.9207C112.904 40.2699 112.983 40.5962 113.009 40.9206C113.159 42.205 113.014 43.2476 112.738 43.9323C112.617 44.2742 112.435 44.5315 112.276 44.6981C112.11 44.8651 111.939 44.9433 111.764 44.9365Z" fill="#BE99E3"/>
<path d="M86.0794 30.8526C86.3339 31.0143 86.1279 31.7685 85.6199 32.5362C85.4482 32.796 85.2635 33.0238 85.0848 33.2059C84.7347 33.5618 84.4075 33.741 84.2391 33.6342C83.9852 33.472 84.1911 32.7183 84.6991 31.9506C85.2075 31.1823 85.8254 30.6904 86.0794 30.8526Z" fill="#8F53BF"/>
<path d="M85.1357 33.1544C85.1357 33.1544 85.7833 32.44 86.0324 31.767C86.2972 31.9243 86.5997 32.103 86.9102 32.2769C86.9102 32.2769 85.9804 33.2058 85.4308 33.368L85.1357 33.1544Z" fill="#624D9E"/>
<path d="M83.3444 41.008C83.6469 41.0216 83.8587 41.7739 83.8172 42.6882C83.8033 42.9981 83.7617 43.286 83.7018 43.5317C83.584 44.0125 83.3934 44.3296 83.1933 44.3208C82.8908 44.3072 82.679 43.555 82.7205 42.6407C82.7621 41.7258 83.0419 40.9949 83.3444 41.008Z" fill="#8F53BF"/>
<path d="M83.7188 43.4618C83.7188 43.4618 83.9782 42.5494 83.7757 41.8205C84.0876 41.8423 84.4267 41.8486 84.7837 41.8443C84.7837 41.8443 84.4723 43.0792 84.0817 43.4914L83.7188 43.4618Z" fill="#624D9E"/>
<path d="M82.2399 50.3142C82.5102 50.1801 83.0711 50.7337 83.4924 51.551C83.635 51.8273 83.7435 52.0983 83.8133 52.3411C83.9509 52.817 83.9445 53.1846 83.7652 53.2734C83.4949 53.4074 82.934 52.8539 82.5127 52.0366C82.0918 51.2193 81.9696 50.4482 82.2399 50.3142Z" fill="#8F53BF"/>
<path d="M83.7931 52.2721C83.7931 52.2721 83.4901 51.364 83.0222 50.8143C83.294 50.6691 83.6039 50.5021 83.9134 50.3268C83.9134 50.3268 84.2639 51.5821 84.1302 52.1293L83.7931 52.2721Z" fill="#624D9E"/>
<path d="M89.568 57.7225C89.7324 57.4729 90.5018 57.6716 91.287 58.1674C91.5523 58.3349 91.7855 58.515 91.9717 58.6894C92.3361 59.0312 92.5198 59.3517 92.4108 59.5173C92.247 59.7674 91.4781 59.5683 90.6929 59.0725C89.9077 58.5772 89.4042 57.9726 89.568 57.7225Z" fill="#8F53BF"/>
<path d="M91.9184 58.6398C91.9184 58.6398 91.2451 57.9609 90.501 57.7657C90.6772 57.5127 90.8535 57.2282 91.0292 56.9232C91.0292 56.9232 91.9605 57.8085 92.1273 58.347L91.9184 58.6398Z" fill="#624D9E"/>
<path d="M100.971 63.7794C100.915 63.4871 101.613 63.1122 102.53 62.9418C102.841 62.8844 103.136 62.8577 103.393 62.8582C103.898 62.8602 104.256 62.9689 104.293 63.1622C104.35 63.4545 103.652 63.8294 102.734 63.9999C101.817 64.1703 101.028 64.0713 100.971 63.7794Z" fill="#8F53BF"/>
<path d="M103.32 62.8582C103.32 62.8582 102.347 62.8927 101.678 63.1812C101.611 62.8845 101.534 62.546 101.448 62.2061C101.448 62.2061 102.775 62.2236 103.274 62.5018L103.32 62.8582Z" fill="#624D9E"/>
<path d="M110.826 59.0394C110.652 58.7962 111.131 58.1726 111.895 57.6467C112.153 57.469 112.411 57.3253 112.646 57.2223C113.106 57.0203 113.478 56.9742 113.593 57.1354C113.767 57.3787 113.289 58.0022 112.525 58.5281C111.76 59.054 111 59.2827 110.826 59.0394Z" fill="#8F53BF"/>
<path d="M112.579 57.2515C112.579 57.2515 111.684 57.6069 111.219 58.2086C111.047 57.9532 110.845 57.6861 110.623 57.4108C110.623 57.4108 111.811 56.8994 112.382 56.9514L112.579 57.2515Z" fill="#624D9E"/>
<path d="M120.011 50.7439C119.718 50.6711 119.664 49.8926 119.891 49.0045C119.968 48.7044 120.067 48.43 120.176 48.2013C120.389 47.7536 120.64 47.4802 120.835 47.5278C121.129 47.6001 121.183 48.379 120.956 49.2667C120.728 50.1549 120.305 50.8163 120.011 50.7439Z" fill="#8F53BF"/>
<path d="M120.145 48.2664C120.145 48.2664 119.768 49.1477 119.755 49.8635C119.452 49.7985 119.106 49.7256 118.755 49.6591C118.755 49.6591 119.328 48.4854 119.796 48.1581L120.145 48.2664Z" fill="#624D9E"/>
<path d="M96.5575 48.4237C97.0209 49.3929 96.857 50.4268 96.1921 50.7322C95.5267 51.0382 94.6128 50.4996 94.1494 49.5304C93.6865 48.5611 93.8504 47.5272 94.5148 47.2218C95.1802 46.9159 96.0946 47.4544 96.5575 48.4237Z" fill="#624D9E"/>
<path d="M95.6311 47.638C96.094 48.6072 95.9306 49.6411 95.2657 49.9465C94.6003 50.252 93.6864 49.7139 93.223 48.7447C92.7596 47.7749 92.9234 46.7416 93.5883 46.4356C94.2537 46.1302 95.1682 46.6687 95.6311 47.638Z" fill="#DFB4EA"/>
<path d="M91.2535 38.5606C91.91 37.7054 92.9179 37.3631 93.5041 37.7962C94.0913 38.2294 94.0344 39.2739 93.3779 40.1291C92.7209 40.9847 91.7134 41.3266 91.1272 40.8939C90.54 40.4603 90.597 39.4157 91.2535 38.5606Z" fill="#624D9E"/>
<path d="M90.2838 37.8822C90.9408 37.027 91.9483 36.6847 92.5349 37.1178C93.1216 37.551 93.0652 38.5955 92.4082 39.4511C91.7517 40.3063 90.7442 40.6486 90.1575 40.2155C89.5709 39.7818 89.6273 38.7373 90.2838 37.8822Z" fill="#DFB4EA"/>
<path d="M102.619 52.0715C102.923 52.7096 102.643 53.4696 101.992 53.7682C101.341 54.0669 100.567 53.7925 100.262 53.1539C99.9577 52.5159 100.238 51.7559 100.888 51.4572C101.539 51.1581 102.313 51.433 102.619 52.0715Z" fill="#624D9E"/>
<path d="M102.323 51.4524C102.628 52.091 102.347 52.8505 101.696 53.1496C101.046 53.4482 100.271 53.1734 99.9666 52.5353C99.6621 51.8972 99.9418 51.1373 100.593 50.8386C101.243 50.5395 102.018 50.8143 102.323 51.4524Z" fill="#DFB4EA"/>
<path d="M105.534 38.2061C105.268 39.0326 104.369 39.4905 103.527 39.2292C102.684 38.968 102.217 38.0866 102.484 37.2601C102.75 36.4336 103.649 35.9757 104.492 36.237C105.334 36.4982 105.801 37.3801 105.534 38.2061Z" fill="#624D9E"/>
<path d="M105.793 37.4049C105.527 38.2314 104.627 38.6893 103.785 38.428C102.942 38.1668 102.476 37.2854 102.742 36.4589C103.008 35.6329 103.907 35.1745 104.749 35.4357C105.592 35.697 106.059 36.5789 105.793 37.4049Z" fill="#DFB4EA"/>
<path d="M109.162 50.4545C109.385 50.9226 109.18 51.4796 108.703 51.6991C108.226 51.9181 107.657 51.7166 107.434 51.2485C107.211 50.7803 107.416 50.2233 107.893 50.0043C108.37 49.7848 108.938 49.9868 109.162 50.4545Z" fill="#624D9E"/>
<path d="M108.945 50.0009C109.168 50.4686 108.963 51.0261 108.485 51.2451C108.009 51.4646 107.441 51.263 107.218 50.7949C106.993 50.3268 107.199 49.7698 107.676 49.5503C108.153 49.3313 108.722 49.5328 108.945 50.0009Z" fill="#DFB4EA"/>
<path d="M120.273 37.5297C120.006 37.6622 119.452 37.115 119.036 36.3074C118.895 36.0345 118.789 35.7664 118.719 35.5266C118.583 35.057 118.59 34.6933 118.767 34.6058C119.035 34.4733 119.588 35.0206 120.004 35.8281C120.42 36.6357 120.54 37.3971 120.273 37.5297Z" fill="#8F53BF"/>
<path d="M118.739 35.595C118.739 35.595 119.039 36.4924 119.5 37.0353C119.232 37.1786 118.925 37.3437 118.62 37.5166C118.62 37.5166 118.274 36.2763 118.407 35.7358L118.739 35.595Z" fill="#624D9E"/>
<path d="M112.795 30.1898C112.633 30.4364 111.873 30.2398 111.098 29.7498C110.835 29.5842 110.605 29.406 110.421 29.2336C110.062 28.8961 109.88 28.5795 109.987 28.4158C110.15 28.1692 110.91 28.3658 111.685 28.8558C112.46 29.3453 112.957 29.9426 112.795 30.1898Z" fill="#8F53BF"/>
<path d="M110.474 29.2827C110.474 29.2827 111.139 29.9538 111.874 30.1466C111.7 30.3966 111.526 30.6778 111.352 30.9789C111.352 30.9789 110.432 30.1038 110.267 29.5721L110.474 29.2827Z" fill="#624D9E"/>
<path d="M105.246 24.6374C105.228 24.9302 104.468 25.1244 103.547 25.0705C103.236 25.0526 102.946 25.0084 102.7 24.9462C102.217 24.8253 101.901 24.6364 101.912 24.4426C101.93 24.1493 102.691 23.9551 103.611 24.009C104.532 24.0629 105.264 24.3441 105.246 24.6374Z" fill="#8F53BF"/>
<path d="M102.77 24.9637C102.77 24.9637 103.711 25.1613 104.422 25.0428C104.414 25.3429 104.404 25.6858 104.403 26.0315C104.403 26.0315 103.136 25.7013 102.726 25.3167L102.77 24.9637Z" fill="#624D9E"/>
<path d="M95.1542 27.0882C95.2904 27.3499 94.7344 27.8948 93.913 28.3061C93.6348 28.445 93.3625 28.5508 93.1179 28.6198C92.6392 28.7548 92.2688 28.749 92.1792 28.5761C92.0431 28.3143 92.5986 27.769 93.4204 27.3587C94.2423 26.9474 95.0181 26.8269 95.1542 27.0882Z" fill="#8F53BF"/>
<path d="M93.1877 28.5999C93.1877 28.5999 94.1136 28.3736 94.6532 27.8477C94.7854 28.1211 94.9458 28.41 95.1235 28.7092C95.1235 28.7092 93.8903 29.0481 93.3383 28.9204L93.1877 28.5999Z" fill="#624D9E"/>
<path d="M110.887 46.0132C110.834 47.0825 110.196 47.9206 109.463 47.8852C108.729 47.8502 108.178 46.9547 108.231 45.8854C108.285 44.8161 108.922 43.978 109.655 44.013C110.389 44.0484 110.94 44.9434 110.887 46.0132Z" fill="#624D9E"/>
<path d="M111.176 45.3013C111.122 46.3706 110.484 47.2087 109.751 47.1738C109.017 47.1383 108.466 46.2434 108.519 45.1741C108.573 44.1048 109.21 43.2661 109.944 43.3016C110.677 43.3365 111.229 44.232 111.176 45.3013Z" fill="#DFB4EA"/>
<path d="M102.78 42.916C103.243 43.8853 102.818 45.0395 101.829 45.4936C100.841 45.9481 99.6639 45.5305 99.201 44.5607C98.7381 43.5915 99.1638 42.4372 100.152 41.9831C101.141 41.5286 102.317 41.9467 102.78 42.916Z" fill="#624D9E"/>
<path d="M102.766 42.1166C103.23 43.0859 102.803 44.2401 101.815 44.6947C100.827 45.1487 99.6497 44.7306 99.1873 43.7613C98.7239 42.7921 99.1501 41.6378 100.138 41.1837C101.127 40.7292 102.303 41.1468 102.766 42.1166Z" fill="#DFB4EA"/>
<path d="M112.005 50.3904C112.147 50.4856 112.107 50.8391 111.859 51.3898C111.613 51.9404 111.135 52.6727 110.395 53.4657C110.027 53.8634 109.584 54.2636 109.081 54.6647C108.57 55.0532 108.001 55.4489 107.359 55.7956C106.082 56.5003 104.536 57.0572 102.841 57.3073C101.144 57.5428 99.4996 57.4423 98.0707 57.1238C97.3539 56.9718 96.6939 56.7523 96.0904 56.5231C95.4918 56.2793 94.9507 56.02 94.4819 55.7422C93.5417 55.1891 92.8703 54.6215 92.4743 54.163C92.0767 53.7046 91.9356 53.3769 92.0431 53.2462C92.2787 52.9602 93.3996 53.558 95.2329 54.1422C95.6894 54.2908 96.1963 54.4262 96.738 54.5578C97.284 54.6744 97.8648 54.7943 98.4822 54.8652C99.7139 55.0201 101.077 55.0347 102.475 54.8429C103.869 54.635 105.171 54.2393 106.307 53.7459C106.877 53.5051 107.399 53.2278 107.888 52.9631C108.369 52.6854 108.815 52.4134 109.21 52.1429C110.796 51.0693 111.697 50.1821 112.005 50.3904Z" fill="#624D9E"/>
<path d="M88.1373 77.2394C88.0433 77.3372 87.9491 77.4339 87.8585 77.5357C87.9487 77.4329 88.0429 77.3337 88.1373 77.2394ZM106.445 81.2685C106.03 79.9398 105.349 78.683 104.407 77.5805C104.66 76.4208 106.766 73.7531 106.766 73.7531L105.789 72.9496C104.83 74.0739 102.227 75.6228 102.227 75.6228C102.333 75.6907 102.462 75.7906 102.601 75.9066C100.196 74.1395 97.2424 73.5058 94.4304 73.9499C93.5433 73.2128 92.2638 70.0318 92.2638 70.0318L91.0567 70.4719C91.5353 71.8101 91.56 74.6782 91.5605 74.8102C90.5928 75.2494 89.6795 75.8345 88.8515 76.5577C87.7196 76.3679 86.2246 75.1218 86.2246 75.1218L85.4001 76.1013C86.4573 76.9691 87.2007 78.09 87.2906 78.2288C86.7057 79.0015 86.2387 79.8277 85.8881 80.6861C84.7075 81.0573 81.3532 80.6381 81.3532 80.6381L81.1269 81.9015C82.4281 82.1143 84.6574 83.2609 85.16 83.5259C85.023 84.7225 85.0892 85.9311 85.3542 87.0999C84.5444 87.9116 82.9433 88.4858 82.9433 88.4858L83.3946 89.6791C84.4451 89.2827 85.5369 89.139 86.0207 89.0916C86.4111 89.9596 86.9238 90.7824 87.5564 91.5349C87.07 92.8151 85.2632 95.1048 85.2632 95.1048L86.2528 95.9176C87.0274 95.0092 88.8605 93.8268 89.5698 93.3867C90.5741 94.0978 91.6695 94.6148 92.8087 94.9423C93.0933 96.0316 92.7746 97.6622 92.7746 97.6622L94.052 97.8625C94.2473 96.7672 94.6874 95.7612 94.8944 95.3279C96.442 95.4615 98.0121 95.2683 99.4924 94.7569C100.588 95.4607 102.422 97.9562 102.422 97.9562L103.501 97.2315C102.864 96.2901 102.266 94.3419 102.026 93.5008C102.823 92.9694 103.565 92.3285 104.226 91.575C104.559 91.1945 104.858 90.7969 105.129 90.3874C106.252 90.5448 107.612 91.4007 107.612 91.4007L108.299 90.3061C107.201 89.64 106.344 88.7195 106.134 88.4858C106.717 87.0528 106.976 85.5334 106.919 84.031C108.12 83.3619 111.018 82.7721 111.018 82.7721L110.819 81.5102C109.506 81.7263 106.996 81.3552 106.445 81.2685Z" fill="#8F53BF"/>
<path d="M99.17 71.287L97.9081 71.0884C97.651 72.5297 96.8922 73.9247 96.8922 73.9247C97.6936 73.9572 99.2139 74.2216 99.2139 74.2216C98.8006 73.1671 99.17 71.287 99.17 71.287Z" fill="#8F53BF"/>
<path d="M103.786 81.8134C103.256 82.0168 102.498 81.2285 101.28 80.383C101.135 80.2703 100.962 80.1741 100.801 80.0612C100.636 79.9523 100.456 79.8513 100.279 79.7409C99.9087 79.5391 99.5232 79.3267 99.0982 79.153C98.2575 78.7917 97.3056 78.5341 96.3143 78.4505C95.321 78.3848 94.3349 78.4965 93.4397 78.7275C92.9887 78.8359 92.5699 78.9877 92.1675 79.1314C91.9735 79.214 91.777 79.2863 91.594 79.369C91.4152 79.4564 91.227 79.5257 91.0635 79.6154C89.7077 80.2675 88.8175 80.9317 88.3323 80.6518C88.2165 80.5833 88.1412 80.4603 88.109 80.2817C88.0803 80.1064 88.0775 79.8629 88.1503 79.5884C88.2763 79.0269 88.6437 78.2862 89.3079 77.5107C89.4686 77.3102 89.6634 77.1304 89.8631 76.9324C90.0656 76.7396 90.2936 76.5578 90.532 76.3689C91.0209 76.0129 91.5758 75.66 92.2087 75.3798C92.8409 75.1018 93.5358 74.8538 94.2912 74.7192C95.0435 74.5786 95.8464 74.5211 96.6693 74.578C97.4903 74.6447 98.2721 74.8216 98.9884 75.0725C99.7083 75.3176 100.348 75.6659 100.921 76.0345C101.495 76.4055 101.977 76.8363 102.395 77.2604C102.596 77.4826 102.787 77.6955 102.952 77.916C103.113 78.1412 103.273 78.3477 103.395 78.5694C103.908 79.433 104.136 80.2186 104.158 80.7917C104.181 81.0728 104.133 81.3131 104.073 81.4818C104.008 81.653 103.912 81.7626 103.786 81.8134Z" fill="#BE99E3"/>
<path d="M81.0964 79.9746C81.3283 80.0085 81.4215 80.6088 81.3049 81.3146C81.2655 81.5535 81.2068 81.7736 81.1378 81.9595C81.0025 82.3231 80.8272 82.5541 80.6739 82.5317C80.4422 82.4973 80.3491 81.8973 80.4658 81.1915C80.5826 80.4852 80.8648 79.9401 81.0964 79.9746Z" fill="#8F53BF"/>
<path d="M81.1575 81.9068C81.1575 81.9068 81.3902 81.1946 81.3532 80.6381C81.591 80.6657 81.8623 80.6964 82.1377 80.7212C82.1377 80.7212 81.773 81.6753 81.4347 81.9647L81.1575 81.9068Z" fill="#624D9E"/>
<path d="M82.3796 88.0464C82.5985 87.96 82.9875 88.4264 83.2482 89.0882C83.3367 89.3124 83.3986 89.5298 83.4341 89.7231C83.5031 90.1016 83.4685 90.387 83.3239 90.4443C83.105 90.5306 82.716 90.0643 82.4552 89.4025C82.1944 88.7403 82.1609 88.1331 82.3796 88.0464Z" fill="#8F53BF"/>
<path d="M83.4239 89.6682C83.4239 89.6682 83.3184 88.9386 82.9434 88.4858C83.1716 88.4023 83.4142 88.2991 83.666 88.1828C83.666 88.1828 83.837 89.1576 83.6908 89.574L83.4239 89.6682Z" fill="#624D9E"/>
<path d="M84.5497 94.9983C84.6989 94.8174 85.2725 95.0321 85.8307 95.4781C86.0196 95.6288 86.1825 95.7866 86.3091 95.9367C86.5577 96.2306 86.6698 96.4934 86.5709 96.6133C86.4217 96.7942 85.8481 96.5795 85.2898 96.1335C84.7319 95.6873 84.4005 95.1791 84.5497 94.9983Z" fill="#8F53BF"/>
<path d="M86.2729 95.8942C86.2729 95.8942 85.7697 95.3462 85.2634 95.1048C85.4101 94.9155 85.577 94.6986 85.7408 94.4761C85.7408 94.4761 86.3879 95.2553 86.4667 95.6859L86.2729 95.8942Z" fill="#624D9E"/>
<path d="M92.0994 97.9276C92.1368 97.6984 92.7456 97.5951 93.4599 97.6976C93.7014 97.7322 93.924 97.786 94.1113 97.8506C94.4783 97.9774 94.7103 98.1465 94.6856 98.2985C94.6487 98.5279 94.0401 98.6307 93.3258 98.5282C92.6116 98.4261 92.0626 98.157 92.0994 97.9276Z" fill="#8F53BF"/>
<path d="M94.0575 97.8324C94.0575 97.8324 93.3644 97.5645 92.7746 97.6622C92.8193 97.4268 92.854 97.169 92.8819 96.8969C92.8819 96.8969 93.8235 97.2293 94.1127 97.5584L94.0575 97.8324Z" fill="#624D9E"/>
<path d="M102.11 98.605C101.978 98.4154 102.354 97.9281 102.95 97.516C103.152 97.3768 103.353 97.2642 103.536 97.1829C103.895 97.0241 104.183 96.9877 104.271 97.113C104.404 97.3023 104.028 97.7898 103.431 98.2018C102.834 98.6139 102.243 98.794 102.11 98.605Z" fill="#8F53BF"/>
<path d="M103.484 97.2061C103.484 97.2061 102.805 97.5395 102.422 97.9562C102.28 97.7671 102.118 97.5515 101.949 97.3378C101.949 97.3378 102.896 96.9289 103.338 96.9679L103.484 97.2061Z" fill="#624D9E"/>
<path d="M107.597 92.1149C107.396 91.9976 107.538 91.4034 107.913 90.7877C108.04 90.5798 108.177 90.3958 108.311 90.2483C108.573 89.959 108.823 89.8081 108.955 89.886C109.156 90.0033 109.015 90.5974 108.639 91.213C108.264 91.8287 107.797 92.2323 107.597 92.1149Z" fill="#8F53BF"/>
<path d="M108.273 90.2901C108.273 90.2901 107.751 90.8263 107.612 91.4007C107.408 91.2743 107.18 91.149 106.936 91.0241C106.936 91.0241 107.616 90.2844 108.037 90.1399L108.273 90.2901Z" fill="#624D9E"/>
<path d="M111.479 83.3153C111.248 83.3568 110.963 82.8217 110.842 82.1196C110.801 81.8823 110.785 81.6561 110.789 81.4593C110.798 81.074 110.89 80.8004 111.043 80.7724C111.274 80.7305 111.56 81.2658 111.681 81.9676C111.801 82.6699 111.711 83.2732 111.479 83.3153Z" fill="#8F53BF"/>
<path d="M110.788 81.5152C110.788 81.5152 110.8 82.2602 111.018 82.7722C110.782 82.8222 110.514 82.8802 110.244 82.9444C110.244 82.9444 110.278 81.9298 110.506 81.5493L110.788 81.5152Z" fill="#624D9E"/>
<path d="M94.1059 89.1131C94.7422 89.6536 94.9541 90.439 94.5794 90.8667C94.2045 91.2949 93.3853 91.2029 92.7489 90.6625C92.1129 90.1218 91.9011 89.3364 92.2754 88.9089C92.6503 88.4807 93.4699 88.5725 94.1059 89.1131Z" fill="#624D9E"/>
<path d="M93.1995 88.8498C93.8355 89.3905 94.0477 90.1757 93.673 90.6034C93.2979 91.0312 92.4789 90.9396 91.8425 90.3991C91.206 89.8583 90.9943 89.0733 91.3688 88.6453C91.7439 88.2174 92.5635 88.3092 93.1995 88.8498Z" fill="#DFB4EA"/>
<path d="M87.2131 83.8001C87.4074 82.9851 88.0138 82.4223 88.567 82.5436C89.121 82.6645 89.4122 83.4235 89.2179 84.2384C89.0234 85.0539 88.4172 85.6162 87.8641 85.4953C87.31 85.374 87.0188 84.615 87.2131 83.8001Z" fill="#624D9E"/>
<path d="M86.3101 83.6266C86.5047 82.8115 87.1107 82.2489 87.6644 82.37C88.218 82.491 88.5095 83.2499 88.315 84.0653C88.1207 84.8803 87.5147 85.4429 86.9611 85.3218C86.4073 85.2004 86.1158 84.4416 86.3101 83.6266Z" fill="#DFB4EA"/>
<path d="M99.5632 89.777C99.9817 90.133 100.024 90.7612 99.6575 91.1793C99.2904 91.5978 98.6541 91.649 98.2351 91.2928C97.8166 90.9368 97.7742 90.3087 98.1405 89.8906C98.5074 89.4718 99.1439 89.421 99.5632 89.777Z" fill="#624D9E"/>
<path d="M99.1568 89.4318C99.5758 89.7879 99.6181 90.4156 99.2512 90.8345C98.8848 91.2526 98.2477 91.3037 97.8292 90.9477C97.4107 90.5917 97.3679 89.9639 97.7349 89.5454C98.1014 89.1267 98.7383 89.0758 99.1568 89.4318Z" fill="#DFB4EA"/>
<path d="M97.2309 79.0162C97.3043 79.687 96.8122 80.297 96.1316 80.3791C95.4509 80.4612 94.84 79.9842 94.7667 79.3134C94.6933 78.6426 95.1857 78.0324 95.8664 77.9503C96.5467 77.8683 97.1577 78.3457 97.2309 79.0162Z" fill="#624D9E"/>
<path d="M97.1602 78.3657C97.2336 79.0365 96.7408 79.6468 96.0605 79.7288C95.3799 79.8109 94.769 79.3338 94.6956 78.663C94.6224 77.9926 95.1147 77.382 95.795 77.3001C96.4756 77.218 97.0867 77.6953 97.1602 78.3657Z" fill="#DFB4EA"/>
<path d="M103.692 86.5533C103.998 86.8145 104.029 87.2748 103.761 87.5819C103.492 87.8887 103.025 87.9261 102.718 87.6649C102.411 87.4037 102.38 86.9434 102.649 86.6366C102.917 86.3296 103.384 86.2926 103.692 86.5533Z" fill="#624D9E"/>
<path d="M103.394 86.3004C103.701 86.5613 103.732 87.022 103.463 87.3288C103.194 87.6358 102.727 87.6731 102.42 87.4119C102.113 87.151 102.082 86.6907 102.351 86.3835C102.62 86.0767 103.087 86.0392 103.394 86.3004Z" fill="#DFB4EA"/>
<path d="M107.471 73.8585C107.324 74.0374 106.757 73.825 106.206 73.384C106.019 73.2352 105.859 73.0789 105.734 72.9307C105.488 72.6408 105.377 72.3806 105.475 72.2624C105.623 72.0835 106.189 72.296 106.741 72.7369C107.292 73.1779 107.619 73.6797 107.471 73.8585Z" fill="#8F53BF"/>
<path d="M105.769 72.973C105.769 72.973 106.267 73.5145 106.766 73.7532C106.621 73.94 106.456 74.1544 106.294 74.3739C106.294 74.3739 105.655 73.604 105.578 73.1785L105.769 72.973Z" fill="#624D9E"/>
<path d="M99.8368 71.0254C99.8002 71.2518 99.1987 71.3535 98.4932 71.252C98.2545 71.2178 98.0347 71.1645 97.8497 71.1005C97.4876 70.9751 97.2579 70.8084 97.2821 70.6582C97.319 70.4317 97.9205 70.33 98.626 70.4315C99.3313 70.5326 99.8735 70.7985 99.8368 71.0254Z" fill="#8F53BF"/>
<path d="M97.9025 71.1186C97.9025 71.1186 98.5872 71.3836 99.1699 71.287C99.1257 71.5197 99.0916 71.7743 99.0635 72.0432C99.0635 72.0432 98.1337 71.7143 97.8479 71.3894L97.9025 71.1186Z" fill="#624D9E"/>
<path d="M92.7196 69.4827C92.7999 69.6961 92.3221 70.0752 91.6521 70.3291C91.4255 70.4152 91.2061 70.4758 91.0114 70.5099C90.631 70.5772 90.3463 70.5438 90.2932 70.4025C90.2128 70.1888 90.6906 69.8097 91.3605 69.5558C92.0309 69.3018 92.6392 69.269 92.7196 69.4827Z" fill="#8F53BF"/>
<path d="M91.067 70.5C91.067 70.5 91.7973 70.3415 92.264 70.0318C92.3533 70.2474 92.4555 70.4935 92.5645 70.7391C92.5645 70.7391 91.5606 70.9071 91.1481 70.7643L91.067 70.5Z" fill="#624D9E"/>
<path d="M86.3393 74.424C86.519 74.5665 86.2975 75.1294 85.8454 75.6819C85.6921 75.8687 85.5325 76.0302 85.3809 76.1568C85.0842 76.4045 84.8196 76.5179 84.7012 76.4237C84.5216 76.2812 84.7425 75.7181 85.1953 75.1662C85.6477 74.6136 86.1598 74.2819 86.3393 74.424Z" fill="#8F53BF"/>
<path d="M85.4238 76.1205C85.4238 76.1205 86.0087 75.6662 86.2246 75.1218C86.4052 75.2738 86.6106 75.4278 86.8317 75.5836C86.8317 75.5836 86.0644 76.2155 85.6323 76.3001L85.4238 76.1205Z" fill="#624D9E"/>
<path d="M103.506 82.8552C103.807 83.6307 103.621 84.4276 103.09 84.6352C102.558 84.8433 101.883 84.3831 101.581 83.6076C101.28 82.8322 101.466 82.0352 101.997 81.8273C102.529 81.6196 103.204 82.0796 103.506 82.8552Z" fill="#624D9E"/>
<path d="M103.485 82.2587C103.786 83.0343 103.599 83.8312 103.068 84.0391C102.536 84.2469 101.861 83.7869 101.56 83.0116C101.258 82.2361 101.444 81.4388 101.976 81.2313C102.507 81.0232 103.183 81.4833 103.485 82.2587Z" fill="#DFB4EA"/>
<path d="M96.7722 83.2311C97.4082 83.7718 97.4725 84.7257 96.9153 85.3616C96.3586 85.9976 95.3913 86.0749 94.7551 85.5339C94.1191 84.9932 94.0548 84.0393 94.6117 83.4036C95.1687 82.7674 96.1359 82.6906 96.7722 83.2311Z" fill="#624D9E"/>
<path d="M96.1028 82.6621C96.7391 83.2026 96.8031 84.1567 96.246 84.7929C95.6892 85.4286 94.7217 85.5055 94.086 84.9647C93.4497 84.4243 93.3857 83.4702 93.9426 82.8345C94.4997 82.1983 95.4667 82.1212 96.1028 82.6621Z" fill="#DFB4EA"/>
<path d="M105.688 85.6053C105.819 85.628 105.903 85.8912 105.902 86.3606C105.902 86.8295 105.795 87.5005 105.522 88.2978C105.387 88.697 105.2 89.1213 104.971 89.5655C104.731 90.0034 104.453 90.4645 104.108 90.9144C103.426 91.8193 102.506 92.7051 101.383 93.4204C100.254 94.1262 99.0555 94.5768 97.9408 94.8043C97.3841 94.924 96.8463 94.9777 96.3454 95.0067C95.8435 95.0237 95.3773 95.0115 94.9566 94.9633C94.1141 94.8694 93.4577 94.6798 93.0313 94.4803C92.6038 94.2813 92.3997 94.0936 92.4344 93.9668C92.5108 93.6891 93.4956 93.7574 94.9815 93.5899C95.3525 93.5505 95.7551 93.4857 96.1811 93.4071C96.6054 93.3165 97.0554 93.2172 97.5159 93.0716C98.4388 92.7905 99.4106 92.3681 100.341 91.7886C101.264 91.1986 102.062 90.5046 102.711 89.7943C103.039 89.4423 103.321 89.08 103.584 88.737C103.837 88.3874 104.067 88.0529 104.261 87.7358C105.046 86.4707 105.403 85.5556 105.688 85.6053Z" fill="#624D9E"/>
<path d="M74.7424 11.8835C74.6378 11.9057 74.5337 11.9271 74.4297 11.9534C74.5339 11.9262 74.6392 11.9032 74.7424 11.8835ZM84.8954 22.6012C85.2121 21.5517 85.3236 20.4315 85.197 19.2966C85.8741 18.6522 88.4261 17.8443 88.4261 17.8443L88.1444 16.8887C87.0226 17.1978 84.6409 17.0568 84.6409 17.0568C84.6802 17.148 84.7198 17.27 84.7593 17.407C83.9726 15.1923 82.3276 13.4739 80.2983 12.5206C80.0459 11.6481 80.6177 9.00906 80.6177 9.00906L79.6364 8.76239C79.3569 9.84626 78.1054 11.7267 78.0474 11.813C77.2225 11.6716 76.3685 11.6493 75.5092 11.7547C74.8553 11.1308 74.4315 9.6578 74.4315 9.6578L73.4611 9.93188C73.7667 10.9647 73.7559 12.024 73.7532 12.1542C73.0304 12.3994 72.3608 12.7315 71.7529 13.1361C70.8193 12.8563 68.8181 11.1005 68.8181 11.1005L68.1122 11.8241C68.8663 12.5379 69.8127 14.2705 70.0232 14.6654C69.4051 15.3848 68.914 16.2019 68.5702 17.0809C67.6835 17.2521 66.3861 16.9187 66.3861 16.9187L66.1529 17.8961C67.0128 18.102 67.7881 18.4908 68.1243 18.6738C67.9952 19.4121 67.9658 20.175 68.0456 20.9452C67.1627 21.5647 64.973 22.2586 64.973 22.2586L65.2588 23.2258C66.1652 22.976 67.8826 23.0155 68.5395 23.0421C68.8799 23.9495 69.3654 24.7706 69.9632 25.4876C69.6673 26.3235 68.7389 27.2454 68.7389 27.2454L69.4831 27.9406C70.0944 27.3129 70.8259 26.8517 71.1524 26.6608C72.1021 27.4319 73.2109 27.9999 74.4019 28.3208C74.805 29.2637 74.8975 31.7009 74.8975 31.7009L75.9213 31.7055C75.9219 30.8102 76.3933 29.2761 76.6088 28.6219C77.3632 28.6277 78.1302 28.538 78.8935 28.3386C79.2787 28.2377 79.6495 28.1108 80.0073 27.9637C80.6696 28.5626 81.1779 29.7216 81.1779 29.7216L82.1095 29.3117C81.6884 28.3925 81.5361 27.4133 81.5028 27.1684C82.5164 26.492 83.3566 25.6161 83.9834 24.6114C85.0618 24.706 87.2116 25.6024 87.2116 25.6024L87.6395 24.6918C86.6883 24.2525 85.2161 22.9013 84.8954 22.6012Z" fill="#8F53BF"/>
<path d="M84.5647 12.8795L83.8299 12.1923C83.0253 13.0182 81.9141 13.5921 81.9141 13.5921C82.4222 13.9675 83.2963 14.8118 83.2963 14.8118C83.493 13.9418 84.5647 12.8795 84.5647 12.8795Z" fill="#8F53BF"/>
<path d="M82.921 21.7811C82.486 21.6797 82.3405 20.8309 81.9197 19.7411C81.8754 19.6038 81.8049 19.4646 81.7502 19.32C81.6907 19.176 81.6175 19.0303 81.5514 18.8804C81.399 18.5851 81.2416 18.2762 81.0413 17.9752C80.653 17.3681 80.1463 16.7795 79.5372 16.2869C78.9187 15.805 78.2266 15.442 77.541 15.197C77.1991 15.0683 76.8589 14.9822 76.5332 14.898C76.3702 14.8661 76.2101 14.8263 76.0543 14.7993C75.8991 14.7773 75.7458 14.7393 75.5996 14.7255C74.4276 14.5514 73.5538 14.5908 73.3612 14.194C73.316 14.0982 73.3214 13.9847 73.3793 13.854C73.438 13.7271 73.5439 13.5671 73.7126 13.4204C74.0429 13.11 74.6098 12.7896 75.3855 12.5777C75.5788 12.518 75.7853 12.4869 76.003 12.4461C76.2201 12.4099 76.4491 12.3922 76.688 12.3744C77.1641 12.3584 77.6817 12.3737 78.2181 12.4707C78.7531 12.569 79.3157 12.7144 79.8675 12.9605C80.42 13.2013 80.9688 13.5188 81.4801 13.9195C81.9858 14.3259 82.4172 14.7867 82.7732 15.2668C83.1342 15.7448 83.3972 16.2546 83.6081 16.7482C83.818 17.2435 83.942 17.7375 84.0269 18.1986C84.0597 18.4323 84.0903 18.6556 84.1003 18.8723C84.1058 19.0903 84.1184 19.2953 84.0999 19.4937C84.0531 20.2837 83.8545 20.8965 83.6156 21.2798C83.5057 21.4729 83.3688 21.6086 83.2549 21.692C83.1372 21.775 83.0259 21.8039 82.921 21.7811Z" fill="#BE99E3"/>
<path d="M68.9439 10.5545C69.0801 10.6791 68.8755 11.1117 68.4875 11.5202C68.3563 11.6584 68.2207 11.776 68.0936 11.8667C67.8447 12.0439 67.6284 12.117 67.5383 12.0346C67.4025 11.9098 67.607 11.4776 67.995 11.069C68.3834 10.6603 68.8082 10.4297 68.9439 10.5545Z" fill="#8F53BF"/>
<path d="M68.1297 11.8411C68.1297 11.8411 68.5962 11.4796 68.818 11.1006C68.9609 11.2236 69.1241 11.3636 69.2926 11.5014C69.2926 11.5014 68.6333 11.9621 68.2848 12.0013L68.1297 11.8411Z" fill="#624D9E"/>
<path d="M66.2128 16.3832C66.3937 16.4236 66.4412 16.8995 66.3186 17.4462C66.2772 17.6314 66.2214 17.8005 66.1591 17.9422C66.0369 18.2194 65.8882 18.3902 65.7686 18.3636C65.5877 18.3231 65.5402 17.8472 65.6628 17.3006C65.7854 16.7536 66.0319 16.343 66.2128 16.3832Z" fill="#8F53BF"/>
<path d="M66.1767 17.9019C66.1767 17.9019 66.4304 17.3796 66.3861 16.9188C66.5717 16.9652 66.7754 17.0052 66.991 17.0406C66.991 17.0406 66.6717 17.7516 66.3923 17.9584L66.1767 17.9019Z" fill="#624D9E"/>
<path d="M64.5549 21.8738C64.7321 21.8219 65.0111 22.2153 65.1779 22.7528C65.2344 22.9345 65.2708 23.1094 65.287 23.2631C65.3192 23.5646 65.2761 23.7855 65.1586 23.8199C64.9814 23.8719 64.7024 23.4784 64.5356 22.941C64.3692 22.4035 64.3777 21.9258 64.5549 21.8738Z" fill="#8F53BF"/>
<path d="M65.2822 23.2194C65.2822 23.2194 65.1964 22.6398 64.9731 22.2587C65.1524 22.2001 65.357 22.1325 65.5621 22.0599C65.5621 22.0599 65.6395 22.8538 65.5006 23.1693L65.2822 23.2194Z" fill="#624D9E"/>
<path d="M68.1815 27.12C68.3072 26.9871 68.7497 27.1888 69.17 27.5714C69.3121 27.7006 69.4334 27.8341 69.527 27.959C69.7101 28.2039 69.7866 28.4166 69.7034 28.5048C69.5779 28.638 69.1358 28.436 68.7154 28.0535C68.295 27.6713 68.0561 27.2532 68.1815 27.12Z" fill="#8F53BF"/>
<path d="M69.4997 27.9234C69.4997 27.9234 69.1663 27.4425 68.7387 27.2455C68.8719 27.1118 69.0085 26.9591 69.1469 26.794C69.1469 26.794 69.6138 27.4268 69.6569 27.7692L69.4997 27.9234Z" fill="#624D9E"/>
<path d="M74.4076 31.9861C74.405 31.804 74.8654 31.6525 75.4365 31.6476C75.6297 31.6461 75.8103 31.6615 75.9654 31.6892C76.2693 31.7442 76.4734 31.8479 76.4752 31.9684C76.4783 32.1506 76.0176 32.3021 75.4466 32.307C74.8755 32.3119 74.4108 32.1681 74.4076 31.9861Z" fill="#8F53BF"/>
<path d="M75.9212 31.6814C75.9212 31.6814 75.3309 31.5984 74.8973 31.701C74.8884 31.515 74.8779 31.3028 74.8623 31.0887C74.8623 31.0887 75.6603 31.2408 75.9314 31.4617L75.9212 31.6814Z" fill="#624D9E"/>
<path d="M80.8523 30.1804C80.7732 30.0152 81.1282 29.6905 81.6449 29.455C81.8193 29.3754 81.9904 29.3163 82.1428 29.2793C82.4416 29.2066 82.6709 29.2185 82.7229 29.3279C82.802 29.4931 82.4473 29.8179 81.9305 30.0533C81.4137 30.2888 80.9311 30.3455 80.8523 30.1804Z" fill="#8F53BF"/>
<path d="M82.0996 29.2898C82.0996 29.2898 81.5222 29.4086 81.1779 29.7216C81.101 29.5492 81.0077 29.3667 80.9034 29.1772C80.9034 29.1772 81.6737 28.9956 82.0125 29.0879L82.0996 29.2898Z" fill="#624D9E"/>
<path d="M87.2723 26.1604C87.1032 26.0852 87.1536 25.6103 87.3853 25.0993C87.4635 24.9266 87.5528 24.7719 87.6428 24.6456C87.8191 24.3986 87.9996 24.2606 88.1118 24.31C88.281 24.3849 88.2307 24.8601 87.9991 25.3709C87.7672 25.8818 87.4418 26.2354 87.2723 26.1604Z" fill="#8F53BF"/>
<path d="M87.6173 24.6816C87.6173 24.6816 87.2959 25.1726 87.2115 25.6025C87.0359 25.531 86.8354 25.4502 86.6309 25.3727C86.6309 25.3727 87.1016 24.7265 87.4182 24.5791L87.6173 24.6816Z" fill="#624D9E"/>
<path d="M73.3849 22.2612C73.5609 22.8947 73.3519 23.5003 72.9186 23.6135C72.485 23.7269 71.9916 23.3049 71.8157 22.6714C71.64 22.0379 71.8491 21.4323 72.282 21.319C72.7157 21.2056 73.2093 21.6277 73.3849 22.2612Z" fill="#624D9E"/>
<path d="M72.9105 21.6889C73.0862 22.3224 72.8775 22.928 72.4442 23.0412C72.0106 23.1543 71.5172 22.7326 71.3413 22.0991C71.1654 21.4652 71.3743 20.8599 71.8077 20.7464C72.2412 20.6333 72.7349 21.0554 72.9105 21.6889Z" fill="#DFB4EA"/>
<path d="M71.2403 15.7515C71.7271 15.3062 72.3711 15.2073 72.6782 15.5309C72.9859 15.8546 72.8402 16.478 72.3533 16.9233C71.8662 17.3689 71.2225 17.4675 70.9154 17.1443C70.6078 16.8203 70.7535 16.1969 71.2403 15.7515Z" fill="#624D9E"/>
<path d="M70.7282 15.2393C71.2154 14.794 71.859 14.6951 72.1664 15.0187C72.4738 15.3423 72.3284 15.9658 71.8412 16.4114C71.3544 16.8567 70.7107 16.9556 70.4034 16.632C70.096 16.3081 70.2414 15.6847 70.7282 15.2393Z" fill="#DFB4EA"/>
<path d="M76.6491 25.1059C76.7646 25.5229 76.5143 25.951 76.0907 26.0617C75.6665 26.1722 75.2291 25.9243 75.1134 25.507C74.998 25.0899 75.2479 24.6618 75.6715 24.5511C76.0958 24.4403 76.5331 24.6885 76.6491 25.1059Z" fill="#624D9E"/>
<path d="M76.5366 24.7013C76.6523 25.1186 76.4024 25.5465 75.9782 25.6573C75.5546 25.768 75.1166 25.5197 75.0012 25.1027C74.8857 24.6856 75.1353 24.2575 75.5595 24.1469C75.9835 24.036 76.4211 24.2843 76.5366 24.7013Z" fill="#DFB4EA"/>
<path d="M79.8846 17.0607C79.636 17.5304 79.0456 17.7106 78.5656 17.4633C78.0857 17.216 77.8983 16.635 78.147 16.1653C78.3956 15.6956 78.9863 15.5155 79.4662 15.7628C79.9459 16.0101 80.1332 16.5913 79.8846 17.0607Z" fill="#624D9E"/>
<path d="M80.1259 16.6054C79.8772 17.0751 79.2863 17.2551 78.8066 17.0079C78.3267 16.7606 78.1393 16.1797 78.3879 15.71C78.6365 15.2406 79.2272 15.0602 79.7069 15.3074C80.1869 15.5547 80.3742 16.1359 80.1259 16.6054Z" fill="#DFB4EA"/>
<path d="M80.7647 24.8291C80.8493 25.135 80.6661 25.4488 80.3554 25.5302C80.0444 25.6113 79.7233 25.4293 79.6387 25.1234C79.5541 24.8174 79.7373 24.5037 80.0483 24.4226C80.359 24.3411 80.6797 24.5234 80.7647 24.8291Z" fill="#624D9E"/>
<path d="M80.6822 24.5327C80.7669 24.8383 80.5836 25.1524 80.2727 25.2335C79.9619 25.3149 79.6412 25.1329 79.5565 24.827C79.4713 24.5209 79.6545 24.2072 79.9655 24.1258C80.2765 24.0447 80.5976 24.2268 80.6822 24.5327Z" fill="#DFB4EA"/>
<path d="M88.8393 18.2247C88.664 18.276 88.3885 17.8871 88.2243 17.3562C88.1684 17.1767 88.1328 17.0038 88.1166 16.8518C88.0846 16.5543 88.1276 16.3358 88.2437 16.302C88.419 16.2507 88.6942 16.6395 88.8587 17.1705C89.0229 17.7015 89.0145 18.1733 88.8393 18.2247Z" fill="#8F53BF"/>
<path d="M88.1209 16.8952C88.1209 16.8952 88.2058 17.4679 88.4259 17.8443C88.249 17.902 88.0467 17.9688 87.8441 18.0405C87.8441 18.0405 87.7678 17.2561 87.9054 16.9445L88.1209 16.8952Z" fill="#624D9E"/>
<path d="M85.1149 13.0037C84.9911 13.1351 84.554 12.9356 84.139 12.5576C83.9986 12.4299 83.8788 12.2979 83.7865 12.1744C83.6059 11.9327 83.5298 11.7225 83.612 11.6353C83.7362 11.5039 84.1732 11.7035 84.5882 12.0815C85.0033 12.4591 85.2392 12.8721 85.1149 13.0037Z" fill="#8F53BF"/>
<path d="M83.8129 12.2096C83.8129 12.2096 84.142 12.6849 84.5645 12.8795C84.4328 13.0117 84.2981 13.1626 84.161 13.3254C84.161 13.3254 83.7002 12.7 83.6576 12.362L83.8129 12.2096Z" fill="#624D9E"/>
<path d="M81.1576 8.85257C81.1156 9.02714 80.6366 9.06311 80.0877 8.93249C79.9019 8.88845 79.7321 8.83094 79.5901 8.76719C79.3124 8.6429 79.1416 8.49527 79.1694 8.37977C79.2114 8.20491 79.6904 8.16893 80.2394 8.29955C80.7886 8.43023 81.1996 8.67771 81.1576 8.85257Z" fill="#8F53BF"/>
<path d="M79.6306 8.78523C79.6306 8.78523 80.1767 9.00469 80.6178 9.00909C80.5807 9.18905 80.5385 9.39467 80.5011 9.60293C80.5011 9.60293 79.7724 9.26878 79.5667 8.99334L79.6306 8.78523Z" fill="#624D9E"/>
<path d="M74.8146 9.25359C74.8687 9.42585 74.4756 9.69491 73.9367 9.85521C73.7542 9.90924 73.5788 9.94401 73.4241 9.95949C73.1212 9.98979 72.8986 9.94679 72.863 9.83305C72.8089 9.66079 73.2018 9.39137 73.7409 9.23171C74.28 9.07147 74.7604 9.08162 74.8146 9.25359Z" fill="#8F53BF"/>
<path d="M73.4682 9.95487C73.4682 9.95487 74.0502 9.91722 74.4315 9.65782C74.482 9.83668 74.5479 10.0279 74.6231 10.2271C74.6231 10.2271 73.8437 10.2999 73.5247 10.1641L73.4682 9.95487Z" fill="#624D9E"/>
<path d="M82.278 22.3364C82.1317 22.9752 81.6581 23.4123 81.22 23.3127C80.7815 23.2134 80.5446 22.615 80.6908 21.9762C80.8371 21.3375 81.3108 20.9004 81.7489 20.9997C82.1873 21.0993 82.424 21.6974 82.278 22.3364Z" fill="#624D9E"/>
<path d="M82.5281 21.9382C82.3815 22.5769 81.9078 23.014 81.4697 22.9148C81.0313 22.8152 80.7946 22.2171 80.9406 21.5783C81.0868 20.9396 81.5605 20.5021 81.9986 20.6017C82.4371 20.701 82.674 21.2995 82.5281 21.9382Z" fill="#DFB4EA"/>
<path d="M77.7228 19.6055C77.8985 20.239 77.5188 20.8892 76.8745 21.0574C76.2305 21.226 75.5658 20.8488 75.3903 20.215C75.2146 19.5815 75.5943 18.9313 76.2383 18.763C76.8826 18.5945 77.5469 18.9719 77.7228 19.6055Z" fill="#624D9E"/>
<path d="M77.5379 18.9387C77.7138 19.5722 77.3338 20.2224 76.6895 20.3909C76.0455 20.5592 75.3809 20.1817 75.2056 19.5483C75.0297 18.9147 75.4096 18.2645 76.0536 18.0963C76.6979 17.9278 77.3623 18.3049 77.5379 18.9387Z" fill="#DFB4EA"/>
<path d="M82.4852 25.0937C82.5601 25.1661 82.4988 25.375 82.2906 25.6804C82.0833 25.986 81.7173 26.3764 81.187 26.7754C80.9223 26.9758 80.6129 27.1697 80.267 27.3578C79.9173 27.5374 79.5326 27.7153 79.1084 27.8557C78.264 28.1443 77.2728 28.3151 76.2249 28.2851C75.1766 28.246 74.1965 28.0101 73.3693 27.6658C72.9535 27.4977 72.5792 27.2951 72.2399 27.0926C71.9052 26.8819 71.6067 26.6679 71.3538 26.4505C70.8462 26.0169 70.5021 25.6032 70.3123 25.2847C70.1216 24.966 70.0715 24.7535 70.1502 24.6862C70.3227 24.5389 70.9344 25.0187 71.977 25.5663C72.2363 25.7045 72.5274 25.8402 72.8397 25.9773C73.1564 26.1057 73.4936 26.24 73.8581 26.3485C74.5839 26.5732 75.4041 26.7274 76.2665 26.7608C77.1292 26.7842 77.9561 26.6845 78.6929 26.5083C79.0626 26.424 79.4066 26.3125 79.7297 26.2052C80.049 26.089 80.3468 25.9727 80.6135 25.8518C81.6839 25.3739 82.3213 24.9352 82.4852 25.0937Z" fill="#624D9E"/>
</g>
<defs>
<clipPath id="clip0_4126_4596">
<rect width="121" height="130" fill="white"/>
</clipPath>
</defs>
</svg>
