<svg width="333" height="351" viewBox="0 0 333 351" fill="none" xmlns="http://www.w3.org/2000/svg">
<path d="M199.764 16.9259C189.109 6.06511 176.529 -0.772152 160.224 0.0698573C126.422 1.81544 112.279 34.9297 98.011 68.339C92.1067 82.1637 86.1809 96.039 78.8316 107.763C74.5531 114.588 69.9327 121.198 65.3528 127.749C49.6071 150.274 34.3416 172.111 35.1062 199.666C36.419 246.977 44.9202 299.041 84.8718 325.439C130.243 355.419 191.561 359.434 240.418 335.327C288.501 311.602 319.927 260.887 322.757 208.063C324.521 175.138 301.597 151.201 278.182 126.752C273.786 122.161 269.372 117.552 265.101 112.863C267.545 110.229 269.72 107.315 271.564 104.132C283.975 82.7115 275.247 56.9395 258.438 38.8029C243.234 22.3975 220.328 10.3503 199.764 16.9259Z" fill="#D2F8E5"/>
<path fill-rule="evenodd" clip-rule="evenodd" d="M296.45 62.1462C308.359 59.0896 319.327 68.2927 325.177 78.9345C331.021 89.5677 332.116 102.896 323.668 111.663C315.119 120.534 300.759 121.663 290.096 115.339C281.539 110.263 284.449 98.8276 285.612 89.0899C286.879 78.4839 285.925 64.8479 296.45 62.1462Z" fill="#D2F8E5"/>
<path fill-rule="evenodd" clip-rule="evenodd" d="M21.2743 166.108C9.05148 164.282 2.52315 151.49 1.29803 139.367C0.0738767 127.254 4.30661 114.505 15.5738 109.7C26.9757 104.838 40.7093 109.403 48.0874 119.415C54.0087 127.45 46.8155 136.885 41.907 145.433C36.5608 154.743 32.0775 167.722 21.2743 166.108Z" fill="#D2F8E5"/>
<path fill-rule="evenodd" clip-rule="evenodd" d="M202.998 288.396C244.369 276.026 298.721 283.718 323.956 251.529C348.862 219.76 308.083 189.703 306.943 155.807C305.802 121.891 345.628 73.9831 317.323 54.3561C288.075 34.0755 234.627 74.5851 192.585 76.5111C158.616 78.0673 130.476 48.3207 98.294 64.3901C65.9882 80.5215 63.3475 118.134 51.125 147.147C41.8954 169.056 42.2702 189.778 36.1482 211.907C26.8641 245.468 -12.9022 284.771 6.0607 310.045C24.2313 334.264 75.3761 318.71 113.162 314.556C143.992 311.167 172.34 297.563 202.998 288.396Z" stroke="#46E4AA" stroke-dasharray="2 2"/>
<circle cx="181.556" cy="182.444" r="89.4444" fill="#E9ECEF"/>
<circle cx="181.556" cy="182.445" r="63.8889" fill="#F8F9FA"/>
<circle cx="176.444" cy="190.111" r="90.4444" stroke="#192E35" stroke-width="2"/>
<circle cx="176.445" cy="190.112" r="64.8889" stroke="#192E35" stroke-width="2"/>
<path d="M166.902 194.692L140.931 167.45L140.926 167.445C135.435 161.74 126.379 161.419 120.652 166.961C114.859 172.482 114.656 181.564 120.167 187.293C120.168 187.293 120.169 187.294 120.17 187.295L160.781 229.891C160.782 229.893 160.784 229.895 160.786 229.897C164.03 233.362 169.5 233.334 172.809 230.015L172.82 230.004L172.83 229.993L244.209 155.469C244.21 155.468 244.211 155.467 244.212 155.466C249.723 149.737 249.518 140.659 243.819 135.139C238.106 129.605 229.047 129.81 223.542 135.53L223.539 135.533L166.902 194.692Z" fill="#46E4AA" stroke="#192E35" stroke-width="3"/>
</svg>
