<svg width="121" height="130" viewBox="0 0 121 130" fill="none" xmlns="http://www.w3.org/2000/svg">
<path d="M86.5531 84.6754C81.1834 83.088 75.7307 86.6336 71.4842 90.2914C67.2378 93.9491 62.6732 98.159 57.0772 98.1791C51.4181 98.1992 46.7934 93.9347 42.4954 90.2425C38.1945 86.5502 32.6386 82.9845 27.2374 84.684C25.2288 85.3166 23.4895 86.6308 21.501 87.3209C17.3949 88.7443 12.7301 87.2663 9.29169 84.6006C8.44068 83.9421 7.65271 83.2203 6.90771 82.4496C8.44928 89.4344 10.3433 96.1691 14.051 102.596C17.0912 107.864 20.9164 112.652 25.415 116.652C37.3063 127.231 53.848 132.123 69.2521 129.135C84.6562 126.147 98.5246 115.18 104.931 100.356C105.189 99.7607 105.433 99.1626 105.668 98.5587C101.986 96.8822 98.5819 94.6048 95.6678 91.7867C92.8626 89.0779 90.2867 85.7796 86.5531 84.6754Z" fill="#F8B7B7"/>
<path d="M120.679 51.2351C121.9 43.701 119.691 34.7752 113.109 31.3331C106.946 28.1096 99.0315 30.6401 92.9512 27.2527C86.7964 23.825 84.8394 15.8078 80.699 9.97614C75.4152 2.53413 65.8392 -1.33929 57.0856 0.420568C48.3348 2.1833 40.8533 9.49305 38.6441 18.4419C37.6384 22.5166 37.6556 26.7811 37.0997 30.9478C36.541 35.1145 35.2745 39.4164 32.2888 42.2632C27.1741 47.1402 19.0423 46.151 12.813 49.3516C3.93612 53.9122 3.16534 64.5462 5.02495 73.4289C5.66392 76.477 6.25419 79.4848 6.90749 82.4496C7.65248 83.2174 8.44045 83.942 9.29146 84.6005C12.7299 87.2662 17.3918 88.7442 21.5007 87.3208C23.4922 86.6307 25.2286 85.3165 27.2372 84.6839C32.6384 82.9844 38.1943 86.5502 42.4952 90.2424C46.7961 93.9347 51.4179 98.202 57.077 98.179C62.673 98.1589 67.2375 93.9491 71.484 90.2913C75.7304 86.6336 81.1832 83.088 86.5529 84.6753C90.2864 85.7795 92.8624 89.0778 95.6647 91.7895C98.5788 94.6076 101.983 96.885 105.665 98.5615C108.906 90.2367 110.155 81.1728 113.138 72.7215C115.668 65.5469 119.459 58.7662 120.679 51.2351Z" fill="#FFCFCF"/>
<path d="M31.8361 24.2419C31.5324 27.6667 29.8561 30.9506 27.263 33.1965C24.2973 35.7673 20.3861 36.8916 16.6096 37.9441C14.5609 38.5163 12.5121 39.0886 10.4634 39.6608C9.31726 39.98 8.14533 40.3049 6.95907 40.2158C4.89602 40.0634 3.08798 38.6601 1.91891 36.9434C-0.533829 33.3431 -0.50231 28.4259 1.25988 24.4403C3.02208 20.4548 6.29718 17.3117 9.91325 14.8991C12.7213 13.0271 15.8503 11.5059 19.2027 11.1378C22.4463 10.7813 26.4693 11.644 28.73 14.1975C31.0309 16.797 32.1369 20.8343 31.8361 24.2419Z" fill="#FFCFCF"/>
<path d="M111.454 124.102H10V75.2956H111.454V124.102Z" fill="#EDEDED"/>
<path d="M85.9425 124.102H35.5117V39H85.9425V124.102Z" fill="#F9FEFF"/>
<path d="M76.1307 124.102H47.3784V104.662H76.1307V124.102Z" fill="#B4C6CA"/>
<path d="M54.065 56.8527H40.3813V43.0576H54.065V56.8527Z" fill="#82C5BE"/>
<path d="M54.065 79.3218H40.3813V65.5281H54.065V79.3218Z" fill="#82C5BE"/>
<path d="M81.0733 56.8527H67.3896V43.0576H81.0733V56.8527Z" fill="#82C5BE"/>
<path d="M81.0733 79.3218H67.3896V65.5281H81.0733V79.3218Z" fill="#82C5BE"/>
<path d="M28.9731 92.3601H15.2881V78.5651H28.9731V92.3601Z" fill="#68ADA4"/>
<path d="M28.9731 120.198H15.2881V106.403H28.9731V120.198Z" fill="#68ADA4"/>
<path d="M106.165 92.3642H92.4805V78.5705H106.165V92.3642Z" fill="#68ADA4"/>
<path d="M106.165 120.198H92.4805V106.403H106.165V120.198Z" fill="#68ADA4"/>
<path d="M63.5448 97.9352H57.9102V83.018H63.5448V97.9352Z" fill="#F96544"/>
<path d="M53.3306 93.3172V87.6358H68.1246V93.3172H53.3306Z" fill="#F96544"/>
<path d="M83.2646 106.403H38.1899V102.921H83.2646V106.403Z" fill="#82C5BE"/>
<path d="M49.4331 124.102H45.3228V104.704H49.4331V124.102Z" fill="#82C5BE"/>
<path d="M76.1314 124.102H72.021V104.704H76.1314V124.102Z" fill="#82C5BE"/>
<path d="M92.7312 104.076C92.7312 104.825 92.131 105.433 91.3896 105.433C90.6483 105.433 90.0479 104.825 90.0479 104.076V101.022C90.0479 100.273 90.6483 99.6667 91.3896 99.6667C92.131 99.6667 92.7312 100.273 92.7312 101.022V104.076Z" fill="#E44D24"/>
<path d="M93.3552 102.759H89.4253V101.576H93.3552V102.759Z" fill="#B4C6CA"/>
<path d="M84.3855 104.56L79.7544 111.745L75.8722 112.814C74.1972 113.276 72.8403 115.072 72.8403 116.826V124.552H113.296V108.57C113.296 105.062 110.797 102.219 107.325 102.219H89.6518C87.9166 102.219 85.5589 103.267 84.3855 104.56Z" fill="#DFE8EA"/>
<path d="M73.6812 124.552C73.6812 121.199 76.3725 118.48 79.6919 118.48C83.0112 118.48 85.7023 121.199 85.7023 124.552C85.7023 127.906 73.6812 127.906 73.6812 124.552Z" fill="#B4C6CA"/>
<path d="M84.5405 125.1C84.5405 127.806 82.3695 130 79.6924 130C77.0142 130 74.8433 127.806 74.8433 125.1C74.8433 122.395 77.0142 120.202 79.6924 120.202C82.3695 120.202 84.5405 122.395 84.5405 125.1Z" fill="#68ADA4"/>
<path d="M82.0482 125.1C82.0482 126.415 80.9929 127.482 79.6917 127.482C78.389 127.482 77.3335 126.415 77.3335 125.1C77.3335 123.785 78.389 122.719 79.6917 122.719C80.9929 122.719 82.0482 123.785 82.0482 125.1Z" fill="white"/>
<path d="M99.2476 124.552C99.2476 121.199 101.938 118.48 105.258 118.48C108.577 118.48 111.269 121.199 111.269 124.552C111.269 127.906 99.2476 127.906 99.2476 124.552Z" fill="#B4C6CA"/>
<path d="M110.107 125.1C110.107 127.806 107.936 130 105.258 130C102.58 130 100.41 127.806 100.41 125.1C100.41 122.395 102.58 120.202 105.258 120.202C107.936 120.202 110.107 122.395 110.107 125.1Z" fill="#68ADA4"/>
<path d="M107.615 125.1C107.615 126.415 106.56 127.482 105.258 127.482C103.956 127.482 102.901 126.415 102.901 125.1C102.901 123.785 103.956 122.719 105.258 122.719C106.56 122.719 107.615 123.785 107.615 125.1Z" fill="white"/>
<path d="M81.4209 112.204L83.2473 114.577H92.1872V104.702H86.4292L81.4209 112.204Z" fill="#82C5BE"/>
<path d="M93.5928 104.702V114.577H109.167V104.702H93.5928Z" fill="#82C5BE"/>
<path d="M73.4496 124.552H70.5615V120.202H73.4496V124.552Z" fill="#F3B071"/>
<path d="M115 124.552H111.435V120.202H115V124.552Z" fill="#F3B071"/>
<path d="M101.237 113.386H98.3584V105.698H101.237V113.386Z" fill="white"/>
<path d="M95.9941 110.996V108.088H103.603V110.996H95.9941Z" fill="white"/>
<path d="M113.296 117.255V115.496H73.0902C72.9304 115.926 72.8403 116.376 72.8403 116.826V117.255H113.296Z" fill="#E44D24"/>
</svg>
