<svg width="121" height="131" viewBox="0 0 121 131" fill="none" xmlns="http://www.w3.org/2000/svg">
<path d="M86.5531 84.6754C81.1834 83.088 75.7307 86.6336 71.4842 90.2914C67.2378 93.9491 62.6732 98.159 57.0772 98.1791C51.4181 98.1992 46.7934 93.9347 42.4954 90.2425C38.1945 86.5502 32.6386 82.9845 27.2374 84.684C25.2288 85.3166 23.4895 86.6308 21.501 87.3209C17.3949 88.7443 12.7301 87.2663 9.29169 84.6006C8.44068 83.9421 7.65271 83.2203 6.90771 82.4496C8.44928 89.4344 10.3433 96.1691 14.051 102.596C17.0912 107.864 20.9164 112.652 25.415 116.652C37.3063 127.231 53.848 132.123 69.2521 129.135C84.6562 126.147 98.5246 115.18 104.931 100.356C105.189 99.7607 105.433 99.1626 105.668 98.5587C101.986 96.8822 98.5819 94.6048 95.6678 91.7867C92.8626 89.0779 90.2867 85.7796 86.5531 84.6754Z" fill="#ABFEE6"/>
<path d="M120.679 51.2351C121.9 43.701 119.691 34.7752 113.109 31.3331C106.946 28.1096 99.0315 30.6401 92.9512 27.2527C86.7964 23.825 84.8394 15.8078 80.699 9.97614C75.4152 2.53413 65.8392 -1.33929 57.0856 0.420568C48.3348 2.1833 40.8533 9.49305 38.6441 18.4419C37.6384 22.5166 37.6556 26.7811 37.0997 30.9478C36.541 35.1145 35.2745 39.4164 32.2888 42.2632C27.1741 47.1402 19.0423 46.151 12.813 49.3516C3.93612 53.9122 3.16534 64.5462 5.02495 73.4289C5.66392 76.477 6.25419 79.4848 6.90749 82.4496C7.65248 83.2174 8.44045 83.942 9.29146 84.6005C12.7299 87.2662 17.3918 88.7442 21.5007 87.3208C23.4922 86.6307 25.2286 85.3165 27.2372 84.6839C32.6384 82.9844 38.1943 86.5502 42.4952 90.2424C46.7961 93.9347 51.4179 98.202 57.077 98.179C62.673 98.1589 67.2375 93.9491 71.484 90.2913C75.7304 86.6336 81.1832 83.088 86.5529 84.6753C90.2864 85.7795 92.8624 89.0778 95.6647 91.7895C98.5788 94.6076 101.983 96.885 105.665 98.5615C108.906 90.2367 110.155 81.1728 113.138 72.7215C115.668 65.5469 119.459 58.7662 120.679 51.2351Z" fill="#DCFBF3"/>
<path d="M31.8361 24.2419C31.5324 27.6667 29.8561 30.9506 27.263 33.1965C24.2973 35.7673 20.3861 36.8916 16.6096 37.9441C14.5609 38.5163 12.5121 39.0886 10.4634 39.6608C9.31726 39.98 8.14533 40.3049 6.95907 40.2158C4.89602 40.0634 3.08798 38.6601 1.91891 36.9434C-0.533829 33.3431 -0.50231 28.4259 1.25988 24.4403C3.02208 20.4548 6.29718 17.3117 9.91325 14.8991C12.7213 13.0271 15.8503 11.5059 19.2027 11.1378C22.4463 10.7813 26.4693 11.644 28.73 14.1975C31.0309 16.797 32.1369 20.8343 31.8361 24.2419Z" fill="#DCFBF3"/>
<rect x="32" y="20" width="58" height="110" rx="12.2198" fill="white" stroke="#3D3D3C" stroke-width="0.8" stroke-linecap="round" stroke-linejoin="round"/>
<path d="M80.211 22.691H76.4148C75.1921 22.691 74.2009 23.7109 74.2009 24.9689C74.2009 26.2269 73.2098 27.2468 71.9871 27.2468H50.0131C48.7904 27.2468 47.7992 26.2269 47.7992 24.9689C47.7992 23.7109 46.8081 22.691 45.5854 22.691H41.7892C38.0355 22.691 34.9924 25.822 34.9924 29.6843V118.689C34.9924 122.552 38.0355 125.683 41.7892 125.683H80.211C83.9647 125.683 87.0077 122.552 87.0077 118.689V29.6842C87.0077 25.822 83.9647 22.691 80.211 22.691Z" fill="#75B2EB"/>
<path fill-rule="evenodd" clip-rule="evenodd" d="M80.211 22.691H76.4148C75.1921 22.691 74.2009 23.7109 74.2009 24.9689V24.9689C74.2009 26.2269 73.2098 27.2468 71.9871 27.2468H50.0131C48.7904 27.2468 47.7992 26.2269 47.7992 24.9689V24.9689C47.7992 23.7109 46.8081 22.691 45.5854 22.691H41.7892C38.0355 22.691 34.9924 25.822 34.9924 29.6843V118.689C34.9924 122.552 38.0355 125.683 41.7892 125.683H80.211C83.9647 125.683 87.0077 122.552 87.0077 118.689V29.6842C87.0077 25.822 83.9647 22.691 80.211 22.691Z" stroke="#3D3D3C" stroke-width="0.8" stroke-linecap="round" stroke-linejoin="round"/>
<rect x="38.824" y="36.1293" width="44.3521" height="44.807" rx="6.62025" fill="white" stroke="#3D3D3C" stroke-width="0.8" stroke-linecap="round" stroke-linejoin="round"/>
<path fill-rule="evenodd" clip-rule="evenodd" d="M60.1791 57.3553H43V40H60.1791V57.3553ZM55.8843 44.3388H47.2948V53.0165H55.8843V44.3388ZM62.3262 40V57.3553H79.5051V40H62.3262ZM66.6211 53.0165H75.2105V44.3388H66.6211V53.0165ZM49.4419 50.8471H53.7367V46.5082H49.4419L49.4419 50.8471ZM60.1791 76.8799H43L43 59.5247H60.1791V76.8799ZM47.2948 63.8634H55.8843V72.5411H47.2948L47.2948 63.8634ZM68.7684 46.5082H73.0632V50.8471H68.7684V46.5082ZM62.3265 76.8799H66.6212V72.5411H62.3265V76.8799ZM66.6211 72.541V63.8633L70.9159 63.8634V72.541H66.6211ZM75.2105 72.541H70.9159V76.8799H79.5053V68.2022H75.2105L75.2105 72.541ZM79.5054 63.8633H75.2106L75.2106 59.5247H79.5054V63.8633ZM62.3265 59.5247V63.8633H66.6212V59.5247H62.3265ZM53.7367 70.3717H49.4419L49.4419 66.0328H53.7367V70.3717Z" fill="#75B2EB"/>
<path d="M43 57.3553H42.6C42.6 57.5763 42.7791 57.7553 43 57.7553V57.3553ZM60.1791 57.3553V57.7553C60.4001 57.7553 60.5791 57.5763 60.5791 57.3553H60.1791ZM43 40V39.6C42.7791 39.6 42.6 39.7791 42.6 40H43ZM60.1791 40H60.5791C60.5791 39.7791 60.4001 39.6 60.1791 39.6V40ZM47.2948 44.3388V43.9388C47.0739 43.9388 46.8948 44.1179 46.8948 44.3388H47.2948ZM55.8843 44.3388H56.2843C56.2843 44.1179 56.1053 43.9388 55.8843 43.9388V44.3388ZM47.2948 53.0165H46.8948C46.8948 53.2374 47.0739 53.4165 47.2948 53.4165V53.0165ZM55.8843 53.0165V53.4165C56.1053 53.4165 56.2843 53.2374 56.2843 53.0165H55.8843ZM62.3262 57.3553H61.9262C61.9262 57.5763 62.1053 57.7553 62.3262 57.7553V57.3553ZM62.3262 40V39.6C62.1053 39.6 61.9262 39.7791 61.9262 40H62.3262ZM79.5051 57.3553V57.7553C79.7261 57.7553 79.9052 57.5763 79.9052 57.3553H79.5051ZM79.5051 40H79.9052C79.9052 39.7791 79.7261 39.6 79.5051 39.6V40ZM75.2105 53.0165V53.4165C75.4314 53.4165 75.6105 53.2374 75.6105 53.0165H75.2105ZM66.6211 53.0165H66.2211C66.2211 53.2374 66.4002 53.4165 66.6211 53.4165V53.0165ZM75.2105 44.3388H75.6105C75.6105 44.1179 75.4314 43.9388 75.2105 43.9388V44.3388ZM66.6211 44.3388V43.9388C66.4002 43.9388 66.2211 44.1179 66.2211 44.3388H66.6211ZM53.7367 50.8471V51.2471C53.9576 51.2471 54.1367 51.068 54.1367 50.8471H53.7367ZM49.4419 50.8471L49.0419 50.8471C49.0419 50.9532 49.084 51.0549 49.159 51.1299C49.234 51.2049 49.3358 51.2471 49.4419 51.2471V50.8471ZM53.7367 46.5082H54.1367C54.1367 46.2873 53.9576 46.1082 53.7367 46.1082V46.5082ZM49.4419 46.5082V46.1082C49.221 46.1082 49.0419 46.2873 49.0419 46.5082L49.4419 46.5082ZM43 76.8799H42.6C42.6 76.986 42.6421 77.0877 42.7172 77.1628C42.7922 77.2378 42.8939 77.2799 43 77.2799V76.8799ZM60.1791 76.8799V77.2799C60.4 77.2799 60.5791 77.1008 60.5791 76.8799H60.1791ZM43 59.5247V59.1247C42.7791 59.1247 42.6 59.3038 42.6 59.5247H43ZM60.1791 59.5247H60.5791C60.5791 59.3038 60.4 59.1247 60.1791 59.1247V59.5247ZM55.8843 63.8634H56.2843C56.2843 63.6425 56.1053 63.4634 55.8843 63.4634V63.8634ZM47.2948 63.8634V63.4634C47.1887 63.4634 47.087 63.5055 47.0119 63.5806C46.9369 63.6556 46.8948 63.7573 46.8948 63.8634H47.2948ZM55.8843 72.5411V72.9411C56.1053 72.9411 56.2843 72.762 56.2843 72.5411H55.8843ZM47.2948 72.5411H46.8948C46.8948 72.762 47.0739 72.9411 47.2948 72.9411V72.5411ZM73.0632 46.5082H73.4632C73.4632 46.2873 73.2841 46.1082 73.0632 46.1082V46.5082ZM68.7684 46.5082V46.1082C68.5475 46.1082 68.3684 46.2873 68.3684 46.5082H68.7684ZM73.0632 50.8471V51.2471C73.2841 51.2471 73.4632 51.068 73.4632 50.8471H73.0632ZM68.7684 50.8471H68.3684C68.3684 51.068 68.5475 51.2471 68.7684 51.2471V50.8471ZM66.6212 76.8799V77.2799C66.8421 77.2799 67.0212 77.1008 67.0212 76.8799H66.6212ZM62.3265 76.8799H61.9265C61.9265 77.1008 62.1055 77.2799 62.3265 77.2799V76.8799ZM66.6212 72.5411H67.0212C67.0212 72.3202 66.8421 72.1411 66.6212 72.1411V72.5411ZM62.3265 72.5411V72.1411C62.1055 72.1411 61.9265 72.3202 61.9265 72.5411H62.3265ZM66.6211 63.8633L66.6211 63.4633C66.515 63.4633 66.4133 63.5055 66.3382 63.5805C66.2632 63.6555 66.2211 63.7573 66.2211 63.8633H66.6211ZM66.6211 72.541H66.2211C66.2211 72.762 66.4002 72.941 66.6211 72.941V72.541ZM70.9159 63.8634H71.3159C71.3159 63.6425 71.1368 63.4634 70.9159 63.4634L70.9159 63.8634ZM70.9159 72.541V72.941C71.1368 72.941 71.3159 72.762 71.3159 72.541H70.9159ZM70.9159 72.541V72.141C70.695 72.141 70.5159 72.3201 70.5159 72.541H70.9159ZM75.2105 72.541V72.941C75.4315 72.941 75.6105 72.7619 75.6105 72.541H75.2105ZM70.9159 76.8799H70.5159C70.5159 77.1008 70.695 77.2799 70.9159 77.2799V76.8799ZM79.5053 76.8799V77.2799C79.7263 77.2799 79.9053 77.1008 79.9053 76.8799H79.5053ZM79.5053 68.2022H79.9053C79.9053 67.9813 79.7263 67.8022 79.5053 67.8022V68.2022ZM75.2105 68.2022V67.8022C74.9896 67.8022 74.8105 67.9813 74.8105 68.2022H75.2105ZM75.2106 63.8633H74.8106C74.8106 63.9694 74.8527 64.0711 74.9277 64.1462C75.0027 64.2212 75.1045 64.2633 75.2106 64.2633V63.8633ZM79.5054 63.8633V64.2633C79.7263 64.2633 79.9054 64.0842 79.9054 63.8633H79.5054ZM75.2106 59.5247V59.1247C74.9897 59.1247 74.8106 59.3038 74.8106 59.5247H75.2106ZM79.5054 59.5247H79.9054C79.9054 59.3038 79.7263 59.1247 79.5054 59.1247V59.5247ZM62.3265 63.8633H61.9265C61.9265 64.0842 62.1055 64.2633 62.3265 64.2633V63.8633ZM62.3265 59.5247V59.1247C62.1055 59.1247 61.9265 59.3038 61.9265 59.5247H62.3265ZM66.6212 63.8633V64.2633C66.8421 64.2633 67.0212 64.0842 67.0212 63.8633H66.6212ZM66.6212 59.5247H67.0212C67.0212 59.3038 66.8421 59.1247 66.6212 59.1247V59.5247ZM49.4419 70.3717H49.0419C49.0419 70.4778 49.084 70.5795 49.159 70.6545C49.234 70.7295 49.3358 70.7717 49.4419 70.7717V70.3717ZM53.7367 70.3717V70.7717C53.9576 70.7717 54.1367 70.5926 54.1367 70.3717H53.7367ZM49.4419 66.0328V65.6328C49.221 65.6328 49.0419 65.8119 49.0419 66.0328H49.4419ZM53.7367 66.0328H54.1367C54.1367 65.8119 53.9576 65.6328 53.7367 65.6328V66.0328ZM43 57.7553H60.1791V56.9553H43V57.7553ZM42.6 40V57.3553H43.4V40H42.6ZM60.1791 39.6H43V40.4H60.1791V39.6ZM60.5791 57.3553V40H59.7791V57.3553H60.5791ZM47.2948 44.7388H55.8843V43.9388H47.2948V44.7388ZM47.6948 53.0165V44.3388H46.8948V53.0165H47.6948ZM55.8843 52.6165H47.2948V53.4165H55.8843V52.6165ZM55.4843 44.3388V53.0165H56.2843V44.3388H55.4843ZM62.7262 57.3553V40H61.9262V57.3553H62.7262ZM79.5051 56.9553H62.3262V57.7553H79.5051V56.9553ZM79.1051 40V57.3553H79.9052V40H79.1051ZM62.3262 40.4H79.5051V39.6H62.3262V40.4ZM75.2105 52.6165H66.6211V53.4165H75.2105V52.6165ZM74.8105 44.3388V53.0165H75.6105V44.3388H74.8105ZM66.6211 44.7388H75.2105V43.9388H66.6211V44.7388ZM67.0211 53.0165V44.3388H66.2211V53.0165H67.0211ZM53.7367 50.4471H49.4419V51.2471H53.7367V50.4471ZM53.3367 46.5082V50.8471H54.1367V46.5082H53.3367ZM49.4419 46.9082H53.7367V46.1082H49.4419V46.9082ZM49.8419 50.8471L49.8419 46.5082L49.0419 46.5082L49.0419 50.8471L49.8419 50.8471ZM43 77.2799H60.1791V76.4799H43V77.2799ZM42.6 59.5247L42.6 76.8799H43.4L43.4 59.5247H42.6ZM60.1791 59.1247H43V59.9247H60.1791V59.1247ZM60.5791 76.8799V59.5247H59.7791V76.8799H60.5791ZM55.8843 63.4634H47.2948V64.2634H55.8843V63.4634ZM56.2843 72.5411V63.8634H55.4843V72.5411H56.2843ZM47.2948 72.9411H55.8843V72.1411H47.2948V72.9411ZM46.8948 63.8634L46.8948 72.5411H47.6948L47.6948 63.8634H46.8948ZM73.0632 46.1082H68.7684V46.9082H73.0632V46.1082ZM73.4632 50.8471V46.5082H72.6632V50.8471H73.4632ZM68.7684 51.2471H73.0632V50.4471H68.7684V51.2471ZM68.3684 46.5082V50.8471H69.1684V46.5082H68.3684ZM66.6212 76.4799H62.3265V77.2799H66.6212V76.4799ZM66.2212 72.5411V76.8799H67.0212V72.5411H66.2212ZM62.3265 72.9411H66.6212V72.1411H62.3265V72.9411ZM62.7265 76.8799V72.5411H61.9265V76.8799H62.7265ZM66.2211 63.8633V72.541H67.0211V63.8633H66.2211ZM70.9159 63.4634L66.6211 63.4633L66.6211 64.2633L70.9159 64.2634L70.9159 63.4634ZM71.3159 72.541V63.8634H70.5159V72.541H71.3159ZM66.6211 72.941H70.9159V72.141H66.6211V72.941ZM70.9159 72.941H75.2105V72.141H70.9159V72.941ZM71.3159 76.8799V72.541H70.5159V76.8799H71.3159ZM79.5053 76.4799H70.9159V77.2799H79.5053V76.4799ZM79.1053 68.2022V76.8799H79.9053V68.2022H79.1053ZM75.2105 68.6022H79.5053V67.8022H75.2105V68.6022ZM75.6105 72.541L75.6105 68.2022H74.8105L74.8105 72.541H75.6105ZM75.2106 64.2633H79.5054V63.4633H75.2106V64.2633ZM74.8106 59.5247L74.8106 63.8633H75.6106L75.6106 59.5247H74.8106ZM79.5054 59.1247H75.2106V59.9247H79.5054V59.1247ZM79.9054 63.8633V59.5247H79.1054V63.8633H79.9054ZM62.7265 63.8633V59.5247H61.9265V63.8633H62.7265ZM66.6212 63.4633H62.3265V64.2633H66.6212V63.4633ZM66.2212 59.5247V63.8633H67.0212V59.5247H66.2212ZM62.3265 59.9247H66.6212V59.1247H62.3265V59.9247ZM49.4419 70.7717H53.7367V69.9717H49.4419V70.7717ZM49.0419 66.0328L49.0419 70.3717H49.8419L49.8419 66.0328H49.0419ZM53.7367 65.6328H49.4419V66.4328H53.7367V65.6328ZM54.1367 70.3717V66.0328H53.3367V70.3717H54.1367Z" fill="#3D3D3C"/>
<rect x="38.824" y="85.7377" width="44.3521" height="9.48291" rx="4.74146" fill="white" stroke="#3D3D3C" stroke-width="0.8" stroke-linecap="round" stroke-linejoin="round"/>
<rect x="38.824" y="98.8633" width="44.3521" height="9.48291" rx="4.74146" fill="white"/>
<rect x="38.824" y="98.8633" width="44.3521" height="9.48291" rx="4.74146" stroke="#3D3D3C" stroke-width="0.8" stroke-linecap="round" stroke-linejoin="round"/>
<path d="M76.681 102.779C75.5629 103.385 74.3224 103.726 73.0537 103.776L76.681 102.779Z" fill="#F5F6F7"/>
<path d="M76.681 102.779C75.5629 103.385 74.3224 103.726 73.0537 103.776" stroke="#3D3D3C" stroke-width="0.8" stroke-linecap="round" stroke-linejoin="round"/>
<path d="M54.4955 97.0103L36.0454 78.4342C35.5356 77.9204 35.5356 77.0893 36.0454 76.5755L42.885 69.6893C43.1295 69.4428 43.4616 69.3043 43.808 69.3043C44.1544 69.3043 44.4866 69.4428 44.7311 69.6893L54.4955 79.5204C54.74 79.7668 55.0722 79.9053 55.4186 79.9053C55.765 79.9053 56.0971 79.7668 56.3416 79.5204L76.6583 59.0651C76.9028 58.8186 77.2349 58.6801 77.5813 58.6801C77.9277 58.6801 78.2599 58.8186 78.5044 59.0651L85.3439 65.9513C85.8537 66.4651 85.8537 67.2962 85.3439 67.81L56.3416 97.0102C56.0971 97.2567 55.765 97.3952 55.4186 97.3952C55.0722 97.3952 54.74 97.2567 54.4955 97.0103Z" fill="#50E960" stroke="#3D3D3C" stroke-width="0.8" stroke-linecap="round" stroke-linejoin="round"/>
</svg>
