<svg width="333" height="351" viewBox="0 0 333 351" fill="none" xmlns="http://www.w3.org/2000/svg">
<path d="M199.765 16.9259C189.109 6.06511 176.529 -0.772152 160.224 0.0698573C126.422 1.81544 112.28 34.9297 98.0115 68.339C92.1072 82.1637 86.1814 96.039 78.8321 107.763C74.5536 114.588 69.9332 121.198 65.3533 127.749C49.6076 150.274 34.3421 172.111 35.1067 199.666C36.4195 246.977 44.9207 299.041 84.8723 325.439C130.243 355.419 191.561 359.434 240.419 335.327C288.501 311.602 319.928 260.887 322.758 208.063C324.522 175.138 301.597 151.201 278.183 126.752C273.786 122.161 269.372 117.552 265.101 112.863C267.546 110.229 269.721 107.315 271.565 104.132C283.976 82.7115 275.247 56.9395 258.439 38.8029C243.235 22.3975 220.329 10.3503 199.765 16.9259Z" fill="#D2F8E5"/>
<path fill-rule="evenodd" clip-rule="evenodd" d="M296.45 62.1462C308.358 59.0896 319.327 68.2927 325.176 78.9345C331.021 89.5677 332.115 102.896 323.668 111.663C315.119 120.534 300.758 121.663 290.096 115.339C281.538 110.263 284.448 98.8276 285.612 89.0899C286.879 78.4839 285.924 64.8479 296.45 62.1462Z" fill="#D2F8E5"/>
<path fill-rule="evenodd" clip-rule="evenodd" d="M21.2748 166.108C9.05197 164.282 2.52364 151.49 1.29851 139.367C0.074365 127.254 4.3071 114.505 15.5743 109.7C26.9762 104.838 40.7098 109.403 48.0879 119.415C54.0092 127.45 46.816 136.885 41.9074 145.433C36.5613 154.743 32.078 167.722 21.2748 166.108Z" fill="#D2F8E5"/>
<path fill-rule="evenodd" clip-rule="evenodd" d="M202.998 288.396C244.369 276.026 298.721 283.718 323.956 251.529C348.862 219.76 308.083 189.703 306.943 155.807C305.802 121.891 345.628 73.9831 317.323 54.3561C288.075 34.0755 234.627 74.5851 192.585 76.5111C158.616 78.0673 130.476 48.3207 98.294 64.3901C65.9882 80.5215 63.3475 118.134 51.125 147.147C41.8954 169.056 42.2702 189.778 36.1482 211.907C26.8641 245.468 -12.9022 284.771 6.0607 310.045C24.2313 334.264 75.3761 318.71 113.162 314.556C143.992 311.167 172.34 297.563 202.998 288.396Z" stroke="#46E4AA" stroke-dasharray="2 2"/>
<path d="M75.875 278.972L165.072 227.656C167.832 226.068 171.232 226.069 173.99 227.661L182.851 232.772C184.829 233.913 184.828 236.762 182.849 237.902L93.6717 289.298C90.8938 290.899 87.467 290.888 84.6999 289.269L75.8563 284.094C73.8912 282.945 73.9016 280.107 75.875 278.972Z" fill="#B3DCC7"/>
<path d="M172.781 34.2965L172.788 34.2915C172.201 32.2376 168.021 28.3335 163.86 28.4159C163.71 28.4144 162.963 28.4903 162.692 28.6443L81.8827 74.4926C80.5092 75.2724 79.4485 76.4431 78.7767 77.8112C78.2672 78.849 77.9756 79.9974 77.9756 81.1927V255.508C77.9756 259.948 83.1099 264.186 87.9303 262.147L87.9628 262.125C88.0664 262.088 88.1718 262.058 88.2725 262L169.085 216.075C171.498 214.705 172.988 212.148 172.988 209.379V35.137C172.988 34.8263 172.905 34.548 172.781 34.2965Z" fill="#33535F"/>
<path d="M89.248 99.6182C89.248 98.2327 89.994 96.9536 91.2022 96.2684L166.234 53.6976C167.523 52.967 169.123 53.8942 169.123 55.3721V195.934C169.123 197.315 168.374 198.599 167.171 199.284L92.1375 241.923C90.8495 242.656 89.248 241.728 89.248 240.249V99.6182Z" fill="#DCF5F5"/>
<path d="M85.3618 262.674C82.5556 262.674 79.9768 260.868 78.7414 258.499C78.2536 257.564 77.9756 256.542 77.9756 255.508V81.193C77.9756 79.9976 78.2672 78.8493 78.7767 77.8114L86.6884 81.7538C85.8601 82.9969 85.3834 84.4661 85.3834 86.0105V260.326C85.3834 261.447 86.3026 262.24 87.3089 262.24C87.5255 262.24 87.7462 262.203 87.9628 262.125L87.9303 262.148C87.0736 262.51 86.2074 262.674 85.3618 262.674Z" fill="#20353D"/>
<path d="M86.688 81.7539L78.7764 77.8116C79.4481 76.4435 80.5088 75.2727 81.8823 74.4929L162.692 28.6446C162.959 28.4921 163.696 28.4162 163.856 28.4162C163.857 28.4162 163.859 28.4162 163.86 28.4162C163.904 28.4148 163.946 28.4148 163.99 28.4148C168.106 28.4148 172.207 32.2596 172.788 34.2918L172.781 34.2969C172.457 33.6356 171.774 33.2092 171.044 33.2092C170.729 33.2092 170.406 33.288 170.1 33.4622L89.2904 79.3112C88.2209 79.9175 87.3462 80.766 86.688 81.7539Z" fill="#46646E"/>
<path d="M139.145 62.2473C139.712 61.9207 140.183 62.1736 140.185 62.8248C140.186 63.4745 139.719 64.2817 139.151 64.6084L123.297 73.7369C122.73 74.0635 122.272 73.7896 122.27 73.1392C122.268 72.4887 122.722 71.7024 123.291 71.3758L139.145 62.2473Z" fill="#17282F"/>
<path d="M119.219 73.72C119.787 73.3934 120.245 73.6535 120.247 74.304C120.249 74.9544 119.794 75.7544 119.226 76.0811C118.658 76.4078 118.188 76.1411 118.187 75.4906C118.185 74.8402 118.652 74.0467 119.219 73.72Z" fill="#17282F"/>
<path d="M129.367 60.9193C130.501 60.2667 131.415 60.7863 131.419 62.0857C131.423 63.3852 130.514 64.9838 129.38 65.6364C128.246 66.289 127.306 65.7549 127.303 64.4562C127.299 63.1568 128.233 61.5726 129.367 60.9193Z" fill="#17282F"/>
<path d="M129.374 225.023C131.684 223.693 133.547 224.752 133.555 227.398C133.562 230.045 131.71 233.301 129.401 234.63C127.092 235.96 125.177 234.872 125.17 232.226C125.163 229.579 127.064 226.352 129.374 225.023Z" fill="#17282F"/>
<path d="M213.175 331.093L288.026 287.996L180.222 225.52L105.37 268.617L213.175 331.093Z" fill="#B3DCC7"/>
<path d="M216.203 322.606L279.513 286.155L267.765 279.348L216.164 309.056L216.203 322.606Z" fill="#346174"/>
<path d="M279.513 286.155L216.204 322.607L216.165 309.057L267.766 279.348L279.475 272.605L279.468 270.396L214.225 307.96L214.275 325.93L279.52 288.365L279.513 286.155Z" fill="#33535F"/>
<path d="M214.275 325.93L214.225 307.96L279.468 270.396L279.475 272.605L277.72 273.615L216.165 309.057L216.204 322.607L223.973 318.133C224.124 318.77 224.26 319.421 224.421 320.089L214.275 325.93Z" fill="#344951"/>
<path d="M230.527 316.572C230.396 315.897 230.285 315.227 230.155 314.573L277.721 287.187L279.514 286.154L279.52 288.364L230.527 316.572Z" fill="#344951"/>
<path d="M214.225 307.96L120.258 253.503L120.309 271.473L214.276 325.93L214.225 307.96Z" fill="#33535F"/>
<path d="M214.275 325.93L138.979 282.294C138.965 280.631 138.946 279.014 138.922 277.449L195.674 310.125C195.808 310.201 195.932 310.237 196.043 310.237C196.129 310.237 196.206 310.215 196.273 310.175V310.179L207.205 303.892L214.224 307.96L214.275 325.93ZM194.85 307.745L194.859 304.311L194.881 296.75H194.882L194.85 307.745ZM121.405 272.108L120.308 271.472L120.284 262.931C120.678 266.268 121.054 269.326 121.405 272.108Z" fill="#39525B"/>
<path d="M214.225 307.96L279.469 270.395L185.502 215.937L120.258 253.503L214.225 307.96Z" fill="#4D7584"/>
<path d="M214.224 307.96L207.205 303.892L272.492 266.352L279.468 270.395L214.224 307.96Z" fill="#46646E"/>
<path d="M277.72 273.615V287.187L216.203 322.606L216.164 309.056L277.72 273.615Z" fill="#F3F2F1"/>
<path d="M227.666 326.608L229.033 321.701L233.727 323.119C228.52 318.086 232.228 311.786 226.14 308.401L220.078 311.891C225.747 316.035 222.564 320.756 227.666 326.608Z" fill="#AD58B2"/>
<path d="M227.666 326.608C224.947 323.49 224.581 320.692 223.974 318.133C223.443 315.889 222.726 313.827 220.078 311.891L226.14 308.401C232.228 311.786 228.52 318.086 233.727 323.119L229.332 321.791L229.033 321.701L228.946 322.013L227.666 326.608Z" fill="#46E4AA"/>
<path d="M183.411 228.569L142.529 252.107C141.428 252.741 141.426 254.324 142.525 254.961L164.756 267.845C166.037 268.587 167.619 268.59 168.901 267.851L209.782 244.313C210.884 243.679 210.886 242.096 209.787 241.459L187.556 228.575C186.275 227.833 184.693 227.831 183.411 228.569Z" fill="#33535F"/>
<path d="M217.406 245.539L171.977 271.696L175.55 273.767L220.978 247.611L217.406 245.539Z" fill="#33535F"/>
<path d="M177.249 275.171L180.822 277.241L204.914 263.37L201.342 261.299L177.249 275.171Z" fill="#33535F"/>
<path d="M254.685 253.074L254.681 253.073L256.338 252.121L256.34 252.122L273.187 242.435L273.184 242.434L274.839 241.482L213.327 206.065L134.226 251.548L195.741 286.966L254.685 253.074Z" fill="#46E4AA"/>
<path d="M274.843 241.484L274.84 241.481L273.184 242.433L273.187 242.435L256.34 252.122L256.338 252.12L254.682 253.072L254.685 253.074L195.741 286.965C196.201 287.231 196.57 287.868 196.569 288.395L196.508 309.652C196.507 309.908 196.417 310.085 196.274 310.174V310.179L275.356 264.706L275.374 264.695L275.383 264.69V264.687C275.522 264.598 275.609 264.421 275.609 264.169L275.67 242.912C275.672 242.386 275.303 241.748 274.843 241.484Z" fill="#AD58B2"/>
<path d="M196.568 288.395C196.569 287.869 196.2 287.231 195.74 286.966L134.225 251.548L134.219 253.451L194.905 288.39L194.85 307.745L134.164 272.805L134.159 274.707L195.674 310.125C195.911 310.261 196.121 310.268 196.273 310.175C196.416 310.086 196.506 309.908 196.507 309.652L196.568 288.395Z" fill="#46E4AA"/>
<path d="M138.01 255.632V271.392L194.859 304.311L194.905 288.39L138.01 255.632Z" fill="#F3F2F1"/>
<path d="M134.165 272.805L138.01 270.54V271.392L194.86 304.311L194.851 307.745L134.165 272.805Z" fill="#46E4AA"/>
<path d="M195.741 286.966L138.155 253.81C138.065 252.098 137.979 250.635 137.903 249.433L145.557 245.032L206.871 280.566L195.741 286.966Z" fill="#70FED6"/>
<path d="M196.274 310.179V310.174C196.417 310.085 196.507 309.908 196.508 309.652L196.569 288.395C196.57 287.868 196.201 287.231 195.741 286.965L206.872 280.566L218.502 287.306L275.638 254.41L275.609 264.169C275.609 264.421 275.522 264.598 275.383 264.687V264.69L275.374 264.695L275.356 264.706L272.493 266.352L207.206 303.892L196.274 310.179Z" fill="#00BB7E"/>
<path d="M196.042 310.237C195.931 310.237 195.808 310.202 195.674 310.125L138.922 277.45C138.912 276.8 138.901 276.16 138.891 275.527L179.279 298.78C178.963 299.203 178.6 299.619 178.178 300.028L180.321 299.38L183.615 301.277L184.239 303.518C184.622 303.079 184.957 302.647 185.254 302.22L194.85 307.745L194.905 288.391L138.253 255.773C138.22 255.087 138.187 254.432 138.154 253.811L195.74 286.966C196.2 287.231 196.569 287.869 196.568 288.396L196.507 309.653C196.506 309.908 196.416 310.086 196.273 310.175C196.206 310.216 196.129 310.237 196.042 310.237Z" fill="#46E4AA"/>
<path d="M194.851 307.745L185.255 302.22C185.886 301.312 186.34 300.431 186.684 299.576L194.86 304.311L194.851 307.745ZM183.616 301.277L180.321 299.38L182.873 298.609L183.616 301.277ZM179.279 298.78L138.891 275.526C138.869 274.27 138.844 273.047 138.817 271.859L180.695 296.108C180.372 297.012 179.929 297.909 179.279 298.78Z" fill="#00BB7E"/>
<path d="M184.24 303.518L182.873 298.61L178.179 300.028C183.386 294.995 179.677 288.696 185.766 285.311L191.828 288.8C186.16 292.944 189.342 297.665 184.24 303.518Z" fill="#AD58B2"/>
<path d="M184.24 303.518L183.616 301.277L182.873 298.61L180.322 299.38L178.179 300.028C183.386 294.995 179.677 288.696 185.766 285.311L191.828 288.8C187.49 291.971 188.336 295.481 186.684 299.577C186.34 300.432 185.887 301.313 185.255 302.22C184.958 302.647 184.623 303.079 184.24 303.518Z" fill="#46E4AA"/>
<path d="M220.248 284.296L277.589 251.281L266.949 245.115L220.213 272.024L220.248 284.296Z" fill="#346174"/>
<path d="M277.59 251.281L220.248 284.296L220.213 272.023L266.95 245.114L277.555 239.008L277.549 237.007L218.456 271.031L218.502 287.306L277.596 253.282L277.59 251.281Z" fill="#33535F"/>
<path d="M218.502 287.306L218.464 273.9L218.456 271.031L232.583 262.897L234.318 263.902L220.213 272.023L220.248 284.296L254.239 264.726C254.454 265.027 254.695 265.333 254.964 265.642L255.407 264.053L258.239 262.422L259.757 262.881C259.459 262.594 259.199 262.3 258.968 262.002L275.967 252.216L277.59 251.281L277.596 253.282L218.502 287.306Z" fill="#344951"/>
<path d="M218.456 271.031L133.347 221.707L133.393 237.982L218.502 287.306L218.456 271.031Z" fill="#33535F"/>
<path d="M218.503 287.306L206.872 280.566L145.557 245.032L138.837 241.137C138.89 239.492 138.923 237.651 138.923 235.654C138.922 232.378 138.834 228.684 138.603 224.753L218.456 271.031L218.503 287.306Z" fill="#39525B"/>
<path d="M218.456 271.031L277.549 237.007L192.441 187.683L133.347 221.707L218.456 271.031Z" fill="#33535F"/>
<path d="M218.456 271.031L138.602 224.753C138.49 222.862 138.346 220.915 138.162 218.934L192.44 187.683L198.288 191.072L165.602 209.891L165.612 213.48L153.52 220.443C152.523 221.017 152.521 222.451 153.516 223.029L173.651 234.697C174.232 235.035 174.883 235.203 175.533 235.203C176.18 235.203 176.826 235.037 177.406 234.703L180.68 232.818L185.081 235.369L180.191 238.184L183.427 240.06L188.318 237.244L190.185 238.327L184.965 241.332L188.202 243.209L193.422 240.202L232.582 262.897L218.456 271.031Z" fill="#46646E"/>
<path d="M275.966 239.923V252.216L220.248 284.296L220.213 272.024L275.966 239.923Z" fill="#F3F2F1"/>
<path d="M190.547 199.124L153.52 220.442C152.523 221.017 152.52 222.451 153.515 223.028L173.651 234.697C174.811 235.37 176.243 235.372 177.406 234.703L214.433 213.384C215.43 212.809 215.432 211.375 214.436 210.798L194.301 199.129C193.141 198.457 191.709 198.455 190.547 199.124Z" fill="#33535F"/>
<path d="M221.338 214.494L180.191 238.183L183.428 240.06L224.574 216.369L221.338 214.494Z" fill="#33535F"/>
<path d="M184.966 241.333L188.202 243.209L210.023 230.645L206.787 228.769L184.966 241.333Z" fill="#33535F"/>
<path d="M241.486 264.545L291.557 235.716L282.266 230.331L241.455 253.829L241.486 264.545Z" fill="#DADBD8"/>
<path d="M291.556 235.716L241.485 264.545L241.454 253.829L282.265 230.331L291.526 224.999L291.521 223.252L239.92 252.962L239.96 267.174L291.561 237.464L291.556 235.716Z" fill="#E2E2E0"/>
<path d="M239.96 267.174L239.92 252.962L291.521 223.252L291.526 224.999L290.138 225.798L241.454 253.829L241.485 264.545L251.941 258.525C252.071 259.028 252.18 259.541 252.3 260.069L239.96 267.174Z" fill="#9FA1A1"/>
<path d="M257.146 257.278C257.048 256.743 256.958 256.215 256.845 255.701L291.556 235.716L291.561 237.463L257.146 257.278Z" fill="#9FA1A1"/>
<path d="M239.92 252.962L165.602 209.892L165.642 224.104L239.961 267.174L239.92 252.962Z" fill="#E2E2E0"/>
<path d="M239.961 267.174L193.422 240.203L190.185 238.327L188.317 237.245L185.081 235.369L180.68 232.818L165.642 224.104L165.612 213.481L165.602 209.892L239.92 252.962L239.961 267.174Z" fill="#B4B6B4"/>
<path d="M239.92 252.962L291.521 223.252L217.204 180.182L165.602 209.892L239.92 252.962Z" fill="#E2E2E0"/>
<path d="M239.92 252.962L165.602 209.892L217.204 180.182L291.521 223.252L239.92 252.962ZM210.676 227.029L213.502 228.668L232.556 217.695L229.731 216.058L210.676 227.029ZM206.507 224.28L209.333 225.918L245.262 205.231L242.436 203.593L206.507 224.28ZM182.563 209.916C182.562 210.355 182.779 210.794 183.213 211.046L200.796 221.235C201.304 221.529 201.872 221.677 202.439 221.677C203.004 221.677 203.568 221.532 204.074 221.24L236.407 202.624C236.843 202.373 237.061 201.935 237.061 201.496C237.062 201.057 236.845 200.618 236.41 200.366L218.828 190.177C218.32 189.882 217.753 189.736 217.185 189.736C216.621 189.736 216.056 189.881 215.55 190.172L183.217 208.788C182.782 209.039 182.563 209.478 182.563 209.916Z" fill="#E5E5E3"/>
<path d="M290.139 225.798V236.532L241.486 264.545L241.455 253.829L290.139 225.798Z" fill="#F3F2F1"/>
<path d="M254.963 265.642L256.045 261.759L259.757 262.881C255.639 258.901 258.572 253.919 253.756 251.241L248.963 254.001C253.445 257.278 250.928 261.012 254.963 265.642Z" fill="#33535F"/>
<path d="M254.963 265.642C253.207 263.626 252.691 261.78 252.3 260.068C252.18 259.541 252.071 259.027 251.941 258.524C251.525 256.908 250.893 255.412 248.963 254.001L253.756 251.241C258.572 253.919 255.639 258.901 259.757 262.881L258.238 262.422L256.045 261.759L255.406 264.053L254.963 265.642Z" fill="#46E4AA"/>
<path d="M215.55 190.172L183.217 208.788C182.346 209.29 182.344 210.542 183.213 211.046L200.796 221.235C201.809 221.822 203.059 221.824 204.074 221.24L236.407 202.624C237.278 202.123 237.28 200.87 236.41 200.366L218.828 190.177C217.815 189.589 216.565 189.588 215.55 190.172Z" fill="#E2E2E0"/>
<path d="M242.437 203.593L206.508 224.279L209.333 225.917L245.262 205.23L242.437 203.593Z" fill="#E2E2E0"/>
<path d="M210.676 227.029L213.502 228.667L232.557 217.695L229.731 216.057L210.676 227.029Z" fill="#E2E2E0"/>
<path d="M202.44 221.677C201.872 221.677 201.305 221.529 200.797 221.235L183.214 211.046C182.779 210.794 182.563 210.355 182.563 209.916C182.563 209.478 182.782 209.039 183.217 208.788L215.55 190.172C216.057 189.881 216.621 189.735 217.186 189.735C217.753 189.735 218.321 189.882 218.829 190.177L236.411 200.366C236.845 200.618 237.062 201.057 237.061 201.496C237.061 201.935 236.843 202.373 236.408 202.624L204.075 221.24C203.569 221.531 203.004 221.677 202.44 221.677Z" fill="#C6C7C6"/>
<path d="M209.333 225.917L206.508 224.279L242.437 203.593L245.262 205.23L209.333 225.917Z" fill="#C6C7C6"/>
<path d="M213.502 228.667L210.676 227.029L229.731 216.057L232.557 217.695L213.502 228.667Z" fill="#C6C7C6"/>
</svg>
