<svg width="122" height="130" viewBox="0 0 122 130" fill="none" xmlns="http://www.w3.org/2000/svg">
<path d="M87.2268 84.6749C81.8153 83.0876 76.32 86.6332 72.0405 90.291C67.7609 93.9487 63.1609 98.1586 57.5212 98.1787C51.8181 98.1988 47.1574 93.9343 42.8259 90.2421C38.4915 86.5498 32.8923 82.9841 27.449 84.6836C25.4247 85.3162 23.6719 86.6303 21.6679 87.3205C17.5298 88.7439 12.8287 87.2658 9.36348 84.6002C8.50584 83.9417 7.71173 83.2199 6.96094 82.4492C8.51451 89.434 10.4233 96.1686 14.1599 102.596C17.2237 107.864 21.0788 112.652 25.6124 116.651C37.5963 127.231 54.2668 132.122 69.791 129.134C85.3151 126.147 99.2914 115.179 105.748 100.356C106.008 99.7603 106.254 99.1621 106.49 98.5583C102.78 96.8818 99.3492 94.6043 96.4124 91.7863C93.5854 89.0774 90.9894 85.7792 87.2268 84.6749Z" fill="#ABFEE6"/>
<path d="M121.62 51.2351C122.85 43.701 120.623 34.7752 113.99 31.3331C107.779 28.1096 99.8032 30.6401 93.6755 27.2527C87.4728 23.825 85.5005 15.8078 81.3278 9.97615C76.003 2.53413 66.3524 -1.33929 57.5305 0.420568C48.7115 2.1833 41.1718 9.49305 38.9454 18.4419C37.9318 22.5166 37.9492 26.7811 37.389 30.9478C36.8259 35.1145 35.5495 39.4164 32.5406 42.2632C27.3861 47.1402 19.1908 46.151 12.913 49.3516C3.96701 53.9122 3.19022 64.5462 5.06432 73.4289C5.70828 76.477 6.30314 79.4848 6.96153 82.4496C7.71232 83.2174 8.50643 83.942 9.36407 84.6005C12.8293 87.2662 17.5275 88.7442 21.6685 87.3208C23.6754 86.6307 25.4253 85.3165 27.4496 84.6839C32.8929 82.9844 38.4921 86.5502 42.8265 90.2424C47.1609 93.9347 51.8187 98.2021 57.5218 98.179C63.1615 98.1589 67.7615 93.9491 72.0411 90.2913C76.3206 86.6336 81.8159 83.088 87.2274 84.6753C90.99 85.7795 93.586 89.0778 96.4102 91.7895C99.3469 94.6076 102.777 96.885 106.488 98.5615C109.754 90.2367 111.013 81.1728 114.019 72.7215C116.569 65.5469 120.389 58.7662 121.62 51.2351Z" fill="#DCFBF3"/>
<path d="M32.0841 24.2424C31.778 27.6672 30.0887 30.9511 27.4754 33.1969C24.4866 35.7677 20.5449 36.8921 16.739 37.9445C14.6743 38.5168 12.6096 39.089 10.5449 39.6613C9.38984 39.9805 8.20878 40.3054 7.01328 40.2163C4.93416 40.0639 3.11203 38.6606 1.93386 36.9438C-0.537988 33.3436 -0.506223 28.4263 1.2697 24.4408C3.04562 20.4552 6.34623 17.3122 9.99048 14.8996C12.8204 13.0276 15.9737 11.5064 19.3523 11.1383C22.6212 10.7817 26.6755 11.6444 28.9538 14.1979C31.2726 16.7975 32.3873 20.8348 32.0841 24.2424Z" fill="#DCFBF3"/>
<mask id="mask0_5040_3939" style="mask-type:alpha" maskUnits="userSpaceOnUse" x="4" y="0" width="118" height="130">
<path d="M121.676 51.2351C122.909 43.701 120.678 34.7752 114.03 31.3331C110.962 29.7442 107.464 29.5533 103.97 29.3626C100.375 29.1664 96.785 28.9704 93.6708 27.2527C89.5382 24.974 87.2794 20.6669 85.0007 16.3221C83.8518 14.1313 82.6978 11.931 81.296 9.97615C75.9594 2.53412 66.2876 -1.33929 57.4464 0.420568C48.6081 2.1833 41.0518 9.49305 38.8205 18.4419C38.1691 21.0546 37.9426 23.7454 37.7159 26.4385C37.589 27.9453 37.4621 29.4529 37.2606 30.9478C36.6963 35.1145 35.4171 39.4164 32.4016 42.2632C29.3737 45.1218 25.2989 45.965 21.1778 46.8178C18.2678 47.42 15.3348 48.027 12.7309 49.3516C3.76525 53.9122 2.98676 64.5462 4.86498 73.4289C5.09744 74.5268 5.32352 75.6195 5.54849 76.7069L5.55222 76.7249C5.95055 78.6502 6.34541 80.5587 6.76626 82.4496C8.32324 89.4344 10.2362 96.169 13.981 102.596C17.0516 107.864 20.9151 112.652 25.4587 116.652C37.4689 127.231 54.1761 132.122 69.7343 129.135C85.2926 126.147 99.2996 115.18 105.771 100.356C106.031 99.7606 106.277 99.1625 106.514 98.5586L106.513 98.558C108.265 94.1 109.441 89.4302 110.618 84.7561C111.639 80.7027 112.66 76.646 114.059 72.7215C114.904 70.3483 115.889 68.0182 116.873 65.6898C118.864 60.979 120.851 56.2751 121.676 51.2351Z" fill="#D9D9D9"/>
</mask>
<g mask="url(#mask0_5040_3939)">
<path d="M39.4315 90.8969V81.6244L66.7965 83.5216C67.5344 83.7238 68.2667 83.9394 69.0063 84.1572L69.0859 84.1806C73.6429 85.5225 78.3996 86.9231 84.143 84.7242L88.4926 85.0257L89.3172 85.0829L89.5285 84.2838L90.3697 81.1029C90.8906 80.6996 91.4193 80.2663 91.9563 79.8014C94.7844 77.3525 95.8425 73.5822 95.835 69.4606C95.8274 65.3275 94.7529 60.6789 93.1263 56.2303C91.497 51.7743 89.2931 47.4626 86.9782 43.9926C84.6911 40.5642 82.2031 37.8159 79.9573 36.6631L79.7423 36.5527L79.5006 36.5527L70.6891 36.553L70.398 36.553L70.1524 36.7092L64.8008 40.1134L63.8719 40.3598C63.6402 40.1872 63.3629 40.0487 63.0886 39.936C62.5079 39.6974 61.748 39.4965 60.9242 39.3506C59.283 39.0598 57.1927 38.9533 55.4441 39.315C54.1537 39.5819 52.9719 40.4231 51.9543 41.4256C51.0022 42.3634 50.1176 43.5185 49.3386 44.7C46.9482 45.4896 44.0285 46.5899 41.2781 47.9921C38.562 49.3769 35.927 51.0975 34.1517 53.1694C30.7941 53.4509 26.259 53.6536 22.1182 53.4722C19.9599 53.3776 17.9343 53.1796 16.2495 52.8426C14.5313 52.4989 13.3002 52.035 12.617 51.4941C11.833 50.8734 10.9702 50.56 10.0652 50.6549C9.18345 50.7474 8.42202 51.2114 7.78498 51.8196C6.53536 53.0128 5.48765 55.0269 4.61309 57.2719C2.84355 61.8144 1.57121 67.8768 0.937074 72.0605L0.914359 72.2104L0.937074 72.3602C1.57121 76.5439 2.84355 82.6063 4.61309 87.1488C5.48765 89.3939 6.53536 91.408 7.78497 92.6012C8.42201 93.2094 9.18344 93.6734 10.0652 93.7659C10.9702 93.8609 11.833 93.5474 12.617 92.9267C13.6762 92.0882 15.4408 91.469 17.7132 91.0765C19.9559 90.689 22.5674 90.5423 25.2081 90.5577C30.5014 90.5885 35.7693 91.2684 38.1913 91.8676L39.4315 92.1745V90.8969Z" fill="#FFC596" stroke="#192E35" stroke-width="2"/>
<rect x="97.5967" y="21" width="27.694" height="127.068" fill="#D89F6A"/>
<rect x="-23.25" y="103.221" width="148.54" height="44.8475" fill="#E9ECEF"/>
<path d="M34.655 54.1302C27.8133 54.7344 15.5014 55.0535 11.9963 52.2785C6.96105 48.2921 3.1846 63.9056 1.92578 72.2107C3.1846 80.5158 6.96105 96.1295 11.9963 92.143C17.0316 88.1566 33.3962 89.6515 38.4315 90.8973V80.553L88.5618 84.0285L92.5604 68.9075L80.5646 44.1641H54.7961C54.7961 44.1641 39.8271 47.6377 34.655 54.1302Z" fill="#FFC596"/>
<path d="M38.4315 57.8678C43.4298 67.8718 39.8462 75.248 38.4315 75.3085C40.1642 76.4226 50.5739 80.4006 61.9486 81.5384C71.6609 82.5099 78.8271 89.8477 91.3013 79.046C101.372 70.3254 87.5253 41.6729 79.5003 37.5533L70.6887 37.5536L65.2065 41.0409L54.5252 43.8733C56.0882 43.7735 59.7611 44.1843 61.9485 46.6255C64.1359 49.0666 53.7262 50.8961 48.502 50.3932L38.4315 57.8678Z" fill="#192E35"/>
<path d="M67.0887 71.343L61.5114 72.377C54.9221 71.2805 61.9772 65.4747 66.3284 62.7088L70.6236 60.2819L73.5746 60.1454L74.3308 58.4918L76.2904 60.2637L76.027 61.6616L81.89 59.4836L83.7825 60.4936L82.5948 64.5617L86.649 63.7867C86.2084 75.1681 73.4252 73.5665 67.0887 71.343Z" fill="#FFC596"/>
<path d="M68.7098 69.9331L64.6928 70.3646C60.0753 69.2285 65.4059 65.4894 68.6484 63.7618L71.8323 62.2718L73.935 62.3351L74.5635 61.2021L75.8565 62.5664L75.5921 63.5446L79.8754 62.3165L81.163 63.1363L80.0944 65.96L83.0157 65.6298C82.0722 73.6863 73.0853 71.8556 68.7098 69.9331Z" fill="#FF9A9A"/>
<path d="M70.4369 69.0928L67.905 69.3647C64.9947 68.6487 68.3545 66.292 70.3982 65.2032L72.4049 64.2641L73.7302 64.3039L74.1263 63.5898L74.9413 64.4497L74.7746 65.0663L77.4743 64.2922L78.2859 64.8089L77.6123 66.5886L79.4535 66.3805C78.8589 71.4584 73.1947 70.3045 70.4369 69.0928Z" fill="#F64B4B"/>
<path d="M55.6468 40.2946C52.1258 41.0229 48.6145 47.4899 47.299 50.6324C50.1391 49.1428 56.9735 46.2026 61.5909 46.3582C61.5292 44.9819 62.1785 42.6061 63.348 41.7574C64.5174 40.9086 59.1677 39.5663 55.6468 40.2946Z" fill="#FFC596"/>
<path d="M17.0308 79.5507C0.917945 87.5236 1.08635 99.0675 3.18438 103.22H124.28C126.378 99.0675 126.297 88.1884 110.184 80.2155C94.0711 72.2426 74.0976 76.2286 64.8662 79.5507C55.6347 76.2286 33.1437 71.5778 17.0308 79.5507Z" fill="white"/>
</g>
</svg>
