<svg width="121" height="130" viewBox="0 0 121 130" fill="none" xmlns="http://www.w3.org/2000/svg">
<path d="M86.5528 84.6753C81.1831 83.088 75.7304 86.6336 71.4839 90.2913C67.2375 93.9491 62.673 98.1589 57.0769 98.1791C51.4179 98.1992 46.7932 93.9347 42.4951 90.2424C38.1943 86.5502 32.6383 82.9844 27.2371 84.6839C25.2285 85.3166 23.4893 86.6307 21.5007 87.3208C17.3947 88.7442 12.7299 87.2662 9.29144 84.6005C8.44043 83.942 7.65246 83.2202 6.90747 82.4496C8.44903 89.4344 10.343 96.169 14.0508 102.596C17.0909 107.864 20.9162 112.652 25.4148 116.652C37.306 127.231 53.8477 132.122 69.2518 129.135C84.6559 126.147 98.5242 115.18 104.931 100.356C105.189 99.7606 105.433 99.1625 105.668 98.5586C101.986 96.8822 98.5816 94.6047 95.6675 91.7866C92.8623 89.0778 90.2864 85.7795 86.5528 84.6753Z" fill="#ABFEE6"/>
<path d="M120.679 51.2351C121.9 43.701 119.691 34.7752 113.109 31.3331C106.946 28.1096 99.0317 30.6401 92.9514 27.2527C86.7966 23.825 84.8396 15.8078 80.6992 9.97614C75.4154 2.53412 65.8394 -1.33929 57.0858 0.420568C48.335 2.1833 40.8536 9.49304 38.6444 18.4419C37.6386 22.5166 37.6558 26.7811 37.0999 30.9478C36.5412 35.1145 35.2747 39.4164 32.289 42.2632C27.1744 47.1402 19.0425 46.151 12.8132 49.3516C3.93636 53.9122 3.16558 64.5462 5.02519 73.4288C5.66417 76.477 6.25443 79.4848 6.90773 82.4496C7.65272 83.2173 8.44069 83.942 9.2917 84.6005C12.7301 87.2662 17.3921 88.7442 21.501 87.3208C23.4924 86.6307 25.2288 85.3165 27.2374 84.6839C32.6386 82.9844 38.1945 86.5501 42.4954 90.2424C46.7963 93.9347 51.4181 98.202 57.0772 98.179C62.6732 98.1589 67.2377 93.949 71.4842 90.2913C75.7306 86.6335 81.1834 83.0879 86.5531 84.6753C90.2866 85.7795 92.8626 89.0778 95.6649 91.7895C98.579 94.6075 101.983 96.885 105.665 98.5615C108.906 90.2366 110.155 81.1728 113.138 72.7215C115.668 65.5469 119.459 58.7662 120.679 51.2351Z" fill="#DCFBF3"/>
<path d="M31.8361 24.242C31.5323 27.6668 29.8561 30.9507 27.263 33.1965C24.2973 35.7673 20.3861 36.8917 16.6096 37.9441C14.5609 38.5164 12.5121 39.0886 10.4634 39.6608C9.31725 39.98 8.14533 40.305 6.95907 40.2158C4.89602 40.0634 3.08798 38.6601 1.91891 36.9434C-0.533829 33.3432 -0.50231 28.4259 1.25988 24.4404C3.02207 20.4548 6.29717 17.3118 9.91325 14.8992C12.7213 13.0272 15.8503 11.506 19.2027 11.1379C22.4463 10.7813 26.4693 11.644 28.73 14.1975C31.0309 16.7971 32.1369 20.8344 31.8361 24.242Z" fill="#DCFBF3"/>
<path d="M34.0583 65.4192C34.7817 67.5216 33.6638 69.81 31.5264 70.5442C29.4216 71.2672 27.1331 70.149 26.4097 68.0466C25.6748 65.9097 26.7929 63.6222 28.8975 62.8992C31.0348 62.165 33.3237 63.2823 34.0583 65.4192ZM17.9778 51.6729C16.1458 51.4549 14.9402 49.6138 15.5254 47.8656C16.2181 45.7961 17.8873 43.3169 21.8114 41.9688C26.8214 40.2471 32.4223 41.9816 34.0407 46.6882C35.1659 49.9592 33.4159 52.7999 30.6803 55.2694C29.717 56.1615 30.0052 57.1073 30.384 58.2086C30.7389 59.241 30.1891 60.3655 29.1562 60.7206L27.3862 61.329C26.353 61.6833 25.2277 61.1342 24.8724 60.1018L24.2644 58.332C23.759 56.8636 23.4129 55.6389 24.5827 54.1545C26.1726 52.153 28.0423 51.3988 27.2271 49.0287C26.6757 47.4264 25.083 46.7042 23.5802 47.2212C22.2178 47.6893 21.473 48.6632 21.1065 49.7044C20.6454 51.0117 19.3556 51.838 17.9778 51.6729Z" fill="#BE3FB3"/>
<mask id="path-5-inside-1_4126_4597" fill="white">
<path d="M32.7986 65.4192C33.522 67.5216 32.404 69.81 30.2667 70.5442C28.1618 71.2672 25.8733 70.149 25.1499 68.0466C24.415 65.9097 25.5331 63.6222 27.6377 62.8992C29.775 62.165 32.0639 63.2823 32.7986 65.4192ZM16.718 51.6729C14.886 51.4549 13.6805 49.6138 14.2657 47.8656C14.9583 45.7961 16.6275 43.3169 20.5516 41.9688C25.5616 40.2471 31.1625 41.9816 32.7809 46.6882C33.9061 49.9592 32.1562 52.7999 29.4206 55.2694C28.4572 56.1615 28.7455 57.1073 29.1242 58.2086C29.4791 59.241 28.9293 60.3655 27.8965 60.7206L26.1265 61.329C25.0932 61.6833 23.968 61.1342 23.6127 60.1018L23.0046 58.332C22.4993 56.8636 22.1531 55.6389 23.3229 54.1545C24.9128 52.153 26.7825 51.3988 25.9673 49.0287C25.416 47.4264 23.8232 46.7042 22.3204 47.2212C20.958 47.6893 20.2133 48.6632 19.8467 49.7044C19.3856 51.0117 18.0958 51.838 16.718 51.6729Z"/>
</mask>
<path d="M30.2667 70.5442L30.5916 71.49L30.5915 71.49L30.2667 70.5442ZM25.1499 68.0466L24.2044 68.372L24.2043 68.3719L25.1499 68.0466ZM27.6377 62.8992L27.3128 61.9534L27.3128 61.9534L27.6377 62.8992ZM32.7986 65.4192L31.853 65.7446L31.8529 65.7443L32.7986 65.4192ZM14.2657 47.8656L15.214 48.183L15.2139 48.1831L14.2657 47.8656ZM20.5516 41.9688L20.8766 42.9145L20.8765 42.9145L20.5516 41.9688ZM32.7809 46.6882L31.8353 47.0135L31.8353 47.0134L32.7809 46.6882ZM29.4206 55.2694L28.7411 54.5356L28.7505 54.5271L29.4206 55.2694ZM29.1242 58.2086L30.0699 57.8834L30.0699 57.8835L29.1242 58.2086ZM27.8965 60.7206L28.2216 61.6663L28.2215 61.6663L27.8965 60.7206ZM26.1265 61.329L26.4515 62.2747L26.4508 62.2749L26.1265 61.329ZM23.6127 60.1018L22.6671 60.4272L22.6669 60.4268L23.6127 60.1018ZM23.0046 58.332L23.9502 58.0066L23.9503 58.0071L23.0046 58.332ZM23.3229 54.1545L22.5375 53.5355L22.5399 53.5325L23.3229 54.1545ZM25.9673 49.0287L26.9129 48.7033L26.913 48.7034L25.9673 49.0287ZM22.3204 47.2212L22.6457 48.1668L22.6454 48.1669L22.3204 47.2212ZM19.8467 49.7044L20.79 50.0364L20.7898 50.037L19.8467 49.7044ZM33.7442 65.0939C34.6493 67.7245 33.2456 70.5783 30.5916 71.49L29.9418 69.5984C31.5624 69.0417 32.3946 67.3188 31.853 65.7446L33.7442 65.0939ZM30.5915 71.49C27.9647 72.3923 25.1074 70.9965 24.2044 68.372L26.0955 67.7213C26.6393 69.3015 28.359 70.1421 29.9418 69.5984L30.5915 71.49ZM24.2043 68.3719C23.2914 65.7175 24.6809 62.8576 27.3128 61.9534L27.9626 63.8449C26.3854 64.3867 25.5386 66.102 26.0956 67.7214L24.2043 68.3719ZM27.3128 61.9534C29.9721 61.0399 32.83 62.4347 33.7443 65.0941L31.8529 65.7443C31.2979 64.13 29.578 63.29 27.9626 63.8449L27.3128 61.9534ZM16.5998 52.6659C14.1594 52.3755 12.5242 49.9175 13.3174 47.5482L15.2139 48.1831C14.8367 49.31 15.6126 50.5343 16.8362 50.6799L16.5998 52.6659ZM13.3174 47.5482C14.0983 45.2151 15.9784 42.4826 20.2267 41.023L20.8765 42.9145C17.2766 44.1513 15.8184 46.3771 15.214 48.183L13.3174 47.5482ZM20.2266 41.023C25.5582 39.1908 31.8666 40.954 33.7266 46.363L31.8353 47.0134C30.4584 43.0092 25.565 41.3033 20.8766 42.9145L20.2266 41.023ZM33.7266 46.3629C35.058 50.2335 32.8999 53.4757 30.0907 56.0117L28.7505 54.5271C31.4125 52.1241 32.7543 49.685 31.8353 47.0135L33.7266 46.3629ZM30.1 56.0031C29.8176 56.2646 29.7695 56.461 29.7691 56.6626C29.7685 56.9521 29.8709 57.3048 30.0699 57.8834L28.1786 58.5338C27.9988 58.0111 27.7677 57.3403 27.7691 56.6585C27.7707 55.8888 28.0602 55.1662 28.7411 54.5357L30.1 56.0031ZM30.0699 57.8835C30.6046 59.4388 29.7761 61.1319 28.2216 61.6663L27.5714 59.7749C28.0826 59.5992 28.3537 59.0431 28.1785 58.5337L30.0699 57.8835ZM28.2215 61.6663L26.4515 62.2747L25.8014 60.3833L27.5714 59.7749L28.2215 61.6663ZM26.4508 62.2749C24.8964 62.8079 23.2022 61.9822 22.6671 60.4272L24.5583 59.7764C24.7337 60.2862 25.2901 60.5586 25.8021 60.383L26.4508 62.2749ZM22.6669 60.4268L22.0589 58.657L23.9503 58.0071L24.5584 59.7769L22.6669 60.4268ZM22.059 58.6575C21.8109 57.9363 21.54 57.1163 21.5356 56.2544C21.5309 55.3349 21.824 54.4409 22.5375 53.5355L24.1084 54.7734C23.652 55.3525 23.5334 55.8131 23.5356 56.2441C23.5381 56.7328 23.693 57.2593 23.9502 58.0066L22.059 58.6575ZM22.5399 53.5325C22.9753 52.9844 23.4257 52.5272 23.8116 52.1382C24.2132 51.7334 24.5188 51.427 24.7538 51.1209C24.9781 50.8287 25.0942 50.5901 25.1404 50.3553C25.1854 50.1259 25.1803 49.815 25.0217 49.3539L26.913 48.7034C27.1619 49.4274 27.2288 50.0996 27.1029 50.7408C26.978 51.3765 26.6802 51.8959 26.3402 52.3388C26.011 52.7677 25.602 53.1733 25.2314 53.5468C24.845 53.9362 24.4655 54.3239 24.1059 54.7765L22.5399 53.5325ZM25.0218 49.3541C24.6527 48.2815 23.6339 47.8269 22.6457 48.1668L21.9951 46.2756C24.0126 45.5815 26.1793 46.5713 26.9129 48.7033L25.0218 49.3541ZM22.6454 48.1669C21.6251 48.5175 21.0752 49.2261 20.79 50.0364L18.9035 49.3723C19.3513 48.1002 20.2909 46.8611 21.9955 46.2754L22.6454 48.1669ZM20.7898 50.037C20.1773 51.7733 18.455 52.8882 16.599 52.6658L16.837 50.68C17.7367 50.7878 18.5939 50.2501 18.9037 49.3717L20.7898 50.037Z" fill="#4E1749" mask="url(#path-5-inside-1_4126_4597)"/>
<path d="M46.213 73.5381C46.213 73.5381 38.7153 87.6787 36.5992 93.1171C34.483 98.5555 40.382 105.471 40.382 105.471L44.7614 101.335C44.7614 101.335 47.1802 78.2519 46.213 73.5381Z" fill="#6F3530"/>
<path d="M46.3943 73.778C46.3943 73.778 59.1036 66.6393 69.6756 64.8249C80.2476 63.0098 83.6918 69.3011 83.6918 69.3011L76.304 111.045L77.428 125.969L59.1633 127.984L40.8376 125.969L43.3058 103.907C43.3058 103.907 42.7118 83.2158 46.3943 73.778Z" fill="#6C6FC3"/>
<path d="M63.2273 24.352C62.3841 18.8353 55.7446 19.5675 52.6168 21.4557C50.446 19.2706 48.9648 18.2272 44.8036 18.5969C41.7422 18.869 37.3501 21.0951 35.486 24.5033C33.6218 27.9116 33.8251 32.3273 35.9151 35.6022C36.6063 36.6854 37.5173 37.7429 37.5654 39.0266C37.6355 40.8837 35.9256 42.24 34.9223 43.8049C33.2414 46.4263 33.6722 50.2037 35.9004 52.3795C37.312 53.7579 39.347 54.5662 40.2528 56.3183C41.0116 57.7858 40.7782 59.5533 41.1249 61.1687C41.7613 64.1375 44.4379 66.416 47.4007 67.0899C50.3624 67.7635 53.5162 67.0144 56.1831 65.5598" fill="#1D2A30"/>
<path d="M44.2505 36.1875C43.6186 40.6308 44.2465 50.2071 44.8825 54.157C45.5193 58.1078 50.0153 61.4462 54.5185 62.8504C59.0217 64.2555 66.8548 58.8172 68.2454 55.6944C69.6361 52.5716 70.629 37.1477 70.629 37.1477C70.629 37.1477 44.8825 31.7442 44.2505 36.1875Z" fill="#BA6258"/>
<path d="M39.3867 29.439C40.9497 33.0534 44.5211 38.4603 48.433 38.9345C52.3439 39.4087 56.4494 37.6723 58.832 34.5361C59.4243 37.4507 62.6609 38.9988 65.5979 39.4797C67.6743 39.8206 69.8649 39.8413 71.8182 39.0595C73.7721 38.2777 75.4457 36.5771 75.7607 34.4972C76.0758 32.4179 73.1154 27.3104 71.0474 26.9233" fill="#1D2A30"/>
<path d="M61.9309 35.9109C61.253 37.4221 61.1985 39.2021 61.7835 40.7518C62.368 42.3014 63.5848 43.602 65.0922 44.2894C63.6465 46.0834 63.3901 48.6203 63.9398 50.8574C64.4895 53.0939 65.7515 55.0861 67.1053 56.9496C67.1053 56.9496 63.5837 62.039 70.6715 65.7551C70.6715 65.7551 75.6465 64.2148 73.4247 56.7203C73.2669 56.1896 73.2555 55.5789 73.5135 55.0892C73.7606 54.6202 74.2812 54.3779 74.7453 54.1206C76.5928 53.0944 78.0109 51.3212 78.6048 49.2937C79.1986 47.2663 78.9614 45.0085 77.9585 43.1486C77.6912 42.6516 77.3657 42.1676 77.2702 41.6109C77.1269 40.7699 76.4848 38.5728 76.776 37.7708C78.2964 33.5742 76.3389 28.3603 71.4132 25.77C67.4609 23.6922 62.5154 23.3488 59.4917 26.6333" fill="#1D2A30"/>
<path d="M46.7204 46.9919C46.6958 47.3722 46.9985 47.706 47.3959 47.7383C47.7922 47.7712 48.1342 47.49 48.1588 47.1103C48.1828 46.7301 47.8806 46.3958 47.4838 46.3635C47.0864 46.3306 46.7444 46.6123 46.7204 46.9919Z" fill="#17282F"/>
<path d="M46.3941 44.7411C46.4808 44.8375 47.0388 44.4492 47.8152 44.4731C48.5911 44.4862 49.1496 44.9006 49.2363 44.8083C49.2792 44.7676 49.1924 44.5956 48.9495 44.408C48.7107 44.2219 48.299 44.0358 47.8152 44.0238C47.3314 44.0129 46.9197 44.1792 46.6804 44.3543C46.4369 44.53 46.3507 44.6978 46.3941 44.7411Z" fill="#17282F"/>
<path d="M47.4381 41.0314C47.4972 41.2458 48.0616 41.2819 48.659 41.5203C49.2651 41.7374 49.7116 42.084 49.8979 41.962C49.983 41.9002 49.9709 41.7047 49.8151 41.4596C49.6619 41.2165 49.3516 40.9408 48.9378 40.7842C48.5242 40.6282 48.109 40.6289 47.8333 40.7095C47.5538 40.7899 47.4158 40.9286 47.4381 41.0314Z" fill="#17282F"/>
<path d="M56.8039 47.9997C56.7793 48.3799 57.082 48.7137 57.4794 48.746C57.8757 48.7789 58.2177 48.4978 58.2423 48.1181C58.2663 47.7379 57.9641 47.4035 57.5673 47.3712C57.1699 47.3384 56.8279 47.62 56.8039 47.9997Z" fill="#17282F"/>
<path d="M56.4776 45.7488C56.5643 45.8452 57.1223 45.4569 57.8987 45.4809C58.6746 45.4939 59.2331 45.9083 59.3198 45.816C59.3627 45.7754 59.2759 45.6034 59.033 45.4157C58.7942 45.2296 58.3825 45.0435 57.8987 45.0316C57.4149 45.0206 57.0032 45.1869 56.7639 45.362C56.5204 45.5377 56.4342 45.7055 56.4776 45.7488Z" fill="#17282F"/>
<path d="M56.8265 43.0908C56.9582 43.2701 57.4985 43.1027 58.1416 43.1127C58.7853 43.0996 59.3261 43.2643 59.4567 43.084C59.5142 42.9959 59.4332 42.8176 59.2001 42.644C58.9703 42.4715 58.5821 42.3245 58.1395 42.3256C57.6975 42.3271 57.3098 42.4757 57.081 42.6493C56.8485 42.8239 56.7691 43.0027 56.8265 43.0908Z" fill="#17282F"/>
<path d="M52.3796 52.8008C52.3843 52.757 51.9041 52.6601 51.1251 52.5381C50.9271 52.512 50.7406 52.4677 50.7108 52.3317C50.6685 52.1873 50.7573 51.9767 50.8602 51.7489C51.0604 51.2756 51.2693 50.7794 51.4893 50.2597C52.3644 48.1382 53.0045 46.3915 52.9183 46.3571C52.8326 46.3227 52.0531 48.0141 51.1779 50.1356C50.9668 50.659 50.7652 51.1578 50.5729 51.6348C50.4914 51.8573 50.355 52.1091 50.448 52.4083C50.4971 52.5579 50.6398 52.6689 50.7657 52.707C50.8921 52.7492 51.0034 52.7544 51.1011 52.7627C51.8869 52.8274 52.3754 52.8451 52.3796 52.8008Z" fill="#17282F"/>
<path d="M53.0308 55.8719C53.3494 55.3468 53.9421 54.9581 54.5518 54.8757C54.9745 54.8182 55.4122 54.911 55.689 55.1781C55.9663 55.4452 56.0513 55.8982 55.8403 56.2666C55.603 56.682 55.0632 56.8943 54.5928 56.8787C54.1224 56.8634 53.7057 56.667 53.3084 56.4667C53.1991 56.4114 53.0864 56.353 53.0138 56.2584C52.9413 56.1639 52.9175 56.0232 52.992 55.9124" fill="#6F3530"/>
<path d="M52.912 56.9421C53.0505 56.9823 53.2432 56.2267 54.1806 55.8824C55.1162 55.5353 56.0935 55.8593 56.1275 55.7554C56.1523 55.7108 55.9422 55.5554 55.5233 55.4455C55.1124 55.3348 54.4819 55.2975 53.9089 55.5087C53.3364 55.7205 53.0152 56.109 52.9054 56.4115C52.7897 56.7191 52.8471 56.9316 52.912 56.9421Z" fill="#17282F"/>
<path d="M55.9115 61.4878C55.9115 61.4878 56.6661 66.3507 55.7078 70.602L68.2598 66.2521L68.5565 54.7766L55.9115 61.4878Z" fill="#BA6258"/>
<path d="M56.0857 63.0765C56.0857 63.0765 61.7037 62.1411 65.1105 59.2011C65.1105 59.2011 61.1551 66.3123 56.1547 67.1819L56.0857 63.0765Z" fill="#6F3530"/>
<path d="M50.8815 71.1832C50.8815 71.1832 50.0843 73.458 57.4394 73.5381C64.7953 73.6191 75.1138 66.0454 75.1138 66.0454L68.8261 65.5596L55.7079 68.9453L50.8815 71.1832Z" fill="#BA6258"/>
<path d="M75.2329 48.4979C76.9137 46.0476 80.2136 44.8367 83.0811 45.6186C85.9491 46.3999 88.1776 49.1178 88.3805 52.0817C88.5835 55.0456 86.7475 58.0411 84.0129 59.2063C86.2398 60.3446 87.264 63.3697 86.1853 65.6249C85.1071 67.8806 82.1078 68.9846 79.8232 67.9678C79.2564 69.9594 77.0269 71.1636 74.9593 71.0261C72.8923 70.8886 71.0308 69.6632 69.6189 68.1473C66.6849 64.9982 65.368 60.3461 66.468 56.1859C67.5679 52.0257 71.1528 48.5617 75.3985 47.8468" fill="#1D2A30"/>
<path d="M78.5172 45.2586C78.5239 45.2549 78.553 45.3047 78.6029 45.4038C78.648 45.5045 78.7305 45.6482 78.8016 45.8489C78.9569 46.2453 79.1329 46.8492 79.2009 47.631C79.2663 48.4097 79.2169 49.3726 78.892 50.3972C78.5836 51.4213 77.9784 52.503 77.0398 53.3959L77.0559 53.2241C77.7282 54.131 78.2333 55.2806 78.4321 56.532C78.7098 58.2404 78.389 59.9379 77.6809 61.2567C76.975 62.5832 75.943 63.5191 74.9889 64.1059C74.0286 64.6973 73.1441 64.9707 72.5305 65.0874C72.2216 65.1404 71.9813 65.1751 71.8157 65.1798C71.6517 65.1902 71.5655 65.1912 71.565 65.1819C71.5618 65.1538 71.9065 65.1289 72.5076 64.9847C73.1056 64.8384 73.9621 64.5427 74.8861 63.9445C75.8044 63.3521 76.7912 62.4271 77.4603 61.1399C78.131 59.8632 78.4326 58.2253 78.1658 56.5745C77.9732 55.3657 77.4894 54.256 76.8483 53.3782L76.7803 53.2854L76.8644 53.2065C77.7702 52.3557 78.3672 51.3191 78.6818 50.3303C79.0124 49.341 79.0804 48.405 79.0389 47.6419C78.9444 46.1016 78.4585 45.2746 78.5172 45.2586Z" fill="#365462"/>
<path d="M82.8529 69.5497C82.8529 69.5497 86.6022 70.0338 87.6905 77.5265C88.7788 85.02 81.5127 104.23 78.984 108.345C74.7511 115.234 37.1436 109.553 37.1436 109.553L39.199 101.214L69.4307 97.4678C69.4307 97.4678 73.3003 80.6685 75.598 74.5055C77.8949 68.3418 82.8529 69.5497 82.8529 69.5497Z" fill="#BA6258"/>
<path d="M39.4684 66.0453C39.4684 66.0453 42.4759 62.2381 43.6792 61.8758C44.8824 61.5135 48.9991 63.6359 49.299 64.2667C49.599 64.8975 48.8732 66.0453 48.8732 66.0453C48.8732 66.0453 48.6919 68.2207 47.9661 68.583C47.2411 68.9453 47.2411 68.9453 47.2411 68.9453C47.2411 68.9453 46.0919 72.2091 44.0965 72.7526C44.0965 72.7526 43.6733 76.5598 41.2547 77.1033L36.5991 73.1758C36.5991 73.1758 37.1987 69.9728 39.4684 66.0453Z" fill="#BA6258"/>
<path d="M42.7664 62.8127C42.7664 62.8127 44.5505 60.5765 45.9107 59.8815C47.2708 59.1866 50.9592 60.0627 51.3522 60.6069C51.7452 61.1503 50.9592 61.5134 49.5381 61.3924C48.1169 61.2714 47.6333 61.2185 47.6333 61.2185L46.606 63.078L42.7664 62.8127Z" fill="#BA6258"/>
<path d="M36.5991 73.1758C36.5991 73.1758 27.7915 97.2266 27.9529 103.511C28.1142 109.795 32.1451 110.762 34.5637 110.601C36.9822 110.44 40.2688 106.889 41.6579 102.544C43.0473 98.198 41.6579 75.9555 41.6579 75.9555L36.5991 73.1758Z" fill="#BA6258"/>
<path d="M74.4889 105.394C74.4424 105.4 74.3719 104.937 74.1281 104.231C74.0658 104.055 73.9975 103.863 73.9051 103.664C73.8241 103.46 73.712 103.254 73.6013 103.035C73.3628 102.605 73.068 102.15 72.7092 101.711C72.344 101.275 71.953 100.9 71.5749 100.585C71.38 100.435 71.199 100.286 71.014 100.169C70.8358 100.04 70.6595 99.9369 70.4981 99.8427C69.8504 99.4702 69.4076 99.3141 69.4228 99.2694C69.4298 99.2436 69.8987 99.3361 70.5885 99.6751C70.76 99.7608 70.9467 99.8578 71.1359 99.9817C71.3318 100.095 71.524 100.241 71.7295 100.391C72.1284 100.705 72.5393 101.089 72.9168 101.539C73.2885 101.994 73.5874 102.469 73.8213 102.92C73.9299 103.15 74.0376 103.366 74.1119 103.579C74.198 103.788 74.2582 103.99 74.3101 104.174C74.5134 104.915 74.5161 105.392 74.4889 105.394Z" fill="#6F3530"/>
<path d="M39.1587 77.1034C39.1587 77.1034 40.5293 77.9394 41.7166 76.9503L39.1587 77.1034Z" fill="#6F3530"/>
<path d="M44.0962 72.7526C44.0962 72.7526 43.3911 72.4512 43.6331 71.5239L44.2501 70.114" fill="#6F3530"/>
<path d="M44.8022 67.5762C44.8022 67.5762 46.8979 68.0596 47.2411 68.9452L44.8022 67.5762Z" fill="#6F3530"/>
<path d="M45.8499 65.0787C45.8499 65.0787 47.745 64.9577 48.8734 66.0454L45.8499 65.0787Z" fill="#6F3530"/>
<path d="M49.4084 75.5814C49.4084 75.5814 49.5007 77.267 55.0264 77.6125C60.5522 77.9579 65.887 75.9445 65.887 75.9445" fill="#56438C"/>
<path d="M94.6118 48.4653C93.9477 51.2939 91.1199 53.0469 88.2448 52.3728C85.4137 51.7091 83.6606 48.8821 84.3238 46.0535C84.9983 43.1792 87.8269 41.4263 90.6572 42.0899C93.5323 42.764 95.2863 45.591 94.6118 48.4653ZM86.393 22.0837C84.5195 20.568 84.4666 17.6945 86.3312 16.1668C88.5375 14.3601 92.1088 12.7779 97.3875 14.0147C104.127 15.5945 109.114 21.4056 107.628 27.7361C106.596 32.1365 102.684 34.0618 97.9393 34.8914C96.2535 35.2072 95.9142 36.4536 95.5662 37.9356C95.2398 39.3239 93.8491 40.1863 92.46 39.8601L90.0789 39.3022C88.6899 38.9768 87.8277 37.5869 88.1533 36.1979L88.7115 33.8181C89.1751 31.8423 89.6442 30.2473 91.9716 29.4193C95.1235 28.3108 97.7155 28.7765 98.463 25.5888C98.969 23.4327 97.7099 21.5274 95.6881 21.0537C93.8563 20.6241 92.3542 21.1844 91.2242 22.0805C89.8038 23.2066 87.8029 23.2235 86.393 22.0837Z" fill="#BE3FB3"/>
<mask id="path-38-inside-2_4126_4597" fill="white">
<path d="M93.1116 47.991C92.4475 50.8196 89.6197 52.5726 86.7445 51.8985C83.9135 51.2348 82.1603 48.4078 82.8236 45.5792C83.498 42.7049 86.3267 40.952 89.1569 41.6157C92.0321 42.2897 93.786 45.1167 93.1116 47.991ZM84.8927 21.6094C83.0192 20.0937 82.9663 17.2202 84.831 15.6925C87.0372 13.8858 90.6085 12.3036 95.8873 13.5404C102.626 15.1202 107.614 20.9313 106.128 27.2618C105.096 31.6622 101.184 33.5875 96.439 34.4171C94.7532 34.7329 94.414 35.9793 94.0659 37.4613C93.7395 38.8496 92.3489 39.712 90.9598 39.3858L88.5787 38.8279C87.1896 38.5025 86.3275 37.1126 86.6531 35.7236L87.2113 33.3438C87.6748 31.368 88.144 29.773 90.4714 28.945C93.6232 27.8365 96.2153 28.3022 96.9627 25.1145C97.4688 22.9584 96.2097 21.0531 94.1878 20.5794C92.3561 20.1498 90.8539 20.7101 89.7239 21.6062C88.3036 22.7323 86.3026 22.7492 84.8927 21.6094Z"/>
</mask>
<path d="M86.7445 51.8985L86.9728 50.9249L86.9728 50.9249L86.7445 51.8985ZM82.8236 45.5792L81.85 45.3509L81.85 45.3508L82.8236 45.5792ZM89.1569 41.6157L88.9287 42.5893L88.9286 42.5893L89.1569 41.6157ZM84.831 15.6925L84.1972 14.919L84.1974 14.9188L84.831 15.6925ZM95.8873 13.5404L96.1154 12.5667L96.1155 12.5668L95.8873 13.5404ZM106.128 27.2618L105.154 27.0334L105.154 27.0333L106.128 27.2618ZM96.439 34.4171L96.2549 33.4341L96.2668 33.432L96.439 34.4171ZM94.0659 37.4613L95.0394 37.6899L95.0394 37.6902L94.0659 37.4613ZM90.9598 39.3858L91.1879 38.4122L91.1884 38.4123L90.9598 39.3858ZM88.5787 38.8279L88.8068 37.8543L88.8068 37.8543L88.5787 38.8279ZM86.6531 35.7236L85.6795 35.4954L85.6795 35.4952L86.6531 35.7236ZM87.2113 33.3438L86.2377 33.1155L86.2377 33.1154L87.2113 33.3438ZM90.4714 28.945L90.1362 28.0029L90.1396 28.0017L90.4714 28.945ZM96.9627 25.1145L95.9891 24.8862L95.9892 24.886L96.9627 25.1145ZM94.1878 20.5794L93.9597 21.5531L93.9595 21.553L94.1878 20.5794ZM89.7239 21.6062L90.3453 22.3897L90.3452 22.3898L89.7239 21.6062ZM94.0851 48.2196C93.2935 51.5915 89.9232 53.6709 86.5162 52.8721L86.9728 50.9249C89.3161 51.4743 91.6015 50.0478 92.138 47.7625L94.0851 48.2196ZM86.5163 52.8721C83.1478 52.0825 81.0606 48.7176 81.85 45.3509L83.7972 45.8075C83.2601 48.0981 84.6791 50.3872 86.9728 50.9249L86.5163 52.8721ZM81.85 45.3508C82.6494 41.9441 86.0121 39.8511 89.3852 40.6421L88.9286 42.5893C86.6412 42.0529 84.3467 43.4658 83.7971 45.8077L81.85 45.3508ZM89.3852 40.6421C92.7977 41.4421 94.8859 44.807 94.0851 48.2195L92.138 47.7626C92.6862 45.4265 91.2665 43.1374 88.9287 42.5893L89.3852 40.6421ZM84.2637 22.3868C81.9139 20.4858 81.8261 16.8616 84.1972 14.919L85.4647 16.466C84.1065 17.5788 84.1245 19.7016 85.5217 20.832L84.2637 22.3868ZM84.1974 14.9188C86.6184 12.9363 90.5029 11.2518 96.1154 12.5667L95.6591 14.514C90.7142 13.3554 87.4561 14.8353 85.4645 16.4662L84.1974 14.9188ZM96.1155 12.5668C103.185 14.2241 108.757 20.4361 107.101 27.4903L105.154 27.0333C106.471 21.4265 102.067 16.0163 95.659 14.514L96.1155 12.5668ZM107.102 27.4902C105.925 32.5076 101.454 34.5555 96.6113 35.4021L96.2668 33.432C100.914 32.6195 104.267 30.8169 105.154 27.0334L107.102 27.4902ZM96.6232 35.4C96.0473 35.5079 95.7834 35.74 95.5961 36.0362C95.3618 36.4068 95.2203 36.92 95.0394 37.6899L93.0924 37.2327C93.2597 36.5205 93.4618 35.6696 93.9056 34.9675C94.3964 34.1911 95.145 33.6421 96.2549 33.4342L96.6232 35.4ZM95.0394 37.6902C94.5867 39.6156 92.6582 40.8119 90.7312 40.3593L91.1884 38.4123C92.0395 38.6122 92.8924 38.0836 93.0925 37.2324L95.0394 37.6902ZM90.7317 40.3594L88.3506 39.8016L88.8068 37.8543L91.1879 38.4122L90.7317 40.3594ZM88.3506 39.8016C86.4238 39.3502 85.2278 37.4222 85.6795 35.4954L87.6267 35.9518C87.4271 36.8031 87.9555 37.6549 88.8068 37.8543L88.3506 39.8016ZM85.6795 35.4952L86.2377 33.1155L88.1849 33.5722L87.6267 35.952L85.6795 35.4952ZM86.2377 33.1154C86.4663 32.1411 86.7286 31.0934 87.2933 30.1857C87.8885 29.2291 88.7769 28.4865 90.1362 28.0029L90.8066 29.8872C89.8385 30.2316 89.3286 30.7004 88.9915 31.2423C88.6239 31.8331 88.4198 32.5707 88.1848 33.5722L86.2377 33.1154ZM90.1396 28.0017C90.985 27.7043 91.7864 27.515 92.4841 27.353C93.2035 27.186 93.7761 27.0552 94.2713 26.8717C94.75 26.6944 95.091 26.4896 95.3484 26.2163C95.6019 25.9471 95.834 25.5479 95.9891 24.8862L97.9363 25.3428C97.7177 26.275 97.3455 27.0129 96.8043 27.5875C96.267 28.1581 95.6228 28.5039 94.9661 28.7472C94.3258 28.9844 93.6128 29.1442 92.9364 29.3012C92.2382 29.4633 91.5336 29.6315 90.8032 29.8884L90.1396 28.0017ZM95.9892 24.886C96.3671 23.276 95.452 21.9027 93.9597 21.5531L94.416 19.6058C96.9673 20.2036 98.5705 22.6408 97.9363 25.343L95.9892 24.886ZM93.9595 21.553C92.4803 21.2061 91.2842 21.6451 90.3453 22.3897L89.1026 20.8227C90.4237 19.775 92.2318 19.0935 94.4162 19.6058L93.9595 21.553ZM90.3452 22.3898C88.5685 23.7985 86.048 23.8293 84.264 22.3871L85.5214 20.8317C86.5572 21.6691 88.0387 21.6662 89.1026 20.8226L90.3452 22.3898Z" fill="#4E1749" mask="url(#path-38-inside-2_4126_4597)"/>
</svg>
