<svg width="126" height="131" viewBox="0 0 126 131" fill="none" xmlns="http://www.w3.org/2000/svg">
<path d="M86.5032 84.6753C81.1367 83.088 75.687 86.6336 71.443 90.2913C67.199 93.9491 62.6371 98.1589 57.0443 98.1791C51.3885 98.1992 46.7665 93.9347 42.471 90.2424C38.1725 86.5502 32.6198 82.9845 27.2218 84.6839C25.2143 85.3166 23.476 86.6307 21.4886 87.3208C17.3849 88.7443 12.7228 87.2662 9.28641 84.6005C8.43589 83.942 7.64837 83.2203 6.90381 82.4496C8.44448 89.4344 10.3374 96.169 14.043 102.596C17.0814 107.864 20.9044 112.652 25.4004 116.652C37.2848 127.231 53.8169 132.122 69.2122 129.135C84.6074 126.147 98.4678 115.18 104.871 100.356C105.129 99.7606 105.372 99.1625 105.607 98.5586C101.927 96.8822 98.525 94.6047 95.6127 91.7866C92.8091 89.0778 90.2346 85.7795 86.5032 84.6753Z" fill="#ABFEE6"/>
<path d="M120.61 51.2351C121.83 43.701 119.622 34.7752 113.044 31.3331C106.884 28.1096 98.9743 30.6401 92.8975 27.2527C86.7463 23.825 84.7904 15.8078 80.6524 9.97614C75.3717 2.53412 65.8012 -1.33929 57.0526 0.420568C48.3069 2.1833 40.8297 9.49304 38.6218 18.4419C37.6167 22.5166 37.6339 26.7811 37.0783 30.9478C36.5199 35.1145 35.2541 39.4164 32.2701 42.2632C27.1584 47.1402 19.0313 46.151 12.8056 49.3516C3.93383 53.9122 3.16349 64.5462 5.02203 73.4288C5.66064 76.477 6.25056 79.4848 6.90348 82.4496C7.64805 83.2173 8.43556 83.942 9.28608 84.6005C12.7225 87.2662 17.3818 88.7442 21.4883 87.3208C23.4786 86.6307 25.214 85.3165 27.2214 84.6839C32.6195 82.9844 38.1722 86.5501 42.4706 90.2424C46.7691 93.9347 51.3882 98.202 57.044 98.179C62.6368 98.1589 67.1987 93.949 71.4427 90.2913C75.6867 86.6335 81.1363 83.0879 86.5029 84.6753C90.2343 85.7795 92.8088 89.0778 95.6095 91.7895C98.5219 94.6075 101.924 96.885 105.604 98.5615C108.843 90.2366 110.091 81.1728 113.072 72.7215C115.601 65.5469 119.39 58.7662 120.61 51.2351Z" fill="#DCFBF3"/>
<path d="M31.8177 24.2419C31.5142 27.6668 29.8389 30.9507 27.2472 33.1965C24.2833 35.7673 20.3744 36.8916 16.6 37.9441C14.5525 38.5164 12.5049 39.0886 10.4574 39.6608C9.31188 39.98 8.14063 40.305 6.95506 40.2158C4.89319 40.0634 3.0862 38.6601 1.91781 36.9434C-0.533521 33.3432 -0.50202 28.4259 1.25916 24.4404C3.02033 20.4548 6.29354 17.3118 9.90753 14.8992C12.714 13.0272 15.8411 11.506 19.1916 11.1379C22.4334 10.7813 26.454 11.644 28.7135 14.1975C31.013 16.797 32.1184 20.8344 31.8177 24.2419Z" fill="#DCFBF3"/>
<path d="M15.5315 33.6462C15.407 33.6966 15.2828 33.7459 15.1598 33.8012C15.2828 33.7448 15.4081 33.6933 15.5315 33.6462ZM30.4443 44.6877C30.6065 43.3194 30.4991 41.9086 30.0939 40.5317C30.7909 39.5859 33.7724 38.0271 33.7724 38.0271L33.2145 36.9061C31.8938 37.5344 28.9153 37.8814 28.9153 37.8814C28.9838 37.9856 29.0596 38.128 29.1384 38.289C27.6798 35.7201 25.2676 33.9536 22.5473 33.2181C22.0438 32.1935 22.1737 28.8021 22.1737 28.8021L20.9051 28.7117C20.7966 30.1144 19.6594 32.7157 19.6065 32.8352C18.5546 32.8409 17.4928 33.0004 16.4524 33.319C15.5064 32.6899 14.6594 30.9597 14.6594 30.9597L13.5184 31.5114C14.1228 32.7228 14.3414 34.0362 14.3665 34.1979C13.5257 34.6596 12.7697 35.2173 12.1059 35.8512C10.8891 35.7093 8.0279 33.9746 8.0279 33.9746L7.31268 35.0246C8.40225 35.7429 9.95301 37.6801 10.3 38.1227C9.69252 39.1485 9.26372 40.2672 9.03064 41.4304C7.97078 41.8365 6.29204 41.708 6.29204 41.708L6.2174 42.9687C7.32678 43.0352 8.37141 43.3467 8.82766 43.4995C8.82956 44.4416 8.96019 45.3922 9.22753 46.3279C8.27049 47.2879 5.7124 48.6263 5.7124 48.6263L6.27795 49.7608C7.34505 49.2531 9.47926 48.9259 10.2981 48.815C10.9181 49.8635 11.6988 50.7735 12.5956 51.5299C12.4125 52.6292 11.4653 53.9736 11.4653 53.9736L12.5385 54.671C13.1578 53.7603 13.9621 53.0293 14.3243 52.7215C15.6686 53.4678 17.1653 53.928 18.7096 54.0644C19.4149 55.1431 20.0631 58.1393 20.0631 58.1393L21.3313 57.9208C21.1359 56.8125 21.3834 54.8107 21.5068 53.9538C22.4418 53.7958 23.3714 53.5167 24.2725 53.1029C24.7272 52.8937 25.1583 52.6554 25.5688 52.395C26.5198 52.9912 27.4026 54.3143 27.4026 54.3143L28.4659 53.603C27.7434 52.5575 27.3405 51.379 27.2457 51.0831C28.352 50.0241 29.2001 48.756 29.7558 47.3754C31.1111 47.2562 33.9682 47.895 33.9682 47.895L34.2984 46.6742C33.0249 46.3388 30.907 44.9888 30.4443 44.6877Z" fill="#8F53BF"/>
<path d="M27.9059 32.7281L26.846 32.0385C26.031 33.2368 24.7815 34.1905 24.7815 34.1905C25.4925 34.5438 26.7592 35.3974 26.7592 35.3974C26.8121 34.2775 27.9059 32.7281 27.9059 32.7281Z" fill="#8F53BF"/>
<path d="M27.8209 44.105C27.2603 44.0748 26.8943 43.0561 26.1349 41.7995C26.05 41.6393 25.9323 41.4824 25.8329 41.3154C25.7278 41.1503 25.6052 40.9859 25.4906 40.8149C25.2373 40.4828 24.9749 40.135 24.6611 39.8063C24.0476 39.1399 23.2916 38.5224 22.4298 38.0462C21.5588 37.5852 20.6227 37.2875 19.7205 37.1344C19.2692 37.0499 18.8294 37.0178 18.4078 36.9849C18.1991 36.9812 17.9923 36.967 17.7935 36.9678C17.5966 36.9745 17.3986 36.961 17.2146 36.976C15.7259 37.0171 14.6531 37.2573 14.3279 36.8083C14.2509 36.6996 14.2327 36.558 14.2757 36.3835C14.3206 36.2136 14.4166 35.9924 14.5933 35.7739C14.9342 35.3175 15.5656 34.7967 16.4792 34.3646C16.7054 34.2484 16.9541 34.1647 17.2146 34.0665C17.4755 33.9742 17.755 33.9021 18.0467 33.8278C18.6325 33.7038 19.2765 33.6092 19.9616 33.6119C20.6452 33.6163 21.3733 33.6731 22.1103 33.8569C22.8468 34.034 23.5955 34.3067 24.3161 34.6907C25.0309 35.0829 25.6657 35.5588 26.2115 36.075C26.7629 36.5875 27.2001 37.1609 27.5692 37.7257C27.9374 38.2927 28.1991 38.8769 28.4051 39.429C28.4969 39.711 28.5837 39.9808 28.6435 40.2467C28.698 40.5153 28.7585 40.7663 28.7791 41.0158C28.8941 42.0038 28.7825 42.8058 28.5708 43.3325C28.4771 43.5955 28.3373 43.7935 28.2147 43.9216C28.0871 44.0501 27.9557 44.1102 27.8209 44.105Z" fill="#BE99E3"/>
<path d="M8.06393 33.2712C8.25968 33.3956 8.10126 33.9757 7.71053 34.5663C7.57838 34.7662 7.43632 34.9414 7.29884 35.0814C7.02959 35.3552 6.77785 35.4931 6.64837 35.4109C6.453 35.2861 6.61143 34.7064 7.00217 34.1158C7.39329 33.5249 7.86857 33.1465 8.06393 33.2712Z" fill="#8F53BF"/>
<path d="M7.33813 35.0418C7.33813 35.0418 7.83628 34.4923 8.02784 33.9746C8.23159 34.0956 8.46428 34.2331 8.70307 34.3668C8.70307 34.3668 7.98786 35.0814 7.56513 35.2062L7.33813 35.0418Z" fill="#624D9E"/>
<path d="M5.96018 41.0831C6.19288 41.0936 6.35587 41.6722 6.32388 42.3756C6.31321 42.6139 6.28122 42.8354 6.23514 43.0244C6.1445 43.3942 5.99788 43.6381 5.84402 43.6314C5.61133 43.621 5.44834 43.0423 5.48033 42.339C5.51232 41.6352 5.72749 41.073 5.96018 41.0831Z" fill="#8F53BF"/>
<path d="M6.24805 42.9706C6.24805 42.9706 6.4476 42.2687 6.29184 41.708C6.53177 41.7249 6.79263 41.7297 7.06722 41.7263C7.06722 41.7263 6.82768 42.6763 6.5272 42.9934L6.24805 42.9706Z" fill="#624D9E"/>
<path d="M5.11053 48.2417C5.31847 48.1386 5.74995 48.5644 6.07404 49.1931C6.18372 49.4056 6.26712 49.6141 6.32082 49.8008C6.42669 50.1669 6.42175 50.4497 6.28389 50.518C6.07595 50.6211 5.64446 50.1953 5.32036 49.5666C4.99665 48.9379 4.90259 48.3448 5.11053 48.2417Z" fill="#8F53BF"/>
<path d="M6.30538 49.7477C6.30538 49.7477 6.07229 49.0492 5.7124 48.6264C5.92148 48.5147 6.15989 48.3862 6.39791 48.2513C6.39791 48.2513 6.66755 49.2169 6.56473 49.6379L6.30538 49.7477Z" fill="#624D9E"/>
<path d="M10.7477 53.9404C10.8741 53.7484 11.4659 53.9012 12.0699 54.2826C12.2741 54.4114 12.4534 54.55 12.5966 54.6841C12.8769 54.9471 13.0182 55.1936 12.9344 55.321C12.8084 55.5134 12.2169 55.3602 11.6129 54.9788C11.0089 54.5978 10.6216 54.1328 10.7477 53.9404Z" fill="#8F53BF"/>
<path d="M12.5554 54.646C12.5554 54.646 12.0375 54.1238 11.4651 53.9736C11.6007 53.779 11.7362 53.5601 11.8714 53.3255C11.8714 53.3255 12.5878 54.0065 12.7161 54.4208L12.5554 54.646Z" fill="#624D9E"/>
<path d="M19.519 58.5995C19.476 58.3746 20.0126 58.0863 20.7183 57.9552C20.9571 57.9111 21.184 57.8905 21.3821 57.8909C21.7701 57.8924 22.0455 57.9761 22.0741 58.1247C22.1179 58.3496 21.5809 58.638 20.8752 58.7691C20.1695 58.9002 19.5628 58.824 19.519 58.5995Z" fill="#8F53BF"/>
<path d="M21.3258 57.8909C21.3258 57.8909 20.5771 57.9174 20.063 58.1393C20.0112 57.9111 19.9518 57.6507 19.8855 57.3893C19.8855 57.3893 20.9065 57.4027 21.2904 57.6167L21.3258 57.8909Z" fill="#624D9E"/>
<path d="M27.1001 54.9534C26.966 54.7663 27.3343 54.2866 27.9223 53.8821C28.1207 53.7454 28.3195 53.6348 28.5 53.5556C28.8538 53.4002 29.1402 53.3647 29.2286 53.4887C29.3626 53.6759 28.9947 54.1555 28.4067 54.5601C27.8187 54.9646 27.2337 55.1405 27.1001 54.9534Z" fill="#8F53BF"/>
<path d="M28.4487 53.5781C28.4487 53.5781 27.7601 53.8515 27.4025 54.3143C27.2696 54.1178 27.1142 53.9124 26.9436 53.7006C26.9436 53.7006 27.8572 53.3072 28.2967 53.3472L28.4487 53.5781Z" fill="#624D9E"/>
<path d="M34.1653 48.5722C33.9395 48.5162 33.8979 47.9174 34.0728 47.2342C34.1318 47.0033 34.2083 46.7923 34.2921 46.6164C34.4563 46.272 34.6494 46.0616 34.799 46.0983C35.0249 46.1539 35.0667 46.7531 34.8919 47.4359C34.7168 48.1191 34.3915 48.6279 34.1653 48.5722Z" fill="#8F53BF"/>
<path d="M34.2686 46.6664C34.2686 46.6664 33.9784 47.3444 33.9681 47.895C33.7351 47.8449 33.4692 47.7889 33.1992 47.7377C33.1992 47.7377 33.6402 46.8349 33.9997 46.5831L34.2686 46.6664Z" fill="#624D9E"/>
<path d="M16.1241 46.7874C16.4806 47.533 16.3546 48.3283 15.8431 48.5632C15.3313 48.7986 14.6282 48.3843 14.2718 47.6387C13.9157 46.8931 14.0417 46.0979 14.5528 45.8629C15.0647 45.6276 15.7681 46.0418 16.1241 46.7874Z" fill="#624D9E"/>
<path d="M15.4115 46.183C15.7676 46.9286 15.6419 47.7239 15.1305 47.9588C14.6186 48.1938 13.9156 47.7799 13.5591 47.0343C13.2027 46.2884 13.3287 45.4935 13.8402 45.2581C14.352 45.0232 15.0555 45.4374 15.4115 46.183Z" fill="#DFB4EA"/>
<path d="M12.044 39.2004C12.549 38.5426 13.3244 38.2793 13.7753 38.6125C14.227 38.9457 14.1832 39.7492 13.6782 40.407C13.1728 41.0651 12.3978 41.3281 11.9469 40.9953C11.4952 40.6617 11.539 39.8582 12.044 39.2004Z" fill="#624D9E"/>
<path d="M11.298 38.6785C11.8034 38.0207 12.5784 37.7574 13.0297 38.0906C13.481 38.4238 13.4376 39.2273 12.9322 39.8855C12.4272 40.5433 11.6522 40.8066 11.2009 40.4734C10.7496 40.1398 10.793 39.3364 11.298 38.6785Z" fill="#DFB4EA"/>
<path d="M20.7866 49.5935C21.0208 50.0843 20.8048 50.6689 20.3048 50.8986C19.804 51.1284 19.2084 50.9173 18.9738 50.4261C18.7396 49.9353 18.9551 49.3507 19.4552 49.1209C19.956 48.8908 20.5516 49.1023 20.7866 49.5935Z" fill="#624D9E"/>
<path d="M20.5589 49.1172C20.7935 49.6084 20.578 50.1927 20.0772 50.4228C19.5771 50.6525 18.9807 50.4411 18.7465 49.9502C18.5123 49.4594 18.7275 48.8748 19.2283 48.6451C19.7287 48.415 20.3247 48.6264 20.5589 49.1172Z" fill="#DFB4EA"/>
<path d="M23.0293 38.9277C22.8244 39.5635 22.1332 39.9157 21.485 39.7148C20.8368 39.5138 20.4777 38.8358 20.6826 38.2001C20.8875 37.5643 21.5791 37.212 22.2273 37.413C22.8751 37.614 23.2342 38.2923 23.0293 38.9277Z" fill="#624D9E"/>
<path d="M23.2284 38.3114C23.0235 38.9472 22.3316 39.2994 21.6838 39.0985C21.0356 38.8975 20.6764 38.2195 20.8813 37.5838C21.0862 36.9484 21.7778 36.5957 22.4256 36.7967C23.0738 36.9977 23.4329 37.676 23.2284 38.3114Z" fill="#DFB4EA"/>
<path d="M25.8196 48.3496C25.9914 48.7097 25.8334 49.1381 25.4666 49.3069C25.0995 49.4754 24.6623 49.3204 24.4905 48.9603C24.3188 48.6002 24.4768 48.1718 24.844 48.0033C25.2107 47.8345 25.6475 47.9898 25.8196 48.3496Z" fill="#624D9E"/>
<path d="M25.6527 48.0007C25.8245 48.3604 25.6665 48.7893 25.2993 48.9577C24.9326 49.1266 24.4958 48.9716 24.324 48.6115C24.1515 48.2514 24.3095 47.8229 24.6767 47.6541C25.0438 47.4856 25.481 47.6406 25.6527 48.0007Z" fill="#DFB4EA"/>
<path d="M34.3668 38.4074C34.1612 38.5094 33.735 38.0884 33.4155 37.4672C33.3069 37.2573 33.2251 37.0511 33.1718 36.8666C33.067 36.5054 33.0723 36.2256 33.2087 36.1583C33.4143 36.0564 33.8401 36.4774 34.16 37.0986C34.4795 37.7198 34.5725 38.3055 34.3668 38.4074Z" fill="#8F53BF"/>
<path d="M33.187 36.9192C33.187 36.9192 33.4174 37.6095 33.7723 38.0271C33.5659 38.1373 33.3301 38.2643 33.0952 38.3973C33.0952 38.3973 32.829 37.4433 32.931 37.0275L33.187 36.9192Z" fill="#624D9E"/>
<path d="M28.6142 32.7613C28.4897 32.9511 27.9051 32.7998 27.3087 32.4229C27.1068 32.2955 26.9298 32.1585 26.7885 32.0258C26.512 31.7662 26.3718 31.5227 26.4545 31.3968C26.5794 31.207 27.164 31.3583 27.7604 31.7352C28.3567 32.1118 28.7391 32.5712 28.6142 32.7613Z" fill="#8F53BF"/>
<path d="M26.829 32.0636C26.829 32.0636 27.3404 32.5798 27.906 32.7281C27.7719 32.9205 27.6382 33.1368 27.5042 33.3684C27.5042 33.3684 26.797 32.6952 26.6702 32.2862L26.829 32.0636Z" fill="#624D9E"/>
<path d="M22.8073 28.4903C22.7936 28.7155 22.2087 28.8649 21.5007 28.8235C21.2611 28.8097 21.0384 28.7757 20.8487 28.7278C20.4778 28.6348 20.234 28.4895 20.2432 28.3405C20.2569 28.1149 20.8418 27.9654 21.5498 28.0069C22.2582 28.0484 22.8211 28.2647 22.8073 28.4903Z" fill="#8F53BF"/>
<path d="M20.9026 28.7413C20.9026 28.7413 21.6266 28.8933 22.1735 28.8021C22.167 29.033 22.1598 29.2967 22.159 29.5627C22.159 29.5627 21.1841 29.3087 20.8691 29.0128L20.9026 28.7413Z" fill="#624D9E"/>
<path d="M15.0447 30.3755C15.1495 30.5769 14.7218 30.996 14.09 31.3124C13.8759 31.4192 13.6665 31.5006 13.4783 31.5537C13.1101 31.6575 12.8252 31.653 12.7563 31.5201C12.6515 31.3187 13.0788 30.8992 13.711 30.5836C14.3432 30.2672 14.94 30.1746 15.0447 30.3755Z" fill="#8F53BF"/>
<path d="M13.532 31.5384C13.532 31.5384 14.2442 31.3643 14.6593 30.9597C14.7609 31.17 14.8843 31.3923 15.0211 31.6224C15.0211 31.6224 14.0724 31.8831 13.6478 31.7849L13.532 31.5384Z" fill="#624D9E"/>
<path d="M27.147 44.9332C27.1059 45.7557 26.6154 46.4004 26.0513 46.3732C25.4869 46.3463 25.0627 45.6575 25.1038 44.8349C25.145 44.0124 25.6355 43.3677 26.1995 43.3946C26.7639 43.4218 27.1878 44.1103 27.147 44.9332Z" fill="#624D9E"/>
<path d="M27.369 44.3856C27.3275 45.2081 26.837 45.8528 26.273 45.8259C25.7086 45.7987 25.2847 45.1102 25.3255 44.2877C25.3666 43.4652 25.8571 42.8201 26.4211 42.8473C26.9855 42.8742 27.4098 43.563 27.369 44.3856Z" fill="#DFB4EA"/>
<path d="M20.911 42.5508C21.2671 43.2963 20.9396 44.1843 20.1791 44.5335C19.4189 44.8832 18.5137 44.5619 18.1576 43.8159C17.8015 43.0703 18.129 42.1824 18.8892 41.8332C19.6497 41.4836 20.5546 41.8052 20.911 42.5508Z" fill="#624D9E"/>
<path d="M20.9001 41.9358C21.2565 42.6814 20.9286 43.5693 20.1681 43.919C19.4079 44.2682 18.5027 43.9466 18.147 43.201C17.7905 42.4554 18.1184 41.5675 18.8786 41.2182C19.6391 40.8686 20.544 41.1899 20.9001 41.9358Z" fill="#DFB4EA"/>
<path d="M28.0072 48.3003C28.1157 48.3735 28.0857 48.6455 27.8949 49.0691C27.7052 49.4926 27.3377 50.0559 26.7687 50.6659C26.485 50.9719 26.1445 51.2797 25.7576 51.5882C25.3642 51.887 24.927 52.1915 24.4327 52.4582C23.4509 53.0002 22.2615 53.4286 20.9579 53.621C19.652 53.8022 18.3873 53.7249 17.2882 53.4798C16.7367 53.3629 16.2291 53.1941 15.7648 53.0178C15.3044 52.8302 14.8881 52.6308 14.5275 52.4171C13.8043 51.9916 13.2879 51.555 12.9832 51.2023C12.6774 50.8497 12.5688 50.5976 12.6515 50.4971C12.8328 50.2771 13.695 50.7369 15.1052 51.1863C15.4564 51.3006 15.8463 51.4048 16.263 51.506C16.683 51.5957 17.1297 51.688 17.6046 51.7425C18.5522 51.8616 19.601 51.8728 20.6757 51.7253C21.7485 51.5654 22.7501 51.261 23.6234 50.8815C24.0625 50.6962 24.4639 50.4829 24.8402 50.2793C25.21 50.0657 25.5531 49.8565 25.8566 49.6484C27.0768 48.8225 27.7695 48.14 28.0072 48.3003Z" fill="#624D9E"/>
<path d="M45.5315 47.6462C45.407 47.6966 45.2828 47.7459 45.1598 47.8012C45.2828 47.7448 45.4081 47.6933 45.5315 47.6462ZM60.4443 58.6877C60.6065 57.3194 60.4991 55.9086 60.0939 54.5317C60.7909 53.5859 63.7724 52.0271 63.7724 52.0271L63.2145 50.9061C61.8938 51.5344 58.9153 51.8814 58.9153 51.8814C58.9838 51.9856 59.0596 52.128 59.1384 52.289C57.6798 49.7201 55.2676 47.9536 52.5473 47.2181C52.0438 46.1935 52.1737 42.8021 52.1737 42.8021L50.9051 42.7117C50.7966 44.1144 49.6594 46.7157 49.6065 46.8352C48.5546 46.8409 47.4928 47.0004 46.4524 47.319C45.5064 46.6899 44.6594 44.9597 44.6594 44.9597L43.5184 45.5114C44.1228 46.7228 44.3414 48.0362 44.3665 48.1979C43.5257 48.6596 42.7697 49.2173 42.1059 49.8512C40.8891 49.7093 38.0279 47.9746 38.0279 47.9746L37.3127 49.0246C38.4023 49.7429 39.953 51.6801 40.3 52.1227C39.6925 53.1485 39.2637 54.2672 39.0306 55.4304C37.9708 55.8365 36.292 55.708 36.292 55.708L36.2174 56.9687C37.3268 57.0352 38.3714 57.3467 38.8277 57.4995C38.8296 58.4416 38.9602 59.3922 39.2275 60.3279C38.2705 61.2879 35.7124 62.6263 35.7124 62.6263L36.2779 63.7608C37.3451 63.2531 39.4793 62.9259 40.2981 62.815C40.9181 63.8635 41.6988 64.7735 42.5956 65.5299C42.4125 66.6292 41.4653 67.9736 41.4653 67.9736L42.5385 68.671C43.1578 67.7603 43.9621 67.0293 44.3243 66.7215C45.6686 67.4678 47.1653 67.928 48.7096 68.0644C49.4149 69.1431 50.0631 72.1393 50.0631 72.1393L51.3313 71.9208C51.1359 70.8125 51.3834 68.8107 51.5068 67.9538C52.4418 67.7958 53.3714 67.5167 54.2725 67.1029C54.7272 66.8937 55.1583 66.6554 55.5688 66.395C56.5198 66.9912 57.4026 68.3143 57.4026 68.3143L58.4659 67.603C57.7434 66.5575 57.3405 65.379 57.2457 65.0831C58.352 64.0241 59.2001 62.756 59.7558 61.3754C61.1111 61.2562 63.9682 61.895 63.9682 61.895L64.2984 60.6742C63.0249 60.3388 60.907 58.9888 60.4443 58.6877Z" fill="#8F53BF"/>
<path d="M57.9059 46.7281L56.846 46.0385C56.031 47.2368 54.7815 48.1905 54.7815 48.1905C55.4925 48.5438 56.7592 49.3974 56.7592 49.3974C56.8121 48.2775 57.9059 46.7281 57.9059 46.7281Z" fill="#8F53BF"/>
<path d="M57.8209 58.105C57.2603 58.0748 56.8943 57.0561 56.1349 55.7995C56.05 55.6393 55.9323 55.4824 55.8329 55.3154C55.7278 55.1503 55.6052 54.986 55.4906 54.8149C55.2373 54.4828 54.9749 54.135 54.6611 53.8063C54.0476 53.1399 53.2916 52.5224 52.4298 52.0462C51.5588 51.5852 50.6227 51.2875 49.7205 51.1344C49.2692 51.0499 48.8294 51.0178 48.4078 50.9849C48.1991 50.9812 47.9923 50.967 47.7935 50.9678C47.5966 50.9745 47.3986 50.961 47.2146 50.976C45.7259 51.0171 44.6531 51.2573 44.3279 50.8083C44.2509 50.6996 44.2327 50.558 44.2757 50.3835C44.3206 50.2136 44.4166 49.9925 44.5933 49.7739C44.9342 49.3175 45.5656 48.7967 46.4792 48.3646C46.7054 48.2484 46.9541 48.1647 47.2146 48.0665C47.4755 47.9742 47.755 47.9021 48.0467 47.8278C48.6325 47.7038 49.2765 47.6093 49.9616 47.6119C50.6452 47.6164 51.3733 47.6731 52.1103 47.8569C52.8468 48.034 53.5955 48.3067 54.3161 48.6907C55.0309 49.0829 55.6657 49.5588 56.2115 50.075C56.7629 50.5875 57.2001 51.1609 57.5692 51.7257C57.9374 52.2927 58.1991 52.8769 58.4051 53.429C58.4969 53.7111 58.5837 53.9808 58.6435 54.2467C58.698 54.5153 58.7585 54.7663 58.7791 55.0158C58.8941 56.0038 58.7825 56.8058 58.5708 57.3325C58.4771 57.5955 58.3373 57.7935 58.2147 57.9216C58.0871 58.0501 57.9557 58.1102 57.8209 58.105Z" fill="#BE99E3"/>
<path d="M38.0639 47.2712C38.2597 47.3956 38.1013 47.9757 37.7105 48.5663C37.5784 48.7662 37.4363 48.9414 37.2988 49.0814C37.0296 49.3552 36.7779 49.4931 36.6484 49.4109C36.453 49.2861 36.6114 48.7064 37.0022 48.1158C37.3933 47.5249 37.8686 47.1465 38.0639 47.2712Z" fill="#8F53BF"/>
<path d="M37.3381 49.0418C37.3381 49.0418 37.8363 48.4923 38.0278 47.9746C38.2316 48.0956 38.4643 48.2331 38.7031 48.3668C38.7031 48.3668 37.9879 49.0814 37.5651 49.2062L37.3381 49.0418Z" fill="#624D9E"/>
<path d="M35.9602 55.0831C36.1929 55.0936 36.3559 55.6722 36.3239 56.3756C36.3132 56.6139 36.2812 56.8354 36.2351 57.0244C36.1445 57.3942 35.9979 57.6381 35.844 57.6314C35.6113 57.621 35.4483 57.0423 35.4803 56.339C35.5123 55.6352 35.7275 55.073 35.9602 55.0831Z" fill="#8F53BF"/>
<path d="M36.248 56.9706C36.248 56.9706 36.4476 56.2687 36.2918 55.708C36.5318 55.7249 36.7926 55.7297 37.0672 55.7263C37.0672 55.7263 36.8277 56.6763 36.5272 56.9934L36.248 56.9706Z" fill="#624D9E"/>
<path d="M35.1105 62.2417C35.3185 62.1386 35.7499 62.5644 36.074 63.1931C36.1837 63.4056 36.2671 63.6141 36.3208 63.8008C36.4267 64.1669 36.4218 64.4497 36.2839 64.518C36.076 64.6211 35.6445 64.1953 35.3204 63.5666C34.9967 62.9379 34.9026 62.3448 35.1105 62.2417Z" fill="#8F53BF"/>
<path d="M36.3054 63.7477C36.3054 63.7477 36.0723 63.0492 35.7124 62.6264C35.9215 62.5147 36.1599 62.3862 36.3979 62.2513C36.3979 62.2513 36.6676 63.2169 36.5647 63.6379L36.3054 63.7477Z" fill="#624D9E"/>
<path d="M40.7477 67.9404C40.8741 67.7484 41.4659 67.9012 42.0699 68.2826C42.2741 68.4114 42.4534 68.55 42.5966 68.6841C42.8769 68.9471 43.0182 69.1936 42.9344 69.321C42.8084 69.5134 42.2169 69.3602 41.6129 68.9788C41.0089 68.5978 40.6216 68.1328 40.7477 67.9404Z" fill="#8F53BF"/>
<path d="M42.5554 68.646C42.5554 68.646 42.0375 68.1238 41.4651 67.9736C41.6007 67.779 41.7362 67.5601 41.8714 67.3255C41.8714 67.3255 42.5878 68.0065 42.7161 68.4208L42.5554 68.646Z" fill="#624D9E"/>
<path d="M49.519 72.5995C49.476 72.3746 50.0126 72.0863 50.7183 71.9552C50.9571 71.9111 51.184 71.8905 51.3821 71.8909C51.7701 71.8924 52.0455 71.9761 52.0741 72.1247C52.1179 72.3496 51.5809 72.638 50.8752 72.7691C50.1695 72.9002 49.5628 72.824 49.519 72.5995Z" fill="#8F53BF"/>
<path d="M51.3258 71.8909C51.3258 71.8909 50.5771 71.9174 50.063 72.1393C50.0112 71.9111 49.9518 71.6507 49.8855 71.3893C49.8855 71.3893 50.9065 71.4027 51.2904 71.6167L51.3258 71.8909Z" fill="#624D9E"/>
<path d="M57.1001 68.9534C56.966 68.7663 57.3343 68.2866 57.9223 67.8821C58.1207 67.7454 58.3195 67.6348 58.5 67.5556C58.8538 67.4002 59.1402 67.3647 59.2286 67.4887C59.3626 67.6759 58.9947 68.1555 58.4067 68.5601C57.8187 68.9646 57.2337 69.1405 57.1001 68.9534Z" fill="#8F53BF"/>
<path d="M58.4487 67.5781C58.4487 67.5781 57.7601 67.8515 57.4025 68.3143C57.2696 68.1178 57.1142 67.9124 56.9436 67.7006C56.9436 67.7006 57.8572 67.3072 58.2967 67.3472L58.4487 67.5781Z" fill="#624D9E"/>
<path d="M64.1653 62.5722C63.9395 62.5162 63.8979 61.9174 64.0728 61.2342C64.1318 61.0033 64.2083 60.7923 64.2921 60.6164C64.4563 60.272 64.6494 60.0616 64.799 60.0983C65.0249 60.1539 65.0667 60.7531 64.8919 61.4359C64.7168 62.1191 64.3915 62.6279 64.1653 62.5722Z" fill="#8F53BF"/>
<path d="M64.2686 60.6664C64.2686 60.6664 63.9784 61.3444 63.9681 61.895C63.7351 61.8449 63.4692 61.7889 63.1992 61.7377C63.1992 61.7377 63.6402 60.8349 63.9997 60.5831L64.2686 60.6664Z" fill="#624D9E"/>
<path d="M46.1241 60.7874C46.4806 61.533 46.3546 62.3283 45.8431 62.5632C45.3313 62.7986 44.6282 62.3843 44.2718 61.6387C43.9157 60.8931 44.0417 60.0979 44.5528 59.8629C45.0647 59.6276 45.7681 60.0418 46.1241 60.7874Z" fill="#624D9E"/>
<path d="M45.4115 60.183C45.7676 60.9286 45.6419 61.7239 45.1305 61.9588C44.6186 62.1938 43.9156 61.7799 43.5591 61.0343C43.2027 60.2884 43.3287 59.4935 43.8402 59.2581C44.352 59.0232 45.0555 59.4374 45.4115 60.183Z" fill="#DFB4EA"/>
<path d="M42.044 53.2004C42.549 52.5426 43.3244 52.2793 43.7753 52.6125C44.227 52.9457 44.1832 53.7492 43.6782 54.407C43.1728 55.0651 42.3978 55.3281 41.9469 54.9953C41.4952 54.6617 41.539 53.8582 42.044 53.2004Z" fill="#624D9E"/>
<path d="M41.298 52.6785C41.8034 52.0207 42.5784 51.7574 43.0297 52.0906C43.481 52.4238 43.4376 53.2273 42.9322 53.8854C42.4272 54.5433 41.6522 54.8066 41.2009 54.4734C40.7496 54.1398 40.793 53.3363 41.298 52.6785Z" fill="#DFB4EA"/>
<path d="M50.7866 63.5935C51.0208 64.0843 50.8048 64.6689 50.3048 64.8986C49.804 65.1284 49.2084 64.9173 48.9738 64.4261C48.7396 63.9353 48.9551 63.3507 49.4552 63.1209C49.956 62.8908 50.5516 63.1023 50.7866 63.5935Z" fill="#624D9E"/>
<path d="M50.5589 63.1172C50.7935 63.6084 50.578 64.1927 50.0772 64.4228C49.5771 64.6525 48.9807 64.4411 48.7465 63.9502C48.5123 63.4594 48.7275 62.8748 49.2283 62.6451C49.7287 62.415 50.3247 62.6264 50.5589 63.1172Z" fill="#DFB4EA"/>
<path d="M53.0293 52.9277C52.8244 53.5635 52.1332 53.9157 51.485 53.7148C50.8368 53.5138 50.4777 52.8358 50.6826 52.2001C50.8875 51.5643 51.5791 51.2121 52.2273 51.413C52.8751 51.614 53.2342 52.2923 53.0293 52.9277Z" fill="#624D9E"/>
<path d="M53.2284 52.3114C53.0235 52.9472 52.3316 53.2994 51.6838 53.0985C51.0356 52.8975 50.6764 52.2195 50.8813 51.5838C51.0862 50.9484 51.7778 50.5957 52.4256 50.7967C53.0738 50.9977 53.4329 51.676 53.2284 52.3114Z" fill="#DFB4EA"/>
<path d="M55.8196 62.3496C55.9914 62.7097 55.8334 63.1381 55.4666 63.3069C55.0995 63.4754 54.6623 63.3204 54.4905 62.9603C54.3188 62.6002 54.4768 62.1718 54.844 62.0033C55.2107 61.8345 55.6475 61.9898 55.8196 62.3496Z" fill="#624D9E"/>
<path d="M55.6527 62.0007C55.8245 62.3604 55.6665 62.7893 55.2993 62.9577C54.9326 63.1266 54.4958 62.9716 54.324 62.6115C54.1515 62.2514 54.3095 61.8229 54.6767 61.6541C55.0438 61.4856 55.481 61.6406 55.6527 62.0007Z" fill="#DFB4EA"/>
<path d="M64.3668 52.4074C64.1612 52.5094 63.735 52.0884 63.4155 51.4672C63.3069 51.2573 63.2251 51.0511 63.1718 50.8666C63.067 50.5054 63.0723 50.2256 63.2087 50.1583C63.4143 50.0564 63.8401 50.4774 64.16 51.0986C64.4795 51.7197 64.5725 52.3055 64.3668 52.4074Z" fill="#8F53BF"/>
<path d="M63.187 50.9192C63.187 50.9192 63.4174 51.6095 63.7723 52.0271C63.5659 52.1373 63.3301 52.2643 63.0952 52.3973C63.0952 52.3973 62.829 51.4433 62.931 51.0275L63.187 50.9192Z" fill="#624D9E"/>
<path d="M58.6142 46.7613C58.4897 46.9511 57.9051 46.7998 57.3087 46.4229C57.1068 46.2955 56.9298 46.1585 56.7885 46.0258C56.512 45.7662 56.3718 45.5227 56.4545 45.3968C56.5794 45.207 57.164 45.3583 57.7604 45.7352C58.3567 46.1118 58.7391 46.5712 58.6142 46.7613Z" fill="#8F53BF"/>
<path d="M56.829 46.0636C56.829 46.0636 57.3404 46.5798 57.906 46.7281C57.7719 46.9205 57.6382 47.1368 57.5042 47.3684C57.5042 47.3684 56.797 46.6952 56.6702 46.2862L56.829 46.0636Z" fill="#624D9E"/>
<path d="M52.8073 42.4903C52.7936 42.7155 52.2087 42.8649 51.5007 42.8235C51.2611 42.8097 51.0384 42.7757 50.8487 42.7278C50.4778 42.6348 50.234 42.4895 50.2432 42.3405C50.2569 42.1149 50.8418 41.9654 51.5498 42.0069C52.2582 42.0484 52.8211 42.2647 52.8073 42.4903Z" fill="#8F53BF"/>
<path d="M50.9026 42.7413C50.9026 42.7413 51.6266 42.8933 52.1735 42.8021C52.167 43.033 52.1598 43.2967 52.159 43.5627C52.159 43.5627 51.1841 43.3087 50.8691 43.0128L50.9026 42.7413Z" fill="#624D9E"/>
<path d="M45.0447 44.3755C45.1495 44.5769 44.7218 44.996 44.09 45.3124C43.8759 45.4192 43.6665 45.5006 43.4783 45.5537C43.1101 45.6575 42.8252 45.653 42.7563 45.5201C42.6515 45.3187 43.0788 44.8992 43.711 44.5836C44.3432 44.2672 44.94 44.1746 45.0447 44.3755Z" fill="#8F53BF"/>
<path d="M43.532 45.5384C43.532 45.5384 44.2442 45.3643 44.6593 44.9597C44.7609 45.17 44.8843 45.3923 45.0211 45.6224C45.0211 45.6224 44.0724 45.8831 43.6478 45.7849L43.532 45.5384Z" fill="#624D9E"/>
<path d="M57.147 58.9332C57.1059 59.7557 56.6154 60.4004 56.0513 60.3732C55.4869 60.3463 55.0627 59.6575 55.1038 58.8349C55.145 58.0124 55.6355 57.3677 56.1995 57.3946C56.7639 57.4218 57.1878 58.1103 57.147 58.9332Z" fill="#624D9E"/>
<path d="M57.369 58.3856C57.3275 59.2081 56.837 59.8528 56.273 59.8259C55.7086 59.7987 55.2847 59.1102 55.3255 58.2877C55.3666 57.4652 55.8571 56.8201 56.4211 56.8473C56.9855 56.8742 57.4098 57.563 57.369 58.3856Z" fill="#DFB4EA"/>
<path d="M50.911 56.5508C51.2671 57.2963 50.9396 58.1843 50.1791 58.5335C49.4189 58.8832 48.5137 58.5619 48.1576 57.8159C47.8015 57.0703 48.129 56.1824 48.8892 55.8332C49.6497 55.4836 50.5546 55.8052 50.911 56.5508Z" fill="#624D9E"/>
<path d="M50.9001 55.9358C51.2565 56.6814 50.9286 57.5693 50.1681 57.919C49.4079 58.2682 48.5027 57.9466 48.147 57.201C47.7905 56.4554 48.1184 55.5675 48.8786 55.2182C49.6391 54.8686 50.544 55.1899 50.9001 55.9358Z" fill="#DFB4EA"/>
<path d="M58.0072 62.3003C58.1157 62.3735 58.0857 62.6455 57.8949 63.0691C57.7052 63.4926 57.3377 64.0559 56.7687 64.6659C56.485 64.9719 56.1445 65.2797 55.7576 65.5882C55.3642 65.887 54.927 66.1915 54.4327 66.4582C53.4509 67.0002 52.2615 67.4286 50.9579 67.621C49.652 67.8022 48.3873 67.7249 47.2882 67.4798C46.7367 67.3629 46.2291 67.1941 45.7648 67.0178C45.3044 66.8302 44.8881 66.6308 44.5275 66.4171C43.8043 65.9916 43.2879 65.555 42.9832 65.2023C42.6774 64.8497 42.5688 64.5976 42.6515 64.4971C42.8328 64.2771 43.695 64.7369 45.1052 65.1863C45.4564 65.3006 45.8463 65.4048 46.263 65.506C46.683 65.5957 47.1297 65.688 47.6046 65.7425C48.5522 65.8616 49.601 65.8728 50.6757 65.7253C51.7485 65.5654 52.7501 65.261 53.6234 64.8815C54.0625 64.6962 54.4639 64.4829 54.8402 64.2793C55.21 64.0657 55.5531 63.8565 55.8566 63.6484C57.0768 62.8225 57.7695 62.14 58.0072 62.3003Z" fill="#624D9E"/>
<path d="M106.532 22.6462C106.407 22.6966 106.283 22.746 106.16 22.8012C106.283 22.7448 106.408 22.6933 106.532 22.6462ZM121.444 33.6877C121.607 32.3194 121.499 30.9086 121.094 29.5317C121.791 28.5859 124.772 27.0271 124.772 27.0271L124.215 25.9061C122.894 26.5344 119.915 26.8814 119.915 26.8814C119.984 26.9856 120.06 27.128 120.138 27.289C118.68 24.7201 116.268 22.9536 113.547 22.2181C113.044 21.1935 113.174 17.8021 113.174 17.8021L111.905 17.7117C111.797 19.1144 110.659 21.7157 110.606 21.8353C109.555 21.8409 108.493 22.0004 107.452 22.319C106.506 21.6899 105.659 19.9597 105.659 19.9597L104.518 20.5114C105.123 21.7228 105.341 23.0362 105.367 23.1979C104.526 23.6596 103.77 24.2173 103.106 24.8512C101.889 24.7093 99.0279 22.9746 99.0279 22.9746L98.3127 24.0246C99.4023 24.7429 100.953 26.6801 101.3 27.1227C100.693 28.1485 100.264 29.2672 100.031 30.4304C98.9708 30.8365 97.292 30.708 97.292 30.708L97.2174 31.9687C98.3268 32.0352 99.3714 32.3467 99.8277 32.4995C99.8296 33.4416 99.9602 34.3922 100.228 35.3279C99.2705 36.2879 96.7124 37.6263 96.7124 37.6263L97.2779 38.7608C98.3451 38.2532 100.479 37.9259 101.298 37.815C101.918 38.8635 102.699 39.7735 103.596 40.5299C103.412 41.6292 102.465 42.9736 102.465 42.9736L103.539 43.671C104.158 42.7603 104.962 42.0293 105.324 41.7215C106.669 42.4678 108.165 42.928 109.71 43.0644C110.415 44.1432 111.063 47.1393 111.063 47.1393L112.331 46.9208C112.136 45.8125 112.383 43.8107 112.507 42.9538C113.442 42.7958 114.371 42.5168 115.272 42.1029C115.727 41.8937 116.158 41.6554 116.569 41.395C117.52 41.9912 118.403 43.3143 118.403 43.3143L119.466 42.603C118.743 41.5575 118.34 40.379 118.246 40.0831C119.352 39.0241 120.2 37.756 120.756 36.3754C122.111 36.2562 124.968 36.895 124.968 36.895L125.298 35.6742C124.025 35.3388 121.907 33.9888 121.444 33.6877Z" fill="#8F53BF"/>
<path d="M118.906 21.7281L117.846 21.0385C117.031 22.2368 115.781 23.1905 115.781 23.1905C116.493 23.5438 117.759 24.3974 117.759 24.3974C117.812 23.2775 118.906 21.7281 118.906 21.7281Z" fill="#8F53BF"/>
<path d="M118.821 33.105C118.26 33.0748 117.894 32.0561 117.135 30.7995C117.05 30.6393 116.932 30.4824 116.833 30.3154C116.728 30.1503 116.605 29.9859 116.491 29.8149C116.237 29.4828 115.975 29.135 115.661 28.8063C115.048 28.1399 114.292 27.5224 113.43 27.0462C112.559 26.5852 111.623 26.2875 110.721 26.1344C110.269 26.0499 109.829 26.0178 109.408 25.9849C109.199 25.9812 108.992 25.967 108.793 25.9678C108.597 25.9745 108.399 25.961 108.215 25.976C106.726 26.0171 105.653 26.2573 105.328 25.8083C105.251 25.6996 105.233 25.558 105.276 25.3835C105.321 25.2136 105.417 24.9924 105.593 24.7739C105.934 24.3175 106.566 23.7967 107.479 23.3646C107.705 23.2484 107.954 23.1647 108.215 23.0665C108.475 22.9742 108.755 22.9021 109.047 22.8278C109.632 22.7038 110.276 22.6092 110.962 22.6119C111.645 22.6163 112.373 22.6731 113.11 22.8569C113.847 23.034 114.596 23.3067 115.316 23.6907C116.031 24.0829 116.666 24.5588 117.211 25.075C117.763 25.5875 118.2 26.1609 118.569 26.7257C118.937 27.2927 119.199 27.8769 119.405 28.429C119.497 28.711 119.584 28.9808 119.644 29.2467C119.698 29.5153 119.759 29.7663 119.779 30.0158C119.894 31.0038 119.783 31.8058 119.571 32.3325C119.477 32.5955 119.337 32.7935 119.215 32.9216C119.087 33.0501 118.956 33.1102 118.821 33.105Z" fill="#BE99E3"/>
<path d="M99.0639 22.2712C99.2597 22.3956 99.1013 22.9757 98.7105 23.5663C98.5784 23.7662 98.4363 23.9414 98.2988 24.0814C98.0296 24.3552 97.7779 24.4931 97.6484 24.4109C97.453 24.2861 97.6114 23.7064 98.0022 23.1158C98.3933 22.5249 98.8686 22.1465 99.0639 22.2712Z" fill="#8F53BF"/>
<path d="M98.3381 24.0418C98.3381 24.0418 98.8363 23.4923 99.0278 22.9746C99.2316 23.0956 99.4643 23.2331 99.7031 23.3668C99.7031 23.3668 98.9879 24.0814 98.5651 24.2062L98.3381 24.0418Z" fill="#624D9E"/>
<path d="M96.9602 30.0831C97.1929 30.0936 97.3559 30.6722 97.3239 31.3756C97.3132 31.6139 97.2812 31.8354 97.2351 32.0244C97.1445 32.3942 96.9979 32.6381 96.844 32.6314C96.6113 32.621 96.4483 32.0423 96.4803 31.339C96.5123 30.6352 96.7275 30.073 96.9602 30.0831Z" fill="#8F53BF"/>
<path d="M97.248 31.9706C97.248 31.9706 97.4476 31.2687 97.2918 30.708C97.5318 30.7249 97.7926 30.7297 98.0672 30.7263C98.0672 30.7263 97.8277 31.6763 97.5272 31.9934L97.248 31.9706Z" fill="#624D9E"/>
<path d="M96.1105 37.2417C96.3185 37.1386 96.7499 37.5644 97.074 38.1931C97.1837 38.4056 97.2671 38.6141 97.3208 38.8008C97.4267 39.1669 97.4218 39.4497 97.2839 39.518C97.076 39.6211 96.6445 39.1953 96.3204 38.5666C95.9967 37.9379 95.9026 37.3448 96.1105 37.2417Z" fill="#8F53BF"/>
<path d="M97.3054 38.7477C97.3054 38.7477 97.0723 38.0492 96.7124 37.6264C96.9215 37.5147 97.1599 37.3862 97.3979 37.2513C97.3979 37.2513 97.6676 38.2169 97.5647 38.6379L97.3054 38.7477Z" fill="#624D9E"/>
<path d="M101.748 42.9404C101.874 42.7484 102.466 42.9012 103.07 43.2826C103.274 43.4114 103.453 43.55 103.597 43.6841C103.877 43.9471 104.018 44.1936 103.934 44.321C103.808 44.5134 103.217 44.3602 102.613 43.9788C102.009 43.5978 101.622 43.1328 101.748 42.9404Z" fill="#8F53BF"/>
<path d="M103.555 43.646C103.555 43.646 103.037 43.1238 102.465 42.9736C102.601 42.779 102.736 42.5601 102.871 42.3255C102.871 42.3255 103.588 43.0065 103.716 43.4208L103.555 43.646Z" fill="#624D9E"/>
<path d="M110.519 47.5995C110.476 47.3746 111.013 47.0863 111.718 46.9552C111.957 46.9111 112.184 46.8905 112.382 46.8909C112.77 46.8924 113.046 46.9761 113.074 47.1247C113.118 47.3496 112.581 47.638 111.875 47.7691C111.17 47.9002 110.563 47.824 110.519 47.5995Z" fill="#8F53BF"/>
<path d="M112.326 46.8909C112.326 46.8909 111.577 46.9174 111.063 47.1393C111.011 46.9111 110.952 46.6507 110.885 46.3893C110.885 46.3893 111.907 46.4027 112.29 46.6167L112.326 46.8909Z" fill="#624D9E"/>
<path d="M118.1 43.9534C117.966 43.7663 118.334 43.2866 118.922 42.8821C119.121 42.7454 119.32 42.6348 119.5 42.5556C119.854 42.4002 120.14 42.3647 120.229 42.4887C120.363 42.6759 119.995 43.1555 119.407 43.5601C118.819 43.9646 118.234 44.1405 118.1 43.9534Z" fill="#8F53BF"/>
<path d="M119.449 42.5781C119.449 42.5781 118.76 42.8515 118.403 43.3143C118.27 43.1178 118.114 42.9124 117.944 42.7006C117.944 42.7006 118.857 42.3072 119.297 42.3472L119.449 42.5781Z" fill="#624D9E"/>
<path d="M125.165 37.5722C124.939 37.5162 124.898 36.9174 125.073 36.2342C125.132 36.0033 125.208 35.7923 125.292 35.6164C125.456 35.272 125.649 35.0616 125.799 35.0983C126.025 35.1539 126.067 35.7531 125.892 36.4359C125.717 37.1191 125.392 37.6279 125.165 37.5722Z" fill="#8F53BF"/>
<path d="M125.269 35.6664C125.269 35.6664 124.978 36.3444 124.968 36.895C124.735 36.8449 124.469 36.7889 124.199 36.7377C124.199 36.7377 124.64 35.8349 125 35.5831L125.269 35.6664Z" fill="#624D9E"/>
<path d="M107.124 35.7874C107.481 36.533 107.355 37.3283 106.843 37.5632C106.331 37.7986 105.628 37.3843 105.272 36.6387C104.916 35.8931 105.042 35.0979 105.553 34.8629C106.065 34.6276 106.768 35.0418 107.124 35.7874Z" fill="#624D9E"/>
<path d="M106.412 35.183C106.768 35.9286 106.642 36.7239 106.13 36.9588C105.619 37.1938 104.916 36.7799 104.559 36.0343C104.203 35.2884 104.329 34.4935 104.84 34.2581C105.352 34.0232 106.055 34.4374 106.412 35.183Z" fill="#DFB4EA"/>
<path d="M103.044 28.2004C103.549 27.5426 104.324 27.2793 104.775 27.6125C105.227 27.9457 105.183 28.7492 104.678 29.407C104.173 30.0651 103.398 30.3281 102.947 29.9953C102.495 29.6617 102.539 28.8582 103.044 28.2004Z" fill="#624D9E"/>
<path d="M102.298 27.6785C102.803 27.0207 103.578 26.7574 104.03 27.0906C104.481 27.4238 104.438 28.2273 103.932 28.8855C103.427 29.5433 102.652 29.8066 102.201 29.4734C101.75 29.1398 101.793 28.3364 102.298 27.6785Z" fill="#DFB4EA"/>
<path d="M111.787 38.5935C112.021 39.0843 111.805 39.6689 111.305 39.8986C110.804 40.1284 110.208 39.9173 109.974 39.4261C109.74 38.9353 109.955 38.3507 110.455 38.1209C110.956 37.8908 111.552 38.1023 111.787 38.5935Z" fill="#624D9E"/>
<path d="M111.559 38.1172C111.794 38.6084 111.578 39.1927 111.077 39.4228C110.577 39.6525 109.981 39.4411 109.747 38.9502C109.512 38.4594 109.728 37.8748 110.228 37.6451C110.729 37.415 111.325 37.6264 111.559 38.1172Z" fill="#DFB4EA"/>
<path d="M114.029 27.9277C113.824 28.5635 113.133 28.9157 112.485 28.7148C111.837 28.5138 111.478 27.8358 111.683 27.2001C111.887 26.5643 112.579 26.212 113.227 26.413C113.875 26.614 114.234 27.2923 114.029 27.9277Z" fill="#624D9E"/>
<path d="M114.228 27.3114C114.024 27.9472 113.332 28.2994 112.684 28.0985C112.036 27.8975 111.676 27.2195 111.881 26.5838C112.086 25.9484 112.778 25.5957 113.426 25.7967C114.074 25.9977 114.433 26.676 114.228 27.3114Z" fill="#DFB4EA"/>
<path d="M116.82 37.3496C116.991 37.7097 116.833 38.1381 116.467 38.3069C116.099 38.4754 115.662 38.3204 115.491 37.9603C115.319 37.6002 115.477 37.1718 115.844 37.0033C116.211 36.8345 116.648 36.9898 116.82 37.3496Z" fill="#624D9E"/>
<path d="M116.653 37.0007C116.825 37.3604 116.666 37.7893 116.299 37.9577C115.933 38.1266 115.496 37.9716 115.324 37.6115C115.151 37.2514 115.31 36.8229 115.677 36.6541C116.044 36.4856 116.481 36.6406 116.653 37.0007Z" fill="#DFB4EA"/>
<path d="M125.367 27.4074C125.161 27.5094 124.735 27.0884 124.415 26.4672C124.307 26.2573 124.225 26.0511 124.172 25.8666C124.067 25.5054 124.072 25.2256 124.209 25.1583C124.414 25.0564 124.84 25.4774 125.16 26.0986C125.48 26.7198 125.572 27.3055 125.367 27.4074Z" fill="#8F53BF"/>
<path d="M124.187 25.9192C124.187 25.9192 124.417 26.6095 124.772 27.0271C124.566 27.1373 124.33 27.2643 124.095 27.3973C124.095 27.3973 123.829 26.4433 123.931 26.0275L124.187 25.9192Z" fill="#624D9E"/>
<path d="M119.614 21.7613C119.49 21.9511 118.905 21.7998 118.309 21.4229C118.107 21.2955 117.93 21.1585 117.788 21.0258C117.512 20.7662 117.372 20.5227 117.454 20.3968C117.579 20.207 118.164 20.3583 118.76 20.7352C119.357 21.1118 119.739 21.5712 119.614 21.7613Z" fill="#8F53BF"/>
<path d="M117.829 21.0636C117.829 21.0636 118.34 21.5798 118.906 21.7281C118.772 21.9205 118.638 22.1368 118.504 22.3684C118.504 22.3684 117.797 21.6952 117.67 21.2862L117.829 21.0636Z" fill="#624D9E"/>
<path d="M113.807 17.4903C113.794 17.7155 113.209 17.8649 112.501 17.8235C112.261 17.8097 112.038 17.7757 111.849 17.7278C111.478 17.6348 111.234 17.4895 111.243 17.3405C111.257 17.1149 111.842 16.9654 112.55 17.0069C113.258 17.0484 113.821 17.2647 113.807 17.4903Z" fill="#8F53BF"/>
<path d="M111.903 17.7413C111.903 17.7413 112.627 17.8933 113.174 17.8021C113.167 18.033 113.16 18.2967 113.159 18.5627C113.159 18.5627 112.184 18.3087 111.869 18.0128L111.903 17.7413Z" fill="#624D9E"/>
<path d="M106.045 19.3755C106.149 19.5769 105.722 19.996 105.09 20.3124C104.876 20.4192 104.666 20.5006 104.478 20.5537C104.11 20.6575 103.825 20.653 103.756 20.5201C103.652 20.3187 104.079 19.8992 104.711 19.5836C105.343 19.2672 105.94 19.1746 106.045 19.3755Z" fill="#8F53BF"/>
<path d="M104.532 20.5384C104.532 20.5384 105.244 20.3643 105.659 19.9597C105.761 20.17 105.884 20.3923 106.021 20.6224C106.021 20.6224 105.072 20.8831 104.648 20.7849L104.532 20.5384Z" fill="#624D9E"/>
<path d="M118.147 33.9332C118.106 34.7557 117.615 35.4004 117.051 35.3732C116.487 35.3463 116.063 34.6575 116.104 33.8349C116.145 33.0124 116.635 32.3677 117.199 32.3946C117.764 32.4218 118.188 33.1103 118.147 33.9332Z" fill="#624D9E"/>
<path d="M118.369 33.3856C118.328 34.2081 117.837 34.8528 117.273 34.8259C116.709 34.7987 116.285 34.1102 116.325 33.2877C116.367 32.4652 116.857 31.8201 117.421 31.8473C117.986 31.8742 118.41 32.563 118.369 33.3856Z" fill="#DFB4EA"/>
<path d="M111.911 31.5508C112.267 32.2963 111.94 33.1843 111.179 33.5335C110.419 33.8832 109.514 33.5619 109.158 32.8159C108.801 32.0703 109.129 31.1824 109.889 30.8332C110.65 30.4836 111.555 30.8052 111.911 31.5508Z" fill="#624D9E"/>
<path d="M111.9 30.9358C112.257 31.6814 111.929 32.5693 111.168 32.919C110.408 33.2682 109.503 32.9466 109.147 32.201C108.791 31.4554 109.118 30.5675 109.879 30.2182C110.639 29.8686 111.544 30.1899 111.9 30.9358Z" fill="#DFB4EA"/>
<path d="M119.007 37.3003C119.116 37.3735 119.086 37.6455 118.895 38.0691C118.705 38.4926 118.338 39.0559 117.769 39.6659C117.485 39.9719 117.145 40.2797 116.758 40.5882C116.364 40.887 115.927 41.1915 115.433 41.4582C114.451 42.0002 113.262 42.4286 111.958 42.621C110.652 42.8022 109.387 42.7249 108.288 42.4798C107.737 42.3629 107.229 42.1941 106.765 42.0178C106.304 41.8302 105.888 41.6308 105.527 41.4171C104.804 40.9916 104.288 40.555 103.983 40.2023C103.677 39.8497 103.569 39.5976 103.651 39.4971C103.833 39.2771 104.695 39.7369 106.105 40.1863C106.456 40.3006 106.846 40.4048 107.263 40.506C107.683 40.5957 108.13 40.688 108.605 40.7425C109.552 40.8616 110.601 40.8728 111.676 40.7253C112.749 40.5654 113.75 40.261 114.623 39.8815C115.062 39.6962 115.464 39.4829 115.84 39.2793C116.21 39.0657 116.553 38.8565 116.857 38.6484C118.077 37.8225 118.77 37.14 119.007 37.3003Z" fill="#624D9E"/>
<rect x="74.4346" y="9.53415" width="3.46041" height="20.3638" fill="white"/>
<mask id="mask0_4126_4598" style="mask-type:luminance" maskUnits="userSpaceOnUse" x="74" y="9" width="4" height="21">
<rect x="74.4346" y="9.53415" width="3.46041" height="20.3638" fill="white"/>
</mask>
<g mask="url(#mask0_4126_4598)">
<path d="M67.8262 13.984C75.6059 16.403 76.7117 13.069 79.8982 12.5521C83.0847 12.0352 75.0694 7.77603 75.0694 7.77603L70.7771 10.4897" fill="#CED4DA"/>
</g>
<path d="M94.2031 44.121H83.7473V22.7317C83.7502 21.1561 82.4731 19.8764 80.8946 19.8735H71.4353C69.8569 19.8764 68.5797 21.1561 68.5826 22.7317V44.121H58.1268C53.6385 44.121 50 47.7666 50 52.2636V121.947C50 126.444 53.6385 130.09 58.1268 130.09H94.2031C98.6914 130.09 102.33 126.444 102.33 121.947V52.2636C102.33 47.7666 98.6914 44.121 94.2031 44.121Z" fill="#C1D1FF"/>
<mask id="mask1_4126_4598" style="mask-type:luminance" maskUnits="userSpaceOnUse" x="50" y="19" width="53" height="112">
<path fill-rule="evenodd" clip-rule="evenodd" d="M94.2031 44.121H83.7473V22.7317C83.7502 21.1561 82.4731 19.8764 80.8946 19.8735H71.4353C69.8569 19.8764 68.5797 21.1561 68.5826 22.7317V44.121H58.1268C53.6385 44.121 50 47.7666 50 52.2636V121.947C50 126.444 53.6385 130.09 58.1268 130.09H94.2031C98.6914 130.09 102.33 126.444 102.33 121.947V52.2636C102.33 47.7666 98.6914 44.121 94.2031 44.121Z" fill="white"/>
</mask>
<g mask="url(#mask1_4126_4598)">
<path d="M114.727 74.9816C106.112 35.4032 68.4336 43.124 68.4336 43.124L121.002 37.2341L116.672 67.1597L115.538 73.4482" fill="#798FCF"/>
<path d="M46.0967 80.4926C60.8514 134.267 104.043 130.09 104.043 130.09L40.1948 140.18L44.2188 92.8732L45.2919 82.9281" fill="#798FCF"/>
</g>
<path d="M96.3395 3V3.06475C96.3395 5.66672 94.7984 7.77604 92.8974 7.77604H86.1966C84.478 7.77604 83.0847 9.68293 83.0847 12.0352C83.0847 12.3207 82.9157 12.5521 82.7071 12.5521H69.351C69.1425 12.5521 68.9734 12.3207 68.9734 12.0352V5.97494C68.9734 4.33193 69.9465 3 71.1469 3L96.3395 3Z" fill="#4F4F5B"/>
<path d="M52.5999 73.8842H99.7299V118.54C99.7299 121.042 98.7341 123.442 96.9616 125.211C95.1891 126.981 92.7851 127.975 90.2784 127.975H62.0513C56.8314 127.975 52.5998 123.751 52.5999 118.54V73.8842H52.5999Z" fill="#2B478B"/>
<rect x="74.4985" y="29.8979" width="3.3329" height="79.5357" fill="white"/>
<rect x="66.9778" y="23.4949" width="18.374" height="19.6291" rx="2.98823" fill="#2B478B"/>
<mask id="mask2_4126_4598" style="mask-type:luminance" maskUnits="userSpaceOnUse" x="66" y="23" width="20" height="21">
<rect x="66.9778" y="23.4949" width="18.374" height="19.6291" rx="2.98823" fill="white"/>
</mask>
<g mask="url(#mask2_4126_4598)">
<rect x="69.408" y="21.5531" width="1.09962" height="22.988" fill="#798FCF"/>
<rect x="71.9231" y="21.5531" width="1.09962" height="22.988" fill="#798FCF"/>
<rect x="75.0647" y="21.5531" width="1.09962" height="22.988" fill="#798FCF"/>
<rect x="82.1062" y="21.5531" width="1.09962" height="22.988" fill="#798FCF"/>
</g>
<rect x="61.4976" y="80.4926" width="29.3341" height="29.391" rx="4.35424" fill="#E3EEFF"/>
<path d="M85.5937 93.0551H78.2936V85.7409H74.0362V93.0551H66.7361V97.3209H74.0362V104.635H78.2936V97.3209H85.5937V93.0551Z" fill="#2B478B"/>
<path d="M72.3138 73.2262C73.4086 73.8223 74.0762 74.9807 74.0422 76.225C73.4599 95.6514 64.5462 115.191 46.9639 127.74C45.8036 128.57 44.2423 128.57 43.082 127.74C25.4756 115.174 16.5616 95.598 16.0012 76.1454C15.9681 74.9388 16.5954 73.8099 17.6383 73.199C25.0275 68.8661 33.6256 64.4918 42.8897 59.5331C44.222 58.8187 45.8252 58.8225 47.1539 59.5433C52.3084 62.3407 65.5244 69.5159 72.3138 73.2262Z" fill="#4F4F5B"/>
<path d="M72.3138 74.5144C73.4086 75.1105 74.0762 76.2689 74.0422 77.5132C73.4599 96.9396 64.5462 116.48 46.9639 129.028C45.8036 129.858 44.2423 129.858 43.082 129.028C25.4756 116.462 16.5616 96.8862 16.0012 77.4336C15.9681 76.227 16.5954 75.0981 17.6383 74.4872C25.0275 70.1543 33.6256 65.78 42.8897 60.8213C44.222 60.1069 45.8252 60.1107 47.1539 60.8315C52.3084 63.6289 65.5244 70.8041 72.3138 74.5144Z" fill="white"/>
<path d="M72.3138 74.5144C73.4086 75.1105 74.0762 76.2689 74.0422 77.5132C73.4599 96.9396 64.5462 116.48 46.9639 129.028C45.8036 129.858 44.2423 129.858 43.082 129.028C25.4756 116.462 16.5616 96.8862 16.0012 77.4336C15.9681 76.227 16.5954 75.0981 17.6383 74.4872C25.0275 70.1543 33.6256 65.78 42.8897 60.8213C44.222 60.1069 45.8252 60.1107 47.1539 60.8315C52.3084 63.6289 65.5244 70.8041 72.3138 74.5144Z" fill="#F8F9FA"/>
<mask id="mask3_4126_4598" style="mask-type:luminance" maskUnits="userSpaceOnUse" x="16" y="60" width="59" height="70">
<path fill-rule="evenodd" clip-rule="evenodd" d="M72.3138 74.5144C73.4086 75.1105 74.0762 76.2689 74.0422 77.5132C73.4599 96.9396 64.5462 116.48 46.9639 129.028C45.8036 129.858 44.2423 129.858 43.082 129.028C25.4756 116.462 16.5616 96.8862 16.0012 77.4336C15.9681 76.227 16.5954 75.0981 17.6383 74.4872C25.0275 70.1543 33.6256 65.78 42.8897 60.8213C44.222 60.1069 45.8252 60.1107 47.1539 60.8315C52.3084 63.6289 65.5244 70.8041 72.3138 74.5144Z" fill="white"/>
</mask>
<g mask="url(#mask3_4126_4598)">
<path d="M14.4274 67.0269C34.8021 97.5491 70.9403 129.651 70.9403 129.651C70.9403 129.651 52.2661 133.184 50.2879 134.571C48.3098 135.959 33.6716 135.166 33.0782 134.77C32.4848 134.373 12.7832 113.207 12.7832 113.207L14.4274 67.0269Z" fill="#0FB5AE"/>
</g>
<path d="M44 68C57.0557 74.7387 68.2651 83.1951 63.5176 98.9187C58.77 114.642 70.9026 82.9308 70.9026 82.9308L66.8144 78.7026" fill="#ABFEE6"/>
<path d="M65.3236 80.0427C66.1333 80.4697 66.6313 81.3172 66.6093 82.231C66.1761 96.4072 59.5455 110.666 46.4666 119.823C45.5998 120.429 44.4459 120.429 43.5791 119.823C30.4822 110.654 23.8514 96.3682 23.4346 82.1729C23.4129 81.2871 23.8808 80.4611 24.6523 80.0228C30.1489 76.8609 36.5447 73.6689 43.436 70.0503C44.4295 69.529 45.617 69.5318 46.608 70.0578C50.4423 72.0991 60.2732 77.3351 65.3236 80.0427Z" fill="white" stroke="#4F4F5B" stroke-width="0.8" stroke-linecap="round" stroke-linejoin="round"/>
<path d="M54.9175 88.8134H49.1122V82.9969C49.1135 82.2997 48.5484 81.7335 47.8499 81.7322H43.3069C42.6084 81.7335 42.0433 82.2997 42.0446 82.9969V88.8134H36.2393C35.5409 88.8148 34.9758 89.381 34.9771 90.0781V94.63C34.9758 95.3272 35.5409 95.8934 36.2393 95.8947H42.0446V101.711C42.0433 102.408 42.6084 102.975 43.3068 102.976H47.8499C48.5483 102.975 49.1135 102.408 49.1122 101.711V95.8947H54.9175C55.6159 95.8934 56.181 95.3272 56.1797 94.63V90.0781C56.181 89.3809 55.6159 88.8147 54.9175 88.8134Z" fill="#0FB5AE"/>
</svg>
