<svg width="122" height="127" viewBox="0 0 122 127" fill="none" xmlns="http://www.w3.org/2000/svg">
<path d="M86.5122 84.6749C81.1451 83.0876 75.6948 86.6332 71.4504 90.291C67.2059 93.9487 62.6436 98.1586 57.0502 98.1787C51.3938 98.1988 46.7713 93.9343 42.4752 90.2421C38.1764 86.5498 32.6231 82.9841 27.2244 84.6836C25.2167 85.3162 23.4783 86.6303 21.4907 87.3205C17.3866 88.7439 12.724 87.2658 9.28715 84.6002C8.43654 83.9417 7.64894 83.2199 6.9043 82.4492C8.44513 89.434 10.3382 96.1686 14.0443 102.596C17.083 107.864 20.9064 112.652 25.4029 116.651C37.2885 127.231 53.8224 132.122 69.2193 129.134C84.6162 126.147 98.478 115.179 104.882 100.356C105.14 99.7603 105.383 99.1621 105.618 98.5583C101.938 96.8818 98.5353 94.6043 95.6226 91.7863C92.8187 89.0774 90.244 85.7792 86.5122 84.6749Z" fill="#ABFEE6"/>
<path d="M120.622 51.2351C121.842 43.701 119.634 34.7752 113.056 31.3331C106.895 28.1096 98.9847 30.6401 92.9072 27.2527C86.7554 23.825 84.7992 15.8078 80.6608 9.97614C75.3795 2.53412 65.808 -1.33929 57.0585 0.420568C48.3118 2.1833 40.8339 9.49304 38.6257 18.4419C37.6205 22.5166 37.6377 26.7811 37.082 30.9478C36.5236 35.1145 35.2577 39.4164 32.2734 42.2632C27.1611 47.1402 19.0331 46.151 12.8067 49.3516C3.93404 53.9122 3.16363 64.5462 5.02237 73.4288C5.66104 76.477 6.25102 79.4848 6.90402 82.4496C7.64866 83.2173 8.43626 83.942 9.28687 84.6005C12.7237 87.2662 17.3834 88.7442 21.4904 87.3208C23.4809 86.6307 25.2165 85.3165 27.2241 84.6839C32.6228 82.9844 38.1761 86.5501 42.475 90.2424C46.7738 93.9347 51.3935 98.202 57.0499 98.179C62.6433 98.1589 67.2057 93.949 71.4501 90.2913C75.6946 86.6335 81.1448 83.0879 86.5119 84.6753C90.2437 85.7795 92.8185 89.0778 95.6195 91.7895C98.5322 94.6075 101.935 96.885 105.615 98.5615C108.854 90.2366 110.103 81.1728 113.084 72.7215C115.613 65.5469 119.402 58.7662 120.622 51.2351Z" fill="#DCFBF3"/>
<path d="M31.8211 24.2424C31.5175 27.6672 29.8421 30.9511 27.2501 33.1969C24.2859 35.7677 20.3765 36.8921 16.6018 37.9445C14.554 38.5168 12.5062 39.089 10.4585 39.6613C9.31287 39.9805 8.1415 40.3054 6.9558 40.2163C4.89371 40.0638 3.08653 38.6606 1.91801 36.9438C-0.533578 33.3436 -0.502073 28.4263 1.25929 24.4408C3.02065 20.4552 6.29421 17.3122 9.90859 14.8996C12.7153 13.0276 15.8428 11.5064 19.1937 11.1383C22.4357 10.7817 26.4568 11.6444 28.7165 14.1979C31.0163 16.7975 32.1218 20.8348 31.8211 24.2424Z" fill="#DCFBF3"/>
<path d="M28 17H92.3583V112.323H28V17Z" fill="#0275C9"/>
<path fill-rule="evenodd" clip-rule="evenodd" d="M91.3583 18H29V111.323H91.3583V18ZM28 17V112.323H92.3583V17H28Z" fill="#192E35"/>
<rect x="30.4102" y="20.6289" width="59.5375" height="88.0645" fill="#FEFFFF"/>
<rect x="41.0166" y="69.5" width="25.0684" height="1.20968" fill="#ADB5BD"/>
<rect x="67.29" y="69.5" width="12.0521" height="1.20968" fill="#ADB5BD"/>
<rect width="25.0684" height="1.20968" transform="matrix(-1 0 0 1 79.3418 73.1289)" fill="#ADB5BD"/>
<rect width="12.0521" height="1.20968" transform="matrix(-1 0 0 1 53.0684 73.1289)" fill="#ADB5BD"/>
<rect x="41.0166" y="76.7578" width="25.0684" height="1.20968" fill="#ADB5BD"/>
<rect x="67.29" y="76.7578" width="12.0521" height="1.20968" fill="#ADB5BD"/>
<rect x="41.0166" y="56.1934" width="25.0684" height="1.20968" fill="#ADB5BD"/>
<rect x="67.29" y="56.1934" width="12.0521" height="1.20968" fill="#ADB5BD"/>
<rect width="25.0684" height="1.20968" transform="matrix(-1 0 0 1 79.3418 59.8223)" fill="#ADB5BD"/>
<rect width="12.0521" height="1.20968" transform="matrix(-1 0 0 1 53.0684 59.8223)" fill="#ADB5BD"/>
<rect x="41.0166" y="63.4512" width="25.0684" height="1.20968" fill="#ADB5BD"/>
<rect x="67.29" y="63.4512" width="12.0521" height="1.20968" fill="#ADB5BD"/>
<rect x="41.0166" y="82.8066" width="25.0684" height="1.20968" fill="#ADB5BD"/>
<rect x="67.29" y="82.8066" width="12.0521" height="1.20968" fill="#ADB5BD"/>
<rect width="25.0684" height="1.20968" transform="matrix(-1 0 0 1 79.3418 86.4355)" fill="#ADB5BD"/>
<rect width="12.0521" height="1.20968" transform="matrix(-1 0 0 1 53.0684 86.4355)" fill="#ADB5BD"/>
<rect x="41.0166" y="90.0645" width="25.0684" height="1.20968" fill="#ADB5BD"/>
<rect x="67.29" y="90.0645" width="12.0521" height="1.20968" fill="#ADB5BD"/>
<rect x="41.0166" y="82.8066" width="25.0684" height="1.20968" fill="#ADB5BD"/>
<rect x="67.29" y="82.8066" width="12.0521" height="1.20968" fill="#ADB5BD"/>
<rect width="25.0684" height="1.20968" transform="matrix(-1 0 0 1 79.3418 86.4355)" fill="#ADB5BD"/>
<rect width="12.0521" height="1.20968" transform="matrix(-1 0 0 1 53.0684 86.4355)" fill="#ADB5BD"/>
<rect x="41.0166" y="90.0645" width="25.0684" height="1.20968" fill="#ADB5BD"/>
<rect x="67.29" y="90.0645" width="12.0521" height="1.20968" fill="#ADB5BD"/>
<path d="M60.179 27.8867L47.2832 30.2922C47.2832 30.2922 50.0794 48.9351 60.179 48.9351C70.2785 48.9351 73.0747 30.2922 73.0747 30.2922L60.179 27.8867Z" fill="#46E4AA"/>
<path d="M60.1789 30.0645L49.9346 31.9723C49.9346 31.9723 52.1559 46.758 60.1789 46.758C68.2019 46.758 70.4232 31.9723 70.4232 31.9723L60.1789 30.0645Z" fill="#D2F8E5"/>
<path fill-rule="evenodd" clip-rule="evenodd" d="M60.1795 29.8184L70.6969 31.7771L70.6621 32.0083L70.4238 31.9723C70.6621 32.0083 70.6621 32.0085 70.6621 32.0086L70.6617 32.0115L70.6604 32.0201C70.6592 32.0275 70.6575 32.0385 70.6552 32.0528C70.6507 32.0815 70.6438 32.1237 70.6346 32.1786C70.6161 32.2884 70.588 32.4488 70.5495 32.6527C70.4725 33.0603 70.3535 33.6418 70.1857 34.3393C69.8502 35.7334 69.3181 37.5952 68.5323 39.4594C67.7474 41.3214 66.7035 43.1998 65.3381 44.616C63.9695 46.0354 62.2675 46.9999 60.1795 46.9999C58.0915 46.9999 56.3895 46.0354 55.0209 44.616C53.6555 43.1998 52.6116 41.3214 51.8267 39.4594C51.0409 37.5952 50.5088 35.7334 50.1733 34.3393C50.0055 33.6418 49.8865 33.0603 49.8095 32.6527C49.771 32.4488 49.7429 32.2884 49.7244 32.1786C49.7152 32.1237 49.7083 32.0815 49.7038 32.0528C49.7015 32.0385 49.6998 32.0275 49.6986 32.0201L49.6973 32.0115L49.6969 32.0086C49.6969 32.0085 49.6969 32.0083 49.9352 31.9723L49.6969 32.0083L49.6621 31.7771L60.1795 29.8184ZM50.2115 32.1669C50.229 32.2684 50.2527 32.4015 50.2831 32.5625C50.3589 32.9634 50.4762 33.5371 50.6419 34.2257C50.9736 35.6039 51.4984 37.4386 52.2707 39.2708C53.044 41.1053 54.0598 42.9233 55.3673 44.2795C56.6717 45.6323 58.256 46.516 60.1795 46.516C62.103 46.516 63.6873 45.6323 64.9917 44.2795C66.2992 42.9233 67.315 41.1053 68.0883 39.2708C68.8606 37.4386 69.3854 35.6039 69.7171 34.2257C69.8828 33.5371 70.0001 32.9634 70.0759 32.5625C70.1063 32.4015 70.13 32.2684 70.1475 32.1669L60.1795 30.3105L50.2115 32.1669Z" fill="white"/>
<rect x="58.8525" y="33.6934" width="2.41042" height="9.67742" fill="#98DAC9"/>
<rect x="55.2373" y="37.3223" width="9.64169" height="2.41935" fill="#98DAC9"/>
</svg>
