<svg width="132" height="132" viewBox="0 0 132 132" fill="none" xmlns="http://www.w3.org/2000/svg">
<g filter="url(#filter0_d_5073_19679)">
<circle cx="66" cy="62" r="58" fill="white"/>
</g>
<mask id="mask0_5073_19679" style="mask-type:alpha" maskUnits="userSpaceOnUse" x="8" y="4" width="116" height="116">
<circle cx="66" cy="62" r="58" fill="#D9D9D9"/>
</mask>
<g mask="url(#mask0_5073_19679)">
<mask id="mask1_5073_19679" style="mask-type:alpha" maskUnits="userSpaceOnUse" x="6" y="3" width="119" height="119">
<circle cx="65.5" cy="62.5" r="59.5" fill="white"/>
</mask>
<g mask="url(#mask1_5073_19679)">
<rect x="-36.7178" y="84.3682" width="202.402" height="81.3675" fill="#E3E3E3"/>
<path d="M68.5712 99.3518C89.7609 102.116 88.9164 100.503 85.8454 99.3518L37.0938 84.3809L9.45508 87.4518L12.526 92.0583C18.54 91.1626 31.7196 89.448 36.326 89.7551C42.0841 90.1389 42.0841 95.897 68.5712 99.3518Z" fill="#A6A6A6"/>
<path d="M41.4626 89.6964C34.0448 86.0999 11.9599 90.0711 1.84473 92.5062V32.706C11.9599 35.1412 34.0448 39.1123 41.4626 35.5158C50.7349 31.0202 79.3946 23.7148 87.8239 25.6816C94.5674 27.2551 115.844 44.3728 115.922 62.4416C116 80.6127 94.5674 97.9572 87.8239 99.5306C79.3946 101.497 50.7349 94.1921 41.4626 89.6964Z" fill="#FFC596"/>
<mask id="mask2_5073_19679" style="mask-type:alpha" maskUnits="userSpaceOnUse" x="1" y="25" width="115" height="75">
<path d="M41.4626 89.6964C34.0448 86.0999 11.9599 90.0711 1.84473 92.5062V32.706C11.9599 35.1412 34.0448 39.1123 41.4626 35.5158C50.7349 31.0202 79.3946 23.7148 87.8239 25.6816C94.5674 27.2551 115.844 44.3728 115.922 62.4416C116 80.6127 94.5674 97.9572 87.8239 99.5306C79.3946 101.497 50.7349 94.1921 41.4626 89.6964Z" fill="#FFC596"/>
</mask>
<g mask="url(#mask2_5073_19679)">
<path d="M39.215 86.6058C33.5955 84.077 0.159058 89.4156 1.00199 89.4156L2.68791 103.183H84.1714L88.386 96.159C79.3948 98.1259 44.8346 89.1346 39.215 86.6058Z" fill="#ECB386"/>
</g>
<mask id="mask3_5073_19679" style="mask-type:alpha" maskUnits="userSpaceOnUse" x="1" y="25" width="115" height="75">
<path d="M41.4626 35.5165C34.0448 39.113 11.9599 35.1418 1.84473 32.7067V92.5068C11.9599 90.0717 34.0448 86.1006 41.4626 89.6971C50.7349 94.1927 79.3946 101.498 87.8239 99.5313C94.5674 97.9578 115.844 80.8401 115.922 62.7713C116 44.6002 94.5674 27.2557 87.8239 25.6822C79.3946 23.7154 50.7349 31.0208 41.4626 35.5165Z" fill="#FFC596"/>
</mask>
<g mask="url(#mask3_5073_19679)">
<path d="M39.9752 38.7159C34.2048 41.2686 -0.128789 35.8796 0.736763 35.8796L2.46792 21.9817H86.1379V29.0725C76.9054 27.0871 45.7455 36.1633 39.9752 38.7159Z" fill="#ECB386"/>
</g>
<path d="M71.5273 60.7559H124.619L129.409 62.4417H75.3196L71.5273 60.7559Z" fill="#ECB386"/>
<path d="M92.8818 61.7211L98.5014 70.3095L96.9688 55.1367L92.8818 61.7211Z" fill="#ECB386"/>
<circle cx="77.7086" cy="61.318" r="13.4869" fill="url(#paint0_radial_5073_19679)"/>
<path d="M77.9464 54.0128C70.7533 55.811 69.517 59.2577 68.9551 61.3182C69.517 63.3787 70.7533 66.8253 77.9464 68.6236C85.1394 70.4219 88.3425 64.4089 84.1279 61.3182C88.3425 58.2274 85.1394 52.2145 77.9464 54.0128Z" fill="#FFAA95"/>
<path d="M78.0445 55.9405C72.8308 57.2642 71.9347 59.8011 71.5273 61.3178C71.9347 62.8345 72.8308 65.3714 78.0445 66.6951C83.2583 68.0187 85.58 63.5928 82.5251 61.3178C85.58 59.0428 83.2583 54.6169 78.0445 55.9405Z" fill="#F64B4B"/>
<path d="M77.6874 57.0161C73.6586 58.075 72.9661 60.1046 72.6514 61.3179C72.9661 62.5312 73.6586 64.5608 77.6874 65.6197C81.7162 66.6786 83.5103 63.1379 81.1496 61.3179C83.5103 59.4979 81.7162 55.9572 77.6874 57.0161Z" fill="#C43737"/>
<path d="M-3.21289 62.4414H36.9921L40.6196 64.1273H-0.341104L-3.21289 62.4414Z" fill="#ECB386"/>
<path d="M75.803 64.2555C76.1551 63.3176 78.4417 64.2555 78.4417 64.2555C78.4417 64.2555 79.4702 65.556 80.1209 65.1847C80.7666 64.8162 80.1209 64.052 80.1209 63.3263C80.1209 62.0562 81.0158 61.0025 80.1209 60.074C79.1621 59.0792 76.5226 60.074 76.5226 60.074C76.5226 60.074 78.9101 60.5097 78.4417 61.2355C78.0445 61.851 76.5226 61.2355 76.5226 61.2355C76.5226 61.2355 73.6625 60.066 72.9243 61.2355C71.8083 63.0036 75.803 64.9704 75.803 64.9704C75.803 64.9704 75.6749 64.5965 75.803 64.2555Z" fill="#FEFFAC"/>
<path d="M83.609 25.4406C104.963 70.8466 93.7242 91.564 82.2041 99.8997C87.5427 99.8997 86.1378 99.6187 90.0715 99.0567C90.9144 99.0567 104.682 101.305 132.218 96.2469L128.846 42.8612C117.383 29.3743 102.622 30.4982 96.8149 30.2172C92.7689 27.0702 86.6997 24.8786 83.609 25.4406Z" fill="#ECB386"/>
<path d="M84.4527 25.3527C105.807 70.7587 94.5679 91.4762 83.0479 99.8118C88.3864 99.8118 89.5895 102.985 93.5231 102.423C98.4343 104.341 105.526 101.217 133.062 96.1591L129.69 42.7734C118.226 29.2864 103.854 28.2 98.0476 27.919C94.0015 24.772 87.5435 24.7908 84.4527 25.3527Z" fill="#9685FF"/>
<path d="M103.054 59.6318C125.508 42.6667 112.053 31.8496 98.0469 28.4274C120.423 32.4957 117.326 44.4134 117.326 45.302C117.326 46.2265 116.203 51.2025 113.488 55.1681L110.386 59.6318H103.054Z" fill="#6A5CC2"/>
<path d="M103.088 59.6318C123.836 82.4051 106.222 97.4441 92.3711 102.039C115.796 96.3454 117.48 80.0026 117.202 78.8709C117.006 78.0706 116.091 70.9489 113.406 65.6248L110.338 59.6318H103.088Z" fill="#6A5CC2"/>
<circle cx="77.3998" cy="61.349" r="15.3548" stroke="#E44C5E" stroke-dasharray="2 2"/>
</g>
</g>
<defs>
<filter id="filter0_d_5073_19679" x="0" y="0" width="132" height="132" filterUnits="userSpaceOnUse" color-interpolation-filters="sRGB">
<feFlood flood-opacity="0" result="BackgroundImageFix"/>
<feColorMatrix in="SourceAlpha" type="matrix" values="0 0 0 0 0 0 0 0 0 0 0 0 0 0 0 0 0 0 127 0" result="hardAlpha"/>
<feOffset dy="4"/>
<feGaussianBlur stdDeviation="4"/>
<feComposite in2="hardAlpha" operator="out"/>
<feColorMatrix type="matrix" values="0 0 0 0 0 0 0 0 0 0 0 0 0 0 0 0 0 0 0.1 0"/>
<feBlend mode="normal" in2="BackgroundImageFix" result="effect1_dropShadow_5073_19679"/>
<feBlend mode="normal" in="SourceGraphic" in2="effect1_dropShadow_5073_19679" result="shape"/>
</filter>
<radialGradient id="paint0_radial_5073_19679" cx="0" cy="0" r="1" gradientUnits="userSpaceOnUse" gradientTransform="translate(77.7086 61.318) rotate(90) scale(13.4869)">
<stop stop-color="#F64B4B" stop-opacity="0.5"/>
<stop offset="1" stop-color="#F64B4B" stop-opacity="0"/>
</radialGradient>
</defs>
</svg>
