<svg width="140" height="54" viewBox="0 0 140 54" fill="none" xmlns="http://www.w3.org/2000/svg">
<path d="M4.79199 14H1.64995V3.81818H4.9312C5.91889 3.81818 6.76406 4.02202 7.46671 4.42969C8.16936 4.83404 8.70795 5.41572 9.08248 6.17472C9.457 6.9304 9.64427 7.83523 9.64427 8.8892C9.64427 9.94981 9.45534 10.8629 9.0775 11.6286C8.69966 12.3909 8.14947 12.9775 7.42694 13.3885C6.7044 13.7962 5.82608 14 4.79199 14ZM2.8829 12.9062H4.71245C5.5543 12.9062 6.25198 12.7438 6.80549 12.419C7.35899 12.0942 7.77163 11.6319 8.04341 11.032C8.31519 10.4321 8.45108 9.7178 8.45108 8.8892C8.45108 8.06723 8.31685 7.35961 8.04838 6.76633C7.77992 6.16974 7.37888 5.71236 6.84526 5.39418C6.31164 5.07268 5.64711 4.91193 4.85165 4.91193H2.8829V12.9062ZM11.7124 14V3.81818H17.8573V4.91193H12.9454V8.35227H17.5392V9.44602H12.9454V12.9062H17.9369V14H11.7124ZM25.6478 6.36364C25.5882 5.85985 25.3462 5.46875 24.922 5.19034C24.4977 4.91193 23.9774 4.77273 23.3609 4.77273C22.9101 4.77273 22.5157 4.84564 22.1776 4.99148C21.8429 5.13731 21.5811 5.33783 21.3921 5.59304C21.2065 5.84825 21.1137 6.13826 21.1137 6.46307C21.1137 6.73485 21.1784 6.96851 21.3076 7.16406C21.4402 7.3563 21.6092 7.51705 21.8147 7.64631C22.0202 7.77225 22.2356 7.87666 22.461 7.95952C22.6864 8.03906 22.8936 8.10369 23.0825 8.15341L24.1166 8.43182C24.3817 8.50142 24.6767 8.59754 25.0015 8.72017C25.3296 8.8428 25.6428 9.01018 25.9411 9.2223C26.2427 9.43111 26.4913 9.69957 26.6869 10.0277C26.8824 10.3558 26.9802 10.7585 26.9802 11.2358C26.9802 11.786 26.836 12.2831 26.5477 12.7273C26.2626 13.1714 25.845 13.5244 25.2948 13.7862C24.748 14.0481 24.0834 14.179 23.3012 14.179C22.5721 14.179 21.9407 14.0613 21.407 13.826C20.8767 13.5907 20.4591 13.2625 20.1542 12.8416C19.8526 12.4207 19.6819 11.9318 19.6421 11.375H20.9149C20.948 11.7595 21.0773 12.0777 21.3026 12.3295C21.5313 12.5781 21.8197 12.7637 22.1677 12.8864C22.519 13.0057 22.8969 13.0653 23.3012 13.0653C23.7719 13.0653 24.1945 12.9891 24.569 12.8366C24.9435 12.6809 25.2401 12.4654 25.4589 12.1903C25.6776 11.9119 25.787 11.5871 25.787 11.2159C25.787 10.8778 25.6926 10.6027 25.5036 10.3906C25.3147 10.1785 25.0661 10.0062 24.7579 9.87358C24.4497 9.741 24.1166 9.625 23.7586 9.52557L22.5058 9.16761C21.7103 8.93892 21.0806 8.61245 20.6166 8.18821C20.1526 7.76397 19.9205 7.20881 19.9205 6.52273C19.9205 5.95265 20.0747 5.45549 20.3829 5.03125C20.6945 4.60369 21.1121 4.27225 21.6357 4.03693C22.1627 3.7983 22.751 3.67898 23.4007 3.67898C24.0569 3.67898 24.6402 3.79664 25.1507 4.03196C25.6611 4.26397 26.0654 4.58215 26.3637 4.98651C26.6653 5.39086 26.8244 5.8499 26.841 6.36364H25.6478ZM29.0074 14V3.81818H35.1523V4.91193H30.2403V8.35227H34.8341V9.44602H30.2403V12.9062H35.2318V14H29.0074ZM45.4484 3.81818V14H44.2552L38.7069 6.00568H38.6075V14H37.3746V3.81818H38.5677L44.1359 11.8324H44.2354V3.81818H45.4484ZM48.3332 3.81818L51.3559 12.3892H51.4752L54.498 3.81818H55.7906L52.0519 14H50.7792L47.0406 3.81818H48.3332ZM65.4889 8.90909C65.4889 9.98295 65.295 10.911 64.9072 11.6932C64.5194 12.4754 63.9875 13.0786 63.3113 13.5028C62.6352 13.9271 61.863 14.1392 60.9946 14.1392C60.1262 14.1392 59.354 13.9271 58.6778 13.5028C58.0017 13.0786 57.4697 12.4754 57.0819 11.6932C56.6942 10.911 56.5003 9.98295 56.5003 8.90909C56.5003 7.83523 56.6942 6.9072 57.0819 6.125C57.4697 5.3428 58.0017 4.73958 58.6778 4.31534C59.354 3.8911 60.1262 3.67898 60.9946 3.67898C61.863 3.67898 62.6352 3.8911 63.3113 4.31534C63.9875 4.73958 64.5194 5.3428 64.9072 6.125C65.295 6.9072 65.4889 7.83523 65.4889 8.90909ZM64.2957 8.90909C64.2957 8.02746 64.1482 7.28338 63.8532 6.67685C63.5616 6.07031 63.1655 5.61127 62.665 5.29972C62.1679 4.98816 61.6111 4.83239 60.9946 4.83239C60.3781 4.83239 59.8196 4.98816 59.3192 5.29972C58.822 5.61127 58.4259 6.07031 58.1309 6.67685C57.8393 7.28338 57.6934 8.02746 57.6934 8.90909C57.6934 9.79072 57.8393 10.5348 58.1309 11.1413C58.4259 11.7479 58.822 12.2069 59.3192 12.5185C59.8196 12.83 60.3781 12.9858 60.9946 12.9858C61.6111 12.9858 62.1679 12.83 62.665 12.5185C63.1655 12.2069 63.5616 11.7479 63.8532 11.1413C64.1482 10.5348 64.2957 9.79072 64.2957 8.90909ZM67.5621 14V3.81818H68.795V12.9062H73.528V14H67.5621ZM74.8976 3.81818L77.9204 12.3892H78.0397L81.0624 3.81818H82.355L78.6164 14H77.3437L73.605 3.81818H74.8976ZM85.1739 3.81818V14H83.941V3.81818H85.1739ZM90.7881 14H87.646V3.81818H90.9273C91.915 3.81818 92.7602 4.02202 93.4628 4.42969C94.1655 4.83404 94.704 5.41572 95.0786 6.17472C95.4531 6.9304 95.6404 7.83523 95.6404 8.8892C95.6404 9.94981 95.4514 10.8629 95.0736 11.6286C94.6958 12.3909 94.1456 12.9775 93.423 13.3885C92.7005 13.7962 91.8222 14 90.7881 14ZM88.879 12.9062H90.7085C91.5504 12.9062 92.2481 12.7438 92.8016 12.419C93.3551 12.0942 93.7677 11.6319 94.0395 11.032C94.3113 10.4321 94.4472 9.7178 94.4472 8.8892C94.4472 8.06723 94.3129 7.35961 94.0445 6.76633C93.776 6.16974 93.375 5.71236 92.8414 5.39418C92.3077 5.07268 91.6432 4.91193 90.8477 4.91193H88.879V12.9062ZM106.299 8.90909C106.299 9.98295 106.106 10.911 105.718 11.6932C105.33 12.4754 104.798 13.0786 104.122 13.5028C103.446 13.9271 102.674 14.1392 101.805 14.1392C100.937 14.1392 100.165 13.9271 99.4884 13.5028C98.8122 13.0786 98.2803 12.4754 97.8925 11.6932C97.5047 10.911 97.3108 9.98295 97.3108 8.90909C97.3108 7.83523 97.5047 6.9072 97.8925 6.125C98.2803 5.3428 98.8122 4.73958 99.4884 4.31534C100.165 3.8911 100.937 3.67898 101.805 3.67898C102.674 3.67898 103.446 3.8911 104.122 4.31534C104.798 4.73958 105.33 5.3428 105.718 6.125C106.106 6.9072 106.299 7.83523 106.299 8.90909ZM105.106 8.90909C105.106 8.02746 104.959 7.28338 104.664 6.67685C104.372 6.07031 103.976 5.61127 103.476 5.29972C102.978 4.98816 102.422 4.83239 101.805 4.83239C101.189 4.83239 100.63 4.98816 100.13 5.29972C99.6325 5.61127 99.2365 6.07031 98.9415 6.67685C98.6498 7.28338 98.504 8.02746 98.504 8.90909C98.504 9.79072 98.6498 10.5348 98.9415 11.1413C99.2365 11.7479 99.6325 12.2069 100.13 12.5185C100.63 12.83 101.189 12.9858 101.805 12.9858C102.422 12.9858 102.978 12.83 103.476 12.5185C103.976 12.2069 104.372 11.7479 104.664 11.1413C104.959 10.5348 105.106 9.79072 105.106 8.90909ZM112.31 14V3.81818H115.75C116.549 3.81818 117.202 3.96236 117.709 4.25071C118.22 4.53575 118.598 4.92188 118.843 5.40909C119.088 5.89631 119.211 6.43987 119.211 7.03977C119.211 7.63968 119.088 8.1849 118.843 8.67543C118.601 9.16596 118.226 9.55705 117.719 9.84872C117.212 10.1371 116.562 10.2812 115.77 10.2812H113.304V9.1875H115.731C116.277 9.1875 116.717 9.09304 117.048 8.90412C117.379 8.7152 117.62 8.45999 117.769 8.13849C117.921 7.81368 117.998 7.44744 117.998 7.03977C117.998 6.6321 117.921 6.26752 117.769 5.94602C117.62 5.62453 117.378 5.37263 117.043 5.19034C116.708 5.00473 116.264 4.91193 115.711 4.91193H113.543V14H112.31ZM129.788 8.90909C129.788 9.98295 129.594 10.911 129.206 11.6932C128.818 12.4754 128.286 13.0786 127.61 13.5028C126.934 13.9271 126.162 14.1392 125.293 14.1392C124.425 14.1392 123.653 13.9271 122.977 13.5028C122.301 13.0786 121.769 12.4754 121.381 11.6932C120.993 10.911 120.799 9.98295 120.799 8.90909C120.799 7.83523 120.993 6.9072 121.381 6.125C121.769 5.3428 122.301 4.73958 122.977 4.31534C123.653 3.8911 124.425 3.67898 125.293 3.67898C126.162 3.67898 126.934 3.8911 127.61 4.31534C128.286 4.73958 128.818 5.3428 129.206 6.125C129.594 6.9072 129.788 7.83523 129.788 8.90909ZM128.595 8.90909C128.595 8.02746 128.447 7.28338 128.152 6.67685C127.86 6.07031 127.464 5.61127 126.964 5.29972C126.467 4.98816 125.91 4.83239 125.293 4.83239C124.677 4.83239 124.118 4.98816 123.618 5.29972C123.121 5.61127 122.725 6.07031 122.43 6.67685C122.138 7.28338 121.992 8.02746 121.992 8.90909C121.992 9.79072 122.138 10.5348 122.43 11.1413C122.725 11.7479 123.121 12.2069 123.618 12.5185C124.118 12.83 124.677 12.9858 125.293 12.9858C125.91 12.9858 126.467 12.83 126.964 12.5185C127.464 12.2069 127.86 11.7479 128.152 11.1413C128.447 10.5348 128.595 9.79072 128.595 8.90909ZM131.861 14V3.81818H135.301C136.097 3.81818 136.75 3.95407 137.26 4.22585C137.77 4.49432 138.148 4.86387 138.394 5.33452C138.639 5.80516 138.761 6.34044 138.761 6.94034C138.761 7.54025 138.639 8.07221 138.394 8.53622C138.148 9.00024 137.772 9.36482 137.265 9.62997C136.758 9.89181 136.11 10.0227 135.321 10.0227H132.537V8.90909H135.281C135.825 8.90909 136.262 8.82955 136.594 8.67045C136.929 8.51136 137.171 8.28598 137.32 7.99432C137.472 7.69934 137.548 7.34801 137.548 6.94034C137.548 6.53267 137.472 6.17637 137.32 5.87145C137.167 5.56652 136.924 5.3312 136.589 5.16548C136.254 4.99645 135.812 4.91193 135.261 4.91193H133.094V14H131.861ZM136.653 9.42614L139.159 14H137.727L135.261 9.42614H136.653Z" fill="#525657"/>
<path d="M28.9946 43.1062C29.5148 42.6503 30.1368 42.2893 30.8234 42.0447C31.5326 41.7888 32.2947 41.6587 33.064 41.6624C33.6277 41.6656 34.1818 41.7873 34.678 42.0167C35.0051 42.1638 35.3162 42.3355 35.6077 42.5299C35.7796 42.6427 35.9934 42.6978 36.2092 42.685C36.425 42.6722 36.6279 42.5924 36.7801 42.4605L37.5044 41.8388C37.593 41.7633 37.6622 41.6726 37.7076 41.5727C37.7529 41.4728 37.7733 41.3659 37.7676 41.2588C37.7618 41.1517 37.7299 41.0469 37.674 40.951C37.6181 40.8551 37.5394 40.7704 37.443 40.7023C36.928 40.3411 36.3665 40.0318 35.7695 39.7804C34.9301 39.4211 34.0057 39.2324 33.0677 39.2289C31.9234 39.2218 30.7898 39.4194 29.7393 39.8092C27.6856 40.5678 26.0511 41.9763 25.1753 43.7423C24.7296 44.6518 24.5 45.6287 24.5 46.6154C24.5 47.6022 24.7296 48.5791 25.1753 49.4886C25.6077 50.3625 26.2346 51.1554 27.0208 51.8231C27.8057 52.4869 28.7275 53.0195 29.7393 53.3938C30.7898 53.7835 31.9234 53.9811 33.0677 53.974C34.004 53.9711 34.9274 53.7872 35.7695 53.4361C36.3669 53.1914 36.9287 52.8871 37.443 52.5294C37.5396 52.4613 37.6186 52.3765 37.6746 52.2805C37.7307 52.1845 37.7627 52.0795 37.7686 51.9722C37.7745 51.865 37.7541 51.7579 37.7087 51.6578C37.6634 51.5577 37.5941 51.467 37.5053 51.3913L36.7922 50.7792C36.6365 50.646 36.4293 50.5666 36.2099 50.556C35.9905 50.5454 35.7742 50.6044 35.6022 50.7217C35.3158 50.9173 35.0067 51.0872 34.6799 51.2285C34.1806 51.4493 33.6276 51.5658 33.0659 51.5685C32.2947 51.5713 31.5315 51.4353 30.8253 51.1694C29.4447 50.6646 28.3453 49.7208 27.7572 48.5357C27.4525 47.9279 27.2954 47.2731 27.2954 46.6114C27.2954 45.9498 27.4525 45.295 27.7572 44.6872C28.0534 44.0996 28.4728 43.5637 28.9946 43.1062Z" fill="#525657"/>
<path d="M54.168 41.3798C53.3786 40.7146 52.4512 40.1819 51.4337 39.8092C50.3764 39.4202 49.237 39.2226 48.0867 39.2289C46.9426 39.2218 45.8094 39.4194 44.7592 39.8092C43.7476 40.1838 42.8258 40.7164 42.0407 41.3798C41.2383 42.0662 40.6024 42.8823 40.1697 43.781C39.7371 44.6796 39.5163 45.643 39.5202 46.6154C39.5124 47.6028 39.7422 48.581 40.1952 49.4886C40.6276 50.3624 41.2544 51.1554 42.0407 51.8231C42.8254 52.487 43.7473 53.0197 44.7592 53.3938C45.8094 53.7835 46.9426 53.9811 48.0867 53.974C49.237 53.9803 50.3764 53.7828 51.4337 53.3938C52.4516 53.0216 53.3791 52.4889 54.168 51.8231C54.954 51.1552 55.5808 50.3623 56.0135 49.4886C56.4665 48.581 56.6963 47.6028 56.6885 46.6154C56.6924 45.643 56.4716 44.6796 56.039 43.781C55.6064 42.8823 54.9704 42.0662 54.168 41.3798ZM53.4103 48.5397C53.1251 49.1287 52.7049 49.6626 52.1747 50.1095C51.6403 50.5572 51.0148 50.917 50.3292 51.171C49.6214 51.4323 48.859 51.5671 48.0886 51.5671C47.3181 51.5671 46.5557 51.4323 45.8479 51.171C45.1626 50.917 44.5374 50.5572 44.0033 50.1095C43.4731 49.6626 43.0529 49.1287 42.7677 48.5397C42.4029 47.7877 42.26 46.9701 42.3517 46.1594C42.4433 45.3486 42.7667 44.5698 43.2931 43.8921C43.8195 43.2144 44.5327 42.6588 45.3693 42.2744C46.2059 41.8901 47.1401 41.689 48.089 41.689C49.0379 41.689 49.9721 41.8901 50.8087 42.2744C51.6453 42.6588 52.3585 43.2144 52.8849 43.8921C53.4113 44.5698 53.7347 45.3486 53.8264 46.1594C53.918 46.9701 53.7751 47.7877 53.4103 48.5397Z" fill="#525657"/>
<path d="M67.8997 39.2321C67.0077 39.3024 66.1326 39.4845 65.302 39.7724C64.2275 40.1407 63.2394 40.6728 62.3855 41.3431C61.5498 42.0043 60.8776 42.8031 60.4089 43.6919C59.9254 44.5974 59.6779 45.5826 59.6837 46.5786V52.8837C59.6839 53.0877 59.7784 53.2832 59.9465 53.4275C60.1145 53.5717 60.3423 53.6529 60.5799 53.6531H61.6222C61.8597 53.6529 62.0874 53.5717 62.2553 53.4274C62.4232 53.2832 62.5175 53.0876 62.5175 52.8837V46.5786C62.5138 45.9134 62.6827 45.2558 63.0121 44.6536C63.3394 44.052 63.8045 43.5132 64.3797 43.0694C64.9724 42.6106 65.6594 42.2507 66.4056 42.0079C66.9473 41.8293 67.514 41.7128 68.0912 41.6615C68.3085 41.6395 68.5088 41.5495 68.6537 41.4088C68.7987 41.268 68.8781 41.0864 68.8768 40.8985V40.0014C68.8776 39.8942 68.8522 39.788 68.8023 39.6897C68.7524 39.5914 68.6791 39.5032 68.587 39.4307C68.495 39.3582 68.3862 39.3031 68.2679 39.2689C68.1495 39.2347 68.0241 39.2221 67.8997 39.2321Z" fill="#525657"/>
<path d="M85.9761 33H84.9665C84.7288 33.0002 84.501 33.0813 84.333 33.2256C84.165 33.3698 84.0705 33.5654 84.0702 33.7694V39.6411C84.0702 39.7769 84.0282 39.9102 83.9486 40.0276C83.869 40.1449 83.7546 40.2421 83.6171 40.3092C83.4795 40.3762 83.3237 40.4108 83.1655 40.4094C83.0073 40.408 82.8524 40.3706 82.7165 40.3011C82.3112 40.0946 81.8882 39.9147 81.4512 39.7632C80.4504 39.4201 79.3816 39.2472 78.3041 39.254C77.16 39.2468 76.0267 39.4444 74.9766 39.8342C72.9221 40.5924 71.2869 42.001 70.4107 43.7673C69.965 44.6768 69.7354 45.6537 69.7354 46.6405C69.7354 47.6272 69.965 48.6041 70.4107 49.5136C70.8431 50.3875 71.4699 51.1805 72.2562 51.8481C73.0413 52.5125 73.9639 53.0455 74.9766 53.4196C76.0267 53.8094 77.16 54.007 78.3041 53.9998C79.4543 54.0061 80.5938 53.8086 81.6511 53.4196C83.7026 52.6751 85.3338 51.2716 86.1965 49.5089C86.6491 48.6011 86.8789 47.623 86.8715 46.6357V33.7694C86.8715 33.5655 86.7772 33.3699 86.6093 33.2256C86.4414 33.0814 86.2137 33.0002 85.9761 33ZM83.6258 48.5631C83.3408 49.1525 82.9206 49.6867 82.3902 50.1338C81.8558 50.5815 81.2303 50.9413 80.5447 51.1953C79.837 51.4569 79.0746 51.5919 78.3041 51.5919C77.5335 51.5919 76.7711 51.4569 76.0634 51.1953C74.6826 50.6908 73.5829 49.7469 72.9953 48.5615C72.6911 47.9536 72.5342 47.2989 72.5342 46.6373C72.5342 45.9756 72.6911 45.3209 72.9953 44.713C73.2914 44.1245 73.7101 43.5874 74.2309 43.128C74.7516 42.6728 75.3735 42.3121 76.0597 42.0673C77.1177 41.6894 78.2825 41.5897 79.4066 41.7809C80.5306 41.9722 81.5631 42.4456 82.3733 43.1413C83.1834 43.837 83.7346 44.7236 83.9569 45.6886C84.1792 46.6535 84.0627 47.6535 83.6221 48.5615L83.6258 48.5631Z" fill="#525657"/>
<path d="M104.664 41.3797C103.882 40.7124 102.96 40.1793 101.945 39.809C100.887 39.426 99.7498 39.2288 98.6012 39.2288C97.4525 39.2288 96.3155 39.426 95.257 39.809C94.2389 40.1813 93.3112 40.714 92.5217 41.3797C91.7194 42.0659 91.0835 42.8819 90.6509 43.7804C90.2183 44.679 89.9975 45.6422 90.0012 46.6144C89.9925 47.597 90.2224 48.5704 90.6762 49.4725C91.5596 51.2352 93.2001 52.638 95.257 53.3896C96.3142 53.7788 97.4537 53.9763 98.604 53.9698C99.5263 53.9698 100.976 53.7799 101.882 53.4909C102.519 53.2977 103.11 53.0082 103.628 52.6362C103.802 52.5095 103.914 52.3307 103.941 52.136C103.967 51.9414 103.907 51.7453 103.771 51.5875L103.331 51.0783C103.195 50.9211 102.994 50.8142 102.769 50.7795C102.545 50.7449 102.313 50.7849 102.122 50.8915C101.773 51.0838 101.564 51.1421 100.922 51.3201C100.132 51.5388 99.411 51.5843 98.5975 51.5675C97.9414 51.5644 97.2903 51.469 96.6701 51.285C96.0779 51.1021 95.5261 50.8341 95.0385 50.4924C94.5545 50.1522 94.1327 49.7517 93.7871 49.3041C93.6941 49.1844 93.6079 49.0614 93.5286 48.9353C93.4556 48.8181 93.4193 48.6867 93.4231 48.5538C93.427 48.421 93.4709 48.2912 93.5506 48.1773C93.6303 48.0634 93.7431 47.9691 93.8779 47.9038C94.0127 47.8384 94.165 47.8042 94.3198 47.8044H106.269C106.504 47.8049 106.731 47.7252 106.899 47.5829C107.066 47.4406 107.162 47.2471 107.164 47.0446V46.6152C107.171 45.6251 106.943 44.6442 106.493 43.7325C106.065 42.8543 105.444 42.0554 104.664 41.3797ZM102.845 45.3981H94.3356C94.1808 45.3984 94.0286 45.3643 93.8938 45.299C93.759 45.2338 93.6462 45.1396 93.5664 45.0258C93.4866 44.912 93.4425 44.7823 93.4385 44.6495C93.4345 44.5167 93.4707 44.3852 93.5435 44.268C93.6197 44.1475 93.7015 44.0286 93.7908 43.9121C94.4719 43.0011 95.4854 42.3095 96.6729 41.9455C97.9203 41.5688 99.2801 41.5688 100.528 41.9455C101.117 42.1275 101.668 42.3903 102.159 42.7237C102.646 43.0577 103.063 43.4594 103.395 43.9121C103.482 44.0318 103.565 44.1515 103.641 44.2776C103.712 44.3947 103.747 44.5255 103.741 44.6574C103.736 44.7893 103.691 44.9177 103.611 45.0304C103.531 45.1431 103.419 45.2361 103.284 45.3005C103.15 45.365 102.999 45.3986 102.845 45.3981Z" fill="#525657"/>
<path d="M114.804 51.5281C114.444 51.4603 114.104 51.3275 113.808 51.1386C113.335 50.8369 113.099 50.469 113.1 50.0348V33.7686C113.1 33.6676 113.076 33.5676 113.031 33.4743C112.986 33.381 112.92 33.2962 112.837 33.2248C112.754 33.1534 112.655 33.0969 112.546 33.0583C112.438 33.0197 112.321 32.9999 112.203 33H111.195C110.957 33 110.729 33.0809 110.561 33.2251C110.393 33.3692 110.299 33.5647 110.298 33.7686V50.0388C110.295 50.5734 110.436 51.1015 110.71 51.5815C110.982 52.0603 111.361 52.488 111.826 52.8402C112.311 53.2057 112.869 53.4934 113.473 53.6893C113.788 53.7936 114.114 53.8716 114.447 53.9224C114.576 53.942 114.708 53.9371 114.835 53.908C114.961 53.8789 115.079 53.8264 115.179 53.7541C115.28 53.6819 115.361 53.5916 115.416 53.4897C115.471 53.3878 115.5 53.2767 115.5 53.1642V52.2775C115.5 52.1033 115.432 51.9342 115.305 51.798C115.178 51.6618 115.002 51.5666 114.804 51.5281Z" fill="#525657"/>
</svg>
