<svg width="167" height="165" viewBox="0 0 167 165" fill="none" xmlns="http://www.w3.org/2000/svg">
<path d="M158.925 67.6852C161.853 62.8607 162.854 56.9685 161.894 51.4271C161.856 51.2053 161.81 50.9842 161.756 50.764C161.346 48.8407 161.031 47.2783 160.094 45.6447C159.999 45.4405 159.901 45.2378 159.8 45.0364C159.698 44.8353 159.594 44.6354 159.486 44.4371C155.61 37.2977 147.779 32.4418 139.614 32.1153C138.225 19.0528 129.027 7.10619 116.692 2.34438C104.357 -2.41704 89.4423 0.221954 79.5253 8.9205C69.0466 1.13089 54.5685 -1.03188 42.2436 3.35091C29.9189 7.7337 20.1196 18.53 17.0102 31.1515C16.0594 35.0111 15.6629 39.1011 13.6787 42.5518C12.1812 45.1563 9.88679 47.1988 7.92585 49.4799C1.66701 56.7608 -1.15056 66.839 0.43317 76.2795C2.01689 85.7204 7.97292 94.3484 16.2711 99.2243C9.64197 108.26 11.9679 122.493 21.135 128.986C26.3998 132.716 33.4219 134.143 37.4337 139.179C39.14 141.321 40.1287 143.932 41.6093 146.233C46.6439 154.057 57.8314 157.26 66.2912 153.3L111.226 141.965C126.329 143.167 141.836 138.266 153.457 128.617C157.766 125.04 161.638 120.7 163.505 115.442C165.371 110.184 164.926 103.888 161.343 99.5943C169.803 90.9471 168.593 74.979 158.925 67.6852Z" fill="#FFCFCF"/>
<mask id="mask0_4169_5827" style="mask-type:alpha" maskUnits="userSpaceOnUse" x="0" y="0" width="167" height="155">
<path d="M158.925 67.6852C161.853 62.8607 162.854 56.9685 161.894 51.4271C161.856 51.2053 161.81 50.9842 161.756 50.764C161.346 48.8407 161.031 47.2783 160.094 45.6447C159.999 45.4405 159.901 45.2378 159.8 45.0364C159.698 44.8353 159.594 44.6354 159.486 44.4371C155.61 37.2977 147.779 32.4418 139.614 32.1153C138.225 19.0528 129.027 7.10619 116.692 2.34438C104.357 -2.41704 89.4423 0.221954 79.5253 8.9205C69.0466 1.13089 54.5685 -1.03188 42.2436 3.35091C29.9189 7.7337 20.1196 18.53 17.0102 31.1515C16.0594 35.0111 15.6629 39.1011 13.6787 42.5518C12.1812 45.1563 9.88679 47.1988 7.92585 49.4799C1.66701 56.7608 -1.15056 66.839 0.43317 76.2795C2.01689 85.7204 7.97292 94.3484 16.2711 99.2243C9.64197 108.26 11.9679 122.493 21.135 128.986C26.3998 132.716 33.4219 134.143 37.4337 139.179C39.14 141.321 40.1287 143.932 41.6093 146.233C46.6439 154.057 57.8314 157.26 66.2912 153.3L111.226 141.965C126.329 143.167 141.836 138.266 153.457 128.617C157.766 125.04 161.638 120.7 163.505 115.442C165.371 110.184 164.926 103.888 161.343 99.5943C169.803 90.9471 168.593 74.979 158.925 67.6852Z" fill="#FFE1E1"/>
</mask>
<g mask="url(#mask0_4169_5827)">
<path d="M31.5178 100.279C23.5453 100.971 11.7666 105.709 11.7666 105.709V155H165.994V122C165.994 122 147.251 111.762 134.056 110.722C113.827 109.126 105.163 128.268 84.8881 127.43C61.4946 126.464 54.8425 98.2517 31.5178 100.279Z" fill="#F8B7B7"/>
</g>
<path d="M57.5902 82.5175C63.7705 80.0566 65.0888 73.0036 65.479 66.6311C65.5018 67.5849 65.5284 68.5381 65.563 69.4927C65.7164 73.6854 65.8491 77.9554 66.3165 82.1519C65.8048 81.9224 65.156 81.7849 64.7615 82.2579C64.5233 82.5403 64.4215 82.8867 64.4025 83.2478C62.8777 82.9293 61.3042 82.8035 59.7543 82.6792C59.2043 82.638 58.6601 82.6021 58.1093 82.6299C57.7406 82.6491 57.5349 82.7395 57.5902 82.5175ZM30.0174 29.4403C30.1207 30.2552 30.6641 31.1502 31.4899 31.4185L31.7576 31.5018C31.6536 35.7541 31.411 39.9976 31.3815 44.2581C31.3505 48.6464 31.3572 53.0334 31.3505 57.4203C31.3447 61.8109 31.341 66.1994 31.3351 70.59C31.3307 74.7135 30.7069 87.8229 32.3415 88.8923C34.2431 90.1366 35.8955 90.8163 37.8745 91.5319C39.6404 92.1724 39.9192 93.294 39.9169 95.1392C39.9162 96.8977 39.9022 98.6598 39.9162 100.418C39.9317 102.414 39.7687 104.432 39.8469 106.421C39.9022 107.804 40.6248 108.835 41.3879 109.922C42.648 111.718 42.008 114.266 42.0279 116.35C42.0449 118.444 42.0876 120.539 42.1186 122.633C42.1835 126.975 42.182 131.318 42.2064 135.662C42.2189 137.917 42.2263 140.174 42.2005 142.432C42.1894 143.354 42.3074 144.396 42.1378 145.301C41.997 146.056 41.7006 146.777 41.514 147.521C41.2655 148.521 41.444 149.507 42.317 150.129C42.8988 150.545 45.3821 151.254 44.2627 152.166C43.1966 153.034 41.9122 153.648 41.5531 155.114C41.3223 156.053 41.3363 156.987 41.5302 157.901C41.3946 157.921 41.3179 158.026 41.3916 158.262C41.8694 159.802 43.1 160.837 44.61 161.363C47.3529 162.316 50.4882 162.568 53.3454 163.011C57.6617 163.682 62.0067 164.178 66.3644 164.49C74.9286 165.104 83.512 165.107 92.0901 164.797C96.2111 164.648 110.936 164.315 114.125 163.852C116.851 163.453 120.182 162.762 122.23 160.751C123.939 159.072 123.128 156.98 121.213 156.029C121.248 155.103 120.917 154.076 120.797 153.235C120.511 151.23 120.026 149.24 119.259 147.359C117.775 143.713 115.472 140.54 112.528 137.921C109.945 135.624 107.092 133.682 104.253 131.721C101.44 129.778 97.6518 127.889 98.432 123.875C99.5372 118.188 105.47 117.493 110.254 116.674C112.571 116.279 114.897 115.86 117.064 114.917C120.122 113.586 122.857 111.596 125.135 109.166C127.438 106.712 129.374 103.93 131.004 100.991C132.69 97.9487 134.859 94.8024 134.91 91.2133L134.98 91.2045C135.747 91.0972 137.778 90.897 137.978 89.7358C138.101 89.0092 137.694 88.4819 137.209 88.0825C136.7 87.089 135.538 86.4956 134.542 86.2322C132.016 85.56 129.394 85.1157 126.83 84.6804C120.245 83.5604 113.598 83.0484 106.948 82.7468C97.8266 82.3366 88.736 82.1519 79.6513 82.5983C77.8086 82.6322 75.9675 82.6984 74.1243 82.7241C71.9764 82.7529 69.9089 82.9108 67.8347 83.5493C69.3006 77.4825 69.8963 71.2997 70.3468 65.0718C70.8365 58.2749 71.0539 51.4617 70.9854 44.6478C70.9507 41.1597 70.7657 37.6809 70.6726 34.1948C70.5901 31.0457 70.5858 27.8871 70.3174 24.7429C70.1766 23.097 69.9907 21.4496 69.6464 19.8302C69.4944 19.1109 69.417 17.6165 68.6945 17.1458C67.9054 16.6309 67.7624 17.5811 67.7882 18.4159C67.2382 21.4754 66.8254 24.548 66.509 27.631L66.2546 27.4604C65.9811 27.317 65.6721 27.2266 65.3734 27.1332C63.5079 26.9478 61.6153 26.9574 59.7373 26.967C59.2322 26.9698 58.7278 26.972 58.2257 26.9713C55.2388 26.9655 52.2527 26.9544 49.2656 26.9544C43.6729 26.953 38.0338 26.7522 32.447 27.0485C31.9861 27.0022 31.529 27.0265 31.1367 27.2471C30.3588 27.6826 29.9032 28.5392 30.0174 29.4403Z" fill="#727272"/>
<path d="M66.3839 84.5001L66.5793 84.2567C66.5011 83.7109 66.4326 83.163 66.3684 82.6151C65.5772 82.6343 65.4239 83.3419 65.5617 84.097C65.6251 84.4412 65.8301 84.8855 65.9805 85.0531L66.1655 85.1664L66.316 85.1834C66.2614 84.9192 66.2916 84.692 66.3839 84.5001Z" fill="#ECFAFF"/>
<path d="M66.1505 31.643L66.1342 31.6503C66.0081 32.0423 65.9785 33.072 65.9727 34.1839C66.0265 33.3367 66.0855 32.4887 66.1505 31.643Z" fill="#ECFAFF"/>
<path d="M69.8918 49.4172C69.9654 43.5425 69.6794 37.6868 69.5805 31.8158C69.5313 28.9019 69.526 25.9895 69.2753 23.0846C69.1624 21.7791 68.9863 20.4811 68.7547 19.1941C68.6951 18.874 68.6301 18.5557 68.5609 18.2394L68.3434 17.8519C68.0623 18.2637 68.0676 19.0028 68.1075 19.4037L67.957 19.4492C67.0751 30.0677 66.7205 40.728 66.5766 51.3764C66.5015 57.0474 66.469 62.7148 66.6304 68.38C66.7552 72.7551 66.8126 77.2135 67.1946 81.604C69.1766 71.0268 69.7561 60.1562 69.8918 49.4172Z" fill="#ECFAFF"/>
<path d="M135.266 90.0542C135.694 89.9894 136.105 89.8614 136.508 89.6865L136.788 89.521L136.773 89.4608C136.452 87.183 133.936 87.2073 132.349 86.8925C129.237 86.2769 126.148 85.6371 123.008 85.2061C116.781 84.3531 110.509 84.0125 104.243 83.7675C93.615 83.3513 82.9671 82.9954 72.3393 83.5226C72.0265 83.5603 71.7139 83.594 71.4013 83.6337C70.4502 83.7544 69.5166 83.9692 68.5964 84.2699C68.261 84.3794 67.927 84.5075 67.6011 84.6537L67.5495 84.6826L67.5303 84.756C67.565 85.0252 67.6003 85.298 67.6386 85.5673L67.6224 85.7783L67.9639 86.0283C69.255 86.8212 70.7539 87.1337 72.1667 87.5176C79.4456 89.5063 86.7902 90.2402 94.2581 90.5285C101.746 90.8182 109.233 91.0426 116.725 90.9956C120.403 90.969 124.08 90.8802 127.756 90.7109C129.524 90.6299 131.291 90.5528 133.051 90.3645C133.791 90.285 134.53 90.1689 135.266 90.0542Z" fill="#ECFAFF"/>
<path d="M124.524 87.9619C122.886 87.9619 121.246 87.906 119.615 87.8435C110.127 87.4875 100.655 87.4705 91.1756 86.8212C86.4706 86.499 81.6292 86.452 77.001 85.4901C75.8677 85.2532 74.5264 85.0774 73.5105 84.487L73.127 84.2398C73.5281 84.072 74.003 83.9875 74.4239 83.9632C74.7603 83.9427 75.0965 83.9331 75.4326 83.9331C76.4074 83.9331 77.3829 84.0082 78.3584 84.0816C79.3339 84.1575 80.3101 84.2302 81.2856 84.2302C81.2907 84.2302 81.296 84.2302 81.3004 84.2302C85.5489 84.2286 89.8077 84.1515 94.0636 84.1515C99.5391 84.1515 105.012 84.2795 110.458 84.8648C115.222 85.379 120.002 86.0152 124.718 86.8645C126.064 87.1074 127.479 87.4994 128.906 87.7904C127.452 87.9169 125.989 87.9619 124.524 87.9619Z" fill="#C6D5D7"/>
<path d="M114.67 91.0007C108.406 91.0007 102.147 90.8243 95.8871 90.5905C102.147 90.8243 108.407 91.0007 114.67 91.0007Z" fill="#727272"/>
<path d="M114.68 91.0007C114.676 91.0007 114.674 91.0007 114.67 91.0007C108.408 91.0007 102.148 90.8243 95.8874 90.5905C95.8551 90.589 95.8227 90.589 95.791 90.5867C95.74 90.5845 95.69 90.583 95.6398 90.5809C95.263 90.5675 94.8862 90.5528 94.5095 90.5374C94.4253 90.5359 94.3421 90.5323 94.2581 90.5286C86.7902 90.2403 79.4456 89.5064 72.1667 87.5177C70.7539 87.1338 69.255 86.8212 67.9639 86.0284L67.6224 85.7784L67.6386 85.5673C67.6003 85.2981 67.565 85.0253 67.5303 84.7561L67.5495 84.6826L67.6011 84.6538C67.927 84.5075 68.261 84.3795 68.5964 84.2699C69.4798 83.9802 70.3764 83.7729 71.2877 83.653C71.2214 83.886 71.2184 84.1515 71.3017 84.4641C71.6048 85.6048 72.921 86.1792 73.9554 86.4859C75.9478 87.0758 78.0041 87.4309 80.068 87.6707C89.5176 88.7642 99.1856 89.1577 108.694 89.3232C113.224 89.4027 117.75 89.5247 122.278 89.6248C122.993 89.6395 123.71 89.6491 124.426 89.6491C127.99 89.6491 131.552 89.4062 134.998 88.4327C135.395 88.3201 135.578 88.0185 135.597 87.7009C136.195 88.0473 136.648 88.582 136.773 89.4608L136.788 89.5211L136.508 89.6866C136.105 89.8615 135.694 89.9895 135.266 90.0543C134.53 90.169 133.791 90.2851 133.051 90.3646C131.291 90.5528 129.524 90.63 127.756 90.711C124.08 90.8803 120.403 90.9691 116.725 90.9957C116.648 90.9957 116.571 90.9972 116.495 90.9972C116.486 90.9972 116.477 90.9972 116.469 90.9972C115.873 91.0007 115.276 91.0007 114.681 91.0007H114.68Z" fill="#DCE9EC"/>
<path d="M32.3526 44.1527C32.3835 48.5485 32.3799 52.9449 32.3858 57.343C32.3931 61.7374 32.3968 66.1315 32.4027 70.5258C32.4071 75.0563 32.5561 79.6138 32.267 84.136C32.2597 84.2529 32.3393 86.0018 32.517 86.7498C32.8591 88.192 33.4313 88.8775 34.8699 89.421C36.8076 90.1534 39.0587 90.2042 40.4043 91.9949C41.2367 93.1018 40.7759 94.1977 40.5724 95.4251C40.4176 96.3591 40.6432 97.338 40.7494 98.2684C40.8659 99.287 40.8637 100.328 40.9263 101.354C41.045 103.286 40.8415 105.335 41.1261 107.239C41.3621 108.823 42.8427 109.877 43.26 111.425C43.7142 113.106 43.2651 115.166 43.2763 116.892C43.2918 119.161 43.341 121.428 43.3735 123.699C43.4369 128.039 43.4295 132.381 43.4531 136.721C43.4643 138.805 43.4635 140.888 43.4422 142.972C43.4252 144.8 43.2933 146.244 42.78 147.984C42.5227 148.86 42.6038 149.21 43.3993 149.597C43.838 149.812 44.2746 150.01 44.6948 150.256C45.3732 150.656 46.0397 151.546 45.7713 152.374C45.4455 153.38 44.2731 153.809 43.5366 154.478C42.4533 155.46 42.4445 157.226 42.5374 158.668C43.8728 160.77 46.9327 160.875 49.177 161.223C52.9273 161.804 56.6449 162.483 60.4208 162.901C68.6886 163.818 77.0219 164.023 85.3339 163.892C92.6541 163.775 109.583 163.62 116.461 161.999C118.543 161.508 124.686 158.802 121.185 156.338C121.154 156.553 121.101 156.761 121.013 156.956C120.81 157.409 120.047 156.84 120.131 156.466C120.392 155.306 119.824 153.732 119.647 152.57C119.328 150.503 118.687 148.5 117.841 146.587C116.292 143.087 113.803 140.227 110.907 137.769C108.149 135.424 105.056 133.487 102.126 131.371C100.014 129.846 97.7891 128.234 97.6468 125.44C97.388 120.385 101.912 117.457 106.183 116.302C108.533 115.667 110.961 115.365 113.324 114.789C116.308 114.059 119.038 112.59 121.439 110.696C124.548 108.241 127.01 105.022 129.066 101.671C131.052 98.4279 133.155 94.9663 134.256 91.2964C130.86 91.7274 127.445 91.837 124.031 91.9369C116.367 92.1591 108.699 92.0119 101.037 91.7692C93.5862 91.5303 86.1015 91.3544 78.7237 90.0276C75.5339 89.4547 72.2565 88.7112 69.1892 87.5383C68.4438 87.2544 67.393 86.8065 66.7782 86.0827C66.4905 86.2452 66.0069 86.149 65.6928 85.9643C65.0446 85.5842 64.6973 84.8215 64.5042 84.1324L64.4142 83.6653C63.3311 83.95 62.194 83.8859 61.0777 83.8234C60.0197 83.7655 58.9343 83.7786 57.885 83.6205C57.5717 83.5734 57.2916 83.4565 57.077 83.3064C56.875 83.2609 56.6728 83.099 56.5718 82.9578C56.4001 82.7224 56.3417 82.4438 56.4746 82.1783C56.6449 81.8356 57.0483 81.6547 57.4316 81.5229C60.4878 79.3674 62.399 76.6432 63.3709 72.9792C64.5461 68.5454 64.4997 63.7464 64.662 59.1957C64.8447 54.0673 64.9081 48.9347 65.0395 43.807C65.1035 41.3491 65.0918 32.9628 65.0875 31.5361C63.4336 31.7906 61.6993 31.7552 60.0086 31.7208C59.4091 31.7082 58.8156 31.6957 58.2339 31.6965C55.2602 31.6965 52.2849 31.698 49.3105 31.7001C43.6802 31.7016 37.9283 32.0311 32.315 31.5214L32.1572 31.553L31.9795 31.5472C32.0812 35.7487 32.3246 39.9446 32.3526 44.1527Z" fill="#ECFAFF"/>
<path d="M85.4423 161.696C84.5853 161.696 83.728 161.693 82.8704 161.687C76.5057 161.641 70.1108 161.455 63.7704 160.879C57.6144 160.322 51.4717 159.542 45.5758 157.622C44.4145 157.245 44.7573 155.547 45.7934 155.547C45.8995 155.547 46.0139 155.566 46.1334 155.605C57.444 159.29 69.905 159.429 81.6988 159.583C83.1092 159.603 84.5213 159.612 85.934 159.612C86.3432 159.612 86.7532 159.61 87.1624 159.608C81.3292 159.192 75.5051 158.605 69.6544 158.516C64.8697 158.445 59.7844 158.479 55.2321 156.809C53.2501 156.082 51.4488 154.927 50.2942 153.128C50.0042 152.676 49.7883 152.197 49.6267 151.702L49.4912 152.056C49.3149 152.482 48.8496 152.844 48.3932 152.844C48.1595 152.844 47.9279 152.75 47.7391 152.519C46.4865 150.996 44.8761 150.136 43.1536 149.464L43.4 149.598C42.8624 149.336 42.6508 149.091 42.6501 148.689C42.6494 148.496 42.6973 148.266 42.7807 147.984C43.2939 146.245 43.4258 144.8 43.4428 142.972C43.456 141.736 43.4611 140.499 43.4611 139.262C43.4611 138.414 43.4591 137.569 43.4538 136.721C43.4302 132.381 43.4375 128.039 43.3741 123.699C43.3416 121.428 43.2924 119.161 43.2769 116.892C43.2769 116.872 43.2769 116.851 43.2769 116.832C43.2769 115.701 43.4657 114.431 43.4649 113.221C43.4642 112.598 43.4132 111.99 43.2607 111.425C42.8433 109.878 41.3627 108.823 41.1268 107.239C40.9859 106.294 40.9646 105.313 40.9646 104.331C40.9646 103.905 40.969 103.478 40.969 103.053C40.969 102.482 40.9616 101.913 40.927 101.354C40.8643 100.328 40.8665 99.2871 40.75 98.2685C40.6696 97.564 40.5207 96.8299 40.5207 96.1107C40.5207 95.879 40.5354 95.651 40.573 95.4252C40.6873 94.7346 40.8834 94.0868 40.8849 93.4542C40.8857 92.963 40.7692 92.4806 40.4049 91.995C40.1778 91.6936 39.9249 91.4398 39.6514 91.2252C41.1054 90.419 42.7622 89.7263 44.3326 89.7263C45.1181 89.7263 45.882 89.8999 46.5868 90.319C48.6403 91.5413 49.0031 94.6706 49.2743 96.7806C49.6445 99.6505 49.7521 102.467 50.7225 105.215C51.8588 108.437 53.7337 111.278 56.372 113.466C58.9799 115.623 62.4866 116.296 64.7865 118.828C66.7471 120.991 67.5197 124.028 66.7809 126.843C65.9419 130.036 62.8317 131.909 60.1972 133.53C61.6527 132.724 63.1554 132.011 64.7636 131.431C67.2647 130.527 69.8291 129.908 71.8383 128.057C73.9745 126.088 73.9478 123.098 75.6946 120.942C76.4953 119.954 77.3013 119.553 78.0909 119.553C78.8769 119.553 79.6474 119.95 80.3819 120.558C79.9815 120.392 79.4911 120.302 78.8888 120.302C78.4501 120.302 77.9524 120.349 77.3868 120.453C76.9091 120.539 76.6488 121.023 76.6171 121.46C76.3959 124.372 75.7263 127.492 73.6124 129.657C71.9644 131.348 69.849 132.381 67.73 133.359C65.2487 134.506 62.789 135.654 60.5924 137.299C57.8415 139.363 56.0041 142.027 55.0543 145.335C54.5499 147.096 54.2609 148.895 54.1031 150.716C54.0044 151.84 53.927 153.039 54.3944 154.096C55.3412 156.236 58.578 156.464 60.5564 156.825C65.5687 157.743 70.6136 157.919 75.671 157.919C77.2577 157.919 78.8474 157.902 80.4357 157.885C82.0231 157.868 83.61 157.85 85.1975 157.85C85.9525 157.85 86.7083 157.855 87.4633 157.865C90.5002 157.904 93.5574 158.126 96.6054 158.126C98.066 158.126 99.5253 158.076 100.979 157.929C102.42 157.782 104.852 157.558 105.954 156.562C108.265 154.474 104.901 153.568 103.746 151.94C101.906 149.347 102.385 145.71 100.833 142.925C98.8418 139.357 95.9595 136.437 92.3097 134.553C90.625 133.681 88.8907 132.913 87.1787 132.095C86.1367 131.6 84.9762 131.105 84.0995 130.337C81.76 128.286 82.7487 124.208 81.7422 121.932C82.9862 123.396 84.0685 125.163 84.8664 126.103C88.2567 130.085 93.3369 129.025 97.9386 129.998C99.2311 130.271 100.499 130.646 101.745 131.096C101.872 131.188 102 131.281 102.127 131.371C105.057 133.487 108.15 135.424 110.908 137.769C113.803 140.227 116.293 143.087 117.841 146.587C118.687 148.5 119.329 150.503 119.647 152.57C119.408 151.019 118.986 149.503 118.435 148.037L118.458 148.364C118.605 151.343 117.581 154.926 115.019 156.705C113.96 157.439 112.766 157.872 111.522 158.145C113.51 158.004 115.487 157.744 117.227 156.716C117.409 156.611 117.586 156.564 117.754 156.564C118.667 156.564 119.268 157.946 118.285 158.524C116.035 159.851 113.564 160.066 111.008 160.239C107.971 160.451 104.942 160.787 101.909 161.062C96.4352 161.553 90.9376 161.696 85.4423 161.696ZM43.7311 91.7068C43.1559 91.7068 42.6921 92.1848 42.6855 92.7542C42.6405 97.0073 41.5817 101.23 42.033 105.491C42.4142 109.088 45.0273 111.557 45.9482 114.923C47.1383 119.266 46.4503 124.243 45.9556 128.646C45.4337 133.289 44.8134 137.934 45.1099 142.612C45.149 143.242 45.6349 143.643 46.1621 143.643C46.4127 143.643 46.673 143.552 46.8994 143.353C48.5223 141.914 49.8296 140.048 51.0764 138.288C52.3188 136.533 53.6777 134.703 54.5611 132.732C55.5343 130.563 55.2895 128.219 55.187 125.916C55.069 123.233 55.6368 121.473 58.199 120.247C58.6782 120.018 58.8929 119.252 58.5752 118.817C57.3135 117.084 55.8146 115.635 54.1711 114.265C52.7465 113.082 51.1774 111.892 50.1209 110.346C48.7301 108.312 48.2346 106.001 47.7909 103.612C47.4015 101.52 47.1619 99.4319 47.1449 97.3213L47.1685 97.2609C47.49 96.096 47.7982 94.2619 47.4715 93.0791C47.0926 91.7068 44.8215 91.7106 43.7348 91.7068C43.7333 91.7068 43.7326 91.7068 43.7311 91.7068Z" fill="#CFDDDF"/>
<path d="M87.7598 118.072C84.3784 118.072 80.9985 117.849 77.6663 117.414C70.3814 116.465 63.1025 114.448 57.6742 109.258C52.3794 104.197 49.7383 95.4024 53.7331 88.8282C55.0346 86.6858 56.8522 85.0194 58.9514 83.7316C59.6599 83.7787 60.3752 83.7845 61.0785 83.8235C61.5557 83.8501 62.0364 83.8764 62.5149 83.8764C63.1563 83.8764 63.7949 83.828 64.415 83.6654L64.505 84.1325C64.6981 84.8215 65.0454 85.5842 65.6936 85.9644C65.8956 86.0828 66.1683 86.166 66.4139 86.166C66.5496 86.166 66.677 86.1395 66.779 86.0828C67.3938 86.8065 68.4446 87.2544 69.19 87.5383C72.2573 88.7113 75.5347 89.4548 78.7245 90.0277C86.1023 91.3545 93.587 91.5303 101.038 91.7692C106.055 91.9289 111.074 92.0458 116.095 92.0458C118.741 92.0458 121.387 92.0142 124.032 91.937C124.492 91.9238 124.953 91.9105 125.414 91.895C124.537 97.2836 122.536 102.476 119.169 106.833C114.728 112.579 108.57 115.392 101.576 116.763C97.045 117.649 92.4006 118.072 87.7598 118.072ZM67.4602 90.2932C66.0298 90.2932 64.6164 90.5022 63.272 91.1022C57.2688 93.7851 59.6156 103.09 63.4506 106.586C68.561 111.244 75.7346 111.988 82.3366 112.346C85.4445 112.515 88.5973 112.69 91.7451 112.69C96.3417 112.69 100.926 112.315 105.333 110.992C109.392 109.774 113.051 107.588 115.845 103.854C117.288 101.924 121.134 93.3807 115.838 93.3769C104.595 93.3733 93.3422 93.1431 82.1331 92.2303C79.8843 92.0496 78.0269 91.9251 76.2573 91.5943C74.8565 91.3302 73.4629 91.0273 72.0574 90.7897C70.5496 90.5338 68.9954 90.2932 67.4602 90.2932Z" fill="#CFDDDF"/>
<path d="M40.5503 82.788C40.1462 82.788 39.7399 82.7637 39.3337 82.7093C38.3781 82.5777 37.4675 82.3365 36.5488 82.043C35.6536 81.7583 34.892 81.7282 33.9873 81.5738C33.376 81.4701 32.854 81.2163 32.4079 80.8605C32.4352 79.7382 32.4447 78.6166 32.4447 77.4943C32.4447 75.1687 32.4049 72.8441 32.4027 70.5259C32.3968 66.1316 32.3931 61.7374 32.3858 57.3431C32.3799 52.945 32.3835 48.5486 32.3526 44.1528C32.3246 39.9447 32.0812 35.7488 31.9795 31.5473L32.1572 31.5531L32.315 31.5215C34.7607 31.7436 37.2323 31.8062 39.709 31.8062C42.9171 31.8062 46.1333 31.7009 49.3105 31.7001C52.2849 31.6981 55.2602 31.6966 58.2339 31.6966C58.2471 31.6966 58.261 31.6966 58.2752 31.6966C58.8443 31.6966 59.424 31.7083 60.0086 31.7209C60.5963 31.7325 61.1883 31.7451 61.7819 31.7451C62.8945 31.7451 64.0087 31.7017 65.0875 31.5362C65.0888 32.0048 65.0911 33.2218 65.0911 34.7333C65.0911 34.7376 65.0911 34.7429 65.0911 34.7472C65.0911 34.7515 65.0911 34.756 65.0911 34.7604C65.0911 34.7649 65.0911 34.7692 65.0911 34.7745C65.0911 34.7788 65.0911 34.7831 65.0911 34.7877C65.0911 34.792 65.0911 34.7965 65.0911 34.8008C65.0911 34.8061 65.0911 34.8104 65.0911 34.8148C65.0911 34.8193 65.0911 34.8236 65.0911 34.8281C65.0911 34.8325 65.0911 34.8377 65.0911 34.8421C65.0911 34.8553 65.0911 34.8692 65.0911 34.8826C65.0911 34.8876 65.0911 34.8921 65.0911 34.8965C65.0911 37.978 65.0814 42.1848 65.0395 43.8071C64.9081 48.9348 64.8447 54.0673 64.662 59.1957C64.5004 63.7217 64.5454 68.4946 63.39 72.9081C64.1016 70.1868 64.3574 67.3311 64.488 64.4791L64.4819 64.4975C63.0221 69.686 60.7136 75.3086 55.8714 78.1849C52.4848 80.1977 48.5585 81.3421 44.7384 82.188C43.3573 82.4932 41.9608 82.788 40.5503 82.788ZM46.2234 32.8012C43.2497 32.8012 39.6965 33.0631 37.7027 35.3753C35.4487 37.9883 35.605 42.1804 35.7532 45.409C35.9228 49.076 36.4477 52.7061 36.711 56.3641C37.0074 60.5025 36.9816 64.6071 37.539 68.7373C37.8966 71.3923 37.9114 75.1541 40.5495 76.7258C41.4358 77.2552 42.4548 77.4568 43.5122 77.4568C45.4234 77.4568 47.4622 76.7956 49.074 76.2103C52.2474 75.0518 55.0676 73.3743 57.0998 70.6334C60.6766 65.8021 60.4333 59.2464 60.8559 53.5437C61.0932 50.3188 61.5062 47.1145 61.7974 43.8917C62.0407 41.1875 62.5406 37.8243 61.4907 35.2245C61.0431 34.1161 60.1443 33.283 58.9932 33.241C58.6512 33.0747 58.2633 32.9798 57.8363 32.9798C57.6491 32.9798 57.4545 32.9983 57.2533 33.0365L57.0807 33.0697L56.807 33.0939C56.4376 33.1175 56.0682 33.1344 55.6981 33.138C55.6435 33.138 55.589 33.138 55.5344 33.138C54.7307 33.138 53.9271 33.113 53.1249 33.0755C51.1907 32.9814 49.2575 32.8366 47.3206 32.8108C46.9673 32.8057 46.6001 32.8012 46.2234 32.8012Z" fill="#CFDDDF"/>
<path d="M80.8822 163.927C74.0788 163.927 67.2733 163.656 60.5098 162.91C67.2726 163.656 74.0796 163.927 80.8822 163.927Z" fill="#727272"/>
<path d="M120.728 157.123C120.459 157.097 120.125 156.782 120.125 156.527C120.125 156.51 120.127 156.493 120.129 156.477C120.081 156.741 120.441 157.095 120.728 157.123Z" fill="#727272"/>
<path d="M80.8913 163.927C80.8885 163.927 80.8855 163.927 80.8825 163.927C74.0798 163.927 67.2728 163.656 60.51 162.91C60.4804 162.907 60.4509 162.903 60.4215 162.901C56.6455 162.483 52.928 161.804 49.1777 161.223C46.9334 160.875 43.8734 160.77 42.5381 158.668C42.5174 158.349 42.502 158.012 42.502 157.669C42.502 156.479 42.6951 155.242 43.5372 154.478C44.2738 153.809 45.4461 153.38 45.7719 152.374C45.814 152.244 45.8333 152.113 45.8333 151.983C45.8318 151.281 45.2678 150.593 44.6955 150.256C44.2753 150.01 43.8387 149.812 43.4 149.597L43.1537 149.464C44.8761 150.136 46.4866 150.996 47.7392 152.519C47.9279 152.75 48.1595 152.844 48.3932 152.844C48.8496 152.844 49.3149 152.482 49.4912 152.056L49.6268 151.702C49.7883 152.197 50.0043 152.676 50.2942 153.128C51.4488 154.927 53.2502 156.082 55.2321 156.808C59.7844 158.479 64.8697 158.445 69.6544 158.516C75.5051 158.604 81.3293 159.192 87.1625 159.608C86.7532 159.61 86.3433 159.612 85.934 159.612C84.5214 159.612 83.1093 159.602 81.6989 159.583C69.9051 159.429 57.444 159.29 46.1334 155.605C46.0139 155.566 45.8995 155.547 45.7935 155.547C44.7574 155.547 44.4146 157.245 45.5758 157.622C51.4717 159.542 57.6144 160.322 63.7704 160.879C70.1108 161.455 76.5057 161.641 82.8705 161.687C83.728 161.693 84.5853 161.696 85.4423 161.696C90.9376 161.696 96.4352 161.553 101.909 161.062C104.942 160.787 107.971 160.451 111.008 160.239C113.564 160.066 116.035 159.851 118.285 158.524C119.268 157.945 118.667 156.564 117.755 156.564C117.587 156.564 117.409 156.611 117.227 156.716C115.487 157.744 113.51 158.004 111.522 158.145C112.766 157.872 113.96 157.439 115.019 156.705C117.581 154.926 118.605 151.343 118.458 148.364L118.435 148.037C118.987 149.503 119.408 151.019 119.647 152.57C119.792 153.52 120.197 154.743 120.199 155.791C120.199 156.027 120.18 156.253 120.132 156.466C120.132 156.468 120.131 156.469 120.131 156.469C120.13 156.472 120.13 156.475 120.129 156.477C120.127 156.492 120.125 156.509 120.125 156.526C120.125 156.782 120.459 157.097 120.728 157.123C120.74 157.123 120.752 157.125 120.763 157.125C120.764 157.125 120.764 157.123 120.765 157.123C120.864 157.123 120.951 157.08 121.005 156.974C121.008 156.968 121.011 156.963 121.014 156.956C121.101 156.761 121.154 156.553 121.185 156.338C121.934 156.865 122.242 157.403 122.243 157.929C122.245 159.858 118.098 161.613 116.462 161.999C109.584 163.62 92.6548 163.775 85.3345 163.892C85.1511 163.893 84.9666 163.897 84.783 163.899C84.7647 163.899 84.7469 163.9 84.7284 163.9C84.6946 163.9 84.6607 163.9 84.6259 163.9C83.382 163.917 82.1375 163.927 80.8929 163.927C80.8921 163.927 80.8913 163.927 80.8913 163.927Z" fill="#AEC0C2"/>
<path d="M101.746 131.096C101.746 131.096 101.745 131.096 101.744 131.096C99.7616 129.654 97.7959 128.08 97.6484 125.47C97.7959 128.08 99.7631 129.651 101.746 131.096Z" fill="#727272"/>
<path d="M97.6492 125.47C97.6492 125.464 97.6492 125.461 97.6484 125.455C97.6492 125.461 97.6492 125.467 97.6492 125.47Z" fill="#727272"/>
<path d="M81.7422 121.932C81.3071 121.421 80.8515 120.946 80.3818 120.558C81.0514 120.833 81.4702 121.317 81.7422 121.932Z" fill="#CFDDDF"/>
<path d="M125.414 91.8951C128.367 91.8033 131.32 91.6695 134.257 91.297C131.319 91.6695 128.368 91.801 125.414 91.8951Z" fill="#727272"/>
<path d="M39.6476 91.2265C38.3078 90.1743 36.4881 90.0316 34.8822 89.4255C36.4896 90.0316 38.3108 90.1705 39.6513 91.2252C39.6498 91.2252 39.6491 91.2265 39.6476 91.2265ZM32.2676 84.1361C32.3369 83.0447 32.3804 81.9527 32.4077 80.8583C32.4077 80.8583 32.4084 80.8583 32.4084 80.8605C32.3811 81.954 32.3376 83.0462 32.2676 84.1361Z" fill="#727272"/>
<path d="M58.9513 83.7317C58.5936 83.7074 58.2376 83.6734 57.8857 83.6204C58.2397 83.6734 58.5981 83.7036 58.9579 83.7279C58.9556 83.7279 58.9535 83.7295 58.9513 83.7317Z" fill="#727272"/>
<path d="M63.3877 72.9155C63.3892 72.9132 63.3892 72.9094 63.3905 72.9081C63.3898 72.9094 63.3885 72.9132 63.3877 72.9155Z" fill="#727272"/>
<path d="M60.1971 133.53C62.8316 131.909 65.9418 130.036 66.7808 126.843C67.5196 124.028 66.747 120.991 64.7864 118.828C62.4865 116.296 58.9798 115.623 56.3719 113.466C53.7336 111.278 51.8587 108.437 50.7224 105.215C49.752 102.467 49.6444 99.6504 49.2742 96.7805C49.003 94.6705 48.6402 91.5412 46.5867 90.3189C45.8819 89.8998 45.118 89.7262 44.3325 89.7262C42.7621 89.7262 41.1053 90.4189 39.6513 91.2251C38.3108 90.1704 36.4896 90.0314 34.8822 89.4254C34.8785 89.4254 34.8741 89.4231 34.8704 89.4211C33.4318 88.8775 32.8597 88.192 32.5175 86.7498C32.3472 86.0342 32.2676 84.4015 32.2676 84.161C32.2676 84.1494 32.2676 84.142 32.2676 84.136C32.3376 83.0461 32.3811 81.9539 32.4084 80.8604C32.8545 81.2162 33.3765 81.47 33.9878 81.5738C34.8925 81.7282 35.6542 81.7583 36.5493 82.043C37.468 82.3365 38.3786 82.5777 39.3342 82.7093C39.7405 82.7637 40.1468 82.788 40.5508 82.788C41.9613 82.788 43.3578 82.4931 44.7389 82.1879C48.559 81.342 52.4854 80.1977 55.8719 78.1848C60.7141 75.3086 63.0226 69.686 64.4825 64.4975L64.4885 64.479C64.3579 67.331 64.1021 70.1868 63.3905 72.9081C63.3892 72.9094 63.3892 72.9132 63.3877 72.9154C63.3862 72.9228 63.3839 72.9301 63.3824 72.9382C63.3788 72.9514 63.375 72.9661 63.3714 72.9792C62.3995 76.6433 60.4883 79.3674 57.4322 81.5229C57.0488 81.6547 56.6454 81.8357 56.4752 82.1783C56.4257 82.2783 56.4029 82.3798 56.4029 82.4798C56.4021 82.6468 56.4648 82.8092 56.5724 82.9578C56.6734 83.099 56.8755 83.2609 57.0775 83.3065C57.2921 83.4565 57.5722 83.5734 57.8856 83.6205C58.2374 83.6734 58.5934 83.7073 58.9511 83.7316C56.8519 85.0194 55.0344 86.6858 53.7329 88.8282C49.738 95.4023 52.3791 104.197 57.674 109.258C63.1023 114.448 70.3812 116.465 77.6661 117.413C80.9982 117.849 84.3782 118.072 87.7596 118.072C92.4004 118.072 97.0448 117.649 101.576 116.763C108.569 115.392 114.728 112.579 119.169 106.833C122.536 102.476 124.536 97.2836 125.414 91.895C128.368 91.8008 131.319 91.6692 134.257 91.2965C133.155 94.9663 131.053 98.4279 129.067 101.671C127.01 105.022 124.548 108.241 121.44 110.696C119.039 112.59 116.308 114.059 113.324 114.79C110.961 115.365 108.533 115.667 106.183 116.302C102.03 117.425 97.6354 120.225 97.6369 125.03C97.6369 125.165 97.6407 125.303 97.6473 125.44C97.648 125.445 97.648 125.451 97.648 125.455C97.6488 125.461 97.6488 125.464 97.6488 125.47C97.7962 128.08 99.7619 129.654 101.745 131.096C100.498 130.646 99.231 130.271 97.9385 129.998C93.3368 129.025 88.2566 130.085 84.8663 126.103C84.0684 125.163 82.9861 123.396 81.7421 121.932C81.4701 121.317 81.0513 120.833 80.3818 120.558C79.6473 119.95 78.8768 119.553 78.0908 119.553C77.3012 119.553 76.4952 119.954 75.6945 120.942C73.9478 123.098 73.9744 126.087 71.8382 128.057C69.829 129.908 67.2646 130.527 64.7635 131.431C63.1553 132.011 61.6526 132.724 60.1971 133.53Z" fill="#AEC0C2"/>
<path d="M31.2496 30.0603C31.3123 30.4073 31.6979 30.411 31.9531 30.5199C32.2082 30.6264 32.4876 30.6853 32.7781 30.7221C38.0774 30.2713 43.5299 30.6117 48.8351 30.6155C51.8103 30.6155 54.7854 30.617 57.7606 30.6191C60.2558 30.6191 62.8446 30.4683 65.3256 30.8597H65.5587C65.9429 30.4389 66.2009 30.0307 66.2834 29.391C66.3387 28.9547 66.3306 28.484 66.1022 28.0966L65.7341 27.6752C63.9218 27.8936 62.066 27.8759 60.2329 27.8575C59.6895 27.8524 59.1483 27.8473 58.6107 27.8481C55.6282 27.8554 52.6464 27.8648 49.664 27.8663C44.24 27.8686 38.7801 28.0392 33.3577 27.7987C32.6019 28.1201 31.7842 28.3297 31.3956 29.1093C31.2423 29.4181 31.1877 29.722 31.2496 30.0603Z" fill="#ECFAFF"/>
<path d="M65.0861 30.8235C63.7625 30.633 62.4095 30.5905 61.0595 30.5905C62.4103 30.5905 63.7625 30.633 65.0861 30.8235ZM44.0218 30.5515C42.4026 30.5199 40.7783 30.489 39.1576 30.489C40.779 30.489 42.4026 30.5199 44.0218 30.5515ZM64.7896 27.7686C64.7896 27.7686 64.7888 27.7679 64.7888 27.7671C65.1044 27.7413 65.4208 27.7119 65.7341 27.6752C65.4208 27.7134 65.1059 27.7436 64.7896 27.7686Z" fill="#727272"/>
<path d="M65.5588 30.8597H65.3256C65.2528 30.8486 65.1797 30.8369 65.1067 30.8266C65.0993 30.8258 65.0927 30.8243 65.0861 30.8235C63.7625 30.633 62.4103 30.5905 61.0595 30.5905C61.0573 30.5905 61.055 30.5905 61.0535 30.5905C61.0522 30.5905 61.0507 30.5905 61.0491 30.5905C60.4953 30.5905 59.9425 30.5978 59.3917 30.6044C58.8452 30.6117 58.3003 30.6191 57.7606 30.6191C54.7854 30.617 51.8104 30.6155 48.8352 30.6155C47.2411 30.614 45.6344 30.5831 44.0218 30.5515C42.4026 30.5199 40.779 30.489 39.1576 30.489C39.1554 30.489 39.1539 30.489 39.1517 30.489C39.1502 30.489 39.1488 30.489 39.1473 30.489C37.0901 30.489 35.0366 30.5389 33.006 30.703C32.9293 30.7089 32.8541 30.7155 32.7782 30.7221C32.4877 30.6853 32.2082 30.6264 31.9531 30.5199C31.698 30.411 31.3123 30.4073 31.2497 30.0603C31.2327 29.9675 31.2246 29.8778 31.2246 29.7895C31.2253 29.5557 31.2843 29.3335 31.3957 29.1093C31.4849 28.9312 31.5977 28.7857 31.7253 28.6591C31.7909 29.1189 32.1234 29.5344 32.7258 29.5344H64.031C65.047 29.5344 65.3 28.3562 64.7896 27.7686C65.1059 27.7436 65.4208 27.7134 65.7341 27.6752L66.1022 28.0966C66.2592 28.3636 66.3123 28.6687 66.3123 28.9754C66.3123 29.1151 66.3004 29.2548 66.2834 29.391C66.2009 30.0307 65.9429 30.4389 65.5588 30.8597Z" fill="#CFDDDF"/>
<path d="M125.771 87.9833C123.427 87.9884 121.08 88.0884 118.735 88.1392C113.691 88.2445 108.701 88.0716 103.663 87.7738C93.8572 87.192 83.8906 87.3244 74.1511 85.7711C74.0067 85.7461 73.8857 85.4284 74.0942 85.4452C78.9778 85.8652 83.8396 86.3999 88.7364 86.6183C93.5932 86.8324 98.4582 86.714 103.318 86.8721C108.047 87.0265 112.747 87.2773 117.479 87.2412C119.915 87.2221 122.351 87.2692 124.786 87.3163C126.588 87.3537 128.619 88.0547 130.341 87.2472L130.41 87.356C128.969 88.201 127.336 87.9811 125.771 87.9833Z" fill="#727272"/>
<path d="M35.6794 87.2147C38.8551 88.4664 42.4142 88.4046 45.7293 87.7383C47.4332 87.3934 49.1622 86.5991 50.6997 85.8062C51.9421 85.168 54.0634 84.69 54.7631 83.4118L54.9416 83.5338C54.4726 84.9539 53.4101 85.8556 52.1375 86.5667C51.2896 87.0419 50.4275 87.4994 49.542 87.9C50.0987 88.0729 50.5389 88.5157 50.7195 89.2195C51.2084 91.125 50.6842 93.2924 50.8301 95.2442C51.2239 100.504 53.5531 105.43 57.1882 109.226C61.1971 113.411 66.4278 115.435 72.0271 116.512C74.9183 117.067 77.8565 117.375 80.7617 117.854C84.0582 118.398 87.4073 118.854 90.74 118.385C90.8801 118.365 91.0518 118.637 90.8661 118.673C88.0634 119.214 85.2653 119.174 82.4316 118.932C79.4802 118.676 76.5109 118.37 73.58 117.936C68.3227 117.156 63.2595 115.55 59.0279 112.257C55.2984 109.352 52.4295 105.411 50.8463 100.966C50.0589 98.7539 49.7029 96.4291 49.663 94.089C49.6453 93.0365 49.7463 91.9892 49.8584 90.9463C49.9799 89.8131 50.1459 88.459 48.5716 88.6496L48.1964 88.4539C47.6205 88.6665 47.0344 88.8489 46.4313 88.9902C42.8477 89.8167 38.7371 89.596 35.6211 87.4691C35.4972 87.3838 35.4766 87.136 35.6794 87.2147Z" fill="#727272"/>
<path d="M51.9073 141.784C53.764 137.958 56.4309 135.091 60.0838 132.928C63.1318 131.124 66.4138 129.748 69.4671 127.961C72.4976 126.188 74.231 123.618 72.7179 120.144L72.9223 120.095C74.6831 122.621 74.8807 125.309 72.5697 127.533C70.3069 129.716 67.0295 130.938 64.2806 132.376C60.1132 134.555 56.2894 136.855 53.6328 140.845C50.9549 144.868 49.7477 149.564 49.2221 154.314C49.2015 154.493 48.944 154.325 48.9493 154.193C49.1122 149.89 50.0197 145.674 51.9073 141.784Z" fill="#727272"/>
<path d="M56.4359 158.13C66.9473 158.988 77.3983 159.13 87.94 159.004C93.0144 158.943 98.0931 158.765 103.154 158.393C105.75 158.201 108.327 157.885 110.903 157.507C112.221 157.313 114.416 157.748 115.294 156.469L115.418 156.575C115.003 157.623 113.455 157.829 112.481 158.015C110.207 158.446 107.97 158.968 105.671 159.271C100.338 159.975 94.9256 160.147 89.5526 160.244C78.5427 160.446 67.4288 159.629 56.4889 158.405C56.3489 158.388 56.2345 158.115 56.4359 158.13Z" fill="#727272"/>
<path d="M58.8152 146.039C59.6483 143.445 61.32 141.161 63.3306 139.342C65.3796 137.49 67.7695 136.162 70.2439 134.972C72.8784 133.707 75.9767 132.246 77.2942 129.462C77.4477 129.138 77.9617 129.367 77.8643 129.703C77.1379 132.212 76.116 134.063 74.1142 135.806C72.0401 137.61 69.494 138.714 67.271 140.308C65.1304 141.844 63.4752 143.84 62.1575 146.101C61.4933 147.24 61.0685 148.466 60.6423 149.709C60.1306 151.194 59.9264 152.855 59.2406 154.263C59.0754 154.602 58.4812 154.619 58.3204 154.263C57.2432 151.87 58.0446 148.444 58.8152 146.039Z" fill="white"/>
<path d="M61.4061 93.3579C61.5122 92.8459 64.6379 93.516 64.6379 93.9609C64.6379 96.7805 64.6364 99.4318 65.8729 101.415C67.0644 103.329 68.7132 104.794 70.5513 106.076C74.3501 108.721 79.3948 110.6 84.0267 110.896C84.5349 110.93 84.5253 111.63 84.0267 111.676C78.5241 112.185 73.1563 111.182 68.4557 108.207C64.4121 105.649 59.9918 100.208 61.4061 93.3579Z" fill="white"/>
<path d="M70.4944 155.813C75.1913 155.668 79.9102 155.886 84.6071 156.006C89.2611 156.129 93.9181 156.112 98.5686 156.292L98.6001 156.53C94.1718 157.255 89.6703 157.3 85.1903 157.185C80.2906 157.062 75.363 156.776 70.4944 156.208C70.246 156.177 70.2318 155.82 70.4944 155.813Z" fill="white"/>
<path d="M45.3495 76.5361C48.481 75.4285 49.5958 74.1576 52.3815 71.5144C54.9246 69.103 54.8959 64.4071 54.9814 61.1881C55.2174 52.1958 55.0987 43.0961 55.752 34.1288C55.788 33.6287 58.5899 34.2303 58.5796 34.7341C58.4778 39.4681 58.34 44.3389 58.2375 49.3114C58.1439 53.8505 58.0708 58.4278 57.7936 62.9598C57.5657 66.6722 56.4362 70.2099 53.7906 72.9214C52.4966 74.2482 50.5456 75.0865 48.8844 75.83C47.0034 76.675 46.4718 76.5434 44.5016 77.1553C43.9906 77.3135 44.8946 76.6957 45.3495 76.5361Z" fill="white"/>
<mask id="path-38-inside-1_4169_5827" fill="white">
<path fill-rule="evenodd" clip-rule="evenodd" d="M39 77.9992C39 53.1871 59.1871 33 84 33C108.813 33 129 53.1871 129 77.9992C129 102.813 108.813 123 84 123C59.1871 123 39 102.813 39 77.9992ZM120.455 77.9993C120.43 57.925 104.076 41.5714 84 41.5445C63.9241 41.5714 47.57 57.925 47.5452 77.9993C47.57 98.0757 63.9244 114.429 84.0008 114.454C104.076 114.429 120.43 98.0757 120.455 77.9993Z"/>
</mask>
<path fill-rule="evenodd" clip-rule="evenodd" d="M39 77.9992C39 53.1871 59.1871 33 84 33C108.813 33 129 53.1871 129 77.9992C129 102.813 108.813 123 84 123C59.1871 123 39 102.813 39 77.9992ZM120.455 77.9993C120.43 57.925 104.076 41.5714 84 41.5445C63.9241 41.5714 47.57 57.925 47.5452 77.9993C47.57 98.0757 63.9244 114.429 84.0008 114.454C104.076 114.429 120.43 98.0757 120.455 77.9993Z" fill="#FF6C6C"/>
<path d="M84 41.5445L84.001 40.7445L83.9989 40.7445L84 41.5445ZM120.455 77.9993L121.255 78.0003V77.9983L120.455 77.9993ZM47.5452 77.9993L46.7452 77.9983L46.7452 78.0003L47.5452 77.9993ZM84.0008 114.454L83.9998 115.254H84.0018L84.0008 114.454ZM84 32.2C58.7453 32.2 38.2 52.7453 38.2 77.9992H39.8C39.8 53.6289 59.6289 33.8 84 33.8V32.2ZM129.8 77.9992C129.8 52.7453 109.255 32.2 84 32.2V33.8C108.371 33.8 128.2 53.6289 128.2 77.9992H129.8ZM84 123.8C109.255 123.8 129.8 103.255 129.8 77.9992H128.2C128.2 102.371 108.371 122.2 84 122.2V123.8ZM38.2 77.9992C38.2 103.255 58.7452 123.8 84 123.8V122.2C59.6289 122.2 39.8 102.371 39.8 77.9992H38.2ZM83.9989 42.3445C103.634 42.3708 119.63 58.3671 119.655 78.0003L121.255 77.9983C121.229 57.4829 104.518 40.772 84.001 40.7445L83.9989 42.3445ZM48.3452 78.0003C48.3695 58.3671 64.3661 42.3708 84.001 42.3445L83.9989 40.7445C63.4821 40.772 46.7706 57.4829 46.7452 77.9983L48.3452 78.0003ZM84.0018 113.654C64.3664 113.63 48.3695 97.6336 48.3452 77.9983L46.7452 78.0003C46.7706 98.5177 63.4824 115.229 83.9998 115.254L84.0018 113.654ZM119.655 77.9983C119.631 97.6336 103.633 113.63 83.9998 113.654L84.0018 115.254C104.518 115.229 121.229 98.5177 121.255 78.0003L119.655 77.9983Z" fill="#3D3D3C" mask="url(#path-38-inside-1_4169_5827)"/>
<rect x="60.5657" y="60" width="8.2" height="58.2" transform="rotate(-45 60.5657 60)" fill="#FF6C6C" stroke="#3D3D3C" stroke-width="0.8"/>
</svg>
