<svg width="167" height="165" viewBox="0 0 167 165" fill="none" xmlns="http://www.w3.org/2000/svg">
<path d="M158.925 67.6853C161.853 62.8607 162.854 56.9686 161.894 51.4272C161.856 51.2053 161.81 50.9843 161.756 50.764C161.346 48.8407 161.031 47.2784 160.094 45.6447C159.999 45.4405 159.901 45.2379 159.8 45.0364C159.698 44.8353 159.594 44.6354 159.486 44.4371C155.61 37.2977 147.779 32.4419 139.614 32.1154C138.225 19.0529 129.027 7.10622 116.692 2.34441C104.357 -2.41701 89.4423 0.221985 79.5253 8.92053C69.0466 1.13092 54.5685 -1.03185 42.2436 3.35094C29.9189 7.73373 20.1196 18.53 17.0102 31.1516C16.0594 35.0111 15.6629 39.1011 13.6787 42.5518C12.1812 45.1564 9.88679 47.1988 7.92585 49.48C1.66701 56.7608 -1.15056 66.839 0.43317 76.2795C2.01689 85.7205 7.97292 94.3485 16.2711 99.2243C9.64197 108.26 11.9679 122.493 21.135 128.986C26.3998 132.716 33.4219 134.143 37.4337 139.179C39.14 141.321 40.1287 143.932 41.6093 146.233C46.6439 154.057 57.8314 157.26 66.2912 153.3L111.226 141.965C126.329 143.167 141.836 138.266 153.457 128.617C157.766 125.04 161.638 120.7 163.505 115.442C165.371 110.184 164.926 103.888 161.343 99.5943C169.803 90.9471 168.593 74.9791 158.925 67.6853Z" fill="#FFCFCF"/>
<mask id="mask0_4168_4364" style="mask-type:alpha" maskUnits="userSpaceOnUse" x="0" y="0" width="167" height="155">
<path d="M158.925 67.6853C161.853 62.8607 162.854 56.9686 161.894 51.4272C161.856 51.2053 161.81 50.9843 161.756 50.764C161.346 48.8407 161.031 47.2784 160.094 45.6447C159.999 45.4405 159.901 45.2379 159.8 45.0364C159.698 44.8353 159.594 44.6354 159.486 44.4371C155.61 37.2977 147.779 32.4419 139.614 32.1154C138.225 19.0529 129.027 7.10622 116.692 2.34441C104.357 -2.41701 89.4423 0.221985 79.5253 8.92053C69.0466 1.13092 54.5685 -1.03185 42.2436 3.35094C29.9189 7.73373 20.1196 18.53 17.0102 31.1516C16.0594 35.0111 15.6629 39.1011 13.6787 42.5518C12.1812 45.1564 9.88679 47.1988 7.92585 49.48C1.66701 56.7608 -1.15056 66.839 0.43317 76.2795C2.01689 85.7205 7.97292 94.3485 16.2711 99.2243C9.64197 108.26 11.9679 122.493 21.135 128.986C26.3998 132.716 33.4219 134.143 37.4337 139.179C39.14 141.321 40.1287 143.932 41.6093 146.233C46.6439 154.057 57.8314 157.26 66.2912 153.3L111.226 141.965C126.329 143.167 141.836 138.266 153.457 128.617C157.766 125.04 161.638 120.7 163.505 115.442C165.371 110.184 164.926 103.888 161.343 99.5943C169.803 90.9471 168.593 74.9791 158.925 67.6853Z" fill="#FFE1E1"/>
</mask>
<g mask="url(#mask0_4168_4364)">
<path d="M31.5178 100.279C23.5453 100.971 11.7666 105.709 11.7666 105.709V155H165.994V122C165.994 122 147.251 111.762 134.056 110.722C113.827 109.126 105.163 128.268 84.8881 127.43C61.4946 126.464 54.8425 98.2517 31.5178 100.279Z" fill="#F8B7B7"/>
</g>
<path d="M105.459 6.45974C105.459 6.45974 105.501 6.41349 105.597 6.33587C105.693 6.26027 105.853 6.16094 106.089 6.09257C106.323 6.02541 106.638 5.99646 106.993 6.0785C107.346 6.15612 107.744 6.36121 108.041 6.73923C108.342 7.1092 108.543 7.62998 108.569 8.2151C108.6 8.80223 108.433 9.44286 108.116 10.0577C107.466 11.2855 106.341 12.4746 104.902 13.5548C104.181 14.0969 103.379 14.612 102.521 15.1248C101.661 15.6351 100.75 16.1579 99.7666 16.6469C98.7817 17.1303 97.7269 17.5932 96.5774 17.9249C96.0049 18.0958 95.4084 18.2306 94.7929 18.317C94.1785 18.4107 93.5426 18.4461 92.8986 18.4196C92.2615 18.4047 91.5711 18.3222 90.9974 17.9366C90.7175 17.7415 90.4932 17.4432 90.4225 17.0981C90.3461 16.7543 90.4148 16.3948 90.5505 16.0767C90.8239 15.4304 91.3261 14.9181 91.832 14.4331C92.344 13.9461 92.91 13.5025 93.5016 13.0811C94.6933 12.2474 95.9655 11.4713 97.2735 10.671C98.5883 9.88683 99.9934 9.13964 101.546 8.66109C102.321 8.42261 103.131 8.2537 103.962 8.19218C104.789 8.13266 105.65 8.16604 106.471 8.42462C107.277 8.67837 108.092 9.13924 108.538 9.91739C109.003 10.6859 108.958 11.6776 108.585 12.4803C108.22 13.3051 107.522 13.9445 106.751 14.4106C105.972 14.8763 105.115 15.2072 104.231 15.465C102.456 15.9693 100.56 16.1036 98.6602 15.9966C96.7566 15.8909 94.8465 15.5531 92.9234 15.173C91.9612 14.9828 90.9897 14.7769 90.0348 14.4745C89.5582 14.3221 89.0853 14.1476 88.6261 13.936C88.1694 13.7285 87.703 13.4788 87.3552 13.0779C87.1837 12.8796 87.0496 12.6315 87.0138 12.3616C86.9704 12.0922 87.0329 11.8143 87.15 11.5758C87.393 11.0969 87.8188 10.749 88.2661 10.4904C89.171 9.95559 90.2246 9.74688 91.2603 9.64473C93.3407 9.47623 95.4584 9.4694 97.5908 9.66283C98.6562 9.76377 99.7248 9.91337 100.785 10.139C101.316 10.2472 101.843 10.3807 102.369 10.5246C102.89 10.669 103.436 10.8327 103.892 11.1797C104.337 11.5195 104.683 12.087 104.573 12.6858C104.46 13.285 103.966 13.6855 103.495 13.967C102.517 14.5159 101.431 14.861 100.311 15.0069C99.75 15.0777 99.1815 15.0954 98.6147 15.062C98.0507 15.0246 97.477 14.949 96.9321 14.7492C96.3954 14.5545 95.8607 14.2312 95.5563 13.7072C95.2439 13.1852 95.2894 12.5116 95.5628 11.9945C96.1037 10.9332 97.3417 10.324 98.527 10.4333C99.1186 10.4884 99.713 10.7426 100.108 11.2083C100.498 11.6679 100.698 12.278 100.645 12.8804C100.618 13.1808 100.522 13.48 100.35 13.7362C100.179 13.9935 99.9332 14.193 99.6618 14.3346C99.1108 14.6124 98.4689 14.6422 97.8809 14.5083C97.2991 14.3756 96.7034 14.049 96.4332 13.4603C96.3011 13.1667 96.3328 12.7951 96.5258 12.5297C96.714 12.2623 97.0057 12.0954 97.3121 12.0194C97.9427 11.8811 98.5412 12.0813 99.1084 12.2325C99.6813 12.401 100.253 12.6222 100.756 12.9689C101.259 13.3111 101.679 13.7965 101.902 14.3728C102.135 14.9442 102.108 15.6303 101.803 16.1768C101.507 16.7253 101.026 17.15 100.489 17.4472C99.9548 17.752 99.3518 17.9342 98.7403 18.0037C97.5152 18.1453 96.2373 17.8393 95.2138 17.1419C94.1854 16.4519 93.4049 15.432 92.9384 14.2943C92.476 13.1643 92.2924 11.8594 92.6938 10.6598C92.8888 10.0634 93.272 9.52047 93.7856 9.14727C94.2984 8.77247 94.9005 8.55933 95.4999 8.41134C96.7058 8.11858 97.9488 8.08159 99.1665 8.12703C100.383 8.18896 101.604 8.23722 102.797 8.53079C103.977 8.81712 105.13 9.43401 105.842 10.4454C106.195 10.9465 106.408 11.5461 106.447 12.1541C106.485 12.7618 106.379 13.371 106.164 13.9332C105.738 15.0721 104.87 15.9801 103.912 16.6698C103.43 17.0197 102.92 17.3229 102.401 17.6032C101.883 17.8835 101.353 18.1441 100.803 18.3609C99.7118 18.7992 98.4904 19.0184 97.3222 18.7903C96.1561 18.5784 95.0866 18.0584 94.1115 17.4452C93.1363 16.8259 92.2428 16.0634 91.572 15.1272C90.893 14.1962 90.5062 13.0766 90.4034 11.9506C90.2933 10.8206 90.4765 9.68213 90.8532 8.62931C91.2347 7.57649 91.8401 6.60651 92.615 5.80906C93.389 5.0108 94.3053 4.35771 95.3036 3.89001C96.304 3.42674 97.3775 3.13478 98.4648 3.03384C99.5533 2.93492 100.652 3.05637 101.687 3.35757C102.714 3.66964 103.703 4.22501 104.35 5.09324C104.995 5.96067 105.256 7.02716 105.335 8.05666C105.464 10.1305 105.07 12.1919 104.27 14.0438C103.868 14.9687 103.375 15.8503 102.762 16.6405C102.149 17.4275 101.404 18.1196 100.531 18.5977C99.6569 19.0678 98.6615 19.3216 97.6765 19.2568C96.6863 19.2013 95.7591 18.7562 95.0302 18.1433C94.2886 17.5348 93.6852 16.8086 93.0823 16.1052C92.4846 15.3974 91.9084 14.6563 91.5488 13.8017C91.3741 13.3742 91.2615 12.9206 91.24 12.4606C91.2209 12.0005 91.2957 11.5429 91.4358 11.1126C91.7186 10.2484 92.2265 9.49272 92.7925 8.81993C93.9266 7.47314 95.4263 6.43802 97.091 6.02542C98.7415 5.61161 100.538 5.80906 101.93 6.6777C103.333 7.53306 104.271 8.91121 104.814 10.334C105.364 11.7652 105.544 13.2906 105.354 14.7291C105.167 16.1643 104.542 17.5276 103.514 18.4602C102.487 19.396 101.186 19.8814 99.9328 20.1383C98.6704 20.3832 97.4128 20.4689 96.2227 20.2948C95.0322 20.1319 93.9392 19.6131 93.1351 18.8579C92.3233 18.1087 91.769 17.1777 91.4541 16.2315C91.1368 15.282 91.0697 14.3112 91.1819 13.4209C91.4001 11.6269 92.2269 10.1732 93.1265 9.13159C94.0404 8.08481 95.0281 7.41121 95.8542 6.94995C96.6863 6.4907 97.3677 6.23333 97.8273 6.07528C98.2885 5.91885 98.5318 5.86134 98.5318 5.86134C98.5318 5.86134 98.4733 5.88305 98.3559 5.92045C98.2381 5.95624 98.0638 6.01496 97.8346 6.09579C97.3779 6.25987 96.701 6.52287 95.8753 6.98694C95.0558 7.45183 94.0769 8.12824 93.1741 9.17221C92.2867 10.2097 91.4728 11.6559 91.2636 13.4305C91.1563 14.3112 91.2258 15.2683 91.5415 16.2029C91.8543 17.1351 92.4037 18.0508 93.2037 18.7847C93.9969 19.5247 95.0651 20.0294 96.239 20.187C97.4104 20.3563 98.6602 20.269 99.9089 20.0237C101.149 19.7672 102.427 19.2846 103.428 18.3681C104.429 17.456 105.038 16.1237 105.221 14.7114C105.405 13.2966 105.225 11.7926 104.682 10.3843C104.144 8.9836 103.219 7.634 101.851 6.80356C100.497 5.96066 98.7435 5.76885 97.1292 6.17542C95.5035 6.58078 94.0318 7.59701 92.9177 8.92329C92.361 9.58683 91.8661 10.3284 91.5943 11.1624C91.4598 11.5783 91.3891 12.0158 91.4078 12.4537C91.4289 12.8917 91.5366 13.3256 91.7056 13.7378C92.0534 14.563 92.6191 15.2929 93.2147 15.9958C93.8169 16.6972 94.4182 17.417 95.1415 18.0094C95.8558 18.6066 96.7387 19.0272 97.6887 19.0807C98.6342 19.1422 99.598 18.8969 100.444 18.4409C101.29 17.9768 102.016 17.302 102.617 16.5299C103.217 15.7545 103.703 14.8839 104.099 13.9718C104.887 12.1465 105.273 10.1072 105.145 8.07113C105.067 7.06214 104.81 6.03144 104.194 5.20664C103.58 4.38224 102.631 3.84578 101.63 3.54216C100.62 3.2494 99.5468 3.13076 98.4823 3.22808C97.4189 3.32741 96.3678 3.61375 95.3885 4.06777C93.4406 4.98145 91.7784 6.62341 91.0429 8.69727C90.6764 9.72436 90.4985 10.8347 90.6061 11.9325C90.7073 13.0276 91.0803 14.1069 91.739 15.0102C92.3907 15.9186 93.2639 16.665 94.2224 17.273C95.1829 17.8775 96.2325 18.3846 97.3588 18.5885C98.4855 18.8068 99.6541 18.5989 100.726 18.169C101.265 17.9571 101.788 17.7001 102.301 17.4218C102.814 17.1444 103.317 16.8452 103.788 16.5029C104.728 15.8261 105.56 14.949 105.967 13.8604C106.174 13.322 106.273 12.7417 106.237 12.1682C106.2 11.5947 106.001 11.037 105.668 10.564C104.996 9.60813 103.894 9.01135 102.745 8.73306C101.586 8.44673 100.367 8.39687 99.1588 8.33615C97.9504 8.29111 96.7274 8.3285 95.5503 8.61443C94.9664 8.7584 94.3902 8.96511 93.9111 9.31578C93.4337 9.66404 93.079 10.1639 92.8941 10.7273C92.5142 11.8598 92.6845 13.1197 93.1347 14.2159C93.5865 15.3186 94.3435 16.3055 95.3321 16.969C96.3141 17.6386 97.5416 17.9318 98.7159 17.7962C99.3018 17.7299 99.8772 17.5558 100.385 17.2658C100.895 16.9843 101.346 16.5814 101.617 16.0795C101.893 15.5796 101.918 14.9748 101.706 14.4468C101.5 13.9155 101.112 13.4627 100.636 13.1394C100.16 12.8112 99.6098 12.5965 99.0491 12.4316C98.4879 12.2784 97.9041 12.0966 97.3616 12.2205C97.0987 12.2852 96.8476 12.4324 96.6981 12.6472C96.5457 12.8599 96.5197 13.141 96.6262 13.3815C96.848 13.8721 97.3864 14.1882 97.9284 14.3072C98.4758 14.4331 99.0726 14.4021 99.5663 14.1516C100.066 13.9091 100.401 13.4088 100.439 12.8619C100.487 12.319 100.303 11.7556 99.9499 11.3406C99.5976 10.9236 99.0552 10.6875 98.5075 10.6368C97.4051 10.5323 96.2402 11.1085 95.7461 12.085C95.497 12.5627 95.4605 13.1474 95.7347 13.6083C96.0009 14.07 96.4909 14.3752 97.0028 14.5602C97.5193 14.7504 98.0739 14.8248 98.6277 14.8618C99.1815 14.8948 99.737 14.8775 100.285 14.8087C101.378 14.6675 102.447 14.3269 103.392 13.7965C103.846 13.5283 104.287 13.1527 104.377 12.6504C104.472 12.1529 104.176 11.6438 103.771 11.335C103.354 11.0173 102.834 10.8564 102.315 10.7128C101.793 10.5701 101.271 10.4374 100.744 10.3296C99.6923 10.1052 98.631 9.95599 97.5725 9.85505C95.4556 9.66122 93.3415 9.66725 91.279 9.83294C90.2559 9.93227 89.2299 10.1382 88.3624 10.6509C87.9301 10.8994 87.536 11.2284 87.3182 11.6575C87.0894 12.0829 87.1735 12.6045 87.4974 12.9592C87.8123 13.3236 88.2544 13.5665 88.7037 13.7703C89.1548 13.9783 89.6204 14.1504 90.0909 14.3016C91.0336 14.6012 91.9986 14.8067 92.9591 14.9973C94.8794 15.3789 96.781 15.7163 98.6704 15.8233C100.555 15.9315 102.433 15.7996 104.185 15.3037C105.056 15.0504 105.904 14.7238 106.665 14.2698C107.418 13.8158 108.088 13.1997 108.436 12.4143C108.793 11.6458 108.833 10.7144 108.399 9.99581C107.984 9.26631 107.206 8.81952 106.424 8.57261C105.628 8.32046 104.789 8.28588 103.973 8.34338C103.155 8.4029 102.357 8.56779 101.59 8.80224C100.055 9.27315 98.659 10.0119 97.347 10.7917C96.0423 11.5871 94.7648 12.3636 93.58 13.1892C92.9912 13.6071 92.4297 14.0458 91.9222 14.5268C91.4188 15.0065 90.9279 15.5096 90.6671 16.1245C90.5375 16.4273 90.4757 16.7603 90.5444 17.0724C90.6082 17.3856 90.8089 17.6555 91.0685 17.8381C91.6028 18.2 92.2733 18.2881 92.9035 18.3025C93.5398 18.3303 94.1679 18.2965 94.7766 18.2052C95.3861 18.1212 95.9781 17.9893 96.5466 17.8208C97.6883 17.4942 98.7391 17.0366 99.7215 16.5576C100.703 16.073 101.613 15.5539 102.474 15.0472C103.332 14.538 104.133 14.0269 104.852 13.4897C106.287 12.4203 107.411 11.2409 108.06 10.0292C108.377 9.42275 108.544 8.79379 108.516 8.21752C108.494 7.64245 108.299 7.13011 108.008 6.76536C107.72 6.39297 107.333 6.18949 106.986 6.10946C106.638 6.02581 106.327 6.05035 106.095 6.11348C105.624 6.2486 105.467 6.47663 105.459 6.45974Z" fill="#040606"/>
<path d="M135.82 39.6168C135.82 39.6168 135.88 39.6009 136.003 39.5883C136.125 39.5779 136.314 39.5822 136.549 39.654C136.782 39.7257 137.061 39.8736 137.313 40.1364C137.566 40.3941 137.787 40.7834 137.829 41.2622C137.878 41.7361 137.761 42.282 137.463 42.7863C137.168 43.2949 136.677 43.7399 136.075 44.0813C134.859 44.7536 133.266 45.1342 131.47 45.2521C130.57 45.3122 129.617 45.3051 128.617 45.2651C127.618 45.2224 126.57 45.1624 125.479 45.0341C124.39 44.9005 123.253 44.7115 122.109 44.361C121.536 44.1912 120.963 43.978 120.401 43.7139C119.835 43.4566 119.283 43.1387 118.759 42.7644C118.234 42.4038 117.701 41.9575 117.432 41.321C117.304 41.0047 117.28 40.6323 117.409 40.3048C117.533 39.9752 117.788 39.7118 118.075 39.5197C118.658 39.1281 119.359 38.9737 120.048 38.8441C120.743 38.7163 121.46 38.6543 122.186 38.6248C123.64 38.5782 125.13 38.6238 126.663 38.6686C128.192 38.7308 129.778 38.8732 131.34 39.3213C132.119 39.545 132.889 39.8461 133.618 40.2488C134.343 40.6511 135.046 41.1498 135.591 41.8147C136.127 42.4677 136.558 43.299 136.505 44.1945C136.474 45.0919 135.893 45.8975 135.142 46.3656C134.385 46.8567 133.45 47.0105 132.55 46.9794C131.643 46.9433 130.744 46.7518 129.863 46.4848C128.101 45.937 126.44 45.0128 124.908 43.885C123.373 42.7561 121.959 41.4293 120.557 40.0601C119.855 39.375 119.155 38.6716 118.521 37.8966C118.205 37.5085 117.905 37.1039 117.636 36.6759C117.367 36.2525 117.114 35.7885 117.042 35.2628C117.007 35.0031 117.031 34.7221 117.148 34.4766C117.259 34.2273 117.464 34.0289 117.692 33.8932C118.158 33.625 118.705 33.5665 119.221 33.5946C120.271 33.6414 121.267 34.0425 122.19 34.523C124.024 35.519 125.801 36.6707 127.48 37.9981C128.317 38.6648 129.129 39.3741 129.893 40.1424C130.279 40.5232 130.647 40.923 131.008 41.3309C131.365 41.7365 131.733 42.1722 131.925 42.7121C132.112 43.2398 132.09 43.9036 131.671 44.3451C131.248 44.785 130.615 44.8501 130.066 44.8281C128.948 44.7534 127.85 44.4488 126.832 43.9586C126.324 43.7114 125.838 43.4155 125.382 43.0778C124.93 42.7382 124.491 42.3613 124.145 41.8962C123.802 41.4399 123.531 40.877 123.563 40.272C123.587 39.6642 123.994 39.1252 124.506 38.8417C125.54 38.2488 126.91 38.4154 127.842 39.1548C128.307 39.5242 128.666 40.0619 128.741 40.6674C128.816 41.2654 128.649 41.8854 128.276 42.361C128.089 42.5979 127.844 42.7957 127.56 42.916C127.276 43.038 126.961 43.0708 126.657 43.041C126.043 42.9725 125.49 42.6466 125.071 42.2131C124.656 41.784 124.336 41.1851 124.432 40.5445C124.482 40.2266 124.712 39.9328 125.019 39.8161C125.323 39.695 125.659 39.7148 125.957 39.8186C126.56 40.0474 126.952 40.5422 127.344 40.9788C127.731 41.433 128.088 41.9304 128.32 42.4957C128.554 43.0574 128.64 43.6929 128.511 44.2975C128.394 44.9034 127.995 45.4626 127.441 45.7536C126.892 46.0507 126.257 46.1435 125.646 46.0992C125.031 46.0621 124.427 45.8851 123.877 45.6091C122.774 45.058 121.871 44.1034 121.396 42.9602C120.913 41.8204 120.818 40.5401 121.05 39.3327C121.282 38.1339 121.842 36.9411 122.835 36.1562C123.325 35.7636 123.942 35.5185 124.577 35.4867C125.211 35.4532 125.832 35.6039 126.415 35.8076C127.584 36.2216 128.645 36.8699 129.64 37.5735C130.624 38.2901 131.62 38.9982 132.458 39.8956C133.289 40.7802 133.917 41.9273 133.959 43.1626C133.98 43.7751 133.83 44.3934 133.53 44.9238C133.23 45.4536 132.807 45.9057 132.319 46.2586C131.34 46.9793 130.116 47.2654 128.936 47.3187C128.342 47.3487 127.749 47.3236 127.161 47.2746C126.574 47.2262 125.987 47.1543 125.408 47.0353C124.255 46.806 123.112 46.3219 122.259 45.4926C121.399 44.6778 120.788 43.658 120.308 42.6116C119.83 41.5602 119.499 40.4335 119.45 39.2831C119.392 38.1326 119.681 36.9839 120.211 35.9851C120.737 34.9789 121.514 34.1259 122.405 33.4504C123.301 32.7776 124.339 32.2964 125.424 32.0523C126.509 31.8071 127.633 31.7611 128.725 31.9152C129.816 32.0741 130.875 32.4164 131.84 32.9262C132.806 33.4383 133.659 34.1402 134.361 34.9584C135.049 35.7806 135.574 36.7866 135.639 37.8665C135.705 38.9454 135.34 39.981 134.842 40.8861C133.815 42.6925 132.357 44.2031 130.674 45.3164C129.831 45.8708 128.936 46.3394 127.99 46.6661C127.046 46.9898 126.043 47.162 125.05 47.0848C124.062 47.0009 123.089 46.6693 122.3 46.0767C121.502 45.4891 120.969 44.6096 120.694 43.6981C120.407 42.7835 120.299 41.8457 120.179 40.9273C120.066 40.0081 119.99 39.0727 120.156 38.1608C120.244 37.7074 120.398 37.2662 120.632 36.8692C120.868 36.4737 121.181 36.1314 121.534 35.8478C122.244 35.2788 123.082 34.9238 123.925 34.6699C125.611 34.1623 127.433 34.1154 129.053 34.6798C130.661 35.2354 132.057 36.3825 132.746 37.8705C133.452 39.3532 133.484 41.0199 133.16 42.508C132.836 44.0064 132.152 45.382 131.206 46.4823C130.263 47.5815 128.994 48.3815 127.623 48.6001C126.252 48.8226 124.897 48.5179 123.707 48.0479C122.516 47.5629 121.416 46.9473 120.515 46.1511C119.608 45.3641 118.977 44.3324 118.717 43.2607C118.447 42.1897 118.493 41.1075 118.747 40.1432C119.001 39.1749 119.477 38.3255 120.058 37.6414C121.222 36.2588 122.71 35.4937 124.034 35.1134C125.372 34.7365 126.567 34.7125 127.511 34.7778C128.459 34.8481 129.17 35.0051 129.642 35.1239C130.113 35.245 130.349 35.3299 130.349 35.3299C130.349 35.3299 130.288 35.3161 130.169 35.2832C130.051 35.2488 129.873 35.2027 129.637 35.1451C129.164 35.0328 128.454 34.883 127.509 34.8203C126.568 34.7616 125.378 34.7929 124.051 35.1734C122.74 35.557 121.267 36.3228 120.121 37.6942C119.549 38.3728 119.083 39.2121 118.836 40.167C118.588 41.1184 118.546 42.1852 118.814 43.2369C119.073 44.2899 119.691 45.2962 120.588 46.0698C121.476 46.8517 122.57 47.4618 123.749 47.9388C124.928 48.4018 126.262 48.6965 127.602 48.4762C128.939 48.2598 130.178 47.4773 131.104 46.3947C132.033 45.3111 132.705 43.9534 133.021 42.4774C133.338 41.0113 133.302 39.3755 132.612 37.933C131.939 36.487 130.576 35.3682 129.002 34.8262C127.42 34.2771 125.631 34.3235 123.973 34.8249C123.144 35.0761 122.323 35.4265 121.639 35.9761C121.299 36.2507 121 36.5784 120.776 36.9552C120.554 37.3334 120.407 37.7555 120.323 38.193C120.162 39.0739 120.236 39.9941 120.35 40.9081C120.47 41.8244 120.58 42.7557 120.861 43.6469C121.132 44.5372 121.641 45.372 122.407 45.9359C123.165 46.5042 124.106 46.8256 125.063 46.906C126.026 46.9798 127.004 46.8122 127.929 46.494C128.856 46.1729 129.739 45.7096 130.57 45.1626C132.228 44.0649 133.668 42.5688 134.675 40.7943C135.162 39.907 135.511 38.9036 135.447 37.8766C135.385 36.8509 134.883 35.8828 134.211 35.0814C133.526 34.2843 132.693 33.5987 131.748 33.0983C130.804 32.6003 129.767 32.2655 128.699 32.1104C126.568 31.8107 124.278 32.2768 122.527 33.611C121.658 34.2706 120.901 35.1028 120.39 36.0808C119.876 37.0528 119.597 38.1603 119.654 39.2764C119.703 40.3931 120.025 41.4952 120.495 42.5281C120.968 43.5591 121.569 44.5573 122.4 45.3435C123.224 46.1422 124.316 46.6068 125.449 46.8327C126.016 46.9498 126.594 47.0204 127.176 47.0682C127.758 47.1164 128.342 47.1406 128.924 47.1115C130.081 47.0585 131.258 46.7793 132.195 46.0902C132.662 45.7522 133.063 45.3211 133.347 44.821C133.629 44.3205 133.769 43.7451 133.749 43.1674C133.71 41.9998 133.113 40.8977 132.303 40.0365C131.49 39.1636 130.497 38.4557 129.519 37.7444C128.532 37.0462 127.488 36.4091 126.346 36.0051C125.778 35.8065 125.183 35.6647 124.59 35.6964C123.999 35.727 123.429 35.9516 122.966 36.3223C122.028 37.0627 121.481 38.2105 121.257 39.3743C121.032 40.5444 121.126 41.7843 121.59 42.8801C122.046 43.9774 122.913 44.8937 123.97 45.422C124.497 45.6867 125.074 45.8554 125.658 45.8905C126.239 45.9333 126.837 45.8425 127.338 45.5702C127.843 45.303 128.195 44.8102 128.306 44.252C128.425 43.6946 128.348 43.1035 128.126 42.5728C127.907 42.038 127.564 41.5575 127.185 41.113C126.799 40.6781 126.41 40.2068 125.888 40.014C125.633 39.9245 125.342 39.9105 125.099 40.0086C124.855 40.1034 124.68 40.3245 124.637 40.584C124.554 41.116 124.832 41.6749 125.221 42.0708C125.61 42.4753 126.126 42.7756 126.677 42.8356C127.228 42.9056 127.782 42.67 128.113 42.2328C128.451 41.8049 128.605 41.2326 128.537 40.692C128.47 40.1503 128.145 39.6562 127.714 39.3145C126.849 38.6244 125.558 38.4702 124.61 39.0176C124.14 39.2814 123.789 39.7509 123.767 40.2867C123.737 40.8186 123.98 41.342 124.307 41.7766C124.635 42.2181 125.059 42.5835 125.502 42.9172C125.948 43.2475 126.422 43.5366 126.919 43.7784C127.911 44.2578 128.992 44.5567 130.074 44.6294C130.601 44.6529 131.175 44.5792 131.526 44.2082C131.878 43.8437 131.908 43.2554 131.738 42.7757C131.564 42.2821 131.216 41.8627 130.86 41.4589C130.502 41.0545 130.137 40.6578 129.755 40.2796C128.997 39.517 128.19 38.812 127.36 38.149C125.693 36.8297 123.92 35.6793 122.103 34.6908C121.192 34.2148 120.221 33.8264 119.214 33.7815C118.716 33.7533 118.206 33.8133 117.788 34.0535C117.364 34.2846 117.149 34.7673 117.226 35.2412C117.29 35.7183 117.527 36.1633 117.792 36.5796C118.056 37.0001 118.351 37.3987 118.662 37.7825C119.288 38.5485 119.983 39.2479 120.683 39.9325C122.081 41.3015 123.489 42.6233 125.012 43.7455C126.531 44.8662 128.174 45.7818 129.912 46.3243C130.78 46.5883 131.669 46.7784 132.555 46.8142C133.433 46.8457 134.332 46.6961 135.053 46.2289C135.773 45.7807 136.316 45.023 136.346 44.1842C136.397 43.3463 135.991 42.5474 135.471 41.913C134.943 41.2671 134.26 40.7794 133.545 40.3816C132.828 39.9846 132.069 39.686 131.299 39.4635C129.756 39.0185 128.183 38.8741 126.658 38.8098C125.13 38.7627 123.636 38.7146 122.192 38.7582C121.471 38.7862 120.76 38.8466 120.072 38.9719C119.388 39.0984 118.702 39.2513 118.147 39.6235C117.873 39.8061 117.639 40.0511 117.525 40.3499C117.407 40.6471 117.428 40.9827 117.545 41.2774C117.794 41.8724 118.307 42.3126 118.827 42.6691C119.344 43.0401 119.889 43.3552 120.448 43.6114C121.005 43.8742 121.572 44.0873 122.14 44.2569C123.275 44.6076 124.405 44.7987 125.49 44.9347C126.577 45.0654 127.623 45.1284 128.62 45.1743C129.618 45.2174 130.568 45.2272 131.464 45.1702C133.251 45.0596 134.837 44.6862 136.044 44.0269C136.641 43.692 137.125 43.2567 137.417 42.7594C137.713 42.2656 137.831 41.7305 137.786 41.2657C137.749 40.7965 137.537 40.4147 137.29 40.1583C137.044 39.8977 136.771 39.7484 136.542 39.6747C136.074 39.5304 135.817 39.6351 135.82 39.6168Z" fill="#040606"/>
<path d="M53.5535 35.2276C53.5535 35.2276 53.58 35.1489 53.6558 35.003C53.7337 34.8591 53.8764 34.6524 54.1286 34.4428C54.3789 34.2358 54.7485 34.0321 55.2265 33.9423C55.6992 33.8484 56.2956 33.8855 56.8606 34.1876C57.4252 34.4782 57.9492 35.0056 58.2939 35.7048C58.6456 36.404 58.7835 37.2743 58.7238 38.1937C58.5838 40.0384 57.843 42.0897 56.6605 44.176C56.069 45.2221 55.3634 46.279 54.5873 47.3631C53.8085 48.445 52.9743 49.5693 52.0325 50.6914C51.0863 51.8074 50.0437 52.9357 48.8153 53.9547C48.2066 54.4692 47.5491 54.9524 46.8426 55.3869C46.1415 55.8296 45.3828 56.2127 44.5812 56.5247C43.7942 56.8472 42.9061 57.1158 41.9987 56.9523C41.5523 56.8642 41.1187 56.6203 40.848 56.2374C40.571 55.859 40.4631 55.384 40.4592 54.9236C40.4485 53.9895 40.789 53.0963 41.1486 52.2346C41.5146 51.3671 41.9699 50.5236 42.4682 49.6935C43.4803 48.0399 44.6215 46.4134 45.7935 44.7384C46.9825 43.0793 48.3016 41.4171 49.945 40.0034C50.7646 39.2986 51.6646 38.6597 52.6477 38.1404C53.6275 37.6255 54.6985 37.2057 55.8397 37.0823C56.9609 36.9607 58.2035 37.0868 59.165 37.7968C60.1437 38.4853 60.618 39.7185 60.5905 40.8966C60.5847 42.0973 60.0725 43.2501 59.3789 44.2305C58.6747 45.2149 57.8031 46.0768 56.8606 46.8634C54.9597 48.4271 52.7123 49.605 50.3325 50.4901C47.9484 51.379 45.4325 51.9884 42.8782 52.5532C41.6001 52.8357 40.3023 53.1041 38.9733 53.2459C38.3092 53.3149 37.6377 53.355 36.9633 53.3426C36.2941 53.3337 35.5904 53.2786 34.9511 52.9758C34.6356 52.8257 34.3391 52.5949 34.1513 52.285C33.9543 51.9798 33.8825 51.6075 33.8982 51.2542C33.9396 50.5403 34.2746 49.8885 34.6835 49.3341C35.5044 48.1982 36.6812 47.3804 37.8931 46.7021C40.3468 45.3844 42.9326 44.2438 45.6432 43.3396C46.9998 42.893 48.3863 42.5041 49.803 42.2124C50.5101 42.0603 51.2257 41.9413 51.9455 41.8358C52.6595 41.7333 53.4151 41.6406 54.1583 41.8198C54.8838 41.9963 55.609 42.5034 55.7951 43.2919C55.9769 44.0829 55.5861 44.8356 55.1601 45.4308C54.2578 46.6228 53.1145 47.6239 51.8222 48.4011C51.1744 48.7871 50.4888 49.1126 49.7779 49.375C49.0683 49.6309 48.3265 49.8455 47.5535 49.8931C46.7933 49.9428 45.9668 49.8345 45.315 49.3583C44.6542 48.889 44.3502 48.0434 44.4085 47.2666C44.5031 45.6835 45.6916 44.2788 47.1993 43.7785C47.9521 43.5293 48.8146 43.5214 49.5457 43.8782C50.268 44.2301 50.8382 44.867 51.0957 45.6295C51.2233 46.0101 51.2653 46.4264 51.1914 46.8308C51.1197 47.2361 50.9261 47.6105 50.6698 47.9282C50.1445 48.5616 49.3754 48.9411 48.585 49.0922C47.8027 49.2415 46.9 49.1618 46.2553 48.5885C45.9371 48.3011 45.7774 47.8312 45.8717 47.4044C45.959 46.9777 46.2266 46.6183 46.5606 46.3618C47.2578 45.856 48.0965 45.7801 48.8708 45.6612C49.6613 45.5604 50.4779 45.5246 51.2786 45.6781C52.0769 45.8262 52.8487 46.1938 53.4297 46.7769C54.0199 47.3489 54.3524 48.2002 54.2716 49.0294C54.2018 49.8568 53.8408 50.6316 53.3437 51.2807C52.8526 51.9382 52.2126 52.4827 51.502 52.8945C50.0797 53.722 48.3538 54.0321 46.73 53.7292C45.1041 53.4376 43.6052 52.6115 42.4274 51.4738C41.2587 50.3433 40.3374 48.8504 40.1878 47.1732C40.1078 46.3418 40.2865 45.475 40.7152 44.7454C41.1421 44.0143 41.7646 43.4325 42.4184 42.9316C43.7367 41.9299 45.2367 41.2203 46.7499 40.6246C48.27 40.0499 49.7897 39.4555 51.4041 39.1761C52.9997 38.8943 54.7401 39.0295 56.1495 39.8824C56.8488 40.3046 57.4292 40.9218 57.8016 41.6423C58.1732 42.3625 58.3688 43.162 58.4057 43.9626C58.493 45.5788 57.9171 47.1497 57.1129 48.5033C56.7114 49.1871 56.2493 49.8296 55.7645 50.4488C55.2807 51.0675 54.771 51.6689 54.2145 52.2271C53.1146 53.3449 51.7382 54.2651 50.1881 54.6117C48.649 54.9768 47.0638 54.9146 45.544 54.6882C44.0209 54.4545 42.5213 54.0026 41.2012 53.2198C39.874 52.4478 38.8033 51.2896 38.0764 49.9717C37.3384 48.6528 36.9547 47.1668 36.8531 45.6818C36.7575 44.1941 36.9799 42.6878 37.5016 41.3013C38.0218 39.9142 38.7935 38.628 39.7645 37.524C40.7403 36.4244 41.897 35.4944 43.1726 34.79C44.4508 34.0874 45.8586 33.6483 47.2858 33.4618C48.7074 33.2935 50.2141 33.4415 51.4676 34.1546C52.7197 34.8672 53.6086 36.0278 54.2551 37.2407C55.5194 39.7005 56.1385 42.4244 56.1495 45.1098C56.1515 46.4525 56.0195 47.7908 55.6922 49.0819C55.3627 50.3692 54.821 51.6114 54.0081 52.6615C53.1909 53.7017 52.1092 54.5434 50.8704 54.991C49.63 55.4528 48.2585 55.4057 47.04 55.0482C45.8085 54.7028 44.6829 54.14 43.5701 53.6048C42.4614 53.0614 41.3612 52.4658 40.4653 51.6162C40.0234 51.1884 39.6436 50.6955 39.3716 50.1461C39.1026 49.5954 38.9497 48.9975 38.8914 48.3979C38.7758 47.193 38.9933 46.0002 39.3262 44.8773C39.9938 42.6289 41.2749 40.565 43.0901 39.1719C44.8872 37.785 47.1891 37.0653 49.355 37.3801C51.5267 37.6731 53.4102 38.8515 54.8341 40.2958C56.2699 41.7471 57.3049 43.5104 57.8404 45.3659C58.3777 47.2159 58.3419 49.212 57.5824 50.8988C56.827 52.5885 55.4953 53.8759 54.0998 54.8594C52.687 55.833 51.195 56.6098 49.6469 57.0338C48.1042 57.4717 46.4908 57.4236 45.1044 56.9327C43.7117 56.4533 42.537 55.6146 41.6468 54.6292C40.7518 53.6413 40.1515 52.4935 39.8133 51.348C39.1223 49.0441 39.3571 46.8296 39.901 45.0787C40.4595 43.3139 41.3076 41.9645 42.0714 40.9604C42.8437 39.9556 43.5394 39.2775 44.017 38.8391C44.4973 38.4018 44.7642 38.2016 44.7642 38.2016C44.7642 38.2016 44.7043 38.2593 44.5807 38.3677C44.4557 38.4743 44.2739 38.6391 44.0369 38.8602C43.566 39.3044 42.8787 39.987 42.117 40.9942C41.3631 41.9992 40.5274 43.3472 39.9808 45.1028C39.4497 46.8422 39.2267 49.0405 39.9183 51.3161C40.2574 52.4473 40.8533 53.577 41.7383 54.5477C42.6186 55.517 43.7792 56.3397 45.1493 56.8068C46.5141 57.2849 48.0897 57.3291 49.6092 56.8937C51.1319 56.4738 52.6136 55.6992 54.0093 54.7325C55.3887 53.7567 56.694 52.4849 57.4284 50.8324C58.1656 49.1851 58.199 47.2351 57.668 45.4156C57.1382 43.592 56.1146 41.8547 54.6985 40.4281C53.2938 39.0076 51.4415 37.857 49.3263 37.5755C47.2199 37.2721 44.9737 37.9756 43.2169 39.3344C41.4455 40.6978 40.1886 42.7237 39.5344 44.9364C39.208 46.043 38.9988 47.2117 39.1118 48.374C39.1693 48.9528 39.3165 49.5241 39.5732 50.048C39.8328 50.5707 40.1961 51.0422 40.6229 51.4544C41.4887 52.2745 42.57 52.862 43.6737 53.4006C44.7844 53.9338 45.904 54.4899 47.1046 54.8254C48.2969 55.1716 49.6011 55.2124 50.7912 54.7697C51.9802 54.3392 53.0277 53.5248 53.8181 52.5168C54.6047 51.4987 55.1332 50.2873 55.4553 49.0248C55.7751 47.7586 55.9045 46.4373 55.9019 45.1135C55.8902 42.4669 55.2739 39.774 54.0303 37.36C53.3962 36.1715 52.5314 35.0524 51.3384 34.3759C50.1475 33.699 48.7 33.5526 47.3138 33.7177C45.9224 33.9008 44.5474 34.3297 43.2977 35.0175C42.0505 35.7072 40.9181 36.6183 39.9632 37.6954C38.0693 39.8508 36.9134 42.7414 37.1214 45.6632C37.2217 47.1114 37.5969 48.5603 38.3147 49.8412C39.023 51.1222 40.0554 52.2388 41.343 52.9879C42.6249 53.747 44.0911 54.1902 45.5877 54.4191C47.0849 54.6424 48.6389 54.6996 50.125 54.346C51.6193 54.0098 52.9371 53.1316 54.0182 52.0343C54.5638 51.4879 55.0661 50.895 55.5455 50.2811C56.0248 49.6684 56.4796 49.0349 56.8727 48.3659C57.6605 47.0382 58.2102 45.5237 58.1263 43.979C58.0912 43.2121 57.9036 42.4512 57.5527 41.7715C57.2009 41.0923 56.6606 40.5183 56.0012 40.1196C54.6691 39.3135 53.0026 39.1752 51.4485 39.4505C49.8792 39.7207 48.3621 40.3117 46.8521 40.8837C45.3505 41.4749 43.8751 42.1744 42.5884 43.1523C41.9514 43.64 41.3572 44.2001 40.9587 44.8838C40.5609 45.5636 40.394 46.3627 40.4688 47.1485C40.6089 48.7323 41.4897 50.1774 42.6255 51.2733C43.7667 52.3762 45.2192 53.1747 46.7822 53.4551C48.3405 53.7464 49.9979 53.4476 51.3614 52.6545C52.0424 52.2603 52.6529 51.7404 53.1196 51.1151C53.5924 50.4995 53.9287 49.7671 53.9916 49.0105C54.0631 48.2531 53.7705 47.5024 53.2287 46.9723C52.6932 46.4347 51.977 46.0901 51.2226 45.9503C50.4656 45.8046 49.6782 45.8369 48.9046 45.9357C48.1367 46.0489 47.3257 46.1394 46.7286 46.5805C46.4417 46.7999 46.2132 47.1136 46.1451 47.4554C46.0723 47.7963 46.1906 48.1529 46.4492 48.3892C46.9824 48.8687 47.8094 48.9663 48.5357 48.8216C49.2722 48.6824 49.9855 48.3256 50.4553 47.7562C50.9365 47.1935 51.0793 46.4043 50.8335 45.7173C50.6032 45.0293 50.0773 44.4408 49.4235 44.1238C48.7701 43.8037 47.9808 43.8059 47.2841 44.037C45.8804 44.4989 44.7637 45.8243 44.6808 47.279C44.6314 47.9946 44.8988 48.7271 45.4802 49.1423C46.0521 49.5629 46.8143 49.6731 47.539 49.6249C48.2721 49.5807 48.9899 49.3749 49.6869 49.1239C50.3816 48.868 51.0516 48.5499 51.6846 48.1732C52.9461 47.4165 54.0709 46.4299 54.9438 45.2777C55.3556 44.708 55.6936 44.0146 55.5362 43.3537C55.3869 42.6964 54.7524 42.2342 54.0927 42.074C53.4138 41.9094 52.691 41.9918 51.9799 42.0941C51.2662 42.1988 50.5565 42.3164 49.8546 42.4667C48.449 42.7553 47.0716 43.1409 45.7235 43.5837C43.0316 44.4792 40.4498 45.6169 38.0164 46.9216C36.8184 47.5897 35.6739 48.3893 34.8869 49.4782C34.491 50.0124 34.1847 50.6242 34.1475 51.2638C34.095 51.9048 34.4763 52.4958 35.0616 52.7551C35.6412 53.0309 36.3114 53.0907 36.9698 53.099C37.6322 53.1114 38.2935 53.0723 38.9495 53.0051C40.2621 52.8664 41.5518 52.601 42.828 52.3198C45.3798 51.7584 47.8851 51.1531 50.2524 50.2734C52.6149 49.3975 54.8398 48.233 56.7174 46.6917C57.6473 45.9171 58.5098 45.0656 59.198 44.1051C59.8762 43.149 60.3665 42.0396 60.3729 40.8959C60.3993 39.768 59.9513 38.6109 59.037 37.9667C58.1392 37.2995 56.9503 37.1704 55.8616 37.2877C54.7542 37.4057 53.7093 37.8123 52.7424 38.3187C51.7745 38.8283 50.8858 39.4565 50.074 40.152C48.4479 41.5471 47.1357 43.194 45.9478 44.8462C44.7772 46.5136 43.6298 48.1434 42.6219 49.7835C42.1251 50.6077 41.6727 51.4428 41.3089 52.3006C40.9495 53.1547 40.618 54.0305 40.6273 54.9196C40.6305 55.3581 40.7328 55.7971 40.9833 56.1409C41.2286 56.4887 41.6181 56.7104 42.033 56.7942C42.8796 56.9498 43.7464 56.6987 44.5247 56.3794C45.3175 56.0731 46.0676 55.696 46.7631 55.2593C47.4634 54.831 48.1169 54.3536 48.722 53.8443C49.9437 52.8357 50.9841 51.7159 51.9297 50.6067C52.8708 49.4912 53.707 48.3714 54.4883 47.2937C55.2662 46.214 55.9726 45.1626 56.5646 44.1232C57.749 42.052 58.4929 40.0133 58.6404 38.1886C58.7032 37.2802 58.5716 36.4241 58.2306 35.736C57.8958 35.0471 57.3847 34.5262 56.8333 34.2375C56.2822 33.9375 55.7006 33.8962 55.2341 33.984C54.7631 34.0684 54.3962 34.2645 54.1467 34.4653C53.643 34.8818 53.572 35.2441 53.5535 35.2276Z" fill="#040606"/>
<path d="M69.3124 7.97747C69.3124 7.97747 69.3714 7.89663 69.5075 7.7545C69.6461 7.6153 69.8796 7.42542 70.2392 7.26835C70.5966 7.1136 71.0899 7.00336 71.6691 7.05984C72.2442 7.10997 72.916 7.35217 73.464 7.88861C74.0164 8.4123 74.4424 9.19488 74.606 10.116C74.7772 11.0386 74.6462 12.0879 74.2715 13.1289C73.4951 15.2107 71.9579 17.3327 69.9 19.3475C68.87 20.3583 67.7047 21.3436 66.4488 22.3375C65.1898 23.3271 63.8529 24.348 62.3942 25.3299C60.9313 26.3029 59.3542 27.2579 57.6005 28.0244C56.728 28.4152 55.81 28.7536 54.8524 29.0193C53.8976 29.296 52.8975 29.485 51.8711 29.5773C50.8581 29.6869 49.7502 29.6991 48.7703 29.2125C48.2915 28.9642 47.8808 28.5451 47.6992 28.0215C47.5094 27.4998 47.5417 26.9227 47.689 26.3937C47.9851 25.3197 48.6722 24.4034 49.3738 23.5289C50.0834 22.6493 50.888 21.8278 51.7386 21.0354C52.59 20.243 53.492 19.4828 54.4108 18.7192C55.3297 17.9567 56.2596 17.1811 57.2224 16.4189C59.1457 14.8986 61.218 13.4202 63.5789 12.3365C64.7573 11.797 66.0049 11.3598 67.3077 11.089C68.6056 10.8221 69.9746 10.6951 71.324 10.9325C71.996 11.0489 72.6611 11.2465 73.2796 11.5562C73.8965 11.8641 74.4702 12.2913 74.8915 12.8522C75.7801 13.9618 75.9163 15.5283 75.4954 16.8711C75.0922 18.2453 74.1255 19.3994 73.0039 20.2969C71.8691 21.1962 70.5789 21.9002 69.2334 22.4931C66.5274 23.6638 63.5485 24.2743 60.5133 24.5019C57.4715 24.7325 54.3694 24.597 51.2357 24.3963C49.6683 24.296 48.0836 24.1733 46.5068 23.8941C45.7196 23.752 44.9342 23.5747 44.1632 23.3355C43.3967 23.1025 42.6106 22.8048 41.9853 22.251C41.6769 21.9766 41.4195 21.62 41.3096 21.2106C41.1869 20.8037 41.2265 20.362 41.3595 19.9667C41.6396 19.1711 42.2343 18.5359 42.8861 18.0348C44.2007 17.0038 45.8226 16.4523 47.4423 16.0743C50.7061 15.3714 54.067 14.9157 57.4905 14.7762C59.2015 14.7127 60.9279 14.7262 62.6567 14.8624C63.5216 14.9225 64.3855 15.0241 65.249 15.1415C66.1064 15.2618 67.001 15.4068 67.7857 15.8552C68.1753 16.08 68.5191 16.3866 68.7733 16.7619C69.0258 17.1342 69.1828 17.5901 69.1539 18.0507C69.1332 18.5114 68.943 18.9483 68.6785 19.3127C68.4159 19.6825 68.0829 19.991 67.7322 20.2682C66.3032 21.3386 64.6562 22.1125 62.9147 22.5772C62.0433 22.806 61.1479 22.9532 60.2442 23.0187C59.3437 23.0773 58.422 23.0775 57.5241 22.8765C56.6384 22.6816 55.735 22.2843 55.1558 21.5329C54.8663 21.1635 54.6942 20.708 54.6402 20.2437C54.5901 19.7778 54.662 19.305 54.8152 18.8669C55.4408 17.095 57.2585 15.8799 59.1391 15.8069C60.077 15.7702 61.0586 16.046 61.7684 16.6905C62.4718 17.3265 62.911 18.2404 62.953 19.1901C62.9726 19.6638 62.8842 20.1489 62.6697 20.5813C62.457 21.0159 62.1166 21.3769 61.7228 21.6529C60.9221 22.1997 59.9221 22.3802 58.973 22.2915C58.0334 22.2056 57.0363 21.8129 56.5012 20.9619C56.2395 20.5381 56.2141 19.9683 56.455 19.5239C56.6881 19.0769 57.105 18.7581 57.5632 18.5778C58.0271 18.4009 58.524 18.368 59.0035 18.3866C59.4856 18.4089 59.956 18.4732 60.4287 18.5426C61.3699 18.6895 62.3173 18.92 63.1804 19.3601C64.0431 19.7937 64.8007 20.4683 65.2696 21.3235C65.5011 21.7513 65.6575 22.2243 65.6973 22.714C65.7399 23.204 65.6571 23.6998 65.487 24.1583C65.1371 25.0772 64.4705 25.8448 63.6888 26.424C63.2995 26.7188 62.8781 26.9725 62.4328 27.1754C61.9911 27.3871 61.5246 27.5449 61.0498 27.6645C59.1486 28.1426 57.0704 27.9265 55.3118 27.041C53.5466 26.1669 52.1007 24.7196 51.1268 23.0205C50.6429 22.1689 50.2574 21.2523 50.0507 20.2878C49.8377 19.3278 49.7852 18.3198 49.9819 17.3425C50.1648 16.3642 50.6527 15.4348 51.3802 14.7436C52.1068 14.0487 53.0109 13.5868 53.9271 13.228C55.7731 12.5125 57.7335 12.1937 59.6745 12.0101C61.6166 11.8532 63.5668 11.674 65.5112 11.8888C67.4365 12.0947 69.3824 12.8284 70.7104 14.2706C71.3692 14.9847 71.8274 15.8807 72.0153 16.8278C72.2024 17.775 72.1624 18.7559 71.94 19.6871C71.5069 21.5694 70.3288 23.1835 68.9557 24.4758C68.2676 25.1298 67.5231 25.7171 66.7597 26.2703C65.9963 26.8235 65.2106 27.3477 64.3858 27.8052C63.5623 28.2633 62.6914 28.6446 61.7811 28.8992C60.8722 29.1577 59.9192 29.2532 58.9812 29.2109C57.0966 29.1201 55.2957 28.5218 53.622 27.754C51.9488 26.9781 50.3758 25.9586 49.1209 24.6199C47.8542 23.2913 47.0105 21.6057 46.6121 19.8479C46.2024 18.0856 46.2537 16.2476 46.6286 14.504C46.8155 13.6299 47.1052 12.7802 47.4753 11.9707C47.6485 11.5604 47.8852 11.181 48.0874 10.7852C48.3314 10.4142 48.5551 10.0292 48.8245 9.67681C49.8814 8.25237 51.194 7.02694 52.6752 6.07821C54.161 5.13617 55.7987 4.44991 57.4975 4.06263C59.1984 3.67794 60.9604 3.64054 62.6607 3.90009C64.3489 4.17871 66.0248 4.84877 67.2218 6.08072C68.4185 7.31108 69.0548 8.93968 69.3955 10.5526C70.0337 13.8084 69.8425 17.1585 68.9635 20.2595C68.52 21.809 67.924 23.3092 67.1198 24.6881C66.3145 26.0622 65.2813 27.3116 64.0015 28.2495C62.7204 29.1742 61.202 29.7826 59.6357 29.8862C58.8556 29.935 58.0658 29.8569 57.3226 29.6363C56.5765 29.421 55.8781 29.0829 55.2299 28.6818C53.9302 27.8752 52.8204 26.8499 51.7154 25.8602C50.6179 24.8629 49.5507 23.8093 48.8048 22.5356C48.4401 21.8978 48.168 21.2065 48.038 20.487C47.912 19.7666 47.9348 19.0301 48.0653 18.3216C48.3314 16.8991 48.9761 15.5973 49.7314 14.4123C51.2443 12.042 53.4015 10.0899 55.9475 9.08844C58.4724 8.08813 61.3535 8.02485 63.7347 9.10592C64.9285 9.62635 65.9731 10.4034 66.866 11.2918C67.7454 12.1958 68.4866 13.2077 69.065 14.2874C70.2352 16.4392 70.8414 18.8174 70.8425 21.1352C70.8437 22.2944 70.6646 23.4381 70.3193 24.5129C69.9734 25.5886 69.411 26.5741 68.7143 27.424C67.2871 29.1189 65.3293 30.1615 63.3962 30.8324C61.4469 31.4861 59.4694 31.8862 57.5486 31.8603C56.5903 31.8446 55.6486 31.7119 54.7705 31.4316C53.8905 31.1557 53.079 30.7401 52.3592 30.2345C50.9167 29.2192 49.8429 27.861 49.1457 26.4283C48.4434 24.9914 48.1329 23.4674 48.1223 22.0328C48.101 20.5947 48.354 19.2436 48.7497 18.0332C49.1486 16.8215 49.6929 15.7487 50.3015 14.8221C51.5303 12.9684 52.9549 11.6905 54.1679 10.7841C55.3909 9.87843 56.4177 9.32483 57.1139 8.97601C57.8122 8.62813 58.1847 8.48193 58.1847 8.48193C58.1847 8.48193 58.0951 8.52662 57.9163 8.60989C57.7365 8.69087 57.471 8.81927 57.1234 8.99504C56.4313 9.34981 55.4096 9.90839 54.1937 10.8176C52.9873 11.7276 51.5719 13.0067 50.3543 14.8556C49.7515 15.7799 49.2125 16.8491 48.8191 18.0552C48.4283 19.2598 48.1801 20.6037 48.2045 22.0316C48.2183 23.4561 48.5293 24.9658 49.2281 26.3886C49.9223 27.8075 50.9893 29.1511 52.4177 30.1529C53.837 31.166 55.6478 31.7465 57.5506 31.7513C59.4526 31.7749 61.4218 31.3742 63.3574 30.7219C65.2773 30.0531 67.2133 29.0163 68.6169 27.344C69.302 26.5058 69.8549 25.5353 70.1952 24.4729C70.5345 23.4123 70.7105 22.282 70.7081 21.1351C70.7045 18.842 70.1014 16.4845 68.9395 14.3547C68.3657 13.2857 67.631 12.2852 66.7618 11.3932C65.8787 10.5169 64.8484 9.75216 63.6734 9.241C61.3327 8.18055 58.4946 8.2438 56.0051 9.23253C53.4968 10.2213 51.3649 12.1514 49.869 14.4987C49.1217 15.6725 48.4881 16.9591 48.2294 18.3506C48.1017 19.0437 48.0808 19.7597 48.2035 20.4582C48.3302 21.1558 48.5949 21.8283 48.9519 22.4517C49.6823 23.6978 50.7375 24.7412 51.8319 25.734C52.9364 26.7226 54.0433 27.7414 55.3228 28.5344C56.5875 29.3371 58.0928 29.8257 59.6247 29.71C61.1511 29.6084 62.6396 29.0125 63.8948 28.1054C65.1486 27.1851 66.1664 25.9552 66.9611 24.5975C67.7548 23.235 68.3457 21.7464 68.7845 20.2102C69.6545 17.1371 69.8413 13.8099 69.2088 10.5915C68.872 8.99913 68.2441 7.40555 67.0828 6.21351C65.9234 5.0208 64.2897 4.36379 62.6277 4.09024C60.9538 3.8357 59.2176 3.87297 57.5403 4.25253C55.865 4.63546 54.2488 5.3132 52.7831 6.24324C51.3216 7.18004 50.0278 8.38958 48.9866 9.79289C48.721 10.14 48.5011 10.5195 48.2609 10.8851C48.0624 11.2749 47.8289 11.6481 47.6586 12.0523C47.2951 12.8493 47.0098 13.6857 46.826 14.5465C46.4574 16.2629 46.4073 18.0727 46.8107 19.8034C47.2034 21.5307 48.0282 23.1782 49.2715 24.4819C50.5035 25.7956 52.0542 26.8019 53.7098 27.5692C55.3674 28.3293 57.1469 28.918 58.991 29.006C59.91 29.0468 60.8363 28.9539 61.7259 28.7012C62.6159 28.4521 63.4714 28.0778 64.2846 27.6251C65.0991 27.1734 65.8779 26.6538 66.6364 26.1036C67.3949 25.5539 68.1323 24.9716 68.8114 24.3265C70.1673 23.0495 71.3148 21.4711 71.7359 19.6403C71.9522 18.7342 71.9899 17.7824 71.8094 16.8696C71.6275 15.9562 71.1893 15.0998 70.5543 14.4109C69.9214 13.7186 69.1165 13.1857 68.2479 12.8064C67.3783 12.4232 66.4384 12.2055 65.4863 12.0965C63.5761 11.8842 61.6285 12.0613 59.6939 12.2185C57.7626 12.4012 55.8221 12.7182 54.004 13.4227C53.1023 13.7755 52.2231 14.2281 51.5267 14.8942C50.8314 15.556 50.3665 16.4389 50.1892 17.3828C49.9994 18.3247 50.0496 19.3055 50.2575 20.2426C50.4585 21.1836 50.8358 22.0809 51.3111 22.917C52.2659 24.5838 53.6836 26.0008 55.4067 26.8536C57.1202 27.7175 59.1473 27.9278 60.9985 27.462C61.4606 27.3457 61.9145 27.1924 62.3431 26.9864C62.7757 26.7897 63.1845 26.5434 63.5616 26.2578C64.3196 25.698 64.9591 24.9555 65.2897 24.0862C65.6305 23.2193 65.541 22.2292 65.0847 21.4226C64.6383 20.6099 63.9163 19.9633 63.084 19.5452C62.2501 19.1192 61.3247 18.8927 60.3956 18.7478C59.4705 18.623 58.4999 18.4524 57.6383 18.7707C57.2221 18.9337 56.8425 19.2276 56.6408 19.6178C56.4337 20.0046 56.4532 20.4839 56.6822 20.8585C56.9062 21.2378 57.279 21.5248 57.6814 21.7292C58.0882 21.9322 58.5365 22.0433 58.9935 22.0863C59.902 22.1719 60.8566 21.9958 61.6041 21.484C61.9717 21.2265 62.2884 20.8905 62.4839 20.4906C62.6813 20.0926 62.764 19.6427 62.7459 19.1985C62.7077 18.3082 62.2907 17.4388 61.6294 16.8423C60.9678 16.2402 60.0407 15.9762 59.1464 16.0108C57.3487 16.0781 55.5987 17.251 55.0088 18.933C54.864 19.3476 54.7971 19.7905 54.8438 20.2213C54.894 20.6503 55.051 21.0689 55.3192 21.4111C55.8528 22.1056 56.7091 22.491 57.569 22.6799C58.4383 22.8749 59.3405 22.8761 60.2309 22.8184C61.1212 22.7543 62.0038 22.6096 62.8633 22.384C64.5781 21.9277 66.2087 21.1604 67.6084 20.1125C67.9487 19.844 68.2688 19.5461 68.5155 19.1987C68.7647 18.855 68.9361 18.4559 68.9547 18.0413C69.0017 17.2003 68.4067 16.4384 67.6857 16.0254C66.9442 15.6006 66.0753 15.4546 65.2206 15.3355C64.3612 15.2183 63.5018 15.117 62.641 15.0567C60.9209 14.9207 59.2021 14.9065 57.4975 14.9688C54.0897 15.1062 50.7319 15.5602 47.4855 16.258C45.8779 16.632 44.2834 17.1766 43.0026 18.1812C42.364 18.6701 41.7986 19.2828 41.5374 20.0256C41.4139 20.3936 41.3785 20.7926 41.489 21.1601C41.5884 21.5307 41.8212 21.8565 42.1107 22.1148C42.6986 22.6366 43.4592 22.9308 44.2188 23.161C44.9809 23.3977 45.7587 23.5736 46.5397 23.7153C48.104 23.9933 49.6823 24.1165 51.2478 24.2178C54.3792 24.42 57.4728 24.5566 60.5002 24.3284C63.5211 24.1039 66.481 23.4987 69.1659 22.3394C70.5 21.7529 71.7814 21.0541 72.8993 20.1692C74.005 19.2851 74.9474 18.1577 75.3389 16.8249C75.7485 15.5181 75.6155 14.0124 74.7641 12.9485C74.36 12.4093 73.8074 11.996 73.2075 11.696C72.6065 11.3945 71.9561 11.1998 71.2967 11.0854C69.9731 10.8514 68.6257 10.974 67.3388 11.2374C66.049 11.5045 64.8113 11.9363 63.6414 12.4711C61.2963 13.5445 59.2318 15.0134 57.3111 16.5289C56.3497 17.2888 55.4192 18.0629 54.4993 18.8243C53.5807 19.5863 52.6796 20.3443 51.8305 21.1324C50.9823 21.9212 50.1811 22.7374 49.4755 23.6096C48.7756 24.4789 48.0986 25.3846 47.8113 26.4262C47.6676 26.9393 47.6383 27.4892 47.8166 27.9792C47.9872 28.473 48.3709 28.8669 48.8278 29.1055C49.7656 29.5734 50.8545 29.5702 51.8607 29.4611C52.8791 29.3707 53.8725 29.1841 54.8216 28.9102C55.7738 28.6476 56.6874 28.313 57.5563 27.9252C59.303 27.1652 60.8767 26.2156 62.3377 25.2473C63.7947 24.2701 65.1316 23.2528 66.3914 22.2664C67.6479 21.2764 68.8129 20.2953 69.8423 19.2894C71.8984 17.2858 73.4352 15.1736 74.2122 13.1079C74.5872 12.0758 74.7197 11.0377 74.554 10.1253C74.3957 9.21363 73.9772 8.43817 73.4344 7.91889C72.8955 7.38651 72.2348 7.14487 71.6659 7.0915C71.0928 7.03218 70.6031 7.13789 70.248 7.28829C69.5275 7.60463 69.3267 8.00194 69.3124 7.97747Z" fill="#040606"/>
<path d="M80.094 19.9009C81.2866 12.1098 90.6783 13.144 95.1027 15.8106C98.1734 12.7247 100.269 11.2511 106.155 11.7732C110.485 12.1575 116.698 15.3013 119.335 20.1147C121.972 24.928 121.684 31.1642 118.728 35.7891C117.75 37.3189 116.461 38.8124 116.393 40.6253C116.294 43.248 118.713 45.1635 120.132 47.3736C122.51 51.0757 121.9 56.4104 118.748 59.4833C116.752 61.4299 113.873 62.5713 112.592 65.0458C111.518 67.1183 111.849 69.6145 111.358 71.8959C110.458 76.0887 106.672 79.3064 102.481 80.2582C98.2916 81.2095 93.8304 80.1516 90.0581 78.0972" fill="#1D2A30"/>
<path d="M78.6532 33.2071C79.6121 35.3414 79.6892 37.8552 78.8617 40.0437C78.0349 42.2322 76.3138 44.0691 74.1814 45.0399C76.2264 47.5735 76.5891 51.1563 75.8115 54.3156C75.034 57.4741 73.2489 60.2876 71.334 62.9194C71.334 62.9194 76.3152 70.1069 66.2895 75.3551C66.2895 75.3551 59.2522 73.1798 62.3949 62.5955C62.6181 61.846 62.6343 60.9837 62.2694 60.292C61.9198 59.6297 61.1834 59.2875 60.5269 58.9241C57.9137 57.4749 55.9076 54.9706 55.0676 52.1073C54.2276 49.244 54.5632 46.0553 55.9818 43.4287C56.3599 42.7268 56.8204 42.0432 56.9555 41.257C57.1581 40.0694 58.0664 36.9665 57.6545 35.8338C55.5038 29.9071 58.2727 22.5437 65.2402 18.8855C70.831 15.9511 77.8264 15.4661 82.1035 20.1047" fill="#1D2A30"/>
<path d="M68.8984 51.8659C66.5208 48.4054 61.853 46.6954 57.7969 47.7995C53.7401 48.9029 50.5879 52.7414 50.3008 56.9272C50.0136 61.113 52.6108 65.3435 56.4789 66.9891C53.3289 68.5965 51.8802 72.8688 53.406 76.0537C54.9311 79.2394 59.1737 80.7986 62.4052 79.3625C63.2071 82.1753 66.3608 83.8758 69.2854 83.6816C72.2092 83.4875 74.8423 81.7569 76.8395 79.616C80.9897 75.1687 82.8525 68.5987 81.2966 62.7234C79.7406 56.8481 74.6698 51.956 68.6641 50.9464" fill="#1D2A30"/>
<path d="M64.2518 47.2912C64.2423 47.286 64.2011 47.3564 64.1306 47.4963C64.0668 47.6384 63.95 47.8414 63.8495 48.1249C63.6299 48.6847 63.381 49.5376 63.2848 50.6417C63.1922 51.7415 63.262 53.1013 63.7217 54.5483C64.1578 55.9946 65.014 57.5223 66.3416 58.7832L66.3188 58.5407C65.3679 59.8214 64.6535 61.445 64.3722 63.2122C63.9794 65.6249 64.4332 68.0223 65.4347 69.8847C66.4333 71.7582 67.8931 73.0799 69.2427 73.9086C70.6011 74.7438 71.8522 75.13 72.7202 75.2948C73.157 75.3696 73.497 75.4187 73.7312 75.4252C73.9633 75.4399 74.0852 75.4414 74.0859 75.4282C74.0903 75.3886 73.6028 75.3534 72.7525 75.1498C71.9066 74.9431 70.695 74.5255 69.388 73.6807C68.0891 72.844 66.6933 71.5377 65.7468 69.7199C64.7981 67.9168 64.3715 65.6037 64.7489 63.2723C65.0213 61.5652 65.7057 59.998 66.6125 58.7583L66.7087 58.6272L66.5897 58.5158C65.3084 57.3142 64.464 55.8503 64.019 54.4538C63.5513 53.0566 63.4551 51.7349 63.5139 50.6571C63.6475 48.4818 64.3348 47.3139 64.2518 47.2912Z" fill="#365462"/>
<path d="M71.4249 48.6205C71.3201 42.4091 75.2561 35.2712 81.4903 32.2337C85.4198 30.319 88.4859 30.3065 90.552 30.068C95.1805 29.534 98.9154 31.8042 98.9154 31.8042C100.87 32.2582 108.033 38.7499 108.405 45.7937C108.818 53.619 109.01 63.1892 108.011 69.0141C106.002 80.7271 96.9 82.1242 96.9 82.1242L97.7472 101.594L80.2551 115.783L73.4439 93.2451L71.4249 48.6205Z" fill="#F9A78D"/>
<path d="M96.8991 82.1245C96.8991 82.1245 88.8657 82.5508 81.0156 77.7669C81.0156 77.7669 85.1524 86.0812 97.0287 85.1093L96.8991 82.1245Z" fill="#F57F62"/>
<path d="M73.2124 59.7608C73.2197 58.8869 72.2218 56.8158 71.3514 56.6719C69.0273 56.2882 64.8288 56.429 64.7264 62.2802C64.5866 70.2789 72.7297 68.768 72.748 68.5388C72.7622 68.3599 73.1872 62.7777 73.2124 59.7608Z" fill="#F9A78D"/>
<path d="M112.839 28.7108C110.628 33.8152 105.576 41.4509 100.043 42.1205C94.5107 42.7902 88.7034 40.338 85.3331 35.9091C84.4953 40.0252 79.917 42.2114 75.7625 42.8906C72.8254 43.3719 69.7268 43.4012 66.9638 42.2971C64.2 41.193 61.8327 38.7914 61.387 35.8542C60.9413 32.9177 65.1288 25.7048 68.0541 25.1582" fill="#1D2A30"/>
<path d="M70.5701 65.5786C70.5351 65.5525 70.4275 65.6739 70.1881 65.7777C69.9541 65.8786 69.5535 65.9446 69.1349 65.7809C68.2865 65.4564 67.5913 64.1023 67.5775 62.6602C67.5694 61.9316 67.7352 61.2411 68.0062 60.6712C68.263 60.0905 68.6522 59.6884 69.0838 59.6204C69.5128 59.5295 69.8127 59.7897 69.9082 60.0157C70.0126 60.2417 69.9582 60.4006 70.0008 60.4147C70.0232 60.4356 70.1768 60.2844 70.1174 59.953C70.087 59.7933 69.9955 59.6027 69.8078 59.4459C69.6168 59.2866 69.3332 59.2022 69.033 59.2287C68.4089 59.2613 67.8384 59.8187 67.541 60.444C67.209 61.0714 67.005 61.8471 67.014 62.6651C67.0371 64.2781 67.8445 65.8002 69.0074 66.1545C69.573 66.3109 70.0504 66.1493 70.2987 65.9647C70.5526 65.7721 70.5977 65.5935 70.5701 65.5786Z" fill="#F57F62"/>
<path d="M105.092 54.6929C104.912 54.8915 103.753 54.0985 102.145 54.1536C100.538 54.1858 99.384 55.0427 99.2036 54.8533C99.1146 54.7697 99.2926 54.4154 99.794 54.0285C100.288 53.6441 101.139 53.258 102.141 53.2298C103.143 53.2037 103.998 53.5419 104.494 53.8998C105.001 54.2598 105.18 54.6032 105.092 54.6929Z" fill="#17282F"/>
<path d="M89.3218 55.8211C89.1223 56.0004 88.0504 55.0936 86.4459 54.9858C84.8442 54.8543 83.6073 55.5886 83.4476 55.3823C83.3688 55.2898 83.5797 54.956 84.1209 54.6223C84.6524 54.2893 85.539 53.9921 86.5385 54.0661C87.5377 54.1417 88.3527 54.5652 88.8099 54.9717C89.2747 55.3811 89.4185 55.7414 89.3218 55.8211Z" fill="#17282F"/>
<path d="M95.5896 62.8367C95.579 62.7466 96.5733 62.5439 98.1868 62.2869C98.5959 62.2318 98.982 62.1389 99.0421 61.859C99.1294 61.5623 98.9434 61.1299 98.7288 60.6635C98.3107 59.6919 97.8731 58.6736 97.4136 57.6067C95.5843 53.2543 94.2455 49.6692 94.423 49.598C94.601 49.5264 96.2287 52.9969 98.058 57.3498C98.4992 58.4235 98.9214 59.447 99.3225 60.4262C99.4931 60.8834 99.7775 61.399 99.5874 62.0147C99.4866 62.3223 99.1924 62.5519 98.9316 62.6308C98.6707 62.7184 98.4399 62.7301 98.2372 62.7486C96.6098 62.8873 95.5985 62.9267 95.5896 62.8367Z" fill="#17282F"/>
<path d="M93.0986 65.2128C92.4956 65.3226 91.1296 66.1277 90.7781 66.7795C90.4263 67.4314 89.9553 68.4525 90.3043 69.0456C90.6022 69.5515 92.7719 68.9254 93.6854 68.7766C94.1083 68.7074 95.1465 69.2005 95.2863 68.6797L95.5414 66.8214C95.5764 65.9523 95.001 65.5703 94.4037 65.3286C93.9986 65.1641 93.5456 65.1319 93.0986 65.2128Z" fill="#F57F62"/>
<path d="M81.2941 46.9468C81.4498 46.5129 83.058 46.7075 84.9437 46.4695C86.8355 46.2688 88.3536 45.7118 88.6067 46.0983C88.7201 46.2837 88.4576 46.6927 87.8448 47.1161C87.2378 47.5384 86.2667 47.9429 85.1347 48.0756C84.0019 48.2059 82.9629 48.035 82.2738 47.7628C81.579 47.4909 81.2275 47.1531 81.2941 46.9468Z" fill="#17282F"/>
<path d="M98.1423 44.5975C98.5202 44.2879 99.7343 44.8456 101.259 45.0877C102.775 45.3753 104.115 45.2618 104.356 45.6801C104.46 45.8808 104.202 46.2093 103.586 46.4647C102.979 46.7204 102.006 46.8592 100.961 46.6782C99.9159 46.4952 99.0553 46.0372 98.5795 45.5928C98.0952 45.1456 97.9733 44.7511 98.1423 44.5975Z" fill="#17282F"/>
<path d="M94.7371 68.8055C94.7314 68.8775 94.0321 68.7757 92.9643 69.0447C92.6994 69.1115 92.4105 69.1988 92.1179 69.319C91.8221 69.4405 91.493 69.6162 91.0611 69.6536C90.8465 69.6685 90.5873 69.617 90.3927 69.4602C90.1956 69.3122 90.0733 69.0894 90.0075 68.873C89.8734 68.4355 89.9254 67.9517 90.0981 67.5274C90.2704 67.0988 90.5264 66.7473 90.8006 66.4292C91.0777 66.1135 91.3886 65.8433 91.7218 65.6422C92.3816 65.228 93.0959 65.0655 93.6814 65.0844C94.2714 65.0945 94.7265 65.2646 95.0073 65.4166C95.2917 65.5678 95.4189 65.6949 95.4063 65.7134C95.3876 65.7435 95.2312 65.6643 94.9414 65.5662C94.6546 65.4656 94.221 65.353 93.6847 65.3804C93.1516 65.3997 92.519 65.575 91.9339 65.9659C91.6385 66.1553 91.363 66.4063 91.1155 66.6962C90.8709 66.9862 90.6353 67.3195 90.4918 67.6811C90.3451 68.0402 90.309 68.4238 90.4049 68.756C90.4987 69.093 90.7352 69.288 91.0424 69.2679C91.3565 69.2531 91.6758 69.1127 91.9895 68.9957C92.3125 68.8803 92.6181 68.8067 92.9009 68.7552C94.0414 68.5497 94.7521 68.7645 94.7371 68.8055Z" fill="#17282F"/>
<path d="M73.829 68.4473C73.829 70.2251 72.3728 71.6664 70.5768 71.6664C68.7805 71.6664 67.3242 70.2251 67.3242 68.4473C67.3242 66.6694 68.7805 65.2281 70.5768 65.2281C72.3728 65.2281 73.829 66.6694 73.829 68.4473Z" fill="#33535F"/>
<path d="M90.1608 58.4096C90.1316 58.4708 89.6777 58.287 88.9216 58.1112C88.5445 58.0199 88.0882 57.9476 87.5803 57.9013C87.0708 57.8651 86.5092 57.8611 85.9233 57.9166C85.3378 57.9797 84.7885 58.0964 84.2972 58.2339C83.8088 58.3811 83.3769 58.5431 83.0262 58.708C82.3221 59.0322 81.915 59.3028 81.8739 59.2489C81.8434 59.2123 82.1913 58.852 82.8881 58.4454C83.2347 58.2399 83.6739 58.0409 84.1798 57.8659C84.6881 57.7006 85.2647 57.5659 85.8802 57.5C86.4966 57.4413 87.0882 57.4577 87.6197 57.5177C88.1508 57.5872 88.6217 57.6942 89.0032 57.8261C89.7687 58.0843 90.1832 58.3674 90.1608 58.4096Z" fill="#F57F62"/>
<path d="M123.811 165L119.138 153.356L122.132 136.053L122.943 125.835C122.791 119.242 122.225 114.15 119.475 108.144L110.933 87.2602L100.502 90.0613C100.182 88.6742 99.7532 87.3089 99.1779 86.2271C97.2279 82.5614 72.0165 83.8048 70.3859 85.1243C69.3498 85.9632 68.8391 88.9867 68.6042 91.0803L59.833 91.0333L49.4941 117.329C49.8224 118.051 56.1993 126.477 56.1993 126.477L62.5277 161.15L60.4872 164.768L123.811 165Z" fill="#6C6FC3"/>
<path d="M72.6921 95.1095C72.6779 95.1136 72.6276 94.9712 72.5484 94.7102C72.4655 94.45 72.3734 94.0652 72.2848 93.585C72.1058 92.6255 71.9953 91.2666 72.1492 89.7791C72.308 88.2915 72.699 86.9842 73.0739 86.0822C73.2602 85.6301 73.4304 85.2726 73.5656 85.035C73.6976 84.7953 73.7764 84.6666 73.7894 84.6734C73.8231 84.6899 73.5473 85.2268 73.2135 86.1348C72.8781 87.0417 72.5163 88.335 72.3596 89.8008C72.2081 91.2666 72.293 92.6058 72.4327 93.5617C72.5703 94.5184 72.7283 95.0999 72.6921 95.1095Z" fill="#17282F"/>
<path d="M79.6809 95.4584C79.6667 95.4612 79.6273 95.3064 79.568 95.0241C79.5067 94.7418 79.4393 94.3296 79.3723 93.8181C79.2367 92.795 79.1458 91.3694 79.1596 89.7966C79.1746 88.223 79.2643 86.8026 79.337 85.7763C79.3756 85.2994 79.4089 84.894 79.4357 84.5619C79.4637 84.2751 79.486 84.1171 79.5006 84.1179C79.5152 84.1187 79.5205 84.2783 79.5181 84.5663C79.5156 84.8542 79.5039 85.2704 79.486 85.7844C79.4515 86.8123 79.3861 88.2314 79.3711 89.7982C79.3573 91.3646 79.4243 92.7805 79.5209 93.802C79.6155 94.8238 79.715 95.4524 79.6809 95.4584Z" fill="#17282F"/>
<path d="M87.2103 94.1618C87.1787 94.1585 87.2201 93.5787 87.2663 92.6416C87.311 91.7055 87.3515 90.4101 87.2647 88.9849C87.1763 87.5593 86.9551 86.2833 86.7352 85.3733C86.5173 84.4628 86.3306 83.9115 86.3643 83.8998C86.3781 83.895 86.4373 84.0285 86.5331 84.2742C86.6317 84.5195 86.7514 84.8826 86.88 85.3367C87.1389 86.2443 87.3864 87.5332 87.4757 88.9721C87.5629 90.4105 87.4984 91.7143 87.4152 92.6517C87.3735 93.1206 87.3296 93.499 87.2907 93.7596C87.2525 94.0202 87.2249 94.1634 87.2103 94.1618Z" fill="#17282F"/>
<path d="M94.2834 95.1095C94.2481 95.097 94.4605 94.5135 94.685 93.5435C94.91 92.5768 95.1175 91.2051 95.0046 89.6934C94.9108 88.1793 94.4913 86.8538 94.1295 85.9301C93.7535 85.008 93.4473 84.4671 93.4822 84.4478C93.4952 84.441 93.5801 84.5708 93.7234 84.8129C93.8733 85.0518 94.0552 85.4166 94.2676 85.8734C94.6692 86.7923 95.1199 88.1367 95.2158 89.6789C95.3303 91.2183 95.0948 92.6118 94.8304 93.5789C94.7017 94.0651 94.5685 94.4504 94.4645 94.7114C94.3606 94.9728 94.2972 95.1143 94.2834 95.1095Z" fill="#17282F"/>
<path d="M101.076 94.5333C101.045 94.5357 100.987 94.0753 100.894 93.3325C100.799 92.5905 100.675 91.5647 100.433 90.4539C100.191 89.3424 99.8698 88.3591 99.644 87.6453C99.415 86.9323 99.2777 86.4884 99.3065 86.4783C99.3329 86.4691 99.5193 86.8945 99.7853 87.5971C100.048 88.3 100.394 89.2841 100.639 90.4093C100.885 91.5341 100.986 92.5704 101.043 93.318C101.097 94.0668 101.103 94.5309 101.076 94.5333Z" fill="#17282F"/>
<path d="M58.5478 49.3991L59.1492 45.2589C59.1492 45.2589 59.3032 42.1594 58.5478 40.6099C57.7921 39.06 58.7319 38.2335 60.6107 39.6797C62.4896 41.1263 62.6984 42.3661 62.6984 42.3661C62.6984 42.3661 65.5167 34.6173 66.5605 32.551C67.6043 30.4847 70.3186 26.7655 70.3186 26.7655C70.3186 26.7655 74.5983 20.2565 74.9116 20.1532C75.2245 20.0498 75.9555 20.0498 75.6422 21.1863L77.3122 20.1105C77.3122 20.1105 79.1914 20.8763 77.8343 23.356C76.4772 25.8353 74.7028 29.4515 74.7028 29.4515L74.5983 31.2078L79.3998 25.4223C79.3998 25.4223 81.4879 24.4925 80.757 26.9718C80.0264 29.4515 77.521 33.3774 77.521 33.3774L76.2683 39.6797C76.2683 39.6797 76.686 42.0561 76.0599 44.9492C75.4333 47.842 71.2681 56.3227 68.7055 57.1448C66.1432 57.9668 58.5478 49.3991 58.5478 49.3991Z" fill="#F9A78D"/>
<path d="M58.5476 49.3993C58.5476 49.3993 58.5858 49.4342 58.6569 49.5099C58.732 49.5895 58.8361 49.7001 58.9718 49.8441C59.2493 50.1384 59.6609 50.5752 60.2078 51.133C60.7543 51.6908 61.4353 52.3704 62.2593 53.1422C63.087 53.9083 64.0492 54.7802 65.2129 55.6408C65.7947 56.0683 66.4318 56.4938 67.1522 56.8268C67.5134 56.9824 67.9031 57.1232 68.307 57.1288C68.7084 57.1405 69.0904 56.9221 69.4276 56.6643C70.1021 56.1314 70.6783 55.4281 71.2252 54.6768C71.7737 53.9236 72.2832 53.1024 72.7814 52.2401C73.7635 50.5092 74.7061 48.6066 75.4818 46.5278C75.6707 46.0074 75.8487 45.4738 75.9722 44.9256C76.088 44.3718 76.1766 43.8052 76.2335 43.2293C76.3424 42.0795 76.3469 40.8823 76.1742 39.6963L76.1713 39.6774L76.1746 39.6617C76.5699 37.6638 76.9901 35.5412 77.4224 33.3587L77.4256 33.341L77.4358 33.3245C78.2968 31.9431 79.1261 30.4965 79.851 28.9731C80.2041 28.2102 80.5458 27.4216 80.7408 26.6028C80.781 26.3993 80.8144 26.1905 80.8001 25.9903C80.7863 25.7944 80.7384 25.5921 80.5933 25.4831C80.4552 25.3685 80.2475 25.3424 80.0452 25.3613C79.842 25.3794 79.632 25.4393 79.4426 25.5169L79.4808 25.4884C77.9441 27.3403 76.3249 29.2916 74.6797 31.2747L74.4733 31.5232L74.4924 31.2019C74.5005 31.0619 74.5099 30.9099 74.5188 30.7579C74.5448 30.3191 74.5708 29.8816 74.5968 29.4456L74.5981 29.4239L74.6074 29.4058C75.4371 27.7907 76.2575 26.195 77.0652 24.6225C77.2676 24.2296 77.4687 23.8383 77.669 23.4482C77.7718 23.2524 77.86 23.0621 77.9559 22.8695C78.0266 22.6696 78.1127 22.4738 78.1509 22.2671C78.2468 21.8609 78.2448 21.4338 78.0932 21.0569C77.9364 20.6882 77.6304 20.3701 77.2729 20.2056L77.3684 20.1967C76.8064 20.5583 76.2502 20.9162 75.698 21.2713L75.4753 21.4149L75.5428 21.1595C75.6212 20.8643 75.6724 20.506 75.4895 20.3202C75.4005 20.2321 75.2551 20.202 75.1104 20.2156L75.0028 20.2325L74.9507 20.2466L74.9365 20.2583C74.887 20.3065 74.8345 20.3677 74.7842 20.4292C74.3843 20.9331 74.0162 21.4684 73.6489 21.992C72.9179 23.0452 72.2134 24.0925 71.5246 25.1228C71.1813 25.6388 70.8416 26.1503 70.5048 26.657C70.1533 27.1549 69.8055 27.648 69.4605 28.1362C68.7795 29.1147 68.1246 30.0827 67.5244 31.0519C67.225 31.5365 66.9353 32.0203 66.6821 32.5125C66.4326 33.0064 66.212 33.5099 66.0019 34.0106C65.5798 35.0111 65.1913 35.9968 64.8175 36.956C64.0719 38.8755 63.3917 40.6941 62.7676 42.3908L62.6855 42.6136L62.6254 42.3783C62.4706 41.7715 62.0854 41.2334 61.6913 40.7729C61.2829 40.314 60.827 39.9163 60.3565 39.5785C59.8921 39.2539 59.3622 38.9503 58.8421 39.005C58.7125 39.0147 58.6049 39.0814 58.5147 39.1586C58.4383 39.2507 58.3814 39.3605 58.3639 39.4832C58.3245 39.7269 58.3672 39.9831 58.4505 40.2155C58.5289 40.4488 58.6406 40.6712 58.7328 40.904C58.8149 41.1373 58.8803 41.3693 58.9344 41.5989C59.0372 42.059 59.0949 42.5062 59.1351 42.9337C59.2123 43.7895 59.2164 44.5673 59.1883 45.261V45.263L59.1879 45.2646C58.984 46.6067 58.8275 47.6366 58.7211 48.3388C58.6666 48.683 58.6252 48.946 58.5963 49.1298C58.5671 49.3076 58.5476 49.3993 58.5476 49.3993C58.5476 49.3993 58.5541 49.3112 58.5764 49.135C58.6008 48.9517 58.6353 48.6894 58.6812 48.346C58.7792 47.6398 58.9226 46.6038 59.1099 45.2538L59.1095 45.257C59.1314 44.5685 59.1209 43.7919 59.038 42.943C58.9559 42.0908 58.795 41.1739 58.3407 40.2513C58.2538 40.0088 58.203 39.7386 58.2461 39.4623C58.2656 39.3239 58.3306 39.1888 58.4265 39.0754C58.5362 38.976 58.6739 38.8972 58.8218 38.884C59.4191 38.8232 59.9522 39.1454 60.4329 39.4719C60.9148 39.815 61.3768 40.2143 61.7965 40.682C62.2028 41.1578 62.5966 41.6854 62.7709 42.3542L62.6287 42.3413C63.2471 40.641 63.9212 38.82 64.6619 36.8969C65.0333 35.9357 65.4193 34.9484 65.8398 33.9438C66.0495 33.4415 66.2701 32.9344 66.522 32.4321C66.778 31.9318 67.0681 31.4452 67.3684 30.9574C67.9693 29.9821 68.6235 29.0113 69.3041 28.0296C69.647 27.5422 69.9936 27.0496 70.3431 26.5525C70.6791 26.045 71.0184 25.5326 71.3609 25.0158C72.0488 23.9839 72.7521 22.9351 73.4831 21.8794C73.8516 21.3525 74.2161 20.8205 74.6261 20.3025C74.6793 20.2377 74.7321 20.1742 74.8 20.1087L74.8886 20.0548L74.9556 20.0363C75.0007 20.0262 75.0458 20.0182 75.0917 20.0146C75.2705 19.9977 75.481 20.0298 75.6321 20.1754C75.7837 20.321 75.817 20.5257 75.8191 20.6994C75.8219 20.8796 75.7805 21.0465 75.741 21.213L75.5858 21.1012C76.1376 20.7453 76.6939 20.387 77.2554 20.025L77.3038 19.994L77.3513 20.0162C77.7763 20.2116 78.1018 20.5571 78.2854 20.9785C78.4581 21.4044 78.4569 21.8786 78.3545 22.3125C78.3131 22.5345 78.2237 22.7396 78.1485 22.9499C78.0506 23.1482 77.9543 23.3545 77.8535 23.5467C77.6536 23.9364 77.4529 24.3273 77.2509 24.7198C76.4448 26.2903 75.6261 27.8844 74.7976 29.4975L74.8081 29.4577C74.7821 29.8936 74.7561 30.3316 74.7301 30.7704C74.7212 30.9224 74.7118 31.0744 74.7037 31.2143L74.5164 31.1415C76.162 29.1593 77.7816 27.208 79.3187 25.3565L79.3354 25.3364L79.3569 25.3279C79.5743 25.2386 79.7921 25.1771 80.0265 25.155C80.2549 25.1349 80.5198 25.157 80.7258 25.3235C80.9383 25.4908 80.9923 25.7542 81.0082 25.9766C81.0236 26.2074 80.9871 26.4286 80.9444 26.645C80.7396 27.5004 80.3946 28.2878 80.0375 29.0592C79.3053 30.5942 78.4735 32.0416 77.6056 33.4307L77.6195 33.3969C77.1839 35.579 76.7605 37.7012 76.3619 39.6983L76.3623 39.6637C76.5378 40.8811 76.5293 42.0811 76.4172 43.247C76.3582 43.8297 76.2672 44.4024 76.1486 44.963C76.0206 45.5261 75.8394 46.0629 75.6476 46.5874C74.8618 48.6786 73.9114 50.582 72.9191 52.3181C72.4161 53.1824 71.9013 54.0056 71.3459 54.7629C70.7908 55.5181 70.2086 56.2264 69.5117 56.7725C69.1651 57.0351 68.7568 57.272 68.3066 57.2599C67.8682 57.2511 67.4696 57.1015 67.0998 56.9406C66.366 56.5971 65.7277 56.1648 65.1442 55.7317C63.9793 54.8594 63.0216 53.9795 62.1984 53.2057C61.3792 52.4263 60.7039 51.7394 60.1639 51.1744C59.6239 50.6098 59.2192 50.1662 58.9486 49.8646C58.8178 49.7162 58.7174 49.6024 58.6455 49.5203C58.5789 49.4427 58.5476 49.3993 58.5476 49.3993Z" fill="#F57F62"/>
<path d="M75.3913 21.2521C75.4031 21.2606 75.2735 21.4689 75.0289 21.8389C74.7631 22.237 74.4121 22.763 73.9875 23.4C73.118 24.721 71.9063 26.5508 70.8905 28.7337C69.8674 30.9145 69.3302 33.0426 69.0698 34.5933C68.9361 35.3699 68.867 36.0045 68.8235 36.4436C68.7793 36.8823 68.7589 37.126 68.7423 37.1256C68.735 37.1252 68.7313 37.0641 68.7305 36.9475C68.7305 36.8309 68.7293 36.6588 68.7415 36.4376C68.7598 35.9952 68.8061 35.355 68.9219 34.5704C69.1458 33.004 69.6654 30.8477 70.6983 28.6464C71.7231 26.4442 72.9607 24.6189 73.8631 23.3171C74.3182 22.6669 74.6961 22.1481 74.961 21.7922C75.2264 21.4367 75.3791 21.2441 75.3913 21.2521Z" fill="#F57F62"/>
<path d="M74.809 31.0863C74.8354 31.1148 74.4153 31.4502 73.9123 32.1367C73.4048 32.8159 72.8623 33.8723 72.5308 35.1238C72.1984 36.3761 72.0855 37.5532 72.0001 38.4009C71.9197 39.251 71.8693 39.7783 71.8384 39.7762C71.8238 39.7754 71.8173 39.6427 71.8185 39.4035C71.8201 39.1638 71.8291 38.8179 71.851 38.39C71.8986 37.5367 71.9879 36.3459 72.326 35.0699C72.6637 33.7943 73.2431 32.7182 73.7932 32.047C74.0655 31.7092 74.3166 31.4615 74.5027 31.3058C74.6879 31.1498 74.8009 31.0766 74.809 31.0863Z" fill="#F57F62"/>
<path d="M69.3271 28.5177C69.3559 28.5294 69.197 28.9669 68.9496 29.6759C68.7021 30.3845 68.3738 31.3673 68.0581 32.4664C67.7436 33.5667 67.5023 34.574 67.3373 35.3059C67.1723 36.0375 67.0752 36.4923 67.0448 36.4875C67.0175 36.483 67.0622 36.0194 67.1906 35.277C67.3186 34.535 67.5384 33.516 67.8546 32.4093C68.1719 31.3038 68.525 30.3221 68.8094 29.624C69.0938 28.9255 69.3019 28.5073 69.3271 28.5177Z" fill="#F57F62"/>
<path d="M62.8187 41.6852C62.8472 41.694 62.7643 42.0463 62.6185 42.6117C62.4516 43.2535 62.2584 43.9971 62.0448 44.8183C61.8368 45.6411 61.6484 46.3863 61.486 47.0289C61.3418 47.5947 61.2444 47.9434 61.2151 47.9377C61.1871 47.9321 61.2326 47.5726 61.3398 46.9971C61.447 46.422 61.618 45.6318 61.8397 44.7668C62.0618 43.9018 62.2921 43.1265 62.4748 42.5707C62.6579 42.0145 62.7911 41.6767 62.8187 41.6852Z" fill="#F57F62"/>
<path d="M99.1977 26.5331C98.2782 25.5333 96.6664 26.6823 97.3482 27.8534L97.3823 27.9105C98.5505 29.8377 102.541 36.1424 102.541 36.1424L103.514 38.3152C103.514 38.3152 105.618 41.6202 106.008 42.5834C106.397 43.5469 111.739 52.1882 112.445 52.9591C113.151 53.7297 116.85 52.9591 116.85 52.9591L120.84 45.1576L116.85 36.1424C116.85 36.1424 117.044 34.847 116.266 35.1362C115.487 35.4253 115.097 35.7141 115.097 35.7141L106.281 23.0826C106.281 23.0826 103.978 19.2612 102.321 21.8475C102.321 21.8475 100.385 22.4258 101.481 25.0314C102.74 28.0207 104.488 29.9338 104.488 29.9338L106.045 33.9799L99.1977 26.5331Z" fill="#F9A78D"/>
<path d="M99.1971 26.533C99.1971 26.533 99.2406 26.572 99.3202 26.6541C99.4035 26.7422 99.5197 26.8644 99.6713 27.0233C99.9829 27.3571 100.436 27.8413 101.023 28.4694C102.203 29.7435 103.922 31.5974 106.091 33.9384L105.986 34.002C105.515 32.7882 104.986 31.4237 104.419 29.9594L104.433 29.9824C103.498 28.9038 102.663 27.6345 101.938 26.2141C101.759 25.8582 101.589 25.4922 101.427 25.117C101.275 24.7358 101.126 24.3388 101.084 23.9113C101.032 23.4895 101.073 23.0346 101.281 22.6337C101.495 22.2375 101.85 21.9202 102.295 21.763L102.245 21.8004C102.451 21.4775 102.723 21.1698 103.094 20.9844C103.472 20.8059 103.932 20.8328 104.303 21.0037C105.056 21.3468 105.604 21.981 106.091 22.6325C107.019 23.9636 107.978 25.3402 108.965 26.7554C110.939 29.5822 113.023 32.5646 115.183 35.6552L115.034 35.6311C115.417 35.3737 115.824 35.1835 116.284 35.023C116.402 34.978 116.575 34.9744 116.708 35.0621C116.841 35.1525 116.897 35.2917 116.931 35.4143C116.991 35.6673 116.983 35.9098 116.953 36.1575L116.946 36.1004C117.493 37.3359 118.076 38.6526 118.664 39.9825C119.432 41.7174 120.19 43.4306 120.936 45.1157L120.956 45.1607L120.934 45.2046C119.561 47.885 118.226 50.493 116.939 53.0045L116.917 53.0483L116.87 53.0572C115.834 53.2542 114.806 53.4062 113.771 53.3986C113.513 53.3886 113.254 53.3761 112.997 53.3186C112.748 53.2828 112.457 53.1473 112.299 52.9333C111.984 52.5291 111.72 52.1177 111.447 51.7087C110.373 50.0691 109.377 48.4609 108.427 46.9129C107.959 46.1352 107.5 45.3735 107.051 44.6291C106.62 43.8762 106.161 43.1556 105.829 42.3922C105.077 40.932 104.225 39.6053 103.45 38.355L103.447 38.3501L103.445 38.3453C103.098 37.5667 102.781 36.8553 102.477 36.1704L102.481 36.1793C100.312 32.6929 98.5803 29.9092 97.3869 27.9905C97.239 27.7524 97.1281 27.4833 97.1529 27.2235C97.17 26.9662 97.2813 26.7418 97.4235 26.5745C97.71 26.2282 98.1151 26.1244 98.4088 26.1341C98.716 26.1465 98.9131 26.2901 99.0346 26.373C99.1451 26.4771 99.1971 26.533 99.1971 26.533C99.1971 26.533 99.1349 26.486 99.0224 26.3882C98.8984 26.3118 98.7034 26.1783 98.4072 26.1731C98.124 26.1703 97.7364 26.2768 97.4686 26.611C97.3353 26.7727 97.2333 26.9859 97.2203 27.2272C97.2008 27.4725 97.304 27.717 97.4524 27.9515C98.6583 29.8621 100.408 32.6342 102.6 36.1053L102.602 36.1097L102.605 36.1141C102.912 36.7978 103.233 37.508 103.583 38.285L103.578 38.2757C104.361 39.5277 105.213 40.8427 105.981 42.3211C106.311 43.0739 106.769 43.7898 107.202 44.5414C107.653 45.2838 108.113 46.0435 108.583 46.8192C109.536 48.3635 110.535 49.9698 111.61 51.6034C111.88 52.0079 112.153 52.4274 112.45 52.8086C112.593 52.9932 112.792 53.0837 113.04 53.1271C113.275 53.1802 113.526 53.1923 113.775 53.2015C114.78 53.2084 115.808 53.056 116.828 52.8605L116.758 52.9136C118.042 50.4013 119.375 47.7921 120.746 45.1105L120.743 45.1993C119.997 43.5143 119.239 41.8015 118.471 40.0666C117.882 38.7366 117.299 37.4195 116.752 36.1841L116.741 36.1579L116.744 36.127C116.772 35.9074 116.777 35.6701 116.727 35.4662C116.675 35.2515 116.544 35.1501 116.343 35.2229C115.926 35.3669 115.5 35.5672 115.16 35.7972L115.07 35.8579L115.011 35.7731C112.854 32.6789 110.772 29.6932 108.799 26.8632C107.816 25.4484 106.861 24.0722 105.937 22.7415C105.465 22.1036 104.921 21.4851 104.229 21.171C103.887 21.0146 103.499 20.9953 103.172 21.1469C102.848 21.3073 102.592 21.5872 102.396 21.8949L102.379 21.9206L102.346 21.9323C101.962 22.0666 101.624 22.3598 101.436 22.7141C101.248 23.0748 101.206 23.4927 101.254 23.8924C101.35 24.6992 101.75 25.4315 102.085 26.1421C102.797 27.5513 103.626 28.8201 104.541 29.885L104.551 29.8963L104.556 29.908C105.116 31.375 105.638 32.7416 106.103 33.9577L106.221 34.2654L105.998 34.0217C103.847 31.6642 102.144 29.7974 100.973 28.5141C100.397 27.8766 99.9516 27.3848 99.6457 27.0462C99.4998 26.8825 99.3877 26.7566 99.3072 26.6657C99.232 26.5797 99.1971 26.533 99.1971 26.533Z" fill="#F57F62"/>
<path d="M108.658 37.6347C108.6 37.6532 108.304 36.8376 107.821 35.8882C107.595 35.4052 107.316 35.0219 106.995 34.9138C106.683 34.7887 106.469 34.89 106.459 34.8583C106.436 34.8434 106.659 34.6685 107.043 34.7734C107.227 34.8221 107.432 34.9483 107.594 35.1349C107.76 35.3199 107.889 35.554 108.01 35.7945C108.502 36.7624 108.712 37.6206 108.658 37.6347Z" fill="#F57F62"/>
<path d="M110.457 33.897C110.444 33.9035 110.342 33.7277 110.17 33.4056C110 33.0823 109.749 32.617 109.432 32.0472C108.799 30.9055 107.864 29.3632 106.726 27.7269C105.591 26.0873 104.509 24.6376 103.745 23.5755C103.383 23.068 103.08 22.6446 102.845 22.314C102.636 22.0128 102.526 21.8427 102.538 21.8338C102.55 21.8254 102.682 21.9794 102.911 22.2653C103.161 22.5859 103.481 22.996 103.865 23.4879C104.661 24.5274 105.762 25.9639 106.9 27.6087C108.042 29.2502 108.963 30.8138 109.564 31.9772C109.866 32.5583 110.096 33.0352 110.244 33.3698C110.394 33.7036 110.47 33.891 110.457 33.897Z" fill="#F57F62"/>
<path d="M112.225 36.8711C112.161 36.8687 112.278 36.1062 111.863 35.3031C111.466 34.4904 110.782 34.1228 110.819 34.0705C110.829 34.0484 111.017 34.1051 111.273 34.2853C111.528 34.4634 111.837 34.7823 112.052 35.2098C112.266 35.6377 112.337 36.074 112.326 36.3829C112.317 36.6937 112.25 36.8759 112.225 36.8711Z" fill="#F57F62"/>
<path d="M117.976 41.1822C117.95 41.1955 117.766 40.8822 117.477 40.3731C117.152 39.7928 116.775 39.12 116.359 38.3768C115.926 37.5939 115.549 36.8768 115.293 36.3484C115.038 35.8204 114.901 35.4834 114.927 35.4709C114.954 35.4581 115.137 35.7709 115.426 36.28C115.751 36.8603 116.128 37.5335 116.544 38.2767C116.977 39.0593 117.354 39.7763 117.609 40.3047C117.865 40.8327 118.002 41.1697 117.976 41.1822Z" fill="#F57F62"/>
<path d="M82.9053 137.606C82.9037 137.598 82.9788 137.571 83.1239 137.524C83.2913 137.473 83.5018 137.409 83.7594 137.331C83.9 137.29 84.0536 137.244 84.2193 137.196C84.3859 137.142 84.5635 137.073 84.7565 137.006C85.1397 136.864 85.585 136.726 86.0531 136.511C86.29 136.41 86.5374 136.304 86.795 136.195C87.0522 136.083 87.3082 135.942 87.5796 135.81C88.1277 135.555 88.6795 135.22 89.2679 134.883C90.4206 134.169 91.6355 133.3 92.8065 132.264C93.9666 131.215 94.9633 130.107 95.7983 129.044C96.1969 128.499 96.5894 127.99 96.9014 127.476C97.0615 127.222 97.2289 126.984 97.3671 126.742C97.5036 126.499 97.6344 126.267 97.7604 126.043C98.0233 125.604 98.2069 125.18 98.3886 124.817C98.4763 124.634 98.5637 124.466 98.6344 124.307C98.6998 124.149 98.7608 124.003 98.8164 123.868C98.9212 123.622 99.0066 123.422 99.0748 123.262C99.1362 123.124 99.172 123.053 99.1789 123.055C99.1858 123.058 99.1638 123.134 99.1151 123.276C99.0566 123.44 98.983 123.646 98.8928 123.898C98.842 124.035 98.7868 124.185 98.727 124.346C98.6616 124.508 98.5791 124.679 98.4962 124.866C98.324 125.235 98.1488 125.667 97.8924 126.113C97.7697 126.34 97.6413 126.577 97.5085 126.823C97.3728 127.069 97.2078 127.311 97.0497 127.569C96.7417 128.091 96.3517 128.608 95.9535 129.161C95.1205 130.239 94.1189 131.362 92.9483 132.42C91.7668 133.465 90.5372 134.337 89.3695 135.048C88.7734 135.384 88.2139 135.716 87.658 135.966C87.383 136.096 87.1229 136.233 86.862 136.342C86.6012 136.448 86.3501 136.55 86.1095 136.648C85.635 136.855 85.1831 136.984 84.7943 137.117C84.5984 137.179 84.418 137.243 84.249 137.291C84.0804 137.334 83.9248 137.373 83.7817 137.409C83.5193 137.472 83.3051 137.524 83.1341 137.565C82.9857 137.598 82.9069 137.612 82.9053 137.606Z" fill="#17282F"/>
<path d="M62.0966 50.2477C61.3344 50.3313 22.9307 68.8939 22.7386 77.6184C22.5467 86.3424 25.78 90.2418 29.0437 95.2029C32.3076 100.164 49.8302 118.787 50.7899 119.129C51.7501 119.471 64.7844 101.567 64.7844 101.567L59.4088 89.4218C59.4088 89.4218 57.6807 84.6357 52.3051 86.9433L47.8892 82.7503L71.6959 60.1694C71.6959 60.1694 76.1118 48.7082 62.0966 50.2477Z" fill="#6C6FC3"/>
<path d="M54.8177 109.368C54.8108 109.365 54.8279 109.299 54.8661 109.175C54.9136 109.03 54.9721 108.853 55.042 108.64C55.1245 108.409 55.2196 108.126 55.3037 107.789C55.3914 107.453 55.5141 107.077 55.5905 106.647C55.6352 106.433 55.6815 106.209 55.7299 105.977C55.777 105.744 55.8014 105.496 55.8408 105.244C55.9278 104.738 55.957 104.191 56.0033 103.617C56.0541 102.466 56.0208 101.198 55.8424 99.8797C55.6482 98.5635 55.3276 97.3337 54.9595 96.2415C54.7559 95.7022 54.5755 95.1838 54.3517 94.7214C54.2436 94.4885 54.1517 94.2577 54.0416 94.0462C53.9307 93.8363 53.8238 93.634 53.7214 93.4397C53.5284 93.0468 53.3062 92.7187 53.1286 92.4199C52.9543 92.1187 52.7841 91.8722 52.641 91.6731C52.5143 91.4869 52.4094 91.3329 52.3229 91.2062C52.2518 91.0976 52.2172 91.0385 52.2233 91.0341C52.229 91.0297 52.2745 91.0803 52.3566 91.1805C52.4521 91.3015 52.5683 91.4483 52.7081 91.6257C52.8621 91.8183 53.0433 92.0596 53.2286 92.3568C53.4167 92.6515 53.6495 92.9773 53.8527 93.3686C53.96 93.5624 54.0717 93.7643 54.1875 93.9738C54.3025 94.1853 54.3992 94.4165 54.5113 94.6498C54.7446 95.1139 54.9331 95.6346 55.1436 96.1779C55.5259 97.2778 55.8559 98.5201 56.0521 99.8504C56.2325 101.183 56.2601 102.466 56.198 103.628C56.146 104.207 56.1094 104.759 56.0143 105.269C55.9708 105.524 55.942 105.772 55.8904 106.007C55.8372 106.24 55.7856 106.464 55.7364 106.68C55.6498 107.112 55.5162 107.488 55.417 107.823C55.3215 108.159 55.2147 108.44 55.1196 108.667C55.0343 108.876 54.9636 109.048 54.9055 109.191C54.8543 109.31 54.8246 109.37 54.8177 109.368Z" fill="#17282F"/>
<path d="M57.3072 125.389C57.3007 125.385 57.3507 125.284 57.451 125.095C57.5628 124.89 57.7119 124.616 57.8992 124.273C57.9988 124.094 58.1081 123.896 58.2271 123.682C58.3417 123.463 58.4526 123.219 58.5798 122.96C58.8252 122.439 59.1352 121.859 59.3969 121.182C59.5367 120.847 59.6821 120.496 59.8341 120.131C59.984 119.765 60.1059 119.372 60.251 118.971C60.5541 118.174 60.7882 117.294 61.0551 116.375C61.5305 114.521 61.925 112.45 62.1249 110.25C62.3025 108.047 62.2663 105.939 62.1136 104.032C62.0067 103.082 61.9259 102.175 61.7629 101.339C61.6877 100.92 61.6345 100.511 61.5492 100.126C61.4618 99.7405 61.3777 99.3709 61.2973 99.017C61.1547 98.3064 60.9478 97.6831 60.7947 97.1281C60.7134 96.8522 60.6455 96.5924 60.57 96.3575C60.4891 96.1263 60.4152 95.914 60.3473 95.7205C60.2213 95.3509 60.121 95.0566 60.0458 94.8358C59.9788 94.6327 59.9471 94.5245 59.954 94.5217C59.9605 94.5193 60.0056 94.6222 60.0856 94.8205C60.1701 95.0381 60.2831 95.3288 60.4249 95.6936C60.498 95.8854 60.5785 96.0965 60.6658 96.3266C60.7475 96.5598 60.8211 96.8188 60.9076 97.0943C61.0722 97.6477 61.2904 98.2706 61.4427 98.9825C61.5277 99.3368 61.6166 99.7075 61.7093 100.093C61.7991 100.48 61.8568 100.889 61.936 101.31C62.1071 102.149 62.1952 103.06 62.3078 104.015C62.4719 105.931 62.5146 108.052 62.3358 110.267C62.1347 112.48 61.732 114.563 61.2436 116.424C60.9702 117.347 60.728 118.23 60.4168 119.029C60.2672 119.43 60.1409 119.824 59.9861 120.19C59.8292 120.555 59.6785 120.905 59.5347 121.24C59.2628 121.916 58.9422 122.494 58.6854 123.012C58.553 123.269 58.4364 123.512 58.3165 123.729C58.191 123.941 58.076 124.136 57.9711 124.313C57.7692 124.648 57.6083 124.916 57.488 125.116C57.3755 125.299 57.3133 125.393 57.3072 125.389Z" fill="#17282F"/>
<path d="M51.6587 79.3867C51.6685 79.3972 51.5145 79.5516 51.2276 79.8215C50.9411 80.0921 50.5173 80.4737 49.9855 80.9358C48.9225 81.8616 47.4139 83.0957 45.6919 84.3862C43.9707 85.6787 42.3678 86.7887 41.1976 87.5757C40.6116 87.9681 40.1346 88.281 39.8006 88.4917C39.4674 88.7029 39.2793 88.8139 39.2708 88.8018C39.2627 88.7897 39.4353 88.6562 39.7543 88.4246C40.1062 88.1728 40.5629 87.8467 41.1118 87.4542C42.2593 86.6366 43.846 85.5094 45.5643 84.2193C47.283 82.9313 48.8023 81.7184 49.8884 80.8232C50.4076 80.3933 50.8396 80.0362 51.1727 79.7607C51.4763 79.5098 51.6489 79.3759 51.6587 79.3867Z" fill="#17282F"/>
<path d="M111.159 51.8572C111.159 51.8572 113.416 42.3899 123.74 44.3392C123.74 44.3392 146.025 59.7263 152.507 67.9002C158.989 76.0742 157.051 79.1426 155.306 83.375C153.562 87.6073 147.434 94.6657 136.249 103.864L121.374 114.976C121.374 114.976 108.891 89.6077 110.144 87.7782C110.749 86.8951 129.892 78.7184 129.892 78.7184C129.892 78.7184 129.144 77.8425 130.415 76.4457L122.771 67.1993L111.159 51.8572Z" fill="#6C6FC3"/>
<path d="M152.414 74.2199C152.432 74.2106 152.61 74.544 152.657 75.1408C152.707 75.7259 152.573 76.5978 152.008 77.3385C151.444 78.0789 150.649 78.4589 150.073 78.5976C149.488 78.7416 149.113 78.6921 149.115 78.6716C149.113 78.635 149.481 78.6298 150.032 78.4553C150.576 78.2864 151.312 77.9047 151.839 77.2126C152.367 76.5214 152.517 75.7094 152.508 75.1464C152.501 74.575 152.378 74.2299 152.414 74.2199Z" fill="#17282F"/>
<path d="M121.543 138.453C121.539 138.453 121.542 138.414 121.55 138.339C121.562 138.252 121.576 138.142 121.594 138.006C121.639 137.699 121.702 137.272 121.782 136.73C121.964 135.625 122.174 134.017 122.408 132.03C122.823 128.063 123.203 122.49 122.182 116.46C121.659 113.453 120.821 110.657 119.882 108.185C119.637 107.57 119.411 106.965 119.168 106.387C118.909 105.817 118.656 105.263 118.412 104.727C118.289 104.459 118.175 104.193 118.049 103.938C117.919 103.686 117.791 103.438 117.666 103.194C117.416 102.708 117.176 102.242 116.946 101.796C115.979 100.04 115.168 98.6322 114.562 97.6867C114.275 97.2182 114.049 96.8494 113.887 96.5844C113.817 96.4653 113.76 96.37 113.716 96.2944C113.678 96.2284 113.661 96.1939 113.663 96.1918C113.667 96.1898 113.69 96.2208 113.734 96.2827C113.783 96.3555 113.845 96.4472 113.923 96.5614C114.093 96.8216 114.331 97.1836 114.632 97.6436C115.26 98.5767 116.092 99.9746 117.078 101.726C117.312 102.17 117.557 102.636 117.812 103.121C117.939 103.365 118.069 103.613 118.202 103.865C118.329 104.12 118.445 104.386 118.571 104.653C118.819 105.189 119.076 105.744 119.339 106.315C119.586 106.894 119.816 107.5 120.065 108.116C121.017 110.594 121.866 113.403 122.391 116.425C123.417 122.485 123.01 128.078 122.557 132.047C122.303 134.035 122.07 135.641 121.864 136.743C121.767 137.282 121.691 137.707 121.636 138.013C121.61 138.148 121.589 138.256 121.572 138.342C121.556 138.416 121.546 138.454 121.543 138.453Z" fill="#17282F"/>
<path d="M132.578 83.2632C132.559 83.2813 132.308 83.0641 131.952 82.666C131.596 82.2683 131.144 81.6811 130.728 80.9806C130.313 80.2788 130.016 79.6012 129.839 79.0997C129.662 78.5979 129.593 78.2758 129.618 78.2677C129.681 78.2468 130.086 79.4947 130.91 80.8744C131.724 82.2598 132.627 83.2193 132.578 83.2632Z" fill="#17282F"/>
<path d="M137.679 83.0547C137.67 83.0668 137.547 82.996 137.331 82.8576C137.115 82.7201 136.809 82.511 136.437 82.244C135.692 81.7103 134.692 80.9334 133.644 80.0096C132.596 79.0847 131.702 78.1895 131.081 77.5187C130.771 77.1838 130.525 76.9067 130.363 76.7096C130.199 76.5134 130.114 76.4004 130.125 76.3907C130.149 76.3698 130.542 76.7744 131.189 77.4166C131.836 78.0588 132.742 78.9327 133.785 79.8532C134.828 80.7725 135.808 81.5639 136.527 82.1257C137.246 82.6883 137.697 83.0294 137.679 83.0547Z" fill="#17282F"/>
<path d="M47.9928 82.8497L47.8887 82.7499L48.0473 82.5977C48.0308 82.6821 48.0126 82.7661 47.9928 82.8497Z" fill="#9FA1A1"/>
<path d="M40.6823 88.5766C40.3731 88.5766 40.0643 88.5577 39.7575 88.5187C39.7713 88.5099 39.7856 88.501 39.8002 88.4918C40.1342 88.281 40.6112 87.9682 41.1971 87.5757C42.3673 86.7887 43.9703 85.6787 45.6914 84.3862C46.5423 83.7484 47.3411 83.1247 48.0595 82.5452C48.0562 82.5629 48.0526 82.5814 48.0489 82.5991L47.8892 82.7507L47.9941 82.8501C47.5922 84.5435 46.5731 86.0914 45.1596 87.1269C43.8756 88.0675 42.2787 88.5766 40.6823 88.5766ZM39.645 88.5038C39.6328 88.5022 39.6206 88.5002 39.6084 88.4986C42.1264 86.5361 45.3213 84.046 48.0298 82.3212C47.2822 82.912 46.4492 83.5554 45.5638 84.2194C43.8455 85.5094 42.2588 86.6367 41.1114 87.4542C40.5624 87.8467 40.1057 88.1729 39.7539 88.4246C39.7153 88.4524 39.6791 88.4789 39.645 88.5038Z" fill="#56438C"/>
<path d="M39.7581 88.5186C39.7203 88.5142 39.6829 88.509 39.6455 88.5037C39.6796 88.4788 39.7158 88.4523 39.7544 88.4245C40.1063 88.1728 40.563 87.8466 41.1119 87.4541C42.2594 86.6366 43.8461 85.5094 45.5644 84.2193C46.4498 83.5553 47.2827 82.9119 48.0303 82.3211C48.0559 82.3051 48.0811 82.289 48.1067 82.2729C48.0929 82.3638 48.0775 82.4547 48.06 82.5451C47.3416 83.1246 46.5428 83.7484 45.692 84.3862C43.9708 85.6787 42.3679 86.7886 41.1977 87.5756C40.6117 87.9681 40.1347 88.2809 39.8007 88.4917C39.7861 88.5009 39.7719 88.5098 39.7581 88.5186Z" fill="#0F191D"/>
<path d="M122.145 115.137C122.1 114.924 122.055 114.712 122.008 114.502L122.389 114.217C122.317 114.526 122.236 114.833 122.145 115.137Z" fill="#8F9192"/>
<path d="M122.008 114.502C121.495 112.208 120.812 110.06 120.065 108.116C119.816 107.5 119.586 106.894 119.339 106.316C119.076 105.745 118.819 105.19 118.571 104.653C118.445 104.386 118.329 104.12 118.202 103.865C118.069 103.613 117.939 103.365 117.812 103.122C117.557 102.637 117.312 102.171 117.078 101.726C116.092 99.975 115.26 98.5772 114.632 97.6442C114.606 97.6048 114.581 97.5662 114.556 97.528C117.671 99.1567 120.253 101.755 121.607 104.974C122.828 107.875 123.098 111.156 122.39 114.217L122.008 114.502ZM114.51 97.6024C114.501 97.5895 114.492 97.5766 114.483 97.5638L114.485 97.5614C114.493 97.575 114.502 97.5887 114.51 97.6024Z" fill="#56438C"/>
<path d="M122.106 115.264C120.538 109.07 118.151 102.873 114.51 97.6026C114.501 97.5889 114.493 97.5752 114.484 97.5615L114.513 97.506C114.527 97.5133 114.541 97.5209 114.555 97.5282C114.58 97.5664 114.606 97.605 114.631 97.6444C115.26 98.5774 116.092 99.9752 117.078 101.726C117.312 102.171 117.557 102.637 117.812 103.122C117.939 103.365 118.069 103.613 118.201 103.865C118.329 104.12 118.445 104.386 118.571 104.653C118.819 105.19 119.075 105.745 119.339 106.316C119.586 106.895 119.816 107.501 120.064 108.117C120.812 110.061 121.495 112.208 122.008 114.502C122.055 114.713 122.101 114.924 122.145 115.137C122.132 115.179 122.12 115.221 122.106 115.264Z" fill="#0F191D"/>
<path d="M143.604 164.899C143.604 164.899 143.68 164.894 143.831 164.892C143.986 164.89 144.21 164.888 144.503 164.884C145.1 164.881 145.977 164.876 147.118 164.87C149.41 164.864 152.758 164.855 157 164.844V164.955C142.613 164.964 117.839 164.981 89.702 165C67.415 164.988 47.2412 164.978 32.6346 164.97C25.3355 164.957 19.4282 164.946 15.341 164.939C13.3021 164.93 11.7183 164.924 10.6393 164.92C10.1047 164.915 9.69611 164.912 9.41666 164.91C9.14109 164.906 9 164.899 9 164.899C9 164.899 9.14109 164.893 9.41666 164.889C9.69611 164.887 10.1047 164.883 10.6393 164.879C11.7183 164.875 13.3021 164.868 15.341 164.86C19.4282 164.853 25.3355 164.842 32.6346 164.828C47.2409 164.821 67.415 164.81 89.702 164.799C117.839 164.818 142.613 164.834 157 164.844V164.955C152.758 164.944 149.41 164.935 147.118 164.929C145.977 164.922 145.1 164.918 144.503 164.914C144.21 164.911 143.986 164.909 143.831 164.907C143.68 164.905 143.604 164.899 143.604 164.899Z" fill="#040606"/>
</svg>
