<svg width="167" height="166" viewBox="0 0 167 166" fill="none" xmlns="http://www.w3.org/2000/svg">
<path d="M157.973 68.6852C160.883 63.8607 161.879 57.9685 160.925 52.4271C160.887 52.2053 160.841 51.9842 160.788 51.7639C160.38 49.8406 160.067 48.2783 159.136 46.6447C159.041 46.4405 158.943 46.2378 158.843 46.0364C158.742 45.8353 158.638 45.6354 158.531 45.4371C154.679 38.2977 146.894 33.4418 138.778 33.1153C137.397 20.0528 128.254 8.10617 115.993 3.34436C103.732 -1.41705 88.9068 1.22194 79.0491 9.9205C68.6332 2.13087 54.2418 -0.0318909 41.9906 4.35089C29.7398 8.73369 19.9991 19.53 16.9083 32.1515C15.9633 36.0111 15.5692 40.1011 13.5968 43.5518C12.1083 46.1563 9.82759 48.1988 7.87839 50.4799C1.65703 57.7608 -1.14367 67.839 0.430576 77.2795C2.00482 86.7204 7.92518 95.3484 16.1736 100.224C9.58424 109.26 11.8962 123.493 21.0084 129.986C26.2417 133.716 33.2218 135.143 37.2095 140.179C38.9057 142.321 39.8884 144.932 41.3602 147.233C46.3646 155.057 57.4851 158.26 65.8942 154.3L110.56 142.965C125.573 144.167 140.987 139.266 152.538 129.617C156.821 126.04 160.67 121.7 162.525 116.442C164.381 111.184 163.939 104.888 160.377 100.594C168.787 91.9471 167.583 75.979 157.973 68.6852Z" fill="#FFCFCF"/>
<mask id="mask0_4162_4392" style="mask-type:alpha" maskUnits="userSpaceOnUse" x="0" y="1" width="166" height="155">
<path d="M157.973 68.6852C160.883 63.8607 161.879 57.9685 160.925 52.4271C160.887 52.2053 160.841 51.9842 160.788 51.7639C160.38 49.8406 160.067 48.2783 159.136 46.6447C159.041 46.4405 158.943 46.2378 158.843 46.0364C158.742 45.8353 158.638 45.6354 158.531 45.4371C154.679 38.2977 146.894 33.4418 138.778 33.1153C137.397 20.0528 128.254 8.10616 115.993 3.34435C103.732 -1.41707 88.9068 1.22192 79.0491 9.92049C68.6332 2.13086 54.2418 -0.0319061 41.9906 4.35088C29.7398 8.73367 19.9991 19.5299 16.9083 32.1515C15.9633 36.011 15.5692 40.1011 13.5968 43.5518C12.1083 46.1563 9.82759 48.1988 7.87839 50.4799C1.65703 57.7608 -1.14367 67.839 0.430576 77.2795C2.00482 86.7204 7.92518 95.3484 16.1736 100.224C9.58424 109.26 11.8962 123.493 21.0084 129.986C26.2417 133.716 33.2218 135.143 37.2095 140.179C38.9057 142.321 39.8884 144.932 41.3602 147.233C46.3646 155.057 57.4851 158.26 65.8942 154.3L110.56 142.964C125.573 144.167 140.987 139.266 152.538 129.617C156.821 126.04 160.67 121.7 162.525 116.442C164.381 111.184 163.939 104.888 160.377 100.594C168.787 91.9471 167.583 75.979 157.973 68.6852Z" fill="#FFE1E1"/>
</mask>
<g mask="url(#mask0_4162_4392)">
<path d="M31.3292 101.278C23.4044 101.971 11.6963 106.709 11.6963 106.709V156H165V123C165 123 146.369 112.762 133.253 111.722C113.146 110.126 104.533 129.268 84.3799 128.43C61.1266 127.464 54.5142 99.2516 31.3292 101.278Z" fill="#F8B7B7"/>
</g>
<path d="M38.8339 13.5404L30.7049 5.14599L28.685 18.4237L17.7945 18.0562L24.6092 26.9814L17.752 35.956L29.1076 33.7232L30.7491 45.1181L39.9297 38.1823L51.5064 44.2278L48.9725 32.5637L62.1072 30.5013L51.8913 24.4885L57.8468 14.2447L47.6378 18.2259L46.3963 5.59058L38.8339 13.5404Z" fill="#F2575D"/>
<path d="M62.5092 38.1489C64.4864 40.7394 61.5511 43.667 58.9538 41.695V41.6946C56.9743 39.1038 59.9111 36.1746 62.5092 38.1489Z" fill="#F2575D"/>
<path d="M40.819 18.6674L40.3043 27.2483C40.2624 27.9499 39.7025 28.5103 38.9989 28.5547C38.257 28.6014 37.6089 28.06 37.5244 27.3231L36.5394 18.7039C36.4648 18.0516 36.9805 17.4814 37.6391 17.4882L39.7375 17.5098C40.3633 17.5167 40.8566 18.044 40.819 18.6674Z" fill="white"/>
<path d="M36.7357 33.3883C37.105 34.4844 38.2953 35.0744 39.3943 34.7062C40.4933 34.3383 41.0852 33.151 40.7161 32.0546C40.3469 30.9585 39.1566 30.3685 38.0575 30.7363C36.9585 31.1046 36.3667 32.2918 36.7357 33.3883Z" fill="white"/>
<path d="M97.5133 4.6631C96.7797 3.06242 94.936 2.04644 93.1859 2.27803C91.2303 0.569153 88.0485 0.471956 85.9912 2.05821C84.5008 1.07449 82.4877 0.936281 80.8758 1.70662C79.264 2.47735 78.1112 4.12891 77.9468 5.90386C76.1754 5.53216 74.2114 6.40121 73.2997 7.96088C72.3879 9.52056 72.5965 11.6528 73.7934 13.007C71.8188 13.5405 70.4319 15.6921 70.7654 17.705C71.0985 19.7184 73.1051 21.3108 75.1472 21.1824L96.4934 9.48828C97.8129 8.31967 98.248 6.26415 97.5133 4.6631Z" fill="#17282F"/>
<path d="M74.5122 21.7356C75.7099 12.6058 83.7372 5.92553 92.9579 6.38264L93.8746 6.42783C103.725 7.49317 108.322 16.4317 106.981 26.2225L104.363 63.3301L109.998 65.9919L92.945 78.3991L73.3762 64.608L81.0396 62.095L81.1751 55.6183C81.1751 55.6183 71.751 53.6748 72.1055 44.1987C72.2768 39.6221 73.3983 30.2269 74.5122 21.7356Z" fill="#BA6258"/>
<path d="M81.1749 55.6182C81.1749 55.6182 87.1427 56.2648 93.7194 52.5854C93.7194 52.5854 90.5523 59.5569 81.1201 58.2345L81.1749 55.6182Z" fill="#6F3530"/>
<path d="M78.4177 31.1307C78.3567 31.8434 78.9118 32.4828 79.6571 32.5599C80.4013 32.6366 81.0549 32.1228 81.1154 31.4098C81.1764 30.6967 80.6217 30.0569 79.8779 29.9798C79.1325 29.9024 78.4786 30.4176 78.4177 31.1307Z" fill="#17282F"/>
<path d="M76.3224 26.4699C76.4819 26.6545 77.5466 25.9469 79.0057 26.0228C80.4641 26.0779 81.498 26.8805 81.6647 26.7104C81.7465 26.6348 81.5912 26.3077 81.142 25.9461C80.6997 25.586 79.933 25.219 79.0236 25.1776C78.115 25.1378 77.3335 25.4337 76.877 25.7539C76.4111 26.0749 76.2436 26.3867 76.3224 26.4699Z" fill="#17282F"/>
<path d="M91.24 31.7701C91.1787 32.4827 91.7341 33.1222 92.4794 33.1989C93.2233 33.2763 93.8769 32.7622 93.9382 32.0488C93.9987 31.3361 93.4433 30.6959 92.6995 30.6188C91.9545 30.5418 91.3005 31.057 91.24 31.7701Z" fill="#17282F"/>
<path d="M90.6526 27.4517C90.8121 27.6367 91.8787 26.9294 93.3367 27.0053C94.7946 27.0608 95.8285 27.8627 95.9957 27.6921C96.0775 27.6173 95.9237 27.2902 95.4722 26.9282C95.0303 26.5681 94.2636 26.2016 93.3546 26.1602C92.4455 26.1199 91.6644 26.4162 91.2076 26.736C90.7432 27.0574 90.5746 27.3689 90.6526 27.4517Z" fill="#17282F"/>
<path d="M84.819 37.9828C84.83 37.9 83.9309 37.6988 82.4706 37.4387C82.0999 37.3821 81.7508 37.2906 81.7005 37.0336C81.6263 36.761 81.8018 36.368 82.0043 35.9443C82.3991 35.0627 82.8129 34.1383 83.2468 33.1693C84.9781 29.2162 86.2503 25.9583 86.0904 25.89C85.9298 25.8224 84.3972 28.971 82.6663 32.9241C82.2487 33.8994 81.849 34.8289 81.4691 35.7184C81.3069 36.1338 81.0405 36.6008 81.203 37.1672C81.2894 37.4501 81.5528 37.6654 81.7885 37.7409C82.0237 37.8256 82.2331 37.84 82.417 37.8601C83.892 38.0127 84.8091 38.0648 84.819 37.9828Z" fill="#17282F"/>
<path d="M96.8435 24.8108C96.7708 24.4011 95.456 24.4083 93.9706 23.9941C92.4758 23.6136 91.3239 22.9488 91.0738 23.2726C90.9611 23.4291 91.1225 23.8274 91.5633 24.2762C91.9999 24.7231 92.7304 25.192 93.6235 25.4308C94.5169 25.6681 95.3719 25.6222 95.9585 25.4475C96.5493 25.274 96.8725 25.0048 96.8435 24.8108Z" fill="#17282F"/>
<path d="M81.9583 23.4647C81.6724 23.1148 80.4474 23.3811 78.999 23.3051C77.5494 23.2713 76.3408 22.9127 76.037 23.2405C75.9027 23.4005 76.0743 23.7438 76.5894 24.0907C77.0972 24.4359 77.9636 24.747 78.9594 24.7854C79.9552 24.8219 80.8361 24.5773 81.3614 24.2711C81.894 23.9638 82.0839 23.6341 81.9583 23.4647Z" fill="#17282F"/>
<path d="M75.6417 17.4373C75.6417 17.4373 78.4417 11.6307 81.3779 10.3888C84.9329 8.88531 86.2379 12.7594 89.5922 12.0012C92.9464 11.243 96.3403 9.79954 99.5941 12.5176C103.156 15.4923 101.324 17.3648 101.344 21.5783C101.422 38.6603 104.301 43.6325 105.588 35.6519C105.729 34.7779 108.211 34.1996 108.758 30.5036C109.469 25.7103 109.946 19.8714 109.038 16.4001C108.272 13.474 106.725 11.4021 103.881 9.06109C99.3908 5.36617 92.9906 4.97398 88.6195 5.19532C84.2491 5.41591 75.6154 9.99166 75.6417 17.4373Z" fill="#17282F"/>
<path d="M105.495 22.8138C104.623 23.3461 103.703 23.894 102.682 23.9437C101.661 23.9939 100.528 23.3545 100.407 22.3423C100.352 21.8875 100.489 21.3704 100.209 21.007C99.8748 20.5742 99.2143 20.6718 98.668 20.7025C96.7703 20.8084 94.6689 18.62 94.279 16.765C93.7621 17.4602 92.6965 17.6253 91.9914 17.1204C91.2864 16.6162 91.034 16.3356 90.4965 15.6564C89.9585 14.9768 89.1873 14.3549 88.3235 14.4338C87.84 14.4783 87.3767 14.741 86.8959 14.6742C86.0469 14.5568 85.6803 13.5405 85.5935 12.69C85.5063 11.8399 85.4553 10.8501 84.756 10.3558C84.1081 9.89756 83.2287 10.1003 82.438 10.1766C81.6476 10.2533 80.6434 10.0191 80.4804 9.24378C80.3951 8.83715 80.5889 8.42332 80.8295 8.0839C81.9194 6.54701 84.1591 5.95131 85.8718 6.74253C86.6134 4.63462 88.7026 3.06887 90.9392 2.9451C93.1762 2.82133 95.4261 4.14636 96.3976 6.15974C97.8313 4.98619 99.8509 4.56399 101.637 5.0644C103.423 5.5648 104.926 6.97412 105.537 8.72097C107.138 8.38497 108.907 9.08318 109.844 10.4196C110.78 11.7564 110.828 13.6536 109.961 15.0364C111.095 15.7589 112.037 16.9651 111.994 18.3064C111.951 19.6478 110.576 20.9182 109.297 20.5013C109.769 21.5708 109.272 22.9657 108.229 23.4984C107.186 24.0311 105.761 23.6184 105.166 22.6115" fill="#17282F"/>
<path d="M85.2942 8.62377C85.2885 8.62377 85.2874 8.66402 85.2897 8.74223C85.2946 8.82044 85.2931 8.93815 85.3137 9.09001C85.3586 9.39185 85.4572 9.84062 85.7229 10.3611C85.9909 10.8737 86.4165 11.472 87.0862 11.963C87.7413 12.4592 88.6542 12.8563 89.708 12.8514L89.6048 12.7022C89.3757 13.2458 89.3977 13.9133 89.6463 14.4965C89.8793 15.0884 90.2665 15.6218 90.678 16.1438C90.8897 16.3948 91.0697 16.6868 91.3674 16.9225C91.6572 17.1492 92.0108 17.2901 92.3774 17.3546C93.1049 17.4837 93.9421 17.2992 94.5044 16.7111L94.2649 16.6298C94.3662 17.9249 95.0358 19.2495 96.1627 20.0924C96.7577 20.5677 97.508 20.8772 98.2599 20.8946C99.0118 20.9242 99.721 20.7393 100.383 20.5389L100.214 20.4542C100.523 21.2762 101.025 21.9892 101.651 22.5283C102.265 23.0659 103.102 23.4054 103.882 23.255C105.43 23.0075 106.51 21.7868 106.774 20.6004L106.624 20.6611C107.364 21.1122 108.178 21.1923 108.839 21.0985C109.509 21.0104 110.043 20.7488 110.429 20.4838C110.816 20.2131 111.051 19.9276 111.194 19.7287C111.326 19.5214 111.382 19.4056 111.375 19.4018C111.344 19.3737 111.136 19.8832 110.368 20.3935C109.986 20.6361 109.463 20.8734 108.819 20.9428C108.184 21.0188 107.414 20.9246 106.731 20.4937L106.613 20.4193L106.581 20.5548C106.319 21.6612 105.281 22.7983 103.846 23.0117C103.14 23.1407 102.404 22.8381 101.822 22.329C101.238 21.821 100.76 21.1338 100.473 20.3616L100.428 20.2389L100.303 20.2761C99.651 20.4717 98.9665 20.6444 98.2717 20.6144C97.5758 20.5951 96.9031 20.3194 96.3355 19.8688C95.2711 19.0711 94.6418 17.8322 94.5401 16.6055L94.5146 16.2972L94.3007 16.5247C93.8263 17.0277 93.0768 17.2069 92.4227 17.0915C92.0942 17.0361 91.7801 16.9127 91.5273 16.7168C91.2803 16.5292 91.0914 16.2403 90.8771 15.9867C90.4652 15.4734 90.0887 14.96 89.8664 14.4088C89.6296 13.8636 89.6086 13.277 89.8058 12.7842L89.8664 12.6319L89.7031 12.635C88.7094 12.6524 87.8293 12.2902 87.1886 11.8236C86.5338 11.3631 86.107 10.7943 85.8303 10.3042C85.2878 9.29579 85.3415 8.61086 85.2942 8.62377Z" fill="#A3ACB4"/>
<path d="M88.2064 41.4597C88.0142 41.14 87.7766 40.8404 87.4687 40.629C86.8965 40.236 86.1398 40.192 85.4641 40.3533C84.8942 40.4892 84.2627 40.8708 83.8284 41.2653C83.0137 42.0045 83.2018 42.8295 83.3617 44.6819C85.2018 44.445 87.0351 44.9378 88.7885 44.333C88.9286 43.3466 88.7196 42.3143 88.2064 41.4597Z" fill="#6F3530"/>
<path d="M83.8286 41.0545L83.8551 41.04L83.8562 41.0392L83.8286 41.0545Z" fill="#6F3530"/>
<path d="M83.3618 44.6823C83.3542 44.6307 84.1555 44.4845 85.4582 44.453C86.1076 44.431 86.8769 44.423 87.7224 44.3505C87.8278 44.3403 87.9348 44.3304 88.0429 44.3201C88.1537 44.3072 88.2633 44.3027 88.3414 44.2788C88.5176 44.2264 88.6284 44.1337 88.6664 43.9595C88.7091 43.7833 88.6881 43.5604 88.6508 43.3322C88.6135 43.0965 88.5736 42.8596 88.5226 42.6245C88.4213 42.156 88.2782 41.7107 88.0368 41.3587C87.8 41.003 87.4552 40.771 87.0734 40.6609C86.6919 40.5466 86.2994 40.5371 85.9283 40.5588C85.5591 40.5804 85.2176 40.6332 84.9207 40.7243C84.3207 40.8997 83.9172 41.2255 83.6991 41.4969C83.4764 41.768 83.3934 41.9544 83.3618 41.9404C83.3436 41.9339 83.3759 41.7263 83.5743 41.4062C83.7665 41.0869 84.1902 40.6844 84.8324 40.4589C85.1498 40.342 85.5134 40.2695 85.9036 40.2319C86.2903 40.1951 86.7281 40.1882 87.1742 40.3105C87.62 40.4236 88.0718 40.7152 88.3562 41.1381C88.6474 41.5554 88.8027 42.0482 88.9101 42.541C88.9637 42.7886 89.0041 43.0331 89.0406 43.2719C89.0764 43.516 89.1107 43.7753 89.0429 44.0544C89.009 44.193 88.936 44.338 88.8179 44.4447C88.7049 44.5487 88.5701 44.6098 88.4384 44.644C88.2991 44.6793 88.1845 44.6785 88.0775 44.6899C87.9668 44.6979 87.8575 44.7059 87.7494 44.7138C86.8838 44.7678 86.1068 44.7465 85.4593 44.7325C84.1658 44.6922 83.3691 44.7389 83.3618 44.6823Z" fill="#17282F"/>
<path d="M94.7311 34.5547C94.6675 34.6534 93.8495 34.1558 92.7166 34.0278C91.586 33.8804 90.6728 34.1676 90.6344 34.0563C90.6165 34.0092 90.8251 33.8706 91.2092 33.7539C91.5914 33.637 92.1525 33.5617 92.7646 33.6354C93.3763 33.7106 93.9035 33.918 94.2458 34.1232C94.5906 34.3283 94.76 34.5133 94.7311 34.5547Z" fill="#6F3530"/>
<path d="M80.1648 33.5569C80.1073 33.6587 79.322 33.2606 78.274 33.1885C77.2272 33.0988 76.3901 33.3712 76.349 33.2622C76.3299 33.2151 76.5191 33.0798 76.8705 32.9598C77.2199 32.8394 77.7361 32.7509 78.3048 32.7938C78.8732 32.8386 79.3696 33.0054 79.6962 33.1782C80.0247 33.3507 80.191 33.5132 80.1648 33.5569Z" fill="#6F3530"/>
<path d="M84.7105 25.0991C84.6858 25.0456 84.8479 24.9332 85.0451 24.7137C85.2423 24.4977 85.4696 24.1537 85.5484 23.7311C85.6256 23.3077 85.5358 22.9056 85.4288 22.6341C85.323 22.3585 85.2115 22.196 85.2537 22.1546C85.2872 22.1185 85.4825 22.218 85.6766 22.5031C85.8693 22.7811 86.036 23.2667 85.9385 23.8024C85.8384 24.3378 85.5095 24.7323 85.2301 24.9237C84.9469 25.1211 84.7288 25.1447 84.7105 25.0991Z" fill="#6F3530"/>
<path d="M87.7075 25.394C87.666 25.4233 87.508 25.2964 87.342 25.0219C87.1757 24.7497 87.0196 24.321 86.993 23.8286C86.9674 23.3361 87.0775 22.8937 87.2137 22.6052C87.35 22.3147 87.4935 22.1723 87.5377 22.197C87.6397 22.2509 87.3325 22.9302 87.3889 23.808C87.4258 24.6859 87.803 25.3295 87.7075 25.394Z" fill="#6F3530"/>
<path d="M87.1264 48.2724C87.0883 48.3195 86.8576 48.1782 86.472 48.0103C86.0876 47.8412 85.5341 47.6654 84.901 47.6141C84.2676 47.567 83.6935 47.6555 83.2874 47.7634C82.8804 47.8697 82.6311 47.9734 82.6003 47.921C82.5748 47.8804 82.7803 47.6847 83.1949 47.4994C83.606 47.3129 84.2352 47.167 84.9318 47.2198C85.6277 47.2749 86.2273 47.5165 86.6045 47.7638C86.9852 48.011 87.158 48.2359 87.1264 48.2724Z" fill="#6F3530"/>
<path d="M124 68.4712C124 68.4712 130.633 70.2301 134.913 79.0118C138.224 85.8059 145.144 100.356 145.144 100.356L124.646 107.843L122.565 99.3008L124 68.4712Z" fill="#6C6FC3"/>
<path d="M124.565 68.5513L104.234 63.6064C93.8372 69.1203 88.3168 69.2379 81.1025 61.9739L58.9557 67.0937L59.3971 100.82L59.7869 129.048L55 165.93H126L123.922 107.002L124.565 68.5513Z" fill="#6C6FC3"/>
<path d="M125.994 165.93C125.988 165.93 125.98 165.855 125.968 165.709C125.958 165.555 125.943 165.34 125.923 165.059C125.891 164.48 125.844 163.639 125.783 162.559C125.674 160.379 125.518 157.238 125.324 153.359C125.142 149.471 124.925 144.846 124.684 139.71C124.625 138.426 124.565 137.11 124.503 135.765C124.457 134.413 124.455 133.042 124.429 131.642C124.39 128.842 124.054 125.945 124.013 122.976C123.858 111.099 123.754 100.347 123.717 92.5635C123.702 88.6718 123.994 85.5223 124.013 83.3457C124.019 82.2575 124.034 81.4125 124.048 80.8397C124.057 80.5587 124.063 80.3421 124.068 80.1882C124.074 80.0415 124.079 79.9663 124.085 79.9663C124.098 81.0495 124.327 99.2947 124.624 122.97C124.662 125.938 124.7 128.836 124.737 131.635C124.76 133.033 124.76 134.413 124.803 135.751C124.861 137.095 124.918 138.412 124.973 139.696C125.189 144.832 125.383 149.458 125.546 153.346C125.697 157.227 125.82 160.37 125.905 162.551C125.94 163.632 125.968 164.475 125.986 165.055C125.993 165.336 125.997 165.553 126 165.707C126.001 165.854 125.999 165.929 125.994 165.93Z" fill="#17282F"/>
<path d="M59.5005 66.9718C59.5005 66.9718 54.5849 67.8827 51.1343 73.2121C47.6837 78.5415 39.1885 93.6078 39.1885 93.6078L59.6504 104.767L59.5005 66.9718Z" fill="#6C6FC3"/>
<path d="M55.003 165.93C54.9974 165.929 54.9996 165.875 55.0099 165.769C55.0224 165.656 55.0398 165.501 55.0629 165.3C55.1179 164.88 55.1974 164.272 55.3001 163.489C55.5226 161.906 55.845 159.611 56.2478 156.74C57.0879 150.985 58.2649 142.917 59.6192 133.634L59.6173 133.665C59.5525 130.334 59.4835 126.784 59.4123 123.128C59.2096 111.211 59.0261 100.424 58.8931 92.6082C58.8462 88.7085 58.8079 85.5499 58.7814 83.3585C58.7768 82.2723 58.7734 81.4265 58.7707 80.8438C58.7738 80.5614 58.7764 80.3444 58.778 80.1897C58.7817 80.0419 58.7874 79.9667 58.7939 79.9663C58.8007 79.9663 58.809 80.0415 58.8185 80.189C58.8261 80.3432 58.8367 80.5603 58.8503 80.8423C58.87 81.4246 58.8984 82.2704 58.9348 83.3563C58.9913 85.5469 59.0724 88.704 59.1724 92.6032C59.3346 100.419 59.5589 111.205 59.8067 123.121C59.8738 126.777 59.939 130.327 60 133.659V133.675L59.9977 133.69C58.5885 142.965 57.3634 151.026 56.49 156.776C56.039 159.64 55.6791 161.928 55.4301 163.509C55.3001 164.288 55.1993 164.892 55.1296 165.31C55.0929 165.509 55.0641 165.662 55.0436 165.774C55.0224 165.878 55.0087 165.93 55.003 165.93Z" fill="#17282F"/>
<path d="M95.6151 92.8666C95.6303 92.8894 95.2789 93.1525 94.631 93.6088C93.9834 94.0663 93.0351 94.7118 91.8554 95.4969C89.4958 97.0676 86.1994 99.1835 82.5013 101.428C78.801 103.672 75.401 105.618 72.9174 106.985C71.676 107.669 70.6652 108.212 69.9602 108.575C69.2559 108.94 68.8604 109.13 68.847 109.105C68.8337 109.082 69.2041 108.846 69.8852 108.441C70.5853 108.03 71.5697 107.452 72.7788 106.743C75.2252 105.314 78.5992 103.331 82.2954 101.09C85.9893 98.8482 89.3059 96.7722 91.7027 95.2623C92.8908 94.5177 93.8578 93.9118 94.5457 93.4805C95.2199 93.0636 95.5999 92.8438 95.6151 92.8666Z" fill="#17282F"/>
<path d="M92.1661 106.72C78.6527 106.72 67.659 117.685 67.659 131.161C67.659 144.638 78.6527 155.602 92.1661 155.602C105.679 155.602 116.673 144.638 116.673 131.161C116.673 117.685 105.679 106.72 92.1661 106.72ZM92.1661 155.982C78.4429 155.982 67.2783 144.847 67.2783 131.161C67.2783 117.475 78.4429 106.341 92.1661 106.341C105.889 106.341 117.054 117.475 117.054 131.161C117.054 144.847 105.889 155.982 92.1661 155.982Z" fill="#D1CE81"/>
<path d="M114.418 131.161C114.418 143.418 104.455 153.354 92.1658 153.354C79.8758 153.354 69.9131 143.418 69.9131 131.161C69.9131 118.905 79.8758 108.969 92.1658 108.969C104.455 108.969 114.418 118.905 114.418 131.161Z" fill="#D1CE81"/>
<path d="M92.1658 153.354C79.8758 153.354 69.9131 143.418 69.9131 131.161C69.9131 118.905 79.8758 108.969 92.1658 108.969C104.455 108.969 114.418 118.905 114.418 131.161C114.418 143.418 104.455 153.354 92.1658 153.354ZM73.1071 131.161C73.1071 141.658 81.64 150.168 92.1658 150.168C102.692 150.168 111.224 141.658 111.224 131.161C111.224 120.664 102.692 112.154 92.1658 112.154C81.64 112.154 73.1071 120.664 73.1071 131.161Z" fill="#8F8D4D"/>
<path d="M111.225 131.161C111.225 141.658 102.692 150.168 92.1661 150.168C81.6403 150.168 73.1074 141.658 73.1074 131.161C73.1074 120.664 81.6403 112.154 92.1661 112.154C102.692 112.154 111.225 120.664 111.225 131.161Z" fill="#D1CE81"/>
<path d="M92.1661 150.168C81.6403 150.168 73.1074 141.658 73.1074 131.161C73.1074 120.664 81.6403 112.154 92.1661 112.154C102.692 112.154 111.225 120.664 111.225 131.161C111.225 141.658 102.692 150.168 92.1661 150.168Z" fill="#A7A462"/>
<path d="M107.598 131.161C107.598 139.661 100.688 146.551 92.1656 146.551C83.6426 146.551 76.7334 139.661 76.7334 131.161C76.7334 122.661 83.6426 115.771 92.1656 115.771C100.688 115.771 107.598 122.661 107.598 131.161Z" fill="#D1CE81"/>
<path d="M107.598 131.161C107.598 139.661 100.688 146.551 92.1656 146.551C83.6426 146.551 76.7334 139.661 76.7334 131.161C76.7334 122.661 83.6426 115.771 92.1656 115.771C100.688 115.771 107.598 122.661 107.598 131.161Z" fill="#D1CE81"/>
<path d="M97.0293 101.775C97.0293 101.775 98.4268 92.1197 98.2555 91.6998C98.0834 91.2799 102.635 101.018 102.638 101.425C102.641 101.832 111.427 88.1868 111.427 88.1868L110.327 103.599L118.188 101.633L113.435 106.806L121.151 107.896C121.151 107.896 113.661 111.937 113.199 112.206L117.14 109.069L110.908 107.918L114.157 103.97L108.945 105.795L109.09 95.2535L102.616 103.266L99.0736 97.5311L97.0293 101.775Z" fill="#D1CE81"/>
<path d="M58.5861 146.833L50.4282 151.365L60.9963 152.469L57.7227 161.225L66.5407 154.757C66.5407 154.757 68.4815 160.931 68.5645 160.801C68.6478 160.672 73.1073 155.894 73.1073 155.894L69.2493 158.572L66.7729 153.557L61.1881 156.243L62.8263 151.529L55.1203 150.564L58.5861 146.833Z" fill="#D1CE81"/>
<path d="M108.314 155.869L114.469 158.874L114.286 153.666L128.918 155.462L120.168 143.286L125.134 142.139L117.447 142.485L123.632 152.582L112.499 151.61L112.591 156.133L108.314 155.869Z" fill="#D1CE81"/>
<path d="M104.811 123.948C104.811 123.948 101.009 124.439 98.9665 122.543C96.924 120.647 94.2482 117.775 92.2765 117.315C90.3046 116.854 84.8119 116.784 84.4598 116.854C84.1872 116.909 81.7089 118.436 80.6033 119.124C80.2946 119.315 80.2246 119.73 80.4484 120.016C80.9239 120.623 81.8486 121.488 83.1921 121.349C85.2341 121.139 86.0838 120.345 86.0838 120.345L88.4483 120.842C88.4483 120.842 87.6991 122.122 86.361 122.613C85.0232 123.105 80.164 124.133 78.7555 124.005C77.3473 123.877 70.2348 123.877 69.3192 125.212C68.4037 126.547 68.8262 127.319 70.4457 127.6C72.0655 127.881 80.2345 127.881 80.657 128.021C81.0796 128.162 69.3896 128.654 66.9247 129.496C64.4601 130.339 65.9387 131.674 66.5725 132.306C67.2064 132.938 80.8683 131.954 80.8683 131.954C80.8683 131.954 67.5585 134.763 67.1359 135.606C66.7138 136.449 66.9951 137.854 68.6854 137.854C70.3753 137.854 82.4882 135.957 82.4882 135.957C82.4882 135.957 71.2204 139.399 70.8683 140.101C70.5161 140.803 70.9387 141.786 71.5021 141.997C72.0655 142.208 86.361 139.961 86.361 139.961C86.361 139.961 97.2061 138.837 99.1778 137.362C101.15 135.887 105.375 136.309 105.375 136.309L104.811 123.948Z" fill="#BA6258"/>
<path d="M104.812 123.948C104.812 123.948 129.884 122.59 132.175 120.901L126.602 107.128L143.419 100.986C143.419 100.986 148.607 116.332 149.006 122.391C149.404 128.45 148.972 132.797 146.416 134.906C143.528 137.29 140.497 137.119 136.206 137.942C131.304 138.882 126.284 139.031 121.333 138.395L104.812 136.271V124.378" fill="#BA6258"/>
<path d="M142.653 123.464C142.608 123.516 142.083 123.069 141.133 122.522C140.894 122.387 140.634 122.24 140.339 122.108C140.053 121.96 139.731 121.84 139.397 121.704C138.718 121.457 137.954 121.237 137.133 121.095C136.308 120.964 135.514 120.925 134.792 120.94C134.431 120.961 134.087 120.97 133.769 121.018C133.447 121.047 133.152 121.102 132.883 121.153C131.806 121.364 131.165 121.617 131.139 121.553C131.122 121.518 131.731 121.169 132.822 120.881C133.094 120.81 133.394 120.738 133.723 120.693C134.05 120.63 134.404 120.608 134.776 120.576C135.521 120.54 136.345 120.569 137.197 120.705C138.048 120.852 138.837 121.091 139.53 121.365C139.872 121.515 140.199 121.651 140.487 121.816C140.784 121.964 141.045 122.129 141.28 122.284C142.219 122.909 142.682 123.435 142.653 123.464Z" fill="#6F3530"/>
<path d="M90.524 131.44C91.2678 130.365 90.2541 128.944 88.9829 129.257C88.0285 129.492 86.6082 129.775 85.0214 129.865C82.4281 130.012 79.3 129.516 78.6166 129.705C77.1757 130.104 71.972 132.819 69.5702 133.458C67.1688 134.096 64.9821 133.596 64.9821 133.596L58.9961 144.179C58.9961 144.179 84.3008 157.729 85.5818 158.128C86.8625 158.527 91.2656 159.885 91.666 158.847C92.0662 157.809 91.666 156.851 91.666 156.851L83.0201 152.22C83.0201 152.22 94.8681 155.494 96.1491 155.414C97.4301 155.334 98.7112 154.137 97.3502 152.939C95.9888 151.741 85.6618 148.308 85.6618 148.308C85.6618 148.308 98.7694 150.349 100.232 150.144C101.863 149.916 101.993 147.749 100.232 147.11C98.4709 146.472 85.902 143.917 86.1422 143.278C86.3824 142.639 98.3887 142.593 99.2464 141.77C100.089 140.961 100.312 139.446 97.5101 138.807C94.7082 138.168 84.3807 138.967 82.7799 137.929C81.1787 136.891 81.4989 134.416 81.4989 134.416C81.4989 134.416 85.9789 134.843 87.6631 134.096C89.104 133.458 89.79 132.5 90.524 131.44Z" fill="#BA6258"/>
<path d="M46.9978 118.797L56.286 102.932L40.1615 94.1381C40.1615 94.1381 35.7169 104.008 32.8599 109.978C30.0031 115.948 27.4181 120.154 30.5472 125.445C33.6761 130.736 62.1098 145.661 62.1098 145.661L68.0955 135.078L46.9978 118.797Z" fill="#BA6258"/>
<path d="M90.4494 159.423C88.8361 159.423 86.3597 158.649 85.51 158.304C84.2723 157.802 59.9418 144.896 58.9067 144.347L59.0857 144.012C59.3388 144.146 84.4337 157.457 85.6535 157.953C87.458 158.685 91.0822 159.509 91.4994 158.756C91.8257 158.165 91.8458 157.64 91.5592 157.195C91.4393 157.009 91.2546 156.846 91.0251 156.723L81.4293 151.584L83.0709 152.037C87.0997 153.151 94.9222 155.226 96.0909 155.226L96.1374 155.224C96.8538 155.18 97.525 154.766 97.6982 154.261C97.8296 153.878 97.6662 153.47 97.2243 153.081C95.9074 151.923 85.7045 148.522 85.6017 148.488L85.6858 148.12C85.6858 148.12 99.615 149.877 100.255 149.956C100.889 150.034 101.23 149.611 101.335 149.188C101.494 148.547 101.196 147.679 100.164 147.288C99.5164 147.042 97.2566 146.512 94.8643 145.951C88.7931 144.528 86.2169 143.861 85.9801 143.419C85.9443 143.353 85.9386 143.279 85.9637 143.211C86.116 142.807 87.6365 142.659 92.7865 142.364C95.3794 142.215 98.0603 142.061 98.8555 141.829C99.2975 141.7 99.5846 141.285 99.5701 140.795C99.5507 140.151 98.988 139.339 97.4675 138.992C96.2577 138.716 93.6267 138.713 90.8404 138.709C87.1283 138.705 83.6213 138.7 82.6761 138.088C80.9938 136.998 81.2964 134.497 81.3102 134.391L81.3338 134.209L81.5169 134.226C81.5618 134.231 85.9668 134.641 87.5859 133.923C89.0112 133.291 89.6698 132.34 90.3672 131.332C90.7182 130.825 90.5945 130.285 90.3619 129.95C90.1232 129.604 89.6473 129.289 89.0287 129.442C88.099 129.67 86.6517 129.963 85.0322 130.054C83.6187 130.134 82.059 130.026 80.8057 129.938C79.8098 129.87 78.9499 129.81 78.6678 129.888C78.064 130.055 76.775 130.643 75.2823 131.323C73.2783 132.237 71.0063 133.272 69.6194 133.641C67.1998 134.284 65.0309 133.802 64.9396 133.781L65.0245 133.411C65.0462 133.416 67.1971 133.892 69.5216 133.274C70.8773 132.913 73.1336 131.885 75.1243 130.978C76.6314 130.291 77.933 129.698 78.5657 129.522C78.9122 129.427 79.7173 129.483 80.832 129.56C82.0746 129.647 83.6206 129.754 85.0109 129.675C86.6006 129.585 88.0237 129.298 88.937 129.073C89.6016 128.909 90.2838 129.169 90.6752 129.734C91.0643 130.295 91.0662 130.991 90.6809 131.548C89.9839 132.554 89.2636 133.595 87.7404 134.27C86.2112 134.947 82.5623 134.695 81.673 134.621C81.6398 135.194 81.6452 136.967 82.8836 137.77C83.7344 138.321 87.5097 138.326 90.8412 138.33C93.6488 138.334 96.3015 138.336 97.5524 138.622C99.2846 139.017 99.9268 139.997 99.9504 140.784C99.9702 141.449 99.5731 142.015 98.9625 142.193C98.1257 142.437 95.5431 142.586 92.8086 142.743C90.3958 142.881 87.1587 143.067 86.427 143.316C87.2688 143.78 91.8531 144.855 94.9519 145.581C97.4611 146.17 99.628 146.678 100.3 146.933C101.492 147.385 101.909 148.456 101.704 149.28C101.526 149.997 100.921 150.42 100.209 150.333C99.7148 150.272 91.3148 149.212 87.4987 148.731C90.5286 149.775 96.4404 151.885 97.4763 152.796C98.2297 153.459 98.1642 154.075 98.0584 154.384C97.8341 155.036 97.0362 155.548 96.1614 155.603C95.156 155.675 87.898 153.743 84.5913 152.846L91.2051 156.388C91.4914 156.542 91.7248 156.75 91.8793 156.99C92.1325 157.382 92.3297 158.04 91.8329 158.939C91.6384 159.291 91.1179 159.423 90.4494 159.423Z" fill="#6F3530"/>
<path d="M47.1958 118.741C47.1871 118.864 45.1357 118.671 42.6706 119.125C40.2006 119.558 38.3465 120.454 38.2951 120.341C38.2404 120.263 40.0613 119.182 42.6003 118.736C45.1348 118.27 47.2194 118.648 47.1958 118.741Z" fill="#6F3530"/>
<path d="M106.047 34.2386C106.267 33.249 107.27 32.6159 108.249 32.8884C109.436 33.2189 110.657 34.1435 110.129 36.6186C109.192 41.0093 104.966 39.1669 104.985 39.0392C104.998 38.9527 105.638 36.0723 106.047 34.2386Z" fill="#BA6258"/>
<path d="M106.296 37.5904C106.318 37.5805 106.361 37.6602 106.478 37.747C106.592 37.8313 106.801 37.9174 107.049 37.8801C107.55 37.8087 108.099 37.1552 108.289 36.3681C108.385 35.9711 108.383 35.5729 108.308 35.2276C108.242 34.8779 108.082 34.6096 107.857 34.5185C107.635 34.4151 107.439 34.5199 107.359 34.632C107.274 34.7424 107.283 34.8358 107.258 34.8387C107.244 34.8469 107.179 34.7449 107.254 34.571C107.29 34.4878 107.364 34.3953 107.486 34.3327C107.609 34.2696 107.774 34.2586 107.933 34.3108C108.268 34.4062 108.507 34.7826 108.589 35.1614C108.69 35.5457 108.702 35.9953 108.594 36.4414C108.377 37.3204 107.746 38.0519 107.071 38.1004C106.744 38.1154 106.505 37.9675 106.394 37.8356C106.281 37.6982 106.279 37.5951 106.296 37.5904Z" fill="#6F3530"/>
<path d="M143.694 165.829C143.694 165.829 143.77 165.824 143.92 165.822C144.074 165.82 144.296 165.818 144.588 165.814C145.18 165.811 146.052 165.806 147.185 165.8C149.461 165.794 152.786 165.786 157 165.775V165.885C142.711 165.894 118.103 165.911 90.1567 165.93C68.0203 165.918 47.9828 165.908 33.4749 165.9C26.2251 165.887 20.3577 165.876 16.2982 165.869C14.2731 165.86 12.6999 165.854 11.6282 165.85C11.0972 165.845 10.6914 165.842 10.4138 165.84C10.1401 165.836 10 165.829 10 165.829C10 165.829 10.1401 165.823 10.4138 165.819C10.6914 165.817 11.0972 165.814 11.6282 165.809C12.6999 165.805 14.2731 165.799 16.2982 165.791C20.3577 165.783 26.2251 165.772 33.4749 165.759C47.9825 165.751 68.0203 165.741 90.1567 165.73C118.103 165.748 142.711 165.765 157 165.775V165.885C152.786 165.874 149.461 165.865 147.185 165.859C146.052 165.852 145.18 165.848 144.588 165.844C144.296 165.841 144.074 165.839 143.92 165.837C143.77 165.835 143.694 165.829 143.694 165.829Z" fill="#040606"/>
</svg>
