<svg width="166" height="165" viewBox="0 0 166 165" fill="none" xmlns="http://www.w3.org/2000/svg">
<path d="M157.973 67.6852C160.883 62.8607 161.879 56.9685 160.925 51.4271C160.887 51.2053 160.841 50.9842 160.788 50.7639C160.38 48.8406 160.067 47.2783 159.136 45.6447C159.041 45.4405 158.943 45.2378 158.843 45.0364C158.742 44.8353 158.638 44.6354 158.531 44.4371C154.679 37.2977 146.894 32.4418 138.778 32.1153C137.397 19.0528 128.254 7.10616 115.993 2.34435C103.732 -2.41707 88.9068 0.221924 79.0491 8.92049C68.6332 1.13086 54.2418 -1.03191 41.9906 3.35088C29.7398 7.73367 19.9991 18.5299 16.9083 31.1515C15.9633 35.011 15.5692 39.1011 13.5968 42.5518C12.1083 45.1563 9.82759 47.1988 7.87839 49.4799C1.65703 56.7608 -1.14367 66.839 0.430576 76.2795C2.00482 85.7204 7.92518 94.3484 16.1736 99.2243C9.58424 108.26 11.8962 122.493 21.0084 128.986C26.2417 132.716 33.2218 134.143 37.2095 139.179C38.9057 141.321 39.8884 143.932 41.3602 146.233C46.3646 154.057 57.4851 157.26 65.8942 153.3L110.56 141.964C125.573 143.167 140.987 138.266 152.538 128.617C156.821 125.04 160.67 120.7 162.525 115.442C164.381 110.184 163.939 103.888 160.377 99.5943C168.787 90.9471 167.583 74.979 157.973 67.6852Z" fill="#FFCFCF"/>
<mask id="mask0_4162_4391" style="mask-type:alpha" maskUnits="userSpaceOnUse" x="0" y="0" width="166" height="155">
<path d="M157.973 67.6852C160.883 62.8607 161.879 56.9685 160.925 51.4271C160.887 51.2052 160.841 50.9842 160.788 50.7639C160.38 48.8406 160.067 47.2783 159.136 45.6446C159.041 45.4404 158.943 45.2378 158.843 45.0363C158.742 44.8353 158.638 44.6354 158.531 44.437C154.679 37.2977 146.894 32.4418 138.778 32.1153C137.397 19.0528 128.254 7.10614 115.993 2.34433C103.732 -2.41708 88.9068 0.221909 79.0491 8.92047C68.6332 1.13084 54.2418 -1.03192 41.9906 3.35086C29.7398 7.73366 19.9991 18.5299 16.9083 31.1515C15.9633 35.011 15.5692 39.101 13.5968 42.5518C12.1083 45.1563 9.82759 47.1987 7.87839 49.4799C1.65703 56.7608 -1.14367 66.839 0.430576 76.2795C2.00482 85.7204 7.92518 94.3484 16.1736 99.2243C9.58424 108.26 11.8962 122.493 21.0084 128.986C26.2417 132.716 33.2218 134.143 37.2095 139.178C38.9057 141.321 39.8884 143.932 41.3602 146.233C46.3646 154.057 57.4851 157.26 65.8942 153.3L110.56 141.964C125.573 143.167 140.987 138.266 152.538 128.617C156.821 125.04 160.67 120.7 162.525 115.442C164.381 110.184 163.939 103.888 160.377 99.5942C168.787 90.947 167.583 74.979 157.973 67.6852Z" fill="#FFE1E1"/>
</mask>
<g mask="url(#mask0_4162_4391)">
<path d="M31.3292 100.278C23.4044 100.971 11.6963 105.709 11.6963 105.709V155H165V122C165 122 146.369 111.762 133.253 110.722C113.146 109.126 104.533 128.268 84.3799 127.43C61.1266 126.464 54.5142 98.2516 31.3292 100.278Z" fill="#F8B7B7"/>
</g>
<path d="M94.4442 4.9014C95.4906 3.5622 97.1938 2.76307 98.8919 2.81496C99.583 2.83604 100.349 2.96909 100.906 2.55899C101.304 2.26555 101.482 1.76647 101.761 1.35831C102.618 0.103794 104.625 -0.142811 105.76 0.867046C106.038 1.11522 106.277 1.42934 106.623 1.5702C108.022 2.1403 109.253 -0.499466 110.646 0.0850677C110.089 0.404259 109.547 0.812019 109.275 1.39343C109.003 1.97484 109.085 2.76228 109.605 3.13805C110.955 4.11357 112.768 1.46991 114.241 2.24448C115.036 2.66239 115.261 3.92471 116.149 4.05113C116.493 4.1003 116.829 3.9489 117.169 3.87788C118.311 3.64025 119.566 4.4714 119.793 5.61627C119.987 6.59414 119.605 7.84865 120.409 8.43826C120.907 8.80349 121.597 8.67004 122.195 8.52098C122.27 9.429 122.133 10.3538 121.798 11.2013C123.495 11.97 124.303 14.2563 123.464 15.9209C124.307 16.4602 125.166 17.0252 125.739 17.8442C126.312 18.6633 126.538 19.8062 126.029 20.6666C125.913 20.8621 125.761 21.0428 125.704 21.2625C125.642 21.5005 125.699 21.7526 125.771 21.9879C126.048 22.8955 126.54 23.7532 126.602 24.7002C126.664 25.6472 126.063 26.7492 125.115 26.7582C124.893 26.7601 124.645 26.7098 124.471 26.8479C124.341 26.9517 124.301 27.1316 124.286 27.2978C124.227 27.9776 124.458 28.6433 124.615 29.3074C124.771 29.9711 124.843 30.7114 124.498 31.2998C124.154 31.8886 123.246 32.1676 122.772 31.6775C123.141 32.703 123.51 33.7281 123.879 34.7535C124.098 35.3634 124.298 36.106 123.888 36.6074C123.349 37.2637 122.228 36.8934 121.708 36.2223C121.188 35.5511 120.982 34.6747 120.444 34.0176C120.225 33.7491 119.952 33.5189 119.791 33.2114C119.665 32.9683 119.602 32.669 119.375 32.5157C118.919 32.207 118.324 32.8591 118.433 33.3991C118.542 33.9392 119.016 34.313 119.401 34.7067C119.786 35.1008 120.124 35.6799 119.888 36.1782C119.775 36.4189 119.545 36.5906 119.438 36.8345C119.069 37.6774 120.316 38.3442 120.54 39.2366C120.706 39.8965 120.277 40.5481 119.842 41.0714C119.312 41.7106 118.225 42.29 117.787 41.5845C117.635 41.3399 117.65 41.0246 117.527 40.7639C117.383 40.4588 117.075 40.2734 116.805 40.0721C116.133 39.5714 115.614 38.8695 115.331 38.0805C116.109 38.8745 116.952 39.9421 116.552 40.9797C116.385 41.4132 116.025 41.7379 115.736 42.1019C115.169 42.816 114.86 43.7061 114.302 44.4276C113.745 45.1495 112.768 45.6993 111.933 45.3317C112.291 46.1761 111.995 47.2496 111.255 47.7908C110.514 48.3316 109.402 48.2871 108.707 47.6882C108.516 47.5239 108.345 47.3175 108.103 47.2464C107.843 47.17 107.568 47.2691 107.307 47.3428C105.742 47.7861 103.944 47.2562 102.869 46.0352C103.13 45.9139 103.391 45.7929 103.652 45.6716C102.04 45.6165 100.358 45.5436 98.9461 44.7616C97.5343 43.9796 96.5031 42.2545 97.055 40.737C97.2944 40.0795 97.8046 39.3795 97.4836 38.7575C97.2624 38.329 96.7402 38.1718 96.2722 38.0555C94.3144 37.5697 92.3565 37.0835 90.3987 36.5977C89.4486 36.3616 88.4463 36.0966 87.7622 35.3958C87.0781 34.6954 86.8995 33.4061 87.6592 32.7884C87.1378 31.9526 86.3745 31.2697 85.4861 30.8448C84.4877 30.3672 83.3617 30.2177 82.3422 29.7862C81.3231 29.3542 80.3493 28.493 80.3138 27.3864C80.2779 26.2798 81.7135 25.284 82.547 26.0125C82.2377 24.3701 79.2771 24.5492 78.8668 22.9287C78.5334 21.6121 80.1757 20.7548 80.9577 19.645C80.7338 19.1983 80.2315 18.9458 79.9944 18.506C79.4971 17.5832 80.4035 16.5261 81.3025 15.9868C82.2014 15.448 83.3071 14.8829 83.4381 13.8426C83.5727 12.7782 82.5665 11.6852 83.0333 10.719C83.2919 10.184 84.0119 9.93042 84.5489 10.1848C85.1249 8.20218 88.8562 9.29633 89.7345 7.4284C89.8043 7.28051 89.8495 7.11311 89.8133 6.95351C89.7813 6.81577 89.6924 6.69871 89.5945 6.59725C89.1307 6.113 88.4626 5.89449 87.8964 5.53589C87.3297 5.17729 86.8215 4.53579 87.0005 3.8896C87.1791 3.24303 88.3632 3.15092 88.4139 3.81935C89.0328 3.1478 90.3195 3.3437 90.7115 4.16859C91.1186 3.56572 92.0219 3.4869 92.6794 3.7979C93.3374 4.10811 93.807 4.70474 94.2516 5.28069" fill="#17282F"/>
<path d="M105.504 25.1353C104.588 22.4706 102.309 20.4953 99.8817 19.0652C98.8638 18.4655 97.7616 17.9262 96.5818 17.8821C95.4013 17.8376 94.129 18.4042 93.6626 19.4898L94.0557 21.4276C94.1798 24.566 96.8907 26.8936 98.3798 29.659C99.0272 30.8616 99.6134 32.3296 100.922 32.7186C101.608 32.9223 102.359 32.7627 103.004 32.4498C105.538 31.2191 106.421 27.8004 105.504 25.1353Z" fill="#33535F"/>
<path d="M107.501 39.479C108.969 36.9278 108.23 33.3312 105.874 31.5675C106.821 29.9801 106.115 27.8238 104.765 26.5611C103.416 25.2984 101.585 24.7162 99.8187 24.1711C98.3425 20.0989 93.2396 17.7814 89.2042 19.3501C86.6024 16.4469 81.9055 16.5679 78.342 18.1478C77.4719 18.5337 76.6127 18.9969 75.6685 19.1198C74.9762 19.2104 74.2742 19.112 73.5757 19.112C69.7345 19.1113 66.3465 22.2727 65.3473 25.9836C65.1874 26.5767 65.0739 27.1948 64.7654 27.7263C64.3609 28.4236 63.6683 28.8949 63.1012 29.4678C61.8754 30.7063 61.2323 32.4997 61.3918 34.2357C61.5271 35.7099 62.2026 37.2029 61.7646 38.6174C61.5447 39.3264 61.0583 39.9402 60.9109 40.6675C60.4835 42.7754 62.992 44.5341 62.8594 46.681C62.8321 47.1189 62.6932 47.5422 62.6312 47.9769C62.5045 48.865 62.7131 49.7973 63.2069 50.5468C63.5879 51.1247 64.1441 51.6265 64.2767 52.3063C64.3773 52.8221 64.2123 53.3485 64.1768 53.8726C64.0895 55.1552 67.4284 59.6067 68.5972 60.1405L100.853 56.0968C103.224 55.2715 104.913 52.7941 104.814 50.2842C104.798 49.8667 104.744 49.4184 104.955 49.0582C105.135 48.7511 105.47 48.5771 105.758 48.3683C107.682 46.9749 107.55 44.0916 107.017 41.7757C106.942 41.4511 106.863 41.1194 106.902 40.7889C106.961 40.3085 107.259 39.8984 107.501 39.479Z" fill="#17282F"/>
<path d="M98.3255 40.762C97.6547 35.0451 93.1981 28.9707 87.1595 26.9428C83.353 25.6644 80.566 26.0273 78.6597 26.0609C74.3887 26.1358 71.2756 28.6769 71.2756 28.6769C69.556 29.3332 63.8494 36.1696 64.381 42.6838C64.9707 49.921 65.9765 58.7335 67.6029 63.9607C70.8739 74.4717 79.3149 74.6426 79.3149 74.6426L81.988 86.8503L93.42 106.488L104.421 81.6363L98.3255 40.762Z" fill="#BA6258"/>
<path d="M83.4471 60.0094C83.3223 59.4514 82.9635 58.98 82.5326 58.6725C81.6702 58.0583 80.4944 58.0966 79.6905 58.7654C78.8867 59.4334 78.5045 60.6907 78.7674 61.8039C79.3076 62.422 80.0837 62.8025 80.9043 62.8001C81.0318 62.7997 81.1597 62.7927 81.2869 62.7779C81.9031 62.7065 82.5123 62.4411 82.9432 61.9436C83.3738 61.4457 83.6012 60.6985 83.4471 60.0094Z" fill="#6F3530"/>
<path d="M73.3658 49.5132C73.1704 49.3559 72.2285 50.2717 70.7418 50.4696C69.2598 50.6877 68.0655 50.07 67.9286 50.2741C67.8604 50.3654 68.0792 50.667 68.6002 50.9487C69.1143 51.2301 69.9571 51.4568 70.8826 51.328C71.8077 51.1977 72.5405 50.7509 72.9407 50.342C73.3502 49.9295 73.4609 49.5822 73.3658 49.5132Z" fill="#17282F"/>
<path d="M77.7877 56.9221C77.7822 56.837 76.8365 56.8116 75.3139 56.8374C74.9293 56.8534 74.5596 56.8304 74.4582 56.5806C74.3291 56.3196 74.4281 55.888 74.5475 55.4201C74.771 54.4509 75.0042 53.4348 75.2491 52.3699C76.2082 48.0331 76.8443 44.4888 76.6691 44.4522C76.4944 44.4147 75.5748 47.9 74.6154 52.2372C74.3884 53.3052 74.1704 54.3237 73.9636 55.2976C73.8829 55.7495 73.7074 56.2739 73.9835 56.8144C74.1267 57.0828 74.4348 57.2479 74.6871 57.2783C74.941 57.317 75.1544 57.29 75.3439 57.274C76.8599 57.1363 77.7943 57.0075 77.7877 56.9221Z" fill="#17282F"/>
<path d="M79.3149 74.6426C79.3149 74.6426 86.6171 74.0572 93.1587 68.7044C93.1587 68.7044 90.8101 76.7559 79.9007 77.3143L79.3149 74.6426Z" fill="#6F3530"/>
<path d="M73.5923 45.8639C73.3583 45.4858 72.1991 45.6751 70.8645 45.4991C69.5245 45.3656 68.4363 44.9161 68.1259 45.2314C67.987 45.3859 68.1161 45.75 68.5631 46.1406C69.003 46.5288 69.778 46.9066 70.6972 47.0135C71.6169 47.1188 72.4542 46.9284 72.9675 46.6498C73.4885 46.3712 73.6933 46.0465 73.5923 45.8639Z" fill="#17282F"/>
<path d="M82.737 48.5926C82.8544 48.371 84.0817 48.8392 85.5251 48.4323C86.9725 48.0456 87.825 47.0057 88.0314 47.1391C88.1304 47.1957 88.0485 47.5594 87.6815 48.0245C87.3207 48.4861 86.6363 49.0285 85.7358 49.2763C84.8344 49.5229 83.985 49.4027 83.4554 49.1854C82.9164 48.9688 82.6773 48.6941 82.737 48.5926Z" fill="#17282F"/>
<path d="M81.3064 43.9254C81.4631 43.5028 82.671 43.4271 83.9795 42.9546C85.3028 42.523 86.3055 41.8386 86.6846 42.077C86.8566 42.1972 86.8024 42.5819 86.4334 43.065C86.2326 43.4252 85.4752 44.0097 84.4643 44.3995C83.5594 44.7093 82.6757 44.7113 82.1 44.5544C81.517 44.3987 81.2428 44.1267 81.3064 43.9254Z" fill="#17282F"/>
<path d="M98.0263 51.2149C97.912 50.4134 98.5633 48.3897 99.3359 48.1513C101.4 47.5149 105.232 47.1309 106.047 52.492C107.161 59.8209 99.5766 59.4284 99.5317 59.22C99.4966 59.0577 98.4213 53.9826 98.0263 51.2149Z" fill="#BA6258"/>
<path d="M101.146 56.2353C101.174 56.2072 101.287 56.3051 101.518 56.3715C101.743 56.4355 102.115 56.4472 102.475 56.2458C103.205 55.8443 103.67 54.5156 103.505 53.1893C103.422 52.5193 103.186 51.9055 102.87 51.4154C102.564 50.9132 102.161 50.5913 101.761 50.5815C101.36 50.5507 101.119 50.8262 101.061 51.0455C100.994 51.266 101.063 51.4053 101.026 51.4232C101.008 51.4451 100.85 51.3249 100.863 51.0135C100.871 50.8629 100.931 50.6768 101.082 50.5097C101.236 50.3404 101.483 50.228 101.759 50.2159C102.33 50.1695 102.917 50.612 103.264 51.1497C103.643 51.6854 103.925 52.373 104.017 53.1249C104.195 54.6093 103.649 56.1057 102.637 56.5732C102.142 56.7859 101.688 56.6961 101.44 56.5568C101.186 56.4105 101.122 56.2524 101.146 56.2353Z" fill="#6F3530"/>
<path d="M100.452 39.1609C99.7417 35.6967 98.0327 32.4895 95.8494 29.7085C94.9333 28.5418 93.9243 27.4352 92.7344 26.5498C91.3787 25.5399 89.8218 24.8411 88.2735 24.1629C86.2536 23.2779 84.1819 22.4023 81.9853 22.2083C77.8937 21.847 73.9897 23.88 70.5456 26.1202C69.2355 26.972 67.9376 27.8757 66.9017 29.046C65.663 30.4464 64.8518 32.1715 64.1798 33.9165C63.2083 36.4384 62.4856 39.1114 62.6108 41.8112L62.7196 43.0263C64.0675 41.8854 64.8303 40.4884 64.486 38.7559C65.5109 38.9061 66.3253 37.4963 66.7753 36.5629C67.2254 35.6295 67.8654 35.0989 67.6731 34.0804C67.6353 33.8795 67.5916 33.6672 67.6603 33.4744C67.7683 33.1716 68.1041 33.0292 68.3939 32.8907C69.8864 32.1762 70.9617 30.6532 71.1349 29.0065C72.806 29.4674 74.5923 29.5029 76.2803 29.1096C77.1991 30.1011 78.6418 30.576 79.9694 30.3247C81.2973 30.073 82.4662 29.1029 82.9588 27.8441C83.5352 28.6975 84.5719 29.1494 85.596 29.2567C86.6202 29.3644 87.6494 29.1732 88.6611 28.9823C88.5067 31.0169 90.1034 33.0327 92.1182 33.3468C92.3904 33.3894 92.704 33.4249 92.8592 33.6527C93.021 33.8896 92.9267 34.2068 92.8639 34.4866C92.4668 36.2574 93.8849 38.212 95.6907 38.3825C94.6259 39.4864 95.0608 41.6212 96.4726 42.2194C96.7624 42.3423 97.1388 42.4859 97.1427 42.8008C97.1438 42.9206 97.0846 43.0314 97.0265 43.1368C96.5854 43.9414 96.156 44.8127 96.2207 45.7281C96.2854 46.644 97.044 47.5723 97.957 47.4806C97.542 47.9734 97.1762 48.5833 97.2573 49.2225C97.3388 49.8616 98.0775 50.4177 98.6388 50.102C98.8771 49.9678 102.425 48.721 102.554 48.4795C104.221 45.3614 101.162 42.6252 100.452 39.1609Z" fill="#17282F"/>
<path d="M60.9111 40.6675C60.9111 40.6675 60.9408 40.3542 61.1931 39.8235C61.3136 39.557 61.4922 39.2413 61.6475 38.8476C61.798 38.4538 61.894 37.9669 61.862 37.4174C61.8429 36.8676 61.7114 36.2655 61.5699 35.6069C61.4279 34.9505 61.2727 34.2181 61.3148 33.4201C61.3503 32.6265 61.5476 31.7805 61.9478 30.97C62.1475 30.5654 62.3975 30.1705 62.7009 29.8021C63.0016 29.4299 63.3686 29.1013 63.736 28.7736C64.0999 28.4434 64.4661 28.0922 64.7122 27.6517C64.9594 27.2108 65.0776 26.6953 65.2094 26.1709C65.4731 25.113 65.9232 24.0516 66.5842 23.0784C67.2402 22.1064 68.0756 21.1918 69.1127 20.4832C69.6185 20.1105 70.1938 19.8276 70.7831 19.5662C71.3876 19.3418 72.0178 19.1444 72.6793 19.0718C73.0077 19.0226 73.3439 19.0215 73.6785 19.0086C74.0139 19.0125 74.3474 19.0355 74.68 19.0464C75.3458 19.0827 76.0049 19.0074 76.6402 18.7678C77.2783 18.5442 77.8883 18.2153 78.5419 17.9492C79.189 17.667 79.8723 17.4591 80.5684 17.2839C81.2658 17.1102 81.9865 17.0123 82.715 16.9561C83.4455 16.9124 84.1854 16.9428 84.9233 17.0443C86.3866 17.2718 87.8636 17.8645 88.9642 18.9532C89.0726 19.0613 89.1806 19.169 89.2875 19.2759L89.1642 19.2462C91.3097 18.4166 93.7102 18.6839 95.6618 19.6185C97.6255 20.548 99.214 22.1849 99.9188 24.1344L99.8501 24.0692C100.797 24.3622 101.734 24.6592 102.616 25.0591C103.495 25.4576 104.321 25.9656 104.983 26.6376C105.64 27.3134 106.099 28.1508 106.3 29.0338C106.504 29.9122 106.408 30.8627 105.953 31.6147L105.929 31.4929C107.127 32.3935 107.855 33.714 108.157 35.0188C108.461 36.3299 108.367 37.6625 107.915 38.7746C107.816 39.0587 107.664 39.3143 107.531 39.571C107.385 39.8188 107.232 40.0529 107.12 40.298C107.008 40.5426 106.946 40.7982 106.962 41.055C106.973 41.3121 107.037 41.5634 107.091 41.8135C107.313 42.8156 107.425 43.7579 107.411 44.6102C107.396 45.4612 107.259 46.2241 106.992 46.8332C106.735 47.4458 106.366 47.8918 106.022 48.1872C105.679 48.4912 105.358 48.6359 105.191 48.7987C105.016 48.9512 104.963 49.0636 104.955 49.0581C104.955 49.0581 105 48.9399 105.172 48.7776C105.336 48.6047 105.655 48.4498 105.985 48.1451C106.318 47.8477 106.672 47.4056 106.917 46.8016C107.17 46.2014 107.297 45.4495 107.305 44.609C107.311 43.7673 107.192 42.8343 106.965 41.8424C106.909 41.5942 106.841 41.3367 106.827 41.0612C106.808 40.7849 106.875 40.4974 106.992 40.2402C107.109 39.9815 107.263 39.7423 107.406 39.4973C107.534 39.2456 107.681 38.997 107.775 38.7196C108.209 37.6352 108.294 36.3346 107.992 35.0579C107.692 33.7866 106.978 32.5071 105.818 31.6416L105.751 31.5912L105.794 31.5194C106.218 30.8124 106.308 29.9173 106.111 29.0764C105.917 28.2327 105.472 27.4246 104.84 26.7784C104.201 26.1326 103.395 25.6374 102.53 25.248C101.663 24.857 100.734 24.5636 99.7873 24.2725L99.7366 24.2573L99.7191 24.2069C99.0327 22.3179 97.4851 20.7232 95.567 19.8179C93.6611 18.9063 91.3218 18.6508 89.245 19.4542L89.1775 19.4803L89.1213 19.4249C89.018 19.3219 88.9135 19.2177 88.8086 19.1139C87.7473 18.0631 86.3191 17.4872 84.8897 17.264C84.1698 17.1648 83.4451 17.1344 82.7287 17.1762C82.0134 17.2312 81.3052 17.3264 80.6191 17.4969C79.935 17.6686 79.2619 17.8723 78.6258 18.149C77.9834 18.4084 77.3688 18.7393 76.7112 18.9692C76.3832 19.0847 76.0451 19.1752 75.6999 19.2224C75.3544 19.2685 75.01 19.2681 74.6726 19.2564C74.3353 19.2443 74.0034 19.2208 73.6762 19.2166C73.3501 19.2287 73.0241 19.229 72.705 19.2759C72.0619 19.3445 71.4484 19.5361 70.8587 19.7531C70.2835 20.0075 69.7207 20.281 69.2246 20.6451C68.2078 21.335 67.3853 22.2298 66.7383 23.1819C66.0854 24.1355 65.6404 25.1739 65.3764 26.2134C65.2426 26.7335 65.1209 27.265 64.8565 27.7329C64.5917 28.2007 64.2091 28.5601 63.8417 28.891C63.4692 29.2199 63.1112 29.5372 62.8163 29.8977C62.5191 30.2552 62.2727 30.6391 62.0749 31.0336C61.6791 31.8226 61.4802 32.6495 61.4396 33.4264C61.3924 34.206 61.5383 34.9267 61.6736 35.585C61.8093 36.2445 61.9361 36.854 61.9489 37.4143C61.9747 37.9735 61.8694 38.4737 61.7095 38.8717C61.5449 39.2698 61.36 39.5808 61.2337 39.843C61.103 40.1029 61.0238 40.3101 60.9778 40.4517C60.9314 40.5933 60.917 40.669 60.9111 40.6675Z" fill="#33535F"/>
<path d="M85.5313 18.229C85.5223 18.2473 85.3219 18.1455 84.9404 18.0214C84.5602 17.9004 83.9884 17.7627 83.2747 17.783C82.5664 17.7986 81.7104 17.9804 80.914 18.4779C80.1226 18.9719 79.3984 19.7726 79.0029 20.779C78.889 21.0678 78.7997 21.3717 78.7568 21.6617C78.7167 21.9496 78.7471 22.2462 78.9199 22.4268L79.1348 22.6512L78.8266 22.6095C77.9803 22.4955 77.1652 22.7702 76.597 23.203C76.0178 23.6369 75.696 24.228 75.5463 24.7388C75.3942 25.2547 75.4027 25.6948 75.432 25.9887C75.464 26.2837 75.51 26.4421 75.4936 26.4464C75.4874 26.4483 75.4706 26.4109 75.4437 26.3363C75.416 26.2622 75.3848 26.1487 75.3575 25.9988C75.3041 25.7015 75.2721 25.2457 75.4121 24.7014C75.549 24.1641 75.8731 23.5268 76.4819 23.0539C77.0786 22.5829 77.9417 22.2774 78.8559 22.3941L78.7627 22.5767C78.5178 22.3184 78.4951 21.9457 78.5369 21.6328C78.5837 21.3105 78.6753 21.0038 78.7951 20.6971C79.21 19.6419 79.9729 18.8096 80.8059 18.3027C81.6464 17.7916 82.5419 17.6206 83.2728 17.6249C84.0103 17.6249 84.5914 17.7908 84.9697 17.9394C85.1592 18.0151 85.3024 18.0838 85.3948 18.1385C85.488 18.1915 85.5348 18.2224 85.5313 18.229Z" fill="#33535F"/>
<path d="M98.6321 24.9577C98.6423 24.9663 98.5693 25.0756 98.4133 25.2562C98.2561 25.4361 98.0151 25.6901 97.6657 25.9516C97.3166 26.2091 96.8505 26.4807 96.2648 26.5993C95.6895 26.7172 94.9805 26.6832 94.365 26.3082L94.5238 26.2602C94.468 26.3683 94.4103 26.4795 94.3518 26.5923C94.2874 26.7016 94.2129 26.8073 94.1431 26.917C93.6825 27.5522 93.0807 28.0275 92.4723 28.319C91.8658 28.6175 91.2629 28.7556 90.7559 28.7876C90.2469 28.8204 89.837 28.7529 89.5628 28.6885C89.2902 28.6112 89.1467 28.5515 89.151 28.5387C89.1599 28.4907 89.7578 28.7271 90.7422 28.6304C91.2297 28.5792 91.8042 28.4306 92.3799 28.1348C92.9575 27.8464 93.5249 27.3883 93.9606 26.7874C94.0273 26.6836 94.0975 26.5837 94.1591 26.4807C94.2145 26.3742 94.2695 26.27 94.3229 26.1678L94.3806 26.0577L94.482 26.1202C95.0319 26.4604 95.6852 26.5057 96.2277 26.4066C96.778 26.3078 97.2316 26.0651 97.5803 25.8314C98.2745 25.3464 98.6036 24.9292 98.6321 24.9577Z" fill="#33535F"/>
<path d="M103.478 31.2116C103.486 31.2124 103.486 31.2588 103.479 31.3494C103.466 31.4376 103.442 31.5714 103.367 31.7275C103.227 32.0408 102.876 32.4478 102.297 32.6819C101.715 32.9254 100.951 32.9106 100.169 32.7529C99.777 32.6726 99.3702 32.5941 98.9463 32.4615C98.5333 32.3268 98.0742 32.1142 97.8016 31.6822C97.7802 31.644 97.7587 31.6057 97.7388 31.5706L97.9194 31.5987C97.2919 32.2515 96.632 32.8357 95.93 33.2153C95.2342 33.6055 94.5006 33.7558 93.9004 33.7218C93.2962 33.6949 92.8282 33.5068 92.549 33.3258C92.407 33.2376 92.3064 33.1537 92.2448 33.0916C92.1824 33.03 92.1527 32.9953 92.1578 32.9898C92.1714 32.9742 92.3064 33.0991 92.5919 33.2509C92.8742 33.4034 93.3278 33.5591 93.9046 33.5654C94.4803 33.5771 95.1671 33.421 95.8309 33.0362C96.4998 32.662 97.1378 32.0908 97.7587 31.4434L97.8629 31.3353L97.9393 31.4715L97.9916 31.5644C98.2146 31.9222 98.6195 32.1231 99.0146 32.2535C99.4135 32.3822 99.8258 32.4669 100.209 32.5512C100.973 32.7167 101.695 32.742 102.24 32.5348C102.789 32.3335 103.135 31.971 103.289 31.6881C103.451 31.4017 103.455 31.2069 103.478 31.2116Z" fill="#33535F"/>
<path d="M107.599 3.88493C107.601 3.90015 107.472 3.90835 107.259 3.99692C107.048 4.0855 106.752 4.27866 106.517 4.64233C106.279 5.00093 106.109 5.51912 106.164 6.12316C106.205 6.72759 106.441 7.38158 106.724 8.08513L106.77 8.19908L106.646 8.21312C105.819 8.3056 104.925 8.6724 104.22 9.35097C103.513 10.0186 103.054 11.0503 103.197 12.1191C103.3 13.0927 103.853 13.9742 104.612 14.4116L104.887 14.5696L104.573 14.6118C103.439 14.7643 102.499 15.4456 101.966 16.2319C101.417 17.0256 101.291 17.9172 101.35 18.6184C101.41 19.3286 101.642 19.8636 101.828 20.2042C102.018 20.5461 102.159 20.7099 102.145 20.7216C102.14 20.7255 102.102 20.6873 102.033 20.6093C101.964 20.5328 101.87 20.4103 101.764 20.2413C101.555 19.9057 101.295 19.3649 101.214 18.6313C101.133 17.9094 101.247 16.9714 101.813 16.1285C102.362 15.295 103.339 14.5677 104.545 14.3983L104.505 14.5981C103.677 14.1267 103.086 13.1805 102.974 12.1449C102.905 11.5822 102.979 11.0086 103.183 10.5017C103.383 9.99247 103.703 9.55426 104.072 9.19683C104.82 8.48587 105.76 8.11166 106.627 8.02621L106.549 8.15342C106.275 7.44519 106.041 6.76662 106.012 6.13253C105.967 5.50001 106.164 4.94512 106.427 4.58105C106.689 4.20762 107.013 4.01876 107.238 3.94384C107.353 3.9056 107.443 3.88843 107.505 3.88531C107.567 3.88024 107.598 3.88025 107.599 3.88493Z" fill="#33535F"/>
<path d="M122.957 17.9176C122.96 17.9227 122.923 17.9523 122.847 18.0054C122.77 18.0553 122.662 18.1412 122.505 18.2259C122.196 18.4026 121.718 18.6243 121.076 18.7721C120.436 18.9169 119.626 18.9887 118.732 18.8248C117.84 18.6773 116.865 18.2758 116.027 17.5582L116.192 17.5207C115.698 18.6918 114.665 19.8526 113.213 20.2569C111.678 20.6822 110.007 20.0274 109.282 18.8357L109.472 18.8006C109.363 19.336 109.096 19.8046 108.767 20.1726C108.437 20.5421 108.051 20.8192 107.662 21.0256C106.873 21.4334 106.09 21.5383 105.462 21.5793C104.829 21.614 104.329 21.5777 103.988 21.5516C103.648 21.5231 103.465 21.497 103.466 21.486C103.467 21.474 103.651 21.4775 103.992 21.4849C104.332 21.4896 104.83 21.5056 105.453 21.4533C106.07 21.3963 106.832 21.2749 107.58 20.8723C108.312 20.4774 109.069 19.7621 109.269 18.7612L109.321 18.5021L109.458 18.7261C110.135 19.8261 111.715 20.443 113.154 20.0415C114.521 19.6626 115.519 18.5591 116 17.4388L116.056 17.3073L116.165 17.4013C116.964 18.0955 117.9 18.4959 118.764 18.6516C119.629 18.824 120.42 18.771 121.049 18.6473C122.32 18.3843 122.937 17.8715 122.957 17.9176Z" fill="#33535F"/>
<path d="M116.797 29.7514C116.802 29.753 116.794 29.8104 116.73 29.897C116.667 29.9828 116.534 30.0839 116.342 30.1417C115.954 30.2493 115.372 30.2704 114.682 30.1038C114 29.9348 113.206 29.5364 112.594 28.811C111.986 28.095 111.579 27.0649 111.636 25.9699L111.637 25.9461L111.812 26.0445C110.916 26.6684 109.86 26.8998 108.931 26.8701C107.993 26.8448 107.181 26.5553 106.565 26.2267C105.945 25.8954 105.508 25.527 105.229 25.257C104.95 24.985 104.821 24.8118 104.83 24.8036C104.862 24.7622 105.413 25.4599 106.637 26.0862C107.246 26.3886 108.036 26.6516 108.936 26.6645C109.828 26.6821 110.835 26.4526 111.684 25.8615L111.867 25.7342L111.86 25.9598L111.859 25.9816C111.805 27.0137 112.183 27.9936 112.752 28.6792C113.322 29.3729 114.071 29.7694 114.723 29.9512C115.377 30.1315 115.954 30.1339 116.318 30.0582C116.698 29.9746 116.783 29.7362 116.797 29.7514Z" fill="#33535F"/>
<path d="M91.6038 6.44235C91.6603 6.4443 91.3206 7.33046 91.594 8.7438C91.7344 9.43798 92.0484 10.2504 92.6412 10.977C93.2336 11.6981 94.1127 12.3107 95.1501 12.6135C95.7336 12.784 96.3292 12.8429 96.8884 12.8074L97.0253 12.7984L97.0039 12.9331C96.8639 13.7943 96.9181 14.6238 97.0737 15.3411C97.2351 16.059 97.4894 16.6697 97.7574 17.143C97.89 17.3799 98.0226 17.5929 98.1513 17.7557C98.2823 17.916 98.4426 18.0089 98.5818 17.9988C98.7223 17.9929 98.8213 17.9254 98.8634 17.8669C98.9079 17.8072 98.9114 17.7635 98.9204 17.765C98.9239 17.7642 98.9356 17.8111 98.8962 17.8876C98.8584 17.9629 98.7519 18.0542 98.5873 18.0741C98.4188 18.0998 98.218 17.9952 98.0694 17.8282C97.9204 17.6577 97.7819 17.4529 97.6369 17.2137C97.3455 16.7388 97.069 16.1191 96.89 15.3832C96.716 14.6476 96.6497 13.7919 96.789 12.8987L96.904 13.0244C96.3194 13.0661 95.6962 13.006 95.0878 12.8281C94.0051 12.512 93.0909 11.8674 92.4813 11.1069C91.8713 10.3405 91.5632 9.49183 91.4388 8.77306C91.3097 8.04922 91.3651 7.44947 91.4322 7.04989C91.4724 6.84972 91.5078 6.69598 91.5437 6.59452C91.5761 6.49268 91.5964 6.4404 91.6038 6.44235Z" fill="#33535F"/>
<path d="M78.7889 41.7351C78.0962 42.2775 77.7663 43.2448 77.9839 44.0982C78.2011 44.9512 78.9531 45.643 79.8212 45.7878" fill="#BA6258"/>
<path d="M79.8213 45.7878C79.8221 45.8073 79.5058 45.8159 79.0639 45.5908C78.6303 45.3762 78.0803 44.8732 77.8857 44.1236C77.6977 43.3713 77.9407 42.6665 78.2184 42.2705C78.4988 41.8612 78.7808 41.7176 78.789 41.7351C78.8132 41.762 78.5718 41.9435 78.3401 42.3466C78.1084 42.7387 77.9119 43.3927 78.0823 44.0732C78.2582 44.7522 78.7434 45.2322 79.1345 45.4655C79.5304 45.7086 79.8291 45.7523 79.8213 45.7878Z" fill="#6F3530"/>
<path d="M75.2372 46.2779C75.2115 46.2576 75.3745 46.0454 75.5508 45.6626C75.7283 45.2833 75.9023 44.7163 75.8879 44.0783C75.873 43.4403 75.6729 42.8816 75.4779 42.5109C75.284 42.1366 75.1112 41.9322 75.1362 41.9107C75.1522 41.8943 75.3667 42.0672 75.6027 42.4398C75.8383 42.807 76.0751 43.3935 76.0911 44.0736C76.1067 44.7534 75.8972 45.35 75.6788 45.7281C75.4603 46.1109 75.2544 46.2935 75.2372 46.2779Z" fill="#6F3530"/>
<path d="M85.3809 60.7172C85.338 60.8557 84.847 60.8163 84.0931 60.7637C83.3411 60.7121 82.3142 60.6645 81.2476 60.8913C80.1875 61.1184 79.3139 61.6131 78.7566 62.0646C78.1911 62.5118 77.8985 62.8965 77.764 62.829C77.6474 62.7795 77.7188 62.2371 78.2433 61.562C78.7542 60.8901 79.7601 60.1682 81.0342 59.8978C82.3018 59.6301 83.4609 59.8174 84.2272 60.0582C85.0018 60.3028 85.4215 60.5888 85.3809 60.7172Z" fill="#17282F"/>
<path d="M73.2495 82.6727L81.3777 81.0479L103.299 78.9946L111.557 79.5175C111.557 79.5175 107.641 99.3038 87.286 98.9655C76.3649 98.7836 73.2495 82.6727 73.2495 82.6727Z" fill="#BA6258"/>
<path d="M121.726 81.982C121.726 81.982 127.194 81.4849 131.42 89.069C135.644 96.6527 137.535 107.441 137.535 107.441L118.215 107.545L121.726 81.982Z" fill="#D17B4D"/>
<path d="M62.4834 165H124.7L120.375 139.377L119.617 105.647L123.292 82.133L110.048 78.7916C110.048 78.7916 106.941 94.1034 89.7927 93.348C72.644 92.5925 74.1439 82.0175 74.1439 82.0175L57.6079 88.614C57.6079 88.614 62.4121 119.635 66.999 127.28C71.5859 134.925 70.5578 140.209 70.5578 140.209C70.5578 140.209 64.7201 153.438 62.4834 165Z" fill="#D17B4D"/>
<path d="M123.816 159.762L122.416 151.465L123.855 159.749C123.842 159.753 123.829 159.758 123.816 159.762ZM65.1207 154.842C65.0786 154.819 65.0353 154.796 64.9932 154.773L66.9147 149.11L67.052 149.116C66.4175 150.88 65.7552 152.819 65.1207 154.842Z" fill="#A7A9A8"/>
<path d="M100.244 163.505C88.0278 163.505 75.796 160.61 65.1206 154.842C65.7552 152.818 66.4174 150.88 67.0519 149.115L122.415 151.465L123.816 159.762C116.26 162.26 108.256 163.505 100.244 163.505Z" fill="#974A21"/>
<path d="M57.4814 88.5714C57.4814 88.5714 54.038 90.0242 53.3851 98.1401C52.7319 106.256 52.3793 111.079 52.4971 110.726C52.6145 110.373 64.2918 107.667 64.2918 107.667L57.4814 88.5714Z" fill="#D17B4D"/>
<path d="M70.6022 139.889C70.3405 139.707 70.1287 139.52 70.0136 139.334C69.8662 139.098 69.432 135.731 68.877 130.943C70.8531 135.587 70.7111 138.884 70.6022 139.889Z" fill="#A7A9A8"/>
<path d="M73.2481 141.142C73.2481 141.142 71.5765 140.562 70.6019 139.889C70.7107 138.884 70.8527 135.587 68.8769 130.943C67.3769 118.01 64.9932 94.7079 64.9932 94.7079L67.3605 87.1129L69.5836 87.6826C69.5836 87.6826 71.3086 86.6606 72.0629 83.1448L74.144 82.0175L70.4576 89.5571C70.4576 89.5571 74.5004 128.771 74.791 132.33C75.0816 135.888 73.2481 141.142 73.2481 141.142Z" fill="#974A21"/>
<path d="M120.479 88.3092C120.486 88.31 120.485 88.3803 120.477 88.5125C120.465 88.6678 120.451 88.8594 120.433 89.0912C120.386 89.6235 120.322 90.3418 120.245 91.2167C120.087 93.0105 119.887 95.4906 119.723 98.2334C119.561 100.977 119.465 103.463 119.41 105.264C119.382 106.141 119.36 106.862 119.343 107.396C119.334 107.628 119.326 107.82 119.319 107.976C119.311 108.108 119.304 108.177 119.297 108.177C119.29 108.177 119.284 108.108 119.278 107.975C119.274 107.819 119.27 107.628 119.265 107.395C119.256 106.891 119.256 106.162 119.266 105.261C119.285 103.458 119.357 100.968 119.52 98.2213C119.684 95.4754 119.907 92.9945 120.102 91.2022C120.199 90.3067 120.286 89.5821 120.354 89.083C120.387 88.8524 120.414 88.6628 120.437 88.5079C120.457 88.3768 120.472 88.3085 120.479 88.3092Z" fill="#17282F"/>
<path d="M96.4149 129.82C96.4068 129.832 96.2032 129.709 95.8405 129.476C95.4778 129.244 94.9602 128.897 94.3284 128.457C93.0644 127.578 91.3514 126.312 89.5317 124.825C87.7123 123.335 86.1327 121.906 85.0204 120.841C84.4643 120.309 84.0208 119.87 83.7217 119.561C83.4218 119.252 83.2607 119.076 83.2704 119.066C83.2806 119.056 83.4604 119.213 83.7771 119.504C84.1187 119.818 84.5711 120.233 85.1183 120.736C86.254 121.773 87.8449 123.181 89.6604 124.667C91.4759 126.152 93.1708 127.432 94.4118 128.34C95.0132 128.777 95.5101 129.138 95.8853 129.411C96.2336 129.664 96.4224 129.809 96.4149 129.82Z" fill="#17282F"/>
<path d="M133.601 41.6973L125.304 51.5684L121.933 46.6994L113.078 60.8944L120.962 52.2037L124.535 57.4164L135.811 45.048L133.601 41.6973Z" fill="#F2575D"/>
<path d="M135.355 65.5191L125.31 66.7986L125.954 62.1906L113.287 65.6709L122.465 64.8526L121.753 69.7658L134.847 68.631L135.355 65.5191Z" fill="#F2575D"/>
<path d="M30.2093 26.8046L38.5066 36.6753L41.8781 31.8063L50.7321 46.0016L42.848 37.3109L39.2754 42.5237L28 30.1553L30.2093 26.8046Z" fill="#F2575D"/>
<path d="M28.5981 49.5401L38.4527 51.8688L38.2957 47.2187L50.5277 52.0109L41.4863 50.2323L41.6778 55.1934L28.7758 52.6883L28.5981 49.5401Z" fill="#F2575D"/>
<path d="M47.3455 16.4723L49.8798 24.978L53.3419 22.8288L55.0436 34.2166L52.4469 26.5693L48.764 28.8805L45.0332 17.982L47.3455 16.4723Z" fill="#F2575D"/>
<path d="M73.2482 72.3833C72.1414 71.5982 71.1512 70.6722 70.3052 69.5741C67.9168 73.3756 67.4129 73.9976 67.4129 73.9976L66.927 72.4769V65.1999C66.927 65.1999 67.1434 57.3602 67.0502 55.5399C66.927 53.1304 64.8498 52.4889 64.3463 52.5759C63.9052 52.6524 62.7449 62.9191 61.7679 65.3088C60.7909 67.698 59.3799 71.0651 59.3799 72.9112C59.3799 74.7577 60.6825 85.4018 60.6825 85.4018L69.5837 87.6826C69.5837 87.6826 72.515 85.945 72.4062 79.2107C72.3547 76.011 72.7619 73.9429 73.2482 72.3833Z" fill="#BA6258"/>
<path d="M68.9599 83.5499L64.2915 72.0824C67.9124 74.5365 69.8367 79.2631 68.9599 83.5499Z" fill="#6F3530"/>
<path d="M64.2915 71.8745C64.2716 71.8592 64.6281 71.67 64.9323 71.0757C65.0797 70.7811 65.1796 70.3784 65.1492 69.9094C65.1375 69.6733 65.1113 69.4208 65.0536 69.1613C64.9951 68.9136 64.9023 68.6115 64.7221 68.4426L64.6827 68.4059L64.6905 68.3665C65.0049 66.7214 65.4046 64.6275 65.8484 62.3058L65.8469 62.3163C65.9062 61.66 66.0251 60.9908 66.1129 60.3052C66.2424 59.2684 66.3363 58.2281 65.9674 57.3404C65.8009 56.8975 65.538 56.5104 65.1917 56.2341C64.8488 55.9536 64.4499 55.7698 64.0587 55.6238L64.1765 55.5567C63.8118 57.3852 63.5057 58.9215 63.2845 60.0293C63.1745 60.5506 63.0856 60.9697 63.0197 61.2834C62.9554 61.5726 62.9167 61.7263 62.907 61.7247C62.8976 61.7228 62.9183 61.5655 62.9651 61.2733C63.0193 60.9572 63.0915 60.5346 63.1816 60.0094C63.3844 58.8985 63.6663 57.3575 64.0014 55.5232L64.0205 55.4201L64.1195 55.4564C64.522 55.6024 64.9409 55.7893 65.311 56.0878C65.685 56.3812 65.974 56.8034 66.1507 57.2694C66.3344 57.7302 66.4311 58.2472 66.4284 58.765C66.4358 59.2832 66.3804 59.8057 66.3141 60.3313C66.226 61.0216 66.1059 61.6924 66.0466 62.3339L66.0458 62.3397L66.045 62.3444C65.5821 64.6622 65.1644 66.7526 64.8364 68.395L64.8048 68.3189C65.0653 68.5721 65.1164 68.8648 65.185 69.1332C65.24 69.4044 65.2607 69.6631 65.2673 69.9043C65.288 70.3921 65.1706 70.8139 65.006 71.1132C64.8453 71.4171 64.6519 71.6076 64.5181 71.7238C64.3804 71.8386 64.2946 71.8807 64.2915 71.8745Z" fill="#6F3530"/>
<path d="M60.6273 85.4018C60.6273 85.4018 51.4394 122.976 51.4394 123.31C51.4394 123.644 47.8802 134.216 52.1064 139.334C52.1064 139.334 52.8852 148.571 62.2279 146.345C71.5702 144.119 71.3479 136.664 71.4591 134.883C71.5702 133.103 69.1701 102.279 69.1701 102.279L69.5289 87.6825L60.6273 85.4018Z" fill="#BA6258"/>
<path d="M70.0133 139.335C70.6896 139.525 79.0221 142.339 79.0221 142.339L74.0171 153.245C74.0171 153.245 72.3487 153.356 69.2345 152.577C66.1206 151.798 60.1145 148.682 60.1145 148.682L58.5571 149.016C58.5571 149.016 61.5349 152.006 59.3781 154.248L54.8528 150.567C54.8528 150.567 53.6715 148.282 55.2206 146.691C56.1438 145.743 60.2256 142.562 60.2256 142.562L70.0133 139.335Z" fill="#BA6258"/>
<path d="M54.4519 144.657C54.3115 144.504 53.7031 145.793 53.4613 146.567C53.1056 147.706 54.0935 149.482 54.4519 149.838C54.8099 150.193 62.8414 155.42 62.8414 155.42C62.8414 155.42 64.3601 153.315 62.6534 151.465L60.3641 149.382L60.751 148.486L59.1511 144.637L54.4519 144.657Z" fill="#BA6258"/>
<path d="M103.279 118.32L122.523 109.182C122.674 109.11 122.854 109.169 122.926 109.315C122.992 109.448 122.946 109.611 122.817 109.693C121.319 110.654 114.514 114.106 113.769 115.941C113.35 116.973 107.692 119.342 107.692 119.342L103.084 121.277L102.219 121.231C102.219 121.231 99.311 120.44 103.279 118.32Z" fill="#898484"/>
<path d="M104.237 118.032L122.141 109.32C122.27 109.257 122.425 109.31 122.488 109.437C122.545 109.553 122.506 109.695 122.395 109.766C121.11 110.599 113.893 114.399 113.258 115.996C112.901 116.894 108.039 118.939 108.039 118.939L102.968 120.943L102.223 120.9C102.223 120.9 100.829 119.866 104.237 118.032Z" fill="#D3D3D3"/>
<path d="M120.073 110.398L120.411 110.808L122.327 109.768C122.458 109.688 122.486 109.512 122.386 109.398C122.311 109.312 122.185 109.289 122.083 109.343L120.073 110.398Z" fill="#DADBD8"/>
<path d="M106.416 118.655L105.938 117.687L111.587 114.926L112.064 115.894L106.416 118.655Z" fill="#FF4848"/>
<path d="M110.506 116.174C110.556 116.276 110.522 116.408 110.348 116.493C110.262 116.536 110.162 116.555 110.082 116.543L110.084 116.409C110.148 116.421 110.222 116.409 110.287 116.378C110.357 116.343 110.387 116.293 110.363 116.244C110.34 116.198 110.292 116.186 110.212 116.226L110.146 116.258L110.1 116.165L110.157 115.963L109.896 116.09L109.841 115.978L110.27 115.768L110.315 115.859L110.253 116.082C110.372 116.045 110.462 116.085 110.506 116.174Z" fill="white"/>
<path d="M110.835 115.492L110.879 115.583L110.906 116.208L110.752 116.284L110.729 115.686L110.526 115.785L110.574 115.883L110.448 115.945L110.343 115.732L110.835 115.492Z" fill="white"/>
<path d="M111.193 115.44C111.171 115.396 111.127 115.385 111.085 115.405C111.042 115.426 111.025 115.468 111.047 115.512C111.068 115.556 111.113 115.569 111.155 115.547C111.198 115.527 111.215 115.484 111.193 115.44ZM110.954 115.557C110.913 115.475 110.954 115.381 111.05 115.333C111.146 115.287 111.245 115.312 111.286 115.395C111.327 115.479 111.288 115.572 111.191 115.62C111.095 115.667 110.995 115.641 110.954 115.557Z" fill="white"/>
<path d="M107.137 117.701C107.165 117.757 107.142 117.824 107.085 117.851C107.029 117.878 106.962 117.856 106.935 117.801C106.907 117.745 106.931 117.678 106.987 117.651C107.043 117.624 107.11 117.646 107.137 117.701Z" fill="white"/>
<path d="M107.574 117.488C107.602 117.543 107.579 117.61 107.522 117.638C107.466 117.665 107.399 117.642 107.372 117.587C107.344 117.532 107.368 117.465 107.424 117.438C107.48 117.41 107.547 117.433 107.574 117.488Z" fill="white"/>
<path d="M108.011 117.275C108.039 117.33 108.015 117.397 107.959 117.424C107.903 117.451 107.835 117.429 107.808 117.374C107.781 117.318 107.804 117.251 107.86 117.224C107.916 117.197 107.984 117.219 108.011 117.275Z" fill="white"/>
<path d="M79.0221 142.339L120.308 140.3L119.302 107.441H136.275C136.275 107.441 137.061 123.079 137.405 127.442C137.749 131.804 137.864 142.94 137.405 147.303C136.946 151.665 134.7 157.06 126.253 158.328C120.26 159.227 74.0171 153.245 74.0171 153.245L79.0221 142.339Z" fill="#BA6258"/>
<path d="M71.6346 136.609C71.6412 136.61 71.6276 136.695 71.5944 136.856C71.5601 137.016 71.5129 137.253 71.4373 137.556C71.2676 138.155 71.0055 139.023 70.5317 140.036C70.0597 141.047 69.3733 142.2 68.4279 143.338C67.9588 143.909 67.4178 144.47 66.8051 144.994C66.1967 145.521 65.5169 146.015 64.7576 146.414C63.2443 147.251 61.5376 147.43 60.0743 147.287C58.595 147.164 57.3049 146.743 56.3057 146.241C55.301 145.742 54.6021 145.133 54.2047 144.651C53.9933 144.419 53.8712 144.207 53.7897 144.065C53.7058 143.923 53.6653 143.848 53.6715 143.844C53.6778 143.841 53.7304 143.91 53.8244 144.043C53.9165 144.177 54.0471 144.379 54.2643 144.6C54.6735 145.057 55.3724 145.637 56.3692 146.112C57.3602 146.59 58.6352 146.99 60.0899 147.101C61.5341 147.23 63.187 147.05 64.662 146.234C65.4058 145.844 66.075 145.36 66.6756 144.843C67.2805 144.329 67.8176 143.779 68.2844 143.217C69.2263 142.1 69.9182 140.968 70.4026 139.974C70.8885 138.978 71.1689 138.124 71.3612 137.535C71.4404 137.252 71.5047 137.024 71.5547 136.846C71.6003 136.69 71.6276 136.607 71.6346 136.609Z" fill="#6F3530"/>
<path d="M70.4578 152.854C70.4571 152.861 70.3915 152.857 70.2663 152.844C70.1419 152.83 69.9571 152.811 69.7203 152.775C69.2519 152.683 68.5753 152.531 67.766 152.258C66.1385 151.737 63.9724 150.793 61.6553 149.612C61.1073 149.332 60.5762 149.051 60.0664 148.769L60.1354 148.779C59.5968 148.893 59.0758 149.003 58.5777 149.108L58.6027 148.932C58.9997 149.232 59.2154 149.59 59.4506 149.931C59.6733 150.275 59.8624 150.615 60.0313 150.941C60.401 151.595 60.4385 152.31 60.2868 152.83C60.1378 153.356 59.8847 153.715 59.6998 153.937C59.5118 154.16 59.3847 154.256 59.378 154.248C59.3702 154.24 59.4818 154.13 59.6507 153.899C59.8176 153.669 60.0477 153.308 60.1744 152.801C60.3016 152.298 60.2544 151.639 59.8905 151.016C59.7177 150.697 59.5255 150.363 59.3032 150.028C59.0816 149.705 58.8238 149.332 58.513 149.099L58.3359 148.967L58.538 148.923C59.0356 148.815 59.5559 148.701 60.0937 148.584L60.13 148.576L60.1635 148.595C60.6701 148.872 61.2017 149.152 61.7481 149.431C64.0582 150.609 66.2063 151.569 67.812 152.122C68.6108 152.411 69.2757 152.582 69.7359 152.698C70.2008 152.788 70.4598 152.839 70.4578 152.854Z" fill="#6F3530"/>
<path d="M54.9534 145.431C54.9823 145.449 54.8348 145.703 54.6702 146.142C54.5045 146.579 54.3445 147.21 54.3285 147.921C54.3157 148.633 54.4498 149.27 54.5973 149.714C54.744 150.158 54.8809 150.418 54.8512 150.435C54.8329 150.447 54.6488 150.209 54.4623 149.763C54.2751 149.32 54.1117 148.658 54.1253 147.917C54.1421 147.176 54.3324 146.522 54.5376 146.087C54.742 145.649 54.9355 145.418 54.9534 145.431Z" fill="#6F3530"/>
<path d="M128.972 149.11C128.925 149.117 128.868 148.363 128.478 147.227C128.426 147.085 128.372 146.938 128.317 146.785C128.259 146.632 128.179 146.481 128.108 146.32C127.973 145.994 127.778 145.671 127.585 145.326C127.168 144.653 126.644 143.953 126.003 143.301C125.352 142.659 124.654 142.133 123.983 141.715C123.638 141.521 123.315 141.325 122.99 141.189C122.829 141.117 122.679 141.037 122.525 140.98C122.373 140.923 122.226 140.87 122.084 140.818C120.949 140.425 120.196 140.367 120.203 140.32C120.205 140.305 120.391 140.321 120.728 140.362C120.897 140.379 121.103 140.408 121.337 140.469C121.571 140.527 121.844 140.574 122.129 140.681C122.275 140.73 122.426 140.781 122.583 140.834C122.739 140.889 122.894 140.966 123.06 141.035C123.394 141.168 123.725 141.361 124.079 141.554C124.768 141.971 125.484 142.503 126.147 143.158C126.8 143.822 127.33 144.539 127.746 145.23C127.937 145.584 128.13 145.916 128.262 146.25C128.331 146.416 128.408 146.571 128.463 146.728C128.515 146.885 128.565 147.036 128.614 147.181C128.72 147.467 128.767 147.74 128.824 147.975C128.885 148.209 128.914 148.415 128.93 148.584C128.971 148.922 128.986 149.108 128.972 149.11Z" fill="#6F3530"/>
<path d="M65.2043 51.4103C65.2113 51.4092 65.2355 51.5122 65.2749 51.7092C65.3158 51.9254 65.3704 52.213 65.4387 52.5728C65.5756 53.3454 65.7674 54.4274 66.003 55.7553C66.2374 57.1058 66.5147 58.7037 66.822 60.4764C67.1668 62.2398 67.6929 64.1577 68.5096 66.0638C69.3247 67.9665 70.3894 69.6698 71.7131 70.8849C73.0119 72.1246 74.3886 73.0076 75.5992 73.614C76.2072 73.916 76.7833 74.131 77.2957 74.2953C77.8129 74.4412 78.2669 74.5485 78.6448 74.577C79.3998 74.6554 79.8187 74.5552 79.8215 74.5833C79.8215 74.5833 79.4065 74.7105 78.6378 74.6554C78.2528 74.6387 77.7907 74.5419 77.2638 74.4042C76.7419 74.2485 76.1554 74.0401 75.5368 73.7431C74.3048 73.1469 72.9062 72.2682 71.5844 71.0207C70.2327 69.7938 69.1445 68.0625 68.3232 66.1442C67.4991 64.2205 66.9749 62.2882 66.6383 60.5116C66.3291 58.7299 66.081 57.1269 65.8614 55.7791C65.6524 54.4465 65.482 53.361 65.3607 52.586C65.308 52.2231 65.2663 51.934 65.2347 51.7163C65.2078 51.5169 65.1972 51.4115 65.2043 51.4103Z" fill="#6F3530"/>
<path d="M141.694 164.9C141.694 164.9 141.77 164.895 141.92 164.893C142.074 164.891 142.296 164.888 142.588 164.885C143.18 164.882 144.052 164.877 145.185 164.871C147.461 164.865 150.786 164.856 155 164.845V164.955C140.711 164.965 116.103 164.981 88.1567 165C66.0203 164.988 45.9828 164.978 31.4749 164.97C24.2251 164.957 18.3577 164.946 14.2982 164.939C12.2731 164.931 10.6999 164.924 9.62819 164.92C9.09723 164.916 8.6914 164.912 8.41385 164.91C8.14013 164.907 8 164.9 8 164.9C8 164.9 8.14013 164.893 8.41385 164.89C8.6914 164.888 9.09723 164.884 9.62819 164.88C10.6999 164.876 12.2731 164.869 14.2982 164.861C18.3577 164.853 24.2251 164.843 31.4749 164.829C45.9825 164.822 66.0203 164.812 88.1567 164.8C116.103 164.819 140.711 164.835 155 164.845V164.955C150.786 164.944 147.461 164.935 145.185 164.929C144.052 164.923 143.18 164.918 142.588 164.915C142.296 164.912 142.074 164.909 141.92 164.907C141.77 164.905 141.694 164.9 141.694 164.9Z" fill="#040606"/>
</svg>
