<svg width="167" height="165" viewBox="0 0 167 165" fill="none" xmlns="http://www.w3.org/2000/svg">
<path d="M158.925 67.6853C161.853 62.8608 162.854 56.9686 161.894 51.4272C161.856 51.2054 161.81 50.9843 161.756 50.764C161.346 48.8407 161.031 47.2784 160.094 45.6447C159.999 45.4405 159.901 45.2379 159.8 45.0364C159.698 44.8354 159.594 44.6355 159.486 44.4371C155.61 37.2978 147.779 32.4419 139.614 32.1154C138.225 19.0528 129.027 7.10619 116.692 2.34438C104.357 -2.41705 89.4423 0.221954 79.5253 8.92052C69.0466 1.13089 54.5685 -1.03189 42.2436 3.35091C29.9189 7.7337 20.1196 18.53 17.0102 31.1516C16.0594 35.0111 15.6629 39.1011 13.6787 42.5519C12.1812 45.1564 9.88679 47.1988 7.92585 49.48C1.66701 56.7609 -1.15056 66.8391 0.43317 76.2796C2.01689 85.7205 7.97292 94.3485 16.2711 99.2244C9.64197 108.26 11.9679 122.493 21.135 128.986C26.3998 132.716 33.4219 134.143 37.4337 139.179C39.14 141.321 40.1287 143.932 41.6093 146.233C46.6439 154.057 57.8314 157.26 66.2912 153.3L111.226 141.965C126.329 143.167 141.836 138.266 153.457 128.617C157.766 125.04 161.638 120.7 163.505 115.442C165.371 110.184 164.926 103.888 161.343 99.5944C169.803 90.9472 168.593 74.9791 158.925 67.6853Z" fill="#FFCFCF"/>
<mask id="mask0_4170_6004" style="mask-type:alpha" maskUnits="userSpaceOnUse" x="0" y="0" width="167" height="156">
<path d="M158.925 67.6853C161.853 62.8608 162.854 56.9686 161.894 51.4272C161.856 51.2053 161.81 50.9843 161.756 50.764C161.346 48.8407 161.031 47.2784 160.094 45.6447C159.999 45.4405 159.901 45.2379 159.8 45.0364C159.698 44.8354 159.594 44.6355 159.486 44.4371C155.61 37.2977 147.779 32.4419 139.614 32.1154C138.225 19.0528 129.027 7.10617 116.692 2.34436C104.357 -2.41707 89.4423 0.221939 79.5253 8.9205C69.0466 1.13087 54.5685 -1.03191 42.2436 3.35089C29.9189 7.73369 20.1196 18.53 17.0102 31.1516C16.0594 35.0111 15.6629 39.1011 13.6787 42.5518C12.1812 45.1564 9.88679 47.1988 7.92585 49.48C1.66701 56.7608 -1.15056 66.8391 0.43317 76.2796C2.01689 85.7205 7.97292 94.3485 16.2711 99.2244C9.64197 108.26 11.9679 122.493 21.135 128.986C26.3998 132.716 33.4219 134.143 37.4337 139.179C39.14 141.321 40.1287 143.932 41.6093 146.233C46.6439 154.057 57.8314 157.26 66.2912 153.3L111.226 141.965C126.329 143.167 141.836 138.266 153.457 128.617C157.766 125.04 161.638 120.7 163.505 115.442C165.371 110.184 164.926 103.888 161.343 99.5944C169.803 90.9472 168.593 74.9791 158.925 67.6853Z" fill="#FFE1E1"/>
</mask>
<g mask="url(#mask0_4170_6004)">
<path d="M31.3292 100.278C23.4044 100.971 11.6963 105.709 11.6963 105.709V155H165V122C165 122 146.369 111.762 133.253 110.722C113.146 109.126 104.533 128.268 84.3799 127.43C61.1266 126.464 54.5142 98.2516 31.3292 100.278Z" fill="#F8B7B7"/>
</g>
<path d="M23.6993 77.1666C23.7329 77.1588 23.7146 77.4356 23.9675 77.8325C24.0985 78.0231 24.3084 78.2353 24.6199 78.3631C24.9265 78.4942 25.3353 78.5136 25.7441 78.3594C26.1475 78.2122 26.55 77.8838 26.7477 77.4011C26.9545 76.9288 26.9202 76.3128 26.6368 75.7729C26.3572 75.2386 25.8114 74.7778 25.1332 74.6556C24.4674 74.5274 23.6793 74.7202 23.0811 75.1914C22.4818 75.6618 22.0536 76.4254 22.051 77.258C22.044 78.0911 22.3722 78.9728 23.0092 79.6171C23.6368 80.2662 24.563 80.6698 25.527 80.6415C26.4958 80.6103 27.4972 80.2499 28.2566 79.5562C29.0212 78.8751 29.5474 77.8923 29.6538 76.83C29.7531 75.7722 29.494 74.6266 28.9176 73.6773C28.3277 72.7268 27.3804 71.9915 26.2768 71.6288C25.1711 71.2747 23.9285 71.2877 22.7705 71.6028C22.1898 71.7607 21.6516 72.0234 21.1564 72.3396C20.6691 72.6711 20.2501 73.0846 19.8926 73.5405C19.5456 74.0068 19.2841 74.5255 19.0791 75.0613C18.9059 75.6083 18.7634 76.1656 18.7286 76.7349C18.6223 77.8711 18.7804 79.0092 19.2103 80.0017C19.6504 80.9945 20.3631 81.835 21.2063 82.4496C22.9189 83.6709 25.0721 83.9815 26.9099 83.6445C27.3788 83.594 27.8061 83.4138 28.2376 83.2804C28.4448 83.1919 28.6415 83.0834 28.8415 82.988C28.9404 82.9378 29.0411 82.8917 29.1374 82.8393L29.408 82.6539C30.1579 82.2014 30.7204 81.5615 31.2221 80.9447C32.1578 79.6409 32.5801 78.1948 32.6521 76.9262C32.6621 76.7668 32.672 76.61 32.6816 76.4562C32.6769 76.3024 32.6618 76.1515 32.6531 76.0029C32.6261 75.7075 32.6329 75.418 32.5607 75.1516C32.5064 74.8822 32.4544 74.6244 32.4048 74.3784C32.3243 74.1406 32.2477 73.9143 32.175 73.6999C32.0518 73.2607 31.8373 72.9144 31.6927 72.5953C31.5533 72.2716 31.3806 72.029 31.2513 71.8261C30.9927 71.4204 30.8633 71.1993 30.879 71.187C30.8949 71.1744 31.0554 71.3713 31.3489 71.7607C31.4956 71.9554 31.6864 72.1917 31.8451 72.5128C32.0091 72.829 32.2434 73.1753 32.3875 73.6197C32.4699 73.8378 32.5569 74.0678 32.6482 74.3097C32.7075 74.5616 32.7697 74.8261 32.8344 75.1022C32.9165 75.3764 32.9191 75.6752 32.9548 75.9817C32.9681 76.1355 32.9874 76.292 32.9961 76.4521C32.9903 76.6123 32.9842 76.7758 32.978 76.9418C32.9343 78.2654 32.5241 79.7917 31.5572 81.1844C31.0394 81.8458 30.4501 82.5313 29.6585 83.0262L29.3719 83.2269C29.27 83.2845 29.1634 83.3354 29.0584 83.3904C28.8463 83.4955 28.6367 83.6133 28.4158 83.7103C27.9567 83.8611 27.4988 84.0562 26.9975 84.1179C26.0137 84.3163 24.9702 84.3178 23.9182 84.1339C22.8694 83.9444 21.8194 83.5349 20.8913 82.8832C19.9729 82.224 19.1877 81.3111 18.7004 80.2257C18.2209 79.1315 18.0493 77.9012 18.1587 76.6873C18.1953 76.0746 18.3455 75.4675 18.5349 74.8707C18.7567 74.2833 19.0438 73.7118 19.4276 73.195C19.8215 72.6882 20.2879 72.2282 20.829 71.8596C21.3776 71.5066 21.9752 71.2175 22.612 71.044C23.8766 70.7003 25.2235 70.6847 26.4577 71.08C27.6845 71.4832 28.7495 72.3129 29.4047 73.3793C30.0472 74.4557 30.3234 75.6863 30.2081 76.8883C30.0815 78.0903 29.4798 79.1961 28.6144 79.9552C27.7533 80.7292 26.6276 81.1272 25.5372 81.152C24.4272 81.1751 23.3669 80.6987 22.6598 79.95C21.9407 79.2039 21.5798 78.2029 21.6007 77.248C21.6179 76.2756 22.1293 75.3961 22.8287 74.8666C23.5354 74.3353 24.4162 74.1302 25.2076 74.2937C26.0016 74.4546 26.6215 75.0037 26.9281 75.6265C27.2382 76.25 27.2601 76.9619 27.0028 77.5118C26.7556 78.0651 26.2811 78.4236 25.8188 78.573C25.3551 78.7291 24.8871 78.6867 24.5496 78.521C24.2074 78.3594 23.9923 78.11 23.8674 77.8942C23.746 77.6727 23.7042 77.4832 23.6931 77.3576C23.6823 77.2313 23.691 77.1666 23.6993 77.1666Z" fill="#17282F"/>
<path d="M112.872 73.4562L113.466 74.5378C113.72 74.9989 114.102 75.3783 114.565 75.6306L115.653 76.2221L114.565 76.8137C114.102 77.066 113.72 77.4453 113.466 77.9064L112.872 78.9881L112.277 77.9064C112.023 77.4453 111.642 77.066 111.178 76.8137L110.091 76.2221L111.178 75.6306C111.642 75.3783 112.023 74.9989 112.277 74.5378L112.872 73.4562Z" fill="#17282F"/>
<path d="M14.3364 48.6431L14.9417 49.744C15.1999 50.2137 15.588 50.5998 16.0601 50.8565L17.1668 51.4584L16.0601 52.0604C15.588 52.3175 15.1999 52.7036 14.9417 53.1729L14.3364 54.2738L13.7311 53.1729C13.4728 52.7036 13.0847 52.3175 12.6126 52.0604L11.5059 51.4584L12.6126 50.8565C13.0847 50.5998 13.4728 50.2137 13.7311 49.744L14.3364 48.6431Z" fill="#17282F"/>
<path d="M134.036 19.3964L134.403 20.0645C134.56 20.3491 134.796 20.5836 135.082 20.7396L135.754 21.1049L135.082 21.4705C134.796 21.6262 134.56 21.8606 134.403 22.1452L134.036 22.8133L133.669 22.1452C133.512 21.8606 133.277 21.6262 132.99 21.4705L132.318 21.1049L132.99 20.7396C133.277 20.5836 133.512 20.3491 133.669 20.0645L134.036 19.3964Z" fill="#17282F"/>
<path d="M73.5998 18.0378C73.5695 18.0318 73.6581 17.8401 73.5912 17.4919C73.5524 17.3225 73.4649 17.1159 73.2841 16.9409C73.1078 16.7651 72.8302 16.6385 72.503 16.6314C72.1817 16.6214 71.8108 16.7369 71.5388 17.0152C71.2642 17.2827 71.1141 17.7175 71.1574 18.1704C71.2 18.6174 71.4469 19.0871 71.8788 19.3602C72.2994 19.6333 72.9016 19.7221 73.4466 19.5638C73.9936 19.4066 74.5046 19.0001 74.7414 18.4279C74.9824 17.8542 75.0063 17.1516 74.7493 16.5277C74.4997 15.9024 73.9749 15.364 73.3021 15.1124C72.6218 14.8609 71.8246 14.8278 71.101 15.0942C70.3766 15.3499 69.7322 15.8819 69.3553 16.5868C68.9851 17.2898 68.8353 18.1637 68.9638 18.9834C69.1009 19.809 69.5462 20.5863 70.2081 21.1511C70.8731 21.7103 71.7428 22.0555 72.6393 22.1659C73.0888 22.2212 73.5374 22.1915 73.9723 22.1131C74.4052 22.0209 74.8147 21.853 75.1938 21.6382C75.5685 21.4131 75.8995 21.1273 76.1965 20.8126C76.4744 20.4815 76.7345 20.1341 76.9231 19.7473C77.3258 18.9841 77.544 18.1455 77.5309 17.334C77.5111 16.5181 77.2578 15.73 76.848 15.0608C76.009 13.7209 74.5943 12.8845 73.212 12.5925C72.8706 12.4929 72.5202 12.4966 72.1802 12.4654C72.0102 12.4676 71.8414 12.4869 71.674 12.4962L71.4245 12.5148L71.1817 12.5668C70.5268 12.6668 69.9478 12.9521 69.4169 13.2386C68.3832 13.8807 67.6652 14.7702 67.2435 15.6382C67.1897 15.7467 67.137 15.8537 67.0851 15.9589C67.0436 16.0681 67.0096 16.1781 66.9726 16.2843C66.9046 16.4995 66.815 16.7005 66.7873 16.9078C66.7462 17.1126 66.7066 17.3084 66.6693 17.4953C66.6555 17.6855 66.6428 17.8665 66.6304 18.0381C66.5875 18.3822 66.6353 18.688 66.642 18.9544C66.6439 19.2227 66.6924 19.4438 66.7223 19.6243C66.7821 19.9859 66.8045 20.1806 66.7851 20.1862C66.7657 20.1914 66.7051 20.0074 66.6073 19.6478C66.5583 19.4683 66.4903 19.2461 66.4698 18.973C66.444 18.7018 66.3775 18.3889 66.4033 18.0318C66.4081 17.8531 66.4126 17.6647 66.4179 17.467C66.4489 17.2708 66.4814 17.065 66.5154 16.8502C66.5367 16.6318 66.6215 16.4185 66.6853 16.19C66.7205 16.0766 66.7522 15.96 66.7926 15.8437C66.8434 15.7311 66.8953 15.6166 66.948 15.5003C67.3649 14.5711 68.1023 13.6028 69.1991 12.8905C69.7613 12.5687 70.3826 12.251 71.0924 12.1276L71.3558 12.0678C71.4454 12.0563 71.5362 12.0507 71.6273 12.0418C71.8096 12.0284 71.9938 12.0054 72.1799 12.0002C72.5519 12.0258 72.9363 12.0199 73.3122 12.1213C74.8102 12.4186 76.3534 13.2958 77.3053 14.7788C77.7674 15.5178 78.0603 16.4003 78.0883 17.3195C78.1081 18.244 77.8675 19.1729 77.4319 20.0067C77.2253 20.4332 76.9388 20.8238 76.6269 21.195C76.2948 21.5509 75.9201 21.876 75.492 22.1339C75.0594 22.3817 74.5887 22.5749 74.0914 22.6805C73.5935 22.7726 73.0794 22.8046 72.5725 22.7425C71.5661 22.6184 70.5993 22.2361 69.8308 21.5903C69.0706 20.9412 68.5525 20.0323 68.3993 19.0744C68.2585 18.1121 68.4247 17.1534 68.8651 16.3234C69.3138 15.4966 70.0755 14.8798 70.9224 14.5896C71.7712 14.2875 72.6976 14.3329 73.4874 14.6368C74.2939 14.9478 74.9148 15.6044 75.1998 16.3516C75.4938 17.101 75.4546 17.9263 75.1542 18.6074C74.8502 19.3037 74.2181 19.7856 73.5561 19.9595C72.8874 20.1323 72.1948 20.0201 71.6718 19.6667C71.1473 19.3145 70.8656 18.7344 70.832 18.1953C70.7961 17.6554 70.9941 17.1363 71.3453 16.8164C71.6901 16.4917 72.1388 16.3754 72.5153 16.4058C72.8945 16.4318 73.218 16.602 73.4097 16.8216C73.6062 17.0394 73.6839 17.282 73.7074 17.4733C73.7264 17.6669 73.6981 17.8141 73.667 17.9059C73.6353 17.9984 73.608 18.0407 73.5998 18.0378Z" fill="#17282F"/>
<path d="M121.423 43.3491C121.41 43.3472 121.469 43.1845 121.479 42.856C121.493 42.5294 121.436 42.033 121.179 41.4444C120.68 40.2546 119.372 38.808 117.415 37.3503C113.494 34.4141 107.065 31.2724 98.8286 28.3057C90.5838 25.3513 80.4985 22.5295 69.0906 20.4802C63.3869 19.4732 57.3463 18.6513 51.0478 18.3574C47.9012 18.2247 44.6836 18.2076 41.4503 18.5521C39.838 18.7334 38.212 18.9909 36.6509 19.4993C35.874 19.7549 35.1073 20.0726 34.4297 20.5293C33.7576 20.9785 33.1651 21.6065 32.9743 22.3942C32.7841 23.1823 33.0272 24.0099 33.4223 24.7129C33.819 25.4252 34.3596 26.0532 34.937 26.6299C36.0999 27.7847 37.435 28.7442 38.7922 29.6293C41.5232 31.3872 44.4038 32.8148 47.2732 34.1075C53.0304 36.6696 58.7961 38.6442 64.3448 40.3025C75.4586 43.588 85.7404 45.5905 94.4395 46.6491C103.136 47.6929 110.298 47.7701 115.128 46.9073C117.535 46.4834 119.358 45.7781 120.342 44.9395C120.839 44.53 121.114 44.1119 121.249 43.8143C121.389 43.5167 121.411 43.345 121.423 43.3491C121.423 43.3491 121.414 43.3903 121.392 43.471C121.374 43.5527 121.333 43.6705 121.267 43.8225C121.137 44.125 120.865 44.5515 120.368 44.9696C119.383 45.8253 117.554 46.5447 115.142 46.9813C110.301 47.8694 103.13 47.8125 94.423 46.7847C85.7135 45.7424 75.4208 43.7526 64.2936 40.4734C58.7378 38.8181 52.9642 36.845 47.1952 34.2803C44.319 32.9861 41.4317 31.5566 38.6867 29.7905C37.3222 28.9006 35.9786 27.9367 34.7995 26.7666C34.2139 26.1814 33.6629 25.543 33.2521 24.8065C32.8444 24.0812 32.5796 23.2035 32.7851 22.3489C32.9925 21.4954 33.6273 20.8325 34.3203 20.3695C35.0213 19.8972 35.8022 19.5754 36.59 19.3157C38.1728 18.8007 39.8081 18.5428 41.4291 18.3607C44.6788 18.0152 47.9031 18.0337 51.0564 18.1679C57.3668 18.4651 63.4135 19.2919 69.122 20.3048C80.5396 22.3656 90.6283 25.2034 98.8756 28.1771C107.114 31.1631 113.542 34.3271 117.461 37.2905C119.416 38.7612 120.723 40.2237 121.215 41.4291C121.469 42.0252 121.519 42.5283 121.498 42.8568C121.489 43.0221 121.472 43.1455 121.451 43.2265C121.434 43.3086 121.423 43.3491 121.423 43.3491Z" fill="#17282F"/>
<path d="M116.119 17.6477C116.119 17.6477 116.039 17.4976 115.894 17.2025C115.831 17.0491 115.682 16.9004 115.545 16.7002C115.479 16.5957 115.375 16.5125 115.275 16.4129C115.17 16.3186 115.07 16.203 114.941 16.1071C114.437 15.7058 113.727 15.3264 112.839 15.0106C111.951 14.6888 110.876 14.4759 109.661 14.3172C104.778 13.7045 97.6105 14.3819 89.0474 16.287C84.7622 17.2438 80.1164 18.509 75.2114 20.118C70.3053 21.7221 65.132 23.6535 59.8198 25.9863C54.5121 28.3224 49.0456 31.0446 43.7091 34.4085C41.056 36.1063 38.4153 37.9508 36.0186 40.1465C34.8292 41.2475 33.6846 42.4313 32.7677 43.7898C32.3169 44.4717 31.9305 45.2011 31.6846 45.9788C31.4384 46.7528 31.3904 47.6048 31.6712 48.3695C31.9481 49.1365 32.54 49.7559 33.2286 50.1906C33.9205 50.628 34.6885 50.939 35.4758 51.1705C37.0574 51.6216 38.7005 51.7907 40.3238 51.8691C43.5802 52.0088 46.7948 51.7234 49.9239 51.3176C56.1846 50.4626 62.1277 49.0335 67.6988 47.4109C73.2718 45.7833 78.4772 43.9388 83.2664 42.0151C88.0578 40.0959 92.4279 38.0809 96.322 36.0613C104.1 32.0204 110.014 27.9375 113.347 24.3358C114.172 23.435 114.855 22.5823 115.324 21.7667C115.798 20.9559 116.093 20.2105 116.219 19.5803C116.255 19.4242 116.256 19.2722 116.275 19.1325C116.287 18.9921 116.313 18.8613 116.295 18.7398C116.27 18.4986 116.287 18.2898 116.236 18.1322C116.155 17.8134 116.119 17.6477 116.119 17.6477C116.119 17.6477 116.168 17.809 116.255 18.1281C116.31 18.2861 116.296 18.4964 116.325 18.7394C116.344 18.862 116.32 18.9936 116.309 19.1351C116.292 19.276 116.292 19.4302 116.257 19.5873C116.137 20.2239 115.845 20.977 115.374 21.796C114.907 22.6191 114.226 23.4789 113.403 24.3863C110.076 28.0159 104.164 32.1215 96.3859 36.1825C92.4914 38.212 88.1202 40.2364 83.3269 42.1638C78.5358 44.0956 73.3275 45.9479 67.7496 47.5822C62.1733 49.2112 56.2238 50.6458 49.9493 51.5057C46.8127 51.9137 43.5899 52.2013 40.3152 52.0615C38.682 51.9828 37.0273 51.8137 35.4212 51.3559C34.6215 51.1207 33.8367 50.8045 33.1217 50.3523C32.4109 49.9034 31.7833 49.252 31.4885 48.4357C31.1893 47.6219 31.244 46.7223 31.4983 45.9238C31.7522 45.1197 32.1479 44.3758 32.6059 43.6828C33.537 42.3039 34.6905 41.1129 35.8871 40.0053C38.2982 37.7977 40.9461 35.9495 43.6064 34.2488C48.9563 30.8793 54.4314 28.1575 59.7473 25.8232C65.0678 23.4923 70.2481 21.5645 75.161 19.9656C80.0731 18.3615 84.7256 17.1026 89.0175 16.1532C97.594 14.2633 104.774 13.6053 109.671 14.2425C110.889 14.4075 111.967 14.6271 112.858 14.9563C113.749 15.2796 114.461 15.6672 114.966 16.0767C115.094 16.1747 115.194 16.2925 115.299 16.3888C115.399 16.4902 115.503 16.5753 115.567 16.6816C115.704 16.8852 115.851 17.0368 115.911 17.1929C116.052 17.4927 116.119 17.6477 116.119 17.6477Z" fill="#17282F"/>
<path d="M122.327 29.7461C122.316 29.748 122.316 29.6439 122.244 29.4704C122.172 29.3036 121.996 29.0531 121.654 28.9502C121.325 28.8484 120.828 28.9532 120.52 29.3474C120.192 29.726 120.194 30.4045 120.588 30.8927C120.782 31.1335 121.07 31.3212 121.402 31.3895C121.731 31.4601 122.102 31.3988 122.431 31.2435C123.102 30.9403 123.567 30.124 123.394 29.3058C123.259 28.4917 122.588 27.733 121.697 27.5438C120.817 27.3543 119.803 27.704 119.167 28.4192C118.849 28.7774 118.625 29.2122 118.525 29.6669C118.424 30.1229 118.452 30.5929 118.555 31.0365C118.754 31.9264 119.329 32.6796 120.062 33.0894C120.793 33.5071 121.632 33.6044 122.374 33.4985C123.126 33.4138 123.783 33.1043 124.279 32.7064C124.781 32.3069 125.097 31.8005 125.299 31.3375C125.502 30.8697 125.587 30.432 125.62 30.0746C125.686 29.3563 125.609 28.9547 125.635 28.9532C125.635 28.9532 125.739 29.3493 125.696 30.0813C125.674 30.4454 125.599 30.8942 125.4 31.3791C125.202 31.8588 124.883 32.389 124.367 32.8115C123.857 33.2329 123.174 33.5628 122.396 33.6576C121.629 33.7742 120.748 33.6813 119.973 33.244C119.196 32.8163 118.581 32.0175 118.369 31.0796C118.26 30.6159 118.228 30.1151 118.336 29.6257C118.442 29.1386 118.682 28.6734 119.022 28.2903C119.707 27.5256 120.777 27.1518 121.74 27.3592C122.707 27.5676 123.43 28.3936 123.571 29.2749C123.755 30.1674 123.236 31.067 122.501 31.3884C122.139 31.5545 121.738 31.6173 121.37 31.5356C121.003 31.4553 120.689 31.2446 120.48 30.9775C120.271 30.7073 120.164 30.387 120.158 30.082C120.149 29.7732 120.262 29.4864 120.435 29.2798C120.783 28.8555 121.32 28.757 121.676 28.8785C122.043 29.0022 122.217 29.2776 122.28 29.4559C122.343 29.6421 122.327 29.7461 122.327 29.7461Z" fill="#17282F"/>
<path d="M51.6822 23.886C51.6931 23.8857 51.6796 23.989 51.7278 24.1703C51.7764 24.3453 51.9176 24.6169 52.2426 24.7644C52.5545 24.9089 53.0611 24.8711 53.4201 24.5218C53.7959 24.1903 53.8852 23.5174 53.5605 22.9813C53.4003 22.7163 53.1403 22.4927 52.8209 22.3805C52.5033 22.2671 52.1279 22.2783 51.7805 22.3883C51.0752 22.5993 50.5043 23.3465 50.566 24.1807C50.5903 25.0052 51.1525 25.8464 52.0102 26.1522C52.8571 26.4569 53.9087 26.2459 54.6353 25.6216C54.9988 25.3088 55.279 24.9078 55.4396 24.4705C55.601 24.0321 55.6365 23.5624 55.5947 23.1091C55.517 22.2006 55.0477 21.378 54.3772 20.8745C53.7081 20.3628 52.89 20.1548 52.1402 20.1611C51.3841 20.1451 50.6915 20.3643 50.1465 20.6928C49.5951 21.0216 49.2137 21.4813 48.9507 21.9134C48.6869 22.35 48.5438 22.7725 48.4628 23.1221C48.301 23.8255 48.3238 24.2334 48.2977 24.2316C48.2977 24.2316 48.2476 23.8251 48.3892 23.1058C48.4598 22.7479 48.5946 22.3128 48.8569 21.8588C49.1176 21.4096 49.505 20.9269 50.0732 20.5769C50.6351 20.2272 51.3568 19.9913 52.1398 20.0006C52.9161 19.9872 53.7768 20.1964 54.4863 20.7329C55.1979 21.2602 55.7004 22.1337 55.7841 23.0913C55.8296 23.5654 55.7938 24.0659 55.6212 24.5366C55.4501 25.0048 55.1509 25.434 54.762 25.7684C53.9797 26.4353 52.8694 26.6635 51.9434 26.3298C51.0124 25.9947 50.4076 25.0799 50.387 24.1877C50.3239 23.2785 50.9594 22.4562 51.7308 22.2355C52.1118 22.1189 52.5179 22.1103 52.8717 22.24C53.2243 22.3682 53.5071 22.619 53.679 22.9118C53.8489 23.2068 53.9128 23.539 53.8773 23.8422C53.8445 24.1491 53.6943 24.4181 53.4952 24.6002C53.0925 24.9743 52.547 25.0004 52.2105 24.8328C51.8638 24.6611 51.7282 24.365 51.6897 24.1799C51.6523 23.9875 51.6822 23.886 51.6822 23.886Z" fill="#17282F"/>
<path d="M25.6982 34.4632L26.077 35.1518C26.2385 35.4457 26.4814 35.6872 26.7769 35.8481L27.4694 36.2248L26.7769 36.6016C26.4814 36.7621 26.2385 37.004 26.077 37.2979L25.6982 37.9864L25.3194 37.2979C25.1578 37.004 24.9149 36.7621 24.6195 36.6016L23.9268 36.2248L24.6195 35.8481C24.9149 35.6872 25.1578 35.4457 25.3194 35.1518L25.6982 34.4632Z" fill="#17282F"/>
<path d="M118.361 51.9324L118.804 52.7383C118.993 53.082 119.278 53.3648 119.623 53.5528L120.433 53.9935L119.623 54.4345C119.278 54.6225 118.993 54.9049 118.804 55.2486L118.361 56.0546L117.918 55.2486C117.729 54.9049 117.445 54.6225 117.099 54.4345L116.289 53.9935L117.099 53.5528C117.445 53.3648 117.729 53.082 117.918 52.7383L118.361 51.9324Z" fill="#17282F"/>
<path d="M39.4657 60.0246L39.9088 60.8305C40.0979 61.1742 40.3821 61.4566 40.7277 61.6446L41.538 62.0853L40.7277 62.5263C40.3821 62.7144 40.0979 62.9967 39.9088 63.3408L39.4657 64.1464L39.0226 63.3408C38.8336 62.9967 38.5495 62.7144 38.2038 62.5263L37.3936 62.0853L38.2038 61.6446C38.5495 61.4566 38.8336 61.1742 39.0226 60.8305L39.4657 60.0246Z" fill="#17282F"/>
<path d="M122.464 18.5202L122.742 19.0255C122.861 19.241 123.039 19.4183 123.256 19.5361L123.764 19.8125L123.256 20.089C123.039 20.2067 122.861 20.384 122.742 20.5995L122.464 21.1048L122.186 20.5995C122.068 20.384 121.89 20.2067 121.673 20.089L121.165 19.8125L121.673 19.5361C121.89 19.4183 122.068 19.241 122.186 19.0255L122.464 18.5202Z" fill="#17282F"/>
<path d="M58.5559 8.72321L59.021 9.56965C59.2198 9.93044 59.5183 10.2273 59.881 10.4246L60.732 10.8876L59.881 11.3506C59.5183 11.5479 59.2198 11.8447 59.021 12.2055L58.5559 13.052L58.0905 12.2055C57.8921 11.8447 57.5936 11.5479 57.2305 11.3506L56.3799 10.8876L57.2305 10.4246C57.5936 10.2273 57.8921 9.93044 58.0905 9.56965L58.5559 8.72321Z" fill="#17282F"/>
<path d="M28.7754 59.6928C28.7647 59.6946 28.7643 59.5906 28.692 59.4171C28.6204 59.2499 28.444 58.9998 28.1019 58.8969C27.7733 58.7951 27.2764 58.8998 26.9676 59.2937C26.6399 59.6727 26.6421 60.3512 27.0358 60.8394C27.2303 61.0802 27.5179 61.2674 27.8496 61.3362C28.1794 61.4064 28.5499 61.3455 28.8797 61.1902C29.5503 60.887 30.0153 60.0706 29.8421 59.2524C29.7073 58.4383 29.0366 57.6796 28.1457 57.4905C27.2655 57.301 26.2517 57.6506 25.6156 58.3655C25.2973 58.7241 25.0735 59.1588 24.9732 59.6136C24.8723 60.0695 24.9003 60.5396 25.0029 60.9832C25.202 61.8731 25.7776 62.6259 26.5099 63.0357C27.2417 63.4537 28.0803 63.5511 28.8226 63.4452C29.5741 63.3605 30.231 63.051 30.7272 62.653C31.229 62.2536 31.5454 61.7471 31.7478 61.2838C31.9506 60.8164 32.0355 60.3787 32.0685 60.0212C32.1346 59.3026 32.057 58.9013 32.0833 58.8998C32.0833 58.8998 32.1875 59.2959 32.144 60.0279C32.1221 60.3917 32.0469 60.8409 31.8482 61.3254C31.65 61.8055 31.3313 62.3353 30.8151 62.7582C30.3054 63.1792 29.6221 63.5091 28.8445 63.6042C28.0771 63.7205 27.1961 63.6276 26.4207 63.1907C25.6447 62.7626 25.0291 61.9641 24.8173 61.0263C24.7084 60.5622 24.6766 60.0617 24.7843 59.5724C24.8908 59.0852 25.13 58.62 25.4703 58.237C26.1557 57.4723 27.2254 57.0985 28.1877 57.3058C29.1555 57.5139 29.8778 58.3399 30.0187 59.2216C30.2031 60.1141 29.6844 61.0137 28.9493 61.3347C28.5874 61.5012 28.1863 61.564 27.8183 61.4822C27.4515 61.402 27.1375 61.1913 26.9277 60.9241C26.7197 60.654 26.6117 60.3337 26.6059 60.0283C26.5971 59.7199 26.7099 59.433 26.8827 59.2264C27.2316 58.8021 27.7686 58.7033 28.1246 58.8251C28.4914 58.9489 28.6655 59.2242 28.7284 59.4026C28.7916 59.5883 28.7754 59.6928 28.7754 59.6928Z" fill="#17282F"/>
<path d="M73.8545 28.3182L72.7263 28.6463C61.3693 31.9486 54.4612 43.3687 56.8576 54.8936C59.0871 65.6167 61.6891 77.4355 63.4105 83.0356C66.9744 94.6281 78.5395 93.0887 78.5395 93.0887C78.5656 93.0824 78.6698 97.4116 78.6698 97.4116L89.7022 109.844L108.759 96.7305L98.068 46.746C95.5647 34.3609 86.2321 25.4868 73.8545 28.3182Z" fill="#F9A78D"/>
<path d="M78.54 93.0889C78.54 93.0889 86.7056 91.3225 93.1199 84.129C93.1199 84.129 92.7216 94.0803 78.6413 96.2469L78.54 93.0889Z" fill="#F57F62"/>
<path d="M60.8545 59.3083C61.1253 59.4647 62.1168 58.1654 63.9163 57.6474C65.7053 57.1042 67.2953 57.6407 67.4256 57.365C67.4929 57.2406 67.1671 56.9102 66.4704 56.6613C65.7834 56.412 64.7004 56.289 63.5819 56.6197C62.4642 56.9515 61.6427 57.6352 61.2247 58.2122C60.7962 58.7948 60.7241 59.2411 60.8545 59.3083Z" fill="#17282F"/>
<path d="M78.5971 54.5994C78.8683 54.7559 79.862 53.4565 81.6592 52.9385C83.4483 52.3961 85.0382 52.9319 85.169 52.6562C85.2358 52.5313 84.9123 52.2014 84.213 51.9528C83.5264 51.7031 82.4434 51.5808 81.3253 51.9104C80.2072 52.243 79.386 52.9267 78.9673 53.503C78.5403 54.0856 78.4674 54.5322 78.5971 54.5994Z" fill="#17282F"/>
<path d="M76.1866 70.2133C76.1649 70.1092 74.9911 70.2419 73.1132 70.538C72.6399 70.6246 72.1789 70.6603 72.01 70.3708C71.8053 70.0728 71.8524 69.5244 71.9189 68.9288C72.0257 67.6981 72.137 66.4088 72.2543 65.0574C72.6847 59.5597 72.8532 55.0935 72.6305 55.0779C72.4075 55.0627 71.8781 59.5062 71.4478 65.0039C71.3529 66.3568 71.261 67.6461 71.1755 68.8793C71.1545 69.4486 71.0286 70.1241 71.4639 70.7405C71.6876 71.0456 72.0974 71.1953 72.4146 71.1883C72.7355 71.1923 72.9951 71.1221 73.2264 71.0693C75.0767 70.6372 76.2094 70.3166 76.1866 70.2133Z" fill="#17282F"/>
<path d="M86.0877 47.7598C85.9405 47.2411 84.058 47.3462 81.8861 46.9249C79.7052 46.5473 77.9845 45.7816 77.661 46.2133C77.5156 46.421 77.7887 46.9185 78.4675 47.4588C79.1399 47.9983 80.236 48.5441 81.5413 48.7849C82.8462 49.0227 84.0659 48.9023 84.8877 48.637C85.7156 48.3729 86.1497 48.005 86.0877 47.7598Z" fill="#17282F"/>
<path d="M59.2279 54.0759C59.7161 54.3802 61.0685 53.5534 62.8306 53.0477C64.5767 52.4908 66.1703 52.425 66.3964 51.9037C66.4897 51.6555 66.1412 51.3118 65.3799 51.1052C64.629 50.8975 63.4634 50.8793 62.2575 51.2438C61.052 51.6098 60.1024 52.2686 59.6037 52.8553C59.0956 53.4457 59.0071 53.922 59.2279 54.0759Z" fill="#17282F"/>
<path d="M99.6436 55.6392C99.818 55.4954 106.986 50.9381 109.068 58.9662C111.15 66.9942 101.914 67.8856 101.841 67.659C101.767 67.4323 99.6436 55.6392 99.6436 55.6392Z" fill="#F9A78D"/>
<path d="M104.221 63.517C104.25 63.482 104.387 63.5787 104.653 63.6258C104.912 63.6719 105.33 63.6426 105.71 63.3776C106.482 62.8478 106.85 61.3169 106.514 59.8596C106.345 59.1243 106.011 58.4678 105.601 57.9583C105.202 57.4344 104.714 57.1223 104.265 57.1561C103.812 57.1677 103.575 57.5013 103.535 57.7529C103.485 58.0048 103.578 58.1519 103.538 58.1768C103.521 58.2028 103.33 58.0865 103.31 57.7384C103.301 57.5704 103.347 57.3568 103.496 57.1539C103.649 56.9477 103.914 56.7946 104.221 56.75C104.854 56.633 105.563 57.0588 106.013 57.6176C106.498 58.1705 106.891 58.904 107.08 59.7303C107.448 61.3615 107.009 63.0886 105.929 63.7236C105.399 64.0167 104.882 63.968 104.588 63.841C104.286 63.7068 104.197 63.5385 104.221 63.517Z" fill="#F57F62"/>
<path d="M80.0415 76.2194C80.3168 76.3012 80.7614 74.4497 82.6685 73.51C84.5741 72.5655 86.5103 73.241 86.5865 72.9853C86.6403 72.8754 86.2301 72.5216 85.3971 72.3017C84.5819 72.0798 83.3185 72.0598 82.1518 72.6342C80.987 73.212 80.3127 74.1896 80.0684 74.9342C79.8129 75.6922 79.9115 76.2001 80.0415 76.2194Z" fill="#17282F"/>
<path d="M67.4072 62.5116C67.3811 62.5161 67.3758 62.3812 67.2443 62.2014C67.1218 62.0275 66.7949 61.828 66.4102 61.994C66.2275 62.0691 66.05 62.2263 65.9686 62.4474C65.8834 62.6617 65.9081 62.9408 66.0448 63.1834C66.1797 63.422 66.4329 63.6223 66.7385 63.668C67.0355 63.717 67.3986 63.6193 67.662 63.3982C67.9284 63.1767 68.1125 62.8271 68.1039 62.4526C68.0976 62.0728 67.9377 61.6715 67.64 61.3847C67.346 61.0949 66.9208 60.9213 66.4834 60.9436C66.0373 60.9682 65.5782 61.1439 65.2353 61.4709C64.8893 61.7919 64.657 62.2489 64.6177 62.7376C64.5808 63.2228 64.713 63.7634 64.9872 64.1945C65.2685 64.6288 65.7108 64.9599 66.226 65.12C66.7408 65.2753 67.3262 65.2605 67.8671 65.1037C68.1376 65.0253 68.3856 64.8986 68.6139 64.7485C68.8376 64.5909 69.0289 64.3959 69.1922 64.1811C69.3502 63.9619 69.4686 63.7177 69.5612 63.4651C69.6382 63.2072 69.7021 62.9441 69.7144 62.6744C69.757 62.1338 69.6737 61.5976 69.4667 61.138C69.2542 60.6757 68.9153 60.2856 68.5141 60.0006C67.7012 59.4347 66.6724 59.2957 65.7971 59.4659C64.9129 59.6116 64.2109 60.1652 63.757 60.7701C63.314 61.3973 63.1145 62.0925 63.082 62.7045C63.0558 63.3172 63.1485 63.8578 63.314 64.2658C63.3726 64.4798 63.4761 64.6489 63.5452 64.8057C63.6113 64.9647 63.6939 65.0844 63.7548 65.1854C63.877 65.3879 63.9345 65.5016 63.9188 65.5143C63.9035 65.5269 63.8149 65.4377 63.6584 65.2523C63.5803 65.1598 63.4798 65.0468 63.3939 64.8908C63.3058 64.7369 63.1825 64.5683 63.1025 64.3494C62.8967 63.9325 62.7592 63.3614 62.7559 62.6941C62.7592 62.0279 62.9453 61.2524 63.4178 60.536C63.6715 60.1946 63.9629 59.8405 64.3592 59.5796C64.4519 59.506 64.5513 59.4403 64.6603 59.3875C64.7668 59.3314 64.8725 59.2694 64.9839 59.2177C65.2158 59.1352 65.4475 59.0316 65.7019 58.994C66.6855 58.783 67.8492 58.9086 68.8219 59.5618C69.299 59.8902 69.7118 60.3517 69.9729 60.9057C70.2311 61.4664 70.3293 62.0944 70.2849 62.713C70.2714 63.0259 70.2008 63.3387 70.1082 63.6471C69.9998 63.9515 69.8567 64.2487 69.6629 64.5192C69.4637 64.7849 69.2261 65.0275 68.949 65.223C68.668 65.4106 68.3613 65.5648 68.0348 65.6595C67.3878 65.8468 66.6982 65.8661 66.0541 65.6714C65.415 65.473 64.8535 65.0494 64.5053 64.5003C64.1627 63.9433 64.0118 63.3176 64.0626 62.6881C64.1194 62.0598 64.4257 61.4787 64.871 61.0774C65.3145 60.6687 65.8969 60.4535 66.4647 60.4338C67.0482 60.4142 67.6089 60.6583 67.9836 61.0462C68.3651 61.4334 68.5601 61.9536 68.5545 62.4552C68.5507 62.9698 68.2855 63.4368 67.9201 63.7185C67.5488 64.0016 67.093 64.1135 66.6702 64.0306C66.248 63.9485 65.9193 63.6609 65.756 63.3343C65.5909 63.0084 65.5771 62.6335 65.7119 62.3411C65.8416 62.0483 66.0904 61.8599 66.3317 61.7819C66.573 61.7005 66.8188 61.7232 66.9944 61.8109C67.1722 61.896 67.2817 62.0264 67.3437 62.1386C67.461 62.3727 67.4192 62.5142 67.4072 62.5116Z" fill="#17282F"/>
<path d="M83.7168 58.4421C83.691 58.4465 83.6854 58.312 83.5543 58.1322C83.4318 57.9579 83.1045 57.7587 82.7197 57.9248C82.5374 57.9999 82.36 58.1567 82.2785 58.3781C82.1934 58.5925 82.2176 58.8712 82.3547 59.1138C82.4896 59.3524 82.7429 59.5527 83.0485 59.5984C83.3455 59.6478 83.7086 59.5501 83.9719 59.329C84.2383 59.1075 84.4225 58.7579 84.4139 58.3833C84.4075 58.0036 84.2476 57.6023 83.9499 57.3155C83.6559 57.0256 83.2308 56.8521 82.7933 56.8744C82.3473 56.8989 81.8882 57.0743 81.5452 57.4017C81.1993 57.7227 80.9669 58.1797 80.9277 58.6683C80.8907 59.1536 81.023 59.6942 81.2972 60.1252C81.5785 60.5596 82.0208 60.8907 82.5359 61.0508C83.0507 61.2061 83.6361 61.1909 84.177 61.0341C84.4475 60.9561 84.6956 60.8294 84.9238 60.6792C85.1476 60.5213 85.3388 60.3266 85.5021 60.1119C85.6601 59.8926 85.7785 59.6485 85.8712 59.3959C85.9481 59.138 86.012 58.8749 86.0244 58.6052C86.0669 58.0645 85.9836 57.5284 85.7767 57.0687C85.5641 56.6065 85.2253 56.216 84.8241 55.9314C84.0112 55.3655 82.9823 55.2265 82.1071 55.3967C81.2228 55.5423 80.5205 56.096 80.0666 56.7009C79.6239 57.3281 79.4244 58.0233 79.3916 58.6349C79.3658 59.2476 79.4584 59.7882 79.6235 60.1966C79.6826 60.4106 79.7861 60.5797 79.8552 60.7361C79.9213 60.8955 80.0038 61.0151 80.0647 61.1162C80.1869 61.3183 80.2444 61.4324 80.2287 61.445C80.2134 61.4577 80.1249 61.3685 79.9684 61.1831C79.8899 61.0906 79.7898 60.9776 79.7039 60.8216C79.6157 60.6677 79.4924 60.499 79.4125 60.2802C79.2066 59.8629 79.0692 59.2922 79.0654 58.6245C79.0692 57.9583 79.2552 57.1832 79.7278 56.4668C79.9814 56.1253 80.2728 55.7712 80.6692 55.5104C80.7618 55.4368 80.8612 55.3711 80.9703 55.3183C81.0767 55.2622 81.1825 55.2001 81.2938 55.1481C81.5254 55.0656 81.7574 54.9623 82.0118 54.9248C82.9951 54.7134 84.1587 54.8393 85.1319 55.4926C85.6089 55.821 86.0217 56.2821 86.2829 56.8365C86.541 57.3972 86.6393 58.0252 86.5948 58.6434C86.5814 58.9567 86.5104 59.2695 86.4181 59.5779C86.3098 59.8822 86.1667 60.1795 85.9728 60.45C85.7737 60.7157 85.5357 60.9579 85.2589 61.1534C84.978 61.3414 84.6713 61.4956 84.3448 61.5903C83.6977 61.7776 83.0077 61.7969 82.3641 61.6022C81.7249 61.4038 81.1634 60.9802 80.8149 60.4307C80.4727 59.8737 80.3218 59.2483 80.3722 58.6189C80.4293 57.9902 80.7357 57.4095 81.181 57.0082C81.6244 56.5991 82.2068 56.3839 82.7746 56.3643C83.3582 56.3449 83.9189 56.5887 84.2936 56.977C84.675 57.3641 84.87 57.8843 84.8644 58.3859C84.8607 58.9006 84.5951 59.3676 84.2297 59.6493C83.8587 59.9324 83.403 60.0442 82.9801 59.9614C82.558 59.8793 82.2292 59.5917 82.0656 59.2651C81.9009 58.9392 81.887 58.5643 82.0219 58.2715C82.1515 57.9791 82.4003 57.7907 82.6416 57.7127C82.8826 57.6313 83.1288 57.654 83.3044 57.7416C83.4822 57.8267 83.5916 57.9572 83.6533 58.0694C83.771 58.3035 83.7291 58.445 83.7168 58.4421Z" fill="#17282F"/>
<path d="M79.1174 39.8621C79.1215 39.8268 79.4024 39.8877 79.8245 39.7751C80.2366 39.6722 80.804 39.3441 81.073 38.747C81.3338 38.1462 81.1926 37.5086 80.9905 37.1367C80.7884 36.7513 80.5534 36.5864 80.5769 36.56C80.5829 36.5433 80.8586 36.6718 81.11 37.069C81.358 37.4495 81.5441 38.1466 81.2512 38.8251C80.9464 39.498 80.305 39.8331 79.8552 39.9085C79.3912 39.9929 79.1091 39.8781 79.1174 39.8621Z" fill="#17282F"/>
<path d="M86.1869 37.4791C86.2026 37.4858 86.0315 37.7805 85.566 38.0339C85.1132 38.2866 84.3407 38.4452 83.5677 38.1769C82.7989 37.9042 82.2868 37.335 82.0249 36.8973C81.7563 36.4529 81.6935 36.1341 81.7133 36.1292C81.744 36.117 81.8527 36.4146 82.14 36.8222C82.4213 37.2257 82.9203 37.7422 83.6324 37.9941C84.344 38.2416 85.0632 38.119 85.5047 37.9113C85.9571 37.7054 86.1611 37.4535 86.1869 37.4791Z" fill="#17282F"/>
<path d="M83.7508 42.7277C83.7201 42.74 83.6208 42.4706 83.3481 42.1128C83.0813 41.7568 82.6088 41.3202 81.9651 41.0932C81.3203 40.8673 80.677 40.9111 80.2444 41.0208C79.8062 41.1289 79.5585 41.276 79.5425 41.2474C79.5301 41.2314 79.7565 41.0378 80.2067 40.8892C80.6494 40.7399 81.3367 40.6678 82.0297 40.9108C82.722 41.1553 83.211 41.6409 83.4609 42.034C83.7172 42.4312 83.7706 42.7233 83.7508 42.7277Z" fill="#17282F"/>
<path d="M84.6911 42.1924C84.6788 42.2072 84.4662 42.03 84.3112 41.6268C84.1554 41.2356 84.0953 40.5883 84.4165 39.9931C84.7442 39.4008 85.3232 39.0987 85.7379 39.0158C86.1626 38.9259 86.4275 39.0073 86.4219 39.0255C86.4204 39.0593 86.1589 39.0311 85.7726 39.1481C85.3931 39.2585 84.8802 39.555 84.5876 40.0852C84.2996 40.6177 84.3284 41.207 84.4416 41.5837C84.5529 41.9701 84.7188 42.1727 84.6911 42.1924Z" fill="#17282F"/>
<path d="M75.3755 25.1984C73.877 23.2698 71.2984 22.5127 69.323 23.4206C66.3385 21.7589 62.5423 22.7047 60.739 25.5591C58.5904 24.7262 56.1582 25.2202 54.5588 26.814C52.9595 28.4084 52.2502 31.0452 52.7569 33.515C50.5181 33.6096 48.5417 35.4569 48.0808 37.8871C47.6199 40.3173 48.7082 43.1466 50.6565 44.583C48.5351 45.9775 47.7467 49.3737 48.9355 51.9986C50.1239 54.6241 53.1226 56.1099 55.4836 55.2435L76.0763 32.1065C77.1732 30.0701 76.8755 27.127 75.3755 25.1984Z" fill="#17282F"/>
<path d="M39.9511 76.3646C39.9511 76.3646 49.4376 57.2275 50.0869 56.458C50.7362 55.6884 54.1906 47.6861 54.1906 47.6861L59.0232 41.9411C59.0232 41.9411 61.2904 42.2792 59.8506 45.1972L57.799 49.0836L65.3336 41.5613C65.3336 41.5613 67.5653 41.8177 66.6963 44.175C66.0504 45.9266 63.7496 48.6396 63.7496 48.6396L70.512 42.8009C70.512 42.8009 73.3254 43.2323 71.9757 46.1678C71.0982 48.0766 63.2158 56.7419 63.2158 56.7419C63.2158 56.7419 67.148 54.3255 68.3905 53.5236C69.633 52.7217 70.9159 50.9775 71.833 51.1425C72.7505 51.3079 74.3516 52.7195 71.9626 55.4168C69.5736 58.1145 62.8527 62.4133 61.8739 62.9476C60.8951 63.4816 60.8951 63.4816 60.8951 63.4816C60.8951 63.4816 59.7307 66.4809 58.0896 67.9297C58.0896 67.9297 55.392 76.4315 54.0326 78.7721C52.5659 81.2969 50.1306 82.6677 50.1306 82.6677L45.981 93.8166L34.1289 85.6745L39.9511 76.3646Z" fill="#F9A78D"/>
<path d="M39.9511 76.3646C39.9511 76.3646 39.8278 76.5772 39.5775 76.9852C39.324 77.3954 38.9505 78.0003 38.462 78.791C37.4759 80.3773 36.0271 82.7079 34.168 85.6987L34.155 85.637C37.3432 87.8204 41.3497 90.5642 46.019 93.762L45.9182 93.7936C47.1599 90.4486 48.5571 86.683 50.0574 82.641C50.0637 82.6243 50.0753 82.6105 50.0899 82.602L50.0921 82.6005C51.1911 81.9298 52.2196 81.0454 53.0833 79.995C53.511 79.4658 53.9022 78.894 54.2066 78.2686C54.5111 77.6414 54.7916 76.9908 55.0546 76.3253C56.1089 73.6633 57.0596 70.8296 58.0047 67.903C58.01 67.8878 58.0193 67.874 58.0305 67.8636C58.6353 67.3174 59.1483 66.6181 59.6055 65.8645C60.0583 65.1076 60.4677 64.2924 60.8099 63.4493C60.8181 63.4288 60.8334 63.4125 60.851 63.4025C61.3475 63.1264 61.8567 62.867 62.3401 62.5657C62.8276 62.2654 63.3143 61.9559 63.7989 61.6378C64.7694 61.0028 65.7385 60.3429 66.7027 59.6558C67.6661 58.968 68.6262 58.255 69.5624 57.4962C70.4914 56.7337 71.4231 55.9385 72.1863 54.9943C72.5554 54.518 72.886 53.9952 73.0373 53.4155C73.198 52.847 73.115 52.1956 72.7037 51.7579C72.5069 51.5398 72.2513 51.367 71.9712 51.2767C71.6925 51.1775 71.413 51.2574 71.1463 51.4079C70.6203 51.7155 70.1668 52.1636 69.6965 52.5843C69.231 53.0086 68.7401 53.4419 68.185 53.7652C67.6437 54.1018 67.1001 54.4399 66.5555 54.7788C65.4654 55.457 64.3689 56.1388 63.2669 56.8244C63.2213 56.8526 63.1616 56.8389 63.1332 56.7935C63.1096 56.7564 63.1156 56.7084 63.1436 56.6772C63.7185 56.0363 64.3394 55.344 64.9625 54.6495C66.7045 52.6816 68.4196 50.7227 70.0323 48.7239C70.4335 48.223 70.8269 47.7184 71.2016 47.2045C71.5714 46.6858 71.9237 46.1678 72.1019 45.5681C72.2917 44.9855 72.3115 44.3281 71.9924 43.8183C71.6742 43.3115 71.0776 43.0131 70.4974 42.8953L70.5747 42.873C68.2773 44.8558 66.0201 46.8036 63.8112 48.7102C63.772 48.7436 63.7126 48.7395 63.6789 48.7005C63.6483 48.666 63.6494 48.6139 63.6778 48.5794C64.6338 47.4163 65.5431 46.2184 66.2447 44.9335C66.4124 44.6102 66.5771 44.2828 66.6724 43.9387C66.7852 43.6006 66.8327 43.2409 66.777 42.9024C66.7236 42.5635 66.5416 42.2544 66.2693 42.0448C65.9977 41.8375 65.6578 41.7033 65.323 41.6509L65.3978 41.6249C62.7891 44.2267 60.2735 46.736 57.8594 49.1438C57.8262 49.1769 57.772 49.1773 57.7388 49.1442C57.7115 49.1171 57.7066 49.0766 57.7234 49.0442C58.4067 47.7515 59.0743 46.4889 59.7273 45.2537C59.8793 44.9424 60.0198 44.6314 60.1143 44.3051C60.1733 44.1453 60.1868 43.977 60.2256 43.8143C60.2312 43.6496 60.2619 43.4824 60.2327 43.3212C60.2062 42.9964 60.0755 42.6858 59.848 42.4598C59.6264 42.2317 59.3175 42.0805 59.0115 42.0199L59.0844 41.992C57.3869 44.0067 55.7797 45.9144 54.247 47.7333L54.2582 47.7151C53.2738 49.975 52.3223 52.1231 51.3742 54.1364C51.1347 54.6384 50.8986 55.1337 50.6491 55.6145C50.5254 55.8557 50.3992 56.0924 50.2553 56.3231C50.094 56.5591 49.9662 56.7553 49.8369 56.9905C49.3252 57.9027 48.8619 58.8079 48.4073 59.6774C46.6048 63.1661 45.0829 66.193 43.8344 68.6674C42.59 71.141 41.6221 73.0654 40.9635 74.3752C40.6347 75.0258 40.384 75.5226 40.213 75.8611C40.043 76.1952 39.9511 76.3646 39.9511 76.3646C39.9511 76.3646 40.0299 76.1893 40.1935 75.8515C40.3601 75.5111 40.6048 75.011 40.925 74.3562C41.5757 73.0427 42.5317 71.1124 43.7608 68.6309C44.9981 66.1507 46.5095 63.1189 48.3027 59.6239C48.7558 58.7521 49.2157 57.8473 49.7275 56.9292C49.8478 56.7043 50.011 56.4576 50.1489 56.2536C50.2856 56.0325 50.4122 55.7951 50.534 55.5554C50.7813 55.0768 51.0156 54.5815 51.2539 54.0799C52.1961 52.0674 53.1431 49.9175 54.1229 47.6575C54.1259 47.6508 54.1297 47.6445 54.1342 47.6393C55.6639 45.8178 57.2681 43.9075 58.9618 41.8902L58.9641 41.8876C58.982 41.8664 59.0097 41.8575 59.0351 41.8627C59.3858 41.9322 59.7097 42.092 59.963 42.3476C60.2185 42.5996 60.3657 42.9518 60.3945 43.3048C60.4255 43.4824 60.3945 43.6586 60.3874 43.8354C60.3482 44.0064 60.3325 44.1855 60.272 44.3504C60.1745 44.6886 60.0284 45.0126 59.8749 45.3284C59.223 46.5651 58.5569 47.8288 57.8747 49.1234L57.7384 49.0238C60.1498 46.6137 62.6632 44.1022 65.2693 41.4975L65.2719 41.4952C65.2913 41.4755 65.3186 41.4677 65.344 41.4714C65.7217 41.5309 66.075 41.671 66.3818 41.9021C66.6866 42.1343 66.8988 42.4925 66.9574 42.8716C67.0198 43.2506 66.9656 43.6374 66.8483 43.9915C66.7475 44.3545 66.579 44.6893 66.4079 45.0193C65.6944 46.3276 64.7847 47.5252 63.8213 48.6998L63.6883 48.569C65.8965 46.6617 68.1525 44.7127 70.4488 42.7289L70.4515 42.727C70.4728 42.7084 70.5008 42.7021 70.5265 42.7066C70.8531 42.7683 71.1549 42.8831 71.4396 43.0466C71.7186 43.2119 71.9831 43.4289 72.1553 43.7165C72.5162 44.2921 72.4844 45.0174 72.2864 45.6246C72.1785 45.9293 72.0668 46.234 71.8931 46.5123C71.7313 46.7951 71.5423 47.0526 71.3589 47.3168C70.9812 47.8351 70.5863 48.3416 70.1836 48.8443C68.5672 50.8486 66.8517 52.8083 65.1086 54.7773C64.4847 55.4726 63.8635 56.1656 63.2878 56.8069L63.1645 56.6598C64.2662 55.9749 65.3619 55.2935 66.4509 54.6161C67.5312 53.9182 68.6721 53.3397 69.5661 52.4423C70.0375 52.0221 70.4884 51.5714 71.0518 51.2406C71.1967 51.1645 71.3477 51.0913 71.518 51.0597C71.685 51.0132 71.8751 51.05 72.0298 51.0942C72.347 51.1972 72.6272 51.3874 72.8476 51.6308C73.3082 52.1194 73.3971 52.8566 73.223 53.4623C73.0601 54.0825 72.7153 54.622 72.3365 55.111C71.5535 56.0786 70.6162 56.8753 69.6819 57.6418C68.7409 58.4036 67.7778 59.1185 66.8117 59.807C65.8446 60.4952 64.8733 61.1559 63.9001 61.7913C63.4141 62.1101 62.9262 62.4196 62.4361 62.7213C61.9444 63.0268 61.4345 63.2861 60.9388 63.5611L60.9799 63.5143C60.631 64.3719 60.2193 65.1894 59.7598 65.9567C59.2958 66.7195 58.7751 67.4307 58.1482 67.9959L58.174 67.9562C57.2247 70.8861 56.271 73.7182 55.2104 76.3873C54.9456 77.0543 54.6631 77.7075 54.3542 78.3418C54.043 78.9791 53.644 79.5602 53.2092 80.0964C52.3287 81.1632 51.295 82.0509 50.169 82.7354L50.2038 82.6949C48.6961 86.7343 47.2914 90.4969 46.0437 93.8397C46.031 93.8738 45.9925 93.8917 45.9578 93.879C45.9525 93.8768 45.9473 93.8742 45.9428 93.8712C41.2832 90.66 37.2845 87.9048 34.1029 85.7121C34.0826 85.6983 34.077 85.6709 34.0899 85.6504C35.9646 82.6703 37.4256 80.348 38.4203 78.7673C38.9176 77.9814 39.2979 77.3809 39.5562 76.9733C39.8136 76.569 39.9511 76.3646 39.9511 76.3646Z" fill="#F57F62"/>
<path d="M64.8401 47.4143C64.8502 47.4228 64.7022 47.6086 64.4254 47.9367C64.1482 48.2644 63.7395 48.7322 63.2251 49.3022C62.1933 50.4388 60.736 51.9834 59.0202 53.5834C57.66 54.8534 56.3364 55.9592 55.2262 56.7904L55.2138 56.7997L55.2 56.8034C54.1761 57.0913 53.4061 57.5354 52.904 57.8772C52.4008 58.2228 52.1479 58.4609 52.1341 58.4453C52.1289 58.4397 52.1872 58.3751 52.3048 58.2614C52.424 58.1492 52.6044 57.9894 52.8517 57.8044C53.3441 57.4369 54.1152 56.9643 55.1563 56.6529L55.1302 56.6659C56.2221 55.8198 57.5307 54.7085 58.8872 53.4422C60.5978 51.8471 62.0678 50.3207 63.1243 49.2097C63.6334 48.6687 64.0533 48.2221 64.369 47.8869C64.6626 47.5741 64.83 47.4054 64.8401 47.4143Z" fill="#F57F62"/>
<path d="M58.1707 48.6294C58.1902 48.6465 57.9212 48.9876 57.4606 49.5175C57 50.047 56.3443 50.7619 55.6024 51.5336C54.8784 52.279 54.2239 52.9526 53.6935 53.4988C53.2033 53.9997 52.8959 54.3062 52.875 54.2876C52.8559 54.2706 53.1275 53.9313 53.5926 53.4059C54.0573 52.8798 54.7204 52.1716 55.4616 51.3998C56.1811 50.6511 56.8315 49.9741 57.359 49.4253C57.8446 48.92 58.1498 48.6109 58.1707 48.6294Z" fill="#F57F62"/>
<path d="M55.2832 60.558C58.1478 59.619 60.8842 58.2948 63.395 56.6324L55.2832 60.558Z" fill="#F9A78D"/>
<path d="M63.3951 56.6325C63.4026 56.6436 63.3036 56.7231 63.1179 56.8577C62.933 56.9929 62.6584 57.1783 62.3129 57.3987C61.6229 57.8397 60.6411 58.4078 59.5148 58.9537C58.3873 59.4984 57.332 59.916 56.5572 60.1839C56.1698 60.3184 55.8534 60.4191 55.6322 60.4804C55.4115 60.5425 55.2878 60.5707 55.2833 60.5581C55.2744 60.5302 55.7495 60.3559 56.509 60.0561C57.2685 59.7562 58.3089 59.3211 59.4296 58.7794C60.5492 58.2369 61.5354 57.6911 62.2415 57.2816C62.9476 56.8725 63.3787 56.6083 63.3951 56.6325Z" fill="#F57F62"/>
<path d="M38.7023 77.8128C38.2881 78.3623 25.9966 96.7697 25.9966 96.7697C25.9966 96.7697 14.388 114.758 12.6923 119.819C10.2161 127.209 9.66316 140.018 17.6734 143.453C25.6835 146.887 28.4441 146.998 38.1115 143.289C47.7789 139.58 54.8252 133.786 54.8252 133.786L52.9271 100.308L45.1318 104.287L51.8404 86.371L38.7023 77.8128Z" fill="#AAF1EA"/>
<path d="M141.959 106.319C141.959 106.319 148.201 111.288 150.461 128.213C151.887 138.898 155.934 164.969 155.934 164.969L132.326 164.968C132.326 164.968 127.599 131.436 128.083 130.93C128.566 130.425 141.959 106.319 141.959 106.319Z" fill="#AAF1EA"/>
<path d="M52.9279 100.308L78.4698 95.0102C78.4698 95.0102 80.4595 105.533 93.8181 103.242C107.561 100.885 107.727 91.4895 107.727 91.4895C107.727 91.4895 130.647 99.3172 135.083 101.291C139.519 103.266 141.959 106.319 141.959 106.319C141.959 106.319 133.815 137.753 133.562 138.147C133.309 138.542 133.055 165.131 132.421 165C131.787 164.868 56.3846 164.599 56.3846 164.599L54.0919 133.1L46.2305 106.03L52.9279 100.308Z" fill="#AAF1EA"/>
<path d="M48.6131 95.3922C48.6194 95.3948 48.5825 95.5018 48.507 95.7028C48.4233 95.9191 48.3101 96.2115 48.1678 96.5797C47.8757 97.3422 47.4483 98.4428 46.9462 99.8132C45.9335 102.55 44.6327 106.366 43.2336 110.595C42.5429 112.715 41.8025 114.703 41.3886 116.586C41.1618 117.523 40.9533 118.417 40.718 119.245C40.4894 120.075 40.2159 120.833 39.944 121.511C39.6754 122.189 39.4521 122.808 39.266 123.357C39.081 123.909 38.8718 124.368 38.6953 124.735C38.5178 125.104 38.3736 125.386 38.2736 125.577C38.1734 125.767 38.1179 125.866 38.1119 125.863C38.1059 125.86 38.1495 125.755 38.2382 125.56C38.334 125.349 38.4634 125.064 38.6264 124.704C38.7923 124.331 38.9886 123.874 39.1628 123.323C39.339 122.771 39.5547 122.144 39.8158 121.461C40.368 120.11 40.7837 118.427 41.2141 116.545C41.6209 114.65 42.3602 112.648 43.0487 110.534C44.4481 106.305 45.7706 102.493 46.8173 99.7653C47.3362 98.4001 47.7838 97.3058 48.0976 96.5515C48.2541 96.1888 48.3785 95.9012 48.4708 95.6879C48.5582 95.4917 48.6071 95.3896 48.6131 95.3922Z" fill="#17282F"/>
<path d="M55.0333 146.05C55.0285 146.05 55.018 145.975 55.0035 145.832C54.9889 145.673 54.9698 145.463 54.9456 145.197C54.9 144.626 54.8357 143.819 54.7554 142.807C54.6045 140.744 54.3934 137.851 54.1457 134.46L54.1476 134.473C53.6795 132.365 53.1315 130.057 52.4833 127.657C51.1527 122.686 49.5796 118.282 48.0804 115.261C47.3564 113.737 46.6052 112.593 46.0866 111.807C45.8147 111.422 45.5808 111.139 45.4351 110.938C45.3671 110.845 45.3119 110.77 45.2674 110.709C45.2304 110.657 45.2125 110.63 45.2151 110.628C45.2177 110.625 45.2405 110.649 45.2823 110.697C45.3309 110.754 45.391 110.825 45.4654 110.913C45.6215 111.107 45.8655 111.383 46.1483 111.763C46.6881 112.539 47.461 113.678 48.2037 115.2C49.7402 118.218 51.3387 122.628 52.6709 127.607C53.3205 130.01 53.8641 132.323 54.3236 134.434L54.3251 134.441L54.3254 134.447C54.5447 137.841 54.7315 140.736 54.8649 142.8C54.9235 143.813 54.9706 144.621 55.0038 145.193C55.0162 145.46 55.0259 145.671 55.0333 145.829C55.0382 145.974 55.0386 146.049 55.0333 146.05Z" fill="#17282F"/>
<path d="M132.326 164.968C132.322 164.968 132.319 164.927 132.317 164.845C132.315 164.754 132.313 164.635 132.311 164.485C132.31 164.157 132.309 163.693 132.307 163.102C132.311 161.888 132.318 160.153 132.327 158.013C132.363 153.705 132.412 147.772 132.467 141.212V141.206L132.468 141.2C132.472 141.168 132.477 141.133 132.481 141.098C133.367 134.572 134.169 128.666 134.751 124.376C135.05 122.247 135.292 120.52 135.461 119.311C135.548 118.724 135.616 118.263 135.664 117.936C135.688 117.787 135.707 117.669 135.721 117.579C135.736 117.499 135.745 117.458 135.748 117.458C135.751 117.458 135.749 117.5 135.741 117.581C135.732 117.672 135.719 117.791 135.703 117.941C135.663 118.269 135.608 118.731 135.536 119.321C135.382 120.531 135.16 122.261 134.888 124.394C134.32 128.685 133.538 134.595 132.674 141.123C132.669 141.158 132.665 141.193 132.66 141.225L132.661 141.214C132.584 147.773 132.515 153.706 132.464 158.015C132.43 160.154 132.402 161.889 132.382 163.103C132.368 163.694 132.357 164.157 132.35 164.486C132.344 164.636 132.34 164.754 132.337 164.846C132.333 164.927 132.329 164.968 132.326 164.968Z" fill="#17282F"/>
<path d="M77.9081 103.022C77.8618 103.013 78.1494 102.046 78.9343 101.107C79.7113 100.161 80.6086 99.6948 80.6266 99.7379C80.6613 99.7877 79.8361 100.314 79.0845 101.23C78.3235 102.139 77.9637 103.046 77.9081 103.022Z" fill="#17282F"/>
<path d="M81.7574 105.437C81.7107 105.446 81.6681 104.512 82.1489 103.496C82.6196 102.474 83.3623 101.903 83.3858 101.944C83.4303 101.986 82.775 102.598 82.3256 103.577C81.8635 104.551 81.8183 105.443 81.7574 105.437Z" fill="#17282F"/>
<path d="M86.8113 107.558C86.7577 107.558 86.7139 106.608 86.7139 105.437C86.7139 104.265 86.7577 103.316 86.8113 103.316C86.8653 103.316 86.9092 104.265 86.9092 105.437C86.9092 106.608 86.8653 107.558 86.8113 107.558Z" fill="#17282F"/>
<path d="M92.9495 107.338C92.9099 107.366 92.3757 106.61 92.0275 105.534C91.6726 104.461 91.6584 103.536 91.7066 103.537C91.7656 103.53 91.8658 104.427 92.2124 105.475C92.5516 106.524 93.0003 107.308 92.9495 107.338Z" fill="#17282F"/>
<path d="M99.1007 106.553C99.0518 106.574 98.5852 105.646 98.0585 104.478C97.5317 103.311 97.1447 102.346 97.1936 102.325C97.2426 102.303 97.7092 103.231 98.2359 104.399C98.7626 105.566 99.1497 106.531 99.1007 106.553Z" fill="#17282F"/>
<path d="M105.09 103.901C105.04 103.931 104.477 103.049 103.648 102.066C102.823 101.079 102.052 100.37 102.09 100.327C102.121 100.288 102.96 100.941 103.797 101.942C104.638 102.939 105.134 103.878 105.09 103.901Z" fill="#17282F"/>
<path d="M109.608 100.25C109.564 100.291 108.776 99.4472 107.615 98.6413C106.459 97.8268 105.394 97.3743 105.418 97.3193C105.428 97.2966 105.706 97.381 106.135 97.5727C106.564 97.7641 107.138 98.0721 107.727 98.483C108.314 98.8944 108.8 99.3283 109.126 99.6646C109.453 100.001 109.626 100.234 109.608 100.25Z" fill="#17282F"/>
<path d="M112.118 95.7243C112.079 95.776 111.19 94.8913 109.765 94.4008C108.348 93.8899 107.097 94.0174 107.1 93.9527C107.097 93.9312 107.403 93.8687 107.905 93.8721C108.406 93.8743 109.104 93.9635 109.83 94.2184C110.556 94.4751 111.154 94.8433 111.544 95.1562C111.936 95.4687 112.134 95.7091 112.118 95.7243Z" fill="#17282F"/>
<path d="M74.9375 99.228C74.905 99.1931 75.691 98.5064 76.8521 97.9718C78.0101 97.4304 79.0438 97.2717 79.0498 97.3193C79.064 97.3769 78.068 97.6165 76.9342 98.1471C75.7967 98.6703 74.973 99.2756 74.9375 99.228Z" fill="#17282F"/>
<path d="M71.1827 159.55C71.1812 159.547 71.2167 159.526 71.2876 159.49C71.3683 159.45 71.4729 159.399 71.6041 159.334C71.8958 159.195 72.306 158.999 72.8286 158.749C73.9053 158.238 75.4429 157.509 77.338 156.61C81.1429 154.799 86.3819 152.261 92.1222 149.367C97.8633 146.469 103.018 143.764 106.735 141.782C108.584 140.792 110.084 139.989 111.134 139.427C111.645 139.155 112.047 138.941 112.332 138.789C112.462 138.723 112.566 138.669 112.646 138.628C112.717 138.593 112.754 138.576 112.756 138.579C112.758 138.582 112.724 138.604 112.655 138.645C112.578 138.691 112.477 138.75 112.351 138.824C112.07 138.983 111.674 139.207 111.171 139.493C110.144 140.071 108.652 140.895 106.801 141.902C103.099 143.916 97.9533 146.641 92.21 149.539C86.4682 152.434 81.2176 154.954 77.3971 156.734C75.487 157.624 73.9366 158.336 72.8608 158.817C72.3314 159.053 71.916 159.238 71.6205 159.369C71.4856 159.427 71.3788 159.473 71.2959 159.508C71.2223 159.539 71.1842 159.553 71.1827 159.55Z" fill="#17282F"/>
<path d="M142.821 164.902C142.821 164.902 142.896 164.897 143.044 164.894C143.195 164.892 143.414 164.89 143.701 164.887C144.285 164.884 145.144 164.879 146.261 164.873C148.504 164.867 151.781 164.859 155.934 164.848V164.956C141.852 164.965 117.601 164.981 90.0602 165C68.2449 164.989 48.4982 164.978 34.2007 164.971C27.0561 164.958 21.2739 164.947 17.2732 164.94C15.2775 164.932 13.7272 164.926 12.671 164.921C12.1477 164.917 11.7478 164.914 11.4742 164.912C11.2045 164.908 11.0664 164.902 11.0664 164.902C11.0664 164.902 11.2045 164.895 11.4742 164.892C11.7478 164.89 12.1477 164.886 12.671 164.882C13.7272 164.878 15.2775 164.871 17.2732 164.863C21.2739 164.856 27.0561 164.845 34.2007 164.832C48.4978 164.825 68.2449 164.815 90.0602 164.804C117.601 164.822 141.852 164.838 155.934 164.848V164.956C151.781 164.945 148.504 164.936 146.261 164.931C145.144 164.924 144.285 164.92 143.701 164.916C143.414 164.913 143.195 164.911 143.044 164.909C142.896 164.907 142.821 164.902 142.821 164.902Z" fill="#040606"/>
<path d="M56.4231 43.5191C56.4231 43.5191 57.8085 35.4161 60.9855 32.8567C64.8318 29.7581 67.8179 34.0426 71.682 31.928C75.5461 29.8133 79.2153 26.8452 84.1919 29.0245C89.6394 31.4093 88.0482 34.3507 89.5707 39.5054C95.7423 60.4034 101.059 65.4764 99.8068 55.245C99.67 54.1245 102.522 52.5389 101.882 47.8176C101.053 41.6947 99.5643 34.3734 97.2107 30.442C95.227 27.128 92.583 25.1371 88.2453 23.2748C81.3979 20.3358 73.3709 22.1181 68.0627 23.9345C62.7552 25.7498 53.7426 34.4074 56.4231 43.5191Z" fill="#17282F"/>
<path d="M95.5362 36.8591C94.8421 37.6123 94.1055 38.3938 93.1325 38.7247C92.1599 39.0558 90.8862 38.7558 90.4868 37.8169C90.3073 37.395 90.2948 36.8604 89.923 36.5889C89.4796 36.2656 88.8683 36.5425 88.3489 36.7235C86.5441 37.3515 83.9025 35.8317 83.0083 34.1575C82.7025 34.9687 81.7186 35.4229 80.8963 35.1332C80.0741 34.8443 79.7519 34.6447 79.0429 34.1412C78.3334 33.6374 77.4144 33.2538 76.6015 33.5692C76.1466 33.7459 75.772 34.1268 75.2887 34.1959C74.4354 34.3186 73.7975 33.4438 73.4764 32.6508C73.155 31.8582 72.8296 30.9214 72.0158 30.6404C71.2616 30.3798 70.4682 30.8184 69.7252 31.111C68.9827 31.4038 67.9467 31.4572 67.5729 30.7575C67.3771 30.3905 67.4489 29.9392 67.5868 29.5464C68.2116 27.7676 70.2102 26.5742 72.0864 26.8595C72.2152 24.6287 73.7979 22.5451 75.9252 21.806C78.0528 21.0668 80.5971 21.716 82.0978 23.381C83.1562 21.856 84.9905 20.8904 86.8562 20.876C88.7223 20.8614 90.5685 21.7986 91.6464 23.3075C93.0996 22.5409 95.0047 22.7211 96.2827 23.7454C97.5604 24.7702 98.1363 26.5795 97.6842 28.1484C98.9815 28.5282 100.228 29.4259 100.561 30.7265C100.894 32.0271 99.9191 33.6289 98.5661 33.5831C99.3207 34.4798 99.2296 35.9577 98.3703 36.7586C97.511 37.5595 96.0179 37.5583 95.1626 36.7557" fill="#17282F"/>
<path d="M72.053 28.827C72.0474 28.8286 72.0576 28.8676 72.0816 28.9421C72.1082 29.0159 72.1395 29.1294 72.2018 29.2696C72.3294 29.5471 72.5499 29.9509 72.9519 30.3773C73.3539 30.7955 73.9322 31.2523 74.7164 31.5383C75.4881 31.8334 76.4813 31.9618 77.4984 31.6649L77.3571 31.5501C77.2872 32.136 77.4947 32.7712 77.8977 33.2625C78.288 33.7666 78.811 34.1717 79.3544 34.5592C79.629 34.7416 79.8845 34.9722 80.238 35.1161C80.5813 35.2536 80.9624 35.2908 81.3347 35.2512C82.0739 35.1735 82.8316 34.7641 83.2111 34.0432L82.957 34.0315C83.4161 35.2476 84.4328 36.3346 85.7571 36.832C86.4649 37.1237 87.2764 37.2129 88.008 37.0212C88.743 36.8412 89.377 36.4669 89.9613 36.0906L89.774 36.0563C90.302 36.7603 90.9859 37.3062 91.7412 37.6506C92.4851 37.9968 93.3886 38.0908 94.1006 37.7301C95.5281 37.063 96.2315 35.5908 96.1559 34.3776L96.0275 34.4777C96.8683 34.7059 97.6777 34.5571 98.29 34.2838C98.9131 34.0134 99.3571 33.6138 99.6559 33.2523C99.9543 32.8849 100.102 32.5454 100.185 32.3147C100.254 32.0789 100.276 31.9521 100.268 31.9504C100.23 31.9321 100.171 32.4793 99.5715 33.1825C99.2697 33.5215 98.8307 33.8944 98.2278 34.1397C97.6349 34.3888 96.8642 34.5119 96.0842 34.2871L95.9494 34.2484L95.9559 34.3876C96.0114 35.5231 95.3258 36.9033 93.9981 37.5062C93.3512 37.8261 92.5559 37.7394 91.8516 37.4115C91.1447 37.0856 90.4908 36.5579 89.9987 35.8954L89.9207 35.7901L89.8104 35.8605C89.2346 36.2292 88.6212 36.5849 87.9413 36.7487C87.2632 36.9231 86.5362 36.8448 85.8618 36.5692C84.6105 36.098 83.6566 35.0822 83.2162 33.9318L83.1056 33.6427L82.9622 33.9205C82.644 34.5354 81.9695 34.9154 81.3051 34.9859C80.9721 35.0237 80.6341 34.9922 80.3352 34.8741C80.044 34.7624 79.7809 34.5372 79.503 34.3529C78.9617 33.974 78.4546 33.5852 78.0859 33.1172C77.705 32.6591 77.5211 32.1013 77.5742 31.5732L77.5903 31.4101L77.4333 31.4583C76.4778 31.7506 75.526 31.6467 74.7765 31.376C74.0152 31.1151 73.444 30.687 73.0398 30.2929C72.2341 29.4745 72.095 28.8015 72.053 28.827Z" fill="#A3ACB4"/>
</svg>
