<svg width="276" height="187" viewBox="0 0 276 187" fill="none" xmlns="http://www.w3.org/2000/svg">
<path d="M262.954 187L115.081 186.949L40.7725 186.923L36.6355 186.92L21.7068 186.918C21.7068 186.918 0.381795 169.582 0.0123887 145.075C-0.715534 96.7846 30.893 118.536 26.5988 60.3361C22.6804 7.22905 125.059 -21.4082 180.65 19.165C200.861 33.9162 202.446 44.2624 231.489 40.9913C264.273 37.2992 268.009 77.1426 256.535 99.2292C240.253 130.567 301.681 125.419 262.954 187Z" fill="#F7F0FF"/>
<mask id="mask0_4951_23202" style="mask-type:alpha" maskUnits="userSpaceOnUse" x="0" y="0" width="276" height="187">
<path d="M262.954 187L115.081 186.949L40.7725 186.923L36.6355 186.92L21.7068 186.918C21.7068 186.918 0.381795 169.582 0.0123887 145.075C-0.715534 96.7846 30.893 118.536 26.5988 60.3361C22.6804 7.22905 125.059 -21.4082 180.65 19.165C200.861 33.9162 202.446 44.2624 231.489 40.9913C264.273 37.2992 268.009 77.1426 256.535 99.2292C240.253 130.567 301.681 125.419 262.954 187Z" fill="#CEF7F3"/>
</mask>
<g mask="url(#mask0_4951_23202)">
<path d="M69.0001 104.125C45.3384 99.566 7.96161 113.156 7.96161 113.156H-5.30762V187H279.185V154.062C279.185 154.062 234.394 131.689 203.285 128.562C172.536 125.471 154.7 145.672 124.731 138.125C100.013 131.899 94.0291 108.947 69.0001 104.125Z" fill="#F1E6FF"/>
</g>
<mask id="path-4-outside-1_4951_23202" maskUnits="userSpaceOnUse" x="43.3662" y="0.802734" width="188" height="159" fill="black">
<rect fill="white" x="43.3662" y="0.802734" width="188" height="159"/>
<path d="M224.458 91.7627C221.526 94.6863 209.395 98.7156 205.775 104.543C202.145 110.382 189.461 112.189 185.417 116.219C181.37 120.253 178.731 134.551 160.312 131.503C141.909 128.447 88.9234 149.84 87.2492 156.793C86.9109 158.18 84.8231 158.058 81.7392 156.916C69.4121 152.37 41.2029 131.634 45.8853 126.968C45.8853 126.968 63.0084 122.534 79.6327 116.904C90.6156 113.184 101.391 108.939 106.864 105.106C108.34 104.075 109.656 102.932 110.841 101.694C120.733 91.4441 121.543 75.2894 127.692 69.1611C134.565 62.3112 135.872 55.0866 135.872 52.49C135.872 49.8953 138.102 33.2149 138.102 33.2149C138.168 32.9319 137.179 11.3096 143.329 11.7481C148.67 12.1969 151.811 21.9432 149.996 30.2548C148.151 38.7201 145.901 67.3048 148.134 67.3048C150.372 67.3048 154.462 42.8572 154.462 42.8572L165.238 18.4011C165.427 18.2343 173.479 1.18285 181.656 4.09145C188.605 6.82857 177.51 23.583 177.51 23.583C177.51 23.583 177.697 33.0378 174.539 36.1854C171.529 39.1839 165.812 61.1868 165.276 64.935C165.248 65.2067 165.238 65.3566 165.238 65.3566C165.238 67.3048 179.372 42.8572 179.372 42.8572L189.037 30.6287C189.037 30.6287 200.566 12.8444 206.517 12.8444C212.37 12.8444 212.895 19.3728 210.608 24.6972C208.37 29.8884 206.33 30.9004 202.145 35.0712C197.962 39.2411 196.287 53.1375 191.267 58.1414C187.449 61.9542 183.301 71.2404 181.544 75.4477L181.534 75.4861C181.055 76.619 180.753 77.378 180.697 77.557C180.763 77.4633 180.95 77.2094 181.223 76.8355H181.233C197.918 53.9396 190.422 64.9125 200.472 52.0215C200.472 52.0215 209.057 43.4288 211.859 40.627C214.671 37.8355 219.711 32.0164 222.785 32.0164C226.722 32.0164 228.633 33.3508 228.633 38.4062C228.633 44.2449 218.177 54.1121 211.069 61.1962C203.96 68.2793 197.82 78.8408 195.732 80.9295C193.156 83.4848 181.565 92.0935 187.091 97.5996C192.667 103.157 196.984 91.9023 199.916 88.989C202.842 86.0645 213.298 81.4832 220.548 84.538C227.797 87.5928 227.384 88.8475 224.458 91.7627Z"/>
</mask>
<path d="M224.458 91.7627C221.526 94.6863 209.395 98.7156 205.775 104.543C202.145 110.382 189.461 112.189 185.417 116.219C181.37 120.253 178.731 134.551 160.312 131.503C141.909 128.447 88.9234 149.84 87.2492 156.793C86.9109 158.18 84.8231 158.058 81.7392 156.916C69.4121 152.37 41.2029 131.634 45.8853 126.968C45.8853 126.968 63.0084 122.534 79.6327 116.904C90.6156 113.184 101.391 108.939 106.864 105.106C108.34 104.075 109.656 102.932 110.841 101.694C120.733 91.4441 121.543 75.2894 127.692 69.1611C134.565 62.3112 135.872 55.0866 135.872 52.49C135.872 49.8953 138.102 33.2149 138.102 33.2149C138.168 32.9319 137.179 11.3096 143.329 11.7481C148.67 12.1969 151.811 21.9432 149.996 30.2548C148.151 38.7201 145.901 67.3048 148.134 67.3048C150.372 67.3048 154.462 42.8572 154.462 42.8572L165.238 18.4011C165.427 18.2343 173.479 1.18285 181.656 4.09145C188.605 6.82857 177.51 23.583 177.51 23.583C177.51 23.583 177.697 33.0378 174.539 36.1854C171.529 39.1839 165.812 61.1868 165.276 64.935C165.248 65.2067 165.238 65.3566 165.238 65.3566C165.238 67.3048 179.372 42.8572 179.372 42.8572L189.037 30.6287C189.037 30.6287 200.566 12.8444 206.517 12.8444C212.37 12.8444 212.895 19.3728 210.608 24.6972C208.37 29.8884 206.33 30.9004 202.145 35.0712C197.962 39.2411 196.287 53.1375 191.267 58.1414C187.449 61.9542 183.301 71.2404 181.544 75.4477L181.534 75.4861C181.055 76.619 180.753 77.378 180.697 77.557C180.763 77.4633 180.95 77.2094 181.223 76.8355H181.233C197.918 53.9396 190.422 64.9125 200.472 52.0215C200.472 52.0215 209.057 43.4288 211.859 40.627C214.671 37.8355 219.711 32.0164 222.785 32.0164C226.722 32.0164 228.633 33.3508 228.633 38.4062C228.633 44.2449 218.177 54.1121 211.069 61.1962C203.96 68.2793 197.82 78.8408 195.732 80.9295C193.156 83.4848 181.565 92.0935 187.091 97.5996C192.667 103.157 196.984 91.9023 199.916 88.989C202.842 86.0645 213.298 81.4832 220.548 84.538C227.797 87.5928 227.384 88.8475 224.458 91.7627Z" fill="#192E35"/>
<path d="M205.775 104.543L207.474 105.598L207.474 105.599L205.775 104.543ZM185.417 116.219L184.005 114.802L184.005 114.802L185.417 116.219ZM160.312 131.503L159.985 133.476L159.984 133.476L160.312 131.503ZM87.2492 156.793L89.1936 157.261L89.1922 157.267L87.2492 156.793ZM81.7392 156.916L82.4311 155.039L82.4339 155.04L81.7392 156.916ZM45.8853 126.968L44.4735 125.551L44.8582 125.168L45.384 125.031L45.8853 126.968ZM79.6327 116.904L80.2743 118.798L80.2743 118.798L79.6327 116.904ZM106.864 105.106L105.716 103.468L105.718 103.467L106.864 105.106ZM110.841 101.694L109.396 100.312L109.402 100.306L110.841 101.694ZM127.692 69.1611L129.104 70.5776L129.104 70.5777L127.692 69.1611ZM138.102 33.2149L136.119 32.95L136.132 32.852L136.155 32.7557L138.102 33.2149ZM143.329 11.7481L143.471 9.75316L143.484 9.75406L143.496 9.75511L143.329 11.7481ZM149.996 30.2548L148.041 29.8289L148.042 29.828L149.996 30.2548ZM154.462 42.8572L152.489 42.5271L152.531 42.28L152.632 42.0507L154.462 42.8572ZM165.238 18.4011L163.408 17.5947L163.585 17.1924L163.915 16.9016L165.238 18.4011ZM181.656 4.09145L182.326 2.20711L182.357 2.21831L182.389 2.23056L181.656 4.09145ZM177.51 23.583L175.51 23.6226L175.498 22.9988L175.842 22.4787L177.51 23.583ZM174.539 36.1854L175.95 37.602L175.95 37.6023L174.539 36.1854ZM165.276 64.935L163.286 64.7353L163.29 64.6932L163.296 64.6514L165.276 64.935ZM165.238 65.3566H163.238V65.2877L163.243 65.219L165.238 65.3566ZM179.372 42.8572L177.64 41.8562L177.713 41.7307L177.803 41.617L179.372 42.8572ZM189.037 30.6287L190.715 31.7166L190.664 31.7953L190.606 31.8689L189.037 30.6287ZM210.608 24.6972L212.445 25.4865L212.444 25.4889L210.608 24.6972ZM202.145 35.0712L200.733 33.6547L200.733 33.6546L202.145 35.0712ZM191.267 58.1414L189.853 56.7263L189.855 56.7248L191.267 58.1414ZM181.544 75.4477L179.601 74.9725L179.638 74.8209L179.698 74.6768L181.544 75.4477ZM181.534 75.4861L183.477 75.9613L183.439 76.1176L183.376 76.2658L181.534 75.4861ZM180.697 77.557L182.325 78.7175L178.789 76.9557L180.697 77.557ZM181.223 76.8355L179.607 75.657L180.206 74.8355H181.223V76.8355ZM181.233 76.8355L182.85 78.0134L182.251 78.8355H181.233V76.8355ZM200.472 52.0215L198.895 50.7918L198.97 50.6949L199.057 50.6079L200.472 52.0215ZM211.859 40.627L210.445 39.2127L210.45 39.2077L211.859 40.627ZM211.069 61.1962L212.481 62.6127L212.481 62.613L211.069 61.1962ZM195.732 80.9295L197.147 82.3433L197.14 82.3495L195.732 80.9295ZM187.091 97.5996L188.502 96.1829L188.503 96.183L187.091 97.5996ZM199.916 88.989L201.33 90.4034L201.326 90.4079L199.916 88.989ZM225.87 93.1791C224.905 94.1412 223.346 95.0651 221.772 95.9276C220.95 96.378 220.055 96.8469 219.141 97.3259C218.222 97.808 217.279 98.3033 216.332 98.8197C214.433 99.8558 212.577 100.947 210.993 102.111C209.393 103.286 208.186 104.452 207.474 105.598L204.076 103.488C205.174 101.72 206.841 100.197 208.625 98.8869C210.425 97.5648 212.464 96.3733 214.417 95.3082C215.396 94.7739 216.367 94.264 217.284 93.7835C218.206 93.2999 219.066 92.849 219.85 92.4195C221.488 91.5221 222.545 90.846 223.046 90.3462L225.87 93.1791ZM207.474 105.599C206.326 107.446 204.546 108.852 202.658 109.981C200.757 111.117 198.586 112.063 196.507 112.911C194.372 113.783 192.39 114.53 190.623 115.335C188.841 116.148 187.571 116.896 186.829 117.636L184.005 114.802C185.285 113.527 187.117 112.538 188.964 111.696C190.826 110.847 193.001 110.022 194.996 109.208C197.047 108.371 198.98 107.518 200.606 106.547C202.243 105.569 203.41 104.56 204.077 103.487L207.474 105.599ZM186.829 117.635C186.046 118.415 185.284 119.76 184.097 121.758C182.986 123.63 181.608 125.865 179.713 127.885C177.798 129.926 175.345 131.764 172.073 132.864C168.807 133.961 164.85 134.281 159.985 133.476L160.638 129.53C164.983 130.249 168.263 129.924 170.799 129.072C173.329 128.222 175.242 126.805 176.795 125.149C178.368 123.471 179.56 121.565 180.657 119.716C181.679 117.995 182.764 116.039 184.005 114.802L186.829 117.635ZM159.984 133.476C155.786 132.779 149.344 133.464 141.801 135.14C134.329 136.8 126.018 139.376 118.202 142.27C110.383 145.166 103.116 148.361 97.7267 151.242C95.0258 152.686 92.8485 154.024 91.3211 155.18C90.556 155.759 89.9991 156.258 89.6294 156.668C89.2314 157.11 89.1835 157.303 89.1936 157.261L85.3048 156.325C85.5242 155.414 86.0864 154.625 86.6575 153.991C87.2569 153.326 88.028 152.655 88.9079 151.99C90.6705 150.656 93.0511 149.206 95.8406 147.715C101.432 144.725 108.875 141.459 116.813 138.519C124.753 135.578 133.243 132.944 140.934 131.235C148.554 129.542 155.636 128.699 160.639 129.53L159.984 133.476ZM89.1922 157.267C88.9788 158.142 88.4441 158.855 87.6678 159.296C86.9631 159.697 86.1886 159.803 85.524 159.803C84.2104 159.803 82.6467 159.385 81.0445 158.791L82.4339 155.04C83.9156 155.589 84.9377 155.803 85.5235 155.803C85.8087 155.803 85.8123 155.75 85.6906 155.819C85.4973 155.929 85.3504 156.138 85.3062 156.319L89.1922 157.267ZM81.0472 158.792C74.5941 156.413 64.2669 149.943 56.1927 143.555C52.1466 140.354 48.5428 137.078 46.2287 134.241C45.0861 132.84 44.1437 131.41 43.6822 130.051C43.2151 128.676 43.1177 126.902 44.4735 125.551L47.2971 128.384C47.4823 128.2 47.2421 128.095 47.4697 128.765C47.7027 129.451 48.2923 130.442 49.3284 131.712C51.3718 134.218 54.7128 137.284 58.6746 140.419C66.6162 146.702 76.5571 152.873 82.4311 155.039L81.0472 158.792ZM45.8853 126.968C45.384 125.031 45.384 125.031 45.3841 125.031C45.3842 125.031 45.3843 125.031 45.3845 125.031C45.385 125.031 45.3857 125.031 45.3866 125.031C45.3885 125.03 45.3914 125.03 45.3954 125.028C45.4033 125.026 45.4154 125.023 45.4314 125.019C45.4636 125.011 45.5119 124.998 45.5759 124.981C45.7038 124.948 45.8942 124.898 46.1429 124.832C46.6402 124.701 47.3705 124.507 48.2992 124.256C50.1567 123.755 52.8076 123.027 55.9767 122.124C62.3182 120.317 70.7211 117.811 78.9911 115.009L80.2743 118.798C71.92 121.628 63.4492 124.154 57.073 125.971C53.8834 126.88 51.2144 127.612 49.3419 128.118C48.4056 128.371 47.6682 128.567 47.1642 128.7C46.9122 128.766 46.7185 128.817 46.5875 128.851C46.522 128.869 46.4721 128.882 46.4384 128.89C46.4216 128.895 46.4088 128.898 46.4002 128.9C46.3958 128.901 46.3925 128.902 46.3903 128.903C46.3891 128.903 46.3882 128.903 46.3876 128.903C46.3873 128.904 46.3871 128.904 46.3869 128.904C46.3867 128.904 46.3866 128.904 45.8853 126.968ZM78.9911 115.009C90.0138 111.276 100.515 107.111 105.716 103.468L108.011 106.744C102.267 110.767 91.2174 115.091 80.2743 118.798L78.9911 115.009ZM105.718 103.467C107.083 102.513 108.299 101.458 109.396 100.312L112.286 103.077C111.014 104.407 109.597 105.636 108.009 106.746L105.718 103.467ZM109.402 100.306C114.025 95.5151 116.584 89.2811 118.79 83.2C119.872 80.2186 120.893 77.2047 122.02 74.5955C123.147 71.9866 124.471 69.5475 126.281 67.7444L129.104 70.5777C127.839 71.8387 126.756 73.7171 125.692 76.1812C124.628 78.6449 123.677 81.4594 122.55 84.564C120.341 90.6549 117.549 97.6234 112.28 103.083L109.402 100.306ZM126.281 67.7445C132.745 61.3011 133.872 54.6009 133.872 52.49H137.872C137.872 55.5723 136.385 63.3213 129.104 70.5776L126.281 67.7445ZM133.872 52.49C133.872 51.7088 134.027 50.0568 134.232 48.1682C134.443 46.2245 134.723 43.8844 135.002 41.6333C135.281 39.3807 135.561 37.2102 135.77 35.6034C135.875 34.7998 135.962 34.1369 136.023 33.6746C136.054 33.4435 136.078 33.2626 136.094 33.1393C136.102 33.0776 136.109 33.0304 136.113 32.9986C136.115 32.9826 136.117 32.9705 136.118 32.9624C136.118 32.9583 136.119 32.9552 136.119 32.9532C136.119 32.9521 136.119 32.9513 136.119 32.9508C136.119 32.9505 136.119 32.9503 136.119 32.9502C136.119 32.9501 136.119 32.95 138.102 33.2149C140.084 33.4799 140.084 33.4799 140.084 33.48C140.084 33.4802 140.084 33.4803 140.084 33.4806C140.084 33.481 140.084 33.4818 140.084 33.4828C140.083 33.4847 140.083 33.4877 140.082 33.4917C140.081 33.4996 140.08 33.5115 140.078 33.5272C140.074 33.5586 140.067 33.6053 140.059 33.6665C140.043 33.7888 140.019 33.9688 139.989 34.1988C139.928 34.6589 139.841 35.3194 139.737 36.1202C139.528 37.722 139.25 39.8838 138.972 42.1256C138.693 44.3689 138.416 46.6855 138.209 48.5991C137.996 50.5678 137.872 51.9738 137.872 52.49H133.872ZM136.155 32.7557C136.119 32.9083 136.111 33.0311 136.11 33.0396C136.107 33.0758 136.106 33.1021 136.105 33.1101C136.105 33.1275 136.105 33.1328 136.105 33.1161C136.105 33.0857 136.105 33.032 136.104 32.9463C136.102 32.7735 136.098 32.5407 136.093 32.2213C136.085 31.5968 136.075 30.716 136.082 29.6673C136.095 27.5762 136.171 24.7933 136.444 22.0152C136.713 19.2742 137.189 16.3805 138.065 14.1468C138.503 13.0327 139.097 11.9317 139.942 11.1038C140.839 10.2261 142.035 9.65077 143.471 9.75316L143.187 13.743C143.085 13.7358 142.967 13.7402 142.74 13.9621C142.463 14.2339 142.125 14.7524 141.789 15.6082C141.119 17.3142 140.685 19.7615 140.425 22.4067C140.168 25.0148 140.094 27.663 140.082 29.692C140.075 30.7034 140.084 31.5549 140.093 32.1653C140.097 32.4633 140.102 32.7237 140.104 32.8985C140.105 32.9866 140.105 33.0703 140.105 33.1383C140.105 33.1708 140.104 33.2156 140.103 33.2623C140.102 33.285 140.1 33.3235 140.096 33.3693C140.095 33.3873 140.085 33.5171 140.048 33.6742L136.155 32.7557ZM143.496 9.75511C147.414 10.0844 149.946 13.6832 151.235 17.397C152.583 21.2791 152.935 26.1683 151.949 30.6817L148.042 29.828C148.871 26.0297 148.561 21.89 147.457 18.7088C146.294 15.3593 144.584 13.8607 143.161 13.7411L143.496 9.75511ZM151.95 30.6807C151.061 34.757 150.045 43.893 149.532 52.0793C149.276 56.1592 149.151 59.9286 149.223 62.6534C149.259 64.0319 149.344 65.0547 149.463 65.6941C149.526 66.0327 149.575 66.1266 149.555 66.0873C149.544 66.0654 149.464 65.9033 149.266 65.7275C149.04 65.5264 148.65 65.3048 148.134 65.3048V69.3048C146.773 69.3048 146.147 68.2151 145.978 67.876C145.747 67.4139 145.616 66.8854 145.531 66.4259C145.353 65.469 145.262 64.1925 145.224 62.7589C145.148 59.8595 145.281 55.9537 145.54 51.8292C146.055 43.6069 147.085 34.2179 148.041 29.8289L151.95 30.6807ZM148.134 65.3048C147.734 65.3048 147.44 65.4435 147.282 65.5428C147.132 65.6375 147.059 65.7244 147.053 65.7315C147.046 65.7391 147.118 65.6492 147.251 65.3776C147.506 64.8531 147.813 64.0185 148.153 62.902C148.826 60.6945 149.533 57.7063 150.181 54.6642C150.827 51.6342 151.404 48.599 151.82 46.3179C152.029 45.1783 152.196 44.2289 152.311 43.5651C152.369 43.2332 152.414 42.9728 152.444 42.7959C152.459 42.7074 152.47 42.6397 152.478 42.5944C152.482 42.5718 152.485 42.5547 152.487 42.5435C152.488 42.5378 152.488 42.5336 152.489 42.5309C152.489 42.5295 152.489 42.5285 152.489 42.5279C152.489 42.5276 152.489 42.5274 152.489 42.5273C152.489 42.5272 152.489 42.5271 154.462 42.8572C156.435 43.1872 156.435 43.1874 156.435 43.1877C156.434 43.1879 156.434 43.1882 156.434 43.1887C156.434 43.1895 156.434 43.1908 156.434 43.1924C156.433 43.1955 156.432 43.2002 156.431 43.2063C156.429 43.2185 156.426 43.2366 156.422 43.2602C156.414 43.3074 156.403 43.3771 156.387 43.4676C156.356 43.6488 156.311 43.9136 156.252 44.2502C156.135 44.9234 155.966 45.884 155.755 47.0363C155.335 49.3392 154.75 52.4159 154.093 55.4978C153.439 58.5676 152.704 61.6913 151.98 64.0676C151.622 65.2432 151.242 66.3185 150.846 67.131C150.652 67.5279 150.407 67.9632 150.095 68.3289C149.845 68.6213 149.187 69.3048 148.134 69.3048V65.3048ZM152.632 42.0507L163.408 17.5947L167.068 19.2076L156.292 43.6636L152.632 42.0507ZM163.915 16.9016C163.741 17.0548 163.636 17.205 163.626 17.2182C163.593 17.2639 163.57 17.2997 163.561 17.3133C163.543 17.3421 163.534 17.3592 163.539 17.3503C163.547 17.3366 163.565 17.3032 163.6 17.2374C163.677 17.0932 163.757 16.9418 163.898 16.6777C164.158 16.19 164.531 15.5007 165.001 14.6867C165.936 13.0654 167.267 10.9228 168.875 8.8627C170.466 6.8233 172.414 4.75175 174.607 3.38075C176.824 1.99554 179.509 1.205 182.326 2.20711L180.985 5.97578C179.714 5.52357 178.326 5.77376 176.727 6.77287C175.106 7.78619 173.496 9.44258 172.028 11.3233C170.577 13.1834 169.349 15.1531 168.466 16.685C168.026 17.4476 167.675 18.0951 167.427 18.5605C167.314 18.7728 167.193 19.0021 167.127 19.1246C167.091 19.1922 167.052 19.2636 167.018 19.324C167.002 19.3522 166.975 19.3987 166.944 19.4489C166.928 19.4732 166.9 19.5177 166.862 19.5701C166.847 19.59 166.738 19.7448 166.561 19.9007L163.915 16.9016ZM182.389 2.23056C183.708 2.75032 184.674 3.65048 185.26 4.81706C185.821 5.93344 185.977 7.17552 185.939 8.35602C185.864 10.6861 185.011 13.3112 184.033 15.6389C183.036 18.01 181.821 20.2693 180.867 21.9224C180.388 22.7526 179.969 23.4381 179.669 23.9181C179.519 24.1583 179.398 24.3475 179.314 24.4781C179.271 24.5435 179.238 24.5942 179.215 24.6293C179.204 24.6469 179.195 24.6606 179.189 24.6703C179.185 24.6752 179.183 24.679 179.181 24.6819C179.18 24.6833 179.179 24.6844 179.179 24.6853C179.178 24.6858 179.178 24.6863 179.178 24.6865C179.178 24.6869 179.177 24.6873 177.51 23.583C175.842 22.4787 175.842 22.4789 175.842 22.4791C175.842 22.4791 175.842 22.4792 175.842 22.4791C175.842 22.479 175.842 22.4787 175.843 22.478C175.844 22.4768 175.845 22.4746 175.847 22.4714C175.851 22.4649 175.858 22.4546 175.868 22.4404C175.886 22.412 175.915 22.3683 175.952 22.3102C176.027 22.1941 176.138 22.0206 176.277 21.7973C176.557 21.3505 176.951 20.7056 177.403 19.9223C178.312 18.3484 179.437 16.2481 180.345 14.0884C181.272 11.8853 181.89 9.80861 181.941 8.22743C181.966 7.45229 181.848 6.93637 181.686 6.61259C181.548 6.339 181.341 6.11685 180.923 5.95232L182.389 2.23056ZM177.51 23.583C179.509 23.5434 179.509 23.5438 179.509 23.5442C179.51 23.5444 179.51 23.5448 179.51 23.5452C179.51 23.5459 179.51 23.5468 179.51 23.5478C179.51 23.5499 179.51 23.5525 179.51 23.5557C179.51 23.5621 179.51 23.5707 179.51 23.5816C179.51 23.6033 179.511 23.6339 179.511 23.6728C179.512 23.7507 179.512 23.8622 179.512 24.0034C179.511 24.2855 179.505 24.6873 179.489 25.1775C179.455 26.1546 179.377 27.4985 179.193 28.9543C179.01 30.4018 178.717 32.0109 178.24 33.4997C177.773 34.9538 177.069 36.4868 175.95 37.602L173.127 34.7687C173.587 34.3101 174.045 33.4809 174.431 32.2771C174.806 31.1078 175.059 29.7631 175.224 28.4534C175.389 27.152 175.461 25.9355 175.491 25.0415C175.506 24.5961 175.511 24.2347 175.512 23.9875C175.512 23.8639 175.512 23.7692 175.511 23.7071C175.511 23.676 175.511 23.6531 175.511 23.6389C175.51 23.6317 175.51 23.6268 175.51 23.6241C175.51 23.6227 175.51 23.6219 175.51 23.6216C175.51 23.6215 175.51 23.6215 175.51 23.6217C175.51 23.6217 175.51 23.622 175.51 23.622C175.51 23.6223 175.51 23.6226 177.51 23.583ZM175.95 37.6023C175.821 37.7312 175.521 38.1492 175.089 39.0182C174.684 39.8334 174.238 40.8871 173.766 42.1266C172.824 44.602 171.827 47.6963 170.898 50.8452C169.025 57.1898 167.501 63.5031 167.255 65.2186L163.296 64.6514C163.587 62.6187 165.189 56.0564 167.061 49.7129C168.004 46.5178 169.034 43.3148 170.028 40.7042C170.524 39.4007 171.022 38.2143 171.507 37.2375C171.966 36.3147 172.504 35.3892 173.127 34.7685L175.95 37.6023ZM167.266 65.1347C167.253 65.2592 167.245 65.3538 167.24 65.4149C167.237 65.4455 167.235 65.4677 167.234 65.4811C167.234 65.4878 167.233 65.4923 167.233 65.4945C167.233 65.4956 167.233 65.4961 167.233 65.4961C167.233 65.4961 167.233 65.4959 167.233 65.4957C167.233 65.4955 167.233 65.4953 167.233 65.4951C167.233 65.495 167.233 65.4949 167.233 65.4947C167.233 65.4947 167.233 65.4946 167.233 65.4945C167.233 65.4945 167.233 65.4944 167.233 65.4944C167.233 65.4944 167.233 65.4943 165.238 65.3566C163.243 65.219 163.243 65.2189 163.243 65.2188C163.243 65.2188 163.243 65.2188 163.243 65.2187C163.243 65.2187 163.243 65.2186 163.243 65.2185C163.243 65.2183 163.243 65.2181 163.243 65.218C163.243 65.2176 163.243 65.2172 163.243 65.2168C163.243 65.2159 163.243 65.2148 163.243 65.2137C163.243 65.2113 163.243 65.2084 163.244 65.2049C163.244 65.1978 163.245 65.1885 163.246 65.1769C163.248 65.1536 163.25 65.1214 163.254 65.0805C163.26 64.9987 163.271 64.8825 163.286 64.7353L167.266 65.1347ZM167.238 65.3566C167.238 65.2674 167.232 65.0173 167.116 64.7138C166.986 64.3755 166.672 63.8712 166.032 63.6109C165.442 63.371 164.932 63.487 164.704 63.5617C164.468 63.6393 164.311 63.7438 164.254 63.7834C164.089 63.8981 164.078 63.9559 164.285 63.6982C164.607 63.2964 165.114 62.5707 165.775 61.5652C167.077 59.5818 168.827 56.7367 170.591 53.8058C172.352 50.881 174.115 47.8934 175.438 45.6356C176.099 44.5071 176.65 43.5616 177.035 42.8986C177.228 42.567 177.38 42.3061 177.483 42.1283C177.534 42.0393 177.574 41.9711 177.6 41.9253C177.614 41.9023 177.624 41.885 177.63 41.8734C177.634 41.8676 177.636 41.8633 177.638 41.8604C177.639 41.8589 177.639 41.8579 177.64 41.8572C177.64 41.8568 177.64 41.8566 177.64 41.8564C177.64 41.8562 177.64 41.8562 179.372 42.8572C181.103 43.8582 181.103 43.8583 181.103 43.8585C181.103 43.8587 181.103 43.859 181.102 43.8594C181.102 43.8602 181.101 43.8614 181.1 43.8629C181.099 43.8659 181.096 43.8704 181.093 43.8764C181.086 43.8883 181.076 43.906 181.062 43.9292C181.035 43.9757 180.995 44.0446 180.943 44.1343C180.839 44.3136 180.687 44.576 180.493 44.9091C180.106 45.5754 179.553 46.5247 178.889 47.6577C177.562 49.9229 175.791 52.9255 174.018 55.8691C172.249 58.8066 170.466 61.7081 169.118 63.7607C168.453 64.7732 167.857 65.6378 167.406 66.2002C167.226 66.4245 166.911 66.8078 166.539 67.0666C166.43 67.1422 166.228 67.2715 165.952 67.362C165.685 67.4497 165.141 67.5668 164.525 67.3161C163.858 67.045 163.523 66.5176 163.38 66.1439C163.251 65.8048 163.238 65.5068 163.238 65.3566H167.238ZM177.803 41.617L187.468 29.3885L190.606 31.8689L180.941 44.0974L177.803 41.617ZM189.037 30.6287C187.359 29.5407 187.359 29.5405 187.359 29.5402C187.359 29.5399 187.36 29.5396 187.36 29.5392C187.36 29.5384 187.361 29.5373 187.362 29.5359C187.364 29.5333 187.366 29.5295 187.369 29.5247C187.376 29.5151 187.385 29.5013 187.396 29.4834C187.42 29.4475 187.454 29.3954 187.498 29.3279C187.587 29.1931 187.717 28.9971 187.884 28.7488C188.218 28.2523 188.7 27.5455 189.296 26.6985C190.487 25.0073 192.143 22.7437 193.996 20.4725C195.839 18.2127 197.921 15.8897 199.963 14.1139C200.984 13.226 202.042 12.4344 203.094 11.8559C204.126 11.2887 205.301 10.8444 206.517 10.8444V14.8444C206.246 14.8444 205.759 14.9559 205.021 15.3613C204.304 15.7554 203.484 16.3531 202.588 17.1326C200.795 18.6913 198.879 20.8143 197.095 23.0006C195.322 25.1755 193.724 27.3579 192.567 29.0013C191.989 29.8215 191.524 30.5042 191.204 30.9802C191.044 31.2182 190.921 31.4043 190.838 31.53C190.796 31.5928 190.765 31.6405 190.744 31.672C190.734 31.6877 190.727 31.6994 190.722 31.7069C190.719 31.7106 190.717 31.7133 190.716 31.7149C190.716 31.7158 190.715 31.7163 190.715 31.7166C190.715 31.7167 190.715 31.7167 190.715 31.7168C190.715 31.7168 190.715 31.7166 189.037 30.6287ZM206.517 10.8444C208.369 10.8444 209.974 11.3693 211.225 12.4096C212.461 13.4368 213.189 14.8295 213.555 16.2872C214.271 19.1417 213.699 22.5674 212.445 25.4865L208.77 23.9079C209.803 21.5026 210.112 19.0019 209.675 17.2612C209.464 16.4212 209.106 15.849 208.669 15.4858C208.247 15.1356 207.592 14.8444 206.517 14.8444V10.8444ZM212.444 25.4889C210.008 31.1396 207.529 32.5291 203.557 36.4879L200.733 33.6546C205.131 29.2717 206.731 28.6373 208.771 23.9054L212.444 25.4889ZM203.557 36.4877C202.804 37.2383 202.037 38.5789 201.231 40.5039C200.441 42.3914 199.709 44.5951 198.913 46.9367C198.131 49.2396 197.293 51.6608 196.321 53.8299C195.358 55.9787 194.192 58.0491 192.678 59.5579L189.855 56.7248C190.851 55.7317 191.777 54.1887 192.671 52.1942C193.555 50.2201 194.339 47.9684 195.126 45.6505C195.9 43.3711 196.684 41.0061 197.542 38.959C198.383 36.9493 199.394 34.9891 200.733 33.6547L203.557 36.4877ZM192.68 59.5565C191.006 61.2281 189.133 64.2604 187.406 67.5715C185.709 70.8254 184.257 74.1413 183.389 76.2186L179.698 74.6768C180.588 72.5467 182.089 69.116 183.859 65.7217C185.6 62.3847 187.709 58.8675 189.853 56.7263L192.68 59.5565ZM183.487 75.9229L183.477 75.9613L179.592 75.011L179.601 74.9725L183.487 75.9229ZM183.376 76.2658C183.14 76.8241 182.949 77.286 182.812 77.6264C182.743 77.7971 182.69 77.9331 182.651 78.0333C182.607 78.1496 182.598 78.1785 182.604 78.1583L178.789 76.9557C178.881 76.664 179.229 75.801 179.693 74.7065L183.376 76.2658ZM179.068 76.3965C179.143 76.2912 179.348 76.012 179.607 75.657L182.839 78.014C182.553 78.4068 182.384 78.6354 182.325 78.7175L179.068 76.3965ZM181.223 74.8355H181.233V78.8355H181.223V74.8355ZM179.617 75.6576C196.245 52.8405 189.094 63.3639 198.895 50.7918L202.049 53.2512C191.751 66.4611 199.592 55.0388 182.85 78.0134L179.617 75.6576ZM200.472 52.0215C199.057 50.6079 199.057 50.6079 199.057 50.6078C199.057 50.6078 199.058 50.6077 199.058 50.6075C199.058 50.6073 199.058 50.6069 199.059 50.6064C199.06 50.6053 199.061 50.6038 199.064 50.6017C199.068 50.5975 199.074 50.5914 199.082 50.5832C199.098 50.5668 199.123 50.5425 199.154 50.5107C199.218 50.4471 199.312 50.3534 199.432 50.2332C199.672 49.9928 200.018 49.6462 200.443 49.2215C201.291 48.3721 202.452 47.2105 203.7 45.9612C206.197 43.4629 209.044 40.614 210.445 39.2127L213.273 42.0413C211.873 43.4418 209.026 46.2901 206.53 48.7886C205.281 50.0378 204.121 51.1994 203.272 52.0487C202.848 52.4734 202.502 52.82 202.261 53.0604C202.141 53.1806 202.048 53.2743 201.984 53.3379C201.952 53.3697 201.928 53.394 201.912 53.4103C201.904 53.4185 201.897 53.4247 201.893 53.4288C201.891 53.4309 201.89 53.4325 201.889 53.4335C201.888 53.434 201.888 53.4344 201.887 53.4347C201.887 53.4348 201.887 53.4349 201.887 53.435C201.887 53.435 201.887 53.4351 200.472 52.0215ZM210.45 39.2077C211.743 37.9241 213.851 35.6276 215.883 33.7911C216.92 32.8539 218.027 31.95 219.121 31.2703C220.166 30.6213 221.449 30.0164 222.785 30.0164V34.0164C222.583 34.0164 222.084 34.139 221.231 34.6683C220.428 35.1669 219.523 35.8922 218.565 36.7587C216.605 38.5297 214.787 40.5384 213.268 42.0463L210.45 39.2077ZM222.785 30.0164C224.887 30.0164 227.042 30.3514 228.596 31.898C230.144 33.4381 230.633 35.7182 230.633 38.4062H226.633C226.633 36.0388 226.167 35.1241 225.775 34.7331C225.388 34.3487 224.62 34.0164 222.785 34.0164V30.0164ZM230.633 38.4062C230.633 40.4032 229.763 42.4904 228.613 44.4476C227.436 46.4497 225.822 48.5536 224.035 50.6365C220.467 54.795 215.996 59.1093 212.481 62.6127L209.658 59.7796C213.25 56.1989 217.562 52.0376 220.999 48.0318C222.714 46.0326 224.158 44.1322 225.164 42.4207C226.197 40.6643 226.633 39.3286 226.633 38.4062H230.633ZM212.481 62.613C209.053 66.0283 205.821 70.3233 203.149 74.0924C201.796 76.001 200.661 77.6665 199.646 79.1112C198.697 80.4605 197.817 81.6729 197.147 82.3433L194.317 79.5156C194.691 79.1416 195.361 78.2506 196.373 76.8109C197.318 75.4665 198.554 73.6573 199.886 71.779C202.583 67.9745 205.976 63.4471 209.658 59.7793L212.481 62.613ZM197.14 82.3495C196.475 83.0092 195.113 84.1686 193.871 85.3104C192.535 86.5383 191.105 87.9458 189.935 89.4077C188.741 90.8997 187.955 92.2814 187.703 93.4532C187.481 94.482 187.654 95.3372 188.502 96.1829L185.679 99.0162C183.765 97.1089 183.315 94.8232 183.793 92.6095C184.239 90.5386 185.477 88.5761 186.812 86.9083C188.171 85.2103 189.775 83.6423 191.164 82.3654C192.647 81.0023 193.701 80.1273 194.324 79.5094L197.14 82.3495ZM188.503 96.183C189.522 97.1991 190.141 97.1738 190.534 97.0721C191.157 96.9111 191.976 96.3289 192.981 95.1642C193.951 94.0402 194.867 92.6493 195.787 91.2477C196.639 89.9495 197.589 88.4817 198.507 87.5701L201.326 90.4079C200.777 90.953 200.088 91.9845 199.131 93.4423C198.243 94.7967 197.182 96.4184 196.009 97.7775C194.871 99.096 193.382 100.468 191.535 100.945C189.459 101.481 187.447 100.779 185.679 99.0161L188.503 96.183ZM198.502 87.5746C200.29 85.7879 203.985 83.7824 208.052 82.6007C212.136 81.4142 217.091 80.9113 221.324 82.695L219.771 86.3811C216.755 85.11 212.856 85.3703 209.168 86.4419C205.464 87.5182 202.469 89.2655 201.33 90.4034L198.502 87.5746ZM221.324 82.695C223.167 83.4713 224.622 84.1735 225.699 84.8565C226.726 85.5072 227.706 86.32 228.168 87.4402C228.705 88.7426 228.355 89.9417 227.827 90.8442C227.343 91.6701 226.592 92.4596 225.87 93.1794L223.047 90.346C223.787 89.6082 224.185 89.1477 224.375 88.823C224.52 88.5749 224.37 88.7228 224.47 88.9652C224.495 89.0255 224.401 88.7697 223.558 88.2348C222.765 87.7323 221.554 87.1322 219.771 86.3811L221.324 82.695Z" fill="#192E35" mask="url(#path-4-outside-1_4951_23202)"/>
<mask id="path-6-outside-2_4951_23202" maskUnits="userSpaceOnUse" x="82.9573" y="25.8877" width="130" height="159" fill="black">
<rect fill="white" x="82.9573" y="25.8877" width="130" height="159"/>
<path d="M203.298 95.5105C197.356 101.434 181.868 125.299 177.129 130.023C172.39 134.746 160.976 128.533 151.77 137.707C142.564 146.871 139.225 181.888 139.225 181.888C139.225 181.888 87.6315 181.335 85.9573 170.775C85.9573 170.775 96.6766 122.657 96.6766 109.755C96.6766 96.8505 99.6207 92.3995 99.6207 92.3995C99.6207 92.3995 121.068 49.8669 124.547 46.3913C126.222 44.7225 136.585 36.5017 137.103 40.9789C137.665 45.8329 128.309 63.4925 128.309 63.4925L140.062 44.8817L160.58 28.4365L154.262 43.8145C154.262 43.8145 148.976 67.9144 151.111 67.0814C153.245 66.2474 163.109 45.4355 163.109 43.4012C163.109 41.3678 164.878 39.6811 165.902 38.6607C166.918 37.6393 175.935 31.1643 175.935 31.1643L187.397 32.0723L179.066 42.8015L169.061 66.5557L190.256 45.9978L207.106 44.7328L197.365 55.3861C197.365 55.3861 170.736 87.1239 174.356 90.7419C177.986 94.3486 194.327 86.7369 194.441 86.0098C195.03 82.2194 199.397 75.3733 199.397 75.3733C201.117 72.9005 203.26 69.8082 205.668 66.7431C209.778 66.7431 209.241 89.579 203.298 95.5105Z"/>
</mask>
<path d="M203.298 95.5105C197.356 101.434 181.868 125.299 177.129 130.023C172.39 134.746 160.976 128.533 151.77 137.707C142.564 146.871 139.225 181.888 139.225 181.888C139.225 181.888 87.6315 181.335 85.9573 170.775C85.9573 170.775 96.6766 122.657 96.6766 109.755C96.6766 96.8505 99.6207 92.3995 99.6207 92.3995C99.6207 92.3995 121.068 49.8669 124.547 46.3913C126.222 44.7225 136.585 36.5017 137.103 40.9789C137.665 45.8329 128.309 63.4925 128.309 63.4925L140.062 44.8817L160.58 28.4365L154.262 43.8145C154.262 43.8145 148.976 67.9144 151.111 67.0814C153.245 66.2474 163.109 45.4355 163.109 43.4012C163.109 41.3678 164.878 39.6811 165.902 38.6607C166.918 37.6393 175.935 31.1643 175.935 31.1643L187.397 32.0723L179.066 42.8015L169.061 66.5557L190.256 45.9978L207.106 44.7328L197.365 55.3861C197.365 55.3861 170.736 87.1239 174.356 90.7419C177.986 94.3486 194.327 86.7369 194.441 86.0098C195.03 82.2194 199.397 75.3733 199.397 75.3733C201.117 72.9005 203.26 69.8082 205.668 66.7431C209.778 66.7431 209.241 89.579 203.298 95.5105Z" fill="#192E35"/>
<path d="M177.129 130.023L178.541 131.439L178.541 131.44L177.129 130.023ZM151.77 137.707L153.182 139.123L153.181 139.124L151.77 137.707ZM139.225 181.888L141.216 182.078L141.042 183.907L139.204 183.888L139.225 181.888ZM85.9573 170.775L83.9819 171.088L83.9223 170.712L84.0051 170.34L85.9573 170.775ZM99.6207 92.3995L101.406 93.3L101.354 93.4049L101.289 93.5029L99.6207 92.3995ZM124.547 46.3913L123.134 44.9764L123.136 44.9747L124.547 46.3913ZM137.103 40.9789L135.116 41.2091L135.116 41.2088L137.103 40.9789ZM128.309 63.4925L129.999 64.5604L126.541 62.5561L128.309 63.4925ZM140.062 44.8817L138.371 43.8138L138.55 43.5306L138.811 43.3212L140.062 44.8817ZM160.58 28.4365L159.329 26.8759L162.43 29.1966L160.58 28.4365ZM154.262 43.8145L152.308 43.386L152.346 43.2157L152.412 43.0544L154.262 43.8145ZM151.111 67.0814L151.839 68.9442L151.838 68.9445L151.111 67.0814ZM165.902 38.6607L167.32 40.0715L167.314 40.0773L165.902 38.6607ZM175.935 31.1643L174.768 29.5398L175.363 29.1127L176.093 29.1705L175.935 31.1643ZM187.397 32.0723L187.555 30.0785L191.25 30.3712L188.977 33.2989L187.397 32.0723ZM179.066 42.8015L177.223 42.0252L177.325 41.7827L177.487 41.5749L179.066 42.8015ZM169.061 66.5557L170.454 67.9913L167.218 65.7794L169.061 66.5557ZM190.256 45.9978L188.863 44.5622L189.384 44.0576L190.106 44.0034L190.256 45.9978ZM207.106 44.7328L206.956 42.7384L211.985 42.3608L208.582 46.0824L207.106 44.7328ZM197.365 55.3861L195.832 54.1006L195.86 54.0679L195.889 54.0364L197.365 55.3861ZM174.356 90.7419L172.947 92.1606L172.942 92.1565L174.356 90.7419ZM194.441 86.0098L196.418 86.3167L196.417 86.319L194.441 86.0098ZM199.397 75.3733L197.71 74.2978L197.732 74.2639L197.755 74.231L199.397 75.3733ZM205.668 66.7431L204.095 65.5078L204.695 64.7431H205.668V66.7431ZM204.71 96.9269C201.891 99.7375 196.657 106.997 191.391 114.378C188.793 118.019 186.214 121.648 183.991 124.659C181.798 127.628 179.852 130.133 178.541 131.439L175.717 128.606C176.776 127.551 178.543 125.302 180.773 122.282C182.972 119.305 185.526 115.711 188.135 112.055C193.282 104.841 198.764 97.2066 201.886 94.0941L204.71 96.9269ZM178.541 131.44C176.89 133.085 174.754 133.666 172.7 133.912C170.721 134.149 168.318 134.11 166.205 134.194C161.781 134.371 157.25 135.069 153.182 139.123L150.358 136.29C155.495 131.171 161.275 130.388 166.045 130.197C168.528 130.098 170.442 130.153 172.224 129.94C173.931 129.736 174.999 129.322 175.717 128.606L178.541 131.44ZM153.181 139.124C151.215 141.081 149.401 144.625 147.813 149.14C146.249 153.588 144.99 158.724 144.007 163.627C143.025 168.522 142.327 173.14 141.873 176.538C141.647 178.235 141.482 179.625 141.374 180.588C141.321 181.069 141.281 181.444 141.255 181.698C141.242 181.824 141.232 181.92 141.226 181.984C141.222 182.016 141.22 182.04 141.219 182.056C141.218 182.064 141.217 182.069 141.217 182.073C141.217 182.075 141.217 182.076 141.216 182.077C141.216 182.077 141.216 182.077 141.216 182.078C141.216 182.078 141.216 182.078 139.225 181.888C137.234 181.698 137.235 181.697 137.235 181.697C137.235 181.697 137.235 181.696 137.235 181.695C137.235 181.694 137.235 181.692 137.235 181.69C137.236 181.685 137.236 181.678 137.237 181.669C137.239 181.651 137.242 181.624 137.245 181.59C137.252 181.52 137.262 181.419 137.276 181.287C137.303 181.023 137.344 180.636 137.399 180.142C137.51 179.155 137.678 177.737 137.909 176.009C138.369 172.554 139.081 167.845 140.085 162.841C141.087 157.844 142.389 152.507 144.04 147.813C145.667 143.184 147.722 138.914 150.359 136.289L153.181 139.124ZM139.225 181.888C139.204 183.888 139.204 183.888 139.203 183.888C139.203 183.888 139.202 183.888 139.201 183.888C139.199 183.888 139.196 183.887 139.193 183.887C139.186 183.887 139.176 183.887 139.163 183.887C139.137 183.887 139.099 183.886 139.049 183.886C138.949 183.884 138.802 183.882 138.611 183.879C138.227 183.872 137.667 183.861 136.955 183.843C135.53 183.807 133.495 183.743 131.049 183.634C126.16 183.416 119.611 183.015 112.998 182.279C106.408 181.546 99.6567 180.471 94.4068 178.88C91.7902 178.088 89.4326 177.134 87.6334 175.959C85.8685 174.807 84.3211 173.227 83.9819 171.088L87.9326 170.462C88.012 170.963 88.4431 171.711 89.8202 172.61C91.163 173.487 93.1109 174.308 95.5666 175.052C100.461 176.535 106.923 177.579 113.44 178.304C119.935 179.026 126.389 179.423 131.227 179.638C133.644 179.746 135.653 179.808 137.056 179.844C137.757 179.862 138.307 179.873 138.681 179.879C138.867 179.882 139.01 179.885 139.105 179.886C139.153 179.887 139.189 179.887 139.213 179.887C139.225 179.888 139.233 179.888 139.239 179.888C139.242 179.888 139.244 179.888 139.245 179.888C139.246 179.888 139.246 179.888 139.247 179.888C139.247 179.888 139.247 179.888 139.225 181.888ZM85.9573 170.775C84.0051 170.34 84.0052 170.34 84.0052 170.34C84.0053 170.34 84.0054 170.339 84.0056 170.338C84.0059 170.337 84.0064 170.335 84.007 170.332C84.0082 170.326 84.0102 170.318 84.0127 170.306C84.0178 170.283 84.0254 170.249 84.0355 170.204C84.0556 170.113 84.0856 169.978 84.1247 169.8C84.2029 169.446 84.3178 168.924 84.464 168.255C84.7565 166.917 85.1745 164.991 85.6761 162.638C86.6796 157.932 88.0172 151.525 89.3544 144.718C90.6922 137.908 92.0269 130.71 93.0265 124.418C94.0332 118.081 94.6766 112.801 94.6766 109.755H98.6766C98.6766 113.159 97.98 118.732 96.9769 125.046C95.9666 131.406 94.6215 138.656 93.2794 145.489C91.9368 152.324 90.5946 158.753 89.5882 163.472C89.0849 165.832 88.6655 167.766 88.3717 169.11C88.2249 169.781 88.1094 170.306 88.0306 170.663C87.9912 170.841 87.961 170.978 87.9406 171.07C87.9304 171.116 87.9226 171.151 87.9174 171.174C87.9148 171.186 87.9128 171.195 87.9115 171.201C87.9108 171.204 87.9103 171.206 87.91 171.208C87.9098 171.208 87.9097 171.209 87.9096 171.209C87.9095 171.21 87.9094 171.21 85.9573 170.775ZM94.6766 109.755C94.6766 103.151 95.4299 98.6345 96.2178 95.7166C96.6118 94.2576 97.014 93.1996 97.3341 92.482C97.494 92.1233 97.6332 91.8501 97.7402 91.6549C97.7937 91.5572 97.8391 91.4792 97.875 91.4197C97.893 91.3899 97.9085 91.3648 97.9215 91.3443C97.928 91.334 97.9338 91.3249 97.939 91.3169C97.9416 91.3128 97.9441 91.3091 97.9463 91.3057C97.9474 91.3039 97.9485 91.3023 97.9496 91.3007C97.9501 91.2999 97.9508 91.2988 97.9511 91.2984C97.9518 91.2972 97.9526 91.2961 99.6207 92.3995C101.289 93.5029 101.289 93.5018 101.29 93.5007C101.29 93.5004 101.291 93.4994 101.292 93.4987C101.292 93.4974 101.293 93.4962 101.294 93.495C101.296 93.4926 101.297 93.4905 101.298 93.4887C101.3 93.4851 101.302 93.4825 101.303 93.481C101.305 93.4781 101.304 93.4796 101.3 93.4856C101.293 93.4976 101.275 93.5278 101.248 93.5771C101.194 93.6756 101.103 93.851 100.987 94.1112C100.755 94.6314 100.422 95.4927 100.079 96.7594C99.3953 99.293 98.6766 103.454 98.6766 109.755H94.6766ZM99.6207 92.3995C97.8349 91.499 97.835 91.4988 97.8352 91.4985C97.8353 91.4981 97.8356 91.4976 97.8359 91.4969C97.8366 91.4956 97.8376 91.4936 97.8389 91.491C97.8415 91.4858 97.8455 91.478 97.8507 91.4677C97.8611 91.4471 97.8766 91.4164 97.897 91.376C97.9378 91.2951 97.9984 91.1751 98.0776 91.0186C98.2358 90.7055 98.4683 90.2462 98.7653 89.6605C99.3593 88.4892 100.212 86.8124 101.245 84.7895C103.312 80.7442 106.105 75.3126 109.008 69.7708C111.909 64.2318 114.926 58.5708 117.439 54.0711C118.694 51.823 119.833 49.8488 120.774 48.3187C121.664 46.8705 122.501 45.6087 123.134 44.9764L125.961 47.8063C125.724 48.0429 125.13 48.8705 124.181 50.4135C123.283 51.8746 122.175 53.7935 120.931 56.0216C118.444 60.4743 115.447 66.0981 112.551 71.6267C109.657 77.1525 106.87 82.5713 104.807 86.6094C103.776 88.6283 102.925 90.3015 102.333 91.4697C102.037 92.0539 101.805 92.5117 101.647 92.8234C101.568 92.9793 101.508 93.0986 101.468 93.1788C101.447 93.219 101.432 93.2493 101.422 93.2696C101.417 93.2798 101.413 93.2874 101.41 93.2925C101.409 93.295 101.408 93.2969 101.407 93.2982C101.407 93.2988 101.407 93.2993 101.407 93.2996C101.407 93.2999 101.406 93.3 99.6207 92.3995ZM123.136 44.9747C124.097 44.0162 127.239 41.4442 130.236 39.6615C131.695 38.794 133.373 37.9556 134.85 37.7251C135.592 37.6092 136.595 37.5956 137.508 38.1397C138.522 38.7445 138.975 39.7574 139.09 40.749L135.116 41.2088C135.102 41.0812 135.117 41.3716 135.459 41.5755C135.7 41.7187 135.795 41.6259 135.467 41.6772C134.802 41.7809 133.688 42.2626 132.281 43.0992C129.549 44.7248 126.672 47.0976 125.959 47.808L123.136 44.9747ZM139.09 40.7488C139.198 41.6803 139.06 42.7403 138.843 43.757C138.618 44.8095 138.273 45.9788 137.859 47.1905C137.031 49.6155 135.885 52.3436 134.739 54.8794C133.59 57.4225 132.426 59.8073 131.549 61.554C131.111 62.4282 130.744 63.1445 130.486 63.6433C130.357 63.8927 130.255 64.0878 130.185 64.2212C130.15 64.2879 130.123 64.3392 130.105 64.3741C130.095 64.3916 130.088 64.4049 130.084 64.4141C130.081 64.4187 130.079 64.4222 130.078 64.4247C130.077 64.4259 130.077 64.4269 130.076 64.4276C130.076 64.4279 130.076 64.4282 130.076 64.4284C130.076 64.4287 130.076 64.4289 128.309 63.4925C126.541 62.5561 126.541 62.5562 126.541 62.5561C126.541 62.556 126.541 62.556 126.541 62.5558C126.542 62.5554 126.542 62.5547 126.542 62.5538C126.543 62.552 126.545 62.5491 126.547 62.5452C126.551 62.5374 126.558 62.5253 126.566 62.5092C126.583 62.477 126.608 62.4285 126.642 62.3647C126.709 62.237 126.807 62.048 126.933 61.8051C127.185 61.3191 127.544 60.6179 127.974 59.7607C128.835 58.0445 129.974 55.711 131.094 53.2324C132.217 50.7467 133.305 48.1497 134.073 45.8983C134.458 44.7719 134.751 43.7652 134.931 42.9228C135.118 42.0447 135.149 41.491 135.116 41.2091L139.09 40.7488ZM126.618 62.4245L138.371 43.8138L141.753 45.9497L129.999 64.5604L126.618 62.4245ZM138.811 43.3212L159.329 26.8759L161.831 29.9971L141.313 46.4423L138.811 43.3212ZM162.43 29.1966L156.112 44.5745L152.412 43.0544L158.73 27.6765L162.43 29.1966ZM154.262 43.8145C156.215 44.2429 156.215 44.2429 156.215 44.243C156.215 44.2432 156.215 44.2434 156.215 44.2437C156.215 44.2443 156.215 44.2453 156.215 44.2467C156.214 44.2494 156.213 44.2536 156.212 44.2592C156.209 44.2703 156.206 44.2872 156.201 44.3096C156.191 44.3543 156.177 44.4211 156.158 44.5083C156.12 44.6828 156.065 44.9394 155.995 45.266C155.855 45.9193 155.658 46.8525 155.428 47.9701C154.968 50.207 154.378 53.1746 153.855 56.111C153.329 59.0622 152.882 61.9265 152.695 63.979C152.598 65.0336 152.584 65.7423 152.623 66.1156C152.648 66.3561 152.67 66.196 152.509 65.9275C152.41 65.7622 152.161 65.4266 151.679 65.2326C151.159 65.0231 150.68 65.1027 150.384 65.2182L151.838 68.9445C151.409 69.1121 150.811 69.1951 150.185 68.9433C149.598 68.7069 149.258 68.2833 149.08 67.9872C148.762 67.4572 148.679 66.8648 148.644 66.526C148.563 65.7408 148.612 64.7034 148.711 63.6157C148.915 61.3838 149.388 58.3793 149.917 55.4096C150.449 52.4252 151.046 49.4198 151.51 47.164C151.743 46.0352 151.942 45.0922 152.083 44.4308C152.154 44.1 152.21 43.8396 152.248 43.6615C152.268 43.5724 152.283 43.504 152.293 43.4576C152.298 43.4343 152.302 43.4167 152.304 43.4047C152.306 43.3987 152.307 43.3941 152.307 43.391C152.308 43.3894 152.308 43.3882 152.308 43.3874C152.308 43.387 152.308 43.3866 152.308 43.3864C152.308 43.3862 152.308 43.386 154.262 43.8145ZM150.383 65.2185C150.085 65.335 149.996 65.4819 150.15 65.3202C150.254 65.2112 150.411 65.0223 150.621 64.7329C151.038 64.1583 151.56 63.3343 152.159 62.308C153.35 60.2649 154.76 57.5683 156.116 54.8094C157.469 52.054 158.753 49.2691 159.695 47.0587C160.166 45.9509 160.543 45.0079 160.798 44.2948C160.926 43.9365 161.015 43.6599 161.07 43.4625C161.14 43.2082 161.109 43.2352 161.109 43.4012H165.109C165.109 43.8215 165.002 44.2495 164.926 44.5239C164.835 44.8553 164.71 45.2353 164.564 45.6424C164.272 46.46 163.861 47.4833 163.375 48.6257C162.4 50.9157 161.084 53.7673 159.706 56.5734C158.328 59.3761 156.872 62.1659 155.614 64.3232C154.987 65.3971 154.389 66.3517 153.858 67.0829C153.594 67.4463 153.32 67.7921 153.045 68.0805C152.82 68.3163 152.404 68.7235 151.839 68.9442L150.383 65.2185ZM161.109 43.4012C161.109 41.8003 161.802 40.4641 162.491 39.4936C163.179 38.5239 164.01 37.7222 164.49 37.244L167.314 40.0773C166.77 40.6196 166.205 41.1715 165.753 41.8086C165.301 42.4448 165.109 42.9687 165.109 43.4012H161.109ZM164.484 37.2499C164.86 36.8721 165.752 36.1774 166.689 35.4658C167.69 34.7051 168.923 33.7923 170.117 32.9167C171.312 32.0401 172.475 31.1961 173.338 30.5715C173.77 30.2592 174.127 30.0014 174.377 29.8217C174.501 29.7319 174.599 29.6615 174.666 29.6136C174.699 29.5896 174.725 29.5712 174.742 29.5588C174.751 29.5526 174.757 29.5479 174.762 29.5447C174.764 29.5431 174.766 29.5419 174.767 29.541C174.767 29.5406 174.768 29.5403 174.768 29.5401C174.768 29.54 174.768 29.5399 174.768 29.5399C174.768 29.5398 174.768 29.5398 175.935 31.1643C177.102 32.7888 177.102 32.7888 177.102 32.7888C177.101 32.7889 177.101 32.789 177.101 32.789C177.101 32.7892 177.101 32.7895 177.1 32.7899C177.099 32.7906 177.097 32.7918 177.095 32.7933C177.091 32.7964 177.085 32.8009 177.076 32.807C177.059 32.8192 177.034 32.8372 177.001 32.8609C176.935 32.9083 176.838 32.9781 176.715 33.0673C176.467 33.2457 176.112 33.5018 175.683 33.8124C174.824 34.4339 173.668 35.2724 172.482 36.1422C171.295 37.0131 170.083 37.9105 169.108 38.6511C168.62 39.0219 168.199 39.3475 167.874 39.6076C167.711 39.7378 167.578 39.8463 167.477 39.9324C167.427 39.9753 167.387 40.0095 167.358 40.0356C167.328 40.063 167.317 40.074 167.32 40.0715L164.484 37.2499ZM176.093 29.1705L187.555 30.0785L187.239 34.066L175.777 33.158L176.093 29.1705ZM188.977 33.2989L180.646 44.0281L177.487 41.5749L185.818 30.8457L188.977 33.2989ZM180.909 43.5778L170.905 67.332L167.218 65.7794L177.223 42.0252L180.909 43.5778ZM167.669 65.1201L188.863 44.5622L191.648 47.4334L170.454 67.9913L167.669 65.1201ZM190.106 44.0034L206.956 42.7384L207.256 46.7272L190.406 47.9922L190.106 44.0034ZM208.582 46.0824L198.841 56.7357L195.889 54.0364L205.63 43.3831L208.582 46.0824ZM197.365 55.3861C198.897 56.6716 198.897 56.6716 198.897 56.6717C198.896 56.672 198.896 56.6722 198.896 56.6726C198.895 56.6735 198.894 56.6748 198.893 56.6766C198.89 56.6802 198.885 56.6857 198.879 56.6931C198.866 56.7078 198.848 56.7301 198.823 56.7597C198.774 56.8188 198.7 56.907 198.604 57.0226C198.412 57.2537 198.129 57.594 197.771 58.0289C197.054 58.8987 196.033 60.1465 194.819 61.6555C192.388 64.6755 189.191 68.7329 186.111 72.8967C183.02 77.0742 180.088 81.3038 178.161 84.6821C177.19 86.385 176.531 87.7748 176.213 88.7837C176.053 89.2929 176.017 89.5942 176.018 89.7308C176.019 89.8677 176.051 89.6078 175.77 89.3272L172.942 92.1565C172.209 91.4237 172.025 90.4919 172.018 89.7663C172.012 89.0406 172.176 88.2891 172.398 87.5841C172.844 86.1649 173.671 84.4816 174.687 82.7003C176.735 79.1102 179.781 74.727 182.895 70.5177C186.019 66.2948 189.253 62.1917 191.702 59.1478C192.928 57.6248 193.959 56.3648 194.684 55.4849C195.047 55.0449 195.333 54.6997 195.529 54.4642C195.627 54.3464 195.702 54.256 195.754 54.1948C195.779 54.1642 195.799 54.1409 195.812 54.1251C195.819 54.1172 195.824 54.1112 195.827 54.1071C195.829 54.105 195.83 54.1035 195.831 54.1024C195.831 54.1018 195.832 54.1014 195.832 54.1011C195.832 54.1008 195.832 54.1006 197.365 55.3861ZM175.766 89.3232C175.825 89.3823 176.035 89.5372 176.593 89.6324C177.143 89.7262 177.881 89.7353 178.798 89.6376C180.632 89.4422 182.86 88.8575 185.075 88.1068C187.273 87.3619 189.369 86.4846 190.91 85.7554C191.683 85.3892 192.29 85.0732 192.688 84.8415C192.893 84.7219 193.001 84.6488 193.039 84.6205C193.063 84.6031 193.016 84.6344 192.945 84.7088C192.908 84.7464 192.832 84.8293 192.751 84.9536C192.681 85.0606 192.525 85.3209 192.465 85.7006L196.417 86.319C196.354 86.7213 196.187 87.0078 196.098 87.1441C195.997 87.2977 195.894 87.4131 195.823 87.4863C195.683 87.632 195.538 87.7469 195.434 87.8242C195.218 87.9856 194.96 88.147 194.701 88.2981C194.169 88.6077 193.452 88.9775 192.621 89.3709C190.952 90.1606 188.714 91.0971 186.359 91.8952C184.021 92.6875 181.476 93.3749 179.222 93.6151C178.095 93.7351 176.959 93.7528 175.92 93.5754C174.889 93.3993 173.794 93.0031 172.947 92.1606L175.766 89.3232ZM192.465 85.7029C192.818 83.4304 194.22 80.4949 195.375 78.3291C195.977 77.2007 196.558 76.1975 196.988 75.4769C197.203 75.116 197.382 74.8244 197.508 74.6216C197.57 74.5202 197.62 74.4409 197.655 74.3861C197.672 74.3588 197.685 74.3375 197.695 74.3227C197.699 74.3153 197.703 74.3095 197.706 74.3053C197.707 74.3032 197.708 74.3016 197.709 74.3003C197.709 74.2997 197.71 74.2992 197.71 74.2987C197.71 74.2985 197.71 74.2983 197.71 74.2982C197.71 74.298 197.71 74.2978 199.397 75.3733C201.083 76.4489 201.083 76.4487 201.083 76.4486L201.083 76.4485C201.083 76.4485 201.083 76.4487 201.083 76.4489C201.083 76.4493 201.082 76.4501 201.081 76.4513C201.08 76.4538 201.077 76.4578 201.074 76.4635C201.066 76.4748 201.055 76.4924 201.04 76.5161C201.01 76.5635 200.966 76.635 200.908 76.7282C200.793 76.9146 200.625 77.1874 200.422 77.5276C200.015 78.209 199.468 79.1543 198.904 80.2112C197.729 82.416 196.653 84.7988 196.418 86.3167L192.465 85.7029ZM197.755 74.231C199.471 71.7655 201.646 68.6258 204.095 65.5078L207.24 67.9784C204.875 70.9906 202.764 74.0354 201.038 76.5157L197.755 74.231ZM205.668 64.7431C207.249 64.7431 208.219 65.8648 208.722 66.7362C209.249 67.6501 209.595 68.8136 209.83 70.0217C210.307 72.4735 210.437 75.6919 210.249 79.015C210.061 82.3517 209.548 85.907 208.681 89.0458C207.833 92.1162 206.572 95.0687 204.711 96.9261L201.885 94.095C202.996 92.9866 204.03 90.8603 204.825 87.9807C205.602 85.1695 206.08 81.9037 206.256 78.79C206.432 75.6627 206.296 72.8014 205.904 70.786C205.704 69.7606 205.464 69.0938 205.257 68.7356C205.026 68.335 205.113 68.7431 205.668 68.7431V64.7431Z" fill="#192E35" mask="url(#path-6-outside-2_4951_23202)"/>
<path d="M208.232 45.1479C208.84 45.1479 221.888 49.717 224.355 52.1767C226.824 54.6365 230.099 58.1504 228.638 61.4301C227.177 64.7088 205.784 59.3217 205.784 59.3217L208.232 45.1479Z" fill="#FAB480"/>
<path d="M198.966 35.8953C198.966 35.8953 206.959 38.2369 206.959 39.5263C206.959 40.8148 206.02 45.7343 195.91 44.2116C185.802 42.6889 198.966 35.8953 198.966 35.8953Z" fill="#FAB480"/>
<path d="M224.884 62.4883C221.264 62.4883 215.784 61.5147 211.621 60.647C214.756 57.5322 218.447 53.934 221.589 50.3975C222.838 51.0422 223.833 51.6569 224.354 52.177C226.398 54.2132 228.997 56.9737 228.999 59.7249C228.999 60.2956 228.888 60.8662 228.637 61.4303C228.296 62.195 226.87 62.4883 224.884 62.4883Z" fill="#865E3D"/>
<path d="M199.448 44.501C198.893 44.501 198.296 44.4757 197.657 44.4204C198.7 41.3694 199.74 38.5067 200.998 36.537C203.367 37.3251 206.959 38.6622 206.959 39.5271C206.959 40.645 206.25 44.501 199.448 44.501Z" fill="#865E3D"/>
<path d="M45.8887 126.965C45.8887 126.965 93.1094 114.737 106.867 105.103C120.625 95.4696 120.811 76.0164 127.689 69.1619C134.568 62.3065 135.87 55.0809 135.87 52.4881C135.87 49.8943 138.1 33.2195 138.1 33.2195C138.1 33.2195 137.356 11.7283 142.933 11.7283C148.511 11.7283 151.857 21.7332 149.998 30.2557C148.139 38.7781 145.909 67.3094 148.139 67.3094C150.37 67.3094 154.46 42.8533 154.46 42.8533L165.243 18.3992C165.243 18.3992 173.423 1.72534 181.231 3.94801C189.039 6.17163 177.513 23.5867 177.513 23.5867C177.513 23.5867 177.698 33.0349 174.539 36.1843C171.378 39.3338 165.243 63.3991 165.243 65.3547C165.243 67.3094 179.372 42.8533 179.372 42.8533L189.039 30.6267C189.039 30.6267 200.566 12.8406 206.515 12.8406C212.464 12.8406 212.836 19.5105 210.605 24.6971C208.374 29.8846 206.329 30.9041 202.146 35.073C197.963 39.241 196.29 53.1365 191.27 58.1385C186.251 63.1404 180.674 77.5916 180.674 77.5916C180.674 77.5916 192.386 61.4725 194.338 59.5272C196.29 57.5828 200.473 52.0252 200.473 52.0252C200.473 52.0252 209.054 43.4306 211.864 40.6307C214.674 37.8308 219.714 32.0164 222.782 32.0164C225.85 32.0164 228.639 32.572 228.639 38.4071C228.639 44.2439 218.18 54.1092 211.07 61.1961C203.958 68.282 197.824 78.8426 195.733 80.9257C193.641 83.0106 181.51 92.0428 187.087 97.5995C192.664 103.158 196.987 91.9032 199.915 88.9852C202.843 86.0663 213.3 81.4822 220.551 84.5389C227.802 87.5956 227.383 88.8456 224.455 91.7635C221.527 94.6825 209.396 98.7118 205.771 104.547C202.146 110.384 189.458 112.189 185.415 116.219C181.371 120.249 178.721 134.56 160.316 131.504C141.911 128.447 88.9268 149.845 87.2541 156.792C85.5803 163.74 40.0324 132.8 45.8887 126.965Z" fill="#FDA16F"/>
<path d="M224.458 91.7627C221.526 94.6863 209.395 98.7156 205.775 104.543C202.145 110.382 189.461 112.189 185.417 116.219C181.37 120.253 178.731 134.551 160.312 131.503C141.909 128.447 88.9234 149.84 87.2492 156.793C86.9109 158.18 84.8231 158.058 81.7392 156.916C69.4121 152.37 41.2029 131.634 45.8853 126.968C45.8853 126.968 63.0084 122.534 79.6327 116.904C90.6156 113.184 101.391 108.939 106.864 105.106C108.34 104.075 109.656 102.932 110.841 101.694C120.733 91.4441 121.543 75.2894 127.692 69.1611C134.565 62.3112 135.872 55.0866 135.872 52.49C135.872 49.8953 138.102 33.2149 138.102 33.2149C138.168 32.9319 137.179 11.3096 143.329 11.7481C148.67 12.1969 151.811 21.9432 149.996 30.2548C148.151 38.7201 145.901 67.3048 148.134 67.3048C150.372 67.3048 154.462 42.8572 154.462 42.8572L165.238 18.4011C165.427 18.2343 173.479 1.18285 181.656 4.09145C188.605 6.82857 177.51 23.583 177.51 23.583C177.51 23.583 177.697 33.0378 174.539 36.1854C171.529 39.1839 165.812 61.1868 165.276 64.935C165.248 65.2067 165.238 65.3566 165.238 65.3566C165.238 67.3048 179.372 42.8572 179.372 42.8572L189.037 30.6287C189.037 30.6287 200.566 12.8444 206.517 12.8444C212.37 12.8444 212.895 19.3728 210.608 24.6972C208.37 29.8884 206.33 30.9004 202.145 35.0712C197.962 39.2411 196.287 53.1375 191.267 58.1414C187.449 61.9542 183.301 71.2404 181.544 75.4477L181.534 75.4861C181.055 76.619 180.753 77.378 180.697 77.557C180.763 77.4633 180.95 77.2094 181.223 76.8355H181.233C197.918 53.9396 190.422 64.9125 200.472 52.0215C200.472 52.0215 209.057 43.4288 211.859 40.627C214.671 37.8355 219.711 32.0164 222.785 32.0164C226.722 32.0164 228.633 33.3508 228.633 38.4062C228.633 44.2449 218.177 54.1121 211.069 61.1962C203.96 68.2793 197.82 78.8408 195.732 80.9295C193.156 83.4848 181.565 92.0935 187.091 97.5996C192.667 103.157 196.984 91.9023 199.916 88.989C202.842 86.0645 213.298 81.4832 220.548 84.538C227.797 87.5928 227.384 88.8475 224.458 91.7627Z" fill="#FFC596"/>
<path d="M165.152 131.926C164.62 131.926 164.071 131.909 163.505 131.873C164.071 131.909 164.618 131.926 165.151 131.926C170.013 131.926 173.496 130.491 176.124 128.461C173.498 130.493 170.012 131.926 165.152 131.926ZM160.475 131.529C160.472 131.529 160.468 131.528 160.464 131.528C160.469 131.528 160.471 131.528 160.475 131.529Z" fill="#CC966B"/>
<path d="M85.5237 157.803C84.5738 157.803 83.2816 157.487 81.7396 156.915C77.3297 146.86 77.9123 130.705 79.6331 116.903C90.616 113.183 101.392 108.938 106.864 105.106C108.34 104.074 109.657 102.932 110.842 101.694L176.249 128.363C176.208 128.395 176.167 128.428 176.124 128.461C173.496 130.491 170.013 131.925 165.151 131.925C164.619 131.925 164.071 131.908 163.505 131.873C162.546 131.813 161.537 131.699 160.476 131.529C160.471 131.528 160.469 131.528 160.464 131.527C160.414 131.519 160.363 131.511 160.312 131.503C159.099 131.301 157.734 131.206 156.244 131.206C135.146 131.206 88.8136 150.298 87.2496 156.793C87.0802 157.486 86.4735 157.803 85.5237 157.803Z" fill="#CC966B"/>
<path d="M147.616 66.5752H147.615C147.207 65.1462 147.129 61.7503 147.265 57.5308C147.13 61.7494 147.209 65.1462 147.616 66.5752Z" fill="#CC966B"/>
<path d="M147.616 66.5752C146.336 66.5602 143.65 45.9667 145.371 40.1963C147.09 34.4241 146.47 23.9479 145.371 16.6118C145.097 14.7836 144.327 13.1634 143.329 11.7485C147.638 12.1111 150.514 18.5224 150.513 25.3507C150.513 26.9868 150.347 28.6482 149.996 30.2552C148.847 35.5289 147.557 48.4396 147.265 57.5308C147.129 61.7503 147.207 65.1462 147.616 66.5752Z" fill="#CC966B"/>
<path d="M165.275 64.9346C165.492 62.0391 166.78 45.0973 166.78 42.5297C166.78 39.7186 172.009 25.512 174.745 20.8277C176.927 17.1076 180.339 7.783 181.656 4.09103C183.311 4.74321 183.943 6.19097 183.944 8.01915C183.947 13.8617 177.51 23.5826 177.51 23.5826C177.51 23.5826 177.512 23.6875 177.512 23.8796C177.512 25.5064 177.364 33.3691 174.538 36.185C171.528 39.1835 165.812 61.1864 165.275 64.9346Z" fill="#CC966B"/>
<path d="M181.224 76.8535V76.8382H181.233L181.224 76.8535Z" fill="#CC966B"/>
<path d="M181.234 76.8359V76.8259L181.288 76.7532L181.234 76.8359Z" fill="#CC966B"/>
<path d="M210.626 24.6533C210.628 24.6508 210.629 24.6473 210.631 24.6448C210.629 24.6473 210.628 24.6508 210.626 24.6533Z" fill="#ABFEE6"/>
<path d="M211.363 15.9795C210.967 14.9609 210.329 14.1213 209.414 13.5675C209.414 13.5666 209.414 13.5657 209.414 13.5657C210.334 14.1204 210.97 14.9619 211.363 15.9795Z" fill="#CC966B"/>
<path d="M181.544 75.4473C182.775 70.1726 187.156 51.769 189.564 46.4372C192.385 40.1861 195.366 34.8824 203.358 30.0379C208.934 26.6561 209.545 18.2995 209.413 13.5674C210.329 14.1212 210.968 14.9608 211.364 15.9793C212.281 18.3576 211.872 21.6991 210.65 24.5993C210.643 24.6142 210.637 24.6292 210.631 24.6442C210.629 24.647 210.628 24.6508 210.626 24.6536C210.621 24.6686 210.614 24.6827 210.608 24.6967C208.37 29.888 206.33 30.9 202.145 35.0708C197.961 39.2406 196.287 53.1371 191.266 58.1409C187.449 61.9538 183.301 71.2399 181.544 75.4473Z" fill="#CC966B"/>
<path d="M185.793 95.4258C185.788 95.422 185.785 95.4173 185.781 95.4136C185.304 93.5985 186.031 91.597 187.283 89.6667C186.028 91.6017 185.304 93.607 185.793 95.4258Z" fill="#ABFEE6"/>
<path d="M185.782 95.415C185.778 95.4104 185.774 95.4057 185.769 95.401C185.14 93.0546 186.534 90.4215 188.49 88.0152C188.055 88.5558 187.649 89.1087 187.286 89.6681C186.032 91.5984 185.305 93.6 185.782 95.415ZM228.634 38.3722C228.634 38.3713 228.634 38.3713 228.634 38.3703C228.634 38.3713 228.634 38.3713 228.634 38.3722ZM226.797 32.9813C226.777 32.9664 226.756 32.9514 226.736 32.9364C226.736 32.9364 226.735 32.9354 226.735 32.9345C226.755 32.9504 226.776 32.9654 226.797 32.9813Z" fill="#CC966B"/>
<path d="M185.768 95.4004C185.664 95.2926 185.569 95.1605 185.491 95.005C182.2 88.7633 194.265 78.7659 199.531 68.5708C204.786 58.3757 204.449 60.961 209.78 57.5221C215.111 54.0925 220.312 43.6547 224.984 38.9966C227.315 36.6746 227.316 34.5194 226.734 32.9358C226.755 32.9508 226.775 32.9658 226.795 32.9807C227.911 33.8325 228.627 35.4218 228.632 38.3697C228.632 38.3706 228.632 38.3707 228.632 38.3716C228.632 38.3838 228.632 38.395 228.632 38.4063C228.632 44.245 218.176 54.1121 211.068 61.1962C203.959 68.2794 197.819 78.8408 195.731 80.9295C194.676 81.9762 191.087 84.7799 188.489 88.0146C186.532 90.4209 185.139 93.054 185.768 95.4004Z" fill="#CC966B"/>
<path d="M165.275 21.9177C168.701 24.4018 172.862 24.339 174.24 24.5733C170.541 25.858 166.478 24.3334 165.275 21.9177Z" fill="#CC966B"/>
<path d="M191.131 29.1854C191.763 30.6566 192.745 32.7921 193.748 34.0468C195.027 35.7297 196.181 36.4138 198.183 36.9104C193.977 37.6188 191.129 32.883 191.131 29.1854Z" fill="#CC966B"/>
<path d="M212.601 43.7828C213.851 47.8412 217.807 48.1035 218.208 48.3415C218.579 48.4231 218.956 48.5018 219.34 48.6236C215.117 49.5719 212.044 46.5799 212.601 43.7828Z" fill="#CC966B"/>
<path d="M198.184 59.2444C200.866 60.9226 203.091 61.2403 204.51 61.7425C201.889 62.5765 198.875 61.0604 198.184 59.2444Z" fill="#CC966B"/>
<path d="M139.415 27.2801C142.207 27.6778 144.104 28.374 146.378 27.2801C145.158 29.5082 141.258 29.0138 139.415 27.2801Z" fill="#CC966B"/>
<path d="M138.004 43.7832C141.69 43.3944 143.081 43.147 145.436 41.2457C144.423 44.1421 140.483 44.9555 138.004 43.7832Z" fill="#CC966B"/>
<path d="M214.446 97.5771L212.602 95.4266L222.945 88.4484L225.726 91.5219L214.446 97.5771Z" fill="white"/>
<mask id="path-34-outside-3_4951_23202" maskUnits="userSpaceOnUse" x="163.785" y="71.8008" width="31" height="28" fill="black">
<rect fill="white" x="163.785" y="71.8008" width="31" height="28"/>
<path d="M188.487 79.3438C191.197 81.3866 191.988 85.0345 190.538 87.9675C192.538 89.9709 192.806 93.1971 191.046 95.5145C189.119 98.052 185.481 98.5542 182.935 96.6333C182.047 95.9642 181.383 95.0544 181.004 94.033C178.784 94.524 176.405 94.0405 174.548 92.6405C172.506 91.101 171.385 88.7049 171.435 86.2442C170.499 86.1562 169.59 85.8151 168.82 85.2341C166.561 83.5296 166.114 80.3118 167.823 78.0601C169.225 76.215 171.648 75.5816 173.72 76.3518C175.439 74.1394 178.641 73.7112 180.885 75.4045C181.806 76.0979 182.441 77.0518 182.737 78.106C184.703 77.6646 186.814 78.0816 188.487 79.3438Z"/>
</mask>
<path d="M188.487 79.3438C191.197 81.3866 191.988 85.0345 190.538 87.9675C192.538 89.9709 192.806 93.1971 191.046 95.5145C189.119 98.052 185.481 98.5542 182.935 96.6333C182.047 95.9642 181.383 95.0544 181.004 94.033C178.784 94.524 176.405 94.0405 174.548 92.6405C172.506 91.101 171.385 88.7049 171.435 86.2442C170.499 86.1562 169.59 85.8151 168.82 85.2341C166.561 83.5296 166.114 80.3118 167.823 78.0601C169.225 76.215 171.648 75.5816 173.72 76.3518C175.439 74.1394 178.641 73.7112 180.885 75.4045C181.806 76.0979 182.441 77.0518 182.737 78.106C184.703 77.6646 186.814 78.0816 188.487 79.3438Z" fill="white"/>
<path d="M190.538 87.9675L189.123 89.3805L188.11 88.3661L188.745 87.0811L190.538 87.9675ZM191.046 95.5145L189.453 94.305L189.453 94.3047L191.046 95.5145ZM182.935 96.6333L184.139 95.0362L184.14 95.0367L182.935 96.6333ZM181.004 94.033L180.572 92.0802L182.273 91.704L182.879 93.3373L181.004 94.033ZM174.548 92.6405L175.752 91.0435L175.753 91.0438L174.548 92.6405ZM171.435 86.2442L171.623 84.2531L173.472 84.4272L173.435 86.2847L171.435 86.2442ZM168.82 85.2341L167.616 86.8307L167.615 86.8305L168.82 85.2341ZM167.823 78.0601L166.23 76.8507L166.231 76.85L167.823 78.0601ZM173.72 76.3518L175.299 77.5789L174.399 78.7378L173.023 78.2265L173.72 76.3518ZM180.885 75.4045L179.682 77.002L179.681 77.0011L180.885 75.4045ZM182.737 78.106L183.175 80.0574L181.323 80.4731L180.811 78.6454L182.737 78.106ZM189.69 77.7467C193.182 80.3789 194.199 85.0752 192.331 88.8538L188.745 87.0811C189.777 84.9938 189.211 82.3942 187.283 80.9409L189.69 77.7467ZM191.954 86.5545C194.649 89.254 195.013 93.5987 192.639 96.7242L189.453 94.3047C190.6 92.7956 190.428 90.6878 189.123 89.3805L191.954 86.5545ZM192.639 96.7239C190.045 100.141 185.155 100.814 181.731 98.2299L184.14 95.0367C185.807 96.2948 188.194 95.9635 189.453 94.305L192.639 96.7239ZM181.731 98.2304C180.531 97.3258 179.637 96.1 179.129 94.7287L182.879 93.3373C183.128 94.0088 183.564 94.6027 184.139 95.0362L181.731 98.2304ZM181.436 95.9858C178.659 96.5999 175.679 95.9983 173.344 94.2373L175.753 91.0438C177.13 92.0826 178.908 92.4481 180.572 92.0802L181.436 95.9858ZM173.345 94.2376C170.781 92.3052 169.373 89.2959 169.435 86.2038L173.435 86.2847C173.398 88.114 174.231 89.8967 175.752 91.0435L173.345 94.2376ZM171.248 88.2354C169.954 88.1137 168.69 87.6415 167.616 86.8307L170.025 83.6375C170.49 83.9887 171.045 84.1987 171.623 84.2531L171.248 88.2354ZM167.615 86.8305C164.475 84.4607 163.85 79.9858 166.23 76.8507L169.416 79.2694C168.378 80.6377 168.648 82.5985 170.025 83.6377L167.615 86.8305ZM166.231 76.85C168.183 74.2817 171.544 73.4093 174.417 74.4771L173.023 78.2265C171.751 77.7538 170.268 78.1483 169.416 79.2701L166.231 76.85ZM172.141 75.1248C174.531 72.0487 178.972 71.4562 182.09 73.8078L179.681 77.0011C178.309 75.9662 176.347 76.2302 175.299 77.5789L172.141 75.1248ZM182.088 73.8069C183.363 74.7672 184.25 76.0946 184.663 77.5666L180.811 78.6454C180.632 78.0089 180.248 77.4286 179.682 77.002L182.088 73.8069ZM182.299 76.1545C184.823 75.588 187.537 76.122 189.691 77.7473L187.282 80.9403C186.09 80.0413 184.583 79.7413 183.175 80.0574L182.299 76.1545Z" fill="#CCE9FE" mask="url(#path-34-outside-3_4951_23202)"/>
<mask id="path-36-outside-4_4951_23202" maskUnits="userSpaceOnUse" x="132.585" y="38.4883" width="48" height="48" fill="black">
<rect fill="white" x="132.585" y="38.4883" width="48" height="48"/>
<path d="M167.162 80.3143C162.984 84.7128 156.322 85.3969 151.377 82.2531C147.409 85.4006 141.603 85.2404 137.816 81.6683C133.669 77.7571 133.49 71.2137 137.415 67.0813C138.784 65.6401 140.537 64.6422 142.432 64.1718C141.994 60.1434 143.324 56.025 146.186 53.0106C149.334 49.6972 153.828 48.1829 158.206 48.7554C158.547 47.1156 159.334 45.5713 160.522 44.3213C164.006 40.6546 169.834 40.4953 173.513 43.9662C176.531 46.8129 177.181 51.2283 175.399 54.7469C179.009 58.2262 179.144 63.9825 175.683 67.6257C174.263 69.1184 172.437 70.0564 170.498 70.3713C170.901 73.9424 169.742 77.5978 167.162 80.3143Z"/>
</mask>
<path d="M167.162 80.3143C162.984 84.7128 156.322 85.3969 151.377 82.2531C147.409 85.4006 141.603 85.2404 137.816 81.6683C133.669 77.7571 133.49 71.2137 137.415 67.0813C138.784 65.6401 140.537 64.6422 142.432 64.1718C141.994 60.1434 143.324 56.025 146.186 53.0106C149.334 49.6972 153.828 48.1829 158.206 48.7554C158.547 47.1156 159.334 45.5713 160.522 44.3213C164.006 40.6546 169.834 40.4953 173.513 43.9662C176.531 46.8129 177.181 51.2283 175.399 54.7469C179.009 58.2262 179.144 63.9825 175.683 67.6257C174.263 69.1184 172.437 70.0564 170.498 70.3713C170.901 73.9424 169.742 77.5978 167.162 80.3143Z" fill="white"/>
<path d="M151.377 82.2531L150.134 80.6861L151.249 79.8018L152.45 80.5653L151.377 82.2531ZM137.816 81.6683L139.189 80.2134L139.189 80.2135L137.816 81.6683ZM137.415 67.0813L135.965 65.704L135.965 65.7038L137.415 67.0813ZM142.432 64.1718L144.42 63.9555L144.609 65.6922L142.914 66.1129L142.432 64.1718ZM146.186 53.0106L144.736 51.6334L144.736 51.633L146.186 53.0106ZM158.206 48.7554L160.164 49.163L159.786 50.9791L157.947 50.7385L158.206 48.7554ZM160.522 44.3213L159.072 42.9438L159.072 42.9437L160.522 44.3213ZM173.513 43.9662L174.885 42.5113L174.886 42.5114L173.513 43.9662ZM175.399 54.7469L174.011 56.1869L172.948 55.1615L173.615 53.8433L175.399 54.7469ZM175.683 67.6257L177.133 69.0031L177.132 69.0041L175.683 67.6257ZM170.498 70.3713L168.511 70.5952L168.298 68.7024L170.178 68.3971L170.498 70.3713ZM168.612 81.6918C163.761 86.7987 156.039 87.5865 150.304 83.9409L152.45 80.5653C156.606 83.2072 162.207 82.6269 165.712 78.9368L168.612 81.6918ZM152.62 83.82C147.886 87.5754 140.965 87.3877 136.444 83.1232L139.189 80.2135C142.241 83.0931 146.933 83.2258 150.134 80.6861L152.62 83.82ZM136.444 83.1233C131.492 78.4523 131.277 70.6392 135.965 65.704L138.865 68.4586C135.703 71.7881 135.847 77.0619 139.189 80.2134L136.444 83.1233ZM135.965 65.7038C137.603 63.979 139.695 62.7903 141.951 62.2306L142.914 66.1129C141.378 66.494 139.964 67.3013 138.865 68.4588L135.965 65.7038ZM140.444 64.388C139.944 59.7882 141.46 55.0836 144.736 51.6334L147.636 54.3877C145.188 56.9665 144.044 60.4985 144.42 63.9555L140.444 64.388ZM144.736 51.633C148.333 47.8468 153.466 46.1186 158.465 46.7723L157.947 50.7385C154.189 50.2472 150.335 51.5475 147.636 54.3882L144.736 51.633ZM156.248 48.3479C156.663 46.354 157.621 44.471 159.072 42.9438L161.972 45.6989C161.048 46.6716 160.432 47.8772 160.164 49.163L156.248 48.3479ZM159.072 42.9437C163.315 38.4782 170.405 38.2846 174.885 42.5113L172.141 45.421C169.263 42.7061 164.697 42.8311 161.972 45.6989L159.072 42.9437ZM174.886 42.5114C178.565 45.9832 179.355 51.3636 177.184 55.6505L173.615 53.8433C175.008 51.093 174.496 47.6427 172.141 45.4209L174.886 42.5114ZM176.787 53.3069C181.187 57.5478 181.352 64.562 177.133 69.0031L174.233 66.2484C176.936 63.4029 176.831 58.9046 174.011 56.1869L176.787 53.3069ZM177.132 69.0041C175.408 70.8173 173.184 71.9614 170.819 72.3454L170.178 68.3971C171.691 68.1514 173.119 67.4196 174.234 66.2473L177.132 69.0041ZM172.486 70.1473C172.953 74.2924 171.607 78.5374 168.613 81.6914L165.712 78.9372C167.876 76.6582 168.849 73.5923 168.511 70.5952L172.486 70.1473Z" fill="#CCE9FE" mask="url(#path-36-outside-4_4951_23202)"/>
<mask id="path-38-outside-5_4951_23202" maskUnits="userSpaceOnUse" x="91.2595" y="50.3369" width="26" height="27" fill="black">
<rect fill="white" x="91.2595" y="50.3369" width="26" height="27"/>
<path d="M98.7726 56.3872C100.604 54.0512 103.818 53.4112 106.373 54.7137C108.16 52.9979 110.997 52.8077 113.007 54.3735C115.209 56.0874 115.601 59.2677 113.881 61.4614C113.281 62.2269 112.473 62.7938 111.571 63.1106C111.973 65.0531 111.516 67.1211 110.261 68.7207C108.882 70.4814 106.762 71.426 104.603 71.3501C104.513 72.1643 104.201 72.9524 103.681 73.6158C102.154 75.564 99.3225 75.9097 97.3677 74.3889C95.7659 73.1417 95.2432 71.0202 95.9476 69.2239C94.0274 67.6955 93.6946 64.8975 95.2112 62.9635C95.8335 62.1698 96.6798 61.6282 97.6094 61.3855C97.2476 59.6641 97.6425 57.8294 98.7726 56.3872Z"/>
</mask>
<path d="M98.7726 56.3872C100.604 54.0512 103.818 53.4112 106.373 54.7137C108.16 52.9979 110.997 52.8077 113.007 54.3735C115.209 56.0874 115.601 59.2677 113.881 61.4614C113.281 62.2269 112.473 62.7938 111.571 63.1106C111.973 65.0531 111.516 67.1211 110.261 68.7207C108.882 70.4814 106.762 71.426 104.603 71.3501C104.513 72.1643 104.201 72.9524 103.681 73.6158C102.154 75.564 99.3225 75.9097 97.3677 74.3889C95.7659 73.1417 95.2432 71.0202 95.9476 69.2239C94.0274 67.6955 93.6946 64.8975 95.2112 62.9635C95.8335 62.1698 96.6798 61.6282 97.6094 61.3855C97.2476 59.6641 97.6425 57.8294 98.7726 56.3872Z" fill="white"/>
<path d="M106.373 54.7137L107.758 56.1562L106.732 57.1416L105.465 56.4956L106.373 54.7137ZM113.007 54.3735L111.779 55.9519L111.778 55.9514L113.007 54.3735ZM113.881 61.4614L112.306 60.2278L112.307 60.227L113.881 61.4614ZM111.571 63.1106L109.613 63.5154L109.259 61.803L110.908 61.2236L111.571 63.1106ZM110.261 68.7207L108.687 67.4873L108.687 67.4865L110.261 68.7207ZM104.603 71.3501L102.616 71.1297L102.82 69.2861L104.674 69.3513L104.603 71.3501ZM103.681 73.6158L105.255 74.8496L105.255 74.8496L103.681 73.6158ZM97.3677 74.3889L96.1396 75.9674L96.139 75.967L97.3677 74.3889ZM95.9476 69.2239L97.1931 67.659L98.3489 68.5789L97.8096 69.9541L95.9476 69.2239ZM95.2112 62.9635L96.7851 64.1975L96.785 64.1976L95.2112 62.9635ZM97.6094 61.3855L99.5666 60.9742L99.9585 62.8392L98.1146 63.3206L97.6094 61.3855ZM97.1988 55.1531C99.6343 52.0472 103.894 51.2052 107.281 52.9318L105.465 56.4956C103.741 55.6171 101.575 56.0552 100.346 57.6214L97.1988 55.1531ZM104.988 53.2712C107.48 50.8774 111.43 50.6101 114.236 52.7956L111.778 55.9514C110.563 55.0054 108.839 55.1185 107.758 56.1562L104.988 53.2712ZM114.235 52.7952C117.31 55.1881 117.86 59.6292 115.454 62.6958L112.307 60.227C113.343 58.9063 113.108 56.9866 111.779 55.9519L114.235 52.7952ZM115.455 62.695C114.613 63.7693 113.485 64.558 112.234 64.9976L110.908 61.2236C111.461 61.0296 111.948 60.6846 112.306 60.2278L115.455 62.695ZM113.53 62.7057C114.048 65.2118 113.461 67.882 111.835 69.9549L108.687 67.4865C109.571 66.3603 109.898 64.8944 109.613 63.5154L113.53 62.7057ZM111.836 69.9541C110.053 72.2294 107.317 73.4467 104.533 73.3488L104.674 69.3513C106.208 69.4052 107.711 68.7334 108.687 67.4873L111.836 69.9541ZM106.591 71.5704C106.461 72.745 106.01 73.886 105.255 74.8496L102.107 72.3821C102.392 72.0188 102.565 71.5837 102.616 71.1297L106.591 71.5704ZM105.255 74.8496C103.047 77.6669 98.962 78.1632 96.1396 75.9674L98.5958 72.8104C99.683 73.6562 101.261 73.461 102.107 72.382L105.255 74.8496ZM96.139 75.967C93.8194 74.1609 93.0666 71.0924 94.0857 68.4937L97.8096 69.9541C97.4198 70.948 97.7124 72.1225 98.5964 72.8108L96.139 75.967ZM94.7022 70.7887C91.9241 68.5777 91.441 64.5303 93.6374 61.7293L96.785 64.1976C95.9482 65.2648 96.1306 66.8133 97.1931 67.659L94.7022 70.7887ZM93.6373 61.7294C94.5329 60.5872 95.7565 59.8022 97.1041 59.4503L98.1146 63.3206C97.6031 63.4541 97.1341 63.7523 96.7851 64.1975L93.6373 61.7294ZM95.6521 61.7968C95.1717 59.5107 95.6957 57.0712 97.1984 55.1536L100.347 57.6209C99.5893 58.5876 99.3235 59.8175 99.5666 60.9742L95.6521 61.7968Z" fill="#CCE9FE" mask="url(#path-38-outside-5_4951_23202)"/>
<path d="M97.4388 46.6879C97.4388 49.4744 95.1733 51.7285 92.3848 51.7285C89.5957 51.7285 87.3301 49.4745 87.3301 46.6879C87.3301 43.9014 89.5957 41.6474 92.3848 41.6474C95.1733 41.6474 97.4388 43.9015 97.4388 46.6879Z" fill="white" stroke="#CCE9FE" stroke-width="2"/>
<path d="M115.867 35.5665C115.867 38.5164 113.468 40.9004 110.518 40.9004C107.566 40.9004 105.169 38.5163 105.169 35.5665C105.169 32.6168 107.566 30.2327 110.518 30.2327C113.468 30.2327 115.867 32.6167 115.867 35.5665Z" fill="white" stroke="#CCE9FE" stroke-width="2"/>
<path d="M176.961 68.5714C176.961 70.0688 175.743 71.2832 174.24 71.2832C172.736 71.2832 171.519 70.0688 171.519 68.5714C171.519 67.074 172.736 65.8596 174.24 65.8596C175.743 65.8596 176.961 67.074 176.961 68.5714Z" fill="#FFF6F0"/>
<path d="M169.325 81.2066C169.325 82.8895 168.188 84.2529 166.785 84.2529C165.383 84.2529 164.245 82.8895 164.245 81.2066C164.245 79.5236 165.383 78.1593 166.785 78.1593C168.188 78.1593 169.325 79.5236 169.325 81.2066Z" fill="#FFF6F0"/>
<path d="M203.199 96.2595C197.257 102.183 181.769 126.048 177.03 130.772C172.291 135.495 160.877 129.282 151.671 138.456C142.465 147.62 139.126 182.637 139.126 182.637C139.126 182.637 87.5324 182.084 85.8582 171.524C85.8582 171.524 96.5775 123.406 96.5775 110.504C96.5775 97.5995 99.5216 93.1485 99.5216 93.1485C99.5216 93.1485 120.969 50.6159 124.448 47.1404C126.123 45.4715 136.486 37.2507 137.004 41.728C137.566 46.5819 128.209 64.2415 128.209 64.2415L139.963 45.6308L160.481 29.1855L154.163 44.5635C154.163 44.5635 148.877 68.6634 151.012 67.8304C153.146 66.9964 163.01 46.1846 163.01 44.1502C163.01 42.1168 164.779 40.4301 165.803 39.4097C166.819 38.3883 175.836 31.9133 175.836 31.9133L187.298 32.8213L178.967 43.5505L168.962 67.3047L190.157 46.7468L207.007 45.4818L197.265 56.1351C197.265 56.1351 170.637 87.8729 174.257 91.4909C177.887 95.0976 194.228 87.4859 194.342 86.7588C194.931 82.9684 199.298 76.1224 199.298 76.1224C201.018 73.6495 203.161 70.5572 205.568 67.4921C209.678 67.4921 209.142 90.328 203.199 96.2595Z" fill="#FFC596"/>
<mask id="path-45-outside-6_4951_23202" maskUnits="userSpaceOnUse" x="150.943" y="104.451" width="48" height="48" fill="black">
<rect fill="white" x="150.943" y="104.451" width="48" height="48"/>
<path d="M185.52 146.276C181.342 150.677 174.68 151.36 169.735 148.216C165.767 151.363 159.962 151.203 156.174 147.631C152.028 143.72 151.848 137.176 155.773 133.044C157.142 131.603 158.895 130.605 160.791 130.135C160.353 126.106 161.682 121.988 164.545 118.974C167.692 115.66 172.186 114.146 176.565 114.718C176.905 113.078 177.693 111.534 178.88 110.284C182.364 106.618 188.192 106.458 191.872 109.93C194.889 112.775 195.539 117.19 193.757 120.71C197.367 124.189 197.502 129.945 194.041 133.588C192.622 135.081 190.796 136.019 188.857 136.335C189.26 139.905 188.101 143.562 185.52 146.276Z"/>
</mask>
<path d="M185.52 146.276C181.342 150.677 174.68 151.36 169.735 148.216C165.767 151.363 159.962 151.203 156.174 147.631C152.028 143.72 151.848 137.176 155.773 133.044C157.142 131.603 158.895 130.605 160.791 130.135C160.353 126.106 161.682 121.988 164.545 118.974C167.692 115.66 172.186 114.146 176.565 114.718C176.905 113.078 177.693 111.534 178.88 110.284C182.364 106.618 188.192 106.458 191.872 109.93C194.889 112.775 195.539 117.19 193.757 120.71C197.367 124.189 197.502 129.945 194.041 133.588C192.622 135.081 190.796 136.019 188.857 136.335C189.26 139.905 188.101 143.562 185.52 146.276Z" fill="white"/>
<path d="M169.735 148.216L168.493 146.649L169.607 145.765L170.808 146.528L169.735 148.216ZM156.174 147.631L154.802 149.086L154.802 149.086L156.174 147.631ZM155.773 133.044L157.223 134.422L157.223 134.422L155.773 133.044ZM160.791 130.135L162.779 129.918L162.968 131.655L161.273 132.076L160.791 130.135ZM164.545 118.974L165.995 120.352L165.995 120.352L164.545 118.974ZM176.565 114.718L178.523 115.125L178.146 116.942L176.306 116.701L176.565 114.718ZM178.88 110.284L177.429 108.907L177.43 108.907L178.88 110.284ZM191.872 109.93L190.5 111.385L190.5 111.385L191.872 109.93ZM193.757 120.71L192.369 122.15L191.306 121.125L191.973 119.806L193.757 120.71ZM194.041 133.588L192.591 132.21L192.591 132.21L194.041 133.588ZM188.857 136.335L186.869 136.56L186.655 134.667L188.535 134.361L188.857 136.335ZM186.971 147.653C182.119 152.763 174.397 153.549 168.662 149.904L170.808 146.528C174.964 149.17 180.565 148.591 184.07 144.899L186.971 147.653ZM170.978 149.783C166.244 153.538 159.324 153.35 154.802 149.086L157.547 146.176C160.6 149.056 165.291 149.189 168.493 146.649L170.978 149.783ZM154.802 149.086C149.851 144.415 149.635 136.601 154.323 131.667L157.223 134.422C154.061 137.75 154.206 143.025 157.547 146.176L154.802 149.086ZM154.323 131.667C155.961 129.942 158.053 128.753 160.31 128.193L161.273 132.076C159.736 132.457 158.322 133.264 157.223 134.422L154.323 131.667ZM158.803 130.351C158.303 125.751 159.817 121.046 163.095 117.597L165.995 120.352C163.546 122.929 162.403 126.461 162.779 129.918L158.803 130.351ZM163.095 117.597C166.691 113.81 171.824 112.082 176.824 112.735L176.306 116.701C172.547 116.21 168.693 117.51 165.995 120.352L163.095 117.597ZM174.607 114.312C175.021 112.316 175.98 110.434 177.429 108.907L180.33 111.661C179.406 112.635 178.79 113.84 178.523 115.125L174.607 114.312ZM177.43 108.907C181.673 104.441 188.763 104.248 193.244 108.475L190.5 111.385C187.621 108.669 183.055 108.794 180.33 111.662L177.43 108.907ZM193.244 108.475C196.924 111.945 197.712 117.326 195.542 121.613L191.973 119.806C193.366 117.055 192.853 113.605 190.5 111.385L193.244 108.475ZM195.145 119.27C199.545 123.511 199.71 130.525 195.491 134.965L192.591 132.21C195.294 129.366 195.189 124.868 192.369 122.15L195.145 119.27ZM195.491 134.965C193.767 136.78 191.543 137.924 189.178 138.309L188.535 134.361C190.05 134.114 191.478 133.382 192.591 132.21L195.491 134.965ZM190.844 136.111C191.312 140.255 189.966 144.502 186.97 147.654L184.071 144.898C186.235 142.622 187.208 139.556 186.869 136.56L190.844 136.111Z" fill="#CCE9FE" mask="url(#path-45-outside-6_4951_23202)"/>
<mask id="path-47-outside-7_4951_23202" maskUnits="userSpaceOnUse" x="98.1895" y="33.0293" width="49" height="47" fill="black">
<rect fill="white" x="98.1895" y="33.0293" width="49" height="47"/>
<path d="M112.263 38.9944C116.689 34.7898 123.415 34.4441 128.22 37.8549C132.368 34.8967 138.192 35.3549 141.812 39.1378C145.775 43.2795 145.619 49.8623 141.463 53.811C140.013 55.1885 138.201 56.1012 136.271 56.476C136.505 60.5456 134.956 64.6152 131.925 67.4957C128.592 70.6629 123.999 71.9532 119.632 71.1539C119.204 72.7844 118.333 74.2939 117.076 75.4877C113.388 78.9942 107.525 78.8546 104.009 75.1795C101.125 72.1659 100.699 67.6981 102.67 64.2535C99.2233 60.5737 99.386 54.7865 103.049 51.3035C104.552 49.8754 106.435 49.0274 108.399 48.8109C108.179 45.2033 109.533 41.59 112.263 38.9944Z"/>
</mask>
<path d="M112.263 38.9944C116.689 34.7898 123.415 34.4441 128.22 37.8549C132.368 34.8967 138.192 35.3549 141.812 39.1378C145.775 43.2795 145.619 49.8623 141.463 53.811C140.013 55.1885 138.201 56.1012 136.271 56.476C136.505 60.5456 134.956 64.6152 131.925 67.4957C128.592 70.6629 123.999 71.9532 119.632 71.1539C119.204 72.7844 118.333 74.2939 117.076 75.4877C113.388 78.9942 107.525 78.8546 104.009 75.1795C101.125 72.1659 100.699 67.6981 102.67 64.2535C99.2233 60.5737 99.386 54.7865 103.049 51.3035C104.552 49.8754 106.435 49.0274 108.399 48.8109C108.179 45.2033 109.533 41.59 112.263 38.9944Z" fill="white"/>
<path d="M128.22 37.8549L129.382 39.4832L128.223 40.3096L127.063 39.4858L128.22 37.8549ZM141.812 39.1378L140.367 40.5205L140.367 40.5204L141.812 39.1378ZM141.463 53.811L142.84 55.2609L142.84 55.261L141.463 53.811ZM136.271 56.476L134.275 56.5904L134.175 54.8459L135.89 54.5127L136.271 56.476ZM131.925 67.4957L133.303 68.9453L133.303 68.9455L131.925 67.4957ZM119.632 71.1539L117.697 70.6463L118.168 68.8528L119.992 69.1866L119.632 71.1539ZM117.076 75.4877L115.698 74.0383L115.699 74.0374L117.076 75.4877ZM104.009 75.1795L105.453 73.7967L105.454 73.7967L104.009 75.1795ZM102.67 64.2535L104.129 62.8864L105.139 63.9646L104.405 65.2467L102.67 64.2535ZM103.049 51.3035L101.671 49.854L101.672 49.8537L103.049 51.3035ZM108.399 48.8109L110.395 48.6891L110.511 50.5902L108.618 50.7989L108.399 48.8109ZM110.886 37.5445C116.019 32.6674 123.81 32.2715 129.378 36.2241L127.063 39.4858C123.021 36.6166 117.358 36.9123 113.641 40.4443L110.886 37.5445ZM127.059 36.2267C132.003 32.7006 138.939 33.2426 143.257 37.7551L140.367 40.5204C137.445 37.4672 132.733 37.0928 129.382 39.4832L127.059 36.2267ZM143.257 37.755C147.986 42.6967 147.799 50.5494 142.84 55.2609L140.085 52.3611C143.438 49.1752 143.565 43.8623 140.367 40.5205L143.257 37.755ZM142.84 55.261C141.107 56.9077 138.947 57.9936 136.653 58.4393L135.89 54.5127C137.455 54.2087 138.919 53.4692 140.085 52.361L142.84 55.261ZM138.268 56.3616C138.534 61.0053 136.769 65.651 133.303 68.9453L130.547 66.046C133.143 63.5793 134.475 60.0858 134.275 56.5904L138.268 56.3616ZM133.303 68.9455C129.497 72.5619 124.255 74.0332 119.272 73.1212L119.992 69.1866C123.744 69.8732 127.687 68.7639 130.548 66.0458L133.303 68.9455ZM121.566 71.6615C121.046 73.6423 119.987 75.4812 118.453 76.9381L115.699 74.0374C116.679 73.1067 117.361 71.9265 117.697 70.6463L121.566 71.6615ZM118.454 76.9372C113.967 81.2031 106.842 81.0334 102.564 76.5622L105.454 73.7967C108.208 76.6757 112.809 76.7853 115.698 74.0383L118.454 76.9372ZM102.564 76.5622C99.0494 72.8901 98.5355 67.4515 100.934 63.2602L104.405 65.2467C102.862 67.9447 103.2 71.4417 105.453 73.7967L102.564 76.5622ZM101.21 65.6206C97.0126 61.139 97.2115 54.0942 101.671 49.854L104.427 52.7529C101.56 55.4787 101.434 60.0083 104.129 62.8864L101.21 65.6206ZM101.672 49.8537C103.496 48.1202 105.788 47.0866 108.18 46.823L108.618 50.7989C107.083 50.9681 105.608 51.6306 104.427 52.7532L101.672 49.8537ZM106.403 48.9327C106.147 44.7483 107.718 40.5559 110.886 37.5448L113.641 40.444C111.348 42.6241 110.21 45.6583 110.395 48.6891L106.403 48.9327Z" fill="#CCE9FE" mask="url(#path-47-outside-7_4951_23202)"/>
<path d="M106.763 85.0912C106.763 88.1583 104.268 90.6396 101.198 90.6396C98.1275 90.6396 95.6323 88.1582 95.6323 85.0912C95.6323 82.0226 98.1272 79.5409 101.198 79.5409C104.268 79.5409 106.763 82.0226 106.763 85.0912Z" fill="white" stroke="#CCE9FE" stroke-width="2"/>
<mask id="path-50-outside-8_4951_23202" maskUnits="userSpaceOnUse" x="124.468" y="74.4209" width="31" height="28" fill="black">
<rect fill="white" x="124.468" y="74.4209" width="31" height="28"/>
<path d="M149.17 81.9639C151.881 84.0067 152.671 87.6546 151.222 90.5876C153.221 92.591 153.489 95.8173 151.73 98.1346C149.803 100.672 146.164 101.174 143.619 99.2534C142.73 98.5844 142.067 97.6745 141.688 96.6531C139.468 97.1441 137.089 96.6606 135.232 95.2606C133.189 93.7211 132.069 91.3251 132.119 88.8644C131.183 88.7763 130.274 88.4352 129.504 87.8542C127.245 86.1497 126.797 82.9319 128.507 80.6802C129.908 78.8342 132.332 78.2026 134.404 78.9729C136.122 76.7596 139.325 76.3313 141.569 78.0246C142.49 78.718 143.124 79.6719 143.42 80.7261C145.386 80.2847 147.497 80.7017 149.17 81.9639Z"/>
</mask>
<path d="M149.17 81.9639C151.881 84.0067 152.671 87.6546 151.222 90.5876C153.221 92.591 153.489 95.8173 151.73 98.1346C149.803 100.672 146.164 101.174 143.619 99.2534C142.73 98.5844 142.067 97.6745 141.688 96.6531C139.468 97.1441 137.089 96.6606 135.232 95.2606C133.189 93.7211 132.069 91.3251 132.119 88.8644C131.183 88.7763 130.274 88.4352 129.504 87.8542C127.245 86.1497 126.797 82.9319 128.507 80.6802C129.908 78.8342 132.332 78.2026 134.404 78.9729C136.122 76.7596 139.325 76.3313 141.569 78.0246C142.49 78.718 143.124 79.6719 143.42 80.7261C145.386 80.2847 147.497 80.7017 149.17 81.9639Z" fill="white"/>
<path d="M151.222 90.5876L149.807 92.0003L148.795 90.9862L149.429 89.7017L151.222 90.5876ZM151.73 98.1346L153.323 99.3439L153.323 99.344L151.73 98.1346ZM143.619 99.2534L144.822 97.6557L144.824 97.657L143.619 99.2534ZM141.688 96.6531L141.256 94.7003L142.957 94.3241L143.563 95.9574L141.688 96.6531ZM135.232 95.2606L136.435 93.6636L136.435 93.6636L135.232 95.2606ZM132.119 88.8644L132.306 86.8732L134.156 87.0471L134.119 88.9049L132.119 88.8644ZM129.504 87.8542L130.709 86.2576L130.709 86.2576L129.504 87.8542ZM128.507 80.6802L130.101 81.8893L130.1 81.8899L128.507 80.6802ZM134.404 78.9729L135.984 80.1992L135.084 81.3591L133.707 80.8476L134.404 78.9729ZM141.569 78.0246L140.366 79.6221L140.365 79.6212L141.569 78.0246ZM143.42 80.7261L143.858 82.6775L142.006 83.0933L141.494 81.2655L143.42 80.7261ZM150.373 80.3666C153.867 82.9991 154.882 87.6954 153.015 91.4735L149.429 89.7017C150.461 87.6138 149.894 85.0143 147.966 83.5612L150.373 80.3666ZM152.638 89.1749C155.332 91.8744 155.696 96.2186 153.323 99.3439L150.137 96.9252C151.283 95.4159 151.111 93.3076 149.807 92.0003L152.638 89.1749ZM153.323 99.344C150.729 102.761 145.838 103.434 142.414 100.85L144.824 97.657C146.49 98.9148 148.878 98.5837 150.137 96.9251L153.323 99.344ZM142.416 100.851C141.214 99.9458 140.321 98.7193 139.813 97.3488L143.563 95.9574C143.812 96.6297 144.247 97.2229 144.822 97.6557L142.416 100.851ZM142.12 98.6059C139.343 99.2201 136.363 98.6184 134.028 96.8577L136.435 93.6636C137.814 94.7028 139.593 95.0681 141.256 94.7003L142.12 98.6059ZM134.028 96.8577C131.464 94.925 130.057 91.9155 130.12 88.8239L134.119 88.9049C134.082 90.7347 134.915 92.5171 136.435 93.6636L134.028 96.8577ZM131.932 90.8556C130.637 90.7338 129.374 90.2614 128.3 89.4508L130.709 86.2576C131.174 86.609 131.728 86.8188 132.306 86.8732L131.932 90.8556ZM128.3 89.4509C125.158 87.0811 124.533 82.6058 126.915 79.4704L130.1 81.8899C129.061 83.2581 129.331 85.2184 130.709 86.2576L128.3 89.4509ZM126.914 79.471C128.866 76.8995 132.229 76.031 135.101 77.0982L133.707 80.8476C132.434 80.3743 130.951 80.7689 130.101 81.8893L126.914 79.471ZM132.824 77.7466C135.213 74.6685 139.657 74.0764 142.774 76.4279L140.365 79.6212C138.993 78.5862 137.031 78.8506 135.984 80.1992L132.824 77.7466ZM142.773 76.4271C144.048 77.3879 144.934 78.7157 145.346 80.1867L141.494 81.2655C141.315 80.6281 140.931 80.0481 140.366 79.6221L142.773 76.4271ZM142.982 78.7747C145.506 78.2081 148.22 78.7421 150.374 80.3674L147.965 83.5604C146.774 82.6614 145.266 82.3614 143.858 82.6775L142.982 78.7747Z" fill="#CCE9FE" mask="url(#path-50-outside-8_4951_23202)"/>
<path d="M156.526 59.2255C158.503 55.2783 162.456 47.147 162.456 46.1996C162.456 45.2523 163.247 42.6471 163.642 41.463L168.386 37.3184" stroke="#192E35" stroke-width="2" stroke-linecap="round"/>
<path d="M171.944 64.5545L190.328 46.792" stroke="#192E35" stroke-width="2" stroke-linecap="round"/>
</svg>
