<svg width="276" height="207" viewBox="0 0 276 207" fill="none" xmlns="http://www.w3.org/2000/svg">
<path d="M262.954 207L115.081 206.949L40.7725 206.923L36.6355 206.92L21.7068 206.918C21.7068 206.918 0.381795 189.582 0.0123887 165.075C-0.715534 116.785 30.893 138.536 26.5988 80.3361C22.6804 27.229 125.059 -1.40823 180.65 39.165C200.861 53.9162 202.446 64.2624 231.489 60.9913C264.273 57.2992 268.009 97.1426 256.535 119.229C240.253 150.567 301.681 145.419 262.954 207Z" fill="#F7F0FF"/>
<mask id="mask0_4951_23150" style="mask-type:alpha" maskUnits="userSpaceOnUse" x="0" y="20" width="276" height="187">
<path d="M262.954 207L115.081 206.949L40.7725 206.923L36.6355 206.92L21.7068 206.918C21.7068 206.918 0.381795 189.582 0.0123887 165.075C-0.715534 116.785 30.893 138.536 26.5988 80.3361C22.6804 27.229 125.059 -1.40823 180.65 39.165C200.861 53.9162 202.446 64.2624 231.489 60.9913C264.273 57.2992 268.009 97.1426 256.535 119.229C240.253 150.567 301.681 145.419 262.954 207Z" fill="#CEF7F3"/>
</mask>
<g mask="url(#mask0_4951_23150)">
<path d="M69.0001 124.125C45.3384 119.566 7.96161 133.156 7.96161 133.156H-5.30762V207H279.185V174.062C279.185 174.062 234.394 151.689 203.285 148.562C172.536 145.471 154.7 165.672 124.731 158.125C100.013 151.899 94.0291 128.947 69.0001 124.125Z" fill="#F1E6FF"/>
</g>
<mask id="path-4-outside-1_4951_23150" maskUnits="userSpaceOnUse" x="48.0376" y="-1" width="146" height="208" fill="black">
<rect fill="white" x="48.0376" y="-1" width="146" height="208"/>
<path fill-rule="evenodd" clip-rule="evenodd" d="M162.541 44.2258L161.857 55.9503L161.929 55.9197L162.164 57.0621C162.329 56.8761 162.419 56.7818 162.419 56.7818L163.796 61.3762C163.796 61.3762 171.429 66.8485 176.014 70.5261C180.597 74.2044 185.149 77.7366 185.149 77.7366C187.271 79.3989 188.598 82.9687 189.372 85.9281C190.02 88.4062 190.303 90.9642 190.247 93.5243C190.018 104.033 188.907 139.735 184.266 148.13C183.493 149.527 181.772 150.915 179.386 152.268L188.117 203.626H166.148H135.659H119.644L119.637 203.692H101.297L107.124 157.748C107.118 157.748 107.117 157.685 107.121 157.561L107.128 157.399L106.243 156.338C103.479 156.184 101.297 156.055 101.148 156.019C97.5293 155.168 96.2541 152.716 96.2541 152.716C96.2541 152.716 94.8645 151.346 94.1567 150.286C93.449 149.225 94.1639 148.115 94.1639 148.115L93.4104 148.141C93.4104 148.141 92.7829 147.24 92.4215 145.758C80.9827 138.13 68.3667 127.192 68.3667 127.192L79.1058 116.631L76.1115 119.575L59.289 107.067C59.289 107.067 53.255 101.196 54.8851 98.9715C54.8851 98.9715 55.6171 97.9791 56.9106 98.8595L56.9258 98.8616C55.9395 98.0744 50.9425 93.9512 52.2561 92.2321C53.4355 90.6896 55.0816 92.2088 56.8752 93.8642C57.2955 94.2521 57.7239 94.6474 58.1562 95.0126C60.4336 96.9358 61.178 97.4764 61.178 97.4764L54.6363 91.174C54.6363 91.174 52.7899 89.5526 54.4274 88.2302C55.6253 87.2623 57.2422 88.7757 58.4735 89.9282C58.9252 90.351 59.325 90.7252 59.6331 90.9104C60.7814 91.6013 67.2206 97.7106 67.2206 97.7106C67.2206 97.7106 62.7554 92.0485 62.4391 91.7392C62.4048 91.7057 62.3267 91.6404 62.2167 91.5483C61.312 90.7913 58.2471 88.2266 59.5887 86.6751C60.7989 85.2756 63.5346 87.7406 65.2216 89.2607L65.2217 89.2607C65.6314 89.6299 65.9793 89.9434 66.2284 90.1322C66.813 90.5755 68.1372 92.0145 69.5028 93.4985L69.5029 93.4986L69.503 93.4987L69.5031 93.4988L69.5032 93.4989L69.5033 93.499L69.5034 93.4992C71.1154 95.2508 72.7849 97.0651 73.3642 97.3788C73.6143 97.5143 73.9116 97.7092 74.2354 97.9216L74.2363 97.9222L74.2364 97.9222C75.2977 98.6183 76.6447 99.5017 77.5565 99.0964C77.645 99.0571 77.7134 98.9962 77.7644 98.9165C77.8191 98.6935 77.8387 98.5173 77.8513 98.4031C77.8616 98.3098 77.8674 98.2578 77.884 98.2554L77.8842 98.2554C77.8534 97.6123 77.5735 96.697 77.2881 95.7639C76.91 94.5275 76.5224 93.2599 76.6923 92.5536L76.7194 92.4409C77.1059 90.8261 77.7927 87.9564 80.1411 88.7579C80.1411 88.7579 81.7835 95.3554 82.8721 97.1597C83.9601 98.9626 84.1087 100.478 84.1087 100.478L84.79 111.041L86.1128 109.74L94.2508 115.746L100.86 113.499C102.301 109.175 104.339 102.696 106.306 95.1949C108.955 85.0899 113.38 78.9273 115.873 76.0744C116.897 74.9016 118.188 73.9998 119.646 73.4441C122.356 72.4112 127.384 70.4942 131.079 69.0852C131.154 68.9819 131.249 68.8507 131.361 68.6971C132.508 67.1171 135.37 63.1755 135.659 63.0634L135.659 63.0633L135.659 63.0633L135.659 63.0633L135.659 63.0635L135.659 63.0636L135.681 61.8616L135.649 61.8582L135.641 59.2292L135.643 59.2293C135.625 59.2259 135.606 59.2219 135.583 59.2173C135.569 59.2144 135.554 59.2112 135.538 59.2078C134.423 59.0565 132.996 58.6137 131.162 57.5455C128.857 56.2031 127.362 54.4931 126.424 52.6974C126.142 52.1636 125.894 51.588 125.689 50.9676C124.99 48.883 124.914 46.8037 125.079 45.1523C125.232 39.5999 126.042 30.0678 126.874 21.3713C127.027 19.7707 127.368 18.2299 127.873 16.7694C127.752 16.8785 127.683 16.9694 127.658 17.0405C128.076 15.832 128.792 14.3032 129.824 12.7024C130.287 11.9672 130.796 11.2652 131.348 10.6C134.714 6.4494 140.221 2.53225 148.188 3.04543C160.608 3.84543 164.213 15.5457 164.213 21.0457L163.245 33.1238C163.748 32.8344 164.34 32.6943 164.962 32.7624C166.959 32.9808 169.168 34.1434 168.976 38.2566C168.73 43.5333 164.851 44.029 162.722 43.8198L162.711 44.0453L162.541 44.2258Z"/>
</mask>
<path fill-rule="evenodd" clip-rule="evenodd" d="M162.541 44.2258L161.857 55.9503L161.929 55.9197L162.164 57.0621C162.329 56.8761 162.419 56.7818 162.419 56.7818L163.796 61.3762C163.796 61.3762 171.429 66.8485 176.014 70.5261C180.597 74.2044 185.149 77.7366 185.149 77.7366C187.271 79.3989 188.598 82.9687 189.372 85.9281C190.02 88.4062 190.303 90.9642 190.247 93.5243C190.018 104.033 188.907 139.735 184.266 148.13C183.493 149.527 181.772 150.915 179.386 152.268L188.117 203.626H166.148H135.659H119.644L119.637 203.692H101.297L107.124 157.748C107.118 157.748 107.117 157.685 107.121 157.561L107.128 157.399L106.243 156.338C103.479 156.184 101.297 156.055 101.148 156.019C97.5293 155.168 96.2541 152.716 96.2541 152.716C96.2541 152.716 94.8645 151.346 94.1567 150.286C93.449 149.225 94.1639 148.115 94.1639 148.115L93.4104 148.141C93.4104 148.141 92.7829 147.24 92.4215 145.758C80.9827 138.13 68.3667 127.192 68.3667 127.192L79.1058 116.631L76.1115 119.575L59.289 107.067C59.289 107.067 53.255 101.196 54.8851 98.9715C54.8851 98.9715 55.6171 97.9791 56.9106 98.8595L56.9258 98.8616C55.9395 98.0744 50.9425 93.9512 52.2561 92.2321C53.4355 90.6896 55.0816 92.2088 56.8752 93.8642C57.2955 94.2521 57.7239 94.6474 58.1562 95.0126C60.4336 96.9358 61.178 97.4764 61.178 97.4764L54.6363 91.174C54.6363 91.174 52.7899 89.5526 54.4274 88.2302C55.6253 87.2623 57.2422 88.7757 58.4735 89.9282C58.9252 90.351 59.325 90.7252 59.6331 90.9104C60.7814 91.6013 67.2206 97.7106 67.2206 97.7106C67.2206 97.7106 62.7554 92.0485 62.4391 91.7392C62.4048 91.7057 62.3267 91.6404 62.2167 91.5483C61.312 90.7913 58.2471 88.2266 59.5887 86.6751C60.7989 85.2756 63.5346 87.7406 65.2216 89.2607L65.2217 89.2607C65.6314 89.6299 65.9793 89.9434 66.2284 90.1322C66.813 90.5755 68.1372 92.0145 69.5028 93.4985L69.5029 93.4986L69.503 93.4987L69.5031 93.4988L69.5032 93.4989L69.5033 93.499L69.5034 93.4992C71.1154 95.2508 72.7849 97.0651 73.3642 97.3788C73.6143 97.5143 73.9116 97.7092 74.2354 97.9216L74.2363 97.9222L74.2364 97.9222C75.2977 98.6183 76.6447 99.5017 77.5565 99.0964C77.645 99.0571 77.7134 98.9962 77.7644 98.9165C77.8191 98.6935 77.8387 98.5173 77.8513 98.4031C77.8616 98.3098 77.8674 98.2578 77.884 98.2554L77.8842 98.2554C77.8534 97.6123 77.5735 96.697 77.2881 95.7639C76.91 94.5275 76.5224 93.2599 76.6923 92.5536L76.7194 92.4409C77.1059 90.8261 77.7927 87.9564 80.1411 88.7579C80.1411 88.7579 81.7835 95.3554 82.8721 97.1597C83.9601 98.9626 84.1087 100.478 84.1087 100.478L84.79 111.041L86.1128 109.74L94.2508 115.746L100.86 113.499C102.301 109.175 104.339 102.696 106.306 95.1949C108.955 85.0899 113.38 78.9273 115.873 76.0744C116.897 74.9016 118.188 73.9998 119.646 73.4441C122.356 72.4112 127.384 70.4942 131.079 69.0852C131.154 68.9819 131.249 68.8507 131.361 68.6971C132.508 67.1171 135.37 63.1755 135.659 63.0634L135.659 63.0633L135.659 63.0633L135.659 63.0633L135.659 63.0635L135.659 63.0636L135.681 61.8616L135.649 61.8582L135.641 59.2292L135.643 59.2293C135.625 59.2259 135.606 59.2219 135.583 59.2173C135.569 59.2144 135.554 59.2112 135.538 59.2078C134.423 59.0565 132.996 58.6137 131.162 57.5455C128.857 56.2031 127.362 54.4931 126.424 52.6974C126.142 52.1636 125.894 51.588 125.689 50.9676C124.99 48.883 124.914 46.8037 125.079 45.1523C125.232 39.5999 126.042 30.0678 126.874 21.3713C127.027 19.7707 127.368 18.2299 127.873 16.7694C127.752 16.8785 127.683 16.9694 127.658 17.0405C128.076 15.832 128.792 14.3032 129.824 12.7024C130.287 11.9672 130.796 11.2652 131.348 10.6C134.714 6.4494 140.221 2.53225 148.188 3.04543C160.608 3.84543 164.213 15.5457 164.213 21.0457L163.245 33.1238C163.748 32.8344 164.34 32.6943 164.962 32.7624C166.959 32.9808 169.168 34.1434 168.976 38.2566C168.73 43.5333 164.851 44.029 162.722 43.8198L162.711 44.0453L162.541 44.2258Z" fill="#192E35"/>
<path d="M161.857 55.9503L158.862 55.7757L158.58 60.6163L163.038 58.7083L161.857 55.9503ZM162.541 44.2258L160.358 42.1671L159.609 42.9612L159.546 44.0512L162.541 44.2258ZM161.929 55.9197L164.867 55.3143L164.126 51.7161L160.748 53.1618L161.929 55.9197ZM162.164 57.0621L159.226 57.6675L160.434 63.5339L164.409 59.0526L162.164 57.0621ZM162.419 56.7818L165.293 55.9207L163.811 50.977L160.249 54.7107L162.419 56.7818ZM163.796 61.3762L160.922 62.2372L161.216 63.2179L162.048 63.8144L163.796 61.3762ZM176.014 70.5261L177.891 68.1864L177.891 68.1861L176.014 70.5261ZM185.149 77.7366L186.999 75.3748L186.988 75.3666L185.149 77.7366ZM189.372 85.9281L186.469 86.6872L186.469 86.6876L189.372 85.9281ZM190.247 93.5243L193.246 93.5896L193.246 93.5893L190.247 93.5243ZM184.266 148.13L186.891 149.581L186.891 149.581L184.266 148.13ZM179.386 152.268L177.906 149.659L176.076 150.697L176.429 152.771L179.386 152.268ZM188.117 203.626V206.626H191.67L191.075 203.123L188.117 203.626ZM119.644 203.626V200.626H116.963L116.663 203.29L119.644 203.626ZM119.637 203.692V206.692H122.318L122.618 204.028L119.637 203.692ZM101.297 203.692L98.3205 203.315L97.8921 206.692H101.297V203.692ZM107.124 157.748L110.1 158.126L110.529 154.748H107.124V157.748ZM107.121 157.561L104.124 157.421L104.123 157.449L104.122 157.476L107.121 157.561ZM107.128 157.399L110.125 157.539L110.179 156.373L109.432 155.477L107.128 157.399ZM106.243 156.338L108.546 154.416L107.711 153.415L106.409 153.342L106.243 156.338ZM101.148 156.019L101.838 153.1L101.835 153.099L101.148 156.019ZM96.2541 152.716L98.9158 151.332L98.6972 150.911L98.3598 150.579L96.2541 152.716ZM94.1567 150.286L96.6523 148.621L96.6519 148.62L94.1567 150.286ZM94.1639 148.115L96.6861 149.74L99.7913 144.918L94.0599 145.117L94.1639 148.115ZM93.4104 148.141L90.9483 149.856L91.8817 151.196L93.5144 151.14L93.4104 148.141ZM92.4215 145.758L95.3361 145.048L95.0589 143.911L94.086 143.263L92.4215 145.758ZM68.3667 127.192L66.2632 125.053L63.9471 127.331L66.4015 129.459L68.3667 127.192ZM79.1058 116.631L81.2093 118.77L77.0023 114.492L79.1058 116.631ZM76.1115 119.575L74.3214 121.983L76.3831 123.516L78.2149 121.714L76.1115 119.575ZM59.289 107.067L57.1969 109.217L57.3394 109.356L57.4989 109.474L59.289 107.067ZM54.8851 98.9715L52.4709 97.1906L52.4654 97.1981L54.8851 98.9715ZM56.9106 98.8595L55.2226 101.34L55.8052 101.736L56.5035 101.832L56.9106 98.8595ZM56.9258 98.8616L56.5187 101.834L67.3109 103.312L58.7972 96.5169L56.9258 98.8616ZM52.2561 92.2321L49.8729 90.41L49.8724 90.4106L52.2561 92.2321ZM56.8752 93.8642L58.9099 91.6596L58.9099 91.6596L56.8752 93.8642ZM58.1562 95.0126L56.2204 97.3045L56.2207 97.3047L58.1562 95.0126ZM61.178 97.4764L59.4151 99.9038L63.2595 95.316L61.178 97.4764ZM54.6363 91.174L56.7178 89.0135L56.6678 88.9654L56.6158 88.9197L54.6363 91.174ZM54.4274 88.2302L56.3122 90.5643L56.3129 90.5637L54.4274 88.2302ZM58.4735 89.9282L60.5235 87.7379H60.5235L58.4735 89.9282ZM59.6331 90.9104L61.1797 88.3398L61.1788 88.3393L59.6331 90.9104ZM67.2206 97.7106L65.1558 99.8869L69.5763 95.8529L67.2206 97.7106ZM62.4391 91.7392L64.5366 89.5943L64.5354 89.5931L62.4391 91.7392ZM62.2167 91.5483L64.142 89.2476L64.142 89.2476L62.2167 91.5483ZM59.5887 86.6751L61.8579 88.6374L61.8579 88.6374L59.5887 86.6751ZM65.2216 89.2607L63.2134 91.4894L63.2209 91.4962L63.2285 91.5029L65.2216 89.2607ZM65.2217 89.2607L67.2299 87.032L67.2223 87.0252L67.2147 87.0185L65.2217 89.2607ZM66.2284 90.1322L68.0412 87.7418L68.0403 87.7412L66.2284 90.1322ZM69.5028 93.4985L71.9028 91.6985L71.8124 91.578L71.7104 91.4671L69.5028 93.4985ZM69.5029 93.4986L67.1029 95.2986L67.1833 95.4058L67.273 95.5054L69.5029 93.4986ZM69.503 93.4987L71.8076 91.5781L71.7711 91.5342L71.7329 91.4918L69.503 93.4987ZM69.5031 93.4988L71.8314 91.607L71.8197 91.5926L71.8078 91.5782L69.5031 93.4988ZM69.5032 93.4989L67.1748 95.3907L67.2481 95.4809L67.3282 95.5651L69.5032 93.4989ZM69.5033 93.499L67.3283 95.5653L67.336 95.5734L67.3437 95.5814L69.5033 93.499ZM69.5034 93.4992L71.711 91.4677L71.6873 91.442L71.663 91.4168L69.5034 93.4992ZM73.3642 97.3788L71.9354 100.017L71.9354 100.017L73.3642 97.3788ZM74.2354 97.9216L75.8995 95.4255L75.8901 95.4192L75.8806 95.4129L74.2354 97.9216ZM74.2363 97.9222L76.0363 95.5222L75.9696 95.4722L75.9004 95.426L74.2363 97.9222ZM74.2364 97.9222L72.4364 100.322L72.512 100.379L72.5911 100.431L74.2364 97.9222ZM77.5565 99.0964L78.775 101.838L78.7764 101.837L77.5565 99.0964ZM77.7644 98.9165L80.2904 100.535L80.5593 100.115L80.678 99.6313L77.7644 98.9165ZM77.8513 98.4031L80.8331 98.7335L80.8331 98.7335L77.8513 98.4031ZM77.884 98.2554L77.4809 95.2826L77.464 95.2849L77.4471 95.2874L77.884 98.2554ZM77.8842 98.2554L78.2872 101.228L81.0122 100.859L80.8807 98.112L77.8842 98.2554ZM77.2881 95.7639L80.157 94.8866L80.157 94.8866L77.2881 95.7639ZM76.6923 92.5536L79.6091 93.2555L79.6097 93.2528L76.6923 92.5536ZM76.7194 92.4409L79.6368 93.14L79.637 93.1392L76.7194 92.4409ZM80.1411 88.7579L83.0522 88.0332L82.6573 86.4469L81.1102 85.9188L80.1411 88.7579ZM82.8721 97.1597L80.3034 98.7095L80.3035 98.7097L82.8721 97.1597ZM84.1087 100.478L87.1025 100.285L87.0993 100.235L87.0944 100.185L84.1087 100.478ZM84.79 111.041L81.7962 111.234L82.2182 117.778L86.8935 113.18L84.79 111.041ZM86.1128 109.74L87.8942 107.326L85.8344 105.806L84.0092 107.601L86.1128 109.74ZM94.2508 115.746L92.4694 118.16L93.7313 119.091L95.2162 118.586L94.2508 115.746ZM100.86 113.499L101.825 116.34L103.236 115.861L103.706 114.448L100.86 113.499ZM106.306 95.1949L109.208 95.9559L109.208 95.9557L106.306 95.1949ZM115.873 76.0744L118.132 78.0482L118.132 78.0475L115.873 76.0744ZM119.646 73.4441L118.578 70.6408L118.578 70.6408L119.646 73.4441ZM131.079 69.0852L132.148 71.8883L132.98 71.5709L133.504 70.8506L131.079 69.0852ZM131.361 68.6971L133.788 70.4597L133.788 70.4596L131.361 68.6971ZM135.659 63.0634L136.744 65.8603L138.155 65.3129L138.553 63.8527L135.659 63.0634ZM135.659 63.0633L137.202 60.4908L133.806 58.4533L132.764 62.2739L135.659 63.0633ZM135.659 63.0633L134.115 65.6358L135.376 66.3922L136.746 65.8594L135.659 63.0633ZM135.659 63.0633L138.623 63.5282L139.431 58.3776L134.572 60.2673L135.659 63.0633ZM135.659 63.0635L132.695 62.5986L132.388 64.5569L134.069 65.6075L135.659 63.0635ZM135.659 63.0636L134.069 65.6076L138.561 68.4149L138.659 63.119L135.659 63.0636ZM135.681 61.8616L138.681 61.917L138.732 59.1616L135.991 58.8775L135.681 61.8616ZM135.649 61.8582L132.649 61.8668L132.656 64.5641L135.339 64.8422L135.649 61.8582ZM135.641 59.2292L135.869 56.2378L132.632 55.9917L132.641 59.2378L135.641 59.2292ZM135.643 59.2293L135.415 62.2207L136.224 56.2862L135.643 59.2293ZM135.583 59.2173L134.976 62.1551L134.976 62.1552L135.583 59.2173ZM135.538 59.2078L136.162 56.2734L136.053 56.2501L135.942 56.235L135.538 59.2078ZM131.162 57.5455L132.671 54.9531L131.162 57.5455ZM126.424 52.6974L129.083 51.3078L129.077 51.2965L126.424 52.6974ZM125.689 50.9676L128.538 50.0271L128.534 50.0141L125.689 50.9676ZM125.079 45.1523L128.064 45.45L128.075 45.3428L128.077 45.2352L125.079 45.1523ZM126.874 21.3713L129.861 21.657L129.861 21.6569L126.874 21.3713ZM127.873 16.7694L130.708 17.7496L125.865 14.5399L127.873 16.7694ZM127.658 17.0405L124.822 16.0602L130.483 18.0495L127.658 17.0405ZM129.824 12.7024L132.345 14.3288L132.354 14.3146L132.363 14.3003L129.824 12.7024ZM131.348 10.6L133.657 12.5148L133.668 12.5022L133.678 12.4896L131.348 10.6ZM148.188 3.04543L148.381 0.0516379L148.188 3.04543ZM164.213 21.0457L167.204 21.2853L167.213 21.1657V21.0457H164.213ZM163.245 33.1238L160.255 32.8842L159.799 38.572L164.743 35.7231L163.245 33.1238ZM164.962 32.7624L164.636 35.7446L164.636 35.7446L164.962 32.7624ZM168.976 38.2566L171.973 38.3965V38.3964L168.976 38.2566ZM162.722 43.8198L163.015 40.8342L159.875 40.5257L159.725 43.6768L162.722 43.8198ZM162.711 44.0453L164.893 46.104L165.655 45.2967L165.707 44.1883L162.711 44.0453ZM164.852 56.1249L165.536 44.4004L159.546 44.0512L158.862 55.7757L164.852 56.1249ZM160.748 53.1618L160.677 53.1924L163.038 58.7083L163.109 58.6777L160.748 53.1618ZM165.102 56.4567L164.867 55.3143L158.99 56.5252L159.226 57.6675L165.102 56.4567ZM162.419 56.7818C160.249 54.7107 160.249 54.7107 160.248 54.7108C160.248 54.7108 160.248 54.7109 160.248 54.711C160.248 54.7111 160.248 54.7112 160.248 54.7113C160.248 54.7115 160.248 54.7117 160.247 54.7119C160.247 54.7124 160.247 54.7128 160.246 54.7133C160.245 54.7143 160.244 54.7153 160.243 54.7165C160.241 54.7188 160.238 54.7215 160.235 54.7246C160.23 54.7307 160.222 54.7384 160.214 54.7475C160.197 54.7657 160.174 54.79 160.146 54.8201C160.091 54.8803 160.015 54.9643 159.919 55.0716L164.409 59.0526C164.478 58.9739 164.53 58.9177 164.56 58.8843C164.576 58.8676 164.586 58.8566 164.591 58.8513C164.593 58.8487 164.594 58.8475 164.594 58.8478C164.594 58.8479 164.594 58.8484 164.593 58.8492C164.592 58.8497 164.592 58.8502 164.591 58.8508C164.591 58.8511 164.591 58.8514 164.59 58.8518C164.59 58.8519 164.59 58.8521 164.59 58.8523C164.59 58.8524 164.59 58.8525 164.59 58.8526C164.59 58.8526 164.59 58.8527 164.589 58.8527C164.589 58.8528 164.589 58.8529 162.419 56.7818ZM166.669 60.5151L165.293 55.9207L159.545 57.6428L160.922 62.2372L166.669 60.5151ZM177.891 68.1861C175.548 66.3064 172.452 63.9884 169.965 62.1566C168.716 61.2371 167.612 60.4334 166.82 59.8594C166.424 59.5724 166.106 59.3426 165.886 59.1843C165.776 59.1052 165.691 59.0439 165.633 59.0023C165.604 58.9814 165.582 58.9655 165.567 58.9547C165.559 58.9493 165.554 58.9452 165.55 58.9424C165.548 58.941 165.546 58.9399 165.545 58.9392C165.545 58.9388 165.544 58.9385 165.544 58.9383C165.544 58.9382 165.544 58.9381 165.544 58.9381C165.544 58.938 165.543 58.938 163.796 61.3762C162.048 63.8144 162.048 63.8144 162.048 63.8144C162.048 63.8144 162.048 63.8145 162.048 63.8145C162.048 63.8147 162.048 63.8149 162.049 63.8152C162.05 63.8158 162.051 63.8167 162.053 63.8179C162.056 63.8204 162.061 63.8242 162.068 63.8293C162.083 63.8394 162.104 63.8547 162.132 63.8748C162.188 63.9151 162.271 63.975 162.379 64.0527C162.595 64.208 162.908 64.4345 163.3 64.718C164.082 65.285 165.173 66.0793 166.406 66.9875C168.882 68.8113 171.895 71.0683 174.136 72.8662L177.891 68.1861ZM185.149 77.7366C186.988 75.3666 186.988 75.3666 186.988 75.3666C186.988 75.3665 186.988 75.3665 186.988 75.3665C186.988 75.3664 186.988 75.3662 186.987 75.366C186.987 75.3657 186.986 75.3651 186.985 75.3642C186.983 75.3626 186.98 75.3601 186.975 75.3568C186.967 75.3502 186.954 75.3402 186.937 75.327C186.903 75.3006 186.852 75.2612 186.786 75.2096C186.654 75.1066 186.459 74.955 186.211 74.7616C185.715 74.3746 185.005 73.82 184.152 73.1508C182.446 71.8118 180.172 70.0164 177.891 68.1864L174.136 72.8659C176.439 74.7142 178.732 76.5239 180.448 77.8706C181.306 78.5442 182.021 79.1026 182.521 79.4929C182.771 79.688 182.968 79.8411 183.102 79.9456C183.169 79.9979 183.221 80.038 183.256 80.0651C183.273 80.0786 183.287 80.0889 183.296 80.0959C183.3 80.0994 183.303 80.102 183.306 80.1038C183.307 80.1047 183.308 80.1054 183.308 80.1059C183.309 80.1061 183.309 80.1063 183.309 80.1064C183.309 80.1065 183.309 80.1065 183.309 80.1066C183.309 80.1066 183.309 80.1066 185.149 77.7366ZM192.274 85.169C191.86 83.5869 191.279 81.7625 190.479 80.0658C189.699 78.4138 188.592 76.623 186.999 75.3748L183.299 80.0984C183.828 80.5126 184.445 81.3378 185.053 82.6261C185.639 83.8697 186.109 85.3099 186.469 86.6872L192.274 85.169ZM193.246 93.5893C193.308 90.7659 192.996 87.9296 192.274 85.1685L186.469 86.6876C187.044 88.8828 187.298 91.1625 187.248 93.4592L193.246 93.5893ZM186.891 149.581C188.334 146.972 189.331 142.682 190.087 138.014C190.867 133.206 191.455 127.537 191.902 121.854C192.795 110.482 193.131 98.8641 193.246 93.5896L187.248 93.4589C187.134 98.6929 186.8 110.18 185.92 121.385C185.48 126.991 184.906 132.478 184.165 137.054C183.4 141.769 182.518 145.09 181.64 146.678L186.891 149.581ZM180.867 154.878C183.339 153.475 185.694 151.746 186.891 149.581L181.64 146.678C181.292 147.307 180.206 148.354 177.906 149.659L180.867 154.878ZM191.075 203.123L182.344 151.766L176.429 152.771L185.16 204.129L191.075 203.123ZM166.148 206.626H188.117V200.626H166.148V206.626ZM135.659 206.626H166.148V200.626H135.659V206.626ZM119.644 206.626H135.659V200.626H119.644V206.626ZM122.618 204.028L122.626 203.962L116.663 203.29L116.656 203.356L122.618 204.028ZM101.297 206.692H119.637V200.692H101.297V206.692ZM104.148 157.371L98.3205 203.315L104.273 204.07L110.1 158.126L104.148 157.371ZM104.122 157.476C104.12 157.545 104.117 157.649 104.119 157.752C104.12 157.788 104.122 157.915 104.139 158.069C104.145 158.121 104.169 158.344 104.251 158.616C104.286 158.732 104.394 159.074 104.651 159.447C104.878 159.777 105.666 160.748 107.124 160.748V154.748C108.581 154.748 109.369 155.719 109.595 156.047C109.851 156.42 109.958 156.76 109.993 156.874C110.074 157.142 110.097 157.36 110.102 157.403C110.117 157.541 110.118 157.645 110.118 157.65C110.119 157.69 110.118 157.7 110.119 157.646L104.122 157.476ZM104.131 157.259L104.124 157.421L110.117 157.701L110.125 157.539L104.131 157.259ZM103.939 158.26L104.825 159.321L109.432 155.477L108.546 154.416L103.939 158.26ZM100.459 158.939C100.659 158.986 100.838 159.005 100.849 159.007C100.911 159.014 100.973 159.02 101.025 159.025C101.131 159.034 101.26 159.044 101.401 159.054C101.686 159.075 102.072 159.1 102.53 159.129C103.449 159.185 104.693 159.256 106.076 159.333L106.409 153.342C105.029 153.266 103.799 153.195 102.899 153.14C102.448 153.112 102.088 153.089 101.836 153.07C101.708 153.061 101.621 153.054 101.568 153.049C101.541 153.047 101.537 153.046 101.55 153.048C101.556 153.048 101.578 153.051 101.611 153.056C101.629 153.059 101.72 153.072 101.838 153.1L100.459 158.939ZM96.2541 152.716C93.5925 154.1 93.5932 154.101 93.5939 154.103C93.5941 154.103 93.5948 154.104 93.5953 154.105C93.5963 154.107 93.5973 154.109 93.5983 154.111C93.6003 154.115 93.6024 154.119 93.6046 154.123C93.6091 154.131 93.6139 154.14 93.619 154.15C93.6294 154.169 93.6413 154.191 93.6548 154.215C93.6818 154.263 93.7151 154.32 93.7552 154.386C93.8352 154.517 93.9426 154.682 94.08 154.872C94.3543 155.25 94.7526 155.733 95.2975 156.242C96.3984 157.269 98.0775 158.379 100.461 158.94L101.835 153.099C100.6 152.809 99.832 152.267 99.3906 151.855C99.1645 151.644 99.0178 151.461 98.9398 151.353C98.9012 151.299 98.8806 151.266 98.8768 151.26C98.8749 151.257 98.8773 151.261 98.8839 151.272C98.8871 151.278 98.8914 151.286 98.8968 151.296C98.8994 151.301 98.9023 151.306 98.9055 151.312C98.9071 151.315 98.9087 151.318 98.9105 151.322C98.9113 151.323 98.9122 151.325 98.9131 151.327C98.9135 151.327 98.9142 151.329 98.9144 151.329C98.9151 151.33 98.9158 151.332 96.2541 152.716ZM91.6612 151.951C92.149 152.682 92.8032 153.429 93.2606 153.927C93.5034 154.192 93.7206 154.418 93.878 154.58C93.957 154.661 94.0218 154.726 94.0681 154.773C94.0913 154.796 94.1099 154.814 94.1235 154.828C94.1302 154.835 94.1358 154.84 94.1399 154.844C94.142 154.846 94.1438 154.848 94.1452 154.849C94.1459 154.85 94.1466 154.851 94.1471 154.851C94.1474 154.852 94.1476 154.852 94.1479 154.852C94.148 154.852 94.1481 154.852 94.1482 154.852C94.1483 154.853 94.1485 154.853 96.2541 152.716C98.3598 150.579 98.3599 150.579 98.36 150.579C98.3601 150.579 98.3602 150.579 98.3603 150.579C98.3604 150.58 98.3605 150.58 98.3606 150.58C98.3608 150.58 98.361 150.58 98.361 150.58C98.3611 150.58 98.3609 150.58 98.3603 150.579C98.3592 150.578 98.3568 150.576 98.3532 150.572C98.3461 150.565 98.3342 150.553 98.318 150.537C98.2855 150.505 98.2362 150.455 98.1739 150.391C98.0486 150.262 97.8742 150.08 97.6811 149.87C97.2667 149.419 96.8722 148.95 96.6523 148.621L91.6612 151.951ZM94.1639 148.115C91.6418 146.491 91.6411 146.492 91.6404 146.493C91.6401 146.493 91.6394 146.495 91.6389 146.495C91.638 146.497 91.637 146.498 91.636 146.5C91.634 146.503 91.632 146.506 91.6299 146.509C91.6258 146.516 91.6215 146.523 91.6169 146.53C91.6079 146.544 91.5981 146.56 91.5877 146.578C91.5668 146.612 91.5431 146.653 91.5174 146.699C91.4662 146.79 91.4055 146.906 91.3419 147.043C91.2173 147.311 91.0675 147.692 90.9651 148.158C90.7575 149.101 90.7235 150.546 91.6615 151.951L96.6519 148.62C96.8822 148.965 96.8518 149.325 96.8248 149.448C96.8126 149.503 96.7973 149.541 96.7847 149.568C96.777 149.584 96.7667 149.605 96.7518 149.631C96.7442 149.645 96.7352 149.66 96.7245 149.678C96.7191 149.687 96.7132 149.697 96.7069 149.707C96.7037 149.712 96.7003 149.717 96.6969 149.723C96.6952 149.725 96.6934 149.728 96.6916 149.731C96.6907 149.732 96.6898 149.734 96.6889 149.735C96.6884 149.736 96.6877 149.737 96.6875 149.737C96.6868 149.739 96.6861 149.74 94.1639 148.115ZM93.5144 151.14L94.2679 151.113L94.0599 145.117L93.3064 145.143L93.5144 151.14ZM89.5069 146.469C89.7484 147.459 90.0798 148.261 90.3598 148.83C90.5004 149.116 90.6302 149.347 90.733 149.519C90.7845 149.605 90.8294 149.676 90.8659 149.732C90.8841 149.761 90.9002 149.785 90.9141 149.805C90.921 149.816 90.9273 149.825 90.933 149.833C90.9359 149.838 90.9386 149.841 90.9411 149.845C90.9424 149.847 90.9436 149.849 90.9448 149.851C90.9454 149.851 90.946 149.852 90.9466 149.853C90.9469 149.854 90.9473 149.854 90.9475 149.854C90.9479 149.855 90.9483 149.856 93.4104 148.141C95.8724 146.427 95.8728 146.428 95.8732 146.428C95.8734 146.429 95.8738 146.429 95.8741 146.43C95.8746 146.43 95.8751 146.431 95.8756 146.432C95.8767 146.433 95.8777 146.435 95.8787 146.436C95.8806 146.439 95.8824 146.442 95.8841 146.444C95.8874 146.449 95.8902 146.453 95.8924 146.456C95.8968 146.463 95.8991 146.467 95.8995 146.467C95.9003 146.468 95.8934 146.458 95.8803 146.436C95.8542 146.392 95.8045 146.306 95.7431 146.181C95.619 145.929 95.456 145.539 95.3361 145.048L89.5069 146.469ZM68.3667 127.192C66.4015 129.459 66.4017 129.459 66.4019 129.459C66.402 129.459 66.4023 129.459 66.4025 129.46C66.4031 129.46 66.4038 129.461 66.4047 129.462C66.4066 129.463 66.4092 129.465 66.4125 129.468C66.4193 129.474 66.429 129.483 66.4418 129.494C66.4673 129.516 66.5047 129.548 66.5536 129.59C66.6514 129.674 66.7953 129.798 66.9818 129.957C67.3548 130.276 67.8986 130.739 68.5861 131.317C69.9609 132.472 71.9122 134.092 74.224 135.952C78.836 139.663 84.9293 144.368 90.757 148.254L94.086 143.263C88.4749 139.52 82.5408 134.942 77.9851 131.277C75.713 129.449 73.7955 127.857 72.4472 126.724C71.7733 126.157 71.242 125.706 70.8804 125.397C70.6996 125.242 70.5613 125.123 70.4687 125.043C70.4225 125.004 70.3876 124.974 70.3647 124.954C70.3532 124.944 70.3447 124.936 70.3392 124.932C70.3365 124.929 70.3345 124.928 70.3333 124.927C70.3327 124.926 70.3322 124.926 70.332 124.925C70.3319 124.925 70.3319 124.925 70.3318 124.925C70.3318 124.925 70.3319 124.925 68.3667 127.192ZM77.0023 114.492L66.2632 125.053L70.4702 129.331L81.2093 118.77L77.0023 114.492ZM78.2149 121.714L81.2093 118.77L77.0023 114.492L74.008 117.436L78.2149 121.714ZM57.4989 109.474L74.3214 121.983L77.9015 117.168L61.0791 104.659L57.4989 109.474ZM52.4654 97.1981C51.095 99.0679 51.6723 101.192 52.0903 102.264C52.5725 103.501 53.3617 104.698 54.0727 105.649C54.8083 106.633 55.5857 107.52 56.1674 108.15C56.4611 108.468 56.7118 108.728 56.8917 108.911C56.9818 109.003 57.0545 109.076 57.1064 109.128C57.1324 109.154 57.1532 109.174 57.1684 109.189C57.176 109.196 57.1822 109.203 57.187 109.207C57.1894 109.21 57.1914 109.212 57.193 109.213C57.1939 109.214 57.1946 109.215 57.1952 109.215C57.1956 109.216 57.196 109.216 57.1961 109.216C57.1965 109.217 57.1969 109.217 59.289 107.067C61.3811 104.917 61.3814 104.917 61.3817 104.917C61.3818 104.917 61.382 104.917 61.3822 104.918C61.3824 104.918 61.3826 104.918 61.3827 104.918C61.3829 104.918 61.3828 104.918 61.3822 104.918C61.3812 104.917 61.3788 104.914 61.375 104.911C61.3675 104.903 61.3546 104.891 61.3368 104.873C61.3011 104.837 61.2458 104.782 61.1741 104.709C61.0304 104.562 60.8224 104.347 60.5759 104.08C60.0771 103.539 59.4479 102.819 58.8788 102.057C58.2851 101.263 57.8714 100.575 57.6807 100.085C57.4259 99.4314 57.8602 99.9872 57.3048 100.745L52.4654 97.1981ZM58.5986 96.3795C57.179 95.4132 55.6266 95.2681 54.2974 95.8004C53.7246 96.0298 53.3011 96.343 53.0222 96.5919C52.8796 96.7191 52.7641 96.8391 52.6747 96.9399C52.6297 96.9907 52.5904 97.0376 52.5566 97.0795C52.5397 97.1005 52.5242 97.1203 52.5099 97.1388C52.5028 97.1481 52.4959 97.1571 52.4894 97.1657C52.4862 97.17 52.483 97.1743 52.4799 97.1784C52.4784 97.1805 52.4769 97.1825 52.4753 97.1846C52.4746 97.1856 52.4735 97.1871 52.4731 97.1876C52.472 97.1891 52.4709 97.1906 54.8851 98.9715C57.2993 100.752 57.2982 100.754 57.2971 100.755C57.2967 100.756 57.2956 100.757 57.2949 100.758C57.2934 100.76 57.292 100.762 57.2905 100.764C57.2876 100.768 57.2847 100.772 57.2818 100.776C57.276 100.784 57.2703 100.791 57.2646 100.799C57.2532 100.813 57.2418 100.828 57.2306 100.842C57.2083 100.869 57.1859 100.896 57.1634 100.921C57.1192 100.971 57.0709 101.021 57.0172 101.069C56.9159 101.159 56.7563 101.279 56.5282 101.37C56.2806 101.469 55.9847 101.52 55.6827 101.483C55.3877 101.447 55.2299 101.345 55.2226 101.34L58.5986 96.3795ZM57.3329 95.8893L57.3177 95.8872L56.5035 101.832L56.5187 101.834L57.3329 95.8893ZM49.8724 90.4106C48.4859 92.225 49.1446 94.231 49.5746 95.1519C50.0615 96.1943 50.8272 97.1564 51.4975 97.902C52.8766 99.436 54.5304 100.788 55.0544 101.206L58.7972 96.5169C58.3349 96.1479 56.997 95.0448 55.9595 93.8906C55.4214 93.2921 55.1226 92.8518 55.0111 92.6131C54.8428 92.2528 55.3695 93.0988 54.6398 94.0536L49.8724 90.4106ZM58.9099 91.6596C58.1349 90.9443 56.9299 89.7958 55.6834 89.1688C55.0069 88.8286 53.995 88.4667 52.8082 88.6324C51.5193 88.8124 50.5399 89.5376 49.8729 90.41L54.6394 94.0543C54.5621 94.1553 54.2307 94.492 53.6381 94.5747C53.1478 94.6432 52.8806 94.4753 52.9873 94.529C53.0833 94.5773 53.2927 94.7099 53.6518 95.0066C54.0015 95.2955 54.3781 95.6419 54.8405 96.0687L58.9099 91.6596ZM60.0921 92.7208C59.7187 92.4055 59.3391 92.0557 58.9099 91.6596L54.8405 96.0687C55.2519 96.4484 55.729 96.8894 56.2204 97.3045L60.0921 92.7208ZM61.178 97.4764C62.941 95.0491 62.9413 95.0493 62.9415 95.0495C62.9416 95.0496 62.9419 95.0498 62.9421 95.0499C62.9424 95.0501 62.9428 95.0504 62.9431 95.0506C62.9437 95.0511 62.9443 95.0515 62.9449 95.0519C62.946 95.0527 62.9469 95.0534 62.9476 95.0539C62.949 95.0549 62.9496 95.0553 62.9493 95.0552C62.9488 95.0548 62.945 95.052 62.9377 95.0465C62.9231 95.0356 62.8946 95.0142 62.8507 94.9805C62.7628 94.9132 62.6141 94.7977 62.392 94.6205C61.9474 94.2659 61.2139 93.6681 60.0918 92.7206L56.2207 97.3047C57.3759 98.2803 58.1533 98.9145 58.6503 99.3109C58.899 99.5093 59.0788 99.6492 59.2016 99.7433C59.263 99.7904 59.3105 99.8262 59.3455 99.8524C59.363 99.8654 59.3774 99.8761 59.3889 99.8846C59.3947 99.8889 59.3998 99.8926 59.4041 99.8958C59.4063 99.8974 59.4083 99.8988 59.4101 99.9002C59.411 99.9008 59.4119 99.9015 59.4127 99.9021C59.4132 99.9024 59.4136 99.9027 59.414 99.903C59.4141 99.9031 59.4144 99.9033 59.4145 99.9034C59.4148 99.9036 59.4151 99.9038 61.178 97.4764ZM52.5549 93.3344L59.0966 99.6369L63.2595 95.316L56.7178 89.0135L52.5549 93.3344ZM52.5427 85.8962C51.6556 86.6125 51.0089 87.5796 50.8113 88.7476C50.6244 89.8523 50.8972 90.7964 51.1823 91.4296C51.4671 92.0623 51.8357 92.548 52.0925 92.8487C52.228 93.0072 52.3512 93.1361 52.4473 93.2314C52.4957 93.2795 52.5384 93.3201 52.5736 93.3528C52.5912 93.3692 52.6071 93.3838 52.621 93.3963C52.628 93.4026 52.6345 93.4084 52.6404 93.4137C52.6434 93.4164 52.6463 93.4189 52.649 93.4213C52.6504 93.4225 52.6517 93.4237 52.653 93.4249C52.6537 93.4254 52.6546 93.4263 52.655 93.4266C52.6559 93.4274 52.6569 93.4282 54.6363 91.174C56.6158 88.9197 56.6167 88.9205 56.6176 88.9213C56.6179 88.9216 56.6188 88.9224 56.6194 88.9229C56.6206 88.9239 56.6218 88.925 56.6229 88.926C56.6252 88.928 56.6274 88.9299 56.6295 88.9318C56.6337 88.9356 56.6376 88.939 56.6411 88.9422C56.6481 88.9485 56.6538 88.9538 56.6584 88.958C56.6673 88.9663 56.6719 88.9708 56.6731 88.972C56.6745 88.9734 56.6663 88.9653 56.6543 88.9512C56.6161 88.9065 56.6253 88.9042 56.6533 88.9664C56.6815 89.0289 56.7997 89.3198 56.7272 89.7485C56.6439 90.2406 56.3805 90.5091 56.3122 90.5643L52.5427 85.8962ZM60.5235 87.7379C59.9788 87.2281 58.9971 86.2865 57.9178 85.6745C56.8458 85.0666 54.6051 84.2296 52.5419 85.8968L56.3129 90.5637C56.1786 90.6722 55.994 90.7794 55.7669 90.8484C55.5425 90.9166 55.3386 90.9288 55.1821 90.9178C54.9052 90.8984 54.8123 90.811 54.9581 90.8937C55.0868 90.9667 55.2836 91.1047 55.5594 91.3366C55.8319 91.5657 56.1064 91.8217 56.4234 92.1184L60.5235 87.7379ZM61.1788 88.3393C61.2312 88.3708 61.2467 88.3851 61.2171 88.3623C61.1904 88.3417 61.145 88.3049 61.076 88.2449C60.9305 88.1183 60.7602 87.9594 60.5235 87.7379L56.4234 92.1184C56.7605 92.434 57.4379 93.0911 58.0874 93.4816L61.1788 88.3393ZM67.2206 97.7106C69.2855 95.5343 69.2854 95.5342 69.2853 95.5341C69.2853 95.5341 69.2852 95.534 69.285 95.5339C69.2848 95.5336 69.2845 95.5333 69.284 95.5329C69.2832 95.5321 69.2819 95.5309 69.2802 95.5293C69.277 95.5262 69.2721 95.5216 69.2658 95.5156C69.2532 95.5037 69.2347 95.4861 69.2105 95.4633C69.1623 95.4176 69.0916 95.3507 69.0015 95.2657C68.8214 95.0955 68.5631 94.8521 68.2499 94.558C67.6238 93.9703 66.7754 93.1779 65.8891 92.3622C65.0056 91.549 64.072 90.7013 63.2793 90.0073C62.5915 89.4051 61.7479 88.6817 61.1797 88.3398L58.0865 93.4811C58.0251 93.4441 58.1013 93.4882 58.3931 93.7261C58.6406 93.9279 58.957 94.1977 59.327 94.5216C60.0646 95.1674 60.9561 95.9765 61.8259 96.777C62.693 97.575 63.5261 98.3531 64.1433 98.9325C64.4516 99.2219 64.7054 99.4612 64.8819 99.6278C64.9701 99.7111 65.0389 99.7763 65.0856 99.8204C65.1089 99.8425 65.1266 99.8593 65.1384 99.8705C65.1444 99.8761 65.1488 99.8803 65.1517 99.883C65.1532 99.8844 65.1542 99.8854 65.1549 99.8861C65.1553 99.8864 65.1555 99.8867 65.1557 99.8868C65.1557 99.8869 65.1558 99.8869 65.1558 99.8869C65.1558 99.8869 65.1558 99.8869 67.2206 97.7106ZM60.3417 93.8841C60.238 93.7827 60.2182 93.7479 60.4226 93.9953C60.5637 94.1661 60.7553 94.4019 60.9843 94.6858C61.4407 95.2518 62.0233 95.9821 62.6 96.7076C63.1758 97.432 63.7421 98.1473 64.1648 98.6818C64.376 98.949 64.5512 99.1708 64.6736 99.3257C64.7347 99.4032 64.7827 99.4639 64.8153 99.5052C64.8316 99.5259 64.8441 99.5417 64.8524 99.5523C64.8566 99.5576 64.8598 99.5617 64.8619 99.5643C64.8629 99.5657 64.8637 99.5667 64.8643 99.5673C64.8645 99.5677 64.8647 99.5679 64.8648 99.5681C64.8649 99.5681 64.8649 99.5682 64.865 99.5682C64.865 99.5683 64.865 99.5683 67.2206 97.7106C69.5763 95.8529 69.5762 95.8529 69.5762 95.8528C69.5762 95.8528 69.5761 95.8527 69.576 95.8526C69.5759 95.8524 69.5757 95.8522 69.5754 95.8518C69.5748 95.8511 69.574 95.85 69.5729 95.8487C69.5707 95.8459 69.5675 95.8418 69.5632 95.8364C69.5547 95.8255 69.542 95.8095 69.5256 95.7886C69.4926 95.7469 69.4443 95.6857 69.3827 95.6077C69.2596 95.4518 69.0835 95.2288 68.8712 94.9603C68.4467 94.4235 67.877 93.7039 67.297 92.9742C66.7178 92.2455 66.1248 91.5022 65.655 90.9196C65.4209 90.6292 65.2118 90.3719 65.0482 90.1738C64.9479 90.0524 64.7194 89.773 64.5366 89.5943L60.3417 93.8841ZM60.2915 93.8491C60.3196 93.8725 60.3428 93.892 60.3635 93.9094C60.3843 93.9268 60.399 93.9393 60.4097 93.9484C60.4212 93.9582 60.4221 93.9591 60.4165 93.9542C60.4134 93.9514 60.4058 93.9446 60.395 93.9347C60.3849 93.9254 60.3664 93.9083 60.3429 93.8853L64.5354 89.5931C64.3942 89.4553 64.1878 89.2859 64.142 89.2476L60.2915 93.8491ZM57.3195 84.7128C56.221 85.9831 56.1017 87.487 56.3888 88.6842C56.6438 89.7474 57.2161 90.6294 57.6781 91.233C58.6201 92.4638 59.8637 93.4911 60.2915 93.8491L64.142 89.2476C63.6651 88.8485 62.9238 88.2149 62.4426 87.5862C62.193 87.2601 62.1941 87.1627 62.2234 87.2851C62.245 87.375 62.2796 87.5867 62.2241 87.8719C62.1647 88.1774 62.0251 88.444 61.8579 88.6374L57.3195 84.7128ZM67.2298 87.032C66.4408 86.321 65.1153 85.1126 63.7765 84.3046C63.1197 83.9082 62.1879 83.4356 61.1234 83.2992C59.9008 83.1426 58.4171 83.4435 57.3195 84.7128L61.8579 88.6374C61.666 88.8594 61.3852 89.0608 61.0435 89.1728C60.7243 89.2774 60.4731 89.265 60.3609 89.2506C60.2025 89.2303 60.2869 89.2066 60.6762 89.4415C61.4296 89.8962 62.3155 90.6803 63.2134 91.4894L67.2298 87.032ZM67.2147 87.0185L67.2147 87.0184L63.2285 91.5029L63.2286 91.5029L67.2147 87.0185ZM68.0403 87.7412C67.9185 87.6488 67.6859 87.4429 67.2299 87.032L63.2135 91.4894C63.577 91.817 64.0401 92.238 64.4165 92.5232L68.0403 87.7412ZM71.7104 91.4671C71.0335 90.7315 70.3395 89.9771 69.7402 89.3509C69.1992 88.7856 68.5573 88.1332 68.0412 87.7418L64.4157 92.5226C64.4129 92.5204 64.5001 92.5906 64.7079 92.7919C64.8971 92.975 65.1308 93.2124 65.4053 93.4993C65.9557 94.0744 66.6065 94.7814 67.2953 95.5299L71.7104 91.4671ZM71.9029 91.6985L71.9028 91.6985L67.1028 95.2985L67.1029 95.2986L71.9029 91.6985ZM71.7329 91.4918L71.7328 91.4917L67.273 95.5054L67.2731 95.5056L71.7329 91.4918ZM71.8078 91.5782L71.8076 91.5781L67.1983 95.4192L67.1984 95.4194L71.8078 91.5782ZM71.8315 91.6071L71.8314 91.607L67.1748 95.3906L67.1748 95.3907L71.8315 91.6071ZM71.6783 91.4328L71.6782 91.4326L67.3282 95.5651L67.3283 95.5653L71.6783 91.4328ZM71.663 91.4168L71.6628 91.4166L67.3437 95.5814L67.3439 95.5816L71.663 91.4168ZM74.7929 94.7409C75.013 94.8601 75.0456 94.9277 74.772 94.6766C74.5702 94.4913 74.3023 94.227 73.9731 93.888C73.3158 93.2114 72.5254 92.3527 71.711 91.4677L67.2959 95.5306C68.0934 96.3973 68.9437 97.3216 69.669 98.0684C70.0311 98.4411 70.3899 98.7987 70.7145 99.0966C70.9672 99.3286 71.4257 99.7407 71.9354 100.017L74.7929 94.7409ZM75.8806 95.4129C75.5936 95.2247 75.1784 94.9497 74.7929 94.7409L71.9354 100.017C72.0502 100.079 72.2295 100.194 72.5903 100.43L75.8806 95.4129ZM75.9004 95.426L75.8995 95.4255L72.5713 100.418L72.5722 100.418L75.9004 95.426ZM76.0364 95.5222L76.0363 95.5222L72.4363 100.322L72.4364 100.322L76.0364 95.5222ZM76.338 96.355C76.75 96.1719 77.0871 96.193 77.2048 96.209C77.3091 96.2231 77.3052 96.2401 77.1627 96.1773C77.0305 96.119 76.8534 96.0254 76.6214 95.8859C76.3896 95.7463 76.1543 95.5925 75.8816 95.4136L72.5911 100.431C73.074 100.748 73.8893 101.291 74.7423 101.667C75.473 101.99 77.0874 102.588 78.775 101.838L76.338 96.355ZM75.2385 97.298C75.4879 96.9087 75.8631 96.5664 76.3365 96.3557L78.7764 101.837C79.4268 101.548 79.9389 101.084 80.2904 100.535L75.2385 97.298ZM74.8696 98.0727C74.8634 98.1281 74.8613 98.1445 74.8587 98.1614C74.8565 98.1757 74.8541 98.1883 74.8508 98.2017L80.678 99.6313C80.7815 99.2097 80.8176 98.8729 80.8331 98.7335L74.8696 98.0727ZM77.4471 95.2874C75.8248 95.5262 75.2246 96.8443 75.1433 97.0227C74.9878 97.364 74.9326 97.6594 74.9195 97.7274C74.8982 97.8382 74.8863 97.9312 74.8816 97.969C74.8762 98.0121 74.8715 98.0556 74.8696 98.0727L80.8331 98.7335C80.8446 98.6291 80.8348 98.7402 80.8111 98.8629C80.8028 98.906 80.7528 99.1821 80.6034 99.51C80.5259 99.6802 80.3583 100.008 80.0393 100.339C79.6923 100.7 79.1194 101.106 78.321 101.223L77.4471 95.2874ZM77.4811 95.2826L77.4809 95.2826L78.2871 101.228L78.2872 101.228L77.4811 95.2826ZM74.4193 96.6412C74.5667 97.1232 74.6867 97.5176 74.7761 97.8655C74.8194 98.034 74.8488 98.1662 74.8675 98.2677C74.8869 98.3732 74.8882 98.4116 74.8876 98.3988L80.8807 98.112C80.8276 97.002 80.3921 95.6554 80.157 94.8866L74.4193 96.6412ZM73.7756 91.8517C73.5166 92.9279 73.7252 94.0148 73.8545 94.6035C74.0085 95.3046 74.2395 96.0534 74.4193 96.6412L80.157 94.8866C79.9586 94.238 79.8068 93.7348 79.7149 93.3165C79.6707 93.1151 79.6555 92.9987 79.6516 92.9482C79.6463 92.8792 79.6676 93.0122 79.6091 93.2555L73.7756 91.8517ZM73.802 91.7417L73.7749 91.8545L79.6097 93.2528L79.6368 93.14L73.802 91.7417ZM81.1102 85.9188C79.9192 85.5123 78.6344 85.4908 77.4319 86.0356C76.3079 86.5449 75.5928 87.3979 75.1528 88.0996C74.3292 89.4131 73.9679 91.0487 73.8018 91.7426L79.637 93.1392C79.7364 92.7237 79.8275 92.3486 79.9429 91.9895C80.0612 91.6214 80.166 91.3989 80.2362 91.2869C80.3098 91.1696 80.2309 91.3546 79.9082 91.5007C79.7387 91.5776 79.559 91.616 79.3959 91.6192C79.2408 91.6223 79.1592 91.5928 79.172 91.5971L81.1102 85.9188ZM85.4408 95.6099C85.3425 95.4471 85.1209 94.956 84.8159 94.0895C84.5343 93.2897 84.2441 92.3538 83.9784 91.4424C83.7142 90.5362 83.4817 89.6807 83.315 89.0502C83.2319 88.7356 83.1655 88.4788 83.1202 88.3017C83.0976 88.2132 83.0802 88.1447 83.0687 88.099C83.063 88.0762 83.0587 88.059 83.0559 88.048C83.0545 88.0424 83.0535 88.0384 83.0529 88.0359C83.0526 88.0347 83.0524 88.0338 83.0522 88.0334C83.0522 88.0332 83.0522 88.033 83.0521 88.033C83.0521 88.033 83.0522 88.0331 83.0522 88.0331C83.0522 88.0331 83.0522 88.0332 80.1411 88.7579C77.2299 89.4827 77.2299 89.4828 77.23 89.483C77.23 89.4831 77.2301 89.4833 77.2301 89.4835C77.2302 89.4839 77.2303 89.4843 77.2305 89.4849C77.2308 89.4861 77.2311 89.4876 77.2316 89.4896C77.2326 89.4934 77.234 89.4989 77.2357 89.5059C77.2392 89.5199 77.2443 89.54 77.2508 89.566C77.2639 89.6178 77.2829 89.6928 77.3073 89.7882C77.3561 89.979 77.4265 90.2517 77.5143 90.5838C77.6896 91.2467 77.9358 92.1533 78.2183 93.122C78.4992 94.0855 78.8238 95.1373 79.1563 96.0819C79.4654 96.9599 79.8573 97.9701 80.3034 98.7095L85.4408 95.6099ZM84.1087 100.478C87.0944 100.185 87.0943 100.185 87.0942 100.184C87.0942 100.183 87.0941 100.182 87.0941 100.182C87.0939 100.181 87.0938 100.179 87.0937 100.178C87.0934 100.176 87.0932 100.173 87.0929 100.17C87.0923 100.165 87.0917 100.159 87.0911 100.153C87.0897 100.14 87.0882 100.127 87.0864 100.111C87.0827 100.08 87.0781 100.043 87.0722 100C87.0604 99.915 87.0437 99.8063 87.0202 99.6769C86.9732 99.4185 86.8989 99.0752 86.7823 98.6686C86.55 97.8578 86.1445 96.7761 85.4406 95.6096L80.3035 98.7097C80.6876 99.3462 80.9005 99.9238 81.0145 100.321C81.0711 100.519 81.1019 100.667 81.1168 100.75C81.1243 100.79 81.1276 100.814 81.1282 100.819C81.1286 100.821 81.1282 100.818 81.1272 100.81C81.1268 100.806 81.1262 100.801 81.1255 100.795C81.1251 100.791 81.1248 100.788 81.1243 100.784C81.1241 100.782 81.1239 100.78 81.1237 100.778C81.1236 100.777 81.1235 100.776 81.1234 100.774C81.1233 100.774 81.1233 100.773 81.1232 100.773C81.1231 100.772 81.1231 100.771 84.1087 100.478ZM87.7837 110.848L87.1025 100.285L81.115 100.671L81.7962 111.234L87.7837 110.848ZM84.0092 107.601L82.6864 108.902L86.8935 113.18L88.2163 111.879L84.0092 107.601ZM96.0322 113.332L87.8942 107.326L84.3314 112.154L92.4694 118.16L96.0322 113.332ZM99.8947 110.659L93.2854 112.905L95.2162 118.586L101.825 116.34L99.8947 110.659ZM103.404 94.4339C101.458 101.856 99.4397 108.271 98.0138 112.551L103.706 114.448C105.162 110.078 107.22 103.535 109.208 95.9559L103.404 94.4339ZM113.613 74.1007C110.867 77.2442 106.189 83.8109 103.404 94.4341L109.208 95.9557C111.721 86.3689 115.893 80.6105 118.132 78.0482L113.613 74.1007ZM118.578 70.6408C116.66 71.3719 114.959 72.5593 113.613 74.1013L118.132 78.0475C118.834 77.2439 119.717 76.6276 120.715 76.2473L118.578 70.6408ZM130.01 66.282C126.315 67.6911 121.288 69.608 118.578 70.6408L120.715 76.2474C123.425 75.2144 128.453 73.2973 132.148 71.8883L130.01 66.282ZM128.933 66.9345C128.821 67.0887 128.727 67.2182 128.653 67.3197L133.504 70.8506C133.581 70.7456 133.677 70.6127 133.788 70.4597L128.933 66.9345ZM134.574 60.2665C134.154 60.4293 133.868 60.6506 133.786 60.7137C133.662 60.8098 133.565 60.8995 133.505 60.9571C133.382 61.0741 133.274 61.1918 133.196 61.279C133.035 61.4608 132.855 61.6794 132.681 61.8986C132.324 62.3457 131.881 62.9282 131.429 63.5333C130.519 64.7498 129.505 66.1471 128.933 66.9346L133.788 70.4596C134.364 69.6671 135.354 68.3036 136.234 67.1263C136.676 66.5346 137.075 66.0118 137.372 65.639C137.524 65.4482 137.625 65.3281 137.68 65.2667C137.71 65.2323 137.695 65.2523 137.646 65.2984C137.623 65.3206 137.558 65.3816 137.462 65.4562C137.408 65.4977 137.145 65.7045 136.744 65.8603L134.574 60.2665ZM132.764 62.2739L132.764 62.274L138.553 63.8527L138.553 63.8526L132.764 62.2739ZM137.202 60.4909L137.202 60.4908L134.115 65.6358L134.115 65.6358L137.202 60.4909ZM134.572 60.2673L134.571 60.2673L136.746 65.8594L136.746 65.8593L134.572 60.2673ZM138.623 63.5284L138.623 63.5282L132.695 62.5984L132.695 62.5986L138.623 63.5284ZM137.249 60.5196L137.249 60.5195L134.069 65.6075L134.069 65.6076L137.249 60.5196ZM132.682 61.8062L132.66 63.0082L138.659 63.119L138.681 61.917L132.682 61.8062ZM135.339 64.8422L135.372 64.8456L135.991 58.8775L135.958 58.8741L135.339 64.8422ZM132.641 59.2378L132.649 61.8668L138.649 61.8496L138.641 59.2206L132.641 59.2378ZM135.87 56.2379L135.869 56.2378L135.414 62.2205L135.415 62.2207L135.87 56.2379ZM134.976 62.1552C135.007 62.1615 135.035 62.1673 135.061 62.1724L136.224 56.2862C136.216 56.2845 136.204 56.2822 136.19 56.2794L134.976 62.1552ZM134.914 62.1422C134.935 62.1467 134.956 62.151 134.976 62.1551L136.191 56.2795C136.183 56.2777 136.173 56.2757 136.162 56.2734L134.914 62.1422ZM129.652 60.1378C131.765 61.3684 133.565 61.9675 135.135 62.1805L135.942 56.235C135.282 56.1455 134.227 55.8591 132.671 54.9531L129.652 60.1378ZM123.765 54.0869C124.961 56.3743 126.849 58.5055 129.652 60.1378L132.671 54.9531C130.865 53.9008 129.764 52.6119 129.083 51.3078L123.765 54.0869ZM122.84 51.9081C123.098 52.6894 123.412 53.4188 123.771 54.0983L129.077 51.2965C128.872 50.9083 128.69 50.4866 128.538 50.0271L122.84 51.9081ZM122.093 44.8545C121.897 46.8197 121.98 49.342 122.845 51.921L128.534 50.0141C128.001 48.424 127.93 46.7877 128.064 45.45L122.093 44.8545ZM123.888 21.0856C123.057 29.7674 122.236 39.3992 122.08 45.0694L128.077 45.2352C128.228 39.8005 129.027 30.3681 129.861 21.657L123.888 21.0856ZM125.037 15.7891C124.456 17.4724 124.064 19.2463 123.888 21.0857L129.861 21.6569C129.991 20.2951 130.28 18.9874 130.708 17.7496L125.037 15.7891ZM130.483 18.0495C130.353 18.4134 130.18 18.656 130.091 18.7692C129.993 18.8942 129.912 18.9702 129.88 18.9988L125.865 14.5399C125.635 14.7474 125.113 15.2466 124.832 16.0316L130.483 18.0495ZM127.304 11.0759C126.149 12.8658 125.324 14.6103 124.822 16.0602L130.493 18.0209C130.827 17.0536 131.434 15.7406 132.345 14.3288L127.304 11.0759ZM129.038 8.68514C128.404 9.45028 127.818 10.2582 127.285 11.1045L132.363 14.3003C132.756 13.6763 133.189 13.08 133.657 12.5148L129.038 8.68514ZM148.381 0.0516379C139.184 -0.540818 132.811 4.03317 129.018 8.71038L133.678 12.4896C136.617 8.86562 141.259 5.60533 147.995 6.03923L148.381 0.0516379ZM167.213 21.0457C167.213 17.7787 166.176 12.8884 163.361 8.62886C160.466 4.24984 155.66 0.520487 148.381 0.0516379L147.995 6.03923C153.136 6.37038 156.342 8.89115 158.355 11.9372C160.448 15.1028 161.213 18.8126 161.213 21.0457H167.213ZM166.236 33.3634L167.204 21.2853L161.223 20.806L160.255 32.8842L166.236 33.3634ZM165.288 29.7802C164.005 29.6397 162.776 29.9319 161.748 30.5245L164.743 35.7231C164.733 35.7289 164.717 35.736 164.696 35.7407C164.673 35.7457 164.651 35.7463 164.636 35.7446L165.288 29.7802ZM171.973 38.3964C172.094 35.7891 171.466 33.5884 169.981 32.0003C168.539 30.4571 166.696 29.9342 165.288 29.7802L164.636 35.7446C165.225 35.809 165.485 35.9766 165.598 36.0976C165.669 36.1737 166.049 36.6109 165.979 38.1167L171.973 38.3964ZM162.428 46.8054C163.796 46.9398 166.044 46.8964 168.095 45.6702C170.363 44.3139 171.811 41.8669 171.973 38.3965L165.979 38.1166C165.935 39.0725 165.735 39.6276 165.565 39.9366C165.404 40.2303 165.217 40.4003 165.015 40.5207C164.533 40.8092 163.777 40.9091 163.015 40.8342L162.428 46.8054ZM165.707 44.1883L165.718 43.9628L159.725 43.6768L159.714 43.9023L165.707 44.1883ZM164.723 46.2844L164.893 46.104L160.529 41.9866L160.358 42.1671L164.723 46.2844Z" fill="#192E35" mask="url(#path-4-outside-1_4951_23150)"/>
<path d="M126.874 21.3713C127.862 11.0478 136.646 3.21273 147.058 3.3636L148.093 3.37862C159.24 4.18964 164.775 14.0687 163.653 25.1417L161.498 62.1136L161.375 63.9083L135.556 68.6748L135.73 59.2456C135.73 59.2456 125.029 57.4297 125.053 46.7506C125.064 41.5922 125.956 30.9725 126.874 21.3713Z" fill="#FFC596"/>
<path d="M138.56 41.0459C138.656 41.0459 138.751 41.0019 138.809 40.9203C138.902 40.7868 138.867 40.6062 138.73 40.5151C137.636 39.7958 136.951 38.8959 136.802 37.9788C136.674 37.1951 136.922 36.4115 137.537 35.6467L137.63 35.532C138.331 34.662 138.936 33.9113 139.117 32.7083C139.179 32.2922 139.19 31.8367 139.15 31.3153C139.138 31.1552 138.992 31.0342 138.828 31.0468C138.663 31.0594 138.539 31.1991 138.551 31.3593C138.588 31.8367 138.578 32.2513 138.522 32.6235C138.364 33.6757 137.831 34.3369 137.156 35.174L137.063 35.2886C136.351 36.1728 136.056 37.1339 136.208 38.0699C136.386 39.1614 137.141 40.1743 138.392 40.9956C138.443 41.0302 138.502 41.0459 138.56 41.0459Z" fill="#192E35"/>
<path d="M135.641 59.2293C135.641 59.2293 142.483 59.7386 149.751 55.338C149.751 55.338 146.334 62.9745 135.649 61.8583L135.641 59.2293Z" fill="#CC966B"/>
<path d="M131.089 31.258C131.048 32.0629 131.7 32.7612 132.543 32.8186C133.385 32.8752 134.101 32.2711 134.141 31.4662C134.182 30.6613 133.531 29.9629 132.689 29.9049C131.846 29.8476 131.129 30.4538 131.089 31.258Z" fill="#192E35"/>
<path d="M129.103 26.6296C129.289 26.831 130.461 25.9927 132.11 26.0214C133.756 26.0255 134.953 26.8877 135.135 26.689C135.224 26.6016 135.035 26.2391 134.514 25.85C134.002 25.4623 133.123 25.08 132.096 25.069C131.07 25.0602 130.201 25.424 129.699 25.8015C129.187 26.1818 129.01 26.5388 129.103 26.6296Z" fill="#192E35"/>
<path d="M146.413 31.6547C146.372 32.4596 147.024 33.1566 147.867 33.2139C148.708 33.272 149.425 32.6671 149.466 31.8622C149.506 31.0574 148.854 30.359 148.012 30.3016C147.17 30.2436 146.453 30.8498 146.413 31.6547Z" fill="#192E35"/>
<path d="M145.296 27.169C145.483 27.3711 146.657 26.5327 148.304 26.5614C149.95 26.5662 151.147 27.4277 151.329 27.2291C151.418 27.1417 151.232 26.7798 150.709 26.3907C150.196 26.0023 149.317 25.6207 148.291 25.6091C147.264 25.6002 146.395 25.964 145.893 26.3423C145.382 26.7218 145.204 27.0789 145.296 27.169Z" fill="#192E35"/>
<path d="M161.779 35.509C161.87 33.8624 163.315 32.5817 164.962 32.7619C166.959 32.9804 169.168 34.143 168.976 38.2561C168.635 45.5533 161.349 43.7073 161.346 43.4977C161.344 43.3551 161.609 38.562 161.779 35.509Z" fill="#FFC596"/>
<path d="M163.068 40.8266C163.102 40.8048 163.192 40.9216 163.404 41.0294C163.609 41.1352 163.968 41.2178 164.356 41.0936C165.144 40.8465 165.852 39.6531 165.95 38.339C165.999 37.6761 165.889 37.0371 165.677 36.5033C165.478 35.9585 165.149 35.57 164.762 35.4827C164.379 35.3755 164.093 35.5946 163.993 35.796C163.886 35.9953 163.925 36.1435 163.886 36.1544C163.864 36.1715 163.734 36.0247 163.807 35.7257C163.844 35.5823 163.938 35.4144 164.117 35.2819C164.3 35.1481 164.561 35.0874 164.832 35.129C165.394 35.1946 165.879 35.7352 166.112 36.3223C166.376 36.9129 166.515 37.6317 166.46 38.3765C166.344 39.845 165.524 41.1857 164.45 41.4411C163.929 41.5517 163.506 41.3769 163.292 41.1946C163.073 41.0035 163.042 40.8383 163.068 40.8266Z" fill="#192E35"/>
<path d="M146.476 41.5566C146.357 41.5552 146.324 40.7858 145.709 40.1407C145.118 39.4751 144.351 39.374 144.359 39.2559C144.36 39.2041 144.566 39.146 144.898 39.2075C145.228 39.2662 145.669 39.4758 146.021 39.8567C146.37 40.239 146.542 40.6944 146.572 41.0261C146.605 41.362 146.528 41.5607 146.476 41.5566Z" fill="#CED4DA"/>
<path d="M147.155 39.5486C147.052 39.6093 146.789 39.3514 146.403 39.1734C146.021 38.9838 145.655 38.9409 145.637 38.8229C145.609 38.7124 146.075 38.5494 146.585 38.7949C147.096 39.0384 147.259 39.5022 147.155 39.5486Z" fill="#CED4DA"/>
<path d="M80.1411 88.7577C80.1411 88.7577 81.7834 95.3551 82.8721 97.1594C83.9601 98.9624 84.1087 100.478 84.1087 100.478L84.79 111.041L76.1115 119.575L59.289 107.066C59.289 107.066 53.255 101.195 54.8851 98.9713C54.8851 98.9713 55.6858 97.8858 57.092 98.9924C57.092 98.9924 50.8007 94.1365 52.2561 92.2319C53.7119 90.3279 55.8786 93.0886 58.1562 95.0124C60.4336 96.9355 61.178 97.4762 61.178 97.4762L54.6363 91.1737C54.6363 91.1737 52.7899 89.5523 54.4274 88.23C56.0647 86.907 58.4851 90.22 59.6331 90.9102C60.7814 91.6011 67.2206 97.7104 67.2206 97.7104C67.2206 97.7104 62.7554 92.0482 62.4391 91.739C62.1225 91.4297 58.0839 88.415 59.5887 86.6749C61.0929 84.9354 64.9537 89.1659 66.2284 90.1319C67.5032 91.0986 72.2941 96.799 73.3642 97.3786C74.4342 97.9582 76.3662 99.6253 77.5565 99.0962C78.7466 98.5664 76.3102 94.1413 76.6923 92.5534C77.0742 90.9641 77.737 87.9371 80.1411 88.7577Z" fill="#FFC596"/>
<path d="M76.0221 109.166C76.0863 109.121 75.6394 108.61 75.4117 107.603C75.1653 106.604 75.2653 105.149 75.8761 103.68C76.4559 102.194 77.251 100.972 77.6843 99.9756C77.8983 99.4773 77.9904 99.0301 77.9861 98.7209C77.981 98.4102 77.9079 98.2498 77.8838 98.2553C77.8235 98.2641 77.906 98.9229 77.3964 99.8425C76.9163 100.756 76.0588 101.982 75.4586 103.517C74.8197 105.042 74.7568 106.642 75.1054 107.685C75.4353 108.746 75.9971 109.203 76.0221 109.166Z" fill="#192E35"/>
<path d="M64.3 105.728C64.3471 105.715 64.0884 105.116 63.2671 104.57C62.4918 103.994 61.1662 103.602 60.2418 102.608C59.7905 102.098 59.4809 101.492 59.1652 100.952C58.857 100.407 58.5204 99.9234 58.1704 99.5807C57.461 98.868 56.7794 98.8168 56.7864 98.8708C56.762 98.939 57.3501 99.0906 57.9376 99.7951C58.2338 100.142 58.5182 100.603 58.8037 101.152C59.0967 101.694 59.4014 102.331 59.9062 102.905C60.4196 103.48 61.0631 103.831 61.6236 104.108C62.191 104.385 62.6975 104.609 63.0984 104.837C63.9108 105.281 64.237 105.773 64.3 105.728Z" fill="#192E35"/>
<path d="M112.307 203.626H166.148V184.213L112.307 178.208V203.626Z" fill="#192E35"/>
<path d="M135.659 63.0635L139.548 65.5L161.929 55.92L162.944 60.8475L142.696 102.669L141.484 182.419L119.572 180.634L133.117 72.9235L135.659 63.0635Z" fill="#FFD483"/>
<path d="M156.606 65.1777C156.617 65.1996 156.337 65.3689 155.821 65.6556C155.244 65.9765 154.511 66.3833 153.637 66.868C151.792 67.89 149.252 69.3161 146.462 70.9204C145.223 71.6393 144.037 72.3268 142.947 72.9582L142.799 73.0449L142.717 72.8995C141.625 70.9402 140.984 69.1543 140.424 67.9405C140.153 67.3289 139.928 66.8489 139.769 66.5219C139.61 66.1949 139.525 66.0167 139.543 66.0072C139.559 65.9976 139.675 66.1574 139.866 66.47C140.056 66.7827 140.311 67.2517 140.61 67.8538C141.224 69.0472 141.914 70.8255 143.006 72.7309L142.777 72.6722C143.852 72.0264 145.038 71.3293 146.283 70.6125C149.076 69.0062 151.64 67.6128 153.518 66.6462C154.456 66.1615 155.224 65.786 155.758 65.5327C156.293 65.2829 156.595 65.1559 156.606 65.1777Z" fill="#192E35"/>
<path d="M131.079 69.0852C127.384 70.4942 122.356 72.4112 119.646 73.4441C118.188 73.9998 116.897 74.9016 115.873 76.0744C113.38 78.9273 108.955 85.0899 106.306 95.1949C102.716 108.883 98.8896 119.169 98.8896 119.169L86.1128 109.74L68.3667 127.192C68.3667 127.192 98.2416 153.093 107.729 152.979L101.297 203.692H119.637L134.799 69.0852L135.659 63.0633C135.344 63.1834 131.927 67.9191 131.079 69.0852Z" fill="#EBEAEA"/>
<path d="M114.162 86.0401C114.169 86.0408 114.167 86.1043 114.157 86.2272C114.143 86.3699 114.127 86.5494 114.106 86.7713C114.049 87.2744 113.972 87.9728 113.873 88.8582C113.662 90.6974 113.362 93.3107 112.993 96.5288C112.257 103.006 111.307 111.962 110.367 121.864C109.43 131.77 108.658 140.744 108.095 147.24C107.811 150.467 107.58 153.087 107.418 154.931C107.333 155.817 107.266 156.517 107.218 157.021C107.193 157.243 107.173 157.422 107.157 157.564C107.142 157.687 107.131 157.748 107.124 157.748C107.118 157.748 107.117 157.685 107.121 157.561C107.127 157.418 107.136 157.238 107.146 157.016C107.178 156.51 107.223 155.809 107.279 154.92C107.414 153.074 107.606 150.45 107.843 147.22C108.342 140.718 109.074 131.739 110.012 121.83C110.952 111.926 111.942 102.971 112.742 96.4995C113.141 93.2636 113.481 90.6468 113.736 88.8405C113.862 87.9585 113.962 87.2635 114.034 86.7617C114.069 86.5419 114.098 86.3637 114.121 86.2224C114.142 86.1009 114.156 86.0388 114.162 86.0401Z" fill="#192E35"/>
<path d="M168.937 136.933C168.859 137.018 167.435 135.522 165.186 134.431C162.947 133.315 160.889 133.1 160.909 132.988C160.913 132.945 161.432 132.943 162.254 133.087C163.075 133.23 164.196 133.55 165.344 134.112C166.49 134.678 167.426 135.369 168.04 135.931C168.655 136.493 168.968 136.904 168.937 136.933Z" fill="#192E35"/>
<path d="M185.149 77.7365C185.149 77.7365 180.597 74.2043 176.014 70.526C171.429 66.8484 163.795 61.3761 163.795 61.3761L162.419 56.7816C162.419 56.7816 158.378 61.0163 154.839 68.6746C149.754 79.678 143.881 95.7353 142.696 102.669L135.659 203.626H188.117L175.917 131.859L185.149 77.7365Z" fill="#EBEAEA"/>
<path d="M142.372 109.139C142.362 109.133 142.445 108.963 142.613 108.645C142.8 108.299 143.049 107.838 143.363 107.26C144.045 106.033 145.002 104.313 146.177 102.2C148.601 97.9176 151.918 92.0527 155.583 85.5741C155.751 85.2812 155.917 84.9897 156.081 84.7009L156.065 84.8381C155.67 83.5056 155.284 82.201 154.91 80.9373L154.875 80.8172L154.977 80.7455C155.945 80.0649 156.885 79.404 157.791 78.7671L157.728 78.8504C159.465 73.7774 160.96 69.4137 162.032 66.2788C162.566 64.7592 162.995 63.5386 163.303 62.6613C163.448 62.2654 163.565 61.9479 163.656 61.7015C163.739 61.4844 163.787 61.3731 163.796 61.3765C163.805 61.3793 163.776 61.4967 163.711 61.7192C163.633 61.9705 163.534 62.294 163.41 62.6975C163.125 63.5816 162.727 64.8124 162.232 66.3457C161.189 69.4902 159.737 73.8675 158.049 78.9582L158.032 79.0101L157.986 79.0429C157.083 79.6826 156.146 80.3468 155.18 81.0309L155.247 80.8383C155.623 82.102 156.01 83.4052 156.407 84.7371L156.429 84.8102L156.392 84.8757C156.226 85.1645 156.061 85.4567 155.894 85.7495C152.193 92.2084 148.844 98.0548 146.397 102.324C145.181 104.414 144.19 106.115 143.483 107.328C143.146 107.892 142.877 108.342 142.675 108.68C142.487 108.987 142.383 109.146 142.372 109.139Z" fill="#192E35"/>
<path d="M130.012 111.576C130 111.578 129.964 111.421 129.907 111.12C129.849 110.783 129.771 110.345 129.676 109.801C129.484 108.611 129.217 106.961 128.89 104.94C128.256 100.794 127.389 95.1359 126.432 88.8846C126.335 88.2354 126.239 87.593 126.144 86.9588L126.136 86.8994L126.164 86.8475C126.99 85.3579 127.788 83.9174 128.55 82.5439L128.646 82.7869C127.83 82.5193 127.038 82.2592 126.27 82.008L126.107 81.9547L126.168 81.7977C127.585 78.0662 128.791 74.8938 129.66 72.6109C130.086 71.522 130.429 70.6468 130.681 70.0031C130.795 69.7266 130.888 69.5006 130.964 69.3163C131.031 69.162 131.07 69.0828 131.078 69.0862C131.087 69.0889 131.065 69.1736 131.014 69.3347C130.951 69.5238 130.873 69.7559 130.779 70.0399C130.548 70.6898 130.234 71.5766 129.844 72.6785C129.006 74.9736 127.842 78.1611 126.473 81.9103L126.371 81.6994C127.14 81.9465 127.934 82.2012 128.752 82.464L128.948 82.5268L128.848 82.7077C128.091 84.0833 127.297 85.5272 126.476 87.0181L126.496 86.9069C126.591 87.5411 126.687 88.1828 126.785 88.8313C127.702 95.0888 128.532 100.753 129.14 104.903C129.42 106.931 129.648 108.587 129.814 109.781C129.881 110.329 129.936 110.769 129.979 111.109C130.012 111.414 130.025 111.574 130.012 111.576Z" fill="#192E35"/>
<path d="M134.751 69.5085C134.814 69.4812 135.306 70.4492 135.973 71.8931L135.686 71.8821C135.987 71.3025 136.375 70.6656 136.802 70.0055C137.533 68.8804 138.225 67.8871 138.714 67.1614C139.209 66.4405 139.498 65.9838 139.543 66.007C139.586 66.0282 139.372 66.534 138.928 67.2945C138.491 68.0591 137.829 69.0777 137.103 70.198C136.678 70.8547 136.282 71.478 135.967 72.0316L135.805 72.3184L135.681 72.02C135.068 70.5523 134.687 69.5364 134.751 69.5085Z" fill="#192E35"/>
<path d="M128.7 181.377C128.694 181.377 128.697 181.276 128.709 181.078C128.725 180.865 128.746 180.576 128.774 180.205C128.84 179.42 128.935 178.293 129.056 176.85C129.319 173.921 129.697 169.713 130.162 164.52C131.131 154.096 132.468 139.725 133.944 123.851C135.461 107.976 136.834 93.6069 137.83 83.1865C138.343 77.9975 138.759 73.7935 139.048 70.8669C139.198 69.4271 139.316 68.302 139.398 67.519C139.44 67.1497 139.473 66.8616 139.497 66.6493C139.522 66.4534 139.538 66.3537 139.543 66.3544C139.549 66.3544 139.546 66.4554 139.534 66.6527C139.518 66.8657 139.497 67.1545 139.469 67.5252C139.403 68.3102 139.308 69.4367 139.187 70.8792C138.924 73.8079 138.546 78.0166 138.082 83.2097C137.112 93.6335 135.775 108.006 134.299 123.885C132.782 139.755 131.409 154.124 130.414 164.545C129.9 169.732 129.484 173.937 129.195 176.864C129.045 178.304 128.927 179.428 128.845 180.212C128.803 180.581 128.77 180.87 128.746 181.082C128.721 181.277 128.706 181.377 128.7 181.377Z" fill="#192E35"/>
<path d="M143.996 106.447C144.641 105.339 145.451 103.949 146.396 102.324C148.843 98.0544 152.193 92.208 155.894 85.7491C156.06 85.4563 156.226 85.1641 156.391 84.8753L156.428 84.8098L156.406 84.7367C156.023 83.4471 155.647 82.1835 155.282 80.9574C156.212 80.2993 157.114 79.6596 157.986 79.0425L158.032 79.0097L158.049 78.9578C159.737 73.8671 161.189 69.4898 162.232 66.3453C162.486 65.5568 162.715 64.8489 162.916 64.227L158.32 80.7321L156.236 81.522L157.663 86.0031L143.996 106.447Z" fill="#ADB5BD"/>
<path d="M143.38 107.369L156.236 84.7882L155.078 80.888L157.889 78.9042L163.301 62.8455L162.916 64.2272C162.715 64.8492 162.486 65.5571 162.232 66.3456C161.189 69.49 159.737 73.8674 158.049 78.9581L158.032 79.01L157.986 79.0427C157.115 79.6599 156.212 80.2996 155.282 80.9577C155.647 82.1837 156.023 83.4474 156.407 84.737L156.429 84.81L156.392 84.8756C156.226 85.1643 156.06 85.4565 155.894 85.7494C152.193 92.2082 148.844 98.0547 146.397 102.324C145.451 103.949 144.642 105.339 143.996 106.448L143.38 107.369Z" fill="#192E35"/>
<path d="M141.44 76.4004L140.165 67.3651C140.245 67.5413 140.332 67.7338 140.424 67.9413C140.984 69.1551 141.625 70.941 142.717 72.9003L142.799 73.0457L142.948 72.959C144.038 72.3275 145.223 71.6401 146.463 70.9212C149.252 69.3169 151.792 67.8908 153.637 66.8688C153.817 66.7692 153.992 66.6722 154.16 66.5787L141.44 76.4004Z" fill="#B58B3B"/>
<path d="M142.799 73.0449L142.717 72.8995C141.625 70.9402 140.984 69.1543 140.424 67.9405C140.332 67.733 140.245 67.5405 140.165 67.3644L140.126 67.0913L142.862 72.8155L154.163 66.5765L154.16 66.5779C153.992 66.6714 153.817 66.7684 153.637 66.868C151.792 67.89 149.252 69.3161 146.462 70.9204C145.223 71.6393 144.038 72.3268 142.948 72.9582L142.799 73.0449Z" fill="#192E35"/>
<path d="M110.944 164.677C108.69 164.676 106.587 161.985 106.587 161.985L107.124 157.748C107.124 157.748 117.67 155.426 118.016 155.339C118.022 155.338 118.03 155.337 118.039 155.337C118.568 155.337 124.469 157.748 124.469 157.748L124.632 159.343V159.343C124.599 159.357 114.156 163.892 111.657 164.581C111.419 164.647 111.181 164.677 110.944 164.677Z" fill="#ADB5BD"/>
<path d="M127.602 171.075L127.288 167.179L129.976 166.587C129.841 168.102 129.714 169.519 129.596 170.831C128.343 170.991 127.602 171.075 127.602 171.075ZM129.794 170.806C129.925 169.486 130.065 168.059 130.216 166.534L138.37 164.739L138.03 169.618C134.694 170.154 131.707 170.56 129.794 170.806Z" fill="#B58B3B"/>
<path d="M138.03 169.618L138.37 164.739L153.017 161.513C161.128 159.399 168.713 157.093 175.19 154.382C170.668 159.935 154.727 165.819 154.727 165.819C150.625 167.371 143.805 168.69 138.03 169.618Z" fill="#ADB5BD"/>
<path d="M129.596 170.831C129.713 169.52 129.84 168.102 129.976 166.588L130.215 166.534C130.065 168.059 129.924 169.486 129.794 170.806C129.726 170.815 129.661 170.823 129.596 170.831Z" fill="#192E35"/>
<path d="M142.188 140.207L118.427 108.936C117.919 108.268 117.04 108 116.244 108.27L79.8843 120.628C78.5924 121.067 78.143 122.658 79.015 123.703L108.598 159.16C109.124 159.79 109.99 160.024 110.763 159.743L144.768 147.404C146.031 146.945 146.459 145.383 145.607 144.35L142.188 140.207Z" fill="#33535F"/>
<path d="M93.9538 119.587C93.9733 120.143 94.4414 120.577 94.999 120.558C95.5565 120.538 95.993 120.072 95.9732 119.517C95.9539 118.962 95.4858 118.527 94.9283 118.547C94.3704 118.566 93.9342 119.032 93.9538 119.587Z" fill="#192E35"/>
<path d="M101.297 117.108C101.316 117.664 101.784 118.098 102.342 118.078C102.899 118.059 103.336 117.593 103.316 117.038C103.297 116.482 102.828 116.048 102.271 116.068C101.713 116.087 101.277 116.553 101.297 117.108Z" fill="#192E35"/>
<path d="M122.377 145.704L120.466 145.276C120.466 145.276 119.685 142.131 118.824 141.494C117.963 140.855 109.444 137.344 107.567 136.409C105.69 135.473 98.3732 132.457 97.5299 134.225C96.5755 136.227 99.5644 137.739 101.181 138.435C102.798 139.129 107.398 140.724 106.515 141.84C105.632 142.957 95.0662 142.891 95.0662 142.891L93.8525 141.488C93.8525 141.488 91.9844 143.351 92.3001 145.175C92.6161 147 93.4104 148.141 93.4104 148.141L94.1639 148.115C94.1639 148.115 93.449 149.225 94.1567 150.285C94.8645 151.346 96.2541 152.715 96.2541 152.715C96.2541 152.715 97.5293 155.168 101.148 156.019C101.57 156.119 118.373 156.982 118.373 156.982L124.469 158.343L122.377 145.704Z" fill="#FFC596"/>
<path d="M166.531 86.1504C166.337 86.5586 161.346 132.727 161.346 132.727L122.218 144.543L125.951 167.429C125.951 167.429 178.806 158.005 184.266 148.129C188.907 139.735 190.018 104.032 190.247 93.524C190.303 90.964 190.02 88.406 189.372 85.9278C188.598 82.9684 187.271 79.3987 185.149 77.7364C181.184 74.6336 166.531 86.1504 166.531 86.1504Z" fill="#EBEAEA"/>
<path d="M165.432 95.7886C165.432 95.7886 165.421 96.0201 165.38 96.4665C165.334 96.926 165.269 97.5854 165.185 98.4395C165.002 100.18 164.736 102.711 164.398 105.931C163.698 112.402 162.699 121.634 161.496 132.743L161.486 132.842L161.39 132.871C150.109 136.286 136.67 140.354 122.271 144.713L122.395 144.514C122.419 144.662 122.445 144.823 122.472 144.984C123.75 152.835 124.983 160.414 126.12 167.402L125.921 167.262C141.835 164.249 155.431 160.966 164.891 158.013C166.081 157.668 167.185 157.263 168.24 156.924C168.765 156.748 169.276 156.579 169.77 156.414C170.257 156.232 170.728 156.056 171.183 155.885C172.09 155.54 172.94 155.239 173.706 154.93C174.463 154.6 175.153 154.3 175.774 154.03C176.396 153.767 176.944 153.527 177.393 153.269C177.848 153.03 178.233 152.828 178.548 152.661C178.853 152.504 179.088 152.383 179.259 152.295C179.419 152.213 179.505 152.178 179.505 152.178C179.505 152.178 179.429 152.23 179.274 152.32C179.106 152.415 178.876 152.545 178.577 152.713C178.265 152.886 177.883 153.097 177.433 153.347C176.987 153.614 176.442 153.862 175.822 154.135C175.203 154.412 174.515 154.721 173.76 155.06C172.995 155.378 172.147 155.688 171.242 156.042C170.787 156.215 170.317 156.396 169.83 156.583C169.337 156.751 168.827 156.925 168.302 157.103C167.248 157.451 166.145 157.864 164.955 158.216C155.5 161.231 141.909 164.559 125.982 167.596L125.811 167.629L125.783 167.456C124.641 160.469 123.402 152.892 122.119 145.041C122.093 144.88 122.066 144.72 122.042 144.571L122.017 144.417L122.167 144.373C136.572 140.032 150.017 135.983 161.302 132.582L161.195 132.711C162.449 121.608 163.492 112.379 164.223 105.912C164.597 102.696 164.891 100.168 165.092 98.4292C165.196 97.5772 165.277 96.9198 165.333 96.4611C165.39 96.0166 165.432 95.7886 165.432 95.7886Z" fill="#192E35"/>
<path d="M176.943 78.1003C178.03 77.7626 179.025 77.5414 179.862 77.4388L179.867 77.4382L179.867 77.4382C180.719 77.3258 181.415 77.2916 181.9 77.2766C182.005 77.2734 182.107 77.2709 182.199 77.2687C182.309 77.266 182.404 77.2637 182.476 77.2607C182.542 77.2581 182.615 77.254 182.678 77.2449C182.704 77.241 182.763 77.2317 182.826 77.2067C182.857 77.1946 182.921 77.1667 182.986 77.1093C183.055 77.0473 183.148 76.9284 183.156 76.7545M176.943 78.1003L182.657 76.7295M176.943 78.1003C175.869 78.4605 174.721 78.9453 173.59 79.5887C172.467 80.2472 171.475 80.998 170.628 81.7479C169.794 82.5198 169.106 83.2693 168.601 83.9421L168.601 83.9421L168.598 83.9455C168.077 84.6264 167.702 85.2103 167.448 85.6219C167.394 85.7105 167.342 85.7959 167.295 85.8733C167.237 85.9682 167.187 86.051 167.148 86.1122C167.113 86.1676 167.073 86.2295 167.033 86.2792C167.017 86.3004 166.979 86.3472 166.924 86.39C166.898 86.4108 166.841 86.4525 166.758 86.4792C166.668 86.5081 166.521 86.5261 166.369 86.4477C166.146 86.3334 166.107 86.1196 166.1 86.0668C166.09 85.9948 166.097 85.9366 166.101 85.9142C166.108 85.8625 166.123 85.8176 166.13 85.7944C166.148 85.7404 166.174 85.6774 166.201 85.6141C166.257 85.4838 166.342 85.3021 166.451 85.0783C166.562 84.839 166.711 84.5483 166.917 84.2299C166.955 84.1693 166.995 84.1023 167.039 84.0306C167.188 83.785 167.37 83.484 167.597 83.1941C168.129 82.4306 168.853 81.604 169.724 80.7742L169.724 80.7741L169.732 80.7671C170.628 79.9485 171.692 79.1287 172.908 78.4158L172.908 78.4158L172.914 78.4126C174.138 77.7165 175.381 77.2035 176.539 76.836L176.539 76.8358L176.549 76.8329C177.705 76.4923 178.784 76.2766 179.715 76.1957M176.943 78.1003L179.736 76.4467L179.7 76.1978C179.705 76.1971 179.71 76.1964 179.715 76.1957M183.156 76.7545C183.156 76.7524 183.156 76.7504 183.156 76.7483L182.657 76.7295M183.156 76.7545C183.156 76.7554 183.156 76.7564 183.156 76.7574L182.657 76.7295M183.156 76.7545C183.169 76.5029 183.002 76.3622 182.96 76.3295C182.903 76.2851 182.848 76.2628 182.827 76.2546C182.778 76.2355 182.732 76.2253 182.708 76.2204C182.653 76.2088 182.585 76.1996 182.516 76.1917C182.375 76.1754 182.174 76.1586 181.924 76.1415M182.657 76.7295C182.658 76.7099 182.485 76.6864 182.161 76.6604C182.182 76.5151 182.261 76.4154 182.321 76.3625C182.381 76.3091 182.438 76.2848 182.46 76.2761C182.487 76.2655 182.508 76.2605 182.517 76.2586C182.526 76.2564 182.532 76.2556 182.532 76.2555L182.533 76.2555C182.533 76.2554 182.525 76.2564 182.506 76.2578C182.488 76.2591 182.465 76.2604 182.435 76.2616C182.367 76.2644 182.287 76.2663 182.188 76.2686C182.111 76.2705 182.021 76.2726 181.917 76.2757L181.928 76.1419C181.927 76.1418 181.926 76.1416 181.924 76.1415M181.924 76.1415C181.923 76.1414 181.922 76.1413 181.92 76.1412L181.911 76.2758C181.897 76.2762 181.883 76.2767 181.869 76.2771C181.62 76.2848 181.317 76.2974 180.965 76.3223L180.958 76.1233C180.957 76.1234 180.955 76.1235 180.954 76.1235M181.924 76.1415C181.661 76.1193 181.335 76.1032 180.954 76.1235M180.954 76.1235C180.953 76.1236 180.951 76.1237 180.95 76.1237L180.96 76.3227C180.604 76.3481 180.198 76.3862 179.751 76.4449L179.729 76.1945C179.724 76.1949 179.72 76.1953 179.715 76.1957M180.954 76.1235C180.884 76.126 180.808 76.1277 180.727 76.1295C180.438 76.1358 180.083 76.1436 179.715 76.1957" fill="#192E35" stroke="#192E35"/>
<path d="M145.292 108.72H162.429V96.2701H145.292V108.72Z" fill="white"/>
<path d="M156.197 103.272C156.197 104.132 157.068 104.829 158.144 104.829C159.219 104.829 160.092 104.132 160.092 103.272C160.092 102.413 159.219 101.717 158.144 101.717C157.068 101.717 156.197 102.413 156.197 103.272Z" fill="#192E35"/>
<path d="M148.097 103.272H154.17C154.428 103.272 154.639 103.137 154.639 102.971V102.796C154.639 102.63 154.428 102.495 154.17 102.495H148.097C147.838 102.495 147.628 102.63 147.628 102.796V102.971C147.628 103.137 147.838 103.272 148.097 103.272Z" fill="#192E35"/>
<path d="M154.855 98.6045L156.197 94.714H151.523L152.659 98.6045H154.855Z" fill="#192E35"/>
<path d="M138.674 42.0453L149.19 46.0455L158.705 37.5455V25.5455L155.7 23.0455L158.705 18.0455C155.199 15.5455 146.185 11.0455 138.173 13.0455C130.186 15.0391 127.838 16.5358 127.658 17.0405C127.657 17.0421 127.657 17.0438 127.656 17.0454C127.657 17.0438 127.657 17.0422 127.658 17.0405C129.33 12.2054 135.773 2.2457 148.188 3.04543C160.608 3.84543 164.214 15.5457 164.214 21.0457L163.212 33.5453L162.711 44.0453C160.04 46.8786 154.079 53.1113 149.691 55.5453C145.184 58.0453 140.677 59.0453 138.674 59.0453V42.0453Z" fill="white"/>
<path d="M127.656 46.0461L138.673 42.0459V59.0459C137.672 59.0459 135.615 60.1397 131.162 57.5459C125.152 54.0459 124.651 48.0459 125.152 44.5459L127.656 46.0461Z" fill="white"/>
<path d="M139.647 45.4559C138.872 45.7281 138.017 45.8179 137.047 45.7301C136.148 45.6492 135.041 45.4954 134.458 45.0221C134.327 44.9155 134.307 44.7223 134.414 44.5914C134.521 44.4589 134.714 44.4384 134.846 44.5466C135.358 44.9606 136.626 45.0754 137.103 45.1185C138.164 45.2146 139.03 45.0894 139.827 44.7213C141.27 44.0576 142.291 42.9732 143.039 41.3114C143.109 41.1566 143.291 41.0875 143.446 41.1561C143.601 41.2264 143.67 41.4076 143.601 41.5619C142.787 43.3679 141.67 44.5479 140.085 45.279C139.941 45.3436 139.796 45.4036 139.647 45.4559Z" fill="#192E35"/>
</svg>
