<svg width="276" height="207" viewBox="0 0 276 207" fill="none" xmlns="http://www.w3.org/2000/svg">
<path d="M262.954 207L115.081 206.949L40.7725 206.923L36.6355 206.92L21.7068 206.918C21.7068 206.918 0.381795 189.582 0.0123887 165.075C-0.715534 116.785 30.893 138.536 26.5988 80.3361C22.6804 27.229 125.059 -1.40823 180.65 39.165C200.861 53.9162 202.446 64.2624 231.489 60.9913C264.273 57.2992 268.009 97.1426 256.535 119.229C240.253 150.567 301.681 145.419 262.954 207Z" fill="#F7F0FF"/>
<mask id="mask0_4951_23150" style="mask-type:alpha" maskUnits="userSpaceOnUse" x="0" y="20" width="276" height="187">
<path d="M262.954 207L115.081 206.949L40.7725 206.923L36.6355 206.92L21.7068 206.918C21.7068 206.918 0.381795 189.582 0.0123887 165.075C-0.715534 116.785 30.893 138.536 26.5988 80.3361C22.6804 27.229 125.059 -1.40823 180.65 39.165C200.861 53.9162 202.446 64.2624 231.489 60.9913C264.273 57.2992 268.009 97.1426 256.535 119.229C240.253 150.567 301.681 145.419 262.954 207Z" fill="#CEF7F3"/>
</mask>
<g mask="url(#mask0_4951_23150)">
<path d="M69.0001 124.125C45.3384 119.566 7.96161 133.156 7.96161 133.156H-5.30762V207H279.185V174.062C279.185 174.062 234.394 151.689 203.285 148.562C172.536 145.471 154.7 165.672 124.731 158.125C100.013 151.899 94.0291 128.947 69.0001 124.125Z" fill="#F1E6FF"/>
</g>
<path d="M126.351 16.6351C125.865 18.1144 125.535 19.667 125.381 21.2743C124.553 29.9352 123.74 39.483 123.581 45.1018C123.407 46.9091 123.493 49.1991 124.276 51.5179C124.276 51.5187 124.277 51.5194 124.277 51.5202L126.351 16.6351ZM126.351 16.6351L126.24 16.5962C126.699 15.2676 127.47 13.6318 128.563 11.9372C129.056 11.1547 129.598 10.4072 130.185 9.69879C133.764 5.28573 139.704 1.04171 148.285 1.59443C155.029 2.02886 159.435 5.45606 162.109 9.50185C164.744 13.4879 165.713 18.0831 165.713 21.0916V21.1516L165.708 21.2114L164.9 31.2985C164.975 31.3027 165.05 31.309 165.125 31.3172C166.329 31.4489 167.776 31.883 168.886 33.0706C170.017 34.2807 170.583 36.0405 170.474 38.3725C170.332 41.4269 169.092 43.372 167.325 44.4288C166.219 45.0901 165.017 45.336 163.978 45.391L163.421 54.9458L163.856 56.397L165.086 60.5024C165.3 60.6564 165.589 60.8656 165.94 61.1199C166.73 61.6921 167.83 62.4934 169.075 63.4101C171.559 65.2399 174.635 67.5427 176.952 69.4019L176.952 69.402C179.239 71.2366 181.518 73.0357 183.226 74.3766C184.08 75.0469 184.791 75.6024 185.288 75.9902C185.537 76.1841 185.732 76.336 185.865 76.4394L186.017 76.5573L186.055 76.5874L186.065 76.5949L186.068 76.5968L186.068 76.5972L186.068 76.5973L185.149 77.7824L186.068 76.5974L186.074 76.6014C187.401 77.6411 188.386 79.1906 189.122 80.7517C189.87 82.3351 190.422 84.0634 190.823 85.5942C191.508 88.2138 191.805 90.911 191.747 93.6028C191.632 98.8672 191.296 110.453 190.406 121.783C189.962 127.446 189.377 133.07 188.607 137.82C187.848 142.5 186.88 146.547 185.578 148.901C184.72 150.455 183.06 151.838 181.038 153.081M126.351 16.6351L181.038 153.081M57.7623 87.3996C57.8023 86.8359 58.0053 86.2588 58.4541 85.7398C59.1542 84.9303 60.095 84.7256 60.9328 84.833C61.6916 84.9302 62.4115 85.2787 63.0014 85.6347C64.1712 86.3407 65.3632 87.4149 66.1787 88.1499L66.2257 88.1922C66.6584 88.5821 66.949 88.8421 67.1344 88.9826L67.1348 88.9829C67.539 89.2894 68.0986 89.8509 68.6565 90.4339C69.2415 91.0452 69.9221 91.7848 70.5996 92.5211L70.6067 92.5287L69.5028 93.5444L70.6067 92.5287C71.4169 93.4092 72.2224 94.2844 72.8968 94.9788C73.2343 95.3263 73.525 95.614 73.7575 95.8274C73.9369 95.9921 74.0368 96.0701 74.072 96.0976C74.0894 96.1113 74.091 96.1125 74.0785 96.1058C74.3853 96.2719 74.7277 96.4965 75.0259 96.6921L75.0583 96.7134L74.2357 97.9677L75.0584 96.7134C75.4685 96.9824 75.8463 97.2277 76.1968 97.4173C76.1082 97.0884 75.9916 96.6995 75.8537 96.2485L75.8439 96.2163C75.6618 95.6211 75.4556 94.9469 75.3196 94.3276C75.1936 93.7538 75.0622 92.9643 75.2336 92.25L57.7623 87.3996ZM57.7623 87.3996C57.5714 87.2642 57.3758 87.1374 57.1778 87.0252C56.288 86.5206 54.816 86.0339 53.4851 87.1091L57.7623 87.3996ZM52.3621 90.3395C51.8426 90.5514 51.4096 90.9156 51.0645 91.3669L51.0643 91.3672C50.2068 92.4893 50.5692 93.7823 50.9338 94.5631C51.3267 95.4046 51.9758 96.2362 52.613 96.945C52.9679 97.3398 53.344 97.7234 53.7134 98.0806C53.7081 98.0873 53.7032 98.0937 53.6986 98.0997L53.6875 98.1141L53.6826 98.1208L53.6802 98.1239L53.6791 98.1255C53.6787 98.126 53.6783 98.1265 54.0517 98.4023C54.0523 98.4028 54.0528 98.4033 54.0534 98.4039L53.678 98.127L53.6752 98.1307C52.7863 99.3436 53.1107 100.797 53.4879 101.765C53.8972 102.815 54.5925 103.885 55.2742 104.797C55.9682 105.726 56.7086 106.57 57.2695 107.178C57.5514 107.483 57.7915 107.733 57.9623 107.907C58.0478 107.994 58.1162 108.062 58.164 108.11L58.2201 108.165L58.2358 108.181L58.2405 108.185L58.242 108.187L58.2425 108.187C58.2427 108.188 58.2429 108.188 59.289 107.113L58.2429 108.188L58.3142 108.257L58.3939 108.316L73.8111 119.78L67.3151 126.168L66.1571 127.307L67.3843 128.371L68.3669 127.238C67.3843 128.371 67.3844 128.371 67.3845 128.372L67.3851 128.372L67.3871 128.374L67.3944 128.38L67.4227 128.405L67.5326 128.499C67.6291 128.582 67.7716 128.705 67.9567 128.863C68.3268 129.179 68.8674 129.639 69.5516 130.214C70.9197 131.364 72.8625 132.977 75.1644 134.829C79.6389 138.429 85.492 142.952 91.124 146.741C91.3084 147.341 91.5211 147.839 91.7056 148.214C91.8265 148.459 91.9362 148.654 92.0198 148.794C92.0617 148.864 92.0971 148.92 92.1243 148.962C92.1379 148.983 92.1494 149 92.1587 149.014L92.1708 149.032L92.1755 149.039L92.1776 149.042L92.1785 149.043L92.1789 149.044C92.179 149.044 92.1791 149.044 92.3661 148.914C92.3661 148.914 92.3661 148.914 92.3661 148.914L92.1794 149.044L92.3445 149.282C92.3406 149.851 92.4749 150.514 92.9091 151.164M52.3621 90.3395L101.148 156.065L100.805 157.525C98.7081 157.032 97.2568 156.064 96.3208 155.191C95.8555 154.757 95.5202 154.349 95.295 154.038C95.1954 153.9 95.1169 153.781 95.058 153.686M52.3621 90.3395C52.2591 89.9629 52.2093 89.5222 52.2902 89.0437C52.4176 88.2909 52.8367 87.6328 53.4847 87.1094L52.3621 90.3395ZM92.9091 151.164C92.9091 151.164 92.909 151.164 92.909 151.164L94.1567 150.331L92.9091 151.164ZM92.9091 151.164C93.33 151.795 93.9192 152.472 94.3657 152.959C94.5961 153.21 94.8026 153.425 94.952 153.578C94.9914 153.619 95.0269 153.655 95.058 153.686M95.058 153.686C95.0502 153.674 95.0427 153.662 95.0356 153.65C95.0207 153.626 95.0072 153.603 94.9952 153.583C94.9826 153.561 94.9716 153.542 94.9621 153.525C94.9528 153.508 94.9449 153.494 94.9385 153.482L94.9299 153.466L94.9263 153.459L94.9248 153.456L94.924 153.455C94.9237 153.454 94.9233 153.454 96.2541 152.762C95.2013 153.83 95.2012 153.83 95.2012 153.83L95.201 153.83L95.2005 153.829L95.1992 153.828L95.195 153.824L95.1809 153.81L95.1306 153.76C95.1103 153.739 95.0859 153.715 95.058 153.686ZM181.038 153.081L180.865 152.063L179.386 152.314L180.127 153.619C180.437 153.443 180.742 153.263 181.038 153.081ZM105.605 157.85L105.593 157.946L105.636 157.998C105.633 157.978 105.632 157.964 105.631 157.956C105.626 157.917 105.624 157.881 105.622 157.851C105.616 157.851 105.611 157.851 105.605 157.85ZM105.605 157.85L105.619 157.744L106.243 156.384L105.091 157.345L105.508 157.845C105.541 157.847 105.573 157.849 105.605 157.85ZM125.082 53.4146C126.148 55.4647 127.843 57.3944 130.407 58.8875C131.828 59.7155 133.063 60.2174 134.145 60.5014L134.149 61.9085L134.15 62.5156C134.057 62.6267 133.957 62.7502 133.853 62.8805C133.511 63.309 133.08 63.8763 132.63 64.4777C131.729 65.6822 130.723 67.068 130.15 67.8574L130.148 67.8605L130.147 67.8616L130.143 67.867L130.142 67.8685L130.141 67.8704L130.14 67.8708C130.136 67.8767 130.132 67.8826 130.128 67.8885C126.479 69.2797 121.722 71.0938 119.112 72.0883C117.424 72.7318 115.928 73.7764 114.743 75.1338C112.123 78.1321 107.572 84.4967 104.855 94.8603C103.003 101.924 101.086 108.079 99.6713 112.365L94.5107 114.119L87.0036 108.579L86.0877 107.903L85.6056 100.428L85.604 100.403L85.6016 100.378L84.1087 100.524C85.6016 100.378 85.6015 100.377 85.6015 100.377L85.6014 100.376L85.6012 100.374L85.6008 100.37L85.5997 100.359L85.5966 100.332C85.5941 100.311 85.5907 100.283 85.5862 100.251C85.5772 100.186 85.5638 100.098 85.5443 99.9909C85.5054 99.7766 85.4419 99.4821 85.3404 99.1277C85.1376 98.4202 84.7803 97.4646 84.1564 96.4307L125.082 53.4146ZM75.2606 92.1376L75.234 92.2486L84.1563 96.4305C83.9711 96.1236 83.707 95.5028 83.401 94.6335C83.1067 93.7975 82.8079 92.8326 82.5384 91.9082C82.2696 90.9864 82.0337 90.1181 81.8649 89.4795C81.7805 89.1605 81.7131 88.8997 81.667 88.7192C81.6439 88.629 81.6261 88.5589 81.6142 88.5116L81.6008 88.4583L81.5976 88.4452L81.5968 88.4422L81.5966 88.4415L81.3992 87.6483L80.6256 87.3843C79.7366 87.0808 78.8525 87.0846 78.051 87.4478C77.2887 87.7932 76.7721 88.3867 76.4237 88.9424C75.7772 89.9734 75.4614 91.2962 75.2788 92.0612L75.2607 92.1372L75.2606 92.1376ZM106.171 157.673L106.176 157.58L106.177 157.563L106.186 157.401L107.124 157.445L106.171 157.673ZM119.645 205.172H120.985L121.128 203.906L121.135 203.84L119.645 203.672V203.739V205.172Z" fill="#192E35" stroke="#192E35" stroke-width="3"/>
<path d="M126.874 21.3713C127.862 11.0478 136.646 3.21273 147.058 3.3636L148.093 3.37862C159.24 4.18964 164.775 14.0687 163.653 25.1417L161.498 62.1136L161.375 63.9083L135.556 68.6748L135.73 59.2456C135.73 59.2456 125.029 57.4297 125.053 46.7506C125.064 41.5922 125.956 30.9725 126.874 21.3713Z" fill="#FFC596"/>
<path d="M138.561 41.0459C138.657 41.0459 138.751 41.0019 138.81 40.9203C138.903 40.7868 138.867 40.6062 138.73 40.5151C137.636 39.7958 136.951 38.8959 136.802 37.9788C136.675 37.1951 136.922 36.4115 137.538 35.6467L137.63 35.532C138.331 34.662 138.936 33.9113 139.118 32.7083C139.18 32.2922 139.191 31.8367 139.151 31.3153C139.138 31.1552 138.993 31.0342 138.829 31.0468C138.663 31.0594 138.539 31.1991 138.552 31.3593C138.588 31.8367 138.579 32.2513 138.523 32.6235C138.365 33.6757 137.831 34.3369 137.156 35.174L137.063 35.2886C136.352 36.1728 136.056 37.1339 136.209 38.0699C136.386 39.1614 137.141 40.1743 138.392 40.9956C138.444 41.0302 138.503 41.0459 138.561 41.0459Z" fill="#192E35"/>
<path d="M135.641 59.2293C135.641 59.2293 142.483 59.7386 149.751 55.338C149.751 55.338 146.334 62.9745 135.649 61.8583L135.641 59.2293Z" fill="#CC966B"/>
<path d="M131.089 31.258C131.048 32.0629 131.7 32.7612 132.543 32.8186C133.385 32.8752 134.101 32.2711 134.141 31.4662C134.182 30.6613 133.531 29.9629 132.689 29.9049C131.846 29.8476 131.129 30.4538 131.089 31.258Z" fill="#192E35"/>
<path d="M129.103 26.6296C129.289 26.831 130.461 25.9927 132.11 26.0214C133.756 26.0255 134.953 26.8877 135.135 26.689C135.224 26.6016 135.035 26.2391 134.514 25.85C134.002 25.4623 133.123 25.08 132.096 25.069C131.07 25.0602 130.201 25.424 129.699 25.8015C129.187 26.1818 129.01 26.5388 129.103 26.6296Z" fill="#192E35"/>
<path d="M146.413 31.6547C146.373 32.4596 147.024 33.1566 147.867 33.2139C148.709 33.272 149.426 32.6671 149.466 31.8622C149.507 31.0574 148.855 30.359 148.013 30.3016C147.17 30.2436 146.453 30.8498 146.413 31.6547Z" fill="#192E35"/>
<path d="M145.296 27.169C145.483 27.3711 146.657 26.5327 148.304 26.5614C149.95 26.5662 151.147 27.4277 151.329 27.2291C151.418 27.1417 151.232 26.7798 150.709 26.3907C150.196 26.0023 149.317 25.6207 148.291 25.6091C147.264 25.6002 146.395 25.964 145.893 26.3423C145.382 26.7218 145.204 27.0789 145.296 27.169Z" fill="#192E35"/>
<path d="M161.779 35.509C161.87 33.8624 163.315 32.5817 164.962 32.7619C166.959 32.9804 169.168 34.143 168.976 38.2561C168.635 45.5533 161.349 43.7073 161.346 43.4977C161.344 43.3551 161.609 38.562 161.779 35.509Z" fill="#FFC596"/>
<path d="M163.068 40.8266C163.102 40.8048 163.192 40.9216 163.404 41.0294C163.609 41.1352 163.968 41.2178 164.356 41.0936C165.144 40.8465 165.852 39.6531 165.95 38.339C165.999 37.6761 165.889 37.0371 165.677 36.5033C165.478 35.9585 165.149 35.57 164.762 35.4827C164.379 35.3755 164.093 35.5946 163.993 35.796C163.886 35.9953 163.925 36.1435 163.886 36.1544C163.864 36.1715 163.734 36.0247 163.807 35.7257C163.844 35.5823 163.938 35.4144 164.117 35.2819C164.3 35.1481 164.561 35.0874 164.832 35.129C165.394 35.1946 165.879 35.7352 166.112 36.3223C166.376 36.9129 166.515 37.6317 166.46 38.3765C166.344 39.845 165.524 41.1857 164.45 41.4411C163.929 41.5517 163.506 41.3769 163.292 41.1946C163.073 41.0035 163.042 40.8383 163.068 40.8266Z" fill="#192E35"/>
<path d="M146.476 41.5566C146.357 41.5552 146.324 40.7858 145.709 40.1407C145.118 39.4751 144.351 39.374 144.359 39.2559C144.36 39.2041 144.566 39.146 144.898 39.2075C145.228 39.2662 145.669 39.4758 146.021 39.8567C146.37 40.239 146.542 40.6944 146.572 41.0261C146.605 41.362 146.528 41.5607 146.476 41.5566Z" fill="#CED4DA"/>
<path d="M147.156 39.5486C147.052 39.6093 146.79 39.3514 146.403 39.1734C146.021 38.9838 145.655 38.9409 145.638 38.8229C145.61 38.7124 146.075 38.5494 146.585 38.7949C147.097 39.0384 147.26 39.5022 147.156 39.5486Z" fill="#CED4DA"/>
<path d="M80.1411 88.7577C80.1411 88.7577 81.7834 95.3551 82.8721 97.1594C83.9601 98.9624 84.1087 100.478 84.1087 100.478L84.79 111.041L76.1115 119.575L59.289 107.066C59.289 107.066 53.255 101.195 54.8851 98.9713C54.8851 98.9713 55.6858 97.8858 57.092 98.9924C57.092 98.9924 50.8007 94.1365 52.2561 92.2319C53.7119 90.3279 55.8786 93.0886 58.1562 95.0124C60.4336 96.9355 61.178 97.4762 61.178 97.4762L54.6363 91.1737C54.6363 91.1737 52.7899 89.5523 54.4274 88.23C56.0647 86.907 58.4851 90.22 59.6331 90.9102C60.7814 91.6011 67.2206 97.7104 67.2206 97.7104C67.2206 97.7104 62.7554 92.0482 62.4391 91.739C62.1225 91.4297 58.0839 88.415 59.5887 86.6749C61.0929 84.9354 64.9537 89.1659 66.2284 90.1319C67.5032 91.0986 72.2941 96.799 73.3642 97.3786C74.4342 97.9582 76.3662 99.6253 77.5565 99.0962C78.7466 98.5664 76.3102 94.1413 76.6923 92.5534C77.0742 90.9641 77.737 87.9371 80.1411 88.7577Z" fill="#FFC596"/>
<path d="M76.0221 109.166C76.0863 109.121 75.6394 108.61 75.4117 107.603C75.1653 106.604 75.2653 105.149 75.8761 103.68C76.4559 102.194 77.251 100.972 77.6843 99.9756C77.8983 99.4773 77.9904 99.0301 77.9861 98.7209C77.981 98.4102 77.9079 98.2498 77.8838 98.2553C77.8235 98.2641 77.906 98.9229 77.3964 99.8425C76.9163 100.756 76.0588 101.982 75.4586 103.517C74.8197 105.042 74.7568 106.642 75.1054 107.685C75.4353 108.746 75.9971 109.203 76.0221 109.166Z" fill="#192E35"/>
<path d="M64.3 105.728C64.3471 105.715 64.0884 105.116 63.2671 104.57C62.4918 103.994 61.1662 103.602 60.2418 102.608C59.7905 102.098 59.4809 101.492 59.1652 100.952C58.857 100.407 58.5204 99.9234 58.1704 99.5807C57.461 98.868 56.7794 98.8168 56.7864 98.8708C56.762 98.939 57.3501 99.0906 57.9376 99.7951C58.2338 100.142 58.5182 100.603 58.8037 101.152C59.0967 101.694 59.4014 102.331 59.9062 102.905C60.4196 103.48 61.0631 103.831 61.6236 104.108C62.191 104.385 62.6975 104.609 63.0984 104.837C63.9108 105.281 64.237 105.773 64.3 105.728Z" fill="#192E35"/>
<path d="M112.307 203.626H166.148V184.213L112.307 178.208V203.626Z" fill="#192E35"/>
<path d="M135.659 63.0635L139.548 65.5L161.929 55.92L162.944 60.8475L142.696 102.669L141.484 182.419L119.572 180.634L133.117 72.9235L135.659 63.0635Z" fill="#FFD483"/>
<path d="M156.606 65.1777C156.617 65.1996 156.337 65.3689 155.821 65.6556C155.244 65.9765 154.511 66.3833 153.637 66.868C151.792 67.89 149.252 69.3161 146.462 70.9204C145.223 71.6393 144.037 72.3268 142.947 72.9582L142.799 73.0449L142.717 72.8995C141.625 70.9402 140.984 69.1543 140.424 67.9405C140.153 67.3289 139.928 66.8489 139.769 66.5219C139.61 66.1949 139.525 66.0167 139.543 66.0072C139.559 65.9976 139.675 66.1574 139.866 66.47C140.056 66.7827 140.311 67.2517 140.61 67.8538C141.224 69.0472 141.914 70.8255 143.006 72.7309L142.777 72.6722C143.852 72.0264 145.038 71.3293 146.283 70.6125C149.076 69.0062 151.64 67.6128 153.518 66.6462C154.456 66.1615 155.224 65.786 155.758 65.5327C156.293 65.2829 156.595 65.1559 156.606 65.1777Z" fill="#192E35"/>
<path d="M131.079 69.0852C127.384 70.4942 122.356 72.4112 119.646 73.4441C118.188 73.9998 116.897 74.9016 115.873 76.0744C113.38 78.9273 108.955 85.0899 106.306 95.1949C102.716 108.883 98.8896 119.169 98.8896 119.169L86.1128 109.74L68.3667 127.192C68.3667 127.192 98.2416 153.093 107.729 152.979L101.297 203.692H119.637L134.799 69.0852L135.659 63.0633C135.344 63.1834 131.927 67.9191 131.079 69.0852Z" fill="#EBEAEA"/>
<path d="M114.162 86.0401C114.169 86.0408 114.167 86.1043 114.157 86.2272C114.143 86.3699 114.127 86.5494 114.106 86.7713C114.049 87.2744 113.972 87.9728 113.873 88.8582C113.662 90.6974 113.362 93.3107 112.993 96.5288C112.257 103.006 111.307 111.962 110.367 121.864C109.43 131.77 108.658 140.744 108.095 147.24C107.811 150.467 107.58 153.087 107.418 154.931C107.333 155.817 107.266 156.517 107.218 157.021C107.193 157.243 107.173 157.422 107.157 157.564C107.142 157.687 107.131 157.748 107.124 157.748C107.118 157.748 107.117 157.685 107.121 157.561C107.127 157.418 107.136 157.238 107.146 157.016C107.178 156.51 107.223 155.809 107.279 154.92C107.414 153.074 107.606 150.45 107.843 147.22C108.342 140.718 109.074 131.739 110.012 121.83C110.952 111.926 111.942 102.971 112.742 96.4995C113.141 93.2636 113.481 90.6468 113.736 88.8405C113.862 87.9585 113.962 87.2635 114.034 86.7617C114.069 86.5419 114.098 86.3637 114.121 86.2224C114.142 86.1009 114.156 86.0388 114.162 86.0401Z" fill="#192E35"/>
<path d="M168.937 136.933C168.859 137.018 167.435 135.522 165.186 134.431C162.947 133.315 160.889 133.1 160.909 132.988C160.913 132.945 161.432 132.943 162.254 133.087C163.075 133.23 164.196 133.55 165.344 134.112C166.49 134.678 167.426 135.369 168.04 135.931C168.655 136.493 168.968 136.904 168.937 136.933Z" fill="#192E35"/>
<path d="M185.149 77.7365C185.149 77.7365 180.597 74.2043 176.014 70.526C171.429 66.8484 163.795 61.3761 163.795 61.3761L162.419 56.7816C162.419 56.7816 158.378 61.0163 154.839 68.6746C149.754 79.678 143.881 95.7353 142.696 102.669L135.659 203.626H188.117L175.917 131.859L185.149 77.7365Z" fill="#EBEAEA"/>
<path d="M142.372 109.139C142.362 109.133 142.445 108.963 142.613 108.645C142.8 108.299 143.049 107.838 143.363 107.26C144.045 106.033 145.002 104.313 146.177 102.2C148.601 97.9176 151.918 92.0527 155.583 85.5741C155.751 85.2812 155.917 84.9897 156.081 84.7009L156.065 84.8381C155.67 83.5056 155.284 82.201 154.91 80.9373L154.875 80.8172L154.977 80.7455C155.945 80.0649 156.885 79.404 157.791 78.7671L157.728 78.8504C159.465 73.7774 160.96 69.4137 162.032 66.2788C162.566 64.7592 162.995 63.5386 163.303 62.6613C163.448 62.2654 163.565 61.9479 163.656 61.7015C163.739 61.4844 163.787 61.3731 163.796 61.3765C163.805 61.3793 163.776 61.4967 163.711 61.7192C163.633 61.9705 163.534 62.294 163.41 62.6975C163.125 63.5816 162.727 64.8124 162.232 66.3457C161.189 69.4902 159.737 73.8675 158.049 78.9582L158.032 79.0101L157.986 79.0429C157.083 79.6826 156.146 80.3468 155.18 81.0309L155.247 80.8383C155.623 82.102 156.01 83.4052 156.407 84.7371L156.429 84.8102L156.392 84.8757C156.226 85.1645 156.061 85.4567 155.894 85.7495C152.193 92.2084 148.844 98.0548 146.397 102.324C145.181 104.414 144.19 106.115 143.483 107.328C143.146 107.892 142.877 108.342 142.675 108.68C142.487 108.987 142.383 109.146 142.372 109.139Z" fill="#192E35"/>
<path d="M130.012 111.576C130 111.578 129.964 111.421 129.907 111.12C129.849 110.783 129.771 110.345 129.676 109.801C129.484 108.611 129.217 106.961 128.89 104.94C128.256 100.794 127.389 95.1359 126.432 88.8846C126.335 88.2354 126.239 87.593 126.144 86.9588L126.136 86.8994L126.164 86.8475C126.99 85.3579 127.788 83.9174 128.55 82.5439L128.646 82.7869C127.83 82.5193 127.038 82.2592 126.27 82.008L126.107 81.9547L126.168 81.7977C127.585 78.0662 128.791 74.8938 129.66 72.6109C130.086 71.522 130.429 70.6468 130.681 70.0031C130.795 69.7266 130.888 69.5006 130.964 69.3163C131.031 69.162 131.07 69.0828 131.078 69.0862C131.087 69.0889 131.065 69.1736 131.014 69.3347C130.951 69.5238 130.873 69.7559 130.779 70.0399C130.548 70.6898 130.234 71.5766 129.844 72.6785C129.006 74.9736 127.842 78.1611 126.473 81.9103L126.371 81.6994C127.14 81.9465 127.934 82.2012 128.752 82.464L128.948 82.5268L128.848 82.7077C128.091 84.0833 127.297 85.5272 126.476 87.0181L126.496 86.9069C126.591 87.5411 126.687 88.1828 126.785 88.8313C127.702 95.0888 128.532 100.753 129.14 104.903C129.42 106.931 129.648 108.587 129.814 109.781C129.881 110.329 129.936 110.769 129.979 111.109C130.012 111.414 130.025 111.574 130.012 111.576Z" fill="#192E35"/>
<path d="M134.751 69.5085C134.814 69.4812 135.306 70.4492 135.973 71.8931L135.686 71.8821C135.987 71.3025 136.375 70.6656 136.802 70.0055C137.533 68.8804 138.225 67.8871 138.714 67.1614C139.209 66.4405 139.498 65.9838 139.543 66.007C139.586 66.0282 139.372 66.534 138.928 67.2945C138.491 68.0591 137.829 69.0777 137.103 70.198C136.678 70.8547 136.282 71.478 135.967 72.0316L135.805 72.3184L135.681 72.02C135.068 70.5523 134.687 69.5364 134.751 69.5085Z" fill="#192E35"/>
<path d="M128.7 181.377C128.694 181.377 128.697 181.276 128.709 181.078C128.725 180.865 128.746 180.576 128.774 180.205C128.84 179.42 128.935 178.293 129.056 176.85C129.319 173.921 129.697 169.713 130.162 164.52C131.131 154.096 132.468 139.725 133.944 123.851C135.461 107.976 136.834 93.6069 137.83 83.1865C138.343 77.9975 138.759 73.7935 139.048 70.8669C139.198 69.4271 139.316 68.302 139.398 67.519C139.44 67.1497 139.473 66.8616 139.497 66.6493C139.522 66.4534 139.538 66.3537 139.543 66.3544C139.549 66.3544 139.546 66.4554 139.534 66.6527C139.518 66.8657 139.497 67.1545 139.469 67.5252C139.403 68.3102 139.308 69.4367 139.187 70.8792C138.924 73.8079 138.546 78.0166 138.082 83.2097C137.112 93.6335 135.775 108.006 134.299 123.885C132.782 139.755 131.409 154.124 130.414 164.545C129.9 169.732 129.484 173.937 129.195 176.864C129.045 178.304 128.927 179.428 128.845 180.212C128.803 180.581 128.77 180.87 128.746 181.082C128.721 181.277 128.706 181.377 128.7 181.377Z" fill="#192E35"/>
<path d="M143.996 106.447C144.641 105.339 145.451 103.949 146.396 102.324C148.843 98.0544 152.193 92.208 155.894 85.7491C156.06 85.4563 156.226 85.1641 156.391 84.8753L156.428 84.8098L156.406 84.7367C156.023 83.4471 155.647 82.1835 155.282 80.9574C156.212 80.2993 157.114 79.6596 157.986 79.0425L158.032 79.0097L158.049 78.9578C159.737 73.8671 161.189 69.4898 162.232 66.3453C162.486 65.5568 162.715 64.8489 162.916 64.227L158.32 80.7321L156.236 81.522L157.663 86.0031L143.996 106.447Z" fill="#ADB5BD"/>
<path d="M143.38 107.369L156.236 84.7882L155.078 80.888L157.889 78.9042L163.301 62.8455L162.916 64.2272C162.715 64.8492 162.486 65.5571 162.232 66.3456C161.189 69.49 159.737 73.8674 158.049 78.9581L158.032 79.01L157.986 79.0427C157.115 79.6599 156.212 80.2996 155.282 80.9577C155.647 82.1837 156.023 83.4474 156.407 84.737L156.429 84.81L156.392 84.8756C156.226 85.1643 156.06 85.4565 155.894 85.7494C152.193 92.2082 148.844 98.0547 146.397 102.324C145.451 103.949 144.642 105.339 143.996 106.448L143.38 107.369Z" fill="#192E35"/>
<path d="M141.44 76.4004L140.165 67.3651C140.245 67.5413 140.332 67.7338 140.424 67.9413C140.984 69.1551 141.625 70.941 142.717 72.9003L142.799 73.0457L142.948 72.959C144.038 72.3275 145.223 71.6401 146.463 70.9212C149.252 69.3169 151.792 67.8908 153.637 66.8688C153.817 66.7692 153.992 66.6722 154.16 66.5787L141.44 76.4004Z" fill="#B58B3B"/>
<path d="M142.799 73.0449L142.717 72.8995C141.625 70.9402 140.984 69.1543 140.424 67.9405C140.332 67.733 140.245 67.5405 140.165 67.3644L140.126 67.0913L142.862 72.8155L154.163 66.5765L154.16 66.5779C153.992 66.6714 153.817 66.7684 153.637 66.868C151.792 67.89 149.252 69.3161 146.462 70.9204C145.223 71.6393 144.038 72.3268 142.948 72.9582L142.799 73.0449Z" fill="#192E35"/>
<path d="M110.944 164.677C108.69 164.676 106.587 161.985 106.587 161.985L107.124 157.748C107.124 157.748 117.67 155.426 118.016 155.339C118.022 155.338 118.03 155.337 118.039 155.337C118.568 155.337 124.469 157.748 124.469 157.748L124.632 159.343V159.343C124.599 159.357 114.156 163.892 111.657 164.581C111.419 164.647 111.181 164.677 110.944 164.677Z" fill="#ADB5BD"/>
<path d="M127.602 171.075L127.288 167.179L129.976 166.587C129.841 168.102 129.714 169.519 129.596 170.831C128.343 170.991 127.602 171.075 127.602 171.075ZM129.794 170.806C129.925 169.486 130.065 168.059 130.216 166.534L138.37 164.739L138.03 169.618C134.694 170.154 131.707 170.56 129.794 170.806Z" fill="#B58B3B"/>
<path d="M138.03 169.618L138.37 164.739L153.017 161.513C161.128 159.399 168.713 157.093 175.19 154.382C170.668 159.935 154.727 165.819 154.727 165.819C150.625 167.371 143.805 168.69 138.03 169.618Z" fill="#ADB5BD"/>
<path d="M129.596 170.831C129.713 169.52 129.84 168.102 129.976 166.588L130.215 166.534C130.065 168.059 129.924 169.486 129.794 170.806C129.726 170.815 129.661 170.823 129.596 170.831Z" fill="#192E35"/>
<path d="M142.188 140.207L118.427 108.936C117.919 108.268 117.04 108 116.244 108.27L79.8843 120.628C78.5924 121.067 78.143 122.658 79.015 123.703L108.598 159.16C109.124 159.79 109.99 160.024 110.763 159.743L144.768 147.404C146.031 146.945 146.459 145.383 145.607 144.35L142.188 140.207Z" fill="#33535F"/>
<path d="M93.9538 119.587C93.9733 120.143 94.4414 120.577 94.999 120.558C95.5565 120.538 95.993 120.072 95.9732 119.517C95.9539 118.962 95.4858 118.527 94.9283 118.547C94.3704 118.566 93.9342 119.032 93.9538 119.587Z" fill="#192E35"/>
<path d="M101.297 117.108C101.316 117.664 101.784 118.098 102.342 118.078C102.899 118.059 103.336 117.593 103.316 117.038C103.297 116.482 102.828 116.048 102.271 116.068C101.713 116.087 101.277 116.553 101.297 117.108Z" fill="#192E35"/>
<path d="M122.377 145.704L120.466 145.276C120.466 145.276 119.685 142.131 118.824 141.494C117.963 140.855 109.444 137.344 107.567 136.409C105.69 135.473 98.3732 132.457 97.5299 134.225C96.5755 136.227 99.5644 137.739 101.181 138.435C102.798 139.129 107.398 140.724 106.515 141.84C105.632 142.957 95.0662 142.891 95.0662 142.891L93.8525 141.488C93.8525 141.488 91.9844 143.351 92.3001 145.175C92.6161 147 93.4104 148.141 93.4104 148.141L94.1639 148.115C94.1639 148.115 93.449 149.225 94.1567 150.285C94.8645 151.346 96.2541 152.715 96.2541 152.715C96.2541 152.715 97.5293 155.168 101.148 156.019C101.57 156.119 118.373 156.982 118.373 156.982L124.469 158.343L122.377 145.704Z" fill="#FFC596"/>
<path d="M166.531 86.1504C166.337 86.5586 161.346 132.727 161.346 132.727L122.218 144.543L125.951 167.429C125.951 167.429 178.806 158.005 184.266 148.129C188.907 139.735 190.018 104.032 190.247 93.524C190.303 90.964 190.02 88.406 189.372 85.9278C188.598 82.9684 187.271 79.3987 185.149 77.7364C181.184 74.6336 166.531 86.1504 166.531 86.1504Z" fill="#EBEAEA"/>
<path d="M165.432 95.7886C165.432 95.7886 165.421 96.0201 165.38 96.4665C165.334 96.926 165.269 97.5854 165.185 98.4395C165.002 100.18 164.736 102.711 164.398 105.931C163.698 112.402 162.699 121.634 161.496 132.743L161.486 132.842L161.39 132.871C150.109 136.286 136.67 140.354 122.271 144.713L122.395 144.514C122.419 144.662 122.445 144.823 122.472 144.984C123.75 152.835 124.983 160.414 126.12 167.402L125.921 167.262C141.835 164.249 155.431 160.966 164.891 158.013C166.081 157.668 167.185 157.263 168.24 156.924C168.765 156.748 169.276 156.579 169.77 156.414C170.257 156.232 170.728 156.056 171.183 155.885C172.09 155.54 172.94 155.239 173.706 154.93C174.463 154.6 175.153 154.3 175.774 154.03C176.396 153.767 176.944 153.527 177.393 153.269C177.848 153.03 178.233 152.828 178.548 152.661C178.853 152.504 179.088 152.383 179.259 152.295C179.419 152.213 179.505 152.178 179.505 152.178C179.505 152.178 179.429 152.23 179.274 152.32C179.106 152.415 178.876 152.545 178.577 152.713C178.265 152.886 177.883 153.097 177.433 153.347C176.987 153.614 176.442 153.862 175.822 154.135C175.203 154.412 174.515 154.721 173.76 155.06C172.995 155.378 172.147 155.688 171.242 156.042C170.787 156.215 170.317 156.396 169.83 156.583C169.337 156.751 168.827 156.925 168.302 157.103C167.248 157.451 166.145 157.864 164.955 158.216C155.5 161.231 141.909 164.559 125.982 167.596L125.811 167.629L125.783 167.456C124.641 160.469 123.402 152.892 122.119 145.041C122.093 144.88 122.066 144.72 122.042 144.571L122.017 144.417L122.167 144.373C136.572 140.032 150.017 135.983 161.302 132.582L161.195 132.711C162.449 121.608 163.492 112.379 164.223 105.912C164.597 102.696 164.891 100.168 165.092 98.4292C165.196 97.5772 165.277 96.9198 165.333 96.4611C165.39 96.0166 165.432 95.7886 165.432 95.7886Z" fill="#192E35"/>
<path d="M176.943 78.1003C178.03 77.7626 179.025 77.5414 179.862 77.4388L179.867 77.4382L179.867 77.4382C180.719 77.3258 181.415 77.2916 181.9 77.2766C182.005 77.2734 182.107 77.2709 182.199 77.2687C182.309 77.266 182.404 77.2637 182.476 77.2607C182.542 77.2581 182.615 77.254 182.678 77.2449C182.704 77.241 182.763 77.2317 182.826 77.2067C182.857 77.1946 182.921 77.1667 182.986 77.1093C183.055 77.0473 183.148 76.9284 183.156 76.7545M176.943 78.1003L182.657 76.7295M176.943 78.1003C175.869 78.4605 174.721 78.9453 173.59 79.5887C172.467 80.2472 171.475 80.998 170.628 81.7479C169.794 82.5198 169.106 83.2693 168.601 83.9421L168.601 83.9421L168.598 83.9455C168.077 84.6264 167.702 85.2103 167.448 85.6219C167.394 85.7105 167.342 85.7959 167.295 85.8733C167.237 85.9682 167.187 86.051 167.148 86.1122C167.113 86.1676 167.073 86.2295 167.033 86.2792C167.017 86.3004 166.979 86.3472 166.924 86.39C166.898 86.4108 166.841 86.4525 166.758 86.4792C166.668 86.5081 166.521 86.5261 166.369 86.4477C166.146 86.3334 166.107 86.1196 166.1 86.0668C166.09 85.9948 166.097 85.9366 166.101 85.9142C166.108 85.8625 166.123 85.8176 166.13 85.7944C166.148 85.7404 166.174 85.6774 166.201 85.6141C166.257 85.4838 166.342 85.3021 166.451 85.0783C166.562 84.839 166.711 84.5483 166.917 84.2299C166.955 84.1693 166.995 84.1023 167.039 84.0306C167.188 83.785 167.37 83.484 167.597 83.1941C168.129 82.4306 168.853 81.604 169.724 80.7742L169.724 80.7741L169.732 80.7671C170.628 79.9485 171.692 79.1287 172.908 78.4158L172.908 78.4158L172.914 78.4126C174.138 77.7165 175.381 77.2035 176.539 76.836L176.539 76.8358L176.549 76.8329C177.705 76.4923 178.784 76.2766 179.715 76.1957M176.943 78.1003L179.736 76.4467L179.7 76.1978C179.705 76.1971 179.71 76.1964 179.715 76.1957M183.156 76.7545C183.156 76.7524 183.156 76.7504 183.156 76.7483L182.657 76.7295M183.156 76.7545C183.156 76.7554 183.156 76.7564 183.156 76.7574L182.657 76.7295M183.156 76.7545C183.169 76.5029 183.002 76.3622 182.96 76.3295C182.903 76.2851 182.848 76.2628 182.827 76.2546C182.778 76.2355 182.732 76.2253 182.708 76.2204C182.653 76.2088 182.585 76.1996 182.516 76.1917C182.375 76.1754 182.174 76.1586 181.924 76.1415M182.657 76.7295C182.658 76.7099 182.485 76.6864 182.161 76.6604C182.182 76.5151 182.261 76.4154 182.321 76.3625C182.381 76.3091 182.438 76.2848 182.46 76.2761C182.487 76.2655 182.508 76.2605 182.517 76.2586C182.526 76.2564 182.532 76.2556 182.532 76.2555L182.533 76.2555C182.533 76.2554 182.525 76.2564 182.506 76.2578C182.488 76.2591 182.465 76.2604 182.435 76.2616C182.367 76.2644 182.287 76.2663 182.188 76.2686C182.111 76.2705 182.021 76.2726 181.917 76.2757L181.928 76.1419C181.927 76.1418 181.926 76.1416 181.924 76.1415M181.924 76.1415C181.923 76.1414 181.922 76.1413 181.92 76.1412L181.911 76.2758C181.897 76.2762 181.883 76.2767 181.869 76.2771C181.62 76.2848 181.317 76.2974 180.965 76.3223L180.958 76.1233C180.957 76.1234 180.955 76.1235 180.954 76.1235M181.924 76.1415C181.661 76.1193 181.335 76.1032 180.954 76.1235M180.954 76.1235C180.953 76.1236 180.951 76.1237 180.95 76.1237L180.96 76.3227C180.604 76.3481 180.198 76.3862 179.751 76.4449L179.729 76.1945C179.724 76.1949 179.72 76.1953 179.715 76.1957M180.954 76.1235C180.884 76.126 180.808 76.1277 180.727 76.1295C180.438 76.1358 180.083 76.1436 179.715 76.1957" fill="#192E35" stroke="#192E35"/>
<path d="M145.292 108.72H162.429V96.2701H145.292V108.72Z" fill="white"/>
<path d="M156.197 103.272C156.197 104.132 157.068 104.829 158.144 104.829C159.219 104.829 160.092 104.132 160.092 103.272C160.092 102.413 159.219 101.717 158.144 101.717C157.068 101.717 156.197 102.413 156.197 103.272Z" fill="#192E35"/>
<path d="M148.097 103.272H154.17C154.428 103.272 154.639 103.137 154.639 102.971V102.796C154.639 102.63 154.428 102.495 154.17 102.495H148.097C147.838 102.495 147.628 102.63 147.628 102.796V102.971C147.628 103.137 147.838 103.272 148.097 103.272Z" fill="#192E35"/>
<path d="M154.855 98.6045L156.197 94.714H151.523L152.659 98.6045H154.855Z" fill="#192E35"/>
<path d="M138.674 42.0453L149.19 46.0455L158.705 37.5455V25.5455L155.7 23.0455L158.705 18.0455C155.199 15.5455 146.185 11.0455 138.173 13.0455C130.186 15.0391 127.838 16.5358 127.658 17.0405C127.657 17.0421 127.657 17.0438 127.656 17.0454C127.657 17.0438 127.657 17.0422 127.658 17.0405C129.33 12.2054 135.773 2.2457 148.188 3.04543C160.608 3.84543 164.214 15.5457 164.214 21.0457L163.212 33.5453L162.711 44.0453C160.04 46.8786 154.079 53.1113 149.691 55.5453C145.184 58.0453 140.677 59.0453 138.674 59.0453V42.0453Z" fill="white"/>
<path d="M127.656 46.0461L138.673 42.0459V59.0459C137.672 59.0459 135.615 60.1397 131.162 57.5459C125.152 54.0459 124.651 48.0459 125.152 44.5459L127.656 46.0461Z" fill="white"/>
<path d="M139.647 45.4559C138.873 45.7281 138.018 45.8179 137.048 45.7301C136.149 45.6492 135.042 45.4954 134.459 45.0221C134.327 44.9155 134.307 44.7223 134.415 44.5914C134.521 44.4589 134.715 44.4384 134.847 44.5466C135.359 44.9606 136.626 45.0754 137.104 45.1185C138.164 45.2146 139.03 45.0894 139.828 44.7213C141.271 44.0576 142.291 42.9732 143.04 41.3114C143.11 41.1566 143.292 41.0875 143.446 41.1561C143.601 41.2264 143.671 41.4076 143.602 41.5619C142.788 43.3679 141.67 44.5479 140.085 45.279C139.942 45.3436 139.796 45.4036 139.647 45.4559Z" fill="#192E35"/>
<path fill-rule="evenodd" clip-rule="evenodd" d="M44 205.5C44 204.672 44.6716 204 45.5 204H229.503C230.331 204 231.003 204.672 231.003 205.5C231.003 206.328 230.331 207 229.503 207H45.5C44.6716 207 44 206.328 44 205.5Z" fill="#192E35"/>
</svg>
