<svg width="276" height="192" viewBox="0 0 276 192" fill="none" xmlns="http://www.w3.org/2000/svg">
<path d="M262.954 191L115.081 190.949L40.7725 190.923L36.6355 190.92L21.7068 190.918C21.7068 190.918 0.381795 173.582 0.0123887 149.075C-0.715534 100.785 30.893 122.536 26.5988 64.3361C22.6804 11.229 125.059 -17.4082 180.65 23.165C200.861 37.9162 202.446 48.2624 231.489 44.9913C264.273 41.2992 268.009 81.1426 256.535 103.229C240.253 134.567 301.681 129.419 262.954 191Z" fill="#F7F0FF"/>
<mask id="mask0_4951_23176" style="mask-type:alpha" maskUnits="userSpaceOnUse" x="0" y="4" width="276" height="187">
<path d="M262.954 191L115.081 190.949L40.7725 190.923L36.6355 190.92L21.7068 190.918C21.7068 190.918 0.381795 173.582 0.0123887 149.075C-0.715534 100.785 30.893 122.536 26.5988 64.3361C22.6804 11.229 125.059 -17.4082 180.65 23.165C200.861 37.9162 202.446 48.2624 231.489 44.9913C264.273 41.2992 268.009 81.1426 256.535 103.229C240.253 134.567 301.681 129.419 262.954 191Z" fill="#CEF7F3"/>
</mask>
<g mask="url(#mask0_4951_23176)">
<path d="M69.0001 108.125C45.3384 103.566 7.96161 117.156 7.96161 117.156H-5.30762V191H279.185V158.062C279.185 158.062 234.394 135.689 203.285 132.562C172.536 129.471 154.7 149.672 124.731 142.125C100.013 135.899 94.0291 112.947 69.0001 108.125Z" fill="#F1E6FF"/>
</g>
<path fill-rule="evenodd" clip-rule="evenodd" d="M158.163 37.3945C162.768 37.3945 166.499 33.6496 166.499 29.0324V10.3621C166.499 5.74398 162.768 2 158.163 2H81.2278C76.6231 2 72.8916 5.74398 72.8916 10.3621V29.0324C72.8916 33.6496 76.6231 37.3945 81.2278 37.3945H84.836V41.3968C84.836 46.0141 81.1053 49.7581 76.5006 49.7581H73.6088V49.8878C69.0771 49.9703 65.4263 53.6764 65.4263 58.2423V180.639C65.4263 185.255 69.1578 189 73.7625 189H165.629C170.234 189 173.966 185.255 173.966 180.639V58.2423C173.966 53.8389 170.572 50.2381 166.265 49.9113V49.7581H163.373C158.768 49.7581 155.038 46.0141 155.038 41.3968V37.3945H158.163Z" fill="#192E35"/>
<path fill-rule="evenodd" clip-rule="evenodd" d="M166.265 49.9113C170.572 50.2381 173.966 53.8389 173.966 58.2423V180.639C173.966 185.255 170.234 189 165.629 189H73.7625C69.1578 189 65.4263 185.255 65.4263 180.639V58.2423C65.4263 53.6764 69.0771 49.9703 73.6088 49.8878V49.7581H76.5006C81.1053 49.7581 84.836 46.0141 84.836 41.3968V37.3945H81.2278C76.6231 37.3945 72.8916 33.6496 72.8916 29.0324V10.3621C72.8916 5.74398 76.6231 2 81.2278 2H158.163C162.768 2 166.499 5.74398 166.499 10.3621V29.0324C166.499 33.6496 162.768 37.3945 158.163 37.3945H155.038V41.3968C155.038 46.0141 158.768 49.7581 163.373 49.7581H166.265V49.9113ZM157.038 39.3945H158.163C163.878 39.3945 168.499 34.748 168.499 29.0324V10.3621C168.499 4.64541 163.878 0 158.163 0H81.2278C75.5125 0 70.8916 4.64541 70.8916 10.3621V29.0324C70.8916 34.748 75.5124 39.3945 81.2278 39.3945H82.836V41.3968C82.836 44.9156 79.9947 47.7581 76.5006 47.7581H71.6088V48.1116C66.9324 49.1046 63.4263 53.2635 63.4263 58.2423V180.639C63.4263 186.354 68.0472 191 73.7625 191H165.629C171.345 191 175.966 186.354 175.966 180.639V58.2423C175.966 53.4347 172.699 49.3957 168.265 48.2276V47.7581H163.373C159.879 47.7581 157.038 44.9156 157.038 41.3968V39.3945Z" fill="#192E35"/>
<path d="M166.056 49.9114V49.7581H163.16C158.548 49.7581 154.812 46.0141 154.812 41.3969V21.7927H126.819C123.772 21.7927 121.114 23.4331 119.656 25.8752C118.199 23.4331 115.542 21.7927 112.493 21.7927H84.4997V41.3969C84.4997 46.0141 80.7632 49.7581 76.1513 49.7581H73.255V49.8878C68.7162 49.9704 65.0596 53.6764 65.0596 58.2423V180.639C65.0596 185.255 68.7969 189 73.4089 189H165.42C170.032 189 173.769 185.255 173.769 180.639V58.2423C173.769 53.839 170.371 50.2381 166.056 49.9114Z" fill="#E9ECEF"/>
<path d="M166.291 29.0324C166.291 33.6497 162.554 37.3945 157.942 37.3945H80.8859C76.2739 37.3945 72.5366 33.6497 72.5366 29.0324V10.3621C72.5366 5.74404 76.2739 2.00006 80.8859 2.00006H157.942C162.554 2.00006 166.291 5.74404 166.291 10.3621V29.0324Z" fill="#525657"/>
<path d="M173.769 180.639V58.2423C173.769 53.839 170.371 50.2381 166.056 49.9114V49.7581H163.16C158.548 49.7581 154.812 46.0141 154.812 41.3969V37.3944H147.568C147.199 42.4672 146.593 51.6723 152.641 52.9472C160.587 54.6247 163.107 57.9788 163.107 63.428C163.107 68.8781 163.107 179.131 163.107 179.131C163.107 179.131 163.22 189 150.185 189H165.42C170.032 189 173.769 185.255 173.769 180.639Z" fill="#ADB5BD"/>
<path d="M157.942 2.00006H149.568C154.18 2.00006 157.917 5.74404 157.917 10.3621V29.0324C157.917 33.6497 154.18 37.3945 149.568 37.3945H157.942C162.553 37.3945 166.291 33.6497 166.291 29.0324V10.3621C166.291 5.74404 162.553 2.00006 157.942 2.00006Z" fill="#101012"/>
<path d="M77.5479 7.9584V31.4346C77.5479 31.8977 77.9229 32.2725 78.3855 32.2725C78.8472 32.2725 79.2223 31.8977 79.2223 31.4346V7.9584C79.2223 7.49524 78.8472 7.12053 78.3855 7.12053C77.9229 7.12053 77.5479 7.49524 77.5479 7.9584Z" fill="#192E35"/>
<path d="M84.3862 7.9584V31.4346C84.3862 31.8977 84.7613 32.2725 85.223 32.2725C85.6856 32.2725 86.0606 31.8977 86.0606 31.4346V7.9584C86.0606 7.49524 85.6856 7.12053 85.223 7.12053C84.7613 7.12053 84.3862 7.49524 84.3862 7.9584Z" fill="#192E35"/>
<path d="M91.2261 7.9584V31.4346C91.2261 31.8977 91.6003 32.2725 92.0629 32.2725C92.5254 32.2725 92.9005 31.8977 92.9005 31.4346V7.9584C92.9005 7.49524 92.5254 7.12053 92.0629 7.12053C91.6003 7.12053 91.2261 7.49524 91.2261 7.9584Z" fill="#192E35"/>
<path d="M98.062 7.9584V31.4346C98.062 31.8977 98.4371 32.2725 98.8996 32.2725C99.3622 32.2725 99.7364 31.8977 99.7364 31.4346V7.9584C99.7364 7.49524 99.3622 7.12053 98.8996 7.12053C98.4371 7.12053 98.062 7.49524 98.062 7.9584Z" fill="#192E35"/>
<path d="M104.9 7.9584V31.4346C104.9 31.8977 105.275 32.2725 105.738 32.2725C106.2 32.2725 106.575 31.8977 106.575 31.4346V7.9584C106.575 7.49524 106.2 7.12053 105.738 7.12053C105.275 7.12053 104.9 7.49524 104.9 7.9584Z" fill="#192E35"/>
<path d="M111.739 7.9584V31.4346C111.739 31.8977 112.114 32.2725 112.576 32.2725C113.039 32.2725 113.413 31.8977 113.413 31.4346V7.9584C113.413 7.49524 113.039 7.12053 112.576 7.12053C112.114 7.12053 111.739 7.49524 111.739 7.9584Z" fill="#192E35"/>
<path d="M118.578 7.9584V31.4346C118.578 31.8977 118.952 32.2725 119.415 32.2725C119.877 32.2725 120.253 31.8977 120.253 31.4346V7.9584C120.253 7.49524 119.877 7.12053 119.415 7.12053C118.952 7.12053 118.578 7.49524 118.578 7.9584Z" fill="#192E35"/>
<path d="M125.414 7.9584V31.4346C125.414 31.8977 125.789 32.2725 126.251 32.2725C126.713 32.2725 127.088 31.8977 127.088 31.4346V7.9584C127.088 7.49524 126.713 7.12053 126.251 7.12053C125.789 7.12053 125.414 7.49524 125.414 7.9584Z" fill="#192E35"/>
<path d="M132.252 7.9584V31.4346C132.252 31.8977 132.628 32.2725 133.089 32.2725C133.552 32.2725 133.927 31.8977 133.927 31.4346V7.9584C133.927 7.49524 133.552 7.12053 133.089 7.12053C132.628 7.12053 132.252 7.49524 132.252 7.9584Z" fill="#192E35"/>
<path d="M139.09 7.9584V31.4346C139.09 31.8977 139.465 32.2725 139.927 32.2725C140.39 32.2725 140.764 31.8977 140.764 31.4346V7.9584C140.764 7.49524 140.39 7.12053 139.927 7.12053C139.465 7.12053 139.09 7.49524 139.09 7.9584Z" fill="#192E35"/>
<path d="M145.928 7.9584V31.4346C145.928 31.8977 146.303 32.2725 146.766 32.2725C147.228 32.2725 147.603 31.8977 147.603 31.4346V7.9584C147.603 7.49524 147.228 7.12053 146.766 7.12053C146.303 7.12053 145.928 7.49524 145.928 7.9584Z" fill="#192E35"/>
<path d="M152.767 7.9584V31.4346C152.767 31.8977 153.142 32.2725 153.605 32.2725C154.067 32.2725 154.442 31.8977 154.442 31.4346V7.9584C154.442 7.49524 154.067 7.12053 153.605 7.12053C153.142 7.12053 152.767 7.49524 152.767 7.9584Z" fill="#192E35"/>
<path d="M159.604 7.9584V31.4346C159.604 31.8977 159.978 32.2725 160.44 32.2725C160.903 32.2725 161.278 31.8977 161.278 31.4346V7.9584C161.278 7.49524 160.903 7.12053 160.44 7.12053C159.978 7.12053 159.604 7.49524 159.604 7.9584Z" fill="#192E35"/>
<path d="M85.3485 173.801C85.3485 177.084 82.6893 179.747 79.4154 179.747H78.7182C75.4426 179.747 72.7817 177.084 72.7817 173.801V66.7586C72.7817 63.4753 75.4426 60.8134 78.7182 60.8134H79.4154C82.6893 60.8134 85.3485 63.4753 85.3485 66.7586V173.801Z" fill="white"/>
<path d="M150.783 118.655C150.783 136.002 136.737 150.062 119.415 150.062C102.092 150.062 88.0488 136.002 88.0488 118.655C88.0488 101.309 102.092 87.2458 119.415 87.2458C136.737 87.2458 150.783 101.309 150.783 118.655Z" fill="#E31D25"/>
<path d="M125.893 137.027H112.938V100.28H125.893V137.027Z" fill="white"/>
<path d="M137.764 112.167V125.137H101.064V112.167H137.764Z" fill="white"/>
<path d="M175.368 189.155C166.443 189.155 159.207 181.93 159.207 173.025V171.133C159.207 162.225 166.443 155 175.368 155H227.792C236.717 155 243.953 162.225 243.953 171.133V173.025C243.953 181.93 236.717 189.155 227.792 189.155H175.368Z" fill="#192E35"/>
<path fill-rule="evenodd" clip-rule="evenodd" d="M157.204 173.025C157.204 183.035 165.337 191.155 175.369 191.155H227.792C237.823 191.155 245.957 183.035 245.957 173.025V171.133C245.957 161.12 237.823 153 227.792 153H175.369C165.337 153 157.204 161.12 157.204 171.133V173.025ZM159.207 173.025C159.207 181.93 166.443 189.155 175.369 189.155H227.792C236.717 189.155 243.954 181.93 243.954 173.025V171.133C243.954 162.225 236.717 155 227.792 155H175.369C166.443 155 159.207 162.225 159.207 171.133V173.025Z" fill="#192E35"/>
<path d="M175.368 189.155C166.443 189.155 159.207 181.93 159.207 173.025V171.133C159.207 162.225 166.443 155 175.368 155H227.792C236.717 155 243.953 162.225 243.953 171.133V173.025C243.953 181.93 236.717 189.155 227.792 189.155H175.368Z" fill="#192E35"/>
<path fill-rule="evenodd" clip-rule="evenodd" d="M157.204 173.025C157.204 183.035 165.337 191.155 175.369 191.155H227.792C237.823 191.155 245.957 183.035 245.957 173.025V171.133C245.957 161.12 237.823 153 227.792 153H175.369C165.337 153 157.204 161.12 157.204 171.133V173.025ZM159.207 173.025C159.207 181.93 166.443 189.155 175.369 189.155H227.792C236.717 189.155 243.954 181.93 243.954 173.025V171.133C243.954 162.225 236.717 155 227.792 155H175.369C166.443 155 159.207 162.225 159.207 171.133V173.025Z" fill="#192E35"/>
<path d="M175.368 189.155C166.443 189.155 159.207 181.93 159.207 173.025V171.133C159.207 162.225 166.443 155 175.368 155H227.792C236.717 155 243.953 162.225 243.953 171.133V173.025C243.953 181.93 236.717 189.155 227.792 189.155H175.368Z" fill="#F8F9FA"/>
<path d="M227.792 189.155C236.717 189.155 243.953 181.93 243.953 173.025V171.133C243.953 162.225 236.717 155 227.792 155H201.581V189.155H227.792Z" fill="#E31D25"/>
<path d="M175.368 181.145C167.494 181.145 160.942 175.515 159.507 168.073C159.316 169.063 159.207 170.087 159.207 171.133V173.025C159.207 181.93 166.443 189.155 175.368 189.155H201.581V181.145H175.368Z" fill="#E9ECEF"/>
<path d="M243.953 173.025V171.133C243.953 170.607 243.925 170.092 243.875 169.58C243.825 169.069 243.749 168.568 243.656 168.073C242.219 175.515 235.668 181.145 227.793 181.145H201.581V189.155H227.793C236.717 189.155 243.953 181.93 243.953 173.025Z" fill="#CB1E25"/>
<path d="M201.581 169.218H174.926C172.746 169.218 170.976 167.452 170.976 165.277V164.814C170.976 162.638 172.746 160.872 174.926 160.872H201.581V169.218Z" fill="#E9ECEF"/>
<path d="M228.236 169.218H201.581V160.872H228.236C230.418 160.872 232.185 162.638 232.185 164.814V165.277C232.185 167.452 230.418 169.218 228.236 169.218Z" fill="#EF4E62"/>
<path d="M212.769 166.155C221.694 166.155 228.93 158.93 228.93 150.025V148.133C228.93 139.225 221.694 132 212.769 132H160.345C151.42 132 144.184 139.225 144.184 148.133V150.025C144.184 158.93 151.42 166.155 160.345 166.155H212.769Z" fill="#192E35"/>
<path fill-rule="evenodd" clip-rule="evenodd" d="M230.933 150.025C230.933 160.035 222.8 168.155 212.769 168.155H160.345C150.314 168.155 142.18 160.035 142.18 150.025V148.133C142.18 138.12 150.314 130 160.345 130H212.769C222.8 130 230.933 138.12 230.933 148.133V150.025ZM228.93 150.025C228.93 158.93 221.694 166.155 212.769 166.155H160.345C151.42 166.155 144.184 158.93 144.184 150.025V148.133C144.184 139.225 151.42 132 160.345 132H212.769C221.694 132 228.93 139.225 228.93 148.133V150.025Z" fill="#192E35"/>
<path d="M212.769 166.155C221.694 166.155 228.93 158.93 228.93 150.025V148.133C228.93 139.225 221.694 132 212.769 132H160.345C151.42 132 144.184 139.225 144.184 148.133V150.025C144.184 158.93 151.42 166.155 160.345 166.155H212.769Z" fill="#192E35"/>
<path fill-rule="evenodd" clip-rule="evenodd" d="M230.933 150.025C230.933 160.035 222.8 168.155 212.769 168.155H160.345C150.314 168.155 142.18 160.035 142.18 150.025V148.133C142.18 138.12 150.314 130 160.345 130H212.769C222.8 130 230.933 138.12 230.933 148.133V150.025ZM228.93 150.025C228.93 158.93 221.694 166.155 212.769 166.155H160.345C151.42 166.155 144.184 158.93 144.184 150.025V148.133C144.184 139.225 151.42 132 160.345 132H212.769C221.694 132 228.93 139.225 228.93 148.133V150.025Z" fill="#192E35"/>
<path d="M212.769 166.155C221.694 166.155 228.93 158.93 228.93 150.025V148.133C228.93 139.225 221.694 132 212.769 132H160.345C151.42 132 144.184 139.225 144.184 148.133V150.025C144.184 158.93 151.42 166.155 160.345 166.155H212.769Z" fill="#FBBE15"/>
<path d="M160.345 166.155C151.42 166.155 144.184 158.93 144.184 150.025V148.133C144.184 139.225 151.42 132 160.345 132H186.557V166.155H160.345Z" fill="#E31D25"/>
<path d="M212.769 158.145C220.644 158.145 227.196 152.515 228.63 145.073C228.821 146.063 228.93 147.087 228.93 148.133V150.025C228.93 158.93 221.694 166.155 212.769 166.155H186.557V158.145H212.769Z" fill="#F2A60E"/>
<path d="M144.184 150.025V148.133C144.184 147.607 144.212 147.092 144.262 146.58C144.313 146.069 144.388 145.568 144.482 145.073C145.918 152.515 152.469 158.145 160.344 158.145H186.557V166.155H160.344C151.42 166.155 144.184 158.93 144.184 150.025Z" fill="#CB1E25"/>
<path d="M186.556 146.218H213.211C215.391 146.218 217.161 144.452 217.161 142.277V141.814C217.161 139.638 215.391 137.872 213.211 137.872H186.556V146.218Z" fill="#FCD962"/>
<path d="M159.901 146.218H186.557V137.872H159.901C157.719 137.872 155.952 139.638 155.952 141.814V142.277C155.952 144.452 157.719 146.218 159.901 146.218Z" fill="#EF4E62"/>
<path d="M149.327 189.155C140.402 189.155 133.166 181.93 133.166 173.025V171.133C133.166 162.225 140.402 155 149.327 155H201.751C210.676 155 217.912 162.225 217.912 171.133V173.025C217.912 181.93 210.676 189.155 201.751 189.155H149.327Z" fill="#192E35"/>
<path fill-rule="evenodd" clip-rule="evenodd" d="M131.163 173.025C131.163 183.035 139.296 191.155 149.328 191.155H201.751C211.782 191.155 219.916 183.035 219.916 173.025V171.133C219.916 161.12 211.782 153 201.751 153H149.328C139.296 153 131.163 161.12 131.163 171.133V173.025ZM133.166 173.025C133.166 181.93 140.402 189.155 149.328 189.155H201.751C210.676 189.155 217.913 181.93 217.913 173.025V171.133C217.913 162.225 210.676 155 201.751 155H149.328C140.402 155 133.166 162.225 133.166 171.133V173.025Z" fill="#192E35"/>
<path d="M149.327 189.155C140.402 189.155 133.166 181.93 133.166 173.025V171.133C133.166 162.225 140.402 155 149.327 155H201.751C210.676 155 217.912 162.225 217.912 171.133V173.025C217.912 181.93 210.676 189.155 201.751 189.155H149.327Z" fill="#FBBE15"/>
<path d="M201.751 189.155C210.676 189.155 217.912 181.93 217.912 173.025V171.133C217.912 162.225 210.676 155 201.751 155H175.54V189.155H201.751Z" fill="#E31D25"/>
<path d="M149.327 181.145C141.453 181.145 134.901 175.515 133.466 168.073C133.275 169.063 133.166 170.087 133.166 171.133V173.025C133.166 181.93 140.402 189.155 149.327 189.155H175.54V181.145H149.327Z" fill="#F2A60E"/>
<path d="M217.912 173.025V171.133C217.912 170.607 217.884 170.092 217.834 169.58C217.784 169.069 217.708 168.568 217.615 168.073C216.178 175.515 209.627 181.145 201.752 181.145H175.54V189.155H201.752C210.676 189.155 217.912 181.93 217.912 173.025Z" fill="#CB1E25"/>
<path d="M175.54 169.218H148.885C146.705 169.218 144.935 167.452 144.935 165.277V164.814C144.935 162.638 146.705 160.872 148.885 160.872H175.54V169.218Z" fill="#FCD962"/>
<path d="M202.195 169.218H175.54V160.872H202.195C204.377 160.872 206.144 162.638 206.144 164.814V165.277C206.144 167.452 204.377 169.218 202.195 169.218Z" fill="#EF4E62"/>
</svg>
