<svg width="276" height="213" viewBox="0 0 276 213" fill="none" xmlns="http://www.w3.org/2000/svg">
<path d="M262.954 208L115.081 207.949L40.7725 207.923L36.6355 207.92L21.7068 207.918C21.7068 207.918 0.381795 190.582 0.0123887 166.075C-0.715534 117.785 30.893 139.536 26.5988 81.3361C22.6804 28.229 125.059 -0.408234 180.65 40.165C200.861 54.9162 202.446 65.2624 231.489 61.9913C264.273 58.2992 268.009 98.1426 256.535 120.229C240.253 151.567 301.681 146.419 262.954 208Z" fill="#F7F0FF"/>
<mask id="mask0_4951_23189" style="mask-type:alpha" maskUnits="userSpaceOnUse" x="0" y="21" width="276" height="187">
<path d="M262.954 208L115.081 207.949L40.7725 207.923L36.6355 207.92L21.7068 207.918C21.7068 207.918 0.381795 190.582 0.0123887 166.075C-0.715534 117.785 30.893 139.536 26.5988 81.3361C22.6804 28.229 125.059 -0.408234 180.65 40.165C200.861 54.9162 202.446 65.2624 231.489 61.9913C264.273 58.2992 268.009 98.1426 256.535 120.229C240.253 151.567 301.681 146.419 262.954 208Z" fill="#CEF7F3"/>
</mask>
<g mask="url(#mask0_4951_23189)">
<path d="M69.0001 125.125C45.3384 120.566 7.96161 134.156 7.96161 134.156H-5.30762V208H279.185V175.062C279.185 175.062 234.394 152.689 203.285 149.562C172.536 146.471 154.7 166.672 124.731 159.125C100.013 152.899 94.0291 129.947 69.0001 125.125Z" fill="#F1E6FF"/>
</g>
<path fill-rule="evenodd" clip-rule="evenodd" d="M44 206.5C44 205.672 44.6716 205 45.5 205H229.503C230.331 205 231.003 205.672 231.003 206.5C231.003 207.328 230.331 208 229.503 208H45.5C44.6716 208 44 207.328 44 206.5Z" fill="#192E35"/>
<path fill-rule="evenodd" clip-rule="evenodd" d="M99.4338 1H114.637V12C114.637 13.3807 113.516 14.5 112.134 14.5C110.751 14.5 109.63 13.3807 109.63 12V6H101.797L96.1084 12.8969V185.5C96.1084 186.881 94.9874 188 93.6045 188C92.2216 188 91.1006 186.881 91.1006 185.5V11.1031L99.4338 1Z" fill="#62947B" stroke="#192E35" stroke-width="1.5" stroke-linecap="round"/>
<path d="M132.448 25.9058L106.614 34.6957C106.614 34.6957 98.2932 19.1804 104.903 15.8898C111.006 12.8517 118.003 11.1128 122.301 9.97001C129.438 8.0723 132.448 25.9058 132.448 25.9058Z" fill="#46E4AA"/>
<path fill-rule="evenodd" clip-rule="evenodd" d="M131.59 25.4053L106.986 33.777C106.972 33.7485 106.957 33.7191 106.942 33.6887C106.731 33.2655 106.436 32.6557 106.103 31.9132C105.434 30.4253 104.615 28.4172 104.001 26.3168C103.383 24.204 102.992 22.0584 103.131 20.2748C103.268 18.506 103.909 17.2228 105.238 16.5612C110.838 13.7734 117.213 12.0901 121.552 10.9443C121.878 10.8582 122.192 10.7752 122.494 10.695C123.908 10.319 125.164 10.8778 126.343 12.1655C127.535 13.4682 128.54 15.4172 129.351 17.4983C130.156 19.5659 130.746 21.7002 131.135 23.3237C131.33 24.134 131.473 24.8135 131.568 25.2895C131.576 25.3295 131.583 25.3682 131.59 25.4053ZM106.614 34.6959C105.952 35.0499 105.952 35.0498 105.952 35.0495L105.95 35.046L105.945 35.0365L105.926 35.0009C105.918 34.9862 105.909 34.9683 105.898 34.9473C105.885 34.9239 105.871 34.8966 105.855 34.8656C105.794 34.7479 105.706 34.5761 105.597 34.3569C105.379 33.9187 105.075 33.2907 104.732 32.5273C104.047 31.0032 103.199 28.9268 102.559 26.7371C101.922 24.5597 101.473 22.2095 101.633 20.1585C101.794 18.0927 102.592 16.2024 104.568 15.2188C110.312 12.3589 116.828 10.6393 121.153 9.49789C121.485 9.41044 121.803 9.32639 122.108 9.24548C124.262 8.67257 126.059 9.63135 127.452 11.1537C128.831 12.661 129.917 14.8145 130.751 16.9546C131.59 19.1082 132.198 21.3136 132.596 22.9746C132.796 23.8066 132.943 24.5054 133.041 24.9973C133.09 25.2434 133.127 25.4378 133.151 25.5715C133.163 25.6384 133.172 25.6901 133.179 25.7254L133.186 25.7661L133.188 25.7769L133.188 25.78C133.188 25.7802 133.188 25.7814 132.448 25.906L133.188 25.7814L133.294 26.4102L106.253 35.6112L105.952 35.0495L106.614 34.6959Z" fill="#192E35"/>
<path d="M138.551 25.8694C138.089 24.5608 136.652 23.8738 135.342 24.3349L104.491 35.1883C103.181 35.6494 102.492 37.084 102.954 38.3926C103.416 39.7012 104.853 40.3882 106.164 39.9271L137.014 29.0737C138.325 28.6126 139.013 27.178 138.551 25.8694Z" fill="white"/>
<path fill-rule="evenodd" clip-rule="evenodd" d="M104.99 36.6031L135.841 25.7496C136.369 25.5638 136.948 25.8407 137.134 26.3679C137.32 26.8951 137.043 27.4732 136.515 27.6589L105.664 38.5124C105.136 38.6982 104.557 38.4214 104.371 37.8941C104.185 37.3669 104.462 36.7889 104.99 36.6031ZM135.342 24.3349C136.652 23.8738 138.089 24.5608 138.551 25.8694C139.013 27.178 138.325 28.6126 137.014 29.0737L106.164 39.9271C104.853 40.3882 103.416 39.7012 102.954 38.3926C102.492 37.084 103.181 35.6494 104.491 35.1883L135.342 24.3349Z" fill="#192E35"/>
<path d="M106.74 59.1977C109.821 87.2371 113.685 122.397 116.193 127.155C118.207 130.976 116.314 144.253 114.332 158.157C112.675 169.784 110.954 181.849 111.404 189.192H119.38C120.452 177.199 122.544 155.756 123.902 148.744C125.363 141.195 121.344 106.342 119.152 89.8585C124.267 107.977 134.79 147.99 135.959 163.088C136.908 175.342 134.391 184.447 132.237 189.192H141.062C157.553 178.182 152.026 164.284 146.365 150.046C143.45 142.715 140.499 135.294 140.499 128.131C140.499 125.306 140.686 122.422 140.892 119.253C141.781 105.565 143.016 86.5639 130.987 44.0693C134.639 53.2909 137.593 67.518 140.729 82.6179C146.387 109.871 152.637 139.966 164.645 148.608C175.944 156.738 165.084 182.591 155 189.192H175.757C178.725 168.777 181.884 135.919 181.189 106.518C178.587 107.615 177.05 106.816 179.781 100.791C183.167 93.3237 173.769 84.0332 165.535 75.8928C159.806 70.2286 154.64 65.1212 154.735 61.5724C154.921 54.6531 140.803 41.7912 133.721 36.2252L143.517 41.8798C146.303 43.4882 156.866 55.271 166.63 66.164C171.335 71.4127 174.361 77.9023 177.736 81.5C175.778 67.3832 160.761 55.2752 155 49C135.475 27.7331 140.678 30.5 137.674 28.5L105.123 40C105.732 45.3105 106.017 52.6132 106.74 59.1931L106.74 59.1948L106.74 59.1977Z" fill="#71B8FF"/>
<ellipse cx="5.54771" cy="5.53902" rx="5.54771" ry="5.53902" transform="matrix(-1 0 0 1 168.167 42.6201)" fill="#D06E63"/>
<ellipse cx="3.69847" cy="3.69268" rx="3.69847" ry="3.69268" transform="matrix(-1 0 0 1 162.249 66.9912)" fill="#D06E63"/>
<ellipse cx="3.69847" cy="3.69268" rx="3.69847" ry="3.69268" transform="matrix(-1 0 0 1 124.524 87.6709)" fill="white"/>
<ellipse cx="3.69847" cy="3.69268" rx="3.69847" ry="3.69268" transform="matrix(-1 0 0 1 107.512 78.0703)" fill="#71B8FF"/>
<ellipse cx="3.69847" cy="3.69268" rx="3.69847" ry="3.69268" transform="matrix(-1 0 0 1 117.127 102.441)" fill="#71B8FF"/>
<ellipse cx="3.69847" cy="3.69268" rx="3.69847" ry="3.69268" transform="matrix(-1 0 0 1 183.7 61.8223)" fill="#D06E63"/>
<ellipse cx="1.84924" cy="1.84634" rx="1.84924" ry="1.84634" transform="matrix(-1 0 0 1 138.579 70.6846)" fill="#D06E63"/>
<ellipse cx="1.84924" cy="1.84634" rx="1.84924" ry="1.84634" transform="matrix(-1 0 0 1 157.071 123.859)" fill="#D06E63"/>
<ellipse cx="1.84924" cy="1.84634" rx="1.84924" ry="1.84634" transform="matrix(-1 0 0 1 145.976 110.565)" fill="#D06E63"/>
<ellipse cx="1.84924" cy="1.84634" rx="1.84924" ry="1.84634" transform="matrix(-1 0 0 1 169.646 98.749)" fill="#D06E63"/>
<ellipse cx="1.84924" cy="1.84634" rx="1.84924" ry="1.84634" transform="matrix(-1 0 0 1 124.524 66.9912)" fill="#D06E63"/>
<ellipse cx="1.84924" cy="1.84634" rx="1.84924" ry="1.84634" transform="matrix(-1 0 0 1 136.36 55.9131)" fill="#D06E63"/>
<mask id="mask1_4951_23189" style="mask-type:alpha" maskUnits="userSpaceOnUse" x="102" y="34" width="99" height="172">
<rect x="102" y="34" width="99" height="171.212" fill="#D9D9D9"/>
</mask>
<g mask="url(#mask1_4951_23189)">
<mask id="path-24-outside-1_4951_23189" maskUnits="userSpaceOnUse" x="101.121" y="37.1055" width="95" height="344" fill="black">
<rect fill="white" x="101.121" y="37.1055" width="95" height="344"/>
<path fill-rule="evenodd" clip-rule="evenodd" d="M118.983 55.2405C120.581 54.7016 139.113 52.1397 152.27 50.3621C152.512 50.216 152.77 50.0965 153.041 50.0088C151.396 48.3884 151.805 45.3476 153.612 43.9089C155.419 42.4703 158.151 42.5648 160.115 43.7804C159.893 42.3913 160.915 41.0196 162.214 40.4734C163.513 39.928 165.002 40.0584 166.364 40.4155C167.254 40.6482 168.169 41.0374 168.909 41.5901C169.199 41.3953 169.545 41.1777 169.71 41.1274C170.025 41.0301 170.387 40.9576 170.822 41.1274C171.1 41.2347 171.299 42.0802 171.406 42.6774C171.429 42.8049 171.484 42.9214 171.561 43.0178C172.047 42.8441 172.604 42.7997 173.135 42.8525C173.361 42.7383 173.555 42.6469 173.601 42.6469C173.612 42.6469 173.627 42.6465 173.645 42.646C173.826 42.6411 174.346 42.6269 174.784 42.9122C174.917 42.9984 175.065 43.102 175.223 43.2121C175.749 43.5801 176.378 44.0208 176.898 44.1236C177.008 44.1453 177.117 44.1826 177.225 44.2389C177.741 44.5091 177.844 45.1928 177.827 45.7711C177.819 46.0644 178.219 46.2826 178.506 46.2165C178.819 46.1449 179.617 46.458 179.882 46.8922C179.992 47.0722 180.042 47.3436 180.061 47.5996C180.096 48.0475 179.89 48.4695 179.581 48.7953L178.638 49.7869C179.741 49.5925 180.906 49.5608 181.919 50.0217C183.004 50.5156 183.838 51.711 183.585 52.8743C184.491 52.1269 185.839 52.272 186.944 52.6714C187.741 52.9596 188.526 53.3829 189.018 54.0733C189.51 54.7628 189.632 55.7681 189.123 56.4457C190.758 56.566 192.171 58.068 192.189 59.704C192.202 60.8807 191.493 62.0043 190.487 62.6008C190.489 62.6873 190.49 62.7737 190.491 62.86C190.495 63.8047 190.385 64.7755 189.982 65.6248C189.968 66.1342 189.865 66.6406 189.668 67.1114C189.277 68.0427 188.529 68.8117 187.625 69.2605C187.617 70.1864 187.358 71.1112 186.863 71.8951C186.128 73.0586 184.886 73.8867 183.533 74.1383L182.403 77.5139C183.274 78.1711 183.841 79.3328 183.214 81.381C182.306 84.3517 180.236 84.5605 178.782 84.2473C178.664 84.3356 178.543 84.4191 178.418 84.4973L172.242 102.697C173.344 103.876 174.502 105.555 175.421 107.921C177.954 114.438 173.613 124.865 173.613 124.865L169.533 134.97C169.897 135.449 170.188 135.991 170.387 136.584C171.265 139.192 170.123 142.003 167.809 143.314C168.229 145.572 166.929 147.861 164.69 148.617C164.444 148.7 164.197 148.761 163.949 148.802L159.141 160.712C159.141 160.712 159.142 163.588 159.328 166.647C159.562 166.541 159.804 166.445 160.053 166.361C163.357 165.246 166.897 166.503 168.813 169.211C172.823 167.905 177.157 170.074 178.502 174.074C179.054 175.715 179.032 177.438 178.503 179.001C181.317 180.108 183.579 182.408 184.582 185.391C186.208 190.223 184.092 195.431 179.805 197.858C180.583 202.04 178.176 206.281 174.027 207.682C173.5 207.86 172.967 207.985 172.434 208.058C172.354 208.459 172.265 208.862 172.165 209.267C171.486 212.034 169.324 215.916 167.153 219.345C167.484 219.728 167.716 220.23 167.812 220.782C167.91 221.385 167.835 222.089 167.459 222.678C169.335 222.735 171.435 224.114 172.054 226.409C172.691 228.708 171.102 231.609 168.388 232.279C169.373 233.552 170.017 235.192 170.023 236.941C170.022 237.872 169.843 238.832 169.418 239.71C168.999 240.589 168.343 241.367 167.535 241.956C167.066 242.303 166.541 242.588 165.979 242.788C165.973 242.951 165.966 243.112 165.958 243.271C165.558 250.838 163.357 271.017 163.357 271.017C163.357 271.017 167.127 280.139 170.758 289.213C173.507 296.083 175.619 317.787 176.051 326.81L180.83 369.02L152.676 371.349C153.087 368.033 165.846 363.394 165.846 363.394L160.415 344.851L140.167 282.547C140.167 282.547 139.403 278.271 138.472 272.951C137.528 274.464 136.693 275.801 135.984 276.938L134.995 278.523C134.526 279.282 134.152 279.886 133.872 280.34C133.612 280.753 133.469 280.967 133.454 280.959L133.454 280.959L134.359 284.869C134.359 284.869 143.222 295.297 147.021 306.051C150.82 316.805 156.031 342.693 156.031 342.693L161.431 361.823L130.54 376.345C129.534 373.204 144.112 361.465 144.501 361.151L144.509 361.145L138.339 348.904L138.324 348.878L138.324 348.878C137.528 347.522 105.76 293.424 104.331 286.987C102.883 280.471 109.396 254.726 109.396 254.726C109.396 254.726 119 218.844 122.63 204.417C121.683 204.144 120.766 203.737 119.911 203.193C116.575 205.839 111.695 205.704 108.511 202.701C105.026 199.413 104.874 193.912 108.173 190.439C109.324 189.228 110.798 188.389 112.392 187.993C112.024 184.607 113.14 181.145 115.547 178.612C116.627 177.475 117.895 176.59 119.268 175.973C118.928 164.582 121.389 147.653 122.869 143.922C123.389 142.611 123.557 141.294 123.554 139.984C122.627 139.585 121.763 138.998 121.024 138.225C118.6 135.692 118.241 131.936 119.898 129.04C117.001 125.947 117.138 121.082 120.218 118.154C121.481 116.954 123.064 116.241 124.714 116.059C124.529 113.026 125.668 109.989 127.963 107.807C130.49 105.406 133.91 104.502 137.11 105.068C136.459 104.459 135.786 103.825 135.097 103.167C135.08 103.195 135.06 103.221 135.037 103.246C134.848 103.448 134.532 103.459 134.33 103.27C130.551 99.7434 125.254 93.6917 120.851 87.4684C118.648 84.3557 116.661 81.1896 115.198 78.2659C113.74 75.3543 112.777 72.6346 112.672 70.4284C112.662 70.2286 112.771 70.0507 112.937 69.9627C112.152 67.6727 111.764 66.0245 111.847 65.4269C112.148 63.2691 113.076 60.9951 113.502 59.9524C113.536 59.8678 113.568 59.7913 113.595 59.7236C113.958 58.823 116.484 56.0815 118.983 55.2405ZM114.368 73.7404C114.782 74.9988 115.367 76.3695 116.092 77.8183C116.345 78.3248 116.615 78.8393 116.9 79.3602C115.93 77.3831 115.08 75.4779 114.368 73.7404ZM146.896 81.1397C141.764 76.12 136.836 71.1723 134.184 68.2273L149.896 62.5725C149.722 64.0023 149.951 65.4827 150.6 66.7678C149.012 71.2193 147.626 75.7073 147.11 78.9982C146.993 79.7481 146.924 80.4616 146.896 81.1397Z"/>
</mask>
<path fill-rule="evenodd" clip-rule="evenodd" d="M118.983 55.2405C120.581 54.7016 139.113 52.1397 152.27 50.3621C152.512 50.216 152.77 50.0965 153.041 50.0088C151.396 48.3884 151.805 45.3476 153.612 43.9089C155.419 42.4703 158.151 42.5648 160.115 43.7804C159.893 42.3913 160.915 41.0196 162.214 40.4734C163.513 39.928 165.002 40.0584 166.364 40.4155C167.254 40.6482 168.169 41.0374 168.909 41.5901C169.199 41.3953 169.545 41.1777 169.71 41.1274C170.025 41.0301 170.387 40.9576 170.822 41.1274C171.1 41.2347 171.299 42.0802 171.406 42.6774C171.429 42.8049 171.484 42.9214 171.561 43.0178C172.047 42.8441 172.604 42.7997 173.135 42.8525C173.361 42.7383 173.555 42.6469 173.601 42.6469C173.612 42.6469 173.627 42.6465 173.645 42.646C173.826 42.6411 174.346 42.6269 174.784 42.9122C174.917 42.9984 175.065 43.102 175.223 43.2121C175.749 43.5801 176.378 44.0208 176.898 44.1236C177.008 44.1453 177.117 44.1826 177.225 44.2389C177.741 44.5091 177.844 45.1928 177.827 45.7711C177.819 46.0644 178.219 46.2826 178.506 46.2165C178.819 46.1449 179.617 46.458 179.882 46.8922C179.992 47.0722 180.042 47.3436 180.061 47.5996C180.096 48.0475 179.89 48.4695 179.581 48.7953L178.638 49.7869C179.741 49.5925 180.906 49.5608 181.919 50.0217C183.004 50.5156 183.838 51.711 183.585 52.8743C184.491 52.1269 185.839 52.272 186.944 52.6714C187.741 52.9596 188.526 53.3829 189.018 54.0733C189.51 54.7628 189.632 55.7681 189.123 56.4457C190.758 56.566 192.171 58.068 192.189 59.704C192.202 60.8807 191.493 62.0043 190.487 62.6008C190.489 62.6873 190.49 62.7737 190.491 62.86C190.495 63.8047 190.385 64.7755 189.982 65.6248C189.968 66.1342 189.865 66.6406 189.668 67.1114C189.277 68.0427 188.529 68.8117 187.625 69.2605C187.617 70.1864 187.358 71.1112 186.863 71.8951C186.128 73.0586 184.886 73.8867 183.533 74.1383L182.403 77.5139C183.274 78.1711 183.841 79.3328 183.214 81.381C182.306 84.3517 180.236 84.5605 178.782 84.2473C178.664 84.3356 178.543 84.4191 178.418 84.4973L172.242 102.697C173.344 103.876 174.502 105.555 175.421 107.921C177.954 114.438 173.613 124.865 173.613 124.865L169.533 134.97C169.897 135.449 170.188 135.991 170.387 136.584C171.265 139.192 170.123 142.003 167.809 143.314C168.229 145.572 166.929 147.861 164.69 148.617C164.444 148.7 164.197 148.761 163.949 148.802L159.141 160.712C159.141 160.712 159.142 163.588 159.328 166.647C159.562 166.541 159.804 166.445 160.053 166.361C163.357 165.246 166.897 166.503 168.813 169.211C172.823 167.905 177.157 170.074 178.502 174.074C179.054 175.715 179.032 177.438 178.503 179.001C181.317 180.108 183.579 182.408 184.582 185.391C186.208 190.223 184.092 195.431 179.805 197.858C180.583 202.04 178.176 206.281 174.027 207.682C173.5 207.86 172.967 207.985 172.434 208.058C172.354 208.459 172.265 208.862 172.165 209.267C171.486 212.034 169.324 215.916 167.153 219.345C167.484 219.728 167.716 220.23 167.812 220.782C167.91 221.385 167.835 222.089 167.459 222.678C169.335 222.735 171.435 224.114 172.054 226.409C172.691 228.708 171.102 231.609 168.388 232.279C169.373 233.552 170.017 235.192 170.023 236.941C170.022 237.872 169.843 238.832 169.418 239.71C168.999 240.589 168.343 241.367 167.535 241.956C167.066 242.303 166.541 242.588 165.979 242.788C165.973 242.951 165.966 243.112 165.958 243.271C165.558 250.838 163.357 271.017 163.357 271.017C163.357 271.017 167.127 280.139 170.758 289.213C173.507 296.083 175.619 317.787 176.051 326.81L180.83 369.02L152.676 371.349C153.087 368.033 165.846 363.394 165.846 363.394L160.415 344.851L140.167 282.547C140.167 282.547 139.403 278.271 138.472 272.951C137.528 274.464 136.693 275.801 135.984 276.938L134.995 278.523C134.526 279.282 134.152 279.886 133.872 280.34C133.612 280.753 133.469 280.967 133.454 280.959L133.454 280.959L134.359 284.869C134.359 284.869 143.222 295.297 147.021 306.051C150.82 316.805 156.031 342.693 156.031 342.693L161.431 361.823L130.54 376.345C129.534 373.204 144.112 361.465 144.501 361.151L144.509 361.145L138.339 348.904L138.324 348.878L138.324 348.878C137.528 347.522 105.76 293.424 104.331 286.987C102.883 280.471 109.396 254.726 109.396 254.726C109.396 254.726 119 218.844 122.63 204.417C121.683 204.144 120.766 203.737 119.911 203.193C116.575 205.839 111.695 205.704 108.511 202.701C105.026 199.413 104.874 193.912 108.173 190.439C109.324 189.228 110.798 188.389 112.392 187.993C112.024 184.607 113.14 181.145 115.547 178.612C116.627 177.475 117.895 176.59 119.268 175.973C118.928 164.582 121.389 147.653 122.869 143.922C123.389 142.611 123.557 141.294 123.554 139.984C122.627 139.585 121.763 138.998 121.024 138.225C118.6 135.692 118.241 131.936 119.898 129.04C117.001 125.947 117.138 121.082 120.218 118.154C121.481 116.954 123.064 116.241 124.714 116.059C124.529 113.026 125.668 109.989 127.963 107.807C130.49 105.406 133.91 104.502 137.11 105.068C136.459 104.459 135.786 103.825 135.097 103.167C135.08 103.195 135.06 103.221 135.037 103.246C134.848 103.448 134.532 103.459 134.33 103.27C130.551 99.7434 125.254 93.6917 120.851 87.4684C118.648 84.3557 116.661 81.1896 115.198 78.2659C113.74 75.3543 112.777 72.6346 112.672 70.4284C112.662 70.2286 112.771 70.0507 112.937 69.9627C112.152 67.6727 111.764 66.0245 111.847 65.4269C112.148 63.2691 113.076 60.9951 113.502 59.9524C113.536 59.8678 113.568 59.7913 113.595 59.7236C113.958 58.823 116.484 56.0815 118.983 55.2405ZM114.368 73.7404C114.782 74.9988 115.367 76.3695 116.092 77.8183C116.345 78.3248 116.615 78.8393 116.9 79.3602C115.93 77.3831 115.08 75.4779 114.368 73.7404ZM146.896 81.1397C141.764 76.12 136.836 71.1723 134.184 68.2273L149.896 62.5725C149.722 64.0023 149.951 65.4827 150.6 66.7678C149.012 71.2193 147.626 75.7073 147.11 78.9982C146.993 79.7481 146.924 80.4616 146.896 81.1397Z" fill="#192E35"/>
<path d="M152.27 50.3621L152.672 53.3351L153.289 53.2517L153.822 52.9296L152.27 50.3621ZM118.983 55.2405L119.94 58.0838L119.942 58.0832L118.983 55.2405ZM153.041 50.0088L153.964 52.8633L158.669 51.3419L155.146 47.8716L153.041 50.0088ZM153.612 43.9089L155.481 46.2559L153.612 43.9089ZM160.115 43.7804L158.536 46.3314L164.115 49.784L163.077 43.3058L160.115 43.7804ZM162.214 40.4734L161.053 37.7074L161.052 37.7078L162.214 40.4734ZM166.364 40.4155L165.604 43.3175L165.606 43.318L166.364 40.4155ZM168.909 41.5901L167.114 43.9937L168.815 45.2647L170.579 44.0819L168.909 41.5901ZM169.71 41.1274L170.584 43.9974L170.597 43.9934L169.71 41.1274ZM170.822 41.1274L169.731 43.9219L169.741 43.9259L170.822 41.1274ZM171.406 42.6774L174.359 42.1457L174.359 42.1456L171.406 42.6774ZM171.561 43.0178L169.22 44.8937L170.557 46.5622L172.57 45.8429L171.561 43.0178ZM173.135 42.8525L172.838 45.8378L173.71 45.9245L174.491 45.5287L173.135 42.8525ZM173.645 42.646L173.563 39.6471L173.563 39.6471L173.645 42.646ZM174.784 42.9122L173.149 45.4271L173.154 45.4307L174.784 42.9122ZM175.223 43.2121L173.503 45.67L173.503 45.67L175.223 43.2121ZM176.898 44.1236L176.316 47.0666L176.316 47.0666L176.898 44.1236ZM177.225 44.2389L175.832 46.8958L175.834 46.8968L177.225 44.2389ZM177.827 45.7711L174.829 45.6864L174.829 45.6865L177.827 45.7711ZM178.506 46.2165L177.838 43.2918L177.832 43.2932L178.506 46.2165ZM179.882 46.8922L177.323 48.4581L177.323 48.4582L179.882 46.8922ZM180.061 47.5996L183.053 47.3681L183.052 47.368L180.061 47.5996ZM179.581 48.7953L177.407 46.7279L177.407 46.7279L179.581 48.7953ZM178.638 49.7869L176.464 47.7195L170.184 54.3224L179.158 52.7414L178.638 49.7869ZM181.919 50.0217L183.163 47.2917L183.161 47.2908L181.919 50.0217ZM183.585 52.8743L180.653 52.237L178.813 60.7005L185.494 55.1883L183.585 52.8743ZM186.944 52.6714L187.964 49.8501L187.963 49.8499L186.944 52.6714ZM189.018 54.0733L186.575 55.8142L186.576 55.8158L189.018 54.0733ZM189.123 56.4457L186.724 54.6449L183.429 59.0349L188.903 59.4376L189.123 56.4457ZM192.189 59.704L195.189 59.6703V59.6703L192.189 59.704ZM190.487 62.6008L188.957 60.0202L187.438 60.9203L187.488 62.6847L190.487 62.6008ZM190.491 62.86L193.491 62.8468L193.491 62.8439L190.491 62.86ZM189.982 65.6248L187.272 64.3384L187 64.9115L186.983 65.5456L189.982 65.6248ZM189.668 67.1114L186.901 65.9513L186.901 65.9523L189.668 67.1114ZM187.625 69.2605L186.291 66.5733L184.641 67.3924L184.625 69.2346L187.625 69.2605ZM186.863 71.8951L189.4 73.4973L189.4 73.4965L186.863 71.8951ZM183.533 74.1383L182.984 71.1889L181.248 71.5117L180.688 73.1862L183.533 74.1383ZM182.403 77.5139L179.558 76.5617L178.873 78.6089L180.596 79.9089L182.403 77.5139ZM183.214 81.381L180.346 80.5033L180.345 80.504L183.214 81.381ZM178.782 84.2473L179.414 81.3146L178.081 81.0273L176.988 81.8431L178.782 84.2473ZM178.418 84.4973L176.821 81.958L175.92 82.525L175.577 83.5333L178.418 84.4973ZM172.242 102.697L169.402 101.733L168.825 103.433L170.051 104.745L172.242 102.697ZM175.421 107.921L172.625 109.007V109.007L175.421 107.921ZM173.613 124.865L170.843 123.712L170.837 123.727L170.831 123.742L173.613 124.865ZM169.533 134.97L166.751 133.847L166.113 135.428L167.145 136.786L169.533 134.97ZM170.387 136.584L167.544 137.539L167.544 137.541L170.387 136.584ZM167.809 143.314L166.33 140.704L164.468 141.758L164.859 143.862L167.809 143.314ZM164.69 148.617L165.649 151.46L165.649 151.46L164.69 148.617ZM163.949 148.802L163.461 145.842L161.798 146.116L161.167 147.679L163.949 148.802ZM159.141 160.712L156.359 159.589L156.141 160.13L156.141 160.713L159.141 160.712ZM159.328 166.647L156.333 166.829L156.597 171.179L160.566 169.379L159.328 166.647ZM160.053 166.361L161.012 169.204L161.012 169.204L160.053 166.361ZM168.813 169.211L166.363 170.943L167.64 172.748L169.741 172.063L168.813 169.211ZM178.502 174.074L175.659 175.031L175.659 175.031L178.502 174.074ZM178.503 179.001L175.661 178.038L174.744 180.745L177.404 181.792L178.503 179.001ZM184.582 185.391L181.738 186.347L181.739 186.348L184.582 185.391ZM179.805 197.858L178.327 195.248L176.465 196.302L176.856 198.407L179.805 197.858ZM174.027 207.682L174.986 210.525L174.987 210.525L174.027 207.682ZM172.434 208.058L172.023 205.087L169.91 205.379L169.492 207.471L172.434 208.058ZM172.165 209.267L169.252 208.552L169.252 208.552L172.165 209.267ZM167.153 219.345L164.618 217.74L163.428 219.622L164.883 221.306L167.153 219.345ZM167.812 220.782L170.773 220.298L170.77 220.283L170.768 220.268L167.812 220.782ZM167.459 222.678L164.93 221.063L162.089 225.515L167.367 225.676L167.459 222.678ZM172.054 226.409L169.157 227.189L169.16 227.2L169.163 227.21L172.054 226.409ZM168.388 232.279L167.669 229.366L163.193 230.47L166.015 234.115L168.388 232.279ZM170.023 236.941L173.023 236.944L173.023 236.931L170.023 236.941ZM169.418 239.71L166.718 238.403L166.714 238.411L166.711 238.418L169.418 239.71ZM167.535 241.956L165.769 239.531L165.759 239.538L165.749 239.545L167.535 241.956ZM165.979 242.788L164.97 239.963L163.054 240.648L162.981 242.681L165.979 242.788ZM165.958 243.271L162.962 243.112L162.962 243.112L165.958 243.271ZM163.357 271.017L160.375 270.692L160.292 271.454L160.585 272.162L163.357 271.017ZM170.758 289.213L167.973 290.328L167.973 290.328L170.758 289.213ZM176.051 326.81L173.054 326.954L173.059 327.051L173.07 327.148L176.051 326.81ZM180.83 369.02L181.077 372.01L184.158 371.755L183.811 368.683L180.83 369.02ZM152.676 371.349L149.699 370.98L149.245 374.644L152.923 374.339L152.676 371.349ZM165.846 363.394L166.871 366.214L169.516 365.252L168.725 362.551L165.846 363.394ZM160.415 344.851L163.294 344.008L163.281 343.966L163.268 343.924L160.415 344.851ZM140.167 282.547L137.214 283.075L137.25 283.278L137.314 283.475L140.167 282.547ZM138.472 272.951L141.427 272.433L140.075 264.716L135.927 271.363L138.472 272.951ZM135.984 276.938L138.529 278.526L138.529 278.526L135.984 276.938ZM134.995 278.523L132.449 276.935L132.442 276.947L134.995 278.523ZM133.872 280.34L136.413 281.935L136.418 281.926L136.423 281.918L133.872 280.34ZM133.454 280.959L134.922 278.343L131.973 276.688L130.681 279.814L133.454 280.959ZM133.454 280.959L130.681 279.814L130.315 280.701L130.531 281.636L133.454 280.959ZM134.359 284.869L131.436 285.546L131.601 286.256L132.073 286.812L134.359 284.869ZM147.021 306.051L149.85 305.052L147.021 306.051ZM156.031 342.693L153.09 343.285L153.113 343.397L153.144 343.508L156.031 342.693ZM161.431 361.823L162.708 364.538L165.01 363.456L164.319 361.008L161.431 361.823ZM130.54 376.345L127.683 377.26L128.725 380.513L131.816 379.06L130.54 376.345ZM144.501 361.151L142.621 358.813L142.619 358.815L144.501 361.151ZM144.509 361.145L146.388 363.483L148.28 361.962L147.188 359.795L144.509 361.145ZM138.339 348.904L141.018 347.553L140.974 347.467L140.925 347.384L138.339 348.904ZM138.324 348.878L140.91 347.358L140.903 347.346L140.896 347.335L138.324 348.878ZM138.324 348.878L135.737 350.397L135.744 350.409L135.751 350.421L138.324 348.878ZM104.331 286.987L107.26 286.337L107.26 286.337L104.331 286.987ZM109.396 254.726L106.498 253.95L106.492 253.97L106.487 253.99L109.396 254.726ZM122.63 204.417L125.539 205.149L126.247 202.335L123.458 201.533L122.63 204.417ZM119.911 203.193L121.52 200.661L119.719 199.516L118.046 200.843L119.911 203.193ZM108.511 202.701L106.452 204.884L106.452 204.884L108.511 202.701ZM108.173 190.439L110.348 192.505L110.348 192.505L108.173 190.439ZM112.392 187.993L113.114 190.905L115.658 190.274L115.374 187.669L112.392 187.993ZM115.547 178.612L117.722 180.678L117.723 180.678L115.547 178.612ZM119.268 175.973L120.497 178.71L122.326 177.889L122.267 175.884L119.268 175.973ZM122.869 143.922L120.08 142.816L120.08 142.817L122.869 143.922ZM123.554 139.984L126.554 139.976L126.548 138.008L124.741 137.229L123.554 139.984ZM121.024 138.225L123.191 136.151L123.191 136.151L121.024 138.225ZM119.898 129.04L122.502 130.53L123.603 128.607L122.088 126.99L119.898 129.04ZM120.218 118.154L118.151 115.98L118.15 115.98L120.218 118.154ZM124.714 116.059L125.043 119.041L127.883 118.728L127.709 115.876L124.714 116.059ZM127.963 107.807L125.897 105.632L125.896 105.632L127.963 107.807ZM137.11 105.068L136.588 108.022L146.561 109.787L139.158 102.875L137.11 105.068ZM135.097 103.167L137.168 100.997L134.492 98.4424L132.545 101.589L135.097 103.167ZM135.037 103.246L137.23 105.293L137.23 105.293L135.037 103.246ZM134.33 103.27L132.283 105.463L132.283 105.463L134.33 103.27ZM120.851 87.4684L123.299 85.7355H123.299L120.851 87.4684ZM115.198 78.2659L112.515 79.6087L115.198 78.2659ZM112.672 70.4284L109.675 70.5711L109.675 70.5711L112.672 70.4284ZM112.937 69.9627L114.344 72.6125L116.605 71.4119L115.775 68.9898L112.937 69.9627ZM111.847 65.4269L108.876 65.0129V65.0129L111.847 65.4269ZM113.502 59.9524L116.279 61.0861L116.279 61.0861L113.502 59.9524ZM113.595 59.7236L116.377 60.8464L116.377 60.8464L113.595 59.7236ZM114.368 73.7404L117.143 72.602L111.518 74.678L114.368 73.7404ZM116.092 77.8183L113.409 79.1611L116.092 77.8183ZM116.9 79.3602L114.267 80.7985L119.593 78.0391L116.9 79.3602ZM134.184 68.2273L133.168 65.4046L128.966 66.9168L131.955 70.235L134.184 68.2273ZM146.896 81.1397L144.798 83.2843L149.618 87.9985L149.894 81.2624L146.896 81.1397ZM149.896 62.5725L152.874 62.9354L153.463 58.1002L148.88 59.7497L149.896 62.5725ZM150.6 66.7678L153.426 67.7758L153.859 66.5631L153.278 65.4141L150.6 66.7678ZM147.11 78.9982L144.147 78.534L144.147 78.5344L147.11 78.9982ZM151.869 47.3891C145.288 48.2782 137.355 49.3644 130.866 50.2963C127.622 50.762 124.728 51.1907 122.538 51.5379C121.446 51.7112 120.513 51.8666 119.794 51.9978C119.173 52.1112 118.473 52.2465 118.025 52.3977L119.942 58.0832C119.893 58.0997 120.122 58.0371 120.871 57.9003C121.523 57.7813 122.403 57.6343 123.478 57.4639C125.624 57.1236 128.484 56.6997 131.718 56.2354C138.183 55.3071 146.095 54.2236 152.672 53.3351L151.869 47.3891ZM152.118 47.1544C151.617 47.3163 151.149 47.5343 150.719 47.7946L153.822 52.9296C153.875 52.8976 153.923 52.8767 153.964 52.8633L152.118 47.1544ZM151.743 41.562C150.137 42.8409 149.246 44.732 149.049 46.5708C148.851 48.4176 149.327 50.5611 150.936 52.1461L155.146 47.8716C155.11 47.8361 154.968 47.649 155.015 47.2106C155.063 46.7643 155.28 46.4156 155.481 46.2559L151.743 41.562ZM161.694 41.2294C158.892 39.4955 154.745 39.1722 151.743 41.562L155.481 46.2559C156.093 45.7683 157.41 45.6341 158.536 46.3314L161.694 41.2294ZM161.052 37.7078C158.879 38.6215 156.65 41.1128 157.153 44.2549L163.077 43.3058C163.092 43.3955 163.082 43.464 163.073 43.4965C163.066 43.5246 163.064 43.5148 163.09 43.4759C163.116 43.4371 163.158 43.3872 163.217 43.3387C163.276 43.2901 163.333 43.2574 163.377 43.2389L161.052 37.7078ZM167.125 37.5135C165.507 37.0895 163.244 36.7869 161.053 37.7074L163.376 43.2393C163.781 43.0691 164.496 43.0273 165.604 43.3175L167.125 37.5135ZM170.704 39.1865C169.58 38.3474 168.287 37.8174 167.123 37.513L165.606 43.318C166.221 43.479 166.757 43.7274 167.114 43.9937L170.704 39.1865ZM168.836 38.2575C168.363 38.4016 167.948 38.6521 167.827 38.724C167.615 38.8493 167.405 38.9866 167.238 39.0983L170.579 44.0819C170.638 44.0423 170.697 44.004 170.751 43.9691C170.807 43.9337 170.852 43.9056 170.887 43.8851C170.903 43.8751 170.915 43.8686 170.921 43.8652C170.928 43.8615 170.924 43.8634 170.913 43.8693C170.903 43.8745 170.873 43.8891 170.829 43.9083C170.806 43.9183 170.774 43.9312 170.736 43.9457C170.698 43.96 170.647 43.9783 170.584 43.9973L168.836 38.2575ZM171.913 38.333C170.551 37.801 169.4 38.0832 168.823 38.2615L170.597 43.9934C170.654 43.9757 170.548 44.0148 170.368 44.0236C170.16 44.0339 169.934 44.0014 169.731 43.9219L171.913 38.333ZM174.359 42.1456C174.297 41.8015 174.191 41.2819 174.029 40.7863C173.951 40.547 173.823 40.1959 173.619 39.8398C173.486 39.6081 172.983 38.7464 171.903 38.329L169.741 43.9259C169.224 43.7261 168.895 43.425 168.729 43.2467C168.556 43.062 168.457 42.9 168.412 42.8221C168.327 42.6733 168.307 42.591 168.327 42.6511C168.36 42.7544 168.408 42.9562 168.454 43.2092L174.359 42.1456ZM173.902 41.1419C174.131 41.4278 174.291 41.7714 174.359 42.1457L168.454 43.2092C168.567 43.8384 168.836 44.415 169.22 44.8937L173.902 41.1419ZM173.432 39.8673C172.561 39.7807 171.543 39.8384 170.552 40.1926L172.57 45.8429C172.551 45.8496 172.568 45.8414 172.625 45.8358C172.681 45.8303 172.754 45.8295 172.838 45.8378L173.432 39.8673ZM173.601 39.6469C173.189 39.6469 172.872 39.734 172.797 39.7541C172.67 39.7885 172.566 39.8249 172.506 39.8472C172.382 39.8927 172.273 39.9401 172.205 39.971C172.059 40.0365 171.906 40.1123 171.779 40.1764L174.491 45.5287C174.59 45.4786 174.647 45.4515 174.667 45.4427C174.68 45.4365 174.643 45.454 174.576 45.4788C174.543 45.4907 174.464 45.519 174.357 45.548C174.301 45.5629 174.216 45.5842 174.108 45.603C174.011 45.62 173.83 45.6469 173.601 45.6469V39.6469ZM173.563 39.6471C173.558 39.6473 173.555 39.6473 173.553 39.6474C173.551 39.6474 173.552 39.6474 173.554 39.6474C173.555 39.6474 173.56 39.6472 173.567 39.6471C173.574 39.647 173.586 39.6469 173.601 39.6469V45.6469C173.663 45.6469 173.726 45.6449 173.727 45.6449L173.563 39.6471ZM176.42 40.3974C175.123 39.5541 173.732 39.6425 173.563 39.6471L173.727 45.6449C173.789 45.6432 173.74 45.6472 173.667 45.6362C173.601 45.6262 173.396 45.5877 173.149 45.4271L176.42 40.3974ZM176.943 40.7543C176.798 40.6528 176.602 40.5153 176.414 40.3938L173.154 45.4307C173.233 45.4814 173.333 45.5512 173.503 45.67L176.943 40.7543ZM177.48 41.1806C177.557 41.1958 177.613 41.2126 177.645 41.2233C177.677 41.234 177.695 41.2417 177.695 41.242C177.696 41.2424 177.687 41.2382 177.666 41.2273C177.645 41.2164 177.617 41.2009 177.581 41.1797C177.414 41.082 177.224 40.951 176.943 40.7543L173.503 45.67C173.747 45.8412 174.135 46.1146 174.545 46.3549C174.921 46.5756 175.556 46.9164 176.316 47.0666L177.48 41.1806ZM178.618 41.582C178.246 41.3868 177.862 41.2561 177.48 41.1806L176.316 47.0666C176.154 47.0346 175.989 46.9783 175.832 46.8958L178.618 41.582ZM180.826 45.8558C180.839 45.398 180.816 44.7065 180.585 43.9795C180.345 43.2279 179.797 42.199 178.616 41.581L175.834 46.8968C175.169 46.549 174.93 45.9971 174.867 45.7995C174.812 45.6264 174.832 45.5659 174.829 45.6864L180.826 45.8558ZM177.832 43.2932C178.607 43.1143 179.236 43.3324 179.628 43.5735C179.994 43.7987 180.864 44.5218 180.826 45.8557L174.829 45.6865C174.783 47.3137 175.848 48.2926 176.484 48.6837C177.145 49.0907 178.118 49.3848 179.18 49.1398L177.832 43.2932ZM182.441 45.3263C181.856 44.3705 180.963 43.8655 180.454 43.6339C180.147 43.4942 179.802 43.3732 179.438 43.296C179.145 43.234 178.537 43.1321 177.838 43.2918L179.174 49.1412C178.868 49.2111 178.625 49.2098 178.498 49.2036C178.358 49.1968 178.255 49.1785 178.194 49.1656C178.076 49.1406 178.005 49.1115 177.97 49.0954C177.933 49.0785 177.867 49.0453 177.779 48.9782C177.704 48.9212 177.508 48.7603 177.323 48.4581L182.441 45.3263ZM183.052 47.368C183.027 47.0438 182.948 46.1537 182.441 45.3263L177.323 48.4582C177.23 48.306 177.175 48.1759 177.143 48.0906C177.11 48.0035 177.093 47.9367 177.084 47.8989C177.068 47.8292 177.068 47.8017 177.07 47.8312L183.052 47.368ZM181.754 50.8627C182.457 50.1235 183.172 48.907 183.053 47.3681L177.07 47.8311C177.021 47.188 177.323 46.8155 177.407 46.7279L181.754 50.8627ZM180.811 51.8543L181.755 50.8627L177.407 46.7279L176.464 47.7195L180.811 51.8543ZM183.161 47.2908C181.33 46.4578 179.442 46.599 178.117 46.8324L179.158 52.7414C180.04 52.5861 180.483 52.6638 180.678 52.7526L183.161 47.2908ZM186.516 53.5115C187.16 50.549 185.096 48.1723 183.163 47.2917L180.676 52.7517C180.667 52.7476 180.675 52.7503 180.69 52.7633C180.704 52.7763 180.707 52.7833 180.701 52.7731C180.695 52.7628 180.582 52.5657 180.653 52.237L186.516 53.5115ZM187.963 49.8499C186.644 49.3731 183.884 48.7382 181.675 50.5602L185.494 55.1883C185.278 55.3667 185.113 55.344 185.226 55.3426C185.281 55.3419 185.373 55.3479 185.502 55.3733C185.63 55.3985 185.774 55.4385 185.924 55.4928L187.963 49.8499ZM191.462 52.3324C190.444 50.9048 188.973 50.2149 187.964 49.8501L185.924 55.4926C186.187 55.5877 186.366 55.6766 186.482 55.7504C186.593 55.8215 186.601 55.8501 186.575 55.8142L191.462 52.3324ZM191.523 58.2464C193.038 56.2276 192.473 53.7493 191.46 52.3309L186.576 55.8158C186.504 55.7148 186.462 55.6062 186.453 55.4644C186.443 55.3139 186.468 54.9864 186.724 54.6449L191.523 58.2464ZM195.189 59.6703C195.153 56.4728 192.53 53.6882 189.343 53.4538L188.903 59.4376C188.886 59.4364 188.898 59.4337 188.936 59.4529C188.975 59.4728 189.027 59.5086 189.077 59.562C189.127 59.6154 189.16 59.6686 189.177 59.7083C189.193 59.7464 189.189 59.7566 189.189 59.7378L195.189 59.6703ZM192.017 65.1814C193.83 64.1063 195.215 62.0451 195.189 59.6703L189.189 59.7378C189.189 59.711 189.196 59.7459 189.148 59.8267C189.098 59.9099 189.024 59.9803 188.957 60.0202L192.017 65.1814ZM193.491 62.8439C193.49 62.7349 193.489 62.6259 193.485 62.5169L187.488 62.6847C187.49 62.7486 187.491 62.8125 187.491 62.8762L193.491 62.8439ZM192.692 66.9112C193.373 65.4764 193.496 63.9874 193.491 62.8468L187.491 62.8732C187.494 63.6219 187.397 64.0747 187.272 64.3384L192.692 66.9112ZM192.434 68.2714C192.783 67.4391 192.958 66.5641 192.981 65.7039L186.983 65.5456C186.979 65.7042 186.947 65.842 186.901 65.9513L192.434 68.2714ZM188.959 71.9478C190.471 71.1969 191.75 69.9045 192.435 68.2704L186.901 65.9523C186.805 66.1809 186.587 66.4264 186.291 66.5733L188.959 71.9478ZM189.4 73.4965C190.208 72.2175 190.612 70.7422 190.625 69.2865L184.625 69.2346C184.622 69.6305 184.509 70.0049 184.326 70.2938L189.4 73.4965ZM184.081 77.0878C186.238 76.6868 188.209 75.3825 189.4 73.4973L184.327 70.293C184.048 70.7348 183.534 71.0866 182.984 71.1889L184.081 77.0878ZM185.248 78.466L186.378 75.0905L180.688 73.1862L179.558 76.5617L185.248 78.466ZM186.083 82.2587C186.514 80.8514 186.625 79.4513 186.264 78.133C185.893 76.7783 185.098 75.7891 184.21 75.1188L180.596 79.9089C180.599 79.9109 180.573 79.8914 180.54 79.8455C180.505 79.796 180.485 79.7474 180.477 79.7187C180.46 79.6576 180.542 79.8625 180.346 80.5033L186.083 82.2587ZM178.15 87.1799C179.245 87.4158 180.862 87.5252 182.485 86.7577C184.213 85.9406 185.436 84.3757 186.083 82.2581L180.345 80.504C180.208 80.9528 180.066 81.1695 179.997 81.2568C179.962 81.3006 179.939 81.3201 179.931 81.3263C179.923 81.3324 179.92 81.3335 179.92 81.3336C179.918 81.3348 179.773 81.392 179.414 81.3146L178.15 87.1799ZM180.016 87.0366C180.209 86.9148 180.397 86.7859 180.577 86.6515L176.988 81.8431C176.932 81.8852 176.876 81.9235 176.821 81.958L180.016 87.0366ZM175.083 103.661L181.259 85.4613L175.577 83.5333L169.402 101.733L175.083 103.661ZM178.218 106.834C177.16 104.113 175.798 102.107 174.434 100.648L170.051 104.745C170.891 105.644 171.844 106.997 172.625 109.007L178.218 106.834ZM173.613 124.865C176.382 126.018 176.382 126.018 176.383 126.017C176.383 126.017 176.383 126.016 176.383 126.016C176.384 126.014 176.384 126.013 176.385 126.012C176.386 126.009 176.387 126.005 176.389 126.001C176.393 125.993 176.397 125.982 176.402 125.969C176.413 125.943 176.428 125.906 176.446 125.861C176.483 125.769 176.534 125.639 176.597 125.475C176.722 125.147 176.894 124.679 177.091 124.101C177.484 122.948 177.98 121.336 178.394 119.495C179.185 115.975 179.828 110.978 178.218 106.834L172.625 109.007C173.547 111.381 173.286 114.856 172.54 118.179C172.184 119.76 171.754 121.161 171.411 122.167C171.241 122.669 171.094 123.067 170.992 123.334C170.941 123.468 170.901 123.568 170.875 123.633C170.862 123.665 170.853 123.688 170.848 123.701C170.845 123.708 170.843 123.712 170.842 123.714C170.842 123.715 170.842 123.715 170.842 123.715C170.842 123.715 170.842 123.715 170.842 123.714C170.842 123.714 170.843 123.713 170.843 123.713C170.843 123.713 170.843 123.712 173.613 124.865ZM172.315 136.093L176.394 125.988L170.831 123.742L166.751 133.847L172.315 136.093ZM173.231 135.628C172.927 134.721 172.48 133.889 171.921 133.154L167.145 136.786C167.314 137.008 167.45 137.261 167.544 137.539L173.231 135.628ZM169.287 145.924C172.823 143.922 174.578 139.629 173.231 135.627L167.544 137.541C167.953 138.755 167.423 140.085 166.33 140.704L169.287 145.924ZM165.649 151.46C169.322 150.22 171.447 146.472 170.758 142.766L164.859 143.862C165.01 144.671 164.537 145.503 163.73 145.775L165.649 151.46ZM164.437 151.762C164.844 151.695 165.249 151.595 165.649 151.46L163.731 145.775C163.639 145.805 163.55 145.828 163.461 145.842L164.437 151.762ZM161.923 161.835L166.731 149.925L161.167 147.679L156.359 159.589L161.923 161.835ZM162.322 166.465C162.232 164.988 162.187 163.546 162.164 162.468C162.152 161.931 162.147 161.488 162.144 161.181C162.142 161.027 162.142 160.908 162.141 160.828C162.141 160.787 162.141 160.757 162.141 160.738C162.141 160.728 162.141 160.721 162.141 160.716C162.141 160.714 162.141 160.712 162.141 160.711C162.141 160.711 162.141 160.711 162.141 160.71C162.141 160.71 162.141 160.71 162.141 160.71C162.141 160.711 162.141 160.711 162.141 160.711C162.141 160.711 162.141 160.711 159.141 160.712C156.141 160.713 156.141 160.713 156.141 160.713C156.141 160.713 156.141 160.713 156.141 160.714C156.141 160.714 156.141 160.714 156.141 160.714C156.141 160.715 156.141 160.716 156.141 160.717C156.141 160.719 156.141 160.721 156.141 160.724C156.141 160.731 156.141 160.74 156.141 160.752C156.141 160.776 156.141 160.811 156.141 160.855C156.142 160.944 156.142 161.074 156.144 161.237C156.147 161.565 156.153 162.032 156.165 162.596C156.189 163.722 156.237 165.247 156.333 166.829L162.322 166.465ZM159.093 163.519C158.749 163.635 158.414 163.767 158.089 163.915L160.566 169.379C160.709 169.314 160.858 169.256 161.012 169.204L159.093 163.519ZM171.262 167.478C168.602 163.718 163.689 161.967 159.093 163.519L161.012 169.204C163.025 168.524 165.192 169.288 166.363 170.943L171.262 167.478ZM181.346 173.118C179.474 167.552 173.453 164.545 167.884 166.358L169.741 172.063C172.192 171.266 174.84 172.595 175.659 175.031L181.346 173.118ZM181.344 179.963C182.081 177.787 182.11 175.389 181.346 173.118L175.659 175.031C175.998 176.04 175.983 177.089 175.661 178.038L181.344 179.963ZM187.426 184.435C186.134 180.593 183.22 177.633 179.601 176.209L177.404 181.792C179.414 182.583 181.025 184.224 181.738 186.347L187.426 184.435ZM181.284 200.469C186.792 197.349 189.521 190.66 187.425 184.434L181.739 186.348C182.896 189.786 181.391 193.512 178.327 195.248L181.284 200.469ZM174.987 210.525C180.569 208.64 183.802 202.941 182.755 197.31L176.856 198.407C177.364 201.14 175.784 203.923 173.068 204.84L174.987 210.525ZM172.845 211.03C173.563 210.931 174.279 210.763 174.986 210.525L173.068 204.84C172.72 204.957 172.37 205.038 172.023 205.087L172.845 211.03ZM175.079 209.982C175.189 209.534 175.288 209.089 175.376 208.646L169.492 207.471C169.421 207.829 169.341 208.189 169.252 208.552L175.079 209.982ZM169.688 220.949C171.841 217.548 174.268 213.285 175.079 209.982L169.252 208.552C168.704 210.783 166.806 214.283 164.618 217.74L169.688 220.949ZM170.768 220.268C170.587 219.23 170.141 218.215 169.423 217.384L164.883 221.306C164.867 221.288 164.857 221.273 164.852 221.265C164.846 221.256 164.844 221.252 164.844 221.252C164.845 221.253 164.846 221.257 164.849 221.265C164.851 221.272 164.854 221.283 164.856 221.295L170.768 220.268ZM169.988 224.292C170.848 222.944 170.961 221.453 170.773 220.298L164.851 221.265C164.851 221.265 164.851 221.265 164.851 221.266C164.851 221.267 164.851 221.267 164.851 221.267C164.851 221.267 164.851 221.26 164.853 221.247C164.858 221.221 164.874 221.152 164.93 221.063L169.988 224.292ZM174.95 225.628C173.966 221.975 170.662 219.774 167.551 219.679L167.367 225.676C167.632 225.684 168.03 225.8 168.408 226.089C168.767 226.363 169.035 226.736 169.157 227.189L174.95 225.628ZM169.106 235.191C173.402 234.132 176.05 229.594 174.945 225.607L169.163 227.21C169.227 227.44 169.213 227.898 168.904 228.413C168.61 228.904 168.164 229.244 167.669 229.366L169.106 235.191ZM173.023 236.931C173.015 234.454 172.108 232.184 170.76 230.442L166.015 234.115C166.639 234.92 167.02 235.929 167.023 236.951L173.023 236.931ZM172.119 241.017C172.772 239.667 173.022 238.247 173.023 236.944L167.023 236.938C167.023 237.497 166.914 237.998 166.718 238.403L172.119 241.017ZM169.301 244.381C170.496 243.511 171.483 242.349 172.126 241.002L166.711 238.418C166.515 238.828 166.191 239.223 165.769 239.531L169.301 244.381ZM166.988 245.614C167.837 245.311 168.623 244.884 169.321 244.366L165.749 239.545C165.51 239.723 165.245 239.865 164.97 239.963L166.988 245.614ZM168.954 243.429C168.963 243.252 168.971 243.075 168.977 242.896L162.981 242.681C162.976 242.827 162.969 242.971 162.962 243.112L168.954 243.429ZM163.357 271.017C166.34 271.342 166.34 271.342 166.34 271.342C166.34 271.342 166.34 271.341 166.34 271.341C166.34 271.34 166.34 271.339 166.34 271.338C166.34 271.336 166.341 271.332 166.341 271.327C166.342 271.317 166.344 271.302 166.346 271.283C166.35 271.244 166.357 271.187 166.365 271.112C166.381 270.961 166.405 270.74 166.435 270.456C166.497 269.888 166.584 269.068 166.691 268.061C166.904 266.047 167.192 263.283 167.493 260.28C168.091 254.305 168.749 247.296 168.954 243.429L162.962 243.112C162.766 246.813 162.124 253.677 161.523 259.682C161.223 262.671 160.936 265.424 160.724 267.43C160.618 268.433 160.531 269.249 160.47 269.814C160.439 270.097 160.416 270.316 160.4 270.465C160.392 270.54 160.385 270.596 160.381 270.634C160.379 270.654 160.378 270.668 160.377 270.677C160.376 270.682 160.376 270.686 160.375 270.688C160.375 270.689 160.375 270.69 160.375 270.691C160.375 270.691 160.375 270.691 160.375 270.691C160.375 270.692 160.375 270.692 163.357 271.017ZM173.543 288.098C171.724 283.552 169.87 278.995 168.473 275.577C167.774 273.867 167.188 272.441 166.777 271.443C166.572 270.943 166.41 270.551 166.3 270.283C166.245 270.149 166.202 270.046 166.174 269.977C166.159 269.942 166.148 269.916 166.141 269.898C166.137 269.889 166.135 269.883 166.133 269.878C166.132 269.876 166.131 269.874 166.131 269.873C166.13 269.872 166.13 269.872 166.13 269.872C166.13 269.872 166.13 269.871 166.13 269.871C166.13 269.871 166.13 269.871 163.357 271.017C160.585 272.162 160.585 272.162 160.585 272.163C160.585 272.163 160.585 272.163 160.585 272.163C160.585 272.163 160.585 272.163 160.585 272.164C160.586 272.165 160.586 272.167 160.587 272.169C160.589 272.173 160.592 272.18 160.595 272.188C160.603 272.206 160.613 272.232 160.628 272.266C160.656 272.335 160.698 272.437 160.753 272.57C160.863 272.837 161.024 273.228 161.229 273.725C161.638 274.721 162.222 276.142 162.919 277.848C164.314 281.259 166.161 285.8 167.973 290.328L173.543 288.098ZM179.047 326.667C178.827 322.07 178.184 314.312 177.25 306.832C176.335 299.499 175.087 291.956 173.543 288.098L167.973 290.328C169.178 293.34 170.361 300.084 171.296 307.576C172.214 314.922 172.842 322.527 173.054 326.954L179.047 326.667ZM183.811 368.683L179.032 326.473L173.07 327.148L177.849 369.358L183.811 368.683ZM152.923 374.339L181.077 372.01L180.582 366.03L152.429 368.36L152.923 374.339ZM165.846 363.394C164.821 360.575 164.82 360.575 164.82 360.575C164.82 360.575 164.819 360.575 164.819 360.575C164.818 360.576 164.817 360.576 164.816 360.576C164.813 360.577 164.81 360.578 164.806 360.58C164.799 360.583 164.788 360.587 164.774 360.592C164.746 360.602 164.707 360.616 164.657 360.635C164.556 360.673 164.411 360.727 164.228 360.797C163.862 360.936 163.343 361.138 162.72 361.39C161.48 361.892 159.805 362.603 158.104 363.43C156.426 364.245 154.615 365.223 153.156 366.271C152.429 366.794 151.697 367.399 151.101 368.081C150.539 368.724 149.856 369.708 149.699 370.98L155.653 371.718C155.598 372.162 155.404 372.275 155.619 372.03C155.799 371.823 156.131 371.522 156.658 371.143C157.707 370.389 159.163 369.586 160.726 368.827C162.265 368.079 163.807 367.423 164.971 366.952C165.551 366.717 166.032 366.53 166.365 366.403C166.532 366.34 166.662 366.291 166.748 366.259C166.791 366.243 166.823 366.231 166.844 366.223C166.854 366.22 166.862 366.217 166.866 366.215C166.869 366.214 166.87 366.214 166.871 366.214C166.871 366.213 166.871 366.213 166.871 366.213C166.871 366.213 166.871 366.213 166.871 366.213C166.871 366.214 166.871 366.214 165.846 363.394ZM157.536 345.694L162.967 364.237L168.725 362.551L163.294 344.008L157.536 345.694ZM137.314 283.475L157.562 345.778L163.268 343.924L143.02 281.62L137.314 283.475ZM135.517 273.468C135.983 276.131 136.407 278.532 136.715 280.268C136.869 281.136 136.994 281.837 137.08 282.322C137.123 282.564 137.156 282.752 137.179 282.88C137.191 282.944 137.199 282.992 137.205 283.025C137.208 283.041 137.21 283.054 137.212 283.062C137.212 283.066 137.213 283.069 137.213 283.072C137.214 283.073 137.214 283.073 137.214 283.074C137.214 283.074 137.214 283.074 137.214 283.075C137.214 283.075 137.214 283.075 137.214 283.075C137.214 283.075 137.214 283.075 140.167 282.547C143.121 282.02 143.121 282.02 143.121 282.02C143.121 282.02 143.121 282.02 143.121 282.02C143.12 282.02 143.12 282.019 143.12 282.019C143.12 282.019 143.12 282.018 143.12 282.017C143.12 282.015 143.119 282.012 143.118 282.008C143.117 281.999 143.115 281.987 143.112 281.971C143.106 281.938 143.097 281.89 143.086 281.827C143.063 281.699 143.03 281.512 142.987 281.27C142.901 280.787 142.776 280.087 142.623 279.22C142.316 277.488 141.892 275.091 141.427 272.433L135.517 273.468ZM138.529 278.526C139.238 277.389 140.073 276.052 141.017 274.539L135.927 271.363C134.983 272.875 134.148 274.213 133.439 275.35L138.529 278.526ZM137.54 280.111L138.529 278.526L133.439 275.35L132.449 276.935L137.54 280.111ZM136.423 281.918C136.704 281.464 137.078 280.859 137.547 280.1L132.442 276.947C131.973 277.706 131.6 278.309 131.32 278.762L136.423 281.918ZM131.986 283.575C132.874 284.073 133.725 283.982 134.174 283.872C134.611 283.764 134.921 283.582 135.061 283.494C135.348 283.312 135.538 283.122 135.592 283.068C135.735 282.925 135.835 282.795 135.864 282.757C135.945 282.652 136.016 282.548 136.059 282.483C136.158 282.338 136.279 282.147 136.413 281.935L131.331 278.745C131.205 278.946 131.125 279.069 131.083 279.131C131.056 279.171 131.073 279.145 131.115 279.091C131.124 279.078 131.209 278.967 131.339 278.836C131.388 278.787 131.573 278.601 131.856 278.421C131.994 278.334 132.302 278.154 132.738 278.046C133.186 277.936 134.036 277.845 134.922 278.343L131.986 283.575ZM136.227 282.104L136.227 282.104L130.681 279.814L130.681 279.814L136.227 282.104ZM137.282 284.193L136.377 280.283L130.531 281.636L131.436 285.546L137.282 284.193ZM149.85 305.052C147.826 299.322 144.498 293.781 141.745 289.739C140.358 287.702 139.093 286.011 138.172 284.826C137.711 284.233 137.335 283.765 137.072 283.442C136.94 283.28 136.836 283.155 136.764 283.068C136.728 283.025 136.7 282.991 136.68 282.967C136.67 282.956 136.662 282.946 136.656 282.939C136.653 282.936 136.651 282.933 136.649 282.931C136.648 282.93 136.647 282.929 136.646 282.928C136.646 282.928 136.646 282.927 136.645 282.927C136.645 282.927 136.645 282.926 134.359 284.869C132.073 286.812 132.073 286.812 132.073 286.812C132.073 286.812 132.072 286.811 132.072 286.811C132.072 286.811 132.072 286.811 132.072 286.811C132.073 286.812 132.074 286.813 132.075 286.814C132.078 286.818 132.083 286.823 132.089 286.832C132.103 286.848 132.125 286.874 132.155 286.91C132.214 286.981 132.305 287.09 132.423 287.235C132.659 287.524 133.005 287.955 133.434 288.507C134.294 289.614 135.482 291.202 136.786 293.116C139.415 296.977 142.418 302.026 144.192 307.05L149.85 305.052ZM156.031 342.693C158.972 342.101 158.972 342.101 158.972 342.1C158.972 342.1 158.972 342.1 158.972 342.099C158.971 342.098 158.971 342.097 158.971 342.095C158.97 342.092 158.969 342.087 158.968 342.081C158.965 342.068 158.961 342.049 158.956 342.023C158.946 341.973 158.931 341.899 158.911 341.802C158.872 341.607 158.813 341.322 158.738 340.955C158.587 340.222 158.368 339.163 158.093 337.86C157.542 335.254 156.769 331.666 155.876 327.739C154.103 319.943 151.816 310.617 149.85 305.052L144.192 307.05C146.025 312.238 148.243 321.233 150.025 329.07C150.91 332.959 151.676 336.515 152.222 339.1C152.495 340.391 152.712 341.439 152.861 342.164C152.936 342.526 152.993 342.807 153.032 342.997C153.051 343.092 153.066 343.165 153.075 343.213C153.08 343.237 153.084 343.255 153.086 343.267C153.088 343.273 153.088 343.278 153.089 343.281C153.089 343.282 153.09 343.283 153.09 343.284C153.09 343.284 153.09 343.285 153.09 343.285C153.09 343.285 153.09 343.285 156.031 342.693ZM164.319 361.008L158.918 341.878L153.144 343.508L158.544 362.638L164.319 361.008ZM131.816 379.06L162.708 364.538L160.155 359.108L129.264 373.63L131.816 379.06ZM142.619 358.815C142.412 358.982 138.595 362.055 134.938 365.506C133.122 367.22 131.26 369.107 129.895 370.822C129.22 371.67 128.579 372.584 128.138 373.49C127.769 374.246 127.183 375.699 127.683 377.26L133.397 375.43C133.646 376.206 133.295 376.605 133.532 376.117C133.697 375.778 134.033 375.257 134.59 374.558C135.687 373.179 137.305 371.522 139.056 369.87C142.535 366.587 146.201 363.634 146.383 363.488L142.619 358.815ZM142.629 358.807L142.621 358.813L146.381 363.49L146.388 363.483L142.629 358.807ZM135.66 350.254L141.83 362.495L147.188 359.795L141.018 347.553L135.66 350.254ZM135.737 350.398L135.752 350.424L140.925 347.384L140.91 347.358L135.737 350.398ZM135.751 350.421L135.751 350.422L140.896 347.335L140.896 347.334L135.751 350.421ZM101.402 287.638C101.669 288.841 102.491 290.71 103.465 292.737C104.498 294.889 105.881 297.577 107.485 300.592C110.695 306.625 114.84 314.06 118.955 321.317C127.186 335.837 135.337 349.716 135.737 350.397L140.91 347.359C140.514 346.684 132.383 332.836 124.174 318.358C120.069 311.117 115.954 303.736 112.782 297.773C111.194 294.789 109.855 292.184 108.874 290.141C107.833 287.973 107.35 286.743 107.26 286.337L101.402 287.638ZM109.396 254.726C106.487 253.99 106.487 253.991 106.487 253.991C106.487 253.991 106.487 253.992 106.487 253.992C106.487 253.993 106.486 253.995 106.486 253.996C106.485 254 106.484 254.005 106.482 254.012C106.479 254.025 106.474 254.044 106.467 254.07C106.455 254.12 106.436 254.195 106.412 254.292C106.364 254.486 106.293 254.77 106.205 255.132C106.027 255.858 105.776 256.899 105.48 258.168C104.887 260.703 104.11 264.159 103.379 267.826C102.648 271.484 101.954 275.396 101.534 278.833C101.133 282.115 100.913 285.437 101.402 287.638L107.26 286.337C107.025 285.28 107.077 282.939 107.49 279.561C107.883 276.338 108.546 272.593 109.263 269C109.978 265.417 110.739 262.028 111.322 259.533C111.613 258.287 111.86 257.266 112.033 256.558C112.119 256.204 112.188 255.928 112.234 255.742C112.257 255.648 112.275 255.578 112.287 255.531C112.293 255.507 112.297 255.489 112.3 255.478C112.302 255.472 112.303 255.468 112.303 255.465C112.304 255.464 112.304 255.463 112.304 255.462C112.304 255.462 112.304 255.462 112.304 255.462C112.304 255.462 112.304 255.462 109.396 254.726ZM119.72 203.685C117.911 210.877 114.607 223.436 111.752 234.213C110.325 239.598 109.011 244.533 108.054 248.121C107.576 249.915 107.187 251.373 106.917 252.382C106.782 252.886 106.677 253.278 106.606 253.545C106.571 253.678 106.544 253.779 106.525 253.847C106.516 253.881 106.509 253.907 106.505 253.925C106.502 253.933 106.501 253.94 106.499 253.944C106.499 253.946 106.498 253.948 106.498 253.949C106.498 253.949 106.498 253.95 106.498 253.95C106.498 253.95 106.498 253.95 109.396 254.726C112.294 255.502 112.294 255.502 112.294 255.501C112.294 255.501 112.294 255.501 112.294 255.5C112.294 255.499 112.295 255.497 112.295 255.495C112.297 255.491 112.298 255.484 112.301 255.476C112.305 255.458 112.312 255.432 112.321 255.398C112.34 255.33 112.367 255.228 112.403 255.095C112.474 254.828 112.579 254.435 112.714 253.931C112.984 252.921 113.373 251.462 113.852 249.667C114.809 246.077 116.124 241.139 117.551 235.75C120.405 224.979 123.719 212.383 125.539 205.149L119.72 203.685ZM118.301 205.725C119.403 206.425 120.583 206.95 121.801 207.3L123.458 201.533C122.782 201.339 122.129 201.048 121.52 200.661L118.301 205.725ZM106.452 204.884C110.737 208.925 117.289 209.101 121.775 205.543L118.046 200.843C115.86 202.576 112.652 202.483 110.569 200.519L106.452 204.884ZM105.998 188.373C101.554 193.051 101.76 200.457 106.452 204.884L110.57 200.519C108.292 198.37 108.194 194.774 110.348 192.505L105.998 188.373ZM111.67 185.082C109.535 185.611 107.553 186.736 105.998 188.373L110.348 192.505C111.095 191.72 112.06 191.167 113.114 190.905L111.67 185.082ZM113.372 176.545C110.344 179.733 108.948 184.075 109.409 188.318L115.374 187.669C115.099 185.139 115.937 182.557 117.722 180.678L113.372 176.545ZM118.039 173.237C116.316 174.01 114.725 175.121 113.372 176.546L117.723 180.678C118.529 179.829 119.473 179.17 120.497 178.71L118.039 173.237ZM120.08 142.817C119.593 144.044 119.119 146.058 118.686 148.344C118.239 150.709 117.794 153.595 117.409 156.707C116.641 162.907 116.093 170.155 116.269 176.063L122.267 175.884C122.103 170.401 122.615 163.488 123.363 157.444C123.736 154.433 124.162 151.676 124.582 149.46C125.016 147.167 125.405 145.666 125.657 145.028L120.08 142.817ZM120.554 139.993C120.557 141.036 120.423 141.953 120.08 142.816L125.657 145.028C126.355 143.27 126.558 141.553 126.554 139.976L120.554 139.993ZM118.856 140.299C119.88 141.368 121.078 142.184 122.367 142.739L124.741 137.229C124.175 136.985 123.647 136.627 123.191 136.151L118.856 140.299ZM117.294 127.55C114.997 131.566 115.487 136.778 118.856 140.299L123.191 136.151C121.712 134.605 121.486 132.306 122.502 130.53L117.294 127.55ZM118.15 115.98C113.876 120.044 113.685 126.795 117.709 131.091L122.088 126.99C120.317 125.099 120.4 122.12 122.285 120.328L118.15 115.98ZM124.386 113.077C122.092 113.33 119.896 114.321 118.151 115.98L122.284 120.329C123.065 119.587 124.035 119.152 125.043 119.041L124.386 113.077ZM125.896 105.632C122.945 108.438 121.482 112.344 121.72 116.242L127.709 115.876C127.577 113.709 128.39 111.54 130.03 109.981L125.896 105.632ZM137.633 102.114C133.541 101.39 129.147 102.544 125.897 105.632L130.03 109.982C131.833 108.268 134.28 107.614 136.588 108.022L137.633 102.114ZM133.025 105.337C133.723 106.003 134.404 106.645 135.063 107.261L139.158 102.875C138.514 102.274 137.849 101.647 137.168 100.997L133.025 105.337ZM132.545 101.589C132.631 101.45 132.731 101.319 132.843 101.199L137.23 105.293C137.388 105.123 137.528 104.939 137.648 104.745L132.545 101.589ZM132.844 101.199C133.786 100.189 135.368 100.135 136.377 101.077L132.283 105.463C133.696 106.782 135.911 106.706 137.23 105.293L132.844 101.199ZM136.377 101.077C132.77 97.7108 127.605 91.8195 123.299 85.7355L118.402 89.2014C122.904 95.5638 128.332 101.776 132.283 105.463L136.377 101.077ZM123.299 85.7355C121.151 82.6991 119.254 79.6673 117.88 76.9231L112.515 79.6087C114.068 82.7119 116.145 86.0123 118.402 89.2014L123.299 85.7355ZM117.88 76.9231C116.477 74.1191 115.743 71.8546 115.668 70.2857L109.675 70.5711C109.811 73.4147 111.004 76.5895 112.515 79.6087L117.88 76.9231ZM115.668 70.2857C115.716 71.2891 115.165 72.1764 114.344 72.6125L111.53 67.313C110.377 67.925 109.608 69.1681 109.675 70.5711L115.668 70.2857ZM108.876 65.0129C108.798 65.5727 108.851 66.1117 108.899 66.4657C108.954 66.8723 109.042 67.3106 109.149 67.7572C109.363 68.6535 109.688 69.735 110.099 70.9357L115.775 68.9898C115.401 67.9004 115.14 67.0128 114.984 66.3631C114.906 66.0367 114.864 65.8078 114.845 65.6657C114.819 65.471 114.855 65.5799 114.819 65.8409L108.876 65.0129ZM110.724 58.8187C110.315 59.8218 109.236 62.4287 108.876 65.0129L114.819 65.8409C115.06 64.1095 115.838 62.1684 116.279 61.0861L110.724 58.8187ZM110.813 58.6008C110.788 58.6619 110.759 58.7326 110.724 58.8187L116.279 61.0861C116.313 61.0031 116.347 60.9206 116.377 60.8464L110.813 58.6008ZM118.026 52.3972C116.217 53.0061 114.601 54.2074 113.466 55.244C112.874 55.7837 112.347 56.3392 111.923 56.8537C111.56 57.2951 111.084 57.9284 110.813 58.6008L116.377 60.8464C116.287 61.0684 116.264 61.0214 116.554 60.6692C116.784 60.39 117.113 60.0387 117.511 59.6753C118.354 58.9058 119.25 58.3159 119.94 58.0838L118.026 52.3972ZM111.518 74.678C111.989 76.1105 112.637 77.6193 113.409 79.1611L118.774 76.4755C118.096 75.1197 117.574 73.8872 117.217 72.8028L111.518 74.678ZM113.409 79.1611C113.68 79.7022 113.967 80.2486 114.267 80.7985L119.532 77.9219C119.264 77.4299 119.011 76.9473 118.774 76.4755L113.409 79.1611ZM111.592 74.8787C112.33 76.6772 113.207 78.6433 114.206 80.6813L119.593 78.0391C118.653 76.1228 117.831 74.2786 117.143 72.602L111.592 74.8787ZM131.955 70.235C134.679 73.2601 139.672 78.2698 144.798 83.2843L148.994 78.9951C143.857 73.9702 138.993 69.0846 136.413 66.2196L131.955 70.235ZM148.88 59.7497L133.168 65.4046L135.2 71.0501L150.912 65.3952L148.88 59.7497ZM153.278 65.4141C152.915 64.6972 152.766 63.8199 152.874 62.9354L146.918 62.2095C146.677 64.1846 146.986 66.2683 147.923 68.1214L153.278 65.4141ZM150.074 79.4624C150.543 76.4692 151.845 72.2068 153.426 67.7758L147.775 65.7598C146.179 70.2319 144.709 74.9454 144.147 78.534L150.074 79.4624ZM149.894 81.2624C149.917 80.7023 149.974 80.1028 150.074 79.462L144.147 78.5344C144.012 79.3935 143.931 80.2208 143.899 81.017L149.894 81.2624Z" fill="#192E35" mask="url(#path-24-outside-1_4951_23189)"/>
<path d="M175.751 108.122C173.219 101.604 168.877 100.3 168.877 100.3L161.46 98.1821L138.306 108.773C138.306 108.773 127.367 117.326 125.558 120.585C123.749 123.843 124.083 127.351 123.402 130.747C122.564 134.933 125.008 139.561 123.198 144.123C121.389 148.685 118.113 172.981 120.283 182.756C122.454 192.533 124.144 197.751 124.325 198.729C124.505 199.706 109.725 254.927 109.725 254.927C109.725 254.927 103.213 280.672 104.661 287.188C106.107 293.706 138.668 349.104 138.668 349.104L144.839 361.346C144.839 361.347 129.85 373.363 130.87 376.546L161.761 362.024L156.36 342.894C156.36 342.894 151.149 317.006 147.351 306.252C143.552 295.498 134.689 285.07 134.689 285.07L133.784 281.16C133.784 281.16 140.008 271.149 143.626 263.979C147.244 256.811 156.034 234.56 156.034 234.56L162.184 227.228C162.184 227.228 170.989 215.605 172.495 209.468C175.084 198.92 170.916 189.823 168.816 186.401C166.715 182.98 160.92 175.545 160.196 171.797C159.473 168.05 159.47 160.913 159.47 160.913L173.942 125.066C173.942 125.066 178.283 114.639 175.751 108.122Z" fill="#D06E63"/>
<path d="M151.067 67.2261C149.684 64.7647 149.918 61.4907 151.637 59.2505C151.829 58.999 152.049 58.7281 152.035 58.4114C152.023 58.1396 151.839 57.9119 151.677 57.6934C150.788 56.4935 150.337 54.9382 150.614 53.472C150.891 52.0048 151.948 50.6699 153.371 50.2099C151.726 48.5895 152.135 45.5487 153.942 44.11C155.749 42.6714 158.481 42.7659 160.445 43.9815C160.222 42.5924 161.245 41.2207 162.544 40.6745C163.843 40.1291 165.331 40.2595 166.694 40.6166C168.528 41.0959 170.464 42.2398 170.768 44.1082C171.35 43.1038 172.734 42.8889 173.872 43.1139C176.929 43.7171 179.206 46.9552 178.737 50.0309C179.907 49.8005 181.165 49.7298 182.249 50.2228C183.333 50.7167 184.167 51.9121 183.915 53.0753C184.82 52.328 186.168 52.4731 187.274 52.8724C188.071 53.1607 188.856 53.584 189.348 54.2744C189.84 54.9639 189.961 55.9692 189.453 56.6468C191.088 56.767 192.5 58.2691 192.519 59.9051C192.537 61.5412 191.159 63.0744 189.527 63.2314C190.366 64.3919 190.551 65.9922 189.997 67.3124C189.445 68.6318 188.174 69.6251 186.758 69.8446C187.377 70.198 187.294 71.2144 186.735 71.6569C186.176 72.1004 185.371 72.0783 184.689 71.8718C183.908 74.2028 183.128 76.533 182.349 78.8631C181.846 80.367 181.328 81.8993 180.38 83.1718C179.433 84.4434 177.966 85.4359 176.378 85.4056" fill="#192E35"/>
<path d="M153.364 60.5128C155.549 54.9748 163.477 51.2977 168.926 53.7142L186.099 63.0918L185.054 66.1142L171.794 105.19L147.377 107.173L152.735 92.6392C152.735 92.6392 145.89 89.1063 147.44 79.199C148.211 74.2734 150.934 66.6659 153.364 60.5128Z" fill="#D06E63"/>
<path d="M152.55 68.4674C152.649 68.673 153.786 68.2911 155.087 68.7153C156.393 69.1192 157.132 70.0961 157.325 69.9832C157.417 69.9354 157.356 69.6012 157.038 69.1642C156.726 68.7309 156.122 68.2121 155.309 67.9542C154.497 67.6971 153.718 67.7751 153.227 67.9532C152.726 68.1314 152.499 68.3719 152.55 68.4674Z" fill="#192E35"/>
<path d="M165.36 72.6147C165.459 72.8203 166.597 72.4393 167.897 72.8626C169.203 73.2675 169.942 74.2443 170.135 74.1305C170.227 74.0827 170.168 73.7495 169.847 73.3124C169.536 72.8782 168.932 72.3604 168.119 72.1024C167.307 71.8444 166.528 71.9224 166.037 72.1015C165.537 72.2796 165.309 72.5201 165.36 72.6147Z" fill="#192E35"/>
<path d="M152.734 92.6399C152.734 92.6399 158.951 95.0967 166.463 93.3514C166.463 93.3514 160.977 98.8527 151.816 94.9223L152.734 92.6399Z" fill="#6F3530"/>
<path d="M158.593 80.1055C158.69 80.1055 158.784 80.0615 158.842 79.9798C158.936 79.8463 158.9 79.6657 158.763 79.5746C157.669 78.8554 156.984 77.9555 156.835 77.0384C156.707 76.2547 156.955 75.471 157.57 74.7062L157.663 74.5916C158.364 73.7216 158.969 72.9709 159.15 71.7679C159.213 71.3517 159.223 70.8963 159.184 70.3749C159.171 70.2147 159.025 70.0938 158.862 70.1064C158.696 70.1189 158.572 70.2587 158.584 70.4189C158.621 70.8963 158.611 71.3109 158.555 71.6831C158.397 72.7353 157.864 73.3965 157.189 74.2335L157.096 74.3482C156.385 75.2323 156.089 76.1935 156.241 77.1295C156.419 78.2209 157.174 79.2339 158.425 80.0552C158.477 80.0898 158.536 80.1055 158.593 80.1055Z" fill="#192E35"/>
<path d="M158.052 84.5238C157.235 84.445 156.422 84.1667 155.579 83.6791C154.798 83.2274 153.859 82.6223 153.53 81.9478C153.456 81.7958 153.519 81.6121 153.672 81.5386C153.825 81.4634 154.009 81.5261 154.083 81.6798C154.372 82.2705 155.473 82.9079 155.888 83.1478C156.809 83.6813 157.648 83.932 158.526 83.9335C160.115 83.9386 161.498 83.3844 162.878 82.1922C163.007 82.0815 163.201 82.0952 163.312 82.2225C163.423 82.3514 163.41 82.5449 163.282 82.6558C161.782 83.9513 160.27 84.5514 158.524 84.5477C158.367 84.5459 158.21 84.539 158.052 84.5238Z" fill="#192E35"/>
<path d="M167.448 64.9176C167.463 65.3123 168.817 65.5648 170.285 66.2415C171.768 66.8896 172.855 67.7334 173.16 67.4818C173.3 67.3588 173.194 66.9567 172.806 66.4545C172.423 65.9532 171.74 65.3738 170.856 64.9754C169.971 64.5797 169.083 64.4539 168.454 64.5007C167.82 64.5457 167.448 64.7321 167.448 64.9176Z" fill="#192E35"/>
<path d="M155.436 61.4398C155.569 61.8089 156.566 61.7924 157.649 62.1257C158.744 62.4222 159.577 62.9676 159.887 62.7261C160.028 62.6058 159.98 62.2634 159.671 61.8548C159.368 61.4499 158.784 61.0093 158.035 60.7926C157.286 60.5768 156.557 60.6374 156.084 60.8192C155.605 60.9992 155.381 61.2636 155.436 61.4398Z" fill="#192E35"/>
<path d="M160.768 50.909C159.603 52.4276 159.476 54.6623 160.46 56.3029C161.444 57.9436 163.478 58.8846 165.368 58.5762C164.549 58.9719 164.297 60.1076 164.66 60.9421C165.023 61.7767 165.84 62.3312 166.688 62.6645C168.47 63.3632 170.559 63.2356 172.243 62.3248C171.96 63.8287 172.439 65.4546 173.491 66.5664C174.543 67.6792 176.143 68.2484 177.662 68.0519C175.997 68.8489 174.942 70.7585 175.154 72.5892C175.365 74.4199 176.83 76.0395 178.634 76.4352C180.437 76.8309 182.446 75.9752 183.408 74.4016C184.933 74.2675 186.376 73.3889 187.193 72.0962C188.009 70.8026 188.183 69.1252 187.648 67.693C188.694 67.7095 189.656 66.9998 190.173 66.0918C190.69 65.1829 190.825 64.1059 190.82 63.0611C190.807 60.5042 189.939 57.871 188.069 56.1239C186.199 54.3767 183.244 53.7102 180.967 54.8826C180.71 55.0148 180.438 55.1727 180.152 55.1296C179.761 55.0708 179.531 54.6714 179.36 54.3152C178.604 52.7361 177.828 51.0477 176.362 50.0855C174.594 48.925 172.011 49.2197 170.55 50.7484C170.053 48.4549 168.038 46.4507 165.69 46.3681C163.341 46.2854 161.055 48.5027 161.423 50.8209" fill="#192E35"/>
<path d="M178.395 73.9896C177.871 75.9323 177.628 77.9512 177.675 79.9637C177.695 80.8175 177.846 81.8036 178.581 82.2397C179.251 82.6363 180.158 82.3673 180.71 81.8183C181.262 81.2692 181.536 80.5063 181.764 79.7626C182.576 77.1212 183.031 74.3852 183.483 71.6594" fill="#192E35"/>
<path d="M179.721 76.8711C179.857 76.8518 185.022 76.7489 183.544 81.5819C182.066 86.4157 177.511 83.9368 177.545 83.7954C177.579 83.655 179.721 76.8711 179.721 76.8711Z" fill="#D06E63"/>
<path d="M165.733 48.8073C165.733 48.8073 121.813 54.5988 119.313 55.4416C116.814 56.2826 114.288 59.024 113.925 59.9247C113.561 60.8263 112.502 63.2951 112.177 65.628C111.852 67.9609 118.705 86.3065 128.36 96.3378C138.391 106.761 147.435 114.082 147.435 114.082L162.892 104.124C165.16 102.663 165.482 99.4768 163.553 97.5928L133.91 68.6458L167.764 56.4616L165.733 48.8073Z" fill="#D06E63"/>
<path d="M166.761 56.0104C166.989 56.451 167.374 56.791 167.839 56.9645L171.244 58.2342C171.508 58.3325 171.789 58.3742 172.07 58.3567L179.543 57.8905C179.976 57.8636 180.389 57.697 180.719 57.416L182.203 56.152C182.831 55.6169 183.101 54.7148 182.579 54.0758C182.24 53.6613 181.776 53.3157 181.192 53.3934C180.234 53.5215 179.231 53.9682 178.737 54.212C178.533 54.313 178.303 54.3555 178.077 54.3216C177.377 54.2164 176.992 53.4503 177.326 52.8268L178.567 50.5133C178.651 50.3555 178.757 50.2097 178.88 50.0799L179.91 48.9964C180.22 48.6706 180.426 48.2486 180.391 47.8007C180.371 47.5447 180.322 47.2733 180.212 47.0933C179.946 46.6591 179.149 46.346 178.836 46.4176C178.549 46.4836 178.149 46.2655 178.157 45.9722C178.174 45.3939 178.071 44.7102 177.555 44.44C177.447 44.3837 177.338 44.3464 177.228 44.3247C176.553 44.1912 175.692 43.4872 175.114 43.1133C174.631 42.7993 174.051 42.848 173.931 42.848C173.838 42.848 173.126 43.2277 172.794 43.4071C172.684 43.4671 172.559 43.4969 172.433 43.4932C172.086 43.4828 171.798 43.2205 171.736 42.8785C171.629 42.2813 171.43 41.4358 171.152 41.3285C170.717 41.1587 170.355 41.2312 170.04 41.3285C169.837 41.3905 169.358 41.707 169.047 41.9215C168.856 42.0535 168.693 42.2219 168.563 42.414L167.383 44.1499C167.35 44.1982 167.317 44.2431 167.28 44.2883C166.993 44.6402 165.611 46.3295 164.534 47.619C163.818 48.4756 163.624 49.9595 164.137 50.9502L166.761 56.0104Z" fill="#D06E63"/>
<path d="M150.426 118.391C150.347 118.378 150.439 117.753 150.397 116.754C150.36 115.758 150.132 114.381 149.507 112.997C149.02 111.917 148.393 111.002 147.79 110.338C147.196 109.661 146.63 109.244 146.347 108.982L146.475 108.918C146.434 109.156 146.398 109.275 146.37 109.273C146.34 109.271 146.321 109.149 146.311 108.908L146.305 108.77L146.439 108.845C146.777 109.034 147.41 109.402 148.073 110.07C148.743 110.723 149.433 111.667 149.944 112.801C150.601 114.256 150.787 115.721 150.736 116.754C150.69 117.793 150.475 118.404 150.426 118.391Z" fill="#F68260"/>
<mask id="path-42-outside-2_4951_23189" maskUnits="userSpaceOnUse" x="104.124" y="166.273" width="41" height="41" fill="black">
<rect fill="white" x="104.124" y="166.273" width="41" height="41"/>
<path d="M133.509 201.764C129.996 205.463 124.397 206.037 120.24 203.394C116.904 206.04 112.024 205.906 108.84 202.903C105.355 199.615 105.203 194.114 108.503 190.641C109.654 189.429 111.127 188.59 112.721 188.195C112.353 184.809 113.47 181.347 115.877 178.813C118.522 176.027 122.3 174.754 125.981 175.236C126.267 173.857 126.929 172.559 127.927 171.508C130.856 168.426 135.755 168.292 138.849 171.211C141.384 173.602 141.931 177.314 140.433 180.272C143.468 183.197 143.581 188.036 140.672 191.098C139.479 192.353 137.944 193.142 136.314 193.407C136.653 196.408 135.678 199.482 133.509 201.764Z"/>
</mask>
<path d="M133.509 201.764C129.996 205.463 124.397 206.037 120.24 203.394C116.904 206.04 112.024 205.906 108.84 202.903C105.355 199.615 105.203 194.114 108.503 190.641C109.654 189.429 111.127 188.59 112.721 188.195C112.353 184.809 113.47 181.347 115.877 178.813C118.522 176.027 122.3 174.754 125.981 175.236C126.267 173.857 126.929 172.559 127.927 171.508C130.856 168.426 135.755 168.292 138.849 171.211C141.384 173.602 141.931 177.314 140.433 180.272C143.468 183.197 143.581 188.036 140.672 191.098C139.479 192.353 137.944 193.142 136.314 193.407C136.653 196.408 135.678 199.482 133.509 201.764Z" fill="white"/>
<path d="M120.24 203.394L118.997 201.828L120.112 200.943L121.313 201.707L120.24 203.394ZM108.84 202.903L107.468 204.358L107.468 204.358L108.84 202.903ZM108.503 190.641L109.953 192.018L109.953 192.018L108.503 190.641ZM112.721 188.195L114.71 187.979L114.898 189.716L113.203 190.136L112.721 188.195ZM115.877 178.813L117.327 180.191L117.327 180.191L115.877 178.813ZM125.981 175.236L127.939 175.642L127.562 177.459L125.722 177.219L125.981 175.236ZM127.927 171.508L126.476 170.131L126.477 170.131L127.927 171.508ZM138.849 171.211L137.476 172.666L137.476 172.665L138.849 171.211ZM140.433 180.272L139.045 181.712L137.982 180.687L138.649 179.369L140.433 180.272ZM140.672 191.098L139.222 189.72L139.222 189.72L140.672 191.098ZM136.314 193.407L134.326 193.632L134.112 191.739L135.992 191.433L136.314 193.407ZM134.959 203.141C130.773 207.549 124.113 208.227 119.167 205.082L121.313 201.707C124.681 203.848 129.219 203.377 132.059 200.387L134.959 203.141ZM121.483 204.961C117.381 208.215 111.386 208.053 107.468 204.358L110.212 201.448C112.662 203.758 116.428 203.865 118.997 201.828L121.483 204.961ZM107.468 204.358C103.178 200.31 102.99 193.539 107.053 189.263L109.953 192.018C107.416 194.688 107.533 198.92 110.213 201.448L107.468 204.358ZM107.053 189.263C108.473 187.768 110.286 186.738 112.24 186.254L113.203 190.136C111.968 190.442 110.834 191.091 109.953 192.018L107.053 189.263ZM110.733 188.411C110.303 184.454 111.606 180.405 114.427 177.436L117.327 180.191C115.334 182.288 114.403 185.163 114.71 187.979L110.733 188.411ZM114.426 177.436C117.521 174.177 121.938 172.69 126.24 173.253L125.722 177.219C122.661 176.819 119.523 177.878 117.327 180.191L114.426 177.436ZM124.023 174.829C124.383 173.095 125.216 171.459 126.476 170.131L129.377 172.885C128.642 173.66 128.152 174.619 127.939 175.642L124.023 174.829ZM126.477 170.131C130.165 166.249 136.326 166.081 140.221 169.756L137.476 172.665C135.184 170.503 131.546 170.603 129.377 172.886L126.477 170.131ZM140.221 169.756C143.42 172.772 144.104 177.449 142.218 181.176L138.649 179.369C139.758 177.178 139.349 174.432 137.476 172.666L140.221 169.756ZM141.821 178.832C145.646 182.518 145.789 188.615 142.122 192.475L139.222 189.72C141.373 187.456 141.29 183.876 139.045 181.712L141.821 178.832ZM142.122 192.475C140.624 194.052 138.691 195.047 136.635 195.381L135.992 191.433C137.198 191.237 138.335 190.654 139.222 189.72L142.122 192.475ZM138.301 193.183C138.705 196.758 137.544 200.422 134.959 203.142L132.059 200.386C133.812 198.542 134.6 196.059 134.326 193.632L138.301 193.183Z" fill="#CCE9FE" mask="url(#path-42-outside-2_4951_23189)"/>
<mask id="path-44-outside-3_4951_23189" maskUnits="userSpaceOnUse" x="139.78" y="158.694" width="55.4703" height="55.3984" fill="black">
<rect fill="white" x="139.78" y="158.694" width="55.4703" height="55.3984"/>
<path d="M184.912 185.592C186.538 190.424 184.421 195.631 180.135 198.059C180.912 202.241 178.506 206.482 174.357 207.883C169.815 209.416 164.876 206.971 163.35 202.433C162.817 200.851 162.766 199.158 163.163 197.566C159.995 196.304 157.455 193.696 156.342 190.386C155.117 186.747 155.761 182.819 157.912 179.798C156.827 178.899 155.989 177.707 155.527 176.334C154.172 172.307 156.35 167.923 160.382 166.562C163.687 165.447 167.227 166.704 169.142 169.412C173.152 168.106 177.486 170.274 178.832 174.275C179.384 175.915 179.362 177.639 178.832 179.202C181.647 180.309 183.909 182.609 184.912 185.592Z"/>
</mask>
<path d="M184.912 185.592C186.538 190.424 184.421 195.631 180.135 198.059C180.912 202.241 178.506 206.482 174.357 207.883C169.815 209.416 164.876 206.971 163.35 202.433C162.817 200.851 162.766 199.158 163.163 197.566C159.995 196.304 157.455 193.696 156.342 190.386C155.117 186.747 155.761 182.819 157.912 179.798C156.827 178.899 155.989 177.707 155.527 176.334C154.172 172.307 156.35 167.923 160.382 166.562C163.687 165.447 167.227 166.704 169.142 169.412C173.152 168.106 177.486 170.274 178.832 174.275C179.384 175.915 179.362 177.639 178.832 179.202C181.647 180.309 183.909 182.609 184.912 185.592Z" fill="white"/>
<path d="M180.135 198.059L178.167 198.425L177.907 197.024L179.149 196.32L180.135 198.059ZM174.357 207.883L174.996 209.777L174.996 209.777L174.357 207.883ZM163.35 202.433L165.247 201.795L165.247 201.795L163.35 202.433ZM163.163 197.566L163.906 195.71L165.528 196.356L165.105 198.049L163.163 197.566ZM156.342 190.386L158.239 189.748L158.239 189.748L156.342 190.386ZM157.912 179.798L159.19 178.258L160.62 179.442L159.543 180.956L157.912 179.798ZM155.527 176.334L153.63 176.973L153.63 176.972L155.527 176.334ZM160.382 166.562L161.022 168.456L161.021 168.456L160.382 166.562ZM169.142 169.412L169.761 171.312L168.359 171.769L167.508 170.566L169.142 169.412ZM178.832 174.275L176.935 174.913L176.935 174.913L178.832 174.275ZM178.832 179.202L178.098 181.061L176.326 180.364L176.937 178.562L178.832 179.202ZM186.808 184.954C188.747 190.712 186.224 196.908 181.121 199.798L179.149 196.32C182.619 194.355 184.329 190.135 183.015 186.23L186.808 184.954ZM182.102 197.693C183.059 202.838 180.103 208.052 174.996 209.777L173.717 205.989C176.908 204.912 178.766 201.644 178.167 198.425L182.102 197.693ZM174.996 209.777C169.406 211.663 163.332 208.656 161.453 203.071L165.247 201.795C166.421 205.286 170.223 207.168 173.718 205.989L174.996 209.777ZM161.453 203.071C160.796 201.118 160.734 199.036 161.222 197.084L165.105 198.049C164.797 199.28 164.839 200.583 165.247 201.795L161.453 203.071ZM162.421 199.423C158.72 197.949 155.75 194.904 154.445 191.024L158.239 189.748C159.161 192.489 161.269 194.659 163.906 195.71L162.421 199.423ZM154.445 191.025C153.012 186.767 153.767 182.173 156.282 178.64L159.543 180.956C157.756 183.465 157.222 186.727 158.239 189.748L154.445 191.025ZM156.635 181.337C155.271 180.208 154.214 178.706 153.63 176.973L157.423 175.696C157.764 176.707 158.383 177.591 159.19 178.258L156.635 181.337ZM153.63 176.972C151.924 171.899 154.664 166.382 159.743 164.668L161.021 168.456C158.036 169.464 156.421 172.714 157.424 175.697L153.63 176.972ZM159.743 164.669C163.91 163.261 168.366 164.849 170.777 168.257L167.508 170.566C166.088 168.558 163.463 167.632 161.022 168.456L159.743 164.669ZM168.523 167.511C173.576 165.866 179.033 168.596 180.729 173.637L176.935 174.913C175.939 171.953 172.729 170.346 169.761 171.312L168.523 167.511ZM180.729 173.637C181.422 175.697 181.396 177.87 180.728 179.841L176.937 178.562C177.328 177.408 177.346 176.134 176.935 174.913L180.729 173.637ZM179.567 177.342C182.917 178.66 185.614 181.4 186.809 184.954L183.014 186.229C182.204 183.819 180.376 181.958 178.098 181.061L179.567 177.342Z" fill="#CCE9FE" mask="url(#path-44-outside-3_4951_23189)"/>
<mask id="path-46-outside-4_4951_23189" maskUnits="userSpaceOnUse" x="145.085" y="120.985" width="32.4704" height="32.4283" fill="black">
<rect fill="white" x="145.085" y="120.985" width="32.4704" height="32.4283"/>
<path d="M170.717 136.784C171.595 139.393 170.453 142.204 168.139 143.515C168.558 145.772 167.259 148.062 165.019 148.818C162.567 149.645 159.901 148.326 159.077 145.876C158.79 145.021 158.762 144.108 158.977 143.249C157.266 142.567 155.895 141.159 155.294 139.372C154.633 137.408 154.981 135.287 156.142 133.656C155.556 133.171 155.104 132.527 154.854 131.787C154.123 129.612 155.299 127.246 157.475 126.511C159.259 125.909 161.17 126.588 162.204 128.049C164.369 127.345 166.709 128.515 167.435 130.675C167.733 131.56 167.721 132.491 167.435 133.334C168.955 133.932 170.176 135.174 170.717 136.784Z"/>
</mask>
<path d="M170.717 136.784C171.595 139.393 170.453 142.204 168.139 143.515C168.558 145.772 167.259 148.062 165.019 148.818C162.567 149.645 159.901 148.326 159.077 145.876C158.79 145.021 158.762 144.108 158.977 143.249C157.266 142.567 155.895 141.159 155.294 139.372C154.633 137.408 154.981 135.287 156.142 133.656C155.556 133.171 155.104 132.527 154.854 131.787C154.123 129.612 155.299 127.246 157.475 126.511C159.259 125.909 161.17 126.588 162.204 128.049C164.369 127.345 166.709 128.515 167.435 130.675C167.733 131.56 167.721 132.491 167.435 133.334C168.955 133.932 170.176 135.174 170.717 136.784Z" fill="white"/>
<path d="M168.139 143.515L166.171 143.881L165.911 142.479L167.153 141.776L168.139 143.515ZM165.019 148.818L165.659 150.712L165.659 150.712L165.019 148.818ZM159.077 145.876L160.974 145.238L160.974 145.238L159.077 145.876ZM158.977 143.249L159.719 141.392L161.341 142.038L160.918 143.731L158.977 143.249ZM155.294 139.372L157.191 138.734L157.191 138.735L155.294 139.372ZM156.142 133.656L157.419 132.117L158.85 133.301L157.772 134.814L156.142 133.656ZM154.854 131.787L152.957 132.425L152.957 132.424L154.854 131.787ZM157.475 126.511L158.115 128.405L158.114 128.405L157.475 126.511ZM162.204 128.049L162.823 129.95L161.421 130.407L160.57 129.204L162.204 128.049ZM167.435 130.675L165.538 131.313L165.538 131.313L167.435 130.675ZM167.435 133.334L166.701 135.194L164.929 134.497L165.54 132.695L167.435 133.334ZM172.614 136.146C173.804 139.681 172.255 143.48 169.125 145.253L167.153 141.776C168.65 140.928 169.386 139.104 168.82 137.422L172.614 136.146ZM170.106 143.148C170.705 146.369 168.857 149.632 165.659 150.712L164.38 146.924C165.662 146.491 166.412 145.175 166.171 143.881L170.106 143.148ZM165.659 150.712C162.159 151.893 158.357 150.011 157.18 146.514L160.974 145.238C161.446 146.64 162.976 147.398 164.38 146.924L165.659 150.712ZM157.18 146.514C156.768 145.289 156.73 143.986 157.035 142.766L160.918 143.731C160.794 144.23 160.812 144.754 160.974 145.238L157.18 146.514ZM158.234 145.105C155.991 144.212 154.19 142.367 153.397 140.01L157.191 138.735C157.601 139.952 158.54 140.922 159.719 141.392L158.234 145.105ZM153.397 140.011C152.528 137.428 152.986 134.641 154.512 132.498L157.772 134.814C156.975 135.933 156.738 137.388 157.191 138.734L153.397 140.011ZM154.865 135.196C154 134.48 153.328 133.527 152.957 132.425L156.751 131.148C156.879 131.528 157.112 131.863 157.419 132.117L154.865 135.196ZM152.957 132.424C151.874 129.205 153.613 125.705 156.836 124.617L158.114 128.405C156.984 128.786 156.371 130.02 156.751 131.149L152.957 132.424ZM156.836 124.618C159.483 123.724 162.309 124.733 163.839 126.895L160.57 129.204C160.031 128.442 159.035 128.094 158.115 128.405L156.836 124.618ZM161.585 126.149C164.793 125.105 168.256 126.837 169.332 130.037L165.538 131.313C165.162 130.194 163.945 129.585 162.823 129.95L161.585 126.149ZM169.332 130.037C169.771 131.342 169.755 132.722 169.331 133.974L165.54 132.695C165.687 132.26 165.695 131.779 165.538 131.313L169.332 130.037ZM168.17 131.475C170.226 132.284 171.881 133.965 172.614 136.147L168.82 137.422C168.471 136.383 167.684 135.581 166.701 135.194L168.17 131.475Z" fill="#CCE9FE" mask="url(#path-46-outside-4_4951_23189)"/>
<mask id="path-48-outside-5_4951_23189" maskUnits="userSpaceOnUse" x="116.143" y="102.821" width="42" height="40" fill="black">
<rect fill="white" x="116.143" y="102.821" width="42" height="40"/>
<path d="M128.293 108.008C132.013 104.473 137.667 104.183 141.706 107.05C145.193 104.563 150.089 104.948 153.132 108.128C156.463 111.61 156.332 117.144 152.838 120.463C151.619 121.621 150.096 122.388 148.474 122.703C148.67 126.124 147.368 129.545 144.821 131.966C142.019 134.629 138.158 135.714 134.487 135.042C134.127 136.412 133.395 137.681 132.338 138.685C129.238 141.632 124.31 141.515 121.353 138.426C118.929 135.892 118.571 132.137 120.228 129.241C117.331 126.148 117.468 121.283 120.547 118.355C121.81 117.155 123.394 116.442 125.044 116.26C124.859 113.227 125.997 110.19 128.293 108.008Z"/>
</mask>
<path d="M128.293 108.008C132.013 104.473 137.667 104.183 141.706 107.05C145.193 104.563 150.089 104.948 153.132 108.128C156.463 111.61 156.332 117.144 152.838 120.463C151.619 121.621 150.096 122.388 148.474 122.703C148.67 126.124 147.368 129.545 144.821 131.966C142.019 134.629 138.158 135.714 134.487 135.042C134.127 136.412 133.395 137.681 132.338 138.685C129.238 141.632 124.31 141.515 121.353 138.426C118.929 135.892 118.571 132.137 120.228 129.241C117.331 126.148 117.468 121.283 120.547 118.355C121.81 117.155 123.394 116.442 125.044 116.26C124.859 113.227 125.997 110.19 128.293 108.008Z" fill="white"/>
<path d="M141.706 107.05L142.868 108.678L141.709 109.505L140.549 108.681L141.706 107.05ZM153.132 108.128L151.687 109.511L151.686 109.511L153.132 108.128ZM152.838 120.463L154.216 121.913L154.216 121.913L152.838 120.463ZM148.474 122.703L146.478 122.818L146.378 121.073L148.093 120.74L148.474 122.703ZM144.821 131.966L146.199 133.416L146.198 133.416L144.821 131.966ZM134.487 135.042L132.552 134.534L133.023 132.741L134.847 133.074L134.487 135.042ZM132.338 138.685L130.96 137.235L130.961 137.235L132.338 138.685ZM121.353 138.426L122.798 137.043L122.798 137.043L121.353 138.426ZM120.228 129.241L121.688 127.874L122.697 128.952L121.964 130.234L120.228 129.241ZM120.547 118.355L119.169 116.906L119.169 116.905L120.547 118.355ZM125.044 116.26L127.04 116.138L127.156 118.039L125.263 118.248L125.044 116.26ZM126.915 106.558C131.343 102.351 138.062 102.01 142.864 105.419L140.549 108.681C137.273 106.355 132.682 106.596 129.67 109.458L126.915 106.558ZM140.545 105.422C144.828 102.367 150.836 102.836 154.577 106.746L151.686 109.511C149.342 107.061 145.558 106.759 142.868 108.678L140.545 105.422ZM154.577 106.746C158.674 111.027 158.513 117.831 154.216 121.913L151.461 119.013C154.152 116.456 154.253 112.193 151.687 109.511L154.577 106.746ZM154.216 121.913C152.714 123.34 150.842 124.281 148.856 124.666L148.093 120.74C149.35 120.496 150.525 119.902 151.461 119.013L154.216 121.913ZM150.471 122.589C150.7 126.584 149.182 130.581 146.199 133.416L143.443 130.517C145.555 128.509 146.641 125.664 146.478 122.818L150.471 122.589ZM146.198 133.416C142.924 136.528 138.414 137.794 134.127 137.009L134.847 133.074C137.902 133.634 141.114 132.73 143.443 130.517L146.198 133.416ZM136.421 135.549C135.97 137.27 135.049 138.869 133.715 140.135L130.961 137.235C131.741 136.494 132.284 135.554 132.552 134.534L136.421 135.549ZM133.716 140.134C129.817 143.841 123.627 143.694 119.908 139.808L122.798 137.043C124.993 139.336 128.659 139.423 130.96 137.235L133.716 140.134ZM119.908 139.808C116.854 136.617 116.408 131.89 118.492 128.248L121.964 130.234C120.734 132.383 121.004 135.168 122.798 137.043L119.908 139.808ZM118.768 130.608C115.12 126.713 115.293 120.591 119.169 116.906L121.925 119.804C119.642 121.975 119.542 125.582 121.688 127.874L118.768 130.608ZM119.169 116.905C120.754 115.399 122.746 114.501 124.825 114.272L125.263 118.248C124.041 118.382 122.867 118.91 121.925 119.805L119.169 116.905ZM123.048 116.381C122.828 112.772 124.182 109.156 126.915 106.558L129.671 109.457C127.812 111.224 126.891 113.682 127.04 116.138L123.048 116.381Z" fill="#CCE9FE" mask="url(#path-48-outside-5_4951_23189)"/>
<path d="M144 161.647C146 160.314 150.9 157.747 154.5 158.147" stroke="#192E35" stroke-linecap="round"/>
<path d="M172 112.105C170.667 107.939 168.636 102.23 162.5 96.6055C156.5 91.1055 139.667 74.9388 134 68.6055" stroke="#192E35" stroke-linecap="round"/>
<path fill-rule="evenodd" clip-rule="evenodd" d="M182.188 80.2141C182.212 79.6673 182.062 79.1118 181.566 78.8834C181.479 78.8433 181.376 78.8813 181.336 78.9683C181.296 79.0553 181.334 79.1583 181.421 79.1984C181.719 79.3357 181.864 79.6958 181.842 80.1991C181.82 80.6922 181.637 81.2556 181.367 81.6838C181.033 82.214 180.529 82.3607 180.088 82.3721C179.867 82.3778 179.667 82.3489 179.521 82.3182C179.448 82.3029 179.39 82.2873 179.35 82.2758C179.33 82.27 179.315 82.2653 179.305 82.2621C179.3 82.2605 179.297 82.2593 179.295 82.2586L179.293 82.2578L179.293 82.2578C179.293 82.2578 179.293 82.2578 179.292 82.2578M179.292 82.2578C179.202 82.2256 179.103 82.2726 179.071 82.3627C179.038 82.4529 179.085 82.5521 179.176 82.5844L179.232 82.4283C179.176 82.5844 179.176 82.5844 179.176 82.5844L179.176 82.5845L179.176 82.5847L179.178 82.5852L179.182 82.5867C179.186 82.5879 179.191 82.5897 179.198 82.5918C179.211 82.596 179.229 82.6019 179.253 82.6087C179.3 82.6224 179.367 82.6402 179.449 82.6576C179.613 82.6921 179.842 82.7254 180.097 82.7188C180.609 82.7056 181.245 82.5298 181.661 81.8684C181.961 81.3925 182.164 80.7711 182.188 80.2141" fill="#192E35"/>
</g>
</svg>
