<svg width="428" height="332" viewBox="0 0 428 332" fill="none" xmlns="http://www.w3.org/2000/svg">
<rect width="428" height="332" fill="#DCFBF3"/>
<mask id="mask0_4962_28988" style="mask-type:alpha" maskUnits="userSpaceOnUse" x="0" y="0" width="428" height="332">
<rect width="428" height="332" fill="#D9D9D9"/>
</mask>
<g mask="url(#mask0_4962_28988)">
<path fill-rule="evenodd" clip-rule="evenodd" d="M545.382 42.447C574.784 57.1753 615.971 62.9331 626.576 94.0866C637.078 124.937 614.033 158.361 593.497 183.787C576.299 205.079 543.975 204.283 523.19 222.086C495.247 246.021 489.837 301.156 453.218 303.941C418.422 306.587 405.509 256.745 380.057 232.972C355.952 210.458 308.482 201.557 308.213 168.503C307.925 133.273 365.004 125.635 378.916 93.2164C392.73 61.0287 356.214 11.7713 384.402 -9.03137C411.505 -29.0339 446.363 9.60636 478.348 19.8347C501.374 27.1978 523.776 31.6239 545.382 42.447Z" fill="#ABFEE6"/>
<path fill-rule="evenodd" clip-rule="evenodd" d="M524.656 61.66C547.389 73.0478 579.235 77.4997 587.435 101.587C595.555 125.44 577.737 151.283 561.858 170.942C548.561 187.405 523.569 186.789 507.498 200.554C485.893 219.06 481.71 261.69 453.396 263.844C426.493 265.89 416.509 227.352 396.829 208.971C378.192 191.564 341.489 184.682 341.28 159.125C341.058 131.886 385.19 125.98 395.947 100.914C406.628 76.0272 378.394 37.942 400.189 21.8576C421.145 6.39197 448.096 36.2681 472.827 44.1765C490.63 49.8696 507.951 53.2917 524.656 61.66Z" fill="#DCFBF3"/>
<path d="M458.304 17.1052C457.964 17.1255 457.624 17.1462 457.284 17.1673L457.315 17.6663C456.635 17.7084 455.954 17.752 455.272 17.7975L455.239 17.2986C454.558 17.344 453.877 17.3912 453.194 17.4404L453.23 17.9391C452.551 17.988 451.871 18.0389 451.19 18.0921L451.151 17.5936C450.471 17.6466 449.79 17.7019 449.109 17.7596L449.151 18.2578C448.472 18.3153 447.792 18.3752 447.112 18.4376L447.067 17.9397C446.387 18.0022 445.706 18.0673 445.025 18.1351L445.075 18.6327C444.397 18.7003 443.718 18.7707 443.04 18.8441L442.986 18.347C442.307 18.4205 441.627 18.497 440.948 18.5767L441.006 19.0733C440.329 19.1527 439.652 19.2354 438.975 19.3214L438.912 18.8254C438.234 18.9117 437.556 19.0013 436.878 19.0946L436.947 19.5899C436.271 19.683 435.596 19.7796 434.921 19.8801L434.847 19.3855C434.171 19.4863 433.495 19.5909 432.819 19.6996L432.899 20.1932C432.225 20.3017 431.552 20.4142 430.88 20.5309L430.795 20.0383C430.12 20.1555 429.447 20.277 428.775 20.4029L428.867 20.8944C428.196 21.0201 427.526 21.1503 426.858 21.2852L426.759 20.7951C426.088 20.9307 425.418 21.0711 424.75 21.2163L424.856 21.7049C424.189 21.8501 423.523 22.0001 422.859 22.1553L422.746 21.6685C422.078 21.8247 421.412 21.9861 420.749 22.1529L420.871 22.6378C420.208 22.8044 419.548 22.9764 418.891 23.154L418.76 22.6713C418.098 22.8502 417.438 23.0348 416.782 23.2253L416.921 23.7056C416.265 23.8958 415.612 24.092 414.961 24.2944L414.813 23.8169C414.157 24.021 413.504 24.2314 412.855 24.4482L413.013 24.9224C412.365 25.1388 411.72 25.3616 411.079 25.5911L410.911 25.1203C410.264 25.3518 409.621 25.5901 408.982 25.8353L409.161 26.3021C408.523 26.5468 407.889 26.7984 407.26 27.0572L407.07 26.5948C406.434 26.8561 405.803 27.1247 405.176 27.4008L405.377 27.8584C404.752 28.1339 404.131 28.4169 403.515 28.7076L403.302 28.2554C402.68 28.5489 402.063 28.8502 401.451 29.1597L401.676 29.6059C401.067 29.914 400.463 30.2302 399.864 30.5548L399.626 30.1151C399.021 30.4426 398.422 30.7786 397.828 31.1232L398.079 31.5556C397.489 31.8982 396.905 32.2495 396.326 32.6096L396.062 32.1851C395.478 32.5484 394.9 32.9206 394.329 33.3021L394.606 33.718C394.039 34.0965 393.478 34.4842 392.923 34.8811L392.632 34.4745C392.073 34.8744 391.521 35.2838 390.975 35.7028L391.279 36.0994C390.739 36.5143 390.205 36.9388 389.678 37.373L389.36 36.9872C388.83 37.4241 388.307 37.8709 387.791 38.3277L388.122 38.7021C387.613 39.1535 387.11 39.6147 386.614 40.0861L386.27 39.7239C385.773 40.1966 385.283 40.6795 384.801 41.1728L385.159 41.5223C384.684 42.0082 384.216 42.5043 383.756 43.0106L383.386 42.6745C383.155 42.9294 382.925 43.187 382.697 43.4472C382.468 43.7099 382.243 43.9748 382.024 44.2417L382.41 44.559C381.975 45.0884 381.562 45.6258 381.169 46.1709L380.763 45.8783C380.357 46.4413 379.972 47.0123 379.607 47.591L380.03 47.8576C379.666 48.4349 379.323 49.02 378.998 49.6126L378.56 49.3725C378.227 49.9793 377.915 50.5937 377.622 51.2152L378.074 51.4287C377.783 52.0437 377.512 52.6659 377.257 53.295L376.794 53.1075C376.536 53.7454 376.295 54.3899 376.072 55.0405L376.545 55.203C376.325 55.8441 376.12 56.4915 375.931 57.145L375.451 57.0061C375.261 57.6642 375.086 58.328 374.925 58.9971L375.411 59.1141C375.252 59.7721 375.108 60.4356 374.975 61.1042L374.485 61.0072C374.352 61.6774 374.232 62.3522 374.124 63.0314L374.617 63.1104C374.511 63.7786 374.415 64.4513 374.329 65.1283L373.833 65.0655C373.747 65.7415 373.672 66.4214 373.605 67.1047L374.103 67.1533C374.037 67.826 373.98 68.5024 373.931 69.1822L373.432 69.146C373.383 69.8242 373.341 70.5055 373.306 71.1895L373.805 71.2151C373.771 71.8908 373.742 72.5694 373.72 73.2507L373.22 73.2341C373.197 73.9134 373.18 74.5951 373.168 75.2788L373.668 75.288C373.655 75.9654 373.647 76.6449 373.642 77.3263L373.142 77.323C373.138 78.0022 373.137 78.6831 373.138 79.3653L373.638 79.3643C373.64 80.0417 373.644 80.7207 373.649 81.4009L373.149 81.4051C373.155 82.0838 373.162 82.7636 373.17 83.4441L373.67 83.4382C373.677 84.0071 373.684 84.5766 373.691 85.1466C373.693 85.2563 373.694 85.3661 373.695 85.4758L373.195 85.4822C373.204 86.1609 373.212 86.8398 373.22 87.519L373.72 87.5135C373.727 88.1925 373.734 88.8718 373.738 89.551L373.238 89.5544C373.243 90.2327 373.245 90.9108 373.245 91.5885L373.745 91.5885C373.745 92.2682 373.742 92.9476 373.736 93.6263L373.236 93.6216C373.229 94.2997 373.219 94.9769 373.205 95.6531L373.705 95.6638C373.69 96.3437 373.671 97.0227 373.646 97.7004L373.147 97.6823C373.122 98.3592 373.092 99.0347 373.056 99.7084L373.555 99.7353C373.518 100.415 373.475 101.093 373.425 101.769L372.926 101.731C372.876 102.407 372.819 103.08 372.753 103.75L373.25 103.799C373.184 104.477 373.109 105.152 373.025 105.824L372.529 105.762C372.445 106.433 372.352 107.101 372.249 107.765L372.743 107.842C372.639 108.514 372.524 109.183 372.398 109.849L371.907 109.757C371.782 110.419 371.645 111.078 371.497 111.733L371.984 111.844C371.834 112.507 371.671 113.166 371.495 113.822L371.012 113.692C370.838 114.341 370.65 114.986 370.448 115.627L370.925 115.777C370.721 116.425 370.503 117.068 370.27 117.706L369.8 117.534C369.685 117.849 369.566 118.164 369.443 118.476C369.324 118.78 369.201 119.082 369.075 119.382L369.536 119.576C369.28 120.184 369.011 120.787 368.728 121.384L368.276 121.17C367.998 121.759 367.706 122.344 367.402 122.923L367.844 123.156C367.539 123.738 367.221 124.316 366.892 124.89L366.458 124.641C366.133 125.207 365.797 125.768 365.451 126.326L365.875 126.59C365.527 127.149 365.169 127.705 364.802 128.256L364.386 127.979C364.024 128.522 363.653 129.061 363.273 129.597L363.681 129.886C363.3 130.422 362.911 130.956 362.514 131.486L362.114 131.186C361.722 131.71 361.321 132.231 360.914 132.749L361.307 133.058C360.901 133.575 360.488 134.09 360.068 134.602L359.682 134.285C359.266 134.791 358.845 135.295 358.418 135.797L358.799 136.121C358.372 136.623 357.94 137.122 357.503 137.62L357.127 137.29C356.694 137.783 356.257 138.274 355.815 138.764L356.186 139.099C355.745 139.588 355.299 140.075 354.851 140.561L354.484 140.221C354.037 140.705 353.588 141.186 353.136 141.667L353.5 142.009C353.048 142.49 352.594 142.969 352.137 143.447L351.776 143.101C351.321 143.578 350.864 144.054 350.406 144.528L350.766 144.875C350.307 145.35 349.848 145.825 349.388 146.298L349.029 145.95C348.569 146.423 348.109 146.896 347.649 147.368L348.007 147.717C347.903 147.824 347.798 147.932 347.694 148.039C347.337 148.405 346.98 148.771 346.625 149.136L346.266 148.788C345.805 149.262 345.344 149.736 344.886 150.209L345.245 150.557C344.785 151.032 344.327 151.507 343.872 151.981L343.511 151.635C343.051 152.114 342.594 152.593 342.141 153.073L342.504 153.416C342.048 153.898 341.596 154.379 341.148 154.861L340.782 154.521C340.33 155.007 339.882 155.493 339.439 155.981L339.809 156.317C339.363 156.808 338.921 157.299 338.486 157.792L338.111 157.461C337.67 157.96 337.234 158.461 336.805 158.963L337.185 159.288C336.754 159.792 336.33 160.297 335.913 160.804L335.527 160.486C335.104 161.001 334.688 161.517 334.281 162.036L334.674 162.345C334.263 162.868 333.861 163.393 333.469 163.921L333.068 163.622C332.668 164.159 332.279 164.699 331.9 165.241L332.309 165.527C331.929 166.071 331.56 166.618 331.203 167.167L330.784 166.895C330.419 167.456 330.066 168.02 329.727 168.588L330.156 168.844C329.815 169.415 329.487 169.99 329.175 170.568L328.735 170.33C328.415 170.92 328.11 171.515 327.822 172.114L328.272 172.331C327.985 172.928 327.713 173.53 327.459 174.135L326.998 173.942C326.739 174.561 326.497 175.185 326.275 175.814L326.746 175.981C326.525 176.604 326.323 177.232 326.142 177.866L325.661 177.728C325.477 178.373 325.312 179.023 325.17 179.679L325.658 179.786C325.518 180.428 325.4 181.077 325.303 181.731L324.809 181.659C324.711 182.319 324.636 182.986 324.584 183.659L325.083 183.698C325.033 184.352 325.005 185.012 325.001 185.678L324.501 185.675C324.496 186.34 324.515 187.011 324.558 187.688L325.057 187.657C325.098 188.305 325.161 188.96 325.247 189.621L324.751 189.686C324.795 190.02 324.845 190.356 324.9 190.693C324.954 191.022 325.013 191.349 325.075 191.674L325.566 191.58C325.689 192.224 325.829 192.859 325.984 193.486L325.498 193.606C325.658 194.251 325.833 194.887 326.024 195.516L326.503 195.37C326.694 195.997 326.9 196.615 327.122 197.225L326.652 197.396C326.879 198.019 327.121 198.633 327.378 199.239L327.838 199.043C328.093 199.644 328.364 200.236 328.648 200.821L328.199 201.04C328.488 201.634 328.792 202.219 329.111 202.797L329.549 202.555C329.863 203.126 330.192 203.688 330.534 204.243L330.108 204.506C330.454 205.066 330.813 205.619 331.185 206.164L331.598 205.882C331.965 206.419 332.344 206.948 332.736 207.471L332.336 207.771C332.731 208.297 333.137 208.815 333.556 209.326L333.943 209.01C334.354 209.512 334.777 210.008 335.211 210.497L334.837 210.829C335.272 211.319 335.717 211.802 336.173 212.279L336.534 211.933C336.983 212.402 337.442 212.865 337.91 213.321L337.561 213.68C338.03 214.137 338.509 214.588 338.996 215.033L339.333 214.663C339.813 215.101 340.301 215.533 340.798 215.959L340.473 216.338C340.969 216.763 341.473 217.183 341.984 217.597L342.299 217.208C342.803 217.616 343.316 218.019 343.835 218.417L343.531 218.814C344.05 219.211 344.577 219.604 345.11 219.991L345.404 219.587C345.929 219.968 346.46 220.345 346.998 220.717L346.713 221.128C347.25 221.499 347.792 221.866 348.34 222.228L348.616 221.811C349.158 222.169 349.706 222.523 350.259 222.872L349.992 223.295C350.544 223.644 351.101 223.989 351.663 224.33L351.923 223.902C352.478 224.238 353.037 224.571 353.601 224.9L353.349 225.332C353.913 225.66 354.482 225.985 355.054 226.306L355.298 225.87C355.866 226.189 356.437 226.503 357.012 226.815L356.773 227.254C357.347 227.565 357.924 227.872 358.504 228.176L358.736 227.733C359.312 228.035 359.891 228.334 360.473 228.629L360.247 229.075C360.829 229.371 361.414 229.663 362.001 229.952L362.222 229.504C362.806 229.791 363.393 230.076 363.981 230.358L363.765 230.809C364.354 231.091 364.944 231.37 365.536 231.647L365.748 231.194C366.338 231.469 366.93 231.742 367.523 232.012L367.316 232.467C367.911 232.738 368.506 233.006 369.102 233.272L369.306 232.815C369.901 233.08 370.498 233.343 371.095 233.604L370.895 234.062C371.494 234.323 372.093 234.582 372.693 234.839L372.89 234.379C373.489 234.636 374.089 234.89 374.688 235.143L374.494 235.603C375.097 235.857 375.7 236.109 376.302 236.358L376.493 235.897C377.097 236.147 377.7 236.395 378.301 236.641L378.112 237.104C378.717 237.351 379.32 237.597 379.922 237.84L380.11 237.377C380.717 237.623 381.322 237.866 381.925 238.108L381.739 238.572C382.347 238.816 382.953 239.058 383.556 239.299L383.742 238.834C384.349 239.076 384.954 239.317 385.557 239.556L385.372 240.021C385.981 240.262 386.587 240.502 387.189 240.741L387.373 240.276C387.458 240.31 387.544 240.343 387.629 240.377C388.153 240.585 388.675 240.791 389.193 240.997L389.009 241.462L389.912 241.82C390.231 241.947 390.551 242.07 390.87 242.188L391.044 241.72C391.68 241.956 392.317 242.177 392.955 242.383L392.802 242.858C393.453 243.069 394.106 243.264 394.76 243.444L394.893 242.962C395.545 243.143 396.198 243.308 396.853 243.461L396.74 243.948C397.405 244.102 398.071 244.243 398.738 244.371L398.832 243.88C399.495 244.007 400.16 244.121 400.826 244.223L400.75 244.718C401.423 244.821 402.097 244.912 402.772 244.992L402.831 244.495C403.5 244.574 404.171 244.642 404.843 244.7L404.801 245.198C405.477 245.256 406.155 245.304 406.834 245.342L406.862 244.842C407.534 244.88 408.208 244.908 408.883 244.928L408.869 245.428C409.546 245.448 410.225 245.459 410.904 245.462L410.906 244.962C411.58 244.966 412.254 244.962 412.93 244.951L412.938 245.451C413.614 245.44 414.292 245.422 414.97 245.399L414.952 244.899C415.625 244.875 416.299 244.846 416.974 244.812L416.999 245.311C417.674 245.277 418.349 245.237 419.026 245.194L418.993 244.695C419.665 244.652 420.338 244.604 421.012 244.553L421.049 245.052C421.723 245.001 422.396 244.947 423.07 244.891L423.029 244.392C423.7 244.336 424.372 244.277 425.044 244.217L425.089 244.715C425.761 244.654 426.433 244.592 427.106 244.529L427.059 244.031C427.73 243.968 428.402 243.904 429.074 243.841L429.121 244.338L429.289 244.322C429.904 244.264 430.519 244.205 431.135 244.147L431.088 243.65C431.759 243.587 432.431 243.524 433.103 243.463L433.148 243.961C433.819 243.9 434.49 243.841 435.161 243.784L435.119 243.286C435.791 243.229 436.463 243.174 437.135 243.122L437.174 243.62C437.845 243.569 438.516 243.52 439.187 243.475L439.154 242.976C439.827 242.931 440.5 242.89 441.173 242.854L441.2 243.353C441.872 243.317 442.543 243.285 443.214 243.258L443.194 242.759C443.868 242.732 444.542 242.711 445.217 242.696L445.228 243.196C445.899 243.182 446.57 243.173 447.241 243.171L447.24 242.671C447.914 242.67 448.589 242.675 449.263 242.688L449.253 243.188C449.924 243.201 450.594 243.222 451.263 243.251L451.285 242.752C451.959 242.781 452.632 242.819 453.305 242.867L453.27 243.366C453.938 243.413 454.605 243.469 455.272 243.535L455.321 243.038C455.991 243.104 456.661 243.181 457.331 243.269L457.266 243.764C457.598 243.808 457.929 243.854 458.261 243.903C458.592 243.951 458.923 244.003 459.253 244.058L459.335 243.565C460.002 243.676 460.668 243.798 461.334 243.932L461.235 244.423C461.891 244.555 462.547 244.698 463.203 244.852L463.317 244.365C463.974 244.52 464.63 244.684 465.286 244.858L465.158 245.342C465.806 245.514 466.454 245.696 467.101 245.886L467.242 245.407C467.891 245.597 468.538 245.797 469.185 246.004L469.032 246.48C469.671 246.685 470.309 246.898 470.947 247.118L471.11 246.645C471.748 246.865 472.386 247.093 473.023 247.326L472.851 247.796C473.483 248.027 474.114 248.266 474.745 248.509L474.926 248.043C475.555 248.286 476.185 248.535 476.813 248.789L476.626 249.253C477.25 249.505 477.874 249.762 478.497 250.024L478.691 249.563C479.314 249.824 479.938 250.09 480.56 250.36L480.361 250.818C480.98 251.086 481.599 251.358 482.217 251.632L482.42 251.175C483.038 251.45 483.656 251.727 484.273 252.007L484.067 252.462C484.682 252.741 485.297 253.022 485.912 253.305L486.121 252.85C486.736 253.133 487.35 253.418 487.964 253.703L487.753 254.157C488.367 254.442 488.98 254.728 489.593 255.015L489.805 254.562C490.319 254.803 490.833 255.044 491.346 255.284C491.446 255.331 491.545 255.377 491.644 255.424L491.432 255.877C492.046 256.164 492.659 256.451 493.271 256.737L493.483 256.284C494.098 256.571 494.712 256.858 495.325 257.142L495.115 257.596C495.731 257.881 496.347 258.165 496.962 258.447L497.17 257.992C497.787 258.274 498.403 258.554 499.018 258.831L498.813 259.287C499.434 259.566 500.054 259.842 500.674 260.115L500.875 259.657C501.497 259.93 502.119 260.2 502.74 260.465L502.543 260.925C503.17 261.192 503.796 261.455 504.421 261.712L504.611 261.25C505.24 261.509 505.867 261.762 506.494 262.009L506.311 262.474C506.947 262.725 507.582 262.969 508.217 263.207L508.392 262.738C509.029 262.977 509.666 263.208 510.301 263.431L510.136 263.903C510.78 264.129 511.424 264.347 512.068 264.557L512.222 264.081C512.87 264.292 513.517 264.494 514.163 264.686L514.021 265.165C514.678 265.36 515.335 265.546 515.991 265.72L516.12 265.237C516.777 265.411 517.434 265.575 518.09 265.726L517.977 266.213C518.645 266.368 519.312 266.51 519.979 266.639L520.074 266.148C520.742 266.277 521.409 266.393 522.076 266.494L522 266.988C522.68 267.092 523.359 267.181 524.037 267.254L524.091 266.757C524.766 266.83 525.44 266.887 526.114 266.927L526.083 267.426C526.768 267.468 527.453 267.492 528.137 267.498L528.142 266.998C528.819 267.005 529.496 266.993 530.172 266.963L530.195 267.462C530.879 267.431 531.564 267.381 532.248 267.311L532.197 266.814C532.868 266.745 533.538 266.657 534.208 266.548L534.288 267.041C534.963 266.931 535.637 266.801 536.31 266.649L536.2 266.161C536.857 266.013 537.513 265.844 538.168 265.653L538.308 266.133C538.962 265.942 539.616 265.73 540.269 265.496L540.1 265.026C540.729 264.8 541.357 264.554 541.984 264.285L542.181 264.745C542.498 264.61 542.815 264.469 543.131 264.322C543.443 264.178 543.752 264.03 544.057 263.88L543.836 263.431C544.442 263.132 545.036 262.821 545.619 262.497L545.862 262.934C546.46 262.602 547.046 262.257 547.621 261.9L547.357 261.475C547.93 261.118 548.492 260.749 549.043 260.367L549.328 260.778C549.888 260.39 550.437 259.989 550.975 259.576L550.671 259.179C551.205 258.77 551.727 258.348 552.239 257.914L552.562 258.296C553.082 257.856 553.59 257.405 554.087 256.942L553.747 256.576C554.239 256.118 554.72 255.65 555.191 255.17L555.548 255.52C556.023 255.036 556.488 254.541 556.943 254.036L556.572 253.702C557.021 253.203 557.46 252.694 557.889 252.176L558.274 252.495C558.706 251.973 559.129 251.441 559.542 250.9L559.145 250.597C559.551 250.064 559.949 249.523 560.338 248.973L560.746 249.261C561.136 248.709 561.517 248.149 561.889 247.581L561.471 247.307C561.838 246.746 562.197 246.178 562.547 245.602L562.974 245.862C563.326 245.285 563.669 244.701 564.005 244.109L563.57 243.862C563.9 243.28 564.223 242.691 564.539 242.095L564.981 242.329C565.296 241.734 565.604 241.132 565.905 240.524L565.458 240.302C565.755 239.702 566.046 239.096 566.33 238.484L566.784 238.695C567.068 238.083 567.346 237.466 567.617 236.843L567.159 236.643C567.427 236.03 567.689 235.412 567.945 234.788L568.407 234.979C568.663 234.356 568.913 233.729 569.158 233.097L568.692 232.917C568.934 232.291 569.171 231.662 569.403 231.029L569.872 231.201C570.104 230.568 570.331 229.932 570.552 229.292L570.08 229.129C570.299 228.496 570.514 227.859 570.724 227.22L571.199 227.376C571.41 226.736 571.615 226.094 571.817 225.448L571.34 225.299C571.54 224.659 571.736 224.015 571.928 223.369L572.408 223.512C572.6 222.867 572.788 222.22 572.972 221.571L572.491 221.434C572.674 220.789 572.854 220.141 573.031 219.492L573.513 219.623C573.69 218.973 573.863 218.321 574.033 217.668L573.55 217.542C573.719 216.893 573.885 216.241 574.049 215.589L574.534 215.711C574.697 215.057 574.858 214.403 575.016 213.748L574.53 213.631C574.688 212.978 574.843 212.324 574.996 211.669L575.483 211.783C575.636 211.127 575.787 210.471 575.936 209.815L575.448 209.704C575.597 209.048 575.743 208.392 575.888 207.736L576.376 207.843C576.521 207.186 576.664 206.528 576.806 205.871L576.317 205.766C576.458 205.108 576.598 204.451 576.737 203.794L577.226 203.897C577.365 203.238 577.503 202.579 577.639 201.921L577.149 201.819C577.286 201.16 577.422 200.501 577.557 199.844L578.046 199.945C578.182 199.285 578.316 198.627 578.449 197.97L577.959 197.87C578.094 197.209 578.227 196.55 578.361 195.893L578.851 195.992L578.915 195.672C579.028 195.118 579.14 194.566 579.252 194.015L578.762 193.916C578.896 193.255 579.03 192.596 579.163 191.941L579.653 192.041C579.788 191.38 579.923 190.723 580.059 190.068L579.569 189.967C579.706 189.305 579.843 188.646 579.981 187.99L580.47 188.093C580.539 187.765 580.608 187.438 580.677 187.112C580.746 186.79 580.813 186.467 580.879 186.145L580.389 186.045C580.52 185.402 580.646 184.759 580.767 184.117L581.258 184.209C581.38 183.561 581.496 182.914 581.607 182.267L581.114 182.182C581.225 181.535 581.331 180.889 581.432 180.242L581.926 180.319C582.027 179.668 582.123 179.017 582.214 178.366L581.719 178.297C581.81 177.647 581.896 176.998 581.977 176.348L582.473 176.41C582.554 175.757 582.63 175.104 582.701 174.451L582.204 174.396C582.275 173.744 582.341 173.093 582.403 172.441L582.9 172.488C582.962 171.832 583.019 171.177 583.07 170.522L582.572 170.482C582.624 169.829 582.67 169.175 582.712 168.521L583.211 168.554C583.254 167.897 583.291 167.24 583.324 166.584L582.825 166.559C582.857 165.904 582.885 165.25 582.909 164.595L583.409 164.613C583.432 163.956 583.451 163.299 583.465 162.642L582.966 162.631C582.98 161.975 582.99 161.32 582.995 160.665L583.495 160.669C583.5 160.012 583.501 159.354 583.498 158.697L582.998 158.699C582.995 158.044 582.987 157.389 582.975 156.734L583.475 156.725C583.463 156.067 583.446 155.41 583.426 154.753L582.926 154.769C582.905 154.114 582.881 153.459 582.852 152.804L583.351 152.782C583.323 152.126 583.29 151.469 583.253 150.813L582.753 150.841C582.717 150.187 582.676 149.533 582.631 148.879L583.13 148.845C583.085 148.19 583.036 147.534 582.983 146.879L582.485 146.919C582.432 146.266 582.376 145.613 582.316 144.961L582.814 144.915C582.754 144.261 582.69 143.607 582.622 142.953L582.125 143.004C582.057 142.353 581.986 141.701 581.912 141.05L582.408 140.993C582.334 140.341 582.255 139.689 582.174 139.036L581.677 139.099C581.596 138.449 581.511 137.799 581.423 137.15L581.918 137.082C581.83 136.432 581.738 135.781 581.643 135.131L581.148 135.203C581.053 134.555 580.955 133.907 580.854 133.259L581.348 133.182C581.246 132.534 581.142 131.885 581.034 131.237L580.541 131.319C580.433 130.673 580.323 130.027 580.209 129.381L580.702 129.295C580.588 128.648 580.472 128.002 580.352 127.356L579.86 127.447C579.741 126.803 579.619 126.159 579.494 125.516L579.985 125.42C579.86 124.776 579.732 124.132 579.601 123.488L579.111 123.587C578.981 122.946 578.848 122.304 578.713 121.662L579.202 121.559C579.066 120.917 578.928 120.275 578.787 119.634L578.299 119.741C578.158 119.102 578.015 118.462 577.87 117.823L578.357 117.712C578.212 117.072 578.064 116.433 577.913 115.793L577.426 115.908C577.276 115.27 577.124 114.633 576.969 113.996L577.455 113.878C577.3 113.24 577.143 112.603 576.984 111.966L576.499 112.087C576.34 111.452 576.179 110.817 576.015 110.182L576.5 110.057C576.418 109.74 576.336 109.422 576.253 109.104C576.169 108.781 576.085 108.457 576.001 108.134L575.517 108.259C575.349 107.611 575.182 106.962 575.015 106.312L575.499 106.188C575.333 105.54 575.167 104.891 575.002 104.241L574.517 104.365C574.352 103.717 574.187 103.068 574.021 102.418L574.506 102.294L574.362 101.729C574.245 101.269 574.128 100.808 574.01 100.347L573.526 100.47C573.36 99.8212 573.195 99.1718 573.029 98.5221L573.513 98.3982C573.347 97.7494 573.181 97.1002 573.014 96.4507L572.529 96.5754C572.363 95.927 572.195 95.2784 572.026 94.6299L572.51 94.504C572.341 93.8553 572.171 93.2066 572 92.5581L571.517 92.6856C571.346 92.0379 571.174 91.3904 571 90.7432L571.483 90.6137C571.309 89.9659 571.134 89.3184 570.957 88.6715L570.475 88.8034C570.298 88.157 570.12 87.5112 569.939 86.8661L570.421 86.7315C570.24 86.085 570.057 85.4393 569.873 84.7945L569.392 84.9322C569.207 84.288 569.021 83.6447 568.831 83.0025L569.311 82.8613C569.121 82.2169 568.929 81.5736 568.734 80.9317L568.256 81.0769C568.061 80.4351 567.864 79.7948 567.664 79.1559L568.141 79.0065C567.94 78.365 567.736 77.7251 567.529 77.0869L567.053 77.2411C566.847 76.6033 566.637 75.9672 566.424 75.3332L566.898 75.1738C566.683 74.5362 566.465 73.9005 566.244 73.2669L565.772 73.4317C565.551 72.7982 565.326 72.1669 565.098 71.538L565.567 71.3672C565.337 70.7346 565.104 70.1044 564.866 69.4767L564.398 69.6539C564.161 69.0267 563.919 68.4021 563.673 67.7804L564.138 67.5964C563.89 66.9702 563.637 66.3467 563.381 65.7263L562.919 65.9175C562.662 65.2973 562.4 64.6802 562.134 64.0664L562.593 63.8675C562.325 63.2492 562.052 62.6342 561.773 62.0227L561.318 62.2298C561.041 61.6192 560.758 61.0122 560.469 60.4089L560.92 60.1933C560.63 59.5851 560.333 58.9807 560.031 58.3802L559.585 58.6048C559.283 58.0052 558.976 57.4096 558.663 56.8183L559.105 56.5842C558.789 55.9882 558.467 55.3963 558.139 54.8089L557.702 55.0527C557.375 54.4672 557.042 53.8862 556.702 53.31L557.133 53.056C556.79 52.475 556.441 51.8988 556.085 51.3275L555.661 51.592C555.306 51.023 554.944 50.459 554.575 49.9002L554.993 49.6248C554.621 49.0616 554.242 48.5037 553.856 47.9512L553.446 48.2377C553.062 47.6885 552.671 47.1449 552.272 46.607L552.674 46.3091C552.272 45.7673 551.862 45.2312 551.445 44.701L551.052 45.0104C550.638 44.4843 550.215 43.9641 549.785 43.4501L550.168 43.1291C549.736 42.6122 549.294 42.1014 548.845 41.597L548.472 41.9296C548.027 41.4304 547.573 40.9374 547.112 40.451L547.474 40.1067C547.01 39.618 546.538 39.1359 546.056 38.6605L545.705 39.0163C545.229 38.5465 544.744 38.0835 544.251 37.6273L544.59 37.2601C544.096 36.8031 543.593 36.353 543.08 35.9099L542.753 36.2881C542.249 35.8519 541.735 35.4226 541.212 35.0004L541.527 34.6115C541.264 34.399 540.998 34.1883 540.73 33.9794C540.459 33.7679 540.187 33.5588 539.914 33.352L539.612 33.7509C539.068 33.3399 538.52 32.9384 537.967 32.5462L538.257 32.1384C537.697 31.7412 537.132 31.3533 536.563 30.9748L536.286 31.391C535.719 31.0135 535.147 30.6452 534.571 30.2859L534.835 29.8616C534.253 29.4987 533.667 29.145 533.076 28.8003L532.824 29.2321C532.237 28.889 531.645 28.5549 531.048 28.2295L531.288 27.7906C530.687 27.4623 530.081 27.1429 529.472 26.8321L529.245 27.2775C528.639 26.9684 528.029 26.6678 527.415 26.3757L527.63 25.9242C527.011 25.63 526.39 25.3443 525.764 25.0668L525.561 25.5238C524.94 25.2482 524.315 24.9807 523.686 24.7212L523.877 24.259C523.245 23.998 522.609 23.745 521.97 23.4999L521.791 23.9667C521.156 23.7233 520.518 23.4876 519.877 23.2595L520.045 22.7884C519.401 22.5593 518.754 22.3378 518.104 22.1237L517.948 22.5986C517.302 22.386 516.654 22.1808 516.003 21.9826L516.149 21.5043C515.495 21.3054 514.839 21.1136 514.18 20.9288L514.045 21.4102C513.391 21.2267 512.734 21.05 512.074 20.88L512.199 20.3959C511.538 20.2255 510.875 20.0618 510.21 19.9046L510.095 20.3912C509.434 20.235 508.771 20.0853 508.105 19.9418L508.211 19.453C507.543 19.3091 506.874 19.1714 506.203 19.0398L506.107 19.5304C505.44 19.3996 504.772 19.2748 504.101 19.1557L504.188 18.6634C503.517 18.5441 502.844 18.4306 502.169 18.3227L502.09 18.8164C501.419 18.7092 500.747 18.6075 500.073 18.511L500.144 18.0161C499.469 17.9195 498.792 17.8282 498.114 17.742L498.051 18.238C497.377 18.1523 496.702 18.0717 496.025 17.996L496.081 17.4991C495.403 17.4233 494.725 17.3524 494.045 17.2862L493.996 17.7839C493.32 17.718 492.643 17.6568 491.965 17.6001L492.007 17.1018C491.328 17.045 490.647 16.9927 489.966 16.9446L489.931 17.4434C489.253 17.3955 488.574 17.3519 487.895 17.3124L487.924 16.8133C487.244 16.7737 486.562 16.7383 485.881 16.7067L485.858 17.2061C485.179 17.1747 484.499 17.1471 483.82 17.1232L483.837 16.6235C483.156 16.5996 482.474 16.5793 481.793 16.5626L481.78 17.0624C481.101 17.0457 480.421 17.0325 479.741 17.0227L479.748 16.5227C479.066 16.5128 478.385 16.5063 477.703 16.5028L477.701 17.0028C477.021 16.9994 476.341 16.9991 475.661 17.0018L475.659 16.5018C474.977 16.5045 474.296 16.5101 473.614 16.5185L473.621 17.0185C472.94 17.0269 472.26 17.038 471.581 17.0518L471.571 16.5519C470.889 16.5657 470.208 16.5821 469.528 16.601L469.542 17.1008C468.861 17.1196 468.181 17.1409 467.502 17.1644L467.485 16.6647C466.803 16.6882 466.123 16.7141 465.443 16.742L465.463 17.2415C464.783 17.2694 464.104 17.2994 463.426 17.3313L463.402 16.8318C462.721 16.8638 462.041 16.8977 461.362 16.9334L461.388 17.4327C460.708 17.4684 460.029 17.5058 459.351 17.5447L459.322 17.0455C458.982 17.0651 458.643 17.085 458.304 17.1052Z" stroke="#00BB7E" stroke-dasharray="2 2"/>
<path fill-rule="evenodd" clip-rule="evenodd" d="M-63.7054 101.712C-36.7658 82.8756 -26.4772 39.6814 6.34037 37.7331C44.7846 35.4508 93.4524 54.5784 103.514 91.7842C113.62 129.158 59.9339 151.609 46.9983 188.082C34.2782 223.947 61.975 274.887 30.8291 296.722C-0.0160584 318.345 -39.6648 285.606 -75.5068 273.962C-112.672 261.888 -166.439 265.727 -178.774 228.628C-191.248 191.107 -150.332 157.991 -123.795 128.722C-108.459 111.807 -82.4154 114.793 -63.7054 101.712Z" fill="#ABFEE6"/>
<path fill-rule="evenodd" clip-rule="evenodd" d="M-55.075 120.404C-34.0509 105.704 -26.0216 71.9944 -0.410282 70.474C29.5921 68.6928 67.5731 83.6202 75.4251 112.656C83.3125 141.823 41.4148 159.344 31.3197 187.808C21.3927 215.797 43.0077 255.552 18.701 272.592C-5.37092 289.467 -36.3133 263.917 -64.2849 254.83C-93.2888 245.407 -135.25 248.403 -144.876 219.451C-154.611 190.169 -122.679 164.325 -101.97 141.483C-90.0011 128.282 -69.6765 130.613 -55.075 120.404Z" fill="#DCFBF3"/>
<path d="M-50.1763 26.4621C-50.5113 26.5734 -50.8417 26.6899 -51.1676 26.8113L-50.993 27.2798C-51.637 27.5198 -52.2628 27.7793 -52.8711 28.0576L-53.0791 27.6029C-53.716 27.8943 -54.3343 28.206 -54.9348 28.537L-54.6934 28.9749C-55.2947 29.3064 -55.8778 29.6577 -56.4435 30.0278L-56.7172 29.6094C-57.2996 29.9904 -57.8638 30.3909 -58.4107 30.8099L-58.1067 31.2068C-58.6474 31.6211 -59.1712 32.0538 -59.679 32.504L-60.0107 32.1299C-60.5283 32.5889 -61.0292 33.0654 -61.5145 33.5586L-61.1582 33.9093C-61.6341 34.3929 -62.095 34.8931 -62.5419 35.4086L-62.9198 35.0812C-63.3696 35.6001 -63.8051 36.1342 -64.2273 36.6824L-63.8312 36.9875C-64.2438 37.5232 -64.6439 38.0729 -65.0322 38.6357L-65.4437 38.3518C-65.8326 38.9153 -66.2095 39.4914 -66.5757 40.0792L-66.1513 40.3435C-66.5092 40.9182 -66.8569 41.5045 -67.1951 42.1016L-67.6302 41.8552C-67.9656 42.4474 -68.2917 43.0497 -68.6093 43.6614L-68.1655 43.8918C-68.4767 44.491 -68.7797 45.0996 -69.0754 45.7168L-69.5263 45.5007C-69.8208 46.1152 -70.1079 46.7379 -70.3885 47.3678L-69.9318 47.5713C-70.2073 48.1898 -70.4766 48.8158 -70.7404 49.4484L-71.2019 49.256C-71.4631 49.8825 -71.7189 50.5153 -71.9699 51.1535L-71.5046 51.3365C-71.7524 51.9664 -71.9955 52.6019 -72.2348 53.2423L-72.7032 53.0673C-72.9415 53.705 -73.1759 54.3474 -73.407 54.9937L-72.9362 55.1621C-73.1642 55.7996 -73.3892 56.4412 -73.6116 57.0863L-74.0843 56.9233C-74.3058 57.5655 -74.5249 58.211 -74.7421 58.8591L-74.2681 59.018C-74.4838 59.6617 -74.6979 60.3082 -74.9108 60.9568L-75.3859 60.8008C-75.5978 61.4465 -75.8087 62.0942 -76.0189 62.743L-75.5433 62.8972C-75.7526 63.5431 -75.9614 64.1906 -76.1704 64.8388L-76.6463 64.6854L-76.7608 65.0408C-76.9313 65.5697 -77.1018 66.0989 -77.2728 66.6282L-76.7971 66.782C-77.0061 67.429 -77.2159 68.0763 -77.427 68.7232L-77.9023 68.5681C-78.1133 69.2144 -78.3254 69.8601 -78.5395 70.5047L-78.0649 70.6622C-78.2795 71.3084 -78.496 71.9535 -78.715 72.5971L-79.1883 72.436C-79.4072 73.0792 -79.6285 73.7206 -79.853 74.3596L-79.3812 74.5253C-79.6072 75.1687 -79.8363 75.8099 -80.0692 76.4483L-80.5389 76.2769C-80.7719 76.9154 -81.0086 77.5507 -81.2496 78.1824L-80.7824 78.3607C-81.0252 78.9972 -81.2725 79.6301 -81.5249 80.259L-81.9889 80.0727C-82.2423 80.7039 -82.5006 81.3307 -82.7647 81.9525L-82.3045 82.1479C-82.5714 82.7764 -82.8442 83.3999 -83.1236 84.0178L-83.5792 83.8119C-83.8584 84.4296 -84.1441 85.0415 -84.4369 85.6469L-83.9868 85.8646C-84.2843 86.4796 -84.5891 87.0882 -84.9021 87.6897L-85.3456 87.4589C-85.6587 88.0605 -85.9797 88.6547 -86.3094 89.2407L-85.8736 89.4859C-86.2082 90.0806 -86.5518 90.6673 -86.9052 91.2453L-87.3317 90.9845C-87.6841 91.5609 -88.0461 92.1282 -88.4184 92.6858L-88.0026 92.9635C-88.3818 93.5314 -88.7718 94.0895 -89.1732 94.6372L-89.5765 94.3416C-89.975 94.8851 -90.3847 95.418 -90.8064 95.9393L-90.4177 96.2538C-90.8458 96.783 -91.2863 97.3009 -91.74 97.8065L-92.1121 97.4726C-92.5605 97.9724 -93.0218 98.46 -93.4967 98.9345L-93.1432 99.2882C-93.6233 99.7679 -94.1172 100.235 -94.6257 100.688L-94.9584 100.315C-95.2089 100.538 -95.463 100.758 -95.7207 100.974C-95.9799 101.192 -96.2418 101.404 -96.5064 101.612L-96.1978 102.005C-96.7373 102.428 -97.2876 102.831 -97.8483 103.216L-98.1309 102.803C-98.6868 103.184 -99.2531 103.546 -99.8292 103.891L-99.5726 104.32C-100.159 104.671 -100.756 105.003 -101.361 105.319L-101.592 104.875C-102.189 105.187 -102.795 105.481 -103.41 105.76L-103.203 106.216C-103.823 106.497 -104.452 106.763 -105.088 107.015L-105.272 106.55C-105.898 106.798 -106.531 107.031 -107.172 107.252L-107.009 107.725C-107.653 107.946 -108.303 108.155 -108.96 108.352L-109.103 107.873C-109.749 108.067 -110.401 108.249 -111.059 108.421L-110.933 108.905C-111.592 109.077 -112.256 109.239 -112.925 109.391L-113.036 108.903C-113.694 109.054 -114.358 109.195 -115.026 109.328L-114.928 109.818C-115.595 109.951 -116.267 110.076 -116.941 110.195L-117.027 109.702C-117.695 109.819 -118.365 109.929 -119.039 110.034L-118.963 110.528C-119.636 110.632 -120.312 110.731 -120.99 110.825L-121.059 110.329C-121.732 110.423 -122.408 110.511 -123.085 110.596L-123.023 111.092C-123.699 111.177 -124.378 111.258 -125.057 111.337L-125.115 110.84C-125.791 110.919 -126.469 110.994 -127.147 111.068L-127.093 111.565C-127.772 111.639 -128.452 111.712 -129.131 111.784L-129.183 111.286C-129.863 111.358 -130.542 111.429 -131.221 111.501L-131.169 111.998C-131.849 112.069 -132.528 112.141 -133.206 112.214L-133.26 111.717C-133.941 111.791 -134.62 111.865 -135.299 111.942L-135.242 112.439C-135.923 112.516 -136.602 112.596 -137.278 112.679L-137.339 112.183C-138.021 112.267 -138.701 112.354 -139.378 112.445L-139.311 112.941C-139.991 113.033 -140.667 113.129 -141.34 113.231L-141.415 112.736C-142.096 112.839 -142.773 112.948 -143.447 113.064L-143.362 113.556C-144.038 113.672 -144.71 113.795 -145.376 113.925L-145.472 113.435C-146.15 113.568 -146.823 113.709 -147.491 113.859L-147.381 114.347C-148.052 114.498 -148.716 114.658 -149.374 114.829L-149.5 114.345C-150.171 114.52 -150.835 114.705 -151.492 114.903L-151.348 115.382C-152.005 115.579 -152.655 115.789 -153.297 116.013L-153.461 115.541C-154.117 115.769 -154.764 116.012 -155.402 116.27L-155.214 116.733C-155.85 116.99 -156.476 117.262 -157.092 117.551L-157.304 117.099C-157.932 117.393 -158.551 117.705 -159.158 118.036L-158.919 118.475C-159.519 118.802 -160.108 119.147 -160.686 119.512L-160.953 119.089C-161.539 119.46 -162.113 119.85 -162.675 120.263L-162.379 120.666C-162.927 121.068 -163.462 121.491 -163.985 121.935L-164.309 121.555C-164.834 122.002 -165.346 122.471 -165.844 122.963L-165.493 123.319C-165.973 123.793 -166.44 124.289 -166.894 124.809L-167.27 124.48C-167.499 124.743 -167.725 125.011 -167.947 125.285C-168.159 125.547 -168.368 125.81 -168.575 126.074L-168.181 126.382C-168.592 126.908 -168.993 127.439 -169.384 127.975L-169.788 127.681C-170.184 128.224 -170.57 128.773 -170.946 129.327L-170.532 129.608C-170.906 130.16 -171.271 130.717 -171.626 131.279L-172.049 131.012C-172.407 131.58 -172.756 132.154 -173.095 132.732L-172.663 132.985C-173 133.559 -173.327 134.139 -173.645 134.723L-174.084 134.484C-174.405 135.073 -174.716 135.668 -175.018 136.266L-174.571 136.491C-174.871 137.086 -175.161 137.685 -175.442 138.288L-175.895 138.077C-176.178 138.685 -176.452 139.297 -176.717 139.913L-176.258 140.11C-176.521 140.721 -176.774 141.336 -177.02 141.956L-177.485 141.771C-177.731 142.394 -177.969 143.021 -178.198 143.651L-177.729 143.822C-177.956 144.447 -178.175 145.076 -178.385 145.708L-178.86 145.55C-179.071 146.185 -179.274 146.823 -179.469 147.465L-178.991 147.61C-179.184 148.246 -179.37 148.885 -179.547 149.527L-180.029 149.394C-180.207 150.039 -180.378 150.687 -180.54 151.337L-180.055 151.459C-180.216 152.104 -180.37 152.751 -180.516 153.402L-181.004 153.292C-181.151 153.944 -181.29 154.599 -181.422 155.256L-180.931 155.354C-181.062 156.006 -181.186 156.66 -181.303 157.316L-181.795 157.228C-181.912 157.886 -182.022 158.546 -182.126 159.208L-181.632 159.285C-181.734 159.942 -181.83 160.601 -181.919 161.262L-182.415 161.195C-182.504 161.857 -182.587 162.52 -182.664 163.186L-182.167 163.243C-182.243 163.903 -182.313 164.565 -182.376 165.228L-182.874 165.18C-182.938 165.845 -182.996 166.511 -183.047 167.179L-182.549 167.217C-182.6 167.88 -182.646 168.544 -182.686 169.21L-183.185 169.18C-183.225 169.846 -183.259 170.514 -183.288 171.182L-182.788 171.204C-182.817 171.868 -182.84 172.533 -182.857 173.199L-183.357 173.186C-183.375 173.853 -183.387 174.521 -183.395 175.19L-182.895 175.195C-182.902 175.861 -182.904 176.526 -182.901 177.192L-183.401 177.195C-183.398 177.862 -183.39 178.53 -183.378 179.198L-182.878 179.189C-182.865 179.854 -182.848 180.519 -182.826 181.185L-183.326 181.201C-183.304 181.869 -183.277 182.536 -183.246 183.203L-182.747 183.18C-182.716 183.845 -182.681 184.51 -182.641 185.174L-183.14 185.204C-183.1 185.87 -183.056 186.537 -183.008 187.202L-182.509 187.166C-182.461 187.831 -182.409 188.494 -182.353 189.157L-182.851 189.199C-182.795 189.865 -182.735 190.53 -182.671 191.194L-182.173 191.146C-182.109 191.809 -182.041 192.471 -181.97 193.132L-182.467 193.186C-182.395 193.85 -182.32 194.513 -182.241 195.175L-181.744 195.116C-181.665 195.778 -181.583 196.439 -181.497 197.098L-181.993 197.162C-181.907 197.825 -181.817 198.487 -181.724 199.146L-181.229 199.077C-181.136 199.737 -181.04 200.395 -180.941 201.052L-181.436 201.126C-181.336 201.787 -181.233 202.447 -181.128 203.104L-180.634 203.025C-180.528 203.684 -180.419 204.341 -180.308 204.996L-180.801 205.08C-180.745 205.408 -180.688 205.736 -180.631 206.064L-180.462 207.028L-179.969 206.942C-179.958 207.008 -179.946 207.074 -179.935 207.141C-179.833 207.72 -179.731 208.302 -179.629 208.887L-180.121 208.973C-180.009 209.615 -179.896 210.261 -179.781 210.909L-179.289 210.822C-179.175 211.466 -179.061 212.113 -178.945 212.762L-179.437 212.85C-179.322 213.495 -179.206 214.143 -179.089 214.793L-178.597 214.705C-178.481 215.347 -178.363 215.992 -178.245 216.639L-178.736 216.729C-178.618 217.374 -178.498 218.02 -178.376 218.668L-177.885 218.576C-177.764 219.22 -177.642 219.866 -177.517 220.513L-178.008 220.607C-177.885 221.25 -177.759 221.895 -177.632 222.541L-177.142 222.444C-177.015 223.087 -176.886 223.732 -176.755 224.377L-177.245 224.476C-177.115 225.119 -176.982 225.763 -176.847 226.408L-176.358 226.306C-176.223 226.947 -176.087 227.59 -175.948 228.232L-176.436 228.337C-176.297 228.98 -176.156 229.623 -176.012 230.265L-175.524 230.156C-175.381 230.796 -175.235 231.436 -175.086 232.076L-175.573 232.189C-175.424 232.83 -175.272 233.47 -175.117 234.11L-174.631 233.993C-174.477 234.631 -174.32 235.268 -174.16 235.905L-174.645 236.027C-174.484 236.665 -174.32 237.303 -174.153 237.94L-173.669 237.813C-173.503 238.448 -173.333 239.083 -173.159 239.715L-173.641 239.847C-173.467 240.483 -173.29 241.117 -173.108 241.749L-172.628 241.611C-172.446 242.243 -172.262 242.874 -172.073 243.502L-172.552 243.646C-172.362 244.278 -172.169 244.907 -171.972 245.534L-171.495 245.384C-171.297 246.012 -171.096 246.637 -170.89 247.259L-171.365 247.416C-171.158 248.043 -170.946 248.668 -170.73 249.289L-170.258 249.125C-170.042 249.746 -169.822 250.364 -169.597 250.978L-170.067 251.15C-169.84 251.772 -169.608 252.389 -169.371 253.004L-168.904 252.824C-168.667 253.438 -168.426 254.049 -168.179 254.656L-168.642 254.844C-168.393 255.456 -168.139 256.064 -167.879 256.667L-167.42 256.47C-167.16 257.076 -166.894 257.677 -166.622 258.273L-167.077 258.481C-166.803 259.084 -166.523 259.682 -166.237 260.274L-165.786 260.057C-165.5 260.65 -165.209 261.237 -164.911 261.818L-165.356 262.046C-165.053 262.637 -164.744 263.222 -164.429 263.801L-163.99 263.562C-163.674 264.14 -163.352 264.713 -163.024 265.279L-163.456 265.53C-163.123 266.103 -162.784 266.669 -162.437 267.228L-162.012 266.965C-161.665 267.526 -161.31 268.079 -160.948 268.625L-161.365 268.901C-160.998 269.455 -160.623 270.001 -160.241 270.538L-159.833 270.249C-159.452 270.785 -159.063 271.313 -158.666 271.833L-159.063 272.136C-158.659 272.664 -158.248 273.183 -157.828 273.693L-157.442 273.375C-157.023 273.884 -156.596 274.383 -156.16 274.872L-156.534 275.205C-156.092 275.701 -155.641 276.187 -155.182 276.663L-154.822 276.316C-154.366 276.789 -153.9 277.251 -153.426 277.703L-153.771 278.065C-153.29 278.524 -152.799 278.971 -152.299 279.407L-151.97 279.03C-151.476 279.462 -150.972 279.882 -150.458 280.291L-150.769 280.682C-150.25 281.095 -149.72 281.496 -149.181 281.886L-148.889 281.48C-148.357 281.864 -147.816 282.235 -147.265 282.595L-147.538 283.014C-146.983 283.375 -146.419 283.724 -145.844 284.06L-145.591 283.629C-145.027 283.959 -144.453 284.277 -143.868 284.581L-144.099 285.025C-143.512 285.331 -142.914 285.625 -142.306 285.905L-142.097 285.451C-141.506 285.723 -140.905 285.983 -140.294 286.23L-140.482 286.693C-140.173 286.818 -139.861 286.94 -139.547 287.058C-139.233 287.176 -138.919 287.29 -138.605 287.4L-138.44 286.928C-137.819 287.146 -137.198 287.348 -136.577 287.534L-136.72 288.013C-136.08 288.205 -135.438 288.381 -134.797 288.542L-134.676 288.057C-134.037 288.216 -133.399 288.36 -132.76 288.489L-132.858 288.979C-132.207 289.11 -131.555 289.225 -130.904 289.325L-130.828 288.831C-130.177 288.931 -129.527 289.015 -128.876 289.085L-128.929 289.582C-128.269 289.652 -127.609 289.708 -126.949 289.748L-126.918 289.249C-126.263 289.289 -125.609 289.315 -124.954 289.327L-124.963 289.827C-124.301 289.838 -123.639 289.836 -122.976 289.82L-122.989 289.32C-122.334 289.304 -121.68 289.274 -121.026 289.231L-120.993 289.73C-120.333 289.687 -119.674 289.63 -119.014 289.561L-119.067 289.064C-118.416 288.996 -117.766 288.915 -117.116 288.822L-117.046 289.317C-116.393 289.224 -115.741 289.119 -115.089 289.003L-115.177 288.511C-114.533 288.396 -113.89 288.27 -113.246 288.133L-113.142 288.622C-112.498 288.484 -111.854 288.336 -111.211 288.178L-111.33 287.692C-110.697 287.537 -110.063 287.371 -109.43 287.195L-109.297 287.677C-108.662 287.501 -108.029 287.315 -107.395 287.121L-107.542 286.643C-106.918 286.451 -106.294 286.25 -105.67 286.041L-105.511 286.515C-104.889 286.306 -104.267 286.089 -103.646 285.864L-103.816 285.394C-103.201 285.171 -102.587 284.94 -101.973 284.702L-101.792 285.169C-101.181 284.931 -100.569 284.687 -99.9586 284.435L-100.149 283.973C-99.5454 283.724 -98.9422 283.469 -98.3394 283.207L-98.1402 283.665C-97.5373 283.404 -96.9349 283.135 -96.3331 282.861L-96.5405 282.406C-95.9469 282.135 -95.3537 281.859 -94.761 281.577L-94.5462 282.028C-93.9537 281.747 -93.3617 281.459 -92.7703 281.167L-92.992 280.718C-92.4056 280.429 -91.8197 280.133 -91.2343 279.834L-91.0064 280.279C-90.4233 279.98 -89.8407 279.677 -89.2586 279.369L-89.4922 278.927C-88.9137 278.622 -88.3356 278.312 -87.7581 277.998L-87.5194 278.437C-86.9433 278.124 -86.3678 277.807 -85.7929 277.487L-86.0363 277.05C-85.465 276.731 -84.8943 276.41 -84.3241 276.084L-84.0765 276.519C-83.5062 276.194 -82.9365 275.865 -82.3676 275.534L-82.619 275.102C-82.0538 274.773 -81.4891 274.442 -80.925 274.107L-80.6702 274.538C-80.1057 274.203 -79.5419 273.866 -78.9788 273.528L-79.2366 273.099C-78.6755 272.761 -78.115 272.422 -77.5552 272.08L-77.2948 272.507C-76.7348 272.165 -76.1755 271.822 -75.617 271.477L-75.8796 271.052C-75.322 270.708 -74.7651 270.362 -74.2089 270.015L-73.9444 270.439C-73.3876 270.092 -72.8316 269.744 -72.2763 269.395L-72.5424 268.972C-71.9872 268.623 -71.4328 268.273 -70.8791 267.923L-70.6119 268.346C-70.0574 267.995 -69.5036 267.644 -68.9507 267.293L-69.2188 266.871C-68.6648 266.519 -68.1115 266.167 -67.5591 265.815L-67.2906 266.237C-66.7852 265.915 -66.2806 265.594 -65.7767 265.273L-65.6334 265.181L-65.9021 264.76C-65.3481 264.407 -64.795 264.054 -64.2428 263.703L-63.9743 264.125C-63.4204 263.772 -62.8675 263.42 -62.3156 263.07L-62.5835 262.648C-62.0294 262.296 -61.4761 261.946 -60.9238 261.597L-60.6568 262.02C-60.101 261.669 -59.5462 261.319 -58.9924 260.972L-59.2581 260.548C-58.7018 260.199 -58.1465 259.852 -57.5922 259.507L-57.3281 259.932C-56.7701 259.585 -56.2132 259.241 -55.6575 258.899L-55.9193 258.473C-55.3586 258.128 -54.7989 257.786 -54.2403 257.447L-53.981 257.875C-53.4205 257.535 -52.8612 257.198 -52.3031 256.865L-52.5593 256.436C-51.993 256.098 -51.4277 255.763 -50.8637 255.433L-50.611 255.865C-50.3297 255.7 -50.0486 255.536 -49.7679 255.373C-49.4732 255.203 -49.183 255.027 -48.8969 254.847L-49.1636 254.424C-48.5988 254.068 -48.0507 253.693 -47.518 253.301L-47.2217 253.704C-46.6759 253.302 -46.1463 252.883 -45.6315 252.448L-45.9542 252.066C-45.4465 251.638 -44.9532 251.193 -44.4728 250.733L-44.1273 251.095C-43.6408 250.629 -43.1678 250.15 -42.707 249.658L-43.072 249.316C-42.619 248.832 -42.1776 248.335 -41.7465 247.828L-41.3653 248.151C-40.9317 247.641 -40.5088 247.119 -40.095 246.588L-40.4894 246.281C-40.0822 245.759 -39.6838 245.227 -39.2928 244.687L-38.8878 244.98C-38.4961 244.439 -38.1122 243.89 -37.7348 243.336L-38.1481 243.054C-37.7753 242.506 -37.4086 241.952 -37.0467 241.392L-36.6268 241.664C-36.2648 241.104 -35.9079 240.54 -35.5549 239.972L-35.9795 239.708C-35.6291 239.145 -35.2823 238.578 -34.9379 238.009L-34.5101 238.267C-34.1656 237.698 -33.8236 237.126 -33.4832 236.555L-33.9129 236.299C-33.6103 235.791 -33.3088 235.282 -33.0074 234.773C-32.9701 234.71 -32.9328 234.647 -32.8955 234.584L-32.4654 234.839C-32.1263 234.267 -31.7876 233.696 -31.4478 233.126L-31.8772 232.87C-31.536 232.299 -31.1937 231.729 -30.849 231.162L-30.4219 231.422C-30.0766 230.854 -29.7292 230.29 -29.3786 229.731L-29.8022 229.466C-29.4479 228.901 -29.0901 228.341 -28.7274 227.787L-28.3091 228.061C-27.9458 227.506 -27.578 226.957 -27.2043 226.417L-27.6156 226.133C-27.2359 225.584 -26.8501 225.043 -26.4567 224.511L-26.0547 224.809C-25.661 224.277 -25.2601 223.754 -24.8506 223.243L-25.2407 222.931C-24.8232 222.41 -24.3965 221.9 -23.9593 221.403L-23.584 221.734C-23.1488 221.239 -22.7036 220.758 -22.2468 220.292L-22.604 219.942C-22.1379 219.466 -21.6596 219.006 -21.1676 218.561L-20.8324 218.932C-20.3471 218.494 -19.8487 218.072 -19.3359 217.668L-19.6451 217.275C-19.1239 216.865 -18.5877 216.473 -18.035 216.101L-17.7558 216.516C-17.2183 216.154 -16.6652 215.812 -16.095 215.49L-16.3408 215.054C-15.7675 214.731 -15.1771 214.428 -14.5683 214.147L-14.3587 214.601C-14.0637 214.464 -13.7643 214.334 -13.4603 214.208C-13.1486 214.079 -12.8358 213.955 -12.5219 213.834L-12.7011 213.368C-12.0652 213.124 -11.4249 212.896 -10.7805 212.683L-10.624 213.158C-9.98476 212.948 -9.3412 212.752 -8.69354 212.572L-8.828 212.09C-8.17311 211.907 -7.51431 211.739 -6.85184 211.585L-6.7384 212.072C-6.08348 211.919 -5.42471 211.78 -4.76234 211.654L-4.85591 211.163C-4.18837 211.036 -3.51744 210.921 -2.84341 210.819L-2.76845 211.314C-2.10371 211.213 -1.43568 211.124 -0.764618 211.046L-0.822388 210.549C-0.14856 210.471 0.528076 210.403 1.20724 210.346L1.24924 210.844C1.92064 210.788 2.59477 210.741 3.27139 210.704L3.24379 210.204C3.92137 210.167 4.60118 210.139 5.283 210.119L5.29765 210.618C5.97128 210.599 6.64709 210.587 7.32484 210.583L7.32179 210.083C8.00047 210.079 8.68086 210.082 9.36272 210.092L9.35547 210.592C10.0315 210.602 10.7091 210.618 11.3882 210.64L11.4045 210.141C12.0825 210.163 12.7617 210.19 13.4419 210.223L13.4178 210.723C14.0938 210.755 14.7708 210.792 15.4488 210.834L15.4794 210.335C16.1577 210.377 16.8368 210.422 17.5163 210.472L17.4802 210.97C18.1563 211.019 18.833 211.072 19.5102 211.126L19.5507 210.628C20.2283 210.683 20.9062 210.741 21.5841 210.8L21.5403 211.298C22.2171 211.358 22.8939 211.419 23.5708 211.482L23.6168 210.984C24.2942 211.046 24.9715 211.11 25.6483 211.174L25.6012 211.672C26.0251 211.712 26.4487 211.752 26.8721 211.792C27.1258 211.817 27.3795 211.841 27.6332 211.865L27.6805 211.367C28.3585 211.431 29.0358 211.495 29.7123 211.558L29.666 212.056C30.3444 212.119 31.0221 212.181 31.6988 212.242L31.7431 211.743C32.4226 211.804 33.101 211.863 33.778 211.919L33.7368 212.417C34.4178 212.473 35.0976 212.527 35.776 212.577L35.8129 212.078C36.4927 212.129 37.1708 212.176 37.847 212.218L37.8156 212.717C38.499 212.76 39.1807 212.799 39.8604 212.833L39.8852 212.333C40.5676 212.367 41.2478 212.396 41.9256 212.419L41.9089 212.918C42.5941 212.941 43.2771 212.958 43.9576 212.968L43.9648 212.468C44.6469 212.478 45.3262 212.48 46.0024 212.475L46.0062 212.975C46.6944 212.97 47.3798 212.957 48.062 212.935L48.0457 212.435C48.7289 212.413 49.4087 212.381 50.0848 212.34L50.1154 212.839C50.8019 212.797 51.485 212.744 52.1643 212.681L52.1178 212.183C52.7973 212.119 53.4726 212.045 54.1436 211.957L54.2079 212.453C54.8922 212.364 55.5723 212.263 56.2478 212.148L56.1637 211.655C56.8366 211.54 57.5046 211.412 58.1674 211.269L58.2729 211.757C58.9465 211.612 59.6153 211.451 60.2786 211.275L60.15 210.792C60.808 210.616 61.4604 210.425 62.1069 210.217L62.2601 210.693C62.9161 210.482 63.5664 210.253 64.2105 210.006L64.0315 209.54C64.6652 209.297 65.2926 209.036 65.9135 208.755L66.1191 209.211C66.7455 208.929 67.3655 208.627 67.9787 208.305L67.7463 207.863C68.3458 207.548 68.9385 207.214 69.5243 206.859L69.7832 207.287C70.3697 206.932 70.9493 206.556 71.5217 206.16L71.237 205.749C71.7893 205.366 72.3347 204.964 72.8731 204.54L73.1823 204.933C73.4545 204.719 73.725 204.499 73.9936 204.275C74.2456 204.064 74.4969 203.851 74.7476 203.637L74.4227 203.257C74.9214 202.83 75.4175 202.397 75.9106 201.958L76.2432 202.331C76.7343 201.894 77.2225 201.45 77.7077 201L77.3678 200.634C77.8488 200.188 78.3268 199.736 78.8016 199.278L79.1487 199.637C79.623 199.18 80.0941 198.717 80.5619 198.248L80.2079 197.895C80.6709 197.431 81.1306 196.961 81.5869 196.486L81.9475 196.833C82.4046 196.357 82.8584 195.876 83.3085 195.389L82.9416 195.05C83.3867 194.569 83.8284 194.083 84.2664 193.592L84.6396 193.924C85.0785 193.432 85.5138 192.935 85.9452 192.434L85.5661 192.108C85.9941 191.61 86.4183 191.107 86.8387 190.6L87.2236 190.919C87.6443 190.412 88.061 189.9 88.4736 189.383L88.083 189.071C88.4932 188.558 88.8993 188.04 89.3012 187.519L89.6973 187.824C90.0997 187.301 90.4979 186.775 90.8917 186.244L90.4903 185.946C90.8819 185.419 91.2691 184.888 91.652 184.352L92.0587 184.643C92.4426 184.106 92.8221 183.566 93.197 183.022L92.7852 182.738C93.1579 182.197 93.5259 181.652 93.8893 181.104L94.3061 181.38C94.6709 180.83 95.031 180.276 95.3862 179.719L94.9646 179.45C95.3179 178.896 95.6664 178.339 96.0098 177.778L96.4361 178.039C96.7811 177.476 97.1211 176.91 97.456 176.341L97.025 176.087C97.3583 175.521 97.6864 174.951 98.0093 174.378L98.4448 174.624C98.7693 174.049 99.0886 173.47 99.4023 172.889L98.9624 172.652C99.2748 172.073 99.5818 171.492 99.8831 170.908L100.327 171.137C100.631 170.55 100.928 169.96 101.22 169.368L100.772 169.147C101.062 168.557 101.347 167.964 101.626 167.369L102.079 167.582C102.36 166.983 102.635 166.383 102.903 165.78L102.447 165.576C102.715 164.975 102.977 164.372 103.232 163.767L103.693 163.961C103.95 163.352 104.201 162.741 104.446 162.129L103.981 161.943C104.225 161.332 104.463 160.718 104.694 160.103L105.162 160.279C105.395 159.66 105.621 159.039 105.84 158.416L105.368 158.25C105.587 157.629 105.798 157.007 106.003 156.384L106.478 156.54C106.684 155.91 106.884 155.28 107.076 154.648L106.598 154.502C106.789 153.873 106.974 153.242 107.151 152.611L107.632 152.746C107.811 152.108 107.982 151.468 108.146 150.829L107.661 150.705C107.824 150.067 107.98 149.428 108.127 148.788L108.615 148.901C108.764 148.256 108.905 147.61 109.038 146.964L108.548 146.863C108.681 146.217 108.805 145.571 108.922 144.925L109.414 145.014C109.531 144.362 109.64 143.709 109.741 143.057L109.247 142.981C109.347 142.33 109.439 141.679 109.522 141.028L110.018 141.091C110.102 140.433 110.177 139.775 110.243 139.118L109.745 139.068C109.811 138.413 109.868 137.759 109.915 137.105L110.414 137.141C110.462 136.479 110.501 135.818 110.53 135.157L110.031 135.135C110.06 134.477 110.08 133.82 110.09 133.164L110.59 133.171C110.6 132.509 110.6 131.847 110.591 131.186L110.091 131.193C110.081 130.534 110.062 129.877 110.032 129.221L110.532 129.198C110.502 128.536 110.462 127.874 110.411 127.214L109.912 127.253C109.862 126.597 109.802 125.942 109.73 125.289L110.227 125.235C110.155 124.576 110.073 123.918 109.979 123.262L109.484 123.332C109.392 122.682 109.288 122.033 109.173 121.386L109.666 121.298C109.55 120.646 109.424 119.995 109.286 119.346L108.797 119.45C108.66 118.807 108.512 118.167 108.353 117.529L108.838 117.408C108.678 116.765 108.506 116.124 108.323 115.485L107.842 115.623C107.661 114.993 107.468 114.365 107.264 113.739L107.739 113.584C107.636 113.268 107.53 112.954 107.421 112.639C107.309 112.316 107.194 111.995 107.075 111.677L106.606 111.852C106.371 111.223 106.123 110.606 105.863 110L106.322 109.802C106.052 109.174 105.769 108.558 105.473 107.953L105.024 108.173C104.729 107.57 104.42 106.978 104.099 106.397L104.537 106.155C104.209 105.561 103.869 104.979 103.515 104.408L103.09 104.671C102.737 104.1 102.371 103.54 101.993 102.99L102.405 102.707C102.021 102.149 101.625 101.602 101.217 101.065L100.819 101.368C100.414 100.836 99.9976 100.314 99.5695 99.8023L99.953 99.4815C99.5195 98.9632 99.0745 98.4552 98.6184 97.9569L98.2496 98.2945C97.7992 97.8024 97.3378 97.3199 96.8659 96.8464L97.22 96.4934C96.7442 96.0161 96.2579 95.5481 95.7616 95.089L95.4221 95.456C94.933 95.0035 94.4339 94.5595 93.9253 94.1238L94.2505 93.7441C93.7406 93.3072 93.2213 92.8785 92.693 92.4578L92.3815 92.8489C91.8605 92.4338 91.3306 92.0264 90.7923 91.6263L91.0905 91.225C90.5519 90.8246 90.0051 90.4316 89.4505 90.0454L89.1648 90.4558C88.6194 90.0761 88.0662 89.703 87.5057 89.3362L87.7795 88.9178C87.2185 88.5507 86.6503 88.1899 86.0754 87.8352L85.8129 88.2607C85.2465 87.9112 84.6734 87.5674 84.094 87.2291L84.3461 86.7973C83.7689 86.4603 83.1855 86.1287 82.5965 85.8022L82.3541 86.2395C81.7715 85.9165 81.1831 85.5985 80.5893 85.285L80.8227 84.8429C80.2315 84.5308 79.6351 84.2233 79.0339 83.9202L78.8087 84.3666C78.2148 84.0671 77.6161 83.7718 77.0129 83.4802L77.2305 83.03C76.6277 82.7387 76.0206 82.4513 75.4095 82.1674L75.1989 82.6209C74.5957 82.3407 73.9886 82.0639 73.3777 81.7902L73.5822 81.3339C72.9724 81.0607 72.359 80.7906 71.7424 80.5234L71.5436 80.9822C70.9317 80.717 70.3164 80.4545 69.6983 80.1945L69.8921 79.7336C69.277 79.475 68.6592 79.2188 68.0388 78.9648L67.8493 79.4275C67.2321 79.1748 66.6122 78.9242 65.9901 78.6755L66.1758 78.2112C65.5556 77.9633 64.9333 77.7172 64.3092 77.4727L64.1268 77.9383C63.506 77.6951 62.8832 77.4535 62.2589 77.2131L62.4386 76.7465C61.8146 76.5063 61.1892 76.2674 60.5627 76.0296L60.3852 76.497C59.7618 76.2604 59.1371 76.0247 58.5115 75.7898L58.6872 75.3217C58.0617 75.0868 57.4353 74.8527 56.8084 74.6191L56.6338 75.0876C56.0081 74.8544 55.3819 74.6217 54.7553 74.3892L54.9292 73.9205C54.5949 73.7964 54.2605 73.6724 53.9261 73.5485L53.0498 73.2236L52.876 73.6925C52.2496 73.4603 51.6232 73.228 50.997 72.9954L51.1711 72.5267C50.5448 72.294 49.9188 72.061 49.2935 71.8274L49.1185 72.2958C48.4923 72.0619 47.8667 71.8274 47.2419 71.592L47.4182 71.1241C46.7932 70.8886 46.1691 70.6522 45.5463 70.4147L45.3682 70.8819C44.7429 70.6435 44.1189 70.4039 43.4964 70.1629L43.6769 69.6966C43.0543 69.4556 42.4333 69.2132 41.8143 68.9691L41.6309 69.4343C41.0079 69.1886 40.3867 68.9413 39.7678 68.6919L39.9546 68.2281C39.3349 67.9785 38.7175 67.7269 38.1026 67.473L37.9118 67.9352C37.2934 67.6799 36.6776 67.4223 36.0645 67.1621L36.2599 66.7018C35.6443 66.4405 35.0317 66.1767 34.4224 65.91L34.2219 66.368C33.6087 66.0997 32.9988 65.8283 32.3924 65.5538L32.5986 65.0983C31.99 64.8228 31.3852 64.5441 30.7844 64.2619L30.5718 64.7145C29.9648 64.4294 29.3619 64.1407 28.7633 63.8481L28.9828 63.3989C28.3841 63.1062 27.7899 62.8097 27.2005 62.5091L26.9733 62.9545C26.3752 62.6494 25.7819 62.3399 25.1938 62.0258L25.4294 61.5848C25.1368 61.4285 24.8455 61.2711 24.5556 61.1125C24.2636 60.9528 23.9719 60.7907 23.6802 60.6264L23.4347 61.0619C22.8494 60.7321 22.2649 60.3932 21.6811 60.046L21.9367 59.6162C21.3626 59.2748 20.789 58.9253 20.2159 58.5683L19.9516 58.9927C19.3822 58.638 18.8134 58.2761 18.2451 57.9076L18.5171 57.4881C17.9557 57.1241 17.3946 56.7536 16.8339 56.3773L16.5553 56.7925C15.9966 56.4175 15.4384 56.0369 14.8805 55.6514L15.1648 55.2401C14.6135 54.859 14.0624 54.4729 13.5115 54.0825L13.2224 54.4905C12.6738 54.1017 12.1255 53.7087 11.5775 53.3122L11.8706 52.9071C11.3262 52.5132 10.7821 52.1158 10.2381 51.7154L9.94171 52.1181C9.39891 51.7187 8.85634 51.3163 8.31395 50.9118L8.61288 50.511C8.07385 50.109 7.53491 49.7046 6.99596 49.2987L6.69511 49.698C6.15665 49.2924 5.6183 48.8852 5.08002 48.477L5.38213 48.0786C4.84492 47.6712 4.30771 47.2628 3.77037 46.854L3.46761 47.2519C3.16316 47.0203 2.85875 46.7885 2.55431 46.5568C2.32179 46.3797 2.08926 46.2027 1.85674 46.0258L2.15953 45.6279C1.62215 45.2189 1.08458 44.8101 0.54686 44.4021L0.244629 44.8004C-0.293472 44.3921 -0.831665 43.9846 -1.37 43.5787L-1.06895 43.1795C-1.60866 42.7725 -2.14862 42.3669 -2.68887 41.9633L-2.9881 42.3639C-3.53011 41.959 -4.0723 41.5562 -4.61476 41.1562L-4.31801 40.7538C-4.86349 40.3515 -5.40938 39.9519 -5.95567 39.5556L-6.24925 39.9603C-6.79672 39.5632 -7.34451 39.1695 -7.89267 38.7798L-7.60298 38.3723C-8.15608 37.9791 -8.7097 37.5899 -9.26387 37.2054L-9.54889 37.6163C-10.1059 37.2298 -10.6634 36.8481 -11.2214 36.472L-10.942 36.0574C-11.5059 35.6772 -12.0705 35.3026 -12.6358 34.9341L-12.9088 35.353C-13.4761 34.9833 -14.0439 34.6199 -14.6124 34.2635L-14.3468 33.8399C-14.9243 33.4779 -15.5027 33.123 -16.0819 32.7761L-16.3388 33.205C-16.9214 32.856 -17.5048 32.5151 -18.0889 32.183L-17.8418 31.7483C-18.4353 31.4109 -19.0298 31.0825 -19.6254 30.7638L-19.8613 31.2047C-20.4592 30.8848 -21.058 30.5749 -21.6578 30.2758L-21.4346 29.8284C-22.0462 29.5234 -22.6591 29.2294 -23.2733 28.9473L-23.482 29.4017C-24.0997 29.1179 -24.7185 28.8464 -25.3385 28.588L-25.1461 28.1265C-25.7787 27.8628 -26.4128 27.6125 -27.0484 27.3764L-27.2225 27.8451C-27.8584 27.609 -28.4956 27.3874 -29.1341 27.1813L-28.9806 26.7055C-29.6327 26.495 -30.2865 26.3004 -30.9422 26.1226L-31.0731 26.6052C-31.7266 26.428 -32.3815 26.2678 -33.0381 26.1256L-32.9323 25.6369C-33.6029 25.4917 -34.2754 25.3649 -34.95 25.2576L-35.0285 25.7514C-35.6959 25.6452 -36.3649 25.5585 -37.0358 25.4921L-36.9865 24.9945C-37.6676 24.9271 -38.3507 24.8804 -39.0359 24.8554L-39.0541 25.3551C-39.7265 25.3305 -40.4008 25.3272 -41.077 25.3462L-41.091 24.8464C-41.7734 24.8655 -42.4578 24.9069 -43.1443 24.9716L-43.0974 25.4694C-43.7657 25.5323 -44.4359 25.6177 -45.1083 25.7264L-45.1881 25.2328C-45.8578 25.3411 -46.5294 25.4722 -47.203 25.6269L-47.091 26.1142C-47.7399 26.2633 -48.3908 26.4347 -49.0438 26.6292L-49.1865 26.1501C-49.516 26.2482 -49.8459 26.3522 -50.1763 26.4621Z" stroke="#00BB7E" stroke-dasharray="2 2"/>
</g>
<path d="M236.647 59.3321C229.532 52.0607 221.133 47.483 210.247 48.0468C187.678 49.2155 178.235 71.386 168.709 93.754C164.767 103.01 160.81 112.3 155.903 120.149C153.047 124.719 149.962 129.144 146.904 133.53C136.391 148.61 126.198 163.231 126.709 181.679C127.585 213.355 133.261 248.213 159.936 265.887C190.229 285.958 231.17 288.647 263.79 272.507C295.894 256.623 316.876 222.668 318.766 187.301C319.944 165.257 304.638 149.231 289.004 132.863C286.069 129.789 283.122 126.703 280.27 123.563C281.902 121.8 283.354 119.849 284.586 117.718C292.872 103.377 287.045 86.1219 275.822 73.9792C265.671 62.9955 250.377 54.9297 236.647 59.3321Z" fill="white"/>
<path fill-rule="evenodd" clip-rule="evenodd" d="M301.201 89.608C309.152 87.5615 316.475 93.7232 320.381 100.848C324.283 107.967 325.014 116.891 319.374 122.76C313.666 128.699 304.078 129.456 296.959 125.221C291.245 121.823 293.188 114.167 293.965 107.647C294.811 100.546 294.173 91.4168 301.201 89.608Z" fill="white"/>
<path fill-rule="evenodd" clip-rule="evenodd" d="M117.474 159.213C109.313 157.99 104.954 149.426 104.136 141.309C103.319 133.199 106.145 124.664 113.668 121.447C121.28 118.192 130.45 121.248 135.376 127.951C139.33 133.33 134.527 139.647 131.25 145.37C127.68 151.603 124.687 160.293 117.474 159.213Z" fill="white"/>
<path d="M200.95 229.698L138.298 166.842C136.567 165.103 136.567 162.291 138.298 160.553L161.523 137.252C162.354 136.418 163.482 135.949 164.658 135.949C165.834 135.949 166.962 136.418 167.792 137.252L200.95 170.517C201.78 171.351 202.908 171.82 204.084 171.82C205.26 171.82 206.388 171.351 207.218 170.517L276.208 101.303C277.038 100.469 278.166 100 279.342 100C280.518 100 281.646 100.469 282.477 101.303L305.702 124.603C307.433 126.342 307.433 129.154 305.702 130.893L207.218 229.697C206.388 230.531 205.26 231 204.084 231C202.908 231 201.78 230.531 200.95 229.698Z" fill="#46E4AA" stroke="#192E35" stroke-width="5" stroke-linecap="round" stroke-linejoin="round"/>
</svg>
