<svg width="276" height="188" viewBox="0 0 276 188" fill="none" xmlns="http://www.w3.org/2000/svg">
<path d="M262.954 187L115.081 186.949L40.7725 186.923L36.6355 186.92L21.7068 186.918C21.7068 186.918 0.381795 169.582 0.0123887 145.075C-0.715534 96.7846 30.893 118.536 26.5988 60.3361C22.6804 7.22905 125.059 -21.4082 180.65 19.165C200.861 33.9162 202.446 44.2624 231.489 40.9913C264.273 37.2992 268.009 77.1426 256.535 99.2292C240.253 130.567 301.681 125.419 262.954 187Z" fill="#F7F0FF"/>
<mask id="mask0_4951_30873" style="mask-type:alpha" maskUnits="userSpaceOnUse" x="0" y="0" width="276" height="187">
<path d="M262.954 187L115.081 186.949L40.7725 186.923L36.6355 186.92L21.7068 186.918C21.7068 186.918 0.381795 169.582 0.0123887 145.075C-0.715534 96.7846 30.893 118.536 26.5988 60.3361C22.6804 7.22905 125.059 -21.4082 180.65 19.165C200.861 33.9162 202.446 44.2624 231.489 40.9913C264.273 37.2992 268.009 77.1426 256.535 99.2292C240.253 130.567 301.681 125.419 262.954 187Z" fill="#CEF7F3"/>
</mask>
<g mask="url(#mask0_4951_30873)">
<path d="M69.0001 104.125C45.3384 99.566 7.96161 113.156 7.96161 113.156H-5.30762V187H279.185V154.062C279.185 154.062 234.394 131.689 203.285 128.562C172.536 125.471 154.7 145.672 124.731 138.125C100.013 131.899 94.0291 108.947 69.0001 104.125Z" fill="#F1E6FF"/>
</g>
<path fill-rule="evenodd" clip-rule="evenodd" d="M98.7731 176.25L79.22 182.762C73.5674 164.84 63.8795 128.884 70.3492 128.443C72.9224 128.267 75.5094 126.883 77.8476 125.028C77.7847 124.995 77.7275 124.948 77.6806 124.888C77.4995 124.659 77.5391 124.326 77.7689 124.144C79.6655 122.65 82.5307 119.702 85.2406 116.101C87.9508 112.499 90.4724 108.287 91.7186 104.271C91.8053 103.992 92.1022 103.836 92.3816 103.922C92.5027 103.96 92.6007 104.037 92.6658 104.135L102.228 87.5945C102.221 87.5911 102.214 87.5874 102.208 87.5836C101.953 87.4402 101.862 87.1171 102.006 86.8621L108.322 75.6332L112.897 52.7579C112.954 52.471 113.233 52.285 113.52 52.3423C113.568 52.3519 113.613 52.3677 113.655 52.3887C115.93 44.092 119.134 33.2874 121.718 27.1979C125.245 18.8849 128.75 15.8278 130.061 15.3384C135.398 14.7623 135.181 22.0068 133.239 30.0824C133.277 30.0856 133.317 30.0932 133.355 30.1055C133.634 30.1939 133.789 30.4917 133.7 30.7706L129.134 45.1735V60.6322C129.134 60.9248 128.896 61.1619 128.604 61.1619C128.563 61.1619 128.523 61.1573 128.484 61.1484L128.56 69.4926C128.56 69.4926 129.862 66.8068 131.761 62.8896L131.222 61.9849L133.083 58.667L133.646 58.9995C135.561 55.0486 137.766 50.4997 139.792 46.3155C139.752 46.3067 139.713 46.293 139.674 46.2743C139.411 46.1463 139.302 45.8293 139.43 45.5662L145.787 32.4979L145.814 32.4425L145.853 32.3948L156.802 18.9733C156.91 18.8406 157.07 18.774 157.228 18.7787C157.991 17.9029 158.67 17.1451 159.211 16.5677C159.838 15.8995 160.546 15.041 161.314 14.1115C164.579 10.1573 168.903 4.91953 172.443 7.59277C176.096 10.3511 168.508 22.4072 162.363 32.1693L162.363 32.1694L162.363 32.1695L162.362 32.1706L162.362 32.1712L162.36 32.1748L162.359 32.1758L162.359 32.1764C161.314 33.8358 160.312 35.4288 159.413 36.8985C154.849 44.3639 148.695 55.4378 143.626 65.5594L144.368 65.8978L142.507 69.2158L141.969 68.914C140.803 71.3107 139.718 73.6208 138.754 75.7787L148.867 65.0529L151.614 60.3622C151.386 60.2054 151.316 59.8961 151.459 59.6548L160.289 44.8206C160.41 44.618 160.644 44.5251 160.862 44.5749L163.103 40.7499C163.017 40.5893 163.017 40.3886 163.119 40.2223L165.944 35.6308C166.014 35.5184 166.118 35.4408 166.235 35.4037L178.286 14.8302C179.822 10.7437 184.659 2.85409 191.717 3.98706C198.775 5.12003 190.117 23.4953 184.906 32.5413L157.563 80.8731L166.308 67.7554C166.464 67.5221 166.772 67.452 167.012 67.5893L168.551 65.295C168.328 65.1288 168.271 64.8156 168.425 64.58C170.779 60.9908 174.362 55.4659 177.462 50.5569C179.012 48.1021 180.44 45.8038 181.533 43.9794C182.639 42.132 183.368 40.8233 183.559 40.314C183.662 40.04 183.968 39.9012 184.241 40.0039C184.326 40.0356 184.398 40.0865 184.453 40.1499L191.919 24.3178C192.152 23.7405 192.546 23.0299 193.099 22.3286C193.035 22.1656 193.053 21.9744 193.163 21.8222C193.679 21.1129 194.662 20.1518 195.973 19.512C197.295 18.8668 198.97 18.5413 200.823 19.1588C202.727 19.7935 203.708 21.2559 204.157 22.7592C204.601 24.2474 204.543 25.8189 204.355 26.823C204.313 27.0461 204.137 27.2101 203.926 27.2473C203.8 31.6842 202.576 37.0352 201.539 40.4606L181.046 82.3815C181.066 82.3882 181.085 82.396 181.104 82.4052C181.369 82.531 181.481 82.8471 181.355 83.1113L167.23 112.773L161.204 126.412C162.933 125.322 164.781 124.02 166.415 122.692C168.533 120.971 170.216 119.267 170.867 117.966C170.997 117.704 171.316 117.598 171.577 117.729C171.62 117.75 171.658 117.777 171.692 117.807C176.844 113.378 187.668 107.808 193.243 105.223C195.316 104.973 200.937 104.819 206.835 106.205C212.732 107.592 201.253 117.258 194.776 121.918L189.313 128.891L177.213 136.097L162.452 150.577L149.1 156.233L144.732 158.698C144.796 158.73 144.855 158.776 144.905 158.835C145.092 159.059 145.062 159.393 144.837 159.581C144.358 159.98 143.386 160.556 141.716 161.357C140.031 162.165 137.599 163.218 134.166 164.567C127.3 167.266 116.41 171.155 99.4513 176.631C99.1729 176.721 98.8743 176.568 98.7843 176.29C98.7801 176.277 98.7763 176.263 98.7731 176.25ZM182.205 44.9181C182.156 44.9986 182.107 45.0799 182.057 45.162L182.166 45.0003L182.205 44.9181Z" fill="#192E35"/>
<path fill-rule="evenodd" clip-rule="evenodd" d="M76.9312 187.247L75.8517 183.824C73.0064 174.803 69.1328 161.207 66.7792 149.758C65.6096 144.069 64.7745 138.72 64.68 134.679C64.6339 132.704 64.7518 130.715 65.2808 129.081C65.8031 127.467 67.1597 125.12 70.1089 124.919C71.2933 124.838 72.6968 124.293 74.2403 123.284C74.4815 122.553 74.933 121.882 75.5832 121.37C77.173 120.117 79.8317 117.415 82.4185 113.977C85.0065 110.538 87.2679 106.697 88.3455 103.224C88.7046 102.067 89.5337 101.186 90.5579 100.724L98.405 87.1505C98.3995 86.4656 98.5674 85.7701 98.9272 85.1304L104.969 74.3903L109.434 52.0651C109.611 51.1758 110.067 50.4129 110.692 49.8486C112.929 41.801 115.947 31.7542 118.466 25.8181C120.33 21.4259 122.241 18.2957 123.955 16.1374C125.563 14.1129 127.26 12.6138 128.826 12.0292L129.242 11.8742L129.682 11.8267C131.88 11.5895 134.023 12.1535 135.623 13.8093C137.069 15.3065 137.648 17.2724 137.88 18.9947C138.283 21.9845 137.819 25.6817 137.04 29.2991C137.311 30.0927 137.34 30.9771 137.067 31.838L132.666 45.7199V52.9246C133.725 50.7377 134.816 48.4862 135.875 46.3003C135.78 45.5457 135.896 44.7558 136.254 44.0209L142.611 30.9528L142.818 30.528L143.116 30.162L154.065 16.7406L156.802 18.9732L145.814 32.4424L139.43 45.566C139.32 45.7913 139.385 46.056 139.571 46.2079C139.602 46.2334 139.636 46.2558 139.674 46.2742C139.713 46.2929 139.752 46.3065 139.792 46.3153C139.286 47.3609 138.768 48.4292 138.247 49.5053C137.225 51.6149 136.188 53.7543 135.192 55.8104C134.665 56.898 134.149 57.9623 133.653 58.9865C133.651 58.9908 133.649 58.9951 133.646 58.9993L133.083 58.6668L131.222 61.9848L131.761 62.8894C131.656 63.1064 131.552 63.3196 131.451 63.5287C129.722 67.0959 128.56 69.4924 128.56 69.4924L128.484 61.1483C128.523 61.1571 128.563 61.1618 128.604 61.1618C128.648 61.1618 128.691 61.1563 128.733 61.146C128.909 61.102 129.05 60.9696 129.107 60.7986C129.124 60.7462 129.134 60.6902 129.134 60.632V45.1734L133.7 30.7705C133.784 30.5056 133.649 30.2236 133.396 30.1202C133.383 30.1147 133.369 30.1098 133.356 30.1053C133.317 30.0931 133.278 30.0855 133.239 30.0822C133.522 28.9041 133.769 27.7436 133.967 26.6225C135.126 20.0593 134.62 14.8462 130.061 15.3382C128.75 15.8277 125.245 18.8848 121.718 27.1978C119.476 32.4809 116.768 41.3131 114.604 48.9775C114.274 50.1473 113.956 51.2899 113.655 52.3886C113.613 52.3676 113.568 52.3518 113.52 52.3422C113.498 52.3377 113.475 52.3347 113.453 52.3331C113.191 52.3147 112.95 52.4934 112.897 52.7578L108.322 75.633L102.006 86.8619C101.868 87.1065 101.946 87.4135 102.177 87.5648C102.187 87.5713 102.197 87.5775 102.208 87.5834C102.214 87.5872 102.221 87.5909 102.228 87.5944L92.6659 104.135C92.6008 104.037 92.5028 103.96 92.3817 103.922C92.3408 103.91 92.2995 103.902 92.2586 103.899C92.0198 103.884 91.7927 104.033 91.7187 104.271C91.6538 104.48 91.5855 104.69 91.5138 104.9C91.275 105.6 90.9994 106.305 90.6928 107.01C90.646 107.118 90.5984 107.226 90.5501 107.333C89.1888 110.372 87.2675 113.407 85.2407 116.101C83.4466 118.485 81.5845 120.583 79.9804 122.162C79.969 122.173 79.9576 122.185 79.9463 122.196C79.5331 122.601 79.1373 122.973 78.7645 123.305C78.4103 123.621 78.0769 123.902 77.769 124.144C77.5977 124.279 77.5322 124.498 77.5847 124.697C77.6027 124.764 77.6345 124.83 77.6807 124.888C77.7276 124.948 77.7848 124.995 77.8477 125.028C77.0045 125.697 76.1289 126.305 75.2334 126.816C75.2332 126.817 75.2335 126.816 75.2334 126.816C75.1111 126.886 74.9881 126.955 74.8651 127.021C73.391 127.815 71.8677 128.339 70.3493 128.443C64.264 128.858 72.4733 160.692 78.1741 179.388C78.5342 180.569 78.8843 181.697 79.2201 182.762L98.7732 176.25C98.7764 176.263 98.7802 176.277 98.7844 176.29C98.7897 176.306 98.7958 176.322 98.8025 176.338C98.9095 176.585 99.1894 176.716 99.4514 176.631C116.41 171.155 127.3 167.266 134.166 164.567C137.599 163.218 140.031 162.164 141.716 161.357C141.787 161.322 141.858 161.288 141.927 161.255C142.023 161.208 142.117 161.162 142.209 161.117C142.974 160.739 143.57 160.416 144.022 160.142C144.379 159.925 144.647 159.739 144.837 159.581C144.95 159.486 145.014 159.355 145.026 159.219C145.037 159.084 144.998 158.946 144.905 158.834C144.856 158.776 144.796 158.73 144.732 158.698L145.774 158.11L149.1 156.232L162.452 150.576L177.213 136.097L189.313 128.89L194.776 121.918C201.253 117.258 212.732 107.592 206.835 106.205C200.937 104.818 195.316 104.973 193.243 105.223C187.668 107.808 176.844 113.378 171.692 117.806C171.658 117.776 171.62 117.75 171.577 117.729C171.316 117.598 170.997 117.704 170.867 117.966C170.264 119.171 168.776 120.721 166.877 122.311C166.726 122.438 166.571 122.565 166.415 122.692C164.781 124.02 162.933 125.322 161.204 126.411L167.231 112.773L181.355 83.1111C181.47 82.8695 181.386 82.5843 181.169 82.4412C181.149 82.4278 181.127 82.4157 181.105 82.405C181.085 82.3959 181.066 82.388 181.046 82.3814L201.539 40.4605C202.576 37.035 203.8 31.684 203.926 27.2472C204.137 27.21 204.313 27.046 204.355 26.8229C204.543 25.8188 204.601 24.2472 204.157 22.7591C203.708 21.2557 202.727 19.7934 200.823 19.1587C198.971 18.5411 197.295 18.8666 195.973 19.5119C195.583 19.7023 195.222 19.9212 194.893 20.1534C194.118 20.7014 193.526 21.3239 193.163 21.8221C193.053 21.9742 193.035 22.1655 193.099 22.3285C192.546 23.0298 192.152 23.7404 191.919 24.3176L184.453 40.1497C184.398 40.0864 184.326 40.0354 184.242 40.0038C184.186 39.9829 184.129 39.972 184.073 39.9702C183.852 39.9631 183.641 40.0955 183.559 40.3138C183.476 40.5355 183.291 40.9085 183.018 41.4114C182.798 41.8138 182.523 42.2994 182.197 42.8572C182.188 42.8723 182.179 42.8873 182.17 42.9025C181.975 43.2367 181.762 43.5964 181.533 43.9793C181.477 44.0727 181.42 44.1674 181.362 44.2633C181.341 44.299 181.319 44.335 181.297 44.3711C181.291 44.382 181.284 44.393 181.277 44.404C181.265 44.4239 181.253 44.4437 181.241 44.4637C181.226 44.4897 181.21 44.5158 181.194 44.5419C181.188 44.5516 181.182 44.5612 181.177 44.5709C181.168 44.5851 181.159 44.5993 181.151 44.6136C181.141 44.6301 181.131 44.6467 181.121 44.6633C180.092 46.3633 178.824 48.3996 177.462 50.5568C174.412 55.3862 170.895 60.8116 168.541 64.4037C168.502 64.4629 168.463 64.5216 168.425 64.5798C168.31 64.7553 168.313 64.9737 168.413 65.1425C168.448 65.2004 168.494 65.2524 168.551 65.2948L167.012 67.5891C166.97 67.565 166.925 67.5472 166.88 67.5357C166.668 67.4815 166.436 67.563 166.308 67.7552L157.563 80.873L181.043 39.3701L184.906 32.5411C186.356 30.0246 188.072 26.786 189.643 23.3975C189.661 23.3593 189.678 23.321 189.696 23.2828C189.698 23.2791 189.699 23.2754 189.701 23.2718C190.111 22.3836 190.511 21.4856 190.894 20.5881C190.939 20.4819 190.984 20.3758 191.029 20.2696C191.352 19.5012 191.662 18.734 191.954 17.9746C194.64 10.98 195.772 4.63786 191.717 3.98694C184.659 2.85397 179.822 10.7436 178.286 14.83L166.235 35.4036C166.118 35.4407 166.014 35.5182 165.945 35.6306L163.119 40.2222C163.017 40.3885 163.017 40.5891 163.103 40.7498L160.862 44.5747C160.644 44.525 160.41 44.6179 160.289 44.8204L151.46 59.6546C151.316 59.896 151.386 60.2053 151.614 60.3621L148.867 65.0528L138.754 75.7786C139.282 74.5965 139.846 73.3688 140.44 72.1061C140.931 71.0638 141.441 69.9976 141.969 68.9138L142.507 69.2156L144.368 65.8977L143.626 65.5592C143.636 65.539 143.646 65.5188 143.656 65.4986C143.68 65.4503 143.704 65.402 143.729 65.3536C144.218 64.3783 144.717 63.3945 145.224 62.4062C149.946 53.1946 155.319 43.5948 159.413 36.8983C160.312 35.4287 161.314 33.8357 162.359 32.1763L162.359 32.1756L162.362 32.1711L162.363 32.1691C168.508 22.4071 176.096 10.351 172.443 7.59265C168.904 4.91941 164.579 10.1572 161.314 14.1114C160.547 15.0408 159.838 15.8994 159.211 16.5676C158.67 17.145 157.991 17.9028 157.229 18.7785C157.07 18.7739 156.91 18.8405 156.802 18.9732L154.065 16.7406C154.37 16.3671 154.728 16.0621 155.119 15.8273C155.68 15.191 156.194 14.6221 156.635 14.1521C157.169 13.5824 157.8 12.8202 158.59 11.8626L158.716 11.7106C160.263 9.83598 162.376 7.27575 164.637 5.55571C165.813 4.66094 167.303 3.77406 169.026 3.45458C170.909 3.10561 172.858 3.48015 174.572 4.77412C176.313 6.08857 176.854 7.93053 176.918 9.59198C177.84 8.03626 179.003 6.4201 180.402 4.98535C183.11 2.20833 187.168 -0.320445 192.277 0.499628C194.048 0.783916 195.569 1.69121 196.583 3.17842C197.514 4.54403 197.824 6.11205 197.891 7.48103C198.012 9.93317 197.396 12.7975 196.532 15.5746C198.131 15.1861 199.975 15.153 201.94 15.808C205.238 16.9073 206.866 19.4872 207.541 21.7481C208.182 23.8958 208.093 26.0551 207.827 27.4738C207.745 27.9118 207.595 28.3197 207.391 28.6889C207.082 33.2386 205.902 38.2383 204.919 41.4842L204.837 41.7563L184.921 82.4979C184.989 83.2058 184.872 83.9408 184.544 84.6296L170.443 114.241C170.456 114.238 170.469 114.236 170.482 114.233C176.325 109.644 186.55 104.433 191.758 102.019L192.265 101.784L192.82 101.717C195.244 101.424 201.287 101.272 207.643 102.767C208.887 103.059 210.409 103.742 211.323 105.302C212.241 106.869 212.062 108.495 211.736 109.594C211.133 111.626 209.523 113.632 208.036 115.236C204.987 118.523 200.529 122.1 197.25 124.488L191.686 131.588L179.384 138.915L164.446 153.567L150.662 159.406L148.229 160.78C147.985 161.349 147.606 161.87 147.098 162.294C146.25 163 144.923 163.736 143.243 164.541C141.454 165.399 138.937 166.487 135.458 167.854C128.497 170.59 117.531 174.505 100.537 179.992C99.8235 180.223 99.0929 180.245 98.4106 180.093L76.9312 187.247ZM182.158 44.995C182.174 44.9692 182.189 44.9436 182.205 44.9179L182.166 45.0002L182.058 45.1619C182.091 45.1063 182.125 45.0511 182.158 44.9962C182.158 44.9958 182.158 44.9954 182.158 44.995Z" fill="#192E35"/>
<path d="M135.033 164.878L79.22 183.466C73.5674 165.544 63.8795 129.588 70.3492 129.147C76.8189 128.706 83.3761 120.622 85.846 116.636L108.989 76.6044L111.609 60.8264C113.509 53.3153 118.19 36.215 121.718 27.902C125.245 19.589 128.75 16.5319 130.061 16.0424C138.852 15.0937 132.575 35.3609 128.337 45.613L128.56 70.1967C128.56 70.1967 144.888 36.5209 146.212 33.7441C147.536 30.9673 155.92 20.7827 159.211 17.2718C162.502 13.7609 168.071 4.99526 172.443 8.29687C176.718 11.5248 165.598 27.4858 159.413 37.6026C153.228 47.7193 144.124 64.4625 138.754 76.4828L148.867 65.757L178.286 15.5343C179.822 11.4478 184.659 3.55819 191.717 4.69116C198.775 5.82413 190.117 24.1993 184.906 33.2453L154.672 86.6872L182.166 45.7044L191.919 25.0218C192.773 22.9091 195.769 19.0104 200.92 20.3171C206.07 21.6238 203.478 34.76 201.539 41.1647L172.577 100.41L160.163 128.365C161.958 127.77 166.33 125.435 169.461 120.858C172.592 116.281 186.62 108.997 193.243 105.927C195.316 105.677 200.937 105.523 206.835 106.909C212.732 108.296 201.253 117.962 194.776 122.622L189.313 129.595L177.213 136.801L162.452 151.281L149.1 156.937L135.033 164.878Z" fill="#FFC596"/>
<path d="M134.255 60.9828C130.864 64.0909 127.897 73.5801 126.838 77.9362C128.604 79.1135 132.842 80.6204 135.668 77.2298C139.199 72.9914 142.731 65.2213 144.144 63.1022C145.557 60.983 144.497 58.8638 141.672 57.451C139.145 56.1874 138.475 56.6328 138.14 56.7446C137.08 57.0983 138.493 57.0976 134.255 60.9828Z" fill="#EE4154"/>
<path d="M133.779 66.9804L139.189 68.0595L141.494 65.2912L138.281 62.4372L133.083 59.3714L131.222 62.6893L133.779 66.9804Z" fill="#D88E1F"/>
<path d="M144.368 66.6019L142.507 69.9198L139.189 68.0592L139.401 66.0725L141.493 65.2909L144.368 66.6019Z" fill="#FDB13E"/>
<ellipse cx="2.82557" cy="3.53196" rx="2.82557" ry="3.53196" transform="matrix(-0.62817 -0.778076 -0.778076 0.62817 139.613 64.0859)" fill="#B3DFFF"/>
<ellipse cx="1.41278" cy="2.11917" rx="1.41278" ry="2.11917" transform="matrix(-0.62817 -0.778076 -0.778076 0.62817 137.626 63.874)" fill="#EAF6FF"/>
<path fill-rule="evenodd" clip-rule="evenodd" d="M181.104 83.1092C181.369 83.235 181.481 83.5511 181.355 83.8153L167.23 113.477L161.204 127.116C162.933 126.026 164.781 124.724 166.415 123.397C168.533 121.675 170.216 119.971 170.866 118.67C170.997 118.408 171.316 118.302 171.577 118.433C171.839 118.564 171.945 118.882 171.814 119.144C171.052 120.668 169.203 122.496 167.083 124.219C164.941 125.959 162.446 127.652 160.305 128.901L158.893 129.725L166.267 113.035L180.398 83.3598C180.524 83.0956 180.84 82.9834 181.104 83.1092Z" fill="#192E35"/>
<path fill-rule="evenodd" clip-rule="evenodd" d="M167.043 68.3127C167.286 68.475 167.352 68.8039 167.19 69.0474L155.181 87.0603C155.019 87.3038 154.69 87.3696 154.446 87.2073C154.203 87.045 154.137 86.716 154.299 86.4726L166.308 68.4596C166.47 68.2162 166.799 68.1504 167.043 68.3127Z" fill="#192E35"/>
</svg>
