<svg width="276" height="187" viewBox="0 0 276 187" fill="none" xmlns="http://www.w3.org/2000/svg">
<path d="M262.954 187L115.081 186.949L40.7725 186.923L36.6355 186.92L21.7068 186.918C21.7068 186.918 0.381795 169.582 0.0123887 145.075C-0.715534 96.7846 30.893 118.536 26.5988 60.3361C22.6804 7.22905 125.059 -21.4082 180.65 19.165C200.861 33.9162 202.446 44.2624 231.489 40.9913C264.273 37.2992 268.009 77.1426 256.535 99.2292C240.253 130.567 301.681 125.419 262.954 187Z" fill="#F7F0FF"/>
<mask id="mask0_4951_30886" style="mask-type:alpha" maskUnits="userSpaceOnUse" x="0" y="0" width="276" height="187">
<path d="M262.954 187L115.081 186.949L40.7725 186.923L36.6355 186.92L21.7068 186.918C21.7068 186.918 0.381795 169.582 0.0123887 145.075C-0.715534 96.7846 30.893 118.536 26.5988 60.3361C22.6804 7.22905 125.059 -21.4082 180.65 19.165C200.861 33.9162 202.446 44.2624 231.489 40.9913C264.273 37.2992 268.009 77.1426 256.535 99.2292C240.253 130.567 301.681 125.419 262.954 187Z" fill="#CEF7F3"/>
</mask>
<g mask="url(#mask0_4951_30886)">
<path d="M69.0001 104.125C45.3384 99.566 7.96161 113.156 7.96161 113.156H-5.30762V187H279.185V154.062C279.185 154.062 234.394 131.689 203.285 128.562C172.536 125.471 154.7 145.672 124.731 138.125C100.013 131.899 94.0291 108.947 69.0001 104.125Z" fill="#F1E6FF"/>
</g>
<g filter="url(#filter0_d_4951_30886)">
<circle cx="137.5" cy="93.5" r="77.5" fill="white"/>
</g>
<mask id="mask1_4951_30886" style="mask-type:alpha" maskUnits="userSpaceOnUse" x="60" y="16" width="155" height="155">
<circle cx="137.5" cy="93.5" r="77.5" fill="#D9D9D9"/>
</mask>
<g mask="url(#mask1_4951_30886)">
<mask id="path-6-outside-1_4951_30886" maskUnits="userSpaceOnUse" x="41" y="-24.2568" width="187" height="208" fill="black">
<rect fill="white" x="41" y="-24.2568" width="187" height="208"/>
<path fill-rule="evenodd" clip-rule="evenodd" d="M87.3304 136.119C91.2652 137.99 95.2037 139.893 99.0345 141.785L92.2806 180L122.331 174.635L123.864 159.002C123.91 159.213 124.089 159.377 124.315 159.394C124.591 159.415 124.831 159.209 124.852 158.934L125.095 155.718C125.893 156.206 126.65 156.68 127.361 157.14C132.903 161.699 136.968 167.514 139.315 171.878C140.679 175.516 140.966 178.376 140.841 179.804H224.019V82.3639C221.525 82.0052 218.502 81.4741 215.193 80.7687L214.761 70.6542L197.615 65.9158L176.269 56.5535C175.33 55.9032 173.945 55.1295 172.292 54.4694L162.835 33.444C162.38 33.6847 161.928 33.9223 161.479 34.1569C151.504 13.9353 139.885 -10.7657 136.629 -20.2568L79.6573 0.91914L83.3897 36.9095L48.9989 4.51817L45 120.887H53.8588L87.1224 136.616C87.1905 136.452 87.2598 136.286 87.3304 136.119Z"/>
</mask>
<path fill-rule="evenodd" clip-rule="evenodd" d="M87.3304 136.119C91.2652 137.99 95.2037 139.893 99.0345 141.785L92.2806 180L122.331 174.635L123.864 159.002C123.91 159.213 124.089 159.377 124.315 159.394C124.591 159.415 124.831 159.209 124.852 158.934L125.095 155.718C125.893 156.206 126.65 156.68 127.361 157.14C132.903 161.699 136.968 167.514 139.315 171.878C140.679 175.516 140.966 178.376 140.841 179.804H224.019V82.3639C221.525 82.0052 218.502 81.4741 215.193 80.7687L214.761 70.6542L197.615 65.9158L176.269 56.5535C175.33 55.9032 173.945 55.1295 172.292 54.4694L162.835 33.444C162.38 33.6847 161.928 33.9223 161.479 34.1569C151.504 13.9353 139.885 -10.7657 136.629 -20.2568L79.6573 0.91914L83.3897 36.9095L48.9989 4.51817L45 120.887H53.8588L87.1224 136.616C87.1905 136.452 87.2598 136.286 87.3304 136.119Z" fill="#192E35"/>
<path d="M99.0345 141.785L101.989 142.307L102.38 140.091L100.363 139.095L99.0345 141.785ZM87.3304 136.119L88.6185 133.41L85.7878 132.064L84.5672 134.951L87.3304 136.119ZM92.2806 180L89.3264 179.478L88.5788 183.708L92.8079 182.953L92.2806 180ZM122.331 174.635L122.858 177.588L125.095 177.189L125.316 174.928L122.331 174.635ZM123.864 159.002L126.796 158.368L120.879 158.709L123.864 159.002ZM124.315 159.394L124.542 156.403L124.542 156.403L124.315 159.394ZM124.852 158.934L121.86 158.707L121.86 158.707L124.852 158.934ZM125.095 155.718L126.661 153.158L122.475 150.598L122.104 155.491L125.095 155.718ZM127.361 157.14L129.267 154.824L129.134 154.714L128.99 154.621L127.361 157.14ZM139.315 171.878L142.124 170.825L142.053 170.636L141.957 170.457L139.315 171.878ZM140.841 179.804L137.852 179.542L137.566 182.804H140.841V179.804ZM224.019 179.804V182.804H227.019V179.804H224.019ZM224.019 82.3639H227.019V79.7645L224.446 79.3944L224.019 82.3639ZM215.193 80.7687L212.196 80.8967L212.295 83.2184L214.568 83.7028L215.193 80.7687ZM214.761 70.6542L217.759 70.5263L217.666 68.3443L215.561 67.7626L214.761 70.6542ZM197.615 65.9158L196.41 68.6631L196.608 68.7499L196.816 68.8074L197.615 65.9158ZM176.269 56.5535L174.561 59.0199L174.799 59.1846L175.064 59.3009L176.269 56.5535ZM172.292 54.4694L169.556 55.7L170.054 56.8058L171.18 57.2554L172.292 54.4694ZM162.835 33.444L165.571 32.2134L164.26 29.2974L161.433 30.7918L162.835 33.444ZM161.479 34.1569L158.789 35.4841L160.147 38.2383L162.869 36.8156L161.479 34.1569ZM136.629 -20.2568L139.467 -21.2302L138.468 -24.141L135.584 -23.0689L136.629 -20.2568ZM79.6573 0.91914L78.6121 -1.89289L76.4336 -1.08315L76.6733 1.22859L79.6573 0.91914ZM83.3897 36.9095L81.3328 39.0933L87.2059 44.625L86.3737 36.6L83.3897 36.9095ZM48.9989 4.51817L51.0558 2.33432L46.2284 -2.21239L46.0007 4.41514L48.9989 4.51817ZM45 120.887L42.0018 120.784L41.8951 123.887H45V120.887ZM53.8588 120.887L55.1412 118.175L54.5323 117.887H53.8588V120.887ZM87.1224 136.616L85.84 139.328L88.6883 140.675L89.8941 137.764L87.1224 136.616ZM100.363 139.095C96.5167 137.196 92.5646 135.286 88.6185 133.41L86.0423 138.829C89.9658 140.694 93.8907 142.591 97.7062 144.475L100.363 139.095ZM95.2349 180.522L101.989 142.307L96.0803 141.263L89.3264 179.478L95.2349 180.522ZM121.803 171.682L91.7534 177.046L92.8079 182.953L122.858 177.588L121.803 171.682ZM120.879 158.709L119.345 174.342L125.316 174.928L126.85 159.295L120.879 158.709ZM124.542 156.403C125.676 156.489 126.569 157.316 126.796 158.368L120.932 159.636C121.251 161.109 122.502 162.266 124.089 162.386L124.542 156.403ZM121.86 158.707C121.964 157.33 123.165 156.299 124.542 156.403L124.088 162.386C126.016 162.532 127.697 161.088 127.843 159.16L121.86 158.707ZM122.104 155.491L121.86 158.707L127.843 159.16L128.087 155.944L122.104 155.491ZM128.99 154.621C128.255 154.146 127.477 153.658 126.661 153.158L123.53 158.277C124.309 158.754 125.044 159.215 125.732 159.66L128.99 154.621ZM141.957 170.457C139.478 165.848 135.187 159.693 129.267 154.824L125.456 159.457C130.62 163.705 134.457 169.179 136.673 173.299L141.957 170.457ZM143.829 180.067C144.004 178.075 143.598 174.756 142.124 170.825L136.506 172.932C137.76 176.277 137.928 178.678 137.852 179.542L143.829 180.067ZM224.019 176.804H140.841V182.804H224.019V176.804ZM221.019 82.3639V179.804H227.019V82.3639H221.019ZM214.568 83.7028C217.938 84.4212 221.027 84.9645 223.591 85.3334L224.446 79.3944C222.023 79.046 219.067 78.5269 215.818 77.8346L214.568 83.7028ZM211.764 70.7821L212.196 80.8967L218.19 80.6408L217.759 70.5263L211.764 70.7821ZM196.816 68.8074L213.962 73.5458L215.561 67.7626L198.414 63.0241L196.816 68.8074ZM175.064 59.3009L196.41 68.6631L198.82 63.1684L177.474 53.8061L175.064 59.3009ZM171.18 57.2554C172.634 57.8363 173.817 58.505 174.561 59.0199L177.977 54.0872C176.842 53.3013 175.256 52.4227 173.405 51.6833L171.18 57.2554ZM160.099 34.6746L169.556 55.7L175.028 53.2388L165.571 32.2134L160.099 34.6746ZM162.869 36.8156C163.322 36.5788 163.778 36.339 164.238 36.0961L161.433 30.7918C160.982 31.0304 160.534 31.2659 160.089 31.4983L162.869 36.8156ZM133.791 -19.2834C137.123 -9.57076 148.843 15.3225 158.789 35.4841L164.17 32.8298C154.165 12.548 142.646 -11.9607 139.467 -21.2302L133.791 -19.2834ZM80.7026 3.73117L137.674 -17.4448L135.584 -23.0689L78.6121 -1.89289L80.7026 3.73117ZM86.3737 36.6L82.6413 0.609688L76.6733 1.22859L80.4057 37.2189L86.3737 36.6ZM46.942 6.70203L81.3328 39.0933L85.4466 34.7256L51.0558 2.33432L46.942 6.70203ZM47.9982 120.99L51.9972 4.6212L46.0007 4.41514L42.0018 120.784L47.9982 120.99ZM53.8588 117.887H45V123.887H53.8588V117.887ZM88.4049 133.904L55.1412 118.175L52.5763 123.599L85.84 139.328L88.4049 133.904ZM84.5672 134.951C84.4938 135.125 84.4217 135.297 84.3508 135.468L89.8941 137.764C89.9593 137.607 90.0258 137.448 90.0936 137.288L84.5672 134.951Z" fill="#192E35" mask="url(#path-6-outside-1_4951_30886)"/>
<path d="M133.909 162.343C127.831 154.452 78.0578 131.418 53.9309 120.887H45L48.9989 4.51863L83.3897 36.9099L79.6573 0.919598L133.909 -28.3125C139.152 -13.0277 168.807 49.7598 175.632 61.7033C182.456 73.6467 210.733 80.4538 224.019 82.3643V179.805H140.841C141.063 177.272 139.988 170.234 133.909 162.343Z" fill="#FFC596"/>
<path d="M87.1224 136.617L52.7317 120.354C69.5716 98.0493 99.5991 50.3999 84.9897 38.2431C85.7006 38.7763 90.4815 41.3623 103.918 47.4407C114.448 52.2045 130.958 50.6465 163.483 33.4512L176.565 63.9696C126.125 71.1143 95.9201 115.378 87.1224 136.617Z" fill="#192E35"/>
<path d="M190.561 72.9004C154.731 75.1398 125.157 125.642 114.848 150.613C128.711 154.025 137.864 168.119 140.708 174.74L222.819 172.474V82.4978C212.262 81.6447 196.915 75.7441 190.561 72.9004Z" fill="#FFE39B"/>
<path d="M141.365 144.865C140.96 146.076 140.561 147.261 140.162 148.416C140.111 148.434 140.086 148.395 140.088 148.304C139.154 146.907 129.581 132.805 118.747 125.285C110.297 119.42 93.6733 116.931 93.6733 116.931C99.573 101.042 139.716 74.241 165.695 63.3826C165.108 70.6076 183.696 79.3146 201.339 79.2714C193.303 88.1468 176.189 96.4883 165.695 108.205C152.975 122.406 144.444 138.014 141.365 144.865Z" fill="#675DA2"/>
<path d="M139.602 144.15C139.197 145.361 138.798 146.546 138.399 147.702C138.348 147.719 138.323 147.681 138.325 147.589C137.39 146.192 127.818 132.09 116.984 124.57C108.534 118.705 91.9101 116.216 91.9101 116.216C97.8098 100.328 137.953 73.5262 163.932 62.6677C163.345 69.8927 181.933 78.5998 199.576 78.5565C191.539 87.4319 174.426 95.7735 163.932 107.49C151.212 121.691 142.681 137.299 139.602 144.15Z" fill="#FF9AA6"/>
<path d="M138.399 147.702C146.373 124.588 154.697 89.2944 199.576 78.5565M138.399 147.702C138.399 147.702 128.391 132.488 116.984 124.57C108.534 118.705 91.9101 116.216 91.9101 116.216C97.8098 100.328 137.953 73.5262 163.932 62.6678C163.345 69.8927 181.933 78.5998 199.576 78.5565M138.399 147.702C137.376 148.047 146.898 126.508 163.932 107.49C174.426 95.7735 191.539 87.4319 199.576 78.5565" stroke="#192E35"/>
<path d="M166.217 71.1249C163.505 67.6116 151.161 73.6798 145.119 76.9618C135.993 78.2051 137.814 69.4018 140.074 65.036C143.805 62.831 152.859 57.606 159.23 54.3455C165.602 51.085 173.244 54.459 176.269 56.5536L197.615 65.9158L214.761 70.6542L215.659 91.6961C212.893 87.3223 205.501 78.1206 198.058 76.3035C190.616 74.4865 183.57 75.4987 180.978 76.232C177.187 75.9935 168.929 74.6382 166.217 71.1249Z" fill="#FFC596"/>
<path d="M126.39 133.258C133.785 128.825 148.166 118.839 147.861 113.519C147.782 112.141 148.019 110.128 148.292 107.815C149.345 98.8768 150.927 85.4492 136.859 86.7775C129.535 87.4691 124.993 86.622 121.82 86.0302C117.32 85.1909 115.573 84.8651 112.55 90.1695C107.588 98.8739 99.9646 121.56 101.942 125.335L92.2805 180L122.331 174.636L126.39 133.258Z" fill="#FFC596"/>
<path d="M124.353 158.897L126.271 133.577C133.176 128.974 147.064 119 147.371 115.931" stroke="#192E35" stroke-linecap="round"/>
<path d="M117.831 85.2402C120.005 85.8796 125.427 87.1584 129.724 87.1584C135.094 87.1584 142.767 85.6239 145.069 88.3092" stroke="#192E35" stroke-linecap="round"/>
<path d="M138.547 74.1149C139.442 75.7773 142 78.7184 145.069 77.1839C148.905 75.2658 160.414 67.9769 165.017 70.2787" stroke="#192E35" stroke-linecap="round"/>
</g>
<defs>
<filter id="filter0_d_4951_30886" x="52" y="12" width="171" height="171" filterUnits="userSpaceOnUse" color-interpolation-filters="sRGB">
<feFlood flood-opacity="0" result="BackgroundImageFix"/>
<feColorMatrix in="SourceAlpha" type="matrix" values="0 0 0 0 0 0 0 0 0 0 0 0 0 0 0 0 0 0 127 0" result="hardAlpha"/>
<feOffset dy="4"/>
<feGaussianBlur stdDeviation="4"/>
<feComposite in2="hardAlpha" operator="out"/>
<feColorMatrix type="matrix" values="0 0 0 0 0 0 0 0 0 0 0 0 0 0 0 0 0 0 0.1 0"/>
<feBlend mode="normal" in2="BackgroundImageFix" result="effect1_dropShadow_4951_30886"/>
<feBlend mode="normal" in="SourceGraphic" in2="effect1_dropShadow_4951_30886" result="shape"/>
</filter>
</defs>
</svg>
