<svg width="276" height="187" viewBox="0 0 276 187" fill="none" xmlns="http://www.w3.org/2000/svg">
<path d="M262.954 187L115.081 186.949L40.7725 186.923L36.6355 186.92L21.7068 186.918C21.7068 186.918 0.381795 169.582 0.0123887 145.075C-0.715534 96.7846 30.893 118.536 26.5988 60.3361C22.6804 7.22905 125.059 -21.4082 180.65 19.165C200.861 33.9162 202.446 44.2624 231.489 40.9913C264.273 37.2992 268.009 77.1426 256.535 99.2292C240.253 130.567 301.681 125.419 262.954 187Z" fill="#F7F0FF"/>
<mask id="mask0_4951_30860" style="mask-type:alpha" maskUnits="userSpaceOnUse" x="0" y="0" width="276" height="187">
<path d="M262.954 187L115.081 186.949L40.7725 186.923L36.6355 186.92L21.7068 186.918C21.7068 186.918 0.381795 169.582 0.0123887 145.075C-0.715534 96.7846 30.893 118.536 26.5988 60.3361C22.6804 7.22905 125.059 -21.4082 180.65 19.165C200.861 33.9162 202.446 44.2624 231.489 40.9913C264.273 37.2992 268.009 77.1426 256.535 99.2292C240.253 130.567 301.681 125.419 262.954 187Z" fill="#CEF7F3"/>
</mask>
<g mask="url(#mask0_4951_30860)">
<path d="M69 104.125C45.3383 99.566 7.96149 113.156 7.96149 113.156H-5.30774V187H279.185V154.062C279.185 154.062 234.394 131.689 203.285 128.562C172.536 125.471 154.7 145.672 124.731 138.125C100.013 131.899 94.029 108.947 69 104.125Z" fill="#F1E6FF"/>
</g>
<mask id="path-4-outside-1_4951_30860" maskUnits="userSpaceOnUse" x="48" y="11" width="179" height="164" fill="black">
<rect fill="white" x="48" y="11" width="179" height="164"/>
<path fill-rule="evenodd" clip-rule="evenodd" d="M113.805 16.0224C113.522 15.0885 113.08 14.4033 112.779 14C110.831 14.1138 108.793 14.2839 106.675 14.5243C103.999 14.8276 101.469 15.2114 99.0983 15.6449C97.7267 16.4464 96.9205 17.9224 97.0297 19.4419C97.0382 19.5612 97.0521 19.6768 97.0703 19.7894C97.3421 21.4252 98.869 22.5458 100.53 22.5131C101.428 22.4949 102.152 22.4755 102.951 22.4132C104.574 22.2857 105.523 22.1177 106.798 21.8921C107.079 21.8423 107.377 21.7896 107.701 21.7339C108.996 21.5117 110.875 21.2411 113.24 21.0855C113.327 20.9265 113.46 20.6693 113.595 20.3309L117.049 19.7577C117.607 19.7789 118.361 19.9073 119.065 20.3607C120.476 21.2694 120.846 22.9867 120.942 23.8858L79.5303 27.8794C79.3174 26.1271 78.5548 23.3466 75.9484 21.5733C74.6721 20.7045 73.1366 20.2214 71.512 20.1772L67.6042 20.7146C67.3356 20.0419 67.0018 19.5345 66.7595 19.2099C64.8116 19.3237 62.7733 19.4938 60.6549 19.7341C57.979 20.0374 55.4493 20.4213 53.0785 20.8547C51.7069 21.6563 50.9006 23.1322 51.0098 24.6518C51.0183 24.771 51.0323 24.8866 51.0505 24.9993C51.3223 26.635 52.8492 27.7556 54.5102 27.7229C55.4086 27.7048 56.1317 27.6854 56.9307 27.623C58.5538 27.4956 59.5032 27.3276 60.7777 27.102L60.7777 27.102L60.7778 27.102C61.0595 27.0521 61.357 26.9994 61.6813 26.9438C62.9759 26.7216 64.8547 26.451 67.2206 26.2954C67.3528 26.0536 67.5913 25.5844 67.78 24.9485L71.5557 24.4204C72.1138 24.4555 72.8636 24.6033 73.5564 25.0743C74.8625 25.9629 75.2274 27.5453 75.3266 28.4804C74.1358 29.0398 73.339 30.2702 73.3948 31.6583L74.6374 62.5907C72.7215 62.6742 71.0552 62.8652 69.6969 63.0709C69.3572 63.1496 67.0276 63.7005 65.8083 65.9828C65.6445 66.2976 65.511 66.6124 65.42 66.9212C65.0621 68.0532 65.4685 69.2216 66.3239 69.9178L66.3238 69.9179C66.6696 70.2024 67.0882 70.4082 67.5553 70.5051H67.5554L67.708 70.5365C67.8547 73.0423 68.1962 75.5349 68.7291 77.9828C69.3131 80.6622 70.1317 83.3067 71.1655 85.8538C61.0825 91.284 53.5587 103.177 51.6068 117.586C51.2996 119.845 51.1312 122.173 51.1113 124.545C51.11 124.704 51.1093 124.862 51.1093 125.021C51.1093 148.401 65.602 167.356 83.492 167.356C84.7599 167.356 86.0109 167.26 87.2408 167.075C88.9889 166.812 90.6946 166.366 92.3465 165.754C92.4282 165.723 92.5097 165.693 92.591 165.662C92.7665 165.595 92.9414 165.526 93.1156 165.455C94.3481 164.954 95.549 164.359 96.7134 163.678C96.8679 163.587 97.0217 163.495 97.1748 163.402C97.2258 163.371 97.2767 163.339 97.3276 163.308L97.4078 163.258C97.8249 162.998 98.2371 162.727 98.6442 162.445C98.8355 162.312 99.0257 162.177 99.2148 162.039C99.2887 161.986 99.3624 161.931 99.4359 161.877L99.5478 161.88L99.55 161.792C103.207 159.056 106.417 155.415 109.001 151.102C111.033 147.709 112.678 143.901 113.849 139.791C114.043 139.111 114.223 138.423 114.39 137.727C114.467 137.411 114.54 137.093 114.61 136.774C114.956 135.208 115.234 133.606 115.44 131.972C115.726 129.71 115.875 127.388 115.875 125.021C115.875 120.382 115.303 115.917 114.247 111.74L120.781 113.901C121.714 120.304 123.749 126.195 126.619 131.224L127.008 141.717C121.715 143.339 117.804 149.098 117.804 155.954C117.804 164.068 123.284 170.647 130.049 170.647C136.81 170.647 142.292 164.068 142.292 155.954C142.292 148.323 137.445 142.051 131.244 141.329L131.106 137.61C134.434 141.471 138.375 144.45 142.714 146.264C144.946 153.584 147.009 161.25 147.043 161.376L151.161 160.276C151.039 159.822 149.49 154.063 147.621 147.773C149.241 148.099 150.9 148.268 152.59 148.268C160.775 148.268 168.251 144.297 173.953 137.749C173.723 138.874 173.601 140.05 173.601 141.26C173.601 149.374 179.081 155.954 185.845 155.954C187.742 155.954 189.538 155.436 191.14 154.512L198.431 159.148C199.664 159.932 201.178 160.143 202.579 159.726L223.061 153.627C224.24 153.315 224.409 151.713 223.32 151.163L209.996 144.438C208.696 143.782 207.214 143.585 205.791 143.875C204.833 140.574 200.365 125.11 198.617 117.636C196.983 110.648 190.008 108.698 185.151 108.569L184.959 104.661C184.951 104.328 184.941 103.997 184.928 103.666L189.327 102.78C190.786 101.542 191.392 99.6453 190.868 97.9908C190.344 96.338 188.903 95.591 188.595 95.4396L183.731 94.2767C181.349 83.3718 175.706 74.2648 168.27 68.8736C168.124 67.7177 167.927 66.5687 167.681 65.4304C167.374 64.0163 166.989 62.6164 166.529 61.241C168.352 60.8693 169.698 59.4156 169.838 57.7487C169.953 56.3908 169.254 55.0432 168.056 54.2186C164.946 52.1924 159.9 49.436 153.149 47.8856C145.814 46.2008 139.611 46.6621 135.812 47.2391C135.527 47.3014 133.869 47.6925 132.62 49.1338L131.706 27.9278C131.587 25.1781 129.182 23.0907 126.437 23.3559L125.168 23.4782C124.994 21.7962 124.271 18.6693 121.368 16.7998C120.069 15.9637 118.522 15.52 116.897 15.517L113.805 16.0224ZM75.4967 83.9791L75.0167 72.031L72.0281 71.4199L72.0279 71.4198C72.1884 73.3245 72.4725 75.2176 72.8786 77.0826C73.4011 79.4809 74.1303 81.8485 75.0487 84.1323C75.1976 84.0799 75.347 84.0288 75.4967 83.9791ZM133.946 56.3447L133.352 56.4533L132.999 57.9147L132.846 54.3692C133.096 54.5093 133.371 54.6139 133.668 54.6745L133.822 54.706C133.854 55.253 133.895 55.7993 133.946 56.3447ZM163.214 65.919L159.732 60.002L161.694 60.4031C162.438 62.2281 163.032 64.116 163.465 66.0347C163.382 65.9957 163.298 65.9571 163.214 65.919ZM69.8522 148.664L73.092 152.315C71.8054 151.474 70.5865 150.483 69.4483 149.358L69.8522 148.664ZM64.3919 142.512L69.4272 148.185L69.0055 148.909L69.0053 148.909C67.2425 147.08 65.6868 144.924 64.3919 142.512ZM60.2824 122.047C60.352 121.11 60.454 120.185 60.587 119.274L60.2824 122.047ZM192.826 147.005C193.743 145.547 194.38 143.817 194.642 141.933C194.547 143.747 194.071 145.436 193.31 146.889L192.826 147.005ZM186.388 151.49C186.005 151.547 185.615 151.576 185.22 151.576C184.41 151.576 183.623 151.453 182.871 151.223C183.8 151.623 184.801 151.84 185.845 151.84C186.179 151.84 186.509 151.818 186.834 151.774L186.388 151.49ZM201.659 144.87L197.47 145.883C197.872 144.429 198.089 142.875 198.089 141.26C198.089 133.223 192.711 126.693 186.039 126.569L185.361 112.828C188.266 112.95 193.372 113.856 194.482 118.599C196.246 126.143 200.581 141.161 201.659 144.87ZM181.827 127.376C181.227 127.626 180.649 127.93 180.096 128.283C180.673 127.073 181.204 125.822 181.687 124.534L181.827 127.376ZM147.966 161.546L167.55 156.811C169.041 156.45 170.612 156.632 171.981 157.323L185.305 164.049C186.394 164.598 186.226 166.2 185.046 166.512L164.564 172.611C163.163 173.029 161.649 172.817 160.416 172.033L147.578 163.871C146.625 163.264 146.867 161.812 147.966 161.546ZM138.217 151.97C137.585 150.105 136.523 148.505 135.178 147.348L135.019 147.622C136.366 148.715 137.472 150.212 138.217 151.97ZM134.846 147.485L135.009 147.206C133.595 146.049 131.887 145.373 130.048 145.373C129.601 145.373 129.163 145.413 128.734 145.49L128.769 145.73C129.079 145.693 129.394 145.674 129.712 145.674C131.602 145.674 133.363 146.338 134.846 147.485ZM125.751 146.713C126.622 146.231 127.564 145.903 128.552 145.758L128.52 145.532C127.53 145.739 126.597 146.145 125.751 146.713Z"/>
</mask>
<path fill-rule="evenodd" clip-rule="evenodd" d="M113.805 16.0224C113.522 15.0885 113.08 14.4033 112.779 14C110.831 14.1138 108.793 14.2839 106.675 14.5243C103.999 14.8276 101.469 15.2114 99.0983 15.6449C97.7267 16.4464 96.9205 17.9224 97.0297 19.4419C97.0382 19.5612 97.0521 19.6768 97.0703 19.7894C97.3421 21.4252 98.869 22.5458 100.53 22.5131C101.428 22.4949 102.152 22.4755 102.951 22.4132C104.574 22.2857 105.523 22.1177 106.798 21.8921C107.079 21.8423 107.377 21.7896 107.701 21.7339C108.996 21.5117 110.875 21.2411 113.24 21.0855C113.327 20.9265 113.46 20.6693 113.595 20.3309L117.049 19.7577C117.607 19.7789 118.361 19.9073 119.065 20.3607C120.476 21.2694 120.846 22.9867 120.942 23.8858L79.5303 27.8794C79.3174 26.1271 78.5548 23.3466 75.9484 21.5733C74.6721 20.7045 73.1366 20.2214 71.512 20.1772L67.6042 20.7146C67.3356 20.0419 67.0018 19.5345 66.7595 19.2099C64.8116 19.3237 62.7733 19.4938 60.6549 19.7341C57.979 20.0374 55.4493 20.4213 53.0785 20.8547C51.7069 21.6563 50.9006 23.1322 51.0098 24.6518C51.0183 24.771 51.0323 24.8866 51.0505 24.9993C51.3223 26.635 52.8492 27.7556 54.5102 27.7229C55.4086 27.7048 56.1317 27.6854 56.9307 27.623C58.5538 27.4956 59.5032 27.3276 60.7777 27.102L60.7777 27.102L60.7778 27.102C61.0595 27.0521 61.357 26.9994 61.6813 26.9438C62.9759 26.7216 64.8547 26.451 67.2206 26.2954C67.3528 26.0536 67.5913 25.5844 67.78 24.9485L71.5557 24.4204C72.1138 24.4555 72.8636 24.6033 73.5564 25.0743C74.8625 25.9629 75.2274 27.5453 75.3266 28.4804C74.1358 29.0398 73.339 30.2702 73.3948 31.6583L74.6374 62.5907C72.7215 62.6742 71.0552 62.8652 69.6969 63.0709C69.3572 63.1496 67.0276 63.7005 65.8083 65.9828C65.6445 66.2976 65.511 66.6124 65.42 66.9212C65.0621 68.0532 65.4685 69.2216 66.3239 69.9178L66.3238 69.9179C66.6696 70.2024 67.0882 70.4082 67.5553 70.5051H67.5554L67.708 70.5365C67.8547 73.0423 68.1962 75.5349 68.7291 77.9828C69.3131 80.6622 70.1317 83.3067 71.1655 85.8538C61.0825 91.284 53.5587 103.177 51.6068 117.586C51.2996 119.845 51.1312 122.173 51.1113 124.545C51.11 124.704 51.1093 124.862 51.1093 125.021C51.1093 148.401 65.602 167.356 83.492 167.356C84.7599 167.356 86.0109 167.26 87.2408 167.075C88.9889 166.812 90.6946 166.366 92.3465 165.754C92.4282 165.723 92.5097 165.693 92.591 165.662C92.7665 165.595 92.9414 165.526 93.1156 165.455C94.3481 164.954 95.549 164.359 96.7134 163.678C96.8679 163.587 97.0217 163.495 97.1748 163.402C97.2258 163.371 97.2767 163.339 97.3276 163.308L97.4078 163.258C97.8249 162.998 98.2371 162.727 98.6442 162.445C98.8355 162.312 99.0257 162.177 99.2148 162.039C99.2887 161.986 99.3624 161.931 99.4359 161.877L99.5478 161.88L99.55 161.792C103.207 159.056 106.417 155.415 109.001 151.102C111.033 147.709 112.678 143.901 113.849 139.791C114.043 139.111 114.223 138.423 114.39 137.727C114.467 137.411 114.54 137.093 114.61 136.774C114.956 135.208 115.234 133.606 115.44 131.972C115.726 129.71 115.875 127.388 115.875 125.021C115.875 120.382 115.303 115.917 114.247 111.74L120.781 113.901C121.714 120.304 123.749 126.195 126.619 131.224L127.008 141.717C121.715 143.339 117.804 149.098 117.804 155.954C117.804 164.068 123.284 170.647 130.049 170.647C136.81 170.647 142.292 164.068 142.292 155.954C142.292 148.323 137.445 142.051 131.244 141.329L131.106 137.61C134.434 141.471 138.375 144.45 142.714 146.264C144.946 153.584 147.009 161.25 147.043 161.376L151.161 160.276C151.039 159.822 149.49 154.063 147.621 147.773C149.241 148.099 150.9 148.268 152.59 148.268C160.775 148.268 168.251 144.297 173.953 137.749C173.723 138.874 173.601 140.05 173.601 141.26C173.601 149.374 179.081 155.954 185.845 155.954C187.742 155.954 189.538 155.436 191.14 154.512L198.431 159.148C199.664 159.932 201.178 160.143 202.579 159.726L223.061 153.627C224.24 153.315 224.409 151.713 223.32 151.163L209.996 144.438C208.696 143.782 207.214 143.585 205.791 143.875C204.833 140.574 200.365 125.11 198.617 117.636C196.983 110.648 190.008 108.698 185.151 108.569L184.959 104.661C184.951 104.328 184.941 103.997 184.928 103.666L189.327 102.78C190.786 101.542 191.392 99.6453 190.868 97.9908C190.344 96.338 188.903 95.591 188.595 95.4396L183.731 94.2767C181.349 83.3718 175.706 74.2648 168.27 68.8736C168.124 67.7177 167.927 66.5687 167.681 65.4304C167.374 64.0163 166.989 62.6164 166.529 61.241C168.352 60.8693 169.698 59.4156 169.838 57.7487C169.953 56.3908 169.254 55.0432 168.056 54.2186C164.946 52.1924 159.9 49.436 153.149 47.8856C145.814 46.2008 139.611 46.6621 135.812 47.2391C135.527 47.3014 133.869 47.6925 132.62 49.1338L131.706 27.9278C131.587 25.1781 129.182 23.0907 126.437 23.3559L125.168 23.4782C124.994 21.7962 124.271 18.6693 121.368 16.7998C120.069 15.9637 118.522 15.52 116.897 15.517L113.805 16.0224ZM75.4967 83.9791L75.0167 72.031L72.0281 71.4199L72.0279 71.4198C72.1884 73.3245 72.4725 75.2176 72.8786 77.0826C73.4011 79.4809 74.1303 81.8485 75.0487 84.1323C75.1976 84.0799 75.347 84.0288 75.4967 83.9791ZM133.946 56.3447L133.352 56.4533L132.999 57.9147L132.846 54.3692C133.096 54.5093 133.371 54.6139 133.668 54.6745L133.822 54.706C133.854 55.253 133.895 55.7993 133.946 56.3447ZM163.214 65.919L159.732 60.002L161.694 60.4031C162.438 62.2281 163.032 64.116 163.465 66.0347C163.382 65.9957 163.298 65.9571 163.214 65.919ZM69.8522 148.664L73.092 152.315C71.8054 151.474 70.5865 150.483 69.4483 149.358L69.8522 148.664ZM64.3919 142.512L69.4272 148.185L69.0055 148.909L69.0053 148.909C67.2425 147.08 65.6868 144.924 64.3919 142.512ZM60.2824 122.047C60.352 121.11 60.454 120.185 60.587 119.274L60.2824 122.047ZM192.826 147.005C193.743 145.547 194.38 143.817 194.642 141.933C194.547 143.747 194.071 145.436 193.31 146.889L192.826 147.005ZM186.388 151.49C186.005 151.547 185.615 151.576 185.22 151.576C184.41 151.576 183.623 151.453 182.871 151.223C183.8 151.623 184.801 151.84 185.845 151.84C186.179 151.84 186.509 151.818 186.834 151.774L186.388 151.49ZM201.659 144.87L197.47 145.883C197.872 144.429 198.089 142.875 198.089 141.26C198.089 133.223 192.711 126.693 186.039 126.569L185.361 112.828C188.266 112.95 193.372 113.856 194.482 118.599C196.246 126.143 200.581 141.161 201.659 144.87ZM181.827 127.376C181.227 127.626 180.649 127.93 180.096 128.283C180.673 127.073 181.204 125.822 181.687 124.534L181.827 127.376ZM147.966 161.546L167.55 156.811C169.041 156.45 170.612 156.632 171.981 157.323L185.305 164.049C186.394 164.598 186.226 166.2 185.046 166.512L164.564 172.611C163.163 173.029 161.649 172.817 160.416 172.033L147.578 163.871C146.625 163.264 146.867 161.812 147.966 161.546ZM138.217 151.97C137.585 150.105 136.523 148.505 135.178 147.348L135.019 147.622C136.366 148.715 137.472 150.212 138.217 151.97ZM134.846 147.485L135.009 147.206C133.595 146.049 131.887 145.373 130.048 145.373C129.601 145.373 129.163 145.413 128.734 145.49L128.769 145.73C129.079 145.693 129.394 145.674 129.712 145.674C131.602 145.674 133.363 146.338 134.846 147.485ZM125.751 146.713C126.622 146.231 127.564 145.903 128.552 145.758L128.52 145.532C127.53 145.739 126.597 146.145 125.751 146.713Z" fill="#192E35"/>
<path d="M112.779 14L114.382 12.8037L113.738 11.9406L112.663 12.0034L112.779 14ZM113.805 16.0224L111.891 16.6024L112.399 18.2789L114.128 17.9962L113.805 16.0224ZM106.675 14.5243L106.9 16.5116L106.9 16.5115L106.675 14.5243ZM99.0983 15.6449L98.7386 13.6775L98.3928 13.7407L98.0893 13.9181L99.0983 15.6449ZM97.0297 19.4419L99.0246 19.2999L99.0245 19.2985L97.0297 19.4419ZM97.0703 19.7894L95.0959 20.1085L95.0974 20.1172L97.0703 19.7894ZM100.53 22.5131L100.569 24.5127L100.57 24.5127L100.53 22.5131ZM102.951 22.4132L103.106 24.4071L103.107 24.407L102.951 22.4132ZM106.798 21.8921L107.146 23.8615H107.146L106.798 21.8921ZM107.701 21.7339L107.363 19.7627L107.363 19.7628L107.701 21.7339ZM113.24 21.0855L113.372 23.0812L114.468 23.0091L114.995 22.0449L113.24 21.0855ZM113.595 20.3309L113.267 18.3579L112.153 18.5428L111.736 19.5923L113.595 20.3309ZM117.049 19.7577L117.125 17.7592L116.922 17.7515L116.722 17.7847L117.049 19.7577ZM119.065 20.3607L117.981 22.0419L117.982 22.0424L119.065 20.3607ZM120.942 23.8858L121.134 25.8765L123.145 25.6826L122.931 23.6733L120.942 23.8858ZM79.5303 27.8794L77.5449 28.1206L77.7803 30.0575L79.7223 29.8702L79.5303 27.8794ZM75.9484 21.5733L74.8231 23.2266L74.8234 23.2268L75.9484 21.5733ZM71.512 20.1772L71.5664 18.178L71.4023 18.1735L71.2396 18.1959L71.512 20.1772ZM67.6042 20.7146L65.7467 21.4561L66.3267 22.9091L67.8766 22.696L67.6042 20.7146ZM66.7595 19.2099L68.3623 18.0135L67.718 17.1504L66.6429 17.2133L66.7595 19.2099ZM60.6549 19.7341L60.8801 21.7214L60.8803 21.7214L60.6549 19.7341ZM53.0785 20.8547L52.7188 18.8873L52.373 18.9506L52.0694 19.1279L53.0785 20.8547ZM51.0098 24.6518L53.0048 24.5097L53.0047 24.5084L51.0098 24.6518ZM51.0505 24.9993L49.0761 25.3184L49.0775 25.3271L51.0505 24.9993ZM54.5102 27.7229L54.5495 29.7225L54.5506 29.7225L54.5102 27.7229ZM56.9307 27.623L57.0863 29.617L57.0872 29.6169L56.9307 27.623ZM60.7777 27.102L60.4489 25.1292L60.439 25.1308L60.4291 25.1326L60.7777 27.102ZM60.7777 27.102L61.1065 29.0748L61.1593 29.066L61.2116 29.0544L60.7777 27.102ZM60.7778 27.102L60.4292 25.1326L60.3863 25.1402L60.3439 25.1496L60.7778 27.102ZM61.6813 26.9438L61.343 24.9726L61.3429 24.9726L61.6813 26.9438ZM67.2206 26.2954L67.3518 28.2911L68.4483 28.219L68.9755 27.2548L67.2206 26.2954ZM67.78 24.9485L67.503 22.9678L66.2287 23.146L65.8626 24.3795L67.78 24.9485ZM71.5557 24.4204L71.6813 22.4244L71.4792 22.4117L71.2787 22.4397L71.5557 24.4204ZM73.5564 25.0743L74.6815 23.4207L74.6809 23.4203L73.5564 25.0743ZM75.3266 28.4804L76.177 30.2906L77.4657 29.6852L77.3154 28.2693L75.3266 28.4804ZM73.3948 31.6583L75.3931 31.578L75.3931 31.5779L73.3948 31.6583ZM74.6374 62.5907L74.7245 64.5888L76.7158 64.502L76.6358 62.5104L74.6374 62.5907ZM69.6969 63.0709L69.3974 61.0934L69.3209 61.105L69.2455 61.1225L69.6969 63.0709ZM65.8083 65.9828L64.0443 65.0404L64.0391 65.05L64.0341 65.0597L65.8083 65.9828ZM65.42 66.9212L67.327 67.5241L67.3329 67.5054L67.3384 67.4866L65.42 66.9212ZM66.3239 69.9178L67.7499 71.3201L69.2903 69.7536L67.5864 68.3667L66.3239 69.9178ZM66.3238 69.9179L64.8978 68.5156L63.3656 70.0737L65.053 71.4622L66.3238 69.9179ZM67.5553 70.5051L67.1492 72.4634L67.3501 72.5051H67.5553V70.5051ZM67.5554 70.5051L67.959 68.5463L67.7593 68.5051H67.5554V70.5051ZM67.708 70.5365L69.7046 70.4197L69.6149 68.8875L68.1117 68.5777L67.708 70.5365ZM68.7291 77.9828L66.7749 78.4083L66.775 78.4087L68.7291 77.9828ZM71.1655 85.8538L72.1139 87.6146L73.6935 86.7639L73.0187 85.1015L71.1655 85.8538ZM51.6068 117.586L53.5885 117.856L53.5886 117.855L51.6068 117.586ZM51.1113 124.545L53.1112 124.562V124.562L51.1113 124.545ZM87.2408 167.075L87.5389 169.053H87.5389L87.2408 167.075ZM92.3465 165.754L91.6526 163.878L91.6511 163.878L92.3465 165.754ZM92.591 165.662L93.3023 167.531L93.3055 167.53L92.591 165.662ZM93.1156 165.455L92.3627 163.602L92.3622 163.602L93.1156 165.455ZM96.7134 163.678L97.7239 165.404L97.724 165.404L96.7134 163.678ZM97.1748 163.402L98.2168 165.109L98.2169 165.109L97.1748 163.402ZM97.3276 163.308L98.3799 165.009L98.3827 165.007L97.3276 163.308ZM97.4078 163.258L98.4628 164.957L98.4655 164.956L97.4078 163.258ZM98.6442 162.445L97.5045 160.801L97.5044 160.801L98.6442 162.445ZM99.2148 162.039L98.0383 160.422L98.0382 160.422L99.2148 162.039ZM99.4359 161.877L99.4866 159.878L98.7984 159.86L98.2453 160.27L99.4359 161.877ZM99.5478 161.88L99.4971 163.879L101.498 163.93L101.547 161.929L99.5478 161.88ZM99.55 161.792L98.3521 160.19L97.5748 160.772L97.5506 161.742L99.55 161.792ZM109.001 151.102L110.717 152.13L109.001 151.102ZM113.849 139.791L115.772 140.339L113.849 139.791ZM114.39 137.727L112.446 137.26L112.446 137.26L114.39 137.727ZM114.61 136.774L116.563 137.205L116.563 137.204L114.61 136.774ZM115.44 131.972L113.456 131.721V131.721L115.44 131.972ZM114.247 111.74L114.875 109.841L111.415 108.697L112.308 112.23L114.247 111.74ZM120.781 113.901L122.76 113.613L122.582 112.391L121.409 112.003L120.781 113.901ZM126.619 131.224L128.617 131.15L128.599 130.66L128.356 130.233L126.619 131.224ZM127.008 141.717L127.594 143.629L129.064 143.178L129.007 141.642L127.008 141.717ZM131.244 141.329L129.245 141.404L129.309 143.118L131.013 143.316L131.244 141.329ZM131.106 137.61L132.621 136.305L128.896 131.983L129.107 137.685L131.106 137.61ZM142.714 146.264L144.627 145.681L144.353 144.781L143.486 144.419L142.714 146.264ZM147.043 161.376L145.112 161.895L145.63 163.824L147.559 163.308L147.043 161.376ZM151.161 160.276L151.677 162.208L153.611 161.691L153.093 159.758L151.161 160.276ZM147.621 147.773L148.015 145.812L144.757 145.157L145.704 148.343L147.621 147.773ZM173.953 137.749L175.912 138.149L177.433 130.705L172.444 136.435L173.953 137.749ZM191.14 154.512L192.213 152.824L191.191 152.174L190.141 152.78L191.14 154.512ZM198.431 159.148L199.504 157.46L199.504 157.46L198.431 159.148ZM202.579 159.726L203.15 161.643L203.15 161.643L202.579 159.726ZM223.061 153.627L222.549 151.694L222.52 151.702L222.49 151.71L223.061 153.627ZM223.32 151.163L224.221 149.378L224.221 149.378L223.32 151.163ZM209.996 144.438L209.094 146.223L209.095 146.223L209.996 144.438ZM205.791 143.875L203.871 144.433L204.385 146.204L206.192 145.835L205.791 143.875ZM198.617 117.636L200.565 117.181L200.565 117.181L198.617 117.636ZM185.151 108.569L183.154 108.667L183.245 110.519L185.098 110.568L185.151 108.569ZM184.959 104.661L182.959 104.706L182.96 104.733L182.961 104.76L184.959 104.661ZM184.928 103.666L184.533 101.705L182.861 102.042L182.929 103.746L184.928 103.666ZM189.327 102.78L189.722 104.741L190.227 104.639L190.621 104.305L189.327 102.78ZM190.868 97.9908L188.961 98.5947L188.961 98.5947L190.868 97.9908ZM188.595 95.4396L189.477 93.6444L189.277 93.5462L189.06 93.4944L188.595 95.4396ZM183.731 94.2767L181.777 94.7036L182.045 95.93L183.266 96.2219L183.731 94.2767ZM168.27 68.8736L166.286 69.1245L166.394 69.9842L167.096 70.4928L168.27 68.8736ZM167.681 65.4304L169.635 65.0069L169.635 65.006L167.681 65.4304ZM166.529 61.241L166.13 59.2813L163.917 59.7326L164.632 61.8747L166.529 61.241ZM169.838 57.7487L167.845 57.5804L167.845 57.5814L169.838 57.7487ZM168.056 54.2186L169.189 52.5711L169.169 52.5568L169.147 52.543L168.056 54.2186ZM153.149 47.8856L152.701 49.8349L152.701 49.8349L153.149 47.8856ZM135.812 47.2391L135.512 45.2617L135.449 45.2714L135.386 45.285L135.812 47.2391ZM132.62 49.1338L130.622 49.22L130.839 54.2432L134.132 50.4437L132.62 49.1338ZM131.706 27.9278L133.704 27.8417L133.704 27.8414L131.706 27.9278ZM126.437 23.3559L126.629 25.3466L126.629 25.3466L126.437 23.3559ZM125.168 23.4782L123.179 23.6843L123.384 25.6596L125.36 25.4689L125.168 23.4782ZM121.368 16.7998L122.45 15.1183L122.45 15.1181L121.368 16.7998ZM116.897 15.517L116.9 13.517L116.736 13.5166L116.574 13.5432L116.897 15.517ZM75.0167 72.031L77.0151 71.9508L76.9522 70.3855L75.4174 70.0716L75.0167 72.031ZM75.4967 83.9791L76.1268 85.8772L77.5555 85.403L77.4951 83.8988L75.4967 83.9791ZM72.0281 71.4199L71.4012 73.3191L71.5125 73.3558L71.6274 73.3793L72.0281 71.4199ZM72.0279 71.4198L72.6548 69.5206L69.7808 68.5719L70.0349 71.5877L72.0279 71.4198ZM72.8786 77.0826L70.9244 77.5081L70.9244 77.5084L72.8786 77.0826ZM75.0487 84.1323L73.1931 84.8785L73.9073 86.6545L75.7129 86.0188L75.0487 84.1323ZM133.946 56.3447L134.306 58.312L136.107 57.9826L135.937 56.1599L133.946 56.3447ZM133.352 56.4533L132.992 54.486L131.714 54.7199L131.408 55.9831L133.352 56.4533ZM132.999 57.9147L131.001 58.0008L134.943 58.3849L132.999 57.9147ZM132.846 54.3692L133.824 52.6249L130.693 50.8683L130.848 54.4553L132.846 54.3692ZM133.668 54.6745L133.267 56.634L133.267 56.634L133.668 54.6745ZM133.822 54.706L135.819 54.589L135.729 53.0544L134.223 52.7465L133.822 54.706ZM163.214 65.919L161.49 66.9334L161.811 67.4787L162.387 67.7402L163.214 65.919ZM159.732 60.002L160.132 58.0425L155.728 57.1423L158.008 61.0164L159.732 60.002ZM161.694 60.4031L163.546 59.6477L163.142 58.6577L162.094 58.4436L161.694 60.4031ZM163.465 66.0347L162.62 67.8474L166.314 69.569L165.416 65.5942L163.465 66.0347ZM69.8522 148.664L71.348 147.337L69.5142 145.27L68.1239 147.658L69.8522 148.664ZM73.092 152.315L71.9984 153.989L74.5878 150.987L73.092 152.315ZM69.4483 149.358L67.7201 148.351L66.9401 149.69L68.0423 150.78L69.4483 149.358ZM64.3919 142.512L65.8877 141.184L62.6297 143.458L64.3919 142.512ZM69.4272 148.185L71.1555 149.192L71.8841 147.941L70.923 146.858L69.4272 148.185ZM69.0055 148.909L67.5795 150.312L69.4158 152.179L70.7338 149.916L69.0055 148.909ZM69.0053 148.909L67.5652 150.297L67.5722 150.304L67.5792 150.311L69.0053 148.909ZM60.2824 122.047L58.2879 121.899L62.2705 122.265L60.2824 122.047ZM60.587 119.274L62.575 119.492L58.608 118.985L60.587 119.274ZM192.826 147.005L191.133 145.941L188.517 150.105L193.296 148.949L192.826 147.005ZM194.642 141.933L196.639 142.037L192.661 141.658L194.642 141.933ZM193.31 146.889L193.78 148.833L194.66 148.62L195.081 147.818L193.31 146.889ZM186.388 151.49L187.461 149.802L186.832 149.403L186.096 149.512L186.388 151.49ZM182.871 151.223L183.457 149.311L182.081 153.061L182.871 151.223ZM186.834 151.774L187.1 153.756L192.533 153.028L187.907 150.086L186.834 151.774ZM197.47 145.883L195.543 145.351L194.639 148.625L197.94 147.827L197.47 145.883ZM201.659 144.87L202.129 146.814L204.163 146.322L203.579 144.312L201.659 144.87ZM186.039 126.569L184.041 126.667L184.133 128.533L186.001 128.568L186.039 126.569ZM185.361 112.828L185.446 110.829L183.256 110.737L183.364 112.926L185.361 112.828ZM194.482 118.599L196.429 118.143L196.429 118.143L194.482 118.599ZM180.096 128.283L178.291 127.423L175.285 133.732L181.173 129.968L180.096 128.283ZM181.827 127.376L182.596 129.222L183.893 128.682L183.824 127.278L181.827 127.376ZM181.687 124.534L183.684 124.436L179.814 123.832L181.687 124.534ZM167.55 156.811L168.02 158.755L168.02 158.755L167.55 156.811ZM147.966 161.546L147.496 159.602L147.496 159.602L147.966 161.546ZM171.981 157.323L171.08 159.109L171.08 159.109L171.981 157.323ZM185.305 164.049L186.206 162.263L186.206 162.263L185.305 164.049ZM185.046 166.512L184.534 164.579L184.504 164.586L184.475 164.595L185.046 166.512ZM164.564 172.611L165.135 174.528L165.135 174.528L164.564 172.611ZM160.416 172.033L159.343 173.721L159.343 173.721L160.416 172.033ZM147.578 163.871L146.505 165.558L146.505 165.559L147.578 163.871ZM135.178 147.348L136.482 145.832L134.66 144.264L133.45 146.342L135.178 147.348ZM138.217 151.97L136.375 152.75L140.111 151.328L138.217 151.97ZM135.019 147.622L133.29 146.615L132.428 148.096L133.759 149.176L135.019 147.622ZM134.846 147.485L133.622 149.067L135.426 150.463L136.574 148.492L134.846 147.485ZM135.009 147.206L136.737 148.213L137.595 146.739L136.275 145.659L135.009 147.206ZM128.734 145.49L128.381 143.521L126.478 143.862L126.755 145.776L128.734 145.49ZM128.769 145.73L126.789 146.015L127.068 147.946L129.005 147.716L128.769 145.73ZM125.751 146.713L124.636 145.052L126.718 148.463L125.751 146.713ZM128.552 145.758L128.843 147.737L130.817 147.448L130.532 145.473L128.552 145.758ZM128.52 145.532L130.499 145.246L130.195 143.137L128.109 143.574L128.52 145.532ZM111.177 15.1963C111.39 15.4822 111.697 15.9596 111.891 16.6024L115.719 15.4425C115.348 14.2174 114.771 13.3243 114.382 12.8037L111.177 15.1963ZM106.9 16.5115C108.981 16.2755 110.983 16.1084 112.896 15.9966L112.663 12.0034C110.68 12.1192 108.605 12.2924 106.449 12.537L106.9 16.5115ZM99.458 17.6123C101.787 17.1865 104.271 16.8095 106.9 16.5116L106.449 12.537C103.726 12.8457 101.152 13.2363 98.7386 13.6775L99.458 17.6123ZM99.0245 19.2985C98.9731 18.5828 99.3554 17.8111 100.107 17.3716L98.0893 13.9181C96.0981 15.0817 94.8679 17.2619 95.0348 19.5853L99.0245 19.2985ZM99.0447 19.4703C99.0353 19.4119 99.0286 19.3555 99.0246 19.2999L95.0347 19.5839C95.0477 19.7668 95.069 19.9417 95.0959 20.1085L99.0447 19.4703ZM100.491 20.5135C99.6912 20.5292 99.1317 19.9937 99.0433 19.4616L95.0974 20.1172C95.5525 22.8567 98.0469 24.5623 100.569 24.5127L100.491 20.5135ZM102.795 20.4192C102.058 20.4767 101.385 20.4954 100.49 20.5135L100.57 24.5127C101.472 24.4944 102.245 24.4743 103.106 24.4071L102.795 20.4192ZM106.449 19.9227C105.189 20.1457 104.317 20.2997 102.794 20.4193L103.107 24.407C104.83 24.2718 105.857 24.0897 107.146 23.8615L106.449 19.9227ZM107.363 19.7628C107.033 19.8194 106.73 19.873 106.449 19.9227L107.146 23.8615C107.428 23.8116 107.721 23.7598 108.04 23.7051L107.363 19.7628ZM113.109 19.0899C110.66 19.2509 108.711 19.5314 107.363 19.7627L108.039 23.7051C109.281 23.4921 111.089 23.2313 113.372 23.0812L113.109 19.0899ZM111.736 19.5923C111.64 19.8335 111.546 20.0149 111.486 20.1262L114.995 22.0449C115.108 21.8382 115.28 21.505 115.453 21.0696L111.736 19.5923ZM116.722 17.7847L113.267 18.3579L113.922 22.304L117.377 21.7308L116.722 17.7847ZM120.148 18.6795C119.043 17.9676 117.9 17.7886 117.125 17.7592L116.974 21.7563C117.314 21.7692 117.679 21.8469 117.981 22.0419L120.148 18.6795ZM122.931 23.6733C122.824 22.6724 122.377 20.1144 120.147 18.6791L117.982 22.0424C118.26 22.2209 118.485 22.5091 118.658 22.9147C118.835 23.3259 118.918 23.7681 118.953 24.0982L122.931 23.6733ZM79.7223 29.8702L121.134 25.8765L120.75 21.895L79.3383 25.8886L79.7223 29.8702ZM74.8234 23.2268C76.7354 24.5277 77.362 26.6149 77.5449 28.1206L81.5157 27.6382C81.2728 25.6393 80.3742 22.1655 77.0735 19.9197L74.8234 23.2268ZM71.4577 22.1765C72.7207 22.2108 73.8803 22.585 74.8231 23.2266L77.0738 19.9199C75.4638 18.8241 73.5525 18.232 71.5664 18.178L71.4577 22.1765ZM67.8766 22.696L71.7845 22.1586L71.2396 18.1959L67.3317 18.7333L67.8766 22.696ZM65.1568 20.4062C65.328 20.6356 65.5606 20.9901 65.7467 21.4561L69.4616 19.9732C69.1106 19.0937 68.6757 18.4334 68.3623 18.0135L65.1568 20.4062ZM60.8803 21.7214C62.961 21.4853 64.963 21.3182 66.8762 21.2065L66.6429 17.2133C64.6602 17.3291 62.5855 17.5023 60.4294 17.7469L60.8803 21.7214ZM53.4382 22.8221C55.7669 22.3963 58.2517 22.0193 60.8801 21.7214L60.4296 17.7469C57.7063 18.0555 55.1317 18.4462 52.7188 18.8873L53.4382 22.8221ZM53.0047 24.5084C52.9533 23.7927 53.3355 23.021 54.0876 22.5815L52.0694 19.1279C50.0782 20.2916 48.848 22.4717 49.015 24.7951L53.0047 24.5084ZM53.0249 24.6802C53.0154 24.6218 53.0088 24.5653 53.0048 24.5097L49.0149 24.7938C49.0279 24.9767 49.0491 25.1515 49.0761 25.3184L53.0249 24.6802ZM54.4708 25.7233C53.6713 25.739 53.1118 25.2035 53.0234 24.6715L49.0775 25.3271C49.5327 28.0665 52.027 29.7722 54.5495 29.7225L54.4708 25.7233ZM56.7751 25.6291C56.0383 25.6866 55.3651 25.7052 54.4698 25.7233L54.5506 29.7225C55.4521 29.7043 56.2251 29.6842 57.0863 29.617L56.7751 25.6291ZM60.4291 25.1326C59.1694 25.3556 58.2975 25.5096 56.7742 25.6292L57.0872 29.6169C58.8102 29.4816 59.8369 29.2996 61.1263 29.0714L60.4291 25.1326ZM60.4489 25.1292L60.4489 25.1292L61.1065 29.0748L61.1065 29.0748L60.4489 25.1292ZM60.3439 25.1496L60.3439 25.1496L61.2116 29.0544L61.2116 29.0543L60.3439 25.1496ZM61.3429 24.9726C61.0128 25.0293 60.7104 25.0828 60.4292 25.1326L61.1263 29.0714C61.4085 29.0214 61.7012 28.9696 62.0197 28.9149L61.3429 24.9726ZM67.0893 24.2997C64.6403 24.4608 62.6911 24.7412 61.343 24.9726L62.0196 28.915C63.2607 28.702 65.069 28.4412 67.3518 28.2911L67.0893 24.2997ZM65.8626 24.3795C65.7277 24.8342 65.5576 25.1679 65.4657 25.336L68.9755 27.2548C69.1479 26.9393 69.4549 26.3346 69.6974 25.5175L65.8626 24.3795ZM71.2787 22.4397L67.503 22.9678L68.057 26.9292L71.8327 26.4012L71.2787 22.4397ZM74.6809 23.4203C73.5948 22.6819 72.4582 22.4733 71.6813 22.4244L71.4301 26.4165C71.7695 26.4378 72.1325 26.5246 72.432 26.7282L74.6809 23.4203ZM77.3154 28.2693C77.2021 27.2011 76.7529 24.8301 74.6815 23.4207L72.4314 26.7278C72.6877 26.9022 72.8949 27.1719 73.0554 27.5469C73.2188 27.9287 73.3013 28.3474 73.3378 28.6915L77.3154 28.2693ZM75.3931 31.5779C75.3707 31.0207 75.6893 30.5197 76.177 30.2906L74.4763 26.6702C72.5824 27.5598 71.3072 29.5197 71.3964 31.7386L75.3931 31.5779ZM76.6358 62.5104L75.3931 31.578L71.3964 31.7386L72.6391 62.671L76.6358 62.5104ZM69.9963 65.0483C71.2961 64.8515 72.8908 64.6687 74.7245 64.5888L74.5504 60.5926C72.5523 60.6796 70.8142 60.8788 69.3974 61.0934L69.9963 65.0483ZM67.5723 66.9252C68.3515 65.4668 69.8897 65.0792 70.1482 65.0193L69.2455 61.1225C68.8246 61.22 65.7038 61.9342 64.0443 65.0404L67.5723 66.9252ZM67.3384 67.4866C67.3849 67.3288 67.4634 67.1349 67.5825 66.9059L64.0341 65.0597C63.8256 65.4603 63.6371 65.896 63.5016 66.3558L67.3384 67.4866ZM67.5864 68.3667C67.3317 68.1594 67.2299 67.831 67.327 67.5241L63.5131 66.3183C62.8943 68.2754 63.6053 70.2838 65.0613 71.4689L67.5864 68.3667ZM67.7499 71.3201L67.7499 71.3201L64.8978 68.5155L64.8978 68.5156L67.7499 71.3201ZM67.9614 68.5468C67.8159 68.5166 67.6932 68.4547 67.5946 68.3735L65.053 71.4622C65.6459 71.9501 66.3604 72.2999 67.1492 72.4634L67.9614 68.5468ZM67.5554 68.5051H67.5553V72.5051H67.5554V68.5051ZM68.1117 68.5777L67.959 68.5463L67.1518 72.464L67.3044 72.4954L68.1117 68.5777ZM70.6834 77.5574C70.1727 75.2114 69.8452 72.822 69.7046 70.4197L65.7114 70.6534C65.8642 73.2625 66.2198 75.8583 66.7749 78.4083L70.6834 77.5574ZM73.0187 85.1015C72.0276 82.6599 71.2428 80.1246 70.6833 77.557L66.775 78.4087C67.3833 81.1998 68.2357 83.9535 69.3124 86.606L73.0187 85.1015ZM53.5886 117.855C55.4758 103.923 62.7198 92.6738 72.1139 87.6146L70.2172 84.0929C59.4452 89.8942 51.6416 102.43 49.6249 117.318L53.5886 117.855ZM53.1112 124.562C53.1304 122.273 53.2929 120.03 53.5885 117.856L49.625 117.317C49.3063 119.66 49.1319 122.073 49.1114 124.529L53.1112 124.562ZM53.1093 125.021C53.1093 124.868 53.1099 124.715 53.1112 124.562L49.1114 124.529C49.11 124.692 49.1093 124.856 49.1093 125.021H53.1093ZM83.492 165.356C75.3007 165.356 67.7488 161.021 62.1805 153.741C56.6108 146.458 53.1093 136.311 53.1093 125.021H49.1093C49.1093 137.111 52.8542 148.131 59.0033 156.171C65.1538 164.213 73.7933 169.356 83.492 169.356V165.356ZM86.9428 165.097C85.8108 165.268 84.6595 165.356 83.492 165.356V169.356C84.8604 169.356 86.211 169.253 87.5389 169.053L86.9428 165.097ZM91.6511 163.878C90.124 164.445 88.5513 164.855 86.9427 165.097L87.5389 169.053C89.4264 168.768 91.2651 168.288 93.0419 167.629L91.6511 163.878ZM91.8797 163.793C91.8042 163.821 91.7284 163.85 91.6526 163.878L93.0405 167.629C93.1279 167.597 93.2152 167.564 93.3023 167.531L91.8797 163.793ZM92.3622 163.602C92.2001 163.668 92.0382 163.732 91.8765 163.794L93.3055 167.53C93.4948 167.457 93.6826 167.383 93.869 167.307L92.3622 163.602ZM95.7029 161.952C94.6184 162.587 93.5035 163.138 92.3627 163.602L93.8686 167.308C95.1927 166.769 96.4795 166.132 97.7239 165.404L95.7029 161.952ZM96.1328 161.695C95.99 161.782 95.8467 161.867 95.7029 161.952L97.724 165.404C97.889 165.307 98.0533 165.209 98.2168 165.109L96.1328 161.695ZM96.2753 161.607C96.2279 161.636 96.1804 161.666 96.1327 161.695L98.2169 165.109C98.2712 165.076 98.3255 165.042 98.3799 165.009L96.2753 161.607ZM96.3527 161.559L96.2725 161.609L98.3827 165.007L98.4628 164.957L96.3527 161.559ZM97.5044 160.801C97.1239 161.065 96.739 161.318 96.35 161.561L98.4655 164.956C98.9107 164.678 99.3503 164.389 99.7839 164.088L97.5044 160.801ZM98.0382 160.422C97.8612 160.551 97.6833 160.677 97.5045 160.801L99.7838 164.088C99.9878 163.947 100.19 163.803 100.391 163.657L98.0382 160.422ZM98.2453 160.27C98.1763 160.321 98.1073 160.372 98.0383 160.422L100.391 163.657C100.47 163.599 100.548 163.542 100.627 163.484L98.2453 160.27ZM99.5985 159.88L99.4866 159.878L99.3852 163.876L99.4971 163.879L99.5985 159.88ZM97.5506 161.742L97.5485 161.83L101.547 161.929L101.549 161.842L97.5506 161.742ZM107.285 150.074C104.82 154.189 101.779 157.627 98.3521 160.19L100.748 163.393C104.636 160.485 108.014 156.641 110.717 152.13L107.285 150.074ZM111.925 139.243C110.801 143.193 109.224 146.838 107.285 150.074L110.717 152.13C112.843 148.58 114.556 144.61 115.772 140.339L111.925 139.243ZM112.446 137.26C112.285 137.929 112.111 138.59 111.925 139.243L115.772 140.339C115.974 139.632 116.161 138.917 116.335 138.195L112.446 137.26ZM112.657 136.343C112.59 136.65 112.519 136.956 112.446 137.26L116.335 138.195C116.414 137.867 116.49 137.536 116.563 137.205L112.657 136.343ZM113.456 131.721C113.257 133.295 112.989 134.837 112.657 136.343L116.563 137.204C116.922 135.579 117.21 133.917 117.424 132.222L113.456 131.721ZM113.875 125.021C113.875 127.304 113.731 129.543 113.456 131.721L117.424 132.222C117.721 129.877 117.875 127.472 117.875 125.021H113.875ZM112.308 112.23C113.323 116.246 113.875 120.546 113.875 125.021H117.875C117.875 120.218 117.282 115.589 116.186 111.25L112.308 112.23ZM121.409 112.003L114.875 109.841L113.619 113.639L120.153 115.8L121.409 112.003ZM128.356 130.233C125.616 125.432 123.659 119.781 122.76 113.613L118.802 114.19C119.769 120.827 121.882 126.958 124.882 132.216L128.356 130.233ZM129.007 141.642L128.617 131.15L124.62 131.299L125.01 141.791L129.007 141.642ZM119.804 155.954C119.804 149.784 123.313 144.941 127.594 143.629L126.422 139.804C120.118 141.737 115.804 148.413 115.804 155.954H119.804ZM130.049 168.647C124.715 168.647 119.804 163.32 119.804 155.954H115.804C115.804 164.815 121.853 172.647 130.049 172.647V168.647ZM140.292 155.954C140.292 163.32 135.38 168.647 130.049 168.647V172.647C138.241 172.647 144.292 164.815 144.292 155.954H140.292ZM131.013 143.316C135.944 143.889 140.292 149.051 140.292 155.954H144.292C144.292 147.595 138.946 140.212 131.475 139.343L131.013 143.316ZM129.107 137.685L129.245 141.404L133.243 141.255L133.104 137.536L129.107 137.685ZM143.486 144.419C139.468 142.739 135.773 139.962 132.621 136.305L129.591 138.916C133.095 142.981 137.281 146.16 141.943 148.109L143.486 144.419ZM148.975 160.857C148.939 160.726 146.869 153.034 144.627 145.681L140.801 146.847C143.023 154.134 145.079 161.773 145.112 161.895L148.975 160.857ZM150.645 158.344L146.527 159.444L147.559 163.308L151.677 162.208L150.645 158.344ZM145.704 148.343C147.565 154.608 149.109 160.347 149.229 160.794L153.093 159.758C152.969 159.297 151.414 153.519 149.538 147.204L145.704 148.343ZM152.59 146.268C151.034 146.268 149.507 146.113 148.015 145.812L147.226 149.734C148.975 150.086 150.766 150.268 152.59 150.268V146.268ZM172.444 136.435C167.046 142.636 160.089 146.268 152.59 146.268V150.268C161.462 150.268 169.457 145.958 175.461 139.062L172.444 136.435ZM175.601 141.26C175.601 140.184 175.709 139.142 175.912 138.149L171.993 137.348C171.736 138.605 171.601 139.916 171.601 141.26H175.601ZM185.845 153.954C180.512 153.954 175.601 148.627 175.601 141.26H171.601C171.601 150.121 177.65 157.954 185.845 157.954V153.954ZM190.141 152.78C188.823 153.54 187.369 153.954 185.845 153.954V157.954C188.114 157.954 190.252 157.333 192.139 156.245L190.141 152.78ZM199.504 157.46L192.213 152.824L190.067 156.2L197.358 160.836L199.504 157.46ZM202.008 157.809C201.162 158.061 200.248 157.934 199.504 157.46L197.357 160.835C199.08 161.931 201.193 162.225 203.15 161.643L202.008 157.809ZM222.49 151.71L202.008 157.809L203.15 161.643L223.632 155.544L222.49 151.71ZM222.418 152.949C221.864 152.669 221.952 151.852 222.549 151.694L223.573 155.56C226.529 154.778 226.953 150.757 224.221 149.378L222.418 152.949ZM209.095 146.223L222.418 152.949L224.221 149.378L210.897 142.652L209.095 146.223ZM206.192 145.835C207.174 145.634 208.198 145.77 209.094 146.223L210.898 142.653C209.195 141.793 207.254 141.535 205.391 141.916L206.192 145.835ZM196.67 118.091C198.432 125.628 202.918 141.151 203.871 144.433L207.712 143.317C206.748 139.996 202.297 124.591 200.565 117.181L196.67 118.091ZM185.098 110.568C187.321 110.627 189.946 111.107 192.144 112.291C194.288 113.447 196.005 115.251 196.67 118.092L200.565 117.181C199.595 113.033 197.008 110.369 194.042 108.77C191.129 107.2 187.838 106.64 185.205 106.57L185.098 110.568ZM182.961 104.76L183.154 108.667L187.149 108.47L186.956 104.563L182.961 104.76ZM182.929 103.746C182.942 104.065 182.952 104.385 182.959 104.706L186.958 104.616C186.951 104.272 186.94 103.928 186.926 103.585L182.929 103.746ZM188.932 100.819L184.533 101.705L185.322 105.626L189.722 104.741L188.932 100.819ZM188.961 98.5947C189.213 99.3904 188.954 100.474 188.033 101.255L190.621 104.305C192.619 102.61 193.571 99.9002 192.774 97.3868L188.961 98.5947ZM187.714 97.2348C187.789 97.2717 188.048 97.4036 188.323 97.6475C188.595 97.8894 188.836 98.1995 188.961 98.5947L192.774 97.3868C191.987 94.9024 189.873 93.8388 189.477 93.6444L187.714 97.2348ZM183.266 96.2219L188.13 97.3848L189.06 93.4944L184.196 92.3315L183.266 96.2219ZM167.096 70.4928C174.067 75.5468 179.48 84.1901 181.777 94.7036L185.685 93.8498C183.217 82.5534 177.345 72.9827 169.444 67.2543L167.096 70.4928ZM165.726 65.8538C165.96 66.9349 166.147 68.0264 166.286 69.1245L170.254 68.6227C170.101 67.4091 169.894 66.2025 169.635 65.0069L165.726 65.8538ZM164.632 61.8747C165.069 63.1817 165.435 64.5117 165.726 65.8547L169.635 65.006C169.313 63.5208 168.908 62.051 168.426 60.6072L164.632 61.8747ZM167.845 57.5814C167.787 58.2709 167.176 59.0678 166.13 59.2813L166.929 63.2006C169.527 62.6708 171.609 60.5603 171.831 57.916L167.845 57.5814ZM166.922 55.8662C167.603 56.3349 167.892 57.024 167.845 57.5804L171.831 57.917C172.013 55.7576 170.905 53.7514 169.189 52.5711L166.922 55.8662ZM152.701 49.8349C159.16 51.3181 163.988 53.9554 166.964 55.8943L169.147 52.543C165.904 50.4294 160.64 47.5539 153.597 45.9364L152.701 49.8349ZM136.113 49.2164C139.748 48.6642 145.684 48.223 152.701 49.8349L153.597 45.9364C145.944 44.1786 139.473 44.66 135.512 45.2617L136.113 49.2164ZM134.132 50.4437C134.948 49.5016 136.076 49.2286 136.239 49.1931L135.386 45.285C134.977 45.3743 132.791 45.8833 131.109 47.8239L134.132 50.4437ZM129.708 28.014L130.622 49.22L134.618 49.0477L133.704 27.8417L129.708 28.014ZM126.629 25.3466C128.237 25.1913 129.639 26.4134 129.708 28.0142L133.704 27.8414C133.536 23.9428 130.127 20.9901 126.244 21.3651L126.629 25.3466ZM125.36 25.4689L126.629 25.3466L126.245 21.3651L124.976 21.4874L125.36 25.4689ZM120.285 18.4813C122.419 19.856 123.027 22.2149 123.179 23.6843L127.158 23.2721C126.962 21.3776 126.122 17.4826 122.45 15.1183L120.285 18.4813ZM116.893 17.5169C118.157 17.5193 119.325 17.8636 120.285 18.4815L122.45 15.1181C120.812 14.0638 118.888 13.5207 116.9 13.517L116.893 17.5169ZM114.128 17.9962L117.219 17.4907L116.574 13.5432L113.483 14.0486L114.128 17.9962ZM73.0183 72.1113L73.4983 84.0594L77.4951 83.8988L77.0151 71.9508L73.0183 72.1113ZM71.6274 73.3793L74.616 73.9905L75.4174 70.0716L72.4288 69.4604L71.6274 73.3793ZM71.401 73.319L71.4012 73.3191L72.655 69.5206L72.6548 69.5206L71.401 73.319ZM74.8328 76.6571C74.4453 74.8774 74.1741 73.0704 74.0208 71.2518L70.0349 71.5877C70.2027 73.5787 70.4997 75.5578 70.9244 77.5081L74.8328 76.6571ZM76.9043 83.3861C76.0274 81.2056 75.3313 78.9452 74.8327 76.6568L70.9244 77.5084C71.4709 80.0166 72.2332 82.4914 73.1931 84.8785L76.9043 83.3861ZM74.8666 82.0809C74.7054 82.1344 74.5447 82.1894 74.3845 82.2458L75.7129 86.0188C75.8505 85.9703 75.9885 85.9231 76.1268 85.8772L74.8666 82.0809ZM133.586 54.3773L132.992 54.486L133.712 58.4207L134.306 58.312L133.586 54.3773ZM131.408 55.9831L131.055 57.4445L134.943 58.3849L135.296 56.9235L131.408 55.9831ZM134.997 57.8285L134.844 54.283L130.848 54.4553L131.001 58.0008L134.997 57.8285ZM131.867 56.1135C132.295 56.3535 132.766 56.5315 133.267 56.634L134.068 52.715C133.977 52.6963 133.896 52.6651 133.824 52.6249L131.867 56.1135ZM133.267 56.634L133.422 56.6655L134.223 52.7465L134.068 52.715L133.267 56.634ZM131.825 54.823C131.859 55.3926 131.902 55.9615 131.955 56.5294L135.937 56.1599C135.889 55.6371 135.849 55.1134 135.819 54.589L131.825 54.823ZM164.938 64.9046L161.455 58.9876L158.008 61.0164L161.49 66.9334L164.938 64.9046ZM162.094 58.4436L160.132 58.0425L159.331 61.9615L161.293 62.3626L162.094 58.4436ZM165.416 65.5942C164.959 63.5679 164.332 61.5747 163.546 59.6477L159.842 61.1585C160.545 62.8816 161.106 64.6642 161.514 66.4752L165.416 65.5942ZM162.387 67.7402C162.465 67.7755 162.543 67.8113 162.62 67.8474L164.31 64.2219C164.221 64.1801 164.131 64.1388 164.041 64.0978L162.387 67.7402ZM68.3563 149.992L71.5962 153.642L74.5878 150.987L71.348 147.337L68.3563 149.992ZM68.0423 150.78C69.2702 151.994 70.593 153.071 71.9984 153.989L74.1857 150.64C73.0179 149.877 71.9028 148.972 70.8544 147.935L68.0423 150.78ZM68.1239 147.658L67.7201 148.351L71.1766 150.364L71.5804 149.671L68.1239 147.658ZM62.8961 143.84L67.9313 149.513L70.923 146.858L65.8877 141.184L62.8961 143.84ZM70.7338 149.916L71.1555 149.192L67.6989 147.179L67.2772 147.903L70.7338 149.916ZM67.5792 150.311L67.5795 150.312L70.4315 147.507L70.4313 147.507L67.5792 150.311ZM62.6297 143.458C64.0049 146.02 65.6663 148.327 67.5652 150.297L70.4453 147.521C68.8187 145.833 67.3687 143.829 66.1541 141.566L62.6297 143.458ZM62.277 122.195C62.3431 121.305 62.4399 120.427 62.566 119.563L58.608 118.985C58.4682 119.943 58.361 120.915 58.2879 121.899L62.277 122.195ZM58.5989 119.056L58.2944 121.829L62.2705 122.265L62.575 119.492L58.5989 119.056ZM194.52 148.07C195.592 146.364 196.324 144.363 196.623 142.208L192.661 141.658C192.437 143.271 191.894 144.731 191.133 145.941L194.52 148.07ZM192.645 141.828C192.564 143.36 192.164 144.768 191.538 145.96L195.081 147.818C195.979 146.105 196.53 144.133 196.639 142.037L192.645 141.828ZM192.84 144.945L192.356 145.061L193.296 148.949L193.78 148.833L192.84 144.945ZM185.22 153.576C185.714 153.576 186.201 153.539 186.68 153.469L186.096 149.512C185.809 149.554 185.517 149.576 185.22 149.576V153.576ZM182.285 153.136C183.222 153.423 184.207 153.576 185.22 153.576V149.576C184.613 149.576 184.023 149.484 183.457 149.311L182.285 153.136ZM185.845 149.84C185.083 149.84 184.35 149.682 183.661 149.386L182.081 153.061C183.25 153.563 184.519 153.84 185.845 153.84V149.84ZM186.568 149.792C186.331 149.824 186.09 149.84 185.845 149.84V153.84C186.269 153.84 186.688 153.812 187.1 153.756L186.568 149.792ZM185.314 153.178L185.761 153.462L187.907 150.086L187.461 149.802L185.314 153.178ZM197.94 147.827L202.129 146.814L201.189 142.926L197 143.939L197.94 147.827ZM196.089 141.26C196.089 142.696 195.896 144.071 195.543 145.351L199.398 146.415C199.847 144.787 200.089 143.054 200.089 141.26H196.089ZM186.001 128.568C191.268 128.666 196.089 133.968 196.089 141.26H200.089C200.089 132.478 194.154 124.719 186.076 124.569L186.001 128.568ZM183.364 112.926L184.041 126.667L188.036 126.47L187.359 112.729L183.364 112.926ZM196.429 118.143C195.701 115.031 193.626 113.194 191.444 112.17C189.322 111.174 187.017 110.896 185.446 110.829L185.277 114.826C186.61 114.882 188.311 115.118 189.745 115.791C191.12 116.436 192.153 117.423 192.534 119.054L196.429 118.143ZM203.579 144.312C202.497 140.585 198.178 125.625 196.429 118.143L192.534 119.054C194.313 126.662 198.666 141.737 199.738 145.428L203.579 144.312ZM181.173 129.968C181.632 129.675 182.107 129.426 182.596 129.222L181.058 125.53C180.348 125.826 179.667 126.184 179.019 126.598L181.173 129.968ZM179.814 123.832C179.351 125.067 178.842 126.265 178.291 127.423L181.902 129.143C182.503 127.881 183.057 126.577 183.559 125.236L179.814 123.832ZM183.824 127.278L183.684 124.436L179.689 124.633L179.829 127.474L183.824 127.278ZM167.08 154.867L147.496 159.602L148.436 163.49L168.02 158.755L167.08 154.867ZM172.882 155.538C171.089 154.633 169.032 154.395 167.079 154.867L168.02 158.755C169.049 158.506 170.135 158.631 171.08 159.109L172.882 155.538ZM186.206 162.263L172.882 155.538L171.08 159.109L184.404 165.834L186.206 162.263ZM185.558 168.445C188.513 167.663 188.939 163.643 186.206 162.263L184.403 165.834C183.848 165.554 183.938 164.736 184.534 164.579L185.558 168.445ZM165.135 174.528L185.617 168.429L184.475 164.595L163.993 170.695L165.135 174.528ZM159.343 173.721C161.065 174.816 163.178 175.111 165.135 174.528L163.994 170.695C163.148 170.946 162.234 170.819 161.489 170.345L159.343 173.721ZM146.505 165.559L159.343 173.721L161.489 170.345L148.651 162.183L146.505 165.559ZM147.496 159.602C144.685 160.282 144.06 164.003 146.505 165.558L148.652 162.183C149.189 162.525 149.048 163.342 148.436 163.49L147.496 159.602ZM133.874 148.865C134.925 149.769 135.796 151.057 136.323 152.612L140.111 151.328C139.374 149.153 138.12 147.241 136.482 145.832L133.874 148.865ZM136.747 148.629L136.906 148.355L133.45 146.342L133.29 146.615L136.747 148.629ZM133.759 149.176C134.83 150.044 135.747 151.266 136.375 152.75L140.058 151.189C139.197 149.157 137.902 147.385 136.278 146.069L133.759 149.176ZM136.574 148.492L136.737 148.213L133.28 146.199L133.118 146.479L136.574 148.492ZM136.275 145.659C134.543 144.24 132.396 143.373 130.048 143.373V147.373C131.379 147.373 132.648 147.859 133.742 148.754L136.275 145.659ZM130.048 143.373C129.482 143.373 128.925 143.424 128.381 143.521L129.087 147.459C129.4 147.402 129.721 147.373 130.048 147.373V143.373ZM126.755 145.776L126.789 146.015L130.748 145.444L130.714 145.204L126.755 145.776ZM129.005 147.716C129.237 147.688 129.473 147.674 129.712 147.674V143.674C129.315 143.674 128.921 143.697 128.533 143.744L129.005 147.716ZM129.712 147.674C131.116 147.674 132.454 148.164 133.622 149.067L136.07 145.903C134.272 144.513 132.088 143.674 129.712 143.674V147.674ZM126.718 148.463C127.391 148.091 128.104 147.845 128.843 147.737L128.262 143.779C127.024 143.961 125.853 144.371 124.783 144.963L126.718 148.463ZM126.54 145.817L126.573 146.044L130.532 145.473L130.499 145.246L126.54 145.817ZM126.865 148.374C127.512 147.939 128.208 147.64 128.93 147.489L128.109 143.574C126.852 143.838 125.682 144.35 124.636 145.052L126.865 148.374Z" fill="#192E35" mask="url(#path-4-outside-1_4951_30860)"/>
<path d="M69.9456 161.128L99.548 161.88L99.5637 161.245L69.9619 160.493L69.9456 161.128Z" fill="#6ABAB6"/>
<path d="M71.2723 99.0488C72.394 98.145 73.5782 97.3622 74.8151 96.7138C73.8754 97.9942 72.6761 99.0434 71.2723 99.0488Z" fill="#3F9792"/>
<path d="M120.975 24.4684C120.976 24.4405 121.024 21.6224 119.065 20.3614C118.361 19.9079 117.607 19.7796 117.05 19.7584L104.946 21.7665L104.25 17.5856L116.897 15.5176C118.523 15.5206 120.069 15.9644 121.368 16.8004C125.25 19.3007 125.234 24.05 125.22 24.584L120.975 24.4684Z" fill="#CECECE"/>
<path d="M112.779 13.9999C113.155 14.503 113.75 15.445 113.982 16.7611C114.355 18.883 113.535 20.5473 113.24 21.0854C110.875 21.241 108.996 21.5116 107.701 21.7338C105.91 22.0414 104.932 22.2575 102.951 22.4131C102.152 22.4754 101.429 22.4948 100.53 22.513C98.8691 22.5457 97.3422 21.4251 97.0704 19.7893C97.0522 19.6767 97.0382 19.5611 97.0297 19.4418C96.9205 17.9223 97.7268 16.4463 99.0984 15.6448C101.469 15.2113 103.999 14.8275 106.675 14.5242C108.793 14.2838 110.831 14.1137 112.779 13.9999Z" fill="#676767"/>
<path d="M75.3607 29.2311C75.3619 29.2026 75.482 26.3845 73.5565 25.0744C72.8637 24.6034 72.1139 24.4557 71.5558 24.4206L59.4053 26.1199L58.8163 21.9233L71.5121 20.1774C73.1367 20.2216 74.6721 20.7047 75.9485 21.5734C79.7613 24.1675 79.6284 28.9168 79.6011 29.4502L75.3607 29.2311Z" fill="#CECECE"/>
<path d="M66.7596 19.2099C67.1352 19.713 67.7303 20.655 67.962 21.9711C68.3357 24.093 67.5149 25.7572 67.2207 26.2954C64.8548 26.451 62.976 26.7216 61.6814 26.9438C59.89 27.2513 58.9127 27.4675 56.9308 27.623C56.1319 27.6854 55.4087 27.7048 54.5103 27.7229C52.8493 27.7556 51.3224 26.635 51.0506 24.9993C51.0324 24.8867 51.0185 24.771 51.01 24.6518C50.9008 23.1322 51.707 21.6563 53.0786 20.8547C55.4494 20.4213 57.9791 20.0375 60.655 19.7342C62.7734 19.4938 64.8117 19.3237 66.7596 19.2099Z" fill="#676767"/>
<path d="M137.55 70.6738C136.387 67.9259 135.477 65.0582 134.844 62.1499C134.045 58.486 133.676 54.7217 133.748 50.9616L137.993 51.0421C137.928 54.4729 138.264 57.9073 138.993 61.249C139.571 63.9025 140.401 66.519 141.462 69.0253L137.55 70.6738Z" fill="#CECECE"/>
<path d="M168.565 75.208L164.321 75.07C164.417 72.132 164.151 69.1904 163.53 66.3263C162.996 63.8659 162.198 61.4534 161.157 59.156L165.027 57.4112C166.191 59.9799 167.083 62.6782 167.681 65.4303C168.375 68.634 168.673 71.9231 168.565 75.208Z" fill="#CECECE"/>
<path d="M133.668 54.6752L166.111 61.3066C168.143 61.0869 169.687 59.5413 169.838 57.7493C169.953 56.3914 169.254 55.0438 168.056 54.2193C164.946 52.193 159.9 49.4367 153.149 47.8862C145.814 46.2014 139.611 46.6628 135.812 47.2397C135.469 47.3148 133.139 47.8657 131.924 50.1498C131.755 50.4671 131.627 50.7825 131.531 51.0894C131.033 52.6755 132.036 54.3416 133.668 54.6752Z" fill="#676767"/>
<path d="M152.59 136.416C139.711 136.416 129.272 122.763 129.272 105.929C129.272 89.0895 139.711 75.4415 152.59 75.4415C165.465 75.4415 175.904 89.0895 175.904 105.929C175.904 122.763 165.465 136.416 152.59 136.416ZM152.59 67.8226C136.489 67.8226 123.446 84.885 123.446 105.929C123.446 126.973 136.489 144.035 152.59 144.035C168.686 144.035 181.735 126.973 181.735 105.929C181.735 84.885 168.686 67.8226 152.59 67.8226Z" fill="#C7C7C7"/>
<path d="M152.591 139.803C138.28 139.803 126.681 124.633 126.681 105.929C126.681 87.2176 138.28 72.0537 152.591 72.0537C166.895 72.0537 178.494 87.2176 178.494 105.929C178.494 124.633 166.895 139.803 152.591 139.803ZM152.591 63.5878C134.701 63.5878 120.208 82.5458 120.208 105.929C120.208 129.311 134.701 148.269 152.591 148.269C170.474 148.269 184.973 129.311 184.973 105.929C184.973 82.5458 170.474 63.5878 152.591 63.5878Z" fill="#101116"/>
<path d="M153.97 105.929C153.97 107.598 153.222 108.952 152.298 108.952C151.375 108.952 150.626 107.598 150.626 105.929C150.626 104.259 151.375 102.905 152.298 102.905C153.222 102.905 153.97 104.259 153.97 105.929Z" fill="#101116"/>
<path d="M157.305 142.393L146.691 68.8377L147.292 68.7512L157.905 142.306L157.305 142.393Z" fill="#101116"/>
<path d="M136.407 133.939L135.883 133.636L170.034 75.0092L170.558 75.3131L136.407 133.939Z" fill="#101116"/>
<path d="M175.16 128.512L128.09 82.5327L128.514 82.0998L175.584 128.079L175.16 128.512Z" fill="#101116"/>
<path d="M124.415 109.175L124.343 108.574L183.264 101.471L183.336 102.072L124.415 109.175Z" fill="#101116"/>
<path d="M181.93 129.467L180.509 100.647L184.751 100.438L186.171 129.259L181.93 129.467Z" fill="#CECECE"/>
<path d="M201.897 145.688C201.676 144.932 196.461 127.063 194.482 118.599C192.945 112.026 183.731 112.823 183.339 112.86L182.922 108.643C187.519 108.186 196.709 109.477 198.617 117.636C200.57 125.988 205.92 144.318 205.974 144.503L201.897 145.688Z" fill="#CECECE"/>
<path d="M73.3948 31.6582L75.9239 94.6113C76.0331 97.3265 77.8161 99.69 80.401 100.545L123.562 114.821C125.04 115.31 126.619 115.405 128.145 115.098C148.539 110.992 168.933 106.886 189.327 102.78C190.787 101.542 191.392 99.6452 190.868 97.9907C190.344 96.3379 188.903 95.5909 188.595 95.4395C170.415 91.0928 152.235 86.7461 134.054 82.3993L131.706 27.9277C131.587 25.178 129.182 23.0906 126.437 23.3558L76.5112 28.1705C74.7003 28.3049 73.322 29.8474 73.3948 31.6582Z" fill="#4FD4FF"/>
<path d="M83.0741 89.2109L82.7714 89.1958C83.1494 81.77 83.2446 74.2389 83.0553 66.8119C82.803 56.9204 82.0386 46.9241 80.7841 37.1004L81.085 37.0628C82.3407 46.8957 83.1063 56.9022 83.3587 66.8041C83.5485 74.2389 83.4527 81.7779 83.0741 89.2109Z" fill="#2F5743"/>
<path d="M90.0284 89.3545L90.0205 89.0518C99.1481 88.8084 108.315 87.8555 117.267 86.2192C122.261 85.3062 127.279 84.1632 132.182 82.8205L132.263 83.1123C127.35 84.4569 122.324 85.6029 117.322 86.517C108.355 88.1564 99.1717 89.1105 90.0284 89.3545Z" fill="#2F5743"/>
<path d="M134.913 106.08L134.901 105.777C143.15 105.434 151.459 104.576 159.596 103.228C166.163 102.14 172.752 100.71 179.182 98.9782L179.261 99.2706C172.821 101.005 166.222 102.437 159.646 103.527C151.496 104.877 143.175 105.736 134.913 106.08Z" fill="#2F5743"/>
<path d="M185.845 151.84C180.975 151.84 177.028 147.103 177.028 141.261C177.028 135.417 180.975 130.681 185.845 130.681C190.713 130.681 194.66 135.417 194.66 141.261C194.66 147.103 190.713 151.84 185.845 151.84ZM185.845 126.567C179.081 126.567 173.601 133.146 173.601 141.261C173.601 149.374 179.081 155.954 185.845 155.954C192.607 155.954 198.089 149.374 198.089 141.261C198.089 133.146 192.607 126.567 185.845 126.567Z" fill="#101116"/>
<path d="M186.219 142.554C186.219 143.155 185.949 143.643 185.616 143.643C185.284 143.643 185.015 143.155 185.015 142.554C185.015 141.953 185.284 141.466 185.616 141.466C185.949 141.466 186.219 141.953 186.219 142.554Z" fill="#101116"/>
<path d="M187.419 155.684L183.597 129.198L183.814 129.167L187.636 155.653L187.419 155.684Z" fill="#101116"/>
<path d="M179.894 152.639L179.706 152.53L192.002 131.42L192.191 131.529L179.894 152.639Z" fill="#101116"/>
<path d="M193.848 150.686L176.899 134.129L177.052 133.973L194.001 150.529L193.848 150.686Z" fill="#101116"/>
<path d="M175.577 143.723L175.55 143.506L196.766 140.949L196.792 141.165L175.577 143.723Z" fill="#101116"/>
<path d="M127.104 144.277L126.023 115.177L130.267 115.02L131.348 144.121L127.104 144.277Z" fill="#CECECE"/>
<path d="M147.043 161.377C146.987 161.167 141.358 140.249 138.622 134.516C136.532 130.134 129.103 131.592 129.029 131.607L128.161 127.442C128.599 127.35 138.939 125.285 142.472 132.687C145.374 138.769 150.926 159.401 151.161 160.276L147.043 161.377Z" fill="#CECECE"/>
<path d="M147.966 161.546L167.55 156.811C169.041 156.451 170.612 156.632 171.981 157.323L185.305 164.049C186.394 164.599 186.226 166.2 185.046 166.512L164.564 172.612C163.163 173.029 161.649 172.817 160.416 172.033L147.578 163.871C146.625 163.264 146.867 161.812 147.966 161.546Z" fill="#4FD4FF"/>
<path d="M160.532 168.064L160.506 167.763C164.511 167.417 168.471 166.647 172.277 165.474C173.861 164.986 175.44 164.422 176.971 163.796L177.086 164.077C175.547 164.706 173.959 165.273 172.367 165.764C168.54 166.943 164.558 167.716 160.532 168.064Z" fill="#003323"/>
<path d="M185.981 148.66L205.565 143.925C207.056 143.565 208.627 143.746 209.996 144.438L223.32 151.163C224.409 151.713 224.241 153.314 223.061 153.627L202.579 159.726C201.178 160.143 199.664 159.932 198.431 159.147L185.594 150.985C184.639 150.378 184.882 148.926 185.981 148.66Z" fill="#4FD4FF"/>
<path d="M198.547 155.18L198.521 154.878C202.525 154.532 206.487 153.762 210.292 152.59C211.871 152.103 213.451 151.539 214.985 150.912L215.101 151.192C213.558 151.822 211.97 152.39 210.381 152.879C206.555 154.058 202.573 154.832 198.547 155.18Z" fill="#003323"/>
<path d="M130.048 166.533C125.179 166.533 121.232 161.795 121.232 155.954C121.232 150.11 125.179 145.373 130.048 145.373C134.916 145.373 138.863 150.11 138.863 155.954C138.863 161.795 134.916 166.533 130.048 166.533ZM130.049 141.26C123.284 141.26 117.804 147.839 117.804 155.954C117.804 164.068 123.284 170.646 130.049 170.646C136.81 170.646 142.293 164.068 142.293 155.954C142.293 147.839 136.81 141.26 130.049 141.26Z" fill="#101116"/>
<path d="M130.697 155.812C130.697 156.414 130.427 156.901 130.095 156.901C129.763 156.901 129.493 156.414 129.493 155.812C129.493 155.211 129.763 154.724 130.095 154.724C130.427 154.724 130.697 155.211 130.697 155.812Z" fill="#101116"/>
<path d="M131.898 168.941L128.076 142.456L128.292 142.425L132.114 168.911L131.898 168.941Z" fill="#101116"/>
<path d="M124.372 165.897L124.184 165.789L136.481 144.679L136.67 144.788L124.372 165.897Z" fill="#101116"/>
<path d="M138.327 163.943L121.378 147.387L121.531 147.231L138.479 163.787L138.327 163.943Z" fill="#101116"/>
<path d="M120.055 156.98L120.029 156.764L141.245 154.206L141.271 154.423L120.055 156.98Z" fill="#101116"/>
<path d="M168.996 92.3174C168.995 92.2992 168.995 92.2816 168.994 92.2635H169.026C169.028 92.2701 169.03 92.2762 169.031 92.2823L168.996 92.3174ZM168.989 92.1139C168.989 92.1127 168.989 92.1133 168.989 92.1121V92.1139Z" fill="#0B2433"/>
<path d="M169.026 92.2637H168.994C168.992 92.214 168.99 92.1637 168.989 92.1141V92.1122C169.001 92.1625 169.013 92.2128 169.026 92.2637Z" fill="#020A12"/>
<path d="M169.05 92.2637H169.026C169.013 92.2128 169.001 92.1625 168.989 92.1122V91.9608H169.357L169.05 92.2637ZM168.994 92.2637H168.989V92.1141C168.99 92.1637 168.992 92.214 168.994 92.2637Z" fill="#01060B"/>
<path d="M98.3317 17.5791C98.3275 17.53 98.3263 17.504 98.3257 17.5028L98.4771 17.4937C98.4287 17.5222 98.3802 17.5506 98.3317 17.5791Z" fill="#3B333C"/>
<path d="M71.4361 86.5059C70.2737 83.7592 69.3632 80.8914 68.7292 77.9825C67.9315 74.3181 67.5626 70.5537 67.6342 66.7948L71.8801 66.8753C71.8146 70.3049 72.1507 73.7387 72.8787 77.0823C73.4568 79.7357 74.2879 82.3516 75.3483 84.858L71.4361 86.5059Z" fill="#CECECE"/>
<path d="M102.451 91.042L98.2067 90.9027C98.3032 87.9666 98.0375 85.025 97.4163 82.1602C96.883 79.6999 96.0847 77.2874 95.0437 74.99L98.9135 73.2446C100.078 75.8139 100.97 78.5115 101.567 81.2637C102.262 84.4686 102.559 87.7589 102.451 91.042Z" fill="#CECECE"/>
<path d="M103.724 73.5809C103.645 74.5253 103.178 75.4031 102.456 76.0509C101.813 76.6381 100.957 77.0377 99.9988 77.1406L67.5555 70.5055C67.0884 70.4086 66.6698 70.2028 66.324 69.9183C65.4686 69.2221 65.0622 68.0536 65.4201 66.9216C65.5111 66.6128 65.6446 66.298 65.8084 65.9832C67.0277 63.7009 69.3572 63.15 69.6969 63.0712C73.4945 62.4961 79.7005 62.036 87.0348 63.719C93.7868 65.2688 98.8341 68.0234 101.94 70.0515C103.141 70.8748 103.839 72.2248 103.724 73.5809Z" fill="#676767"/>
<path d="M99.9988 77.1406L83.4526 73.7565L83.1492 73.6947L72.0282 71.4203L67.7083 70.537L67.5555 70.5055C67.0883 70.4086 66.6698 70.2028 66.324 69.9183C67.5312 68.653 69.0357 68.2958 69.3087 68.2413C71.1298 67.9628 73.5054 67.7116 76.293 67.7116C79.3183 67.7116 82.8295 68.007 86.6466 68.883C93.3985 70.4389 98.4397 73.1934 101.552 75.2155C101.898 75.4516 102.201 75.7361 102.456 76.0509C101.813 76.6381 100.957 77.0377 99.9988 77.1406Z" fill="#676767"/>
<path d="M101.964 143.606C98.555 149.4 93.5866 153.547 87.8781 154.963C87.684 155.018 87.4838 155.066 87.2836 155.103C86.0521 155.369 84.7842 155.508 83.4921 155.508C78.2143 155.508 73.355 153.22 69.4482 149.357C69.3026 149.212 69.1571 149.061 69.0054 148.909C64.1219 143.842 60.8278 136.269 60.2637 127.672C60.2455 127.472 60.2333 127.273 60.2273 127.067C60.1909 126.389 60.1727 125.711 60.1727 125.021C60.1727 124.784 60.1727 124.542 60.1787 124.306C60.294 117.889 61.9198 111.968 64.6194 107.119C64.7164 106.937 64.8196 106.756 64.9287 106.58V106.574C68.2471 100.859 73.082 96.7305 78.645 95.1927C78.8391 95.1383 79.0393 95.0898 79.2334 95.0414C80.6166 94.7084 82.0361 94.5329 83.4921 94.5329C88.6364 94.5329 93.3985 96.7183 97.2507 100.417C97.4085 100.557 97.5601 100.708 97.7057 100.859C101.71 104.885 104.682 110.582 106.017 117.15C106.308 118.555 106.52 119.996 106.648 121.467C106.666 121.667 106.684 121.873 106.696 122.072C106.769 123.041 106.805 124.028 106.805 125.021C106.805 131.771 105.125 138.012 102.28 143.061C102.183 143.243 102.074 143.425 101.964 143.606ZM112.502 121.376C112.49 121.17 112.471 120.97 112.453 120.765C112.144 117.09 111.428 113.573 110.372 110.291C108.401 104.134 105.228 98.8009 101.236 94.7932C101.091 94.6418 100.939 94.4905 100.787 94.3512C95.9525 89.6715 89.9649 86.911 83.4921 86.911C74.0041 86.911 65.5779 92.8378 60.2576 102.016C60.1545 102.191 60.0513 102.373 59.9482 102.56C57.1152 107.622 55.2164 113.633 54.5855 120.159C54.4277 121.751 54.3489 123.374 54.3489 125.021C54.3489 146.064 67.3917 163.124 83.4921 163.124C99.5863 163.124 112.635 146.064 112.635 125.021C112.635 123.792 112.593 122.575 112.502 121.376Z" fill="#E8E8E8"/>
<path d="M88.3573 158.292C88.1632 158.341 87.963 158.389 87.7628 158.432C86.3736 158.734 84.948 158.892 83.492 158.892C77.6258 158.892 72.2145 156.343 67.877 152.045C67.7253 151.9 67.5798 151.754 67.4402 151.603C61.9926 145.973 58.3163 137.546 57.6793 127.98C57.6672 127.781 57.6551 127.581 57.6429 127.375C57.6005 126.6 57.5823 125.813 57.5823 125.02C57.5823 124.185 57.6065 123.355 57.649 122.538C58.013 116.042 59.7722 110.055 62.5446 105.091C62.6417 104.909 62.7448 104.727 62.8479 104.546C66.5545 98.1648 71.9537 93.5577 78.1657 91.8626C78.3598 91.8021 78.5539 91.7537 78.7541 91.7052C80.2889 91.3359 81.8723 91.1422 83.492 91.1422C89.2309 91.1422 94.5269 93.582 98.8219 97.7168C98.9736 97.856 99.1252 98.0074 99.2769 98.1587C103.299 102.209 106.387 107.766 108.043 114.19C108.619 116.417 109.02 118.742 109.226 121.152C109.244 121.351 109.262 121.557 109.274 121.763C109.353 122.835 109.396 123.918 109.396 125.02C109.396 132.527 107.527 139.471 104.355 145.089C104.251 145.276 104.148 145.452 104.045 145.634C100.248 152.093 94.7149 156.713 88.3573 158.292ZM112.508 106.21C107.212 92.2622 96.2073 82.6788 83.492 82.6788C67.5434 82.6788 54.2943 97.7471 51.6068 117.586C51.2792 119.995 51.1094 122.483 51.1094 125.02C51.1094 148.4 65.6021 167.355 83.492 167.355C101.376 167.355 115.875 148.4 115.875 125.02C115.875 118.264 114.661 111.877 112.508 106.21Z" fill="#A0A0A0"/>
<path d="M84.8752 125.021C84.8752 125.36 84.8448 125.681 84.7902 125.978C84.7417 126.22 84.6871 126.444 84.6082 126.65C84.4505 127.104 84.22 127.479 83.947 127.721C83.7771 127.879 83.583 127.988 83.3768 128.024C83.3222 128.036 83.2615 128.042 83.2008 128.042C82.8308 128.042 82.485 127.824 82.212 127.449C82.0785 127.279 81.9633 127.073 81.8662 126.837C81.66 126.353 81.5386 125.76 81.5265 125.106V125.021C81.5265 124.84 81.5326 124.664 81.5568 124.495C81.575 124.246 81.6175 124.004 81.6721 123.78C81.7328 123.55 81.8055 123.338 81.8905 123.144C82.0603 122.751 82.2848 122.436 82.5457 122.236C82.7216 122.097 82.9157 122.012 83.122 122L83.2008 121.994C83.6073 121.994 83.9834 122.26 84.2746 122.702C84.402 122.89 84.5051 123.108 84.5961 123.35C84.681 123.58 84.7478 123.834 84.7963 124.101C84.8327 124.295 84.857 124.5 84.8691 124.706C84.8691 124.809 84.8752 124.912 84.8752 125.021Z" fill="#A0A0A0"/>
<path d="M88.8062 161.399L88.2057 161.484L87.7628 158.433L87.2836 155.103L83.8985 131.62L83.3768 128.024L83.0795 125.954L82.9461 125.027L82.94 124.985L82.9339 124.936L82.849 124.337L82.8065 124.041L82.5457 122.237L78.645 95.1935L78.1657 91.8639L77.5955 87.9288L78.196 87.844L78.7542 91.7065L79.2334 95.0422L83.122 122L83.4314 124.144L83.4496 124.265L83.5163 124.737L83.5345 124.864L83.5709 125.112L83.6619 125.723L83.947 127.721L84.4991 131.548L87.8781 154.964L88.3573 158.294L88.8062 161.399Z" fill="#A0A0A0"/>
<path d="M101.461 94.4068L101.236 94.7942L99.277 98.1602L97.7058 100.86L84.5962 123.351L84.1109 124.186L83.7287 124.84L83.6923 124.906L83.571 125.112L83.3769 125.445L83.0796 125.954L82.2121 127.449L79.7431 131.687L69.4483 149.359L67.8771 152.046L67.3069 153.033L66.7852 152.724L67.4403 151.604L69.0055 148.91L79.0636 131.639H79.0697L81.8663 126.838L82.928 125.01L82.9401 124.985L82.9704 124.931L83.2434 124.471L83.3526 124.277L83.4315 124.144L84.2747 122.703L97.2508 100.418L98.822 97.7183L100.788 94.3523L100.933 94.098L101.461 94.4068Z" fill="#A0A0A0"/>
<path d="M106.484 147.173L106.059 147.603L104.045 145.635L101.964 143.607L88.7211 130.664L84.6081 126.65L83.6617 125.723L83.3766 125.445L82.9459 125.027L82.9277 125.009L82.867 124.949L82.3089 124.404L81.6719 123.78L64.6192 107.12L62.5444 105.092L59.948 102.561L58.9895 101.623L59.4142 101.193L60.2574 102.016L62.8478 104.547L64.9285 106.575V106.581L81.8903 123.145L82.8063 124.041L83.0793 124.307L83.2431 124.47L83.5161 124.737L83.6314 124.852H83.6374L83.692 124.906L84.7901 125.978L89.3702 130.458L102.28 143.062L104.354 145.09L106.484 147.173Z" fill="#A0A0A0"/>
<path d="M114.237 121.165L112.502 121.376L109.275 121.764L106.696 122.073L101.309 122.72L84.8693 124.706L83.7288 124.839L83.6378 124.851H83.6317L83.5346 124.863L82.9705 124.93L82.934 124.936L82.8673 124.948L81.5266 125.106L64.8561 127.115L60.2638 127.673L57.6795 127.981L55.3196 128.266L55.2468 127.666L57.6431 127.376L60.2274 127.067L63.9461 126.619L81.557 124.494L82.3092 124.403L82.8491 124.337L83.0797 124.306L83.3526 124.276L83.4497 124.264L84.1109 124.185L84.7965 124.101L101.983 122.03L106.648 121.467L109.226 121.152L112.453 120.765L114.164 120.559L114.237 121.165Z" fill="#A0A0A0"/>
<path d="M83.4919 158.893C77.6257 158.893 72.2144 156.344 67.8769 152.045L69.4481 149.358C73.3549 153.22 78.2141 155.508 83.4919 155.508C84.7841 155.508 86.052 155.369 87.2834 155.103L87.7627 158.432C86.3735 158.735 84.9479 158.893 83.4919 158.893ZM88.3572 158.293L87.8779 154.963C93.5865 153.547 98.5549 149.4 101.964 143.606L104.045 145.634C100.247 152.094 94.7148 156.713 88.3572 158.293ZM67.4401 151.603C61.9925 145.973 58.3162 137.546 57.6792 127.981L60.2635 127.672C60.8277 136.269 64.1218 143.842 69.0053 148.909L67.4401 151.603ZM104.354 145.09L102.28 143.062C105.125 138.012 106.805 131.771 106.805 125.021C106.805 124.028 106.769 123.041 106.696 122.073L109.274 121.764C109.353 122.835 109.396 123.919 109.396 125.021C109.396 132.528 107.527 139.471 104.354 145.09ZM57.6428 127.376C57.6004 126.601 57.5822 125.814 57.5822 125.021C57.5822 124.185 57.6064 123.356 57.6489 122.539C58.4679 123.138 59.3111 123.731 60.1786 124.306C60.1725 124.542 60.1725 124.784 60.1725 125.021C60.1725 125.711 60.1907 126.389 60.2271 127.067L57.6428 127.376ZM106.648 121.467C106.52 119.996 106.308 118.555 106.017 117.151C106.702 116.218 107.375 115.231 108.043 114.19C108.619 116.418 109.019 118.743 109.226 121.152L106.648 121.467Z" fill="#C7C7C7"/>
<path d="M83.492 167.355C65.6021 167.355 51.1094 148.4 51.1094 125.02C51.1094 122.483 51.2792 119.995 51.6068 117.586C52.5411 118.433 53.5359 119.293 54.5854 120.159C55.5561 120.952 56.5813 121.751 57.649 122.538C57.6065 123.355 57.5823 124.185 57.5823 125.02C57.5823 125.813 57.6005 126.6 57.6429 127.375L55.2467 127.666L55.3195 128.265L57.6793 127.98C58.3163 137.546 61.9926 145.973 67.4402 151.603L66.785 152.723L67.3068 153.032L67.877 152.045C72.2145 156.343 77.6258 158.892 83.492 158.892C84.948 158.892 86.3736 158.734 87.7628 158.432L88.2056 161.483L88.8062 161.398L88.3573 158.292C94.7149 156.713 100.248 152.093 104.045 145.634L106.059 147.601L106.484 147.171L104.355 145.089C107.527 139.471 109.396 132.527 109.396 125.02C109.396 123.918 109.353 122.835 109.274 121.763L112.502 121.376L114.237 121.164L114.164 120.558L112.453 120.764L109.226 121.152C109.02 118.742 108.619 116.417 108.043 114.19C108.832 112.967 109.608 111.665 110.372 110.291C111.1 109.001 111.81 107.639 112.508 106.21C114.661 111.877 115.875 118.264 115.875 125.02C115.875 129.099 115.434 133.042 114.61 136.773C112.255 147.446 106.776 156.387 99.5499 161.792C99.5123 161.82 99.474 161.848 99.4358 161.877C98.7006 162.422 97.9447 162.931 97.1749 163.401C95.7031 164.3 94.1726 165.057 92.5911 165.662C92.235 165.797 91.8758 165.925 91.5149 166.046C88.9494 166.901 86.2614 167.355 83.492 167.355Z" fill="#101116"/>
<path d="M88.2057 161.484L87.7629 158.433L87.2836 155.103L87.2108 154.6L87.1174 153.949L83.8986 131.62C84.0988 131.602 84.2989 131.578 84.4991 131.548L87.8781 154.964L88.3574 158.294L88.8063 161.399L88.2057 161.484Z" fill="#101116"/>
<path d="M67.3069 153.033L66.7852 152.724L67.4403 151.604L69.0055 148.91L79.0636 131.639H79.0697C79.2942 131.663 79.5186 131.681 79.7431 131.687L71.008 146.681L70.351 147.809L69.4483 149.359L67.8771 152.046L67.3069 153.033Z" fill="#101116"/>
<path d="M106.059 147.603L104.045 145.635L101.964 143.607L88.7211 130.664C88.9395 130.597 89.1518 130.524 89.3702 130.458L102.28 143.062L104.354 145.09L106.484 147.173L106.059 147.603Z" fill="#101116"/>
<path d="M55.3196 128.266L55.2468 127.666L57.6431 127.376L60.2274 127.067L63.9461 126.619C64.2494 126.789 64.5527 126.958 64.8561 127.115L64.1954 127.195L60.2638 127.673L57.6795 127.981L55.3196 128.266ZM101.309 122.72C101.54 122.496 101.764 122.266 101.983 122.03L106.648 121.467L109.226 121.152L112.453 120.765L114.164 120.559L114.237 121.165L112.502 121.376L109.275 121.764L106.696 122.073L105.703 122.192L101.309 122.72Z" fill="#101116"/>
<path d="M169.978 98.4409C156.556 100.938 155.874 104.798 128.575 105.706C118.383 104.253 109.011 95.5653 105.598 91.4032C110.982 89.4357 124.434 84.5929 136.082 84.5928C145.864 84.5927 185.318 95.5866 169.978 98.4409Z" fill="#E9ECEF"/>
<path fill-rule="evenodd" clip-rule="evenodd" d="M105.441 90.974C110.815 89.0102 124.341 84.1359 136.082 84.1357C138.583 84.1357 142.926 84.8335 147.762 85.909C152.61 86.9873 157.996 88.455 162.598 90.0136C164.899 90.7929 167.01 91.5968 168.763 92.3885C170.507 93.1763 171.928 93.9657 172.825 94.7241C173.271 95.1014 173.625 95.5013 173.806 95.9235C173.998 96.372 173.99 96.8437 173.712 97.2738C173.455 97.6721 173 97.9825 172.414 98.2347C171.82 98.4905 171.039 98.7084 170.062 98.8902C165.816 99.6803 162.838 100.617 159.856 101.554C153.522 103.546 147.167 105.544 128.59 106.162L128.55 106.164L128.51 106.158C123.314 105.417 118.354 102.839 114.279 99.9426C110.201 97.0446 106.975 93.8041 105.244 91.6927L104.836 91.195L105.441 90.974ZM106.369 91.6088C108.128 93.6545 111.11 96.5688 114.81 99.198C118.812 102.042 123.619 104.528 128.6 105.248C147.029 104.632 153.211 102.683 159.487 100.705C162.486 99.7601 165.506 98.8081 169.895 97.9916C170.835 97.8165 171.544 97.6141 172.052 97.3953C172.569 97.1728 172.829 96.9544 172.943 96.7789C173.035 96.6352 173.052 96.4883 172.964 96.2824C172.865 96.0504 172.634 95.7606 172.234 95.4218C171.436 94.7481 170.111 94.0006 168.385 93.2213C166.669 92.4459 164.588 91.6526 162.304 90.8792C157.737 89.3326 152.384 87.8734 147.563 86.8012C142.73 85.7262 138.473 85.0497 136.082 85.0498C124.944 85.0499 112.111 89.521 106.369 91.6088Z" fill="#192E35"/>
<path d="M139.629 92.7322C139.538 93.5161 138.649 94.0628 137.642 93.9535C136.636 93.8441 135.893 93.1201 135.984 92.3362C136.074 91.5524 136.964 91.0056 137.971 91.115C138.977 91.2243 139.72 91.9484 139.629 92.7322Z" fill="#192E35"/>
<path fill-rule="evenodd" clip-rule="evenodd" d="M134.661 91.9417C135.232 91.9646 135.849 92.1862 136.241 92.3774L135.984 92.3362C135.619 92.2966 135.14 92.2472 134.66 92.2279C134.424 92.2184 134.219 92.2516 134.061 92.3377C133.906 92.4224 133.946 92.4023 133.549 92.6466L133.352 92.7546C133.428 92.4475 133.599 92.2324 133.842 92.0999C134.083 91.9688 134.373 91.9301 134.661 91.9417Z" fill="#192E35"/>
<path fill-rule="evenodd" clip-rule="evenodd" d="M140.906 92.5896C140.345 92.4896 139.692 92.5732 139.267 92.6756L139.527 92.6907C139.891 92.7303 140.37 92.7848 140.842 92.8689C141.075 92.9104 141.267 92.9868 141.401 93.1046C141.534 93.2206 141.499 93.1924 141.831 93.5158L141.997 93.6633C141.993 93.3475 141.876 93.101 141.669 92.9197C141.465 92.7402 141.19 92.6402 140.906 92.5896Z" fill="#192E35"/>
<path fill-rule="evenodd" clip-rule="evenodd" d="M136.953 94.2015C137.161 93.7941 137.621 93.4331 137.973 93.2249L137.842 93.3961C137.68 93.6463 137.469 93.9761 137.294 94.3189C137.208 94.488 137.183 94.6512 137.235 94.8017C137.287 94.9498 137.276 94.9121 137.441 95.3021L137.508 95.4895C137.166 95.3087 136.964 95.0963 136.883 94.8647C136.803 94.6355 136.848 94.4075 136.953 94.2015Z" fill="#192E35"/>
<path fill-rule="evenodd" clip-rule="evenodd" d="M137.408 90.2698C137.518 90.7117 137.884 91.1623 138.179 91.4409L138.091 91.246C137.99 90.967 137.86 90.6003 137.768 90.2285C137.722 90.045 137.735 89.8805 137.82 89.745C137.905 89.6117 137.885 89.646 138.136 89.3012L138.243 89.1328C137.869 89.2357 137.623 89.3994 137.491 89.6079C137.36 89.8142 137.353 90.0463 137.408 90.2698Z" fill="#192E35"/>
</svg>
