<svg width="276" height="187" viewBox="0 0 276 187" fill="none" xmlns="http://www.w3.org/2000/svg">
<path d="M262.954 187L115.081 186.949L40.7725 186.923L36.6355 186.92L21.7068 186.918C21.7068 186.918 0.381795 169.582 0.0123887 145.075C-0.715534 96.7846 30.893 118.536 26.5988 60.3361C22.6804 7.22903 125.059 -21.4082 180.65 19.165C200.861 33.9162 202.446 44.2623 231.489 40.9913C264.273 37.2992 268.009 77.1426 256.535 99.2292C240.253 130.567 301.681 125.419 262.954 187Z" fill="#DCFBF3"/>
<mask id="mask0_4233_4620" style="mask-type:alpha" maskUnits="userSpaceOnUse" x="0" y="0" width="276" height="187">
<path d="M262.954 187L115.081 186.949L40.7725 186.923L36.6355 186.92L21.7068 186.918C21.7068 186.918 0.381795 169.582 0.0123887 145.075C-0.715534 96.7846 30.893 118.536 26.5988 60.3361C22.6804 7.22903 125.059 -21.4082 180.65 19.165C200.861 33.9162 202.446 44.2623 231.489 40.9913C264.273 37.2992 268.009 77.1426 256.535 99.2292C240.253 130.567 301.681 125.419 262.954 187Z" fill="#CEF7F3"/>
</mask>
<g mask="url(#mask0_4233_4620)">
<path d="M69.0001 104.125C45.3384 99.5664 7.96161 113.156 7.96161 113.156H-5.30762V187H279.185V154.062C279.185 154.062 234.394 131.69 203.285 128.562C172.536 125.472 154.7 145.673 124.731 138.125C100.013 131.9 94.0291 108.947 69.0001 104.125Z" fill="#ABFEE6"/>
</g>
<circle cx="1.5" cy="1.5" r="1.5" transform="matrix(1 0 0 -1 112 156)" fill="#AC5AFE"/>
<circle cx="1.5" cy="1.5" r="1.5" transform="matrix(1 0 0 -1 112 68)" fill="#AC5AFE"/>
<circle cx="1.5" cy="1.5" r="1.5" transform="matrix(1 0 0 -1 188 106)" fill="#AC5AFE"/>
<circle cx="1.5" cy="1.5" r="1.5" transform="matrix(1 0 0 -1 147 175)" fill="#AC5AFE"/>
<circle cx="1.5" cy="1.5" r="1.5" transform="matrix(1 0 0 -1 120 27)" fill="#AC5AFE"/>
<circle cx="1.5" cy="1.5" r="1.5" transform="matrix(1 0 0 -1 87 25)" fill="#AC5AFE"/>
<circle cx="4" cy="4" r="4" transform="matrix(1 0 0 -1 38 126)" fill="#DCC1F8"/>
<circle cx="4" cy="4" r="4" transform="matrix(1 0 0 -1 87 90)" fill="#DCC1F8"/>
<circle cx="4" cy="4" r="4" transform="matrix(1 0 0 -1 77 155)" fill="#DCC1F8"/>
<circle cx="4" cy="4" r="4" transform="matrix(1 0 0 -1 205 121)" fill="#DCC1F8"/>
<circle cx="4" cy="4" r="4" transform="matrix(1 0 0 -1 30 169)" fill="#DCC1F8"/>
<circle cx="4" cy="4" r="4" transform="matrix(1 0 0 -1 67 47)" fill="#DCC1F8"/>
<circle cx="4" cy="4" r="4" transform="matrix(1 0 0 -1 229 73)" fill="#DCC1F8"/>
<circle cx="4" cy="4" r="4" transform="matrix(1 0 0 -1 177 170)" fill="#DCC1F8"/>
<circle cx="4" cy="4" r="4" transform="matrix(1 0 0 -1 250 135)" fill="#DCC1F8"/>
<path d="M163.691 34.3401C163.529 34.4057 163.367 34.4698 163.207 34.5417C163.367 34.4683 163.53 34.4013 163.691 34.3401ZM183.077 48.6941C183.288 46.9153 183.149 45.0812 182.622 43.2913C183.528 42.0617 187.404 40.0353 187.404 40.0353L186.679 38.578C184.962 39.3948 181.089 39.8459 181.089 39.8459C181.179 39.9814 181.277 40.1664 181.38 40.3757C179.483 37.0362 176.348 34.7398 172.811 33.7836C172.157 32.4516 172.325 28.0428 172.325 28.0428L170.676 27.9253C170.535 29.7487 169.057 33.1305 168.988 33.2859C167.621 33.2932 166.24 33.5005 164.888 33.9147C163.658 33.097 162.557 30.8477 162.557 30.8477L161.074 31.5649C161.859 33.1397 162.143 34.8471 162.176 35.0574C161.083 35.6576 160.1 36.3826 159.237 37.2066C157.656 37.0221 153.936 34.767 153.936 34.767L153.006 36.132C154.423 37.0658 156.439 39.5842 156.89 40.1596C156.1 41.4931 155.542 42.9475 155.239 44.4596C153.862 44.9875 151.679 44.8204 151.679 44.8204L151.582 46.4593C153.024 46.5458 154.382 46.9508 154.976 47.1494C154.978 48.3741 155.148 49.6099 155.495 50.8264C154.251 52.0744 150.926 53.8143 150.926 53.8143L151.661 55.2891C153.048 54.6291 155.823 54.2038 156.887 54.0595C157.693 55.4226 158.708 56.6055 159.874 57.5889C159.636 59.018 158.405 60.7657 158.405 60.7657L159.8 61.6723C160.605 60.4884 161.65 59.5381 162.121 59.138C163.869 60.1082 165.815 60.7065 167.822 60.8837C168.739 62.2861 169.582 66.1812 169.582 66.1812L171.23 65.8971C170.976 64.4563 171.298 61.854 171.459 60.74C172.674 60.5346 173.882 60.1718 175.054 59.6338C175.645 59.3618 176.205 59.052 176.739 58.7136C177.975 59.4886 179.123 61.2086 179.123 61.2086L180.505 60.284C179.566 58.9248 179.042 57.3927 178.919 57.0081C180.357 55.6314 181.46 53.9828 182.182 52.188C183.944 52.0331 187.658 52.8635 187.658 52.8635L188.088 51.2765C186.432 50.8405 183.679 49.0855 183.077 48.6941Z" fill="#8F53BF"/>
<path d="M179.778 33.1465L178.4 32.2501C177.341 33.8079 175.716 35.0476 175.716 35.0476C176.641 35.507 178.287 36.6166 178.287 36.6166C178.356 35.1608 179.778 33.1465 179.778 33.1465Z" fill="#8F53BF"/>
<path d="M179.667 47.9365C178.938 47.8972 178.463 46.573 177.475 44.9394C177.365 44.7311 177.212 44.5271 177.083 44.31C176.946 44.0954 176.787 43.8817 176.638 43.6593C176.309 43.2276 175.967 42.7755 175.559 42.3482C174.762 41.4819 173.779 40.6792 172.659 40.06C171.526 39.4608 170.31 39.0738 169.137 38.8747C168.55 38.7649 167.978 38.7232 167.43 38.6804C167.159 38.6756 166.89 38.6571 166.632 38.6581C166.376 38.6668 166.118 38.6494 165.879 38.6688C163.944 38.7222 162.549 39.0344 162.126 38.4508C162.026 38.3094 162.002 38.1254 162.058 37.8986C162.117 37.6777 162.242 37.3902 162.471 37.1061C162.914 36.5127 163.735 35.8358 164.923 35.2739C165.217 35.1229 165.54 35.0141 165.879 34.8864C166.218 34.7665 166.582 34.6728 166.961 34.5761C167.722 34.4149 168.559 34.292 169.45 34.2954C170.339 34.3013 171.285 34.3751 172.243 34.614C173.201 34.8442 174.174 35.1987 175.111 35.6979C176.04 36.2077 176.865 36.8264 177.575 37.4975C178.292 38.1638 178.86 38.9092 179.34 39.6434C179.819 40.3805 180.159 41.14 180.427 41.8577C180.546 42.2244 180.659 42.575 180.737 42.9207C180.807 43.2699 180.886 43.5962 180.913 43.9206C181.062 45.205 180.917 46.2476 180.642 46.9323C180.52 47.2742 180.339 47.5315 180.179 47.6981C180.013 47.8651 179.842 47.9433 179.667 47.9365Z" fill="#BE99E3"/>
<path d="M153.983 33.8526C154.238 34.0143 154.032 34.7685 153.524 35.5362C153.352 35.796 153.167 36.0238 152.989 36.2059C152.639 36.5618 152.311 36.741 152.143 36.6342C151.889 36.472 152.095 35.7183 152.603 34.9506C153.111 34.1823 153.729 33.6904 153.983 33.8526Z" fill="#8F53BF"/>
<path d="M153.04 36.1544C153.04 36.1544 153.687 35.44 153.936 34.767C154.201 34.9243 154.504 35.103 154.814 35.2769C154.814 35.2769 153.884 36.2058 153.335 36.368L153.04 36.1544Z" fill="#624D9E"/>
<path d="M151.248 44.008C151.551 44.0216 151.763 44.7739 151.721 45.6882C151.707 45.9981 151.666 46.286 151.606 46.5317C151.488 47.0125 151.297 47.3296 151.097 47.3208C150.795 47.3072 150.583 46.555 150.624 45.6407C150.666 44.7258 150.946 43.9949 151.248 44.008Z" fill="#8F53BF"/>
<path d="M151.623 46.4618C151.623 46.4618 151.882 45.5494 151.679 44.8205C151.991 44.8423 152.331 44.8486 152.687 44.8443C152.687 44.8443 152.376 46.0792 151.985 46.4914L151.623 46.4618Z" fill="#624D9E"/>
<path d="M150.144 53.3142C150.414 53.1801 150.975 53.7337 151.396 54.551C151.539 54.8273 151.647 55.0983 151.717 55.3411C151.855 55.817 151.848 56.1846 151.669 56.2734C151.399 56.4074 150.838 55.8539 150.416 55.0366C149.996 54.2193 149.873 53.4482 150.144 53.3142Z" fill="#8F53BF"/>
<path d="M151.697 55.2721C151.697 55.2721 151.394 54.364 150.926 53.8143C151.198 53.6691 151.508 53.5021 151.817 53.3268C151.817 53.3268 152.167 54.5821 152.034 55.1293L151.697 55.2721Z" fill="#624D9E"/>
<path d="M157.472 60.7225C157.636 60.4729 158.406 60.6716 159.191 61.1674C159.456 61.3349 159.689 61.515 159.875 61.6894C160.24 62.0312 160.424 62.3517 160.315 62.5173C160.151 62.7674 159.382 62.5683 158.597 62.0725C157.811 61.5772 157.308 60.9726 157.472 60.7225Z" fill="#8F53BF"/>
<path d="M159.822 61.6398C159.822 61.6398 159.149 60.9609 158.405 60.7657C158.581 60.5127 158.757 60.2282 158.933 59.9232C158.933 59.9232 159.864 60.8085 160.031 61.347L159.822 61.6398Z" fill="#624D9E"/>
<path d="M168.875 66.7794C168.819 66.4871 169.516 66.1122 170.434 65.9418C170.744 65.8844 171.039 65.8577 171.297 65.8582C171.801 65.8602 172.159 65.9689 172.196 66.1622C172.253 66.4545 171.555 66.8294 170.638 66.9999C169.72 67.1703 168.932 67.0713 168.875 66.7794Z" fill="#8F53BF"/>
<path d="M171.223 65.8582C171.223 65.8582 170.25 65.8927 169.582 66.1812C169.514 65.8845 169.437 65.546 169.351 65.2061C169.351 65.2061 170.678 65.2236 171.177 65.5018L171.223 65.8582Z" fill="#624D9E"/>
<path d="M178.73 62.0394C178.556 61.7962 179.035 61.1726 179.799 60.6467C180.057 60.469 180.315 60.3253 180.55 60.2223C181.01 60.0203 181.382 59.9742 181.497 60.1354C181.671 60.3787 181.193 61.0022 180.429 61.5281C179.664 62.054 178.904 62.2827 178.73 62.0394Z" fill="#8F53BF"/>
<path d="M180.483 60.2515C180.483 60.2515 179.588 60.6069 179.123 61.2086C178.951 60.9532 178.749 60.6861 178.527 60.4108C178.527 60.4108 179.715 59.8994 180.286 59.9514L180.483 60.2515Z" fill="#624D9E"/>
<path d="M187.915 53.7439C187.621 53.6711 187.567 52.8926 187.794 52.0045C187.871 51.7044 187.971 51.43 188.08 51.2013C188.293 50.7536 188.544 50.4802 188.739 50.5278C189.032 50.6001 189.087 51.379 188.859 52.2667C188.632 53.1549 188.209 53.8163 187.915 53.7439Z" fill="#8F53BF"/>
<path d="M188.049 51.2664C188.049 51.2664 187.672 52.1477 187.658 52.8635C187.355 52.7985 187.01 52.7256 186.659 52.6591C186.659 52.6591 187.232 51.4854 187.699 51.1581L188.049 51.2664Z" fill="#624D9E"/>
<path d="M164.461 51.4237C164.925 52.3929 164.761 53.4268 164.096 53.7322C163.431 54.0382 162.517 53.4996 162.053 52.5304C161.59 51.5611 161.754 50.5272 162.419 50.2218C163.084 49.9159 163.998 50.4544 164.461 51.4237Z" fill="#624D9E"/>
<path d="M163.535 50.638C163.998 51.6072 163.834 52.6411 163.17 52.9465C162.504 53.252 161.59 52.7139 161.127 51.7447C160.663 50.7749 160.827 49.7416 161.492 49.4356C162.158 49.1302 163.072 49.6687 163.535 50.638Z" fill="#DFB4EA"/>
<path d="M159.158 41.5606C159.814 40.7054 160.822 40.3631 161.408 40.7962C161.995 41.2294 161.938 42.2739 161.282 43.1291C160.625 43.9847 159.617 44.3266 159.031 43.8939C158.444 43.4603 158.501 42.4157 159.158 41.5606Z" fill="#624D9E"/>
<path d="M158.188 40.8822C158.845 40.027 159.852 39.6847 160.439 40.1178C161.025 40.551 160.969 41.5955 160.312 42.4511C159.656 43.3063 158.648 43.6486 158.061 43.2155C157.475 42.7818 157.531 41.7373 158.188 40.8822Z" fill="#DFB4EA"/>
<path d="M170.523 55.0715C170.827 55.7096 170.546 56.4696 169.896 56.7682C169.245 57.0669 168.471 56.7925 168.166 56.1539C167.862 55.5159 168.142 54.7559 168.792 54.4572C169.443 54.1581 170.217 54.433 170.523 55.0715Z" fill="#624D9E"/>
<path d="M170.227 54.4524C170.532 55.091 170.252 55.8505 169.6 56.1496C168.95 56.4482 168.175 56.1734 167.871 55.5353C167.566 54.8972 167.846 54.1373 168.497 53.8386C169.147 53.5395 169.922 53.8143 170.227 54.4524Z" fill="#DFB4EA"/>
<path d="M173.438 41.2061C173.172 42.0326 172.273 42.4905 171.431 42.2292C170.588 41.968 170.121 41.0866 170.387 40.2601C170.654 39.4336 171.553 38.9757 172.395 39.237C173.238 39.4982 173.704 40.3801 173.438 41.2061Z" fill="#624D9E"/>
<path d="M173.697 40.4049C173.431 41.2314 172.531 41.6893 171.689 41.428C170.846 41.1668 170.379 40.2854 170.646 39.4589C170.912 38.6329 171.811 38.1745 172.653 38.4357C173.496 38.697 173.963 39.5789 173.697 40.4049Z" fill="#DFB4EA"/>
<path d="M177.066 53.4545C177.289 53.9226 177.083 54.4796 176.607 54.6991C176.129 54.9181 175.561 54.7166 175.338 54.2485C175.114 53.7803 175.32 53.2233 175.797 53.0043C176.274 52.7848 176.842 52.9868 177.066 53.4545Z" fill="#624D9E"/>
<path d="M176.849 53.0009C177.072 53.4686 176.867 54.0261 176.39 54.2451C175.913 54.4646 175.345 54.263 175.122 53.7949C174.897 53.3268 175.103 52.7698 175.58 52.5503C176.057 52.3313 176.626 52.5328 176.849 53.0009Z" fill="#DFB4EA"/>
<path d="M188.177 40.5297C187.909 40.6622 187.355 40.115 186.94 39.3074C186.799 39.0345 186.693 38.7664 186.623 38.5266C186.487 38.057 186.494 37.6933 186.671 37.6058C186.939 37.4733 187.492 38.0206 187.908 38.8281C188.323 39.6357 188.444 40.3971 188.177 40.5297Z" fill="#8F53BF"/>
<path d="M186.643 38.595C186.643 38.595 186.943 39.4924 187.404 40.0353C187.136 40.1786 186.829 40.3437 186.524 40.5166C186.524 40.5166 186.178 39.2763 186.311 38.7358L186.643 38.595Z" fill="#624D9E"/>
<path d="M180.699 33.1898C180.537 33.4364 179.777 33.2398 179.001 32.7498C178.739 32.5842 178.509 32.406 178.325 32.2336C177.966 31.8961 177.784 31.5795 177.891 31.4158C178.053 31.1692 178.813 31.3658 179.589 31.8558C180.364 32.3453 180.861 32.9426 180.699 33.1898Z" fill="#8F53BF"/>
<path d="M178.378 32.2827C178.378 32.2827 179.043 32.9538 179.778 33.1466C179.604 33.3966 179.43 33.6778 179.256 33.9789C179.256 33.9789 178.336 33.1038 178.171 32.5721L178.378 32.2827Z" fill="#624D9E"/>
<path d="M173.15 27.6374C173.132 27.9302 172.371 28.1244 171.451 28.0705C171.14 28.0526 170.85 28.0084 170.603 27.9462C170.121 27.8253 169.804 27.6364 169.816 27.4426C169.834 27.1493 170.595 26.9551 171.515 27.009C172.436 27.0629 173.167 27.3441 173.15 27.6374Z" fill="#8F53BF"/>
<path d="M170.673 27.9637C170.673 27.9637 171.615 28.1613 172.326 28.0428C172.317 28.3429 172.308 28.6858 172.307 29.0315C172.307 29.0315 171.039 28.7013 170.63 28.3167L170.673 27.9637Z" fill="#624D9E"/>
<path d="M163.058 30.0882C163.194 30.3499 162.638 30.8948 161.817 31.3061C161.539 31.445 161.266 31.5508 161.022 31.6198C160.543 31.7548 160.173 31.749 160.083 31.5761C159.947 31.3143 160.502 30.769 161.324 30.3587C162.146 29.9474 162.922 29.8269 163.058 30.0882Z" fill="#8F53BF"/>
<path d="M161.092 31.5999C161.092 31.5999 162.018 31.3736 162.557 30.8477C162.689 31.1211 162.85 31.41 163.028 31.7092C163.028 31.7092 161.794 32.0481 161.242 31.9204L161.092 31.5999Z" fill="#624D9E"/>
<path d="M178.791 49.0132C178.738 50.0825 178.1 50.9206 177.367 50.8852C176.633 50.8502 176.081 49.9547 176.135 48.8854C176.188 47.8161 176.826 46.978 177.559 47.013C178.293 47.0484 178.844 47.9434 178.791 49.0132Z" fill="#624D9E"/>
<path d="M179.08 48.3013C179.026 49.3706 178.388 50.2087 177.655 50.1738C176.921 50.1383 176.37 49.2434 176.423 48.1741C176.476 47.1048 177.114 46.2661 177.847 46.3016C178.581 46.3365 179.133 47.232 179.08 48.3013Z" fill="#DFB4EA"/>
<path d="M170.685 45.916C171.147 46.8853 170.722 48.0395 169.733 48.4936C168.745 48.9481 167.568 48.5305 167.105 47.5607C166.642 46.5915 167.068 45.4372 168.056 44.9831C169.045 44.5286 170.221 44.9467 170.685 45.916Z" fill="#624D9E"/>
<path d="M170.67 45.1166C171.133 46.0859 170.707 47.2401 169.719 47.6947C168.73 48.1487 167.553 47.7306 167.091 46.7613C166.628 45.7921 167.054 44.6378 168.042 44.1837C169.031 43.7292 170.207 44.1468 170.67 45.1166Z" fill="#DFB4EA"/>
<path d="M179.909 53.3904C180.05 53.4856 180.011 53.8391 179.763 54.3898C179.517 54.9404 179.039 55.6727 178.299 56.4657C177.93 56.8634 177.488 57.2636 176.985 57.6647C176.473 58.0532 175.905 58.4489 175.262 58.7956C173.986 59.5003 172.44 60.0572 170.745 60.3073C169.048 60.5428 167.403 60.4423 165.975 60.1238C165.258 59.9718 164.598 59.7523 163.994 59.5231C163.396 59.2793 162.855 59.02 162.386 58.7422C161.446 58.1891 160.774 57.6215 160.378 57.163C159.981 56.7046 159.839 56.3769 159.947 56.2462C160.183 55.9602 161.303 56.558 163.137 57.1422C163.593 57.2908 164.1 57.4262 164.642 57.5578C165.188 57.6744 165.769 57.7943 166.386 57.8652C167.618 58.0201 168.981 58.0347 170.378 57.8429C171.773 57.635 173.075 57.2393 174.21 56.7459C174.781 56.5051 175.303 56.2278 175.792 55.9631C176.273 55.6854 176.719 55.4134 177.114 55.1429C178.7 54.0693 179.6 53.1821 179.909 53.3904Z" fill="#624D9E"/>
<path d="M43.7231 79.132C43.6318 79.1689 43.5408 79.2049 43.4506 79.2454C43.5408 79.2041 43.6327 79.1664 43.7231 79.132ZM54.6592 87.2122C54.7782 86.2109 54.6994 85.1784 54.4022 84.1708C54.9133 83.4787 57.0998 82.3379 57.0998 82.3379L56.6907 81.5176C55.7221 81.9774 53.5379 82.2313 53.5379 82.2313C53.5882 82.3076 53.6437 82.4117 53.7015 82.5296C52.6319 80.6497 50.8629 79.3569 48.868 78.8187C48.4988 78.0688 48.5941 75.587 48.5941 75.587L47.6638 75.5209C47.5842 76.5473 46.7503 78.451 46.7114 78.5385C45.9401 78.5426 45.1614 78.6593 44.3984 78.8925C43.7047 78.4321 43.0836 77.1659 43.0836 77.1659L42.2469 77.5697C42.6901 78.4562 42.8504 79.4173 42.8688 79.5357C42.2522 79.8736 41.6978 80.2817 41.211 80.7456C40.3187 80.6417 38.2205 79.3722 38.2205 79.3722L37.696 80.1407C38.495 80.6663 39.6322 82.084 39.8867 82.4079C39.4412 83.1586 39.1268 83.9773 38.9558 84.8285C38.1786 85.1257 36.9475 85.0316 36.9475 85.0316L36.8928 85.9542C37.7063 86.0029 38.4724 86.2309 38.807 86.3427C38.8084 87.0321 38.9042 87.7278 39.1002 88.4126C38.3984 89.1151 36.5225 90.0945 36.5225 90.0945L36.9372 90.9247C37.7197 90.5532 39.2848 90.3138 39.8853 90.2326C40.3399 90.9999 40.9125 91.6658 41.5702 92.2194C41.4358 93.0239 40.7413 94.0077 40.7413 94.0077L41.5283 94.5181C41.9824 93.8516 42.5722 93.3167 42.8378 93.0914C43.8237 93.6376 44.9213 93.9744 46.0537 94.0741C46.571 94.8636 47.0463 97.0562 47.0463 97.0562L47.9763 96.8963C47.833 96.0852 48.0146 94.6203 48.105 93.9932C48.7907 93.8776 49.4724 93.6734 50.1332 93.3705C50.4666 93.2174 50.7828 93.043 51.0838 92.8525C51.7812 93.2888 52.4286 94.257 52.4286 94.257L53.2083 93.7365C52.6785 92.9714 52.3831 92.1089 52.3135 91.8924C53.1248 91.1175 53.7468 90.1894 54.1542 89.1791C55.1482 89.0919 57.2434 89.5593 57.2434 89.5593L57.4855 88.666C56.5516 88.4205 54.9985 87.4326 54.6592 87.2122Z" fill="#8F53BF"/>
<path d="M52.7981 78.46L52.0208 77.9554C51.4232 78.8324 50.5068 79.5302 50.5068 79.5302C51.0283 79.7888 51.9571 80.4135 51.9571 80.4135C51.996 79.5939 52.7981 78.46 52.7981 78.46Z" fill="#8F53BF"/>
<path d="M52.7355 86.7858C52.3244 86.7637 52.056 86.0182 51.4991 85.0986C51.4368 84.9814 51.3505 84.8665 51.2776 84.7444C51.2006 84.6235 51.1106 84.5033 51.0266 84.3781C50.8409 84.135 50.6484 83.8805 50.4183 83.64C49.9684 83.1523 49.414 82.7004 48.782 82.3519C48.1433 82.0146 47.4568 81.7967 46.7952 81.6846C46.4643 81.6228 46.1417 81.5993 45.8325 81.5753C45.6795 81.5725 45.5278 81.5622 45.382 81.5627C45.2377 81.5676 45.0924 81.5578 44.9575 81.5687C43.8658 81.5988 43.0791 81.7746 42.8406 81.446C42.7842 81.3664 42.7708 81.2628 42.8023 81.1352C42.8353 81.0108 42.9057 80.849 43.0353 80.689C43.2852 80.355 43.7483 79.9739 44.4183 79.6577C44.5841 79.5726 44.7665 79.5114 44.9575 79.4395C45.1489 79.372 45.3538 79.3192 45.5678 79.2648C45.9973 79.1741 46.4696 79.1049 46.972 79.1068C47.4733 79.1101 48.0073 79.1517 48.5477 79.2862C49.0878 79.4157 49.6369 79.6153 50.1653 79.8963C50.6895 80.1833 51.155 80.5316 51.5553 80.9094C51.9596 81.2844 52.2803 81.704 52.5509 82.1174C52.8209 82.5323 53.0128 82.9599 53.1639 83.3639C53.2312 83.5703 53.2949 83.7676 53.3387 83.9623C53.3787 84.1588 53.4231 84.3425 53.4382 84.5251C53.5225 85.2482 53.4407 85.8351 53.2854 86.2205C53.2167 86.4129 53.1142 86.5578 53.0243 86.6516C52.9307 86.7456 52.8344 86.7896 52.7355 86.7858Z" fill="#BE99E3"/>
<path d="M38.2469 78.8576C38.3905 78.9486 38.2743 79.3731 37.9877 79.8053C37.8908 79.9516 37.7867 80.0798 37.6858 80.1823C37.4884 80.3826 37.3038 80.4835 37.2088 80.4234C37.0655 80.3321 37.1817 79.9078 37.4683 79.4756C37.7551 79.0432 38.1036 78.7663 38.2469 78.8576Z" fill="#8F53BF"/>
<path d="M37.7148 80.1533C37.7148 80.1533 38.0802 79.7512 38.2206 79.3723C38.37 79.4609 38.5407 79.5614 38.7158 79.6593C38.7158 79.6593 38.1913 80.1822 37.8813 80.2736L37.7148 80.1533Z" fill="#624D9E"/>
<path d="M36.704 84.5744C36.8746 84.582 36.9941 85.0055 36.9707 85.5202C36.9628 85.6946 36.9394 85.8567 36.9056 85.995C36.8391 86.2656 36.7316 86.4442 36.6188 86.4392C36.4481 86.4316 36.3286 86.0081 36.3521 85.4934C36.3755 84.9784 36.5333 84.567 36.704 84.5744Z" fill="#8F53BF"/>
<path d="M36.9155 85.9556C36.9155 85.9556 37.0619 85.442 36.9476 85.0317C37.1236 85.044 37.3149 85.0475 37.5163 85.0451C37.5163 85.0451 37.3406 85.7402 37.1202 85.9723L36.9155 85.9556Z" fill="#624D9E"/>
<path d="M36.0811 89.813C36.2335 89.7376 36.55 90.0492 36.7876 90.5093C36.8681 90.6648 36.9292 90.8174 36.9686 90.954C37.0462 91.2219 37.0426 91.4289 36.9415 91.4789C36.789 91.5543 36.4726 91.2427 36.2349 90.7826C35.9975 90.3226 35.9286 89.8885 36.0811 89.813Z" fill="#8F53BF"/>
<path d="M36.9573 90.9152C36.9573 90.9152 36.7864 90.404 36.5225 90.0946C36.6758 90.0128 36.8506 89.9188 37.0252 89.8201C37.0252 89.8201 37.2229 90.5268 37.1475 90.8348L36.9573 90.9152Z" fill="#624D9E"/>
<path d="M40.2147 93.9834C40.3074 93.8429 40.7414 93.9547 41.1844 94.2338C41.3341 94.3282 41.4656 94.4296 41.5706 94.5277C41.7762 94.7202 41.8798 94.9006 41.8183 94.9938C41.7259 95.1346 41.2922 95.0225 40.8492 94.7434C40.4063 94.4646 40.1223 94.1242 40.2147 93.9834Z" fill="#8F53BF"/>
<path d="M41.5408 94.4998C41.5408 94.4998 41.161 94.1176 40.7412 94.0077C40.8406 93.8653 40.9401 93.7051 41.0392 93.5335C41.0392 93.5335 41.5645 94.0318 41.6586 94.335L41.5408 94.4998Z" fill="#624D9E"/>
<path d="M46.6473 97.393C46.6157 97.2285 47.0092 97.0174 47.5267 96.9215C47.7018 96.8892 47.8683 96.8742 48.0135 96.8745C48.2981 96.8756 48.5 96.9368 48.521 97.0456C48.5531 97.2101 48.1593 97.4212 47.6418 97.5171C47.1243 97.6131 46.6794 97.5573 46.6473 97.393Z" fill="#8F53BF"/>
<path d="M47.9722 96.8744C47.9722 96.8744 47.4232 96.8939 47.0462 97.0562C47.0082 96.8892 46.9646 96.6987 46.916 96.5073C46.916 96.5073 47.6648 96.5172 47.9463 96.6738L47.9722 96.8744Z" fill="#624D9E"/>
<path d="M52.2067 94.7247C52.1084 94.5878 52.3785 94.2368 52.8097 93.9407C52.9552 93.8407 53.101 93.7598 53.2334 93.7018C53.4928 93.5881 53.7028 93.5621 53.7676 93.6529C53.8659 93.7898 53.5961 94.1408 53.1649 94.4369C52.7337 94.7329 52.3047 94.8617 52.2067 94.7247Z" fill="#8F53BF"/>
<path d="M53.196 93.7183C53.196 93.7183 52.6911 93.9184 52.4288 94.2571C52.3313 94.1133 52.2174 93.9629 52.0923 93.8079C52.0923 93.8079 52.7623 93.5201 53.0846 93.5493L53.196 93.7183Z" fill="#624D9E"/>
<path d="M57.3879 90.055C57.2223 90.0139 57.1918 89.5757 57.32 89.0758C57.3633 88.9068 57.4195 88.7524 57.4809 88.6236C57.6013 88.3716 57.7429 88.2177 57.8526 88.2445C58.0182 88.2852 58.049 88.7237 57.9208 89.2234C57.7923 89.7234 57.5538 90.0957 57.3879 90.055Z" fill="#8F53BF"/>
<path d="M57.4634 88.6603C57.4634 88.6603 57.2506 89.1564 57.2431 89.5593C57.0721 89.5227 56.8772 89.4817 56.6792 89.4443C56.6792 89.4443 57.0026 88.7835 57.2662 88.5993L57.4634 88.6603Z" fill="#624D9E"/>
<path d="M44.1577 88.7488C44.4191 89.2944 44.3267 89.8764 43.9516 90.0484C43.5763 90.2206 43.0607 89.9174 42.7993 89.3718C42.5382 88.8262 42.6306 88.2442 43.0054 88.0722C43.3808 87.9 43.8966 88.2032 44.1577 88.7488Z" fill="#624D9E"/>
<path d="M43.635 88.3065C43.8961 88.8521 43.804 89.4341 43.4289 89.6061C43.0535 89.778 42.538 89.4751 42.2766 88.9295C42.0152 88.3836 42.1076 87.8019 42.4827 87.6297C42.858 87.4577 43.3739 87.7609 43.635 88.3065Z" fill="#DFB4EA"/>
<path d="M41.1658 83.1966C41.5362 82.7152 42.1048 82.5225 42.4354 82.7663C42.7667 83.0102 42.7345 83.5981 42.3642 84.0795C41.9936 84.5612 41.4253 84.7536 41.0946 84.5101C40.7634 84.266 40.7955 83.678 41.1658 83.1966Z" fill="#624D9E"/>
<path d="M40.6188 82.8147C40.9895 82.3333 41.5578 82.1406 41.8887 82.3844C42.2197 82.6282 42.1878 83.2162 41.8172 83.6979C41.4469 84.1793 40.8786 84.372 40.5476 84.1282C40.2167 83.884 40.2485 83.296 40.6188 82.8147Z" fill="#DFB4EA"/>
<path d="M47.577 90.8023C47.7487 91.1615 47.5904 91.5893 47.2237 91.7574C46.8564 91.9256 46.4196 91.7711 46.2476 91.4116C46.0759 91.0524 46.2339 90.6246 46.6006 90.4565C46.9679 90.2881 47.4047 90.4429 47.577 90.8023Z" fill="#624D9E"/>
<path d="M47.4098 90.4538C47.5818 90.8133 47.4237 91.2408 47.0565 91.4092C46.6898 91.5773 46.2524 91.4226 46.0807 91.0634C45.9089 90.7042 46.0667 90.2764 46.434 90.1083C46.8009 89.9399 47.238 90.0946 47.4098 90.4538Z" fill="#DFB4EA"/>
<path d="M49.2216 82.997C49.0714 83.4623 48.5645 83.7201 48.0892 83.573C47.6138 83.4259 47.3505 82.9298 47.5007 82.4645C47.651 81.9993 48.1582 81.7415 48.6335 81.8886C49.1085 82.0356 49.3719 82.532 49.2216 82.997Z" fill="#624D9E"/>
<path d="M49.3674 82.546C49.2172 83.0113 48.7097 83.269 48.2347 83.122C47.7594 82.9749 47.496 82.4787 47.6462 82.0135C47.7965 81.5485 48.3037 81.2904 48.7787 81.4375C49.2541 81.5846 49.5174 82.081 49.3674 82.546Z" fill="#DFB4EA"/>
<path d="M51.2678 89.892C51.3937 90.1555 51.2778 90.4691 51.0089 90.5926C50.7396 90.7159 50.419 90.6025 50.2931 90.3389C50.1671 90.0754 50.283 89.7619 50.5522 89.6386C50.8212 89.515 51.1415 89.6287 51.2678 89.892Z" fill="#624D9E"/>
<path d="M51.1458 89.6367C51.2717 89.9 51.1558 90.2138 50.8866 90.3371C50.6176 90.4606 50.2973 90.3472 50.1713 90.0837C50.0448 89.8202 50.1607 89.5066 50.43 89.383C50.6992 89.2598 51.0198 89.3732 51.1458 89.6367Z" fill="#DFB4EA"/>
<path d="M57.5356 82.6163C57.3848 82.6909 57.0723 82.3828 56.838 81.9282C56.7584 81.7746 56.6983 81.6237 56.6592 81.4886C56.5824 81.2243 56.5863 81.0196 56.6863 80.9703C56.8371 80.8957 57.1493 81.2038 57.3839 81.6584C57.6183 82.113 57.6864 82.5416 57.5356 82.6163Z" fill="#8F53BF"/>
<path d="M56.6706 81.5272C56.6706 81.5272 56.8396 82.0324 57.0999 82.338C56.9485 82.4186 56.7756 82.5116 56.6033 82.6089C56.6033 82.6089 56.4081 81.9107 56.4829 81.6065L56.6706 81.5272Z" fill="#624D9E"/>
<path d="M53.3174 78.4844C53.2261 78.6233 52.7974 78.5126 52.36 78.2368C52.212 78.1435 52.0821 78.0432 51.9785 77.9462C51.7758 77.7562 51.673 77.578 51.7336 77.4858C51.8252 77.347 52.2539 77.4577 52.6912 77.7335C53.1286 78.0091 53.409 78.3453 53.3174 78.4844Z" fill="#8F53BF"/>
<path d="M52.0081 77.9738C52.0081 77.9738 52.3831 78.3515 52.7979 78.4601C52.6996 78.6009 52.6015 78.7591 52.5032 78.9286C52.5032 78.9286 51.9846 78.436 51.8916 78.1367L52.0081 77.9738Z" fill="#624D9E"/>
<path d="M49.0588 75.3588C49.0487 75.5236 48.6198 75.633 48.1006 75.6026C47.9249 75.5925 47.7615 75.5676 47.6225 75.5326C47.3504 75.4646 47.1717 75.3582 47.1784 75.2492C47.1885 75.0841 47.6174 74.9747 48.1366 75.0051C48.6561 75.0354 49.0689 75.1937 49.0588 75.3588Z" fill="#8F53BF"/>
<path d="M47.6618 75.5425C47.6618 75.5425 48.1927 75.6537 48.5937 75.587C48.589 75.756 48.5837 75.949 48.5831 76.1436C48.5831 76.1436 47.8682 75.9577 47.6372 75.7412L47.6618 75.5425Z" fill="#624D9E"/>
<path d="M43.3661 76.7384C43.4429 76.8858 43.1292 77.1925 42.6659 77.424C42.5089 77.5022 42.3553 77.5618 42.2174 77.6006C41.9473 77.6766 41.7384 77.6733 41.6878 77.576C41.611 77.4287 41.9244 77.1217 42.388 76.8907C42.8516 76.6592 43.2892 76.5914 43.3661 76.7384Z" fill="#8F53BF"/>
<path d="M42.2568 77.5894C42.2568 77.5894 42.7791 77.462 43.0835 77.166C43.1581 77.3199 43.2486 77.4825 43.3488 77.6509C43.3488 77.6509 42.6531 77.8417 42.3417 77.7698L42.2568 77.5894Z" fill="#624D9E"/>
<path d="M52.2411 87.3918C52.2109 87.9938 51.8512 88.4656 51.4376 88.4456C51.0237 88.426 50.7126 87.9219 50.7427 87.3199C50.7729 86.718 51.1326 86.2462 51.5462 86.2659C51.9601 86.2858 52.271 86.7896 52.2411 87.3918Z" fill="#624D9E"/>
<path d="M52.4039 86.9911C52.3735 87.5931 52.0138 88.0649 51.6002 88.0452C51.1863 88.0253 50.8754 87.5215 50.9053 86.9195C50.9355 86.3176 51.2952 85.8455 51.7088 85.8654C52.1227 85.8851 52.4338 86.3892 52.4039 86.9911Z" fill="#DFB4EA"/>
<path d="M47.6682 85.6484C47.9293 86.194 47.6891 86.8438 47.1314 87.0994C46.574 87.3553 45.9101 87.1202 45.649 86.5743C45.3879 86.0286 45.628 85.3789 46.1855 85.1233C46.7432 84.8674 47.4068 85.1028 47.6682 85.6484Z" fill="#624D9E"/>
<path d="M47.6602 85.1984C47.9216 85.744 47.6811 86.3938 47.1234 86.6496C46.566 86.9052 45.9021 86.6699 45.6413 86.1242C45.3799 85.5786 45.6203 84.9288 46.1778 84.6732C46.7355 84.4174 47.3991 84.6525 47.6602 85.1984Z" fill="#DFB4EA"/>
<path d="M52.8718 89.856C52.9514 89.9095 52.9293 90.1085 52.7894 90.4185C52.6503 90.7285 52.3808 91.1407 51.9636 91.5871C51.7555 91.811 51.5058 92.0363 51.2221 92.2621C50.9336 92.4808 50.6129 92.7036 50.2504 92.8987C49.5305 93.2954 48.6583 93.6089 47.7023 93.7497C46.7446 93.8823 45.8171 93.8257 45.0111 93.6464C44.6067 93.5608 44.2345 93.4373 43.894 93.3082C43.5564 93.171 43.2511 93.025 42.9867 92.8687C42.4563 92.5573 42.0776 92.2377 41.8542 91.9797C41.6299 91.7216 41.5503 91.5371 41.6109 91.4636C41.7438 91.3026 42.3761 91.6391 43.4103 91.9679C43.6678 92.0516 43.9538 92.1279 44.2593 92.2019C44.5674 92.2675 44.895 92.3351 45.2432 92.375C45.9381 92.4622 46.7072 92.4704 47.4953 92.3624C48.2821 92.2454 49.0166 92.0226 49.657 91.7449C49.979 91.6093 50.2733 91.4532 50.5493 91.3042C50.8205 91.1479 51.0721 90.9948 51.2947 90.8425C52.1895 90.2381 52.6975 89.7387 52.8718 89.856Z" fill="#624D9E"/>
<path d="M221.531 147.635C221.407 147.685 221.282 147.734 221.159 147.789C221.282 147.733 221.408 147.681 221.531 147.635ZM236.444 158.653C236.606 157.288 236.499 155.88 236.094 154.506C236.791 153.562 239.772 152.006 239.772 152.006L239.214 150.888C237.893 151.515 234.915 151.861 234.915 151.861C234.983 151.965 235.059 152.107 235.138 152.268C233.679 149.704 231.267 147.941 228.547 147.207C228.043 146.185 228.173 142.8 228.173 142.8L226.905 142.71C226.796 144.11 225.659 146.706 225.606 146.825C224.554 146.831 223.492 146.99 222.452 147.308C221.506 146.68 220.659 144.954 220.659 144.954L219.518 145.504C220.122 146.713 220.341 148.024 220.366 148.185C219.525 148.646 218.769 149.202 218.105 149.835C216.889 149.693 214.027 147.962 214.027 147.962L213.312 149.01C214.402 149.727 215.953 151.66 216.299 152.102C215.692 153.125 215.263 154.242 215.03 155.403C213.97 155.808 212.292 155.68 212.292 155.68L212.217 156.938C213.326 157.004 214.371 157.315 214.827 157.467C214.829 158.407 214.96 159.356 215.227 160.29C214.27 161.248 211.712 162.584 211.712 162.584L212.277 163.716C213.345 163.209 215.479 162.883 216.298 162.772C216.918 163.818 217.698 164.726 218.595 165.481C218.412 166.578 217.465 167.92 217.465 167.92L218.538 168.616C219.157 167.707 219.962 166.977 220.324 166.67C221.668 167.415 223.165 167.874 224.709 168.01C225.414 169.087 226.063 172.077 226.063 172.077L227.331 171.859C227.136 170.753 227.383 168.755 227.506 167.9C228.441 167.742 229.371 167.464 230.272 167.051C230.727 166.842 231.158 166.604 231.568 166.344C232.519 166.939 233.402 168.26 233.402 168.26L234.465 167.55C233.743 166.507 233.34 165.331 233.245 165.035C234.352 163.978 235.2 162.713 235.755 161.335C237.111 161.216 239.968 161.854 239.968 161.854L240.298 160.635C239.025 160.301 236.907 158.954 236.444 158.653Z" fill="#8F53BF"/>
<path d="M233.906 146.718L232.846 146.03C232.031 147.226 230.782 148.178 230.782 148.178C231.493 148.53 232.759 149.382 232.759 149.382C232.812 148.265 233.906 146.718 233.906 146.718Z" fill="#8F53BF"/>
<path d="M233.821 158.072C233.26 158.041 232.894 157.025 232.135 155.771C232.05 155.611 231.932 155.454 231.833 155.288C231.728 155.123 231.605 154.959 231.491 154.788C231.237 154.457 230.975 154.11 230.661 153.782C230.048 153.117 229.292 152.501 228.43 152.025C227.559 151.565 226.623 151.268 225.721 151.115C225.269 151.031 224.829 150.999 224.408 150.966C224.199 150.963 223.992 150.948 223.793 150.949C223.597 150.956 223.399 150.942 223.215 150.957C221.726 150.998 220.653 151.238 220.328 150.79C220.251 150.682 220.233 150.54 220.276 150.366C220.321 150.197 220.417 149.976 220.593 149.758C220.934 149.302 221.566 148.783 222.479 148.351C222.705 148.235 222.954 148.152 223.215 148.054C223.476 147.962 223.755 147.89 224.047 147.816C224.632 147.692 225.276 147.598 225.962 147.6C226.645 147.605 227.373 147.661 228.11 147.845C228.847 148.021 229.596 148.294 230.316 148.677C231.031 149.068 231.666 149.543 232.212 150.058C232.763 150.57 233.2 151.142 233.569 151.705C233.938 152.271 234.199 152.854 234.405 153.405C234.497 153.687 234.584 153.956 234.644 154.221C234.698 154.489 234.759 154.74 234.779 154.989C234.894 155.975 234.783 156.775 234.571 157.301C234.477 157.563 234.337 157.761 234.215 157.889C234.087 158.017 233.956 158.077 233.821 158.072Z" fill="#BE99E3"/>
<path d="M214.064 147.26C214.26 147.384 214.102 147.963 213.711 148.553C213.579 148.752 213.437 148.927 213.299 149.067C213.03 149.34 212.778 149.478 212.649 149.396C212.453 149.271 212.612 148.692 213.002 148.103C213.394 147.513 213.869 147.136 214.064 147.26Z" fill="#8F53BF"/>
<path d="M213.338 149.027C213.338 149.027 213.836 148.479 214.028 147.962C214.231 148.083 214.464 148.22 214.703 148.354C214.703 148.354 213.988 149.067 213.565 149.191L213.338 149.027Z" fill="#624D9E"/>
<path d="M211.96 155.056C212.193 155.066 212.356 155.644 212.324 156.346C212.313 156.584 212.281 156.805 212.235 156.993C212.144 157.362 211.998 157.606 211.844 157.599C211.611 157.589 211.448 157.011 211.48 156.309C211.512 155.607 211.727 155.046 211.96 155.056Z" fill="#8F53BF"/>
<path d="M212.248 156.94C212.248 156.94 212.448 156.239 212.292 155.68C212.532 155.696 212.793 155.701 213.067 155.698C213.067 155.698 212.828 156.646 212.527 156.962L212.248 156.94Z" fill="#624D9E"/>
<path d="M211.111 162.2C211.318 162.097 211.75 162.522 212.074 163.149C212.184 163.361 212.267 163.569 212.321 163.756C212.427 164.121 212.422 164.403 212.284 164.471C212.076 164.574 211.644 164.149 211.32 163.522C210.997 162.895 210.903 162.303 211.111 162.2Z" fill="#8F53BF"/>
<path d="M212.305 163.703C212.305 163.703 212.072 163.006 211.712 162.584C211.921 162.472 212.159 162.344 212.397 162.209C212.397 162.209 212.667 163.173 212.564 163.593L212.305 163.703Z" fill="#624D9E"/>
<path d="M216.747 167.887C216.874 167.695 217.466 167.847 218.07 168.228C218.274 168.357 218.453 168.495 218.596 168.629C218.877 168.891 219.018 169.137 218.934 169.264C218.808 169.456 218.217 169.304 217.613 168.923C217.009 168.543 216.621 168.079 216.747 167.887Z" fill="#8F53BF"/>
<path d="M218.556 168.591C218.556 168.591 218.038 168.07 217.465 167.92C217.601 167.726 217.736 167.507 217.872 167.273C217.872 167.273 218.588 167.953 218.716 168.366L218.556 168.591Z" fill="#624D9E"/>
<path d="M225.519 172.536C225.476 172.312 226.013 172.024 226.718 171.893C226.957 171.849 227.184 171.829 227.382 171.829C227.77 171.83 228.046 171.914 228.074 172.062C228.118 172.287 227.581 172.574 226.875 172.705C226.17 172.836 225.563 172.76 225.519 172.536Z" fill="#8F53BF"/>
<path d="M227.326 171.829C227.326 171.829 226.577 171.855 226.063 172.077C226.011 171.849 225.952 171.589 225.886 171.328C225.886 171.328 226.907 171.342 227.291 171.555L227.326 171.829Z" fill="#624D9E"/>
<path d="M233.1 168.898C232.966 168.711 233.335 168.232 233.923 167.828C234.121 167.692 234.32 167.582 234.5 167.503C234.854 167.348 235.14 167.312 235.229 167.436C235.363 167.623 234.995 168.101 234.407 168.505C233.819 168.909 233.234 169.084 233.1 168.898Z" fill="#8F53BF"/>
<path d="M234.449 167.525C234.449 167.525 233.76 167.798 233.403 168.26C233.27 168.064 233.114 167.859 232.944 167.647C232.944 167.647 233.857 167.255 234.297 167.295L234.449 167.525Z" fill="#624D9E"/>
<path d="M240.166 162.53C239.94 162.474 239.898 161.876 240.073 161.194C240.132 160.964 240.209 160.753 240.292 160.578C240.457 160.234 240.65 160.024 240.799 160.061C241.025 160.116 241.067 160.714 240.892 161.396C240.717 162.077 240.392 162.585 240.166 162.53Z" fill="#8F53BF"/>
<path d="M240.269 160.628C240.269 160.628 239.978 161.304 239.968 161.854C239.735 161.804 239.469 161.748 239.199 161.697C239.199 161.697 239.64 160.796 240 160.545L240.269 160.628Z" fill="#624D9E"/>
<path d="M222.124 160.748C222.481 161.493 222.355 162.286 221.843 162.521C221.331 162.755 220.628 162.342 220.272 161.598C219.916 160.854 220.042 160.06 220.553 159.826C221.065 159.591 221.768 160.004 222.124 160.748Z" fill="#624D9E"/>
<path d="M221.412 160.145C221.768 160.889 221.642 161.683 221.13 161.917C220.619 162.152 219.916 161.739 219.559 160.995C219.203 160.25 219.329 159.457 219.84 159.222C220.352 158.988 221.055 159.401 221.412 160.145Z" fill="#DFB4EA"/>
<path d="M218.045 153.177C218.55 152.521 219.325 152.258 219.776 152.59C220.227 152.923 220.184 153.725 219.679 154.381C219.173 155.038 218.398 155.3 217.947 154.968C217.496 154.635 217.54 153.834 218.045 153.177Z" fill="#624D9E"/>
<path d="M217.298 152.656C217.804 152 218.579 151.737 219.03 152.07C219.481 152.402 219.438 153.204 218.932 153.861C218.427 154.517 217.652 154.78 217.201 154.448C216.75 154.115 216.793 153.313 217.298 152.656Z" fill="#DFB4EA"/>
<path d="M226.787 163.549C227.021 164.039 226.805 164.622 226.305 164.851C225.804 165.08 225.209 164.87 224.974 164.38C224.74 163.89 224.955 163.306 225.455 163.077C225.956 162.848 226.552 163.059 226.787 163.549Z" fill="#624D9E"/>
<path d="M226.559 163.073C226.794 163.564 226.578 164.147 226.077 164.376C225.577 164.606 224.981 164.395 224.747 163.905C224.512 163.415 224.728 162.832 225.228 162.602C225.729 162.373 226.325 162.584 226.559 163.073Z" fill="#DFB4EA"/>
<path d="M229.029 152.905C228.824 153.54 228.133 153.891 227.485 153.69C226.837 153.49 226.478 152.813 226.683 152.179C226.887 151.544 227.579 151.193 228.227 151.393C228.875 151.594 229.234 152.271 229.029 152.905Z" fill="#624D9E"/>
<path d="M229.228 152.29C229.024 152.925 228.332 153.276 227.684 153.075C227.036 152.875 226.676 152.198 226.881 151.564C227.086 150.93 227.778 150.578 228.426 150.778C229.074 150.979 229.433 151.656 229.228 152.29Z" fill="#DFB4EA"/>
<path d="M231.82 162.307C231.992 162.667 231.834 163.094 231.467 163.263C231.1 163.431 230.663 163.276 230.491 162.917C230.319 162.558 230.477 162.13 230.844 161.962C231.211 161.793 231.648 161.948 231.82 162.307Z" fill="#624D9E"/>
<path d="M231.653 161.959C231.825 162.318 231.667 162.746 231.3 162.914C230.933 163.083 230.496 162.928 230.324 162.569C230.152 162.209 230.31 161.782 230.677 161.613C231.044 161.445 231.481 161.6 231.653 161.959Z" fill="#DFB4EA"/>
<path d="M240.367 152.386C240.161 152.488 239.735 152.068 239.415 151.448C239.307 151.238 239.225 151.032 239.172 150.848C239.067 150.488 239.072 150.209 239.209 150.141C239.414 150.04 239.84 150.46 240.16 151.08C240.48 151.7 240.572 152.284 240.367 152.386Z" fill="#8F53BF"/>
<path d="M239.187 150.901C239.187 150.901 239.418 151.59 239.773 152.006C239.566 152.116 239.331 152.243 239.096 152.376C239.096 152.376 238.829 151.424 238.932 151.009L239.187 150.901Z" fill="#624D9E"/>
<path d="M234.614 146.751C234.49 146.941 233.905 146.79 233.309 146.414C233.107 146.287 232.93 146.15 232.789 146.017C232.512 145.758 232.372 145.515 232.455 145.39C232.58 145.2 233.164 145.351 233.761 145.727C234.357 146.103 234.739 146.562 234.614 146.751Z" fill="#8F53BF"/>
<path d="M232.829 146.055C232.829 146.055 233.341 146.57 233.906 146.718C233.772 146.91 233.638 147.126 233.504 147.357C233.504 147.357 232.797 146.685 232.67 146.277L232.829 146.055Z" fill="#624D9E"/>
<path d="M228.808 142.489C228.794 142.714 228.209 142.863 227.501 142.822C227.261 142.808 227.039 142.774 226.849 142.726C226.478 142.634 226.234 142.489 226.243 142.34C226.257 142.115 226.842 141.966 227.55 142.007C228.258 142.048 228.821 142.264 228.808 142.489Z" fill="#8F53BF"/>
<path d="M226.903 142.74C226.903 142.74 227.627 142.891 228.174 142.8C228.167 143.031 228.16 143.294 228.159 143.559C228.159 143.559 227.184 143.306 226.869 143.011L226.903 142.74Z" fill="#624D9E"/>
<path d="M221.044 144.371C221.149 144.572 220.722 144.99 220.09 145.306C219.876 145.412 219.666 145.493 219.478 145.546C219.11 145.65 218.825 145.645 218.756 145.513C218.651 145.312 219.079 144.893 219.711 144.578C220.343 144.263 220.94 144.17 221.044 144.371Z" fill="#8F53BF"/>
<path d="M219.532 145.531C219.532 145.531 220.244 145.357 220.66 144.954C220.761 145.163 220.885 145.385 221.021 145.615C221.021 145.615 220.073 145.875 219.648 145.777L219.532 145.531Z" fill="#624D9E"/>
<path d="M233.147 158.898C233.106 159.719 232.615 160.362 232.051 160.335C231.487 160.308 231.063 159.621 231.104 158.8C231.145 157.979 231.635 157.336 232.2 157.363C232.764 157.39 233.188 158.077 233.147 158.898Z" fill="#624D9E"/>
<path d="M233.369 158.352C233.328 159.172 232.837 159.816 232.273 159.789C231.709 159.762 231.285 159.075 231.325 158.254C231.367 157.433 231.857 156.789 232.421 156.817C232.986 156.843 233.41 157.531 233.369 158.352Z" fill="#DFB4EA"/>
<path d="M226.911 156.521C227.267 157.265 226.94 158.151 226.179 158.499C225.419 158.848 224.514 158.528 224.158 157.783C223.801 157.039 224.129 156.153 224.889 155.805C225.65 155.456 226.555 155.777 226.911 156.521Z" fill="#624D9E"/>
<path d="M226.9 155.907C227.257 156.651 226.929 157.537 226.168 157.886C225.408 158.234 224.503 157.914 224.147 157.169C223.791 156.425 224.118 155.539 224.879 155.191C225.639 154.842 226.544 155.162 226.9 155.907Z" fill="#DFB4EA"/>
<path d="M234.007 162.258C234.116 162.331 234.085 162.603 233.895 163.025C233.705 163.448 233.338 164.01 232.769 164.619C232.485 164.924 232.144 165.231 231.757 165.539C231.364 165.838 230.927 166.141 230.432 166.408C229.451 166.948 228.261 167.376 226.958 167.568C225.652 167.749 224.387 167.672 223.288 167.427C222.736 167.31 222.229 167.142 221.765 166.966C221.304 166.779 220.888 166.58 220.527 166.366C219.804 165.942 219.288 165.506 218.983 165.154C218.677 164.802 218.569 164.551 218.651 164.45C218.833 164.231 219.695 164.69 221.105 165.138C221.456 165.252 221.846 165.356 222.263 165.457C222.683 165.547 223.13 165.639 223.604 165.693C224.552 165.812 225.601 165.823 226.676 165.676C227.748 165.517 228.75 165.213 229.623 164.834C230.062 164.649 230.464 164.436 230.84 164.233C231.21 164.02 231.553 163.811 231.856 163.604C233.077 162.779 233.769 162.098 234.007 162.258Z" fill="#624D9E"/>
<path d="M97.7227 46.132C97.6314 46.1689 97.5403 46.205 97.4501 46.2454C97.5403 46.2041 97.6322 46.1664 97.7227 46.132ZM108.659 54.2123C108.778 53.211 108.699 52.1785 108.402 51.1709C108.913 50.4787 111.099 49.338 111.099 49.338L110.69 48.5176C109.722 48.9774 107.537 49.2314 107.537 49.2314C107.588 49.3076 107.643 49.4118 107.701 49.5296C106.632 47.6497 104.863 46.3569 102.868 45.8187C102.498 45.0689 102.594 42.587 102.594 42.587L101.663 42.5209C101.584 43.5473 100.75 45.451 100.711 45.5385C99.9396 45.5426 99.161 45.6593 98.398 45.8925C97.7043 45.4322 97.0831 44.1659 97.0831 44.1659L96.2464 44.5697C96.6896 45.4562 96.8499 46.4174 96.8684 46.5357C96.2517 46.8736 95.6974 47.2817 95.2106 47.7456C94.3183 47.6418 92.22 46.3723 92.22 46.3723L91.6955 47.1407C92.4945 47.6664 93.6318 49.084 93.8862 49.4079C93.4407 50.1586 93.1263 50.9773 92.9554 51.8286C92.1781 52.1257 90.947 52.0317 90.947 52.0317L90.8923 52.9543C91.7059 53.0029 92.4719 53.2309 92.8065 53.3427C92.8079 54.0321 92.9037 54.7279 93.0998 55.4126C92.3979 56.1152 90.522 57.0946 90.522 57.0946L90.9367 57.9248C91.7193 57.5533 93.2844 57.3139 93.8848 57.2327C94.3395 58 94.912 58.6659 95.5697 59.2195C95.4354 60.024 94.7408 61.0078 94.7408 61.0078L95.5278 61.5182C95.9819 60.8517 96.5718 60.3168 96.8374 60.0915C97.8232 60.6377 98.9208 60.9745 100.053 61.0742C100.571 61.8637 101.046 64.0564 101.046 64.0564L101.976 63.8964C101.833 63.0854 102.014 61.6204 102.105 60.9933C102.79 60.8777 103.472 60.6735 104.133 60.3706C104.466 60.2175 104.782 60.0431 105.083 59.8526C105.781 60.2889 106.428 61.2571 106.428 61.2571L107.208 60.7366C106.678 59.9715 106.383 59.109 106.313 58.8925C107.124 58.1175 107.746 57.1895 108.154 56.1791C109.148 56.0919 111.243 56.5594 111.243 56.5594L111.485 55.666C110.551 55.4206 108.998 54.4326 108.659 54.2123Z" fill="#CED4DA"/>
<path d="M106.798 45.4601L106.021 44.9555C105.423 45.8324 104.507 46.5303 104.507 46.5303C105.028 46.7889 105.957 47.4135 105.957 47.4135C105.996 46.594 106.798 45.4601 106.798 45.4601Z" fill="#CED4DA"/>
<path d="M106.736 53.7858C106.324 53.7637 106.056 53.0182 105.499 52.0986C105.437 51.9814 105.351 51.8666 105.278 51.7444C105.201 51.6235 105.111 51.5033 105.027 51.3781C104.841 51.135 104.648 50.8805 104.418 50.64C103.968 50.1523 103.414 49.7004 102.782 49.3519C102.143 49.0146 101.457 48.7967 100.795 48.6846C100.464 48.6228 100.142 48.5993 99.8326 48.5753C99.6795 48.5725 99.5278 48.5621 99.3821 48.5627C99.2377 48.5676 99.0925 48.5578 98.9576 48.5687C97.8658 48.5988 97.0791 48.7746 96.8406 48.446C96.7842 48.3664 96.7708 48.2628 96.8023 48.1352C96.8353 48.0108 96.9057 47.8489 97.0353 47.689C97.2852 47.355 97.7483 46.9739 98.4183 46.6576C98.5842 46.5726 98.7665 46.5114 98.9576 46.4395C99.1489 46.372 99.3539 46.3192 99.5678 46.2648C99.9973 46.1741 100.47 46.1049 100.972 46.1068C101.473 46.1101 102.007 46.1516 102.548 46.2861C103.088 46.4157 103.637 46.6153 104.165 46.8963C104.69 47.1833 105.155 47.5316 105.555 47.9094C105.96 48.2844 106.28 48.704 106.551 49.1173C106.821 49.5323 107.013 49.9598 107.164 50.3639C107.231 50.5703 107.295 50.7676 107.339 50.9623C107.379 51.1588 107.423 51.3425 107.438 51.5251C107.523 52.2482 107.441 52.8351 107.285 53.2205C107.217 53.413 107.114 53.5578 107.024 53.6516C106.931 53.7456 106.834 53.7897 106.736 53.7858Z" fill="#EEECF0"/>
<path d="M92.2469 45.8576C92.3905 45.9486 92.2743 46.3731 91.9877 46.8053C91.8908 46.9516 91.7867 47.0798 91.6858 47.1823C91.4884 47.3827 91.3038 47.4835 91.2088 47.4234C91.0655 47.3321 91.1817 46.9078 91.4683 46.4756C91.7551 46.0432 92.1036 45.7663 92.2469 45.8576Z" fill="#CED4DA"/>
<path d="M91.7144 47.1533C91.7144 47.1533 92.0797 46.7512 92.2201 46.3723C92.3696 46.4609 92.5402 46.5615 92.7153 46.6593C92.7153 46.6593 92.1908 47.1823 91.8808 47.2736L91.7144 47.1533Z" fill="#ADB5BD"/>
<path d="M90.704 51.5744C90.8746 51.582 90.9941 52.0055 90.9707 52.5202C90.9628 52.6946 90.9394 52.8567 90.9056 52.995C90.8391 53.2657 90.7316 53.4442 90.6188 53.4393C90.4481 53.4316 90.3286 53.0082 90.3521 52.4934C90.3755 51.9784 90.5333 51.567 90.704 51.5744Z" fill="#CED4DA"/>
<path d="M90.915 52.9557C90.915 52.9557 91.0614 52.4421 90.9472 52.0317C91.1231 52.044 91.3144 52.0476 91.5158 52.0451C91.5158 52.0451 91.3401 52.7403 91.1198 52.9724L90.915 52.9557Z" fill="#ADB5BD"/>
<path d="M90.0811 56.8131C90.2335 56.7377 90.55 57.0493 90.7876 57.5094C90.8681 57.6649 90.9292 57.8174 90.9686 57.9541C91.0462 58.222 91.0426 58.429 90.9415 58.479C90.789 58.5544 90.4726 58.2428 90.2349 57.7827C89.9975 57.3227 89.9286 56.8886 90.0811 56.8131Z" fill="#CED4DA"/>
<path d="M90.9568 57.9153C90.9568 57.9153 90.7859 57.4041 90.522 57.0946C90.6753 57.0129 90.8501 56.9189 91.0247 56.8202C91.0247 56.8202 91.2224 57.5268 91.147 57.8349L90.9568 57.9153Z" fill="#ADB5BD"/>
<path d="M94.2147 60.9835C94.3074 60.843 94.7414 60.9548 95.1844 61.2339C95.3341 61.3282 95.4656 61.4296 95.5706 61.5278C95.7762 61.7202 95.8798 61.9006 95.8183 61.9939C95.7259 62.1346 95.2922 62.0226 94.8492 61.7435C94.4063 61.4646 94.1223 61.1243 94.2147 60.9835Z" fill="#CED4DA"/>
<path d="M95.5408 61.4999C95.5408 61.4999 95.161 61.1177 94.7412 61.0078C94.8406 60.8654 94.9401 60.7052 95.0392 60.5336C95.0392 60.5336 95.5645 61.0319 95.6587 61.3351L95.5408 61.4999Z" fill="#ADB5BD"/>
<path d="M100.647 64.3931C100.616 64.2285 101.009 64.0175 101.527 63.9215C101.702 63.8893 101.868 63.8743 102.014 63.8745C102.298 63.8756 102.5 63.9369 102.521 64.0457C102.553 64.2102 102.159 64.4213 101.642 64.5172C101.124 64.6132 100.679 64.5574 100.647 64.3931Z" fill="#CED4DA"/>
<path d="M101.972 63.8746C101.972 63.8746 101.423 63.894 101.046 64.0564C101.008 63.8893 100.965 63.6988 100.916 63.5074C100.916 63.5074 101.665 63.5173 101.946 63.6739L101.972 63.8746Z" fill="#ADB5BD"/>
<path d="M106.207 61.7249C106.108 61.5879 106.378 61.2369 106.81 60.9409C106.955 60.8408 107.101 60.7599 107.233 60.7019C107.493 60.5882 107.703 60.5623 107.768 60.653C107.866 60.79 107.596 61.141 107.165 61.437C106.734 61.7331 106.305 61.8618 106.207 61.7249Z" fill="#CED4DA"/>
<path d="M107.196 60.7184C107.196 60.7184 106.691 60.9185 106.429 61.2572C106.331 61.1134 106.217 60.963 106.092 60.808C106.092 60.808 106.762 60.5202 107.085 60.5494L107.196 60.7184Z" fill="#ADB5BD"/>
<path d="M111.388 57.055C111.222 57.014 111.192 56.5758 111.32 56.0758C111.363 55.9069 111.419 55.7524 111.481 55.6237C111.601 55.3716 111.743 55.2177 111.853 55.2445C112.018 55.2852 112.049 55.7237 111.921 56.2234C111.792 56.7234 111.554 57.0957 111.388 57.055Z" fill="#CED4DA"/>
<path d="M111.463 55.6603C111.463 55.6603 111.251 56.1565 111.243 56.5594C111.072 56.5228 110.877 56.4818 110.679 56.4443C110.679 56.4443 111.003 55.7836 111.266 55.5994L111.463 55.6603Z" fill="#ADB5BD"/>
<path d="M98.1577 55.7489C98.4192 56.2945 98.3267 56.8765 97.9516 57.0484C97.5763 57.2206 97.0607 56.9175 96.7993 56.3719C96.5382 55.8262 96.6306 55.2442 97.0054 55.0723C97.3808 54.9001 97.8966 55.2032 98.1577 55.7489Z" fill="#ADB5BD"/>
<path d="M97.635 55.3066C97.8961 55.8522 97.804 56.4342 97.4289 56.6061C97.0535 56.7781 96.538 56.4752 96.2766 55.9296C96.0152 55.3837 96.1076 54.8019 96.4827 54.6297C96.858 54.4578 97.3739 54.7609 97.635 55.3066Z" fill="#F8F9FA"/>
<path d="M95.1658 50.1967C95.5362 49.7153 96.1048 49.5225 96.4355 49.7664C96.7667 50.0102 96.7346 50.5982 96.3642 51.0796C95.9936 51.5613 95.4253 51.7537 95.0946 51.5102C94.7634 51.266 94.7955 50.678 95.1658 50.1967Z" fill="#ADB5BD"/>
<path d="M94.6189 49.8147C94.9895 49.3333 95.5578 49.1406 95.8887 49.3844C96.2197 49.6282 96.1879 50.2162 95.8173 50.6979C95.4469 51.1793 94.8786 51.372 94.5476 51.1282C94.2167 50.8841 94.2485 50.2961 94.6189 49.8147Z" fill="#F8F9FA"/>
<path d="M101.577 57.8024C101.749 58.1616 101.59 58.5894 101.224 58.7575C100.856 58.9256 100.42 58.7712 100.248 58.4117C100.076 58.0525 100.234 57.6247 100.601 57.4565C100.968 57.2882 101.405 57.4429 101.577 57.8024Z" fill="#ADB5BD"/>
<path d="M101.41 57.4539C101.582 57.8133 101.424 58.2409 101.056 58.4093C100.69 58.5774 100.252 58.4227 100.081 58.0635C99.9089 57.7043 100.067 57.2764 100.434 57.1083C100.801 56.9399 101.238 57.0947 101.41 57.4539Z" fill="#F8F9FA"/>
<path d="M103.222 49.997C103.071 50.4623 102.565 50.7201 102.089 50.573C101.614 50.4259 101.35 49.9298 101.501 49.4645C101.651 48.9993 102.158 48.7415 102.633 48.8885C103.109 49.0356 103.372 49.532 103.222 49.997Z" fill="#ADB5BD"/>
<path d="M103.367 49.546C103.217 50.0113 102.71 50.2691 102.235 50.122C101.759 49.9749 101.496 49.4788 101.646 49.0135C101.796 48.5485 102.304 48.2905 102.779 48.4375C103.254 48.5846 103.517 49.081 103.367 49.546Z" fill="#F8F9FA"/>
<path d="M105.268 56.8921C105.394 57.1556 105.278 57.4691 105.009 57.5927C104.74 57.716 104.419 57.6025 104.293 57.339C104.167 57.0755 104.283 56.7619 104.552 56.6387C104.821 56.5151 105.142 56.6288 105.268 56.8921Z" fill="#ADB5BD"/>
<path d="M105.146 56.6368C105.272 56.9 105.156 57.2138 104.887 57.3371C104.618 57.4607 104.297 57.3472 104.171 57.0837C104.045 56.8202 104.161 56.5067 104.43 56.3831C104.699 56.2598 105.02 56.3733 105.146 56.6368Z" fill="#F8F9FA"/>
<path d="M111.536 49.6163C111.385 49.6909 111.072 49.3828 110.838 48.9282C110.758 48.7746 110.698 48.6237 110.659 48.4887C110.582 48.2243 110.586 48.0196 110.686 47.9704C110.837 47.8957 111.149 48.2038 111.384 48.6584C111.618 49.113 111.686 49.5417 111.536 49.6163Z" fill="#CED4DA"/>
<path d="M110.671 48.5272C110.671 48.5272 110.84 49.0323 111.1 49.338C110.948 49.4186 110.776 49.5116 110.603 49.6089C110.603 49.6089 110.408 48.9107 110.483 48.6064L110.671 48.5272Z" fill="#ADB5BD"/>
<path d="M107.317 45.4844C107.226 45.6233 106.797 45.5126 106.36 45.2368C106.212 45.1435 106.082 45.0432 105.979 44.9462C105.776 44.7562 105.673 44.578 105.734 44.4858C105.825 44.347 106.254 44.4577 106.691 44.7335C107.129 45.0091 107.409 45.3453 107.317 45.4844Z" fill="#CED4DA"/>
<path d="M106.008 44.9738C106.008 44.9738 106.383 45.3516 106.798 45.4601C106.7 45.6009 106.602 45.7592 106.503 45.9286C106.503 45.9286 105.985 45.436 105.892 45.1367L106.008 44.9738Z" fill="#ADB5BD"/>
<path d="M103.059 42.3588C103.049 42.5236 102.62 42.633 102.101 42.6026C101.925 42.5925 101.762 42.5676 101.622 42.5327C101.35 42.4646 101.172 42.3583 101.178 42.2492C101.188 42.0841 101.617 41.9747 102.137 42.0051C102.656 42.0354 103.069 42.1937 103.059 42.3588Z" fill="#CED4DA"/>
<path d="M101.662 42.5424C101.662 42.5424 102.193 42.6537 102.594 42.587C102.589 42.7559 102.584 42.9489 102.583 43.1436C102.583 43.1436 101.868 42.9577 101.637 42.7412L101.662 42.5424Z" fill="#ADB5BD"/>
<path d="M97.3661 43.7385C97.4429 43.8858 97.1292 44.1925 96.6659 44.4241C96.5089 44.5022 96.3553 44.5618 96.2174 44.6007C95.9473 44.6767 95.7384 44.6734 95.6878 44.576C95.611 44.4287 95.9244 44.1217 96.388 43.8907C96.8516 43.6592 97.2893 43.5914 97.3661 43.7385Z" fill="#CED4DA"/>
<path d="M96.2568 44.5894C96.2568 44.5894 96.7791 44.462 97.0835 44.166C97.1581 44.3199 97.2486 44.4825 97.3488 44.6509C97.3488 44.6509 96.6531 44.8417 96.3417 44.7698L96.2568 44.5894Z" fill="#ADB5BD"/>
<path d="M106.241 54.3919C106.211 54.9939 105.851 55.4657 105.438 55.4457C105.024 55.4261 104.713 54.922 104.743 54.32C104.773 53.7181 105.133 53.2463 105.546 53.2659C105.96 53.2859 106.271 53.7897 106.241 54.3919Z" fill="#ADB5BD"/>
<path d="M106.404 53.9912C106.373 54.5931 106.014 55.0649 105.6 55.0453C105.186 55.0253 104.875 54.5215 104.905 53.9196C104.935 53.3176 105.295 52.8455 105.709 52.8655C106.123 52.8851 106.434 53.3892 106.404 53.9912Z" fill="#F8F9FA"/>
<path d="M101.668 52.6484C101.929 53.1941 101.689 53.8439 101.131 54.0995C100.574 54.3553 99.9101 54.1202 99.649 53.5743C99.3879 53.0287 99.628 52.3789 100.185 52.1233C100.743 51.8674 101.407 52.1028 101.668 52.6484Z" fill="#ADB5BD"/>
<path d="M101.66 52.1984C101.922 52.744 101.681 53.3938 101.123 53.6497C100.566 53.9053 99.9021 53.6699 99.6413 53.1243C99.3799 52.5787 99.6203 51.9289 100.178 51.6733C100.736 51.4174 101.399 51.6525 101.66 52.1984Z" fill="#F8F9FA"/>
<path d="M106.872 56.856C106.951 56.9096 106.929 57.1086 106.789 57.4186C106.65 57.7286 106.381 58.1408 105.964 58.5872C105.756 58.8111 105.506 59.0364 105.222 59.2621C104.934 59.4808 104.613 59.7036 104.25 59.8988C103.531 60.2955 102.658 60.609 101.702 60.7498C100.745 60.8824 99.8172 60.8258 99.0112 60.6465C98.6068 60.5609 98.2345 60.4373 97.894 60.3083C97.5564 60.1711 97.2511 60.0251 96.9867 59.8687C96.4563 59.5574 96.0776 59.2378 95.8542 58.9798C95.6299 58.7217 95.5503 58.5372 95.6109 58.4637C95.7438 58.3026 96.3761 58.6392 97.4103 58.968C97.6678 59.0517 97.9538 59.1279 98.2593 59.202C98.5674 59.2676 98.895 59.3351 99.2433 59.3751C99.9381 59.4623 100.707 59.4704 101.495 59.3625C102.282 59.2455 103.017 59.0227 103.657 58.745C103.979 58.6094 104.273 58.4533 104.549 58.3043C104.821 58.1479 105.072 57.9948 105.295 57.8426C106.19 57.2382 106.698 56.7387 106.872 56.856Z" fill="#ADB5BD"/>
<path d="M200.723 79.132C200.631 79.1689 200.54 79.205 200.45 79.2454C200.54 79.2041 200.632 79.1664 200.723 79.132ZM211.659 87.2123C211.778 86.211 211.699 85.1785 211.402 84.1709C211.913 83.4787 214.099 82.338 214.099 82.338L213.69 81.5176C212.722 81.9774 210.537 82.2314 210.537 82.2314C210.588 82.3076 210.643 82.4118 210.701 82.5296C209.632 80.6497 207.863 79.3569 205.868 78.8187C205.498 78.0689 205.594 75.587 205.594 75.587L204.663 75.5209C204.584 76.5473 203.75 78.451 203.711 78.5385C202.94 78.5426 202.161 78.6593 201.398 78.8925C200.704 78.4322 200.083 77.1659 200.083 77.1659L199.246 77.5697C199.69 78.4562 199.85 79.4174 199.868 79.5357C199.252 79.8736 198.697 80.2817 198.211 80.7456C197.318 80.6418 195.22 79.3723 195.22 79.3723L194.696 80.1407C195.495 80.6664 196.632 82.084 196.886 82.4079C196.441 83.1586 196.126 83.9773 195.955 84.8286C195.178 85.1257 193.947 85.0317 193.947 85.0317L193.892 85.9543C194.706 86.0029 195.472 86.2309 195.807 86.3427C195.808 87.0321 195.904 87.7279 196.1 88.4126C195.398 89.1152 193.522 90.0946 193.522 90.0946L193.937 90.9248C194.719 90.5533 196.284 90.3139 196.885 90.2327C197.339 91 197.912 91.6659 198.57 92.2195C198.435 93.024 197.741 94.0078 197.741 94.0078L198.528 94.5182C198.982 93.8517 199.572 93.3168 199.837 93.0915C200.823 93.6377 201.921 93.9745 203.053 94.0742C203.571 94.8637 204.046 97.0564 204.046 97.0564L204.976 96.8964C204.833 96.0854 205.014 94.6204 205.105 93.9933C205.79 93.8777 206.472 93.6735 207.133 93.3706C207.466 93.2175 207.782 93.0431 208.083 92.8526C208.781 93.2889 209.428 94.2571 209.428 94.2571L210.208 93.7366C209.678 92.9715 209.383 92.109 209.313 91.8925C210.124 91.1175 210.746 90.1895 211.154 89.1791C212.148 89.0919 214.243 89.5594 214.243 89.5594L214.485 88.666C213.551 88.4206 211.998 87.4326 211.659 87.2123Z" fill="#CED4DA"/>
<path d="M209.798 78.4601L209.021 77.9555C208.423 78.8324 207.507 79.5303 207.507 79.5303C208.028 79.7889 208.957 80.4135 208.957 80.4135C208.996 79.594 209.798 78.4601 209.798 78.4601Z" fill="#CED4DA"/>
<path d="M209.736 86.7858C209.324 86.7637 209.056 86.0182 208.499 85.0986C208.437 84.9814 208.351 84.8666 208.278 84.7444C208.201 84.6235 208.111 84.5033 208.027 84.3781C207.841 84.135 207.648 83.8805 207.418 83.64C206.968 83.1523 206.414 82.7004 205.782 82.3519C205.143 82.0146 204.457 81.7967 203.795 81.6846C203.464 81.6228 203.142 81.5993 202.833 81.5753C202.68 81.5725 202.528 81.5621 202.382 81.5627C202.238 81.5676 202.092 81.5578 201.958 81.5687C200.866 81.5988 200.079 81.7746 199.841 81.446C199.784 81.3664 199.771 81.2628 199.802 81.1352C199.835 81.0108 199.906 80.8489 200.035 80.689C200.285 80.355 200.748 79.9739 201.418 79.6576C201.584 79.5726 201.767 79.5114 201.958 79.4395C202.149 79.372 202.354 79.3192 202.568 79.2648C202.997 79.1741 203.47 79.1049 203.972 79.1068C204.473 79.1101 205.007 79.1516 205.548 79.2861C206.088 79.4157 206.637 79.6153 207.165 79.8963C207.69 80.1833 208.155 80.5316 208.555 80.9094C208.96 81.2844 209.28 81.704 209.551 82.1173C209.821 82.5323 210.013 82.9598 210.164 83.3639C210.231 83.5703 210.295 83.7676 210.339 83.9623C210.379 84.1588 210.423 84.3425 210.438 84.5251C210.523 85.2482 210.441 85.8351 210.285 86.2205C210.217 86.413 210.114 86.5578 210.024 86.6516C209.931 86.7456 209.834 86.7897 209.736 86.7858Z" fill="#EEECF0"/>
<path d="M195.247 78.8576C195.39 78.9486 195.274 79.3731 194.988 79.8053C194.891 79.9516 194.787 80.0798 194.686 80.1823C194.488 80.3827 194.304 80.4835 194.209 80.4234C194.066 80.3321 194.182 79.9078 194.468 79.4756C194.755 79.0432 195.104 78.7663 195.247 78.8576Z" fill="#CED4DA"/>
<path d="M194.714 80.1533C194.714 80.1533 195.08 79.7512 195.22 79.3723C195.37 79.4609 195.54 79.5615 195.715 79.6593C195.715 79.6593 195.191 80.1823 194.881 80.2736L194.714 80.1533Z" fill="#ADB5BD"/>
<path d="M193.704 84.5744C193.875 84.582 193.994 85.0055 193.971 85.5202C193.963 85.6946 193.939 85.8567 193.906 85.995C193.839 86.2657 193.732 86.4442 193.619 86.4393C193.448 86.4316 193.329 86.0082 193.352 85.4934C193.376 84.9784 193.533 84.567 193.704 84.5744Z" fill="#CED4DA"/>
<path d="M193.915 85.9557C193.915 85.9557 194.061 85.4421 193.947 85.0317C194.123 85.044 194.314 85.0476 194.516 85.0451C194.516 85.0451 194.34 85.7403 194.12 85.9724L193.915 85.9557Z" fill="#ADB5BD"/>
<path d="M193.081 89.8131C193.234 89.7377 193.55 90.0493 193.788 90.5094C193.868 90.6649 193.929 90.8174 193.969 90.9541C194.046 91.222 194.043 91.429 193.942 91.479C193.789 91.5544 193.473 91.2428 193.235 90.7827C192.998 90.3227 192.929 89.8886 193.081 89.8131Z" fill="#CED4DA"/>
<path d="M193.957 90.9153C193.957 90.9153 193.786 90.4041 193.522 90.0946C193.675 90.0129 193.85 89.9189 194.025 89.8202C194.025 89.8202 194.222 90.5268 194.147 90.8349L193.957 90.9153Z" fill="#ADB5BD"/>
<path d="M197.215 93.9835C197.307 93.843 197.741 93.9548 198.184 94.2339C198.334 94.3282 198.466 94.4296 198.571 94.5278C198.776 94.7202 198.88 94.9006 198.818 94.9939C198.726 95.1346 198.292 95.0226 197.849 94.7435C197.406 94.4646 197.122 94.1243 197.215 93.9835Z" fill="#CED4DA"/>
<path d="M198.541 94.4999C198.541 94.4999 198.161 94.1177 197.741 94.0078C197.841 93.8654 197.94 93.7052 198.039 93.5336C198.039 93.5336 198.565 94.0319 198.659 94.3351L198.541 94.4999Z" fill="#ADB5BD"/>
<path d="M203.647 97.3931C203.616 97.2285 204.009 97.0175 204.527 96.9215C204.702 96.8893 204.868 96.8743 205.014 96.8745C205.298 96.8756 205.5 96.9369 205.521 97.0457C205.553 97.2102 205.159 97.4213 204.642 97.5172C204.124 97.6132 203.679 97.5574 203.647 97.3931Z" fill="#CED4DA"/>
<path d="M204.972 96.8746C204.972 96.8746 204.423 96.894 204.046 97.0564C204.008 96.8893 203.965 96.6988 203.916 96.5074C203.916 96.5074 204.665 96.5173 204.946 96.6739L204.972 96.8746Z" fill="#ADB5BD"/>
<path d="M209.207 94.7249C209.108 94.5879 209.378 94.2369 209.81 93.9409C209.955 93.8408 210.101 93.7599 210.233 93.7019C210.493 93.5882 210.703 93.5623 210.768 93.653C210.866 93.79 210.596 94.141 210.165 94.437C209.734 94.7331 209.305 94.8618 209.207 94.7249Z" fill="#CED4DA"/>
<path d="M210.196 93.7184C210.196 93.7184 209.691 93.9185 209.429 94.2572C209.331 94.1134 209.217 93.963 209.092 93.808C209.092 93.808 209.762 93.5202 210.085 93.5494L210.196 93.7184Z" fill="#ADB5BD"/>
<path d="M214.388 90.055C214.222 90.014 214.192 89.5758 214.32 89.0758C214.363 88.9069 214.419 88.7524 214.481 88.6237C214.601 88.3716 214.743 88.2177 214.853 88.2445C215.018 88.2852 215.049 88.7237 214.921 89.2234C214.792 89.7234 214.554 90.0957 214.388 90.055Z" fill="#CED4DA"/>
<path d="M214.463 88.6603C214.463 88.6603 214.251 89.1565 214.243 89.5594C214.072 89.5228 213.877 89.4818 213.679 89.4443C213.679 89.4443 214.003 88.7836 214.266 88.5994L214.463 88.6603Z" fill="#ADB5BD"/>
<path d="M201.158 88.7489C201.419 89.2945 201.327 89.8765 200.952 90.0484C200.576 90.2206 200.061 89.9175 199.799 89.3719C199.538 88.8262 199.631 88.2442 200.005 88.0723C200.381 87.9001 200.897 88.2032 201.158 88.7489Z" fill="#ADB5BD"/>
<path d="M200.635 88.3066C200.896 88.8522 200.804 89.4342 200.429 89.6061C200.054 89.7781 199.538 89.4752 199.277 88.9296C199.015 88.3837 199.108 87.8019 199.483 87.6297C199.858 87.4578 200.374 87.7609 200.635 88.3066Z" fill="#F8F9FA"/>
<path d="M198.166 83.1967C198.536 82.7153 199.105 82.5225 199.435 82.7664C199.767 83.0102 199.735 83.5982 199.364 84.0796C198.994 84.5613 198.425 84.7537 198.095 84.5102C197.763 84.266 197.796 83.678 198.166 83.1967Z" fill="#ADB5BD"/>
<path d="M197.619 82.8147C197.989 82.3333 198.558 82.1406 198.889 82.3844C199.22 82.6282 199.188 83.2162 198.817 83.6979C198.447 84.1793 197.879 84.372 197.548 84.1282C197.217 83.8841 197.249 83.2961 197.619 82.8147Z" fill="#F8F9FA"/>
<path d="M204.577 90.8024C204.749 91.1616 204.59 91.5894 204.224 91.7575C203.856 91.9256 203.42 91.7712 203.248 91.4117C203.076 91.0525 203.234 90.6247 203.601 90.4565C203.968 90.2882 204.405 90.4429 204.577 90.8024Z" fill="#ADB5BD"/>
<path d="M204.41 90.4539C204.582 90.8133 204.424 91.2409 204.056 91.4093C203.69 91.5774 203.252 91.4227 203.081 91.0635C202.909 90.7043 203.067 90.2764 203.434 90.1083C203.801 89.9399 204.238 90.0947 204.41 90.4539Z" fill="#F8F9FA"/>
<path d="M206.222 82.997C206.071 83.4623 205.565 83.7201 205.089 83.573C204.614 83.4259 204.35 82.9298 204.501 82.4645C204.651 81.9993 205.158 81.7415 205.633 81.8885C206.109 82.0356 206.372 82.532 206.222 82.997Z" fill="#ADB5BD"/>
<path d="M206.367 82.546C206.217 83.0113 205.71 83.2691 205.235 83.122C204.759 82.9749 204.496 82.4788 204.646 82.0135C204.796 81.5485 205.304 81.2905 205.779 81.4375C206.254 81.5846 206.517 82.081 206.367 82.546Z" fill="#F8F9FA"/>
<path d="M208.268 89.8921C208.394 90.1556 208.278 90.4691 208.009 90.5927C207.74 90.716 207.419 90.6025 207.293 90.339C207.167 90.0755 207.283 89.7619 207.552 89.6387C207.821 89.5151 208.142 89.6288 208.268 89.8921Z" fill="#ADB5BD"/>
<path d="M208.146 89.6368C208.272 89.9 208.156 90.2138 207.887 90.3371C207.618 90.4607 207.297 90.3472 207.171 90.0837C207.045 89.8202 207.161 89.5067 207.43 89.3831C207.699 89.2598 208.02 89.3733 208.146 89.6368Z" fill="#F8F9FA"/>
<path d="M214.536 82.6163C214.385 82.6909 214.072 82.3828 213.838 81.9282C213.758 81.7746 213.698 81.6237 213.659 81.4887C213.582 81.2243 213.586 81.0196 213.686 80.9704C213.837 80.8957 214.149 81.2038 214.384 81.6584C214.618 82.113 214.686 82.5417 214.536 82.6163Z" fill="#CED4DA"/>
<path d="M213.671 81.5272C213.671 81.5272 213.84 82.0323 214.1 82.338C213.948 82.4186 213.776 82.5116 213.603 82.6089C213.603 82.6089 213.408 81.9107 213.483 81.6064L213.671 81.5272Z" fill="#ADB5BD"/>
<path d="M210.317 78.4844C210.226 78.6233 209.797 78.5126 209.36 78.2368C209.212 78.1435 209.082 78.0432 208.979 77.9462C208.776 77.7562 208.673 77.578 208.734 77.4858C208.825 77.347 209.254 77.4577 209.691 77.7335C210.129 78.0091 210.409 78.3453 210.317 78.4844Z" fill="#CED4DA"/>
<path d="M209.008 77.9738C209.008 77.9738 209.383 78.3516 209.798 78.4601C209.7 78.6009 209.602 78.7592 209.503 78.9286C209.503 78.9286 208.985 78.436 208.892 78.1367L209.008 77.9738Z" fill="#ADB5BD"/>
<path d="M206.059 75.3588C206.049 75.5236 205.62 75.633 205.101 75.6026C204.925 75.5925 204.762 75.5676 204.622 75.5327C204.35 75.4646 204.172 75.3583 204.178 75.2492C204.188 75.0841 204.617 74.9747 205.137 75.0051C205.656 75.0354 206.069 75.1937 206.059 75.3588Z" fill="#CED4DA"/>
<path d="M204.662 75.5424C204.662 75.5424 205.193 75.6537 205.594 75.587C205.589 75.7559 205.584 75.9489 205.583 76.1435C205.583 76.1435 204.868 75.9577 204.637 75.7412L204.662 75.5424Z" fill="#ADB5BD"/>
<path d="M200.366 76.7385C200.443 76.8858 200.129 77.1925 199.666 77.4241C199.509 77.5022 199.355 77.5618 199.217 77.6007C198.947 77.6767 198.738 77.6734 198.688 77.5761C198.611 77.4287 198.924 77.1217 199.388 76.8907C199.852 76.6592 200.289 76.5914 200.366 76.7385Z" fill="#CED4DA"/>
<path d="M199.257 77.5894C199.257 77.5894 199.779 77.462 200.084 77.166C200.158 77.3199 200.249 77.4825 200.349 77.6509C200.349 77.6509 199.653 77.8417 199.342 77.7698L199.257 77.5894Z" fill="#ADB5BD"/>
<path d="M209.241 87.3919C209.211 87.9939 208.851 88.4657 208.438 88.4457C208.024 88.4261 207.713 87.922 207.743 87.32C207.773 86.7181 208.133 86.2463 208.546 86.2659C208.96 86.2859 209.271 86.7897 209.241 87.3919Z" fill="#ADB5BD"/>
<path d="M209.404 86.9912C209.373 87.5931 209.014 88.0649 208.6 88.0453C208.186 88.0253 207.875 87.5215 207.905 86.9196C207.935 86.3176 208.295 85.8455 208.709 85.8655C209.123 85.8851 209.434 86.3892 209.404 86.9912Z" fill="#F8F9FA"/>
<path d="M204.668 85.6484C204.929 86.1941 204.689 86.8439 204.131 87.0995C203.574 87.3553 202.91 87.1202 202.649 86.5743C202.388 86.0287 202.628 85.3789 203.185 85.1233C203.743 84.8674 204.407 85.1028 204.668 85.6484Z" fill="#ADB5BD"/>
<path d="M204.66 85.1984C204.922 85.744 204.681 86.3938 204.123 86.6497C203.566 86.9053 202.902 86.6699 202.641 86.1243C202.38 85.5787 202.62 84.9289 203.178 84.6733C203.736 84.4174 204.399 84.6525 204.66 85.1984Z" fill="#F8F9FA"/>
<path d="M209.872 89.856C209.951 89.9096 209.929 90.1086 209.789 90.4186C209.65 90.7286 209.381 91.1408 208.964 91.5872C208.756 91.8111 208.506 92.0364 208.222 92.2621C207.934 92.4808 207.613 92.7036 207.25 92.8988C206.531 93.2955 205.658 93.609 204.702 93.7498C203.745 93.8824 202.817 93.8258 202.011 93.6465C201.607 93.5609 201.234 93.4373 200.894 93.3083C200.556 93.1711 200.251 93.0251 199.987 92.8687C199.456 92.5574 199.078 92.2378 198.854 91.9798C198.63 91.7217 198.55 91.5372 198.611 91.4637C198.744 91.3026 199.376 91.6392 200.41 91.968C200.668 92.0517 200.954 92.1279 201.259 92.202C201.567 92.2676 201.895 92.3351 202.243 92.3751C202.938 92.4623 203.707 92.4704 204.495 92.3625C205.282 92.2455 206.017 92.0227 206.657 91.745C206.979 91.6094 207.273 91.4533 207.549 91.3043C207.821 91.1479 208.072 90.9948 208.295 90.8426C209.19 90.2382 209.698 89.7387 209.872 89.856Z" fill="#ADB5BD"/>
<path d="M66.7227 129.132C66.6314 129.169 66.5403 129.205 66.4501 129.245C66.5403 129.204 66.6322 129.166 66.7227 129.132ZM77.6588 137.212C77.7778 136.211 77.699 135.178 77.4019 134.171C77.9129 133.479 80.0995 132.338 80.0995 132.338L79.6903 131.518C78.7218 131.977 76.5375 132.231 76.5375 132.231C76.5878 132.308 76.6433 132.412 76.7011 132.53C75.6315 130.65 73.8625 129.357 71.8676 128.819C71.4984 128.069 71.5936 125.587 71.5936 125.587L70.6634 125.521C70.5838 126.547 69.7498 128.451 69.711 128.538C68.9396 128.543 68.161 128.659 67.398 128.893C66.7043 128.432 66.0831 127.166 66.0831 127.166L65.2464 127.57C65.6896 128.456 65.8499 129.417 65.8684 129.536C65.2517 129.874 64.6974 130.282 64.2106 130.746C63.3183 130.642 61.22 129.372 61.22 129.372L60.6955 130.141C61.4945 130.666 62.6318 132.084 62.8862 132.408C62.4407 133.159 62.1263 133.977 61.9554 134.829C61.1781 135.126 59.947 135.032 59.947 135.032L59.8923 135.954C60.7059 136.003 61.4719 136.231 61.8065 136.343C61.8079 137.032 61.9037 137.728 62.0998 138.413C61.3979 139.115 59.522 140.095 59.522 140.095L59.9367 140.925C60.7193 140.553 62.2844 140.314 62.8848 140.233C63.3395 141 63.912 141.666 64.5697 142.219C64.4354 143.024 63.7408 144.008 63.7408 144.008L64.5278 144.518C64.9819 143.852 65.5718 143.317 65.8374 143.092C66.8232 143.638 67.9208 143.974 69.0533 144.074C69.5705 144.864 70.0459 147.056 70.0459 147.056L70.9759 146.896C70.8326 146.085 71.0141 144.62 71.1046 143.993C71.7903 143.878 72.472 143.673 73.1328 143.371C73.4662 143.218 73.7824 143.043 74.0834 142.853C74.7808 143.289 75.4282 144.257 75.4282 144.257L76.2079 143.737C75.6781 142.971 75.3827 142.109 75.3131 141.893C76.1244 141.118 76.7464 140.189 77.1539 139.179C78.1478 139.092 80.243 139.559 80.243 139.559L80.4851 138.666C79.5512 138.421 77.9981 137.433 77.6588 137.212Z" fill="#CED4DA"/>
<path d="M75.7981 128.46L75.0208 127.955C74.4232 128.832 73.5068 129.53 73.5068 129.53C74.0283 129.789 74.9572 130.414 74.9572 130.414C74.996 129.594 75.7981 128.46 75.7981 128.46Z" fill="#CED4DA"/>
<path d="M75.7356 136.786C75.3245 136.764 75.0561 136.018 74.4992 135.099C74.4369 134.981 74.3506 134.867 74.2777 134.744C74.2006 134.624 74.1107 134.503 74.0266 134.378C73.8409 134.135 73.6485 133.881 73.4183 133.64C72.9684 133.152 72.4141 132.7 71.782 132.352C71.1433 132.015 70.4568 131.797 69.7952 131.685C69.4643 131.623 69.1417 131.599 68.8326 131.575C68.6795 131.573 68.5278 131.562 68.3821 131.563C68.2377 131.568 68.0925 131.558 67.9576 131.569C66.8658 131.599 66.0791 131.775 65.8406 131.446C65.7842 131.366 65.7708 131.263 65.8023 131.135C65.8353 131.011 65.9057 130.849 66.0353 130.689C66.2852 130.355 66.7483 129.974 67.4183 129.658C67.5842 129.573 67.7665 129.511 67.9576 129.439C68.1489 129.372 68.3539 129.319 68.5678 129.265C68.9973 129.174 69.4696 129.105 69.972 129.107C70.4733 129.11 71.0073 129.152 71.5477 129.286C72.0879 129.416 72.6369 129.615 73.1653 129.896C73.6895 130.183 74.1551 130.532 74.5553 130.909C74.9597 131.284 75.2803 131.704 75.5509 132.117C75.821 132.532 76.0129 132.96 76.164 133.364C76.2313 133.57 76.295 133.768 76.3388 133.962C76.3787 134.159 76.4231 134.343 76.4382 134.525C76.5226 135.248 76.4407 135.835 76.2855 136.221C76.2168 136.413 76.1143 136.558 76.0243 136.652C75.9308 136.746 75.8344 136.79 75.7356 136.786Z" fill="#EEECF0"/>
<path d="M61.2469 128.858C61.3905 128.949 61.2743 129.373 60.9877 129.805C60.8908 129.952 60.7867 130.08 60.6858 130.182C60.4884 130.383 60.3038 130.484 60.2088 130.423C60.0655 130.332 60.1817 129.908 60.4683 129.476C60.7551 129.043 61.1036 128.766 61.2469 128.858Z" fill="#CED4DA"/>
<path d="M60.7144 130.153C60.7144 130.153 61.0797 129.751 61.2201 129.372C61.3696 129.461 61.5402 129.561 61.7153 129.659C61.7153 129.659 61.1908 130.182 60.8808 130.274L60.7144 130.153Z" fill="#ADB5BD"/>
<path d="M59.704 134.574C59.8746 134.582 59.9941 135.005 59.9707 135.52C59.9628 135.695 59.9394 135.857 59.9056 135.995C59.8391 136.266 59.7316 136.444 59.6188 136.439C59.4481 136.432 59.3286 136.008 59.3521 135.493C59.3755 134.978 59.5333 134.567 59.704 134.574Z" fill="#CED4DA"/>
<path d="M59.915 135.956C59.915 135.956 60.0614 135.442 59.9472 135.032C60.1231 135.044 60.3144 135.048 60.5158 135.045C60.5158 135.045 60.3401 135.74 60.1198 135.972L59.915 135.956Z" fill="#ADB5BD"/>
<path d="M59.0811 139.813C59.2335 139.738 59.55 140.049 59.7876 140.509C59.8681 140.665 59.9292 140.817 59.9686 140.954C60.0462 141.222 60.0426 141.429 59.9415 141.479C59.789 141.554 59.4726 141.243 59.2349 140.783C58.9975 140.323 58.9286 139.889 59.0811 139.813Z" fill="#CED4DA"/>
<path d="M59.9568 140.915C59.9568 140.915 59.7859 140.404 59.522 140.095C59.6753 140.013 59.8501 139.919 60.0247 139.82C60.0247 139.82 60.2224 140.527 60.147 140.835L59.9568 140.915Z" fill="#ADB5BD"/>
<path d="M63.2147 143.983C63.3074 143.843 63.7414 143.955 64.1844 144.234C64.3341 144.328 64.4656 144.43 64.5706 144.528C64.7762 144.72 64.8798 144.901 64.8183 144.994C64.7259 145.135 64.2922 145.023 63.8492 144.743C63.4063 144.465 63.1223 144.124 63.2147 143.983Z" fill="#CED4DA"/>
<path d="M64.5408 144.5C64.5408 144.5 64.161 144.118 63.7412 144.008C63.8406 143.865 63.9401 143.705 64.0392 143.534C64.0392 143.534 64.5645 144.032 64.6587 144.335L64.5408 144.5Z" fill="#ADB5BD"/>
<path d="M69.6473 147.393C69.6157 147.229 70.0092 147.018 70.5267 146.922C70.7019 146.889 70.8683 146.874 71.0135 146.875C71.2981 146.876 71.5 146.937 71.521 147.046C71.5531 147.21 71.1593 147.421 70.6418 147.517C70.1243 147.613 69.6794 147.557 69.6473 147.393Z" fill="#CED4DA"/>
<path d="M70.9723 146.875C70.9723 146.875 70.4232 146.894 70.0462 147.056C70.0082 146.889 69.9646 146.699 69.916 146.507C69.916 146.507 70.6648 146.517 70.9463 146.674L70.9723 146.875Z" fill="#ADB5BD"/>
<path d="M75.2067 144.725C75.1084 144.588 75.3785 144.237 75.8097 143.941C75.9552 143.841 76.101 143.76 76.2334 143.702C76.4928 143.588 76.7028 143.562 76.7676 143.653C76.8659 143.79 76.5962 144.141 76.1649 144.437C75.7337 144.733 75.3048 144.862 75.2067 144.725Z" fill="#CED4DA"/>
<path d="M76.196 143.718C76.196 143.718 75.6911 143.918 75.4288 144.257C75.3313 144.113 75.2174 143.963 75.0923 143.808C75.0923 143.808 75.7623 143.52 76.0846 143.549L76.196 143.718Z" fill="#ADB5BD"/>
<path d="M80.3879 140.055C80.2223 140.014 80.1918 139.576 80.32 139.076C80.3633 138.907 80.4195 138.752 80.4809 138.624C80.6013 138.372 80.7429 138.218 80.8526 138.245C81.0182 138.285 81.049 138.724 80.9208 139.223C80.7923 139.723 80.5538 140.096 80.3879 140.055Z" fill="#CED4DA"/>
<path d="M80.4634 138.66C80.4634 138.66 80.2506 139.156 80.2431 139.559C80.0721 139.523 79.8772 139.482 79.6792 139.444C79.6792 139.444 80.0026 138.784 80.2662 138.599L80.4634 138.66Z" fill="#ADB5BD"/>
<path d="M67.1577 138.749C67.4192 139.294 67.3267 139.876 66.9516 140.048C66.5763 140.221 66.0607 139.917 65.7993 139.372C65.5382 138.826 65.6306 138.244 66.0054 138.072C66.3808 137.9 66.8966 138.203 67.1577 138.749Z" fill="#ADB5BD"/>
<path d="M66.635 138.307C66.8961 138.852 66.804 139.434 66.4289 139.606C66.0535 139.778 65.538 139.475 65.2766 138.93C65.0152 138.384 65.1076 137.802 65.4827 137.63C65.858 137.458 66.3739 137.761 66.635 138.307Z" fill="#F8F9FA"/>
<path d="M64.1658 133.197C64.5362 132.715 65.1048 132.523 65.4355 132.766C65.7667 133.01 65.7346 133.598 65.3642 134.08C64.9936 134.561 64.4253 134.754 64.0946 134.51C63.7634 134.266 63.7955 133.678 64.1658 133.197Z" fill="#ADB5BD"/>
<path d="M63.6189 132.815C63.9895 132.333 64.5578 132.141 64.8887 132.384C65.2197 132.628 65.1879 133.216 64.8173 133.698C64.4469 134.179 63.8786 134.372 63.5476 134.128C63.2167 133.884 63.2485 133.296 63.6189 132.815Z" fill="#F8F9FA"/>
<path d="M70.577 140.802C70.7488 141.162 70.5904 141.589 70.2237 141.757C69.8564 141.926 69.4197 141.771 69.2476 141.412C69.0759 141.052 69.2339 140.625 69.6006 140.457C69.9679 140.288 70.4047 140.443 70.577 140.802Z" fill="#ADB5BD"/>
<path d="M70.4098 140.454C70.5818 140.813 70.4237 141.241 70.0565 141.409C69.6898 141.577 69.2524 141.423 69.0807 141.063C68.9089 140.704 69.0667 140.276 69.434 140.108C69.8009 139.94 70.238 140.095 70.4098 140.454Z" fill="#F8F9FA"/>
<path d="M72.2217 132.997C72.0714 133.462 71.5645 133.72 71.0892 133.573C70.6138 133.426 70.3505 132.93 70.5007 132.465C70.651 131.999 71.1582 131.741 71.6335 131.889C72.1086 132.036 72.3719 132.532 72.2217 132.997Z" fill="#ADB5BD"/>
<path d="M72.3674 132.546C72.2172 133.011 71.7097 133.269 71.2347 133.122C70.7594 132.975 70.496 132.479 70.6462 132.014C70.7965 131.549 71.3037 131.29 71.7787 131.438C72.2541 131.585 72.5174 132.081 72.3674 132.546Z" fill="#F8F9FA"/>
<path d="M74.2678 139.892C74.3937 140.156 74.2778 140.469 74.0089 140.593C73.7396 140.716 73.419 140.603 73.2931 140.339C73.1671 140.075 73.283 139.762 73.5523 139.639C73.8212 139.515 74.1415 139.629 74.2678 139.892Z" fill="#ADB5BD"/>
<path d="M74.1458 139.637C74.2717 139.9 74.1558 140.214 73.8866 140.337C73.6176 140.461 73.2973 140.347 73.1713 140.084C73.0448 139.82 73.1607 139.507 73.43 139.383C73.6992 139.26 74.0198 139.373 74.1458 139.637Z" fill="#F8F9FA"/>
<path d="M80.5356 132.616C80.3848 132.691 80.0723 132.383 79.838 131.928C79.7584 131.775 79.6983 131.624 79.6592 131.489C79.5824 131.224 79.5863 131.02 79.6863 130.97C79.8371 130.896 80.1494 131.204 80.3839 131.658C80.6183 132.113 80.6864 132.542 80.5356 132.616Z" fill="#CED4DA"/>
<path d="M79.6706 131.527C79.6706 131.527 79.8396 132.032 80.0999 132.338C79.9485 132.419 79.7756 132.512 79.6033 132.609C79.6033 132.609 79.4081 131.911 79.4829 131.606L79.6706 131.527Z" fill="#ADB5BD"/>
<path d="M76.3174 128.484C76.2261 128.623 75.7974 128.513 75.36 128.237C75.212 128.144 75.0821 128.043 74.9785 127.946C74.7758 127.756 74.673 127.578 74.7336 127.486C74.8252 127.347 75.2539 127.458 75.6912 127.734C76.1286 128.009 76.409 128.345 76.3174 128.484Z" fill="#CED4DA"/>
<path d="M75.0081 127.974C75.0081 127.974 75.3831 128.352 75.7979 128.46C75.6996 128.601 75.6015 128.759 75.5032 128.929C75.5032 128.929 74.9846 128.436 74.8916 128.137L75.0081 127.974Z" fill="#ADB5BD"/>
<path d="M72.0588 125.359C72.0488 125.524 71.6198 125.633 71.1006 125.603C70.9249 125.593 70.7615 125.568 70.6225 125.533C70.3504 125.465 70.1717 125.358 70.1784 125.249C70.1885 125.084 70.6174 124.975 71.1366 125.005C71.6561 125.035 72.0689 125.194 72.0588 125.359Z" fill="#CED4DA"/>
<path d="M70.6618 125.542C70.6618 125.542 71.1927 125.654 71.5937 125.587C71.589 125.756 71.5837 125.949 71.5831 126.144C71.5831 126.144 70.8682 125.958 70.6372 125.741L70.6618 125.542Z" fill="#ADB5BD"/>
<path d="M66.3661 126.738C66.4429 126.886 66.1292 127.193 65.6659 127.424C65.5089 127.502 65.3553 127.562 65.2174 127.601C64.9473 127.677 64.7384 127.673 64.6878 127.576C64.611 127.429 64.9244 127.122 65.388 126.891C65.8516 126.659 66.2893 126.591 66.3661 126.738Z" fill="#CED4DA"/>
<path d="M65.2568 127.589C65.2568 127.589 65.7791 127.462 66.0835 127.166C66.1581 127.32 66.2486 127.483 66.3488 127.651C66.3488 127.651 65.6531 127.842 65.3417 127.77L65.2568 127.589Z" fill="#ADB5BD"/>
<path d="M75.2411 137.392C75.2109 137.994 74.8512 138.466 74.4376 138.446C74.0237 138.426 73.7126 137.922 73.7427 137.32C73.7729 136.718 74.1326 136.246 74.5462 136.266C74.9601 136.286 75.271 136.79 75.2411 137.392Z" fill="#ADB5BD"/>
<path d="M75.4039 136.991C75.3735 137.593 75.0138 138.065 74.6002 138.045C74.1863 138.025 73.8754 137.521 73.9053 136.92C73.9355 136.318 74.2952 135.846 74.7088 135.865C75.1227 135.885 75.4338 136.389 75.4039 136.991Z" fill="#F8F9FA"/>
<path d="M70.6682 135.648C70.9293 136.194 70.6891 136.844 70.1314 137.099C69.574 137.355 68.9101 137.12 68.649 136.574C68.3879 136.029 68.628 135.379 69.1855 135.123C69.7432 134.867 70.4068 135.103 70.6682 135.648Z" fill="#ADB5BD"/>
<path d="M70.6602 135.198C70.9216 135.744 70.6812 136.394 70.1234 136.65C69.566 136.905 68.9021 136.67 68.6413 136.124C68.3799 135.579 68.6203 134.929 69.1778 134.673C69.7355 134.417 70.3991 134.653 70.6602 135.198Z" fill="#F8F9FA"/>
<path d="M75.8718 139.856C75.9514 139.91 75.9294 140.109 75.7894 140.419C75.6504 140.729 75.3809 141.141 74.9636 141.587C74.7555 141.811 74.5059 142.036 74.2221 142.262C73.9336 142.481 73.613 142.704 73.2505 142.899C72.5305 143.295 71.6583 143.609 70.7023 143.75C69.7447 143.882 68.8172 143.826 68.0112 143.646C67.6068 143.561 67.2345 143.437 66.894 143.308C66.5564 143.171 66.2511 143.025 65.9867 142.869C65.4563 142.557 65.0776 142.238 64.8542 141.98C64.6299 141.722 64.5503 141.537 64.6109 141.464C64.7438 141.303 65.3761 141.639 66.4103 141.968C66.6678 142.052 66.9538 142.128 67.2593 142.202C67.5674 142.268 67.895 142.335 68.2433 142.375C68.9381 142.462 69.7072 142.47 70.4954 142.362C71.2821 142.245 72.0166 142.023 72.657 141.745C72.979 141.609 73.2734 141.453 73.5493 141.304C73.8205 141.148 74.0721 140.995 74.2947 140.843C75.1895 140.238 75.6976 139.739 75.8718 139.856Z" fill="#ADB5BD"/>
<path d="M125.381 87.4186C125.057 87.5494 124.734 87.6774 124.415 87.8208C124.734 87.6745 125.06 87.5407 125.381 87.4186ZM164.155 116.067C164.576 112.517 164.297 108.856 163.244 105.284C165.056 102.83 172.808 98.7853 172.808 98.7853L171.357 95.8768C167.923 97.507 160.179 98.4074 160.179 98.4074C160.357 98.6778 160.554 99.047 160.759 99.4647C156.967 92.7996 150.695 88.2162 143.622 86.3079C142.313 83.6494 142.651 74.85 142.651 74.85L139.353 74.6155C139.07 78.2548 136.114 85.0043 135.976 85.3144C133.241 85.329 130.48 85.7428 127.775 86.5696C125.316 84.9374 123.114 80.4481 123.114 80.4481L120.147 81.8796C121.718 85.0227 122.287 88.4304 122.352 88.8501C120.166 90.048 118.2 91.495 116.474 93.1398C113.311 92.7715 105.871 88.2705 105.871 88.2705L104.012 90.9949C106.845 92.8587 110.877 97.885 111.779 99.0335C110.199 101.695 109.085 104.598 108.479 107.616C105.723 108.669 101.358 108.336 101.358 108.336L101.164 111.607C104.048 111.779 106.765 112.588 107.951 112.984C107.956 115.428 108.295 117.895 108.991 120.323C106.502 122.814 99.8511 126.286 99.8511 126.286L101.322 129.23C104.096 127.913 109.645 127.064 111.774 126.776C113.386 129.496 115.416 131.857 117.748 133.82C117.271 136.672 114.809 140.16 114.809 140.16L117.599 141.97C119.209 139.607 121.3 137.71 122.242 136.912C125.738 138.848 129.629 140.042 133.644 140.396C135.478 143.195 137.163 150.969 137.163 150.969L140.461 150.402C139.953 147.526 140.596 142.332 140.917 140.109C143.348 139.699 145.765 138.975 148.108 137.901C149.29 137.358 150.411 136.74 151.478 136.065C153.951 137.611 156.246 141.044 156.246 141.044L159.011 139.199C157.132 136.486 156.085 133.428 155.838 132.661C158.715 129.913 160.92 126.623 162.364 123.04C165.888 122.731 173.317 124.389 173.317 124.389L174.175 121.221C170.864 120.351 165.358 116.848 164.155 116.067Z" fill="#8F53BF"/>
<path d="M157.556 85.0364L154.8 83.2472C152.681 86.3564 149.433 88.8308 149.433 88.8308C151.281 89.7476 154.575 91.9623 154.575 91.9623C154.712 89.0566 157.556 85.0364 157.556 85.0364Z" fill="#8F53BF"/>
<path d="M157.335 114.555C155.877 114.477 154.926 111.834 152.951 108.573C152.73 108.158 152.424 107.751 152.166 107.317C151.893 106.889 151.574 106.463 151.276 106.019C150.617 105.157 149.935 104.255 149.119 103.402C147.524 101.673 145.558 100.071 143.318 98.8349C141.053 97.6389 138.619 96.8665 136.273 96.4691C135.1 96.2501 133.956 96.1667 132.86 96.0814C132.318 96.0717 131.78 96.0349 131.263 96.0368C130.751 96.0543 130.236 96.0194 129.758 96.0582C125.887 96.1648 123.098 96.788 122.252 95.623C122.052 95.3409 122.005 94.9736 122.117 94.521C122.234 94.08 122.483 93.5063 122.943 92.9393C123.829 91.7549 125.471 90.4039 127.846 89.2825C128.434 88.9811 129.081 88.764 129.758 88.5091C130.436 88.2697 131.163 88.0826 131.922 87.8897C133.445 87.568 135.119 87.3228 136.9 87.3295C138.678 87.3412 140.571 87.4885 142.487 87.9653C144.402 88.4247 146.349 89.1323 148.222 90.1286C150.081 91.1463 151.731 92.381 153.15 93.7204C154.584 95.0502 155.721 96.5379 156.68 98.0033C157.638 99.4746 158.318 100.99 158.854 102.423C159.092 103.155 159.318 103.854 159.474 104.544C159.615 105.241 159.773 105.893 159.826 106.54C160.125 109.104 159.835 111.184 159.284 112.551C159.041 113.233 158.677 113.747 158.359 114.079C158.027 114.413 157.685 114.569 157.335 114.555Z" fill="#BE99E3"/>
<path d="M105.966 86.4458C106.475 86.7686 106.063 88.2737 105.047 89.806C104.703 90.3245 104.334 90.7791 103.977 91.1425C103.277 91.853 102.622 92.2106 102.285 91.9974C101.777 91.6736 102.189 90.1695 103.205 88.6372C104.222 87.1039 105.458 86.1221 105.966 86.4458Z" fill="#8F53BF"/>
<path d="M104.079 91.0397C104.079 91.0397 105.374 89.6141 105.872 88.2707C106.402 88.5848 107.007 88.9414 107.627 89.2884C107.627 89.2884 105.768 91.1425 104.669 91.4662L104.079 91.0397Z" fill="#624D9E"/>
<path d="M100.496 106.715C101.101 106.742 101.525 108.243 101.441 110.068C101.414 110.686 101.331 111.261 101.211 111.752C100.975 112.711 100.594 113.344 100.194 113.327C99.5888 113.299 99.165 111.798 99.2482 109.973C99.3314 108.147 99.8909 106.688 100.496 106.715Z" fill="#8F53BF"/>
<path d="M101.245 111.612C101.245 111.612 101.763 109.791 101.358 108.336C101.982 108.38 102.661 108.392 103.374 108.384C103.374 108.384 102.752 110.848 101.97 111.671L101.245 111.612Z" fill="#624D9E"/>
<path d="M98.2869 125.288C98.8275 125.021 99.9494 126.126 100.792 127.757C101.077 128.308 101.294 128.849 101.434 129.334C101.709 130.284 101.696 131.017 101.338 131.195C100.797 131.462 99.6751 130.357 98.8325 128.726C97.9908 127.095 97.7463 125.556 98.2869 125.288Z" fill="#8F53BF"/>
<path d="M101.393 129.196C101.393 129.196 100.787 127.384 99.8511 126.286C100.395 125.997 101.015 125.663 101.633 125.313C101.633 125.313 102.334 127.819 102.067 128.911L101.393 129.196Z" fill="#624D9E"/>
<path d="M112.944 140.074C113.272 139.576 114.811 139.973 116.382 140.962C116.912 141.297 117.379 141.656 117.751 142.004C118.48 142.686 118.847 143.326 118.629 143.657C118.302 144.156 116.764 143.758 115.193 142.769C113.623 141.78 112.616 140.574 112.944 140.074Z" fill="#8F53BF"/>
<path d="M117.644 141.905C117.644 141.905 116.298 140.55 114.81 140.161C115.162 139.656 115.515 139.088 115.866 138.479C115.866 138.479 117.729 140.246 118.062 141.321L117.644 141.905Z" fill="#624D9E"/>
<path d="M135.749 152.163C135.638 151.58 137.033 150.831 138.868 150.491C139.488 150.377 140.079 150.324 140.593 150.324C141.602 150.328 142.318 150.545 142.393 150.931C142.507 151.515 141.11 152.263 139.276 152.603C137.441 152.943 135.863 152.746 135.749 152.163Z" fill="#8F53BF"/>
<path d="M140.447 150.324C140.447 150.324 138.5 150.393 137.164 150.969C137.029 150.377 136.874 149.701 136.702 149.023C136.702 149.023 139.357 149.058 140.355 149.613L140.447 150.324Z" fill="#624D9E"/>
<path d="M155.46 142.703C155.112 142.217 156.069 140.973 157.598 139.923C158.114 139.568 158.631 139.281 159.1 139.076C160.02 138.673 160.765 138.581 160.994 138.902C161.343 139.388 160.386 140.632 158.858 141.682C157.329 142.732 155.808 143.188 155.46 142.703Z" fill="#8F53BF"/>
<path d="M158.967 139.134C158.967 139.134 157.177 139.844 156.247 141.045C155.902 140.535 155.498 140.002 155.054 139.452C155.054 139.452 157.43 138.432 158.572 138.535L158.967 139.134Z" fill="#624D9E"/>
<path d="M173.829 126.146C173.242 126.001 173.134 124.447 173.589 122.674C173.742 122.075 173.941 121.528 174.159 121.071C174.586 120.178 175.088 119.632 175.477 119.727C176.064 119.871 176.173 121.426 175.719 123.198C175.263 124.97 174.418 126.29 173.829 126.146Z" fill="#8F53BF"/>
<path d="M174.098 121.201C174.098 121.201 173.343 122.96 173.317 124.389C172.711 124.259 172.019 124.114 171.317 123.981C171.317 123.981 172.464 121.638 173.399 120.985L174.098 121.201Z" fill="#624D9E"/>
<path d="M126.923 121.515C127.849 123.45 127.522 125.513 126.192 126.123C124.861 126.733 123.033 125.658 122.106 123.724C121.181 121.789 121.508 119.726 122.837 119.116C124.168 118.506 125.997 119.58 126.923 121.515Z" fill="#624D9E"/>
<path d="M125.07 119.947C125.996 121.881 125.669 123.945 124.339 124.555C123.008 125.164 121.18 124.09 120.254 122.156C119.327 120.22 119.654 118.158 120.984 117.547C122.315 116.938 124.144 118.012 125.07 119.947Z" fill="#DFB4EA"/>
<path d="M116.315 101.83C117.628 100.123 119.644 99.4397 120.816 100.304C121.99 101.169 121.876 103.253 120.563 104.96C119.249 106.668 117.234 107.35 116.062 106.487C114.888 105.621 115.002 103.537 116.315 101.83Z" fill="#624D9E"/>
<path d="M114.375 100.476C115.689 98.7689 117.704 98.0856 118.878 98.9501C120.051 99.8147 119.938 101.899 118.624 103.607C117.311 105.314 115.296 105.997 114.123 105.133C112.949 104.267 113.062 102.182 114.375 100.476Z" fill="#DFB4EA"/>
<path d="M139.045 128.796C139.654 130.069 139.092 131.586 137.792 132.182C136.49 132.778 134.941 132.231 134.331 130.956C133.723 129.683 134.283 128.166 135.583 127.57C136.885 126.973 138.434 127.521 139.045 128.796Z" fill="#624D9E"/>
<path d="M138.453 127.56C139.063 128.835 138.503 130.35 137.2 130.947C135.9 131.543 134.35 130.995 133.741 129.721C133.132 128.448 133.691 126.931 134.993 126.335C136.295 125.738 137.844 126.287 138.453 127.56Z" fill="#DFB4EA"/>
<path d="M144.876 101.122C144.344 102.772 142.546 103.686 140.861 103.164C139.176 102.643 138.242 100.884 138.775 99.2342C139.307 97.5846 141.106 96.6707 142.791 97.1921C144.475 97.7135 145.409 99.4736 144.876 101.122Z" fill="#624D9E"/>
<path d="M145.394 99.5231C144.861 101.173 143.062 102.087 141.378 101.565C139.692 101.044 138.759 99.2846 139.291 97.6351C139.824 95.9865 141.622 95.0715 143.307 95.593C144.992 96.1144 145.926 97.8745 145.394 99.5231Z" fill="#DFB4EA"/>
<path d="M152.131 125.568C152.578 126.503 152.167 127.614 151.213 128.052C150.259 128.489 149.122 128.087 148.676 127.153C148.229 126.219 148.64 125.107 149.594 124.67C150.548 124.232 151.684 124.635 152.131 125.568Z" fill="#624D9E"/>
<path d="M151.698 124.663C152.144 125.596 151.734 126.709 150.779 127.146C149.826 127.584 148.69 127.182 148.243 126.248C147.795 125.313 148.206 124.202 149.16 123.764C150.115 123.327 151.251 123.729 151.698 124.663Z" fill="#DFB4EA"/>
<path d="M174.354 99.7722C173.819 100.037 172.711 98.9445 171.881 97.3327C171.598 96.788 171.386 96.253 171.247 95.7742C170.975 94.837 170.988 94.1111 171.343 93.9366C171.878 93.672 172.985 94.7643 173.816 96.3761C174.647 97.9879 174.889 99.5076 174.354 99.7722Z" fill="#8F53BF"/>
<path d="M171.287 95.9109C171.287 95.9109 171.886 97.7019 172.809 98.7855C172.272 99.0714 171.659 99.401 171.048 99.746C171.048 99.746 170.356 97.2706 170.622 96.1919L171.287 95.9109Z" fill="#624D9E"/>
<path d="M159.398 85.1228C159.074 85.6152 157.554 85.2227 156.003 84.2447C155.479 83.9142 155.018 83.5586 154.651 83.2145C153.932 82.5409 153.568 81.909 153.782 81.5823C154.107 81.09 155.627 81.4825 157.178 82.4604C158.728 83.4374 159.723 84.6295 159.398 85.1228Z" fill="#8F53BF"/>
<path d="M154.756 83.3123C154.756 83.3123 156.086 84.6517 157.556 85.0365C157.208 85.5356 156.86 86.0968 156.512 86.6977C156.512 86.6977 154.673 84.9512 154.343 83.8899L154.756 83.3123Z" fill="#624D9E"/>
<path d="M144.299 74.0409C144.263 74.6254 142.742 75.013 140.902 74.9055C140.279 74.8696 139.699 74.7814 139.206 74.6573C138.242 74.416 137.608 74.039 137.632 73.6523C137.668 73.0669 139.189 72.6792 141.029 72.7868C142.871 72.8944 144.335 73.4556 144.299 74.0409Z" fill="#8F53BF"/>
<path d="M139.347 74.6922C139.347 74.6922 141.229 75.0866 142.651 74.8501C142.634 75.4491 142.616 76.1334 142.614 76.8234C142.614 76.8234 140.079 76.1644 139.26 75.3968L139.347 74.6922Z" fill="#624D9E"/>
<path d="M124.116 78.9324C124.388 79.4548 123.276 80.5422 121.634 81.3631C121.077 81.6403 120.533 81.8516 120.043 81.9893C119.086 82.2587 118.345 82.2471 118.166 81.902C117.894 81.3796 119.005 80.2912 120.648 79.4722C122.292 78.6513 123.844 78.411 124.116 78.9324Z" fill="#8F53BF"/>
<path d="M120.184 81.9495C120.184 81.9495 122.035 81.4978 123.115 80.4482C123.379 80.9939 123.7 81.5705 124.055 82.1676C124.055 82.1676 121.589 82.8441 120.485 82.5892L120.184 81.9495Z" fill="#624D9E"/>
<path d="M155.582 116.704C155.475 118.838 154.2 120.511 152.733 120.44C151.266 120.37 150.163 118.583 150.27 116.449C150.377 114.315 151.652 112.642 153.119 112.712C154.586 112.783 155.688 114.569 155.582 116.704Z" fill="#624D9E"/>
<path d="M156.16 115.283C156.052 117.417 154.776 119.09 153.31 119.02C151.843 118.95 150.74 117.164 150.846 115.029C150.953 112.895 152.229 111.221 153.695 111.292C155.163 111.362 156.266 113.149 156.16 115.283Z" fill="#DFB4EA"/>
<path d="M139.369 110.523C140.295 112.457 139.443 114.761 137.466 115.667C135.49 116.574 133.136 115.741 132.21 113.805C131.284 111.871 132.136 109.567 134.112 108.661C136.09 107.754 138.442 108.588 139.369 110.523Z" fill="#624D9E"/>
<path d="M139.34 108.927C140.267 110.862 139.414 113.165 137.437 114.073C135.461 114.979 133.107 114.144 132.182 112.21C131.255 110.275 132.108 107.971 134.084 107.065C136.062 106.158 138.414 106.992 139.34 108.927Z" fill="#DFB4EA"/>
<path d="M157.819 125.44C158.101 125.63 158.023 126.336 157.527 127.435C157.034 128.534 156.078 129.996 154.599 131.578C153.861 132.372 152.976 133.171 151.97 133.971C150.947 134.747 149.81 135.537 148.525 136.229C145.972 137.635 142.88 138.747 139.491 139.246C136.095 139.716 132.807 139.515 129.949 138.879C128.515 138.576 127.196 138.138 125.988 137.68C124.791 137.194 123.709 136.676 122.771 136.122C120.891 135.018 119.548 133.885 118.756 132.97C117.961 132.055 117.679 131.401 117.894 131.14C118.365 130.569 120.607 131.763 124.273 132.928C125.186 133.225 126.2 133.495 127.284 133.758C128.376 133.991 129.537 134.23 130.772 134.372C133.236 134.681 135.963 134.71 138.757 134.327C141.546 133.912 144.15 133.122 146.421 132.138C147.563 131.657 148.606 131.103 149.585 130.575C150.546 130.021 151.438 129.478 152.227 128.938C155.4 126.795 157.201 125.025 157.819 125.44Z" fill="#624D9E"/>
</svg>
