<svg width="122" height="130" viewBox="0 0 122 130" fill="none" xmlns="http://www.w3.org/2000/svg">
<path d="M87.2268 84.6749C81.8153 83.0876 76.32 86.6332 72.0405 90.291C67.7609 93.9487 63.1609 98.1586 57.5212 98.1787C51.8181 98.1988 47.1574 93.9343 42.8259 90.2421C38.4915 86.5498 32.8923 82.9841 27.449 84.6836C25.4247 85.3162 23.6719 86.6303 21.6679 87.3205C17.5298 88.7439 12.8287 87.2658 9.36348 84.6002C8.50584 83.9417 7.71173 83.2199 6.96094 82.4492C8.51451 89.434 10.4233 96.1686 14.1599 102.596C17.2237 107.864 21.0788 112.652 25.6124 116.651C37.5963 127.231 54.2668 132.122 69.791 129.134C85.3151 126.147 99.2914 115.179 105.748 100.356C106.008 99.7603 106.254 99.1621 106.49 98.5583C102.78 96.8818 99.3492 94.6043 96.4124 91.7863C93.5854 89.0774 90.9894 85.7792 87.2268 84.6749Z" fill="#ABFEE6"/>
<path d="M121.62 51.2351C122.85 43.701 120.623 34.7752 113.99 31.3331C107.779 28.1096 99.8032 30.6401 93.6755 27.2527C87.4728 23.825 85.5005 15.8078 81.3278 9.97615C76.003 2.53413 66.3524 -1.33929 57.5305 0.420568C48.7115 2.1833 41.1718 9.49305 38.9454 18.4419C37.9318 22.5166 37.9492 26.7811 37.389 30.9478C36.8259 35.1145 35.5495 39.4164 32.5406 42.2632C27.3861 47.1402 19.1908 46.151 12.913 49.3516C3.96701 53.9122 3.19022 64.5462 5.06432 73.4289C5.70828 76.477 6.30314 79.4848 6.96153 82.4496C7.71232 83.2174 8.50643 83.942 9.36407 84.6005C12.8293 87.2662 17.5275 88.7442 21.6685 87.3208C23.6754 86.6307 25.4253 85.3165 27.4496 84.6839C32.8929 82.9844 38.4921 86.5502 42.8265 90.2424C47.1609 93.9347 51.8187 98.2021 57.5218 98.179C63.1615 98.1589 67.7615 93.9491 72.0411 90.2913C76.3206 86.6336 81.8159 83.088 87.2274 84.6753C90.99 85.7795 93.586 89.0778 96.4102 91.7895C99.3469 94.6076 102.777 96.885 106.488 98.5615C109.754 90.2367 111.013 81.1728 114.019 72.7215C116.569 65.5469 120.389 58.7662 121.62 51.2351Z" fill="#DCFBF3"/>
<path d="M32.0841 24.2424C31.778 27.6672 30.0887 30.9511 27.4754 33.1969C24.4866 35.7677 20.5449 36.8921 16.739 37.9445C14.6743 38.5168 12.6096 39.089 10.5449 39.6613C9.38984 39.9805 8.20878 40.3054 7.01328 40.2163C4.93416 40.0639 3.11203 38.6606 1.93386 36.9438C-0.537988 33.3436 -0.506223 28.4263 1.2697 24.4408C3.04562 20.4552 6.34623 17.3122 9.99048 14.8996C12.8204 13.0276 15.9737 11.5064 19.3523 11.1383C22.6212 10.7817 26.6755 11.6444 28.9538 14.1979C31.2726 16.7975 32.3873 20.8348 32.0841 24.2424Z" fill="#DCFBF3"/>
<path d="M41.3712 12.9353L41.3711 12.9354C41.0312 13.15 40.9077 13.5201 40.8632 13.8387C40.8173 14.1674 40.8383 14.557 40.8904 14.968C40.9872 15.7325 41.2099 16.6978 41.4473 17.7263C41.4658 17.8066 41.4844 17.8873 41.5031 17.9683C42.0305 20.2588 42.5905 22.8367 42.2716 24.7875C42.2456 24.9463 42.2188 25.1098 42.1913 25.2774C41.8616 27.2855 41.4335 29.8934 41.2106 32.3243C41.0899 33.6414 41.028 34.92 41.077 36.0325C41.1253 37.1307 41.2831 38.1264 41.6424 38.8388L41.3712 12.9353ZM41.3712 12.9353C41.7387 12.7034 42.6752 12.3163 43.9713 11.874C45.2901 11.4239 47.0329 10.8995 49.0534 10.4002C53.0914 9.40249 58.2605 8.49975 63.3845 8.49975C69.414 8.49975 75.0397 9.59929 79.2304 10.8392C81.326 11.4592 83.0704 12.1166 84.3333 12.6938C84.9637 12.982 85.4827 13.2541 85.8684 13.4958C86.0608 13.6165 86.2284 13.7348 86.3628 13.8489C86.4875 13.9549 86.6229 14.0897 86.704 14.2504C86.7768 14.3947 86.8114 14.5608 86.8309 14.7099C86.8515 14.8671 86.8601 15.0464 86.8604 15.2394C86.8611 15.6257 86.8289 16.1043 86.7745 16.6422C86.6655 17.7198 86.4627 19.0804 86.23 20.5068C86.0598 21.5498 85.8742 22.6263 85.696 23.6595C85.3833 25.4722 85.0936 27.1517 84.9512 28.2836L84.9511 28.2837M41.3712 12.9353L84.9511 28.2837M84.9511 28.2837C84.8451 29.1248 84.8765 30.2208 84.9677 31.4459C85.0242 32.2041 85.1014 32.989 85.1792 33.779C85.2272 34.2674 85.2755 34.7578 85.3191 35.245C85.4319 36.5033 85.5125 37.7283 85.4613 38.7442C85.4357 39.2527 85.3763 39.7272 85.2635 40.1368C85.1519 40.5424 84.9775 40.9234 84.6943 41.2043C84.2233 41.6715 83.5016 42.0656 82.5139 42.4017C81.5201 42.74 80.2196 43.0319 78.5544 43.2719C75.2239 43.7518 70.3796 44.0312 63.4974 44.0312C56.5991 44.0312 51.5102 43.4148 47.975 42.4778M84.9511 28.2837L47.975 42.4778M47.975 42.4778C46.2075 42.0094 44.8139 41.4571 43.7725 40.8517M47.975 42.4778L43.7725 40.8517M43.7725 40.8517C42.7369 40.2496 42.0127 39.5733 41.6424 38.8389L43.7725 40.8517Z" fill="white" stroke="#192E35"/>
<mask id="path-5-outside-1_5040_8113" maskUnits="userSpaceOnUse" x="43.8066" y="14" width="39" height="107" fill="black">
<rect fill="white" x="43.8066" y="14" width="39" height="107"/>
<path fill-rule="evenodd" clip-rule="evenodd" d="M76.6393 25.4695C77.3215 24.279 76.131 22.6007 75.0365 21.7777C75.4767 21.0369 75.1485 20.0307 74.5214 19.4415C73.8944 18.8523 73.0436 18.5806 72.2231 18.3262C71.8609 17.3228 72.1059 17.1543 72.3213 17.0062C72.5137 16.8738 72.6825 16.7578 72.3731 16.0766C71.1642 14.7219 66.4412 14.7783 64.7855 15.5156C64.7134 15.5477 64.6416 15.5809 64.5696 15.6142L64.5695 15.6142C64.2376 15.7676 63.9038 15.922 63.5433 15.9691C63.3318 15.9969 63.1184 15.9866 62.9048 15.9763C62.7935 15.9709 62.6821 15.9655 62.5709 15.9655C60.7862 15.9651 59.2121 17.4404 58.7479 19.172C58.7334 19.226 58.7197 19.2803 58.7061 19.3348L58.7061 19.3348L58.706 19.3349L58.706 19.3349L58.706 19.335L58.706 19.335L58.706 19.3351L58.706 19.3351L58.706 19.3352L58.7059 19.3352L58.7059 19.3353L58.7059 19.3353C58.6495 19.56 58.5928 19.7857 58.4775 19.9852C58.3472 20.2109 58.1525 20.3858 57.9575 20.561L57.9575 20.561L57.9575 20.561L57.9574 20.561L57.9574 20.561L57.9574 20.5611L57.9574 20.5611L57.9574 20.5611L57.9574 20.5611C57.8712 20.6385 57.785 20.716 57.7043 20.7979C57.1348 21.3758 56.836 22.2127 56.9101 23.0228C56.9202 23.1341 56.937 23.2456 56.957 23.3572L55.9181 25.3064C55.667 26.0136 55.9274 27.0383 56.2093 28.1475C56.3236 28.5974 56.4414 29.0611 56.5301 29.5232C55.5428 30.7087 53.8861 32.7187 52.252 34.7957C51.9858 34.5405 51.5296 33.5003 51.1323 32.5942C51.0171 32.3315 50.9069 32.0801 50.8076 31.8623C50.2816 30.7063 48.6769 30.4768 47.5893 32.2771C46.7175 33.7206 48.4071 36.2801 49.4221 37.8178C49.5095 37.9502 49.5919 38.075 49.6672 38.1909C48.681 39.5462 47.8983 40.7246 47.5635 41.4584C46.36 44.0951 50.4036 47.143 54.2643 48.7697C56.0868 52.6549 58.204 56.4449 60.0244 57.616C60.3499 57.8253 60.8079 57.8805 61.3662 57.8125C61.5896 58.3734 61.8293 58.7286 62.0616 59.0731C62.4736 59.6836 62.8625 60.2601 63.0964 61.8875C63.52 64.8434 66.3001 74.3256 67.4787 75.9525C65.2568 76.7427 61.008 78.3272 60.2145 79.1574C59.9136 79.4725 60.0526 80.1401 60.4424 80.9483C59.8627 81.213 59.2463 81.4933 58.606 81.7844L58.5886 81.7923L58.5884 81.7924L58.5879 81.7926C53.3097 84.1922 46.4163 87.326 45.0907 88.6128C43.6348 90.025 48.0952 99.7315 51.2001 106.009C51.6975 107.904 52.1173 109.412 52.3324 110.185C52.3979 110.42 52.4444 110.587 52.4683 110.676C52.7343 111.664 50.7736 113.483 49.0295 115.101C47.5479 116.475 46.2225 117.705 46.551 118.157C46.9362 118.687 48.9978 117.85 51.2086 116.742C50.1513 118.253 49.2823 119.556 49.6692 119.908C50.5568 120.718 55.9241 115.948 58.1681 113.954L58.3102 113.828C59.8453 112.465 58.3178 109.956 57.4439 109.279C57.1034 109.016 56.5397 106.846 55.9674 104.205C55.95 100.012 56.1531 94.6849 56.2366 93.7502C56.3211 92.8052 61.5092 92.119 65.8263 91.548L65.8281 91.5478L65.8312 91.5474C66.55 91.4523 67.2446 91.3604 67.8874 91.2711C68.3057 91.9231 68.6601 92.3117 68.8773 92.278C74.5804 91.3895 82.0166 83.469 81.1569 77.3248C80.7365 74.3192 79.3173 72.0776 78.5521 71.0544C78.5987 70.9858 78.6429 70.9171 78.6843 70.8483C78.6843 70.8483 76.269 62.8708 76.269 57.6254C76.269 52.38 77.5867 48.9916 77.5867 48.9916L77.5225 48.3665C79.5771 46.651 78.689 43.6087 76.5544 42.9085C76.1275 42.4191 75.3972 41.8656 74.284 41.8803C74.3867 41.5875 74.4496 41.407 74.4496 41.407L70.6384 33.48H69.8617L72.7035 33.2239C73.8052 32.8388 74.5899 31.6828 74.5442 30.5116C74.5433 30.488 74.5421 30.4642 74.5409 30.4402C74.5323 30.2667 74.5235 30.0872 74.6096 29.9395C74.6751 29.8274 74.7845 29.7533 74.8931 29.6797C74.9234 29.6592 74.9536 29.6388 74.9827 29.6175C75.8768 28.9673 76.6623 27.6219 76.4144 26.5412L76.4121 26.5312L76.4121 26.5312C76.378 26.3829 76.3432 26.2315 76.3613 26.0807C76.3834 25.8974 76.4803 25.736 76.5762 25.5761C76.5976 25.5406 76.6189 25.5051 76.6393 25.4695ZM57.2002 35.3465C56.4422 36.2103 55.3141 37.5202 54.3109 38.7807C54.5131 39.5043 55.5296 41.6178 56.7946 43.8962C58.2574 44.1807 59.8696 44.3281 61.346 44.1212C64.1067 43.7342 65.7563 42.893 66.4136 42.3382C66.1645 40.4933 65.4166 38.2572 65.1369 37.4621C64.2113 37.9463 63.0839 38.3033 61.7232 38.4711C58.4421 38.8762 57.5654 36.6781 57.2002 35.3465ZM61.9987 51.0674C62.1209 50.7733 62.24 50.5053 62.3479 50.2723C61.9091 50.2634 61.4432 50.2459 60.9607 50.2164C61.354 50.6453 61.7074 50.9449 61.9987 51.0674Z"/>
</mask>
<path fill-rule="evenodd" clip-rule="evenodd" d="M76.6393 25.4695C77.3215 24.279 76.131 22.6007 75.0365 21.7777C75.4767 21.0369 75.1485 20.0307 74.5214 19.4415C73.8944 18.8523 73.0436 18.5806 72.2231 18.3262C71.8609 17.3228 72.1059 17.1543 72.3213 17.0062C72.5137 16.8738 72.6825 16.7578 72.3731 16.0766C71.1642 14.7219 66.4412 14.7783 64.7855 15.5156C64.7134 15.5477 64.6416 15.5809 64.5696 15.6142L64.5695 15.6142C64.2376 15.7676 63.9038 15.922 63.5433 15.9691C63.3318 15.9969 63.1184 15.9866 62.9048 15.9763C62.7935 15.9709 62.6821 15.9655 62.5709 15.9655C60.7862 15.9651 59.2121 17.4404 58.7479 19.172C58.7334 19.226 58.7197 19.2803 58.7061 19.3348L58.7061 19.3348L58.706 19.3349L58.706 19.3349L58.706 19.335L58.706 19.335L58.706 19.3351L58.706 19.3351L58.706 19.3352L58.7059 19.3352L58.7059 19.3353L58.7059 19.3353C58.6495 19.56 58.5928 19.7857 58.4775 19.9852C58.3472 20.2109 58.1525 20.3858 57.9575 20.561L57.9575 20.561L57.9575 20.561L57.9574 20.561L57.9574 20.561L57.9574 20.5611L57.9574 20.5611L57.9574 20.5611L57.9574 20.5611C57.8712 20.6385 57.785 20.716 57.7043 20.7979C57.1348 21.3758 56.836 22.2127 56.9101 23.0228C56.9202 23.1341 56.937 23.2456 56.957 23.3572L55.9181 25.3064C55.667 26.0136 55.9274 27.0383 56.2093 28.1475C56.3236 28.5974 56.4414 29.0611 56.5301 29.5232C55.5428 30.7087 53.8861 32.7187 52.252 34.7957C51.9858 34.5405 51.5296 33.5003 51.1323 32.5942C51.0171 32.3315 50.9069 32.0801 50.8076 31.8623C50.2816 30.7063 48.6769 30.4768 47.5893 32.2771C46.7175 33.7206 48.4071 36.2801 49.4221 37.8178C49.5095 37.9502 49.5919 38.075 49.6672 38.1909C48.681 39.5462 47.8983 40.7246 47.5635 41.4584C46.36 44.0951 50.4036 47.143 54.2643 48.7697C56.0868 52.6549 58.204 56.4449 60.0244 57.616C60.3499 57.8253 60.8079 57.8805 61.3662 57.8125C61.5896 58.3734 61.8293 58.7286 62.0616 59.0731C62.4736 59.6836 62.8625 60.2601 63.0964 61.8875C63.52 64.8434 66.3001 74.3256 67.4787 75.9525C65.2568 76.7427 61.008 78.3272 60.2145 79.1574C59.9136 79.4725 60.0526 80.1401 60.4424 80.9483C59.8627 81.213 59.2463 81.4933 58.606 81.7844L58.5886 81.7923L58.5884 81.7924L58.5879 81.7926C53.3097 84.1922 46.4163 87.326 45.0907 88.6128C43.6348 90.025 48.0952 99.7315 51.2001 106.009C51.6975 107.904 52.1173 109.412 52.3324 110.185C52.3979 110.42 52.4444 110.587 52.4683 110.676C52.7343 111.664 50.7736 113.483 49.0295 115.101C47.5479 116.475 46.2225 117.705 46.551 118.157C46.9362 118.687 48.9978 117.85 51.2086 116.742C50.1513 118.253 49.2823 119.556 49.6692 119.908C50.5568 120.718 55.9241 115.948 58.1681 113.954L58.3102 113.828C59.8453 112.465 58.3178 109.956 57.4439 109.279C57.1034 109.016 56.5397 106.846 55.9674 104.205C55.95 100.012 56.1531 94.6849 56.2366 93.7502C56.3211 92.8052 61.5092 92.119 65.8263 91.548L65.8281 91.5478L65.8312 91.5474C66.55 91.4523 67.2446 91.3604 67.8874 91.2711C68.3057 91.9231 68.6601 92.3117 68.8773 92.278C74.5804 91.3895 82.0166 83.469 81.1569 77.3248C80.7365 74.3192 79.3173 72.0776 78.5521 71.0544C78.5987 70.9858 78.6429 70.9171 78.6843 70.8483C78.6843 70.8483 76.269 62.8708 76.269 57.6254C76.269 52.38 77.5867 48.9916 77.5867 48.9916L77.5225 48.3665C79.5771 46.651 78.689 43.6087 76.5544 42.9085C76.1275 42.4191 75.3972 41.8656 74.284 41.8803C74.3867 41.5875 74.4496 41.407 74.4496 41.407L70.6384 33.48H69.8617L72.7035 33.2239C73.8052 32.8388 74.5899 31.6828 74.5442 30.5116C74.5433 30.488 74.5421 30.4642 74.5409 30.4402C74.5323 30.2667 74.5235 30.0872 74.6096 29.9395C74.6751 29.8274 74.7845 29.7533 74.8931 29.6797C74.9234 29.6592 74.9536 29.6388 74.9827 29.6175C75.8768 28.9673 76.6623 27.6219 76.4144 26.5412L76.4121 26.5312L76.4121 26.5312C76.378 26.3829 76.3432 26.2315 76.3613 26.0807C76.3834 25.8974 76.4803 25.736 76.5762 25.5761C76.5976 25.5406 76.6189 25.5051 76.6393 25.4695ZM57.2002 35.3465C56.4422 36.2103 55.3141 37.5202 54.3109 38.7807C54.5131 39.5043 55.5296 41.6178 56.7946 43.8962C58.2574 44.1807 59.8696 44.3281 61.346 44.1212C64.1067 43.7342 65.7563 42.893 66.4136 42.3382C66.1645 40.4933 65.4166 38.2572 65.1369 37.4621C64.2113 37.9463 63.0839 38.3033 61.7232 38.4711C58.4421 38.8762 57.5654 36.6781 57.2002 35.3465ZM61.9987 51.0674C62.1209 50.7733 62.24 50.5053 62.3479 50.2723C61.9091 50.2634 61.4432 50.2459 60.9607 50.2164C61.354 50.6453 61.7074 50.9449 61.9987 51.0674Z" fill="#192E35"/>
<path d="M75.0365 21.7777L74.1769 21.2668L73.7187 22.0379L74.4355 22.5769L75.0365 21.7777ZM76.6393 25.4695L75.7717 24.9722L75.7716 24.9723L76.6393 25.4695ZM74.5214 19.4415L73.8365 20.1702L73.8366 20.1703L74.5214 19.4415ZM72.2231 18.3262L71.2825 18.6657L71.4515 19.134L71.927 19.2814L72.2231 18.3262ZM72.3213 17.0062L71.7546 16.1822L71.7546 16.1822L72.3213 17.0062ZM72.3731 16.0766L73.2836 15.663L73.2206 15.5244L73.1192 15.4108L72.3731 16.0766ZM64.7855 15.5156L64.3787 14.602L64.3786 14.6021L64.7855 15.5156ZM64.5696 15.6142L64.9862 16.5232L64.9893 16.5218L64.5696 15.6142ZM64.5695 15.6142L64.1529 14.7051L64.1499 14.7065L64.5695 15.6142ZM63.5433 15.9691L63.4137 14.9776L63.4131 14.9777L63.5433 15.9691ZM62.9048 15.9763L62.9531 14.9774L62.9531 14.9774L62.9048 15.9763ZM62.5709 15.9655L62.5707 16.9655H62.5709V15.9655ZM58.7479 19.172L59.7137 19.4312L59.7137 19.431L58.7479 19.172ZM58.7061 19.3348L59.6696 19.6024L59.6729 19.5904L59.676 19.5782L58.7061 19.3348ZM58.7059 19.3353L57.7424 19.0677L57.7391 19.0797L57.736 19.0918L58.7059 19.3353ZM58.4775 19.9852L57.6117 19.4848L57.6115 19.4851L58.4775 19.9852ZM57.9575 20.561L57.2891 19.8172L57.2693 19.835L57.2504 19.8539L57.9575 20.561ZM57.9574 20.5611L58.6332 21.2982L58.6492 21.2835L58.6645 21.2682L57.9574 20.5611ZM57.9574 20.5611L58.6082 21.3203L58.6209 21.3095L58.6331 21.2982L57.9574 20.5611ZM57.9574 20.5611L57.3066 19.8018L57.2978 19.8094L57.2891 19.8172L57.9574 20.5611ZM57.7043 20.7979L56.9921 20.0959L56.992 20.096L57.7043 20.7979ZM56.9101 23.0228L57.9059 22.9318L57.9059 22.9317L56.9101 23.0228ZM56.957 23.3572L57.8395 23.8275L58.0026 23.5215L57.9413 23.1802L56.957 23.3572ZM55.9181 25.3064L55.0356 24.836L55.0006 24.9017L54.9757 24.9718L55.9181 25.3064ZM56.2093 28.1475L57.1785 27.9012L57.1785 27.9012L56.2093 28.1475ZM56.5301 29.5232L57.2985 30.1631L57.6014 29.7995L57.5122 29.3347L56.5301 29.5232ZM52.252 34.7957L51.5601 35.5177L52.3562 36.2806L53.038 35.414L52.252 34.7957ZM51.1323 32.5942L52.0481 32.1926L52.0481 32.1926L51.1323 32.5942ZM50.8076 31.8623L49.8974 32.2765L49.8977 32.2771L50.8076 31.8623ZM47.5893 32.2771L46.7333 31.76L46.7333 31.7601L47.5893 32.2771ZM49.4221 37.8178L48.5875 38.3687L48.5875 38.3687L49.4221 37.8178ZM49.6672 38.1909L50.4758 38.7792L50.8807 38.2228L50.5056 37.6459L49.6672 38.1909ZM47.5635 41.4584L48.4732 41.8737L48.4733 41.8735L47.5635 41.4584ZM54.2643 48.7697L55.1696 48.345L55.0065 47.9973L54.6526 47.8481L54.2643 48.7697ZM60.0244 57.616L59.4834 58.457L59.4834 58.457L60.0244 57.616ZM61.3662 57.8125L62.2953 57.4426L62.0103 56.7266L61.2454 56.8198L61.3662 57.8125ZM62.0616 59.0731L61.2326 59.6323L61.2326 59.6323L62.0616 59.0731ZM63.0964 61.8875L64.0863 61.7457L64.0862 61.7452L63.0964 61.8875ZM67.4787 75.9525L67.8138 76.8947L69.072 76.4472L68.2886 75.3658L67.4787 75.9525ZM60.2145 79.1574L59.4916 78.4665L59.4914 78.4668L60.2145 79.1574ZM60.4424 80.9483L60.8578 81.8579L61.7866 81.4337L61.3431 80.514L60.4424 80.9483ZM58.606 81.7844L58.1922 80.874L58.1921 80.8741L58.606 81.7844ZM58.5886 81.7923L58.9767 82.7139L58.9897 82.7085L59.0025 82.7026L58.5886 81.7923ZM58.5884 81.7924L58.2003 80.8708L58.1822 80.8784L58.1645 80.8867L58.5884 81.7924ZM58.5879 81.7926L59.0017 82.703L59.0118 82.6983L58.5879 81.7926ZM45.0907 88.6128L45.787 89.3306L45.7872 89.3303L45.0907 88.6128ZM51.2001 106.009L52.1673 105.756L52.1415 105.657L52.0964 105.566L51.2001 106.009ZM52.3324 110.185L53.2958 109.917L53.2958 109.917L52.3324 110.185ZM52.4683 110.676L51.5026 110.936L51.5027 110.936L52.4683 110.676ZM49.0295 115.101L49.7095 115.834L49.7095 115.834L49.0295 115.101ZM46.551 118.157L45.742 118.745L45.7421 118.745L46.551 118.157ZM51.2086 116.742L52.0279 117.316L50.7608 115.848L51.2086 116.742ZM49.6692 119.908L50.3433 119.17L50.3427 119.169L49.6692 119.908ZM58.1681 113.954L57.5039 113.206L57.5038 113.206L58.1681 113.954ZM58.3102 113.828L57.6463 113.08L57.646 113.08L58.3102 113.828ZM57.4439 109.279L56.8315 110.07L56.8315 110.07L57.4439 109.279ZM55.9674 104.205L54.9674 104.209L54.9678 104.314L54.99 104.417L55.9674 104.205ZM56.2366 93.7502L55.2406 93.6612L55.2406 93.6612L56.2366 93.7502ZM65.8263 91.548L65.6988 90.5562L65.6952 90.5567L65.8263 91.548ZM65.8281 91.5478L65.9557 92.5397L65.9627 92.5387L65.8281 91.5478ZM65.8312 91.5474L65.7 90.556L65.6965 90.5565L65.8312 91.5474ZM67.8874 91.2711L68.729 90.731L68.3835 90.1925L67.7497 90.2806L67.8874 91.2711ZM68.8773 92.278L69.0308 93.2661L69.0312 93.2661L68.8773 92.278ZM81.1569 77.3248L80.1665 77.4633L80.1665 77.4634L81.1569 77.3248ZM78.5521 71.0544L77.7254 70.4917L77.3238 71.0817L77.7512 71.6532L78.5521 71.0544ZM78.6843 70.8483L79.5407 71.3647L79.7702 70.984L79.6414 70.5586L78.6843 70.8483ZM77.5867 48.9916L78.5187 49.354L78.606 49.1294L78.5814 48.8896L77.5867 48.9916ZM77.5225 48.3665L76.8816 47.5989L76.4735 47.9397L76.5278 48.4685L77.5225 48.3665ZM76.5544 42.9085L75.8008 43.5659L75.9815 43.773L76.2427 43.8587L76.5544 42.9085ZM74.284 41.8803L73.3403 41.5494L72.8672 42.8991L74.2972 42.8802L74.284 41.8803ZM74.4496 41.407L75.3939 41.7363L75.5299 41.3461L75.3509 40.9737L74.4496 41.407ZM70.6384 33.48L71.5396 33.0467L71.2672 32.48H70.6384V33.48ZM69.8617 33.48L69.772 32.484L69.8617 34.48V33.48ZM72.7035 33.2239L72.7932 34.2199L72.9166 34.2088L73.0335 34.1679L72.7035 33.2239ZM74.5442 30.5116L75.5434 30.4726L75.5434 30.4726L74.5442 30.5116ZM74.5409 30.4402L75.5397 30.3909L75.5397 30.3908L74.5409 30.4402ZM74.6096 29.9395L73.7462 29.435L73.7458 29.4356L74.6096 29.9395ZM74.8931 29.6797L75.4539 30.5076L75.454 30.5076L74.8931 29.6797ZM74.9827 29.6175L74.3945 28.8088L74.3944 28.8089L74.9827 29.6175ZM76.4144 26.5412L77.3891 26.3176L77.389 26.3172L76.4144 26.5412ZM76.4121 26.5312L75.4282 26.7101L75.4324 26.7328L75.4375 26.7552L76.4121 26.5312ZM76.4121 26.5312L77.396 26.3523L77.3919 26.3296L77.3867 26.3072L76.4121 26.5312ZM76.3613 26.0807L75.3685 25.9611L75.3684 25.9617L76.3613 26.0807ZM76.5762 25.5761L75.7188 25.0615L75.7188 25.0615L76.5762 25.5761ZM54.3109 38.7807L53.5285 38.158L53.2104 38.5577L53.3478 39.0498L54.3109 38.7807ZM57.2002 35.3465L58.1645 35.0819L57.6733 33.2909L56.4485 34.687L57.2002 35.3465ZM56.7946 43.8962L55.9203 44.3816L56.1464 44.7888L56.6037 44.8778L56.7946 43.8962ZM61.346 44.1212L61.4848 45.1115L61.4848 45.1115L61.346 44.1212ZM66.4136 42.3382L67.0586 43.1024L67.4781 42.7484L67.4046 42.2044L66.4136 42.3382ZM65.1369 37.4621L66.0802 37.1302L65.6969 36.0405L64.6733 36.576L65.1369 37.4621ZM61.7232 38.4711L61.6008 37.4786L61.6006 37.4786L61.7232 38.4711ZM62.3479 50.2723L63.2553 50.6927L63.8986 49.3038L62.3683 49.2725L62.3479 50.2723ZM61.9987 51.0674L61.6112 51.9892L62.5371 52.3784L62.9223 51.4509L61.9987 51.0674ZM60.9607 50.2164L61.0216 49.2183L58.5503 49.0676L60.2237 50.8923L60.9607 50.2164ZM74.4355 22.5769C74.8806 22.9116 75.3461 23.4265 75.617 23.9472C75.8998 24.4909 75.8647 24.8099 75.7717 24.9722L77.5069 25.9667C78.0961 24.9385 77.8069 23.8232 77.3913 23.0243C76.9639 22.2026 76.2869 21.4667 75.6375 20.9784L74.4355 22.5769ZM73.8366 20.1703C74.2639 20.5718 74.2904 21.0757 74.1769 21.2668L75.8962 22.2885C76.6629 20.9982 76.0331 19.4897 75.2061 18.7127L73.8366 20.1703ZM71.927 19.2814C72.7852 19.5474 73.4049 19.7646 73.8365 20.1702L75.2062 18.7128C74.3838 17.94 73.3021 17.6138 72.5192 17.3711L71.927 19.2814ZM71.7546 16.1822C71.6363 16.2636 71.2172 16.5308 71.0812 17.1208C70.9706 17.6005 71.0871 18.1244 71.2825 18.6657L73.1637 17.9867C73.0869 17.7738 73.0553 17.6403 73.0436 17.5648C73.0319 17.4888 73.0454 17.5036 73.0301 17.57C73.0219 17.6054 73.0072 17.6485 72.9827 17.6944C72.9583 17.7403 72.93 17.778 72.9038 17.8068C72.8788 17.8342 72.8591 17.8498 72.8552 17.8529C72.8545 17.8535 72.8573 17.8512 72.8879 17.8301L71.7546 16.1822ZM71.4626 16.4901C71.5239 16.6251 71.543 16.6925 71.5474 16.7119C71.5518 16.7313 71.5317 16.6603 71.5569 16.5408C71.57 16.4788 71.5931 16.4145 71.6271 16.3525C71.6606 16.2914 71.6978 16.2451 71.7283 16.2129C71.7573 16.1824 71.7798 16.165 71.7835 16.1622C71.7848 16.1612 71.7825 16.163 71.7546 16.1822L72.8879 17.8301C72.9517 17.7862 73.3937 17.5228 73.5138 16.9536C73.6126 16.4853 73.449 16.0272 73.2836 15.663L71.4626 16.4901ZM65.1923 16.4291C65.8111 16.1535 67.2228 15.9499 68.7059 16.0107C69.4255 16.0402 70.1024 16.1303 70.6479 16.2787C71.2246 16.4355 71.5188 16.6212 71.6269 16.7424L73.1192 15.4108C72.6229 14.8546 71.8735 14.5393 71.1728 14.3488C70.4411 14.1498 69.607 14.046 68.7878 14.0124C67.1932 13.9471 65.4156 14.1403 64.3787 14.602L65.1923 16.4291ZM64.9893 16.5218C65.0623 16.4881 65.1278 16.4578 65.1924 16.429L64.3786 14.6021C64.299 14.6375 64.2208 14.6737 64.1499 14.7065L64.9893 16.5218ZM64.9862 16.5232L64.9862 16.5232L64.1529 14.7051L64.1529 14.7051L64.9862 16.5232ZM63.6729 16.9607C64.2106 16.8904 64.6829 16.6635 64.9892 16.5219L64.1499 14.7065C63.7924 14.8718 63.597 14.9536 63.4137 14.9776L63.6729 16.9607ZM62.8565 16.9751C63.0547 16.9847 63.3582 17.002 63.6735 16.9606L63.4131 14.9777C63.3054 14.9918 63.1821 14.9885 62.9531 14.9774L62.8565 16.9751ZM62.5709 16.9655C62.6539 16.9655 62.7411 16.9695 62.8565 16.9751L62.9531 14.9774C62.8459 14.9722 62.7103 14.9655 62.5709 14.9655V16.9655ZM59.7137 19.431C60.088 18.035 61.3358 16.9652 62.5707 16.9655L62.5712 14.9655C60.2367 14.965 58.3362 16.8458 57.782 18.9131L59.7137 19.431ZM59.676 19.5782C59.69 19.5225 59.7017 19.476 59.7137 19.4312L57.782 18.9128C57.7651 18.9759 57.7495 19.0382 57.7362 19.0913L59.676 19.5782ZM59.6696 19.6024L59.6696 19.6024L57.7426 19.0671L57.7425 19.0672L59.6696 19.6024ZM59.6696 19.6025L59.6696 19.6024L57.7425 19.0672L57.7425 19.0672L59.6696 19.6025ZM59.6695 19.6026L59.6696 19.6025L57.7425 19.0672L57.7425 19.0673L59.6695 19.6026ZM59.6695 19.6026L59.6695 19.6026L57.7425 19.0673L57.7425 19.0673L59.6695 19.6026ZM59.6695 19.6027L59.6695 19.6026L57.7425 19.0673L57.7425 19.0674L59.6695 19.6027ZM59.6695 19.6027L59.6695 19.6027L57.7425 19.0674L57.7425 19.0674L59.6695 19.6027ZM59.6695 19.6028L59.6695 19.6027L57.7425 19.0674L57.7425 19.0675L59.6695 19.6028ZM59.6695 19.6028L59.6695 19.6028L57.7425 19.0675L57.7424 19.0675L59.6695 19.6028ZM59.6695 19.6029L59.6695 19.6028L57.7424 19.0675L57.7424 19.0676L59.6695 19.6029ZM59.6694 19.6029L59.6695 19.6029L57.7424 19.0676L57.7424 19.0676L59.6694 19.6029ZM59.6694 19.603L59.6694 19.6029L57.7424 19.0676L57.7424 19.0677L59.6694 19.603ZM59.3433 20.4856C59.5405 20.1445 59.6256 19.7789 59.6758 19.5789L57.736 19.0918C57.6734 19.3412 57.6451 19.427 57.6117 19.4848L59.3433 20.4856ZM58.6258 21.3049C58.7993 21.149 59.1203 20.8718 59.3435 20.4853L57.6115 19.4851C57.5741 19.55 57.5057 19.6226 57.2891 19.8172L58.6258 21.3049ZM58.6646 21.2681L58.6646 21.2681L57.2504 19.8539L57.2504 19.8539L58.6646 21.2681ZM58.6646 21.2681L58.6646 21.2681L57.2504 19.8539L57.2503 19.8539L58.6646 21.2681ZM58.6646 21.2681L58.6646 21.2681L57.2503 19.8539L57.2503 19.8539L58.6646 21.2681ZM58.6645 21.2682L58.6646 21.2681L57.2503 19.8539L57.2503 19.8539L58.6645 21.2682ZM58.6645 21.2682L58.6645 21.2682L57.2503 19.8539L57.2503 19.8539L58.6645 21.2682ZM58.6645 21.2682L58.6645 21.2682L57.2503 19.8539L57.2503 19.8539L58.6645 21.2682ZM58.6331 21.2982L58.6332 21.2982L57.2817 19.8239L57.2817 19.8239L58.6331 21.2982ZM58.6082 21.3203L58.6082 21.3203L57.3066 19.8018L57.3066 19.8018L58.6082 21.3203ZM58.4165 21.4998C58.4723 21.4432 58.5357 21.3859 58.6257 21.3049L57.2891 19.8172C57.2068 19.8911 57.0977 19.9887 56.9921 20.0959L58.4165 21.4998ZM57.9059 22.9317C57.8585 22.414 58.0542 21.8675 58.4166 21.4998L56.992 20.096C56.2153 20.8841 55.8134 22.0114 55.9142 23.1139L57.9059 22.9317ZM57.9413 23.1802C57.9244 23.0865 57.9126 23.0052 57.9059 22.9318L55.9142 23.1138C55.9278 23.2629 55.9496 23.4047 55.9728 23.5341L57.9413 23.1802ZM56.8006 25.7767L57.8395 23.8275L56.0746 22.8868L55.0356 24.836L56.8006 25.7767ZM57.1785 27.9012C57.0341 27.3328 56.9137 26.8546 56.8538 26.4349C56.7924 26.0046 56.8164 25.7652 56.8605 25.6409L54.9757 24.9718C54.7688 25.5547 54.7974 26.1813 54.8739 26.7174C54.9519 27.2642 55.1027 27.853 55.2401 28.3938L57.1785 27.9012ZM57.5122 29.3347C57.417 28.8386 57.2916 28.3462 57.1785 27.9012L55.2401 28.3938C55.3557 28.8486 55.4659 29.2836 55.548 29.7117L57.5122 29.3347ZM53.038 35.414C54.6639 33.3473 56.314 31.3452 57.2985 30.1631L55.7617 28.8832C54.7715 30.0721 53.1083 32.0901 51.4661 34.1774L53.038 35.414ZM50.2165 32.9957C50.413 33.4439 50.6347 33.9498 50.8419 34.3762C50.9456 34.5894 51.0527 34.7976 51.1577 34.9768C51.2493 35.1333 51.386 35.3508 51.5601 35.5177L52.944 34.0737C52.9849 34.113 52.9648 34.1049 52.8835 33.9662C52.8157 33.8503 52.734 33.6939 52.6407 33.5018C52.454 33.1178 52.2489 32.6505 52.0481 32.1926L50.2165 32.9957ZM49.8977 32.2771C49.9933 32.4869 50.1005 32.7312 50.2165 32.9957L52.0481 32.1926C51.9337 31.9317 51.8204 31.6732 51.7176 31.4476L49.8977 32.2771ZM48.4452 32.7942C48.8716 32.0884 49.2772 31.9669 49.4475 31.9604C49.6117 31.954 49.7885 32.037 49.8974 32.2765L51.7178 31.4482C51.3008 30.5316 50.4122 29.9218 49.3707 29.9618C48.3351 30.0016 47.3946 30.6655 46.7333 31.76L48.4452 32.7942ZM50.2566 37.2669C49.7403 36.4847 49.1149 35.5326 48.7152 34.6134C48.5164 34.1562 48.3955 33.7553 48.3591 33.4256C48.3231 33.1002 48.3753 32.9099 48.4453 32.7941L46.7333 31.7601C46.3673 32.3661 46.3039 33.037 46.3712 33.6455C46.438 34.2498 46.6396 34.8556 46.8811 35.4109C47.362 36.5168 48.0888 37.6132 48.5875 38.3687L50.2566 37.2669ZM50.5056 37.6459C50.428 37.5265 50.3436 37.3986 50.2566 37.2669L48.5875 38.3687C48.6754 38.5018 48.7557 38.6235 48.8288 38.7359L50.5056 37.6459ZM48.4733 41.8735C48.7601 41.2448 49.483 40.1436 50.4758 38.7792L48.8586 37.6025C47.879 38.9488 47.0365 40.2044 46.6537 41.0434L48.4733 41.8735ZM54.6526 47.8481C52.7932 47.0647 50.9352 45.9553 49.7089 44.7729C48.42 43.5302 48.1582 42.5639 48.4732 41.8737L46.6538 41.0432C45.7653 42.9897 46.9236 44.8657 48.3207 46.2127C49.7805 47.6201 51.8747 48.848 53.876 49.6912L54.6526 47.8481ZM60.5654 56.775C59.8583 56.32 58.9727 55.252 57.9937 53.6816C57.039 52.15 56.0732 50.2712 55.1696 48.345L53.3589 49.1944C54.2779 51.1534 55.282 53.1122 56.2965 54.7396C57.2869 56.3283 58.3701 57.7408 59.4834 58.457L60.5654 56.775ZM61.2454 56.8198C60.7828 56.8761 60.6042 56.7999 60.5654 56.7749L59.4834 58.457C60.0955 58.8507 60.833 58.8848 61.4871 58.8051L61.2454 56.8198ZM62.8906 58.5138C62.6644 58.1785 62.4765 57.8976 62.2953 57.4426L60.4372 58.1824C60.7026 58.8491 60.9941 59.2788 61.2326 59.6323L62.8906 58.5138ZM64.0862 61.7452C63.9605 60.8708 63.7867 60.2333 63.5678 59.7119C63.3481 59.1885 63.0973 58.8202 62.8906 58.5138L61.2326 59.6323C61.4378 59.9365 61.5875 60.1617 61.7237 60.4861C61.8607 60.8124 61.9983 61.2768 62.1066 62.0298L64.0862 61.7452ZM68.2886 75.3658C68.0872 75.0879 67.735 74.322 67.2936 73.1355C66.87 71.9968 66.4052 70.5872 65.9612 69.1274C65.0665 66.186 64.2862 63.1408 64.0863 61.7457L62.1065 62.0294C62.3302 63.5901 63.1518 66.764 64.0477 69.7094C64.499 71.193 64.9767 72.6438 65.4191 73.8329C65.8437 74.9742 66.2809 76.0036 66.6689 76.5392L68.2886 75.3658ZM60.9375 79.8483C61.0033 79.7794 61.2704 79.5916 61.826 79.3084C62.3379 79.0475 62.9863 78.7581 63.695 78.4632C65.1101 77.8746 66.7087 77.2877 67.8138 76.8947L67.1437 75.0103C66.0269 75.4075 64.39 76.008 62.9268 76.6166C62.1965 76.9205 61.495 77.2323 60.9176 77.5266C60.384 77.7987 59.8225 78.1203 59.4916 78.4665L60.9375 79.8483ZM61.3431 80.514C61.1679 80.1506 61.0831 79.8852 61.0585 79.7204C61.03 79.5294 61.1047 79.6732 60.9377 79.8481L59.4914 78.4668C59.0234 78.9567 59.0172 79.5919 59.0804 80.0155C59.1475 80.4653 59.3271 80.9378 59.5416 81.3826L61.3431 80.514ZM59.0199 82.6947C59.66 82.4037 60.2773 82.1231 60.8578 81.8579L60.0269 80.0387C59.4482 80.303 58.8327 80.5829 58.1922 80.874L59.0199 82.6947ZM59.0025 82.7026L59.0199 82.6947L58.1921 80.8741L58.1747 80.882L59.0025 82.7026ZM58.9765 82.714L58.9767 82.7139L58.2006 80.8707L58.2003 80.8708L58.9765 82.714ZM59.0118 82.6983L59.0123 82.6981L58.1645 80.8867L58.1639 80.8869L59.0118 82.6983ZM45.7872 89.3303C46.0117 89.1125 46.5791 88.7326 47.5051 88.2143C48.3964 87.7154 49.5282 87.1374 50.7958 86.5186C53.3298 85.2816 56.3594 83.9042 59.0017 82.703L58.174 80.8823C55.5381 82.0806 52.4819 83.4699 49.9184 84.7214C48.6371 85.3469 47.4671 85.9436 46.5282 86.4691C45.6239 86.9753 44.8325 87.4697 44.3942 87.8952L45.7872 89.3303ZM52.0964 105.566C50.5471 102.433 48.6716 98.469 47.3668 95.1231C46.7122 93.4447 46.2168 91.9608 45.9717 90.8318C45.8484 90.2636 45.7993 89.8332 45.8075 89.5356C45.8167 89.198 45.893 89.2277 45.787 89.3306L44.3944 87.895C43.9244 88.3509 43.8216 88.9929 43.8082 89.4809C43.7938 90.009 43.8786 90.6176 44.0172 91.2561C44.296 92.5405 44.8368 94.1404 45.5034 95.8498C46.841 99.2797 48.7482 103.308 50.3037 106.453L52.0964 105.566ZM53.2958 109.917C53.081 109.145 52.6628 107.643 52.1673 105.756L50.2329 106.263C50.7322 108.165 51.1537 109.679 51.369 110.453L53.2958 109.917ZM53.434 110.417C53.4086 110.322 53.3605 110.149 53.2958 109.917L51.369 110.453C51.4353 110.691 51.4802 110.852 51.5026 110.936L53.434 110.417ZM49.7095 115.834C50.5694 115.036 51.5407 114.137 52.2591 113.307C52.6176 112.892 52.9501 112.453 53.1761 112.017C53.3882 111.609 53.5986 111.028 53.434 110.416L51.5027 110.936C51.471 110.818 51.5361 110.836 51.4008 111.096C51.2796 111.33 51.0628 111.632 50.7463 111.998C50.1148 112.728 49.2336 113.548 48.3494 114.368L49.7095 115.834ZM47.3601 117.569C47.6362 117.949 47.41 118.279 47.4839 118.133C47.5254 118.051 47.6365 117.89 47.8594 117.639C48.2952 117.148 48.9549 116.534 49.7095 115.834L48.3494 114.368C47.6224 115.042 46.8787 115.731 46.3636 116.311C46.111 116.595 45.8598 116.912 45.6988 117.231C45.5703 117.485 45.3017 118.138 45.742 118.745L47.3601 117.569ZM50.7608 115.848C49.6655 116.397 48.6484 116.857 47.8775 117.115C47.4849 117.247 47.2141 117.306 47.0552 117.318C46.8097 117.336 47.1199 117.239 47.3599 117.569L45.7421 118.745C46.1747 119.34 46.8871 119.336 47.2056 119.312C47.6106 119.282 48.0657 119.162 48.513 119.012C49.4219 118.707 50.541 118.195 51.6564 117.637L50.7608 115.848ZM50.3427 119.169C50.6615 119.46 50.5507 119.799 50.5738 119.695C50.587 119.636 50.6398 119.49 50.7776 119.234C51.0461 118.736 51.4924 118.081 52.0279 117.316L50.3893 116.169C49.8675 116.915 49.3506 117.666 49.017 118.285C48.8538 118.588 48.6958 118.928 48.6218 119.26C48.5578 119.547 48.4835 120.181 48.9957 120.648L50.3427 119.169ZM57.5038 113.206C56.3775 114.207 54.5 115.876 52.7982 117.192C51.9419 117.854 51.1673 118.398 50.5744 118.724C50.2717 118.89 50.0715 118.969 49.9632 118.995C49.7998 119.034 50.0662 118.917 50.3433 119.17L48.9952 120.647C49.4941 121.102 50.1224 121.013 50.4312 120.939C50.7951 120.852 51.1773 120.675 51.5377 120.476C52.2709 120.073 53.1448 119.452 54.0218 118.774C55.7866 117.409 57.7147 115.695 58.8324 114.701L57.5038 113.206ZM57.646 113.08L57.5039 113.206L58.8324 114.701L58.9744 114.575L57.646 113.08ZM56.8315 110.07C57.0957 110.275 57.5897 110.899 57.8334 111.618C58.0735 112.325 57.9782 112.785 57.6463 113.08L58.9741 114.575C60.1773 113.507 60.0859 112.032 59.7274 110.975C59.3727 109.929 58.666 108.961 58.0563 108.489L56.8315 110.07ZM54.99 104.417C55.2776 105.744 55.5667 106.97 55.83 107.905C55.961 108.37 56.0914 108.784 56.2181 109.109C56.2811 109.271 56.3511 109.432 56.429 109.574C56.4916 109.688 56.6184 109.905 56.8315 110.07L58.0563 108.489C58.1843 108.588 58.2189 108.679 58.1833 108.614C58.163 108.577 58.1286 108.504 58.0819 108.384C57.9893 108.146 57.8792 107.803 57.7551 107.363C57.5083 106.486 57.2294 105.307 56.9447 103.993L54.99 104.417ZM55.2406 93.6612C55.153 94.6413 54.95 100.004 54.9674 104.209L56.9673 104.201C56.95 100.02 57.1532 94.7284 57.2326 93.8392L55.2406 93.6612ZM65.6952 90.5567C63.5464 90.8409 61.1362 91.1593 59.2524 91.5275C58.3162 91.7105 57.4626 91.9145 56.8212 92.1482C56.5054 92.2633 56.1861 92.4048 55.9243 92.5871C55.6979 92.7448 55.2919 93.0875 55.2406 93.6612L57.2326 93.8393C57.2025 94.1767 56.9771 94.2912 57.0674 94.2283C57.1224 94.19 57.256 94.1184 57.5059 94.0273C57.996 93.8488 58.7251 93.6684 59.636 93.4903C61.4466 93.1364 63.7891 92.8262 65.9575 92.5394L65.6952 90.5567ZM65.7006 90.556L65.6988 90.5562L65.9539 92.5399L65.9557 92.5396L65.7006 90.556ZM65.6965 90.5565L65.6935 90.5569L65.9627 92.5387L65.9658 92.5383L65.6965 90.5565ZM67.7497 90.2806C67.1108 90.3694 66.4196 90.4609 65.7 90.556L65.9623 92.5388C66.6803 92.4438 67.3784 92.3515 68.0251 92.2616L67.7497 90.2806ZM68.7237 91.2898C68.9977 91.2473 69.1783 91.3535 69.2016 91.3675C69.2376 91.3889 69.23 91.392 69.178 91.3379C69.0765 91.2326 68.9244 91.0356 68.729 90.731L67.0457 91.8111C67.2687 92.1586 67.5029 92.4819 67.7376 92.7255C67.8536 92.8458 68.0014 92.9805 68.178 93.0857C68.342 93.1833 68.6483 93.3256 69.0308 93.2661L68.7237 91.2898ZM80.1665 77.4634C80.538 80.1179 79.1072 83.3507 76.7207 86.1194C74.342 88.8791 71.2534 90.8957 68.7233 91.2899L69.0312 93.2661C72.2043 92.7717 75.6854 90.3839 78.2356 87.4252C80.7781 84.4755 82.6355 80.6759 82.1472 77.1862L80.1665 77.4634ZM77.7512 71.6532C78.4617 72.6034 79.7783 74.6874 80.1665 77.4633L82.1472 77.1863C81.6947 73.951 80.1728 71.5519 79.3529 70.4555L77.7512 71.6532ZM77.8279 70.332C77.7964 70.3843 77.7622 70.4376 77.7254 70.4917L79.3787 71.6171C79.4352 71.5341 79.4893 71.4499 79.5407 71.3647L77.8279 70.332ZM75.269 57.6254C75.269 60.3663 75.895 63.7634 76.5017 66.426C76.8074 67.7679 77.113 68.943 77.3422 69.7831C77.4569 70.2034 77.5526 70.5404 77.6199 70.7731C77.6536 70.8895 77.6801 70.9798 77.6984 71.0415C77.7075 71.0724 77.7146 71.0961 77.7195 71.1123C77.7219 71.1204 77.7238 71.1266 77.7251 71.1309C77.7257 71.1331 77.7262 71.1348 77.7266 71.136C77.7268 71.1366 77.7269 71.1371 77.727 71.1374C77.7271 71.1376 77.7271 71.1378 77.7272 71.1379C77.7272 71.138 77.7272 71.1381 78.6843 70.8483C79.6414 70.5586 79.6414 70.5586 79.6414 70.5587C79.6414 70.5586 79.6414 70.5586 79.6414 70.5586C79.6414 70.5584 79.6413 70.5582 79.6412 70.5578C79.641 70.5571 79.6406 70.5559 79.6401 70.5542C79.6391 70.5508 79.6375 70.5455 79.6353 70.5383C79.631 70.524 79.6246 70.5023 79.616 70.4734C79.5989 70.4157 79.5736 70.3295 79.5412 70.2175C79.4764 69.9935 79.3834 69.6662 79.2717 69.2567C79.048 68.437 78.7498 67.29 78.4517 65.9817C77.8507 63.3443 77.269 60.1299 77.269 57.6254H75.269ZM77.5867 48.9916C76.6546 48.6292 76.6545 48.6294 76.6544 48.6297C76.6544 48.6298 76.6543 48.6301 76.6542 48.6303C76.6541 48.6307 76.6539 48.6312 76.6537 48.6317C76.6533 48.6328 76.6528 48.634 76.6522 48.6355C76.6511 48.6384 76.6496 48.6422 76.6479 48.6468C76.6444 48.6559 76.6397 48.6684 76.6339 48.6841C76.6223 48.7155 76.6062 48.76 76.5862 48.817C76.5463 48.931 76.4909 49.0956 76.4254 49.3077C76.2943 49.7318 76.1222 50.3464 75.951 51.1274C75.6088 52.6887 75.269 54.9196 75.269 57.6254H77.269C77.269 55.0858 77.5881 52.9998 77.9047 51.5556C78.0629 50.8338 78.2202 50.2735 78.3362 49.8983C78.3941 49.7108 78.4417 49.5697 78.4739 49.4779C78.4899 49.4321 78.5021 49.3986 78.5098 49.3778C78.5136 49.3674 78.5163 49.3602 78.5179 49.3562C78.5186 49.3542 78.5191 49.3531 78.5192 49.3527C78.5193 49.3525 78.5193 49.3525 78.5192 49.3528C78.5191 49.3529 78.5191 49.353 78.519 49.3532C78.5189 49.3534 78.5189 49.3536 78.5188 49.3536C78.5188 49.3538 78.5187 49.354 77.5867 48.9916ZM76.5278 48.4685L76.5919 49.0936L78.5814 48.8896L78.5173 48.2645L76.5278 48.4685ZM76.2427 43.8587C77.6986 44.3363 78.2797 46.4315 76.8816 47.5989L78.1635 49.1341C80.8744 46.8705 79.6794 42.8812 76.8661 41.9583L76.2427 43.8587ZM74.2972 42.8802C75.0283 42.8705 75.4998 43.2207 75.8008 43.5659L77.308 42.2511C76.7552 41.6175 75.7661 40.8606 74.2708 40.8804L74.2972 42.8802ZM74.4496 41.407C73.5054 41.0777 73.5054 41.0777 73.5054 41.0777C73.5054 41.0777 73.5054 41.0777 73.5054 41.0777C73.5054 41.0777 73.5054 41.0777 73.5054 41.0778C73.5054 41.0778 73.5054 41.0778 73.5053 41.0778C73.5053 41.0779 73.5053 41.0781 73.5052 41.0782C73.5051 41.0786 73.5049 41.0791 73.5047 41.0798C73.5042 41.0811 73.5035 41.0832 73.5025 41.0859C73.5006 41.0914 73.4978 41.0995 73.4941 41.1102C73.4866 41.1316 73.4756 41.1632 73.4613 41.2039C73.4328 41.2854 73.3915 41.4034 73.3403 41.5494L75.2277 42.2111C75.2791 42.0644 75.3206 41.9458 75.3493 41.8638C75.3636 41.8228 75.3747 41.791 75.3823 41.7694C75.3861 41.7586 75.3889 41.7503 75.3909 41.7448C75.3919 41.742 75.3926 41.7399 75.3931 41.7384C75.3933 41.7377 75.3935 41.7372 75.3937 41.7368C75.3937 41.7366 75.3938 41.7365 75.3938 41.7364C75.3938 41.7364 75.3938 41.7363 75.3938 41.7363C75.3938 41.7363 75.3938 41.7363 75.3938 41.7363C75.3938 41.7363 75.3939 41.7363 75.3939 41.7363C75.3939 41.7363 75.3939 41.7363 74.4496 41.407ZM69.7371 33.9133L73.5484 41.8403L75.3509 40.9737L71.5396 33.0467L69.7371 33.9133ZM69.8617 34.48H70.6384V32.48H69.8617V34.48ZM72.6138 32.228L69.772 32.484L69.9515 34.476L72.7932 34.2199L72.6138 32.228ZM73.545 30.5505C73.5736 31.2851 73.0581 32.0407 72.3735 32.2799L73.0335 34.1679C74.5524 33.637 75.6061 32.0804 75.5434 30.4726L73.545 30.5505ZM73.5421 30.4896C73.5434 30.5144 73.5443 30.533 73.545 30.5506L75.5434 30.4726C75.5423 30.4429 75.5408 30.4139 75.5397 30.3909L73.5421 30.4896ZM73.7458 29.4356C73.4832 29.8858 73.537 30.3859 73.5421 30.4896L75.5397 30.3908C75.5374 30.3446 75.5362 30.3176 75.5358 30.2936C75.5354 30.2712 75.5362 30.2646 75.5359 30.2678C75.5354 30.2734 75.5285 30.3488 75.4734 30.4433L73.7458 29.4356ZM74.3323 28.8517C74.2616 28.8996 73.9459 29.0931 73.7462 29.435L75.4731 30.4439C75.4314 30.5153 75.3884 30.5523 75.3827 30.5572C75.3798 30.5597 75.3823 30.5573 75.395 30.5482C75.4089 30.5382 75.4249 30.5273 75.4539 30.5076L74.3323 28.8517ZM74.3944 28.8089C74.3811 28.8186 74.365 28.8296 74.3323 28.8517L75.454 30.5076C75.4818 30.4888 75.526 30.459 75.571 30.4262L74.3944 28.8089ZM75.4397 26.7648C75.4939 27.0012 75.4481 27.3633 75.2329 27.7926C75.0221 28.2128 74.7032 28.5843 74.3945 28.8088L75.5709 30.4263C76.1563 30.0005 76.6771 29.3742 77.0207 28.689C77.3598 28.0128 77.5828 27.1619 77.3891 26.3176L75.4397 26.7648ZM75.4375 26.7552L75.4398 26.7652L77.389 26.3172L77.3867 26.3072L75.4375 26.7552ZM75.4282 26.7101L75.4282 26.7101L77.396 26.3523L77.396 26.3523L75.4282 26.7101ZM75.3684 25.9617C75.326 26.3153 75.4109 26.6395 75.4375 26.7552L77.3867 26.3072C77.3778 26.2684 77.3716 26.2414 77.3663 26.216C77.3613 26.1917 77.3586 26.1762 77.3572 26.1661C77.3542 26.145 77.3588 26.1617 77.3542 26.1997L75.3684 25.9617ZM75.7188 25.0615C75.6448 25.1848 75.4205 25.5293 75.3685 25.9611L77.3541 26.2003C77.3485 26.2468 77.3363 26.2658 77.3467 26.2436C77.3518 26.2327 77.3604 26.2159 77.3754 26.1894C77.3911 26.1618 77.4085 26.1326 77.4336 26.0908L75.7188 25.0615ZM75.7716 24.9723C75.7571 24.9976 75.7411 25.0244 75.7188 25.0615L77.4336 26.0908C77.4541 26.0567 77.4806 26.0125 77.5069 25.9666L75.7716 24.9723ZM55.0934 39.4034C56.082 38.1612 57.1981 36.8651 57.9519 36.006L56.4485 34.687C55.6864 35.5555 54.5463 36.8792 53.5285 38.158L55.0934 39.4034ZM57.6689 43.4108C57.0442 42.2856 56.4826 41.2043 56.0542 40.3196C55.612 39.4063 55.3475 38.7744 55.2741 38.5117L53.3478 39.0498C53.4766 39.5107 53.8213 40.2973 54.2541 41.1912C54.7008 42.1137 55.28 43.2283 55.9203 44.3816L57.6689 43.4108ZM61.2072 43.1309C59.8812 43.3167 58.3892 43.1876 56.9856 42.9146L56.6037 44.8778C58.1256 45.1738 59.858 45.3395 61.4848 45.1115L61.2072 43.1309ZM65.7686 41.574C65.3017 41.9681 63.8521 42.7601 61.2072 43.1309L61.4848 45.1115C64.3612 44.7083 66.2109 43.8179 67.0586 43.1024L65.7686 41.574ZM64.1935 37.7939C64.4726 38.5872 65.1885 40.7382 65.4226 42.472L67.4046 42.2044C67.1405 40.2484 66.3605 37.9272 66.0802 37.1302L64.1935 37.7939ZM61.8455 39.4635C63.3114 39.2828 64.5566 38.8942 65.6004 38.3481L64.6733 36.576C63.866 36.9983 62.8564 37.3237 61.6008 37.4786L61.8455 39.4635ZM56.2358 35.611C56.4292 36.3163 56.796 37.4144 57.6662 38.2722C58.5872 39.18 59.9438 39.6983 61.8457 39.4635L61.6006 37.4786C60.2215 37.6489 59.4992 37.2707 59.0702 36.8479C58.5906 36.3751 58.3363 35.7083 58.1645 35.0819L56.2358 35.611ZM61.4405 49.852C61.3277 50.0956 61.2031 50.3759 61.0752 50.6838L62.9223 51.4509C63.0387 51.1706 63.1523 50.915 63.2553 50.6927L61.4405 49.852ZM60.8998 51.2146C61.3972 51.2449 61.8766 51.2629 62.3275 51.2721L62.3683 49.2725C61.9415 49.2638 61.4892 49.2468 61.0216 49.2183L60.8998 51.2146ZM62.3863 50.1455C62.308 50.1126 62.0778 49.9551 61.6977 49.5406L60.2237 50.8923C60.6302 51.3356 61.1068 51.7772 61.6112 51.9892L62.3863 50.1455Z" fill="#192E35" mask="url(#path-5-outside-1_5040_8113)"/>
<path d="M76.6395 25.4698C77.3218 24.2793 76.1312 22.601 75.0368 21.778C75.4769 21.0373 75.1487 20.031 74.5216 19.4418C73.8946 18.8526 73.0439 18.5809 72.2234 18.3265C71.5375 16.4263 73.0289 17.5203 72.3733 16.0769C71.1645 14.7222 66.4414 14.7786 64.7857 15.5159C64.3814 15.696 63.9822 15.9121 63.5435 15.9694C63.2219 16.0117 62.8957 15.9658 62.5712 15.9658C60.7865 15.9654 59.2123 17.4407 58.7481 19.1723C58.6738 19.4491 58.6211 19.7375 58.4777 19.9855C58.2898 20.3109 57.968 20.5309 57.7045 20.7982C57.135 21.3761 56.8362 22.213 56.9103 23.0231C56.9732 23.711 57.287 24.4077 57.0835 25.0677C56.9813 25.3986 56.7554 25.685 56.6869 26.0244C56.4883 27.008 57.6538 27.8287 57.5922 28.8305C57.5795 29.0348 57.515 29.2324 57.4862 29.4352C57.4273 29.8496 57.5242 30.2847 57.7536 30.6344C57.9307 30.9041 58.1891 31.1383 58.2507 31.4555C58.2974 31.6962 58.2208 31.9418 58.2043 32.1864C58.1637 32.7849 59.997 34.0712 60.5401 34.3203L72.7037 33.2242C73.8055 32.8391 74.5901 31.6831 74.5444 30.5119C74.5368 30.3171 74.5118 30.1078 74.6098 29.9398C74.6936 29.7965 74.849 29.7153 74.9829 29.6179C75.877 28.9676 76.6625 27.6222 76.4146 26.5415C76.3798 26.39 76.3431 26.2352 76.3615 26.081C76.3885 25.8569 76.5273 25.6655 76.6395 25.4698Z" fill="#192E35"/>
<path d="M64.7569 78.8507C63.2954 79.8872 47.1928 86.5723 45.0907 88.6128C42.9872 90.6532 53.2342 110.008 53.8989 111.32C54.7645 113.027 48.7616 119.081 49.6692 119.908C50.5761 120.736 56.1599 115.738 58.3102 113.828C59.8453 112.465 58.3178 109.956 57.4439 109.279C56.57 108.602 54.2264 95.3752 54.0393 93.8367C53.8528 92.2982 66.9051 88.7254 68.2613 87.6373C69.6182 86.5499 65.2399 78.5074 64.7569 78.8507Z" fill="#CC966B"/>
<path d="M68.8353 75.4804C68.8353 75.4804 61.2989 78.0233 60.2147 79.1578C59.1305 80.293 63.7568 86.0027 65.2424 86.3826C66.7293 86.761 69.6543 80.9804 69.6543 80.9804L70.2151 77.7501L68.8353 75.4804Z" fill="#192E35"/>
<path d="M40.3292 73.6866L40.3292 73.6866C39.9341 73.7661 39.6853 74.0675 39.5288 74.3488C39.3672 74.6392 39.2461 75.0102 39.1461 75.4124C38.9601 76.1604 38.8191 77.1406 38.6689 78.1852C38.6572 78.2668 38.6454 78.3487 38.6335 78.4309C38.298 80.7566 37.8888 83.3626 36.8858 85.0707C36.8041 85.2097 36.72 85.3527 36.6337 85.4994C35.6001 87.2568 34.2577 89.5391 33.171 91.729C32.5822 92.9157 32.0623 94.0872 31.7059 95.1431C31.354 96.1853 31.1415 97.1708 31.2193 97.9633L40.3292 73.6866ZM40.3292 73.6866C40.7563 73.6007 41.7706 73.5724 43.1404 73.6203C44.5342 73.669 46.3508 73.7992 48.4175 74.0516C52.5478 74.556 57.6997 75.5513 62.4832 77.3734C68.1121 79.5174 72.9665 82.5443 76.4305 85.192C78.1627 86.5159 79.5536 87.7499 80.5239 88.7379C81.0082 89.2311 81.3944 89.6697 81.6671 90.0325C81.8031 90.2136 81.9169 90.3836 82.001 90.538C82.0791 90.6813 82.1568 90.8553 82.1744 91.034C82.1902 91.1943 82.1625 91.3616 82.1268 91.5077C82.0892 91.6616 82.0324 91.832 81.963 92.0122C81.8241 92.373 81.621 92.8083 81.3758 93.291C80.8845 94.2582 80.2034 95.4562 79.4705 96.7051C78.9347 97.6182 78.3723 98.5571 77.8324 99.4583C76.8853 101.039 76.0077 102.504 75.4656 103.51L75.4655 103.51M40.3292 73.6866L75.4655 103.51M75.4655 103.51C75.0624 104.258 74.6955 105.292 74.3378 106.468C74.1164 107.196 73.9047 107.957 73.6917 108.722C73.5601 109.195 73.4279 109.67 73.2925 110.14C72.9429 111.355 72.5754 112.527 72.1604 113.457C71.9527 113.922 71.7258 114.344 71.4726 114.686C71.2219 115.025 70.9214 115.319 70.5556 115.48C69.9469 115.749 69.1307 115.86 68.087 115.823C67.0369 115.785 65.7172 115.595 64.0759 115.227C60.7933 114.491 56.1699 113.029 49.7451 110.582C43.3053 108.129 38.7774 105.744 35.8158 103.612M75.4655 103.51L35.8158 103.612M35.8158 103.612C34.3351 102.546 33.2336 101.535 32.4803 100.6M35.8158 103.612L32.4803 100.6M32.4803 100.6C31.7311 99.6693 31.2995 98.7804 31.2193 97.9634L32.4803 100.6Z" fill="white" stroke="#192E35"/>
<path d="M69.8228 81.365C68.1788 82.0774 51.0549 85.3349 48.5761 86.8928C46.0981 88.4506 52.0909 109.271 52.4688 110.676C52.9607 112.504 45.8363 117.173 46.5515 118.157C47.2667 119.141 53.7611 115.412 56.2591 113.992C58.0419 112.977 57.0704 110.239 56.3566 109.407C55.6435 108.576 56.1003 95.2801 56.2371 93.7505C56.3738 92.2216 69.8709 91.3701 71.4229 90.5878C72.9742 89.8048 70.3663 81.1291 69.8228 81.365Z" fill="#FFC596"/>
<path d="M78.0531 70.4403C78.0531 70.4403 80.5718 73.1431 81.1567 77.3251C82.0165 83.4693 74.5803 91.3897 68.8771 92.2782C67.8232 92.442 63.5344 82.6547 64.4009 81.1002C65.2398 79.594 68.8838 79.5456 68.3064 75.1785C67.7282 70.8106 78.0531 70.4403 78.0531 70.4403Z" fill="#192E35"/>
<path d="M66.7449 41.9026C66.7449 42.2726 65.0401 43.6037 61.3462 44.1215C57.6509 44.6392 53.1049 42.9382 52.1806 42.4204C51.2577 41.9026 58.0779 34.3582 58.0779 34.3582L57.4381 28.4403C57.4381 28.4403 48.9051 38.5184 47.5637 41.4587C46.2131 44.4176 51.4705 47.8944 55.6617 49.2993C59.8543 50.7049 65.6793 50.1871 65.6793 50.1871L68.5212 44.6392L66.7449 41.9026Z" fill="#CC966B"/>
<path d="M62.5928 50.0038C63.5905 48.1052 65.6955 46.3192 66.3601 44.4213C67.0255 42.5235 65.0301 37.164 65.0301 37.164L67.0255 33.4801H70.6387L74.45 41.4071C74.45 41.4071 73.0096 45.5377 72.6766 46.3192C72.3443 47.1007 70.2385 49.8919 69.5739 50.2268C68.9085 50.5616 66.3601 51.1201 65.8058 51.1201C65.2528 51.1201 62.5928 50.0038 62.5928 50.0038Z" fill="#FFC596"/>
<path d="M77.0374 43.637C77.0374 43.637 76.0497 41.3421 73.4145 41.9983C71.6945 42.426 70.1215 48.2269 67.7069 49.6481C65.2916 51.0686 63.4802 49.9759 62.821 49.3204C62.821 49.3204 60.3511 53.8008 61.0103 56.6417C61.6687 59.4834 62.6564 58.8279 63.0963 61.8878C63.5348 64.9478 66.4986 75.0013 67.5969 76.0947C68.6946 77.1875 76.7075 74.1275 78.6842 70.8487C78.6842 70.8487 76.2689 62.8711 76.2689 57.6257C76.2689 52.3803 77.5866 48.9919 77.5866 48.9919L77.0374 43.637Z" fill="#9483FF"/>
<path d="M77.2425 48.5792C80.3081 46.4619 78.0616 41.7304 74.4693 42.9638C70.8769 44.1966 64.0567 50.1778 62.4656 51.0786C60.8753 51.9788 54.7584 40.5166 54.3015 38.7449C53.844 36.9731 54.9549 34.737 54.3467 33.7215C53.7399 32.7066 52.6523 34.5076 52.4146 34.8226C52.1777 35.1382 51.3366 33.0223 50.8078 31.8622C50.2818 30.7061 48.6771 30.4767 47.5895 32.2769C46.5018 34.0779 49.401 37.616 50.0031 38.7394C50.6051 39.8629 56.0296 55.0457 60.0246 57.6158C62.7957 59.3984 75.1823 50.0013 77.2425 48.5792Z" fill="#FFC596"/>
<path d="M55.918 25.3058C55.3135 27.0085 57.674 30.5522 56.1601 32.6828C55.4345 33.7042 56.5232 34.2716 56.8856 34.3856C57.2487 34.4989 57.1277 39.0378 61.723 38.4705C66.3184 37.9038 68.253 35.1796 68.7364 32.6828C69.2206 30.186 63.8997 23.0356 63.8997 23.0356L59.6668 20.8795L57.4908 22.3549L55.918 25.3058Z" fill="#FFC596"/>
<mask id="mask0_5040_8113" style="mask-type:alpha" maskUnits="userSpaceOnUse" x="55" y="20" width="14" height="19">
<path d="M55.918 25.3058C55.3135 27.0085 57.674 30.5522 56.1601 32.6828C55.4345 33.7042 56.5232 34.2716 56.8856 34.3856C57.2487 34.4989 57.1277 39.0378 61.723 38.4705C66.3184 37.9038 68.253 35.1796 68.7364 32.6828C69.2206 30.186 63.8997 23.0356 63.8997 23.0356L59.6668 20.8795L57.4908 22.3549L55.918 25.3058Z" fill="#FFC596"/>
</mask>
<g mask="url(#mask0_5040_8113)">
<path d="M61.238 31.3857C61.7697 31.3857 62.3069 31.1505 62.7823 30.681C62.8418 30.6222 62.8568 30.5055 62.8157 30.4204C62.7747 30.3342 62.6931 30.3129 62.6336 30.3717C61.7747 31.2205 60.6936 31.2225 59.8791 30.3747C59.8206 30.3139 59.7387 30.3321 59.6962 30.4163C59.6537 30.4995 59.6667 30.6171 59.7252 30.6779C60.1784 31.1495 60.7054 31.3857 61.238 31.3857Z" fill="#17282F"/>
<path d="M60.2904 36.4169C60.5958 36.3898 60.8998 36.2939 61.2147 36.126C61.5067 35.9705 61.8576 35.7621 61.9805 35.5298C62.0083 35.4774 61.9847 35.4142 61.9276 35.3889C61.8705 35.363 61.8018 35.3846 61.774 35.4375C61.6659 35.6409 61.2543 35.8604 61.0994 35.943C60.755 36.1268 60.4417 36.2131 60.1134 36.2136C59.5196 36.2154 59.0028 36.0245 58.487 35.614C58.4387 35.5758 58.3662 35.5806 58.3247 35.6244C58.2832 35.6688 58.2883 35.7354 58.336 35.7736C58.8967 36.2197 59.4615 36.4264 60.114 36.4252C60.1729 36.4245 60.2317 36.4221 60.2904 36.4169Z" fill="#192E35"/>
<path d="M69.0106 28.3553C68.7271 26.7379 67.9908 25.2473 67.0364 23.9592C66.6359 23.4188 66.1929 22.9071 65.6661 22.5001C65.066 22.0359 64.3718 21.7186 63.6814 21.4109C62.7807 21.0094 62.114 20.9036 61.1264 20.8267C59.2868 20.6834 57.4151 21.5355 55.8399 22.606C55.2408 23.0131 54.7397 23.5199 54.2607 24.0743C53.6879 24.7378 53.12 25.3856 52.799 26.2068C52.3348 27.3936 51.8268 27.8186 51.9344 29.8355L51.9707 30.4037C52.5899 29.861 52.9483 29.2022 52.8113 28.3932C53.2715 28.4571 53.6532 27.7919 53.8657 27.3521C54.0783 26.9123 54.3722 26.6598 54.2963 26.1842C54.2813 26.0904 54.2639 25.9913 54.2968 25.9006C54.3487 25.7582 54.5015 25.6894 54.6335 25.6227C55.3134 25.2787 55.8138 24.5589 55.9091 23.7869C56.6572 23.9921 57.4616 23.9974 58.2262 23.8026C58.6298 24.261 59.2747 24.4742 59.8755 24.3481C60.4764 24.2219 61.0132 23.7604 61.2484 23.1679C61.4991 23.5638 61.9614 23.7688 62.4217 23.8125C62.882 23.8565 63.3477 23.7604 63.8055 23.6647C63.7145 24.6182 64.4128 25.5518 65.3172 25.6861C65.4394 25.7043 65.5803 25.7189 65.6478 25.8246C65.7183 25.9345 65.6724 26.0836 65.6412 26.215C65.4437 27.0465 66.0621 27.9525 66.8739 28.021C66.3826 28.5445 66.5561 29.5412 67.1859 29.8123C67.3152 29.868 67.4832 29.9328 67.4817 30.0802C67.4809 30.1363 67.4531 30.1886 67.4258 30.2383C67.2186 30.6177 67.016 31.0284 67.0356 31.4565C67.0551 31.8849 67.3871 32.3147 67.7994 32.2659C67.6073 32.4993 67.4361 32.7871 67.4659 33.0858C67.496 33.3846 67.8229 33.6402 68.0791 33.4889C68.1878 33.4245 68.5923 33.4612 68.653 33.3473C69.218 31.8246 69.2944 29.9726 69.0106 28.3553Z" fill="#192E35"/>
</g>
</svg>
