<svg width="276" height="187" viewBox="0 0 276 187" fill="none" xmlns="http://www.w3.org/2000/svg">
<path d="M262.954 187L115.081 186.949L40.7725 186.923L36.6355 186.92L21.7068 186.918C21.7068 186.918 0.381795 169.582 0.0123887 145.075C-0.715534 96.7846 30.893 118.536 26.5988 60.3361C22.6804 7.22903 125.059 -21.4082 180.65 19.165C200.861 33.9162 202.446 44.2623 231.489 40.9913C264.273 37.2992 268.009 77.1426 256.535 99.2292C240.253 130.567 301.681 125.419 262.954 187Z" fill="#DCFBF3"/>
<mask id="mask0_4149_14184" style="mask-type:alpha" maskUnits="userSpaceOnUse" x="0" y="0" width="276" height="187">
<path d="M262.954 187L115.081 186.949L40.7725 186.923L36.6355 186.92L21.7068 186.918C21.7068 186.918 0.381795 169.582 0.0123887 145.075C-0.715534 96.7846 30.893 118.536 26.5988 60.3361C22.6804 7.22903 125.059 -21.4082 180.65 19.165C200.861 33.9162 202.446 44.2623 231.489 40.9913C264.273 37.2992 268.009 77.1426 256.535 99.2292C240.253 130.567 301.681 125.419 262.954 187Z" fill="#CEF7F3"/>
</mask>
<g mask="url(#mask0_4149_14184)">
<path d="M69.0001 104.125C45.3384 99.5664 7.96161 113.156 7.96161 113.156H-5.30762V187H279.185V154.062C279.185 154.062 234.394 131.69 203.285 128.562C172.536 125.472 154.7 145.673 124.731 138.125C100.013 131.9 94.0291 108.947 69.0001 104.125Z" fill="#ABFEE6"/>
</g>
<path d="M86.8656 110.57C86.8656 110.57 97.3996 130.42 100.373 138.055C103.346 145.689 95.0579 155.397 95.0579 155.397L88.9051 149.591C88.9051 149.591 85.5067 117.188 86.8656 110.57Z" fill="#6F3530"/>
<path d="M86.6113 110.907C86.6113 110.907 68.7553 100.886 53.9019 98.3393C39.0486 95.7912 34.2097 104.623 34.2097 104.623L44.5893 163.221L39.3829 187H97.96L90.9507 153.2C90.9507 153.2 91.7851 124.156 86.6113 110.907Z" fill="#D17B4D"/>
<path d="M62.9612 41.525C64.1458 33.7809 73.474 34.8088 77.8685 37.4594C80.9184 34.392 82.9995 32.9274 88.8458 33.4463C93.1469 33.8283 99.3177 36.9531 101.937 41.7375C104.556 46.5219 104.27 52.7204 101.334 57.3176C100.363 58.8381 99.0828 60.3226 99.0152 62.1246C98.9167 64.7315 101.319 66.6354 102.729 68.8322C105.09 72.512 104.485 77.8146 101.354 80.8689C99.3712 82.8038 96.5121 83.9384 95.2395 86.3979C94.1733 88.458 94.5013 90.9391 94.0143 93.2068C93.1201 97.3743 89.3595 100.573 85.1969 101.519C81.0359 102.464 76.6049 101.413 72.858 99.3708" fill="#1D2A30"/>
<path d="M89.6229 58.1393C90.5108 64.3766 89.6285 77.8194 88.735 83.3642C87.8403 88.9101 81.5236 93.5964 75.1968 95.5676C68.8699 97.54 57.8647 89.9059 55.9109 85.5223C53.9571 81.1386 52.5621 59.4872 52.5621 59.4872C52.5621 59.4872 88.735 51.902 89.6229 58.1393Z" fill="#BA6258"/>
<path d="M96.4561 48.666C94.2601 53.7398 89.2424 61.3298 83.7464 61.9954C78.2517 62.661 72.4836 60.2235 69.1361 55.8212C68.304 59.9126 63.7567 62.0857 59.6302 62.7608C56.713 63.2393 53.6353 63.2684 50.8909 62.1709C48.1458 61.0734 45.7945 58.6862 45.3518 55.7666C44.9091 52.8477 49.0684 45.6779 51.9739 45.1346" fill="#1D2A30"/>
<path d="M64.7825 57.751C65.7349 59.8724 65.8115 62.3711 64.9896 64.5464C64.1684 66.7218 62.4588 68.5475 60.3409 69.5125C62.3721 72.0308 62.7324 75.592 61.96 78.7323C61.1877 81.8718 59.4147 84.6684 57.5127 87.2843C57.5127 87.2843 62.4603 94.4286 52.5023 99.6451C52.5023 99.6451 45.5126 97.4829 48.634 86.9624C48.8557 86.2174 48.8718 85.3602 48.5093 84.6728C48.1622 84.0144 47.4307 83.6743 46.7787 83.3131C44.1831 81.8726 42.1906 79.3834 41.3562 76.5373C40.5219 73.6912 40.8552 70.5218 42.2643 67.911C42.6398 67.2133 43.0971 66.5339 43.2313 65.7525C43.4326 64.5719 44.3348 61.4877 43.9256 60.3619C41.7895 54.4709 44.5397 47.1519 51.4601 43.5156C57.0131 40.599 63.9612 40.1169 68.2095 44.7275" fill="#1D2A30"/>
<path d="M86.1523 73.3067C86.1869 73.8401 85.7615 74.3084 85.2032 74.3538C84.6464 74.3999 84.166 74.0055 84.1315 73.4728C84.0977 72.9394 84.5223 72.4704 85.0798 72.425C85.6381 72.3789 86.1185 72.774 86.1523 73.3067Z" fill="#17282F"/>
<path d="M86.6113 70.1464C86.4895 70.2818 85.7055 69.7367 84.6147 69.7703C83.5246 69.7886 82.7399 70.3704 82.6181 70.2408C82.5579 70.1838 82.6797 69.9423 83.0211 69.6789C83.3565 69.4176 83.935 69.1564 84.6147 69.1396C85.2944 69.1242 85.8729 69.3577 86.2091 69.6035C86.5512 69.8501 86.6723 70.0857 86.6113 70.1464Z" fill="#17282F"/>
<path d="M85.1447 64.939C85.0616 65.2398 84.2688 65.2907 83.4295 65.6252C82.5781 65.93 81.9508 66.4163 81.6891 66.2452C81.5696 66.1585 81.5866 65.8844 81.8056 65.5404C82.0209 65.1993 82.4568 64.8126 83.0382 64.5927C83.6192 64.3737 84.2024 64.3746 84.5896 64.4876C84.9822 64.6002 85.176 64.7948 85.1447 64.939Z" fill="#17282F"/>
<path d="M71.9858 74.7213C72.0204 75.2547 71.595 75.723 71.0367 75.7684C70.4799 75.8145 69.9995 75.4201 69.965 74.8874C69.9312 74.354 70.3558 73.8849 70.9133 73.8396C71.4716 73.7935 71.952 74.1886 71.9858 74.7213Z" fill="#17282F"/>
<path d="M72.4444 71.561C72.3225 71.6963 71.5385 71.1512 70.4477 71.1849C69.3576 71.2032 68.5729 71.7849 68.4511 71.6554C68.3909 71.5983 68.5127 71.3568 68.8541 71.0934C69.1895 70.8322 69.768 70.571 70.4477 70.5541C71.1275 70.5388 71.7059 70.7722 72.0421 71.0181C72.3842 71.2646 72.5053 71.5002 72.4444 71.561Z" fill="#17282F"/>
<path d="M71.9543 67.8298C71.7693 68.0815 71.0103 67.8466 70.1066 67.8605C69.2023 67.8422 68.4425 68.0734 68.259 67.8203C68.1783 67.6966 68.292 67.4464 68.6194 67.2027C68.9424 66.9605 69.4878 66.7542 70.1096 66.7556C70.7306 66.7578 71.2753 66.9664 71.5968 67.21C71.9234 67.4552 72.035 67.7061 71.9543 67.8298Z" fill="#17282F"/>
<path d="M78.2017 81.4603C78.1951 81.3988 78.8697 81.2627 79.9642 81.0915C80.2424 81.0549 80.5045 80.9927 80.5463 80.8018C80.6058 80.5991 80.481 80.3035 80.3364 79.9837C80.0552 79.3193 79.7616 78.6227 79.4526 77.8932C78.223 74.9151 77.3238 72.4631 77.4449 72.4149C77.5653 72.3666 78.6605 74.741 79.8901 77.719C80.1866 78.4537 80.47 79.1539 80.7401 79.8235C80.8546 80.1359 81.0462 80.4893 80.9156 80.9093C80.8466 81.1193 80.6462 81.2752 80.4692 81.3286C80.2916 81.3879 80.1353 81.3952 79.998 81.4069C78.894 81.4976 78.2076 81.5225 78.2017 81.4603Z" fill="#17282F"/>
<path d="M77.2868 85.7714C76.8391 85.0343 76.0064 84.4886 75.1498 84.373C74.5559 84.2922 73.941 84.4225 73.5521 84.7975C73.1625 85.1723 73.0431 85.8083 73.3395 86.3255C73.6729 86.9086 74.4312 87.2066 75.0922 87.1846C75.7531 87.1632 76.3386 86.8874 76.8967 86.6064C77.0503 86.5287 77.2087 86.4467 77.3106 86.314C77.4126 86.1813 77.4459 85.9837 77.3412 85.8283" fill="#6F3530"/>
<path d="M77.4533 87.2737C77.2587 87.3301 76.988 86.2694 75.6709 85.7862C74.3564 85.2988 72.9834 85.7536 72.9356 85.6078C72.9007 85.5453 73.1959 85.3271 73.7845 85.1728C74.3617 85.0175 75.2477 84.965 76.0527 85.2615C76.8571 85.5589 77.3083 86.1041 77.4625 86.5288C77.6251 86.9607 77.5445 87.259 77.4533 87.2737Z" fill="#17282F"/>
<path d="M73.2392 93.6548C73.2392 93.6548 72.1789 100.481 73.5254 106.449L55.8902 100.343L55.4733 84.2338L73.2392 93.6548Z" fill="#BA6258"/>
<path d="M72.9951 95.885C72.9951 95.885 65.1021 94.5719 60.3155 90.4448C60.3155 90.4448 65.8728 100.427 72.8982 101.648L72.9951 95.885Z" fill="#6F3530"/>
<path d="M80.3067 107.265C80.3067 107.265 81.4268 110.458 71.0931 110.571C60.7583 110.684 46.2612 100.053 46.2612 100.053L55.0951 99.3707L73.5258 104.123L80.3067 107.265Z" fill="#BA6258"/>
<path d="M46.0938 75.4201C43.7323 71.9805 39.096 70.2807 35.0673 71.3782C31.0379 72.475 27.9069 76.2904 27.6218 80.4509C27.3366 84.6115 29.9162 88.8165 33.7582 90.4522C30.6295 92.05 29.1905 96.2965 30.706 99.4622C32.2208 102.629 36.4348 104.178 39.6445 102.751C40.4409 105.547 43.5733 107.237 46.4781 107.044C49.3822 106.851 51.9975 105.131 53.9813 103.003C58.1033 98.5825 59.9536 92.0522 58.4082 86.2122C56.8627 80.3723 51.8261 75.5097 45.8611 74.5061" fill="#1D2A30"/>
<path d="M41.4794 70.8729C41.4699 70.8678 41.4291 70.9377 41.359 71.0768C41.2956 71.218 41.1797 71.4198 41.0797 71.7016C40.8617 72.258 40.6144 73.1057 40.5189 74.2032C40.427 75.2963 40.4963 76.648 40.9528 78.0863C41.386 79.5239 42.2364 81.0423 43.555 82.2957L43.5324 82.0546C42.588 83.3276 41.8783 84.9414 41.599 86.698C41.2088 89.0962 41.6595 91.4791 42.6543 93.3303C43.6462 95.1925 45.096 96.5063 46.4365 97.3299C47.7857 98.1602 49.0285 98.544 49.8905 98.7078C50.3245 98.7821 50.6621 98.8309 50.8948 98.8375C51.1252 98.852 51.2463 98.8535 51.247 98.8404C51.2514 98.801 50.7672 98.7661 49.9226 98.5636C49.0825 98.3583 47.8791 97.9431 46.5809 97.1035C45.2908 96.2718 43.9044 94.9733 42.9643 93.1665C42.022 91.3742 41.5983 89.0751 41.9732 86.7577C42.2437 85.0609 42.9234 83.5031 43.8241 82.2709L43.9197 82.1406L43.8015 82.0299C42.5289 80.8355 41.6902 79.3804 41.2482 77.9924C40.7836 76.6036 40.6881 75.2898 40.7464 74.2185C40.8792 72.0563 41.5618 70.8954 41.4794 70.8729Z" fill="#365462"/>
<path d="M35.3874 104.972C35.3874 104.972 30.1198 105.651 28.5907 116.169C27.0617 126.688 37.2703 153.654 40.823 159.43C46.7701 169.101 99.6074 161.127 99.6074 161.127L96.7196 149.421L54.2451 144.162C54.2451 144.162 48.8084 120.58 45.5802 111.929C42.3531 103.276 35.3874 104.972 35.3874 104.972Z" fill="#BA6258"/>
<path d="M96.3418 100.052C96.3418 100.052 92.1164 94.708 90.4258 94.1994C88.7353 93.6908 82.9515 96.6703 82.5301 97.5558C82.1087 98.4413 83.1284 100.052 83.1284 100.052C83.1284 100.052 83.3831 103.106 84.4028 103.615C85.4214 104.123 85.4214 104.123 85.4214 104.123C85.4214 104.123 87.0361 108.705 89.8395 109.468C89.8395 109.468 90.4341 114.812 93.8321 115.575L100.373 110.062C100.373 110.062 99.5307 105.566 96.3418 100.052Z" fill="#BA6258"/>
<path d="M91.708 95.5146C91.708 95.5146 89.2014 92.3755 87.2904 91.4C85.3794 90.4244 80.1973 91.6542 79.6452 92.4182C79.0931 93.1811 80.1973 93.6908 82.194 93.5209C84.1906 93.351 84.8701 93.2767 84.8701 93.2767L86.3135 95.8871L91.708 95.5146Z" fill="#BA6258"/>
<path d="M100.373 110.062C100.373 110.062 112.747 143.823 112.52 152.645C112.294 161.467 106.63 162.824 103.232 162.598C99.8344 162.372 95.2169 157.387 93.2652 151.288C91.3132 145.187 93.2652 113.964 93.2652 113.964L100.373 110.062Z" fill="#BA6258"/>
<path d="M47.1389 155.288C47.2043 155.297 47.3033 154.646 47.6458 153.656C47.7333 153.408 47.8294 153.139 47.9592 152.859C48.0729 152.574 48.2305 152.285 48.386 151.977C48.7211 151.373 49.1352 150.735 49.6394 150.118C50.1525 149.507 50.7018 148.981 51.233 148.538C51.5068 148.328 51.7611 148.118 52.021 147.953C52.2715 147.773 52.5191 147.628 52.7458 147.496C53.6558 146.973 54.2779 146.754 54.2566 146.691C54.2468 146.655 53.5879 146.785 52.6188 147.261C52.3778 147.381 52.1156 147.517 51.8498 147.691C51.5746 147.85 51.3045 148.055 51.0158 148.265C50.4553 148.707 49.878 149.245 49.3477 149.877C48.8255 150.516 48.4054 151.183 48.0769 151.816C47.9244 152.138 47.773 152.441 47.6686 152.741C47.5476 153.034 47.463 153.317 47.3901 153.576C47.1045 154.615 47.1006 155.286 47.1389 155.288Z" fill="#6F3530"/>
<path d="M96.7764 115.575C96.7764 115.575 94.8507 116.749 93.1826 115.36L96.7764 115.575Z" fill="#6F3530"/>
<path d="M89.8396 109.468C89.8396 109.468 90.8299 109.045 90.49 107.743L89.6235 105.764" fill="#6F3530"/>
<path d="M88.8477 102.202C88.8477 102.202 85.9034 102.88 85.4211 104.123L88.8477 102.202Z" fill="#6F3530"/>
<path d="M87.376 98.6956C87.376 98.6956 84.7134 98.5257 83.128 100.053L87.376 98.6956Z" fill="#6F3530"/>
<path d="M82.376 113.439C82.376 113.439 82.2464 115.805 74.4829 116.29C66.7194 116.775 59.2241 113.948 59.2241 113.948" fill="#974A21"/>
<g clip-path="url(#clip0_4149_14184)">
<path d="M215.993 33.06C215.235 31.5513 213.435 30.6395 211.766 30.9202C209.835 29.3482 206.783 29.3616 204.865 30.951C203.404 30.0584 201.47 29.9933 199.952 30.7854C198.434 31.5781 197.385 33.1995 197.287 34.9057C195.577 34.6088 193.725 35.5072 192.904 37.0322C192.083 38.5571 192.355 40.5935 193.547 41.8511C191.673 42.4288 190.417 44.536 190.804 46.4538C191.191 48.3722 193.168 49.8303 195.12 49.6391L215.177 37.7179C216.403 36.5539 216.75 34.5698 215.993 33.06Z" fill="#DADBD8"/>
<path d="M194.531 50.1901C195.37 41.4019 202.836 34.732 211.686 34.8605L212.566 34.8732C222.04 35.5637 226.745 43.9735 225.791 53.3998L223.959 84.8732L223.855 86.4011L201.909 90.4587L202.057 82.4318C202.057 82.4318 192.963 80.886 192.982 71.795C192.992 67.4038 193.75 58.3634 194.531 50.1901Z" fill="#F8A58D"/>
<path d="M201.982 82.4178C201.982 82.4178 207.797 82.8513 213.975 79.1052C213.975 79.1052 211.071 85.606 201.988 84.6558L201.982 82.4178Z" fill="#F68260"/>
<path d="M198.113 58.6063C198.078 59.2915 198.632 59.886 199.349 59.9348C200.064 59.9831 200.673 59.4688 200.707 58.7836C200.742 58.0984 200.188 57.5039 199.473 57.4545C198.756 57.4057 198.147 57.9217 198.113 58.6063Z" fill="#17282F"/>
<path d="M196.425 54.6661C196.583 54.8375 197.58 54.1239 198.981 54.1483C200.38 54.1518 201.397 54.8858 201.552 54.7167C201.628 54.6423 201.467 54.3337 201.025 54.0024C200.589 53.6723 199.842 53.3469 198.969 53.3376C198.097 53.33 197.358 53.6398 196.932 53.9612C196.496 54.2849 196.346 54.5888 196.425 54.6661Z" fill="#17282F"/>
<path d="M211.138 58.9445C211.103 59.6297 211.657 60.2231 212.374 60.2719C213.089 60.3213 213.698 59.8064 213.732 59.1212C213.767 58.436 213.213 57.8415 212.497 57.7927C211.781 57.7433 211.172 58.2594 211.138 58.9445Z" fill="#17282F"/>
<path d="M210.188 55.1258C210.347 55.2978 211.345 54.5842 212.744 54.6086C214.143 54.6127 215.161 55.3461 215.316 55.177C215.392 55.1026 215.233 54.7946 214.789 54.4633C214.353 54.1326 213.606 53.8078 212.733 53.7979C211.861 53.7903 211.122 54.1001 210.696 54.422C210.261 54.7452 210.11 55.0491 210.188 55.1258Z" fill="#17282F"/>
<path d="M204.954 65.4116C204.962 65.3326 204.093 65.1699 202.685 64.9694C202.328 64.9275 201.991 64.8514 201.934 64.6073C201.853 64.3481 202.009 63.9663 202.188 63.5537C202.537 62.6953 202.902 61.7957 203.285 60.8525C204.811 57.0064 205.92 53.8426 205.764 53.7828C205.608 53.7229 204.246 56.7914 202.721 60.6375C202.353 61.5853 202.002 62.4902 201.668 63.3549C201.527 63.7582 201.287 64.2145 201.462 64.752C201.554 65.0199 201.814 65.2175 202.042 65.282C202.271 65.3553 202.472 65.3622 202.648 65.375C204.067 65.4715 204.947 65.4907 204.954 65.4116Z" fill="#17282F"/>
<path d="M209.061 66.4379C208.834 66.4211 208.809 67.9373 207.492 68.9944C206.177 70.0556 204.559 69.8621 204.544 70.0736C204.522 70.1684 204.901 70.3729 205.585 70.402C206.255 70.4345 207.238 70.234 208.044 69.5872C208.848 68.9386 209.202 68.0628 209.263 67.4416C209.33 66.8081 209.166 66.4304 209.061 66.4379Z" fill="#17282F"/>
<path d="M209.906 49.6467C210.039 50.0285 211.44 49.8687 213.08 50.0901C214.725 50.2784 216.043 50.7776 216.266 50.4399C216.366 50.2784 216.14 49.9181 215.61 49.5421C215.083 49.1678 214.241 48.8063 213.257 48.6825C212.272 48.5605 211.366 48.7035 210.764 48.9382C210.157 49.1719 209.849 49.4653 209.906 49.6467Z" fill="#DADBD8"/>
<path d="M196.998 50.6305C197.24 50.9513 198.209 50.6363 199.37 50.6375C200.53 50.5986 201.51 50.8816 201.74 50.5532C201.842 50.3934 201.692 50.0732 201.267 49.7669C200.848 49.4613 200.144 49.2067 199.347 49.2189C198.549 49.2329 197.854 49.5101 197.445 49.8291C197.031 50.1493 196.892 50.4742 196.998 50.6305Z" fill="#DADBD8"/>
<path d="M195.467 46.0343C195.467 46.0343 197.954 40.3762 200.726 39.0878C204.081 37.528 205.462 41.1962 208.651 40.3576C211.839 39.5178 215.042 38.0213 218.251 40.5162C221.764 43.2471 220.072 45.1027 220.233 49.1394C220.884 65.504 223.811 70.1718 224.775 62.482C224.88 61.6394 227.238 61.0024 227.638 57.4423C228.156 52.8256 228.417 47.2152 227.43 43.9195C226.598 41.1416 225.045 39.2081 222.241 37.0607C217.815 33.6708 211.669 33.5099 207.489 33.8684C203.309 34.227 195.191 38.9006 195.467 46.0343Z" fill="#DADBD8"/>
<path d="M224.198 62.2258C224.275 60.8241 225.504 59.7338 226.903 59.8872C228.601 60.0732 230.478 61.0629 230.315 64.5644C230.025 70.7763 223.832 69.2049 223.83 69.0264C223.828 68.905 224.053 64.8247 224.198 62.2258Z" fill="#F8A58D"/>
<path d="M225.294 66.7523C225.322 66.7337 225.399 66.8331 225.579 66.9249C225.753 67.015 226.058 67.0853 226.389 66.9796C227.058 66.7692 227.66 65.7533 227.743 64.6346C227.785 64.0703 227.692 63.5264 227.511 63.0719C227.342 62.6081 227.062 62.2775 226.734 62.2031C226.408 62.1118 226.164 62.2984 226.08 62.4698C225.988 62.6395 226.022 62.7656 225.988 62.7749C225.97 62.7894 225.86 62.6645 225.921 62.41C225.953 62.2879 226.033 62.1449 226.185 62.0322C226.34 61.9183 226.563 61.8666 226.792 61.902C227.271 61.9578 227.683 62.4181 227.881 62.9179C228.105 63.4206 228.223 64.0325 228.176 64.6666C228.078 65.9166 227.381 67.058 226.468 67.2754C226.025 67.3695 225.665 67.2207 225.484 67.0656C225.298 66.9028 225.272 66.7622 225.294 66.7523Z" fill="#F68260"/>
<path d="M224.251 50.1837C223.434 50.723 222.571 51.2792 221.595 51.3611C220.618 51.443 219.511 50.8683 219.361 49.9024C219.293 49.4689 219.406 48.9685 219.126 48.6297C218.792 48.2264 218.162 48.342 217.64 48.3897C215.825 48.5547 213.988 47.25 213.553 45.4856C213.081 46.1691 212.003 46.1232 211.31 45.6641C210.618 45.2044 210.178 44.4622 209.64 43.8288C209.102 43.1959 208.342 42.6258 207.517 42.731C207.055 42.7897 206.62 43.057 206.157 43.0088C205.34 42.9245 204.954 41.9633 204.843 41.1514C204.73 40.3395 204.648 39.3928 203.961 38.9425C203.325 38.5252 202.489 38.7489 201.734 38.8489C200.979 38.9488 200.009 38.7582 199.827 38.0207C199.732 37.6343 199.904 37.231 200.123 36.8974C201.115 35.3881 203.241 34.7419 204.908 35.4433C205.548 33.3983 207.497 31.828 209.636 31.6345C211.774 31.4409 213.975 32.6346 214.973 34.5315C216.308 33.3593 218.229 32.8868 219.956 33.3064C221.685 33.7254 223.173 35.0255 223.817 36.6789C225.339 36.3029 227.058 36.9131 228 38.1625C228.943 39.4114 229.053 41.2281 228.268 42.5816C229.38 43.236 230.322 44.3599 230.327 45.6472C230.331 46.9333 229.056 48.1967 227.816 47.8405C228.305 48.8493 227.876 50.2023 226.894 50.748C225.913 51.2931 224.533 50.9456 223.93 50.0012" fill="#DADBD8"/>
<path d="M228.274 47.8335C228.295 47.8172 228.381 48.3577 227.868 49.0225C227.614 49.3375 227.183 49.6635 226.608 49.7466C226.045 49.8326 225.36 49.685 224.84 49.2062L225.104 49.1707C224.787 49.7013 224.373 50.24 223.837 50.702C223.493 50.9967 223.111 51.246 222.691 51.3895C222.28 51.5465 221.815 51.5552 221.436 51.4883C220.647 51.3895 219.964 50.9566 219.653 50.433C219.328 49.9216 219.23 49.4485 219.167 49.1329C219.108 48.8139 219.105 48.6343 219.126 48.6297C219.153 48.6244 219.203 48.7965 219.303 49.0986C219.403 49.3974 219.541 49.8454 219.861 50.2888C220.438 51.1891 222.356 51.672 223.603 50.4306C224.101 50.0023 224.502 49.4927 224.811 48.9952L224.924 48.8139L225.075 48.9597C225.497 49.3648 226.084 49.5148 226.571 49.4595C227.065 49.4084 227.454 49.1504 227.707 48.8824C228.215 48.324 228.219 47.8166 228.274 47.8335Z" fill="white"/>
<path d="M216.706 33.4692C216.709 33.4907 216.543 33.5105 216.264 33.6238C215.99 33.7389 215.585 33.9667 215.283 34.4304L215.207 34.5478L215.123 34.431C214.552 33.6435 213.59 32.6277 212.146 31.9547C211.427 31.6246 210.592 31.3933 209.7 31.3823C208.813 31.3648 207.88 31.6066 207.051 32.0959C206.406 32.4754 205.861 32.9851 205.458 33.5581C205.064 34.1381 204.818 34.7849 204.745 35.4219L204.723 35.6183L204.535 35.5643C203.602 35.2934 202.645 35.4614 201.94 35.8409C201.224 36.2198 200.765 36.8073 200.501 37.3344C199.983 38.4206 200.15 39.179 200.086 39.1697C200.072 39.172 200.023 38.996 200.018 38.6601C200.017 38.3271 200.066 37.8244 200.319 37.249C200.569 36.6818 201.041 36.0309 201.806 35.5985C202.559 35.1691 203.591 34.9628 204.627 35.2469L204.416 35.3887C204.486 34.6943 204.746 33.9882 205.167 33.3605C205.597 32.7393 206.18 32.193 206.868 31.7879C207.752 31.2661 208.757 31.0098 209.706 31.0359C210.656 31.0563 211.534 31.3137 212.28 31.6717C213.778 32.4034 214.738 33.4861 215.283 34.3218L215.123 34.3223C215.48 33.8284 215.931 33.6168 216.229 33.5273C216.534 33.4396 216.706 33.4558 216.706 33.4692Z" fill="white"/>
<path d="M211.192 67.3736C211.09 67.3724 211.062 66.7175 210.539 66.1683C210.037 65.6017 209.385 65.5156 209.392 65.4151C209.393 65.3709 209.568 65.3215 209.85 65.3738C210.13 65.4238 210.505 65.6022 210.804 65.9265C211.101 66.252 211.247 66.6396 211.273 66.922C211.3 67.208 211.235 67.3771 211.192 67.3736Z" fill="#F68260"/>
<path d="M211.769 65.6644C211.681 65.7161 211.457 65.4966 211.129 65.3451C210.804 65.1837 210.493 65.1471 210.479 65.0466C210.455 64.9526 210.85 64.8138 211.284 65.0228C211.719 65.2301 211.857 65.6249 211.769 65.6644Z" fill="#F68260"/>
<path d="M154.81 107.555C154.81 107.555 156.206 113.171 157.131 114.707C158.056 116.242 158.182 117.532 158.182 117.532L158.761 126.524L151.385 133.789L137.087 123.141C137.087 123.141 131.958 118.143 133.344 116.25C133.344 116.25 134.024 115.326 135.219 116.268C135.219 116.268 129.872 112.134 131.109 110.513C132.346 108.892 134.188 111.242 136.124 112.88C138.06 114.517 138.692 114.977 138.692 114.977L133.132 109.612C133.132 109.612 131.563 108.232 132.955 107.106C134.346 105.98 136.403 108.8 137.379 109.387C138.355 109.976 143.828 115.176 143.828 115.176C143.828 115.176 140.033 110.356 139.764 110.093C139.495 109.83 136.062 107.263 137.341 105.782C138.62 104.301 141.901 107.903 142.985 108.725C144.068 109.548 148.14 114.4 149.05 114.894C149.959 115.387 151.601 116.806 152.613 116.356C153.625 115.905 151.554 112.138 151.879 110.786C152.203 109.433 152.767 106.857 154.81 107.555Z" fill="#F8A58D"/>
<path d="M151.309 124.928C151.364 124.89 150.984 124.455 150.79 123.598C150.581 122.748 150.666 121.509 151.185 120.258C151.678 118.993 152.353 117.953 152.722 117.105C152.904 116.68 152.982 116.3 152.978 116.036C152.974 115.772 152.912 115.635 152.891 115.64C152.84 115.648 152.91 116.208 152.477 116.991C152.069 117.769 151.34 118.813 150.83 120.119C150.287 121.417 150.234 122.779 150.53 123.667C150.81 124.571 151.288 124.96 151.309 124.928Z" fill="#F68260"/>
<path d="M141.346 122.001C141.386 121.99 141.166 121.48 140.468 121.015C139.809 120.525 138.682 120.191 137.897 119.345C137.513 118.911 137.25 118.395 136.982 117.936C136.72 117.472 136.433 117.06 136.136 116.768C135.533 116.161 134.954 116.118 134.96 116.164C134.939 116.222 135.439 116.351 135.938 116.951C136.19 117.246 136.432 117.638 136.674 118.105C136.923 118.567 137.182 119.109 137.611 119.598C138.048 120.088 138.595 120.386 139.071 120.622C139.553 120.858 139.984 121.049 140.324 121.243C141.015 121.621 141.292 122.039 141.346 122.001Z" fill="#F68260"/>
<path d="M182.149 205.34H227.912V188.815L182.149 183.702V205.34Z" fill="#17282F"/>
<path d="M201.997 85.6816L205.303 87.7558L224.325 79.6005L225.188 83.7952L207.978 119.397L206.948 187.287L188.324 185.767L199.837 94.0752L201.997 85.6816Z" fill="#6C6FC3"/>
<path d="M219.801 87.482C219.811 87.5006 219.573 87.6447 219.135 87.8888C218.644 88.1619 218.021 88.5083 217.278 88.9209C215.71 89.7909 213.551 91.0049 211.18 92.3706C210.126 92.9826 209.119 93.5678 208.192 94.1054L208.066 94.1792L207.997 94.0554C207.068 92.3875 206.524 90.8672 206.048 89.8339C205.817 89.3132 205.626 88.9046 205.491 88.6263C205.356 88.3479 205.284 88.1962 205.299 88.1881C205.312 88.1799 205.411 88.3159 205.573 88.5821C205.735 88.8483 205.952 89.2475 206.206 89.7601C206.728 90.776 207.314 92.2899 208.243 93.9118L208.047 93.8619C208.962 93.3121 209.97 92.7187 211.028 92.1085C213.402 90.7411 215.58 89.5549 217.177 88.732C217.974 88.3194 218.627 87.9998 219.081 87.7842C219.536 87.5715 219.792 87.4634 219.801 87.482Z" fill="#17282F"/>
<path d="M198.104 90.808C194.964 92.0075 190.691 93.6394 188.387 94.5186C187.148 94.9917 186.05 95.7594 185.18 96.7578C183.061 99.1864 179.3 104.433 177.048 113.035C173.998 124.687 170.745 133.444 170.745 133.444L159.885 125.417L144.802 140.273C144.802 140.273 170.194 162.322 178.258 162.225L172.791 205.397H188.379L201.266 90.808L201.997 85.6816C201.729 85.7839 198.826 89.8154 198.104 90.808Z" fill="#E7E8E5"/>
<path d="M183.726 105.241C183.731 105.242 183.73 105.296 183.722 105.401C183.71 105.522 183.696 105.675 183.678 105.864C183.63 106.292 183.564 106.887 183.48 107.64C183.301 109.206 183.046 111.431 182.732 114.17C182.107 119.684 181.299 127.308 180.501 135.738C179.704 144.171 179.047 151.81 178.569 157.339C178.327 160.087 178.131 162.317 177.993 163.887C177.921 164.642 177.865 165.237 177.824 165.666C177.802 165.855 177.786 166.007 177.772 166.129C177.759 166.233 177.749 166.285 177.744 166.285C177.739 166.285 177.738 166.231 177.741 166.126C177.747 166.004 177.754 165.851 177.763 165.662C177.79 165.231 177.828 164.635 177.876 163.878C177.991 162.306 178.154 160.073 178.355 157.323C178.779 151.788 179.401 144.144 180.199 135.709C180.997 127.278 181.839 119.655 182.519 114.145C182.858 111.391 183.147 109.163 183.363 107.625C183.471 106.874 183.556 106.283 183.617 105.856C183.647 105.669 183.671 105.517 183.691 105.397C183.709 105.293 183.721 105.24 183.726 105.241Z" fill="#17282F"/>
<path d="M230.281 148.566C230.216 148.639 229.005 147.365 227.093 146.436C225.191 145.486 223.442 145.303 223.459 145.207C223.462 145.171 223.903 145.169 224.601 145.292C225.299 145.414 226.252 145.686 227.227 146.164C228.202 146.646 228.998 147.234 229.519 147.713C230.042 148.192 230.308 148.541 230.281 148.566Z" fill="#17282F"/>
<path d="M244.061 98.1729C244.061 98.1729 240.192 95.166 236.297 92.0347C232.4 88.9041 225.912 84.2455 225.912 84.2455L224.742 80.3344C224.742 80.3344 221.307 83.9393 218.299 90.4586C213.977 99.8257 208.986 113.495 207.978 119.397L201.997 205.34H246.584L236.214 144.247L244.061 98.1729Z" fill="#E7E8E5"/>
<path d="M207.703 124.905C207.694 124.9 207.765 124.755 207.907 124.484C208.066 124.19 208.279 123.798 208.545 123.305C209.125 122.261 209.939 120.797 210.937 118.998C212.997 115.352 215.817 110.36 218.932 104.845C219.074 104.595 219.215 104.347 219.355 104.101L219.341 104.218C219.006 103.084 218.678 101.973 218.36 100.897L218.329 100.795L218.417 100.734C219.24 100.155 220.038 99.5921 220.808 99.0499L220.755 99.1208C222.231 94.8022 223.501 91.0875 224.413 88.4189C224.867 87.1252 225.231 86.0861 225.494 85.3393C225.617 85.0023 225.716 84.732 225.793 84.5222C225.864 84.3374 225.904 84.2427 225.912 84.2456C225.92 84.2479 225.895 84.3479 225.84 84.5374C225.774 84.7512 225.689 85.0267 225.584 85.3701C225.342 86.1227 225.004 87.1706 224.583 88.4758C223.697 91.1526 222.462 94.879 221.028 99.2126L221.013 99.2568L220.974 99.2847C220.206 99.8292 219.41 100.395 218.589 100.977L218.646 100.813C218.966 101.889 219.295 102.998 219.632 104.132L219.65 104.194L219.619 104.25C219.478 104.496 219.337 104.745 219.196 104.994C216.051 110.492 213.203 115.469 211.124 119.104C210.09 120.883 209.248 122.331 208.647 123.364C208.361 123.844 208.132 124.227 207.96 124.514C207.801 124.776 207.712 124.911 207.703 124.905Z" fill="#17282F"/>
<path d="M197.198 126.979C197.187 126.981 197.157 126.847 197.109 126.591C197.059 126.304 196.993 125.931 196.912 125.468C196.749 124.455 196.522 123.051 196.244 121.33C195.705 117.801 194.969 112.984 194.155 107.662C194.072 107.11 193.991 106.563 193.91 106.023L193.903 105.972L193.927 105.928C194.629 104.66 195.308 103.434 195.955 102.265L196.037 102.472C195.343 102.244 194.67 102.022 194.017 101.809L193.879 101.763L193.93 101.63C195.135 98.4529 196.16 95.7523 196.898 93.8089C197.261 92.882 197.552 92.137 197.766 91.5889C197.863 91.3536 197.942 91.1612 198.007 91.0043C198.064 90.873 198.097 90.8055 198.104 90.8084C198.111 90.8108 198.092 90.8828 198.049 91.02C197.996 91.181 197.93 91.3786 197.849 91.6203C197.654 92.1736 197.387 92.9285 197.055 93.8665C196.343 95.8203 195.353 98.5337 194.189 101.725L194.103 101.546C194.756 101.756 195.431 101.973 196.127 102.197L196.293 102.25L196.209 102.404C195.565 103.575 194.89 104.804 194.192 106.074L194.209 105.979C194.29 106.519 194.372 107.065 194.455 107.617C195.234 112.944 195.939 117.766 196.457 121.299C196.694 123.025 196.889 124.435 197.029 125.451C197.087 125.918 197.133 126.292 197.169 126.582C197.198 126.841 197.208 126.978 197.198 126.979Z" fill="#17282F"/>
<path d="M201.225 91.1688C201.279 91.1456 201.697 91.9696 202.264 93.1988L202.021 93.1895C202.276 92.6961 202.606 92.1539 202.969 91.5919C203.59 90.6341 204.178 89.7886 204.594 89.1708C205.015 88.5571 205.26 88.1683 205.299 88.1881C205.335 88.2061 205.153 88.6367 204.776 89.2841C204.404 89.935 203.842 90.8021 203.224 91.7558C202.863 92.3148 202.527 92.8454 202.259 93.3167L202.121 93.5608L202.016 93.3069C201.495 92.0574 201.171 91.1926 201.225 91.1688Z" fill="#17282F"/>
<path d="M196.082 186.4C196.077 186.4 196.08 186.314 196.09 186.145C196.104 185.965 196.122 185.718 196.145 185.402C196.202 184.734 196.282 183.774 196.385 182.546C196.608 180.053 196.929 176.47 197.325 172.05C198.149 163.176 199.285 150.942 200.539 137.429C201.829 123.915 202.996 111.683 203.842 102.812C204.278 98.3949 204.632 94.8162 204.878 92.3248C205.005 91.0991 205.105 90.1414 205.175 89.4748C205.211 89.1604 205.239 88.9151 205.26 88.7344C205.28 88.5676 205.294 88.4828 205.299 88.4833C205.304 88.4833 205.301 88.5694 205.29 88.7373C205.277 88.9186 205.259 89.1645 205.236 89.48C205.18 90.1483 205.099 91.1072 204.996 92.3352C204.772 94.8284 204.451 98.4112 204.056 102.832C203.232 111.706 202.096 123.941 200.841 137.458C199.552 150.968 198.385 163.2 197.539 172.071C197.102 176.487 196.749 180.067 196.503 182.559C196.375 183.784 196.276 184.741 196.206 185.408C196.17 185.723 196.142 185.969 196.121 186.149C196.1 186.315 196.087 186.4 196.082 186.4Z" fill="#17282F"/>
<path d="M209.083 122.614C209.632 121.67 210.32 120.487 211.124 119.104C213.203 115.469 216.05 110.492 219.196 104.994C219.337 104.745 219.478 104.496 219.619 104.25L219.65 104.194L219.631 104.132C219.306 103.034 218.986 101.959 218.676 100.915C219.466 100.355 220.233 99.81 220.974 99.2847L221.013 99.2568L221.028 99.2126C222.462 94.8789 223.696 91.1526 224.583 88.4758C224.799 87.8046 224.993 87.2019 225.164 86.6725L221.258 100.723L219.486 101.395L220.7 105.21L209.083 122.614Z" fill="#B1B3B1"/>
<path d="M208.56 123.398L219.487 104.176L218.503 100.855L220.892 99.1667L225.491 85.4962L225.164 86.6725C224.994 87.2019 224.799 87.8045 224.583 88.4758C223.697 91.1526 222.462 94.8789 221.028 99.2126L221.013 99.2567L220.974 99.2846C220.234 99.81 219.466 100.355 218.676 100.915C218.986 101.959 219.306 103.034 219.632 104.132L219.65 104.194L219.619 104.25C219.479 104.496 219.338 104.745 219.196 104.994C216.051 110.492 213.204 115.469 211.124 119.104C210.32 120.487 209.632 121.67 209.083 122.614L208.56 123.398Z" fill="#111D23"/>
<path d="M206.911 97.035L205.827 89.3435C205.895 89.4934 205.969 89.6573 206.047 89.834C206.523 90.8673 207.068 92.3876 207.997 94.0555L208.066 94.1793L208.192 94.1055C209.119 93.5679 210.126 92.9827 211.18 92.3707C213.551 91.005 215.71 89.791 217.278 88.921C217.431 88.8361 217.579 88.7536 217.722 88.674L206.911 97.035Z" fill="#56438C"/>
<path d="M208.066 94.1792L207.996 94.0554C207.068 92.3875 206.523 90.8672 206.047 89.8339C205.969 89.6572 205.895 89.4933 205.827 89.3434L205.794 89.1109L208.119 93.9839L217.724 88.6728L217.722 88.6739C217.579 88.7535 217.431 88.8361 217.278 88.9209C215.71 89.7909 213.551 91.0049 211.18 92.3706C210.126 92.9826 209.119 93.5678 208.192 94.1054L208.066 94.1792Z" fill="#111D23"/>
<path d="M180.991 172.183C179.075 172.183 177.288 169.892 177.288 169.892L177.744 166.285C177.744 166.285 186.707 164.308 187.002 164.234C187.007 164.233 187.014 164.232 187.021 164.232C187.471 164.232 192.487 166.285 192.487 166.285L192.625 167.642V167.643C192.597 167.655 183.721 171.515 181.597 172.102C181.395 172.158 181.193 172.183 180.991 172.183Z" fill="#B1B3B1"/>
<path d="M195.149 177.63L194.882 174.314L197.167 173.81C197.052 175.099 196.944 176.306 196.844 177.422C195.779 177.558 195.149 177.63 195.149 177.63ZM197.012 177.401C197.123 176.278 197.243 175.062 197.371 173.765L204.301 172.236L204.012 176.39C201.177 176.846 198.638 177.192 197.012 177.401Z" fill="#56438C"/>
<path d="M204.012 176.39L204.301 172.236L216.751 169.49C223.645 167.69 230.092 165.727 235.596 163.42C231.753 168.147 218.204 173.155 218.204 173.155C214.717 174.476 208.921 175.599 204.012 176.39Z" fill="#B1B3B1"/>
<path d="M196.844 177.422C196.944 176.306 197.052 175.099 197.167 173.81L197.371 173.765C197.243 175.062 197.123 176.278 197.012 177.401C196.955 177.408 196.899 177.415 196.844 177.422Z" fill="#111D23"/>
<path d="M207.547 151.353L187.351 124.733C186.919 124.164 186.172 123.936 185.496 124.166L154.591 134.686C153.493 135.06 153.112 136.414 153.853 137.304L178.996 167.488C179.444 168.024 180.18 168.223 180.837 167.984L209.739 157.48C210.813 157.09 211.177 155.759 210.452 154.88L207.547 151.353Z" fill="#33535F"/>
<path d="M166.55 133.799C166.566 134.272 166.964 134.642 167.438 134.626C167.912 134.609 168.283 134.212 168.266 133.739C168.25 133.267 167.852 132.897 167.378 132.914C166.904 132.93 166.533 133.327 166.55 133.799Z" fill="#17282F"/>
<path d="M172.791 131.689C172.808 132.162 173.205 132.531 173.679 132.515C174.153 132.499 174.524 132.102 174.508 131.629C174.491 131.156 174.093 130.787 173.619 130.803C173.145 130.82 172.774 131.217 172.791 131.689Z" fill="#17282F"/>
<path d="M190.708 156.032L189.084 155.668C189.084 155.668 188.42 152.991 187.688 152.448C186.957 151.905 179.716 148.916 178.121 148.12C176.525 147.323 170.306 144.756 169.589 146.261C168.778 147.965 171.319 149.253 172.693 149.844C174.067 150.435 177.977 151.794 177.226 152.744C176.476 153.694 167.495 153.638 167.495 153.638L166.464 152.443C166.464 152.443 164.876 154.029 165.144 155.583C165.413 157.136 166.088 158.107 166.088 158.107L166.728 158.085C166.728 158.085 166.121 159.03 166.722 159.933C167.324 160.836 168.505 162.001 168.505 162.001C168.505 162.001 169.589 164.089 172.665 164.814C173.024 164.899 187.305 165.633 187.305 165.633L192.486 166.792L190.708 156.032Z" fill="#F8A58D"/>
<path d="M228.237 105.336C228.072 105.683 223.83 144.985 223.83 144.985L190.573 155.044L193.746 174.526C193.746 174.526 238.67 166.504 243.31 158.097C247.255 150.951 248.2 120.558 248.394 111.613C248.441 109.433 248.201 107.256 247.65 105.146C246.992 102.627 245.865 99.588 244.061 98.1729C240.691 95.5316 228.237 105.336 228.237 105.336Z" fill="#E7E8E5"/>
<path d="M227.302 113.54C227.302 113.54 227.294 113.737 227.259 114.117C227.22 114.509 227.164 115.07 227.093 115.797C226.937 117.278 226.711 119.433 226.424 122.175C225.829 127.683 224.98 135.542 223.958 144.999L223.949 145.084L223.867 145.108C214.279 148.015 202.856 151.478 190.618 155.189L190.723 155.019C190.744 155.146 190.766 155.283 190.789 155.419C191.875 162.103 192.923 168.555 193.89 174.503L193.72 174.384C207.247 171.82 218.803 169.025 226.843 166.511C227.854 166.217 228.792 165.872 229.689 165.584C230.136 165.434 230.57 165.29 230.99 165.15C231.403 164.995 231.804 164.845 232.191 164.7C232.962 164.406 233.684 164.149 234.336 163.886C234.979 163.606 235.566 163.35 236.093 163.12C236.622 162.897 237.088 162.692 237.469 162.473C237.856 162.269 238.183 162.097 238.45 161.955C238.71 161.821 238.91 161.718 239.055 161.643C239.191 161.574 239.264 161.544 239.264 161.544C239.264 161.544 239.2 161.588 239.068 161.664C238.925 161.745 238.73 161.856 238.476 161.999C238.21 162.146 237.886 162.326 237.503 162.539C237.124 162.766 236.66 162.977 236.134 163.209C235.608 163.445 235.023 163.708 234.382 163.997C233.731 164.268 233.01 164.531 232.241 164.833C231.854 164.981 231.455 165.134 231.041 165.294C230.621 165.437 230.188 165.584 229.742 165.736C228.846 166.032 227.908 166.384 226.897 166.684C218.861 169.25 207.309 172.083 193.773 174.669L193.627 174.697L193.603 174.55C192.632 168.602 191.579 162.151 190.489 155.468C190.466 155.331 190.444 155.194 190.424 155.068L190.402 154.937L190.529 154.899C202.773 151.204 214.201 147.757 223.792 144.862L223.702 144.971C224.768 135.52 225.654 127.664 226.275 122.158C226.593 119.42 226.843 117.268 227.014 115.788C227.103 115.063 227.171 114.503 227.219 114.113C227.267 113.734 227.302 113.54 227.302 113.54Z" fill="#17282F"/>
<path d="M241.943 97.3157C241.941 97.3779 241.003 97.3006 239.516 97.4971C238.772 97.5883 237.9 97.7836 236.956 98.0776C236.019 98.392 235.015 98.8163 234.024 99.3812C233.04 99.9588 232.172 100.617 231.433 101.272C230.709 101.943 230.106 102.601 229.656 103.2C228.747 104.39 228.349 105.24 228.293 105.21C228.275 105.201 228.367 104.987 228.553 104.606C228.642 104.413 228.76 104.182 228.923 103.929C229.083 103.674 229.25 103.371 229.484 103.072C229.918 102.448 230.516 101.762 231.244 101.067C231.986 100.388 232.867 99.7083 233.872 99.1185C234.883 98.5426 235.912 98.1172 236.872 97.812C237.838 97.5267 238.732 97.3495 239.491 97.2844C239.868 97.2297 240.213 97.2361 240.515 97.2251C240.817 97.2088 241.076 97.2216 241.288 97.2396C241.712 97.2687 241.944 97.2948 241.943 97.3157Z" fill="#17282F"/>
<path d="M210.185 124.548H224.751V113.95H210.185V124.548Z" fill="white"/>
<path d="M219.454 119.911C219.454 120.642 220.194 121.236 221.108 121.236C222.022 121.236 222.764 120.642 222.764 119.911C222.764 119.179 222.022 118.586 221.108 118.586C220.194 118.586 219.454 119.179 219.454 119.911Z" fill="#CDCDCD"/>
<path d="M212.569 119.911H217.731C217.951 119.911 218.13 119.796 218.13 119.655V119.506C218.13 119.364 217.951 119.249 217.731 119.249H212.569C212.349 119.249 212.171 119.364 212.171 119.506V119.655C212.171 119.796 212.349 119.911 212.569 119.911Z" fill="#CDCDCD"/>
<path d="M218.313 115.937L219.454 112.625H215.481L216.447 115.937H218.313Z" fill="#17282F"/>
<path d="M177.631 67.978L173.133 68.7534C171.518 70.5226 169.394 71.8942 166.891 72.6274C159.692 74.7364 152.089 70.78 149.911 63.7912C147.732 56.8018 151.802 49.4266 159.002 47.3171C166.201 45.2081 173.803 49.1644 175.982 56.1538C176.892 59.0721 176.708 62.0564 175.666 64.6982L175.67 64.6919L177.631 67.978Z" fill="#FAFAF9"/>
<path d="M158.759 60.9169C158.759 60.3949 158.337 59.9722 157.816 59.9722C157.295 59.9722 156.872 60.3949 156.872 60.9169C156.872 61.4384 157.295 61.8611 157.816 61.8611C158.337 61.8611 158.759 61.4384 158.759 60.9169Z" fill="#17282F"/>
<path d="M164.421 60.9169C164.421 60.3949 163.999 59.9722 163.477 59.9722C162.956 59.9722 162.534 60.3949 162.534 60.9169C162.534 61.4384 162.956 61.8611 163.477 61.8611C163.999 61.8611 164.421 61.4384 164.421 60.9169Z" fill="#17282F"/>
<path d="M169.955 61.3889C170.216 60.9372 170.061 60.3596 169.61 60.099C169.159 59.8381 168.582 59.9927 168.321 60.4444C168.061 60.896 168.215 61.4736 168.667 61.7346C169.118 61.9951 169.695 61.8405 169.955 61.3889Z" fill="#17282F"/>
</g>
<defs>
<clipPath id="clip0_4149_14184">
<rect width="117.477" height="157.25" fill="white" transform="translate(130.923 29.75)"/>
</clipPath>
</defs>
</svg>
