<svg width="276" height="187" viewBox="0 0 276 187" fill="none" xmlns="http://www.w3.org/2000/svg">
<path d="M262.954 187L115.081 186.949L40.7725 186.923L36.6355 186.92L21.7068 186.918C21.7068 186.918 0.381795 169.582 0.0123887 145.075C-0.715534 96.7846 30.893 118.536 26.5988 60.3361C22.6804 7.22903 125.059 -21.4082 180.65 19.165C200.861 33.9162 202.446 44.2623 231.489 40.9913C264.273 37.2992 268.009 77.1426 256.535 99.2292C240.253 130.567 301.681 125.419 262.954 187Z" fill="#DCFBF3"/>
<mask id="mask0_4148_4220" style="mask-type:alpha" maskUnits="userSpaceOnUse" x="0" y="0" width="276" height="187">
<path d="M262.954 187L115.081 186.949L40.7725 186.923L36.6355 186.92L21.7068 186.918C21.7068 186.918 0.381795 169.582 0.0123887 145.075C-0.715534 96.7846 30.893 118.536 26.5988 60.3361C22.6804 7.22903 125.059 -21.4082 180.65 19.165C200.861 33.9162 202.446 44.2623 231.489 40.9913C264.273 37.2992 268.009 77.1426 256.535 99.2292C240.253 130.567 301.681 125.419 262.954 187Z" fill="#CEF7F3"/>
</mask>
<g mask="url(#mask0_4148_4220)">
<path d="M69.0001 104.125C45.3384 99.5664 7.96161 113.156 7.96161 113.156H-5.30762V187H279.185V154.062C279.185 154.062 234.394 131.69 203.285 128.562C172.536 125.472 154.7 145.673 124.731 138.125C100.013 131.9 94.0291 108.947 69.0001 104.125Z" fill="#ABFEE6"/>
</g>
<path d="M172.84 67.8986L166.343 69.0603C164.009 71.7101 160.941 73.7635 157.325 74.8613C146.924 78.0205 135.942 72.0954 132.795 61.6289C129.647 51.1616 135.527 40.116 145.927 36.9575C156.328 33.7991 167.31 39.7235 170.458 50.1908C171.772 54.561 171.507 59.0305 170.001 62.9864L170.008 62.9777L172.84 67.8986Z" fill="#FAFAF9"/>
<path d="M172.84 67.8986C172.84 67.8986 172.785 67.7941 172.667 67.5837C172.545 67.3645 172.368 67.0511 172.137 66.6404C171.659 65.7958 170.958 64.558 170.049 62.953L169.984 62.9349L169.968 62.9494L169.961 62.9581L170.047 63.0045C170.937 60.6819 171.709 57.3558 171.22 53.405C171.098 52.4226 170.891 51.4097 170.597 50.3815C170.449 49.8678 170.245 49.3621 170.067 48.8375C169.904 48.3063 169.648 47.8035 169.404 47.2862C168.424 45.2226 167.016 43.1888 165.154 41.4293C163.299 39.6697 160.994 38.1895 158.371 37.2259C155.752 36.2595 152.814 35.8176 149.825 36.0759C146.843 36.3669 143.831 37.3508 141.142 39.0305C140.445 39.4129 139.84 39.9404 139.193 40.412C138.863 40.642 138.592 40.9453 138.288 41.2094C137.998 41.4895 137.679 41.7427 137.411 42.0467C136.882 42.6613 136.295 43.2331 135.838 43.9173C135.599 44.2496 135.348 44.5761 135.116 44.915C134.905 45.2691 134.693 45.6239 134.482 45.9794C132.843 48.762 132.018 51.9212 131.869 55.01C131.72 58.1075 132.309 61.1608 133.495 63.8484C134.667 66.5453 136.401 68.8825 138.439 70.7109C140.476 72.5438 142.807 73.8716 145.176 74.6937C147.547 75.5194 149.952 75.8386 152.198 75.7712C153.326 75.7661 154.405 75.5789 155.446 75.4171C156.468 75.1537 157.468 74.9462 158.384 74.5884C162.084 73.2302 164.703 71.0186 166.381 69.0943L166.351 69.111C168.468 68.7185 170.094 68.4174 171.2 68.212C171.738 68.1112 172.148 68.0335 172.432 67.9798C172.706 67.9276 172.84 67.8986 172.84 67.8986C172.84 67.8986 172.69 67.9196 172.407 67.9668C172.119 68.0154 171.704 68.0865 171.158 68.1786C170.057 68.368 168.439 68.6459 166.333 69.0087L166.304 69.0254C164.619 70.9264 162.006 73.1068 158.33 74.439C157.42 74.7894 156.426 74.9912 155.413 75.2495C154.38 75.4055 153.311 75.5876 152.193 75.5883C149.967 75.6485 147.587 75.3256 145.241 74.5028C142.899 73.6837 140.595 72.3645 138.583 70.5484C136.572 68.7366 134.861 66.4234 133.705 63.7569C132.536 61.0984 131.956 58.0799 132.105 55.0202C132.254 51.9691 133.069 48.8476 134.689 46.0991C134.898 45.7472 135.106 45.3968 135.315 45.047C135.544 44.7118 135.792 44.3896 136.029 44.0617C136.479 43.3854 137.061 42.8209 137.583 42.2129C137.848 41.9125 138.162 41.6622 138.448 41.3857C138.749 41.1245 139.016 40.8249 139.341 40.5978C139.982 40.1319 140.578 39.6095 141.267 39.2322C143.922 37.5713 146.898 36.5961 149.846 36.3044C152.8 36.0461 155.704 36.4786 158.296 37.4298C160.893 38.3782 163.177 39.838 165.018 41.5751C166.865 43.3121 168.265 45.3228 169.243 47.3638C169.487 47.8761 169.742 48.3738 169.905 48.8991C170.084 49.4187 170.288 49.9193 170.436 50.4287C170.732 51.4467 170.943 52.4509 171.066 53.4253C171.569 57.342 170.822 60.6507 169.956 62.969L169.984 63.0321L170.041 63.0154L170.047 63.006L169.966 63.0023C170.889 64.5812 171.602 65.7987 172.088 66.6302C172.33 67.0409 172.515 67.3551 172.644 67.5735C172.77 67.7868 172.84 67.8986 172.84 67.8986Z" fill="#17282F"/>
<path d="M145.585 56.4816C145.585 55.3707 144.689 54.4703 143.584 54.4703C142.479 54.4703 141.583 55.3707 141.583 56.4816C141.583 57.5924 142.479 58.4922 143.584 58.4922C144.689 58.4922 145.585 57.5924 145.585 56.4816Z" fill="#17282F"/>
<path d="M153.593 56.4816C153.593 55.3707 152.697 54.4703 151.591 54.4703C150.487 54.4703 149.591 55.3707 149.591 56.4816C149.591 57.5924 150.487 58.4922 151.591 58.4922C152.697 58.4922 153.593 57.5924 153.593 56.4816Z" fill="#17282F"/>
<path d="M161.58 57.4872C162.133 56.5251 161.805 55.2952 160.847 54.7401C159.89 54.185 158.666 54.5145 158.114 55.4759C157.562 56.438 157.889 57.6678 158.847 58.2229C159.803 58.778 161.027 58.4486 161.58 57.4872Z" fill="#17282F"/>
<path d="M222.307 91.8632L222.737 56.4706C223.129 47.67 218.36 40.1051 209.595 39.9549L208.784 39.9883C200.625 40.3278 194.089 46.9038 193.77 55.1044C193.472 62.7339 193.24 71.1681 193.458 75.2459C193.91 83.6873 202.369 84.6516 202.369 84.6516C202.388 84.6523 202.421 89.7902 202.416 92.271L200.442 98.0662L207.357 96.3734L222.307 91.8632Z" fill="#BA6258"/>
<path d="M202.369 84.6516C202.369 84.6516 207.679 84.7445 213.177 80.9468C213.177 80.9468 210.806 87.4052 202.389 86.993L202.369 84.6516Z" fill="#6F3530"/>
<path d="M196.453 62.3907C196.457 63.0277 196.998 63.5509 197.66 63.5596C198.322 63.5676 198.857 63.0582 198.852 62.4204C198.849 61.7826 198.309 61.2595 197.647 61.2508C196.984 61.2428 196.45 61.7529 196.453 62.3907Z" fill="#17282F"/>
<path d="M195.71 58.7599C195.865 58.9108 196.747 58.1969 198.038 58.1468C199.328 58.0779 200.303 58.7062 200.437 58.5415C200.502 58.4689 200.339 58.1903 199.914 57.9059C199.496 57.6222 198.79 57.3581 197.986 57.3951C197.182 57.4335 196.518 57.7586 196.141 58.08C195.757 58.4022 195.634 58.6924 195.71 58.7599Z" fill="#17282F"/>
<path d="M208.066 62.3907C208.07 63.0285 208.61 63.5509 209.274 63.5596C209.935 63.5676 210.47 63.0582 210.466 62.4204C210.462 61.7826 209.921 61.2595 209.26 61.2508C208.597 61.2428 208.062 61.7529 208.066 62.3907Z" fill="#17282F"/>
<path d="M208.382 58.535C208.537 58.6866 209.42 57.9726 210.71 57.9218C212 57.8536 212.975 58.482 213.109 58.3173C213.175 58.244 213.013 57.9661 212.586 57.6817C212.168 57.3972 211.463 57.1338 210.658 57.1701C209.854 57.2086 209.19 57.5344 208.813 57.8551C208.43 58.178 208.306 58.4682 208.382 58.535Z" fill="#17282F"/>
<path d="M204.159 68.7003C204.162 68.6263 203.353 68.5204 202.046 68.4072C201.715 68.3869 201.4 68.3339 201.335 68.1097C201.247 67.8739 201.371 67.5111 201.515 67.1186C201.792 66.3037 202.082 65.4497 202.386 64.5543C203.593 60.9047 204.452 57.9102 204.305 57.8623C204.158 57.8144 203.062 60.7342 201.855 64.3831C201.565 65.2828 201.289 66.1405 201.025 66.9604C200.916 67.3428 200.719 67.7789 200.907 68.2686C201.006 68.5124 201.256 68.6822 201.47 68.7308C201.684 68.7867 201.869 68.7831 202.033 68.786C203.345 68.8019 204.157 68.7744 204.159 68.7003Z" fill="#17282F"/>
<path d="M207.797 54.4927C207.986 54.8171 209.225 54.4165 210.749 54.32C212.272 54.193 213.555 54.4085 213.696 54.0602C213.756 53.8948 213.486 53.6075 212.938 53.3608C212.395 53.1148 211.567 52.9385 210.653 53.0045C209.741 53.0727 208.947 53.3673 208.445 53.6902C207.938 54.0138 207.713 54.3382 207.797 54.4927Z" fill="#17282F"/>
<path d="M195.494 54.9462C195.771 55.2343 196.815 54.8997 198.079 54.8519C199.342 54.767 200.421 54.9883 200.659 54.6734C200.763 54.5203 200.587 54.2293 200.112 53.963C199.643 53.6967 198.866 53.4899 197.996 53.5356C197.128 53.5821 196.382 53.8687 195.95 54.1829C195.511 54.4978 195.372 54.8054 195.494 54.9462Z" fill="#17282F"/>
<path d="M222.308 62.7527C222.448 62.6845 228.012 60.7965 228.065 66.5787C228.119 72.3602 222.332 71.2217 222.321 71.0563C222.309 70.8901 222.308 62.7527 222.308 62.7527Z" fill="#BA6258"/>
<path d="M224.058 68.8498C224.083 68.831 224.159 68.9188 224.329 68.9957C224.495 69.0697 224.779 69.119 225.078 69.0036C225.684 68.7744 226.186 67.7992 226.205 66.7572C226.214 66.2312 226.1 65.7305 225.911 65.3177C225.731 64.8961 225.456 64.6037 225.15 64.5515C224.845 64.484 224.63 64.6697 224.561 64.833C224.485 64.9955 224.523 65.1109 224.492 65.121C224.477 65.1355 224.368 65.0253 224.412 64.7858C224.435 64.6712 224.501 64.5333 224.635 64.4216C224.772 64.3077 224.975 64.2482 225.188 64.2692C225.632 64.296 226.035 64.7024 226.243 65.1559C226.476 65.6108 226.617 66.1724 226.606 66.7638C226.58 67.9298 225.996 69.0254 225.167 69.2743C224.763 69.3846 224.425 69.2648 224.249 69.1299C224.069 68.9891 224.038 68.86 224.058 68.8498Z" fill="#6F3530"/>
<path d="M182.158 47.4973C182.245 47.1556 182.489 46.8726 182.789 46.6905C183.444 46.2914 184.203 46.3349 184.937 46.3146C186.762 46.2645 188.568 45.7748 190.186 44.9258C189.615 44.6436 189.081 44.2982 188.625 43.8513C187.685 42.9298 187.135 41.5083 187.546 40.2553C187.623 40.0194 187.756 39.7727 187.991 39.6965C188.363 39.5775 188.695 39.9425 188.959 40.2321C189.826 41.1847 190.622 41.5882 191.899 41.4445C192.692 41.3545 193.459 41.1666 194.079 40.769L194.15 40.6877C194.445 40.3743 194.734 40.0746 195.019 39.7843L195.021 39.7815L195.02 39.7829C197.16 37.6011 199.004 36.0853 200.911 35.2879C203.708 34.119 208.4 33.6053 211.337 34.3439C214.275 35.0826 216.931 37.4407 217.373 40.4512C218.999 39.037 221.465 39.0203 223.474 39.8054L223.525 39.7829C225.761 40.5556 227.054 42.9065 227.737 45.182C227.774 45.3068 227.807 45.4323 227.842 45.5578C228.609 46.7492 229.644 47.7658 230.873 48.466C231.09 48.5901 231.338 48.7417 231.368 48.9898C231.396 49.2365 231.191 49.4433 230.992 49.5899C230.462 49.9803 229.843 50.2407 229.198 50.3641C229.407 50.9039 229.652 51.4285 229.954 51.9284C230.21 52.3536 230.515 52.863 230.3 53.3107C230.134 53.6568 229.7 53.8034 229.321 53.7526C228.942 53.7003 228.605 53.4943 228.279 53.2926C228.534 53.8875 228.789 54.4825 229.045 55.0775C228.241 55.2277 227.405 55.1726 226.62 54.9433C226.171 57.0837 225.86 61.0411 225.329 62.4944C223.803 62.5387 223.429 62.3761 222.662 62.6417C221.67 62.9856 222.07 64.7539 220.767 64.2648C220.105 64.016 219.064 61.5134 218.835 60.8408C217.318 56.3741 216.778 51.5773 217.254 46.8827C216.32 45.9046 215.197 45.1094 213.967 44.5551L214.067 44.6443C211.706 43.8498 209.036 43.0727 206.817 44.2082C205.095 45.0891 204.098 46.9052 202.82 48.3608C200.398 51.1194 197.637 52.6083 193.983 52.8086C193.681 55.3648 193.631 59.5398 193.533 61.9234L191.456 57.1788L191.455 57.1984C191.288 56.9205 191.149 56.6404 191.016 56.3603L190.97 56.2747V56.2645C190.758 55.8139 190.555 55.3619 190.288 54.9171L190.266 54.9375C188.995 56.0904 187.083 54.3715 188.08 52.9726C188.277 52.6947 188.515 52.4465 188.788 52.2412C188.207 52.8013 187.335 53.077 186.563 52.8478C185.79 52.6185 185.184 51.8436 185.242 51.036C185.282 50.4853 185.667 49.9882 186.16 49.7655C185.123 49.8576 184.06 49.6429 183.15 49.1349C182.554 48.8012 181.965 48.249 182.158 47.4973Z" fill="#17282F"/>
<path d="M214.734 41.4525C214.717 41.475 215.089 41.6724 215.587 42.2195C216.081 42.7636 216.639 43.7149 216.911 45.0144C217.051 45.6594 217.142 46.3829 217.151 47.1621C217.163 47.9414 217.111 48.7766 217.061 49.6567C217.015 50.5361 216.962 51.4663 217.029 52.432C217.063 52.9138 217.126 53.4043 217.236 53.8934C217.348 54.3744 217.479 54.8961 217.846 55.3068C218.138 55.6413 218.622 55.7857 219.038 55.6943C219.459 55.6152 219.83 55.3859 220.101 55.0754C220.635 54.4339 220.762 53.6264 220.888 52.9146L220.711 52.9385C221.007 53.5734 221.311 54.2003 221.756 54.6988C222.193 55.2009 222.796 55.5289 223.404 55.5768C223.707 55.6007 224.012 55.5484 224.271 55.4142C224.534 55.2814 224.724 55.0579 224.853 54.8236C224.977 54.5841 225.04 54.3229 225.024 54.0712C225.006 53.8201 224.907 53.5836 224.746 53.4167L224.658 53.4972C225.315 54.233 226.006 54.6248 226.482 54.8403C226.722 54.9484 226.915 55.0122 227.044 55.0529C227.176 55.0906 227.244 55.1058 227.246 55.1008C227.248 55.095 227.182 55.0688 227.055 55.0217C226.93 54.9709 226.743 54.8976 226.509 54.7822C226.047 54.5508 225.378 54.1488 224.748 53.4181L224.659 53.4994C224.946 53.7976 224.968 54.3273 224.729 54.7561C224.609 54.9673 224.434 55.166 224.202 55.2785C223.971 55.3953 223.694 55.4418 223.417 55.4164C222.858 55.3671 222.297 55.0594 221.887 54.582C221.467 54.106 221.173 53.4943 220.881 52.8587L220.757 52.5888L220.704 52.8826C220.578 53.593 220.443 54.3686 219.955 54.9469C219.713 55.2248 219.372 55.4323 219.004 55.5005C218.636 55.5767 218.245 55.4585 217.99 55.1719C217.67 54.8171 217.534 54.3229 217.426 53.8498C217.319 53.3724 217.256 52.8928 217.222 52.4183C217.153 51.4692 217.2 50.5456 217.242 49.6661C217.287 48.7867 217.334 47.948 217.314 47.1585C217.298 46.3698 217.198 45.637 217.047 44.9825C216.753 43.667 216.163 42.7042 215.644 42.1672C215.119 41.6274 214.734 41.4525 214.734 41.4525Z" fill="#021117"/>
<path d="M188.781 49.9839L188.849 50.0405C188.906 50.0819 188.976 50.132 189.061 50.1922C189.153 50.2604 189.271 50.3402 189.42 50.4185C189.566 50.5005 189.733 50.6007 189.935 50.6834C190.721 51.0476 191.98 51.4046 193.547 51.2936C195.099 51.1884 196.957 50.6144 198.607 49.3498C200.275 48.1148 201.731 46.3074 202.915 44.2431C203.516 43.212 204.003 42.1556 204.542 41.179C205.078 40.2023 205.672 39.2982 206.394 38.5821C207.109 37.8616 207.942 37.3254 208.804 37.0743C209.233 36.9401 209.667 36.9067 210.081 36.9111C210.497 36.9285 210.892 37.009 211.255 37.1244C211.984 37.3602 212.574 37.7571 213.023 38.1663C213.473 38.5792 213.777 39.0174 213.987 39.394C214.379 40.1675 214.406 40.6667 214.436 40.658L214.429 40.5687C214.417 40.4991 214.403 40.4142 214.386 40.3104C214.342 40.084 214.241 39.7568 214.055 39.3585C213.852 38.9696 213.551 38.5153 213.098 38.0851C212.646 37.6584 212.047 37.2434 211.299 36.9916C210.925 36.8683 210.519 36.7812 210.088 36.7587C209.659 36.7493 209.204 36.7819 208.759 36.9162C207.864 37.1701 207.001 37.7186 206.267 38.4522C205.523 39.1821 204.916 40.1022 204.373 41.0854C203.828 42.0685 203.34 43.1221 202.745 44.1437C201.57 46.1927 200.135 47.9799 198.499 49.2032C196.879 50.4563 195.065 51.0309 193.536 51.1543C191.996 51.2813 190.753 50.9511 189.966 50.613C189.174 50.2684 188.796 49.9593 188.781 49.9839Z" fill="#021117"/>
<path d="M187.972 46.274C187.966 46.2864 188.074 46.3596 188.277 46.4822C188.478 46.6085 188.785 46.7638 189.176 46.9285C189.567 47.0961 190.05 47.2514 190.598 47.3791C191.146 47.4974 191.761 47.583 192.41 47.6004C193.06 47.6098 193.678 47.5496 194.231 47.4546C194.784 47.3493 195.272 47.2144 195.67 47.0635C196.067 46.9147 196.381 46.7725 196.586 46.6542C196.794 46.5403 196.905 46.4721 196.899 46.4597C196.882 46.4264 196.42 46.6724 195.625 46.9307C195.228 47.0627 194.744 47.1817 194.2 47.2753C193.656 47.358 193.051 47.4117 192.414 47.4023C191.778 47.3856 191.176 47.3072 190.635 47.2013C190.097 47.0845 189.617 46.9466 189.227 46.7979C188.442 46.5062 187.99 46.2414 187.972 46.274Z" fill="#021117"/>
<path d="M204.28 71.7362C204.381 71.7362 208.815 69.9919 208.815 69.9919C208.815 69.9919 210.101 72.5692 208.546 73.7541C206.991 74.9389 205.103 74.1916 204.802 73.4849C204.5 72.7789 204.28 71.7362 204.28 71.7362Z" fill="#6F3530"/>
<path d="M205.279 73.9812C205.303 73.9478 205.489 74.1125 205.902 74.1793C206.305 74.2555 206.926 74.2446 207.636 74.0762L207.625 74.0799C208.091 73.8985 208.614 73.6191 208.921 73.109C209.227 72.6026 209.255 71.9053 209.085 71.2312C208.987 70.8249 208.835 70.4266 208.655 70.0841L208.881 70.1646C207.536 70.674 206.352 71.105 205.5 71.3981C204.648 71.6912 204.129 71.8458 204.113 71.8037C204.096 71.7609 204.586 71.5273 205.414 71.1732C206.243 70.8191 207.41 70.3446 208.749 69.8192L208.899 69.7605L208.975 69.9005C209.185 70.288 209.341 70.6965 209.45 71.1427C209.634 71.8697 209.608 72.6853 209.225 73.2948C208.837 73.905 208.225 74.1938 207.717 74.3643L207.71 74.3665L207.705 74.3672C206.936 74.513 206.292 74.4768 205.861 74.344C205.425 74.2177 205.261 73.9914 205.279 73.9812Z" fill="#17282F"/>
<path d="M165.058 143.004L180.239 152.578C185.709 155.48 189.667 153.38 190.985 148.73L190.846 131.696C190.846 131.696 181.213 126.541 179.741 126.317C179.253 126.242 178.52 136.212 178.52 136.212L163.905 132.099L160.212 139.607L165.058 143.004Z" fill="#BA6258"/>
<path d="M163.741 130.091C163.646 129.927 159.563 123.409 157.253 120.966C154.943 118.522 154.883 115.852 153.242 115.63C151.601 115.407 151.297 117.728 152.086 120.11C152.877 122.492 155.004 123.714 154.396 124.569C153.788 125.424 140.633 123.193 140.633 123.193C140.633 123.193 138.931 121.446 137.594 122.912C137.594 122.912 135.473 122.404 135.635 124.06C135.809 125.833 139.66 125.905 139.66 125.905L141.569 129.335L146.009 130.983C146.009 130.983 146.279 132.876 147.602 134.159C148.926 135.442 149.899 136.168 150.081 136.202C150.263 136.236 154.214 138.679 156.22 139.168C158.225 139.656 160.9 140.084 160.9 140.084L164.546 132.754C164.546 132.754 164.623 131.635 163.741 130.091Z" fill="#BA6258"/>
<path d="M146.058 131.232C146.058 131.232 145.399 129.578 145.559 128.177C145.717 126.776 147.032 120.573 147.629 120.453C148.226 120.333 149.262 119.973 149.54 121.653C149.819 123.335 148.864 127.309 148.864 127.403C148.864 127.497 149.483 128.618 149.592 130.098" fill="#BA6258"/>
<path d="M149.591 130.098C149.56 130.101 149.531 129.786 149.394 129.238C149.326 128.964 149.228 128.634 149.086 128.261C149.015 128.074 148.932 127.878 148.838 127.67L148.766 127.505C148.721 127.429 148.754 127.297 148.762 127.262C148.784 127.142 148.808 127.02 148.832 126.895C149.021 125.898 149.246 124.706 149.365 123.378C149.416 122.718 149.465 122.008 149.282 121.347C149.189 121.022 149.023 120.714 148.749 120.595C148.472 120.469 148.115 120.538 147.739 120.623C147.669 120.591 147.583 120.773 147.503 120.93C147.427 121.094 147.36 121.268 147.299 121.443C147.175 121.794 147.068 122.148 146.968 122.497C146.768 123.198 146.598 123.881 146.442 124.534C146.135 125.84 145.878 127.026 145.712 128.022C145.56 129.003 145.751 129.823 145.86 130.371C145.984 130.923 146.083 131.222 146.057 131.232C146.034 131.241 145.889 130.957 145.719 130.408C145.566 129.863 145.324 129.036 145.449 127.985C145.583 126.966 145.814 125.775 146.104 124.456C146.252 123.797 146.417 123.107 146.614 122.397C146.713 122.041 146.82 121.681 146.946 121.318C147.01 121.135 147.079 120.953 147.164 120.769C147.207 120.677 147.252 120.585 147.319 120.489L147.449 120.339L147.592 120.268L147.662 120.253C148.026 120.176 148.469 120.063 148.9 120.251C149.334 120.449 149.533 120.88 149.635 121.244C149.837 122.005 149.769 122.738 149.711 123.41C149.569 124.763 149.315 125.955 149.092 126.95C149.064 127.074 149.036 127.195 149.009 127.313C148.997 127.394 148.979 127.385 148.997 127.418L149.058 127.576C149.145 127.789 149.22 127.996 149.284 128.19C149.41 128.58 149.49 128.924 149.537 129.208C149.633 129.777 149.612 130.097 149.591 130.098Z" fill="#6F3530"/>
<path d="M160.212 132.78C160.187 132.847 159.49 132.444 158.193 132.263C157.548 132.19 156.748 132.206 155.898 132.474C155.054 132.727 154.151 133.255 153.424 134.016L153.109 134.344L153.115 133.897C153.133 132.716 153.151 131.432 153.171 130.088V130.084L153.172 130.069C153.183 129.938 153.195 129.797 153.206 129.656C153.25 128.864 153.235 128.058 153.001 127.382C152.794 126.716 152.06 126.334 151.479 126.554C151.337 126.604 151.209 126.685 151.123 126.786C151.035 126.875 151.014 127.017 150.972 127.181C150.9 127.499 150.848 127.82 150.796 128.127C150.703 128.74 150.616 129.314 150.534 129.849C150.388 130.846 150.266 131.683 150.167 132.349C150.076 132.938 150.008 133.267 149.978 133.26C149.957 133.254 149.975 132.928 150.022 132.332C150.071 131.736 150.152 130.876 150.271 129.815C150.331 129.284 150.4 128.703 150.488 128.079C150.534 127.767 150.58 127.445 150.649 127.109C150.664 127.026 150.691 126.937 150.713 126.849C150.742 126.751 150.797 126.65 150.863 126.569C150.997 126.406 151.174 126.297 151.362 126.226C151.739 126.089 152.179 126.119 152.549 126.313C152.912 126.506 153.213 126.855 153.346 127.251C153.618 128.032 153.623 128.854 153.582 129.68C153.569 129.829 153.557 129.977 153.546 130.114L153.547 130.095C153.518 131.438 153.491 132.722 153.466 133.903L153.159 133.785C153.969 132.957 154.91 132.442 155.813 132.19C156.717 131.929 157.558 131.942 158.223 132.05C158.557 132.106 158.851 132.172 159.099 132.267C159.352 132.343 159.56 132.423 159.722 132.51C160.05 132.668 160.221 132.761 160.212 132.78Z" fill="#6F3530"/>
<path d="M145.533 127.02C145.51 127.078 144.486 126.716 142.916 126.107L142.871 126.09L142.839 126.036C142.569 125.593 142.166 125.109 141.729 124.616C141.284 124.131 140.797 123.586 140.246 123.136C139.823 122.798 139.349 122.553 138.882 122.516C138.421 122.483 137.978 122.706 137.73 123.009L137.731 122.817C138.334 123.718 138.831 124.48 139.171 125.022C139.51 125.563 139.69 125.884 139.661 125.905C139.631 125.926 139.394 125.643 139.009 125.134C138.623 124.626 138.086 123.891 137.457 123.007L137.387 122.909L137.459 122.814C137.778 122.395 138.314 122.124 138.902 122.149C139.483 122.188 140.021 122.476 140.477 122.838C141.081 123.333 141.547 123.872 141.997 124.379C142.437 124.897 142.822 125.381 143.108 125.896L143.031 125.825C144.575 126.498 145.557 126.962 145.533 127.02Z" fill="#6F3530"/>
<path d="M186.302 98.0662C183.795 99.9295 181.762 102.532 181.119 107.298L177.238 130.524L188.289 133.669L192.115 107.267L186.302 98.0662Z" fill="#6C6FC3"/>
<path d="M198.674 91.1398L186.302 98.0662C185.262 105.003 186.824 144.16 186.824 144.16L186.246 181.706C203.592 190.333 223.584 187.177 244.784 180.233C244.925 178.607 244.89 177.098 244.34 175.932L240.942 143.02C240.942 143.02 241.819 117.584 241.819 117.108C241.819 116.632 243.716 92.9654 243.716 92.9654L223.358 86.8516C223.358 86.8516 214.726 94.0508 207.839 94.3969C201.9 94.6944 202.213 89.3331 202.213 89.3331L198.674 91.1398Z" fill="#6C6FC3"/>
<path d="M185.945 107.325C185.971 107.325 185.996 107.73 186.019 108.461C186.035 109.26 186.055 110.302 186.081 111.558C186.112 114.237 186.156 117.816 186.203 121.771C186.26 125.76 186.345 129.369 186.437 131.981C186.481 133.235 186.518 134.276 186.546 135.074C186.572 135.805 186.575 136.209 186.549 136.212C186.523 136.213 186.471 135.812 186.401 135.083C186.331 134.355 186.247 133.299 186.171 131.993C186.011 129.382 185.884 125.768 185.827 121.776C185.771 117.785 185.785 114.173 185.814 111.558C185.838 110.302 185.858 109.26 185.872 108.461C185.894 107.73 185.919 107.325 185.945 107.325Z" fill="#17282F"/>
<path d="M220.293 150.617C220.032 151.283 213.671 154.688 213.671 154.688H210.771C210.771 154.688 208.91 152.103 209.019 151.717C209.129 151.333 210.224 147.098 208.692 147.317C207.159 147.537 206.119 150.279 205.9 150.998C205.681 151.717 206.174 152.872 206.174 152.872C206.174 152.872 203.547 149.628 201.741 150.453C199.935 151.278 200.81 152.433 200.81 152.433L206.064 156.997C206.064 156.997 202.507 156.558 202.562 159.143L205.736 160.627L210.912 161.51C211.538 161.616 212.18 161.563 212.78 161.356L214.046 160.917C214.046 160.917 217.119 160.572 218.816 159.968C220.513 159.363 222.293 157.378 222.293 157.378L228.94 150.013C228.94 150.013 229.871 146.217 227.737 145.173C225.602 144.128 226.314 145.117 225.602 144.128C224.891 143.137 222.134 141.918 221.99 144.898C221.879 147.206 222.866 147.758 223.03 147.758C223.194 147.758 221.333 147.978 220.293 150.617Z" fill="#BA6258"/>
<path d="M211.118 154.688C211.097 154.788 209.864 154.621 208.342 154.314L208.307 154.306L208.278 154.287L208.198 154.235C206.858 153.372 205.845 152.483 205.994 152.348C206.025 152.342 206.251 152.524 206.697 152.808C207.306 153.204 207.837 153.549 208.403 153.918L208.481 153.97L208.417 153.943C209.938 154.258 211.138 154.588 211.118 154.688Z" fill="#6F3530"/>
<path d="M219.708 154.203C219.71 154.242 219.492 154.259 219.144 154.39C218.805 154.524 218.323 154.803 217.911 155.282L217.924 155.266C217.616 155.77 217.285 156.312 216.937 156.884L216.903 156.94L216.835 156.963C216.498 157.074 216.137 157.216 215.783 157.378C215.135 157.672 214.548 158.017 214.083 158.406C213.616 158.795 213.284 159.239 213.331 159.672C213.361 160.099 213.616 160.41 213.777 160.603C213.95 160.797 214.061 160.895 214.046 160.917C214.033 160.938 213.891 160.881 213.675 160.709C213.477 160.535 213.15 160.237 213.067 159.699C213.03 159.435 213.088 159.126 213.244 158.861C213.404 158.597 213.613 158.362 213.856 158.144C214.344 157.708 214.956 157.339 215.628 157.034C215.998 156.865 216.362 156.723 216.729 156.609L216.627 156.687C216.994 156.127 217.342 155.595 217.666 155.101L217.674 155.089L217.677 155.085C218.173 154.565 218.706 154.32 219.092 154.223C219.483 154.134 219.709 154.179 219.708 154.203Z" fill="#6F3530"/>
<path d="M223.03 147.758C223.06 147.709 223.219 147.758 223.472 147.801C223.728 147.844 224.083 147.876 224.484 147.878C225.287 147.887 225.953 147.826 225.974 147.931C225.996 148.029 225.338 148.264 224.48 148.256C224.053 148.253 223.661 148.174 223.396 148.057C223.129 147.937 223.004 147.797 223.03 147.758Z" fill="#6F3530"/>
<path d="M228.94 150.013C228.94 150.013 232.365 149.071 235.895 147.987L243.756 145.152L241.315 130.951L257.823 125.142C257.823 125.142 260.664 145.886 259.967 151.166C259.285 156.331 256.421 157.557 252.408 158.87C248.395 160.183 219.02 158.719 218.61 159.354C218.198 159.99 222.612 153.518 222.612 153.518L228.94 150.013Z" fill="#BA6258"/>
<path d="M223.556 155.826C223.641 155.875 223.047 156.963 221.941 157.989C220.84 159.022 219.716 159.534 219.674 159.447C219.619 159.35 220.623 158.709 221.685 157.711C222.754 156.722 223.465 155.764 223.556 155.826Z" fill="#6F3530"/>
<path d="M251.032 147.931C250.955 148.022 249.648 146.757 247.615 145.951C245.592 145.119 243.779 145.123 243.786 145.004C243.763 144.914 245.648 144.737 247.755 145.601C249.871 146.443 251.109 147.882 251.032 147.931Z" fill="#6F3530"/>
<path d="M214.606 156.013C214.623 156.064 213.919 156.344 212.826 156.895C212.543 157.04 212.245 157.191 211.933 157.35C211.77 157.433 211.603 157.518 211.434 157.605L211.299 157.67L211.223 157.703L211.091 157.726L210.792 157.697C209.967 157.61 209.085 157.517 208.159 157.42C207.693 157.367 207.238 157.315 206.796 157.265C206.355 157.209 205.931 157.159 205.541 157.158C204.754 157.144 204.037 157.275 203.544 157.584C203.035 157.875 202.8 158.322 202.694 158.631C202.592 158.949 202.589 159.142 202.562 159.143C202.538 159.146 202.488 158.949 202.553 158.594C202.619 158.252 202.845 157.72 203.4 157.36C203.94 156.981 204.713 156.815 205.542 156.81C205.965 156.802 206.388 156.846 206.824 156.896C207.264 156.944 207.715 156.992 208.179 157.042C209.099 157.15 209.975 157.253 210.793 157.349L211.091 157.386C211.073 157.407 211.225 157.334 211.291 157.305C211.463 157.225 211.632 157.145 211.797 157.069C212.117 156.923 212.423 156.785 212.714 156.653C213.847 156.159 214.592 155.965 214.606 156.013Z" fill="#6F3530"/>
<path d="M243.716 92.9653C244.191 93.1242 249.704 94.7575 252.707 102.699C255.71 110.641 259.679 131.393 259.679 131.393L240.851 135.215L238.026 109.503L243.716 92.9653Z" fill="#6C6FC3"/>
<path d="M236.876 111.613C236.902 111.611 236.964 111.939 237.052 112.535C237.148 113.206 237.269 114.052 237.413 115.059C237.714 117.191 238.151 120.131 238.711 123.367C239.273 126.602 239.852 129.518 240.286 131.627C240.49 132.623 240.661 133.46 240.797 134.125C240.914 134.715 240.966 135.045 240.942 135.051C240.917 135.057 240.815 134.739 240.654 134.158C240.492 133.578 240.277 132.732 240.026 131.685C239.525 129.588 238.904 126.674 238.34 123.431C237.779 120.189 237.383 117.236 237.149 115.093C237.032 114.021 236.949 113.153 236.907 112.551C236.863 111.949 236.85 111.616 236.876 111.613Z" fill="#17282F"/>
<path d="M243.171 95.1458C243.248 95.2495 240.81 96.4104 238.912 99.0204C236.976 101.603 236.577 104.284 236.456 104.24C236.416 104.235 236.454 103.568 236.748 102.535C237.039 101.504 237.636 100.12 238.61 98.7954C239.589 97.4742 240.734 96.499 241.632 95.9207C242.531 95.338 243.155 95.1087 243.171 95.1458Z" fill="#17282F"/>
<path d="M77.5273 68.8325L83.483 69.8969C85.6222 72.3255 88.4344 74.2084 91.749 75.2147C101.282 78.1098 111.349 72.6788 114.234 63.0852C117.119 53.4908 111.729 43.3667 102.195 40.4709C92.663 37.5758 82.5964 43.0068 79.7113 52.6012C78.5064 56.6071 78.7489 60.7038 80.1294 64.3303L80.1236 64.3216L77.5273 68.8325Z" fill="#FAFAF9"/>
<path d="M77.5273 68.8325C77.5273 68.8325 77.5772 68.7367 77.6855 68.543C77.7981 68.3427 77.9598 68.0554 78.1714 67.6788C78.6096 66.9046 79.2522 65.7698 80.0846 64.299L80.1453 64.2824L80.1597 64.2961L80.1655 64.3041L80.0875 64.3462C79.2717 62.2173 78.5634 59.1692 79.0125 55.5478C79.1229 54.6466 79.3135 53.7178 79.5828 52.776C79.7193 52.3051 79.9056 51.8415 80.0687 51.3612C80.2189 50.8743 80.4528 50.4128 80.6766 49.9383C81.5748 48.0474 82.8657 46.1827 84.5717 44.5704C86.2727 42.9574 88.3853 41.6006 90.7902 40.7176C93.1901 39.8316 95.8831 39.4267 98.623 39.6633C101.356 39.9303 104.117 40.8322 106.582 42.3719C107.221 42.7223 107.776 43.2056 108.369 43.638C108.672 43.8485 108.919 44.1263 109.198 44.3687C109.464 44.6255 109.755 44.8577 110.001 45.1364C110.486 45.6994 111.025 46.224 111.443 46.8509C111.663 47.1557 111.893 47.4546 112.106 47.7652C112.299 48.0895 112.492 48.4146 112.686 48.7411C114.188 51.2915 114.945 54.1873 115.081 57.0185C115.218 59.8577 114.678 62.6556 113.591 65.1204C112.517 67.5918 110.927 69.7344 109.06 71.4098C107.193 73.0902 105.056 74.3078 102.885 75.0609C100.711 75.8177 98.5067 76.1101 96.4476 76.0484C95.4138 76.0441 94.4254 75.8721 93.4702 75.7241C92.5345 75.4825 91.6176 75.2916 90.7779 74.9644C87.386 73.7193 84.9854 71.692 83.4469 69.9281L83.4743 69.9441C81.5336 69.5835 80.0435 69.3077 79.0305 69.1198C78.5367 69.0269 78.1612 68.9558 77.9013 68.9065C77.6494 68.8586 77.5273 68.8325 77.5273 68.8325C77.5273 68.8325 77.6645 68.8521 77.9237 68.8949C78.1872 68.9399 78.5685 69.0045 79.0695 69.0886C80.0774 69.2628 81.5603 69.5174 83.4909 69.8498L83.5184 69.865C85.062 71.6071 87.4582 73.6061 90.8277 74.8273C91.6616 75.1487 92.572 75.3337 93.5005 75.5703C94.4478 75.7132 95.4282 75.8801 96.4527 75.8808C98.493 75.936 100.674 75.6399 102.824 74.8853C104.971 74.1351 107.083 72.9262 108.927 71.261C110.771 69.6009 112.339 67.48 113.398 65.0362C114.471 62.599 115.002 59.8324 114.865 57.028C114.728 54.2308 113.981 51.3699 112.497 48.8506C112.305 48.5285 112.114 48.207 111.923 47.8863C111.713 47.5794 111.486 47.2841 111.269 46.983C110.856 46.3626 110.323 45.8453 109.845 45.2887C109.601 45.013 109.313 44.7837 109.051 44.5305C108.776 44.291 108.531 44.0161 108.233 43.8078C107.646 43.3812 107.098 42.9023 106.467 42.5562C104.034 41.0339 101.305 40.1393 98.6035 39.873C95.896 39.6357 93.2334 40.0326 90.858 40.904C88.4777 41.7733 86.3846 43.112 84.6966 44.7039C83.0043 46.2958 81.7206 48.1388 80.8239 50.0101C80.6008 50.4796 80.3669 50.9352 80.2167 51.417C80.0536 51.893 79.8666 52.3523 79.7301 52.8189C79.4586 53.752 79.2666 54.6727 79.1525 55.5659C78.6919 59.1561 79.3771 62.189 80.1705 64.3143L80.1453 64.3716L80.0926 64.3556L80.0868 64.3477L80.1619 64.344C79.315 65.7916 78.6623 66.9075 78.2161 67.6694C77.9945 68.046 77.8248 68.334 77.7071 68.5343C77.5916 68.7295 77.5273 68.8325 77.5273 68.8325Z" fill="#17282F"/>
<path d="M102.509 58.3674C102.509 57.3486 103.33 56.5236 104.343 56.5236C105.356 56.5236 106.178 57.3486 106.178 58.3674C106.178 59.3854 105.356 60.2103 104.343 60.2103C103.33 60.2103 102.509 59.3854 102.509 58.3674Z" fill="#17282F"/>
<path d="M95.1699 58.3674C95.1699 57.3486 95.9908 56.5236 97.0038 56.5236C98.0167 56.5236 98.8383 57.3486 98.8383 58.3674C98.8383 59.3854 98.0167 60.2103 97.0038 60.2103C95.9908 60.2103 95.1699 59.3854 95.1699 58.3674Z" fill="#17282F"/>
<path d="M87.8487 59.2889C87.3419 58.4073 87.6429 57.2797 88.5201 56.7711C89.3973 56.2618 90.5186 56.5636 91.0254 57.4452C91.5315 58.3268 91.2312 59.4543 90.354 59.9637C89.4768 60.4723 88.3548 60.1705 87.8487 59.2889Z" fill="#17282F"/>
<path d="M72.3438 91.3024C72.3438 91.3024 81.7793 93.8078 85.1719 105.367C87.6187 113.703 92.1477 125.578 92.1477 125.578L76.8547 128.16L72.3438 91.3024Z" fill="#D17B4D"/>
<path d="M22.8434 93.5372C22.8434 93.5372 29.834 90.1661 38.0787 87.2805H40.7055L56.5833 88.2847C60.1492 88.4864 69.7465 90.3896 72.3435 91.3024C72.3435 91.3024 76.8783 121.016 77.7677 126.906C78.7294 133.273 79.6897 139.827 79.6897 139.827L84.7883 174.054C86.4034 176.165 85.9861 178.35 85.7536 180.529C67.9654 188.357 48.1917 189.808 25.4897 180.837C24.9143 179.624 24.8844 178.433 25.6064 177.271C25.8382 170.306 26.3608 155.165 26.6755 150.504C26.6755 150.504 24.174 136.35 22.3485 130.919C20.1689 124.435 16.5145 114.009 16.5156 108.658C16.5165 103.729 22.8434 93.5372 22.8434 93.5372Z" fill="#D17B4D"/>
<path d="M81.9061 154.705L80.6455 146.247L81.9061 146.653V154.705Z" fill="#979999"/>
<path d="M44.1352 157.317C40.4606 157.317 34.8979 152.434 34.8979 152.434L38.0394 142.407L59.0253 139.29L80.6458 146.247L81.9064 154.705V154.773C81.9064 154.773 81.2761 154.803 79.9997 154.803C79.1882 154.803 78.1153 154.791 76.7789 154.751C73.3394 154.649 57.9055 148.913 57.9055 148.913C57.9055 148.913 48.0223 157.106 44.3546 157.311C44.2824 157.315 44.2095 157.317 44.1352 157.317Z" fill="#974A21"/>
<path d="M73.888 101.079C73.9905 101.064 75.3724 109.697 76.9744 120.359C78.5765 131.025 79.7923 139.681 79.6898 139.697C79.5873 139.713 78.2054 131.081 76.6026 120.415C75.0005 109.753 73.7847 101.094 73.888 101.079Z" fill="#17282F"/>
<path d="M27.4585 137.324C27.3133 137.378 24.7045 138.293 24.54 139.864C24.3754 141.435 25.9993 143.006 25.9993 143.006C25.9993 143.006 24.2693 144.743 26.2971 146.562C26.2971 146.562 24.8692 149.374 28.8187 150.201C28.8187 150.201 28.4022 152.93 30.9144 153.509C33.4267 154.087 34.7231 152.719 34.9079 152.434C35.312 151.807 34.911 151.441 34.911 151.441L39.598 150.862C39.598 150.862 50.0479 149.705 51.2002 148.629C52.3518 147.555 50.6241 137.821 48.6495 137.312C46.6741 136.805 30.5412 136.19 27.4585 137.324Z" fill="#F9A78D"/>
<path d="M31.618 147.611C31.653 147.717 30.8317 148.027 30.0694 148.749C29.2953 149.459 28.926 150.258 28.8234 150.215C28.7281 150.194 28.9667 149.254 29.8139 148.472C30.6535 147.682 31.6053 147.514 31.618 147.611Z" fill="#F57F62"/>
<path d="M29.3692 144.799C29.4093 144.911 28.6236 145.199 27.749 145.644C26.8711 146.088 26.3524 146.718 26.2625 146.653C26.1725 146.61 26.6116 145.8 27.5733 145.31C28.5155 144.834 29.3421 144.716 29.3692 144.799Z" fill="#F57F62"/>
<path d="M28.3047 141.518C28.3343 141.623 27.6933 141.876 27.0184 142.36C26.3376 142.837 25.8855 143.359 25.7967 143.296C25.7118 143.245 26.0592 142.574 26.8018 142.052C27.5405 141.524 28.2858 141.42 28.3047 141.518Z" fill="#F57F62"/>
<path d="M91.3896 125.706C91.2791 125.728 94.562 136.746 94.562 136.746L80.071 140.356L78.8386 134.031L78.0776 127.919L91.3896 125.706Z" fill="#F9A78D"/>
<path d="M49.1108 132.389C49.609 132.638 79.9525 133.992 79.9525 133.992C79.9525 133.992 91.1628 133.57 94.0875 135.202C94.0875 135.202 97.8548 145.7 93.3995 150.017C89.7311 153.57 86.0937 153.483 81.4218 152.78C76.1368 151.985 52.7034 143.416 52.7034 143.416L49.1108 132.389Z" fill="#F9A78D"/>
<path d="M90.3886 135.753C90.3431 135.866 88.0321 134.779 84.9651 134.274C81.901 133.745 79.364 134.014 79.3575 133.893C79.3524 133.847 79.9784 133.721 81.0086 133.663C82.0367 133.604 83.4706 133.641 85.0272 133.902C86.5823 134.166 87.9498 134.601 88.9028 134.994C89.8573 135.387 90.4088 135.712 90.3886 135.753Z" fill="#F57F62"/>
<path d="M70.7668 111.845C70.7668 111.845 71.8678 110.254 72.283 109.298C72.6981 108.342 72.7941 104.833 73.8121 103.846C74.8294 102.858 77.9751 99.8897 79.1707 98.752C80.367 97.615 80.7475 96.8945 81.4839 97.6498C82.2211 98.4051 82.3402 99.8004 81.6615 101.051C80.9829 102.301 78.6299 104.433 78.9736 105.676C79.3173 106.92 79.2855 108.089 81.4226 108.07C83.5596 108.051 89.4669 106.269 92.3556 105.58C96.4095 104.613 97.3466 105.925 97.3466 105.925C97.3466 105.925 99.3667 105.445 99.7862 106.358C100.206 107.27 98.7805 108.465 98.156 108.965C97.5307 109.465 98.0311 111.484 93.5504 114.192C92.9627 114.546 94.3129 115.567 89.869 117.54C87.3356 118.664 85.6187 119.795 82.7113 120.334C76.5513 121.48 73.8829 125.042 73.8829 125.042C73.7443 125.049 65.1122 116.648 66.7143 115.288C68.0052 114.191 70.7668 111.845 70.7668 111.845Z" fill="#F9A78D"/>
<path d="M97.322 105.797C97.3299 105.786 97.4772 105.908 97.483 106.224C97.4924 106.542 97.2426 106.958 96.8159 107.262C95.9257 107.801 94.6817 108.362 93.2565 108.94C91.8335 109.507 90.5086 109.923 89.5405 110.181C88.5708 110.437 87.9593 110.544 87.947 110.496C87.9182 110.387 90.2956 109.717 93.1179 108.589C94.5178 108.023 95.8138 107.479 96.6664 107.041C97.0707 106.79 97.3047 106.465 97.3371 106.212C97.3769 105.958 97.2873 105.81 97.322 105.797Z" fill="#F57F62"/>
<path d="M98.0312 109.145C98.0579 109.186 97.5612 109.582 96.7006 110.138C95.84 110.694 94.6076 111.397 93.1853 112.05C91.7623 112.701 90.4259 113.175 89.444 113.463C88.4613 113.752 87.8383 113.869 87.826 113.822C87.7942 113.711 90.215 113.004 93.0293 111.706C95.8494 110.422 97.9691 109.049 98.0312 109.145Z" fill="#F57F62"/>
<path d="M88.8794 116.482C88.8419 116.387 89.8794 115.867 91.1638 115.232C92.4518 114.604 93.4987 114.103 93.5506 114.192C93.6041 114.283 92.6258 114.939 91.3284 115.572C90.0353 116.212 88.9177 116.582 88.8794 116.482Z" fill="#F57F62"/>
<path d="M25.4897 134.463C25.4897 134.463 34.1394 152.58 41.6586 153.638C49.178 154.696 54.8932 146.466 57.5574 143.436C60.9738 139.551 77.7678 120.835 77.7678 120.835L68.8788 113.587L46.028 129.91L41.6586 122.656L25.4897 134.463Z" fill="#F9A78D"/>
<path d="M37.2418 151.365C37.2303 151.387 36.9759 151.251 36.5185 150.977C36.2756 150.858 36.0542 150.618 35.7584 150.384C35.4595 150.152 35.1627 149.845 34.8378 149.501C33.5276 148.136 31.9759 146.03 30.4414 143.602C28.9116 141.168 27.6584 138.888 26.79 137.219C26.3557 136.384 26.0206 135.7 25.7975 135.223C25.5756 134.745 25.4667 134.475 25.4899 134.463C25.513 134.451 25.6658 134.699 25.9273 135.155C26.2262 135.683 26.5923 136.329 27.0235 137.09C27.9497 138.724 29.2363 140.977 30.7586 143.399C32.2863 145.816 33.791 147.928 35.0325 149.319C35.3404 149.67 35.6202 149.986 35.8989 150.228C36.1749 150.47 36.3816 150.726 36.6039 150.858C37.0233 151.16 37.2537 151.342 37.2418 151.365Z" fill="#F57F62"/>
<path d="M65.9427 134.031C65.9636 134.047 65.8048 134.29 65.4994 134.718C65.1904 135.144 64.7276 135.747 64.1298 136.47C62.9421 137.923 61.2383 139.874 59.3135 141.989C57.3872 144.103 55.6075 145.983 54.3029 147.328C53.6502 148 53.1159 148.538 52.7398 148.903C52.3644 149.269 52.1471 149.462 52.1283 149.443C52.1095 149.425 52.2907 149.198 52.6337 148.802C53.0358 148.35 53.5289 147.796 54.1087 147.145C55.4299 145.694 57.1417 143.814 59.0355 141.733C60.9589 139.621 62.6909 137.701 63.9276 136.297C64.5009 135.64 64.9875 135.082 65.3846 134.627C65.7239 134.229 65.9218 134.015 65.9427 134.031Z" fill="#F57F62"/>
<path d="M34.5281 107.393C39.3638 116.44 44.7935 125.879 44.7935 125.879L24.4038 137.373C24.4038 137.373 16.3968 119.191 16.3322 118.705C16.3322 118.705 13.4939 107.554 16.097 101.322C18.1801 96.3358 22.8436 93.5372 22.8436 93.5372" fill="#D17B4D"/>
<path d="M22.8433 93.5372C22.8461 93.5408 22.8098 93.5684 22.7384 93.6199C22.6527 93.6816 22.5486 93.7563 22.4189 93.8492C22.1394 94.0545 21.7288 94.3629 21.2178 94.7917C20.2078 95.6537 18.7548 96.9982 17.4172 99.0676C16.753 100.101 16.1464 101.329 15.7524 102.744C15.3576 104.163 15.203 105.759 15.1593 107.451C15.1009 110.84 15.5598 114.66 16.4992 118.662L16.5032 118.682C16.7175 119.265 17.0249 119.972 17.2985 120.622C17.5839 121.286 17.873 121.959 18.1651 122.64C18.7557 123.998 19.3592 125.387 19.9743 126.802C21.2129 129.628 22.4973 132.56 23.8138 135.564C24.0699 136.146 24.3248 136.727 24.5753 137.296L24.3115 137.208C31.8368 132.978 38.822 129.053 44.716 125.741L44.6568 125.958C41.5949 120.387 39.0513 115.759 37.2605 112.501C36.3895 110.894 35.702 109.626 35.2197 108.737C34.9978 108.317 34.8232 107.986 34.694 107.742C34.5773 107.516 34.5209 107.397 34.5282 107.393C34.5353 107.389 34.6063 107.5 34.7369 107.719C34.8762 107.957 35.0643 108.28 35.3037 108.692C35.8038 109.57 36.5167 110.824 37.4201 112.413C39.2383 115.654 41.8209 120.258 44.9297 125.8L45.0084 125.939L44.8705 126.016C38.9848 129.345 32.0094 133.288 24.4954 137.537L24.3152 137.639L24.2318 137.449C23.981 136.879 23.7261 136.299 23.4697 135.717C22.1558 132.711 20.8734 129.778 19.637 126.95C19.025 125.533 18.424 124.142 17.8363 122.783C17.5458 122.101 17.2584 121.426 16.9744 120.761C16.694 120.075 16.4151 119.475 16.1611 118.728L16.1647 118.748C15.2304 114.703 14.7896 110.87 14.8708 107.444C14.9266 105.734 15.0947 104.119 15.5101 102.677C15.9264 101.232 16.5567 99.9912 17.242 98.9529C18.6228 96.8734 20.1097 95.5456 21.1472 94.7054C21.6727 94.2882 22.0957 93.9928 22.3867 93.802C22.5236 93.7186 22.6329 93.6511 22.7229 93.596C22.7999 93.5517 22.8411 93.5328 22.8433 93.5372Z" fill="#17282F"/>
<path d="M43.3906 140.334C43.3473 140.34 43.2187 139.725 43.1942 138.712C43.1689 137.702 43.2852 136.292 43.6945 134.797C44.1075 133.302 44.7284 132.032 45.2677 131.179C45.8056 130.323 46.2301 129.862 46.2648 129.889C46.3717 129.954 44.8468 131.958 44.057 134.898C43.2325 137.827 43.5155 140.334 43.3906 140.334Z" fill="#F57F62"/>
<path d="M28.982 76.9199C29.8463 76.1565 31.0706 75.9447 31.9497 75.1995C32.8274 74.4558 33.2473 73.2586 33.304 72.0918C33.3607 70.9244 33.0951 69.7685 32.8099 68.6366L42.2058 80.7553C41.4592 82.0904 40.6558 83.4356 39.4857 84.3977C38.3156 85.3606 36.6957 85.8815 35.2861 85.3577C33.8765 84.8331 32.9207 83.0452 33.5688 81.6572C32.3053 82.8617 30.1138 82.8856 28.8833 81.6449C27.6528 80.4048 27.6748 78.0743 28.982 76.9199Z" fill="#17282F"/>
<path d="M56.1353 41.528C58.4124 43.2382 58.7879 44.9412 58.8788 45.854C58.9056 46.1217 58.8615 46.462 58.6124 46.5454C58.4911 46.5861 58.3605 46.5483 58.2384 46.5099C55.6985 45.7175 53.1578 44.9238 50.6172 44.1307" fill="#17282F"/>
<path d="M35.0731 72.0715C33.3581 68.9123 31.6519 65.7255 30.4916 62.3102C29.3314 58.8956 28.7329 55.2118 29.2989 51.6419C29.3847 51.1007 30.2916 47.4031 30.823 47.3508C31.2029 47.3131 30.8492 50.6631 31.1013 50.957C33.5071 53.7643 34.7268 57.4793 35.1411 61.195C35.5551 64.9107 35.4451 68.3507 35.0731 72.0715Z" fill="#17282F"/>
<path d="M64.5547 72.1245C64.0298 67.9545 62.2689 59.4565 60.5881 51.7863C58.7825 43.5415 51.1128 38.1076 42.9674 39.294L42.1581 39.4122C33.5019 41.2073 30.1506 49.762 32.1372 58.6003L38.0922 88.2702L38.6433 88.8136C42.4664 92.583 46.895 94.6168 51.6392 94.4957C55.109 94.4072 57.937 91.6644 58.1681 88.1838C58.2107 88.0895 57.4158 83.3239 57.4345 83.3202C57.4345 83.3202 65.6406 80.7575 64.5547 72.1245Z" fill="#F9A78D"/>
<path d="M57.4346 83.3202C57.4346 83.3202 52.1908 84.4093 46.0532 81.5941C46.0532 81.5941 49.5758 87.6904 57.8396 85.6951L57.4346 83.3202Z" fill="#F57F62"/>
<path d="M59.0453 60.1929C59.158 60.8394 58.7168 61.47 58.0613 61.6027C57.4079 61.7355 56.7855 61.3198 56.6736 60.6733C56.5617 60.0268 57.0021 59.3955 57.6562 59.2627C58.3111 59.1299 58.9334 59.5464 59.0453 60.1929Z" fill="#17282F"/>
<path d="M59.33 55.8518C59.2037 56.0339 58.2008 55.476 56.9121 55.6675C55.6219 55.8395 54.77 56.6587 54.6075 56.5172C54.5295 56.4555 54.6407 56.1435 55.0097 55.7756C55.3728 55.4092 56.0233 55.0101 56.8269 54.8969C57.6312 54.7845 58.3481 54.9891 58.7799 55.2438C59.2188 55.4984 59.3936 55.7691 59.33 55.8518Z" fill="#17282F"/>
<path d="M47.9333 61.798C48.0452 62.4452 47.604 63.0757 46.9492 63.2085C46.2951 63.3405 45.6727 62.9255 45.5608 62.279C45.4489 61.6318 45.8893 61.0005 46.5435 60.8678C47.199 60.7357 47.8206 61.1522 47.9333 61.798Z" fill="#17282F"/>
<path d="M46.7347 57.9995C46.6077 58.1816 45.6034 57.6244 44.3161 57.8159C43.0266 57.9879 42.174 58.8071 42.0115 58.6648C41.9336 58.6032 42.0426 58.2919 42.4144 57.924C42.7768 57.5576 43.4273 57.1585 44.2309 57.0446C45.0352 56.9329 45.7521 57.1382 46.1839 57.3915C46.6221 57.6469 46.7976 57.9175 46.7347 57.9995Z" fill="#17282F"/>
<path d="M52.7641 67.5025C52.7474 67.4278 53.5294 67.1687 54.8044 66.8096C55.1293 66.7261 55.4318 66.6144 55.4549 66.3749C55.4989 66.1195 55.3105 65.7749 55.0968 65.4048C54.6744 64.6314 54.2318 63.8209 53.7676 62.9712C51.9092 59.5022 50.5144 56.6303 50.6508 56.5542C50.788 56.4787 52.4052 59.2294 54.2629 62.6984C54.7134 63.5553 55.1437 64.3716 55.5531 65.1531C55.7307 65.5195 56.0058 65.9243 55.9076 66.4555C55.8534 66.721 55.6375 66.9402 55.4347 67.0287C55.2325 67.1259 55.0477 67.1564 54.886 67.1905C53.5893 67.4524 52.7799 67.5765 52.7641 67.5025Z" fill="#17282F"/>
<path d="M46.5796 53.797C46.4511 54.1605 45.1515 53.9871 43.6238 54.1757C42.0917 54.3324 40.8597 54.791 40.6573 54.4645C40.5671 54.3085 40.7819 53.9667 41.2802 53.6148C41.7741 53.2636 42.5617 52.9299 43.4794 52.8254C44.3963 52.7231 45.236 52.8733 45.7926 53.1055C46.3529 53.3384 46.6352 53.6243 46.5796 53.797Z" fill="#17282F"/>
<path d="M59.1999 53.6816C58.9783 54.0248 57.8837 53.8826 56.6217 54.0705C55.3546 54.2207 54.3265 54.648 54.0334 54.3738C53.9027 54.2388 54.024 53.9108 54.4464 53.5517C54.8622 53.194 55.595 52.8392 56.4643 52.7223C57.3336 52.6063 58.1249 52.7572 58.6101 52.9937C59.1025 53.231 59.2952 53.5161 59.1999 53.6816Z" fill="#17282F"/>
<path d="M33.7036 64.8817C33.5516 64.8389 27.697 63.9703 28.6937 69.8352C29.6904 75.7001 35.2169 73.4624 35.1983 73.2926C35.1797 73.1229 33.7036 64.8817 33.7036 64.8817Z" fill="#F9A78D"/>
<path d="M33.0764 71.3836C33.0482 71.3691 32.989 71.4729 32.8344 71.5817C32.6838 71.6884 32.4108 71.7921 32.0935 71.7312C31.4519 71.6115 30.7767 70.719 30.5695 69.6669C30.4643 69.1358 30.4869 68.6083 30.5991 68.1548C30.7009 67.694 30.9201 67.3458 31.2142 67.2362C31.5041 67.1099 31.7508 67.258 31.849 67.4111C31.9531 67.5613 31.9368 67.6846 31.9689 67.6897C31.9872 67.7013 32.0747 67.5692 31.9875 67.3349C31.944 67.2224 31.8535 67.0962 31.7004 67.0076C31.5439 66.9177 31.3326 66.8952 31.125 66.9576C30.6902 67.0671 30.3644 67.5547 30.2403 68.0525C30.0929 68.5575 30.0553 69.1525 30.1735 69.7496C30.411 70.9243 31.1877 71.9249 32.0549 72.0222C32.4749 72.0577 32.7887 71.8734 32.9382 71.7036C33.0902 71.5273 33.0981 71.3909 33.0764 71.3836Z" fill="#F57F62"/>
<path d="M55.1663 42.7811C55.9951 42.0845 52.6776 39.5377 50.2214 38.9087C46.5097 37.9581 41.1013 37.9618 38.1062 39.4782C34.5005 41.3038 31.6876 43.8441 30.4137 47.7608C29.1398 51.6775 29.1627 55.9563 29.9994 59.9956C30.2547 61.2276 30.6108 62.4952 31.4422 63.4211C32.4696 64.566 33.723 64.9912 34.3956 66.8915C34.6167 67.5155 34.7871 68.1737 35.3074 68.5677C36.5542 69.5109 37.6386 68.199 38.0335 67.0142C38.8764 64.4848 38.5264 61.7203 38.1669 59.0719C37.9114 57.189 37.6439 55.2677 36.8106 53.5705C36.3574 52.6469 35.7445 51.8095 35.3415 50.8612C34.9385 49.9136 34.7668 48.7839 35.2228 47.8617C35.297 47.7122 35.4287 47.5155 35.5999 47.2935C36.9542 45.5354 39.1364 44.6742 41.2919 45.0275C44.7105 45.5884 50.5037 46.2966 51.7354 44.9078C53.5079 42.9088 53.8125 41.766 53.8125 41.766L55.1663 42.7811Z" fill="#17282F"/>
<path d="M29.6999 65.3816C29.5744 65.3018 29.4089 65.3112 29.2893 65.2307C21.3811 59.9172 25.5979 52.5743 25.3362 50.6058C24.9732 47.8776 22.4443 51.8923 21.4017 48.4058C20.0206 43.7882 24.5603 40.8474 30.2276 37.6817C32.6017 36.3553 38.7507 34.9288 44.3929 35.0754C49.4273 35.206 53.292 38.1345 55.611 40.5078C55.611 40.5078 56.8427 40.859 57.2066 41.3256C58.3459 42.7884 58.0795 43.5263 58.0795 43.5263C58.0795 43.5263 46.348 39.8273 38.7129 49.0313C31.0776 58.2353 33.8539 64.4086 31.4995 64.9346L29.6999 65.3816Z" fill="#919191"/>
<path d="M32.9224 41.3241C32.9277 41.3343 32.7724 41.4388 32.487 41.6187C32.3431 41.7065 32.1688 41.8161 31.9742 41.9561C31.7788 42.0947 31.5489 42.2413 31.3137 42.4306C30.8289 42.7891 30.2818 43.2571 29.7076 43.8114C29.1416 44.3752 28.5532 45.0319 27.9985 45.7727C27.4505 46.5193 26.9911 47.2768 26.6126 47.9872C26.2446 48.704 25.9513 49.3702 25.744 49.9455C25.6286 50.2285 25.5528 50.4955 25.475 50.7255C25.3951 50.9556 25.3385 51.1572 25.2945 51.3234C25.2019 51.6535 25.1453 51.8357 25.134 51.8328C25.1224 51.8299 25.1577 51.6427 25.231 51.306C25.2654 51.1369 25.3133 50.9316 25.3849 50.6972C25.4546 50.4629 25.5234 50.1915 25.6323 49.9035C25.8269 49.3179 26.1115 48.6402 26.4756 47.9125C26.8504 47.1912 27.3106 46.4228 27.8645 45.6682C28.4255 44.9194 29.0237 44.2591 29.601 43.6961C30.187 43.1417 30.7471 42.6795 31.2444 42.3312C31.4857 42.1462 31.7221 42.0062 31.9237 41.8749C32.1242 41.7414 32.3044 41.6398 32.454 41.5607C32.7506 41.3982 32.917 41.3132 32.9224 41.3241Z" fill="#17282F"/>
<path d="M55.9277 40.6109C55.927 40.6138 55.8909 40.6073 55.8216 40.5935C55.7429 40.5761 55.6411 40.5543 55.5126 40.526C55.2433 40.4607 54.8419 40.3794 54.3249 40.2771C53.8065 40.1879 53.1712 40.0783 52.4276 40.0086C51.6846 39.931 50.8341 39.8831 49.8956 39.91C48.0206 39.9557 45.7803 40.3054 43.4533 41.2015C42.2909 41.6463 41.1105 42.2238 39.9544 42.94C38.8023 43.662 37.6793 44.5276 36.6307 45.5281C35.592 46.5396 34.6701 47.6287 33.9101 48.7744C33.1514 49.9216 32.5346 51.1057 32.0427 52.2761C31.0531 54.6197 30.5508 56.8792 30.2141 58.7759C29.8917 60.6798 29.7499 62.2398 29.6568 63.3166C29.6153 63.847 29.5829 64.2635 29.5601 64.5581C29.5488 64.6923 29.5397 64.799 29.533 64.8809C29.526 64.9542 29.5209 64.9912 29.5181 64.9905C29.5153 64.9905 29.5144 64.9535 29.5158 64.8802C29.5183 64.7982 29.5217 64.6916 29.5262 64.5566C29.5361 64.2715 29.5553 63.8513 29.5914 63.3115C29.6647 62.2318 29.7885 60.6675 30.0968 58.7548C30.4197 56.8494 30.9118 54.5762 31.9003 52.213C32.3916 51.0332 33.0104 49.8374 33.7741 48.6794C34.5392 47.5221 35.4682 46.4221 36.5156 45.4019C37.5733 44.3934 38.7064 43.5212 39.8689 42.7956C41.0354 42.0751 42.2267 41.4961 43.3999 41.0528C45.7463 40.1581 48.0069 39.8178 49.8927 39.7881C50.8378 39.7685 51.6926 39.8251 52.4369 39.9121C53.1835 39.9919 53.8188 40.1117 54.3372 40.2111C54.8534 40.3243 55.2534 40.4157 55.5205 40.4919C55.6476 40.5274 55.748 40.555 55.8252 40.576C55.8938 40.5964 55.9285 40.608 55.9277 40.6109Z" fill="#17282F"/>
<path d="M32.8489 61.7966C32.8673 61.8343 32.1546 62.0728 31.2736 61.8923C30.3903 61.7212 29.8166 61.2261 29.8474 61.1978C29.8744 61.1521 30.4644 61.5617 31.3054 61.7234C32.1442 61.8966 32.8408 61.7437 32.8489 61.7966Z" fill="#17282F"/>
<path d="M34.9232 56.0397C34.9227 56.06 34.688 56.0753 34.3135 56.0165C33.9401 55.9584 33.4296 55.8097 32.9175 55.5296C32.4061 55.2474 32.0026 54.8933 31.7491 54.606C31.4938 54.3186 31.3762 54.1097 31.392 54.0981C31.4317 54.0596 31.9961 54.836 32.997 55.3773C33.9903 55.9323 34.9326 55.9846 34.9232 56.0397Z" fill="#17282F"/>
<path d="M38.9448 48.6692C38.9013 48.7004 38.4258 47.9407 37.597 47.2507C36.7746 46.552 35.9556 46.2226 35.977 46.1732C35.9843 46.1319 36.8547 46.3967 37.7035 47.1165C38.5578 47.829 38.9822 48.6533 38.9448 48.6692Z" fill="#17282F"/>
<path d="M43.6385 45.0369C43.5887 45.0536 43.3591 44.2649 42.814 43.4363C42.2776 42.6026 41.6552 42.0824 41.6899 42.0417C41.7094 42.0047 42.3981 42.4793 42.9541 43.3405C43.5165 44.1967 43.6789 45.0319 43.6385 45.0369Z" fill="#17282F"/>
<path d="M51.3186 43.0561C51.2652 43.0583 51.3713 42.2094 50.9388 41.3053C50.5223 40.3932 49.8111 39.9484 49.8465 39.9063C49.8559 39.8897 50.0457 39.9724 50.3028 40.1872C50.5591 40.3997 50.8695 40.7604 51.0905 41.2305C51.3092 41.7022 51.3894 42.176 51.3901 42.5148C51.393 42.8551 51.3367 43.059 51.3186 43.0561Z" fill="#17282F"/>
<path d="M56.2265 43.3274C56.1752 43.3195 56.2792 42.6839 56.1268 41.9235C55.9832 41.1609 55.6489 40.6159 55.6929 40.5884C55.7233 40.5579 56.1391 41.0869 56.2915 41.8901C56.451 42.6904 56.2655 43.3434 56.2265 43.3274Z" fill="#17282F"/>
<path d="M53.6587 70.8242C53.5728 70.8242 49.7795 69.3324 49.7795 69.3324C49.7795 69.3324 48.68 71.5368 50.0098 72.5497C51.3397 73.5633 52.9548 72.9241 53.2126 72.3197C53.4703 71.716 53.6587 70.8242 53.6587 70.8242Z" fill="#F57F62"/>
<path d="M52.8038 72.7441C52.8225 72.7557 52.6832 72.9538 52.3085 73.0663C51.9388 73.1838 51.3858 73.2179 50.7237 73.0953H50.7194L50.7114 73.0924C50.2739 72.9473 49.7447 72.6999 49.4068 72.1702C49.0733 71.6412 49.0509 70.9352 49.2097 70.3105C49.3036 69.9252 49.4379 69.5748 49.6191 69.2403L49.6949 69.1002L49.8451 69.1597C52.1345 70.0602 53.834 70.7967 53.8015 70.8815C53.769 70.9664 52.0153 70.3729 49.7137 69.5051L49.9389 69.4238C49.7873 69.7133 49.6581 70.0544 49.575 70.3983C49.4306 70.9715 49.4552 71.5585 49.7108 71.9852C49.9678 72.414 50.4082 72.652 50.8039 72.808L50.7923 72.8043C51.3952 72.9502 51.9251 72.9625 52.268 72.9016C52.6196 72.8486 52.7799 72.7129 52.8038 72.7441Z" fill="#17282F"/>
</svg>
