<svg width="276" height="188" viewBox="0 0 276 188" fill="none" xmlns="http://www.w3.org/2000/svg">
<path d="M262.954 187L115.081 186.949L40.7725 186.923L36.6355 186.92L21.7068 186.918C21.7068 186.918 0.381795 169.582 0.0123887 145.075C-0.715534 96.7846 30.893 118.536 26.5988 60.3361C22.6804 7.22903 125.059 -21.4082 180.65 19.165C200.861 33.9162 202.446 44.2623 231.489 40.9913C264.273 37.2992 268.009 77.1426 256.535 99.2292C240.253 130.567 301.681 125.419 262.954 187Z" fill="#DCFBF3"/>
<mask id="mask0_4126_4599" style="mask-type:alpha" maskUnits="userSpaceOnUse" x="0" y="0" width="276" height="187">
<path d="M262.954 187L115.081 186.949L40.7725 186.923L36.6355 186.92L21.7068 186.918C21.7068 186.918 0.381795 169.582 0.0123887 145.075C-0.715534 96.7846 30.893 118.536 26.5988 60.3361C22.6804 7.22903 125.059 -21.4082 180.65 19.165C200.861 33.9162 202.446 44.2623 231.489 40.9913C264.273 37.2992 268.009 77.1426 256.535 99.2292C240.253 130.567 301.681 125.419 262.954 187Z" fill="#CEF7F3"/>
</mask>
<g mask="url(#mask0_4126_4599)">
<path d="M69.0001 104.125C45.3384 99.5664 7.96161 113.156 7.96161 113.156H-5.30762V187H279.185V154.062C279.185 154.062 234.394 131.69 203.285 128.562C172.536 125.472 154.7 145.673 124.731 138.125C100.013 131.9 94.0291 108.947 69.0001 104.125Z" fill="#ABFEE6"/>
</g>
<path d="M54.1157 87.0288C54.6505 87.4276 67.6394 100.94 67.6394 100.94L68.6246 95.2266L81.1256 104.409L65.9096 87.2247L64.9729 93.5151L54.1157 87.0288Z" fill="#E13037"/>
<path d="M210.606 121.557C210.286 121.537 201.522 119.499 201.522 119.499L202.625 122.052L195.192 121.628L205.815 124.559L204.541 121.787L210.606 121.557Z" fill="#E13037"/>
<path d="M75.3277 114.465C75.0081 114.444 66.2451 112.401 66.2451 112.401L67.3465 114.954L59.9146 114.525L70.5351 117.463L69.2629 114.69L75.3277 114.465Z" fill="#E13037"/>
<path d="M195.688 175.127C195.313 174.931 185.808 167.769 185.808 167.769L185.768 171.449L177.006 166.951L188.278 176.19L188.229 172.154L195.688 175.127Z" fill="#E13037"/>
<path d="M215.428 91.5328C214.82 91.8317 196.579 97.3271 196.579 97.3271L201.306 100.851L187.217 107.902L209.814 102.088L204.542 98.3435L215.428 91.5328Z" fill="#E13037"/>
<path d="M85.0409 160.029C84.4325 160.328 66.1917 165.824 66.1917 165.824L70.9188 169.347L56.8296 176.398L79.4264 170.584L74.1541 166.84L85.0409 160.029Z" fill="#E13037"/>
<path d="M166.403 61.576C166.226 61.9786 159.466 72.3301 159.466 72.3301L163.294 72.1068L159.251 81.4973L168.042 69.1677L163.85 69.5091L166.403 61.576Z" fill="#E13037"/>
<path d="M82.9496 34.5459L74.8206 26.1478L72.8007 39.4312L61.9102 39.0635L68.7249 47.9926L61.8677 56.971L73.2233 54.7372L74.8648 66.137L84.0455 59.1983L95.6221 65.2463L93.0882 53.5772L106.223 51.514L96.007 45.4986L101.963 35.2504L91.7535 39.2333L90.5121 26.5926L82.9496 34.5459Z" fill="#F2575D"/>
<path d="M106.625 59.1648C108.602 61.7564 105.667 64.6853 103.069 62.7124V62.7121C101.09 60.1201 104.027 57.1897 106.625 59.1648Z" fill="#F2575D"/>
<path d="M84.9347 39.6751L84.4201 48.2596C84.3781 48.9615 83.8183 49.5221 83.1146 49.5666C82.3728 49.6133 81.7246 49.0717 81.6401 48.3344L80.6551 39.7115C80.5805 39.059 81.0962 38.4885 81.7548 38.4953L83.8532 38.517C84.4791 38.5238 84.9723 39.0514 84.9347 39.6751Z" fill="white"/>
<path d="M80.8515 54.4022C81.2207 55.4987 82.411 56.089 83.51 55.7206C84.6091 55.3525 85.2009 54.1648 84.8318 53.0678C84.4626 51.9713 83.2723 51.381 82.1733 51.7491C81.0742 52.1175 80.4824 53.3052 80.8515 54.4022Z" fill="white"/>
<path d="M141.629 25.6647C140.896 24.0633 139.052 23.0469 137.302 23.2786C135.347 21.569 132.165 21.4717 130.107 23.0587C128.617 22.0745 126.604 21.9363 124.992 22.7069C123.38 23.478 122.227 25.1303 122.063 26.906C120.292 26.5341 118.328 27.4035 117.416 28.9639C116.504 30.5242 116.713 32.6573 117.91 34.0122C115.935 34.5458 114.548 36.6983 114.882 38.7122C115.215 40.7264 117.221 42.3194 119.263 42.191L140.61 30.4919C141.929 29.3228 142.364 27.2664 141.629 25.6647Z" fill="#17282F"/>
<path d="M118.628 42.7444C119.826 33.6107 127.853 26.9276 137.074 27.3849L137.99 27.4301C147.841 28.4959 152.437 37.4382 151.097 47.2333L148.479 84.3567L154.114 87.0196L137.061 99.4321L117.492 85.6352L125.155 83.1211L125.291 76.6416C125.291 76.6416 115.867 74.6972 116.221 65.2171C116.392 60.6386 117.514 51.2393 118.628 42.7444Z" fill="#F9A78D"/>
<path d="M125.291 76.6415C125.291 76.6415 131.258 77.2884 137.835 73.6075C137.835 73.6075 134.668 80.5819 125.236 79.2589L125.291 76.6415Z" fill="#F57F62"/>
<path d="M122.533 52.1436C122.472 52.8566 123.027 53.4963 123.773 53.5734C124.517 53.6501 125.171 53.1362 125.231 52.4228C125.292 51.7094 124.737 51.0694 123.994 50.9923C123.248 50.9148 122.594 51.4302 122.533 52.1436Z" fill="#17282F"/>
<path d="M120.439 47.4809C120.598 47.6655 121.663 46.9578 123.122 47.0338C124.58 47.0889 125.614 47.8915 125.781 47.7213C125.863 47.6457 125.707 47.3187 125.258 46.9571C124.816 46.597 124.049 46.23 123.14 46.1886C122.231 46.1487 121.45 46.4446 120.993 46.7649C120.527 47.0858 120.36 47.3977 120.439 47.4809Z" fill="#17282F"/>
<path d="M135.356 52.7832C135.295 53.4962 135.85 54.1359 136.596 54.2126C137.339 54.2901 137.993 53.7758 138.054 53.0621C138.115 52.3491 137.559 51.7086 136.816 51.6315C136.071 51.5544 135.417 52.0699 135.356 52.7832Z" fill="#17282F"/>
<path d="M134.768 48.4631C134.928 48.6481 135.994 47.9408 137.452 48.0168C138.91 48.0723 139.944 48.8741 140.111 48.7036C140.193 48.6288 140.039 48.3017 139.588 47.9397C139.146 47.5796 138.379 47.213 137.47 47.1716C136.561 47.1314 135.78 47.4276 135.323 47.7475C134.859 48.0688 134.69 48.3803 134.768 48.4631Z" fill="#17282F"/>
<path d="M128.935 58.9985C128.946 58.9157 128.047 58.7144 126.586 58.4542C126.216 58.3976 125.867 58.3061 125.816 58.0489C125.742 57.7762 125.918 57.3831 126.12 56.9592C126.515 56.0772 126.929 55.1524 127.363 54.183C129.094 50.2283 130.366 46.9689 130.206 46.9006C130.045 46.833 128.513 49.9829 126.782 53.9377C126.364 54.9134 125.965 55.8433 125.585 56.7332C125.423 57.1487 125.156 57.6159 125.319 58.1826C125.405 58.4656 125.669 58.681 125.904 58.7566C126.139 58.8413 126.349 58.8557 126.533 58.8758C128.008 59.0285 128.925 59.0806 128.935 58.9985Z" fill="#17282F"/>
<path d="M140.96 45.821C140.887 45.4111 139.572 45.4184 138.087 45.0039C136.592 44.6233 135.44 43.9582 135.19 44.2822C135.077 44.4387 135.239 44.8372 135.68 45.2862C136.116 45.7333 136.847 46.2024 137.74 46.4413C138.633 46.6787 139.488 46.6327 140.075 46.458C140.665 46.2844 140.989 46.0151 140.96 45.821Z" fill="#17282F"/>
<path d="M126.075 44.4749C125.789 44.125 124.564 44.3913 123.115 44.3153C121.666 44.2815 120.457 43.9229 120.153 44.2508C120.019 44.4107 120.191 44.7541 120.706 45.1009C121.213 45.4462 122.08 45.7573 123.076 45.7956C124.071 45.8321 124.952 45.5875 125.478 45.2813C126.01 44.974 126.2 44.6443 126.075 44.4749Z" fill="#17282F"/>
<path d="M119.758 38.4444C119.758 38.4444 122.558 32.6353 125.494 31.3928C129.049 29.8887 130.354 33.7645 133.708 33.006C137.063 32.2475 140.457 30.8033 143.71 33.5225C147.272 36.4985 145.441 38.3718 145.46 42.5872C145.538 59.6765 148.417 64.6507 149.704 56.6667C149.846 55.7923 152.327 55.2138 152.874 51.5162C153.585 46.7209 154.062 40.8795 153.154 37.4067C152.389 34.4793 150.841 32.4066 147.997 30.0646C143.507 26.3681 137.107 25.9757 132.736 26.1972C128.365 26.4178 119.732 30.9955 119.758 38.4444Z" fill="#17282F"/>
<path d="M149.61 43.8232C148.739 44.3557 147.818 44.9038 146.797 44.9535C145.777 45.0037 144.643 44.364 144.522 43.3514C144.468 42.8964 144.604 42.379 144.324 42.0156C143.991 41.5825 143.33 41.6802 142.784 41.7109C140.886 41.8169 138.785 39.6276 138.395 37.7717C137.878 38.4672 136.812 38.6324 136.107 38.1272C135.402 37.6228 135.15 37.3421 134.612 36.6626C134.074 35.9827 133.303 35.3606 132.439 35.4396C131.956 35.484 131.492 35.7468 131.012 35.68C130.163 35.5626 129.796 34.5458 129.709 33.695C129.622 32.8446 129.571 31.8544 128.872 31.3598C128.224 30.9014 127.344 31.1042 126.554 31.1805C125.763 31.2573 124.759 31.0229 124.596 30.2473C124.511 29.8405 124.705 29.4265 124.945 29.0869C126.035 27.5494 128.275 26.9534 129.988 27.745C130.729 25.6362 132.818 24.0698 135.055 23.9459C137.292 23.8221 139.542 25.1477 140.513 27.1619C141.947 25.9879 143.967 25.5655 145.752 26.0661C147.539 26.5667 149.042 27.9767 149.653 29.7243C151.253 29.3881 153.023 30.0866 153.959 31.4236C154.896 32.761 154.944 34.659 154.077 36.0424C155.211 36.7652 156.153 37.9719 156.11 39.3138C156.067 40.6558 154.692 41.9267 153.412 41.5096C153.884 42.5796 153.388 43.9751 152.345 44.508C151.302 45.0409 149.876 44.628 149.282 43.6207" fill="#17282F"/>
<path d="M129.41 29.627C129.405 29.627 129.404 29.6673 129.406 29.7456C129.411 29.8238 129.409 29.9416 129.43 30.0935C129.475 30.3955 129.573 30.8444 129.839 31.3652C130.107 31.8779 130.533 32.4765 131.202 32.9677C131.858 33.4641 132.77 33.8614 133.824 33.8565L133.721 33.7072C133.492 34.2511 133.514 34.9188 133.763 35.5023C133.996 36.0944 134.383 36.6281 134.794 37.1503C135.006 37.4014 135.186 37.6935 135.484 37.9294C135.773 38.1561 136.127 38.297 136.494 38.3616C137.221 38.4908 138.058 38.3062 138.621 37.7178L138.381 37.6365C138.482 38.9321 139.152 40.2573 140.279 41.1006C140.874 41.5761 141.624 41.8857 142.376 41.9031C143.128 41.9328 143.837 41.7478 144.5 41.5472L144.33 41.4625C144.639 42.2849 145.141 42.9982 145.767 43.5375C146.381 44.0754 147.218 44.4149 147.998 44.2645C149.546 44.0169 150.626 42.7957 150.891 41.6088L150.74 41.6695C151.48 42.1208 152.294 42.2009 152.955 42.1071C153.625 42.019 154.16 41.7573 154.545 41.4922C154.932 41.2213 155.167 40.9357 155.31 40.7367C155.442 40.5293 155.498 40.4134 155.491 40.4096C155.46 40.3815 155.252 40.8913 154.484 41.4018C154.102 41.6445 153.579 41.8819 152.935 41.9514C152.3 42.0273 151.53 41.9331 150.847 41.502L150.729 41.4276L150.697 41.5632C150.435 42.67 149.398 43.8076 147.962 44.0211C147.256 44.1502 146.52 43.8475 145.939 43.3381C145.354 42.8299 144.876 42.1424 144.589 41.3699L144.544 41.2472L144.419 41.2844C143.767 41.48 143.083 41.6528 142.388 41.6228C141.692 41.6034 141.019 41.3277 140.452 40.8768C139.387 40.0788 138.758 38.8394 138.656 37.6122L138.631 37.3038L138.417 37.5313C137.943 38.0346 137.193 38.2139 136.539 38.0984C136.21 38.0429 135.896 37.9195 135.644 37.7235C135.396 37.5359 135.208 37.2468 134.993 36.9931C134.581 36.4796 134.205 35.966 133.983 35.4145C133.746 34.8691 133.725 34.2822 133.922 33.7892L133.983 33.6369L133.819 33.64C132.826 33.6574 131.945 33.2951 131.305 32.8283C130.65 32.3675 130.223 31.7985 129.946 31.3082C129.404 30.2994 129.458 29.6141 129.41 29.627Z" fill="#A3ACB4"/>
<path d="M132.323 62.477C132.13 62.1572 131.893 61.8575 131.585 61.6459C131.013 61.2528 130.256 61.2087 129.58 61.3701C129.01 61.5061 128.379 61.8879 127.945 62.2825C127.13 63.022 127.318 63.8474 127.478 65.7006C129.318 65.4636 131.151 65.9566 132.905 65.3515C133.045 64.3647 132.836 63.332 132.323 62.477Z" fill="#F57F62"/>
<path d="M127.945 62.0717L127.971 62.0571L127.972 62.0563L127.945 62.0717Z" fill="#F57F62"/>
<path d="M127.478 65.7009C127.47 65.6493 128.272 65.5031 129.574 65.4715C130.224 65.4495 130.993 65.4415 131.839 65.369C131.944 65.3587 132.051 65.3488 132.159 65.3386C132.27 65.3257 132.38 65.3211 132.458 65.2972C132.634 65.2448 132.745 65.1521 132.783 64.9778C132.825 64.8015 132.804 64.5786 132.767 64.3503C132.73 64.1144 132.69 63.8774 132.639 63.6423C132.538 63.1736 132.394 62.728 132.153 62.3759C131.916 62.02 131.571 61.7879 131.19 61.6778C130.808 61.5635 130.416 61.554 130.045 61.5756C129.675 61.5973 129.334 61.6501 129.037 61.7412C128.437 61.9167 128.033 62.2426 127.815 62.5142C127.593 62.7854 127.51 62.9719 127.478 62.9578C127.46 62.9514 127.492 62.7436 127.69 62.4234C127.883 62.104 128.306 61.7013 128.949 61.4757C129.266 61.3587 129.63 61.2862 130.02 61.2486C130.407 61.2117 130.844 61.2049 131.29 61.3272C131.736 61.4404 132.188 61.7321 132.472 62.1552C132.764 62.5727 132.919 63.0657 133.026 63.5587C133.08 63.8064 133.12 64.051 133.157 64.2899C133.193 64.5341 133.227 64.7935 133.159 65.0727C133.125 65.2113 133.052 65.3564 132.934 65.4632C132.821 65.5672 132.686 65.6284 132.555 65.6626C132.415 65.6979 132.301 65.6971 132.194 65.7085C132.083 65.7165 131.974 65.7245 131.866 65.7325C131 65.7864 130.223 65.7651 129.576 65.7511C128.282 65.7108 127.485 65.7575 127.478 65.7009Z" fill="#17282F"/>
<path d="M138.847 55.569C138.783 55.6678 137.965 55.1702 136.832 55.0422C135.702 54.8948 134.789 55.1819 134.75 55.0706C134.732 55.0235 134.941 54.8849 135.325 54.7683C135.707 54.6513 136.268 54.5761 136.88 54.6498C137.492 54.725 138.019 54.9324 138.361 55.1375C138.706 55.3426 138.876 55.5276 138.847 55.569Z" fill="#F57F62"/>
<path d="M124.281 54.5708C124.224 54.6726 123.438 54.2746 122.39 54.2024C121.343 54.1127 120.506 54.3851 120.465 54.2761C120.446 54.229 120.635 54.0937 120.987 53.9737C121.336 53.8533 121.852 53.7648 122.421 53.8077C122.989 53.8525 123.486 54.0193 123.812 54.1921C124.141 54.3646 124.307 54.5272 124.281 54.5708Z" fill="#F57F62"/>
<path d="M128.827 46.1094C128.802 46.0558 128.964 45.9434 129.161 45.7238C129.359 45.5077 129.586 45.1635 129.665 44.7408C129.742 44.3172 129.652 43.915 129.545 43.6434C129.439 43.3676 129.328 43.205 129.37 43.1636C129.403 43.1275 129.599 43.227 129.793 43.5123C129.985 43.7904 130.152 44.2762 130.055 44.8122C129.955 45.3478 129.626 45.7424 129.346 45.9339C129.063 46.1314 128.845 46.155 128.827 46.1094Z" fill="#F57F62"/>
<path d="M131.823 46.4045C131.782 46.4337 131.624 46.3069 131.458 46.0322C131.291 45.7599 131.135 45.331 131.109 44.8383C131.083 44.3457 131.193 43.9031 131.329 43.6144C131.466 43.3238 131.609 43.1814 131.653 43.2061C131.755 43.26 131.448 43.9396 131.505 44.8178C131.542 45.696 131.919 46.3399 131.823 46.4045Z" fill="#F57F62"/>
<path d="M131.242 69.2926C131.204 69.3397 130.973 69.1984 130.588 69.0305C130.203 68.8615 129.65 68.6856 129.017 68.6344C128.383 68.5872 127.809 68.6758 127.403 68.7836C126.996 68.89 126.747 68.9937 126.716 68.9413C126.69 68.9006 126.896 68.705 127.311 68.5196C127.722 68.3331 128.351 68.1873 129.048 68.2401C129.743 68.2951 130.343 68.5367 130.72 68.784C131.101 69.0313 131.274 69.2562 131.242 69.2926Z" fill="#F57F62"/>
<path d="M168.909 89.3408C168.909 89.3408 174.748 91.2597 179.029 100.045C182.34 106.842 189.259 121.399 189.259 121.399L168.761 128.888L166.681 120.343L168.909 89.3408Z" fill="#D17B4D"/>
<path d="M168.909 89.3408L148.479 84.3567C138.032 89.9143 132.485 90.0328 125.236 82.7112L102.982 87.8716L103.426 121.866L103.817 150.318L99.0073 187.492H170.35L168.262 128.097L168.909 89.3408Z" fill="#D17B4D"/>
<path d="M170.35 187.492C170.343 187.492 170.333 187.417 170.318 187.27C170.304 187.116 170.286 186.899 170.261 186.617C170.22 186.035 170.161 185.191 170.084 184.106C169.947 181.916 169.749 178.76 169.505 174.863C169.274 170.958 169.001 166.311 168.697 161.152C168.623 159.862 168.546 158.539 168.469 157.189C168.41 155.83 168.408 154.453 168.375 153.046C168.326 150.234 168.276 147.323 168.224 144.341C168.028 132.409 167.896 121.608 167.85 113.788C167.831 109.879 167.825 106.715 167.85 104.528C167.857 103.435 167.877 102.586 167.894 102.011C167.905 101.729 167.912 101.511 167.918 101.356C167.926 101.209 167.933 101.133 167.941 101.133C167.957 102.222 168.246 120.551 168.621 144.334C168.67 147.316 168.717 150.228 168.763 153.039C168.793 154.444 168.792 155.831 168.847 157.175C168.92 158.525 168.992 159.847 169.062 161.138C169.334 166.297 169.579 170.944 169.784 174.85C169.976 178.749 170.131 181.906 170.238 184.098C170.282 185.184 170.317 186.03 170.341 186.613C170.349 186.896 170.354 187.113 170.358 187.268C170.36 187.416 170.357 187.491 170.35 187.492Z" fill="#974A21"/>
<path d="M103.112 87.8386C103.112 87.8386 98.7006 88.9112 95.25 94.2429C91.7994 99.5745 83.3042 114.647 83.3042 114.647L103.766 125.811L103.112 87.8386Z" fill="#D17B4D"/>
<path d="M99.0075 187.492C99.0017 187.491 99.004 187.437 99.0143 187.33C99.0269 187.217 99.0444 187.061 99.0676 186.859C99.1228 186.438 99.2027 185.827 99.3059 185.04C99.5294 183.449 99.8533 181.144 100.258 178.26C101.102 172.479 102.284 164.374 103.645 155.048L103.643 155.079C103.578 151.733 103.508 148.166 103.437 144.494C103.233 132.522 103.049 121.686 102.915 113.833C102.868 109.916 102.83 106.743 102.803 104.541C102.799 103.45 102.795 102.6 102.792 102.015C102.795 101.731 102.798 101.513 102.8 101.358C102.803 101.209 102.809 101.134 102.816 101.133C102.823 101.133 102.831 101.209 102.84 101.357C102.848 101.512 102.859 101.73 102.872 102.013C102.892 102.598 102.921 103.448 102.957 104.539C103.014 106.74 103.095 109.911 103.196 113.828C103.359 121.68 103.584 132.515 103.833 144.486C103.901 148.159 103.966 151.725 104.027 155.073V155.089L104.025 155.104C102.609 164.422 101.379 172.52 100.501 178.296C100.048 181.173 99.6866 183.472 99.4365 185.06C99.3059 185.843 99.2046 186.45 99.1346 186.869C99.0977 187.069 99.0687 187.223 99.0482 187.335C99.0269 187.44 99.0132 187.492 99.0075 187.492Z" fill="#974A21"/>
<path d="M139.731 113.906C139.746 113.929 139.395 114.192 138.747 114.648C138.099 115.106 137.151 115.752 135.971 116.537C133.612 118.109 130.315 120.225 126.617 122.471C122.917 124.715 119.517 126.663 117.033 128.031C115.792 128.715 114.781 129.258 114.076 129.621C113.372 129.986 112.976 130.176 112.963 130.152C112.949 130.128 113.32 129.892 114.001 129.487C114.701 129.075 115.685 128.498 116.895 127.788C119.341 126.359 122.715 124.375 126.411 122.133C130.105 119.89 133.422 117.813 135.818 116.303C137.007 115.558 137.974 114.952 138.661 114.52C139.336 114.103 139.716 113.883 139.731 113.906Z" fill="#974A21"/>
<path d="M136.282 127.765C122.768 127.765 111.775 138.735 111.775 152.217C111.775 165.699 122.768 176.668 136.282 176.668C149.795 176.668 160.789 165.699 160.789 152.217C160.789 138.735 149.795 127.765 136.282 127.765ZM136.282 177.048C122.559 177.048 111.394 165.909 111.394 152.217C111.394 138.525 122.559 127.386 136.282 127.386C150.005 127.386 161.169 138.525 161.169 152.217C161.169 165.909 150.005 177.048 136.282 177.048Z" fill="#E13037"/>
<path d="M158.534 152.217C158.534 164.479 148.572 174.419 136.282 174.419C123.992 174.419 114.029 164.479 114.029 152.217C114.029 139.955 123.992 130.015 136.282 130.015C148.572 130.015 158.534 139.955 158.534 152.217Z" fill="#E13037"/>
<path d="M136.282 174.419C123.992 174.419 114.029 164.479 114.029 152.217C114.029 139.955 123.992 130.015 136.282 130.015C148.572 130.015 158.534 139.955 158.534 152.217C158.534 164.479 148.572 174.419 136.282 174.419ZM117.223 152.217C117.223 162.719 125.756 171.232 136.282 171.232C146.808 171.232 155.341 162.719 155.341 152.217C155.341 141.715 146.808 133.201 136.282 133.201C125.756 133.201 117.223 141.715 117.223 152.217Z" fill="#FF7D88"/>
<path d="M155.34 152.217C155.34 162.718 146.808 171.232 136.282 171.232C125.756 171.232 117.223 162.718 117.223 152.217C117.223 141.715 125.756 133.201 136.282 133.201C146.808 133.201 155.34 141.715 155.34 152.217Z" fill="#E13037"/>
<path d="M136.282 171.232C125.756 171.232 117.223 162.718 117.223 152.217C117.223 141.715 125.756 133.201 136.282 133.201C146.808 133.201 155.34 141.715 155.34 152.217C155.34 162.718 146.808 171.232 136.282 171.232Z" fill="#E4616B"/>
<path d="M151.714 152.217C151.714 160.721 144.804 167.614 136.282 167.614C127.759 167.614 120.85 160.721 120.85 152.217C120.85 143.713 127.759 136.82 136.282 136.82C144.804 136.82 151.714 143.713 151.714 152.217Z" fill="#E13037"/>
<path d="M151.714 152.217C151.714 160.721 144.804 167.614 136.282 167.614C127.759 167.614 120.85 160.721 120.85 152.217C120.85 143.713 127.759 136.82 136.282 136.82C144.804 136.82 151.714 143.713 151.714 152.217Z" fill="#E13037"/>
<path d="M141.145 122.819C141.145 122.819 142.543 113.159 142.371 112.739C142.199 112.319 146.751 122.06 146.754 122.468C146.756 122.875 155.543 109.224 155.543 109.224L154.443 124.642L162.304 122.676L157.551 127.851L165.267 128.942C165.267 128.942 157.777 132.984 157.315 133.254L161.256 130.115L155.024 128.964L158.273 125.014L153.06 126.84L153.206 116.294L146.732 124.309L143.189 118.572L141.145 122.819Z" fill="#E13037"/>
<path d="M102.702 167.895L94.5439 172.429L105.112 173.533L101.838 182.294L110.656 175.822C110.656 175.822 112.597 181.999 112.68 181.869C112.764 181.74 117.223 176.96 117.223 176.96L113.365 179.639L110.889 174.622L105.304 177.31L106.942 172.593L99.236 171.628L102.702 167.895Z" fill="#E13037"/>
<path d="M152.43 176.935L158.584 179.942L158.401 174.731L173.034 176.528L164.284 164.346L169.25 163.2L161.563 163.545L167.747 173.647L156.615 172.674L156.707 177.199L152.43 176.935Z" fill="#E13037"/>
<path d="M148.927 145C148.927 145 145.125 145.492 143.082 143.595C141.04 141.698 138.364 138.825 136.392 138.365C134.42 137.904 128.928 137.834 128.575 137.904C128.303 137.958 125.825 139.487 124.719 140.174C124.41 140.366 124.34 140.781 124.564 141.067C125.04 141.674 125.964 142.539 127.308 142.401C129.35 142.19 130.2 141.396 130.2 141.396L132.564 141.894C132.564 141.894 131.815 143.173 130.477 143.665C129.139 144.157 124.28 145.185 122.871 145.058C121.463 144.93 114.351 144.93 113.435 146.265C112.519 147.6 112.942 148.373 114.561 148.654C116.181 148.935 124.35 148.935 124.773 149.075C125.195 149.216 113.505 149.708 111.04 150.551C108.576 151.394 110.054 152.729 110.688 153.362C111.322 153.994 124.984 153.01 124.984 153.01C124.984 153.01 111.674 155.82 111.252 156.664C110.829 157.507 111.111 158.912 112.801 158.912C114.491 158.912 126.604 157.015 126.604 157.015C126.604 157.015 115.336 160.458 114.984 161.16C114.632 161.863 115.054 162.847 115.618 163.058C116.181 163.269 130.477 161.02 130.477 161.02C130.477 161.02 141.322 159.896 143.293 158.42C145.265 156.945 149.491 157.367 149.491 157.367L148.927 145Z" fill="#F9A78D"/>
<path d="M148.927 145C148.927 145 174 143.642 176.291 141.952L170.718 128.173L187.534 122.029C187.534 122.029 192.723 137.382 193.122 143.443C193.52 149.504 193.087 153.853 190.532 155.963C187.644 158.348 184.613 158.177 180.321 159C175.42 159.94 170.399 160.09 165.449 159.453L148.927 157.329V145.43" fill="#F9A78D"/>
<path d="M186.77 144.516C186.724 144.568 186.199 144.122 185.249 143.574C185.011 143.439 184.75 143.292 184.456 143.16C184.17 143.012 183.847 142.892 183.513 142.756C182.835 142.508 182.07 142.288 181.249 142.146C180.425 142.015 179.63 141.976 178.908 141.991C178.547 142.012 178.203 142.021 177.885 142.069C177.564 142.099 177.269 142.154 176.999 142.204C175.923 142.415 175.282 142.669 175.255 142.604C175.238 142.569 175.847 142.22 176.938 141.932C177.21 141.861 177.511 141.789 177.84 141.744C178.166 141.681 178.52 141.659 178.892 141.627C179.637 141.591 180.461 141.62 181.314 141.756C182.164 141.903 182.953 142.142 183.646 142.416C183.988 142.567 184.315 142.702 184.604 142.867C184.9 143.016 185.161 143.181 185.396 143.336C186.335 143.961 186.798 144.488 186.77 144.516Z" fill="#F57F62"/>
<path d="M134.64 152.495C135.384 151.42 134.37 149.999 133.099 150.312C132.144 150.547 130.724 150.83 129.137 150.92C126.544 151.067 123.416 150.571 122.732 150.76C121.291 151.16 116.088 153.875 113.686 154.514C111.285 155.153 109.098 154.653 109.098 154.653L103.112 165.241C103.112 165.241 128.416 178.796 129.698 179.196C130.978 179.595 135.381 180.953 135.782 179.915C136.182 178.876 135.782 177.917 135.782 177.917L127.136 173.285C127.136 173.285 138.984 176.559 140.265 176.48C141.546 176.4 142.827 175.202 141.466 174.004C140.105 172.806 129.777 169.371 129.777 169.371C129.777 169.371 142.885 171.413 144.348 171.208C145.979 170.979 146.109 168.812 144.348 168.173C142.587 167.534 130.018 164.978 130.258 164.339C130.498 163.7 142.504 163.653 143.362 162.83C144.205 162.021 144.428 160.505 141.626 159.866C138.824 159.227 128.496 160.026 126.896 158.987C125.294 157.949 125.615 155.473 125.615 155.473C125.615 155.473 130.095 155.9 131.779 155.153C133.22 154.514 133.906 153.556 134.64 152.495Z" fill="#F9A78D"/>
<path d="M91.1131 139.847L100.401 123.976L84.2767 115.178C84.2767 115.178 79.8321 125.052 76.9751 131.024C74.1183 136.997 71.5333 141.205 74.6624 146.498C77.7914 151.792 106.225 166.723 106.225 166.723L112.211 156.135L91.1131 139.847Z" fill="#F9A78D"/>
<path d="M134.565 180.491C132.952 180.491 130.475 179.717 129.626 179.371C128.388 178.869 104.058 165.958 103.022 165.408L103.201 165.073C103.455 165.207 128.549 178.524 129.769 179.02C131.574 179.752 135.198 180.577 135.615 179.823C135.941 179.232 135.962 178.707 135.675 178.262C135.555 178.076 135.37 177.912 135.141 177.789L125.545 172.648L127.187 173.102C131.215 174.216 139.038 176.292 140.207 176.292L140.253 176.29C140.97 176.246 141.641 175.831 141.814 175.326C141.945 174.943 141.782 174.535 141.34 174.146C140.023 172.987 129.82 169.585 129.717 169.551L129.802 169.182C129.802 169.182 143.731 170.941 144.371 171.02C145.005 171.098 145.346 170.674 145.451 170.251C145.61 169.61 145.312 168.742 144.28 168.351C143.632 168.105 141.372 167.575 138.98 167.013C132.909 165.589 130.333 164.922 130.096 164.48C130.06 164.413 130.054 164.34 130.079 164.272C130.232 163.867 131.752 163.72 136.902 163.424C139.495 163.275 142.176 163.121 142.971 162.889C143.413 162.76 143.7 162.345 143.686 161.855C143.666 161.21 143.104 160.398 141.583 160.051C140.373 159.775 137.742 159.772 134.956 159.768C131.244 159.764 127.737 159.759 126.792 159.146C125.11 158.056 125.412 155.554 125.426 155.448L125.449 155.266L125.633 155.283C125.678 155.288 130.083 155.698 131.702 154.979C133.127 154.347 133.786 153.396 134.483 152.387C134.834 151.88 134.71 151.341 134.478 151.005C134.239 150.659 133.763 150.343 133.144 150.497C132.215 150.725 130.767 151.018 129.148 151.109C127.734 151.189 126.175 151.081 124.921 150.994C123.926 150.925 123.066 150.865 122.783 150.943C122.18 151.111 120.891 151.698 119.398 152.379C117.394 153.293 115.122 154.329 113.735 154.698C111.315 155.341 109.147 154.859 109.055 154.838L109.14 154.468C109.162 154.472 111.313 154.949 113.637 154.33C114.993 153.97 117.249 152.941 119.24 152.034C120.747 151.346 122.049 150.753 122.681 150.577C123.028 150.482 123.833 150.537 124.948 150.615C126.19 150.701 127.736 150.809 129.127 150.73C130.716 150.64 132.139 150.353 133.053 150.128C133.717 149.964 134.4 150.224 134.791 150.789C135.18 151.351 135.182 152.046 134.797 152.604C134.1 153.61 133.379 154.651 131.856 155.327C130.327 156.004 126.678 155.752 125.789 155.678C125.756 156.251 125.761 158.025 126.999 158.828C127.85 159.38 131.625 159.384 134.957 159.388C137.765 159.392 140.417 159.395 141.668 159.681C143.4 160.076 144.043 161.057 144.066 161.844C144.086 162.509 143.689 163.075 143.078 163.254C142.241 163.497 139.659 163.646 136.924 163.803C134.511 163.942 131.274 164.128 130.543 164.377C131.384 164.841 135.969 165.916 139.068 166.643C141.577 167.232 143.744 167.74 144.416 167.995C145.608 168.448 146.025 169.519 145.82 170.343C145.641 171.061 145.037 171.484 144.324 171.396C143.83 171.336 135.43 170.276 131.614 169.794C134.644 170.839 140.556 172.95 141.592 173.861C142.345 174.524 142.28 175.141 142.174 175.449C141.95 176.102 141.152 176.614 140.277 176.669C139.272 176.741 132.014 174.808 128.707 173.911L135.321 177.455C135.607 177.609 135.84 177.816 135.995 178.056C136.248 178.449 136.445 179.107 135.949 180.006C135.754 180.358 135.234 180.491 134.565 180.491Z" fill="#F57F62"/>
<path d="M91.3121 139.792C91.3033 139.915 89.2519 139.722 86.7868 140.176C84.3168 140.609 82.4627 141.505 82.4114 141.392C82.3567 141.314 84.1775 140.233 86.7165 139.787C89.251 139.321 91.3357 139.699 91.3121 139.792Z" fill="#F57F62"/>
<path d="M150.163 55.2527C150.383 54.2627 151.386 53.6293 152.365 53.902C153.553 54.2326 154.773 55.1576 154.245 57.6338C153.308 62.0263 149.082 60.1831 149.101 60.0554C149.114 59.9689 149.755 57.0872 150.163 55.2527Z" fill="#F9A78D"/>
<path d="M150.411 58.606C150.434 58.5961 150.477 58.6759 150.594 58.7627C150.708 58.847 150.917 58.9332 151.164 58.8958C151.666 58.8244 152.214 58.1707 152.405 57.3832C152.501 56.9861 152.499 56.5876 152.424 56.2422C152.358 55.8924 152.197 55.624 151.972 55.5328C151.751 55.4294 151.555 55.5342 151.475 55.6464C151.39 55.7568 151.399 55.8502 151.374 55.8531C151.359 55.8613 151.295 55.7593 151.369 55.5854C151.406 55.5021 151.48 55.4095 151.602 55.3469C151.725 55.2838 151.89 55.2728 152.049 55.3251C152.384 55.4205 152.623 55.797 152.705 56.176C152.806 56.5605 152.818 57.0103 152.71 57.4565C152.493 58.336 151.862 59.0677 151.187 59.1162C150.859 59.1313 150.621 58.9833 150.51 58.8513C150.397 58.7138 150.394 58.6107 150.411 58.606Z" fill="#F57F62"/>
</svg>
