<svg width="122" height="131" viewBox="0 0 122 131" fill="none" xmlns="http://www.w3.org/2000/svg">
<path d="M87.2268 84.6749C81.8153 83.0876 76.32 86.6332 72.0405 90.291C67.7609 93.9487 63.1609 98.1586 57.5212 98.1787C51.8181 98.1988 47.1574 93.9343 42.8259 90.2421C38.4915 86.5498 32.8923 82.9841 27.449 84.6836C25.4247 85.3162 23.6719 86.6303 21.6679 87.3205C17.5298 88.7439 12.8287 87.2658 9.36348 84.6002C8.50584 83.9417 7.71173 83.2199 6.96094 82.4492C8.51451 89.434 10.4233 96.1686 14.1599 102.596C17.2237 107.864 21.0788 112.652 25.6124 116.651C37.5963 127.231 54.2668 132.122 69.791 129.134C85.3151 126.147 99.2914 115.179 105.748 100.356C106.008 99.7603 106.254 99.1621 106.49 98.5583C102.78 96.8818 99.3492 94.6043 96.4124 91.7863C93.5854 89.0774 90.9894 85.7792 87.2268 84.6749Z" fill="#ABFEE6"/>
<path d="M121.62 51.2351C122.85 43.701 120.623 34.7752 113.99 31.3331C107.779 28.1096 99.8032 30.6401 93.6755 27.2527C87.4728 23.825 85.5005 15.8078 81.3278 9.97615C76.003 2.53413 66.3524 -1.33929 57.5305 0.420568C48.7115 2.1833 41.1718 9.49305 38.9454 18.4419C37.9318 22.5166 37.9492 26.7811 37.389 30.9478C36.8259 35.1145 35.5495 39.4164 32.5406 42.2632C27.3861 47.1402 19.1908 46.151 12.913 49.3516C3.96701 53.9122 3.19022 64.5462 5.06432 73.4289C5.70828 76.477 6.30314 79.4848 6.96153 82.4496C7.71232 83.2174 8.50643 83.942 9.36407 84.6005C12.8293 87.2662 17.5275 88.7442 21.6685 87.3208C23.6754 86.6307 25.4253 85.3165 27.4496 84.6839C32.8929 82.9844 38.4921 86.5502 42.8265 90.2424C47.1609 93.9347 51.8187 98.2021 57.5218 98.179C63.1615 98.1589 67.7615 93.9491 72.0411 90.2913C76.3206 86.6336 81.8159 83.088 87.2274 84.6753C90.99 85.7795 93.586 89.0778 96.4102 91.7895C99.3469 94.6076 102.777 96.885 106.488 98.5615C109.754 90.2367 111.013 81.1728 114.019 72.7215C116.569 65.5469 120.389 58.7662 121.62 51.2351Z" fill="#DCFBF3"/>
<path d="M32.0841 24.2424C31.778 27.6672 30.0887 30.9511 27.4754 33.1969C24.4866 35.7677 20.5449 36.8921 16.739 37.9445C14.6743 38.5168 12.6096 39.089 10.5449 39.6613C9.38984 39.9805 8.20878 40.3054 7.01328 40.2163C4.93416 40.0639 3.11203 38.6606 1.93386 36.9438C-0.537988 33.3436 -0.506223 28.4263 1.2697 24.4408C3.04562 20.4552 6.34623 17.3122 9.99048 14.8996C12.8204 13.0276 15.9737 11.5064 19.3523 11.1383C22.6212 10.7817 26.6755 11.6444 28.9538 14.1979C31.2726 16.7975 32.3873 20.8348 32.0841 24.2424Z" fill="#DCFBF3"/>
<mask id="mask0_5040_8181" style="mask-type:alpha" maskUnits="userSpaceOnUse" x="4" y="0" width="118" height="130">
<path d="M121.418 51.2351C122.649 43.701 120.422 34.7752 113.789 31.3331C110.728 29.7442 107.237 29.5533 103.751 29.3626C100.164 29.1664 96.5817 28.9704 93.4744 27.2527C89.3508 24.974 87.0969 20.6669 84.8233 16.3221C83.6768 14.1313 82.5254 11.931 81.1267 9.97615C75.8018 2.53412 66.1512 -1.33929 57.3293 0.420568C48.5104 2.1833 40.9706 9.49305 38.7442 18.4419C38.0943 21.0546 37.8683 23.7454 37.642 26.4385C37.5154 27.9453 37.3888 29.4529 37.1878 30.9478C36.6247 35.1145 35.3483 39.4164 32.3394 42.2632C29.3182 45.1218 25.2523 45.965 21.1402 46.8178C18.2366 47.42 15.31 48.027 12.7119 49.3516C3.76584 53.9122 2.98905 64.5462 4.86315 73.4289C5.09511 74.5268 5.32069 75.6195 5.54517 76.7069L5.54889 76.7249C5.94635 78.6502 6.34034 80.5587 6.76027 82.4496C8.31384 89.4344 10.2226 96.169 13.9592 102.596C17.0231 107.864 20.8781 112.652 25.4118 116.652C37.3956 127.231 54.0662 132.122 69.5903 129.135C85.1144 126.147 99.0908 115.18 105.548 100.356C105.808 99.7606 106.053 99.1625 106.29 98.5586L106.288 98.558C108.037 94.1 109.21 89.4302 110.385 84.7561C111.403 80.7027 112.422 76.646 113.818 72.7215C114.661 70.3483 115.644 68.0182 116.626 65.6898C118.612 60.979 120.595 56.2751 121.418 51.2351Z" fill="#D9D9D9"/>
</mask>
<g mask="url(#mask0_5040_8181)">
<path d="M69.47 46.7252C67.3004 47.3707 66.2472 46.6401 65.8884 46.0403L66.6466 47.659C67.159 50.8098 69.4135 56.5015 79.5587 57.1113C83.2479 57.7211 85.9689 64.5511 87.4446 74.7962C88.7027 83.5308 90.7986 85.7937 92.4659 87.5938C92.7542 87.9051 93.0297 88.2025 93.2858 88.5172L114.191 121.753V132.729C111.117 134.152 105.399 134.62 105.89 123.887C104.661 122.464 102.201 119.13 102.201 117.179C102.201 114.74 96.3601 105.592 94.2081 104.373C92.0561 103.153 82.5257 94.0056 81.296 91.8712C80.8258 91.0551 80.0091 90.3458 79.1615 89.7832C78.9396 92.195 78.6346 94.9106 78.3534 97.4132L78.3531 97.416L78.353 97.4167C77.956 100.95 77.6068 104.059 77.6068 105.287C77.6068 106.772 78.9 111.271 80.1893 115.756C81.0177 118.638 81.8445 121.514 82.3256 123.582C82.3256 123.582 81.1147 182.43 80.0695 187.613C79.6697 189.596 79.3509 190.642 79.1095 191.433C78.7199 192.711 78.5323 193.327 78.5323 196.151C78.5323 198.931 77.9004 203.358 77.2543 204.993C81.1635 205.705 89.4737 207.128 91.4412 207.128C93.4088 207.128 90.3967 211.483 88.3669 213.226C85.2686 215.886 81.6034 212.921 77.9143 214.141C73.3028 215.665 68.3839 213.226 68.3839 211.092C68.3839 208.957 68.6945 197.066 69.3094 196.151C69.8013 195.419 69.3062 186.394 68.3839 181.82C67.974 170.233 67.2156 146.816 67.4616 145.841C67.769 144.621 65.617 137.913 63.7724 135.169C63.7206 135.092 63.6699 135.009 63.6203 134.921C63.5707 135.009 63.52 135.092 63.4682 135.169C61.6236 137.913 59.4716 144.621 59.779 145.841C60.0249 146.816 59.2666 170.233 58.8567 181.82C57.9344 186.394 57.4393 195.419 57.9312 196.151C58.5461 197.066 58.8567 208.957 58.8567 211.092C58.8567 213.226 53.9378 215.665 49.3263 214.141C45.6371 212.921 41.972 215.886 38.8737 213.226C36.8439 211.483 33.8318 207.128 35.7993 207.128C37.7669 207.128 46.0771 205.705 49.9862 204.993C49.3401 203.358 48.7083 198.931 48.7083 196.151C48.7083 193.327 48.5207 192.711 48.1311 191.434C47.8898 190.642 47.5709 189.596 47.1711 187.613C46.1258 182.43 45.1264 123.277 45.1264 123.277C44.6797 116.188 47.0977 107.811 48.8071 101.888C49.4503 99.6598 49.9933 97.7787 50.2454 96.4449C50.9177 92.889 45.8567 81.3016 42.5488 74.5035L41.6373 72.9667C37.3333 74.8978 28.5408 79.3088 27.8029 81.5042C26.8806 84.2484 19.8097 94.9203 17.9651 95.8351C17.0839 96.272 15.4663 98.2168 13.8259 100.189C12.7193 101.519 11.6023 102.862 10.6941 103.763L9.35707 111.69C9.35707 111.69 13.7902 116.65 11.5091 117.484C9.66449 119.11 5.60638 121.996 4.13072 120.533C2.65506 119.069 2.28615 116.467 2.28615 115.349C1.65992 115.862 1.74763 116.795 1.82614 117.631C1.9025 118.443 1.97016 119.163 1.36385 119.313C0.134142 119.618 -1.9564 116.874 -0.480734 113.215C0.377631 111.087 3.49831 105.348 6.62457 99.5981C8.87287 95.4634 11.124 91.3233 12.5387 88.5172C18.4824 82.4189 30.2009 68.9419 33.6441 63.8193C36.0584 60.2277 41.8747 57.3262 46.3561 55.5867C48.1747 54.8909 49.6268 54.3826 50.8603 54.0622L53.8637 47.8066C53.8162 47.357 53.791 46.7993 53.791 46.1154C48.1342 39.5293 47.3349 31.9878 47.6423 29.0403C47.8473 25.5847 49.7329 18.3074 55.6355 16.8439C61.5382 15.3803 74.4453 16.2149 74.3889 22.3323C74.3324 28.4496 71.9294 45.9934 69.47 46.7252Z" fill="#FFC596"/>
<path fill-rule="evenodd" clip-rule="evenodd" d="M9.3573 111.69C9.3573 111.69 13.7904 116.65 11.5093 117.484C9.66472 119.11 5.60661 121.996 4.13095 120.533C3.67697 120.083 3.32774 119.525 3.06178 118.935C2.8581 118.484 2.70326 118.014 2.58759 117.56C2.36334 116.68 2.28638 115.86 2.28638 115.349C1.66014 115.862 1.74786 116.795 1.82637 117.631C1.87825 118.183 1.92611 118.692 1.76133 119.009C1.68357 119.158 1.55846 119.265 1.36408 119.313C0.134369 119.618 -1.95618 116.874 -0.480506 113.215C0.377858 111.087 3.49854 105.347 6.6248 99.598C8.87309 95.4633 11.1243 91.3232 12.5389 88.5171C18.4826 82.4189 30.2011 68.9418 33.6444 63.8193C36.0586 60.2276 41.8749 57.3261 46.3564 55.5866C48.1749 54.8909 49.627 54.3825 50.8605 54.0621L53.864 47.8065C53.8165 47.3569 53.7912 46.7992 53.7912 46.1153C48.1345 39.5292 47.3351 31.9877 47.6426 29.0403C47.8475 25.5846 49.7331 18.3074 55.6358 16.8438C61.5385 15.3802 74.4456 16.2148 74.3891 22.3322C74.3326 28.4495 71.9296 45.9933 69.4702 46.7251C68.7581 46.937 68.1662 47.0006 67.6798 46.9693C66.6841 46.9051 66.1297 46.4431 65.8887 46.0402L66.6469 47.6589C66.6668 47.7814 66.6893 47.9077 66.7149 48.0374C67.3464 51.2445 69.8081 56.5251 79.559 57.1112C83.2481 57.721 85.9692 64.551 87.4448 74.7961C88.7029 83.5307 90.7989 85.7936 92.4661 87.5937C92.7544 87.905 93.0299 88.2024 93.286 88.5171L114.191 121.752V132.729C111.117 134.152 105.399 134.62 105.891 123.887C104.661 122.464 102.202 119.13 102.202 117.179C102.202 114.739 96.3603 105.592 94.2083 104.372C92.0563 103.153 82.5259 94.0055 81.2962 91.8711C81.0489 91.4418 80.7056 91.0421 80.3125 90.6777C79.9583 90.3494 79.5635 90.0498 79.1618 89.7832C79.1195 90.2425 79.0742 90.7129 79.0267 91.1908C78.8245 93.2217 78.5812 95.3872 78.3537 97.4131L78.3533 97.4159L78.3533 97.4166C77.9563 100.95 77.6071 104.059 77.6071 105.287C77.6071 106.772 78.9002 111.271 80.1895 115.756C81.0179 118.638 81.8448 121.514 82.3258 123.582C82.3258 123.582 81.115 182.43 80.0697 187.613C79.6699 189.596 79.3511 190.642 79.1098 191.433C78.7202 192.711 78.5326 193.327 78.5326 196.151C78.5326 198.413 78.1141 201.766 77.6101 203.818C77.4947 204.287 77.3749 204.689 77.2546 204.993C77.6272 205.061 78.0397 205.135 78.483 205.214C82.6902 205.963 89.6614 207.128 91.4415 207.128C93.409 207.128 90.3969 211.483 88.3671 213.226C86.6034 214.74 84.656 214.432 82.625 214.11C81.0882 213.866 79.5036 213.615 77.9145 214.141C73.303 215.665 68.3841 213.226 68.3841 211.092C68.3841 208.957 68.6948 197.066 69.3096 196.151C69.8015 195.419 69.3064 186.394 68.3841 181.82C67.9742 170.233 67.2159 146.816 67.4618 145.84C67.7387 144.742 66.0211 139.193 64.3296 136.096C64.2181 135.892 64.1067 135.698 63.996 135.517C63.9212 135.395 63.8466 135.279 63.7726 135.169C63.7208 135.091 63.6701 135.009 63.6205 134.921C63.5709 135.009 63.5202 135.091 63.4684 135.169C63.3944 135.279 63.3199 135.395 63.2451 135.517C63.1344 135.698 63.0229 135.892 62.9114 136.096C61.2199 139.193 59.5024 144.742 59.7792 145.84C60.0252 146.816 59.2668 170.233 58.8569 181.82C57.9346 186.394 57.4395 195.419 57.9314 196.151C58.5463 197.066 58.8569 208.957 58.8569 211.092C58.8569 213.226 53.938 215.665 49.3265 214.141C47.7374 213.615 46.1528 213.866 44.616 214.11C42.585 214.432 40.6376 214.74 38.8739 213.226C36.8441 211.483 33.832 207.128 35.7996 207.128C37.5796 207.128 44.5508 205.963 48.7581 205.214C49.2013 205.135 49.6139 205.061 49.9865 204.993C49.8661 204.689 49.7463 204.287 49.631 203.818C49.1269 201.766 48.7085 198.413 48.7085 196.151C48.7085 193.327 48.5209 192.711 48.1313 191.433C47.89 190.642 47.5711 189.596 47.1713 187.613C46.1261 182.43 45.1267 123.277 45.1267 123.277C44.6799 116.188 47.0979 107.81 48.8073 101.888C49.4505 99.6597 49.9935 97.7786 50.2457 96.4448C50.9179 92.889 45.8569 81.3016 42.5491 74.5034L41.6376 72.9666C37.3335 74.8977 28.541 79.3088 27.8032 81.5041C26.8809 84.2483 19.8099 94.9202 17.9654 95.835C17.0842 96.2719 15.4665 98.2167 13.8261 100.189C12.7195 101.519 11.6025 102.862 10.6943 103.763L9.3573 111.69ZM11.8436 104.341C12.7341 103.418 13.7644 102.18 14.7428 101.003L14.7747 100.965C15.6003 99.9723 16.3951 99.0172 17.0915 98.2553C17.4391 97.875 17.7472 97.5595 18.0097 97.3202C18.2885 97.0661 18.4527 96.9569 18.5153 96.9259C18.9538 96.7084 19.393 96.3008 19.7678 95.9129C20.1763 95.4901 20.6339 94.955 21.1147 94.3534C22.0783 93.1477 23.1837 91.6138 24.2514 90.035C25.3203 88.4545 26.3626 86.8124 27.1993 85.3856C28.0162 83.9927 28.6939 82.7106 28.9698 81.8898C28.9705 81.8879 28.9869 81.8444 29.0472 81.7572C29.1077 81.6696 29.1979 81.5587 29.3257 81.4249C29.5833 81.1552 29.948 80.8395 30.4163 80.4855C31.3515 79.7785 32.6032 78.9907 33.9976 78.1927C36.3726 76.8336 39.0771 75.4929 41.1415 74.5357L41.4634 75.0785C43.1048 78.4544 45.169 82.9935 46.7394 87.1206C47.5287 89.1952 48.184 91.1416 48.5996 92.7714C49.0306 94.4614 49.1506 95.6192 49.037 96.22C48.7981 97.4839 48.2757 99.2985 47.6251 101.552L47.5976 101.648C45.9059 107.508 43.4456 116.031 43.8976 123.325L43.9086 123.964C43.9162 124.398 43.9274 125.037 43.9421 125.851C43.9715 127.479 44.0146 129.81 44.0697 132.624C44.1797 138.252 44.3373 145.81 44.5277 153.531C44.718 161.251 44.941 169.138 45.182 175.42C45.3025 178.561 45.4277 181.307 45.5558 183.433C45.6816 185.521 45.8147 187.105 45.9655 187.853C46.3758 189.887 46.7064 190.974 46.9542 191.786C47.1495 192.427 47.2676 192.82 47.3485 193.384C47.4318 193.965 47.4788 194.756 47.4788 196.151C47.4788 197.616 47.6438 199.478 47.8878 201.174C48.0336 202.187 48.2144 203.189 48.419 204.035C46.5607 204.366 44.1892 204.772 41.9713 205.123C39.1146 205.575 36.6619 205.908 35.7996 205.908C35.3359 205.908 34.7516 206.042 34.3352 206.542C33.9428 207.013 33.9072 207.567 33.9391 207.939C34.0011 208.66 34.3797 209.458 34.7728 210.133C35.5966 211.548 36.9425 213.181 38.0691 214.148C40.0555 215.853 42.2398 215.694 44.0568 215.43C44.3293 215.391 44.5924 215.35 44.8476 215.31C46.3988 215.069 47.6553 214.874 48.9377 215.298C51.5475 216.161 54.2245 215.901 56.2608 215.127C57.2792 214.74 58.1888 214.206 58.8656 213.565C59.5229 212.942 60.0867 212.092 60.0867 211.092C60.0867 210 60.0082 206.474 59.8532 203.108C59.7757 201.425 59.6782 199.765 59.5602 198.462C59.5014 197.813 59.4359 197.233 59.362 196.775C59.3252 196.547 59.2832 196.33 59.2335 196.14C59.2025 196.021 59.1476 195.826 59.0464 195.63C59.0376 195.581 59.0268 195.504 59.0162 195.395C58.9894 195.121 58.9725 194.731 58.9685 194.236C58.9605 193.253 59.0035 191.943 59.0914 190.5C59.2676 187.603 59.6177 184.266 60.0628 182.059L60.0824 181.962L60.0859 181.863C60.2909 176.068 60.5831 167.314 60.7933 159.885C60.8983 156.172 60.983 152.786 61.0261 150.265C61.0476 149.006 61.0588 147.956 61.0567 147.188C61.0557 146.805 61.0514 146.483 61.0429 146.236C61.0368 146.06 61.0269 145.781 60.9783 145.57C60.9787 145.571 60.979 145.572 60.9792 145.572C60.9811 145.572 60.9735 145.487 60.9965 145.274C61.0231 145.029 61.0794 144.703 61.1675 144.307C61.3431 143.516 61.6277 142.52 61.9834 141.462C62.4607 140.042 63.0418 138.581 63.6205 137.398C64.1993 138.581 64.7803 140.042 65.2576 141.462C65.6133 142.52 65.8979 143.516 66.0736 144.307C66.1617 144.703 66.218 145.029 66.2445 145.274C66.2675 145.487 66.2599 145.572 66.2619 145.572C66.2621 145.572 66.2623 145.571 66.2627 145.57C66.2142 145.781 66.2042 146.06 66.1981 146.236C66.1896 146.483 66.1853 146.805 66.1843 147.188C66.1823 147.956 66.1935 149.006 66.215 150.265C66.258 152.786 66.3427 156.172 66.4478 159.885C66.658 167.314 66.9501 176.068 67.1551 181.863L67.1586 181.962L67.1783 182.059C67.6233 184.266 67.9735 187.603 68.1497 190.5C68.2375 191.943 68.2806 193.253 68.2725 194.236C68.2685 194.731 68.2516 195.121 68.2249 195.395C68.2143 195.504 68.2034 195.581 68.1946 195.63C68.0934 195.826 68.0385 196.021 68.0075 196.14C67.9578 196.33 67.9158 196.547 67.8791 196.775C67.8051 197.233 67.7396 197.813 67.6808 198.462C67.5628 199.765 67.4654 201.425 67.3878 203.108C67.2328 206.474 67.1544 210 67.1544 211.092C67.1544 212.092 67.7181 212.942 68.3755 213.565C69.0523 214.206 69.9618 214.74 70.9802 215.127C73.0166 215.901 75.6935 216.161 78.3034 215.298C79.5857 214.874 80.8423 215.069 82.3935 215.31C82.6486 215.35 82.9117 215.391 83.1842 215.43C85.0012 215.694 87.1856 215.853 89.172 214.148C90.2985 213.181 91.6444 211.548 92.4682 210.133C92.8613 209.458 93.2399 208.66 93.3019 207.939C93.3339 207.567 93.2982 207.013 92.9058 206.542C92.4895 206.042 91.9052 205.908 91.4415 205.908C90.5792 205.908 88.1264 205.575 85.2697 205.123C83.0518 204.772 80.6804 204.366 78.8221 204.035C79.0267 203.189 79.2075 202.187 79.3532 201.174C79.5973 199.478 79.7623 197.616 79.7623 196.151C79.7623 194.756 79.8093 193.965 79.8925 193.384C79.9735 192.82 80.0916 192.427 80.2869 191.786C80.5347 190.973 80.8653 189.887 81.2756 187.853C81.4259 187.107 81.5625 185.53 81.6941 183.45C81.828 181.332 81.9615 178.598 82.0919 175.472C82.3527 169.218 82.6023 161.37 82.819 153.688C83.0358 146.005 83.2198 138.485 83.3497 132.886C83.4146 130.086 83.4661 127.767 83.5012 126.147C83.5188 125.337 83.5323 124.702 83.5414 124.27L83.5553 123.61L83.5553 123.607C83.5553 123.607 83.5553 123.607 82.3258 123.582L83.5553 123.607L83.5584 123.455L83.5241 123.308C83.036 121.21 82.2027 118.311 81.3805 115.451L81.3721 115.422C80.7261 113.174 80.0855 110.945 79.6059 109.093C79.3661 108.167 79.1702 107.349 79.0351 106.679C78.8952 105.986 78.8368 105.528 78.8368 105.287C78.8368 104.147 79.1726 101.138 79.5754 97.5517L79.5757 97.5492L79.5758 97.5481L79.576 97.5466L79.5761 97.5458L79.5764 97.5426C79.7656 95.8584 79.9665 94.0707 80.1456 92.3417C80.175 92.3865 80.2027 92.4314 80.2285 92.4762C80.6186 93.1533 81.5487 94.2279 82.6281 95.3826C83.7465 96.579 85.136 97.9761 86.549 99.3391C87.9623 100.702 89.4088 102.041 90.6427 103.12C91.839 104.165 92.932 105.054 93.5982 105.431C93.7167 105.499 93.9479 105.678 94.2896 106.025C94.6159 106.356 94.9918 106.788 95.4003 107.301C96.2165 108.326 97.1226 109.621 97.9691 110.965C98.8161 112.309 99.5881 113.676 100.143 114.841C100.421 115.425 100.637 115.94 100.78 116.365C100.932 116.814 100.972 117.074 100.972 117.179C100.972 117.894 101.19 118.637 101.466 119.31C101.748 119.998 102.129 120.702 102.534 121.364C103.222 122.487 104.021 123.553 104.644 124.309C104.488 129.509 105.784 132.546 108.069 133.911C110.356 135.278 113.054 134.602 114.711 133.834L115.421 133.506V121.403L94.2898 87.8087L94.2429 87.751C93.9619 87.4058 93.6639 87.0841 93.3838 86.7816L93.3717 86.7686C92.5603 85.8925 91.7235 84.9874 90.9155 83.2777C90.0946 81.5405 89.2808 78.9185 88.6622 74.6236C87.9174 69.4524 86.8487 65.0644 85.462 61.8595C84.7688 60.2572 83.9737 58.8977 83.0577 57.8792C82.1388 56.8574 81.0425 56.12 79.7611 55.9082L79.6976 55.8977L79.6334 55.8938C74.7961 55.603 72.0038 54.1167 70.3631 52.4784C68.9756 51.093 68.3186 49.5062 68.0063 48.1929C68.5535 48.184 69.1602 48.0907 69.8236 47.8933C70.2794 47.7577 70.616 47.468 70.8487 47.2086C71.0892 46.9406 71.294 46.6207 71.4711 46.2905C71.8254 45.6297 72.1482 44.7764 72.4437 43.824C73.0381 41.9087 73.5813 39.3978 74.0425 36.7563C74.964 31.4781 75.5897 25.492 75.6188 22.3433C75.6375 20.3112 74.5514 18.7736 73.0269 17.6951C71.5342 16.6392 69.5522 15.9614 67.4899 15.5495C63.3655 14.7258 58.4778 14.8819 55.3375 15.6605C51.9115 16.51 49.7294 19.0341 48.404 21.6468C47.0863 24.2444 46.5306 27.0814 46.4166 28.942C46.0931 32.1326 46.9365 39.7884 52.5652 46.563C52.5716 46.9355 52.5862 47.2748 52.6094 47.5827L49.9917 53.0349C48.8197 53.3716 47.4859 53.8473 45.9138 54.4487L45.9082 54.4509C43.6262 55.3366 40.983 56.526 38.5879 57.9653C36.2148 59.3913 33.9764 61.1265 32.6212 63.1427C29.2405 68.1721 17.5838 81.5862 11.6548 87.6694L11.5235 87.8041L11.439 87.9716C10.035 90.7568 7.79481 94.8769 5.54244 99.0191L5.46125 99.1684C2.38778 104.821 -0.737694 110.569 -1.62228 112.762C-2.47785 114.883 -2.32862 116.825 -1.69774 118.243C-1.38679 118.942 -0.944363 119.543 -0.413731 119.96C0.0924933 120.357 0.841451 120.7 1.66233 120.496C1.90469 120.436 2.13098 120.333 2.32938 120.186C2.58483 120.617 2.89202 121.029 3.2614 121.395C4.01671 122.144 5.01295 122.228 5.82635 122.109C6.63989 121.99 7.48415 121.646 8.25194 121.248C9.72385 120.484 11.2051 119.365 12.1783 118.524C12.6227 118.307 12.9831 117.962 13.1944 117.493C13.4245 116.983 13.4185 116.456 13.3494 116.032C13.2149 115.206 12.768 114.341 12.3398 113.641C11.8923 112.911 11.3761 112.222 10.98 111.723C10.8644 111.578 10.7576 111.447 10.6642 111.334L11.8436 104.341ZM59.0604 195.692C59.0607 195.695 59.0588 195.689 59.0554 195.675C59.0586 195.684 59.0601 195.691 59.0604 195.692Z" fill="#192E35"/>
<path d="M63.7859 45.1531C56.4076 43.6895 53.5295 45.2198 53.7344 46.1346C52.7096 45.2198 50.5987 42.5366 47.8933 35.4627C44.6282 26.9251 49.9515 17.711 56.715 16.1865C62.1258 14.9668 68.7987 16.3549 72.7953 18.3876L74.9472 22.3515L70.5494 27.7731V35.091C70.3444 34.0746 69.4426 31.798 67.4751 30.8222C65.5075 29.8465 67.4751 36.1074 68.7048 39.3598L63.7859 45.1531Z" fill="#192E35"/>
<path d="M51.9144 34.3297C53.6437 37.3826 59.908 35.9217 61.1624 32.5957C62.1962 29.8545 60.832 25.9746 57.8124 26.0001C56.3026 26.0129 55.4684 26.7116 54.3275 27.6855C52.1763 29.5218 50.5706 31.9575 51.9144 34.3297Z" fill="#F64B4B"/>
<path fill-rule="evenodd" clip-rule="evenodd" d="M38.9965 69.0748C39.2962 68.9163 39.6686 69.0287 39.8284 69.3259L42.2879 73.8996C42.4477 74.1967 42.3343 74.5661 42.0347 74.7246C41.7351 74.8831 41.3626 74.7707 41.2028 74.4735L38.7434 69.8998C38.5836 69.6027 38.6969 69.2333 38.9965 69.0748Z" fill="#192E35"/>
<path fill-rule="evenodd" clip-rule="evenodd" d="M75.4728 71.7536C75.8087 71.7046 76.1211 71.935 76.1705 72.2682L77.7142 82.6794V82.724C77.7142 85.9441 78.557 87.3096 79.5626 88.9389C79.94 89.5504 80.3403 90.1991 80.7277 90.9969C80.875 91.3004 80.7464 91.6648 80.4404 91.8109C80.1345 91.957 79.767 91.8295 79.6197 91.526C79.3051 90.8779 78.9493 90.3018 78.5932 89.7252C77.5445 88.0271 76.4933 86.3251 76.4846 82.7689L74.9539 72.4457C74.9045 72.1125 75.1368 71.8026 75.4728 71.7536Z" fill="#192E35"/>
<path fill-rule="evenodd" clip-rule="evenodd" d="M82.7347 126.335C83.0697 126.39 83.2959 126.704 83.2401 127.036C83.2314 127.088 83.2223 127.143 83.2128 127.2C83.0577 128.133 82.7947 129.716 82.105 131.302C81.3699 132.992 80.1292 134.735 77.9724 135.722C75.9025 136.67 73.5759 137.22 71.4977 137.378C69.4504 137.533 67.5232 137.316 66.3308 136.606C66.0397 136.433 65.9452 136.058 66.1199 135.77C66.2947 135.481 66.6723 135.387 66.9635 135.561C67.8207 136.071 69.429 136.311 71.4039 136.161C73.3479 136.014 75.5303 135.497 77.457 134.615C79.2509 133.794 80.316 132.336 80.9758 130.819C81.6039 129.375 81.8458 127.923 82.0017 126.988C82.0104 126.935 82.0189 126.885 82.0271 126.836C82.0829 126.504 82.3997 126.279 82.7347 126.335Z" fill="#192E35"/>
<path fill-rule="evenodd" clip-rule="evenodd" d="M65.5197 126.335C65.8545 126.391 66.0802 126.705 66.0237 127.038C65.9934 127.215 65.9716 127.447 65.9454 127.725C65.8358 128.888 65.6509 130.85 64.4605 132.964L63.2506 138.35C63.1768 138.679 62.8483 138.886 62.5168 138.813C62.1853 138.74 61.9765 138.414 62.0503 138.085L62.6159 135.567C61.8921 136.363 61.0675 137.031 60.1386 137.451C55.9032 139.366 52.202 138.184 50.0398 136.913C49.7476 136.741 49.6512 136.367 49.8243 136.077C49.9974 135.788 50.3746 135.692 50.6667 135.864C52.6035 137.002 55.8708 138.041 59.6286 136.342C61.0865 135.682 62.3413 134.19 63.346 132.441C64.4282 130.557 64.5898 128.907 64.7069 127.71C64.739 127.383 64.7677 127.089 64.8111 126.835C64.8676 126.503 65.1848 126.279 65.5197 126.335Z" fill="#192E35"/>
<path d="M64.5286 112.915C60.7078 113.085 59.1667 119.746 61.8382 122.545C64.04 124.851 68.4996 125.428 69.9092 122.545C70.614 121.103 70.3239 119.973 69.9092 118.418C69.1273 115.486 67.4974 112.783 64.5286 112.915Z" fill="#F64B4B"/>
<path d="M53.5105 131.908C53.4159 134.094 57.1979 135.309 58.9546 133.928C60.4023 132.789 60.9617 130.276 59.3623 129.327C58.5626 128.853 57.8929 128.961 56.9709 129.119C55.2325 129.416 53.584 130.209 53.5105 131.908Z" fill="#F64B4B"/>
<path d="M68.698 131.908C68.6034 134.094 72.3854 135.309 74.1421 133.928C75.5899 132.789 76.1492 130.276 74.5498 129.327C73.7501 128.853 73.0804 128.961 72.1584 129.119C70.42 129.416 68.7715 130.209 68.698 131.908Z" fill="#F64B4B"/>
<path d="M53.4272 66.5635C47.2786 69.9785 50.8653 73.2715 53.4272 74.4912C53.9396 74.0846 54.9643 72.9056 54.9643 71.4421C54.9643 69.9785 53.9396 67.5798 53.4272 66.5635Z" fill="#F64B4B"/>
<path d="M69.106 63.8194C74.6398 61.685 70.4382 74.7962 67.8763 76.0158C67.3639 75.6093 66.6466 72.9057 66.6466 71.4422C66.6466 69.9786 68.5936 64.8357 69.106 63.8194Z" fill="#F64B4B"/>
<path fill-rule="evenodd" clip-rule="evenodd" d="M50.3491 60.5491C50.6418 60.3784 51.0187 60.4753 51.1908 60.7656C52.2183 62.4979 54.493 66.7503 55.254 69.7693C55.6671 71.4081 55.2864 73.2748 54.7059 74.8797C54.1197 76.5002 53.2945 77.9493 52.7047 78.8002C52.5123 79.0777 52.1295 79.148 51.8497 78.9572C51.5699 78.7664 51.499 78.3868 51.6913 78.1092C52.2287 77.334 53.0022 75.9779 53.5484 74.4679C54.1002 72.9424 54.3857 71.3535 54.061 70.0651C53.3463 67.2298 51.153 63.1073 50.1309 61.384C49.9587 61.0937 50.0564 60.7199 50.3491 60.5491Z" fill="#192E35"/>
<path fill-rule="evenodd" clip-rule="evenodd" d="M71.1108 60.5491C70.8182 60.3784 70.4413 60.4753 70.2691 60.7656C69.2417 62.4979 66.967 66.7503 66.206 69.7693C65.7929 71.4081 66.1735 73.2748 66.7541 74.8797C67.3402 76.5002 68.1654 77.9493 68.7553 78.8002C68.9477 79.0777 69.3305 79.148 69.6103 78.9572C69.8901 78.7664 69.961 78.3868 69.7686 78.1092C69.2312 77.334 68.4578 75.9779 67.9116 74.4679C67.3597 72.9424 67.0743 71.3535 67.399 70.0651C68.1137 67.2298 70.307 63.1073 71.3291 61.384C71.5012 61.0937 71.4035 60.7199 71.1108 60.5491Z" fill="#192E35"/>
</g>
<path d="M30.4454 87.3579C32.5326 83.7765 37.7506 83.7765 39.8378 87.3579L59.7967 121.605C61.8839 125.186 59.2749 129.663 55.1005 129.663H15.1828C11.0084 129.663 8.39935 125.186 10.4865 121.605L30.4454 87.3579Z" fill="white"/>
<path fill-rule="evenodd" clip-rule="evenodd" d="M40.4245 87.0215L60.3834 121.268C62.7321 125.299 59.7954 130.334 55.101 130.334H15.1832C10.4888 130.334 7.55202 125.299 9.90081 121.268L29.8597 87.0215C32.2076 82.9928 38.0766 82.9928 40.4245 87.0215ZM39.8383 87.3575C37.7511 83.7762 32.5331 83.7762 30.4459 87.3575L10.487 121.604C8.39978 125.186 11.0088 129.663 15.1832 129.663H55.101C59.2754 129.663 61.8844 125.186 59.7972 121.604L39.8383 87.3575Z" fill="#192E35"/>
<path fill-rule="evenodd" clip-rule="evenodd" d="M56.8658 123.285L36.9069 89.0381C36.1231 87.6932 34.1602 87.6932 33.3763 89.0381L13.4175 123.285C12.6381 124.622 13.6083 126.305 15.1828 126.305H55.1005C56.6749 126.305 57.6451 124.622 56.8658 123.285ZM39.8378 87.3579C37.7506 83.7765 32.5326 83.7765 30.4454 87.3579L10.4865 121.605C8.39935 125.186 11.0084 129.663 15.1828 129.663H55.1005C59.2749 129.663 61.8839 125.186 59.7967 121.605L39.8378 87.3579Z" fill="#EA6058"/>
<path d="M30.2551 102.291C30.1526 101.122 31.074 100.116 32.2475 100.116H37.3602C38.5338 100.116 39.4551 101.122 39.3526 102.291L38.3492 113.736C38.2586 114.768 37.3937 115.561 36.3568 115.561H33.2509C32.214 115.561 31.3491 114.768 31.2585 113.736L30.2551 102.291Z" fill="#192E35"/>
<rect x="31.418" y="118.247" width="6.77058" height="5.37207" rx="2" fill="#192E35"/>
</svg>
