<svg width="122" height="130" viewBox="0 0 122 130" fill="none" xmlns="http://www.w3.org/2000/svg">
<path d="M87.2268 84.6749C81.8153 83.0876 76.32 86.6332 72.0405 90.291C67.7609 93.9487 63.1609 98.1586 57.5212 98.1787C51.8181 98.1988 47.1574 93.9343 42.8259 90.2421C38.4915 86.5498 32.8923 82.9841 27.449 84.6836C25.4247 85.3162 23.6719 86.6303 21.6679 87.3205C17.5298 88.7439 12.8287 87.2658 9.36348 84.6002C8.50584 83.9417 7.71173 83.2199 6.96094 82.4492C8.51451 89.434 10.4233 96.1686 14.1599 102.596C17.2237 107.864 21.0788 112.652 25.6124 116.651C37.5963 127.231 54.2668 132.122 69.791 129.134C85.3151 126.147 99.2914 115.179 105.748 100.356C106.008 99.7603 106.254 99.1621 106.49 98.5583C102.78 96.8818 99.3492 94.6043 96.4124 91.7863C93.5854 89.0774 90.9894 85.7792 87.2268 84.6749Z" fill="#ABFEE6"/>
<path d="M121.62 51.2351C122.85 43.701 120.623 34.7752 113.99 31.3331C107.779 28.1096 99.8032 30.6401 93.6755 27.2527C87.4728 23.825 85.5005 15.8078 81.3278 9.97615C76.003 2.53413 66.3524 -1.33929 57.5305 0.420568C48.7115 2.1833 41.1718 9.49305 38.9454 18.4419C37.9318 22.5166 37.9492 26.7811 37.389 30.9478C36.8259 35.1145 35.5495 39.4164 32.5406 42.2632C27.3861 47.1402 19.1908 46.151 12.913 49.3516C3.96701 53.9122 3.19022 64.5462 5.06432 73.4289C5.70828 76.477 6.30314 79.4848 6.96153 82.4496C7.71232 83.2174 8.50643 83.942 9.36407 84.6005C12.8293 87.2662 17.5275 88.7442 21.6685 87.3208C23.6754 86.6307 25.4253 85.3165 27.4496 84.6839C32.8929 82.9844 38.4921 86.5502 42.8265 90.2424C47.1609 93.9347 51.8187 98.2021 57.5218 98.179C63.1615 98.1589 67.7615 93.9491 72.0411 90.2913C76.3206 86.6336 81.8159 83.088 87.2274 84.6753C90.99 85.7795 93.586 89.0778 96.4102 91.7895C99.3469 94.6076 102.777 96.885 106.488 98.5615C109.754 90.2367 111.013 81.1728 114.019 72.7215C116.569 65.5469 120.389 58.7662 121.62 51.2351Z" fill="#DCFBF3"/>
<path d="M32.0841 24.2424C31.778 27.6672 30.0887 30.9511 27.4754 33.1969C24.4866 35.7677 20.5449 36.8921 16.739 37.9445C14.6743 38.5168 12.6096 39.089 10.5449 39.6613C9.38984 39.9805 8.20878 40.3054 7.01328 40.2163C4.93416 40.0639 3.11203 38.6606 1.93386 36.9438C-0.537988 33.3436 -0.506223 28.4263 1.2697 24.4408C3.04562 20.4552 6.34623 17.3122 9.99048 14.8996C12.8204 13.0276 15.9737 11.5064 19.3523 11.1383C22.6212 10.7817 26.6755 11.6444 28.9538 14.1979C31.2726 16.7975 32.3873 20.8348 32.0841 24.2424Z" fill="#DCFBF3"/>
<mask id="mask0_5040_11606" style="mask-type:alpha" maskUnits="userSpaceOnUse" x="4" y="0" width="118" height="130">
<path d="M121.418 51.2351C122.649 43.701 120.422 34.7752 113.789 31.3331C110.728 29.7442 107.237 29.5533 103.751 29.3626C100.164 29.1664 96.5817 28.9704 93.4744 27.2527C89.3508 24.974 87.0969 20.6669 84.8233 16.3221C83.6768 14.1313 82.5254 11.931 81.1267 9.97615C75.8018 2.53412 66.1512 -1.33929 57.3293 0.420568C48.5104 2.1833 40.9706 9.49305 38.7442 18.4419C38.0943 21.0546 37.8683 23.7454 37.642 26.4385C37.5154 27.9453 37.3888 29.4529 37.1878 30.9478C36.6247 35.1145 35.3483 39.4164 32.3394 42.2632C29.3182 45.1218 25.2523 45.965 21.1402 46.8178C18.2366 47.42 15.31 48.027 12.7119 49.3516C3.76584 53.9122 2.98905 64.5462 4.86315 73.4289C5.09511 74.5268 5.32069 75.6195 5.54517 76.7069L5.54889 76.7249C5.94635 78.6502 6.34034 80.5587 6.76027 82.4496C8.31384 89.4344 10.2226 96.169 13.9592 102.596C17.0231 107.864 20.8781 112.652 25.4118 116.652C37.3956 127.231 54.0662 132.122 69.5903 129.135C85.1144 126.147 99.0908 115.18 105.548 100.356C105.808 99.7606 106.053 99.1625 106.29 98.5586L106.288 98.558C108.037 94.1 109.21 89.4302 110.385 84.7561C111.403 80.7027 112.422 76.646 113.818 72.7215C114.661 70.3483 115.644 68.0182 116.626 65.6898C118.612 60.979 120.595 56.2751 121.418 51.2351Z" fill="#D9D9D9"/>
</mask>
<g mask="url(#mask0_5040_11606)">
<path d="M26.1953 67.1976C22.3175 63.3237 18.7469 55.0146 35.487 52.7695C43.3668 55.6528 60.3925 59.708 65.4566 52.8627C70.5206 46.0175 75.1855 36.6058 76.8849 32.7556L91.7655 -13.198L148.925 0.243456L102.244 51.915C101.932 52.4435 101.711 52.8901 101.589 53.2461C101.24 54.2638 100.813 55.5473 100.336 57.0057L96.7113 68.3274C94.365 75.7545 92.2057 82.7203 92.2057 82.7203C92.2057 82.7203 90.0949 97.6984 87.279 102.96C82.6395 104.445 71.7488 105.727 65.1825 98.0012C58.6161 90.2755 51.5405 85.0057 48.8235 83.3365L26.1953 67.1976Z" fill="#CC966B"/>
<path d="M35.487 52.7695C18.7469 55.0146 22.3175 63.3237 26.1953 67.1976L48.8235 83.3365C51.5405 85.0057 58.6161 90.2755 65.1825 98.0012C71.7489 105.727 82.6395 104.445 87.279 102.96C90.0949 97.6984 92.2057 82.7203 92.2057 82.7203C92.2057 82.7203 99.0149 60.7542 101.589 53.2461C103.648 47.2396 134.004 15.4083 148.925 0.243457L91.7655 -13.198L76.8849 32.7555C75.1855 36.6058 70.5206 46.0175 65.4566 52.8627C60.3925 59.708 43.3668 55.6528 35.487 52.7695Z" fill="#FFC596"/>
<path d="M96.8502 47.5769L92.159 82.5455L101.813 52.3917L148.925 0.243599L130.788 -4.02149L96.8502 47.5769Z" fill="#CC966B"/>
<path d="M84.6501 49.1664C83.3974 57.248 77.5664 73.683 64.2636 74.7698" stroke="#CC966B" stroke-width="2" stroke-linecap="round"/>
<path d="M76.1922 82.8442C69.6635 77.4181 66.0027 89.0945 62.4895 95.8339C68.0671 101.576 72.7822 103.929 77.2556 103.971C86.609 104.06 87.8499 103.984 88.2531 102.298C88.8952 99.6116 92.6394 87.9277 92.4538 83.0205C91.8423 85.5787 82.7209 88.2703 76.1922 82.8442Z" fill="white"/>
<path opacity="0.6" d="M79.9936 78.8739C64.1451 72.8774 56.1932 81.248 53.3347 86.3851L53.3419 86.3933C58.1553 91.8514 68.6657 103.77 76.4381 103.977C84.2143 104.184 86.9544 103.748 88.3441 101.913L93.4622 78.7987L79.9936 78.8739Z" fill="white"/>
<path fill-rule="evenodd" clip-rule="evenodd" d="M35.667 51.1545L36.0365 51.2897C39.8881 52.6991 45.9738 54.3909 51.6698 54.8937C54.5193 55.1452 57.19 55.0914 59.4028 54.6023C61.6188 54.1125 63.2216 53.2234 64.1787 51.9297C69.1117 45.2615 73.6948 36.0448 75.3996 32.197L90.7049 -15.0681L151.891 -0.679867L103.534 52.8464C103.293 53.2661 103.155 53.564 103.09 53.7537C102.745 54.7604 102.322 56.0342 101.846 57.4874C101.846 57.489 101.845 57.4907 101.845 57.4923L98.2249 68.7988C98.2245 68.8 98.2242 68.8012 98.2238 68.8024C97.0518 72.5123 95.9264 76.1072 95.0939 78.7751C94.6775 80.1095 94.3345 81.2117 94.0955 81.9804C93.976 82.3647 93.8826 82.6656 93.819 82.8704L93.7586 83.0651L93.7515 83.1142C93.735 83.2276 93.7106 83.3937 93.6786 83.6063C93.6145 84.0315 93.5201 84.6433 93.3981 85.3934C93.1541 86.8925 92.7989 88.9485 92.3544 91.1731C91.4829 95.5342 90.2159 100.829 88.6794 103.7L88.3768 104.266L87.7635 104.462C85.2673 105.261 81.1573 105.991 76.7746 105.502C72.3705 105.012 67.5841 103.273 63.9699 99.0204C57.5163 91.4273 50.5697 86.2649 47.9882 84.6789L47.9418 84.6504L25.1626 68.4038L25.0699 68.3112C23.9985 67.2409 22.9246 65.8437 22.2114 64.2767C21.4993 62.7123 21.0987 60.866 21.5702 58.9921C22.5459 55.1143 26.8229 52.3407 35.2766 51.2069L35.667 51.1545ZM92.2056 82.7207C92.2056 82.7207 94.3649 75.7549 96.7112 68.3279L100.336 57.0061C100.813 55.5477 101.24 54.2643 101.589 53.2465C101.711 52.8906 101.932 52.444 102.244 51.9155L148.925 0.243893L91.7654 -13.1975L76.8848 32.756C75.1854 36.6062 70.5205 46.0179 65.4565 52.8632C60.3924 59.7084 43.3667 55.6532 35.4869 52.77C18.7468 55.0151 22.3174 63.3241 26.1952 67.198L48.8234 83.337C51.5404 85.0061 58.616 90.2759 65.1824 98.0016C71.7488 105.727 82.6394 104.445 87.2789 102.961C90.0948 97.6988 92.2056 82.7207 92.2056 82.7207Z" fill="#192E35"/>
</g>
<path d="M50.1328 79.8783C51.1074 80.4179 51.7017 81.4665 51.6715 82.593C51.153 100.179 43.2177 117.867 27.5652 129.227C26.5323 129.979 25.1425 129.979 24.1095 129.227C8.43557 117.852 0.499966 100.13 0.00111219 82.5209C-0.0283684 81.4287 0.53006 80.4067 1.45851 79.8537C8.03664 75.9313 15.691 71.9715 23.9383 67.4826C25.1243 66.8359 26.5515 66.8393 27.7345 67.4918C32.3232 70.0242 44.0886 76.5195 50.1328 79.8783Z" fill="#192E35"/>
<path d="M50.2207 79.6575C51.1635 80.1774 51.7385 81.1876 51.7092 82.2728C51.2076 99.2144 43.5311 116.255 28.389 127.199C27.3898 127.923 26.0452 127.923 25.046 127.199C9.88315 116.24 2.20632 99.1678 1.72373 82.2034C1.69521 81.1511 2.23543 80.1666 3.1336 79.6338C9.49723 75.8551 16.902 72.0404 24.8804 67.7159C26.0277 67.0929 27.4084 67.0962 28.5527 67.7248C32.9918 70.1644 44.3735 76.4218 50.2207 79.6575Z" fill="white"/>
<path d="M50.2207 79.6576C51.1635 80.1774 51.7385 81.1876 51.7092 82.2728C51.2076 99.2144 43.5311 116.255 28.389 127.199C27.3898 127.923 26.0452 127.923 25.046 127.199C9.88315 116.24 2.20632 99.1678 1.72373 82.2034C1.69521 81.1511 2.23543 80.1666 3.1336 79.6338C9.49723 75.8551 16.902 72.0404 24.8804 67.7159C26.0277 67.0929 27.4084 67.0962 28.5527 67.7248C32.9918 70.1644 44.3735 76.4218 50.2207 79.6576Z" fill="#91D7FE"/>
<path fill-rule="evenodd" clip-rule="evenodd" d="M52.5702 82.2966L52.5702 82.2989C52.0614 99.4841 44.2728 116.79 28.8895 127.908C27.5906 128.849 25.8435 128.849 24.5446 127.908C9.1402 116.775 1.35131 99.4368 0.861787 82.2285L0.861753 82.2273C0.824612 80.8569 1.52809 79.5752 2.69695 78.8817C7.29453 76.1517 12.4397 73.3996 17.9311 70.4622C20.0634 69.3217 22.248 68.1531 24.473 66.9472C25.876 66.1856 27.5641 66.1897 28.9634 66.9583L28.9636 66.9584C33.4023 69.3978 44.7853 75.6559 50.6337 78.8924C51.86 79.5692 52.6084 80.8838 52.5702 82.2966ZM50.2202 79.6576C44.3731 76.4218 32.9914 70.1644 28.5523 67.7248C27.4079 67.0962 26.0272 67.0929 24.8799 67.7159C22.6436 68.928 20.4523 70.1001 18.3165 71.2426C12.8323 74.1761 7.71306 76.9143 3.13313 79.6339C2.23496 80.1666 1.69474 81.1511 1.72326 82.2034C2.20585 99.1679 9.88268 116.24 25.0455 127.199C26.0448 127.923 27.3893 127.923 28.3886 127.199C43.5306 116.255 51.2072 99.2144 51.7087 82.2728C51.738 81.1876 51.163 80.1774 50.2202 79.6576Z" fill="#192E35"/>
<mask id="mask1_5040_11606" style="mask-type:luminance" maskUnits="userSpaceOnUse" x="1" y="67" width="51" height="61">
<path fill-rule="evenodd" clip-rule="evenodd" d="M50.2207 79.6575C51.1635 80.1774 51.7385 81.1876 51.7092 82.2728C51.2076 99.2144 43.5311 116.255 28.389 127.199C27.3898 127.923 26.0452 127.923 25.046 127.199C9.88315 116.24 2.20632 99.1678 1.72373 82.2034C1.69521 81.1511 2.23543 80.1666 3.1336 79.6338C9.49723 75.8551 16.902 72.0404 24.8804 67.7159C26.0277 67.0929 27.4084 67.0962 28.5527 67.7248C32.9918 70.1644 44.3735 76.4218 50.2207 79.6575Z" fill="white"/>
</mask>
<g mask="url(#mask1_5040_11606)">
<path d="M0.368136 73.1279C17.9151 99.7462 49.0376 127.742 49.0376 127.742C49.0376 127.742 32.9552 130.823 31.2516 132.033C29.548 133.243 16.9415 132.552 16.4304 132.206C15.9193 131.86 -1.04785 113.401 -1.04785 113.401L0.368136 73.1279Z" fill="#6DB1D8"/>
</g>
<path d="M25.8359 73.9766C37.0796 79.8533 46.7333 87.2281 42.6446 100.941C38.556 114.653 49.0047 86.9976 49.0047 86.9976L45.484 83.3102" fill="#63ABD3"/>
<path d="M44.2009 84.4783C44.8982 84.8507 45.327 85.5898 45.3082 86.3868C44.9351 98.7497 39.2247 111.185 27.9611 119.171C27.2145 119.699 26.2208 119.699 25.4743 119.171C14.1951 111.174 8.4846 98.7157 8.12562 86.3361C8.10701 85.5636 8.50992 84.8432 9.17438 84.461C13.9081 81.7035 19.4162 78.9198 25.3511 75.7641C26.2067 75.3094 27.2293 75.3119 28.0828 75.7705C31.3849 77.5508 39.8514 82.1171 44.2009 84.4783Z" fill="white"/>
<path fill-rule="evenodd" clip-rule="evenodd" d="M27.8795 76.1559C27.1519 75.765 26.2801 75.7631 25.5507 76.1506C23.8815 77.0382 22.2482 77.8952 20.6577 78.7298C16.5818 80.8686 12.7867 82.86 9.38864 84.8394L9.3866 84.8406L9.3866 84.8406C8.8603 85.1433 8.5413 85.7136 8.55566 86.325C8.91132 98.5788 14.5631 110.903 25.7205 118.814C26.3186 119.237 27.1149 119.237 27.7131 118.814C38.8554 110.914 44.507 98.6127 44.8767 86.3753C44.891 85.7445 44.5514 85.1595 43.9991 84.8645L43.9965 84.8631C39.6476 82.5022 31.1817 77.9362 27.8795 76.1559ZM25.15 75.3785C26.1317 74.8569 27.305 74.8597 28.2842 75.3859L28.2847 75.3862C31.5864 77.1662 40.0523 81.7322 44.4028 84.094C45.2437 84.5438 45.761 85.4357 45.7382 86.3977L45.7381 86.4006C45.3613 98.8885 39.5923 111.457 28.2076 119.528L28.2073 119.529C27.3125 120.162 26.1214 120.162 25.2266 119.529L25.2263 119.528C13.826 111.446 8.05677 98.8542 7.69416 86.3494L7.69411 86.3472C7.67164 85.4143 8.15797 84.5446 8.95969 84.083" fill="#192E35"/>
<path d="M35.2383 92.1276H30.2387V87.0551C30.2398 86.4471 29.7532 85.9533 29.1517 85.9521H25.2391C24.6377 85.9533 24.151 86.4471 24.1521 87.0551V92.1277H19.1525C18.551 92.1288 18.0643 92.6226 18.0654 93.2306V97.2003C18.0643 97.8083 18.551 98.302 19.1525 98.3032H24.1521V103.376C24.151 103.984 24.6377 104.478 25.2391 104.479H29.1517C29.7532 104.478 30.2398 103.984 30.2387 103.376V98.3032H35.2383C35.8398 98.302 36.3265 97.8082 36.3254 97.2002V93.2306C36.3265 92.6226 35.8398 92.1288 35.2383 92.1276Z" fill="#192E35"/>
</svg>
