<svg width="276" height="187" viewBox="0 0 276 187" fill="none" xmlns="http://www.w3.org/2000/svg">
<path d="M262.954 187L115.081 186.949L40.7725 186.923L36.6355 186.92L21.7068 186.918C21.7068 186.918 0.381795 169.582 0.0123887 145.075C-0.715534 96.7846 30.893 118.536 26.5988 60.3361C22.6804 7.22903 125.059 -21.4082 180.65 19.165C200.861 33.9162 202.446 44.2623 231.489 40.9913C264.273 37.2992 268.009 77.1426 256.535 99.2292C240.253 130.567 301.681 125.419 262.954 187Z" fill="#DCFBF3"/>
<mask id="mask0_4126_4601" style="mask-type:alpha" maskUnits="userSpaceOnUse" x="0" y="0" width="276" height="187">
<path d="M262.954 187L115.081 186.949L40.7725 186.923L36.6355 186.92L21.7068 186.918C21.7068 186.918 0.381795 169.582 0.0123887 145.075C-0.715534 96.7846 30.893 118.536 26.5988 60.3361C22.6804 7.22903 125.059 -21.4082 180.65 19.165C200.861 33.9162 202.446 44.2623 231.489 40.9913C264.273 37.2992 268.009 77.1426 256.535 99.2292C240.253 130.567 301.681 125.419 262.954 187Z" fill="#CEF7F3"/>
</mask>
<g mask="url(#mask0_4126_4601)">
<path d="M69.0001 104.125C45.3384 99.5664 7.96161 113.156 7.96161 113.156H-5.30762V187H279.185V154.062C279.185 154.062 234.394 131.69 203.285 128.562C172.536 125.472 154.7 145.673 124.731 138.125C100.013 131.9 94.0291 108.947 69.0001 104.125Z" fill="#ABFEE6"/>
</g>
<path d="M162.216 95.7188L169.042 55.76C171.064 45.8742 166.979 36.4615 157.01 34.7195L156.08 34.6125C146.714 33.532 138.083 39.7993 136.249 49.0187C134.544 57.5965 132.77 67.0956 132.289 71.7471C131.292 81.3773 140.767 83.9857 140.767 83.9857C140.788 83.989 139.907 89.8074 139.457 92.6125L144.357 98.1396L162.216 95.7188Z" fill="#F9A78D"/>
<path d="M140.767 83.9857C140.767 83.9857 146.806 85.0421 153.757 81.7325C153.757 81.7325 149.897 88.6132 140.371 86.6372L140.767 83.9857Z" fill="#F57F62"/>
<path d="M138.063 58.2945C137.952 59.0173 138.475 59.7053 139.23 59.8339C139.984 59.9617 140.684 59.4812 140.794 58.7592C140.904 58.0372 140.381 57.3475 139.628 57.2197C138.873 57.0911 138.173 57.5724 138.063 58.2945Z" fill="#17282F"/>
<path d="M137.808 53.5017C137.958 53.7001 139.091 53.0511 140.573 53.2254C142.056 53.3789 143.055 54.2653 143.238 54.1026C143.326 54.0312 143.189 53.6876 142.755 53.2893C142.328 52.8934 141.572 52.4685 140.648 52.3665C139.724 52.2652 138.908 52.5142 138.421 52.8096C137.925 53.1059 137.733 53.4113 137.808 53.5017Z" fill="#17282F"/>
<path d="M151.357 59.6223C151.247 60.3443 151.77 61.0331 152.525 61.1609C153.278 61.2896 153.979 60.8091 154.089 60.0871C154.199 59.3642 153.676 58.6754 152.923 58.5476C152.168 58.419 151.467 58.9003 151.357 59.6223Z" fill="#17282F"/>
<path d="M152.3 55.5202C152.451 55.7193 153.585 55.0703 155.066 55.2446C156.549 55.3982 157.548 56.2837 157.73 56.121C157.818 56.0505 157.683 55.7077 157.248 55.3085C156.822 54.9127 156.065 54.4878 155.141 54.3849C154.217 54.2836 153.401 54.5334 152.914 54.828C152.418 55.1243 152.226 55.4305 152.3 55.5202Z" fill="#17282F"/>
<path d="M145.663 66.2623C145.68 66.1785 144.778 65.9138 143.307 65.5511C142.932 65.4689 142.582 65.3528 142.549 65.0872C142.491 64.805 142.697 64.4158 142.931 63.9984C143.393 63.1261 143.877 62.2116 144.384 61.2539C146.414 57.3418 147.93 54.1085 147.772 54.028C147.612 53.9475 145.838 57.0529 143.809 60.9651C143.317 61.9311 142.848 62.8514 142.401 63.732C142.208 64.1444 141.905 64.6025 142.033 65.1901C142.102 65.4839 142.356 65.7212 142.591 65.8142C142.825 65.9154 143.038 65.9445 143.224 65.9777C144.717 66.2308 145.649 66.3453 145.663 66.2623Z" fill="#17282F"/>
<path d="M153.325 50.7706C153.472 51.1748 154.962 50.9806 156.713 51.1897C158.469 51.3623 159.881 51.8719 160.113 51.5092C160.217 51.3349 159.97 50.9548 159.398 50.564C158.832 50.1739 157.929 49.8029 156.877 49.6876C155.827 49.5747 154.864 49.7424 154.227 50.0013C153.585 50.2602 153.261 50.5781 153.325 50.7706Z" fill="#17282F"/>
<path d="M138.39 48.7664C138.644 49.1473 139.899 48.988 141.345 49.1972C142.797 49.3631 143.976 49.837 144.311 49.5316C144.461 49.3814 144.321 49.0171 143.837 48.6171C143.361 48.2204 142.52 47.8262 141.524 47.6967C140.528 47.5689 139.621 47.7374 139.066 48.0013C138.501 48.2643 138.28 48.5822 138.39 48.7664Z" fill="#17282F"/>
<path d="M167.428 62.7892C167.6 62.7369 174.283 61.5991 173.309 68.1495C172.335 74.6991 165.939 72.3737 165.956 72.1845C165.972 71.9944 167.428 62.7892 167.428 62.7892Z" fill="#F9A78D"/>
<path d="M168.331 69.9994C168.363 69.9828 168.434 70.0957 168.614 70.2135C168.79 70.3272 169.106 70.4343 169.468 70.3571C170.199 70.2061 170.947 69.1936 171.155 68.0176C171.26 67.4242 171.219 66.8375 171.077 66.3362C170.947 65.8275 170.687 65.4474 170.346 65.3337C170.01 65.2018 169.732 65.3736 169.624 65.5462C169.509 65.7163 169.531 65.8532 169.494 65.8599C169.474 65.8732 169.37 65.7287 169.463 65.4665C169.509 65.3403 169.609 65.1968 169.783 65.0939C169.959 64.9893 170.2 64.9586 170.44 65.0208C170.941 65.1304 171.329 65.6624 171.485 66.2126C171.669 66.7694 171.729 67.4309 171.611 68.0973C171.372 69.411 170.511 70.5463 169.52 70.6791C169.04 70.7314 168.675 70.5355 168.499 70.3513C168.32 70.1596 168.306 70.0077 168.331 69.9994Z" fill="#F57F62"/>
<path d="M124.369 38.3313C124.529 37.9603 124.857 37.6839 125.233 37.5312C126.05 37.1976 126.91 37.3827 127.75 37.4914C129.84 37.762 131.987 37.5312 133.985 36.8615C133.384 36.4399 132.837 35.9536 132.398 35.3669C131.49 34.1552 131.117 32.4489 131.81 31.1045C131.941 30.8522 132.136 30.5966 132.418 30.5534C132.864 30.4846 133.176 30.9568 133.425 31.3319C134.244 32.5651 135.08 33.1651 136.561 33.2307C137.482 33.2714 138.39 33.1967 139.169 32.8581L139.265 32.7784C139.658 32.4763 140.041 32.1892 140.417 31.912L140.419 31.9095L140.419 31.9112C143.249 29.8265 145.624 28.4422 147.942 27.8828C151.341 27.0621 156.784 27.3226 160.002 28.6853C163.219 30.0472 165.827 33.1909 165.791 36.6756C167.9 35.3677 170.715 35.7918 172.866 37.0399L172.927 37.0233C175.34 38.2989 176.393 41.1894 176.764 43.8866C176.785 44.0343 176.799 44.1829 176.817 44.3306C177.478 45.8161 178.478 47.1514 179.754 48.1639C179.979 48.3423 180.235 48.5589 180.223 48.8453C180.213 49.1291 179.941 49.3266 179.688 49.4569C179.014 49.8038 178.261 49.9864 177.503 50.0104C177.646 50.6594 177.831 51.296 178.085 51.9159C178.302 52.4429 178.557 53.0736 178.233 53.5416C177.981 53.9035 177.461 53.9915 177.038 53.8653C176.614 53.7392 176.266 53.4454 175.932 53.1582C176.116 53.8769 176.3 54.5965 176.485 55.3152C175.54 55.3409 174.598 55.1284 173.744 54.7276C172.848 57.0687 171.785 61.4904 170.92 63.039C169.171 62.8149 168.774 62.5643 167.851 62.727C166.658 62.9378 166.798 65.0092 165.4 64.2233C164.689 63.8224 163.949 60.8058 163.808 60.0033C162.879 54.6786 163.121 49.1556 164.505 43.9306C163.615 42.6567 162.477 41.5554 161.172 40.7073L161.271 40.8268C158.72 39.5047 155.815 38.1462 153.08 39.0325C150.959 39.7205 149.497 41.5961 147.778 43.0136C144.522 45.6999 141.108 46.8892 136.903 46.4593C136.102 49.2976 135.298 54.0114 134.76 56.6895L133.24 50.9507L133.235 50.9723C133.094 50.6279 132.986 50.2868 132.885 49.9449L132.847 49.8411L132.849 49.8287C132.688 49.2809 132.538 48.7332 132.313 48.1822L132.284 48.2013C130.627 49.2776 128.755 46.9904 130.142 45.5862C130.417 45.3074 130.733 45.0692 131.081 44.8858C130.318 45.4161 129.274 45.5705 128.434 45.173C127.594 44.7763 127.042 43.7895 127.253 42.8874C127.397 42.2708 127.925 41.7787 128.526 41.6143C127.328 41.533 126.154 41.099 125.207 40.3612C124.586 39.8774 124.014 39.1462 124.369 38.3313Z" fill="#17282F"/>
<path d="M162.604 37.3362C162.58 37.3578 162.969 37.6482 163.439 38.3562C163.904 39.0607 164.37 40.2359 164.449 41.7546C164.493 42.5106 164.468 43.3447 164.338 44.2277C164.212 45.1115 164.002 46.0468 163.788 47.0336C163.578 48.0203 163.351 49.0627 163.255 50.1673C163.207 50.7183 163.191 51.2843 163.229 51.8578C163.27 52.4213 163.327 53.0354 163.672 53.5657C163.945 53.9964 164.471 54.2462 164.962 54.218C165.456 54.2039 165.92 54.0105 166.285 53.7085C167.009 53.0786 167.297 52.1881 167.569 51.4055L167.364 51.4005C167.588 52.1715 167.822 52.9358 168.24 53.5798C168.649 54.2255 169.276 54.7052 169.962 54.8678C170.304 54.9492 170.66 54.945 170.979 54.8396C171.304 54.7367 171.561 54.5176 171.751 54.2761C171.934 54.0271 172.052 53.7425 172.079 53.4553C172.105 53.1682 172.033 52.8827 171.88 52.6645L171.764 52.7408C172.383 53.691 173.099 54.2579 173.604 54.5873C173.859 54.7525 174.067 54.8595 174.208 54.9284C174.351 54.994 174.427 55.0238 174.429 55.0189C174.432 55.0122 174.362 54.9716 174.226 54.8944C174.091 54.8155 173.891 54.6985 173.646 54.5259C173.159 54.1815 172.469 53.6064 171.881 52.6669L171.766 52.7425C172.04 53.1317 171.97 53.735 171.621 54.1774C171.445 54.3948 171.21 54.5882 170.926 54.6736C170.642 54.7649 170.317 54.7666 170.005 54.6894C169.377 54.5326 168.792 54.0836 168.41 53.4703C168.017 52.8562 167.79 52.1126 167.571 51.3407L167.478 51.0129L167.365 51.3358C167.093 52.1176 166.801 52.9698 166.141 53.5367C165.815 53.8072 165.389 53.9815 164.958 53.9923C164.524 54.0122 164.1 53.8089 163.861 53.4396C163.558 52.9798 163.493 52.3972 163.454 51.8428C163.417 51.2835 163.431 50.7291 163.477 50.1864C163.568 49.1 163.788 48.0635 163.993 47.0767C164.201 46.0892 164.405 45.1489 164.524 44.2526C164.647 43.358 164.664 42.5106 164.609 41.7438C164.508 40.2027 164.009 39.0076 163.513 38.3072C163.011 37.6018 162.604 37.3362 162.604 37.3362Z" fill="#33535F"/>
<path d="M131.476 42.3314L131.544 42.4077C131.602 42.465 131.673 42.5339 131.758 42.6177C131.852 42.7115 131.972 42.8227 132.128 42.9372C132.28 43.0567 132.453 43.1994 132.668 43.3297C133.499 43.8833 134.87 44.5123 136.677 44.6684C138.466 44.8269 140.687 44.5107 142.796 43.377C144.92 42.2791 146.904 40.4956 148.624 38.3727C149.494 37.3138 150.238 36.2059 151.028 35.1984C151.814 34.1892 152.653 33.273 153.606 32.5925C154.549 31.9054 155.596 31.4489 156.623 31.3186C157.138 31.2447 157.638 31.2846 158.11 31.3643C158.58 31.458 159.016 31.6199 159.41 31.8149C160.199 32.2132 160.801 32.7676 161.24 33.3112C161.68 33.8598 161.948 34.4092 162.12 34.8731C162.428 35.8183 162.369 36.3876 162.405 36.3827L162.413 36.2814C162.412 36.2001 162.411 36.1013 162.41 35.981C162.4 35.7179 162.344 35.3295 162.204 34.8448C162.042 34.3693 161.78 33.8008 161.339 33.2332C160.901 32.6697 160.292 32.0921 159.485 31.673C159.08 31.4663 158.632 31.2945 158.144 31.1925C157.657 31.1045 157.132 31.0597 156.6 31.1327C155.533 31.2589 154.453 31.7253 153.484 32.4232C152.504 33.1153 151.647 34.0473 150.853 35.0623C150.054 36.0764 149.309 37.181 148.448 38.23C146.741 40.3371 144.784 42.1015 142.699 43.192C140.627 44.3181 138.456 44.6435 136.69 44.5082C134.91 44.3754 133.552 43.7795 132.716 43.2559C131.873 42.7239 131.498 42.3065 131.476 42.3314Z" fill="#33535F"/>
<path d="M131.218 37.9901C131.209 38.0026 131.319 38.1047 131.529 38.2798C131.734 38.459 132.058 38.6897 132.475 38.9453C132.889 39.2051 133.413 39.4682 134.014 39.7105C134.619 39.9429 135.305 40.1495 136.042 40.2856C136.781 40.4126 137.497 40.4566 138.145 40.4483C138.794 40.4275 139.376 40.3628 139.856 40.2632C140.336 40.1669 140.718 40.0616 140.974 39.9653C141.232 39.8732 141.37 39.8151 141.366 39.801C141.353 39.7603 140.782 39.9553 139.828 40.1047C139.352 40.1836 138.779 40.2308 138.143 40.2391C137.507 40.2358 136.806 40.1877 136.082 40.0624C135.36 39.9296 134.688 39.7329 134.089 39.5163C133.495 39.2881 132.974 39.0458 132.555 38.8076C131.713 38.337 131.245 37.9569 131.218 37.9901Z" fill="#33535F"/>
<path d="M147.211 68.5603C148.207 68.5761 149.11 69.4624 149.141 70.4558C149.172 71.4492 148.326 72.3895 147.332 72.4675C146.338 72.5447 145.356 71.7471 145.232 70.7612C145.107 69.7753 145.86 68.7595 146.842 68.5894" fill="#F57F62"/>
<path d="M146.548 72.1829C146.564 72.1347 146.962 72.4642 147.677 72.3613C148.023 72.309 148.423 72.1273 148.696 71.7571C148.97 71.3961 149.12 70.87 149.015 70.3563C148.908 69.8409 148.569 69.416 148.186 69.1629C147.802 68.9023 147.373 68.8193 147.019 68.8201C146.298 68.8301 145.895 69.1039 145.877 69.0583C145.868 69.045 145.956 68.9654 146.144 68.8683C146.332 68.772 146.627 68.6616 147.013 68.6367C147.393 68.6118 147.876 68.6815 148.317 68.962C148.752 69.2351 149.144 69.7073 149.271 70.304C149.392 70.9023 149.211 71.4974 148.885 71.9032C148.56 72.3214 148.084 72.5123 147.7 72.543C146.897 72.6028 146.518 72.1854 146.548 72.1829Z" fill="#17282F"/>
<path d="M201.049 165.471C201.049 165.471 199.705 170.817 198.377 171.885C198.377 171.885 188.261 181.279 187.779 181.666C187.298 182.053 185.751 182.655 185.036 182.141C184.322 181.627 184.341 180.424 184.341 180.424C184.341 180.424 181.837 181.746 180.869 181.041C179.9 180.335 180.33 179.395 180.33 179.395C180.33 179.395 178.439 180.125 177.414 178.921C176.389 177.717 176.792 176.007 176.792 176.007C176.792 176.007 175.143 177.036 174.324 175.963C173.505 174.891 173.478 173.08 173.478 173.08L175.031 170.89C175.031 170.89 179.27 166.193 180.561 164.906C181.853 163.619 187.002 162.314 189.082 161.877L194.308 155.658L201.049 165.471Z" fill="#F9A78D"/>
<path d="M198.377 171.885L192.176 158.555C192.176 158.555 199.459 148.891 202.965 142.564C206.472 136.237 205.092 136.678 205.092 136.678C205.092 136.678 200.765 133.951 194.637 131.713C188.509 129.475 181.034 124.758 181.034 124.758C181.034 124.758 170.444 119.578 168.681 116.216C166.919 112.855 166.321 105.211 170.155 102.444C171.113 101.753 172.327 101.254 173.609 100.895C177.926 99.684 182.555 100.34 186.499 102.466C192.739 105.831 203.306 111.523 204.828 112.3C204.828 112.3 222.534 123.035 224.481 124.802C229.228 129.111 230.816 134.263 225.645 141.949C220.728 149.259 198.377 171.885 198.377 171.885Z" fill="#F9A78D"/>
<path d="M205.003 138.127C204.955 138.113 205.066 137.449 205.494 136.453C205.918 135.458 206.708 134.155 207.883 132.975C209.062 131.799 210.366 131.007 211.362 130.58C212.36 130.15 213.026 130.036 213.04 130.084C213.105 130.219 210.482 130.981 208.205 133.296C205.893 135.573 205.139 138.191 205.003 138.127Z" fill="#F57F62"/>
<path d="M132.205 92.0556C131.175 92.5925 118.979 110.435 116.956 113.58C114.932 116.725 108.893 168.861 108.893 168.861L107.618 183.681L166.122 186.978C168.412 187.243 170.222 185.08 169.547 182.883L165.824 170.749C164.68 167.022 164.644 163.045 165.717 159.297L175.797 124.104L187.224 117.134L170.442 94.6872L162.626 93.4739L132.205 92.0556Z" fill="#6C6FC3"/>
<path d="M201.132 107.463L184.713 129.753C184.713 129.753 160.938 115.626 160.087 110.174C159.983 109.515 159.903 108.83 159.841 108.134C159.182 100.752 165.058 94.2772 172.486 94.5876L172.685 94.5976C179.325 94.9453 201.132 107.463 201.132 107.463Z" fill="#6C6FC3"/>
<path d="M102.593 125.447L97.5957 100.292C97.5957 100.292 124.173 91.361 130.254 91.8348C136.334 92.3087 140.508 94.5768 140.508 94.5768L121.831 119.848L102.593 125.447Z" fill="#6C6FC3"/>
<path d="M119.008 101.789C119.015 101.789 119.014 101.848 119.004 101.966C118.988 102.111 118.969 102.282 118.946 102.491C118.871 102.984 118.77 103.648 118.642 104.483C118.348 106.251 117.934 108.737 117.424 111.791C116.382 117.96 114.948 126.482 113.47 135.91C111.983 145.341 110.785 153.899 110.001 160.103C109.626 163.207 109.313 165.719 109.131 167.458C109.032 168.296 108.953 168.962 108.894 169.459C108.835 169.915 108.797 170.155 108.782 170.153C108.767 170.152 108.776 169.91 108.807 169.45C108.846 168.952 108.898 168.283 108.963 167.442C109.093 165.696 109.36 163.178 109.697 160.067C110.403 153.849 111.554 145.278 113.042 135.843C114.52 126.412 116.002 117.895 117.122 111.739C117.688 108.694 118.149 106.216 118.476 104.454C118.637 103.625 118.765 102.966 118.86 102.477C118.944 102.028 118.992 101.789 119.008 101.789Z" fill="#17282F"/>
<path d="M180.835 118.739C180.81 118.816 179.915 118.505 178.421 118.327C177.675 118.231 176.777 118.206 175.788 118.26C174.799 118.337 173.719 118.505 172.617 118.817C171.52 119.143 170.518 119.579 169.642 120.043C168.778 120.527 168.033 121.028 167.456 121.509C166.291 122.459 165.703 123.199 165.641 123.148C165.616 123.129 165.749 122.934 166.009 122.593C166.262 122.248 166.688 121.792 167.257 121.276C167.823 120.754 168.568 120.212 169.447 119.696C170.336 119.198 171.365 118.738 172.497 118.402C173.63 118.08 174.747 117.919 175.765 117.862C176.785 117.828 177.706 117.886 178.463 118.024C179.221 118.154 179.826 118.312 180.226 118.469C180.629 118.616 180.845 118.71 180.835 118.739Z" fill="#17282F"/>
<path d="M161.738 118.13C161.714 118.143 161.496 117.794 161.151 117.136C160.807 116.477 160.339 115.508 159.859 114.265C159.388 113.021 158.908 111.497 158.639 109.747C158.364 108.002 158.339 106.021 158.754 104.01C159.178 102.004 160.026 100.179 161.165 98.7985C162.299 97.4118 163.656 96.4748 164.879 95.918C166.113 95.3661 167.205 95.1735 167.952 95.1387C168.328 95.1237 168.618 95.1262 168.815 95.1503C169.011 95.1677 169.113 95.1835 169.112 95.1984C169.135 95.3071 167.395 95.0424 165.01 96.1943C163.841 96.7686 162.551 97.7006 161.477 99.0475C160.399 100.388 159.59 102.153 159.179 104.099C158.353 108.039 159.295 111.703 160.147 114.16C160.585 115.402 161.008 116.386 161.304 117.063C161.6 117.741 161.767 118.116 161.738 118.13Z" fill="#17282F"/>
<path d="M149.465 156.432C149.479 156.458 149.032 156.723 148.212 157.179C147.392 157.635 146.195 158.277 144.708 159.053C141.735 160.606 137.59 162.682 132.954 164.854C128.315 167.024 124.065 168.877 120.967 170.166C119.417 170.811 118.158 171.318 117.283 171.655C116.408 171.993 115.918 172.167 115.906 172.14C115.895 172.113 116.363 171.886 117.218 171.5C118.139 171.09 119.363 170.545 120.845 169.885C123.91 168.526 128.136 166.63 132.77 164.463C137.401 162.293 141.563 160.263 144.569 158.78C146.025 158.065 147.228 157.474 148.133 157.029C148.978 156.619 149.451 156.405 149.465 156.432Z" fill="#17282F"/>
<path d="M75.0646 80.2105C75.0646 80.2105 58.775 115.492 59.8756 121.406C61.0662 127.808 64.9533 129.728 72.5503 128.701C80.1465 127.676 101.739 121.145 101.739 121.145L97.7773 101.205L78.145 106.884L86.8118 80.8503L75.0646 80.2105Z" fill="#F9A78D"/>
<path d="M76.528 121.651C76.3723 121.589 77.9259 118.543 78.3912 114.442C78.9016 110.344 78.104 107.034 78.2705 107.01C78.328 106.995 78.6035 107.797 78.8175 109.152C79.0331 110.502 79.1414 112.411 78.8958 114.499C78.6443 116.585 78.0907 118.421 77.5629 119.687C77.0367 120.958 76.5805 121.677 76.528 121.651Z" fill="#F57F62"/>
<path d="M92.5214 68.2632C91.4158 68.1454 88.6151 69.5811 86.2565 72.4301L86.1366 72.5546C84.4649 74.4642 83.3951 68.6275 83.2735 66.4739C83.1952 65.0764 81.7583 64.1253 80.3754 64.5378L73.0082 67.4233L71.861 67.3868C70.7828 67.708 70.1218 69.9578 70.3274 71.0309L72.229 81.0328C72.7918 83.2611 73.8782 83.9923 75.4001 85.7093L86.1366 82.8802C86.408 81.998 87.4712 77.7 87.9316 76.519C88.3454 75.4576 88.9448 74.4609 89.7041 73.597C90.5008 72.6915 91.5781 71.5537 92.4623 70.9313C92.5414 70.8873 92.6322 70.8226 92.7062 70.7877C92.8861 70.7048 93.0218 70.5877 93.1375 70.4599C93.9126 69.7213 93.6004 68.3786 92.5214 68.2632Z" fill="#F9A78D"/>
<path d="M80.5706 64.093C79.7355 64.3909 79.2718 65.3246 79.5199 66.2092C79.9936 67.9039 80.7637 70.5637 81.3648 72.1837C81.5588 72.7057 81.7694 73.2376 82.1374 73.6435C82.5054 74.0493 83.069 74.3066 83.5827 74.148C84.1255 73.9804 84.4752 73.3928 84.5551 72.8061C84.6342 72.2185 84.496 71.6268 84.3528 71.055C83.9574 69.4741 83.253 67.1014 82.6444 65.1694C82.3597 64.2664 81.4306 63.7851 80.5706 64.093Z" fill="#F9A78D"/>
<path d="M75.973 64.8573C75.1388 65.1553 74.6751 66.0897 74.9224 66.9744C75.3969 68.6682 76.167 71.3281 76.7681 72.948C76.9621 73.4708 77.1727 74.0028 77.5407 74.4078C77.9087 74.8136 78.4715 75.0709 78.986 74.9124C79.5288 74.7456 79.8785 74.158 79.9576 73.5704C80.0375 72.9837 79.8993 72.392 79.7561 71.8193C79.3607 70.2384 78.6563 67.8665 78.0477 65.9337C77.763 65.0316 76.8339 64.5494 75.973 64.8573Z" fill="#F9A78D"/>
<path d="M73.6285 66.6474C72.8742 66.9038 72.4571 67.7113 72.6827 68.4781C73.1157 69.9471 73.8192 72.2525 74.3678 73.6575C74.5443 74.1098 74.7358 74.5713 75.0697 74.9231C75.4035 75.2758 75.9139 75.4999 76.3793 75.3638C76.8696 75.2202 77.1843 74.7123 77.2543 74.2044C77.325 73.6957 77.1985 73.1828 77.0678 72.6865C76.7064 71.3164 76.0629 69.2607 75.5067 67.5852C75.2478 66.8026 74.4053 66.3835 73.6285 66.6474Z" fill="#F9A78D"/>
<path d="M70.6664 67.1055C69.9088 67.3636 69.4892 68.1744 69.7165 68.9454C70.1511 70.421 70.8579 72.7372 71.409 74.1489C71.5864 74.6037 71.7787 75.0668 72.115 75.4211C72.4497 75.7747 72.9626 76.0004 73.4296 75.8635C73.9225 75.7199 74.2389 75.2087 74.3096 74.6983C74.3804 74.1871 74.253 73.6725 74.1215 73.1738C73.7585 71.797 73.1124 69.7313 72.5538 68.0475C72.2932 67.2624 71.4473 66.8408 70.6664 67.1055Z" fill="#F9A78D"/>
<path d="M79.8824 71.5629C79.7217 71.6185 79.1181 70.274 78.5337 68.562C77.9492 66.8482 77.6054 65.415 77.7661 65.3602C77.9259 65.3046 78.5295 66.6482 79.1148 68.362C79.6992 70.074 80.0431 71.5081 79.8824 71.5629Z" fill="#F57F62"/>
<path d="M77.2052 73.9314C77.0429 73.982 76.4026 72.4359 75.7749 70.4773C75.1471 68.5188 74.7683 66.8864 74.9282 66.8308C75.0889 66.7752 75.7291 68.3213 76.3585 70.2848C76.9879 72.2483 77.3667 73.8807 77.2052 73.9314Z" fill="#F57F62"/>
<path d="M74.5635 74.0949C74.412 74.1638 73.6801 72.8526 73.089 71.1065C72.4929 69.3612 72.2731 67.874 72.4347 67.8358C72.6028 67.7943 73.0832 69.191 73.6693 70.9073C74.2513 72.6235 74.7217 74.0244 74.5635 74.0949Z" fill="#F57F62"/>
<path d="M148.555 127.152H162.276V117.177H148.555V127.152Z" fill="white"/>
<path d="M157.286 122.788C157.286 123.476 157.984 124.035 158.845 124.035C159.706 124.035 160.405 123.476 160.405 122.788C160.405 122.099 159.706 121.541 158.845 121.541C157.984 121.541 157.286 122.099 157.286 122.788Z" fill="#CDCDCD"/>
<path d="M150.801 122.788H155.664C155.87 122.788 156.039 122.679 156.039 122.546V122.406C156.039 122.273 155.87 122.165 155.664 122.165H150.801C150.594 122.165 150.426 122.273 150.426 122.406V122.546C150.426 122.679 150.594 122.788 150.801 122.788Z" fill="#CDCDCD"/>
<path d="M156.211 119.047L157.286 115.93H153.544L154.454 119.047H156.211Z" fill="#17282F"/>
<path d="M90.9671 26.0837L76.4218 11.779L73.6237 32.5612L57.612 33.5798L70.4846 50.8143L54.502 62.416L75.2468 60.2308L82.6037 77.6456L96.1557 61.6246L114.205 71.7414L111.201 53.7503L129.325 49.0461L115.575 41.0952L121.162 25.381L106.479 29.65L102.65 9.89538L90.9671 26.0837Z" fill="white"/>
<path d="M96.7441 34.4913L97.078 44.1123C97.105 44.8988 96.5429 45.5822 95.7671 45.705C94.9488 45.8347 94.1727 45.2989 94.001 44.4864L92 34.98C91.8476 34.2595 92.3599 33.57 93.0913 33.5092L95.4218 33.3138C96.1173 33.2555 96.7205 33.7927 96.7441 34.4913Z" fill="#17282F"/>
<path d="M93.7838 51.447C94.3095 52.6303 95.692 53.1637 96.8725 52.6386C98.0538 52.1125 98.5851 50.7274 98.0602 49.544C97.5353 48.3606 96.1519 47.8265 94.9714 48.3516C93.7901 48.8778 93.2588 50.2628 93.7838 51.447Z" fill="#17282F"/>
<path d="M88.1404 35.4893L88.4733 45.1096C88.5005 45.8969 87.9382 46.5794 87.1626 46.703C86.3441 46.832 85.568 46.2962 85.3963 45.4837L83.3953 35.9773C83.2438 35.2575 83.7554 34.5681 84.4874 34.5064L86.818 34.3118C87.5128 34.2536 88.1158 34.79 88.1404 35.4893Z" fill="#17282F"/>
<path d="M86.1231 52.1706C86.6488 53.3539 88.0314 53.8881 89.2126 53.362C90.3932 52.8368 90.9245 51.4519 90.3995 50.2676C89.8746 49.0842 88.4913 48.5509 87.3107 49.076C86.1302 49.6012 85.5982 50.9872 86.1231 52.1706Z" fill="#17282F"/>
</svg>
