<svg width="276" height="188" viewBox="0 0 276 188" fill="none" xmlns="http://www.w3.org/2000/svg">
<path d="M262.954 187L115.081 186.949L40.7725 186.923L36.6355 186.92L21.7068 186.918C21.7068 186.918 0.381795 169.582 0.0123887 145.075C-0.715534 96.7846 30.893 118.536 26.5988 60.3361C22.6804 7.22903 125.059 -21.4082 180.65 19.165C200.861 33.9162 202.446 44.2623 231.489 40.9913C264.273 37.2992 268.009 77.1426 256.535 99.2292C240.253 130.567 301.681 125.419 262.954 187Z" fill="#DCFBF3"/>
<mask id="mask0_4126_4602" style="mask-type:alpha" maskUnits="userSpaceOnUse" x="0" y="0" width="276" height="187">
<path d="M262.954 187L115.081 186.949L40.7725 186.923L36.6355 186.92L21.7068 186.918C21.7068 186.918 0.381795 169.582 0.0123887 145.075C-0.715534 96.7846 30.893 118.536 26.5988 60.3361C22.6804 7.22903 125.059 -21.4082 180.65 19.165C200.861 33.9162 202.446 44.2623 231.489 40.9913C264.273 37.2992 268.009 77.1426 256.535 99.2292C240.253 130.567 301.681 125.419 262.954 187Z" fill="#CEF7F3"/>
</mask>
<g mask="url(#mask0_4126_4602)">
<path d="M69.0001 104.125C45.3384 99.5664 7.96161 113.156 7.96161 113.156H-5.30762V187H279.185V154.062C279.185 154.062 234.394 131.69 203.285 128.562C172.536 125.472 154.7 145.673 124.731 138.125C100.013 131.9 94.0291 108.947 69.0001 104.125Z" fill="#ABFEE6"/>
</g>
<path d="M161.284 167.256C152.372 167.256 145.147 160.03 145.147 151.125V149.233C145.147 140.326 152.372 133.1 161.284 133.1H213.625C222.536 133.1 229.761 140.326 229.761 149.233V151.125C229.761 160.03 222.536 167.256 213.625 167.256H161.284Z" fill="#FBBE15"/>
<path d="M213.625 167.256C222.536 167.256 229.761 160.03 229.761 151.125V149.233C229.761 140.326 222.536 133.1 213.625 133.1H187.455V167.256H213.625Z" fill="#E31D25"/>
<path d="M161.284 159.245C153.421 159.245 146.879 153.615 145.447 146.173C145.256 147.164 145.147 148.187 145.147 149.233V151.125C145.147 160.03 152.372 167.256 161.284 167.256H187.455V159.245H161.284Z" fill="#F2A60E"/>
<path d="M229.761 151.125V149.233C229.761 148.707 229.732 148.192 229.683 147.68C229.633 147.17 229.557 146.668 229.464 146.173C228.03 153.615 221.488 159.245 213.626 159.245H187.455V167.256H213.626C222.536 167.256 229.761 160.03 229.761 151.125Z" fill="#CB1E25"/>
<path d="M187.455 147.317H160.842C158.665 147.317 156.898 145.551 156.898 143.376V142.914C156.898 140.737 158.665 138.971 160.842 138.971H187.455V147.317Z" fill="#FCD962"/>
<path d="M214.068 147.317H187.455V138.971H214.068C216.247 138.971 218.012 140.737 218.012 142.914V143.376C218.012 145.551 216.247 147.317 214.068 147.317Z" fill="#EF4E62"/>
<path d="M173.412 47.9114V47.7581H170.521C165.916 47.7581 162.185 44.0141 162.185 39.3969V19.7927H134.236C131.194 19.7927 128.541 21.4331 127.085 23.8752C125.63 21.4331 122.977 19.7927 119.933 19.7927H91.9834V39.3969C91.9834 44.0141 88.2528 47.7581 83.6481 47.7581H80.7563V47.8878C76.2246 47.9704 72.5737 51.6764 72.5737 56.2423V178.639C72.5737 183.255 76.3052 187 80.9099 187H172.777C177.382 187 181.113 183.255 181.113 178.639V56.2423C181.113 51.839 177.72 48.2381 173.412 47.9114Z" fill="#C1D1FF"/>
<path d="M173.647 27.0324C173.647 31.6496 169.915 35.3945 165.31 35.3945H88.3752C83.7705 35.3945 80.0391 31.6496 80.0391 27.0324V8.3621C80.0391 3.744 83.7705 2.28882e-05 88.3752 2.28882e-05H165.31C169.915 2.28882e-05 173.647 3.744 173.647 8.3621V27.0324Z" fill="#2B478B"/>
<path d="M181.113 178.639V56.2423C181.113 51.839 177.72 48.2381 173.412 47.9114V47.7581H170.521C165.916 47.7581 162.185 44.0141 162.185 39.3969V35.3944H154.953C154.585 40.4672 153.979 49.6723 160.018 50.9472C167.951 52.6247 170.468 55.9788 170.468 61.428C170.468 66.8781 170.468 177.131 170.468 177.131C170.468 177.131 170.58 187 157.565 187H172.777C177.382 187 181.113 183.255 181.113 178.639Z" fill="#798FCF"/>
<path d="M165.31 2.28882e-05H156.95C161.554 2.28882e-05 165.286 3.744 165.286 8.3621V27.0324C165.286 31.6496 161.554 35.3945 156.95 35.3945H165.31C169.915 35.3945 173.646 31.6496 173.646 27.0324V8.3621C173.646 3.744 169.915 2.28882e-05 165.31 2.28882e-05Z" fill="#182953"/>
<path d="M85.0425 5.95862V29.4348C85.0425 29.898 85.417 30.2727 85.8788 30.2727C86.3398 30.2727 86.7143 29.898 86.7143 29.4348V5.95862C86.7143 5.49546 86.3398 5.12075 85.8788 5.12075C85.417 5.12075 85.0425 5.49546 85.0425 5.95862Z" fill="#C1D1FF"/>
<path d="M91.8701 5.95862V29.4348C91.8701 29.898 92.2446 30.2727 92.7056 30.2727C93.1674 30.2727 93.5419 29.898 93.5419 29.4348V5.95862C93.5419 5.49546 93.1674 5.12075 92.7056 5.12075C92.2446 5.12075 91.8701 5.49546 91.8701 5.95862Z" fill="#C1D1FF"/>
<path d="M98.6992 5.95862V29.4348C98.6992 29.898 99.0729 30.2727 99.5347 30.2727C99.9965 30.2727 100.371 29.898 100.371 29.4348V5.95862C100.371 5.49546 99.9965 5.12075 99.5347 5.12075C99.0729 5.12075 98.6992 5.49546 98.6992 5.95862Z" fill="#C1D1FF"/>
<path d="M105.524 5.95862V29.4348C105.524 29.898 105.899 30.2727 106.361 30.2727C106.823 30.2727 107.196 29.898 107.196 29.4348V5.95862C107.196 5.49546 106.823 5.12075 106.361 5.12075C105.899 5.12075 105.524 5.49546 105.524 5.95862Z" fill="#C1D1FF"/>
<path d="M112.352 5.95862V29.4348C112.352 29.898 112.726 30.2727 113.188 30.2727C113.65 30.2727 114.024 29.898 114.024 29.4348V5.95862C114.024 5.49546 113.65 5.12075 113.188 5.12075C112.726 5.12075 112.352 5.49546 112.352 5.95862Z" fill="#C1D1FF"/>
<path d="M119.18 5.95862V29.4348C119.18 29.898 119.554 30.2727 120.016 30.2727C120.478 30.2727 120.851 29.898 120.851 29.4348V5.95862C120.851 5.49546 120.478 5.12075 120.016 5.12075C119.554 5.12075 119.18 5.49546 119.18 5.95862Z" fill="#C1D1FF"/>
<path d="M126.008 5.95862V29.4348C126.008 29.898 126.382 30.2727 126.844 30.2727C127.306 30.2727 127.68 29.898 127.68 29.4348V5.95862C127.68 5.49546 127.306 5.12075 126.844 5.12075C126.382 5.12075 126.008 5.49546 126.008 5.95862Z" fill="#C1D1FF"/>
<path d="M132.833 5.95862V29.4348C132.833 29.898 133.207 30.2727 133.669 30.2727C134.13 30.2727 134.505 29.898 134.505 29.4348V5.95862C134.505 5.49546 134.13 5.12075 133.669 5.12075C133.207 5.12075 132.833 5.49546 132.833 5.95862Z" fill="#C1D1FF"/>
<path d="M139.661 5.95862V29.4348C139.661 29.898 140.036 30.2727 140.497 30.2727C140.958 30.2727 141.333 29.898 141.333 29.4348V5.95862C141.333 5.49546 140.958 5.12075 140.497 5.12075C140.036 5.12075 139.661 5.49546 139.661 5.95862Z" fill="#C1D1FF"/>
<path d="M146.488 5.95862V29.4348C146.488 29.898 146.862 30.2727 147.324 30.2727C147.786 30.2727 148.16 29.898 148.16 29.4348V5.95862C148.16 5.49546 147.786 5.12075 147.324 5.12075C146.862 5.12075 146.488 5.49546 146.488 5.95862Z" fill="#C1D1FF"/>
<path d="M153.316 5.95862V29.4348C153.316 29.898 153.69 30.2727 154.152 30.2727C154.614 30.2727 154.989 29.898 154.989 29.4348V5.95862C154.989 5.49546 154.614 5.12075 154.152 5.12075C153.69 5.12075 153.316 5.49546 153.316 5.95862Z" fill="#C1D1FF"/>
<path d="M160.144 5.95862V29.4348C160.144 29.898 160.519 30.2727 160.98 30.2727C161.442 30.2727 161.817 29.898 161.817 29.4348V5.95862C161.817 5.49546 161.442 5.12075 160.98 5.12075C160.519 5.12075 160.144 5.49546 160.144 5.95862Z" fill="#C1D1FF"/>
<path d="M166.97 5.95862V29.4348C166.97 29.898 167.343 30.2727 167.805 30.2727C168.267 30.2727 168.642 29.898 168.642 29.4348V5.95862C168.642 5.49546 168.267 5.12075 167.805 5.12075C167.343 5.12075 166.97 5.49546 166.97 5.95862Z" fill="#C1D1FF"/>
<path d="M92.8308 171.801C92.8308 175.084 90.1758 177.747 86.907 177.747H86.2109C82.9404 177.747 80.2837 175.084 80.2837 171.801V64.7586C80.2837 61.4752 82.9404 58.8133 86.2109 58.8133H86.907C90.1758 58.8133 92.8308 61.4752 92.8308 64.7586V171.801Z" fill="#F9F9F9"/>
<path d="M158.162 116.654C158.162 134.001 144.139 148.062 126.844 148.062C109.548 148.062 95.5269 134.001 95.5269 116.654C95.5269 99.3083 109.548 85.2452 126.844 85.2452C144.139 85.2452 158.162 99.3083 158.162 116.654Z" fill="#E31D25"/>
<path d="M133.312 135.027H120.377V98.2801H133.312V135.027Z" fill="white"/>
<path d="M145.164 110.168V123.137H108.521V110.168H145.164Z" fill="white"/>
<path d="M181.079 152.9C172.167 152.9 164.942 160.126 164.942 169.031L164.942 170.923C164.941 179.83 172.165 187.056 181.076 187.056L233.418 187.056C242.328 187.056 249.554 179.83 249.555 170.923L249.555 169.031C249.555 160.126 242.331 152.9 233.42 152.9L181.079 152.9Z" fill="#FBBE15"/>
<path d="M233.42 152.9C242.331 152.9 249.556 160.126 249.555 169.031L249.555 170.923C249.554 179.83 242.329 187.056 233.418 187.056L207.248 187.056L207.25 152.9L233.42 152.9Z" fill="#E31D25"/>
<path d="M181.078 160.91C173.216 160.91 166.674 166.54 165.241 173.983C165.05 172.992 164.941 171.969 164.942 170.923L164.942 169.031C164.942 160.126 172.168 152.9 181.079 152.9L207.25 152.9L207.249 160.91L181.078 160.91Z" fill="#F2A60E"/>
<path d="M249.555 169.031L249.555 170.923C249.555 171.449 249.526 171.964 249.477 172.475C249.426 172.986 249.351 173.488 249.257 173.983C247.824 166.54 241.283 160.91 233.42 160.91L207.249 160.91L207.25 152.9L233.421 152.9C242.331 152.9 249.556 160.126 249.555 169.031Z" fill="#CB1E25"/>
<path d="M207.249 172.838L180.636 172.838C178.459 172.838 176.692 174.604 176.692 176.78L176.692 177.242C176.691 179.419 178.459 181.185 180.635 181.185L207.248 181.185L207.249 172.838Z" fill="#FCD962"/>
<path d="M233.862 172.838L207.249 172.838L207.248 181.185L233.862 181.185C236.04 181.185 237.805 179.419 237.805 177.242L237.805 176.78C237.805 174.604 236.04 172.838 233.862 172.838Z" fill="#EF4E62"/>
<path d="M43.6264 187.056C34.7148 187.056 27.4902 179.83 27.4902 170.925V169.033C27.4902 160.125 34.7148 152.9 43.6264 152.9H95.9678C104.879 152.9 112.104 160.125 112.104 169.033V170.925C112.104 179.83 104.879 187.056 95.9678 187.056H43.6264Z" fill="#FBBE15"/>
<path d="M95.9677 187.056C104.879 187.056 112.104 179.83 112.104 170.925V169.033C112.104 160.125 104.879 152.9 95.9677 152.9H69.7974V187.056H95.9677Z" fill="#E31D25"/>
<path d="M43.6264 179.045C35.7639 179.045 29.2221 173.415 27.7895 165.973C27.5989 166.964 27.4902 167.987 27.4902 169.033V170.925C27.4902 179.83 34.7152 187.056 43.6264 187.056H69.7975V179.045H43.6264Z" fill="#F2A60E"/>
<path d="M112.104 170.925V169.033C112.104 168.507 112.075 167.992 112.026 167.48C111.975 166.97 111.9 166.468 111.806 165.973C110.373 173.415 103.831 179.045 95.9685 179.045H69.7974V187.056H95.9685C104.879 187.056 112.104 179.83 112.104 170.925Z" fill="#CB1E25"/>
<path d="M69.7977 167.117H43.1847C41.0081 167.117 39.2407 165.351 39.2407 163.176V162.714C39.2407 160.537 41.0081 158.771 43.1847 158.771H69.7977V167.117Z" fill="#FCD962"/>
<path d="M96.4112 167.117H69.7974V158.771H96.4112C98.5894 158.771 100.354 160.537 100.354 162.714V163.176C100.354 165.351 98.5894 167.117 96.4112 167.117Z" fill="#EF4E62"/>
</svg>
