<svg width="324" height="192" viewBox="0 0 324 192" fill="none" xmlns="http://www.w3.org/2000/svg">
<path d="M286.454 192L138.581 191.949L64.2725 191.923L60.1355 191.92L45.2068 191.918C45.2068 191.918 23.8818 174.582 23.5124 150.075C22.7845 101.785 54.393 123.536 50.0988 65.3361C46.1804 12.229 148.559 -16.4082 204.15 24.165C224.361 38.9162 225.946 49.2624 254.989 45.9913C287.773 42.2992 291.509 82.1426 280.035 104.229C263.753 135.567 325.181 130.419 286.454 192Z" fill="#F7F0FF"/>
<mask id="mask0_4951_27532" style="mask-type:alpha" maskUnits="userSpaceOnUse" x="23" y="5" width="277" height="187">
<path d="M286.454 192L138.581 191.949L64.2725 191.923L60.1355 191.92L45.2068 191.918C45.2068 191.918 23.8818 174.582 23.5124 150.075C22.7845 101.785 54.393 123.536 50.0988 65.3361C46.1804 12.229 148.559 -16.4082 204.15 24.165C224.361 38.9162 225.946 49.2624 254.989 45.9913C287.773 42.2992 291.509 82.1426 280.035 104.229C263.753 135.567 325.181 130.419 286.454 192Z" fill="#CEF7F3"/>
</mask>
<g mask="url(#mask0_4951_27532)">
<path d="M92.5001 109.125C68.8384 104.566 31.4616 118.156 31.4616 118.156H18.1924V192H302.685V159.062C302.685 159.062 257.894 136.689 226.785 133.562C196.036 130.471 178.2 150.672 148.231 143.125C123.513 136.899 117.529 113.947 92.5001 109.125Z" fill="#F1E6FF"/>
</g>
<path d="M250.302 41.1161C247.574 42.5099 249.425 44.7486 252.546 46.8502C248.186 52.2333 242.528 59.5807 241.865 61.8407L220.477 66.642L203.477 71.142L191.044 74.615C191.057 74.3997 191.07 74.1971 191.083 74.0078L181.349 76.0098L127.816 86.0196C123.355 86.0196 113.946 86.2198 111.999 87.0206C109.566 88.0216 96.5883 90.0236 94.155 89.0226C92.6897 88.4198 88.3692 86.051 84.8497 84.1214C82.5249 82.8468 80.5494 81.7637 79.9772 81.5078C76.1324 79.7884 73.4016 82.1278 70.7407 84.4074C70.2989 84.7859 69.8589 85.1628 69.4161 85.5191C69.4161 85.5191 42.3262 95.6823 34.4772 110.508C34.309 110.826 34.1434 111.157 33.9806 111.5C29.4869 117.778 28.3268 130.19 27.019 144.182C26.6843 147.763 26.34 151.447 25.9276 155.158C23.9276 173.158 29.4276 177.992 32.4276 178.158C36.1552 177.816 40.8663 177.266 45.9772 176.659V186.008H58.9772V175.146C72.7656 173.619 86.0499 172.547 88.9772 174.508C92.3278 176.752 98.3032 175.071 104.412 173.352C107.672 172.434 110.97 171.506 113.928 171.158C122.428 170.158 132.977 170.508 138.977 174.508C143.777 177.708 163.261 175.492 171.428 172.158C173.428 171.492 178.236 172.083 183.928 173.658C205.662 179.675 224.65 175.506 234.936 173.247C237.215 172.746 239.067 172.34 240.428 172.158C244.068 171.673 244.999 172.012 246.937 172.719C248.992 173.468 252.18 174.629 260.928 175.658C266.367 176.298 270.22 176.222 272.977 175.854V186.008H285.977V174.832C289.831 175.242 294.946 175.443 298.928 175.158C304.749 174.743 304.346 168.793 303.47 155.873L303.47 155.871L303.469 155.866C303.292 153.253 303.096 150.354 302.928 147.158C301.928 128.158 294.477 110.508 292.977 108.008V83.5194C292.644 81.4353 291.177 76.1207 287.977 71.5357C286.269 69.0883 280.829 64.5385 275.671 60.9073C276.277 59.5918 275.897 58.3918 275.29 57.3075C274.63 56.6332 273.792 56.324 272.871 55.9845C272.091 55.6969 271.253 55.3877 270.414 54.8165C270.211 52.5331 269.074 47.3436 266.148 44.8526C263.223 42.3616 260.46 42.154 259.444 42.3616C258.428 40.9086 255.178 38.6252 250.302 41.1161Z" fill="#192E35"/>
<path fill-rule="evenodd" clip-rule="evenodd" d="M220.477 66.6418L241.865 61.8405C242.376 60.0979 245.857 55.3309 249.423 50.7718C250.482 49.418 251.548 48.0825 252.546 46.85C251.557 46.1841 250.696 45.5044 250.067 44.8422C248.712 43.4145 248.438 42.0681 250.302 41.1159C255.178 38.6249 258.428 40.9083 259.444 42.3614C260.46 42.1538 263.223 42.3614 266.148 44.8524C269.074 47.3434 270.211 52.5329 270.414 54.8163C271.253 55.3875 272.091 55.6967 272.871 55.9843C273.792 56.3237 274.63 56.633 275.29 57.3072C275.896 58.3916 276.277 59.5915 275.671 60.9071C280.829 64.5383 286.269 69.088 287.977 71.5354C291.177 76.1205 292.644 81.435 292.977 83.5192V108.007C294.477 110.507 301.928 128.158 302.928 147.158C303.096 150.354 303.292 153.252 303.469 155.866L303.47 155.87L303.47 155.873C304.346 168.793 304.749 174.742 298.928 175.158C296.516 175.331 293.688 175.325 290.977 175.202C289.212 175.122 287.497 174.993 285.977 174.832V186.008H272.977V175.854C271.603 176.037 269.957 176.148 267.977 176.134C265.985 176.12 263.656 175.979 260.928 175.658C252.18 174.629 248.992 173.468 246.937 172.719C244.999 172.012 244.068 171.673 240.428 172.158C239.067 172.34 237.215 172.746 234.936 173.247C224.65 175.505 205.662 179.674 183.928 173.658C178.236 172.083 173.428 171.492 171.428 172.158C163.261 175.492 143.777 177.707 138.977 174.507C132.977 170.507 122.428 170.158 113.928 171.158C110.97 171.506 107.672 172.434 104.412 173.351C98.3032 175.07 92.3278 176.752 88.9772 174.507C86.0499 172.547 72.7656 173.619 58.9772 175.146V186.008H45.9772V176.659C44.2579 176.863 42.5838 177.061 40.9772 177.246C37.8079 177.612 34.9012 177.931 32.4275 178.158C29.4275 177.992 23.9275 173.158 25.9275 155.158C26.3399 151.447 26.6843 147.762 27.019 144.182C28.3268 130.19 29.4869 117.778 33.9806 111.5C34.1433 111.157 34.3089 110.825 34.4772 110.508C42.3262 95.682 69.4161 85.5189 69.4161 85.5189C69.8588 85.1626 70.2988 84.7857 70.7406 84.4072C73.4015 82.1277 76.1323 79.7882 79.9772 81.5076C80.5493 81.7634 82.5249 82.8465 84.8497 84.1212C88.3692 86.0508 92.6896 88.4196 94.155 89.0224C96.5883 90.0233 109.566 88.0214 111.999 87.0204C113.946 86.2196 123.355 86.0194 127.816 86.0194L181.349 76.0096L191.083 74.0076C191.07 74.1968 191.057 74.3995 191.044 74.6147L203.477 71.1418L220.477 66.6418ZM196.506 67.8975L202.165 66.317L219.289 61.784L238.449 57.483C238.63 57.178 238.81 56.8891 238.978 56.6238C239.754 55.4009 240.731 54.0028 241.784 52.5644C242.991 50.9138 244.346 49.1427 245.697 47.4196C245.351 46.9749 245.04 46.5022 244.783 46.0022C244.123 44.7179 243.573 42.7452 244.37 40.5787C245.131 38.5092 246.741 37.3204 248.027 36.6633C253.741 33.7442 258.568 35.1069 261.504 37.3858C263.892 37.6824 266.72 38.7726 269.39 41.0455C271.821 43.1162 273.212 45.9905 274.012 48.2327C274.401 49.3249 274.7 50.4088 274.921 51.4096C275.807 51.7341 277.48 52.3962 278.863 53.81L279.329 54.2857L279.654 54.8667C280.139 55.7339 280.723 57.0054 280.916 58.5323C282.826 59.9534 284.703 61.4422 286.367 62.8653C288.594 64.77 290.824 66.8773 292.077 68.6739C295.806 74.0162 297.492 80.0876 297.914 82.7295L297.977 83.1218V106.781C299.201 109.295 301.117 114.042 302.921 119.931C305.172 127.282 307.393 136.864 307.921 146.895C308.087 150.048 308.281 152.912 308.458 155.528L308.458 155.534L308.459 155.542L308.46 155.562L308.503 156.19C308.903 162.08 309.257 167.279 308.644 171.014C308.31 173.054 307.595 175.36 305.864 177.207C304.014 179.179 301.629 179.978 299.284 180.146C296.721 180.329 293.787 180.327 290.977 180.207V191.008H267.977V181.134C265.767 181.12 263.241 180.965 260.343 180.624C251.203 179.549 247.638 178.296 245.225 177.416C244.201 177.043 243.998 176.989 243.721 176.955C243.407 176.917 242.749 176.893 241.088 177.114C239.986 177.261 238.379 177.61 236.009 178.13L235.893 178.156C225.511 180.435 205.524 184.824 182.594 178.477C179.921 177.737 177.548 177.255 175.693 177.031C174.086 176.837 173.284 176.892 173.059 176.907C173.038 176.909 173.022 176.91 173.011 176.91C168.259 178.784 160.963 180.185 154.378 180.764C150.963 181.064 147.541 181.161 144.563 180.946C141.862 180.751 138.577 180.25 136.204 178.668C134.176 177.316 130.967 176.356 126.873 175.931C122.872 175.515 118.489 175.656 114.512 176.124C112.023 176.417 109.129 177.218 105.767 178.164L105.572 178.219C102.661 179.039 99.3508 179.97 96.3172 180.372C93.4272 180.755 89.6414 180.838 86.4362 178.818C86.3976 178.808 86.3475 178.795 86.2844 178.78C85.9341 178.699 85.3828 178.613 84.591 178.549C83.0073 178.421 80.8683 178.411 78.2476 178.515C74.164 178.676 69.2258 179.098 63.9772 179.639V191.008H40.9772V182.279C38.0074 182.62 35.257 182.919 32.8848 183.137L32.518 183.171L32.1502 183.151C28.1262 182.927 24.6737 179.877 22.7111 175.325C20.7345 170.741 19.9079 164.058 20.9581 154.606C21.3649 150.945 21.7054 147.304 22.0407 143.716L22.0546 143.568C22.698 136.684 23.3312 129.908 24.3843 124.062C25.3924 118.464 26.8918 113.023 29.6507 108.968C29.783 108.699 29.9188 108.432 30.0583 108.168C34.7078 99.3859 44.5869 92.5454 52.4249 88.1036C56.4774 85.807 60.2603 84.0017 63.0283 82.7702C64.4153 82.1532 65.5553 81.6767 66.3564 81.3516C66.5392 81.2774 66.7044 81.2111 66.851 81.1527C67.0506 80.9843 67.2602 80.8049 67.4877 80.61C67.5455 80.5605 67.6049 80.5094 67.666 80.457C68.871 79.4221 70.7159 77.8379 72.9098 76.8774C75.5625 75.7161 78.682 75.4512 82.0184 76.9432C82.7829 77.2851 84.8155 78.3998 86.8472 79.5141C86.9827 79.5884 87.1183 79.6628 87.2534 79.7369C90.699 81.626 94.3482 83.6175 95.7639 84.2693C95.7897 84.2714 95.8183 84.2735 95.8498 84.2756C96.2041 84.299 96.7305 84.3039 97.4318 84.2764C98.8255 84.2218 100.591 84.0531 102.433 83.8138C104.264 83.576 106.084 83.2798 107.566 82.9895C108.308 82.8441 108.934 82.7063 109.418 82.585C109.829 82.4819 110.033 82.4163 110.088 82.3985C110.105 82.393 110.108 82.3921 110.097 82.3963C111.347 81.8823 113.008 81.6751 114.132 81.5546C115.497 81.4083 117.105 81.3025 118.727 81.2253C121.767 81.0805 125.065 81.0265 127.349 81.0201L180.386 71.103L196.514 67.7858L196.506 67.8975Z" fill="#192E35"/>
<rect width="307" height="3" transform="matrix(-1 0 0 1 315.5 189)" fill="#192E35"/>
<path d="M231.5 97.4999C219.515 102.221 222.167 104.667 214.5 107H293.5V83.4999C293.167 81.4999 291.7 76.3999 288.5 71.9999C285.3 67.5999 271 69.4998 268 69.9997C257.667 77.6664 248 90.9999 231.5 97.4999Z" fill="#EAEAEA"/>
<path d="M248.5 82.5001C247.71 84.1177 246.5 89.0002 246.5 89.0002L256 82.5001L260.5 77.5002C260.5 77.5002 257.66 76.8382 256.5 77.0001C252.745 77.5241 250.164 79.0935 248.5 82.5001Z" fill="#EAEAEA"/>
<path d="M226.833 98.192C225.78 100.28 225.5 104 225.5 104L236.833 98.192L243 91.5002C243 91.5002 239.047 90.8841 237.5 91.0931C232.493 91.7693 229.052 93.795 226.833 98.192Z" fill="#EAEAEA"/>
<ellipse cx="1.73951" cy="3.86157" rx="1.73951" ry="3.86157" transform="matrix(-0.892871 0.450313 0.450313 0.892871 281.022 63)" fill="#EAEAEA"/>
<path d="M286.681 68.0025C284.549 67.9514 282.802 68.6886 282.779 69.6491C282.756 70.6095 284.466 71.4295 286.598 71.4805C288.73 71.5316 290.477 70.7944 290.5 69.8339C290.523 68.8735 288.813 68.0535 286.681 68.0025Z" fill="#EAEAEA"/>
<ellipse cx="1.73951" cy="3.86157" rx="1.73951" ry="3.86157" transform="matrix(-0.892871 0.450313 0.450313 0.892871 258.022 71)" fill="#EAEAEA"/>
<path fill-rule="evenodd" clip-rule="evenodd" d="M275.767 68.2914C273.079 68.1607 269.672 68.2868 267.194 69.4457C264.717 70.6046 262.436 73.1397 260.814 75.2864C259.991 76.3748 259.316 77.3933 258.847 78.1397C258.612 78.5133 258.428 78.8195 258.302 79.0335C258.239 79.1404 258.191 79.2244 258.158 79.2822L258.12 79.3488L258.11 79.3667L258.106 79.3732C258.106 79.3733 258.106 79.374 258.761 79.7386L258.106 79.3732C257.905 79.7351 258.034 80.1926 258.396 80.394C258.758 80.5954 259.215 80.4653 259.416 80.1034C259.416 80.1034 259.416 80.1035 259.416 80.1034M259.416 80.1034L259.418 80.0997L259.426 80.0855L259.46 80.0264C259.49 79.9738 259.535 79.8954 259.595 79.7941C259.714 79.5915 259.89 79.298 260.117 78.9383C260.569 78.2183 261.22 77.2367 262.01 76.1907C263.614 74.0684 265.709 71.7966 267.83 70.8044C269.951 69.8122 273.037 69.6604 275.694 69.7897C277.004 69.8534 278.174 69.9831 279.017 70.097C279.438 70.1538 279.776 70.2066 280.008 70.245C280.124 70.2642 280.213 70.2797 280.273 70.2903L280.34 70.3024L280.356 70.3054L280.359 70.3061C280.766 70.3834 281.16 70.1164 281.237 69.7095C281.314 69.3026 281.047 68.91 280.64 68.8326L280.5 69.5694C280.64 68.8326 280.64 68.8326 280.64 68.8326L280.638 68.8321L280.632 68.8311L280.612 68.8273L280.536 68.8137C280.471 68.802 280.375 68.7853 280.253 68.7651C280.008 68.7246 279.655 68.6695 279.218 68.6105C278.344 68.4924 277.13 68.3577 275.767 68.2914" fill="#868686"/>
<path fill-rule="evenodd" clip-rule="evenodd" d="M257.193 76.713C257.034 76.3303 256.596 76.1487 256.213 76.3074L256.5 77.0002C256.213 76.3074 256.213 76.3073 256.213 76.3074L256.211 76.3082L256.207 76.3099L256.193 76.3159L256.14 76.3382C256.094 76.3577 256.028 76.3862 255.944 76.4234C255.775 76.4977 255.534 76.6066 255.238 76.7468C254.646 77.027 253.834 77.4335 252.95 77.9397C251.211 78.9355 249.086 80.3777 247.888 82.0663C247.031 83.2759 246.378 84.9953 245.945 86.3549C245.726 87.0456 245.557 87.6644 245.443 88.1108C245.386 88.3343 245.342 88.5151 245.313 88.641C245.298 88.7039 245.287 88.7531 245.279 88.7871L245.27 88.8263L245.268 88.837L245.267 88.84L245.267 88.8413C245.267 88.8414 245.267 88.8415 246 89.0002L245.267 88.8413C245.179 89.2461 245.437 89.6456 245.841 89.7332C246.246 89.8208 246.645 89.5638 246.733 89.159C246.733 89.159 246.733 89.1591 246.733 89.159L246.733 89.1572L246.735 89.1494L246.743 89.1161C246.749 89.0862 246.76 89.0413 246.773 88.9828C246.801 88.8658 246.842 88.6949 246.896 88.4823C247.005 88.0566 247.166 87.4664 247.375 86.8093C247.799 85.4736 248.396 83.943 249.112 82.934C250.107 81.5301 251.982 80.2223 253.695 79.2413C254.537 78.759 255.314 78.3704 255.879 78.1025C256.162 77.9687 256.391 77.8654 256.549 77.796C256.628 77.7613 256.688 77.7351 256.729 77.7177L256.774 77.6985L256.785 77.694L256.787 77.6931C256.787 77.6931 256.787 77.6931 256.787 77.6931M257.193 76.713C257.352 77.0955 257.17 77.5344 256.787 77.6931L257.193 76.713Z" fill="#868686"/>
<path fill-rule="evenodd" clip-rule="evenodd" d="M238.52 90.4645C236.33 90.7024 233.568 91.2137 231.621 92.3537C229.615 93.5284 227.787 95.7724 226.492 97.6381C225.835 98.5846 225.298 99.4606 224.924 100.1C224.737 100.42 224.591 100.682 224.491 100.864C224.441 100.956 224.402 101.027 224.376 101.076L224.346 101.133L224.338 101.149L224.336 101.153L224.335 101.154C224.335 101.154 224.335 101.155 225 101.501L224.335 101.154C224.144 101.522 224.287 101.975 224.654 102.166C225.022 102.357 225.474 102.214 225.665 101.847M225.665 101.847L225.667 101.844L225.673 101.832L225.7 101.782C225.723 101.738 225.759 101.671 225.806 101.585C225.9 101.413 226.04 101.164 226.22 100.857C226.579 100.242 227.095 99.4002 227.725 98.4933C229.002 96.6522 230.674 94.6462 232.379 93.6482C234.034 92.6792 236.522 92.1904 238.682 91.9557C239.746 91.84 240.701 91.7888 241.39 91.7665C241.734 91.7554 242.011 91.7515 242.201 91.7504C242.296 91.7498 242.369 91.75 242.418 91.7502L242.472 91.7507L242.485 91.7508L242.488 91.7509C242.488 91.7509 242.488 91.7509 242.488 91.7509C242.902 91.7573 243.243 91.4269 243.25 91.0128C243.256 90.5986 242.926 90.2576 242.512 90.2511L242.5 91.001C242.512 90.2511 242.512 90.2511 242.512 90.2511L242.505 90.251L242.488 90.2508L242.426 90.2503C242.372 90.25 242.293 90.2498 242.192 90.2504C241.991 90.2516 241.7 90.2557 241.342 90.2673C240.625 90.2904 239.63 90.3437 238.52 90.4645" fill="#868686"/>
<path d="M260.4 101.967C256.034 104.077 253.481 107.535 251 109H293.644C294.471 102.26 295.43 87.022 292.652 79.989C289.873 72.9561 288.485 71.2326 286.5 70.5C288.815 73.5769 289.774 79.8132 288.186 86.1429C286.598 92.4726 276.94 98.4506 272.309 100.648C270.159 100.209 264.767 99.8571 260.4 101.967Z" fill="#D1D1D1"/>
<path d="M250.5 76.1019C256.5 76.1019 259.667 71.3338 260.5 69.5005C257.833 67.3338 251.2 64.3019 246 65.1019C240.8 65.9019 240.5 69.1019 241 70.6019C241.667 72.4352 244.5 76.1019 250.5 76.1019Z" fill="#FFC596"/>
<rect width="13" height="13" transform="matrix(-1 0 0 1 286.5 174)" fill="#868686"/>
<rect width="13" height="13" transform="matrix(-1 0 0 1 59.5 174)" fill="#868686"/>
<path d="M293.5 109C292.3 107 289.333 107.667 287.5 107.5C280.833 103.5 263.95 98.8509 249.95 103.651C235.95 108.451 127.784 105.651 75.4503 103.651C66.9503 104.151 47.8503 105.851 39.4503 108.651C28.9503 112.151 28.9503 133.651 26.4503 156.151C24.4503 174.151 29.9503 178.984 32.9503 179.151C49.2837 177.651 84.5 172.151 89.5 175.5C94.6385 178.942 105.95 173.151 114.45 172.151C122.95 171.151 133.5 171.5 139.5 175.5C144.3 178.7 163.784 176.484 171.95 173.151C173.95 172.484 178.758 173.075 184.45 174.651C211 182 233.45 174.151 240.95 173.151C248.45 172.151 244.45 174.651 261.45 176.651C278.45 178.651 279.95 173.651 280.95 174.651C281.95 175.651 292.45 176.651 299.45 176.151C306.45 175.651 304.45 167.151 303.45 148.151C302.45 129.151 295 111.5 293.5 109Z" fill="url(#paint0_linear_4951_27532)"/>
<path d="M178.258 111.61L178 111.635L178.5 101.635L182.5 87.6347L183 78.0005L204 72.1347L221 67.6347L245.5 62.1348C245.5 63.7348 246.167 64.8014 246.5 65.1348C239.5 65.6348 240 69.5005 246 74.5005C249.85 77.7091 256.333 74.0005 258.5 72.5005C258.5 77.5005 257.7 89.6348 254.5 95.6348C251.3 101.635 238.5 105.801 232.5 107.135H203C199.84 109.505 185.202 110.932 178.258 111.61Z" fill="white"/>
<path d="M241.5 69L251.5 72.4993L244 65.5C244 65.5 242.744 65.7564 242 66.5C241 67.5 241.5 69 241.5 69Z" fill="#CC966B"/>
<path d="M251.444 72.4275C248.126 70.3756 241.665 65.5972 242.37 62.8982C243.074 60.1992 251.682 49.4425 255.898 44.4015L262.857 51.5322L267.571 60.8699C268.346 62.318 268.601 65.8769 263.427 68.5271L262.205 68.925L257.5 70.5L251.444 72.4275Z" fill="#FFC596"/>
<path d="M228.534 89.6972L235.534 102.697C242.677 99.0044 245.598 97.0371 249.034 93.6972C249.034 93.6972 251.502 88.7619 250.034 86.1972C248.246 83.0721 241.034 84.1972 241.034 84.1972L228.534 89.6972Z" fill="#BBBBBB"/>
<path d="M191.606 97.0217C192.254 105.03 196.472 126.05 198.5 135.56C189.848 138.229 167.516 140.965 147.4 130.555C127.284 120.144 53.2519 120.494 30 126.5C30 126.5 32.1109 116.957 35 111.5C42.849 96.6745 69.9389 86.5113 69.9389 86.5113C73.0481 84.0089 76.0167 80.4951 80.5 82.5C81.9383 83.1432 92.2444 89.0138 94.6778 90.0148C97.1111 91.0158 110.089 89.0138 112.522 88.0128C114.469 87.212 123.878 87.0118 128.339 87.0118L181.872 77.002L191.606 75C191.335 79.0039 190.957 89.0138 191.606 97.0217Z" fill="url(#paint1_linear_4951_27532)"/>
<path d="M162.427 110.432C179.331 110.432 201.158 110.112 229 90.5L235 101.5L209.658 113.083C209.658 113.083 196.061 115.189 187.285 115.733C177.594 116.334 162.427 115.733 162.427 115.733C162.427 115.733 161.929 114.673 159.941 114.673C157.952 114.673 155.466 115.38 154.472 115.733H149.5L162.427 110.432Z" fill="#FFC596"/>
<path fill-rule="evenodd" clip-rule="evenodd" d="M224.444 106.269C224.316 106.024 224.014 105.929 223.769 106.056C221.689 107.138 218.494 108.761 215.672 110.112C214.26 110.787 212.946 111.393 211.913 111.828C211.396 112.047 210.957 112.219 210.613 112.337C210.442 112.395 210.3 112.438 210.189 112.466C210.133 112.479 210.089 112.488 210.055 112.494C210.038 112.497 210.025 112.498 210.015 112.499L210.004 112.5L210.001 112.5C210.001 112.5 210 112.5 210.001 112.5L209.964 112.5L199.429 114.005C199.156 114.044 198.966 114.297 199.005 114.571C199.044 114.844 199.297 115.034 199.571 114.995L210.042 113.499C210.283 113.489 210.607 113.396 210.937 113.283C211.312 113.155 211.776 112.972 212.302 112.75C213.356 112.305 214.686 111.692 216.103 111.014C218.939 109.656 222.144 108.029 224.231 106.944C224.476 106.816 224.571 106.514 224.444 106.269Z" fill="#192E35"/>
<path fill-rule="evenodd" clip-rule="evenodd" d="M195.997 114.945C195.967 114.671 195.72 114.473 195.445 114.503L195.5 115L195.555 115.497C195.829 115.467 196.027 115.22 195.997 114.945ZM178.5 115.5C178.48 116 178.48 116 178.48 116L178.561 116.003C178.614 116.005 178.692 116.008 178.793 116.011C178.994 116.018 179.287 116.028 179.652 116.038C180.381 116.06 181.401 116.086 182.562 116.103C184.879 116.137 187.769 116.138 190.031 115.999C191.116 115.933 192.499 115.807 193.606 115.698C194.16 115.644 194.647 115.594 194.996 115.557C195.17 115.539 195.309 115.524 195.406 115.513L195.555 115.497L195.5 115L195.445 114.503L195.298 114.519C195.203 114.529 195.064 114.544 194.891 114.562C194.544 114.599 194.06 114.649 193.508 114.703C192.404 114.811 191.036 114.936 189.969 115.001C187.748 115.137 184.889 115.138 182.576 115.103C181.422 115.086 180.407 115.06 179.681 115.039C179.318 115.028 179.027 115.019 178.828 115.012C178.728 115.008 178.651 115.005 178.598 115.003L178.52 115L178.5 115.5ZM178.5 115.5L178.48 116C178.205 115.989 177.99 115.756 178 115.48C178.011 115.205 178.244 114.99 178.52 115L178.5 115.5Z" fill="#192E35"/>
<path d="M250.825 42.1083C245.949 44.5993 255.7 49.7888 261.186 52.0722C266.671 54.3556 264.233 59.5451 264.233 59.5451L261.186 63.2816C261.795 64.5271 266.061 60.7906 266.061 63.2816C266.061 65.9237 262.735 66.7545 260.5 68L258.5 72.5L269.109 67.6408C269.921 66.8105 272.891 65.6448 275.203 63.2816C277.032 61.4134 276.625 59.7527 275.813 58.2997C274.594 57.0542 272.766 57.0542 270.937 55.8087C270.734 53.5253 269.596 48.3358 266.671 45.8448C263.745 43.3538 260.982 43.1462 259.967 43.3538C258.951 41.9007 255.7 39.6174 250.825 42.1083Z" fill="#6F3530"/>
<path fill-rule="evenodd" clip-rule="evenodd" d="M244.224 66.0529C243.977 65.9294 243.676 66.0295 243.553 66.2765L244 66.5001C243.553 66.2765 243.552 66.2774 243.552 66.2783L243.551 66.2801L243.549 66.2838L243.546 66.2915C243.543 66.2969 243.541 66.3026 243.538 66.3087C243.533 66.3208 243.528 66.3344 243.523 66.3493C243.512 66.3792 243.502 66.4144 243.495 66.4548C243.48 66.5364 243.474 66.6353 243.488 66.7496C243.517 66.9794 243.623 67.2471 243.85 67.5501C244.295 68.1436 245.254 68.9359 247.276 69.9473C248.264 70.4409 248.928 70.8349 249.37 71.1441C249.785 71.4352 249.98 71.635 250.066 71.7518C249.986 71.892 249.975 72.0684 250.053 72.2237C250.176 72.4707 250.477 72.5708 250.724 72.4473L250.5 72.0001C250.724 72.4473 250.724 72.447 250.725 72.4466L250.726 72.4459L250.729 72.4444L250.736 72.441L250.75 72.4332C250.76 72.4275 250.772 72.4206 250.784 72.4125C250.809 72.3964 250.838 72.3747 250.87 72.3464C250.932 72.29 251.008 72.2021 251.058 72.0764C251.17 71.7961 251.098 71.4962 250.916 71.2228C250.741 70.9597 250.432 70.6674 249.943 70.3249C249.447 69.9779 248.736 69.5593 247.724 69.0529C245.746 68.0643 244.955 67.3567 244.65 66.9501C244.517 66.7724 244.488 66.6676 244.482 66.634C244.545 66.408 244.441 66.1617 244.224 66.0529Z" fill="#192E35"/>
<path fill-rule="evenodd" clip-rule="evenodd" d="M216.445 98.2718C216.319 98.0261 216.017 97.9292 215.772 98.0553L216 98.5001L216.228 98.9449C216.474 98.8188 216.571 98.5175 216.445 98.2718ZM181 109.5C181.069 109.995 181.069 109.995 181.069 109.995L181.104 109.99L181.205 109.976C181.294 109.963 181.425 109.944 181.594 109.919C181.931 109.869 182.422 109.796 183.032 109.7C184.254 109.508 185.957 109.228 187.887 108.874C191.74 108.167 196.517 107.162 200.155 105.975C203.427 104.908 207.45 103.147 210.642 101.66C212.241 100.915 213.637 100.237 214.633 99.7446C215.131 99.4984 215.53 99.2988 215.804 99.1605C215.941 99.0914 216.047 99.0376 216.118 99.0011L216.2 98.9594L216.228 98.9449C216.228 98.9449 216.228 98.9449 216 98.5001L215.772 98.0553L215.745 98.069L215.665 98.1099C215.594 98.1459 215.489 98.1992 215.353 98.2677C215.081 98.4049 214.686 98.6033 214.19 98.8481C213.199 99.3378 211.811 100.013 210.22 100.754C207.034 102.238 203.057 103.977 199.845 105.025C196.274 106.19 191.551 107.185 187.706 107.89C185.787 108.242 184.092 108.521 182.877 108.712C182.27 108.807 181.783 108.881 181.448 108.93C181.28 108.955 181.151 108.974 181.063 108.986L180.964 109L180.931 109.005L181 109.5ZM181 109.5L181.069 109.995C180.796 110.033 180.543 109.843 180.505 109.569C180.466 109.296 180.658 109.043 180.931 109.005L181 109.5Z" fill="#192E35"/>
<path d="M254 96.5C251.1 100.367 244.5 103.5 241 104.5C241 104.5 241 100.5 244 98C247 95.5 251.07 90.9906 250.5 87C250 83.5 256 82 258 81.5C257.667 84.5 257 92.5 254 96.5Z" fill="#EE4154"/>
<path d="M248.257 107.512C248.257 107.512 253.188 115.93 253.188 116.384C253.186 116.838 253.735 106.103 253.584 105.724C253.433 105.346 266.713 114.676 266.713 114.676L259.888 100.814L267.91 99.6736L261.559 96.6727L268.296 92.7558C268.296 92.7558 259.836 91.8343 259.306 91.7588L264.138 93.1804L258.799 96.5938L263.296 99.0273L257.78 99.3001L261.886 109.011L252.871 104.027L251.749 110.674L248.257 107.512Z" fill="#EE4154"/>
<path d="M266.597 78.0375C266.597 78.0375 269.896 84.8058 269.869 85.1548C269.841 85.5039 270.896 77.2755 270.802 76.9754C270.708 76.6759 280.377 84.6376 280.377 84.6376L275.942 73.5686L282.183 73.1633L277.472 70.4799L282.887 67.8627C282.887 67.8627 276.431 66.6552 276.027 66.5659L279.662 67.9445L275.353 70.2566L278.67 72.3942L274.409 72.2792L276.996 79.9934L270.353 75.6276L269.098 80.6762L266.597 78.0375Z" fill="#EE4154"/>
<defs>
<linearGradient id="paint0_linear_4951_27532" x1="165.261" y1="101.609" x2="165.261" y2="179.151" gradientUnits="userSpaceOnUse">
<stop stop-color="#E0ECF3"/>
<stop offset="1" stop-color="#95ACB9"/>
</linearGradient>
<linearGradient id="paint1_linear_4951_27532" x1="114.25" y1="75" x2="114.25" y2="138" gradientUnits="userSpaceOnUse">
<stop stop-color="#E0ECF3"/>
<stop offset="1" stop-color="#95ACB9"/>
</linearGradient>
</defs>
</svg>
