<svg width="276" height="187" viewBox="0 0 276 187" fill="none" xmlns="http://www.w3.org/2000/svg">
<path d="M262.954 187L115.081 186.949L40.7725 186.923L36.6355 186.92L21.7068 186.918C21.7068 186.918 0.381795 169.582 0.0123887 145.075C-0.715534 96.7846 30.893 118.536 26.5988 60.3361C22.6804 7.22905 125.059 -21.4082 180.65 19.165C200.861 33.9162 202.446 44.2624 231.489 40.9913C264.273 37.2992 268.009 77.1426 256.535 99.2292C240.253 130.567 301.681 125.419 262.954 187Z" fill="#F7F0FF"/>
<mask id="mask0_4951_27545" style="mask-type:alpha" maskUnits="userSpaceOnUse" x="0" y="0" width="276" height="187">
<path d="M262.954 187L115.081 186.949L40.7725 186.923L36.6355 186.92L21.7068 186.918C21.7068 186.918 0.381795 169.582 0.0123887 145.075C-0.715534 96.7846 30.893 118.536 26.5988 60.3361C22.6804 7.22905 125.059 -21.4082 180.65 19.165C200.861 33.9162 202.446 44.2624 231.489 40.9913C264.273 37.2992 268.009 77.1426 256.535 99.2292C240.253 130.567 301.681 125.419 262.954 187Z" fill="#CEF7F3"/>
</mask>
<g mask="url(#mask0_4951_27545)">
<path d="M69.0001 104.125C45.3384 99.566 7.96161 113.156 7.96161 113.156H-5.30762V187H279.185V154.062C279.185 154.062 234.394 131.689 203.285 128.562C172.536 125.471 154.7 145.672 124.731 138.125C100.013 131.899 94.0291 108.947 69.0001 104.125Z" fill="#F1E6FF"/>
</g>
<g filter="url(#filter0_d_4951_27545)">
<circle cx="138.5" cy="93.5" r="77.5" fill="#DCFBF3"/>
</g>
<mask id="mask1_4951_27545" style="mask-type:alpha" maskUnits="userSpaceOnUse" x="61" y="16" width="155" height="155">
<circle cx="138.5" cy="93.5" r="77.5" fill="#CED4DA"/>
</mask>
<g mask="url(#mask1_4951_27545)">
<path d="M147.686 -140.849L147.664 -140.985L147.605 -141.111L146.942 -142.54C149.047 -141.728 152.014 -141.542 155.99 -142.735C156.726 -142.955 157.364 -143.46 157.916 -144.08C158.475 -144.708 159.002 -145.518 159.504 -146.462C160.508 -148.349 161.473 -150.892 162.393 -153.88C164.236 -159.866 165.943 -167.801 167.405 -176.246C170.329 -193.131 172.299 -212.21 172.39 -222.119C172.438 -227.449 169.664 -231.582 165.349 -234.66C161.06 -237.719 155.189 -239.789 148.81 -241.074C136.053 -243.643 120.906 -243.138 111.34 -240.746C101.542 -238.297 95.1409 -230.992 91.1291 -223.019C87.1236 -215.058 85.43 -206.304 85.0938 -200.639C84.1002 -190.959 86.6864 -166.618 104.7 -145.285C104.708 -143.365 104.779 -141.746 104.909 -140.393L95.6493 -120.948C91.7581 -119.898 87.2182 -118.287 81.629 -116.131L81.6245 -116.129C74.4448 -113.319 66.1786 -109.565 58.7281 -105.051C51.2955 -100.547 44.5863 -95.2358 40.6162 -89.2806C29.6861 -72.8855 -7.63591 -29.6014 -26.5793 -10.0047L-26.6861 -9.8943L-26.7547 -9.75693C-31.2577 -0.751007 -38.4281 12.5451 -45.6016 25.8466L-45.67 25.9735C-55.5957 44.3784 -65.5511 62.8382 -68.3098 69.7351C-70.7586 75.8572 -70.2721 81.2843 -68.5903 85.0945C-67.7531 86.9913 -66.6081 88.5116 -65.3548 89.5038C-64.1214 90.4802 -62.6541 91.0351 -61.2561 90.6856C-60.5692 90.5139 -60.0182 90.1592 -59.6225 89.639C-59.2415 89.1383 -59.0523 88.5477 -58.9581 87.9694C-58.78 86.8762 -58.9049 85.538 -59.0203 84.3022L-59.0287 84.2123C-59.1259 83.1693 -59.2179 82.157 -59.1963 81.2162C-59.0053 82.4513 -58.7285 83.7921 -58.3433 85.1582C-57.4373 88.3709 -55.9041 91.8221 -53.3818 94.3444C-51.8911 95.8351 -49.8209 96.129 -47.694 95.8154C-45.567 95.5017 -43.2095 94.5622 -40.8869 93.3468C-36.3005 90.9467 -31.5996 87.3366 -28.6142 84.6995C-27.5817 84.2752 -26.8463 83.5861 -26.4372 82.671C-26.0194 81.7364 -25.9912 80.6768 -26.16 79.6319C-26.4947 77.5599 -27.6666 75.1776 -28.9927 72.9943C-30.3345 70.7852 -31.9014 68.6726 -33.1263 67.119C-33.7402 66.3404 -34.2712 65.6982 -34.6495 65.2499C-34.7612 65.1175 -34.8596 65.002 -34.943 64.9047L-30.8092 40.1916C-27.9214 37.2663 -24.4293 33.0334 -21.0104 28.8892L-20.9839 28.8571C-18.3637 25.6811 -15.7822 22.5522 -13.5061 20.0415C-12.3685 18.7866 -11.3195 17.6998 -10.3904 16.8458C-9.44799 15.9796 -8.68166 15.4026 -8.10735 15.1155C-7.20296 14.6633 -6.10389 13.6899 -4.91608 12.4503C-3.70078 11.182 -2.30434 9.53917 -0.800537 7.64207C2.20866 3.84584 5.68691 -1.01839 9.06609 -6.05644C12.4462 -11.0959 15.7362 -16.3227 18.3683 -20.8481C20.9842 -25.3456 22.9963 -29.2273 23.7684 -31.5438C23.9937 -32.2197 24.571 -33.086 25.5542 -34.124C26.5226 -35.1464 27.819 -36.2675 29.3822 -37.459C32.5075 -39.8412 36.6206 -42.4457 41.1146 -45.0387C49.7472 -50.0197 59.6977 -54.9084 66.5343 -58.0297L68.964 -53.8992C74.2284 -42.9884 80.878 -28.2557 85.9438 -14.8318C88.4803 -8.11066 90.6121 -1.73743 91.9756 3.65359C93.3516 9.09402 93.9012 13.3754 93.4095 15.9976C92.6161 20.2292 90.9012 26.2235 88.8439 33.41L88.8206 33.4914C83.3841 52.4818 75.6387 79.5374 77.0676 102.501L77.0678 102.513L77.0696 102.616L77.0765 103.024L77.1039 104.619C77.128 106.016 77.1639 108.068 77.2107 110.685C77.3044 115.919 77.4419 123.414 77.6174 132.461C77.9683 150.554 78.4709 174.853 79.0777 199.673C79.6845 224.492 80.3956 249.835 81.1634 270.018C81.5473 280.109 81.9456 288.914 82.3524 295.721C82.7573 302.495 83.1742 307.367 83.6073 309.532C84.8909 315.95 85.9174 319.346 86.6923 321.909C87.3139 323.965 87.7528 325.421 88.0457 327.48C88.3405 329.553 88.4901 332.262 88.4901 336.788C88.4901 341.32 88.9996 347.163 89.7653 352.527C90.4317 357.195 91.3036 361.584 92.2315 364.449C85.996 365.584 76.8872 367.18 68.4642 368.523C59.4596 369.959 51.3602 371.084 48.3216 371.084C47.3601 371.084 46.4855 371.357 45.9046 372.06C45.3432 372.74 45.2292 373.618 45.2996 374.445C45.4389 376.08 46.3538 378.169 47.5773 380.288C50.0548 384.578 54.1441 389.569 57.4716 392.449C62.7676 397.034 68.5614 396.72 74.2319 395.89C75.0347 395.773 75.8335 395.646 76.629 395.519C81.5423 394.738 86.3278 393.978 91.1449 395.583C98.7456 398.117 106.583 397.356 112.531 395.078C115.505 393.939 118.048 392.405 119.865 390.67C121.666 388.95 122.855 386.929 122.855 384.83C122.855 381.378 122.607 370.087 122.114 359.293C121.867 353.895 121.559 348.608 121.188 344.481C121.003 342.419 120.801 340.631 120.581 339.257C120.471 338.571 120.354 337.972 120.228 337.486C120.11 337.033 119.959 336.568 119.736 336.234C119.739 336.238 119.738 336.237 119.735 336.229C119.723 336.201 119.678 336.088 119.624 335.835C119.561 335.542 119.503 335.144 119.455 334.64C119.358 333.634 119.302 332.283 119.289 330.655C119.263 327.405 119.404 323.121 119.686 318.441C120.251 309.071 121.378 298.191 122.836 290.903L122.852 290.824L122.855 290.742C123.508 272.112 124.44 243.971 125.11 220.094C125.445 208.156 125.715 197.281 125.851 189.193C125.92 185.149 125.955 181.797 125.949 179.356C125.946 178.136 125.932 177.136 125.906 176.387C125.883 175.691 125.847 175.093 125.767 174.772C125.69 174.464 125.67 173.848 125.774 172.882C125.874 171.949 126.076 170.789 126.37 169.454C126.958 166.786 127.897 163.481 129.054 160.011C131.282 153.327 134.276 146.154 137.047 141.787C139.818 146.154 142.812 153.327 145.04 160.011C146.196 163.481 147.135 166.786 147.723 169.454C148.018 170.789 148.22 171.949 148.32 172.882C148.424 173.848 148.404 174.464 148.327 174.772C148.247 175.093 148.211 175.691 148.187 176.387C148.162 177.136 148.148 178.136 148.145 179.356C148.139 181.797 148.174 185.149 148.242 189.193C148.379 197.281 148.649 208.156 148.984 220.094C149.654 243.971 150.586 272.112 151.239 290.742L151.242 290.824L151.258 290.903C152.716 298.191 153.842 309.071 154.408 318.441C154.69 323.121 154.831 327.405 154.805 330.655C154.791 332.283 154.736 333.634 154.639 334.64C154.591 335.144 154.533 335.542 154.47 335.835C154.416 336.088 154.371 336.201 154.359 336.229C154.356 336.237 154.355 336.238 154.358 336.234C154.135 336.568 153.984 337.033 153.866 337.486C153.74 337.972 153.623 338.571 153.513 339.257C153.293 340.631 153.091 342.419 152.906 344.481C152.535 348.608 152.227 353.895 151.98 359.293C151.487 370.087 151.239 381.378 151.239 384.83C151.239 386.929 152.428 388.95 154.229 390.67C156.046 392.405 158.589 393.939 161.563 395.078C167.51 397.356 175.348 398.117 182.949 395.583C187.766 393.978 192.552 394.738 197.465 395.519C198.26 395.646 199.059 395.773 199.862 395.89C205.533 396.72 211.326 397.034 216.622 392.449C219.95 389.569 224.039 384.578 226.517 380.288C227.74 378.169 228.655 376.08 228.794 374.445C228.865 373.618 228.751 372.74 228.189 372.06C227.608 371.357 226.734 371.084 225.772 371.084C222.734 371.084 214.634 369.959 205.63 368.523C197.207 367.18 188.098 365.584 181.862 364.449C182.79 361.584 183.662 357.195 184.329 352.527C185.094 347.163 185.604 341.32 185.604 336.788C185.604 332.262 185.753 329.553 186.048 327.48C186.341 325.42 186.78 323.964 187.402 321.908C188.177 319.346 189.203 315.949 190.487 309.532C190.919 307.368 191.347 302.514 191.77 295.766C192.196 288.986 192.62 280.219 193.036 270.174C193.867 250.084 194.662 224.863 195.353 200.166C196.044 175.469 196.631 151.293 197.045 133.292C197.253 124.291 197.416 116.834 197.529 111.627C197.585 109.023 197.628 106.982 197.657 105.592L197.69 104.006L197.698 103.599L197.7 103.497L197.701 103.471L197.701 103.464C197.701 103.463 197.701 103.462 196.701 103.442L197.701 103.462L197.704 103.338L197.676 103.217C196.135 96.5428 193.493 87.2735 190.855 78.0232L190.85 78.0033C188.793 70.7885 186.738 63.5806 185.197 57.58C184.426 54.5797 183.787 51.8927 183.341 49.6649C182.892 47.4178 182.652 45.702 182.652 44.6149C182.652 40.7375 183.755 30.8232 185.026 19.4177L185.026 19.416L185.026 19.4135L185.026 19.4127L185.027 19.4062L185.027 19.4047C185.858 11.9506 186.755 3.89781 187.446 -3.42307C189.544 -1.85181 191.408 -0.0255432 192.549 1.97136C193.597 3.80476 196.316 7.01414 199.808 10.78C203.331 14.58 207.725 19.0353 212.207 23.3943C216.689 27.7534 221.266 32.0238 225.157 35.4534C229.017 38.856 232.28 41.5018 234.1 42.5418C234.836 42.9621 235.8 43.7708 236.946 44.9457C238.081 46.1078 239.348 47.5806 240.69 49.2792C243.374 52.6757 246.325 56.9338 249.068 61.3223C251.811 65.7112 254.333 70.2108 256.166 74.088C257.082 76.0272 257.82 77.7964 258.326 79.3091C258.838 80.8413 259.088 82.0358 259.088 82.8524C259.088 84.6076 259.631 86.5927 260.448 88.6031C261.272 90.6272 262.403 92.7476 263.645 94.7936C266.025 98.7122 268.855 102.426 270.837 104.771C270.129 121.868 274.277 130.52 280.308 134.153C286.332 137.781 293.748 136.095 298.748 133.761L299.325 133.492V132.855V97.5591V97.2727L299.174 97.0298L232.503 -9.839L232.471 -9.89056L232.433 -9.93785C231.596 -10.9745 230.7 -11.9507 229.788 -12.9432L229.777 -12.9554C227.136 -15.8298 224.22 -19.0053 221.449 -24.917C218.668 -30.8512 216.014 -39.5875 214.016 -53.5713C211.658 -70.0827 208.296 -83.9067 204.018 -93.8755C201.879 -98.8597 199.493 -102.924 196.855 -105.881C194.214 -108.842 191.275 -110.743 188.042 -111.282L187.99 -111.291L187.938 -111.294C171.952 -112.263 162.316 -117.255 156.477 -123.134C150.626 -129.024 148.482 -135.911 147.686 -140.849Z" fill="#D06E63" stroke="#192E35" stroke-width="2"/>
<path d="M146.698 143.641C153.235 147.563 169.249 146.582 181.995 140.7C194.594 134.884 196.701 120.11 197.682 114.228" stroke="#192E35" stroke-width="2" stroke-linecap="round"/>
<path d="M94.7346 144.621C101.271 148.495 112.383 152.066 125.128 146.255C130.346 143.877 134.605 138.636 137.874 132.899M142.777 114.228C142.202 117.632 142.499 124.782 137.874 132.899M132.93 150.787L137.874 132.899" stroke="#192E35" stroke-width="2" stroke-linecap="round"/>
<g filter="url(#filter1_d_4951_27545)">
<path d="M139.944 69.1419C127.758 69.6882 122.844 91.1075 131.364 100.107C138.385 107.524 152.608 109.378 157.103 100.107C159.351 95.4715 158.426 91.8361 157.103 86.8362C154.61 77.4082 149.412 68.7174 139.944 69.1419Z" fill="#FF9A9A"/>
</g>
<path d="M140.264 71.6925C130.023 72.1605 125.893 90.5117 133.053 98.222C138.955 104.577 150.908 106.165 154.686 98.222C156.575 94.2506 155.798 91.1359 154.686 86.8522C152.591 78.7747 148.222 71.3288 140.264 71.6925Z" fill="#F64B4B"/>
<path d="M104.806 130.212C104.504 137.243 116.565 141.149 122.167 136.708C126.785 133.047 128.569 124.967 123.468 121.915C120.917 120.389 118.782 120.737 115.841 121.245C110.297 122.201 105.04 124.75 104.806 130.212Z" fill="#FF9A9A"/>
<path d="M153.239 130.212C152.938 137.243 164.999 141.149 170.601 136.708C175.218 133.047 177.002 124.967 171.901 121.915C169.351 120.389 167.215 120.737 164.275 121.245C158.731 122.201 153.474 124.75 153.239 130.212Z" fill="#FF9A9A"/>
<path d="M107.26 130.366C107.029 135.854 116.263 138.903 120.553 135.436C124.088 132.579 125.454 126.272 121.548 123.89C119.596 122.699 117.96 122.971 115.709 123.367C111.464 124.113 107.439 126.102 107.26 130.366Z" fill="#F64B4B"/>
<path d="M155.834 130.366C155.603 135.854 164.838 138.903 169.127 135.436C172.662 132.579 174.028 126.272 170.123 123.89C168.17 122.699 166.535 122.971 164.283 123.367C160.039 124.113 156.014 126.102 155.834 130.366Z" fill="#F64B4B"/>
<path d="M120.488 90.699C120.488 90.699 111.199 91.08 110.823 90.8715C110.446 90.6622 119.108 96.0595 119.493 96.1032C119.877 96.1469 105.944 103.292 105.944 103.292L120.637 103.78L117.849 111.206L123.299 107.118L123.416 114.711C123.416 114.711 128.121 107.855 128.43 107.434L124.999 110.939L124.65 104.779L120.535 107.532L122.876 102.661L112.898 101.738L121.235 96.2679L116.236 92.2534L120.488 90.699Z" fill="#7C202A"/>
<path d="M150.092 67.498C150.092 67.498 154.715 59.4318 154.703 59.0016C154.691 58.5711 155.485 68.7463 155.346 69.1077C155.208 69.4684 167.974 60.4013 167.974 60.4013L161.63 73.6628L169.505 74.6146L163.364 77.5648L170.048 81.171C170.048 81.171 161.795 82.1829 161.278 82.2631L165.971 80.8358L160.666 77.6846L165.007 75.3027L159.605 75.1337L163.388 65.8547L154.689 70.7291L153.433 64.4419L150.092 67.498Z" fill="#7C202A"/>
<path d="M189.488 75.3555L189.388 75.3043C188.046 74.6125 185.946 73.7219 184.008 73.3249C183.046 73.1279 182.038 73.0338 181.153 73.2037C180.237 73.3797 179.355 73.868 178.926 74.8845C178.265 76.4511 178.543 77.8612 179.149 78.9387C179.734 79.9788 180.625 80.7204 181.288 81.1033L181.354 81.1416L181.425 81.1693C182.346 81.5274 183.853 81.9637 185.451 82.1345C185.974 82.1905 186.529 82.2203 187.088 82.2038C186.205 83.0687 185.106 84.117 183.882 85.2695C180.134 88.7965 175.257 93.2514 171.908 96.279L171.854 96.3284L171.807 96.3852C171.482 96.7794 171.051 97.4503 170.886 98.1905C170.801 98.5706 170.772 99.0321 170.927 99.4981C171.09 99.988 171.427 100.393 171.912 100.673C173.275 101.46 174.769 101.583 175.416 101.542L175.763 101.519L176.021 101.287C178.017 99.4882 180.975 96.9276 183.372 95.0796C183.531 94.957 183.687 94.8382 183.839 94.7235C183.117 95.4874 182.259 96.3302 181.332 97.2006C178.826 99.5547 175.879 102.054 173.931 103.635L173.787 103.751L173.695 103.911C173.438 104.356 173.131 105.084 173.072 105.853C173.012 106.648 173.223 107.676 174.255 108.272C174.997 108.7 175.854 108.891 176.571 108.972C177.296 109.054 177.962 109.033 178.383 108.983L178.72 108.942L178.963 108.704C181.167 106.546 184.467 103.437 187.212 101.116C187.869 100.56 188.486 100.057 189.042 99.6261C188.453 100.283 187.74 101.006 186.956 101.754C184.791 103.821 182.177 105.999 180.432 107.372L180.281 107.491L180.184 107.658C179.925 108.107 179.618 108.837 179.524 109.629C179.43 110.421 179.534 111.451 180.341 112.232C181.069 112.935 182.022 113.174 182.797 113.236C183.583 113.298 184.328 113.19 184.803 113.063L185.055 112.995L185.242 112.813C187.248 110.86 190.284 108.002 192.879 105.772C193.442 105.288 193.98 104.837 194.478 104.434C194.29 104.655 194.092 104.882 193.886 105.115C192.24 106.968 190.17 109.029 188.765 110.362L188.765 110.362L188.758 110.369C188.36 110.754 187.791 111.392 187.432 112.049C187.258 112.367 187.073 112.794 187.062 113.255C187.049 113.799 187.286 114.354 187.858 114.684C188.255 114.914 188.716 115.003 189.112 115.039C189.525 115.077 189.962 115.064 190.375 115.029C191.199 114.958 192.023 114.786 192.541 114.648L192.769 114.586L192.945 114.43L204.761 103.956L204.802 103.919L204.839 103.879L208.149 100.227L208.202 100.169L208.246 100.102L219.223 83.2709L219.485 82.8691L219.336 82.4132L213.979 66.0656L213.614 64.9519L212.571 65.4876L213.028 66.377C212.571 65.4876 212.571 65.4876 212.571 65.4877L212.57 65.488L212.567 65.4895L212.556 65.4955L212.508 65.5198L212.323 65.6147C212.16 65.6978 211.92 65.8198 211.614 65.9745C211.002 66.284 210.125 66.7245 209.068 67.248C206.951 68.2954 204.114 69.6734 201.224 70.9986C198.329 72.3262 195.403 73.5909 193.102 74.4187C191.946 74.8344 190.984 75.1267 190.277 75.2671C189.921 75.338 189.673 75.361 189.519 75.3568C189.507 75.3565 189.497 75.3561 189.488 75.3555ZM189.431 75.3499C189.422 75.3485 189.418 75.3474 189.418 75.3471C189.418 75.3469 189.423 75.3477 189.431 75.3499Z" fill="#D06E63" stroke="#192E35" stroke-width="2"/>
</g>
<defs>
<filter id="filter0_d_4951_27545" x="53" y="12" width="171" height="171" filterUnits="userSpaceOnUse" color-interpolation-filters="sRGB">
<feFlood flood-opacity="0" result="BackgroundImageFix"/>
<feColorMatrix in="SourceAlpha" type="matrix" values="0 0 0 0 0 0 0 0 0 0 0 0 0 0 0 0 0 0 127 0" result="hardAlpha"/>
<feOffset dy="4"/>
<feGaussianBlur stdDeviation="4"/>
<feComposite in2="hardAlpha" operator="out"/>
<feColorMatrix type="matrix" values="0 0 0 0 0 0 0 0 0 0 0 0 0 0 0 0 0 0 0.1 0"/>
<feBlend mode="normal" in2="BackgroundImageFix" result="effect1_dropShadow_4951_27545"/>
<feBlend mode="normal" in="SourceGraphic" in2="effect1_dropShadow_4951_27545" result="shape"/>
</filter>
<filter id="filter1_d_4951_27545" x="119.09" y="61.127" width="47.3743" height="53.2568" filterUnits="userSpaceOnUse" color-interpolation-filters="sRGB">
<feFlood flood-opacity="0" result="BackgroundImageFix"/>
<feColorMatrix in="SourceAlpha" type="matrix" values="0 0 0 0 0 0 0 0 0 0 0 0 0 0 0 0 0 0 127 0" result="hardAlpha"/>
<feOffset/>
<feGaussianBlur stdDeviation="4"/>
<feComposite in2="hardAlpha" operator="out"/>
<feColorMatrix type="matrix" values="0 0 0 0 0.691667 0 0 0 0 0.0864583 0 0 0 0 0.0864583 0 0 0 0.44 0"/>
<feBlend mode="normal" in2="BackgroundImageFix" result="effect1_dropShadow_4951_27545"/>
<feBlend mode="normal" in="SourceGraphic" in2="effect1_dropShadow_4951_27545" result="shape"/>
</filter>
</defs>
</svg>
