<svg width="276" height="190" viewBox="0 0 276 190" fill="none" xmlns="http://www.w3.org/2000/svg">
<path d="M262.954 189L115.081 188.949L40.7725 188.923L36.6355 188.92L21.7068 188.918C21.7068 188.918 0.381795 171.582 0.0123887 147.075C-0.715534 98.7846 30.893 120.536 26.5988 62.3361C22.6804 9.22905 125.059 -19.4082 180.65 21.165C200.861 35.9162 202.446 46.2624 231.489 42.9913C264.273 39.2992 268.009 79.1426 256.535 101.229C240.253 132.567 301.681 127.419 262.954 189Z" fill="#F7F0FF"/>
<mask id="mask0_4951_27558" style="mask-type:alpha" maskUnits="userSpaceOnUse" x="0" y="2" width="276" height="187">
<path d="M262.954 189L115.081 188.949L40.7725 188.923L36.6355 188.92L21.7068 188.918C21.7068 188.918 0.381795 171.582 0.0123887 147.075C-0.715534 98.7846 30.893 120.536 26.5988 62.3361C22.6804 9.22905 125.059 -19.4082 180.65 21.165C200.861 35.9162 202.446 46.2624 231.489 42.9913C264.273 39.2992 268.009 79.1426 256.535 101.229C240.253 132.567 301.681 127.419 262.954 189Z" fill="#CEF7F3"/>
</mask>
<g mask="url(#mask0_4951_27558)">
<path d="M69.0001 106.125C45.3384 101.566 7.96161 115.156 7.96161 115.156H-5.30762V189H279.185V156.062C279.185 156.062 234.394 133.689 203.285 130.562C172.536 127.471 154.7 147.672 124.731 140.125C100.013 133.899 94.0291 110.947 69.0001 106.125Z" fill="#F1E6FF"/>
</g>
<path d="M99.6152 59.1977C102.691 87.2371 106.549 122.397 109.053 127.155C111.064 130.976 109.174 144.253 107.195 158.157C105.54 169.784 103.823 181.849 104.271 189.192H112.235C113.305 177.199 115.394 155.756 116.75 148.744C118.209 141.195 114.196 106.342 112.007 89.8585C117.114 107.977 127.62 147.99 128.788 163.088C129.735 175.342 127.223 184.447 125.072 189.192H133.883C150.348 178.182 144.83 164.284 139.178 150.046C136.267 142.715 133.321 135.294 133.321 128.131C133.321 125.306 133.508 122.422 133.714 119.253C134.601 105.565 135.834 86.5639 123.824 44.0693C127.47 53.2909 130.42 67.518 133.55 82.6179C139.2 109.871 145.44 139.966 157.43 148.608C168.711 156.738 157.868 182.591 147.799 189.192H168.524C171.487 168.777 174.641 135.919 173.947 106.518C171.35 107.615 169.815 106.816 172.542 100.791C175.922 93.3237 166.539 84.0332 158.318 75.8928C152.597 70.2286 147.439 65.1212 147.535 61.5724C147.721 54.6531 133.625 41.7912 126.554 36.2252L136.334 41.8798C139.116 43.4882 149.662 55.271 159.411 66.164C164.109 71.4127 167.13 77.9023 170.5 81.5C168.545 67.3832 153.551 55.2752 147.799 49C128.304 27.7331 133.5 30.5 130.5 28.5L97.9999 40C98.6082 45.3105 98.8928 52.6132 99.6147 59.1931L99.6149 59.1948L99.6152 59.1977Z" fill="#71B8FF"/>
<path fill-rule="evenodd" clip-rule="evenodd" d="M92.3202 1H107.5V12C107.5 13.3807 106.381 14.5 105 14.5C103.619 14.5 102.5 13.3807 102.5 12V6H94.6798L89 12.8969V185.5C89 186.881 87.8807 188 86.5 188C85.1193 188 84 186.881 84 185.5V11.1031L92.3202 1Z" fill="#62947B" stroke="#192E35" stroke-width="1.5" stroke-linecap="round"/>
<path d="M125.282 25.9058L99.4893 34.6957C99.4893 34.6957 91.1811 19.1804 97.7807 15.8898C103.874 12.8517 110.86 11.1128 115.152 9.97001C122.278 8.0723 125.282 25.9058 125.282 25.9058Z" fill="#46E4AA"/>
<path fill-rule="evenodd" clip-rule="evenodd" d="M124.427 25.4053L99.8607 33.777C99.8465 33.7485 99.8318 33.7191 99.8167 33.6887C99.6061 33.2655 99.3117 32.6557 98.9785 31.9132C98.3109 30.4253 97.4932 28.4172 96.8801 26.3168C96.2635 24.204 95.8724 22.0584 96.0112 20.2748C96.1488 18.506 96.7884 17.2228 98.1153 16.5612C103.706 13.7734 110.071 12.0901 114.404 10.9443C114.729 10.8582 115.043 10.7752 115.345 10.695C116.756 10.319 118.01 10.8778 119.187 12.1655C120.377 13.4682 121.381 15.4172 122.19 17.4983C122.994 19.5659 123.584 21.7002 123.972 23.3237C124.166 24.134 124.309 24.8135 124.404 25.2895C124.412 25.3295 124.419 25.3682 124.427 25.4053ZM99.4893 34.6959C98.8281 35.0499 98.828 35.0498 98.8279 35.0495L98.826 35.046L98.821 35.0365L98.8021 35.0009C98.7944 34.9862 98.785 34.9683 98.774 34.9473C98.7618 34.9239 98.7476 34.8966 98.7316 34.8656C98.6706 34.7479 98.5828 34.5761 98.4737 34.3569C98.2557 33.9187 97.9526 33.2907 97.61 32.5273C96.9261 31.0032 96.0793 28.9268 95.4402 26.7371C94.8047 24.5597 94.3562 22.2095 94.5157 20.1585C94.6765 18.0927 95.4732 16.2024 97.446 15.2188C103.182 12.3589 109.687 10.6393 114.006 9.49789C114.337 9.41044 114.655 9.32639 114.959 9.24548C117.11 8.67257 118.903 9.63135 120.294 11.1537C121.672 12.661 122.756 14.8145 123.588 16.9546C124.426 19.1082 125.033 21.3136 125.431 22.9746C125.63 23.8066 125.777 24.5054 125.875 24.9973C125.924 25.2434 125.96 25.4378 125.985 25.5715C125.997 25.6384 126.006 25.6901 126.012 25.7254L126.019 25.7661L126.021 25.7769L126.022 25.78C126.022 25.7802 126.022 25.7814 125.282 25.906L126.022 25.7814L126.128 26.4102L99.1287 35.6112L98.8279 35.0495L99.4893 34.6959Z" fill="#192E35"/>
<path d="M131.376 25.8694C130.915 24.5608 129.48 23.8738 128.172 24.3349L97.3694 35.1883C96.0608 35.6494 95.3737 37.084 95.8348 38.3926C96.2959 39.7012 97.7305 40.3882 99.0391 39.9271L129.841 29.0737C131.15 28.6126 131.837 27.178 131.376 25.8694Z" fill="white"/>
<path fill-rule="evenodd" clip-rule="evenodd" d="M97.8679 36.6031L128.67 25.7496C129.197 25.5638 129.775 25.8407 129.961 26.3679C130.147 26.8951 129.87 27.4732 129.343 27.6589L98.5406 38.5124C98.0134 38.6982 97.4354 38.4214 97.2496 37.8941C97.0638 37.3669 97.3406 36.7889 97.8679 36.6031ZM128.172 24.3349C129.48 23.8738 130.915 24.5608 131.376 25.8694C131.837 27.178 131.15 28.6126 129.841 29.0737L99.0391 39.9271C97.7305 40.3882 96.2959 39.7012 95.8348 38.3926C95.3737 37.084 96.0608 35.6494 97.3694 35.1883L128.172 24.3349Z" fill="#192E35"/>
<circle cx="5.53902" cy="5.53902" r="5.53902" transform="matrix(-1 0 0 1 160.945 42.6201)" fill="white"/>
<circle cx="3.69268" cy="3.69268" r="3.69268" transform="matrix(-1 0 0 1 155.037 66.9912)" fill="white"/>
<circle cx="3.69268" cy="3.69268" r="3.69268" transform="matrix(-1 0 0 1 117.372 87.6709)" fill="white"/>
<circle cx="3.69268" cy="3.69268" r="3.69268" transform="matrix(-1 0 0 1 100.385 78.0693)" fill="#71B8FF"/>
<circle cx="3.69268" cy="3.69268" r="3.69268" transform="matrix(-1 0 0 1 109.986 102.441)" fill="#71B8FF"/>
<circle cx="3.69268" cy="3.69268" r="3.69268" transform="matrix(-1 0 0 1 176.455 61.8223)" fill="white"/>
<circle cx="1.84634" cy="1.84634" r="1.84634" transform="matrix(-1 0 0 1 131.404 70.6846)" fill="white"/>
<circle cx="1.84634" cy="1.84634" r="1.84634" transform="matrix(-1 0 0 1 149.867 123.859)" fill="white"/>
<circle cx="1.84634" cy="1.84634" r="1.84634" transform="matrix(-1 0 0 1 138.789 110.565)" fill="white"/>
<circle cx="1.84634" cy="1.84634" r="1.84634" transform="matrix(-1 0 0 1 162.422 98.749)" fill="white"/>
<circle cx="1.84634" cy="1.84634" r="1.84634" transform="matrix(-1 0 0 1 117.372 66.9912)" fill="white"/>
<circle cx="1.84634" cy="1.84634" r="1.84634" transform="matrix(-1 0 0 1 129.188 55.9131)" fill="white"/>
<path d="M177.252 11.146C186.037 11.8085 192.622 19.4672 191.96 28.2524L184.394 128.586C193.488 134.804 199.111 145.568 198.223 157.343C196.898 174.913 181.581 188.083 164.01 186.758C146.44 185.433 133.271 170.116 134.595 152.545C135.483 140.77 142.656 130.971 152.58 126.187L160.146 25.8535C160.808 17.0683 168.467 10.4836 177.252 11.146Z" fill="#ADB5BD"/>
<path fill-rule="evenodd" clip-rule="evenodd" d="M182.833 129.336L183.547 129.824C192.218 135.752 197.573 146.01 196.727 157.23C195.465 173.975 180.867 186.525 164.123 185.262C147.379 184 134.829 169.402 136.091 152.658C136.937 141.438 143.77 132.099 153.232 127.538L154.011 127.163L161.642 25.9663C162.242 18.0072 169.18 12.0416 177.139 12.6418C185.098 13.2419 191.064 20.1805 190.464 28.1396L182.833 129.336ZM191.96 28.2524C192.622 19.4672 186.037 11.8085 177.252 11.146C168.467 10.4836 160.808 17.0683 160.146 25.8535L152.58 126.187C142.656 130.971 135.483 140.77 134.595 152.545C133.271 170.116 146.44 185.433 164.01 186.758C181.581 188.083 196.898 174.913 198.223 157.343C199.111 145.568 193.488 134.804 184.394 128.586L191.96 28.2524Z" fill="#192E35"/>
<path d="M173.626 8.31302C182.412 8.97546 188.996 16.6342 188.334 25.4194L180.768 125.753C189.863 131.971 195.485 142.735 194.597 154.51C193.272 172.08 177.955 185.25 160.385 183.925C142.814 182.6 129.645 167.283 130.97 149.712C131.858 137.937 139.031 128.138 148.954 123.354L156.52 23.0205C157.183 14.2353 164.841 7.65058 173.626 8.31302Z" fill="#F8F9FA"/>
<path fill-rule="evenodd" clip-rule="evenodd" d="M179.207 126.503L179.922 126.991C188.592 132.919 193.947 143.177 193.101 154.397C191.839 171.142 177.241 183.692 160.497 182.429C143.753 181.167 131.203 166.569 132.465 149.825C133.311 138.605 140.144 129.266 149.606 124.705L150.385 124.33L158.016 23.1332C158.616 15.1742 165.555 9.20863 173.514 9.80877C181.473 10.4089 187.438 17.3475 186.838 25.3066L179.207 126.503ZM188.334 25.4194C188.996 16.6342 182.412 8.97546 173.626 8.31302C164.841 7.65058 157.183 14.2353 156.52 23.0205L148.954 123.354C139.031 128.138 131.858 137.937 130.97 149.712C129.645 167.283 142.814 182.6 160.385 183.925C177.955 185.25 193.272 172.08 194.597 154.51C195.485 142.735 189.863 131.971 180.768 125.753L188.334 25.4194Z" fill="#192E35"/>
<rect width="19.1425" height="121.236" rx="9.57123" transform="matrix(-0.997169 -0.0751908 -0.0751908 0.997169 182.691 15.3955)" fill="#FFCFD0"/>
<rect width="19.1425" height="88.6934" rx="9.57123" transform="matrix(-0.997169 -0.0751908 -0.0751908 0.997169 180.244 47.8457)" fill="#FA6B6D"/>
<circle cx="25.5233" cy="25.5233" r="25.5233" transform="matrix(-0.997169 -0.0751908 -0.0751908 0.997169 190.154 128.58)" fill="#FA6B6D"/>
</svg>
