<svg width="276" height="188" viewBox="0 0 276 188" fill="none" xmlns="http://www.w3.org/2000/svg">
<path d="M262.954 187L115.081 186.949L40.7725 186.923L36.6355 186.92L21.7068 186.918C21.7068 186.918 0.381795 169.582 0.0123887 145.075C-0.715534 96.7846 30.893 118.536 26.5988 60.3361C22.6804 7.22903 125.059 -21.4082 180.65 19.165C200.861 33.9162 202.446 44.2623 231.489 40.9913C264.273 37.2992 268.009 77.1426 256.535 99.2292C240.253 130.567 301.681 125.419 262.954 187Z" fill="#DCFBF3"/>
<mask id="mask0_4113_5274" style="mask-type:alpha" maskUnits="userSpaceOnUse" x="0" y="0" width="276" height="187">
<path d="M262.954 187L115.081 186.949L40.7725 186.923L36.6355 186.92L21.7068 186.918C21.7068 186.918 0.381795 169.582 0.0123887 145.075C-0.715534 96.7846 30.893 118.536 26.5988 60.3361C22.6804 7.22903 125.059 -21.4082 180.65 19.165C200.861 33.9162 202.446 44.2623 231.489 40.9913C264.273 37.2992 268.009 77.1426 256.535 99.2292C240.253 130.567 301.681 125.419 262.954 187Z" fill="#CEF7F3"/>
</mask>
<g mask="url(#mask0_4113_5274)">
<path d="M69.0001 104.125C45.3384 99.5664 7.96161 113.156 7.96161 113.156H-5.30762V187H279.185V154.062C279.185 154.062 234.394 131.69 203.285 128.562C172.536 125.472 154.7 145.673 124.731 138.125C100.013 131.9 94.0291 108.947 69.0001 104.125Z" fill="#ABFEE6"/>
</g>
<path d="M146.544 91.1985V178.346C146.544 183.201 142.739 187.137 138.048 187.137H103.494C98.8025 187.137 95 183.201 95 178.346V89.6278C95 81.7368 99.533 74.9449 106.052 71.8834C107.835 71.0453 108.959 69.185 108.959 67.16V63.6492H132.582V67.5628C132.582 69.6429 133.724 71.526 135.51 72.4789C142.062 75.9742 146.544 83.0443 146.544 91.1985Z" fill="#C1D1FF"/>
<path d="M142.787 98.7121V175.396C142.787 179.667 139.535 183.131 135.525 183.131H105.978C101.966 183.131 98.7148 179.667 98.7148 175.396V97.3288C98.7148 96.746 98.7414 96.1681 98.7961 95.6C99.536 95.3713 105.2 93.724 111.561 95.2813C118.386 96.9516 124.006 93.6778 132.036 93.6778C137.628 93.6778 140.106 94.5415 142.3 94.3445C142.617 95.7447 142.787 97.2072 142.787 98.7121Z" fill="#83A9FF"/>
<path d="M133.642 64.7522H107.86V60.1864C107.86 58.979 108.84 58 110.049 58H131.561C132.71 58 133.642 58.9308 133.642 60.08V64.7522Z" fill="#F99746"/>
<path d="M140.593 80.1022C140.593 80.1022 136.74 73.907 133.369 74.7579C130 75.6086 132.212 77.7778 134.261 80.1022C136.309 82.4268 137.668 82.9366 139.278 82.0613C140.887 81.186 141.139 80.905 140.593 80.1022Z" fill="#E3EEFF"/>
<path d="M172.913 80.587C172.913 77.1472 178.624 70.469 178.624 70.469C178.624 70.469 184.336 77.1472 184.336 80.587C184.336 84.0269 181.778 86.8154 178.624 86.8154C175.47 86.8154 172.913 84.0269 172.913 80.587Z" fill="#83A9FF"/>
<path d="M174.774 82.6135C174.673 82.3688 174.645 82.0307 174.662 81.6567C174.729 80.1497 176.122 79.3367 177.231 80.3607C177.507 80.6148 177.894 81.1683 177.996 81.4132C178.426 82.4569 178.241 83.3985 177.285 83.7916C176.328 84.1848 175.203 83.6572 174.774 82.6135Z" fill="#CCDCFF"/>
<path d="M112.472 151.026H138.093V146.838H112.472V151.026Z" fill="#4B546B"/>
<path d="M100.339 186.113H89.5859V51.7557C89.5859 45.4459 90.8244 39.3222 93.2682 33.5551C95.6267 27.9866 99.0025 22.9861 103.299 18.6939C107.599 14.4016 112.605 11.0306 118.182 8.67548C123.957 6.23672 130.091 5 136.41 5C142.729 5 148.861 6.23672 154.638 8.67548C160.214 11.0306 165.22 14.4016 169.519 18.6939C173.817 22.9861 177.193 27.9866 179.551 33.5551C181.995 39.3222 183.234 45.4459 183.234 51.7557V62.8255H172.481V51.7557C172.481 42.1348 168.729 33.0897 161.916 26.2861C155.102 19.4842 146.044 15.7377 136.41 15.7377C126.775 15.7377 117.716 19.4842 110.904 26.2861C104.091 33.0897 100.339 42.1348 100.339 51.7557V186.113Z" fill="#798397"/>
<path d="M107.585 155.668H101.145V142.196H107.585C111.042 142.196 113.845 144.994 113.845 148.448V149.416C113.845 152.869 111.042 155.668 107.585 155.668Z" fill="#798397"/>
<path d="M148.705 153.734L125.611 152.765C124.03 152.698 122.782 151.399 122.782 149.819V147.758C122.782 146.163 124.051 144.857 125.647 144.81L148.741 144.129C150.405 144.08 151.782 145.413 151.782 147.077V150.786C151.782 152.464 150.383 153.804 148.705 153.734Z" fill="#F99746"/>
<path d="M104.346 186.113H85.5781V139.073C85.5781 136.548 87.6273 134.503 90.1553 134.503H100.139C102.463 134.503 104.346 136.384 104.346 138.704V186.113Z" fill="#4B546B"/>
<path d="M116.925 187.487H73V186.865C73 185.081 74.4474 183.635 76.2334 183.635H113.69C115.476 183.635 116.925 185.081 116.925 186.865V187.487Z" fill="#252C3E"/>
<path d="M183.409 63.9273H172.304C171.365 63.9273 170.595 63.1598 170.595 62.2217V60.9176C170.595 59.9793 171.365 59.2118 172.304 59.2118H183.409C184.348 59.2118 185.116 59.9793 185.116 60.9176V62.2217C185.116 63.1598 184.348 63.9273 183.409 63.9273Z" fill="#4B546B"/>
<path d="M190.371 106.885C190.371 106.885 188.84 108.291 189.26 109.808C189.68 111.323 191.309 111.504 191.572 110.704C191.835 109.905 191.167 106.605 190.371 106.885Z" fill="#FFB27D"/>
<path d="M157.512 90.0008H201.746L198.036 180.795L159.783 180.266L157.512 90.0008Z" fill="#D6E2FD"/>
<path d="M199.254 117.847L197.549 172.268C197.465 174.881 195.651 176.949 193.437 176.949H164.899C162.564 176.949 160.644 174.777 160.542 172.017L158.319 112.482C161.798 111.634 168.66 111.011 176.845 115.757C183.787 119.781 192.886 119.105 199.254 117.847Z" fill="#83A9FF"/>
<path d="M201.747 90.5787H155.824V90H201.747V90.5787Z" fill="#83A9FF"/>
<path d="M202.61 90.0748L199.655 184.425C199.609 185.852 198.438 186.986 197.008 186.986H158.613L155 90.0748H157.513L158.151 107.378L158.321 111.976L160.541 172.047C160.642 174.833 162.565 177.025 164.901 177.025H193.437C195.649 177.025 197.467 174.937 197.549 172.301L199.254 117.388L199.648 104.659L200.102 90.0748H202.61Z" fill="#2B478B"/>
<path d="M196.621 95.1782C196.621 95.1782 196.542 93.2001 193.93 93.2001C189.718 93.2001 189.896 107.657 191.32 109.316C192.743 110.975 195.565 110.069 196.065 109.158C198.003 105.643 196.621 95.1782 196.621 95.1782Z" fill="#E3EEFF"/>
<path d="M185.171 117.242C185.171 117.242 180.027 115.959 179.079 113.519C178.13 111.08 179.851 109.696 181.63 110.24C183.412 110.783 182.601 113.095 183.885 115.168C185.171 117.242 185.171 117.242 185.171 117.242Z" fill="#A6C6FF"/>
</svg>
