<svg width="276" height="187" viewBox="0 0 276 187" fill="none" xmlns="http://www.w3.org/2000/svg">
<path d="M262.954 187L115.081 186.949L40.7725 186.923L36.6355 186.92L21.7068 186.918C21.7068 186.918 0.381795 169.582 0.0123887 145.075C-0.715534 96.7846 30.893 118.536 26.5988 60.3361C22.6804 7.22903 125.059 -21.4082 180.65 19.165C200.861 33.9162 202.446 44.2623 231.489 40.9913C264.273 37.2992 268.009 77.1426 256.535 99.2292C240.253 130.567 301.681 125.419 262.954 187Z" fill="#DCFBF3"/>
<mask id="mask0_3977_1471" style="mask-type:alpha" maskUnits="userSpaceOnUse" x="0" y="0" width="276" height="187">
<path d="M262.954 187L115.081 186.949L40.7725 186.923L36.6355 186.92L21.7068 186.918C21.7068 186.918 0.381795 169.582 0.0123887 145.075C-0.715534 96.7846 30.893 118.536 26.5988 60.3361C22.6804 7.22903 125.059 -21.4082 180.65 19.165C200.861 33.9162 202.446 44.2623 231.489 40.9913C264.273 37.2992 268.009 77.1426 256.535 99.2292C240.253 130.567 301.681 125.419 262.954 187Z" fill="#CEF7F3"/>
</mask>
<g mask="url(#mask0_3977_1471)">
<path d="M69.0001 104.125C45.3384 99.5664 7.96161 113.156 7.96161 113.156H-5.30762V187H279.185V154.062C279.185 154.062 234.394 131.69 203.285 128.562C172.536 125.472 154.7 145.673 124.731 138.125C100.013 131.9 94.0291 108.947 69.0001 104.125Z" fill="#ABFEE6"/>
</g>
<path d="M112.035 46.9271C108.242 46.9271 96.6119 40.3262 86.7221 46.749C76.8322 53.1721 69.376 58.4852 58.6547 64.1712C47.9329 69.8576 51.6476 88.9183 61.5841 96.1087C71.5206 103.299 79.7327 95.5405 92.3791 91.5275C105.025 87.5146 126.737 78.2322 122.448 68.1593C118.16 58.0864 121.725 46.9271 112.035 46.9271Z" fill="#6C6FC3"/>
<path d="M113.115 82.2387C111.828 86.9744 107.225 90.5656 104.523 92.3236C103.329 93.1018 102.505 93.5195 102.505 93.5195C102.505 93.5195 101.15 90.1362 99.4329 86.368C97.5316 82.1785 95.1872 77.5118 93.7804 76.4685C91.1107 74.4941 83.833 62.6599 82.9247 61.4159C82.0197 60.1719 79.6596 57.86 78.8595 56.7608C78.0598 55.6653 76.8331 53.1733 76.8331 53.1733C76.8331 53.1733 75.0882 51.8931 75.3298 50.3758C75.5671 48.8593 79.5149 51.8129 79.5149 51.8129L82.7434 55.1713C82.7434 55.1713 84.7489 57.5265 85.5084 57.6469C86.2683 57.7669 80.7854 50.3277 80.7854 50.3277C80.7854 50.3277 80.7854 50.3277 79.7726 49.4211C79.0083 48.7385 76.7089 46.576 76.7089 46.576C76.7089 46.576 75.7158 46.291 73.9142 45.3596C72.1174 44.429 72.0888 42.6994 73.0703 41.9887C74.0509 41.2748 78.4735 43.618 78.4735 43.618L82.8001 46.6317C82.8001 46.6317 86.2309 51.6893 87.6297 52.3305C88.2858 52.6315 83.5117 44.4567 83.5117 44.4567C81.107 44.0759 78.755 39.0878 78.755 39.0878C78.755 39.0878 75.2816 38.7748 74.4815 37.6792C73.681 36.5793 74.0026 34.5568 75.1007 33.7586C76.2023 32.9596 81.5734 36.3349 81.5734 36.3349L86.6675 40.4803L91.6494 48.9312L87.8053 40.4241C86.4102 40.203 83.9979 36.5873 83.9979 36.5873C83.9979 36.5873 81.3929 35.0102 80.327 33.5459C79.2616 32.0812 79.6882 31.4387 80.7854 30.6405C81.887 29.8419 87.0696 33.5736 90.2382 36.5311C93.402 39.4927 97.0933 47.33 97.3905 49.4488C97.688 51.5681 102.22 55.1316 101.258 53.8153C100.301 52.4991 97.9457 46.0378 98.2673 44.0153C98.5886 41.9932 98.975 37.9116 100.495 38.1488C100.849 38.2045 101.194 38.4092 101.532 38.7302C102.613 39.7656 103.591 42.0249 104.459 44.5815C104.475 44.6333 104.495 44.6899 104.511 44.7416C105.657 48.1607 109.638 55.0032 110.916 56.7608C112.194 58.5185 109.601 70.8018 109.143 73.7112C108.685 76.6165 113.115 82.2387 113.115 82.2387Z" fill="#FFB797"/>
<path d="M102.505 93.5195C102.505 93.5195 101.656 91.4019 100.452 88.6514C100.134 87.9255 99.7912 87.1554 99.4326 86.368C97.5313 82.1785 95.1868 77.5118 93.78 76.4685C91.1104 74.4941 83.8327 62.6599 82.9244 61.4159C82.0194 60.1719 79.6593 57.86 78.8592 56.7608C78.1319 55.764 77.0511 53.6123 76.8618 53.2314C76.8429 53.1933 76.8328 53.1732 76.8328 53.1732C76.8328 53.1732 75.3058 52.0528 75.3066 50.666C75.3066 50.5704 75.3138 50.4737 75.3295 50.3758C75.3778 50.066 75.5812 49.9428 75.8743 49.9428C77.0149 49.9428 79.5146 51.8129 79.5146 51.8129L82.7431 55.1713C82.7431 55.1713 84.7486 57.5265 85.5081 57.6469C85.5141 57.6477 85.5201 57.6481 85.5254 57.6481C85.5628 57.6481 85.5808 57.6236 85.5804 57.5779C85.5772 56.8295 80.7851 50.3277 80.7851 50.3277C80.7851 50.3277 80.785 50.3277 79.7723 49.4211C79.0079 48.7385 76.7086 46.576 76.7086 46.576C76.7086 46.576 75.7155 46.291 73.9139 45.3596C72.8713 44.8199 72.4242 44.0109 72.4238 43.2885C72.4238 42.7653 72.6578 42.2873 73.0699 41.9887C73.1994 41.8944 73.3896 41.8535 73.6212 41.8535C75.143 41.8535 78.4732 43.618 78.4732 43.618L82.7998 46.6317C82.7998 46.6317 86.2306 51.6893 87.6293 52.3305C87.641 52.3357 87.6511 52.3386 87.6595 52.3386C87.6808 52.3386 87.6912 52.3213 87.6912 52.288C87.6932 51.617 83.5114 44.4567 83.5114 44.4567C81.1067 44.0759 78.7547 39.0878 78.7547 39.0878C78.7547 39.0878 75.2813 38.7748 74.4812 37.6792C74.1776 37.2623 74.0357 36.7133 74.0357 36.1483C74.0361 35.2225 74.4184 34.2546 75.1003 33.7586C75.2165 33.6739 75.3814 33.6362 75.582 33.6362C77.2783 33.6362 81.5731 36.3349 81.5731 36.3349L86.6672 40.4803L91.6491 48.9312L87.805 40.4241C86.4099 40.203 83.9975 36.5873 83.9975 36.5873C83.9975 36.5873 81.3926 35.0102 80.3267 33.5459C79.9001 32.9592 79.7128 32.5045 79.7119 32.1193C79.7103 31.5418 80.1273 31.1192 80.7851 30.6405C80.888 30.5659 81.0263 30.5309 81.1948 30.5309C82.8356 30.5309 87.3648 33.8493 90.2379 36.5311C93.4017 39.4927 97.093 47.33 97.3901 49.4488C97.6434 51.2515 100.96 54.0994 101.354 54.0994C101.379 54.0994 101.391 54.0882 101.391 54.0645C101.392 54.0224 101.35 53.9413 101.258 53.8153C100.361 52.5813 98.2344 46.8256 98.2369 44.4443C98.2373 44.2858 98.2469 44.1417 98.267 44.0153C98.5794 42.0497 98.9529 38.1387 100.369 38.1387C100.41 38.1387 100.452 38.1419 100.494 38.1487C100.848 38.2045 101.194 38.4092 101.532 38.7302C102.613 39.7656 103.59 42.0249 104.458 44.5815C104.474 44.6333 104.495 44.6899 104.511 44.7416C105.657 48.1607 109.637 55.0032 110.916 56.7608C111.164 57.1023 111.266 57.8415 111.266 58.8319C111.267 62.9388 109.511 71.3672 109.142 73.7112C109.12 73.8532 109.109 74.0013 109.109 74.1554C109.107 77.1523 113.115 82.2387 113.115 82.2387C111.828 86.9744 107.225 90.5656 104.523 92.3236C103.329 93.1018 102.505 93.5195 102.505 93.5195ZM101.259 53.8141C101.827 54.1283 102.951 54.8049 103.191 55.4109C103.311 55.6605 103.152 55.8828 102.939 56.0646C100.041 58.7436 99.4234 62.0026 98.8022 65.3999C98.5022 67.2154 98.0182 70.5738 98.6011 72.3086C99.3719 74.5154 101.647 75.5467 103.932 75.5467C104.049 75.5467 104.167 75.5443 104.284 75.5387C103.14 75.5017 101.991 75.2485 101.002 74.7C100.006 74.1735 99.2263 73.2677 98.8946 72.2115C98.4029 70.4065 98.8753 67.3161 99.1982 65.4669C99.6312 62.942 99.9139 61.1406 101.068 58.9407C102.164 56.8716 103.168 56.2632 103.349 55.8342C103.709 55.0842 102.018 54.1628 101.259 53.8141ZM97.8959 56.0931C95.0112 57.5747 89.708 63.1507 87.6434 65.6576C91.4204 62.2044 95.7047 57.6609 97.8959 56.0931ZM92.6177 56.1296C92.5316 56.2949 92.8272 58.421 90.7328 59.1614C89.987 59.4194 89.4555 59.3817 89.3646 59.3909C89.316 59.4616 89.7908 61.1771 86.192 62.5283C87.6868 62.2108 89.5218 61.2694 89.7027 59.7393C91.2736 59.6847 92.4074 58.8042 92.7487 57.6939C92.8682 57.4226 92.9233 56.9294 92.9357 56.5967C93.0583 56.622 93.1806 56.6336 93.3016 56.6336C93.5135 56.6336 93.7217 56.5975 93.9232 56.5329C94.5443 56.329 94.9082 55.8928 95.2564 55.4085C95.8096 54.4313 95.759 54.2303 95.9077 53.8334C95.8852 53.8735 95.3521 55.1998 94.7382 55.7094C94.312 56.128 93.8307 56.3122 93.3864 56.3122C93.195 56.3122 93.0105 56.2781 92.84 56.2135L92.6177 56.1296Z" fill="#FDA16F"/>
<path d="M106.031 90.5134C105.85 90.698 100.193 98.4514 93.2129 99.2139C93.2129 99.2139 88.3399 93.9649 85.3928 93.9649C85.232 93.9649 85.0937 93.9649 84.9309 93.9685C81.4084 94.0211 69.813 94.5388 68.3415 93.07C66.802 91.5371 60.6501 86.5446 57.4456 84.8836C55.9793 84.1292 52.5389 82.2479 51.8168 80.7703C51.6443 80.473 51.5474 80.18 51.5474 79.8915C51.5474 78.3581 55.6525 78.6114 57.703 78.6114C59.7539 78.6114 65.7763 81.9377 66.9302 83.0894C68.0841 84.2415 65.2661 79.2209 63.2152 78.5953C61.1647 77.9729 53.9839 73.1092 51.5474 69.5296C49.1154 65.9465 46.2282 60.2521 47.1895 59.293C48.15 58.3335 48.8576 58.0129 50.1402 59.293C51.4188 60.5731 52.5727 63.3858 52.5727 63.3858C52.5727 63.3858 55.7771 66.3273 55.7771 67.7363L63.5972 72.8564L56.4208 66.3273L52.7017 60.9544C52.7017 60.9544 50.2049 55.1356 51.1655 54.1765C52.1268 53.2134 53.3808 54.0079 54.3421 54.9711C55.3027 55.9301 55.8696 58.9519 55.8696 58.9519C55.8696 58.9519 58.2819 60.4568 59.6248 62.4909L67.7022 70.2885L67.8711 70.1557C67.9716 68.6231 62.701 63.7711 62.701 63.7711L60.3927 59.0358C60.3927 59.0358 58.7684 54.3089 59.6248 53.4538C60.4812 52.599 62.1899 52.8963 62.8292 54.8141C63.4729 56.7327 63.5972 57.756 63.5972 57.756L66.6769 62.3629L73.4677 69.0164C73.4677 69.0164 74.7503 69.9113 74.7503 69.1444C74.7503 68.3783 71.1643 65.0516 71.1643 65.0516L68.3415 61.3396C68.3415 61.3396 66.0341 56.9892 67.5739 56.9892C69.1094 56.9892 70.1069 58.9078 70.1069 58.9078C70.1069 58.9078 72.3781 60.5085 73.3431 61.468C74.304 62.4271 76.2259 65.1154 77.3155 66.2029C78.405 67.2904 88.9792 76.3079 90.5191 79.253C90.702 79.6098 91.1009 80.0588 91.3839 80.3405V80.345C94.7528 83.7596 105.573 90.2168 106.031 90.5134Z" fill="#FAB480"/>
<path d="M104.458 44.5812C103.972 44.8179 103.474 44.9026 103.144 44.5731C102.275 43.7027 100.599 39.1556 100.599 39.1556L101.532 38.7303C102.613 39.7656 103.59 42.0249 104.458 44.5812Z" fill="#FFDBC2"/>
<path d="M86.1919 62.5283C89.7907 61.1771 89.3159 59.4616 89.3645 59.391C89.4554 59.3818 89.9869 59.4195 90.7327 59.1614C92.8271 58.4211 92.5315 56.295 92.6176 56.1297L92.8399 56.2135C93.0104 56.2781 93.195 56.3122 93.3863 56.3122C93.8306 56.3122 94.3119 56.128 94.7381 55.7095C95.352 55.1999 95.8851 53.8736 95.9076 53.8334C95.7589 54.2303 95.8095 54.4314 95.2563 55.4085C94.9081 55.8929 94.5442 56.3291 93.9231 56.533C93.7216 56.5976 93.5134 56.6337 93.3015 56.6337C93.1805 56.6337 93.0583 56.622 92.9356 56.5968C92.9232 56.9294 92.8681 57.4226 92.7487 57.6939C92.4073 58.8043 91.2735 59.6847 89.7027 59.7393C89.5217 61.2694 87.6868 62.2109 86.1919 62.5283Z" fill="#FB875B"/>
<path d="M87.6436 65.6576C89.7081 63.1507 95.0113 57.5747 97.8961 56.0931C95.7049 57.661 91.4205 62.2045 87.6436 65.6576Z" fill="#FB875B"/>
<path d="M103.932 75.5467C101.647 75.5467 99.3722 74.5154 98.6014 72.3087C98.0184 70.5739 98.5025 67.2154 98.8024 65.4C99.4236 62.0026 100.041 58.7437 102.939 56.0647C103.152 55.8829 103.312 55.6605 103.191 55.4109C102.952 54.805 101.828 54.1284 101.259 53.8142C102.018 54.1629 103.71 55.0843 103.35 55.8343C103.168 56.2633 102.164 56.8717 101.068 58.9407C99.9141 61.1406 99.6315 62.942 99.1985 65.467C98.8756 67.3162 98.4032 70.4066 98.8949 72.2116C99.2266 73.2678 100.006 74.1735 101.002 74.7C101.991 75.2486 103.14 75.5018 104.285 75.5387C104.167 75.5443 104.05 75.5467 103.932 75.5467Z" fill="#FB875B"/>
<path d="M57.5784 82.5602C57.5784 83.1417 56.9355 83.876 56.4446 84.35C54.2695 83.1541 52.3456 81.8944 51.8169 80.7704L52.621 79.8872C52.621 79.8872 57.5784 81.6252 57.5784 82.5602Z" fill="#FFDBC2"/>
<path d="M85.0521 87.2433C84.2918 85.5349 82.8324 83.5859 80.9941 83.2275C78.9472 82.8916 73.4366 84.2392 71.4492 84.8355L75.2531 84.191C80.5446 83.3487 81.1562 83.319 82.5887 84.36C83.5585 85.0743 84.4136 86.1907 85.0521 87.2433Z" fill="#F79F63"/>
<path d="M72.6438 74.775C73.6839 74.9556 75.0224 74.9448 75.9338 74.4171C76.8662 73.8926 77.9156 72.9367 78.6192 72.1276C77.8416 72.7713 76.7034 73.6883 75.7827 74.1245C74.905 74.5984 73.4688 74.5362 72.4689 74.3436L72.1613 74.2842C72.185 74.4532 72.3322 74.7152 72.2112 75.2112C71.9137 76.497 70.4803 77.8553 68.501 77.9464C70.7191 78.2209 72.692 76.2971 72.6438 74.775Z" fill="#F79F63"/>
<path d="M73.2588 77.0769C76.5356 75.8581 80.2229 74.0567 81.9031 73.7999C79.6507 73.6875 75.1891 75.8686 73.2588 77.0769Z" fill="#F79F63"/>
<path d="M91.3837 80.3406V80.345C90.8727 82.829 89.1639 84.4663 88.8785 85.9391C88.593 87.2995 88.8829 88.824 88.513 90.0359C88.0864 91.5769 86.8119 92.9698 85.3725 93.965C85.2438 93.965 85.0955 93.965 84.9307 93.9686C86.249 92.845 87.4512 91.4164 87.8331 89.8553C87.9376 89.4384 87.9578 89.0411 87.9578 88.5876C87.9622 85.6417 87.9176 85.5257 89.3489 83.2022C89.9801 82.1589 90.5112 81.4406 90.8888 79.7948C91.0709 80.0172 91.2422 80.1998 91.3837 80.3406Z" fill="#F79F63"/>
<path d="M75.3925 12V71.7031C75.3925 71.7031 71.6751 73.4945 69.7524 73.4945C67.8298 73.4945 66.035 74.3669 66.035 76.1061C66.035 77.845 63.2145 76.4793 63.2145 78.5966C63.2145 80.7138 67.0602 81.9394 67.0602 79.892C67.0602 77.8449 68.4381 76.2775 69.3037 75.4139C70.169 74.5503 72.5725 74.5182 73.3416 73.7505C74.1111 72.9829 75.3925 74.1346 77.6999 73.3665C80.0077 72.5988 77.8286 75.0066 80.9052 76.1061C83.9813 77.2053 78.7923 79.6359 76.5155 80.404C74.239 81.1717 64.0854 83.1677 63.2145 85.6497C62.3432 88.1318 62.1889 90.1278 62.1889 90.1278C62.1889 90.1278 60.7784 96.1416 62.1889 98.7003C63.5989 101.259 64.4967 99.3403 64.4967 97.4209C64.4967 95.502 61.7514 90.2241 63.1992 88.7795C64.6467 87.3348 63.471 85.1381 64.6245 85.1381C65.7784 85.1381 71.0342 85.2661 73.2133 83.0907C75.3925 80.9157 80.791 82.8728 81.8544 81.8114C82.9179 80.7495 89.2909 80.6203 91.1231 80.0641C92.9553 79.5083 82.1262 70.7015 80.4375 69.016C78.7489 67.3302 79.2386 12 79.2386 12H75.3925Z" fill="#A0F2F0"/>
<path d="M66.3229 103.278C66.3229 103.712 65.9707 104.064 65.5357 104.064C65.1007 104.064 64.748 103.712 64.748 103.278C64.748 102.844 65.4275 98.2111 65.4275 98.2111C65.4275 98.2111 66.3229 102.844 66.3229 103.278Z" fill="#A0F2F0"/>
<path d="M78.2512 30.8922C78.2512 31.3894 77.8476 31.7927 77.349 31.7927C76.8508 31.7927 76.4468 31.3894 76.4468 30.8922C76.4468 30.3945 77.349 25.0425 77.349 25.0425C77.349 25.0425 78.2512 30.3945 78.2512 30.8922Z" fill="#EBFFFE"/>
<path d="M79.1535 46.0078C79.1535 46.505 78.7494 46.9083 78.2509 46.9083C77.7523 46.9083 77.3486 46.505 77.3486 46.0078C77.3486 45.5102 78.2509 40.1577 78.2509 40.1577C78.2509 40.1577 79.1535 45.5102 79.1535 46.0078Z" fill="#EBFFFE"/>
<path d="M81.8044 60.6555C81.8044 61.1531 81.4004 61.5564 80.9022 61.5564C80.4041 61.5564 80 61.1531 80 60.6555C80 60.1583 80.9022 54.8058 80.9022 54.8058C80.9022 54.8058 81.8044 60.1583 81.8044 60.6555Z" fill="#A0F2F0"/>
<path d="M80.1945 76.6591C80.1945 77.0929 79.8423 77.4448 79.4073 77.4448C78.9722 77.4448 78.6196 77.0929 78.6196 76.6591C78.6196 76.2249 78.9722 75.873 79.4073 75.873C79.8423 75.873 80.1945 76.2249 80.1945 76.6591Z" fill="#EBFFFE"/>
<path d="M73.9289 70.8235C73.9289 71.3223 73.524 71.7264 73.0243 71.7264C72.5245 71.7264 72.1196 71.3223 72.1196 70.8235C72.1196 70.3247 72.5245 69.9205 73.0243 69.9205C73.524 69.9205 73.9289 70.3247 73.9289 70.8235Z" fill="#EBFFFE"/>
<path d="M81.6886 68.8812C81.6886 69.315 81.3364 69.6662 80.9022 69.6662C80.4675 69.6662 80.1157 69.315 80.1157 68.8812C80.1157 68.4478 80.4675 68.0963 80.9022 68.0963C81.3364 68.0963 81.6886 68.4478 81.6886 68.8812Z" fill="#EBFFFE"/>
<path d="M83.1399 63.9565C83.1399 64.3562 82.8146 64.6804 82.4142 64.6804C82.0133 64.6804 81.6885 64.3562 81.6885 63.9565C81.6885 63.5564 82.0133 63.2322 82.4142 63.2322C82.8146 63.2322 83.1399 63.5564 83.1399 63.9565Z" fill="#EBFFFE"/>
<path d="M113.717 32.5507C113.717 35.6347 111.213 38.1347 108.123 38.1347C105.033 38.1347 102.528 35.6347 102.528 32.5507C102.528 29.4668 105.033 26.9667 108.123 26.9667C111.213 26.9667 113.717 29.4668 113.717 32.5507Z" fill="#6C6FC3"/>
<path d="M200.508 52.0178C192.032 42.9511 177.201 41.7619 167.147 51.7955C152.793 66.1228 140.105 52.487 140.105 70.4251C140.105 88.3635 157.104 99.2413 172.433 104.882C187.763 110.522 184.959 108.94 201.955 101.553C218.95 94.167 219.777 75.2563 213.135 66.4602C210.277 62.6743 205.277 57.1188 200.508 52.0178Z" fill="#6C6FC3"/>
<path d="M201.04 62.5937C201.268 62.5937 206.159 64.3088 207.083 65.2322C208.009 66.1555 209.236 67.4746 208.689 68.7057C208.141 69.9365 200.123 67.9143 200.123 67.9143L201.04 62.5937Z" fill="#FAB480"/>
<path d="M197.568 59.1206C197.568 59.1206 200.563 59.9996 200.563 60.4836C200.563 60.9673 200.211 62.8139 196.422 62.2423C192.634 61.6708 197.568 59.1206 197.568 59.1206Z" fill="#FAB480"/>
<path d="M207.281 69.1029C205.925 69.1029 203.871 68.7374 202.311 68.4117C203.486 67.2425 204.869 65.8918 206.047 64.5643C206.515 64.8063 206.888 65.037 207.083 65.2322C207.849 65.9966 208.823 67.0328 208.824 68.0656C208.824 68.2798 208.782 68.494 208.688 68.7057C208.56 68.9928 208.026 69.1029 207.281 69.1029Z" fill="#F57F40"/>
<path d="M197.748 62.3507C197.54 62.3507 197.317 62.3412 197.077 62.3205C197.468 61.1752 197.858 60.1006 198.329 59.3612C199.217 59.657 200.564 60.159 200.564 60.4836C200.564 60.9033 200.298 62.3507 197.748 62.3507Z" fill="#F57F40"/>
<path d="M140.196 93.3059C140.196 93.3059 157.894 88.7159 163.05 85.0996C168.206 81.4833 168.276 74.181 170.854 71.608C173.432 69.0346 173.92 66.3223 173.92 65.349C173.92 64.3754 174.756 58.116 174.756 58.116C174.756 58.116 174.477 50.0487 176.567 50.0487C178.658 50.0487 179.912 53.8043 179.215 57.0034C178.518 60.2026 177.682 70.9126 178.518 70.9126C179.354 70.9126 180.887 61.7323 180.887 61.7323L184.929 52.5528C184.929 52.5528 187.994 46.2938 190.921 47.1281C193.847 47.9628 189.527 54.5001 189.527 54.5001C189.527 54.5001 189.597 58.0467 188.413 59.2289C187.228 60.4112 184.929 69.4447 184.929 70.1788C184.929 70.9126 190.224 61.7323 190.224 61.7323L193.847 57.1427C193.847 57.1427 198.167 50.4662 200.397 50.4662C202.627 50.4662 202.766 52.97 201.93 54.9169C201.094 56.8642 200.327 57.2468 198.76 58.8118C197.192 60.3763 196.565 65.5924 194.683 67.47C192.802 69.3477 190.712 74.7723 190.712 74.7723C190.712 74.7723 195.101 68.7216 195.833 67.9913C196.565 67.2615 198.132 65.1752 198.132 65.1752C198.132 65.1752 201.348 61.949 202.401 60.898C203.455 59.847 205.344 57.6644 206.494 57.6644C207.643 57.6644 208.689 57.873 208.689 60.0633C208.689 62.2543 204.769 65.9575 202.104 68.6178C199.439 71.2777 197.139 75.2419 196.356 76.0238C195.572 76.8065 191.025 80.197 193.116 82.2828C195.206 84.3694 196.826 80.1446 197.923 79.0492C199.021 77.9535 202.94 76.2328 205.657 77.3802C208.375 78.5276 208.218 78.9968 207.121 80.0921C206.023 81.1878 201.477 82.7003 200.118 84.8907C198.76 87.0817 194.004 87.7595 192.489 89.272C190.973 90.7849 189.98 96.1572 183.082 95.0098C176.184 93.8624 156.326 101.895 155.699 104.502C155.072 107.111 138.001 95.4962 140.196 93.3059Z" fill="#FDA16F"/>
<path d="M207.122 80.0918C206.023 81.1892 201.476 82.7017 200.12 84.8892C198.759 87.081 194.005 87.7595 192.49 89.272C190.973 90.7863 189.984 96.1536 183.08 95.0094C176.183 93.8623 156.325 101.893 155.697 104.503C155.571 105.023 154.788 104.978 153.632 104.549C149.012 102.842 138.44 95.0586 140.195 93.3069C140.195 93.3069 146.612 91.6428 152.843 89.5291C156.959 88.1327 160.998 86.5393 163.049 85.1006C163.602 84.7134 164.095 84.2846 164.539 83.8199C168.247 79.9722 168.55 73.908 170.855 71.6076C173.431 69.0363 173.921 66.3244 173.921 65.3497C173.921 64.3757 174.756 58.1142 174.756 58.1142C174.781 58.008 174.411 49.8914 176.715 50.056C178.717 50.2245 179.895 53.8831 179.214 57.0031C178.523 60.1807 177.68 70.9108 178.516 70.9108C179.355 70.9108 180.888 61.7337 180.888 61.7337L184.927 52.5535C184.998 52.4908 188.015 46.0901 191.08 47.1819C193.685 48.2094 189.526 54.4986 189.526 54.4986C189.526 54.4986 189.596 58.0477 188.412 59.2293C187.284 60.3549 185.142 68.6142 184.941 70.0212C184.931 70.1232 184.927 70.1795 184.927 70.1795C184.927 70.9108 190.224 61.7337 190.224 61.7337L193.846 57.1434C193.846 57.1434 198.167 50.4676 200.398 50.4676C202.591 50.4676 202.788 52.9182 201.931 54.9168C201.092 56.8655 200.328 57.2454 198.759 58.811C197.191 60.3763 196.564 65.5927 194.682 67.4711C193.251 68.9023 191.697 72.3881 191.038 73.9675L191.034 73.9819C190.855 74.4072 190.742 74.6921 190.72 74.7593C190.745 74.7241 190.816 74.6288 190.918 74.4884H190.922C197.175 65.8938 194.366 70.0128 198.132 65.1738C198.132 65.1738 201.35 61.9483 202.4 60.8965C203.454 59.8487 205.343 57.6643 206.495 57.6643C207.97 57.6643 208.687 58.1652 208.687 60.0629C208.687 62.2547 204.768 65.9585 202.104 68.6178C199.439 71.2766 197.138 75.2412 196.356 76.0252C195.39 76.9844 191.046 80.2159 193.117 82.2828C195.207 84.369 196.825 80.1442 197.924 79.0506C199.02 77.9528 202.939 76.2331 205.656 77.3798C208.373 78.5265 208.218 78.9975 207.122 80.0918Z" fill="#FDA16F"/>
<path d="M184.895 95.168C184.695 95.168 184.49 95.1617 184.277 95.1483C184.49 95.1617 184.695 95.168 184.894 95.168C186.716 95.168 188.022 94.6295 189.007 93.8676C188.023 94.6302 186.716 95.168 184.895 95.168ZM183.142 95.0192C183.141 95.0192 183.139 95.0189 183.138 95.0186C183.139 95.0189 183.14 95.0189 183.142 95.0192Z" fill="#FC8C59"/>
<path d="M155.051 104.882C154.695 104.882 154.21 104.763 153.632 104.549C151.98 100.774 152.198 94.71 152.843 89.5291C156.959 88.1327 160.998 86.5393 163.049 85.1006C163.602 84.7134 164.095 84.2846 164.54 83.8199L189.054 93.8307C189.038 93.843 189.023 93.8553 189.007 93.8676C188.022 94.6295 186.716 95.168 184.894 95.168C184.695 95.168 184.49 95.1617 184.277 95.1483C183.918 95.1258 183.54 95.0832 183.142 95.0192C183.14 95.0189 183.139 95.0189 183.138 95.0185C183.119 95.0157 183.1 95.0125 183.081 95.0094C182.626 94.9337 182.114 94.8979 181.556 94.8979C173.648 94.8979 156.284 102.065 155.697 104.503C155.634 104.763 155.407 104.882 155.051 104.882Z" fill="#FC8C59"/>
<path d="M178.322 70.6368H178.322C178.169 70.1004 178.14 68.8257 178.191 67.2418C178.14 68.8253 178.169 70.1004 178.322 70.6368Z" fill="#FC8C59"/>
<path d="M178.322 70.6368C177.842 70.6312 176.836 62.9008 177.48 60.7348C178.125 58.568 177.892 54.6355 177.48 51.8816C177.378 51.1954 177.089 50.5872 176.715 50.0561C178.33 50.1922 179.408 52.5989 179.408 55.162C179.408 55.7762 179.345 56.3998 179.214 57.0031C178.783 58.9827 178.3 63.8291 178.191 67.2418C178.139 68.8257 178.169 70.1004 178.322 70.6368Z" fill="#FC8C59"/>
<path d="M184.941 70.0212C185.022 68.9343 185.505 62.5747 185.505 61.611C185.505 60.5557 187.465 55.2229 188.49 53.4645C189.308 52.068 190.587 48.5678 191.08 47.1819C191.701 47.4267 191.937 47.9702 191.938 48.6564C191.939 50.8496 189.526 54.4986 189.526 54.4986C189.526 54.4986 189.527 54.538 189.527 54.6101C189.527 55.2208 189.472 58.1723 188.413 59.2293C187.284 60.3549 185.142 68.6142 184.941 70.0212Z" fill="#FC8C59"/>
<path d="M190.918 74.4954V74.4882H190.922L190.918 74.4954Z" fill="#FC8C59"/>
<path d="M190.922 74.4884V74.4846L190.943 74.4567L190.922 74.4884Z" fill="#FC8C59"/>
<path d="M201.938 54.9007C201.939 54.8995 201.939 54.8979 201.94 54.8968C201.939 54.8979 201.939 54.8995 201.938 54.9007Z" fill="#ABFEE6"/>
<path d="M202.214 51.6446C202.066 51.2622 201.826 50.947 201.483 50.7392C201.483 50.7388 201.483 50.7385 201.483 50.7385C201.828 50.9467 202.067 51.2626 202.214 51.6446Z" fill="#FC8C59"/>
<path d="M191.038 73.9675C191.499 71.9875 193.142 65.0792 194.044 63.0778C195.101 60.7313 196.219 58.7404 199.214 56.9218C201.304 55.6524 201.533 52.5155 201.483 50.7392C201.827 50.9471 202.066 51.2622 202.214 51.6446C202.558 52.5373 202.405 53.7916 201.947 54.8803C201.944 54.8859 201.942 54.8916 201.94 54.8972C201.939 54.8982 201.939 54.8997 201.938 54.9007C201.936 54.9063 201.933 54.9116 201.931 54.9169C201.092 56.8656 200.328 57.2455 198.759 58.8111C197.191 60.3764 196.564 65.5928 194.682 67.4711C193.251 68.9024 191.697 72.3882 191.038 73.9675Z" fill="#FC8C59"/>
<path d="M192.631 81.4671C192.629 81.4657 192.628 81.464 192.626 81.4626C192.447 80.7812 192.72 80.0299 193.189 79.3053C192.719 80.0316 192.447 80.7844 192.631 81.4671Z" fill="#ABFEE6"/>
<path d="M192.627 81.4626C192.625 81.4608 192.623 81.459 192.622 81.4573C192.386 80.5765 192.908 79.5881 193.642 78.6848C193.478 78.8878 193.326 79.0953 193.19 79.3053C192.72 80.0299 192.448 80.7812 192.627 81.4626ZM208.687 60.0499C208.687 60.0496 208.687 60.0496 208.687 60.0492C208.687 60.0496 208.687 60.0496 208.687 60.0499ZM207.998 58.0263C207.991 58.0207 207.983 58.0151 207.975 58.0094C207.975 58.0094 207.975 58.0091 207.975 58.0087C207.983 58.0147 207.991 58.0203 207.998 58.0263Z" fill="#FC8C59"/>
<path d="M192.621 81.4573C192.582 81.4168 192.547 81.3672 192.518 81.3088C191.284 78.9658 195.806 75.213 197.779 71.386C199.749 67.559 199.623 68.5295 201.621 67.2386C203.619 65.9512 205.568 62.0331 207.319 60.2845C208.193 59.4129 208.193 58.6039 207.975 58.0094C207.983 58.0151 207.99 58.0207 207.998 58.0263C208.416 58.3461 208.684 58.9426 208.686 60.0492C208.686 60.0496 208.686 60.0496 208.686 60.0499C208.686 60.0545 208.686 60.0587 208.686 60.0629C208.686 62.2547 204.768 65.9586 202.104 68.6178C199.439 71.2766 197.138 75.2412 196.355 76.0252C195.96 76.4181 194.615 77.4706 193.641 78.6848C192.908 79.5881 192.385 80.5765 192.621 81.4573Z" fill="#FC8C59"/>
<path d="M184.941 53.8736C186.225 54.8061 187.784 54.7825 188.301 54.8704C186.914 55.3527 185.392 54.7804 184.941 53.8736Z" fill="#FF8955"/>
<path d="M194.631 56.6017C194.869 57.154 195.236 57.9556 195.612 58.4266C196.092 59.0583 196.524 59.3151 197.274 59.5015C195.698 59.7675 194.631 57.9897 194.631 56.6017Z" fill="#FF8955"/>
<path d="M202.678 62.0812C203.146 63.6047 204.629 63.7032 204.779 63.7925C204.918 63.8231 205.06 63.8526 205.204 63.8984C203.621 64.2543 202.469 63.1312 202.678 62.0812Z" fill="#FF8955"/>
<path d="M197.274 67.8851C198.28 68.5151 199.114 68.6343 199.645 68.8228C198.663 69.1359 197.533 68.5668 197.274 67.8851Z" fill="#FF8955"/>
<path d="M175.249 55.8867C176.295 56.036 177.006 56.2973 177.859 55.8867C177.401 56.7231 175.94 56.5375 175.249 55.8867Z" fill="#FF8955"/>
<path d="M174.72 62.0812C176.101 61.9352 176.622 61.8424 177.505 61.1287C177.126 62.2159 175.649 62.5213 174.72 62.0812Z" fill="#FF8955"/>
<path d="M203.37 82.2744L202.678 81.4672L206.555 78.8477L207.597 80.0014L203.37 82.2744Z" fill="#FF8955"/>
<path d="M163.422 62.4246C165.081 60.8463 167.602 60.7165 169.403 61.9969C170.957 60.8864 173.14 61.0584 174.497 62.4784C175.982 64.0331 175.923 66.5042 174.366 67.9864C173.822 68.5035 173.143 68.8461 172.42 68.9868C172.508 70.5144 171.927 72.0421 170.791 73.1233C169.542 74.3122 167.821 74.7966 166.184 74.4966C166.023 75.1086 165.697 75.6753 165.226 76.1234C163.844 77.4396 161.646 77.3872 160.328 76.0077C159.247 74.8765 159.088 73.1993 159.826 71.9063C158.535 70.525 158.596 68.3526 159.969 67.0452C160.532 66.5091 161.238 66.1908 161.974 66.1095C161.891 64.7553 162.399 63.3989 163.422 62.4246Z" fill="#FFF6F0"/>
<path d="M187.922 57.7551C188.938 58.5219 189.235 59.8913 188.691 60.9922C189.441 61.7443 189.541 62.9553 188.882 63.8252C188.16 64.7777 186.796 64.9663 185.842 64.2452C185.509 63.9941 185.26 63.6525 185.118 63.2691C184.286 63.4534 183.394 63.2719 182.698 62.7464C181.933 62.1685 181.513 61.2691 181.532 60.3454C181.181 60.3123 180.84 60.1843 180.552 59.9662C179.705 59.3264 179.537 58.1185 180.178 57.2732C180.703 56.5803 181.611 56.3432 182.388 56.6323C183.032 55.8015 184.232 55.6408 185.074 56.2764C185.419 56.5367 185.656 56.8947 185.767 57.2905C186.504 57.1248 187.295 57.2813 187.922 57.7551Z" fill="#FFF6F0"/>
<path d="M193.64 75.4304C194.656 76.1972 194.952 77.5666 194.409 78.6675C195.159 79.4196 195.259 80.6307 194.599 81.5005C193.877 82.4531 192.514 82.6416 191.559 81.9205C191.227 81.6694 190.978 81.3278 190.835 80.9444C190.003 81.1287 189.112 80.9472 188.416 80.4217C187.651 79.8438 187.231 78.9444 187.249 78.0207C186.899 77.9876 186.558 77.8596 186.269 77.6415C185.423 77.0017 185.255 75.7938 185.896 74.9485C186.421 74.2559 187.329 74.0182 188.106 74.3073C188.75 73.4768 189.95 73.3161 190.791 73.9517C191.136 74.212 191.374 74.57 191.485 74.9658C192.222 74.8001 193.013 74.9566 193.64 75.4304Z" fill="#FFF6F0"/>
<path d="M184.357 73.0143C182.791 74.6654 180.294 74.9221 178.441 73.742C176.953 74.9235 174.777 74.8634 173.358 73.5225C171.804 72.0543 171.737 69.5981 173.208 68.0469C173.721 67.5059 174.378 67.1313 175.088 66.9547C174.924 65.4425 175.422 63.8966 176.495 62.765C177.675 61.5213 179.359 60.9528 181 61.1677C181.128 60.5522 181.423 59.9725 181.868 59.5033C183.174 58.1269 185.358 58.0671 186.737 59.37C187.868 60.4386 188.112 62.096 187.444 63.4168C188.797 64.7229 188.847 66.8836 187.55 68.2512C187.018 68.8116 186.334 69.1637 185.607 69.2819C185.758 70.6224 185.323 71.9945 184.357 73.0143Z" fill="#FFF6F0"/>
<path d="M155.261 67.3902C155.947 66.5133 157.152 66.273 158.109 66.762C158.779 66.1179 159.842 66.0465 160.596 66.6343C161.421 67.2776 161.568 68.4715 160.923 69.2949C160.698 69.5823 160.396 69.7951 160.058 69.914C160.208 70.6431 160.037 71.4194 159.567 72.0199C159.05 72.6808 158.255 73.0354 157.446 73.0069C157.412 73.3126 157.295 73.6084 157.1 73.8574C156.528 74.5887 155.467 74.7185 154.734 74.1476C154.134 73.6794 153.938 72.8831 154.202 72.2088C153.482 71.6351 153.358 70.5848 153.926 69.8587C154.159 69.5608 154.476 69.3575 154.825 69.2664C154.689 68.6202 154.837 67.9315 155.261 67.3902Z" fill="#FFF6F0"/>
<path d="M158.514 62.6687C158.514 63.5062 157.834 64.1854 156.995 64.1854C156.155 64.1854 155.475 63.5062 155.475 62.6687C155.475 61.8312 156.155 61.152 156.995 61.152C157.834 61.152 158.514 61.8312 158.514 62.6687Z" fill="#FFF6F0"/>
<path d="M166.048 58.9968C166.048 59.8955 165.318 60.6236 164.418 60.6236C163.518 60.6236 162.788 59.8955 162.788 58.9968C162.788 58.098 163.518 57.3699 164.418 57.3699C165.318 57.3699 166.048 58.098 166.048 58.9968Z" fill="#FFF6F0"/>
<path d="M189.321 71.3864C189.321 71.9485 188.864 72.4044 188.301 72.4044C187.737 72.4044 187.281 71.9485 187.281 71.3864C187.281 70.8243 187.737 70.3685 188.301 70.3685C188.864 70.3685 189.321 70.8243 189.321 71.3864Z" fill="#FFF6F0"/>
<path d="M169.923 49.4549C169.923 50.086 169.411 50.5974 168.778 50.5974C168.146 50.5974 167.634 50.086 167.634 49.4549C167.634 48.8239 168.146 48.3124 168.778 48.3124C169.411 48.3124 169.923 48.8239 169.923 49.4549Z" fill="#FFF6F0"/>
<path d="M190.116 80.8959C190.116 81.5153 189.613 82.0176 188.992 82.0176C188.371 82.0176 187.868 81.5153 187.868 80.8959C187.868 80.2761 188.371 79.7738 188.992 79.7738C189.613 79.7738 190.116 80.2761 190.116 80.8959Z" fill="#FFF6F0"/>
<path d="M186.458 76.1293C186.458 76.7611 186.032 77.2729 185.507 77.2729C184.981 77.2729 184.555 76.7611 184.555 76.1293C184.555 75.4976 184.981 74.9855 185.507 74.9855C186.032 74.9855 186.458 75.4976 186.458 76.1293Z" fill="#FFF6F0"/>
<path d="M158.897 76.6936C158.897 77.6362 158.131 78.4009 157.186 78.4009C156.241 78.4009 155.475 77.6362 155.475 76.6936C155.475 75.7502 156.241 74.9855 157.186 74.9855C158.131 74.9855 158.897 75.7502 158.897 76.6936Z" fill="#FFF6F0"/>
<path d="M199.154 81.7798C196.927 84.0032 191.122 92.9619 189.346 94.735C187.57 96.5079 183.292 94.1758 179.842 97.6194C176.392 101.059 175.14 114.204 175.14 114.204C175.14 114.204 155.803 113.996 155.176 110.033C155.176 110.033 159.193 91.97 159.193 87.1267C159.193 82.2828 160.297 80.612 160.297 80.612C160.297 80.612 168.335 64.6462 169.639 63.3416C170.267 62.7151 174.151 59.6292 174.345 61.3099C174.556 63.1319 171.049 69.761 171.049 69.761L175.454 62.7749L183.144 56.6017L180.776 62.3743C180.776 62.3743 178.795 71.4209 179.595 71.1082C180.395 70.7951 184.092 62.9828 184.092 62.2192C184.092 61.4559 184.754 60.8227 185.138 60.4397C185.519 60.0563 188.899 57.6257 188.899 57.6257L193.195 57.9665L190.072 61.994L186.322 70.9108L194.266 63.1939L200.581 62.719L196.93 66.718C196.93 66.718 186.95 78.6317 188.307 79.9898C189.667 81.3437 195.792 78.4864 195.834 78.2135C196.055 76.7906 197.692 74.2208 197.692 74.2208C198.337 73.2925 199.14 72.1318 200.042 70.9812C201.582 70.9812 201.381 79.5533 199.154 81.7798Z" fill="#FAB480"/>
<path d="M173.913 47.0567C173.913 49.8496 171.644 52.1138 168.846 52.1138C166.048 52.1138 163.78 49.8496 163.78 47.0567C163.78 44.2639 166.048 42 168.846 42C171.644 42 173.913 44.2639 173.913 47.0567Z" fill="#6C6FC3"/>
<path d="M192.528 100.555C190.962 102.207 188.466 102.463 186.612 101.283C185.125 102.465 182.949 102.405 181.53 101.064C179.976 99.5955 179.908 97.1389 181.379 95.588C181.893 95.047 182.549 94.6724 183.26 94.4958C183.096 92.9837 183.594 91.4377 184.667 90.3065C185.847 89.0624 187.531 88.494 189.172 88.7089C189.3 88.0933 189.595 87.5136 190.04 87.0444C191.345 85.668 193.53 85.6082 194.909 86.9114C196.04 87.9793 196.283 89.6368 195.616 90.9579C196.969 92.264 197.019 94.4248 195.722 95.792C195.19 96.3527 194.506 96.7048 193.779 96.8233C193.93 98.1635 193.495 99.536 192.528 100.555Z" fill="#FFF6F0"/>
<path d="M201.092 87.6248C201.092 88.2492 200.445 88.7554 199.645 88.7554C198.846 88.7554 198.199 88.2492 198.199 87.6248C198.199 87.0001 198.846 86.4943 199.645 86.4943C200.445 86.4943 201.092 87.0001 201.092 87.6248Z" fill="#FFF6F0"/>
<path d="M180.959 71.5819C180.959 72.2527 180.415 72.7958 179.743 72.7958C179.071 72.7958 178.527 72.2527 178.527 71.5819C178.527 70.9119 179.071 70.3684 179.743 70.3684C180.415 70.3684 180.959 70.9119 180.959 71.5819Z" fill="#FFF6F0"/>
<path d="M168.426 75.0678C168.426 75.899 167.751 76.5729 166.918 76.5729C166.085 76.5729 165.41 75.899 165.41 75.0678C165.41 74.2366 166.085 73.5626 166.918 73.5626C167.751 73.5626 168.426 74.2366 168.426 75.0678Z" fill="#FFF6F0"/>
<path d="M167.634 70.379C167.634 71.4976 166.466 72.4044 165.024 72.4044C163.583 72.4044 162.415 71.4976 162.415 70.379C162.415 69.2608 163.583 68.354 165.024 68.354C166.466 68.354 167.634 69.2608 167.634 70.379Z" fill="#FFF6F0"/>
<path d="M213.033 101.001C213.033 101.657 212.499 102.19 211.841 102.19C211.184 102.19 210.651 101.657 210.651 101.001C210.651 100.345 211.184 99.8125 211.841 99.8125C212.499 99.8125 213.033 100.345 213.033 101.001Z" fill="#6C6FC3"/>
<path d="M129.973 135.998C128 134.821 120.19 116.402 103.288 112.433C86.3864 108.463 97.1255 104.457 76.8124 113.344C56.4993 122.231 41.7393 146.541 51.4098 156.194C61.0803 165.846 59.797 161.622 74.9309 169.921C90.0648 178.22 112.135 179.597 122.251 176.384C132.366 173.172 146.892 146.095 129.973 135.998Z" fill="#6C6FC3"/>
<path d="M46.7773 150.003C46.7773 150.003 81.9295 141.169 86.2976 136.809C90.6657 132.449 98.3674 128.893 100.322 126.942C102.276 124.992 108.368 120.402 108.713 120.058C109.058 119.714 113.426 117.764 115.035 121.205C115.035 121.205 116.185 120.861 118.484 119.943C120.783 119.026 122.852 121.779 122.852 121.779C122.852 121.779 124.576 120.861 126.645 121.435C128.714 122.009 128.829 124.303 128.829 124.303V127.286C128.829 127.286 130.209 128.319 130.783 131.072C131.358 133.826 127.68 136.809 127.68 136.809C127.68 136.809 123.312 138.301 123.312 136.35C123.312 136.35 123.771 139.218 123.771 140.939C123.771 142.66 119.058 148.397 115.61 149.774C112.161 151.15 106.299 152.298 102.391 151.495C98.4823 150.692 82.461 155.482 73.0783 163.197C66.9027 168.276 66.4112 168.475 66.4112 168.475C66.4112 168.475 44.7082 154.821 46.7773 150.003Z" fill="#FAB480"/>
<path d="M56.6416 147.536C56.8177 144.574 59.096 142.227 61.9394 141.853C62.4314 139.427 64.6559 137.664 67.2014 137.815C69.9882 137.98 72.1208 140.377 71.9557 143.159C71.8983 144.129 71.5571 145.054 70.9952 145.825C72.4312 147.199 73.2335 149.16 73.113 151.189C72.9806 153.42 71.7755 155.398 69.9561 156.558C70.346 157.281 70.5382 158.106 70.488 158.948C70.3414 161.416 68.2097 163.306 65.736 163.16C63.7087 163.039 62.0714 161.588 61.6272 159.709C59.1779 159.538 57.3111 157.422 57.4568 154.969C57.5161 153.963 57.9042 153.039 58.5309 152.311C57.2531 151.099 56.5331 149.364 56.6416 147.536Z" fill="#FFF6F0"/>
<path d="M100.373 125.937C102.888 127.517 103.852 130.641 102.81 133.308C104.703 134.907 105.18 137.702 103.821 139.856C102.334 142.214 99.2021 142.925 96.8392 141.44C96.0152 140.922 95.3678 140.179 94.9609 139.316C93.0633 139.91 90.9546 139.668 89.2318 138.585C87.3365 137.395 86.1796 135.388 86.0375 133.237C85.2159 133.231 84.3979 133.001 83.6833 132.552C81.5862 131.234 80.954 128.46 82.2741 126.367C83.356 124.651 85.4191 123.917 87.2827 124.435C88.6129 122.374 91.3703 121.761 93.4532 123.07C94.3075 123.606 94.9328 124.391 95.2694 125.289C96.9495 124.756 98.8195 124.961 100.373 125.937Z" fill="#FFF6F0"/>
<path d="M127.681 136.81C127.681 136.81 125.74 137.476 124.444 137.334C123.966 137.288 123.579 137.127 123.409 136.787C123.386 136.751 123.372 136.709 123.358 136.664C123.368 136.719 123.377 136.779 123.386 136.847C123.519 137.742 123.773 139.66 123.773 140.941C123.773 141.262 123.607 141.725 123.317 142.276V142.281C122.043 144.663 118.411 148.656 115.611 149.775C112.829 150.886 108.475 151.85 104.843 151.753C103.978 151.735 103.145 151.652 102.391 151.496C98.483 150.693 82.459 155.48 73.0795 163.199C66.9039 168.275 66.4124 168.476 66.4124 168.476C66.4124 168.476 62.7749 166.191 58.6234 163.157C52.6276 158.779 45.5553 152.85 46.7784 150.004C46.7784 150.004 81.9307 141.17 86.2988 136.81C90.6669 132.451 98.3685 128.894 100.322 126.943C102.277 124.993 108.369 120.404 108.714 120.06C108.981 119.793 111.67 118.559 113.611 119.624C114.176 119.931 114.673 120.432 115.036 121.207C115.036 121.207 115.822 120.115 118.122 119.197C119.106 118.803 120.416 119.835 121.17 120.284C122.177 120.881 122.853 121.78 122.853 121.78C122.853 121.78 124.577 120.863 126.646 121.436C127.892 121.78 128.43 122.749 128.66 123.465C128.812 123.942 128.83 124.305 128.83 124.305V127.288C128.83 127.288 130.21 128.32 130.784 131.074C131.359 133.827 127.681 136.81 127.681 136.81Z" fill="#FAB480"/>
<path d="M66.4126 168.476C66.4126 168.476 62.7751 166.191 58.6235 163.157C63.7453 159.848 70.2284 155.874 74.6338 153.952C76.6735 153.061 78.7941 152.144 80.8627 151.267C81.0949 152.144 81.5662 152.97 82.2739 153.638C83.0164 154.34 83.9172 154.773 84.8556 154.94C82.718 156.266 78.9486 158.928 76.3728 160.774C75.4201 161.406 74.5046 162.065 73.6397 162.748C73.6342 162.752 73.631 162.753 73.631 162.753C73.631 162.753 73.631 162.754 73.6314 162.754C73.4452 162.901 73.2608 163.049 73.0797 163.199C71.0915 164.833 69.6928 165.961 68.7097 166.741C66.6388 168.384 66.4126 168.476 66.4126 168.476Z" fill="#F7975D"/>
<path d="M104.843 151.753C103.978 151.735 103.146 151.652 102.392 151.496C102.106 151.437 101.755 151.408 101.348 151.408C101.24 151.408 101.128 151.411 101.013 151.415C101.013 151.414 101.013 151.414 101.013 151.413C101.013 149.655 101.322 148.453 101.63 147.529C102.216 148.081 102.834 148.794 103.486 149.711C103.992 150.422 104.443 151.106 104.843 151.753Z" fill="#F7975D"/>
<path d="M124.444 137.334C123.966 137.288 123.579 137.127 123.409 136.787C123.377 136.654 123.32 136.511 123.312 136.351C123.286 135.785 125.743 132.865 127.464 132.865C127.794 132.865 128.098 132.973 128.352 133.227C128.352 133.227 125.556 135.769 124.444 137.334Z" fill="#F7975D"/>
<path d="M120.897 130.954C120.428 130.954 120.019 129.804 120.019 129.804C120.019 129.804 121.634 125.053 123.662 124.02C124.763 123.461 125.807 123.289 126.773 123.289C127.441 123.289 128.072 123.371 128.66 123.465C128.812 123.942 128.83 124.305 128.83 124.305V127.288C128.83 127.288 128.195 126.168 126.848 126.168C126.628 126.168 126.39 126.198 126.131 126.267C125.289 126.495 123.104 127.04 121.341 130.551C121.195 130.843 121.043 130.954 120.897 130.954Z" fill="#F7975D"/>
<path d="M117.148 126.479C117.148 126.479 114.783 125.824 116.13 124.929C116.641 124.589 120.406 120.344 121.17 120.284C122.177 120.881 122.853 121.78 122.853 121.78L119.464 123.63L117.148 126.479Z" fill="#F7975D"/>
<path d="M110.038 125.11C109.779 125.11 109.725 124.703 109.725 124.297C109.726 123.89 109.781 123.484 109.743 123.484C109.742 123.484 109.74 123.484 109.738 123.486C109.89 123.27 110.884 121.79 112.144 120.532C112.599 120.078 113.114 119.789 113.611 119.624C114.176 119.931 114.673 120.432 115.036 121.207C115.036 121.207 111.9 123.455 110.576 124.776C110.337 125.014 110.164 125.11 110.038 125.11Z" fill="#F7975D"/>
<path d="M115.409 143.534C115.519 143.451 115.808 143.24 116.217 142.969C115.808 143.258 115.519 143.46 115.409 143.534Z" fill="#F7975D"/>
<path d="M116.268 142.933C118.227 141.551 122.724 138.265 123.386 136.847C123.519 137.742 123.772 139.66 123.772 140.941C123.772 141.262 123.607 141.725 123.317 142.276C123.28 141.827 123.142 141.436 122.853 141.147C122.529 140.824 122.085 140.691 121.574 140.691C119.915 140.691 117.548 142.091 116.268 142.933Z" fill="#F7975D"/>
<path d="M86.7674 136.356C85.9908 137.086 84.9195 142.662 84.9195 142.662C84.9195 142.662 84.0638 143.855 83.0247 144.484H83.0205C81.5671 145.359 80.6181 144.62 80.0773 143.043C78.9669 145.758 75.7189 147.087 75.2545 143.185C74.9561 145.139 73.6893 145.942 71.7595 145.626C70.325 145.388 70.1318 143.465 70.1318 143.465C70.1318 143.416 70.1507 140.821 70.2008 140.821C70.3438 139.123 70.7388 137.173 71.8147 136.751C73.7096 136.007 75.1483 135.948 75.1483 135.948C75.1483 135.948 75.4246 135.999 75.6127 136.435C75.7051 136.654 75.7787 136.976 75.7787 137.439L76.2978 135.548C76.2978 135.548 77.1029 135.089 78.9421 134.686C79.7541 134.512 80.5771 134.611 80.6613 135.425C80.6613 135.365 80.6705 135.282 80.6939 135.186V135.177C80.9303 134.291 81.6075 134.266 85.6276 133.332C85.6276 133.332 87.5399 135.626 86.7674 136.356Z" fill="#FDA16F"/>
<path d="M80.0713 143.057C80.0736 143.052 80.0755 143.047 80.0774 143.042C80.0755 143.047 80.0736 143.053 80.0713 143.057Z" fill="#F98E57"/>
<path d="M80.1776 134.725C80.0034 134.647 79.7948 134.613 79.5697 134.613C79.4778 134.613 79.3836 134.619 79.2876 134.629C79.289 134.628 79.2899 134.627 79.2908 134.626C79.3855 134.615 79.4783 134.61 79.5683 134.61C79.7944 134.61 80.0034 134.645 80.1776 134.725Z" fill="#116E5B"/>
<path d="M79.0889 144.562C78.8641 141.396 78.6484 135.289 79.288 134.629C79.3841 134.619 79.4783 134.613 79.5703 134.613C79.7956 134.613 80.0044 134.647 80.1786 134.725C80.4421 134.847 80.6246 135.07 80.6614 135.425C80.6614 135.425 79.8292 140.679 80.0775 143.043C80.0756 143.048 80.0738 143.052 80.0715 143.057C79.8462 143.603 79.499 144.13 79.0889 144.562Z" fill="#FC7F4B"/>
<path d="M80.6611 135.425C80.6611 135.365 80.6703 135.282 80.6938 135.185C80.6887 135.319 80.6611 135.425 80.6611 135.425Z" fill="#FC7F4B"/>
<path d="M74.0273 145.316C74.6688 144.923 75.091 144.221 75.25 143.206C75.0777 144.305 74.6182 144.96 74.0273 145.316ZM75.2509 143.203C75.2518 143.197 75.2527 143.191 75.2537 143.185C75.2527 143.191 75.2518 143.197 75.2509 143.203Z" fill="#F98E57"/>
<path d="M74.0218 145.319C73.5712 144.062 73.3004 142.538 73.631 141.047C74.1 138.917 74.9874 137.339 75.6128 136.434C75.7052 136.654 75.7787 136.976 75.7787 137.439C75.7787 137.439 75.2546 141.592 75.2546 143.185C75.2536 143.191 75.2527 143.197 75.2518 143.203C75.2513 143.204 75.2513 143.205 75.2509 143.206C75.0918 144.221 74.6692 144.923 74.0274 145.316C74.0255 145.317 74.0237 145.318 74.0218 145.319Z" fill="#FC7F4B"/>
<path d="M71.0697 140.724L70.8398 144.204C70.8398 144.204 73.3931 144.484 73.7642 144.484C74.1352 144.484 74.006 141.19 73.7642 140.498C73.5223 139.806 71.1314 139.798 71.0697 140.724Z" fill="#FFC1A6"/>
<path d="M75.9369 140.571L75.707 144.051C75.707 144.051 78.2603 144.331 78.6314 144.331C79.0024 144.331 78.8737 141.037 78.6314 140.345C78.3895 139.653 75.9985 139.644 75.9369 140.571Z" fill="#FFC1A6"/>
<path d="M80.6122 139.806L80.3823 143.286C80.3823 143.286 82.9356 143.566 83.3067 143.566C83.6777 143.566 83.5485 140.272 83.3067 139.58C83.0643 138.888 80.6738 138.88 80.6122 139.806Z" fill="#FFC1A6"/>
<path d="M83.0245 144.484H83.0203C82.6732 144.373 82.5306 144.008 82.4538 143.5C82.8557 143.538 83.1895 143.566 83.3063 143.566C83.6774 143.566 83.5482 140.273 83.3063 139.58C83.1932 139.257 82.6134 139.083 82.0203 139.083C81.9439 139.083 81.8681 139.086 81.7927 139.092C81.6989 137.039 82.372 134.094 82.372 134.094L82.4221 134.08L83.2691 133.882C82.9941 134.674 82.835 135.903 83.5399 137.384C83.9054 138.152 84.745 138.663 85.752 139C85.5442 139.779 85.3557 140.595 85.2104 141.259C84.928 141.828 84.7262 142.433 84.6099 143.053C84.2701 143.458 83.6843 144.085 83.0245 144.484Z" fill="#FC7F4B"/>
<path d="M83.3066 143.566C83.1898 143.566 82.856 143.538 82.4542 143.5C82.3273 142.655 82.3838 141.415 81.9907 140.303C81.8744 139.975 81.8141 139.556 81.793 139.092C81.8684 139.086 81.9442 139.083 82.0206 139.083C82.6137 139.083 83.1935 139.257 83.3066 139.58C83.5485 140.272 83.6777 143.566 83.3066 143.566Z" fill="#FE9971"/>
<path d="M96.6235 152.975C94.5801 155.129 91.3229 155.465 88.9048 153.925C86.9644 155.466 84.1256 155.388 82.2735 153.638C80.2458 151.723 80.158 148.518 82.0772 146.495C82.7467 145.789 83.6038 145.3 84.5312 145.069C84.3169 143.096 84.9666 141.079 86.3662 139.603C87.9056 137.98 90.103 137.239 92.2439 137.519C92.4108 136.716 92.7956 135.96 93.3764 135.348C95.0799 133.552 97.9298 133.474 99.7294 135.174C101.204 136.568 101.523 138.73 100.651 140.454C102.417 142.157 102.482 144.976 100.79 146.761C100.096 147.492 99.203 147.952 98.2553 148.105C98.4521 149.854 97.8852 151.645 96.6235 152.975Z" fill="#FFF6F0"/>
<path d="M97.7939 166.755C97.2191 171.115 99.0578 185.227 99.0578 185.227L77.7925 186.824C77.7916 186.778 78.896 168.532 77.3461 166.985C75.7873 165.429 73.6309 162.753 73.6309 162.753C73.6309 162.753 83.2177 155.755 85.839 154.364C87.9633 153.253 90.5566 147.595 91.3566 147.595C91.3566 147.595 91.6417 141.225 91.6417 139.619C91.6417 139.619 84.7953 140.023 83.54 137.384C82.2848 134.745 83.7699 132.909 83.7699 132.909C83.7699 132.909 91.816 134.86 93.5407 134.286C95.265 133.713 98.2537 140.367 101.012 143.121C103.771 145.874 101.012 146.163 101.012 151.413C101.012 156.659 98.3686 162.395 97.7939 166.755Z" fill="#FDA16F"/>
<path d="M86.5271 137.166C86.5271 138.126 85.7459 138.906 84.7831 138.906C83.8198 138.906 83.0391 138.126 83.0391 137.166C83.0391 136.204 83.8198 135.425 84.7831 135.425C85.7459 135.425 86.5271 136.204 86.5271 137.166Z" fill="#FFF6F0"/>
<path d="M94.2177 140.948C94.2177 142.077 93.3017 142.991 92.1715 142.991C91.0409 142.991 90.1245 142.077 90.1245 140.948C90.1245 139.82 91.0409 138.906 92.1715 138.906C93.3017 138.906 94.2177 139.82 94.2177 140.948Z" fill="#FFF6F0"/>
<path d="M92.4152 146.462C92.4152 147.093 91.9026 147.605 91.2699 147.605C90.6377 147.605 90.1245 147.093 90.1245 146.462C90.1245 145.831 90.6377 145.319 91.2699 145.319C91.9026 145.319 92.4152 145.831 92.4152 146.462Z" fill="#FFF6F0"/>
<path d="M96.4321 144.556C96.4321 144.977 96.09 145.319 95.6675 145.319C95.2454 145.319 94.9028 144.977 94.9028 144.556C94.9028 144.134 95.2454 143.792 95.6675 143.792C96.09 143.792 96.4321 144.134 96.4321 144.556Z" fill="#FFF6F0"/>
<path d="M83.0393 132.143C83.0393 132.8 82.3767 133.332 81.5592 133.332C80.7417 133.332 80.0791 132.8 80.0791 132.143C80.0791 131.487 80.7417 130.954 81.5592 130.954C82.3767 130.954 83.0393 131.487 83.0393 132.143Z" fill="#FFF6F0"/>
<path d="M77.6408 167.568C77.5603 167.306 77.4633 167.108 77.3571 166.996C77.4642 167.109 77.5585 167.303 77.6413 167.567C77.6413 167.567 77.6408 167.568 77.6408 167.568ZM77.3562 166.995C77.3548 166.993 77.3534 166.992 77.3521 166.991C77.3534 166.992 77.3548 166.994 77.3562 166.995ZM77.3511 166.99C77.3498 166.988 77.3479 166.987 77.3461 166.985C75.797 165.439 73.658 162.787 73.6313 162.754C73.658 162.787 75.797 165.439 77.3461 166.985C77.3479 166.987 77.3498 166.988 77.3511 166.99Z" fill="#11796A"/>
<path d="M85.8853 154.339C86.0631 154.241 86.2455 154.107 86.4316 153.951C86.4316 153.952 86.4316 153.952 86.4316 153.953C86.2468 154.109 86.0644 154.24 85.8853 154.339Z" fill="#FED4BE"/>
<path d="M77.6412 167.567C77.5585 167.303 77.4642 167.109 77.3571 166.996C77.3566 166.996 77.3566 166.995 77.3562 166.995C77.3548 166.994 77.3534 166.992 77.352 166.991C77.3516 166.99 77.3516 166.99 77.3511 166.99C77.3497 166.988 77.3479 166.987 77.3461 166.985C75.797 165.439 73.658 162.787 73.6313 162.754C73.6309 162.754 73.6309 162.754 73.6309 162.754C73.6309 162.754 83.2177 155.755 85.839 154.364C85.8542 154.356 85.8698 154.348 85.8855 154.34C86.0648 154.24 86.2473 154.11 86.4322 153.953C86.5379 156.091 87.2313 156.752 82.4498 161.698C80.487 163.731 78.8735 165.791 77.6412 167.567Z" fill="#FC8B58"/>
<path d="M84.5764 132.909L84.3037 135.054C84.3037 135.054 88.887 135.413 89.4332 135.306C89.979 135.198 90.1243 134.168 90.1243 134.168L84.5764 132.909Z" fill="#FFB899"/>
<path d="M50.1861 133.464C50.1861 136.823 47.4576 139.546 44.0928 139.546C40.728 139.546 38 136.823 38 133.464C38 130.106 40.728 127.383 44.0928 127.383C47.4576 127.383 50.1861 130.106 50.1861 133.464Z" fill="#6C6FC3"/>
<path d="M239.677 141.048C238.22 140.009 232.454 123.741 219.977 120.235C207.501 116.728 207.576 121.028 192.581 128.877C177.586 136.726 174.542 150.36 181.681 158.885C188.82 167.411 187.872 163.679 199.044 171.009C210.216 178.34 227.459 177.169 234.926 174.332C242.394 171.495 252.166 149.966 239.677 141.048Z" fill="#6C6FC3"/>
<path d="M207.464 134.615L205.354 128.877L210.167 130.104L211.272 131.882V133.211L207.464 134.615Z" fill="#8C8B8B"/>
<path d="M223.62 135.418C223.62 135.173 227.094 131.285 227.094 131.285L221.716 130.704L217.149 132.434C217.149 132.434 217.832 134.152 218.009 134.329C218.187 134.506 218.788 135.664 218.788 135.664L223.62 135.418Z" fill="#8C8B8B"/>
<path d="M230.255 133.619C230.255 133.619 225.832 135.58 223.866 139.341C221.9 143.102 223.866 148.498 223.866 148.498C223.866 148.498 222.883 175.388 221.081 175.388C219.279 175.388 212.916 174.332 212.916 174.332L212.425 173.639L204.208 174.332L200.931 172.861L203.716 154.548L199.948 149.806L201.423 145.555L196.344 144.737C196.344 144.737 194.624 137.625 196.344 135.908C196.852 135.401 197.504 134.851 198.169 134.328C199.522 133.262 200.938 132.307 201.321 132.052L201.383 132.01L201.423 131.984C201.423 131.984 200.603 135.254 201.423 135.254C202.242 135.254 208.713 133.537 210.269 131.984C210.338 131.915 210.39 131.846 210.429 131.778V131.774C211.255 130.293 205.354 128.877 205.354 128.877C205.354 128.877 207.949 128.422 211.307 128.141C212.074 128.079 212.88 128.026 213.702 127.988C217.07 127.833 220.737 127.958 223.21 128.877C228.944 131.003 226.697 131.549 226.697 131.549C226.697 131.549 216.986 130.839 217.968 133.619C218.951 136.398 230.255 133.619 230.255 133.619Z" fill="#FFFDFD"/>
<path d="M210.822 146.045C210.822 146.045 203.038 139.55 201.937 138.452C200.833 137.35 198.169 134.328 198.169 134.328C199.166 133.528 200.42 132.654 201.383 132.01L201.423 131.984C201.423 131.984 200.603 135.254 201.423 135.254L210.822 146.045Z" fill="#D8E6EF"/>
<path d="M210.429 131.774C211.255 130.293 205.354 128.877 205.354 128.877C205.354 128.877 207.949 128.422 211.307 128.141L214.715 147.226L210.429 131.778V131.774Z" fill="#D8E6EF"/>
<path d="M226.697 131.549C226.697 131.549 216.985 130.839 217.968 133.619L219.832 149.113L213.702 127.988C217.07 127.833 220.737 127.958 223.21 128.877C228.944 131.003 226.697 131.549 226.697 131.549Z" fill="#D8E6EF"/>
<path d="M214.885 152.739L212.916 174.332L212.425 173.639L214.885 152.739Z" fill="#D8E6EF"/>
<path d="M243.97 170.633C243.318 171.386 242.869 171.827 242.869 171.827C242.869 171.827 235.333 164.306 232.492 162.779C229.655 161.251 208.575 148.772 208.575 148.772C208.575 148.772 213.054 140.107 216.439 140.107C219.826 140.107 224.193 141.414 226.595 142.612C228.992 143.808 232.502 147.632 235.114 149.263C237.735 150.898 246.443 154.407 248.219 157.438C250.84 161.905 246.207 168.069 243.97 170.633Z" fill="#FDA16F"/>
<path d="M240.404 169.433C237.945 167.091 234.284 163.742 232.492 162.779C232.353 162.703 232.17 162.602 231.947 162.477C232.17 162.602 232.353 162.703 232.492 162.779C234.284 163.742 237.945 167.091 240.404 169.433ZM232.087 146.917C231.855 146.717 231.621 146.513 231.387 146.31C231.621 146.513 231.854 146.716 232.086 146.915C232.086 146.916 232.087 146.916 232.087 146.917ZM228.445 143.829C228.443 143.828 228.441 143.826 228.439 143.825C228.441 143.826 228.443 143.828 228.445 143.829ZM228.434 143.821C227.888 143.4 227.365 143.036 226.882 142.764C227.366 143.036 227.888 143.4 228.434 143.821ZM226.879 142.763C226.875 142.76 226.871 142.758 226.867 142.756C226.871 142.758 226.875 142.76 226.879 142.763ZM226.862 142.753C226.859 142.751 226.855 142.749 226.852 142.747C226.855 142.749 226.859 142.751 226.862 142.753ZM226.837 142.739C226.834 142.738 226.832 142.736 226.83 142.735C226.832 142.737 226.834 142.738 226.837 142.739ZM226.819 142.729C226.817 142.728 226.815 142.727 226.813 142.726C226.815 142.727 226.817 142.728 226.819 142.729ZM226.801 142.719C226.799 142.718 226.798 142.718 226.796 142.717C226.798 142.718 226.799 142.718 226.801 142.719ZM226.761 142.698C226.76 142.697 226.76 142.697 226.759 142.697C226.76 142.697 226.761 142.697 226.761 142.698ZM226.743 142.688C226.742 142.688 226.742 142.687 226.741 142.687C226.742 142.687 226.742 142.688 226.743 142.688ZM226.687 142.658C226.687 142.658 226.686 142.658 226.686 142.658C226.686 142.658 226.687 142.658 226.687 142.658ZM226.632 142.63C226.631 142.63 226.631 142.63 226.63 142.629C226.631 142.63 226.631 142.63 226.632 142.63ZM226.615 142.622C226.614 142.621 226.613 142.621 226.612 142.62C226.613 142.621 226.614 142.621 226.615 142.622Z" fill="#ABFEE6"/>
<path d="M242.869 171.827C242.869 171.827 241.842 170.802 240.404 169.433C237.946 167.091 234.285 163.742 232.492 162.779C232.353 162.703 232.17 162.602 231.947 162.477C231.941 162.392 231.935 162.307 231.93 162.224C231.931 162.225 231.931 162.225 231.932 162.226C231.889 161.617 231.838 160.677 231.837 160.063C231.837 160.061 231.837 160.058 231.837 160.054C231.837 155.803 227.906 147.628 224.849 145.666C224.631 145.524 224.35 145.346 224.031 145.15C223.645 144.913 223.184 144.637 222.707 144.368C221.9 143.914 221.07 143.491 220.481 143.297C220.221 143.209 219.996 143.158 219.826 143.158C219.426 143.158 217.621 141.173 216.683 140.109C220.033 140.169 224.251 141.443 226.595 142.612C226.601 142.614 226.606 142.617 226.612 142.62C226.613 142.62 226.614 142.621 226.615 142.622C226.62 142.624 226.625 142.627 226.63 142.629C226.631 142.63 226.632 142.63 226.633 142.63C226.65 142.639 226.668 142.649 226.686 142.658C226.686 142.658 226.687 142.658 226.687 142.658C226.705 142.668 226.723 142.677 226.741 142.687C226.742 142.687 226.742 142.688 226.743 142.688C226.748 142.691 226.754 142.694 226.759 142.697C226.76 142.697 226.76 142.697 226.761 142.698C226.773 142.704 226.785 142.71 226.796 142.717C226.798 142.718 226.799 142.718 226.801 142.719C226.805 142.721 226.809 142.724 226.813 142.726C226.815 142.727 226.817 142.728 226.819 142.729C226.823 142.731 226.827 142.733 226.83 142.735C226.833 142.736 226.834 142.738 226.837 142.739C226.842 142.741 226.847 142.744 226.852 142.747C226.855 142.749 226.859 142.751 226.862 142.753C226.864 142.754 226.866 142.755 226.868 142.756C226.872 142.758 226.875 142.76 226.879 142.763C226.881 142.763 226.882 142.764 226.883 142.764C227.366 143.036 227.888 143.4 228.434 143.821C228.436 143.822 228.437 143.823 228.439 143.825C228.441 143.826 228.443 143.828 228.445 143.829C229.38 144.551 230.385 145.437 231.388 146.31C231.621 146.513 231.855 146.717 232.087 146.916C235.045 154.68 239.452 165.669 241.375 167.589C242.292 168.504 243.18 169.577 243.97 170.633C243.318 171.386 242.869 171.827 242.869 171.827Z" fill="#FC8652"/>
<path d="M218.948 177.438C220.036 174.116 219.525 168.092 216.985 165.558C214.446 163.024 208.195 155.64 208.195 155.313C208.195 154.986 205.737 151.225 205.737 151.225C205.737 151.225 204.535 148.825 204.535 148.171C204.535 147.608 204.614 147.01 205.259 146.853C205.534 146.774 206.324 146.784 206.481 147.029L206.475 146.99C206.373 146.486 205.974 144.763 204.918 143.158C203.739 141.372 204.197 140.826 204.944 140.08C205.478 139.597 206.331 140.247 206.517 140.397L206.521 140.401L206.556 140.433C206.556 140.433 204.863 137.762 205.462 137.163C206.117 136.509 207.064 136.317 207.92 136.598C208.821 136.895 209.974 138.475 210.046 138.576C209.925 138.242 209.797 137.631 210.049 137.379C210.377 137.052 210.868 135.963 213.217 137.108C215.567 138.253 216.111 139.453 216.111 139.453C216.111 139.453 219.279 143.158 219.826 143.158C220.871 143.158 223.971 145.097 224.848 145.666C227.905 147.628 231.837 155.803 231.837 160.054C231.837 164.264 233.691 178.007 233.695 178.04C235.005 182.017 217.86 180.764 218.948 177.438Z" fill="#FAB480"/>
<path d="M211.709 136.808L213.567 139.098C213.567 139.098 213.185 140.106 212.338 140.106C212.215 140.106 210.085 138.055 210.085 138.055C210.085 138.055 210.875 136.645 211.709 136.808Z" fill="#FFCCA9"/>
<path d="M206.861 137.07L208.602 139.449C208.602 139.449 208.171 140.436 207.325 140.395C207.202 140.389 205.52 137.893 205.52 137.893C205.52 137.893 206.036 136.866 206.861 137.07Z" fill="#FFCCA9"/>
<path d="M205.633 140.423L207.374 142.801C207.374 142.801 206.942 143.789 206.097 143.747C205.974 143.741 204.292 141.246 204.292 141.246C204.292 141.246 204.808 140.218 205.633 140.423Z" fill="#FFCCA9"/>
<path d="M205.675 147.399L206.598 148.644C206.598 148.644 206.164 149.451 205.52 149.419C205.427 149.414 204.658 147.965 204.658 147.965C204.658 147.965 205.047 147.254 205.675 147.399Z" fill="#FFCCA9"/>
<path d="M231.932 162.226C231.931 162.225 231.931 162.225 231.93 162.224C231.871 161.37 231.838 160.631 231.837 160.063C231.838 160.677 231.889 161.617 231.932 162.226ZM224.849 145.666C224.663 145.545 224.376 145.363 224.031 145.15C224.35 145.346 224.631 145.524 224.849 145.666ZM222.707 144.368C221.927 143.93 221.102 143.508 220.481 143.297C221.071 143.491 221.9 143.914 222.707 144.368Z" fill="#F9713C"/>
<path d="M231.93 162.224C230.507 161.554 229.088 161.34 227.792 161.34C226.659 161.34 225.619 161.503 224.751 161.666C223.883 161.829 223.187 161.992 222.743 161.992C222.533 161.992 222.38 161.956 222.29 161.866C221.9 161.477 222.716 157.37 222.29 152.301C222.29 152.301 221.966 150.365 221.923 149.851C221.723 147.373 220.458 144.989 220.334 143.253C220.381 143.266 220.431 143.281 220.481 143.297C221.102 143.508 221.927 143.93 222.707 144.368C223.173 144.631 223.632 144.904 224.031 145.15C224.376 145.362 224.663 145.545 224.849 145.666C227.906 147.628 231.837 155.803 231.837 160.054C231.837 160.058 231.837 160.061 231.837 160.063C231.838 160.631 231.871 161.37 231.93 162.224Z" fill="#F7975D"/>
<path d="M207.774 136.555C207.565 136.5 207.353 136.472 207.141 136.472C207.117 136.472 207.094 136.472 207.07 136.473C207.097 136.472 207.124 136.472 207.152 136.472C207.355 136.472 207.563 136.499 207.774 136.555Z" fill="#FCD5B9"/>
<path d="M221.863 151.927C221.736 151.927 221.412 151.729 220.963 151.399L220.959 151.395C218.79 149.806 213.715 145.188 213.715 145.188C213.715 145.188 209.538 138.357 206.864 136.49C206.932 136.481 207.001 136.476 207.07 136.473C207.094 136.473 207.117 136.472 207.141 136.472C207.352 136.472 207.565 136.5 207.774 136.555C207.822 136.568 207.871 136.582 207.92 136.598C208.821 136.895 209.974 138.475 210.046 138.576C210.046 138.576 210.046 138.576 210.046 138.576C210.058 138.576 211.89 141.473 212.215 141.794C212.542 142.121 215.409 146.209 215.409 146.209C215.409 146.209 219.93 148.903 220.379 149.351C220.497 149.469 220.658 149.645 220.831 149.851C221.323 150.437 221.923 151.287 221.923 151.869C221.923 151.908 221.902 151.927 221.863 151.927Z" fill="#F7975D"/>
<path d="M218.38 155.978C217.627 155.978 208.074 145.564 207.054 143.651C207.013 143.574 206.971 143.496 206.928 143.417C207.224 143.144 207.374 142.801 207.374 142.801L205.632 140.423C205.558 140.404 205.485 140.396 205.416 140.396C205.328 140.396 205.244 140.409 205.165 140.433C205.089 140.31 205.015 140.192 204.944 140.08C205.085 139.953 205.248 139.904 205.414 139.904C205.881 139.904 206.379 140.287 206.517 140.397L206.521 140.401C206.845 140.98 207.641 142.294 208.575 143.226C209.81 144.456 212.005 147.533 212.425 148.514C212.844 149.495 216.091 153.227 216.5 153.635C216.91 154.044 218.83 155.552 218.414 155.967C218.406 155.974 218.395 155.978 218.38 155.978Z" fill="#F7975D"/>
<path d="M206.928 143.417C206.399 142.447 205.716 141.316 205.166 140.433C205.244 140.409 205.328 140.396 205.416 140.396C205.486 140.396 205.558 140.404 205.633 140.423L207.374 142.801C207.374 142.801 207.224 143.144 206.928 143.417Z" fill="#FCAC7C"/>
<path d="M214.262 156.544C213.606 156.544 209.884 153.679 209.129 152.929C208.431 152.229 207.029 148.762 205.259 146.853C205.354 146.826 205.51 146.81 205.68 146.81C206.001 146.81 206.373 146.868 206.479 147.026C206.48 147.027 206.481 147.028 206.481 147.029L206.475 146.99L209.076 151.66C209.076 151.66 213.771 155.107 214.318 156.307C214.393 156.471 214.366 156.544 214.262 156.544Z" fill="#F7975D"/>
<path d="M231.238 161.13C231.238 161.13 227.04 159.433 227.088 159.182C227.136 158.929 227.736 158.463 229.139 158.463C230.542 158.463 231.008 158.254 231.008 158.254L231.238 161.13Z" fill="#8C8B8B"/>
<path d="M227.417 146.195C228.27 147.033 229.424 148.001 230.692 148.608C233.313 149.862 237.245 158.855 237.245 158.855C237.245 158.855 228.289 157.982 227.088 159.182C227.088 159.182 224.094 145.139 223.043 144.556C223.183 144.581 225.498 144.31 227.417 146.195Z" fill="#FFF6F0"/>
</svg>
