<svg width="276" height="188" viewBox="0 0 276 188" fill="none" xmlns="http://www.w3.org/2000/svg">
<path d="M262.954 187L115.081 186.949L40.7725 186.923L36.6355 186.92L21.7068 186.918C21.7068 186.918 0.381795 169.582 0.0123887 145.075C-0.715534 96.7846 30.893 118.536 26.5988 60.3361C22.6804 7.22903 125.059 -21.4082 180.65 19.165C200.861 33.9162 202.446 44.2623 231.489 40.9913C264.273 37.2992 268.009 77.1426 256.535 99.2292C240.253 130.567 301.681 125.419 262.954 187Z" fill="#DCFBF3"/>
<mask id="mask0_3977_1695" style="mask-type:alpha" maskUnits="userSpaceOnUse" x="0" y="0" width="276" height="187">
<path d="M262.954 187L115.081 186.949L40.7725 186.923L36.6355 186.92L21.7068 186.918C21.7068 186.918 0.381795 169.582 0.0123887 145.075C-0.715534 96.7846 30.893 118.536 26.5988 60.3361C22.6804 7.22903 125.059 -21.4082 180.65 19.165C200.861 33.9162 202.446 44.2623 231.489 40.9913C264.273 37.2992 268.009 77.1426 256.535 99.2292C240.253 130.567 301.681 125.419 262.954 187Z" fill="#CEF7F3"/>
</mask>
<g mask="url(#mask0_3977_1695)">
<path d="M69.0001 104.125C45.3384 99.5664 7.96161 113.156 7.96161 113.156H-5.30762V187H279.185V154.062C279.185 154.062 234.394 131.69 203.285 128.562C172.536 125.472 154.7 145.673 124.731 138.125C100.013 131.9 94.0291 108.947 69.0001 104.125Z" fill="#ABFEE6"/>
</g>
<rect x="90" y="8" width="95" height="179.162" rx="12.2198" fill="white" stroke="#3D3D3C" stroke-width="0.8" stroke-linecap="round" stroke-linejoin="round"/>
<path d="M168.966 12.383H162.748C160.746 12.383 159.122 14.0441 159.122 16.0931C159.122 18.1421 157.499 19.8031 155.496 19.8031H119.504C117.502 19.8031 115.878 18.1421 115.878 16.0931C115.878 14.0441 114.255 12.383 112.252 12.383H106.034C99.8856 12.383 94.9014 17.4826 94.9014 23.7733V168.74C94.9014 175.03 99.8856 180.13 106.034 180.13H168.966C175.115 180.13 180.099 175.03 180.099 168.74V23.7732C180.099 17.4825 175.115 12.383 168.966 12.383Z" fill="#75B2EB"/>
<path fill-rule="evenodd" clip-rule="evenodd" d="M168.966 12.383H162.748C160.746 12.383 159.122 14.0441 159.122 16.0931V16.0931C159.122 18.1421 157.499 19.8031 155.496 19.8031H119.504C117.502 19.8031 115.878 18.1421 115.878 16.0931V16.0931C115.878 14.0441 114.255 12.383 112.252 12.383H106.034C99.8856 12.383 94.9014 17.4826 94.9014 23.7733V168.74C94.9014 175.03 99.8856 180.13 106.034 180.13H168.966C175.115 180.13 180.099 175.03 180.099 168.74V23.7732C180.099 17.4825 175.115 12.383 168.966 12.383Z" stroke="#3D3D3C" stroke-width="0.8" stroke-linecap="round" stroke-linejoin="round"/>
<rect x="101.177" y="34.2705" width="72.6457" height="72.9792" rx="6.62025" fill="white" stroke="#3D3D3C" stroke-width="0.8" stroke-linecap="round" stroke-linejoin="round"/>
<path fill-rule="evenodd" clip-rule="evenodd" d="M135.742 68.9936H107.604V40.7262H135.742V68.9936ZM128.707 47.793H114.638V61.9267H128.707V47.793ZM139.259 40.7262V68.9936H167.397V40.7262H139.259ZM146.294 61.9267H160.362V47.793H146.294V61.9267ZM118.155 58.3933H125.19V51.3264H118.155L118.155 58.3933ZM135.742 100.794H107.604L107.604 72.527H135.742V100.794ZM114.638 79.5936H128.707V93.7273H114.638L114.638 79.5936ZM149.811 51.3264H156.845V58.3933H149.811V51.3264ZM139.259 100.794H146.294V93.7272H139.259V100.794ZM146.294 93.7272V79.5935L139.259 79.5935V72.527H146.294V79.5935L153.328 79.5935V93.7272H146.294ZM160.362 93.7272H153.328V100.794H167.397V86.6604H160.362L160.362 93.7272ZM167.397 79.5935H160.362L160.362 72.527H167.397V79.5935ZM125.19 90.1939H118.155L118.155 83.127H125.19V90.1939Z" fill="#75B2EB"/>
<path d="M107.604 68.9936H107.204C107.204 69.2145 107.383 69.3936 107.604 69.3936V68.9936ZM135.742 68.9936V69.3936C135.963 69.3936 136.142 69.2145 136.142 68.9936H135.742ZM107.604 40.7262V40.3262C107.383 40.3262 107.204 40.5052 107.204 40.7262H107.604ZM135.742 40.7262H136.142C136.142 40.5052 135.963 40.3262 135.742 40.3262V40.7262ZM114.638 47.793V47.393C114.417 47.393 114.238 47.5721 114.238 47.793H114.638ZM128.707 47.793H129.107C129.107 47.5721 128.928 47.393 128.707 47.393V47.793ZM114.638 61.9267H114.238C114.238 62.1476 114.417 62.3267 114.638 62.3267V61.9267ZM128.707 61.9267V62.3267C128.928 62.3267 129.107 62.1476 129.107 61.9267H128.707ZM139.259 68.9936H138.859C138.859 69.2145 139.038 69.3936 139.259 69.3936V68.9936ZM139.259 40.7262V40.3262C139.038 40.3262 138.859 40.5052 138.859 40.7262H139.259ZM167.397 68.9936V69.3936C167.618 69.3936 167.797 69.2145 167.797 68.9936H167.397ZM167.397 40.7262H167.797C167.797 40.5052 167.618 40.3262 167.397 40.3262V40.7262ZM160.362 61.9267V62.3267C160.583 62.3267 160.762 62.1476 160.762 61.9267H160.362ZM146.294 61.9267H145.894C145.894 62.1476 146.073 62.3267 146.294 62.3267V61.9267ZM160.362 47.793H160.762C160.762 47.5721 160.583 47.393 160.362 47.393V47.793ZM146.294 47.793V47.393C146.073 47.393 145.894 47.5721 145.894 47.793H146.294ZM125.19 58.3933V58.7933C125.411 58.7933 125.59 58.6142 125.59 58.3933H125.19ZM118.155 58.3933H117.755C117.755 58.4994 117.797 58.6011 117.872 58.6761C117.947 58.7512 118.049 58.7933 118.155 58.7933V58.3933ZM125.19 51.3264H125.59C125.59 51.1055 125.411 50.9264 125.19 50.9264V51.3264ZM118.155 51.3264V50.9264C117.934 50.9264 117.755 51.1055 117.755 51.3264L118.155 51.3264ZM107.604 100.794H107.204C107.204 100.9 107.246 101.002 107.321 101.077C107.396 101.152 107.497 101.194 107.604 101.194V100.794ZM135.742 100.794V101.194C135.963 101.194 136.142 101.015 136.142 100.794H135.742ZM107.604 72.527V72.127C107.383 72.127 107.204 72.3061 107.204 72.527H107.604ZM135.742 72.527H136.142C136.142 72.3061 135.963 72.127 135.742 72.127V72.527ZM128.707 79.5936H129.107C129.107 79.3727 128.928 79.1936 128.707 79.1936V79.5936ZM114.638 79.5936V79.1936C114.532 79.1936 114.43 79.2357 114.355 79.3107C114.28 79.3858 114.238 79.4875 114.238 79.5936H114.638ZM128.707 93.7273V94.1273C128.928 94.1273 129.107 93.9482 129.107 93.7273H128.707ZM114.638 93.7273H114.238C114.238 93.9482 114.417 94.1273 114.638 94.1273V93.7273ZM156.845 51.3264H157.245C157.245 51.1055 157.066 50.9264 156.845 50.9264V51.3264ZM149.811 51.3264V50.9264C149.59 50.9264 149.411 51.1055 149.411 51.3264H149.811ZM156.845 58.3933V58.7933C157.066 58.7933 157.245 58.6142 157.245 58.3933H156.845ZM149.811 58.3933H149.411C149.411 58.6142 149.59 58.7933 149.811 58.7933V58.3933ZM146.294 100.794V101.194C146.515 101.194 146.694 101.015 146.694 100.794H146.294ZM139.259 100.794H138.859C138.859 101.015 139.038 101.194 139.259 101.194V100.794ZM146.294 93.7272H146.694C146.694 93.5063 146.515 93.3272 146.294 93.3272V93.7272ZM139.259 93.7272V93.3272C139.038 93.3272 138.859 93.5063 138.859 93.7272H139.259ZM146.294 79.5935H146.694C146.694 79.4874 146.651 79.3856 146.576 79.3106C146.501 79.2356 146.4 79.1935 146.294 79.1935V79.5935ZM146.294 93.7272H145.894C145.894 93.9481 146.073 94.1272 146.294 94.1272V93.7272ZM139.259 79.5935H138.859C138.859 79.6996 138.901 79.8013 138.976 79.8763C139.051 79.9513 139.153 79.9935 139.259 79.9935L139.259 79.5935ZM139.259 72.527V72.127C139.038 72.127 138.859 72.3061 138.859 72.527H139.259ZM146.294 72.527H146.694C146.694 72.3061 146.515 72.127 146.294 72.127V72.527ZM146.294 79.5935H145.894C145.894 79.8144 146.073 79.9935 146.294 79.9935V79.5935ZM153.328 79.5935H153.728C153.728 79.3726 153.549 79.1935 153.328 79.1935V79.5935ZM153.328 93.7272V94.1272C153.549 94.1272 153.728 93.9481 153.728 93.7272H153.328ZM153.328 93.7272V93.3272C153.107 93.3272 152.928 93.5063 152.928 93.7272H153.328ZM160.362 93.7272V94.1272C160.583 94.1272 160.762 93.9481 160.762 93.7272H160.362ZM153.328 100.794H152.928C152.928 101.015 153.107 101.194 153.328 101.194V100.794ZM167.397 100.794V101.194C167.618 101.194 167.797 101.015 167.797 100.794H167.397ZM167.397 86.6604H167.797C167.797 86.4395 167.618 86.2604 167.397 86.2604V86.6604ZM160.362 86.6604V86.2604C160.141 86.2604 159.962 86.4395 159.962 86.6604H160.362ZM160.362 79.5935H159.962C159.962 79.6996 160.005 79.8013 160.08 79.8763C160.155 79.9513 160.256 79.9935 160.362 79.9935V79.5935ZM167.397 79.5935V79.9935C167.618 79.9935 167.797 79.8144 167.797 79.5935H167.397ZM160.362 72.527V72.127C160.142 72.127 159.962 72.3061 159.962 72.527H160.362ZM167.397 72.527H167.797C167.797 72.3061 167.618 72.127 167.397 72.127V72.527ZM118.155 90.1939H117.755C117.755 90.3 117.797 90.4017 117.872 90.4767C117.947 90.5517 118.049 90.5939 118.155 90.5939V90.1939ZM125.19 90.1939V90.5939C125.411 90.5939 125.59 90.4148 125.59 90.1939H125.19ZM118.155 83.127V82.727C117.934 82.727 117.755 82.9061 117.755 83.127H118.155ZM125.19 83.127H125.59C125.59 82.9061 125.411 82.727 125.19 82.727V83.127ZM107.604 69.3936H135.742V68.5936H107.604V69.3936ZM107.204 40.7262V68.9936H108.004V40.7262H107.204ZM135.742 40.3262H107.604V41.1262H135.742V40.3262ZM136.142 68.9936V40.7262H135.342V68.9936H136.142ZM114.638 48.193H128.707V47.393H114.638V48.193ZM115.038 61.9267V47.793H114.238V61.9267H115.038ZM128.707 61.5267H114.638V62.3267H128.707V61.5267ZM128.307 47.793V61.9267H129.107V47.793H128.307ZM139.659 68.9936V40.7262H138.859V68.9936H139.659ZM167.397 68.5936H139.259V69.3936H167.397V68.5936ZM166.997 40.7262V68.9936H167.797V40.7262H166.997ZM139.259 41.1262H167.397V40.3262H139.259V41.1262ZM160.362 61.5267H146.294V62.3267H160.362V61.5267ZM159.962 47.793V61.9267H160.762V47.793H159.962ZM146.294 48.193H160.362V47.393H146.294V48.193ZM146.694 61.9267V47.793H145.894V61.9267H146.694ZM125.19 57.9933H118.155V58.7933H125.19V57.9933ZM124.79 51.3264V58.3933H125.59V51.3264H124.79ZM118.155 51.7264H125.19V50.9264H118.155V51.7264ZM118.555 58.3933L118.555 51.3264L117.755 51.3264L117.755 58.3933H118.555ZM107.604 101.194H135.742V100.394H107.604V101.194ZM107.204 72.527L107.204 100.794H108.004L108.004 72.527H107.204ZM135.742 72.127H107.604V72.927H135.742V72.127ZM136.142 100.794V72.527H135.342V100.794H136.142ZM128.707 79.1936H114.638V79.9936H128.707V79.1936ZM129.107 93.7273V79.5936H128.307V93.7273H129.107ZM114.638 94.1273H128.707V93.3273H114.638V94.1273ZM114.238 79.5936L114.238 93.7273H115.038L115.038 79.5936H114.238ZM156.845 50.9264H149.811V51.7264H156.845V50.9264ZM157.245 58.3933V51.3264H156.445V58.3933H157.245ZM149.811 58.7933H156.845V57.9933H149.811V58.7933ZM149.411 51.3264V58.3933H150.211V51.3264H149.411ZM146.294 100.394H139.259V101.194H146.294V100.394ZM145.894 93.7272V100.794H146.694V93.7272H145.894ZM139.259 94.1272H146.294V93.3272H139.259V94.1272ZM139.659 100.794V93.7272H138.859V100.794H139.659ZM145.894 79.5935V93.7272H146.694V79.5935H145.894ZM139.259 79.9935L146.294 79.9935V79.1935L139.259 79.1935L139.259 79.9935ZM138.859 72.527V79.5935H139.659V72.527H138.859ZM146.294 72.127H139.259V72.927H146.294V72.127ZM146.694 79.5935V72.527H145.894V79.5935H146.694ZM153.328 79.1935L146.294 79.1935V79.9935L153.328 79.9935V79.1935ZM153.728 93.7272V79.5935H152.928V93.7272H153.728ZM146.294 94.1272H153.328V93.3272H146.294V94.1272ZM153.328 94.1272H160.362V93.3272H153.328V94.1272ZM153.728 100.794V93.7272H152.928V100.794H153.728ZM167.397 100.394H153.328V101.194H167.397V100.394ZM166.997 86.6604V100.794H167.797V86.6604H166.997ZM160.362 87.0604H167.397V86.2604H160.362V87.0604ZM160.762 93.7272L160.762 86.6604H159.962L159.962 93.7272H160.762ZM160.362 79.9935H167.397V79.1935H160.362V79.9935ZM159.962 72.527L159.962 79.5935H160.762L160.762 72.527H159.962ZM167.397 72.127H160.362V72.927H167.397V72.127ZM167.797 79.5935V72.527H166.997V79.5935H167.797ZM118.155 90.5939H125.19V89.7939H118.155V90.5939ZM117.755 83.127L117.755 90.1939H118.555L118.555 83.127H117.755ZM125.19 82.727H118.155V83.527H125.19V82.727ZM125.59 90.1939V83.127H124.79V90.1939H125.59Z" fill="#3D3D3C"/>
<rect x="101.177" y="115.07" width="72.6457" height="15.4452" rx="7.69332" fill="white" stroke="#3D3D3C" stroke-width="0.8" stroke-linecap="round" stroke-linejoin="round"/>
<rect x="101.177" y="136.448" width="72.6457" height="15.4452" rx="7.69332" fill="white"/>
<rect x="101.177" y="136.448" width="72.6457" height="15.4452" rx="7.69332" stroke="#3D3D3C" stroke-width="0.8" stroke-linecap="round" stroke-linejoin="round"/>
<path d="M163.185 142.825C161.354 143.812 159.322 144.368 157.244 144.45L163.185 142.825Z" fill="#F5F6F7"/>
<path d="M163.185 142.825C161.354 143.812 159.322 144.368 157.244 144.45" stroke="#3D3D3C" stroke-width="0.8" stroke-linecap="round" stroke-linejoin="round"/>
<path d="M126.846 133.43L96.6262 103.174C95.7913 102.337 95.7913 100.984 96.6262 100.147L107.829 88.9311C108.229 88.5297 108.773 88.3041 109.341 88.3041C109.908 88.3041 110.452 88.5297 110.853 88.9311L126.846 104.943C127.247 105.345 127.791 105.57 128.358 105.57C128.926 105.57 129.47 105.345 129.87 104.943L163.147 71.627C163.548 71.2256 164.092 71 164.659 71C165.227 71 165.771 71.2256 166.171 71.627L177.374 82.8429C178.209 83.6798 178.209 85.0334 177.374 85.8702L129.87 133.43C129.47 133.831 128.926 134.057 128.358 134.057C127.791 134.057 127.247 133.831 126.846 133.43Z" fill="#50E960" stroke="#3D3D3C" stroke-width="0.8" stroke-linecap="round" stroke-linejoin="round"/>
</svg>
