<svg width="276" height="189" viewBox="0 0 276 189" fill="none" xmlns="http://www.w3.org/2000/svg">
<path d="M262.954 187L115.081 186.949L40.7725 186.923L36.6355 186.92L21.7068 186.918C21.7068 186.918 0.381795 169.582 0.0123887 145.075C-0.715534 96.7846 30.893 118.536 26.5988 60.3361C22.6804 7.22905 125.059 -21.4082 180.65 19.165C200.861 33.9162 202.446 44.2624 231.489 40.9913C264.273 37.2992 268.009 77.1426 256.535 99.2292C240.253 130.567 301.681 125.419 262.954 187Z" fill="#F7F0FF"/>
<mask id="mask0_4951_25411" style="mask-type:alpha" maskUnits="userSpaceOnUse" x="0" y="0" width="276" height="187">
<path d="M262.954 187L115.081 186.949L40.7725 186.923L36.6355 186.92L21.7068 186.918C21.7068 186.918 0.381795 169.582 0.0123887 145.075C-0.715534 96.7846 30.893 118.536 26.5988 60.3361C22.6804 7.22905 125.059 -21.4082 180.65 19.165C200.861 33.9162 202.446 44.2624 231.489 40.9913C264.273 37.2992 268.009 77.1426 256.535 99.2292C240.253 130.567 301.681 125.419 262.954 187Z" fill="#CEF7F3"/>
</mask>
<g mask="url(#mask0_4951_25411)">
<path d="M69.0001 104.125C45.3384 99.566 7.96161 113.156 7.96161 113.156H-5.30762V187H279.185V154.062C279.185 154.062 234.394 131.689 203.285 128.562C172.536 125.471 154.7 145.672 124.731 138.125C100.013 131.899 94.0291 108.947 69.0001 104.125Z" fill="#F1E6FF"/>
</g>
<path fill-rule="evenodd" clip-rule="evenodd" d="M66.8298 183.779V111.912L63.417 111.912C63.4145 111.912 63.4121 111.912 63.4096 111.912C61.3187 111.908 59.6249 110.189 59.6249 108.069V74.249C59.6249 72.4863 60.7959 71.0007 62.3925 70.5478V15.0643C62.3925 12.6234 64.3449 10.6447 66.7533 10.6447H209.335C211.744 10.6447 213.696 12.6234 213.696 15.0643V70.4075C215.738 70.4681 217.375 72.1648 217.375 74.249V108.069C217.375 110.189 215.681 111.908 213.59 111.912C213.588 111.912 213.585 111.912 213.583 111.912L209.412 111.912V183.779L206.831 183.779V184.355H70.6951V183.779L66.8298 183.779ZM66.0702 188.424L62.2049 188.424V116.47C58.1021 115.875 55 112.308 55 108.069V74.249C55 71.7618 56.063 69.5144 57.7676 67.9575V15.0643C57.7676 10.0983 61.751 6 66.7533 6H209.335C214.338 6 218.321 10.0983 218.321 15.0643V67.2316C220.55 68.7661 222 71.3499 222 74.249V108.069C222 112.566 218.51 116.306 214.037 116.545V188.424L211.455 188.424V189H66.0702V188.424Z" fill="#192E35"/>
<rect x="65.3125" y="112.064" width="144.714" height="72.6314" fill="black" fill-opacity="0.3"/>
<path d="M58 74.0012C58 71.8561 59.7232 70.1172 61.8488 70.1172H214.26C216.386 70.1172 218.109 71.8561 218.109 74.0012V108.181C218.109 110.326 216.386 112.065 214.26 112.065H61.8488C59.7232 112.065 58 110.326 58 108.181V74.0012Z" fill="black" fill-opacity="0.3"/>
<path d="M61.3867 14.1877C61.3867 12.0427 63.1099 10.3037 65.2355 10.3037H209.95C212.075 10.3037 213.798 12.0427 213.798 14.1877V86.8191C213.798 88.9642 212.075 90.7032 209.95 90.7032H65.2355C63.1099 90.7032 61.3867 88.9642 61.3867 86.8191V14.1877Z" fill="#A96C33"/>
<path fill-rule="evenodd" clip-rule="evenodd" d="M65.2352 9.7207H209.949C212.394 9.7207 214.375 11.7205 214.375 14.1873V86.8188C214.375 89.2856 212.394 91.2854 209.949 91.2854H65.2352C62.7907 91.2854 60.8091 89.2856 60.8091 86.8188V14.1873C60.8091 11.7205 62.7907 9.7207 65.2352 9.7207ZM65.2352 10.3033C63.1096 10.3033 61.3864 12.0423 61.3864 14.1873V86.8188C61.3864 88.9638 63.1096 90.7028 65.2352 90.7028H209.949C212.075 90.7028 213.798 88.9638 213.798 86.8188V14.1873C213.798 12.0422 212.075 10.3033 209.949 10.3033H65.2352Z" fill="#192E35"/>
<path d="M61.3867 18.0715C61.3867 15.9264 63.1099 14.1875 65.2355 14.1875H209.95C212.075 14.1875 213.798 15.9264 213.798 18.0715V86.8189C213.798 88.964 212.075 90.7029 209.95 90.7029H65.2355C63.1099 90.7029 61.3867 88.964 61.3867 86.8189V18.0715Z" fill="#D89F6A"/>
<path d="M72.8921 41.3762C72.8921 39.2311 74.6152 37.4922 76.7409 37.4922H199.902C202.027 37.4922 203.751 39.2311 203.751 41.3762V164.5C203.751 166.645 202.027 168.384 199.902 168.384H76.7409C74.6153 168.384 72.8921 166.645 72.8921 164.5V41.3762Z" fill="#E9ECEF"/>
<path fill-rule="evenodd" clip-rule="evenodd" d="M76.741 36.9092H199.902C202.346 36.9092 204.328 38.909 204.328 41.3758V164.5C204.328 166.967 202.346 168.966 199.902 168.966H76.741C74.2966 168.966 72.3149 166.967 72.3149 164.5V41.3758C72.3149 38.909 74.2966 36.9092 76.741 36.9092ZM76.741 37.4918C74.6154 37.4918 72.8923 39.2307 72.8923 41.3758V164.5C72.8923 166.645 74.6154 168.384 76.741 168.384H199.902C202.028 168.384 203.751 166.645 203.751 164.5V41.3758C203.751 39.2307 202.028 37.4918 199.902 37.4918H76.741Z" fill="#192E35"/>
<path d="M69.813 70.8948C69.813 68.7497 71.5361 67.0107 73.6618 67.0107H202.981C205.106 67.0107 206.829 68.7497 206.829 70.8948V184.697H69.813V70.8948Z" fill="#63F0F9"/>
<path fill-rule="evenodd" clip-rule="evenodd" d="M207.407 185.279H69.2358V70.8944C69.2358 68.4275 71.2175 66.4277 73.6619 66.4277H202.981C205.425 66.4277 207.407 68.4275 207.407 70.8944V185.279ZM73.6619 67.0103C71.5363 67.0103 69.8132 68.7493 69.8132 70.8944V184.697H206.83V70.8944C206.83 68.7493 205.106 67.0103 202.981 67.0103H73.6619Z" fill="#192E35"/>
<path fill-rule="evenodd" clip-rule="evenodd" d="M112.194 102.093C100.783 101.247 92.0505 102.429 88.0152 102.88L86.3628 102.972C90.24 102.238 100.841 101.007 112.585 101.878C118.37 102.307 122.339 102.575 124.949 102.735C127.586 102.898 128.789 102.947 129.084 102.947L128.302 103.132C127.88 103.132 126.209 103.107 123.608 102.947C120.98 102.785 117.794 102.433 112.194 102.093Z" fill="#253D42"/>
<path fill-rule="evenodd" clip-rule="evenodd" d="M130.624 136.662C126.203 135.815 122.821 136.997 121.257 137.448L120.617 137.54C122.119 136.807 126.226 135.575 130.775 136.446C133.016 136.876 134.554 137.143 135.565 137.304C136.587 137.466 137.053 137.515 137.167 137.515L136.864 137.7C136.7 137.7 136.053 137.675 135.046 137.515C134.028 137.354 132.793 137.002 130.624 136.662Z" fill="#253D42"/>
<path fill-rule="evenodd" clip-rule="evenodd" d="M183.003 159.189C172.106 158.342 163.766 159.524 159.913 159.976L158.335 160.068C162.037 159.334 172.161 158.103 183.376 158.974C188.9 159.403 192.69 159.671 195.183 159.831C197.702 159.993 198.851 160.043 199.132 160.043L198.385 160.227C197.982 160.227 196.386 160.203 193.903 160.043C191.393 159.881 188.35 159.529 183.003 159.189Z" fill="#253D42"/>
<path fill-rule="evenodd" clip-rule="evenodd" d="M101.794 171.229C90.8968 170.383 82.5575 171.564 78.7039 172.016L77.126 172.108C80.8285 171.374 90.9517 170.143 102.167 171.014C107.691 171.443 111.481 171.711 113.974 171.871C116.493 172.033 117.642 172.083 117.923 172.083L117.176 172.267C116.773 172.267 115.177 172.243 112.694 172.083C110.184 171.921 107.141 171.569 101.794 171.229Z" fill="#253D42"/>
<path fill-rule="evenodd" clip-rule="evenodd" d="M171.742 108.696C157.659 107.849 146.881 109.031 141.9 109.482L139.861 109.575C144.646 108.841 157.73 107.609 172.225 108.481C179.365 108.91 184.264 109.178 187.485 109.338C190.74 109.5 192.225 109.55 192.589 109.55L191.624 109.734C191.102 109.734 189.04 109.709 185.831 109.55C182.587 109.388 178.654 109.036 171.742 108.696Z" fill="#253D42"/>
<path d="M89.6345 29.2408C84.6571 42.9576 85.8697 55.8541 87.0983 60.5877C97.5038 62.1782 121.041 64.9676 131.946 63.4012C134.562 58.8438 138.844 45.6181 135.048 29.1745C104.974 23.3991 92.2417 26.8123 89.6345 29.2408Z" fill="white"/>
<path fill-rule="evenodd" clip-rule="evenodd" d="M86.6358 61.1056L86.5395 60.7346C85.2848 55.9 84.0696 42.881 89.0922 29.0398L89.1402 28.9075L89.2427 28.812C89.9946 28.1116 91.3841 27.412 93.4458 26.8318C95.5249 26.2468 98.3428 25.7681 102.007 25.5489C109.335 25.1103 120.086 25.7075 135.155 28.6014L135.524 28.6723L135.61 29.0415C139.441 45.6357 135.131 59.0125 132.445 63.6925L132.305 63.9374L132.027 63.9773C126.504 64.7707 117.835 64.4585 109.288 63.7582C100.725 63.0566 92.2254 61.9599 87.0116 61.163L86.6358 61.1056ZM131.946 63.4005C121.041 64.9669 97.5036 62.1775 87.098 60.587C85.8695 55.8533 84.6568 42.9569 89.6343 29.2401C92.2414 26.8116 104.974 23.3983 135.047 29.1737C138.844 45.6173 134.561 58.8431 131.946 63.4005Z" fill="#192E35"/>
<path d="M142.981 23.8997C138.323 37.7306 139.835 50.5948 141.174 55.298C151.613 56.6417 175.209 58.8732 186.074 57.0491C188.583 52.4311 192.557 39.1076 188.38 22.7584C158.18 17.6964 145.53 21.4101 142.981 23.8997Z" fill="white"/>
<path fill-rule="evenodd" clip-rule="evenodd" d="M140.724 55.8271L140.619 55.4585C139.252 50.6549 137.734 37.6683 142.434 23.712L142.479 23.5786L142.579 23.4807C143.315 22.7627 144.687 22.0304 146.735 21.4016C148.8 20.7675 151.606 20.2222 155.264 19.9163C162.58 19.3044 173.342 19.6469 188.474 22.1833L188.845 22.2455L188.939 22.6126C193.154 39.1115 189.157 52.5866 186.581 57.3289L186.446 57.5771L186.169 57.6235C180.666 58.5474 171.992 58.4406 163.431 57.9428C154.854 57.4441 146.332 56.5489 141.101 55.8756L140.724 55.8271ZM186.074 57.0488C175.209 58.8729 151.613 56.6414 141.174 55.2977C139.835 50.5945 138.323 37.7303 142.981 23.8994C145.531 21.4098 158.18 17.6961 188.38 22.7581C192.557 39.1073 188.583 52.4308 186.074 57.0488Z" fill="#192E35"/>
<ellipse cx="164.949" cy="37.8795" rx="1.92439" ry="1.94202" fill="#ADB5BD"/>
<path fill-rule="evenodd" clip-rule="evenodd" d="M161.598 37.5405C162.195 37.4878 162.866 37.6966 163.297 37.8975L163.024 37.8797C162.639 37.8797 162.134 37.8831 161.631 37.9274C161.383 37.9493 161.174 38.0243 161.02 38.1638C160.868 38.3011 160.907 38.2681 160.523 38.6565L160.331 38.8313C160.373 38.4051 160.525 38.0893 160.763 37.8746C160.998 37.6621 161.296 37.5672 161.598 37.5405Z" fill="#ADB5BD"/>
<path fill-rule="evenodd" clip-rule="evenodd" d="M168.188 37.4995C167.59 37.4468 166.92 37.6555 166.488 37.8565L166.761 37.8386C167.146 37.8386 167.652 37.842 168.154 37.8864C168.402 37.9083 168.612 37.9832 168.766 38.1228C168.918 38.2601 168.878 38.2271 169.263 38.6155L169.455 38.7903C169.412 38.3641 169.26 38.0483 169.023 37.8335C168.788 37.6211 168.49 37.5261 168.188 37.4995Z" fill="#ADB5BD"/>
<path fill-rule="evenodd" clip-rule="evenodd" d="M164.26 40.2576C164.428 39.6765 164.864 39.1212 165.205 38.7882L165.09 39.0386C164.951 39.4007 164.771 39.8773 164.63 40.3662C164.56 40.6073 164.554 40.8315 164.627 41.0273C164.698 41.2197 164.682 41.1705 164.902 41.6732L164.994 41.9166C164.616 41.7226 164.379 41.4653 164.266 41.1641C164.155 40.8662 164.176 40.5514 164.26 40.2576Z" fill="#ADB5BD"/>
<path fill-rule="evenodd" clip-rule="evenodd" d="M164.26 34.8781C164.428 35.4593 164.864 36.0145 165.205 36.3476L165.09 36.0971C164.951 35.7351 164.771 35.2585 164.63 34.7696C164.56 34.5284 164.554 34.3042 164.627 34.1085C164.698 33.916 164.682 33.9652 164.902 33.4625L164.994 33.2191C164.616 33.4131 164.379 33.6704 164.266 33.9716C164.155 34.2695 164.176 34.5843 164.26 34.8781Z" fill="#ADB5BD"/>
<ellipse cx="111.066" cy="44.8707" rx="1.92439" ry="1.94202" fill="#ADB5BD"/>
<path fill-rule="evenodd" clip-rule="evenodd" d="M107.716 44.5317C108.313 44.479 108.984 44.6878 109.415 44.8887L109.142 44.8709C108.757 44.8709 108.252 44.8743 107.749 44.9186C107.501 44.9405 107.292 45.0155 107.137 45.155C106.985 45.2923 107.025 45.2593 106.64 45.6477L106.449 45.8225C106.491 45.3963 106.643 45.0805 106.88 44.8658C107.115 44.6534 107.413 44.5584 107.716 44.5317Z" fill="#ADB5BD"/>
<path fill-rule="evenodd" clip-rule="evenodd" d="M114.305 44.4907C113.708 44.438 113.037 44.6468 112.606 44.8477L112.879 44.8299C113.264 44.8299 113.769 44.8333 114.272 44.8776C114.52 44.8995 114.729 44.9745 114.884 45.114C115.036 45.2513 114.996 45.2183 115.381 45.6067L115.572 45.7815C115.53 45.3553 115.378 45.0395 115.141 44.8248C114.906 44.6123 114.608 44.5174 114.305 44.4907Z" fill="#ADB5BD"/>
<path fill-rule="evenodd" clip-rule="evenodd" d="M110.378 47.2488C110.546 46.6677 110.981 46.1125 111.323 45.7794L111.208 46.0298C111.068 46.3919 110.888 46.8685 110.747 47.3574C110.678 47.5986 110.671 47.8227 110.744 48.0185C110.816 48.2109 110.8 48.1617 111.019 48.6644L111.112 48.9078C110.733 48.7138 110.497 48.4565 110.384 48.1553C110.273 47.8574 110.293 47.5426 110.378 47.2488Z" fill="#ADB5BD"/>
<path fill-rule="evenodd" clip-rule="evenodd" d="M110.378 41.8693C110.546 42.4505 110.981 43.0057 111.323 43.3388L111.208 43.0883C111.068 42.7263 110.888 42.2497 110.747 41.7608C110.678 41.5196 110.671 41.2954 110.744 41.0997C110.816 40.9072 110.8 40.9564 111.019 40.4537L111.112 40.2103C110.733 40.4044 110.497 40.6617 110.384 40.9628C110.273 41.2607 110.293 41.5755 110.378 41.8693Z" fill="#ADB5BD"/>
</svg>
