<svg width="276" height="187" viewBox="0 0 276 187" fill="none" xmlns="http://www.w3.org/2000/svg">
<path d="M262.954 187L115.081 186.949L40.7725 186.923L36.6355 186.92L21.7068 186.918C21.7068 186.918 0.381795 169.582 0.0123887 145.075C-0.715534 96.7846 30.893 118.536 26.5988 60.3361C22.6804 7.22905 125.059 -21.4082 180.65 19.165C200.861 33.9162 202.446 44.2624 231.489 40.9913C264.273 37.2992 268.009 77.1426 256.535 99.2292C240.253 130.567 301.681 125.419 262.954 187Z" fill="#F7F0FF"/>
<mask id="mask0_4951_25450" style="mask-type:alpha" maskUnits="userSpaceOnUse" x="0" y="0" width="276" height="187">
<path d="M262.954 187L115.081 186.949L40.7725 186.923L36.6355 186.92L21.7068 186.918C21.7068 186.918 0.381795 169.582 0.0123887 145.075C-0.715534 96.7846 30.893 118.536 26.5988 60.3361C22.6804 7.22905 125.059 -21.4082 180.65 19.165C200.861 33.9162 202.446 44.2624 231.489 40.9913C264.273 37.2992 268.009 77.1426 256.535 99.2292C240.253 130.567 301.681 125.419 262.954 187Z" fill="#CEF7F3"/>
</mask>
<g mask="url(#mask0_4951_25450)">
<path d="M69.0001 104.125C45.3384 99.566 7.96161 113.156 7.96161 113.156H-5.30762V187H279.185V154.062C279.185 154.062 234.394 131.689 203.285 128.562C172.536 125.471 154.7 145.672 124.731 138.125C100.013 131.899 94.0291 108.947 69.0001 104.125Z" fill="#F1E6FF"/>
</g>
<path fill-rule="evenodd" clip-rule="evenodd" d="M135.566 12.3962C137.858 8.94948 142.51 8.01347 145.957 10.3056L159.328 19.1975C160.159 19.75 160.844 20.4397 161.373 21.2166C162.487 21.3564 163.586 21.7494 164.584 22.4132L177.955 31.3051C179.205 32.1362 180.125 33.2777 180.68 34.5595C181.559 34.7536 182.417 35.1104 183.212 35.6386L196.583 44.5305C197.341 45.0345 197.977 45.6526 198.485 46.347C199.647 46.4701 200.798 46.8679 201.839 47.5601L215.21 56.452C218.656 58.7441 219.592 63.3963 217.3 66.843L208.408 80.2142C206.762 82.6901 203.898 83.8705 201.137 83.4894C201.425 85.2849 201.063 87.1892 199.977 88.8228L191.085 102.194C189.5 104.577 186.788 105.76 184.125 105.505C185.204 107.8 185.092 110.586 183.585 112.852L174.694 126.223C172.965 128.823 169.893 129.994 167.008 129.429C168.805 131.892 168.98 135.312 167.193 137.998L158.301 151.37C156.427 154.188 152.976 155.327 149.896 154.397C151.123 156.743 151.067 159.668 149.497 162.028L140.605 175.399C138.313 178.846 133.661 179.782 130.214 177.489L116.843 168.598C116.085 168.094 115.449 167.475 114.941 166.781C113.779 166.658 112.628 166.26 111.587 165.568L98.2162 156.676C96.9664 155.845 96.0467 154.704 95.4914 153.422C94.6126 153.228 93.7542 152.871 92.9598 152.343L79.5886 143.451C78.7578 142.898 78.0729 142.209 77.5439 141.432C76.4302 141.292 75.331 140.899 74.3328 140.235L60.9616 131.343C57.5149 129.051 56.5789 124.399 58.871 120.952L67.7629 107.581C69.6367 104.763 73.0879 103.624 76.1683 104.554C74.9412 102.208 74.9972 99.283 76.5666 96.923L85.4585 83.5518C87.1876 80.9518 90.2596 79.7804 93.1441 80.3457C91.3474 77.8829 91.1726 74.4635 92.9593 71.7766L101.851 58.4055C103.436 56.0224 106.149 54.8396 108.812 55.094C107.732 52.7993 107.844 50.0129 109.351 47.7473L118.243 34.3761C119.889 31.9004 122.753 30.72 125.514 31.1009C125.226 29.3054 125.587 27.401 126.674 25.7674L135.566 12.3962ZM112.641 129.25C112.822 129.305 113.004 129.352 113.187 129.393C113.259 129.56 113.338 129.725 113.422 129.886C113.242 129.832 113.06 129.784 112.877 129.744C112.805 129.577 112.726 129.412 112.641 129.25ZM111.266 92.3724C111.435 92.3936 111.603 92.4206 111.771 92.4535C111.724 92.3884 111.677 92.3226 111.632 92.2561C111.463 92.2349 111.295 92.2079 111.127 92.175C111.174 92.2402 111.221 92.306 111.266 92.3724Z" fill="#D9D9D9"/>
<path fill-rule="evenodd" clip-rule="evenodd" d="M183.212 35.6391L196.583 44.531C197.341 45.035 197.977 45.6532 198.485 46.3475C199.647 46.4707 200.798 46.8685 201.839 47.5606L215.21 56.4525C218.656 58.7446 219.592 63.3968 217.3 66.8435L208.408 80.2147C207.453 81.6512 206.088 82.6516 204.571 83.1639C203.473 83.5347 202.296 83.6499 201.137 83.4899C201.319 84.6251 201.241 85.8038 200.885 86.93C200.678 87.5852 200.377 88.2225 199.977 88.8233L191.085 102.194C190.213 103.506 188.998 104.455 187.639 105C186.529 105.444 185.322 105.62 184.125 105.506C184.635 106.591 184.879 107.786 184.835 108.984C184.786 110.32 184.38 111.658 183.585 112.852L174.694 126.224C173.736 127.664 172.366 128.666 170.845 129.177C169.619 129.588 168.295 129.682 167.008 129.43C167.783 130.492 168.256 131.731 168.401 133.013C168.591 134.705 168.21 136.47 167.193 137.999L158.301 151.37C157.183 153.052 155.502 154.136 153.674 154.539C152.439 154.811 151.137 154.772 149.896 154.397C150.49 155.533 150.783 156.805 150.75 158.082C150.714 159.443 150.307 160.811 149.497 162.028L140.605 175.399C138.313 178.846 133.661 179.782 130.214 177.49L116.843 168.598C116.085 168.094 115.449 167.476 114.941 166.782C113.779 166.658 112.628 166.261 111.587 165.569L98.2163 156.677C96.9664 155.846 96.0468 154.704 95.4914 153.422C94.6126 153.228 93.7542 152.871 92.9599 152.343L79.5887 143.451C78.7579 142.899 78.0729 142.209 77.5439 141.432C76.4302 141.293 75.331 140.9 74.3329 140.236L60.9617 131.344C57.5149 129.052 56.5789 124.4 58.871 120.953L67.7629 107.582C68.8815 105.9 70.562 104.816 72.3903 104.413C73.6248 104.141 74.9267 104.179 76.1683 104.554C75.5743 103.419 75.2809 102.147 75.3145 100.87C75.3502 99.5088 75.757 98.141 76.5666 96.9235L85.4586 83.5523C86.4163 82.1121 87.7861 81.1103 89.3078 80.5992C90.5333 80.1875 91.8574 80.0941 93.1441 80.3463C92.3696 79.2845 91.8964 78.0449 91.7519 76.7629C91.5613 75.0712 91.9429 73.3057 92.9594 71.7772L101.851 58.406C102.724 57.094 103.938 56.1458 105.298 55.6009C106.408 55.1561 107.615 54.9801 108.812 55.0945C108.301 54.0093 108.057 52.8142 108.101 51.6162C108.15 50.2809 108.557 48.942 109.351 47.7479L118.243 34.3767C119.198 32.9403 120.563 31.94 122.08 31.4276C123.178 31.0568 124.355 30.9415 125.514 31.1014C125.332 29.9662 125.41 28.7876 125.766 27.6613C125.973 27.0062 126.274 26.3687 126.674 25.7679L135.566 12.3967C137.858 8.95001 142.51 8.01399 145.957 10.3061L159.328 19.198C160.159 19.7505 160.844 20.4402 161.373 21.2172C162.487 21.3569 163.586 21.75 164.584 22.4137L177.955 31.3056C179.205 32.1368 180.125 33.2782 180.68 34.56C181.559 34.7541 182.417 35.1109 183.212 35.6391ZM183.047 31.6911C183.762 31.9713 184.457 32.3308 185.119 32.771L198.49 41.6629L196.583 44.531L198.49 41.6629C199.161 42.1091 199.769 42.6185 200.31 43.1787C201.504 43.4735 202.668 43.9755 203.746 44.6924L217.117 53.5843C222.148 56.9298 223.514 63.7201 220.169 68.7509L211.277 82.1221C209.633 84.5931 207.161 86.1774 204.477 86.7567C204.21 88.1369 203.671 89.4885 202.845 90.7307L193.953 104.102C192.543 106.222 190.522 107.69 188.281 108.43C188.337 110.6 187.749 112.812 186.454 114.76L177.562 128.131C176.134 130.278 174.081 131.755 171.806 132.486C172.123 134.997 171.575 137.63 170.061 139.906L161.17 153.278C159.491 155.801 156.948 157.401 154.196 157.948C154.185 160.008 153.593 162.09 152.366 163.936L143.474 177.307C140.128 182.338 133.338 183.704 128.307 180.358L114.936 171.466C114.265 171.02 113.657 170.511 113.116 169.95C111.922 169.656 110.758 169.154 109.68 168.437L96.3089 159.545C94.9914 158.669 93.922 157.552 93.124 156.291C92.409 156.011 91.7143 155.651 91.0525 155.211L92.6229 152.85L91.0525 155.211L77.6813 146.319C76.9134 145.809 76.2286 145.215 75.6324 144.558C74.5179 144.258 73.4341 143.775 72.4255 143.104L59.0543 134.212C54.0235 130.867 52.6573 124.076 56.0028 119.045L64.8947 105.674C66.5731 103.15 69.1159 101.551 71.8677 101.004C71.8789 98.9437 72.471 96.862 73.6985 95.0162L82.5904 81.645C84.0182 79.4979 86.0717 78.0203 88.3463 77.2898C88.0296 74.7789 88.5778 72.1456 90.0912 69.8698L98.9831 56.4986C100.393 54.378 102.415 52.9105 104.656 52.1707C104.6 50 105.187 47.7887 106.483 45.8405L115.375 32.4693C117.018 29.9984 119.49 28.4143 122.174 27.8348C122.441 26.4546 122.979 25.1028 123.806 23.8606L132.698 10.4894C136.043 5.45859 142.833 4.0924 147.864 7.43789L161.235 16.3298C162.003 16.8405 162.688 17.4339 163.284 18.0911C164.399 18.392 165.483 18.8748 166.491 19.5455L179.863 28.4374L177.955 31.3056L179.863 28.4374C181.18 29.3136 182.249 30.4304 183.047 31.6911ZM112.641 129.251C112.695 129.354 112.747 129.458 112.795 129.563C112.823 129.623 112.851 129.684 112.877 129.745C112.951 129.761 113.024 129.778 113.098 129.797C113.206 129.824 113.315 129.854 113.422 129.887C113.369 129.784 113.317 129.68 113.268 129.575C113.24 129.515 113.213 129.454 113.187 129.393C113.113 129.377 113.04 129.36 112.966 129.341C112.858 129.314 112.749 129.284 112.641 129.251ZM111.469 92.2344C111.408 92.2254 111.348 92.2156 111.287 92.2051C111.233 92.1958 111.18 92.186 111.127 92.1755C111.174 92.2407 111.221 92.3065 111.266 92.3729C111.32 92.3798 111.374 92.3872 111.429 92.3952C111.489 92.4042 111.55 92.4139 111.611 92.4245C111.664 92.4337 111.718 92.4436 111.771 92.4541C111.724 92.3889 111.677 92.3231 111.632 92.2567C111.578 92.2498 111.523 92.2424 111.469 92.2344Z" fill="#192E35"/>
<path d="M135.566 12.3962C137.858 8.94948 142.51 8.01347 145.957 10.3056L159.328 19.1975C162.775 21.4896 163.711 26.1418 161.419 29.5885L152.527 42.9597C150.235 46.4064 145.583 47.3425 142.136 45.0504L128.765 36.1585C125.318 33.8664 124.382 29.2141 126.674 25.7674L135.566 12.3962Z" fill="url(#paint0_linear_4951_25450)"/>
<path d="M154.194 24.5036C156.486 21.0569 161.138 20.1209 164.585 22.413L177.956 31.3049C181.403 33.597 182.339 38.2492 180.046 41.6959L171.155 55.0671C168.862 58.5139 164.21 59.4499 160.764 57.1578L147.392 48.2659C143.946 45.9738 143.01 41.3216 145.302 37.8748L154.194 24.5036Z" fill="url(#paint1_linear_4951_25450)"/>
<path d="M172.821 37.7292C175.113 34.2825 179.765 33.3465 183.212 35.6386L196.583 44.5305C200.03 46.8226 200.966 51.4748 198.674 54.9215L189.782 68.2927C187.49 71.7395 182.838 72.6755 179.391 70.3834L166.02 61.4915C162.573 59.1994 161.637 54.5471 163.929 51.1004L172.821 37.7292Z" fill="url(#paint2_linear_4951_25450)"/>
<path d="M191.448 49.6511C193.74 46.2044 198.392 45.2683 201.839 47.5604L215.21 56.4524C218.657 58.7444 219.593 63.3967 217.301 66.8434L208.409 80.2146C206.117 83.6613 201.465 84.5973 198.018 82.3053L184.647 73.4133C181.2 71.1213 180.264 66.469 182.556 63.0223L191.448 49.6511Z" fill="url(#paint3_linear_4951_25450)"/>
<g filter="url(#filter0_d_4951_25450)">
<path d="M118.243 34.3767C120.535 30.93 125.187 29.9939 128.634 32.286L142.005 41.1779C145.452 43.47 146.388 48.1223 144.096 51.569L135.204 64.9402C132.912 68.3869 128.26 69.3229 124.813 67.0308L111.442 58.1389C107.995 55.8468 107.059 51.1946 109.351 47.7479L118.243 34.3767Z" fill="url(#paint4_linear_4951_25450)"/>
</g>
<g filter="url(#filter1_d_4951_25450)">
<path d="M136.869 46.4841C139.161 43.0374 143.814 42.1014 147.26 44.3934L160.632 53.2854C164.078 55.5774 165.014 60.2297 162.722 63.6764L153.83 77.0476C151.538 80.4943 146.886 81.4304 143.439 79.1383L130.068 70.2463C126.621 67.9543 125.685 63.302 127.977 59.8553L136.869 46.4841Z" fill="url(#paint5_linear_4951_25450)"/>
</g>
<g filter="url(#filter2_d_4951_25450)">
<path d="M155.497 59.7097C157.789 56.263 162.442 55.3269 165.888 57.619L179.26 66.5109C182.706 68.803 183.642 73.4553 181.35 76.902L172.458 90.2732C170.166 93.7199 165.514 94.6559 162.067 92.3638L148.696 83.4719C145.249 81.1798 144.313 76.5276 146.605 73.0809L155.497 59.7097Z" fill="url(#paint6_linear_4951_25450)"/>
</g>
<g filter="url(#filter3_d_4951_25450)">
<path d="M174.124 71.6306C176.416 68.1839 181.069 67.2478 184.515 69.5399L197.886 78.4318C201.333 80.7239 202.269 85.3762 199.977 88.8229L191.085 102.194C188.793 105.641 184.141 106.577 180.694 104.285L167.323 95.3928C163.876 93.1007 162.94 88.4485 165.232 85.0018L174.124 71.6306Z" fill="url(#paint7_linear_4951_25450)"/>
</g>
<g filter="url(#filter4_d_4951_25450)">
<path d="M101.851 58.406C104.143 54.9592 108.796 54.0232 112.242 56.3153L125.614 65.2072C129.06 67.4993 129.996 72.1516 127.704 75.5983L118.812 88.9695C116.52 92.4162 111.868 93.3522 108.421 91.0601L95.05 82.1682C91.6033 79.8761 90.6673 75.2239 92.9594 71.7772L101.851 58.406Z" fill="url(#paint8_linear_4951_25450)"/>
</g>
<g filter="url(#filter5_d_4951_25450)">
<path d="M120.478 70.5134C122.77 67.0667 127.422 66.1307 130.869 68.4227L144.24 77.3147C147.687 79.6067 148.623 84.259 146.331 87.7057L137.439 101.077C135.147 104.524 130.494 105.46 127.048 103.168L113.676 94.2756C110.23 91.9836 109.294 87.3313 111.586 83.8846L120.478 70.5134Z" fill="url(#paint9_linear_4951_25450)"/>
</g>
<g filter="url(#filter6_d_4951_25450)">
<path d="M139.105 83.739C141.397 80.2923 146.05 79.3562 149.496 81.6483L162.867 90.5402C166.314 92.8323 167.25 97.4846 164.958 100.931L156.066 114.302C153.774 117.749 149.122 118.685 145.675 116.393L132.304 107.501C128.857 105.209 127.921 100.557 130.213 97.1102L139.105 83.739Z" fill="url(#paint10_linear_4951_25450)"/>
</g>
<g filter="url(#filter7_d_4951_25450)">
<path d="M157.733 95.6599C160.025 92.2132 164.677 91.2771 168.124 93.5692L181.495 102.461C184.942 104.753 185.878 109.405 183.586 112.852L174.694 126.223C172.402 129.67 167.749 130.606 164.303 128.314L150.931 119.422C147.485 117.13 146.549 112.478 148.841 109.031L157.733 95.6599Z" fill="url(#paint11_linear_4951_25450)"/>
</g>
<g filter="url(#filter8_d_4951_25450)">
<path d="M85.4592 83.5525C87.7513 80.1057 92.4035 79.1697 95.8502 81.4618L109.221 90.3537C112.668 92.6458 113.604 97.298 111.312 100.745L102.42 114.116C100.128 117.563 95.4759 118.499 92.0291 116.207L78.6579 107.315C75.2112 105.023 74.2752 100.37 76.5673 96.9237L85.4592 83.5525Z" fill="url(#paint12_linear_4951_25450)"/>
</g>
<g filter="url(#filter9_d_4951_25450)">
<path d="M104.087 95.6599C106.379 92.2132 111.031 91.2771 114.478 93.5692L127.849 102.461C131.296 104.753 132.232 109.405 129.94 112.852L121.048 126.223C118.756 129.67 114.103 130.606 110.657 128.314L97.2854 119.422C93.8386 117.13 92.9026 112.478 95.1947 109.031L104.087 95.6599Z" fill="url(#paint13_linear_4951_25450)"/>
</g>
<g filter="url(#filter10_d_4951_25450)">
<path d="M122.714 108.885C125.006 105.439 129.658 104.503 133.105 106.795L146.476 115.687C149.923 117.979 150.859 122.631 148.566 126.078L139.675 139.449C137.382 142.896 132.73 143.832 129.284 141.54L115.912 132.648C112.466 130.356 111.53 125.703 113.822 122.257L122.714 108.885Z" fill="url(#paint14_linear_4951_25450)"/>
</g>
<g filter="url(#filter11_d_4951_25450)">
<path d="M141.341 120.806C143.633 117.36 148.285 116.424 151.732 118.716L165.103 127.608C168.55 129.9 169.486 134.552 167.194 137.999L158.302 151.37C156.01 154.817 151.358 155.753 147.911 153.461L134.54 144.569C131.093 142.277 130.157 137.624 132.449 134.178L141.341 120.806Z" fill="url(#paint15_linear_4951_25450)"/>
</g>
<path d="M67.7629 107.582C70.055 104.135 74.7072 103.199 78.1539 105.491L91.5251 114.383C94.9719 116.675 95.9079 121.327 93.6158 124.774L84.7239 138.145C82.4318 141.592 77.7796 142.528 74.3328 140.236L60.9616 131.344C57.5149 129.052 56.5789 124.4 58.871 120.953L67.7629 107.582Z" fill="url(#paint16_linear_4951_25450)"/>
<path d="M86.3899 119.689C88.6819 116.242 93.3342 115.306 96.7809 117.599L110.152 126.49C113.599 128.783 114.535 133.435 112.243 136.881L103.351 150.253C101.059 153.699 96.4065 154.635 92.9598 152.343L79.5886 143.451C76.1419 141.159 75.2058 136.507 77.4979 133.06L86.3899 119.689Z" fill="url(#paint17_linear_4951_25450)"/>
<path d="M105.017 132.915C107.309 129.468 111.962 128.532 115.408 130.824L128.78 139.716C132.226 142.008 133.162 146.66 130.87 150.107L121.978 163.478C119.686 166.925 115.034 167.861 111.587 165.569L98.216 156.677C94.7693 154.385 93.8333 149.733 96.1254 146.286L105.017 132.915Z" fill="url(#paint18_linear_4951_25450)"/>
<path d="M123.645 144.836C125.937 141.389 130.589 140.453 134.036 142.745L147.407 151.637C150.854 153.929 151.79 158.581 149.498 162.028L140.606 175.399C138.314 178.846 133.661 179.782 130.215 177.49L116.843 168.598C113.397 166.306 112.461 161.654 114.753 158.207L123.645 144.836Z" fill="url(#paint19_linear_4951_25450)"/>
<defs>
<filter id="filter0_d_4951_25450" x="88.0962" y="15.0312" width="77.2544" height="77.2539" filterUnits="userSpaceOnUse" color-interpolation-filters="sRGB">
<feFlood flood-opacity="0" result="BackgroundImageFix"/>
<feColorMatrix in="SourceAlpha" type="matrix" values="0 0 0 0 0 0 0 0 0 0 0 0 0 0 0 0 0 0 127 0" result="hardAlpha"/>
<feOffset dy="4"/>
<feGaussianBlur stdDeviation="10"/>
<feComposite in2="hardAlpha" operator="out"/>
<feColorMatrix type="matrix" values="0 0 0 0 0 0 0 0 0 0 0 0 0 0 0 0 0 0 0.25 0"/>
<feBlend mode="normal" in2="BackgroundImageFix" result="effect1_dropShadow_4951_25450"/>
<feBlend mode="normal" in="SourceGraphic" in2="effect1_dropShadow_4951_25450" result="shape"/>
</filter>
<filter id="filter1_d_4951_25450" x="106.723" y="27.1387" width="77.2544" height="77.2539" filterUnits="userSpaceOnUse" color-interpolation-filters="sRGB">
<feFlood flood-opacity="0" result="BackgroundImageFix"/>
<feColorMatrix in="SourceAlpha" type="matrix" values="0 0 0 0 0 0 0 0 0 0 0 0 0 0 0 0 0 0 127 0" result="hardAlpha"/>
<feOffset dy="4"/>
<feGaussianBlur stdDeviation="10"/>
<feComposite in2="hardAlpha" operator="out"/>
<feColorMatrix type="matrix" values="0 0 0 0 0 0 0 0 0 0 0 0 0 0 0 0 0 0 0.25 0"/>
<feBlend mode="normal" in2="BackgroundImageFix" result="effect1_dropShadow_4951_25450"/>
<feBlend mode="normal" in="SourceGraphic" in2="effect1_dropShadow_4951_25450" result="shape"/>
</filter>
<filter id="filter2_d_4951_25450" x="125.351" y="40.3643" width="77.2544" height="77.2539" filterUnits="userSpaceOnUse" color-interpolation-filters="sRGB">
<feFlood flood-opacity="0" result="BackgroundImageFix"/>
<feColorMatrix in="SourceAlpha" type="matrix" values="0 0 0 0 0 0 0 0 0 0 0 0 0 0 0 0 0 0 127 0" result="hardAlpha"/>
<feOffset dy="4"/>
<feGaussianBlur stdDeviation="10"/>
<feComposite in2="hardAlpha" operator="out"/>
<feColorMatrix type="matrix" values="0 0 0 0 0 0 0 0 0 0 0 0 0 0 0 0 0 0 0.25 0"/>
<feBlend mode="normal" in2="BackgroundImageFix" result="effect1_dropShadow_4951_25450"/>
<feBlend mode="normal" in="SourceGraphic" in2="effect1_dropShadow_4951_25450" result="shape"/>
</filter>
<filter id="filter3_d_4951_25450" x="143.978" y="52.2852" width="77.2544" height="77.2539" filterUnits="userSpaceOnUse" color-interpolation-filters="sRGB">
<feFlood flood-opacity="0" result="BackgroundImageFix"/>
<feColorMatrix in="SourceAlpha" type="matrix" values="0 0 0 0 0 0 0 0 0 0 0 0 0 0 0 0 0 0 127 0" result="hardAlpha"/>
<feOffset dy="4"/>
<feGaussianBlur stdDeviation="10"/>
<feComposite in2="hardAlpha" operator="out"/>
<feColorMatrix type="matrix" values="0 0 0 0 0 0 0 0 0 0 0 0 0 0 0 0 0 0 0.25 0"/>
<feBlend mode="normal" in2="BackgroundImageFix" result="effect1_dropShadow_4951_25450"/>
<feBlend mode="normal" in="SourceGraphic" in2="effect1_dropShadow_4951_25450" result="shape"/>
</filter>
<filter id="filter4_d_4951_25450" x="71.7046" y="39.0605" width="77.2544" height="77.2539" filterUnits="userSpaceOnUse" color-interpolation-filters="sRGB">
<feFlood flood-opacity="0" result="BackgroundImageFix"/>
<feColorMatrix in="SourceAlpha" type="matrix" values="0 0 0 0 0 0 0 0 0 0 0 0 0 0 0 0 0 0 127 0" result="hardAlpha"/>
<feOffset dy="4"/>
<feGaussianBlur stdDeviation="10"/>
<feComposite in2="hardAlpha" operator="out"/>
<feColorMatrix type="matrix" values="0 0 0 0 0 0 0 0 0 0 0 0 0 0 0 0 0 0 0.25 0"/>
<feBlend mode="normal" in2="BackgroundImageFix" result="effect1_dropShadow_4951_25450"/>
<feBlend mode="normal" in="SourceGraphic" in2="effect1_dropShadow_4951_25450" result="shape"/>
</filter>
<filter id="filter5_d_4951_25450" x="90.3311" y="51.168" width="77.2544" height="77.2539" filterUnits="userSpaceOnUse" color-interpolation-filters="sRGB">
<feFlood flood-opacity="0" result="BackgroundImageFix"/>
<feColorMatrix in="SourceAlpha" type="matrix" values="0 0 0 0 0 0 0 0 0 0 0 0 0 0 0 0 0 0 127 0" result="hardAlpha"/>
<feOffset dy="4"/>
<feGaussianBlur stdDeviation="10"/>
<feComposite in2="hardAlpha" operator="out"/>
<feColorMatrix type="matrix" values="0 0 0 0 0 0 0 0 0 0 0 0 0 0 0 0 0 0 0.25 0"/>
<feBlend mode="normal" in2="BackgroundImageFix" result="effect1_dropShadow_4951_25450"/>
<feBlend mode="normal" in="SourceGraphic" in2="effect1_dropShadow_4951_25450" result="shape"/>
</filter>
<filter id="filter6_d_4951_25450" x="108.958" y="64.3936" width="77.2544" height="77.2539" filterUnits="userSpaceOnUse" color-interpolation-filters="sRGB">
<feFlood flood-opacity="0" result="BackgroundImageFix"/>
<feColorMatrix in="SourceAlpha" type="matrix" values="0 0 0 0 0 0 0 0 0 0 0 0 0 0 0 0 0 0 127 0" result="hardAlpha"/>
<feOffset dy="4"/>
<feGaussianBlur stdDeviation="10"/>
<feComposite in2="hardAlpha" operator="out"/>
<feColorMatrix type="matrix" values="0 0 0 0 0 0 0 0 0 0 0 0 0 0 0 0 0 0 0.25 0"/>
<feBlend mode="normal" in2="BackgroundImageFix" result="effect1_dropShadow_4951_25450"/>
<feBlend mode="normal" in="SourceGraphic" in2="effect1_dropShadow_4951_25450" result="shape"/>
</filter>
<filter id="filter7_d_4951_25450" x="127.586" y="76.3145" width="77.2544" height="77.2539" filterUnits="userSpaceOnUse" color-interpolation-filters="sRGB">
<feFlood flood-opacity="0" result="BackgroundImageFix"/>
<feColorMatrix in="SourceAlpha" type="matrix" values="0 0 0 0 0 0 0 0 0 0 0 0 0 0 0 0 0 0 127 0" result="hardAlpha"/>
<feOffset dy="4"/>
<feGaussianBlur stdDeviation="10"/>
<feComposite in2="hardAlpha" operator="out"/>
<feColorMatrix type="matrix" values="0 0 0 0 0 0 0 0 0 0 0 0 0 0 0 0 0 0 0.25 0"/>
<feBlend mode="normal" in2="BackgroundImageFix" result="effect1_dropShadow_4951_25450"/>
<feBlend mode="normal" in="SourceGraphic" in2="effect1_dropShadow_4951_25450" result="shape"/>
</filter>
<filter id="filter8_d_4951_25450" x="55.3125" y="64.207" width="77.2544" height="77.2539" filterUnits="userSpaceOnUse" color-interpolation-filters="sRGB">
<feFlood flood-opacity="0" result="BackgroundImageFix"/>
<feColorMatrix in="SourceAlpha" type="matrix" values="0 0 0 0 0 0 0 0 0 0 0 0 0 0 0 0 0 0 127 0" result="hardAlpha"/>
<feOffset dy="4"/>
<feGaussianBlur stdDeviation="10"/>
<feComposite in2="hardAlpha" operator="out"/>
<feColorMatrix type="matrix" values="0 0 0 0 0 0 0 0 0 0 0 0 0 0 0 0 0 0 0.25 0"/>
<feBlend mode="normal" in2="BackgroundImageFix" result="effect1_dropShadow_4951_25450"/>
<feBlend mode="normal" in="SourceGraphic" in2="effect1_dropShadow_4951_25450" result="shape"/>
</filter>
<filter id="filter9_d_4951_25450" x="73.9399" y="76.3145" width="77.2544" height="77.2539" filterUnits="userSpaceOnUse" color-interpolation-filters="sRGB">
<feFlood flood-opacity="0" result="BackgroundImageFix"/>
<feColorMatrix in="SourceAlpha" type="matrix" values="0 0 0 0 0 0 0 0 0 0 0 0 0 0 0 0 0 0 127 0" result="hardAlpha"/>
<feOffset dy="4"/>
<feGaussianBlur stdDeviation="10"/>
<feComposite in2="hardAlpha" operator="out"/>
<feColorMatrix type="matrix" values="0 0 0 0 0 0 0 0 0 0 0 0 0 0 0 0 0 0 0.25 0"/>
<feBlend mode="normal" in2="BackgroundImageFix" result="effect1_dropShadow_4951_25450"/>
<feBlend mode="normal" in="SourceGraphic" in2="effect1_dropShadow_4951_25450" result="shape"/>
</filter>
<filter id="filter10_d_4951_25450" x="92.5669" y="89.54" width="77.2544" height="77.2539" filterUnits="userSpaceOnUse" color-interpolation-filters="sRGB">
<feFlood flood-opacity="0" result="BackgroundImageFix"/>
<feColorMatrix in="SourceAlpha" type="matrix" values="0 0 0 0 0 0 0 0 0 0 0 0 0 0 0 0 0 0 127 0" result="hardAlpha"/>
<feOffset dy="4"/>
<feGaussianBlur stdDeviation="10"/>
<feComposite in2="hardAlpha" operator="out"/>
<feColorMatrix type="matrix" values="0 0 0 0 0 0 0 0 0 0 0 0 0 0 0 0 0 0 0.25 0"/>
<feBlend mode="normal" in2="BackgroundImageFix" result="effect1_dropShadow_4951_25450"/>
<feBlend mode="normal" in="SourceGraphic" in2="effect1_dropShadow_4951_25450" result="shape"/>
</filter>
<filter id="filter11_d_4951_25450" x="111.194" y="101.461" width="77.2544" height="77.2539" filterUnits="userSpaceOnUse" color-interpolation-filters="sRGB">
<feFlood flood-opacity="0" result="BackgroundImageFix"/>
<feColorMatrix in="SourceAlpha" type="matrix" values="0 0 0 0 0 0 0 0 0 0 0 0 0 0 0 0 0 0 127 0" result="hardAlpha"/>
<feOffset dy="4"/>
<feGaussianBlur stdDeviation="10"/>
<feComposite in2="hardAlpha" operator="out"/>
<feColorMatrix type="matrix" values="0 0 0 0 0 0 0 0 0 0 0 0 0 0 0 0 0 0 0.25 0"/>
<feBlend mode="normal" in2="BackgroundImageFix" result="effect1_dropShadow_4951_25450"/>
<feBlend mode="normal" in="SourceGraphic" in2="effect1_dropShadow_4951_25450" result="shape"/>
</filter>
<linearGradient id="paint0_linear_4951_25450" x1="140.601" y1="9.05078" x2="147.586" y2="46.3051" gradientUnits="userSpaceOnUse">
<stop stop-color="#F8CEFF"/>
<stop offset="0.501965" stop-color="#C99AD0"/>
<stop offset="1" stop-color="#9651A0"/>
</linearGradient>
<linearGradient id="paint1_linear_4951_25450" x1="159.228" y1="21.1582" x2="166.213" y2="58.4126" gradientUnits="userSpaceOnUse">
<stop stop-color="#F8CEFF"/>
<stop offset="0.501965" stop-color="#C99AD0"/>
<stop offset="1" stop-color="#9651A0"/>
</linearGradient>
<linearGradient id="paint2_linear_4951_25450" x1="177.855" y1="34.3838" x2="184.841" y2="71.6382" gradientUnits="userSpaceOnUse">
<stop stop-color="#F8CEFF"/>
<stop offset="0.501965" stop-color="#C99AD0"/>
<stop offset="1" stop-color="#9651A0"/>
</linearGradient>
<linearGradient id="paint3_linear_4951_25450" x1="196.482" y1="46.3057" x2="203.468" y2="83.56" gradientUnits="userSpaceOnUse">
<stop stop-color="#F8CEFF"/>
<stop offset="0.501965" stop-color="#C99AD0"/>
<stop offset="1" stop-color="#9651A0"/>
</linearGradient>
<linearGradient id="paint4_linear_4951_25450" x1="123.277" y1="31.0312" x2="130.263" y2="68.2856" gradientUnits="userSpaceOnUse">
<stop stop-color="#F8CEFF"/>
<stop offset="0.501965" stop-color="#C99AD0"/>
<stop offset="1" stop-color="#9651A0"/>
</linearGradient>
<linearGradient id="paint5_linear_4951_25450" x1="141.904" y1="43.1387" x2="148.889" y2="80.393" gradientUnits="userSpaceOnUse">
<stop stop-color="#F8CEFF"/>
<stop offset="0.501965" stop-color="#C99AD0"/>
<stop offset="1" stop-color="#9651A0"/>
</linearGradient>
<linearGradient id="paint6_linear_4951_25450" x1="160.532" y1="56.3643" x2="167.517" y2="93.6186" gradientUnits="userSpaceOnUse">
<stop stop-color="#F8CEFF"/>
<stop offset="0.501965" stop-color="#C99AD0"/>
<stop offset="1" stop-color="#9651A0"/>
</linearGradient>
<linearGradient id="paint7_linear_4951_25450" x1="179.159" y1="68.2852" x2="186.144" y2="105.54" gradientUnits="userSpaceOnUse">
<stop stop-color="#F8CEFF"/>
<stop offset="0.501965" stop-color="#C99AD0"/>
<stop offset="1" stop-color="#9651A0"/>
</linearGradient>
<linearGradient id="paint8_linear_4951_25450" x1="106.886" y1="55.0605" x2="113.871" y2="92.3149" gradientUnits="userSpaceOnUse">
<stop stop-color="#F8CEFF"/>
<stop offset="0.501965" stop-color="#C99AD0"/>
<stop offset="1" stop-color="#9651A0"/>
</linearGradient>
<linearGradient id="paint9_linear_4951_25450" x1="125.512" y1="67.168" x2="132.497" y2="104.422" gradientUnits="userSpaceOnUse">
<stop stop-color="#F8CEFF"/>
<stop offset="0.501965" stop-color="#C99AD0"/>
<stop offset="1" stop-color="#9651A0"/>
</linearGradient>
<linearGradient id="paint10_linear_4951_25450" x1="144.14" y1="80.3936" x2="151.125" y2="117.648" gradientUnits="userSpaceOnUse">
<stop stop-color="#F8CEFF"/>
<stop offset="0.501965" stop-color="#C99AD0"/>
<stop offset="1" stop-color="#9651A0"/>
</linearGradient>
<linearGradient id="paint11_linear_4951_25450" x1="162.767" y1="92.3145" x2="169.752" y2="129.569" gradientUnits="userSpaceOnUse">
<stop stop-color="#F8CEFF"/>
<stop offset="0.501965" stop-color="#C99AD0"/>
<stop offset="1" stop-color="#9651A0"/>
</linearGradient>
<linearGradient id="paint12_linear_4951_25450" x1="90.4937" y1="80.207" x2="97.4788" y2="117.461" gradientUnits="userSpaceOnUse">
<stop stop-color="#F8CEFF"/>
<stop offset="0.501965" stop-color="#C99AD0"/>
<stop offset="1" stop-color="#9651A0"/>
</linearGradient>
<linearGradient id="paint13_linear_4951_25450" x1="109.121" y1="92.3145" x2="116.106" y2="129.569" gradientUnits="userSpaceOnUse">
<stop stop-color="#F8CEFF"/>
<stop offset="0.501965" stop-color="#C99AD0"/>
<stop offset="1" stop-color="#9651A0"/>
</linearGradient>
<linearGradient id="paint14_linear_4951_25450" x1="127.748" y1="105.54" x2="134.733" y2="142.794" gradientUnits="userSpaceOnUse">
<stop stop-color="#F8CEFF"/>
<stop offset="0.501965" stop-color="#C99AD0"/>
<stop offset="1" stop-color="#9651A0"/>
</linearGradient>
<linearGradient id="paint15_linear_4951_25450" x1="146.375" y1="117.461" x2="153.361" y2="154.715" gradientUnits="userSpaceOnUse">
<stop stop-color="#F8CEFF"/>
<stop offset="0.501965" stop-color="#C99AD0"/>
<stop offset="1" stop-color="#9651A0"/>
</linearGradient>
<linearGradient id="paint16_linear_4951_25450" x1="72.7974" y1="104.236" x2="79.7826" y2="141.491" gradientUnits="userSpaceOnUse">
<stop stop-color="#F8CEFF"/>
<stop offset="0.501965" stop-color="#C99AD0"/>
<stop offset="1" stop-color="#9651A0"/>
</linearGradient>
<linearGradient id="paint17_linear_4951_25450" x1="91.4243" y1="116.344" x2="98.4095" y2="153.598" gradientUnits="userSpaceOnUse">
<stop stop-color="#F8CEFF"/>
<stop offset="0.501965" stop-color="#C99AD0"/>
<stop offset="1" stop-color="#9651A0"/>
</linearGradient>
<linearGradient id="paint18_linear_4951_25450" x1="110.052" y1="129.569" x2="117.037" y2="166.824" gradientUnits="userSpaceOnUse">
<stop stop-color="#F8CEFF"/>
<stop offset="0.501965" stop-color="#C99AD0"/>
<stop offset="1" stop-color="#9651A0"/>
</linearGradient>
<linearGradient id="paint19_linear_4951_25450" x1="128.679" y1="141.49" x2="135.664" y2="178.745" gradientUnits="userSpaceOnUse">
<stop stop-color="#F8CEFF"/>
<stop offset="0.501965" stop-color="#C99AD0"/>
<stop offset="1" stop-color="#9651A0"/>
</linearGradient>
</defs>
</svg>
