<svg width="276" height="214" viewBox="0 0 276 214" fill="none" xmlns="http://www.w3.org/2000/svg">
<path d="M262.954 213L115.081 212.949L40.7725 212.923L36.6355 212.92L21.7068 212.918C21.7068 212.918 0.381795 195.582 0.0123887 171.075C-0.715534 122.785 30.893 144.536 26.5988 86.3361C22.6804 33.229 125.059 4.59177 180.65 45.165C200.861 59.9162 202.446 70.2624 231.489 66.9913C264.273 63.2992 268.009 103.143 256.535 125.229C240.253 156.567 301.681 151.419 262.954 213Z" fill="#F7F0FF"/>
<mask id="mask0_4951_25424" style="mask-type:alpha" maskUnits="userSpaceOnUse" x="0" y="26" width="276" height="187">
<path d="M262.954 213L115.081 212.949L40.7725 212.923L36.6355 212.92L21.7068 212.918C21.7068 212.918 0.381795 195.582 0.0123887 171.075C-0.715534 122.785 30.893 144.536 26.5988 86.3361C22.6804 33.229 125.059 4.59177 180.65 45.165C200.861 59.9162 202.446 70.2624 231.489 66.9913C264.273 63.2992 268.009 103.143 256.535 125.229C240.253 156.567 301.681 151.419 262.954 213Z" fill="#CEF7F3"/>
</mask>
<g mask="url(#mask0_4951_25424)">
<path d="M69.0001 130.125C45.3384 125.566 7.96161 139.156 7.96161 139.156H-5.30762V213H279.185V180.062C279.185 180.062 234.394 157.689 203.285 154.562C172.536 151.471 154.7 171.672 124.731 164.125C100.013 157.899 94.0291 134.947 69.0001 130.125Z" fill="#F1E6FF"/>
</g>
<path fill-rule="evenodd" clip-rule="evenodd" d="M86.766 182.52C86.7578 182.186 86.7618 181.849 86.7785 181.51L87.5639 165.587C81.4739 157.175 76.0812 147.83 71.4147 138.534C68.3113 132.352 65.5276 126.19 63.0724 120.334C62.1414 120.618 61.2881 120.789 60.561 120.843C59.7374 120.903 59.0173 120.817 58.5411 120.507L58.451 120.449L52.1612 103.904L45.8486 84.3104L45.9909 84.1683C46.5999 83.5604 47.5442 83.0353 48.7049 82.6106C49.0157 82.4968 49.3437 82.3897 49.6873 82.2896L49.6384 82.1083L49.9793 82.0371C61.8919 79.5503 73.0912 77.6657 83.8168 76.3675C83.8265 75.0391 84.0792 73.9891 84.4425 73.3704C87.6897 67.8404 103.505 62.2251 117.165 57.3749C129.615 52.9547 140.274 49.1702 137.998 46.6651C137.139 46.2515 136.316 45.8513 135.53 45.464C133.434 44.8699 130.066 44.3946 125.151 44.0542C122.215 43.8508 119.4 43.6588 116.707 43.4751L116.702 43.4748C69.8798 40.2808 59.6254 39.5814 84.3393 25.1688C105.248 12.9751 94.613 5.6204 86.6816 3.46726C100.127 1.81316 129.399 1.33014 122.032 10.0245C117.659 15.185 108.734 19.9579 101.229 23.9712C92.9291 28.4099 86.3666 31.9194 89.6221 33.9963C91.6957 35.3192 100.621 34.3336 111.671 33.1133C126.712 31.4524 145.691 29.3566 156.692 32.0547C160.121 29.4669 156.762 25.6305 153.273 23.2379C165.7 26.8686 191.147 36.546 180.326 38.9859C176.435 39.8631 171.179 40.0915 165.745 40.0754C166.189 43.8046 166.175 47.2042 165.207 50.321C184.516 56.2203 207.149 63.7914 202.76 70.5095C198.68 76.7549 193.161 80.5621 177.367 79.1534C177.695 79.7399 177.981 80.3528 178.22 80.9879C188.637 83.283 199.35 86.1479 210.62 89.5654C211.703 89.5429 212.786 89.5911 213.854 89.6989C217.589 90.0759 221.16 91.1814 223.983 92.5514C225.394 93.2366 226.624 93.9907 227.597 94.7579C228.565 95.5215 229.297 96.3135 229.687 97.0802L229.757 97.2179L224.432 109.531L214.176 131.697L214.027 131.736C213.732 131.815 213.376 131.79 212.995 131.706C212.607 131.621 212.163 131.466 211.677 131.254C211.335 131.104 210.97 130.925 210.584 130.717C207.581 136.094 204.226 141.727 200.556 147.342C193.081 158.777 184.289 170.149 174.488 179.133L174.165 185.682C179.612 186.529 182.08 188.182 184.374 189.719C185.059 190.178 185.729 190.626 186.458 191.04C188.296 192.083 188.416 193.166 188.536 194.256C188.635 195.146 188.734 196.04 189.771 196.918C190.967 197.932 193.706 198.908 196.41 199.872C200.837 201.45 205.171 202.995 202.483 204.615C198.357 207.102 182.978 208.447 169.881 208.905C163.645 209.123 157.801 208.546 151.932 207.966C146.327 207.411 140.699 206.855 134.687 206.988C127.921 207.138 122.056 207.992 116.28 208.833C109.389 209.836 102.624 210.822 94.6008 210.572C80.6855 210.138 69.5855 207.445 65.0996 204.819C62.5724 203.339 65.0674 201.842 67.6029 200.322C69.4707 199.201 71.3606 198.068 71.2809 196.918C71.1992 195.739 69.1772 194.59 67.1769 193.454C64.4867 191.926 61.8355 190.42 63.9956 188.892C67.4631 186.44 74.9996 183.298 86.766 182.52ZM160.822 57.2606C158.299 59.6874 154.684 61.9156 149.616 63.9793C150.297 64.069 150.974 64.1586 151.646 64.2474L151.743 64.2603C170.821 66.7839 185.871 68.7747 165.48 59.3996C163.884 58.6661 162.332 57.9533 160.822 57.2606Z" fill="#192E35"/>
<path fill-rule="evenodd" clip-rule="evenodd" d="M125.652 6.80999C125.927 8.65519 125.067 10.3092 123.939 11.6406C121.499 14.5194 117.912 17.1664 114.137 19.5435C110.346 21.9307 106.174 24.1617 102.446 26.1553L102.408 26.1757C98.1799 28.4368 94.6696 30.3219 92.5856 31.8743C92.4914 31.9444 92.4021 32.0125 92.3176 32.0784C92.3864 32.0833 92.4575 32.0879 92.531 32.0921C93.6873 32.1583 95.2295 32.1276 97.1296 32.013C100.925 31.784 105.848 31.2411 111.397 30.6284L111.433 30.6243C118.931 29.7964 127.497 28.8504 135.573 28.4524C142.856 28.0934 149.947 28.1662 155.584 29.255C155.549 29.1297 155.486 28.9642 155.373 28.7535C154.806 27.6949 153.482 26.4125 151.859 25.2996L153.974 20.8381C160.266 22.6764 169.876 26.0489 176.607 29.3084C178.297 30.1268 179.848 30.9584 181.138 31.7777C182.384 32.569 183.565 33.4583 184.354 34.4335C185.102 35.3575 186.085 37.1847 184.9 39.0819C184.417 39.8556 183.714 40.3506 183.074 40.6756C182.422 41.007 181.672 41.245 180.875 41.4246C177.389 42.2106 172.994 42.4966 168.474 42.5611C168.588 44.619 168.525 46.6443 168.181 48.6189C177.195 51.4006 186.81 54.56 193.917 57.838C197.727 59.5953 201.072 61.4987 203.197 63.5532C204.265 64.5857 205.207 65.8288 205.609 67.2931C206.044 68.8765 205.775 70.4649 204.853 71.8768C202.634 75.2733 199.875 78.2141 195.39 80.0206C193.958 80.5975 192.377 81.0474 190.617 81.3668C197.238 83.0523 204.003 84.9519 210.974 87.0605C212.028 87.0541 213.075 87.1076 214.105 87.2115C218.148 87.6197 222.003 88.8116 225.074 90.3023C226.612 91.0487 228.003 91.894 229.145 92.795C230.249 93.6661 231.293 94.7238 231.915 95.9469L232.518 97.1319L226.714 110.552L215.952 133.811L214.67 134.152C213.812 134.38 212.998 134.267 212.456 134.147C212.187 134.088 211.917 134.011 211.648 133.922C208.913 138.735 205.905 143.727 202.649 148.709C195.299 159.952 186.637 171.216 176.935 180.275L176.769 183.63C181.25 184.632 183.65 186.225 185.765 187.641C186.462 188.108 187.056 188.505 187.692 188.866C188.929 189.567 189.82 190.422 190.367 191.492C190.855 192.446 190.957 193.388 191.013 193.904C191.016 193.931 191.018 193.957 191.021 193.981C191.075 194.467 191.102 194.606 191.142 194.714C191.156 194.749 191.17 194.778 191.194 194.812C191.22 194.848 191.274 194.915 191.386 195.01C191.665 195.247 192.331 195.622 193.491 196.108C194.588 196.568 195.88 197.029 197.249 197.517L197.45 197.589C199.508 198.322 201.887 199.169 203.407 200.088C203.825 200.34 204.273 200.652 204.664 201.037C205.04 201.407 205.517 201.995 205.719 202.817C205.946 203.745 205.743 204.647 205.272 205.372C204.855 206.015 204.276 206.454 203.774 206.756C202.362 207.607 200.276 208.224 198.02 208.713C195.685 209.22 192.879 209.647 189.838 210.004C183.749 210.719 176.558 211.173 169.968 211.404C163.565 211.628 157.581 211.036 151.754 210.46L151.686 210.453C146.062 209.897 140.581 209.358 134.742 209.488C128.149 209.634 122.426 210.464 116.64 211.307L116.572 211.317C109.715 212.315 102.766 213.327 94.5228 213.07C87.4306 212.849 81.0319 212.052 75.8049 210.965C70.6384 209.89 66.4287 208.494 63.8363 206.976C62.9877 206.479 61.9324 205.634 61.6263 204.243C61.3024 202.77 62.0069 201.615 62.5326 200.984C63.071 200.339 63.7728 199.807 64.3741 199.395C64.9876 198.975 65.6731 198.564 66.2831 198.198L66.3168 198.178C67.0774 197.721 67.7087 197.339 68.1997 196.99C67.6147 196.582 66.8519 196.145 65.9419 195.628C65.88 195.593 65.8167 195.557 65.7522 195.52C64.5614 194.845 62.9531 193.933 61.9648 192.905C61.4363 192.355 60.656 191.343 60.7045 189.948C60.7564 188.452 61.7101 187.446 62.552 186.851C66.2414 184.242 73.5044 181.235 84.3396 180.207L85.0237 166.337C79.0455 157.976 73.7576 148.774 69.1803 139.656C66.3888 134.095 63.8558 128.555 61.5871 123.24C61.3004 123.283 61.0188 123.316 60.744 123.336C59.7716 123.407 58.3612 123.371 57.1796 122.604L56.4043 122.101L49.8013 104.732L43 83.6214L44.2246 82.399C44.9101 81.7147 45.7704 81.1745 46.6816 80.7458L46.535 80.2022L49.4683 79.5898C60.7128 77.2425 71.3382 75.4262 81.5414 74.1304C81.6981 73.3848 81.9415 72.6921 82.2866 72.1044C83.4043 70.2009 85.4123 68.553 87.6552 67.1154C89.9583 65.6391 92.7942 64.2086 95.8821 62.8338C102.038 60.0929 109.481 57.4503 116.271 55.0396L116.329 55.019C122.599 52.7926 128.249 50.7841 132.058 49.0308C133.072 48.5639 133.887 48.1454 134.516 47.7794C132.643 47.2963 129.581 46.8669 124.978 46.5482C122.044 46.3449 119.23 46.153 116.537 45.9693L116.482 45.9655C104.817 45.1698 95.3625 44.5249 88.1596 43.7805C81.0711 43.0479 75.7652 42.1895 72.6762 40.812C71.1759 40.1429 69.4848 39.0431 68.9597 37.1066C68.4147 35.0963 69.4152 33.3212 70.4635 32.0612C71.5673 30.7346 73.2256 29.362 75.2736 27.9187C77.3507 26.4551 79.9626 24.827 83.0798 23.0092C88.1751 20.0377 91.1059 17.4942 92.638 15.4412C94.1241 13.4499 94.1714 12.1143 93.9215 11.2389C93.6336 10.2301 92.76 9.15511 91.2213 8.13594C89.7146 7.1379 87.8258 6.36834 86.0265 5.87989L86.3762 0.985918C93.2166 0.144394 104.085 -0.404955 112.395 0.376129C116.438 0.756102 120.342 1.48458 122.793 2.95587C124.057 3.71446 125.373 4.93949 125.652 6.80999ZM52.5614 84.0565L50.386 84.6899C50.0922 84.7755 49.8179 84.8653 49.5639 84.9582C49.2679 85.0665 49.0102 85.1752 48.7877 85.2808L54.5209 103.076L60.3285 118.353C60.3446 118.352 60.3609 118.351 60.3777 118.349C60.873 118.313 61.5389 118.188 62.3443 117.942L64.5046 117.285L65.3778 119.367C67.8147 125.179 70.5749 131.289 73.6488 137.413C78.2736 146.625 83.5987 155.847 89.5888 164.121L90.104 164.833L89.2754 181.633C89.2617 181.911 89.2584 182.186 89.2651 182.459L89.3242 184.857L86.9307 185.015C76.7544 185.687 70.0472 188.17 66.5816 190.201C66.5842 190.203 66.5869 190.205 66.5896 190.206C67.1162 190.544 67.7255 190.891 68.4116 191.28L68.4902 191.325C69.4321 191.86 70.5558 192.498 71.452 193.173C71.9186 193.524 72.4246 193.959 72.8407 194.48C73.2517 194.995 73.7066 195.761 73.7748 196.745C73.8462 197.776 73.4578 198.615 73.0662 199.188C72.6802 199.753 72.1896 200.212 71.7514 200.569C70.9141 201.251 69.8444 201.892 68.9732 202.415L68.8887 202.465C68.3973 202.76 67.9552 203.026 67.5625 203.279C69.6067 204.222 72.7463 205.222 76.8232 206.07C81.7464 207.094 87.8554 207.86 94.6786 208.073C102.454 208.315 109.017 207.364 115.92 206.359L115.969 206.352C121.721 205.514 127.712 204.642 134.632 204.489C140.795 204.352 146.549 204.921 152.117 205.472L152.178 205.478C158.067 206.06 163.75 206.618 169.793 206.407C176.301 206.179 183.347 205.732 189.254 205.038C192.211 204.691 194.842 204.286 196.96 203.827C197.625 203.683 198.215 203.538 198.733 203.395C197.829 203.035 196.756 202.649 195.57 202.227L195.532 202.213C194.208 201.741 192.794 201.237 191.558 200.719C190.373 200.223 189.072 199.603 188.154 198.825C187.318 198.117 186.78 197.322 186.46 196.469C186.182 195.726 186.104 195.009 186.058 194.593L186.051 194.53C185.986 193.937 185.952 193.84 185.915 193.768C185.909 193.756 185.813 193.548 185.225 193.214C184.414 192.755 183.679 192.262 183.012 191.816L182.934 191.763C180.802 190.335 178.681 188.914 173.781 188.153L171.557 187.807L172.042 177.984L172.799 177.29C182.391 168.497 191.053 157.31 198.463 145.974C202.097 140.415 205.422 134.833 208.401 129.498L209.601 127.35L211.768 128.516C212.104 128.697 212.408 128.845 212.678 128.963L212.534 129.292L212.535 129.29L212.678 128.963C212.68 128.964 212.682 128.965 212.685 128.966L222.15 108.51L226.913 97.4963C226.694 97.2671 226.41 97.0062 226.048 96.7206C225.246 96.0874 224.176 95.4244 222.891 94.8005C220.317 93.551 217.029 92.5321 213.602 92.1862C212.628 92.0878 211.647 92.0446 210.672 92.0648L210.274 92.0731L209.894 91.9578C198.674 88.5552 188.025 85.7079 177.682 83.4293L176.358 83.1376L175.88 81.8687C175.686 81.3522 175.453 80.8533 175.186 80.3756L172.869 76.2424L177.589 76.6633C185.305 77.3514 190.181 76.7285 193.522 75.3827C196.765 74.0765 198.806 71.9911 200.667 69.1421C200.842 68.8744 200.826 68.7567 200.787 68.6171C200.716 68.3584 200.46 67.8618 199.721 67.1476C198.233 65.7087 195.536 64.091 191.823 62.3783C184.477 58.9902 174.15 55.6675 164.476 52.7119L162.074 51.978L162.819 49.5794C163.638 46.9434 163.688 43.9441 163.262 40.3714L162.928 37.567L165.752 37.5754C170.98 37.5908 175.827 37.3736 179.39 36.6308C179.127 36.4385 178.818 36.2273 178.458 35.9986C177.386 35.3179 176.019 34.5791 174.427 33.8084C170.423 31.8692 165.27 29.8576 160.47 28.1846C160.624 28.8435 160.677 29.551 160.568 30.2882C160.341 31.8183 159.473 33.0879 158.198 34.05L157.25 34.7656L156.096 34.4827C150.969 33.2253 143.782 33.0539 135.819 33.4463C127.908 33.8362 119.48 34.7662 111.945 35.5982L111.887 35.6046C106.408 36.2097 101.365 36.7666 97.4307 37.0039C95.4591 37.1229 93.6906 37.1667 92.2449 37.0839C91.5215 37.0424 90.8263 36.9666 90.1987 36.835C89.6003 36.7096 88.9004 36.5013 88.2774 36.1039C87.5998 35.6716 86.8822 35.0171 86.5102 34.0435C86.1171 33.0144 86.2552 32.0147 86.5866 31.2179C87.159 29.8414 88.4488 28.721 89.5987 27.8645C92.0208 26.0603 95.8626 24.0058 99.8698 21.863L100.05 21.7666C103.817 19.752 107.845 17.597 111.473 15.3125C115.129 13.0097 118.191 10.69 120.124 8.40827C120.485 7.98195 120.622 7.71179 120.673 7.57668C120.603 7.50535 120.468 7.3914 120.22 7.24281C118.834 6.41106 115.962 5.73349 111.927 5.35419C106.996 4.89067 101.02 4.92359 95.6214 5.21376C97.0049 6.42836 98.1868 7.96527 98.7295 9.86663C99.5163 12.6233 98.7977 15.5473 96.6451 18.4317C94.5385 21.2545 90.9578 24.203 85.5986 27.3284C82.5373 29.1137 80.0635 30.6602 78.1538 32.0059C76.2151 33.3721 74.9857 34.4436 74.3071 35.2592C74.1059 35.5009 73.9842 35.6813 73.9111 35.8075C74.0557 35.9118 74.3031 36.0628 74.7127 36.2455C76.9508 37.2436 81.443 38.0597 88.6736 38.807C95.7795 39.5414 105.148 40.1808 116.872 40.9805L116.883 40.9812C119.574 41.1649 122.388 41.3568 125.323 41.5601C130.268 41.9026 133.852 42.3901 136.212 43.0587L136.43 43.1207L136.634 43.2212C137.413 43.6048 138.23 44.0019 139.083 44.4128L139.521 44.6239L139.848 44.9839C140.645 45.8608 141.028 47.0644 140.675 48.3336C140.386 49.3727 139.684 50.1363 139.114 50.6428C137.941 51.6845 136.136 52.6582 134.149 53.5728C130.109 55.4319 124.251 57.5119 118.113 59.6914L118.002 59.7308C111.147 62.1646 103.877 64.7476 97.9158 67.4015C94.9364 68.7281 92.3558 70.0414 90.3534 71.3249C88.2908 72.647 87.1041 73.7747 86.5982 74.6362C86.5986 74.6355 86.5927 74.6455 86.5822 74.6683C86.5718 74.6909 86.5581 74.7233 86.5424 74.7667C86.5104 74.8546 86.4741 74.976 86.44 75.1331C86.3713 75.4495 86.3203 75.8706 86.3166 76.3856L86.3005 78.585L84.117 78.8493C74.0941 80.0625 63.6428 81.793 52.5614 84.0565ZM73.8056 36.0398C73.8052 36.0399 73.8059 36.0349 73.8089 36.0245C73.8075 36.0345 73.806 36.0397 73.8056 36.0398ZM120.742 7.662C120.741 7.66208 120.738 7.6574 120.734 7.6477C120.74 7.65707 120.742 7.66192 120.742 7.662ZM66.1842 202.541C66.1848 202.54 66.1927 202.546 66.2057 202.559C66.19 202.547 66.1835 202.541 66.1842 202.541ZM65.5081 189.369C65.5089 189.369 65.5162 189.378 65.5275 189.394C65.5128 189.377 65.5072 189.369 65.5081 189.369ZM90.9279 31.8623C90.9278 31.8622 90.9279 31.8623 90.9279 31.8623V31.8623ZM160.316 54.2779L161.865 54.9883C163.374 55.6811 164.928 56.3942 166.524 57.1281C169.103 58.3141 171.163 59.3385 172.744 60.2201C174.281 61.0774 175.518 61.8814 176.334 62.6501C176.725 63.0194 177.218 63.5613 177.499 64.2752C177.837 65.1367 177.846 66.2555 177.128 67.2183C176.558 67.9819 175.765 68.3094 175.298 68.4617C174.77 68.6338 174.2 68.7257 173.66 68.7796C171.567 68.9882 168.286 68.7617 164.545 68.3702C160.736 67.9716 156.191 67.3704 151.441 66.7421L151.318 66.7258C151.318 66.7258 151.318 66.7258 151.318 66.7258C150.646 66.6369 149.969 66.5474 149.29 66.4578L139.931 65.2243L148.673 61.6639C153.561 59.6735 156.869 57.5945 159.089 55.4588L160.316 54.2779ZM158.012 62.5596C159.21 61.8074 160.292 61.0269 161.266 60.2151C162.303 60.6911 163.359 61.1764 164.435 61.671C166.105 62.4388 167.517 63.1215 168.694 63.7259C167.619 63.6481 166.405 63.5376 165.065 63.3973C162.93 63.1739 160.551 62.8846 158.012 62.5596ZM173.739 63.7108C173.77 63.6981 173.776 63.6989 173.747 63.7084C173.745 63.7091 173.742 63.7099 173.739 63.7108Z" fill="#192E35"/>
<path fill-rule="evenodd" clip-rule="evenodd" d="M134.823 188.539C147.619 189.012 156.6 184.584 169.244 185.194C180.579 185.742 182.772 188.872 186.594 191.04C189.934 192.935 187.6 194.965 189.906 196.918C193.062 199.592 206.948 202.006 202.619 204.615C198.493 207.102 183.114 208.447 170.017 208.905C157.825 209.332 147.129 206.716 134.823 206.989C119.985 207.317 109.485 211.032 94.7367 210.572C80.8213 210.138 69.7213 207.445 65.2355 204.819C60.8466 202.249 71.6046 199.629 71.4167 196.918C71.2251 194.154 60.3652 191.556 64.1315 188.892C68.0785 186.101 77.2981 182.415 92.0272 182.342C110.044 182.252 117.11 187.885 134.823 188.539Z" fill="#F5FEDB"/>
<path d="M84.5788 73.3704C81.9215 77.8956 85.1778 105.494 146.198 96.2868C107.804 97.0236 84.5655 78.7159 126.83 70.3274C163.484 63.0527 167.675 53.571 165.792 39.374C163.392 21.2741 95.9575 37.9511 89.7584 33.9963C83.5592 30.0415 112.959 20.8925 122.168 10.0245C129.535 1.33014 100.263 1.81316 86.8178 3.46726C94.7492 5.6204 105.385 12.9751 84.4755 25.1688C58.3391 40.4109 71.3124 40.3159 125.287 44.0542C168.467 47.0448 92.1709 60.4412 84.5788 73.3704Z" fill="#F5FEDB"/>
<path d="M115.469 62.2319C110.85 63.9021 99.4352 80.7049 156.708 96.2152C123.277 83.5804 112.704 65.2676 153.409 74.8667C188.71 83.1914 197.203 79.2242 202.896 70.5099C210.154 59.4 143.512 45.9572 140.213 41.6004C136.913 37.2435 166.936 42.0361 180.462 38.9863C191.283 36.5465 165.836 26.869 153.409 23.2383C159.128 27.1594 164.494 34.9582 140.213 34.7839C109.861 34.5661 121.078 38.9229 165.616 59.4C201.247 75.7817 128.666 57.4602 115.469 62.2319Z" fill="#D8E2C8"/>
<path d="M227.457 95.2326C162.183 73.5187 117.638 68.2771 50.1826 82.3587C50.1826 82.3587 80.1851 193.635 133.471 196.754C186.678 199.869 227.457 95.2326 227.457 95.2326Z" fill="white"/>
<path fill-rule="evenodd" clip-rule="evenodd" d="M50.5925 82.6087C50.6506 82.8182 50.7361 83.1235 50.8488 83.5186C51.0811 84.3327 51.4289 85.5279 51.8906 87.0504C52.814 90.0956 54.1927 94.4502 56.0138 99.6859C59.6561 110.158 65.0663 124.151 72.1386 138.239C79.2122 152.329 87.9412 166.499 98.2162 177.337C108.493 188.177 120.286 195.653 133.491 196.426C146.677 197.198 159.123 191.295 170.393 181.952C181.663 172.61 191.728 159.853 200.142 146.981C208.554 134.113 215.307 121.144 219.957 111.392C222.282 106.516 224.081 102.445 225.299 99.5932C225.907 98.1675 226.371 97.0467 226.682 96.2827C226.831 95.9157 226.945 95.6311 227.024 95.4345C162.084 73.8641 117.675 68.6539 50.5925 82.6087ZM227.457 95.2322L227.764 95.3515L227.889 95.0295L227.561 94.9203C162.243 73.1916 117.637 67.941 50.1154 82.0365L49.7744 82.1077L49.865 82.4438L50.1826 82.3583C49.865 82.4438 49.8652 82.4443 49.8654 82.4452L49.8707 82.4646L49.8873 82.5256C49.902 82.5795 49.924 82.6597 49.9534 82.7654C50.012 82.9768 50.0997 83.2902 50.2163 83.6989C50.4495 84.5163 50.7983 85.7149 51.2611 87.2411C52.1867 90.2935 53.5681 94.6567 55.3924 99.9018C59.0408 110.391 64.4616 124.412 71.5507 138.534C78.6385 152.652 87.4014 166.886 97.7387 177.79C108.074 188.691 120.014 196.295 133.452 197.082C146.869 197.868 159.474 191.858 170.813 182.458C182.154 173.057 192.26 160.24 200.692 147.341C209.126 134.44 215.893 121.444 220.551 111.674C222.881 106.789 224.683 102.71 225.904 99.8513C226.514 98.4219 226.979 97.2977 227.291 96.5305C227.447 96.1468 227.565 95.8525 227.644 95.6538C227.684 95.5545 227.714 95.4791 227.734 95.4284L227.756 95.3711L227.762 95.3566L227.763 95.3529C227.764 95.352 227.764 95.3515 227.457 95.2322Z" fill="#192E35"/>
<path d="M91.6629 170.303C96.3431 155.251 89.118 136.528 72.8149 124.763C69.5849 122.433 66.1997 120.52 62.7456 119.021C69.6761 135.632 79.3874 155.055 91.6629 170.303Z" fill="#7C9AA0"/>
<path fill-rule="evenodd" clip-rule="evenodd" d="M91.3831 168.896C95.2207 154.387 88.122 136.62 72.4298 125.297C69.7132 123.336 66.8862 121.676 64.0016 120.312C70.7197 136.183 79.9111 154.347 91.3831 168.896ZM91.8903 169.535C96.0959 154.619 88.842 136.328 72.8149 124.763C69.8585 122.63 66.772 120.847 63.6217 119.411C63.3302 119.278 63.0382 119.148 62.7456 119.021C62.8679 119.315 62.9911 119.609 63.1152 119.904C69.9243 136.089 79.3396 154.799 91.1643 169.679C91.33 169.888 91.4962 170.096 91.6629 170.303C91.7421 170.048 91.8179 169.792 91.8903 169.535Z" fill="#192E35"/>
<path d="M211.613 128.424C203.301 130.698 195.096 135.522 188.301 142.722C178.258 153.364 173.58 166.774 174.579 178.728C189.711 164.796 202.439 145.156 211.613 128.424Z" fill="#7C9AA0"/>
<path fill-rule="evenodd" clip-rule="evenodd" d="M210.267 129.503C202.597 131.897 195.079 136.498 188.779 143.173C179.236 153.286 174.617 165.903 175.145 177.301C189.341 163.897 201.38 145.519 210.267 129.503ZM210.723 128.677C202.717 131.046 194.854 135.779 188.301 142.722C178.492 153.116 173.802 166.15 174.518 177.888C174.535 178.169 174.555 178.449 174.579 178.728C174.784 178.539 174.99 178.348 175.195 178.157C189.814 164.489 202.156 145.556 211.169 129.232C211.318 128.962 211.466 128.692 211.613 128.424C211.317 128.505 211.02 128.589 210.723 128.677Z" fill="#192E35"/>
<path d="M191.08 100.225C200.033 81.0072 224.079 93.8934 227.682 100.308L221.833 111.454L211.652 130.12C207.481 131.057 183.461 116.579 191.08 100.225Z" fill="#CED4DA"/>
<path d="M194.533 100.131C202.542 82.708 226.655 91.5762 229.53 97.2299L224.27 109.393L214.078 131.419C210.544 132.36 187.718 114.958 194.533 100.131Z" fill="#D2F1F8"/>
<path fill-rule="evenodd" clip-rule="evenodd" d="M227.733 94.7581C228.701 95.5217 229.433 96.3136 229.823 97.0804L229.893 97.2181L224.568 109.531L214.312 131.697L214.163 131.736C213.868 131.815 213.511 131.79 213.131 131.706C212.743 131.621 212.299 131.466 211.813 131.254C210.839 130.828 209.665 130.156 208.389 129.283C205.836 127.537 202.844 124.968 200.177 121.903C194.865 115.8 190.739 107.597 194.234 99.9935C198.318 91.1087 206.518 88.9449 213.99 89.6991C217.725 90.0761 221.296 91.1815 224.119 92.5516C225.53 93.2368 226.76 93.9909 227.733 94.7581ZM213.924 90.3533C206.617 89.6158 198.757 91.7295 194.832 100.268C191.512 107.491 195.392 115.403 200.673 121.472C203.302 124.493 206.253 127.025 208.761 128.741C210.015 129.599 211.152 130.247 212.076 130.651C212.538 130.853 212.94 130.991 213.272 131.064C213.518 131.118 213.71 131.134 213.852 131.123L223.97 109.259L229.165 97.2447C228.818 96.6329 228.194 95.9594 227.326 95.2742C226.398 94.5423 225.21 93.8121 223.831 93.1431C221.074 91.8048 217.577 90.7221 213.924 90.3533Z" fill="#192E35"/>
<path fill-rule="evenodd" clip-rule="evenodd" d="M217.847 96.0036C216.326 95.4621 214.637 95.0439 212.892 94.8382L212.97 94.1853C214.767 94.3972 216.504 94.8275 218.068 95.3843L217.847 96.0036ZM223.942 99.9154C223.651 99.4207 223.113 98.8666 222.353 98.3039L222.745 97.7758C223.608 98.4155 224.266 99.0914 224.601 99.7496L224.671 99.8873L223.618 102.321L223.014 102.06L223.942 99.9154ZM207.828 94.9104C206.169 95.1797 204.564 95.7176 203.106 96.5973L202.766 96.0345C204.306 95.1052 205.993 94.5422 207.723 94.2615L207.828 94.9104ZM220.041 108.93L221.031 106.643L221.635 106.904L220.64 109.203L219.68 111.277L219.083 111.001L220.041 108.93ZM199.475 100.03C199.018 100.688 198.6 101.417 198.228 102.226C197.871 103.004 197.625 103.791 197.478 104.582L196.831 104.462C196.988 103.618 197.25 102.779 197.631 101.951C198.018 101.109 198.455 100.346 198.934 99.6551L199.475 100.03ZM215.241 119.3L217.162 115.151L217.759 115.427L215.838 119.577L215.241 119.3ZM197.712 109.508C198.119 111.08 198.812 112.628 199.689 114.108L199.123 114.443C198.222 112.923 197.501 111.317 197.075 109.673L197.712 109.508ZM202.674 118.182C203.835 119.508 205.078 120.709 206.287 121.732L205.862 122.234C204.63 121.191 203.363 119.968 202.179 118.614L202.674 118.182ZM212.435 125.362L213.32 123.45L213.917 123.726L212.892 125.941L212.742 125.98C212.425 126.065 212.024 126.003 211.603 125.872C211.169 125.738 210.66 125.513 210.102 125.214L210.414 124.634C210.949 124.922 211.417 125.126 211.798 125.244C212.081 125.332 212.291 125.364 212.435 125.362Z" fill="#192E35"/>
<path d="M80.3834 97.7697C77.9657 76.8603 55.4395 80.1194 50.5117 85.0385L62.6798 118.897L63.6666 119.883C67.0336 122.069 82.4409 115.563 80.3834 97.7697Z" fill="#CED4DA"/>
<path d="M78.8511 98.0421C76.6486 78.9944 50.8484 79.9195 46.3594 84.4006L52.6078 103.795L58.8563 120.231C61.9234 122.223 80.7254 114.251 78.8511 98.0421Z" fill="#D2F1F8"/>
<path fill-rule="evenodd" clip-rule="evenodd" d="M48.8412 82.6099C47.6805 83.0346 46.7363 83.5597 46.1273 84.1677L45.985 84.3097L52.2976 103.904L58.5873 120.448L58.6774 120.507C59.1536 120.816 59.8738 120.902 60.6973 120.842C61.536 120.78 62.5423 120.561 63.6422 120.195C65.8432 119.463 68.4554 118.128 70.909 116.221C75.8156 112.406 80.1327 106.259 79.1782 98.0039C78.0549 88.2901 70.8998 83.6836 63.5331 82.0765C59.8502 81.2731 56.0967 81.2128 52.9763 81.6369C51.4158 81.8491 50.0073 82.1832 48.8412 82.6099ZM63.3928 82.7189C70.5992 84.2909 77.4454 88.7456 78.5247 98.0795C79.4444 106.033 75.2977 111.976 70.5051 115.702C68.1091 117.565 65.5628 118.863 63.4344 119.572C62.3696 119.926 61.4185 120.13 60.6491 120.186C59.9372 120.239 59.4279 120.161 59.1226 120.005L52.9185 103.686L46.7364 84.4972C47.2572 84.0352 48.0485 83.6001 49.0674 83.2273C50.18 82.8201 51.5409 82.4956 53.0649 82.2884C56.1134 81.874 59.7893 81.9327 63.3928 82.7189Z" fill="#192E35"/>
<path fill-rule="evenodd" clip-rule="evenodd" d="M57.8908 86.7876C59.505 86.7457 61.2416 86.8728 62.9647 87.2178L63.0938 86.5731C61.3191 86.2179 59.5332 86.0873 57.8738 86.1304L57.8908 86.7876ZM50.9121 88.5758C51.3433 88.208 52.0149 87.8604 52.8891 87.5702L52.6817 86.9462C51.6607 87.2852 50.8245 87.7228 50.3022 88.2441L50.1599 88.3861L51.3961 92.2228L52.0222 92.0212L50.9121 88.5758ZM67.7611 88.8524C69.258 89.621 70.6202 90.6273 71.7353 91.9116L72.2321 91.4807C71.0541 90.124 69.6217 89.0686 68.0616 88.2676L67.7611 88.8524ZM74.1319 96.2969C74.3628 97.0636 74.5338 97.8872 74.636 98.771C74.7608 99.8501 74.7609 100.878 74.6566 101.854L75.3107 101.924C75.4202 100.899 75.4198 99.8223 75.2894 98.6955C75.1829 97.7747 75.0044 96.913 74.7617 96.1074L74.1319 96.2969ZM55.5431 102.949L54.3712 99.3119L53.7451 99.5134L54.9222 103.167L56.0997 106.264L56.7146 106.03L55.5431 102.949ZM72.6207 107.622C71.4782 109.432 69.9794 110.939 68.4024 112.126L68.7983 112.651C70.4269 111.425 71.9846 109.862 73.177 107.973L72.6207 107.622ZM60.1956 115.186L59.0637 112.209L58.4488 112.442L59.6615 115.632L59.7516 115.691C60.0998 115.917 60.5985 115.988 61.1487 115.966C61.7107 115.943 62.3784 115.82 63.1083 115.605L62.9228 114.975C62.2276 115.179 61.615 115.289 61.1219 115.309C60.6897 115.326 60.3848 115.273 60.1956 115.186Z" fill="#192E35"/>
<path d="M98.082 71.7458L98.0929 71.7413C99.3738 70.9039 100.807 70.2848 102.338 69.9339C108.366 67.5548 118.451 65.1759 144.782 69.0538C156.434 70.7698 163.385 71.809 167.344 72.6796C174.124 73.5101 179.211 79.4494 178.87 86.3772L173.966 185.8C173.764 189.887 171.716 193.447 168.667 195.711C168.212 196.098 167.583 196.498 166.759 196.891C166.036 197.257 165.275 197.558 164.485 197.786C158.098 199.885 145.129 201.349 122.313 198.972C107.553 197.435 100.356 196.174 97.2095 194.938C91.2251 193.458 86.9279 187.912 87.2428 181.527L92.1464 82.1044C92.3619 77.7366 94.6861 73.9719 98.0859 71.746L98.082 71.7458Z" fill="#D2F1F8"/>
<path fill-rule="evenodd" clip-rule="evenodd" d="M102.24 69.6187C108.345 67.2136 118.502 64.8507 144.83 68.7282C156.46 70.441 163.424 71.4817 167.4 72.3548C174.342 73.2133 179.548 79.2972 179.198 86.393L174.295 185.815C174.088 190.001 171.992 193.647 168.872 195.968C168.391 196.376 167.739 196.787 166.904 197.185C166.166 197.559 165.389 197.866 164.583 198.1C158.128 200.219 145.105 201.677 122.279 199.299C114.897 198.53 109.4 197.83 105.353 197.166C101.329 196.506 98.7193 195.88 97.1098 195.251C90.9866 193.727 86.5921 188.048 86.9146 181.51L91.8182 82.0878C92.039 77.6106 94.4219 73.7517 97.906 71.4706L97.9839 71.5896L97.9803 71.5685L97.9132 71.4659C99.2192 70.612 100.68 69.9794 102.24 69.6187ZM98.2664 72.0206C94.9508 74.1914 92.6852 77.8618 92.4752 82.1202L87.5716 181.543C87.2645 187.768 91.4541 193.176 97.2888 194.618L97.3099 194.623L97.3302 194.631C98.869 195.236 101.426 195.856 105.46 196.517C109.488 197.178 114.97 197.877 122.347 198.645C145.147 201.02 158.061 199.551 164.383 197.473L164.389 197.472L164.394 197.47C165.164 197.247 165.906 196.954 166.611 196.597L166.618 196.594L166.618 196.594C167.423 196.209 168.027 195.824 168.454 195.46L168.462 195.453L168.471 195.447C171.444 193.239 173.441 189.768 173.638 185.783L178.541 86.3607C178.875 79.6062 173.915 73.8152 167.304 73.0055L167.289 73.0036L167.273 73.0002C163.329 72.1328 156.393 71.0956 144.734 69.3786C118.434 65.5053 108.414 67.8892 102.459 70.2392L102.436 70.2484L102.411 70.2539C100.92 70.5959 99.5222 71.1995 98.2733 72.0161L98.2664 72.0206Z" fill="#192E35"/>
<path fill-rule="evenodd" clip-rule="evenodd" d="M112.221 73.7965C113.645 73.5556 115.246 73.3607 117.065 73.233L117.111 73.8889C115.312 74.0152 113.732 74.2076 112.331 74.4447L112.221 73.7965ZM121.93 73.0662C123.431 73.0627 125.049 73.0984 126.798 73.1802L126.768 73.837C125.028 73.7556 123.421 73.7201 121.931 73.7236L121.93 73.0662ZM105.186 75.732C105.88 75.4588 106.633 75.1854 107.468 74.9234L107.665 75.5507C106.838 75.8101 106.093 76.0812 105.405 76.3526L105.382 76.3617L105.357 76.3673C105.025 76.4435 104.697 76.5342 104.376 76.6387L104.172 76.0135C104.504 75.9056 104.843 75.8115 105.186 75.732ZM131.645 73.5007C133.168 73.6285 134.775 73.7869 136.471 73.9788L136.397 74.6321C134.707 74.4408 133.106 74.2831 131.59 74.1559L131.645 73.5007ZM101.267 77.4057C101.567 77.2096 101.876 77.0263 102.193 76.8567L102.503 77.4364C102.203 77.5969 101.911 77.7703 101.627 77.9559L101.621 77.9599C100.859 78.4583 100.16 79.0444 99.536 79.7047L99.0576 79.2535C99.7164 78.5559 100.456 77.9366 101.26 77.41L101.339 77.5298L101.335 77.5106L101.267 77.4057ZM101.424 77.646L101.437 77.6785L101.438 77.667L101.424 77.646ZM101.439 77.6682L101.438 77.6804L101.439 77.6828L101.44 77.6837L101.44 77.6716L101.439 77.6692L101.439 77.6682ZM141.294 74.5838C142.08 74.6914 142.882 74.8054 143.701 74.926C144.583 75.0559 145.435 75.1816 146.259 75.3031L146.163 75.9535C145.339 75.832 144.487 75.7064 143.605 75.5765C142.788 75.4561 141.988 75.3424 141.205 75.2352L141.294 74.5838ZM151.368 76.0629C153.261 76.3473 154.957 76.6066 156.474 76.8463L156.371 77.4957C154.857 77.2564 153.162 76.9973 151.27 76.7131L151.368 76.0629ZM164.104 78.2046C163.376 78.0445 162.537 77.8786 161.577 77.7029L161.459 78.3496C162.42 78.5256 163.256 78.6911 163.978 78.85L163.993 78.8533L164.009 78.8552C164.737 78.9444 165.443 79.1006 166.12 79.3171L166.32 78.6908C165.609 78.4635 164.868 78.2991 164.104 78.2046ZM95.7427 87.0327C95.791 86.0522 95.9539 85.104 96.2178 84.2006L96.8492 84.3848C96.5996 85.2392 96.4455 86.1364 96.3997 87.0651L96.2765 89.5616L95.6195 89.5293L95.7427 87.0327ZM170.317 80.8612C171.498 81.8263 172.493 83.0068 173.245 84.3393L172.671 84.662C171.961 83.401 171.019 82.2837 169.9 81.3702L170.317 80.8612ZM95.127 99.5156L95.3733 94.5224L96.0303 94.5548L95.784 99.548L95.127 99.5156ZM174.698 88.647C174.8 89.3897 174.835 90.1522 174.797 90.9277L174.673 93.4242L174.016 93.3919L174.14 90.8953C174.176 90.1607 174.143 89.4391 174.046 88.7367L174.698 88.647ZM94.6345 109.502L94.8807 104.509L95.5377 104.541L95.2915 109.534L94.6345 109.502ZM174.427 98.4174L174.181 103.411L173.524 103.378L173.77 98.385L174.427 98.4174ZM94.1419 119.488L94.3882 114.495L95.0452 114.527L94.7989 119.521L94.1419 119.488ZM173.935 108.404L173.688 113.397L173.031 113.365L173.278 108.371L173.935 108.404ZM93.6494 129.475L93.8957 124.481L94.5527 124.514L94.3064 129.507L93.6494 129.475ZM173.442 118.39L173.196 123.383L172.539 123.351L172.785 118.358L173.442 118.39ZM93.1569 139.461L93.4031 134.468L94.0601 134.5L93.8138 139.493L93.1569 139.461ZM172.95 128.376L172.703 133.37L172.046 133.337L172.293 128.344L172.95 128.376ZM92.6643 149.447L92.9106 144.454L93.5676 144.486L93.3213 149.48L92.6643 149.447ZM172.457 138.363L172.211 143.356L171.554 143.324L171.8 138.33L172.457 138.363ZM92.1718 159.434L92.4181 154.44L93.075 154.473L92.8288 159.466L92.1718 159.434ZM171.964 148.349L171.718 153.342L171.061 153.31L171.308 148.317L171.964 148.349ZM91.6792 169.42L91.9255 164.427L92.5825 164.459L92.3362 169.452L91.6792 169.42ZM171.472 158.335L171.226 163.329L170.569 163.296L170.815 158.303L171.472 158.335ZM91.3098 176.91L91.433 174.413L92.09 174.445L91.9668 176.942C91.9336 177.617 91.9588 178.28 92.0381 178.928L91.3851 179.008C91.3014 178.323 91.2747 177.622 91.3098 176.91ZM170.979 168.322L170.733 173.315L170.076 173.283L170.322 168.289L170.979 168.322ZM95.0991 186.368C94.0845 185.403 93.2371 184.268 92.6016 183.011L93.1887 182.714C93.79 183.904 94.592 184.978 95.5524 185.891L95.0991 186.368ZM170.487 178.308L170.364 180.805C170.318 181.722 170.173 182.611 169.938 183.462L169.304 183.287C169.526 182.483 169.664 181.641 169.707 180.772L169.83 178.276L170.487 178.308ZM100.548 189.363C99.8671 189.193 99.2097 188.967 98.5809 188.689L98.8466 188.088C99.4475 188.353 100.076 188.569 100.727 188.73L100.748 188.735L100.769 188.743C101.437 189.006 102.324 189.274 103.479 189.548L103.326 190.188C102.166 189.912 101.254 189.639 100.548 189.363ZM114.718 192.048C112.553 191.776 110.659 191.512 109.006 191.255L109.108 190.605C110.752 190.861 112.639 191.124 114.801 191.396L114.718 192.048ZM165.45 190.006C166.169 189.471 166.828 188.858 167.414 188.18L166.916 187.75C166.359 188.395 165.733 188.977 165.049 189.484L165.04 189.491L165.032 189.498C164.92 189.593 164.794 189.691 164.654 189.789L165.032 190.327C165.184 190.22 165.323 190.113 165.45 190.006ZM123.307 193.024C122.314 192.92 121.358 192.818 120.439 192.717L120.511 192.064C121.429 192.164 122.383 192.266 123.376 192.37C124.185 192.454 124.981 192.533 125.763 192.607L125.701 193.261C124.917 193.187 124.119 193.108 123.307 193.024ZM135.28 193.951C133.749 193.879 132.151 193.783 130.483 193.662L130.531 193.006C132.193 193.127 133.786 193.222 135.311 193.295L135.28 193.951ZM164.129 190.876C163.982 190.954 163.828 191.032 163.665 191.11C163.498 191.195 163.328 191.276 163.156 191.353L162.886 190.753C163.05 190.679 163.212 190.602 163.372 190.521L163.378 190.518L163.379 190.518C163.534 190.444 163.681 190.37 163.82 190.296L164.129 190.876ZM161.562 191.938C161.742 191.886 161.921 191.83 162.099 191.769L161.886 191.147C161.717 191.205 161.546 191.258 161.373 191.308L161.368 191.31L161.362 191.312C160.688 191.533 159.93 191.747 159.083 191.949L159.236 192.589C160.096 192.384 160.87 192.165 161.562 191.938ZM144.89 194.109C143.38 194.138 141.778 194.139 140.079 194.109L140.09 193.452C141.782 193.482 143.376 193.48 144.877 193.452L144.89 194.109ZM154.486 193.443C153.043 193.634 151.449 193.792 149.695 193.909L149.652 193.253C151.392 193.137 152.972 192.98 154.4 192.791L154.486 193.443Z" fill="#192E35"/>
<path fill-rule="evenodd" clip-rule="evenodd" d="M158.782 183.276C161.231 181.141 163.262 177.261 163.652 171.143L164.309 171.184C163.91 177.426 161.83 181.491 159.214 183.771C156.6 186.05 153.464 186.53 151.037 185.606L151.271 184.991C153.448 185.82 156.331 185.413 158.782 183.276Z" fill="#192E35"/>
<path fill-rule="evenodd" clip-rule="evenodd" d="M108.663 82.8804C106.214 85.0155 104.183 88.895 103.792 95.0137L103.135 94.9718C103.534 88.7304 105.614 84.6657 108.23 82.385C110.844 80.1058 113.98 79.6261 116.408 80.5504L116.174 81.1648C113.997 80.3359 111.113 80.7437 108.663 82.8804Z" fill="#192E35"/>
<path fill-rule="evenodd" clip-rule="evenodd" d="M134.028 100.785C140.603 97.7836 150.019 96.4942 156.09 96.5444L156.085 97.2018C150.074 97.1522 140.762 98.4339 134.301 101.383C131.064 102.86 128.607 104.727 127.591 106.992C126.593 109.219 126.947 111.932 129.569 115.226C131.2 117.274 132.875 119.198 134.494 121.055C135.057 121.702 135.614 122.341 136.159 122.975C138.266 125.422 140.204 127.787 141.691 130.186C143.179 132.587 144.224 135.037 144.536 137.658C144.847 140.283 144.42 143.057 142.997 146.099C139.81 152.917 133.728 156.654 127.465 158.561C121.204 160.468 114.724 160.558 110.659 160.055L110.74 159.402C114.73 159.897 121.115 159.807 127.273 157.933C133.429 156.058 139.32 152.413 142.402 145.821C143.778 142.878 144.178 140.226 143.882 137.735C143.586 135.24 142.588 132.882 141.131 130.532C139.674 128.18 137.766 125.849 135.661 123.404C135.121 122.776 134.567 122.141 134.005 121.496C132.385 119.635 130.695 117.696 129.054 115.635C126.337 112.222 125.859 109.248 126.991 106.723C128.107 104.235 130.746 102.282 134.028 100.785Z" fill="#192E35"/>
</svg>
