<svg width="276" height="187" viewBox="0 0 276 187" fill="none" xmlns="http://www.w3.org/2000/svg">
<path d="M262.954 187L115.081 186.949L40.7725 186.923L36.6355 186.92L21.7068 186.918C21.7068 186.918 0.381795 169.582 0.0123887 145.075C-0.715534 96.7846 30.893 118.536 26.5988 60.3361C22.6804 7.22905 125.059 -21.4082 180.65 19.165C200.861 33.9162 202.446 44.2624 231.489 40.9913C264.273 37.2992 268.009 77.1426 256.535 99.2292C240.253 130.567 301.681 125.419 262.954 187Z" fill="#F7F0FF"/>
<mask id="mask0_4951_25476" style="mask-type:alpha" maskUnits="userSpaceOnUse" x="0" y="0" width="276" height="187">
<path d="M262.954 187L115.081 186.949L40.7725 186.923L36.6355 186.92L21.7068 186.918C21.7068 186.918 0.381795 169.582 0.0123887 145.075C-0.715534 96.7846 30.893 118.536 26.5988 60.3361C22.6804 7.22905 125.059 -21.4082 180.65 19.165C200.861 33.9162 202.446 44.2624 231.489 40.9913C264.273 37.2992 268.009 77.1426 256.535 99.2292C240.253 130.567 301.681 125.419 262.954 187Z" fill="#CEF7F3"/>
</mask>
<g mask="url(#mask0_4951_25476)">
<path d="M69.0001 104.125C45.3384 99.566 7.96161 113.156 7.96161 113.156H-5.30762V187H279.185V154.062C279.185 154.062 234.394 131.689 203.285 128.562C172.536 125.471 154.7 145.672 124.731 138.125C100.013 131.899 94.0291 108.947 69.0001 104.125Z" fill="#F1E6FF"/>
</g>
<path fill-rule="evenodd" clip-rule="evenodd" d="M57 29H219V158.6H57V29ZM60.8571 32.8571V154.743H215.143V32.8571H60.8571Z" fill="#192E35"/>
<rect x="60.8569" y="32.8574" width="154.286" height="121.886" fill="white"/>
<rect x="69.3213" y="39.7783" width="137.357" height="108.043" stroke="#192E35" stroke-width="1.5" stroke-dasharray="10 10"/>
<path d="M104.703 61.3299V71.4286H102.874V63.11H102.815L100.453 64.6189V62.9423L102.963 61.3299H104.703Z" fill="#192E35"/>
<path d="M111 71.6209C110.188 71.6209 109.491 71.4154 108.909 71.0045C108.331 70.5903 107.885 69.9937 107.573 69.2146C107.264 68.4322 107.109 67.4904 107.109 66.3891C107.113 65.2878 107.269 64.351 107.578 63.5784C107.89 62.8026 108.336 62.2109 108.914 61.8033C109.496 61.3956 110.191 61.1918 111 61.1918C111.809 61.1918 112.504 61.3956 113.086 61.8033C113.668 62.2109 114.113 62.8026 114.422 63.5784C114.734 64.3542 114.891 65.2911 114.891 66.3891C114.891 67.4937 114.734 68.4371 114.422 69.2195C114.113 69.9986 113.668 70.5936 113.086 71.0045C112.507 71.4154 111.812 71.6209 111 71.6209ZM111 70.0775C111.631 70.0775 112.129 69.7668 112.494 69.1455C112.862 68.5209 113.046 67.6021 113.046 66.3891C113.046 65.587 112.963 64.9131 112.795 64.3674C112.627 63.8217 112.391 63.4108 112.085 63.1346C111.779 62.8552 111.418 62.7155 111 62.7155C110.372 62.7155 109.876 63.0278 109.511 63.6524C109.146 64.2737 108.962 65.1859 108.959 66.3891C108.955 67.1945 109.036 67.8717 109.2 68.4207C109.368 68.9697 109.605 69.3839 109.91 69.6633C110.216 69.9394 110.579 70.0775 111 70.0775Z" fill="#192E35"/>
<path d="M120.262 71.6209C119.45 71.6209 118.753 71.4154 118.171 71.0045C117.592 70.5903 117.147 69.9937 116.835 69.2146C116.526 68.4322 116.371 67.4904 116.371 66.3891C116.374 65.2878 116.531 64.351 116.84 63.5784C117.152 62.8026 117.597 62.2109 118.176 61.8033C118.758 61.3956 119.453 61.1918 120.262 61.1918C121.07 61.1918 121.766 61.3956 122.348 61.8033C122.929 62.2109 123.375 62.8026 123.684 63.5784C123.996 64.3542 124.152 65.2911 124.152 66.3891C124.152 67.4937 123.996 68.4371 123.684 69.2195C123.375 69.9986 122.929 70.5936 122.348 71.0045C121.769 71.4154 121.074 71.6209 120.262 71.6209ZM120.262 70.0775C120.893 70.0775 121.391 69.7668 121.756 69.1455C122.124 68.5209 122.308 67.6021 122.308 66.3891C122.308 65.587 122.224 64.9131 122.057 64.3674C121.889 63.8217 121.652 63.4108 121.347 63.1346C121.041 62.8552 120.679 62.7155 120.262 62.7155C119.634 62.7155 119.137 63.0278 118.773 63.6524C118.408 64.2737 118.224 65.1859 118.22 66.3891C118.217 67.1945 118.298 67.8717 118.462 68.4207C118.63 68.9697 118.866 69.3839 119.172 69.6633C119.478 69.9394 119.841 70.0775 120.262 70.0775Z" fill="#192E35"/>
<path d="M131.19 69.5351V69.0025C131.19 68.6113 131.272 68.2514 131.437 67.9227C131.604 67.5939 131.848 67.3293 132.166 67.1288C132.485 66.9282 132.872 66.828 133.325 66.828C133.792 66.828 134.183 66.9282 134.499 67.1288C134.814 67.326 135.053 67.589 135.214 67.9177C135.378 68.2465 135.46 68.6081 135.46 69.0025V69.5351C135.46 69.9263 135.378 70.2862 135.214 70.615C135.049 70.9437 134.808 71.2083 134.489 71.4089C134.173 71.6094 133.785 71.7097 133.325 71.7097C132.865 71.7097 132.475 71.6094 132.157 71.4089C131.838 71.2083 131.596 70.9437 131.432 70.615C131.271 70.2862 131.19 69.9263 131.19 69.5351ZM132.477 69.0025V69.5351C132.477 69.7948 132.54 70.0331 132.664 70.2501C132.789 70.4671 133.01 70.5755 133.325 70.5755C133.644 70.5755 133.863 70.4687 133.981 70.255C134.103 70.0381 134.163 69.7981 134.163 69.5351V69.0025C134.163 68.7396 134.106 68.4996 133.991 68.2826C133.876 68.0624 133.654 67.9522 133.325 67.9522C133.016 67.9522 132.798 68.0624 132.669 68.2826C132.541 68.4996 132.477 68.7396 132.477 69.0025ZM126.057 63.756V63.2234C126.057 62.8289 126.141 62.4673 126.308 62.1386C126.476 61.8098 126.719 61.5469 127.038 61.3496C127.357 61.1491 127.743 61.0488 128.197 61.0488C128.66 61.0488 129.05 61.1491 129.366 61.3496C129.684 61.5469 129.924 61.8098 130.086 62.1386C130.247 62.4673 130.327 62.8289 130.327 63.2234V63.756C130.327 64.1504 130.245 64.512 130.081 64.8408C129.92 65.1662 129.68 65.4276 129.361 65.6248C129.042 65.822 128.654 65.9207 128.197 65.9207C127.733 65.9207 127.342 65.822 127.023 65.6248C126.708 65.4276 126.468 65.1646 126.303 64.8358C126.139 64.5071 126.057 64.1471 126.057 63.756ZM127.354 63.2234V63.756C127.354 64.0189 127.415 64.2589 127.536 64.4759C127.661 64.6896 127.881 64.7964 128.197 64.7964C128.513 64.7964 128.729 64.6896 128.848 64.4759C128.969 64.2589 129.03 64.0189 129.03 63.756V63.2234C129.03 62.9604 128.973 62.7204 128.858 62.5035C128.743 62.2832 128.522 62.1731 128.197 62.1731C127.885 62.1731 127.666 62.2832 127.541 62.5035C127.416 62.7237 127.354 62.9637 127.354 63.2234ZM126.619 71.4286L133.562 61.3299H134.795L127.852 71.4286H126.619Z" fill="#192E35"/>
<path d="M146.538 64.1061C146.492 63.6754 146.298 63.3401 145.956 63.1001C145.617 62.8602 145.177 62.7402 144.634 62.7402C144.253 62.7402 143.926 62.7977 143.653 62.9127C143.38 63.0278 143.172 63.184 143.027 63.3812C142.882 63.5784 142.808 63.8036 142.805 64.0567C142.805 64.2671 142.853 64.4496 142.948 64.6041C143.047 64.7586 143.18 64.8901 143.347 64.9986C143.515 65.1038 143.701 65.1925 143.905 65.2648C144.108 65.3372 144.314 65.398 144.521 65.4473L145.468 65.684C145.849 65.7727 146.216 65.8927 146.567 66.0439C146.922 66.1952 147.24 66.3858 147.519 66.6159C147.802 66.846 148.025 67.1238 148.19 67.4493C148.354 67.7747 148.436 68.1561 148.436 68.5933C148.436 69.185 148.285 69.706 147.983 70.1564C147.68 70.6035 147.243 70.9536 146.671 71.2067C146.102 71.4565 145.414 71.5815 144.605 71.5815C143.819 71.5815 143.137 71.4598 142.559 71.2166C141.983 70.9733 141.533 70.6183 141.207 70.1515C140.885 69.6847 140.711 69.116 140.685 68.4453H142.485C142.511 68.7971 142.619 69.0897 142.81 69.3231C143.001 69.5565 143.249 69.7307 143.555 69.8457C143.864 69.9608 144.209 70.0183 144.59 70.0183C144.988 70.0183 145.336 69.9592 145.635 69.8408C145.938 69.7192 146.175 69.5515 146.346 69.3379C146.516 69.1209 146.604 68.8678 146.607 68.5785C146.604 68.3155 146.526 68.0985 146.375 67.9276C146.224 67.7534 146.012 67.6087 145.739 67.4937C145.469 67.3753 145.154 67.2701 144.792 67.1781L143.643 66.8822C142.812 66.6685 142.154 66.3447 141.671 65.9108C141.191 65.4736 140.951 64.8934 140.951 64.1702C140.951 63.5751 141.112 63.0541 141.434 62.607C141.76 62.1599 142.202 61.8131 142.761 61.5666C143.32 61.3167 143.952 61.1918 144.659 61.1918C145.376 61.1918 146.004 61.3167 146.543 61.5666C147.085 61.8131 147.511 62.1567 147.82 62.5972C148.129 63.0344 148.288 63.5373 148.298 64.1061H146.538Z" fill="#192E35"/>
<path d="M150.067 71.4286V61.3299H156.635V62.8634H151.897V65.6051H156.295V67.1386H151.897V69.8951H156.675V71.4286H150.067Z" fill="#192E35"/>
<path d="M161.924 71.4286H158.502V61.3299H161.993C162.995 61.3299 163.857 61.5321 164.577 61.9364C165.3 62.3375 165.855 62.9144 166.243 63.6672C166.631 64.42 166.825 65.3207 166.825 66.3694C166.825 67.4213 166.63 68.3253 166.238 69.0814C165.851 69.8375 165.29 70.4177 164.557 70.8221C163.827 71.2264 162.949 71.4286 161.924 71.4286ZM160.331 69.8457H161.835C162.539 69.8457 163.125 69.7175 163.595 69.4611C164.065 69.2014 164.419 68.8152 164.656 68.3023C164.892 67.7862 165.011 67.1419 165.011 66.3694C165.011 65.5969 164.892 64.9558 164.656 64.4463C164.419 63.9335 164.069 63.5505 163.605 63.2974C163.145 63.041 162.573 62.9127 161.889 62.9127H160.331V69.8457Z" fill="#192E35"/>
<path d="M169.318 71.4286H167.365L170.92 61.3299H173.179L176.739 71.4286H174.786L172.089 63.4009H172.01L169.318 71.4286ZM169.382 67.469H174.707V68.9384H169.382V67.469Z" fill="#192E35"/>
<path fill-rule="evenodd" clip-rule="evenodd" d="M195.857 104.6H175.8V124.658H195.857V104.6ZM174.257 103.058V126.2H197.4V103.058H174.257Z" fill="#192E35"/>
<path fill-rule="evenodd" clip-rule="evenodd" d="M185.829 124.658C191.367 124.658 195.857 120.168 195.857 114.629C195.857 109.09 191.367 104.6 185.829 104.6C180.29 104.6 175.8 109.09 175.8 114.629C175.8 120.168 180.29 124.658 185.829 124.658ZM185.829 126.2C192.219 126.2 197.4 121.02 197.4 114.629C197.4 108.238 192.219 103.058 185.829 103.058C179.438 103.058 174.257 108.238 174.257 114.629C174.257 121.02 179.438 126.2 185.829 126.2Z" fill="#192E35"/>
<path fill-rule="evenodd" clip-rule="evenodd" d="M174.729 125.967C174.428 125.666 174.428 125.178 174.729 124.876L195.558 104.048C195.859 103.747 196.347 103.747 196.649 104.048C196.95 104.349 196.95 104.838 196.649 105.139L175.82 125.967C175.519 126.269 175.03 126.269 174.729 125.967Z" fill="#192E35"/>
<path fill-rule="evenodd" clip-rule="evenodd" d="M174.729 103.276C175.03 102.975 175.519 102.975 175.82 103.276L196.648 124.105C196.95 124.406 196.95 124.894 196.648 125.195C196.347 125.497 195.859 125.497 195.558 125.195L174.729 104.367C174.428 104.066 174.428 103.577 174.729 103.276Z" fill="#192E35"/>
<path fill-rule="evenodd" clip-rule="evenodd" d="M154.971 123.115C160.084 123.115 164.229 118.97 164.229 113.858C164.229 108.745 160.084 104.6 154.971 104.6C149.859 104.6 145.714 108.745 145.714 113.858C145.714 118.97 149.859 123.115 154.971 123.115ZM154.971 124.658C160.936 124.658 165.771 119.822 165.771 113.858C165.771 107.893 160.936 103.058 154.971 103.058C149.007 103.058 144.171 107.893 144.171 113.858C144.171 119.822 149.007 124.658 154.971 124.658Z" fill="#192E35"/>
<path d="M151.114 120.029V108.458H155.488C156.384 108.458 157.136 108.624 157.743 108.955C158.355 109.287 158.816 109.742 159.127 110.323C159.442 110.899 159.6 111.554 159.6 112.289C159.6 113.031 159.442 113.69 159.127 114.266C158.812 114.843 158.347 115.297 157.732 115.628C157.117 115.956 156.359 116.12 155.46 116.12H152.561V114.396H155.175C155.699 114.396 156.128 114.306 156.462 114.125C156.796 113.944 157.043 113.696 157.202 113.379C157.366 113.063 157.447 112.699 157.447 112.289C157.447 111.878 157.366 111.517 157.202 111.204C157.043 110.891 156.794 110.648 156.456 110.475C156.122 110.298 155.691 110.21 155.163 110.21H153.227V120.029H151.114Z" fill="#192E35"/>
<path fill-rule="evenodd" clip-rule="evenodd" d="M166.543 126.2H143.4V124.657H166.543V126.2Z" fill="#192E35"/>
<path fill-rule="evenodd" clip-rule="evenodd" d="M129.321 105.371H115.676V103.828H130.507L133.735 115.964L136.714 126.2H111.884L111.829 125.488L112.598 125.428C111.829 125.488 111.829 125.489 111.829 125.488L111.829 125.485L111.828 125.479L111.826 125.457C111.825 125.437 111.823 125.41 111.821 125.374C111.816 125.302 111.81 125.199 111.804 125.068C111.791 124.806 111.777 124.435 111.773 123.989C111.764 123.101 111.793 121.907 111.946 120.702C112.098 119.513 112.378 118.244 112.912 117.252C113.455 116.243 114.337 115.4 115.676 115.4L131.989 115.4L129.321 105.371ZM132.413 116.942L115.676 116.942C115.115 116.942 114.662 117.256 114.271 117.983C113.871 118.726 113.62 119.772 113.477 120.897C113.335 122.007 113.307 123.126 113.316 123.974C113.318 124.231 113.324 124.461 113.331 124.657H134.658L132.413 116.942Z" fill="#192E35"/>
<path d="M126.484 120.8C126.484 122.078 125.447 123.114 124.169 123.114C122.891 123.114 121.855 122.078 121.855 120.8C121.855 119.521 122.891 118.485 124.169 118.485C125.447 118.485 126.484 119.521 126.484 120.8Z" fill="#192E35"/>
<path fill-rule="evenodd" clip-rule="evenodd" d="M91.3286 103.058L77.8286 125.784H104.829L91.3286 103.058ZM91.3286 106.079L80.5397 124.241H102.118L91.3286 106.079Z" fill="#192E35"/>
<path fill-rule="evenodd" clip-rule="evenodd" d="M100.749 130.058L80.9143 106.845L82.105 105.864L101.94 129.077L100.749 130.058Z" fill="#192E35"/>
<path fill-rule="evenodd" clip-rule="evenodd" d="M80.9142 130.058L100.749 106.845L99.5581 105.864L79.7235 129.077L80.9142 130.058Z" fill="#192E35"/>
</svg>
