<svg width="276" height="187" viewBox="0 0 276 187" fill="none" xmlns="http://www.w3.org/2000/svg">
<path d="M262.954 187L115.081 186.949L40.7725 186.923L36.6355 186.92L21.7068 186.918C21.7068 186.918 0.381795 169.582 0.0123887 145.075C-0.715534 96.7846 30.893 118.536 26.5988 60.3361C22.6804 7.22905 125.059 -21.4082 180.65 19.165C200.861 33.9162 202.446 44.2624 231.489 40.9913C264.273 37.2992 268.009 77.1426 256.535 99.2292C240.253 130.567 301.681 125.419 262.954 187Z" fill="#F7F0FF"/>
<mask id="mask0_4951_25463" style="mask-type:alpha" maskUnits="userSpaceOnUse" x="0" y="0" width="276" height="187">
<path d="M262.954 187L115.081 186.949L40.7725 186.923L36.6355 186.92L21.7068 186.918C21.7068 186.918 0.381795 169.582 0.0123887 145.075C-0.715534 96.7846 30.893 118.536 26.5988 60.3361C22.6804 7.22905 125.059 -21.4082 180.65 19.165C200.861 33.9162 202.446 44.2624 231.489 40.9913C264.273 37.2992 268.009 77.1426 256.535 99.2292C240.253 130.567 301.681 125.419 262.954 187Z" fill="#CEF7F3"/>
</mask>
<g mask="url(#mask0_4951_25463)">
<path d="M69.0001 104.125C45.3384 99.566 7.96161 113.156 7.96161 113.156H-5.30762V187H279.185V154.062C279.185 154.062 234.394 131.689 203.285 128.562C172.536 125.471 154.7 145.672 124.731 138.125C100.013 131.899 94.0291 108.947 69.0001 104.125Z" fill="#F1E6FF"/>
</g>
<g filter="url(#filter0_d_4951_25463)">
<path d="M138 25.5502C130.32 20.7836 121.058 18 111.088 18C84.5298 18 63 37.7521 63 62.1176C63 74.1416 68.2431 85.0422 76.7463 93C68.2431 100.958 63 111.858 63 123.882C63 148.248 84.5298 168 111.088 168C121.058 168 130.32 165.216 138 160.45C145.68 165.216 154.942 168 164.912 168C191.47 168 213 148.248 213 123.882C213 111.858 207.757 100.958 199.254 93C207.757 85.0422 213 74.1416 213 62.1176C213 37.7521 191.47 18 164.912 18C154.942 18 145.68 20.7836 138 25.5502Z" fill="#D9B7AD"/>
<path d="M138 41.8372C132.256 38.4032 125.404 36.4121 118.053 36.4121C97.8996 36.4121 81.4116 51.4203 81.4116 70.1111C81.4116 78.9602 85.1196 87.0006 91.1595 93.0003C85.1196 99.0001 81.4116 107.04 81.4116 115.89C81.4116 134.58 97.8996 149.589 118.053 149.589C125.404 149.589 132.256 147.597 138 144.163C143.744 147.597 150.596 149.589 157.946 149.589C178.1 149.589 194.588 134.58 194.588 115.89C194.588 107.04 190.88 99.0001 184.84 93.0003C190.88 87.0006 194.588 78.9602 194.588 70.1111C194.588 51.4203 178.1 36.4121 157.946 36.4121C150.596 36.4121 143.744 38.4032 138 41.8372Z" fill="#FFE6D8" stroke="#192E35" stroke-width="2"/>
<path d="M138 52.9479C133.522 50.2981 128.195 48.7646 122.487 48.7646C106.707 48.7646 93.7651 60.5195 93.7651 75.1972C93.7651 82.0669 96.6121 88.3126 101.255 92.9999C96.6121 97.6873 93.7651 103.933 93.7651 110.803C93.7651 125.48 106.707 137.235 122.487 137.235C128.195 137.235 133.522 135.702 138 133.052C142.479 135.702 147.805 137.235 153.514 137.235C169.294 137.235 182.236 125.48 182.236 110.803C182.236 103.933 179.389 97.6873 174.746 92.9999C179.389 88.3126 182.236 82.0669 182.236 75.1972C182.236 60.5195 169.294 48.7646 153.514 48.7646C147.805 48.7646 142.479 50.2981 138 52.9479Z" fill="#EBBFA6" stroke="#192E35" stroke-width="2"/>
</g>
<defs>
<filter id="filter0_d_4951_25463" x="55" y="14" width="166" height="166" filterUnits="userSpaceOnUse" color-interpolation-filters="sRGB">
<feFlood flood-opacity="0" result="BackgroundImageFix"/>
<feColorMatrix in="SourceAlpha" type="matrix" values="0 0 0 0 0 0 0 0 0 0 0 0 0 0 0 0 0 0 127 0" result="hardAlpha"/>
<feOffset dy="4"/>
<feGaussianBlur stdDeviation="4"/>
<feComposite in2="hardAlpha" operator="out"/>
<feColorMatrix type="matrix" values="0 0 0 0 0.454167 0 0 0 0 0.454167 0 0 0 0 0.454167 0 0 0 0.25 0"/>
<feBlend mode="normal" in2="BackgroundImageFix" result="effect1_dropShadow_4951_25463"/>
<feBlend mode="normal" in="SourceGraphic" in2="effect1_dropShadow_4951_25463" result="shape"/>
</filter>
</defs>
</svg>
