<svg width="308" height="190" viewBox="0 0 308 190" fill="none" xmlns="http://www.w3.org/2000/svg">
<path d="M269.454 187L121.581 186.949L47.2725 186.923L43.1355 186.92L28.2068 186.918C28.2068 186.918 6.8818 169.582 6.51239 145.075C5.78447 96.7846 37.393 118.536 33.0988 60.3361C29.1804 7.22905 131.559 -21.4082 187.15 19.165C207.361 33.9162 208.946 44.2624 237.989 40.9913C270.773 37.2992 274.509 77.1426 263.035 99.2292C246.753 130.567 308.181 125.419 269.454 187Z" fill="#F7F0FF"/>
<mask id="mask0_4951_25437" style="mask-type:alpha" maskUnits="userSpaceOnUse" x="6" y="0" width="277" height="187">
<path d="M269.454 187L121.581 186.949L47.2725 186.923L43.1355 186.92L28.2068 186.918C28.2068 186.918 6.8818 169.582 6.51239 145.075C5.78447 96.7846 37.393 118.536 33.0988 60.3361C29.1804 7.22905 131.559 -21.4082 187.15 19.165C207.361 33.9162 208.946 44.2624 237.989 40.9913C270.773 37.2992 274.509 77.1426 263.035 99.2292C246.753 130.567 308.181 125.419 269.454 187Z" fill="#F7F0FF"/>
</mask>
<g mask="url(#mask0_4951_25437)">
<path d="M75.5001 104.125C51.8384 99.566 14.4616 113.156 14.4616 113.156H1.19238V187H285.685V154.062C285.685 154.062 240.894 131.689 209.785 128.562C179.036 125.471 161.2 145.672 131.231 138.125C106.513 131.899 100.529 108.947 75.5001 104.125Z" fill="#F1E6FF"/>
</g>
<mask id="path-4-outside-1_4951_25437" maskUnits="userSpaceOnUse" x="6.5" y="33" width="289" height="157" fill="black">
<rect fill="white" x="6.5" y="33" width="289" height="157"/>
<path fill-rule="evenodd" clip-rule="evenodd" d="M65.1754 40.1083C67.9035 41.5021 66.0522 43.7407 62.9311 45.8424C67.2909 51.2255 72.9496 58.5729 73.6121 60.8329L82.5282 62.8344C82.6122 62.5941 82.8668 62.4525 83.1191 62.5144L109.619 69.0144C109.882 69.0788 110.044 69.3395 109.989 69.602L112 70.1342L124.5 66.6342L126.5 67.1342L126.813 67.9624C127.008 67.5928 127.304 67.3051 127.731 67.1342C128.062 67.0015 129.133 66.5169 130.76 65.7808L130.761 65.7803L130.762 65.7796C132.775 64.8685 135.639 63.5724 139.007 62.0814C138.969 61.8553 139.092 61.6255 139.313 61.5362L172.823 48.0323L172.833 48.0288L173 48.5C172.833 48.0288 172.833 48.0288 172.833 48.0288L172.834 48.0283L172.849 48.0232L172.892 48.0083C172.929 47.9953 172.984 47.9765 173.054 47.9528C173.196 47.9054 173.4 47.8383 173.655 47.7585C174.164 47.5991 174.876 47.3888 175.689 47.1852C177.301 46.7815 179.365 46.3891 181.033 46.5011C184.37 46.725 187.853 49.0757 190.445 51.2781C191.754 52.3909 192.862 53.4891 193.642 54.3087C194.032 54.7187 194.341 55.0598 194.553 55.299C194.659 55.4186 194.741 55.5128 194.797 55.5775L194.844 55.6327L194.861 55.652L194.877 55.6716L194.882 55.6769L194.883 55.6784C194.883 55.6785 194.883 55.6791 194.5 56L194.883 55.6784C195.06 55.8901 195.033 56.2062 194.821 56.3834L194.809 56.3927C194.805 56.3965 194.8 56.4002 194.795 56.4038C197.786 59.2776 201.092 62.6521 204.545 66.2926C204.572 66.2325 204.612 66.1767 204.664 66.1295C204.869 65.9441 205.185 65.9596 205.37 66.1642L234.37 98.1642C234.556 98.3689 234.54 98.6851 234.336 98.8705C234.302 98.9014 234.265 98.9267 234.225 98.9465C235.121 99.9366 235.984 100.887 236.809 101.791C238.085 101.744 239.332 101.697 240.55 101.651C249.05 102.151 268.15 103.851 276.55 106.651C285.318 109.573 286.764 125.047 288.458 143.174C288.793 146.755 289.137 150.439 289.55 154.151C291.55 172.151 286.05 176.984 283.05 177.151C279.322 176.808 274.611 176.258 269.5 175.651V185H256.5V174.138C242.712 172.611 229.427 171.539 226.5 173.5C223.149 175.744 217.174 174.063 211.065 172.344C207.805 171.427 204.507 170.499 201.55 170.151C193.05 169.151 182.5 169.5 176.5 173.5C171.7 176.7 152.216 174.484 144.05 171.151C142.05 170.484 137.242 171.075 131.55 172.651C109.815 178.667 90.8277 174.498 80.5407 172.239C78.2618 171.739 76.4099 171.332 75.0497 171.151C71.4091 170.665 70.4782 171.005 68.5398 171.711C66.4848 172.46 63.2977 173.621 54.5497 174.651C49.1098 175.291 45.2571 175.214 42.5 174.846V185H29.5V173.824C25.6459 174.234 20.5315 174.435 16.5497 174.151C10.728 173.735 11.1313 167.786 12.0073 154.865C12.1847 152.25 12.3813 149.349 12.5497 146.151C13.5496 127.151 20.9995 109.501 22.4998 107H22.3559C21.529 100.26 20.5697 85.022 23.3483 77.989C26.0433 71.1674 27.4306 69.341 29.3226 68.5689L39.5 58L39.5428 58.009C39.6383 57.4104 39.8846 56.8407 40.1871 56.2997C40.847 55.6254 41.6856 55.3161 42.606 54.9767C43.3858 54.6891 44.2243 54.3799 45.0629 53.8087C45.266 51.5253 46.4037 46.3358 49.3292 43.8448C52.2546 41.3538 55.0175 41.1462 56.0333 41.3538C57.0491 39.9007 60.2996 37.6174 65.1754 40.1083ZM182.731 69.1343L195.082 76.6992L196.563 81.0264L194.624 80H183.5C183.297 80 183.122 80.1213 183.044 80.2955L161.965 79.6845C161.988 79.6253 162.001 79.5612 162 79.4953C167.343 78.4517 177.702 72.3884 182.731 69.1343Z"/>
</mask>
<path fill-rule="evenodd" clip-rule="evenodd" d="M65.1754 40.1083C67.9035 41.5021 66.0522 43.7407 62.9311 45.8424C67.2909 51.2255 72.9496 58.5729 73.6121 60.8329L82.5282 62.8344C82.6122 62.5941 82.8668 62.4525 83.1191 62.5144L109.619 69.0144C109.882 69.0788 110.044 69.3395 109.989 69.602L112 70.1342L124.5 66.6342L126.5 67.1342L126.813 67.9624C127.008 67.5928 127.304 67.3051 127.731 67.1342C128.062 67.0015 129.133 66.5169 130.76 65.7808L130.761 65.7803L130.762 65.7796C132.775 64.8685 135.639 63.5724 139.007 62.0814C138.969 61.8553 139.092 61.6255 139.313 61.5362L172.823 48.0323L172.833 48.0288L173 48.5C172.833 48.0288 172.833 48.0288 172.833 48.0288L172.834 48.0283L172.849 48.0232L172.892 48.0083C172.929 47.9953 172.984 47.9765 173.054 47.9528C173.196 47.9054 173.4 47.8383 173.655 47.7585C174.164 47.5991 174.876 47.3888 175.689 47.1852C177.301 46.7815 179.365 46.3891 181.033 46.5011C184.37 46.725 187.853 49.0757 190.445 51.2781C191.754 52.3909 192.862 53.4891 193.642 54.3087C194.032 54.7187 194.341 55.0598 194.553 55.299C194.659 55.4186 194.741 55.5128 194.797 55.5775L194.844 55.6327L194.861 55.652L194.877 55.6716L194.882 55.6769L194.883 55.6784C194.883 55.6785 194.883 55.6791 194.5 56L194.883 55.6784C195.06 55.8901 195.033 56.2062 194.821 56.3834L194.809 56.3927C194.805 56.3965 194.8 56.4002 194.795 56.4038C197.786 59.2776 201.092 62.6521 204.545 66.2926C204.572 66.2325 204.612 66.1767 204.664 66.1295C204.869 65.9441 205.185 65.9596 205.37 66.1642L234.37 98.1642C234.556 98.3689 234.54 98.6851 234.336 98.8705C234.302 98.9014 234.265 98.9267 234.225 98.9465C235.121 99.9366 235.984 100.887 236.809 101.791C238.085 101.744 239.332 101.697 240.55 101.651C249.05 102.151 268.15 103.851 276.55 106.651C285.318 109.573 286.764 125.047 288.458 143.174C288.793 146.755 289.137 150.439 289.55 154.151C291.55 172.151 286.05 176.984 283.05 177.151C279.322 176.808 274.611 176.258 269.5 175.651V185H256.5V174.138C242.712 172.611 229.427 171.539 226.5 173.5C223.149 175.744 217.174 174.063 211.065 172.344C207.805 171.427 204.507 170.499 201.55 170.151C193.05 169.151 182.5 169.5 176.5 173.5C171.7 176.7 152.216 174.484 144.05 171.151C142.05 170.484 137.242 171.075 131.55 172.651C109.815 178.667 90.8277 174.498 80.5407 172.239C78.2618 171.739 76.4099 171.332 75.0497 171.151C71.4091 170.665 70.4782 171.005 68.5398 171.711C66.4848 172.46 63.2977 173.621 54.5497 174.651C49.1098 175.291 45.2571 175.214 42.5 174.846V185H29.5V173.824C25.6459 174.234 20.5315 174.435 16.5497 174.151C10.728 173.735 11.1313 167.786 12.0073 154.865C12.1847 152.25 12.3813 149.349 12.5497 146.151C13.5496 127.151 20.9995 109.501 22.4998 107H22.3559C21.529 100.26 20.5697 85.022 23.3483 77.989C26.0433 71.1674 27.4306 69.341 29.3226 68.5689L39.5 58L39.5428 58.009C39.6383 57.4104 39.8846 56.8407 40.1871 56.2997C40.847 55.6254 41.6856 55.3161 42.606 54.9767C43.3858 54.6891 44.2243 54.3799 45.0629 53.8087C45.266 51.5253 46.4037 46.3358 49.3292 43.8448C52.2546 41.3538 55.0175 41.1462 56.0333 41.3538C57.0491 39.9007 60.2996 37.6174 65.1754 40.1083ZM182.731 69.1343L195.082 76.6992L196.563 81.0264L194.624 80H183.5C183.297 80 183.122 80.1213 183.044 80.2955L161.965 79.6845C161.988 79.6253 162.001 79.5612 162 79.4953C167.343 78.4517 177.702 72.3884 182.731 69.1343Z" fill="#192E35"/>
<path d="M62.9311 45.8424L60.1384 41.6951L55.6085 44.7454L59.0456 48.9893L62.9311 45.8424ZM65.1754 40.1083L67.4501 35.6558L65.1754 40.1083ZM73.6121 60.8329L68.8141 62.2395L69.6427 65.0663L72.517 65.7115L73.6121 60.8329ZM82.5282 62.8344L81.433 67.713L85.7786 68.6886L87.2482 64.4842L82.5282 62.8344ZM83.1191 62.5144L81.928 67.3705L83.1191 62.5144ZM109.619 69.0144L110.81 64.1583L110.81 64.1583L109.619 69.0144ZM109.989 69.602L105.095 68.5787L104.125 73.2217L108.71 74.4355L109.989 69.602ZM112 70.1342L110.721 74.9677L112.037 75.3162L113.348 74.949L112 70.1342ZM124.5 66.6342L125.713 61.7835L124.428 61.4622L123.152 61.8194L124.5 66.6342ZM126.5 67.1342L131.176 65.3647L130.251 62.918L127.713 62.2835L126.5 67.1342ZM126.813 67.9624L122.137 69.7319L126.069 80.1228L131.239 70.2893L126.813 67.9624ZM127.731 67.1342L129.588 71.7766L129.588 71.7766L127.731 67.1342ZM130.76 65.7808L132.821 70.336L132.83 70.3319L132.839 70.3278L130.76 65.7808ZM130.761 65.7803L128.704 61.2231L128.692 61.2282L128.681 61.2333L130.761 65.7803ZM130.762 65.7796L132.819 70.3368L132.824 70.3348L130.762 65.7796ZM139.007 62.0814L141.031 66.6533L144.573 65.0848L143.939 61.2631L139.007 62.0814ZM139.313 61.5362L137.444 56.8987L137.444 56.8987L139.313 61.5362ZM172.823 48.0323L171.152 43.3196L171.052 43.3551L170.954 43.3947L172.823 48.0323ZM172.834 48.0283L171.175 43.3116L171.166 43.3149L171.156 43.3184L172.834 48.0283ZM172.849 48.0232L171.206 43.3006L171.198 43.3035L171.19 43.3065L172.849 48.0232ZM172.892 48.0083L171.258 43.2825L171.249 43.2857L172.892 48.0083ZM173.054 47.9528L174.646 52.6927L174.646 52.6927L173.054 47.9528ZM173.655 47.7585L172.161 42.987L172.16 42.987L173.655 47.7585ZM175.689 47.1852L174.475 42.335L174.474 42.335L175.689 47.1852ZM181.033 46.5011L180.699 51.4899L180.699 51.4899L181.033 46.5011ZM190.445 51.2781L193.683 47.4684V47.4684L190.445 51.2781ZM193.642 54.3087L190.02 57.7563L190.021 57.7563L193.642 54.3087ZM194.553 55.299L190.812 58.6158L190.812 58.6161L194.553 55.299ZM194.797 55.5775L198.595 52.3255L198.588 52.3171L194.797 55.5775ZM194.844 55.6327L198.653 52.3936L198.648 52.3871L198.642 52.3807L194.844 55.6327ZM194.861 55.652L198.678 52.4231L198.669 52.4128L194.861 55.652ZM194.877 55.6716L198.704 52.4533L198.695 52.4427L194.877 55.6716ZM194.882 55.6769L198.719 52.4721L198.714 52.4653L198.708 52.4586L194.882 55.6769ZM194.5 56L191.284 52.1717L197.709 59.8342L194.5 56ZM194.821 56.3834L197.974 60.2638L198.002 60.2409L198.03 60.2176L194.821 56.3834ZM194.809 56.3927L197.905 60.3192L197.934 60.2964L197.963 60.2731L194.809 56.3927ZM194.795 56.4038L191.841 52.3695L187.039 55.8854L191.331 60.0092L194.795 56.4038ZM204.545 66.2926L200.917 69.7337L206.023 75.1161L209.096 68.3636L204.545 66.2926ZM204.664 66.1295L201.307 62.4247L201.306 62.4247L204.664 66.1295ZM205.37 66.1642L209.075 62.8066L209.075 62.8066L205.37 66.1642ZM234.37 98.1642L238.076 94.8068L238.075 94.8066L234.37 98.1642ZM234.336 98.8705L230.978 95.1655L230.978 95.1656L234.336 98.8705ZM234.225 98.9465L231.97 94.4839L226.122 97.4393L230.516 102.3L234.225 98.9465ZM236.809 101.791L233.118 105.163L234.68 106.874L236.995 106.788L236.809 101.791ZM240.55 101.651L240.843 96.6593L240.601 96.6451L240.359 96.6543L240.55 101.651ZM276.55 106.651L274.969 111.394L276.55 106.651ZM288.458 143.174L293.437 142.709V142.709L288.458 143.174ZM289.55 154.151L284.58 154.703L289.55 154.151ZM283.05 177.151L282.592 182.13L282.959 182.163L283.327 182.143L283.05 177.151ZM269.5 175.651L270.089 170.686L264.5 170.023V175.651H269.5ZM269.5 185V190H274.5V185H269.5ZM256.5 185H251.5V190H256.5V185ZM256.5 174.138H261.5V169.662L257.05 169.169L256.5 174.138ZM226.5 173.5L229.283 177.654H229.283L226.5 173.5ZM211.065 172.344L212.419 167.531L212.419 167.531L211.065 172.344ZM201.55 170.151L202.134 165.185L201.55 170.151ZM176.5 173.5L179.273 177.66L176.5 173.5ZM144.05 171.151L145.939 166.521L145.787 166.459L145.631 166.407L144.05 171.151ZM131.55 172.651L132.884 177.469L131.55 172.651ZM80.5407 172.239L79.4684 177.123L79.4684 177.123L80.5407 172.239ZM75.0497 171.151L75.7105 166.195H75.7105L75.0497 171.151ZM68.5398 171.711L70.2519 176.409L70.2519 176.409L68.5398 171.711ZM54.5497 174.651L53.9654 169.685H53.9654L54.5497 174.651ZM42.5 174.846L43.1608 169.89L37.5 169.135V174.846H42.5ZM42.5 185V190H47.5V185H42.5ZM29.5 185H24.5V190H29.5V185ZM29.5 173.824H34.5V168.263L28.9708 168.852L29.5 173.824ZM16.5497 174.151L16.9059 169.163H16.9059L16.5497 174.151ZM12.0073 154.865L7.01879 154.527L12.0073 154.865ZM12.5497 146.151L7.55657 145.888L12.5497 146.151ZM22.4998 107L26.7875 109.572L31.3301 102H22.4998V107ZM22.3559 107L17.3931 107.609L17.9319 112H22.3559V107ZM23.3483 77.989L18.698 76.1518H18.698L23.3483 77.989ZM29.3226 68.5689L31.2119 73.1982L32.1908 72.7987L32.9242 72.0371L29.3226 68.5689ZM39.5 58L40.5243 53.1061L37.817 52.5394L35.8984 54.5318L39.5 58ZM39.5428 58.009L38.5185 62.9029L43.6533 63.9777L44.4803 58.7971L39.5428 58.009ZM40.1871 56.2997L36.6137 52.8024L36.1481 53.2782L35.8232 53.8591L40.1871 56.2997ZM42.606 54.9767L40.876 50.2855L40.876 50.2855L42.606 54.9767ZM45.0629 53.8087L47.8778 57.941L49.8335 56.6088L50.0432 54.2518L45.0629 53.8087ZM49.3292 43.8448L46.0876 40.0379V40.0379L49.3292 43.8448ZM56.0333 41.3538L55.0323 46.2526L58.2498 46.9101L60.1313 44.2185L56.0333 41.3538ZM195.082 76.6992L199.812 75.0798L199.229 73.376L197.693 72.4354L195.082 76.6992ZM182.731 69.1343L185.342 64.8705L182.658 63.2262L180.015 64.9364L182.731 69.1343ZM196.563 81.0264L194.223 85.4453L205.383 91.3532L201.293 79.4071L196.563 81.0264ZM194.624 80L196.964 75.5811L195.866 75H194.624V80ZM183.044 80.2955L182.899 85.2934L186.238 85.3902L187.605 82.3426L183.044 80.2955ZM161.965 79.6845L157.319 77.8351L154.676 84.4754L161.82 84.6824L161.965 79.6845ZM162 79.4953L161.042 74.5881L156.958 75.3857L157 79.5463L162 79.4953ZM65.7239 49.9898C67.32 48.915 69.5478 47.2262 70.6942 44.9946C71.3539 43.7103 71.904 41.7376 71.1073 39.5711C70.3463 37.5016 68.7364 36.3129 67.4501 35.6558L62.9006 44.5609C62.9002 44.5607 62.8906 44.5558 62.8732 44.5455C62.8558 44.5352 62.8293 44.5188 62.7954 44.4954C62.7287 44.4494 62.6258 44.3713 62.5047 44.2536C62.2545 44.0103 61.936 43.6051 61.7217 43.0223C61.2477 41.7332 61.6514 40.7129 61.7992 40.4252C61.9199 40.1902 61.9487 40.2506 61.5866 40.5857C61.2638 40.8843 60.7843 41.2601 60.1384 41.6951L65.7239 49.9898ZM78.4102 59.4264C78.0214 58.1001 77.1683 56.6711 76.4992 55.6162C75.7236 54.3933 74.7459 52.9953 73.6937 51.5569C71.5829 48.6712 69.0213 45.4177 66.8166 42.6955L59.0456 48.9893C61.2007 51.6502 63.6484 54.7619 65.6225 57.4608C66.6128 58.8146 67.4465 60.0136 68.0545 60.9722C68.769 62.0988 68.8716 62.4357 68.8141 62.2395L78.4102 59.4264ZM83.6233 57.9559L74.7073 55.9543L72.517 65.7115L81.433 67.713L83.6233 57.9559ZM84.3102 57.6583C81.5317 56.9768 78.7341 58.5357 77.8082 61.1847L87.2482 64.4842C86.4903 66.6525 84.2018 67.9282 81.928 67.3705L84.3102 57.6583ZM110.81 64.1583L84.3102 57.6583L81.928 67.3705L108.428 73.8704L110.81 64.1583ZM114.884 70.6253C115.488 67.7344 113.699 64.8668 110.81 64.1583L108.428 73.8704C106.065 73.2908 104.601 70.9446 105.095 68.5787L114.884 70.6253ZM113.279 65.3007L111.269 64.7685L108.71 74.4355L110.721 74.9677L113.279 65.3007ZM123.152 61.8194L110.652 65.3194L113.348 74.949L125.848 71.449L123.152 61.8194ZM127.713 62.2835L125.713 61.7835L123.287 71.4849L125.287 71.9849L127.713 62.2835ZM131.49 66.193L131.176 65.3647L121.824 68.9037L122.137 69.7319L131.49 66.193ZM125.874 62.4918C124.277 63.1306 123.102 64.2772 122.388 65.6356L131.239 70.2893C131.095 70.5627 130.879 70.8693 130.57 71.1538C130.257 71.441 129.915 71.6455 129.588 71.7766L125.874 62.4918ZM128.698 61.2256C127.882 61.5952 127.217 61.8961 126.714 62.1214C126.463 62.234 126.262 62.3235 126.108 62.391C126.031 62.4246 125.972 62.4503 125.928 62.4691C125.88 62.4895 125.865 62.4952 125.874 62.4918L129.588 71.7766C130.055 71.5895 131.289 71.0296 132.821 70.336L128.698 61.2256ZM128.681 61.2333L128.68 61.2337L132.839 70.3278L132.84 70.3274L128.681 61.2333ZM128.705 61.2224L128.704 61.2231L132.818 70.3376L132.819 70.3368L128.705 61.2224ZM136.982 57.5095C133.595 59.0095 130.714 60.313 128.701 61.2244L132.824 70.3348C134.836 69.424 137.684 68.1353 141.031 66.6533L136.982 57.5095ZM137.444 56.8987C135.003 57.8826 133.661 60.4115 134.074 62.8997L143.939 61.2631C144.277 63.299 143.181 65.3684 141.182 66.1738L137.444 56.8987ZM171.162 43.3161L171.152 43.3196L174.493 52.745L174.503 52.7414L171.162 43.3161ZM177.712 46.8284L177.545 46.3572L168.121 49.7004L168.288 50.1716L177.712 46.8284ZM171.164 43.3156C171.164 43.3156 171.117 43.3324 171.071 43.3496C171.024 43.3674 170.885 43.4236 170.794 43.4634C170.553 43.5708 170.188 43.7565 169.791 44.0605C168.881 44.7584 168.329 45.6722 168.057 46.5485C167.828 47.2866 167.827 47.9018 167.835 48.1797C167.845 48.4925 167.882 48.7385 167.903 48.8648C167.946 49.1142 167.998 49.305 168.012 49.3557C168.033 49.4328 168.052 49.4929 168.061 49.5209C168.079 49.578 168.094 49.6224 168.097 49.6328C168.103 49.6498 168.107 49.6632 168.11 49.6692C168.114 49.6816 168.117 49.6916 168.118 49.6942C168.12 49.6984 168.121 49.7023 168.122 49.705C168.126 49.7148 168.132 49.7322 168.142 49.7602C168.163 49.8189 168.204 49.9364 168.288 50.1716L177.712 46.8284C177.629 46.5924 177.587 46.4743 177.566 46.4152C177.555 46.3843 177.55 46.3723 177.549 46.3673C177.546 46.3595 177.551 46.3735 177.557 46.3902C177.559 46.3957 177.563 46.4088 177.569 46.4256C177.572 46.4357 177.587 46.4799 177.605 46.5369C177.614 46.5648 177.632 46.6249 177.654 46.7019C177.668 46.7526 177.72 46.9434 177.762 47.1928C177.784 47.319 177.821 47.5651 177.831 47.8779C177.839 48.1558 177.837 48.771 177.609 49.509C177.337 50.3853 176.785 51.2991 175.875 51.997C175.147 52.555 174.385 52.7832 174.502 52.7419L171.164 43.3156ZM171.156 43.3184L171.155 43.3188L174.511 52.7387L174.512 52.7382L171.156 43.3184ZM171.249 43.2857L171.206 43.3006L174.491 52.7458L174.534 52.7308L171.249 43.2857ZM171.463 43.213C171.377 43.2416 171.309 43.2651 171.258 43.2825L174.525 52.734C174.549 52.7255 174.59 52.7114 174.646 52.6927L171.463 43.213ZM172.16 42.987C171.87 43.078 171.633 43.1558 171.463 43.213L174.646 52.6927C174.758 52.6551 174.93 52.5986 175.149 52.5301L172.16 42.987ZM174.474 42.335C173.546 42.5675 172.738 42.806 172.161 42.987L175.149 52.5301C175.589 52.3922 176.206 52.2102 176.904 52.0354L174.474 42.335ZM181.368 41.5123C178.873 41.3449 176.169 41.9106 174.475 42.335L176.904 52.0354C178.433 51.6524 179.857 51.4334 180.699 51.4899L181.368 41.5123ZM193.683 47.4684C191.026 45.2105 186.456 41.8538 181.368 41.5123L180.699 51.4899C182.283 51.5963 184.68 52.9409 187.206 55.0879L193.683 47.4684ZM197.263 50.8611C196.397 49.9517 195.16 48.7244 193.683 47.4684L187.206 55.0879C188.347 56.0575 189.326 57.0265 190.02 57.7563L197.263 50.8611ZM198.295 51.9822C198.048 51.7039 197.699 51.3188 197.263 50.861L190.021 57.7563C190.365 58.1187 190.634 58.4156 190.812 58.6158L198.295 51.9822ZM198.588 52.3171C198.517 52.2345 198.418 52.1213 198.295 51.9819L190.812 58.6161C190.901 58.7159 190.966 58.7912 191.006 58.838L198.588 52.3171ZM198.642 52.3807L198.595 52.3255L190.999 58.8296L191.046 58.8848L198.642 52.3807ZM198.669 52.4128L198.653 52.3936L191.035 58.8719L191.052 58.8911L198.669 52.4128ZM198.695 52.4427L198.678 52.4231L191.043 58.8808L191.06 58.9005L198.695 52.4427ZM198.708 52.4586L198.704 52.4533L191.051 58.8899L191.055 58.8952L198.708 52.4586ZM198.721 52.4736L198.719 52.4721L191.044 58.8817L191.045 58.8832L198.721 52.4736ZM197.709 59.8342C197.901 59.6734 198.002 59.5885 198.057 59.5425C198.081 59.5222 198.108 59.4995 198.132 59.4786C198.134 59.4776 198.182 59.4367 198.237 59.3861C198.255 59.3704 198.287 59.3409 198.327 59.3029C198.356 59.2755 198.445 59.1902 198.553 59.0741C198.607 59.016 198.708 58.9042 198.824 58.7549C198.916 58.6373 199.162 58.315 199.387 57.85C199.595 57.4173 200.059 56.3043 199.813 54.8457C199.687 54.0969 199.409 53.4887 199.127 53.0353C198.996 52.8247 198.874 52.6633 198.793 52.5624C198.762 52.5236 198.714 52.4658 198.698 52.4465C198.681 52.4272 198.665 52.4078 198.665 52.4076L191.101 58.9491C191.101 58.949 191.084 58.9296 191.068 58.9102C191.051 58.891 191.004 58.8332 190.972 58.7943C190.892 58.6935 190.77 58.5321 190.639 58.3215C190.356 57.8681 190.079 57.2599 189.953 56.5111C189.706 55.0525 190.17 53.9395 190.379 53.5068C190.603 53.0419 190.85 52.7196 190.941 52.602C191.058 52.4527 191.159 52.3409 191.213 52.2828C191.32 52.1668 191.409 52.0817 191.438 52.0545C191.478 52.0167 191.51 51.9874 191.527 51.9721C191.561 51.9412 191.588 51.9178 191.596 51.9103C191.608 51.9 191.617 51.8922 191.622 51.8886C191.634 51.8778 191.637 51.8753 191.613 51.8953C191.572 51.9298 191.482 52.0057 191.291 52.1658L197.709 59.8342ZM191.667 51.8501L191.284 52.1717L197.716 59.8283L198.099 59.5067L191.667 51.8501ZM198.03 60.2176C200.369 58.2602 200.659 54.7892 198.717 52.4692L191.049 58.8875C189.461 56.9911 189.697 54.1522 191.612 52.5492L198.03 60.2176ZM197.963 60.2731L197.974 60.2638L191.668 52.503L191.656 52.5123L197.963 60.2731ZM197.749 60.4381C197.801 60.3994 197.854 60.3598 197.905 60.3192L191.714 52.4662C191.756 52.4333 191.798 52.401 191.841 52.3695L197.749 60.4381ZM208.172 62.8516C204.69 59.1799 201.326 55.7451 198.259 52.7984L191.331 60.0092C194.246 62.81 197.493 66.1243 200.917 69.7337L208.172 62.8516ZM201.306 62.4247C200.74 62.9379 200.298 63.5527 199.994 64.2217L209.096 68.3636C208.846 68.9122 208.484 69.4155 208.022 69.8343L201.306 62.4247ZM209.075 62.8066C207.036 60.556 203.557 60.3846 201.307 62.4247L208.022 69.8343C206.18 71.5035 203.334 71.3633 201.666 69.5219L209.075 62.8066ZM238.075 94.8066L209.075 62.8066L201.666 69.5218L230.666 101.522L238.075 94.8066ZM237.693 102.575C239.944 100.536 240.115 97.0575 238.076 94.8068L230.665 101.522C228.997 99.6802 229.137 96.8345 230.978 95.1655L237.693 102.575ZM236.481 103.409C236.916 103.189 237.324 102.91 237.693 102.575L230.978 95.1656C231.279 94.8928 231.613 94.6642 231.97 94.4839L236.481 103.409ZM240.501 98.4194C239.682 97.5229 238.825 96.5787 237.934 95.5933L230.516 102.3C231.416 103.294 232.285 104.252 233.118 105.163L240.501 98.4194ZM240.359 96.6543C239.143 96.7008 237.898 96.7476 236.624 96.7949L236.995 106.788C238.272 106.741 239.521 106.694 240.741 106.647L240.359 96.6543ZM278.131 101.907C273.4 100.33 266.067 99.1609 259.191 98.3247C252.185 97.4729 245.18 96.9144 240.843 96.6593L240.256 106.642C244.419 106.887 251.214 107.428 257.984 108.252C264.882 109.09 271.3 110.171 274.969 111.394L278.131 101.907ZM293.437 142.709C292.602 133.785 291.789 124.936 289.999 117.967C288.286 111.295 285.171 104.254 278.131 101.907L274.969 111.394C276.696 111.97 278.689 114.127 280.314 120.455C281.863 126.486 282.62 134.436 283.48 143.639L293.437 142.709ZM294.519 153.599C294.112 149.937 293.772 146.296 293.437 142.709L283.48 143.639C283.814 147.214 284.162 150.941 284.58 154.703L294.519 153.599ZM283.327 182.143C287.351 181.919 290.804 178.87 292.766 174.318C294.743 169.733 295.569 163.051 294.519 153.599L284.58 154.703C285.53 163.251 284.607 167.985 283.583 170.359C282.546 172.765 281.748 172.215 282.772 172.158L283.327 182.143ZM268.911 180.617C274.008 181.221 278.787 181.78 282.592 182.13L283.507 172.172C279.857 171.836 275.214 171.294 270.089 170.686L268.911 180.617ZM274.5 185V175.651H264.5V185H274.5ZM256.5 190H269.5V180H256.5V190ZM251.5 174.138V185H261.5V174.138H251.5ZM229.283 177.654C228.921 177.896 228.776 177.869 229.193 177.773C229.543 177.691 230.094 177.605 230.886 177.541C232.47 177.413 234.609 177.404 237.23 177.507C242.452 177.714 249.071 178.346 255.95 179.108L257.05 169.169C250.141 168.404 243.224 167.736 237.625 167.515C234.835 167.405 232.242 167.399 230.081 167.574C229 167.661 227.926 167.801 226.935 168.031C226.011 168.245 224.811 168.613 223.717 169.346L229.283 177.654ZM209.711 177.157C212.668 177.989 216.058 178.954 219.16 179.365C222.123 179.757 226.027 179.834 229.283 177.654L223.717 169.346C223.622 169.41 222.863 169.768 220.474 169.451C218.223 169.153 215.571 168.417 212.419 167.531L209.711 177.157ZM200.965 175.116C203.454 175.409 206.348 176.211 209.711 177.157L212.419 167.531C209.262 166.642 205.56 165.588 202.134 165.185L200.965 175.116ZM179.273 177.66C181.302 176.308 184.51 175.349 188.604 174.923C192.605 174.508 196.988 174.649 200.965 175.116L202.134 165.185C197.611 164.653 192.469 164.468 187.571 164.977C182.765 165.476 177.698 166.692 173.727 169.339L179.273 177.66ZM142.16 175.78C146.9 177.715 154.371 179.165 161.1 179.756C164.514 180.056 167.937 180.154 170.914 179.938C173.615 179.743 176.9 179.242 179.273 177.66L173.727 169.339C173.819 169.278 173.63 169.418 172.908 169.589C172.238 169.748 171.333 169.882 170.192 169.964C167.911 170.129 165.052 170.065 161.975 169.794C155.72 169.245 149.366 167.92 145.939 166.521L142.16 175.78ZM132.884 177.469C135.556 176.73 137.929 176.248 139.784 176.024C141.889 175.769 142.613 175.942 142.469 175.894L145.631 166.407C143.487 165.693 140.806 165.828 138.584 166.096C136.112 166.395 133.235 166.996 130.216 167.832L132.884 177.469ZM79.4684 177.123C89.8172 179.395 109.868 183.84 132.884 177.469L130.216 167.832C109.763 173.493 91.8381 169.601 81.6131 167.355L79.4684 177.123ZM74.3888 176.107C75.4912 176.254 77.0981 176.602 79.4684 177.123L81.6131 167.355C79.4255 166.875 77.3285 166.41 75.7105 166.195L74.3888 176.107ZM70.2519 176.409C71.2759 176.036 71.4789 175.981 71.7565 175.948C72.0701 175.91 72.7281 175.885 74.3888 176.107L75.7105 166.195C73.7306 165.931 72.1029 165.833 70.5562 166.02C68.9736 166.211 67.742 166.68 66.8276 167.013L70.2519 176.409ZM55.1339 179.616C64.2741 178.541 67.8394 177.288 70.2519 176.409L66.8277 167.013C65.1302 167.632 62.3213 168.702 53.9654 169.685L55.1339 179.616ZM41.8392 179.802C45.1043 180.238 49.3877 180.292 55.1339 179.616L53.9654 169.685C48.8319 170.289 45.4099 170.19 43.1608 169.89L41.8392 179.802ZM47.5 185V174.846H37.5V185H47.5ZM29.5 190H42.5V180H29.5V190ZM24.5 173.824V185H34.5V173.824H24.5ZM16.1934 179.138C20.5441 179.449 25.965 179.228 30.0292 178.796L28.9708 168.852C25.3268 169.24 20.519 169.421 16.9059 169.163L16.1934 179.138ZM7.01879 154.527C6.60124 160.686 6.19758 166.134 6.83281 170.006C7.16738 172.046 7.88178 174.352 9.6135 176.199C11.4631 178.171 13.8487 178.97 16.1934 179.138L16.9059 169.163C16.3398 169.123 16.5927 169.022 16.9079 169.359C17.1053 169.569 16.8838 169.502 16.701 168.388C16.3014 165.952 16.5374 161.965 16.9959 155.203L7.01879 154.527ZM7.55657 145.888C7.39048 149.044 7.19628 151.909 7.01879 154.527L16.9959 155.203C17.173 152.591 17.3722 149.655 17.5427 146.413L7.55657 145.888ZM18.2122 104.428C17.1451 106.207 14.7667 111.709 12.5564 118.924C10.3046 126.275 8.08454 135.857 7.55657 145.888L17.5427 146.413C18.0147 137.446 20.0196 128.703 22.1178 121.853C23.163 118.441 24.2188 115.54 25.0926 113.364C25.5297 112.276 25.9153 111.384 26.2248 110.711C26.3796 110.374 26.51 110.105 26.6135 109.9C26.665 109.798 26.7067 109.719 26.7387 109.66C26.7717 109.599 26.7876 109.572 26.7875 109.572L18.2122 104.428ZM22.3559 112H22.4998V102H22.3559V112ZM18.698 76.1518C16.9284 80.6312 16.5042 87.0496 16.5 92.6007C16.4957 98.3669 16.9587 104.068 17.3931 107.609L27.3187 106.391C26.9262 103.192 26.4961 97.9042 26.5 92.6082C26.5041 87.0969 26.9896 82.3799 27.9985 79.8262L18.698 76.1518ZM27.4334 63.9395C25.345 64.7918 23.7946 66.2226 22.4531 68.272C21.2351 70.1329 20.0612 72.7014 18.698 76.1518L27.9985 79.8262C29.3304 76.455 30.1977 74.6995 30.8201 73.7487C31.1053 73.313 31.2594 73.1728 31.2767 73.1576C31.283 73.152 31.2699 73.1639 31.242 73.181C31.2145 73.1978 31.1994 73.2033 31.2119 73.1982L27.4334 63.9395ZM32.9242 72.0371L43.1016 61.4682L35.8984 54.5318L25.721 65.1006L32.9242 72.0371ZM38.4757 62.894L38.5185 62.9029L40.5671 53.115L40.5243 53.1061L38.4757 62.894ZM35.8232 53.8591C35.3745 54.6615 34.83 55.8131 34.6053 57.2208L44.4803 58.7971C44.4618 58.9131 44.438 58.969 44.4444 58.9525C44.4473 58.9451 44.4561 58.9237 44.4738 58.887C44.4916 58.8503 44.5165 58.8019 44.5511 58.7402L35.8232 53.8591ZM40.876 50.2855C40.1384 50.5576 38.189 51.1929 36.6137 52.8024L43.7606 59.7969C43.6017 59.9593 43.4783 60.0131 43.5388 59.9828C43.5762 59.9641 43.6499 59.93 43.788 59.8748C43.9332 59.8168 44.0942 59.7571 44.3361 59.6679L40.876 50.2855ZM42.2479 49.6764C41.9814 49.8579 41.6896 49.9855 40.876 50.2855L44.3361 59.6679C45.082 59.3928 46.4673 58.9019 47.8778 57.941L42.2479 49.6764ZM46.0876 40.0379C43.6558 42.1086 42.2653 44.9829 41.4657 47.2251C40.6366 49.5498 40.2186 51.8366 40.0825 53.3656L50.0432 54.2518C50.1103 53.4974 50.3627 52.0477 50.8846 50.5841C51.436 49.0379 52.0771 48.072 52.5707 47.6517L46.0876 40.0379ZM57.0344 36.455C54.3293 35.9023 50.0346 36.6771 46.0876 40.0379L52.5707 47.6517C53.4834 46.8745 54.2661 46.5389 54.768 46.3958C55.0259 46.3223 55.2078 46.3002 55.2941 46.2946C55.4114 46.2869 55.3138 46.3101 55.0323 46.2526L57.0344 36.455ZM67.4501 35.6558C60.0951 31.8981 54.2098 35.2355 51.9353 38.4891L60.1313 44.2185C60.0128 44.388 60.1366 44.1718 60.5262 44.0609C60.7586 43.9947 61.4919 43.8412 62.9006 44.5609L67.4501 35.6558ZM197.693 72.4354L185.342 64.8705L180.119 73.398L192.47 80.9629L197.693 72.4354ZM201.293 79.4071L199.812 75.0798L190.351 78.3185L191.832 82.6457L201.293 79.4071ZM187.605 82.3426C186.907 83.8992 185.338 85 183.5 85V75C181.256 75 179.337 76.3434 178.482 78.2484L187.605 82.3426ZM161.82 84.6824L182.899 85.2934L183.188 75.2976L162.11 74.6866L161.82 84.6824ZM157 79.5463C156.994 78.9481 157.107 78.3676 157.319 77.8351L166.61 81.534C166.869 80.883 167.007 80.1742 167 79.4443L157 79.5463ZM180.015 64.9364C177.6 66.499 173.881 68.7506 170.148 70.7227C166.242 72.7862 162.906 74.2238 161.042 74.5881L162.959 84.4026C166.437 83.7232 170.952 81.6073 174.819 79.5647C178.858 77.4308 182.833 75.0237 185.447 73.3321L180.015 64.9364ZM170.954 43.3947L137.444 56.8987L141.182 66.1738L174.692 52.6699L170.954 43.3947ZM171.19 43.3065L171.175 43.3116L174.493 52.745L174.508 52.74L171.19 43.3065ZM192.285 84.4189L194.223 85.4453L198.902 76.6074L196.964 75.5811L192.285 84.4189ZM183.5 85H194.624V75H183.5V85Z" fill="#192E35" mask="url(#path-4-outside-1_4951_25437)"/>
<rect x="0.5" y="187" width="307" height="3" fill="#192E35"/>
<path d="M84.5 95.4999C96.4846 100.221 93.8333 102.667 101.5 105H22.5V81.4999C22.8333 79.4999 24.3 74.3999 27.5 69.9999C30.7 65.5999 45 67.4998 48 67.9997C58.3333 75.6664 68 88.9999 84.5 95.4999Z" fill="#EAEAEA"/>
<path d="M67.5 80.5001C68.2901 82.1177 69.5 87.0002 69.5 87.0002L60 80.5001L55.5 75.5002C55.5 75.5002 58.3397 74.8382 59.5 75.0001C63.2549 75.5241 65.836 77.0935 67.5 80.5001Z" fill="#EAEAEA"/>
<path d="M89.1667 96.192C90.2201 98.2798 90.5 102 90.5 102L79.1667 96.192L73 89.5002C73 89.5002 76.9529 88.8841 78.5 89.0931C83.5066 89.7693 86.9481 91.795 89.1667 96.192Z" fill="#EAEAEA"/>
<ellipse cx="34.7923" cy="65.2312" rx="1.73951" ry="3.86157" transform="rotate(26.7637 34.7923 65.2312)" fill="#EAEAEA"/>
<path d="M29.3191 66.0025C31.4511 65.9514 33.1982 66.6886 33.2212 67.6491C33.2442 68.6095 31.5344 69.4295 29.4023 69.4805C27.2703 69.5316 25.5232 68.7944 25.5002 67.8339C25.4772 66.8735 27.187 66.0535 29.3191 66.0025Z" fill="#EAEAEA"/>
<ellipse cx="57.7923" cy="73.2312" rx="1.73951" ry="3.86157" transform="rotate(26.7637 57.7923 73.2312)" fill="#EAEAEA"/>
<path fill-rule="evenodd" clip-rule="evenodd" d="M40.2333 66.2914C42.9208 66.1607 46.3286 66.2868 48.806 67.4457C51.2835 68.6046 53.5644 71.1397 55.1866 73.2864C56.009 74.3748 56.684 75.3933 57.1534 76.1397C57.3883 76.5133 57.5724 76.8195 57.6982 77.0335C57.7612 77.1404 57.8096 77.2244 57.8426 77.2822L57.8805 77.3488L57.8905 77.3667L57.8941 77.3732C57.8942 77.3733 57.8946 77.374 57.2392 77.7386L57.8941 77.3732C58.0955 77.7351 57.9658 78.1926 57.6039 78.394C57.242 78.5954 56.7853 78.4653 56.5839 78.1034C56.5839 78.1034 56.5839 78.1035 56.5839 78.1034M56.5839 78.1034L56.5818 78.0997L56.5738 78.0855L56.5403 78.0264C56.5102 77.9738 56.465 77.8954 56.4054 77.7941C56.2862 77.5915 56.1099 77.298 55.8837 76.9383C55.4308 76.2183 54.7802 75.2367 53.9898 74.1907C52.3861 72.0684 50.2916 69.7966 48.1705 68.8044C46.0494 67.8122 42.9631 67.6604 40.3062 67.7897C38.9966 67.8534 37.8262 67.9831 36.9833 68.097C36.5622 68.1538 36.2239 68.2066 35.992 68.245C35.8761 68.2642 35.7868 68.2797 35.7272 68.2903L35.6604 68.3024L35.6443 68.3054L35.6408 68.3061C35.2339 68.3834 34.8407 68.1164 34.7633 67.7095C34.686 67.3026 34.9531 66.91 35.36 66.8326L35.5001 67.5694C35.36 66.8326 35.3598 66.8326 35.36 66.8326L35.3626 66.8321L35.3681 66.8311L35.3883 66.8273L35.4638 66.8137C35.5293 66.802 35.6248 66.7853 35.7472 66.7651C35.9921 66.7246 36.3451 66.6695 36.7824 66.6105C37.6562 66.4924 38.8706 66.3577 40.2333 66.2914" fill="#868686"/>
<path fill-rule="evenodd" clip-rule="evenodd" d="M58.8073 74.713C58.966 74.3303 59.4047 74.1487 59.7874 74.3074L59.5001 75.0002C59.7874 74.3074 59.7872 74.3073 59.7874 74.3074L59.7893 74.3082L59.7933 74.3099L59.8077 74.3159L59.8604 74.3382C59.906 74.3577 59.9721 74.3862 60.0564 74.4234C60.225 74.4977 60.4666 74.6066 60.7627 74.7468C61.3543 75.027 62.1666 75.4335 63.0504 75.9397C64.7893 76.9355 66.9144 78.3777 68.1119 80.0663C68.9697 81.2759 69.6227 82.9953 70.0549 84.3549C70.2744 85.0456 70.4433 85.6644 70.5574 86.1108C70.6145 86.3343 70.6581 86.5151 70.6875 86.641C70.7022 86.7039 70.7135 86.7531 70.7211 86.7871L70.7298 86.8263L70.7322 86.837L70.7328 86.84L70.7331 86.8413C70.7331 86.8414 70.7332 86.8415 70.0001 87.0002L70.7331 86.8413C70.8207 87.2461 70.5636 87.6456 70.1588 87.7332C69.754 87.8208 69.3548 87.5638 69.2672 87.159C69.2671 87.159 69.2672 87.1591 69.2672 87.159L69.2667 87.1572L69.265 87.1494L69.2576 87.1161C69.2509 87.0862 69.2407 87.0413 69.227 86.9828C69.1996 86.8658 69.1585 86.6949 69.1041 86.4823C68.9953 86.0566 68.8342 85.4664 68.6254 84.8093C68.2008 83.4736 67.6039 81.943 66.8884 80.934C65.8927 79.5301 64.0178 78.2223 62.305 77.2413C61.4629 76.759 60.6865 76.3704 60.1207 76.1025C59.8382 75.9687 59.609 75.8654 59.4515 75.796C59.3727 75.7613 59.3119 75.7351 59.2714 75.7177L59.2261 75.6985L59.2154 75.694L59.2131 75.6931C59.213 75.6931 59.2131 75.6931 59.2131 75.6931M58.8073 74.713C58.6487 75.0955 58.8306 75.5344 59.2131 75.6931L58.8073 74.713Z" fill="#868686"/>
<path fill-rule="evenodd" clip-rule="evenodd" d="M77.4802 88.4645C79.6697 88.7024 82.4317 89.2137 84.3789 90.3537C86.3853 91.5284 88.2131 93.7724 89.5078 95.6381C90.1646 96.5846 90.7022 97.4606 91.0757 98.1001C91.2627 98.4201 91.409 98.6817 91.5091 98.8643C91.5591 98.9556 91.5977 99.0272 91.6239 99.0765L91.6541 99.1334L91.6622 99.1488L91.6644 99.153L91.6651 99.1543C91.6652 99.1545 91.6655 99.155 91 99.501L91.6651 99.1543C91.8561 99.5219 91.7134 99.9754 91.3459 100.166C90.9784 100.357 90.5257 100.214 90.3346 99.847M90.3346 99.847L90.333 99.844L90.3268 99.8321L90.3004 99.7823C90.2767 99.7378 90.2409 99.6714 90.1938 99.5854C90.0995 99.4134 89.9599 99.1637 89.7805 98.8567C89.4214 98.2418 88.9048 97.4002 88.2754 96.4933C86.9979 94.6522 85.3257 92.6462 83.6211 91.6482C81.9661 90.6792 79.4781 90.1904 77.3181 89.9557C76.2541 89.84 75.2988 89.7888 74.6098 89.7665C74.2657 89.7554 73.9888 89.7515 73.7991 89.7504C73.7042 89.7498 73.6312 89.75 73.5825 89.7502L73.528 89.7507L73.515 89.7508L73.5122 89.7509C73.5121 89.7509 73.5122 89.7509 73.5122 89.7509C73.0981 89.7573 72.7566 89.4269 72.7501 89.0128C72.7435 88.5986 73.074 88.2576 73.4881 88.2511L73.5 89.001C73.4881 88.2511 73.488 88.2511 73.4881 88.2511L73.495 88.251L73.5118 88.2508L73.5742 88.2503C73.6283 88.25 73.707 88.2498 73.8078 88.2504C74.0093 88.2516 74.2995 88.2557 74.6583 88.2673C75.3752 88.2904 76.3695 88.3437 77.4802 88.4645" fill="#868686"/>
<path d="M55.5995 99.967C59.9658 102.077 62.5191 105.535 65 107H22.3559C21.529 100.26 20.5697 85.022 23.3483 77.989C26.1268 70.9561 27.5153 69.2326 29.5 68.5C27.1845 71.5769 26.2261 77.8132 27.8138 84.1429C29.4016 90.4726 39.0604 96.4506 43.6914 98.6483C45.8414 98.2088 51.2332 97.8571 55.5995 99.967Z" fill="#D1D1D1"/>
<path d="M65.5 74.1019C59.5 74.1019 56.3333 69.3338 55.5 67.5005C58.1667 65.3338 64.8 62.3019 70 63.1019C75.2 63.9019 75.5 67.1019 75 68.6019C74.3333 70.4352 71.5 74.1019 65.5 74.1019Z" fill="#FFC596"/>
<rect x="29.5" y="172" width="13" height="13" fill="#868686"/>
<rect x="256.5" y="172" width="13" height="13" fill="#868686"/>
<path d="M22.5 107C23.7 105 26.6667 105.667 28.5 105.5C35.1667 101.5 52.0497 96.8509 66.0497 101.651C80.0497 106.451 188.216 103.651 240.55 101.651C249.05 102.151 268.15 103.851 276.55 106.651C287.05 110.151 287.05 131.651 289.55 154.151C291.55 172.151 286.05 176.984 283.05 177.151C266.716 175.651 231.5 170.151 226.5 173.5C221.362 176.942 210.05 171.151 201.55 170.151C193.05 169.151 182.5 169.5 176.5 173.5C171.7 176.7 152.216 174.484 144.05 171.151C142.05 170.484 137.242 171.075 131.55 172.651C105 180 82.5497 172.151 75.0497 171.151C67.5497 170.151 71.5497 172.651 54.5497 174.651C37.5497 176.651 36.0497 171.651 35.0497 172.651C34.0497 173.651 23.5497 174.651 16.5497 174.151C9.54966 173.651 11.5497 165.151 12.5497 146.151C13.5497 127.151 21 109.5 22.5 107Z" fill="url(#paint0_linear_4951_25437)"/>
<path d="M137.742 109.61L138 109.635L137.5 99.6347L133.5 85.6347L127.5 67.5005C127.5 67.5005 125.293 68.1414 124.5 68.0005C119.509 67.113 112 70.1347 112 70.1347L95 65.6347L70.5 60.1348C70.5 61.7348 69.8333 62.8014 69.5 63.1348C76.5 63.6348 76 67.5005 70 72.5005C66.1497 75.7091 59.6667 72.0005 57.5 70.5005C57.5 75.5005 58.3 87.6348 61.5 93.6348C64.7 99.6348 77.5 103.801 83.5 105.135H113C116.16 107.505 130.798 108.932 137.742 109.61Z" fill="white"/>
<path d="M137.731 109.634C137.897 107.301 137.7 101.3 136.5 96.5C135 90.5 128.231 77.1342 127.731 75.1342C127.231 73.1342 125.231 68.1342 127.731 67.1342C130.231 66.1342 174.731 45.1342 182.731 47.1342C190.731 49.1342 221 84.5 237 102L222.731 93.6343L182.731 69.1343C177.264 72.6717 165.499 79.5288 160.725 79.6486L194.731 80.6343L243.231 105.634L239.731 115.634C226.231 113.301 216.8 109.5 208 103.5C208 103.5 198.331 93.4438 189.5 92.5C177.796 91.2492 171 106 163.231 106.634C155.462 107.269 139.731 110.834 137.731 109.634Z" fill="#A67A7A"/>
<path d="M235.5 106L237 102L194.5 75L204.147 103.182L235.5 106Z" fill="#A67A7A"/>
<path d="M74.5 67L64.5 70.4993L72 63.5C72 63.5 73.2565 63.7564 74 64.5C75 65.5 74.5 67 74.5 67Z" fill="#CC966B"/>
<path d="M64.5559 70.4275C67.8742 68.3756 74.3346 63.5972 73.6302 60.8982C72.9257 58.1992 64.3177 47.4425 60.1018 42.4015L53.1429 49.5322L48.4286 58.8699C47.6545 60.318 47.3994 63.8769 52.5726 66.5271L53.7949 66.925L58.4999 68.5L64.5559 70.4275Z" fill="#FFC596"/>
<path d="M87.4658 87.6972L80.4658 100.697C73.3233 97.0044 70.4019 95.0371 66.9658 91.6972C66.9658 91.6972 64.4984 86.7619 65.9658 84.1972C67.7538 81.0721 74.9658 82.1972 74.9658 82.1972L87.4658 87.6972Z" fill="#BBBBBB"/>
<path d="M153.573 108.432C136.669 108.432 114.842 108.112 87 88.5L81 99.5L106.342 111.083C106.342 111.083 119.939 113.189 128.715 113.733C138.406 114.334 153.573 113.733 153.573 113.733C153.573 113.733 154.071 112.673 156.059 112.673C158.048 112.673 160.534 113.38 161.528 113.733H166.5L153.573 108.432Z" fill="#FFC596"/>
<path fill-rule="evenodd" clip-rule="evenodd" d="M91.5565 104.269C91.6839 104.024 91.9858 103.929 92.2308 104.056C94.3111 105.138 97.5059 106.761 100.328 108.112C101.74 108.787 103.054 109.393 104.087 109.828C104.604 110.047 105.043 110.219 105.387 110.337C105.558 110.395 105.7 110.438 105.811 110.466C105.867 110.479 105.911 110.488 105.945 110.494C105.962 110.497 105.975 110.498 105.985 110.499L105.996 110.5L105.999 110.5C105.999 110.5 106 110.5 105.999 110.5L106.036 110.5L116.571 112.005C116.844 112.044 117.034 112.297 116.995 112.571C116.956 112.844 116.703 113.034 116.429 112.995L105.958 111.499C105.717 111.489 105.393 111.396 105.063 111.283C104.688 111.155 104.224 110.972 103.698 110.75C102.644 110.305 101.314 109.692 99.8967 109.014C97.061 107.656 93.8558 106.029 91.7694 104.944C91.5244 104.816 91.4291 104.514 91.5565 104.269Z" fill="#192E35"/>
<path d="M65.1754 40.1083C70.0511 42.5993 60.2996 47.7888 54.8144 50.0722C49.3292 52.3556 51.767 57.5451 51.767 57.5451L54.8144 61.2816C54.2049 62.5271 49.9386 58.7906 49.9386 61.2816C49.9386 63.9237 53.2653 64.7545 55.5 66L57.5 70.5L46.8913 65.6408C46.0787 64.8105 43.1093 63.6448 40.7966 61.2816C38.9682 59.4134 39.3745 57.7527 40.1871 56.2997C41.4061 55.0542 43.2345 55.0542 45.0629 53.8087C45.266 51.5253 46.4037 46.3358 49.3292 43.8448C52.2546 41.3538 55.0175 41.1462 56.0333 41.3538C57.0491 39.9007 60.2996 37.6174 65.1754 40.1083Z" fill="#6F3530"/>
<path d="M243 117L240 115L243 106L258 108.5C258.667 107.333 260.7 105.4 263.5 107C266.3 108.6 263.667 114.333 262 117C260.667 117.333 257.2 117.8 254 117C250.8 116.2 245.333 116.667 243 117Z" fill="#FFC596"/>
<path fill-rule="evenodd" clip-rule="evenodd" d="M243.069 117.495L243.082 117.493L243.122 117.488C243.158 117.483 243.211 117.476 243.28 117.467C243.418 117.449 243.619 117.423 243.87 117.393C244.372 117.333 245.074 117.255 245.873 117.182C247.478 117.036 249.448 116.914 250.972 116.999C252.223 117.069 253.823 117.314 255.124 117.545C255.772 117.661 256.34 117.772 256.746 117.853C256.949 117.894 257.112 117.928 257.223 117.952L257.35 117.979L257.383 117.986L257.393 117.988C257.663 118.047 257.93 117.876 257.989 117.606C258.047 117.336 257.876 117.07 257.606 117.011L257.594 117.008L257.56 117.001L257.429 116.973C257.315 116.949 257.15 116.915 256.944 116.873C256.532 116.79 255.956 116.678 255.299 116.561C253.991 116.328 252.342 116.074 251.028 116C249.427 115.911 247.396 116.039 245.783 116.186C244.972 116.26 244.26 116.339 243.751 116.4C243.496 116.431 243.292 116.457 243.151 116.475C243.081 116.484 243.026 116.491 242.989 116.496L242.947 116.502L242.932 116.504C242.932 116.504 242.932 116.504 243 116.999L242.932 116.504C242.658 116.542 242.467 116.794 242.505 117.068C242.543 117.342 242.795 117.533 243.069 117.495C243.069 117.495 243.069 117.495 243.069 117.495Z" fill="#192E35"/>
<path fill-rule="evenodd" clip-rule="evenodd" d="M213.055 90.2727C213.18 90.0268 213.482 89.9292 213.727 90.0548L237.227 102.055C237.473 102.18 237.571 102.482 237.445 102.727C237.32 102.973 237.019 103.071 236.773 102.945L213.273 90.9454C213.027 90.8198 212.929 90.5187 213.055 90.2727Z" fill="#192E35"/>
<path fill-rule="evenodd" clip-rule="evenodd" d="M183 80.5C183 80.2239 183.224 80 183.5 80H194.624L211.734 89.0581C211.978 89.1873 212.071 89.4899 211.942 89.7339C211.813 89.978 211.51 90.0711 211.266 89.9419L194.376 81H183.5C183.224 81 183 80.7761 183 80.5Z" fill="#192E35"/>
<path fill-rule="evenodd" clip-rule="evenodd" d="M173.177 48.9676L139.687 62.4635C139.431 62.5667 139.14 62.4427 139.036 62.1866C138.933 61.9305 139.057 61.6392 139.313 61.5359L172.823 48.032L172.833 48.0285L173 48.4997C172.833 48.0285 172.833 48.0285 172.833 48.0285L172.834 48.028L172.837 48.0269L172.849 48.0229L172.892 48.008C172.929 47.995 172.984 47.9762 173.055 47.9525C173.196 47.9051 173.4 47.838 173.655 47.7582C174.164 47.5988 174.876 47.3885 175.689 47.1849C177.301 46.7812 179.365 46.3888 181.034 46.5008C184.37 46.7247 187.854 49.0754 190.445 51.2778C191.754 52.3906 192.862 53.4888 193.642 54.3084C194.032 54.7184 194.341 55.0595 194.553 55.2987C194.66 55.4183 194.741 55.5125 194.797 55.5772C194.825 55.6096 194.846 55.6346 194.861 55.6517L194.877 55.6713L194.883 55.6781C194.883 55.6782 194.884 55.6788 194.5 55.9997L194.883 55.6781C195.06 55.8898 195.033 56.2059 194.821 56.3831C194.609 56.5603 194.294 56.5324 194.117 56.3207C194.117 56.3207 194.117 56.3207 194.117 56.3207L194.116 56.3197L194.113 56.3157L194.098 56.2985C194.091 56.2902 194.082 56.2796 194.071 56.2668C194.062 56.2559 194.051 56.2434 194.039 56.2294C193.986 56.1682 193.908 56.0778 193.805 55.9621C193.6 55.7307 193.299 55.3984 192.918 54.9979C192.154 54.1963 191.073 53.124 189.797 52.0398C187.219 49.8483 183.952 47.699 180.967 47.4986C179.464 47.3977 177.528 47.7553 175.932 48.1549C175.142 48.3528 174.449 48.5575 173.954 48.7126C173.706 48.7901 173.508 48.8551 173.373 48.9005C173.305 48.9232 173.253 48.941 173.218 48.9531L173.179 48.9667L173.177 48.9676Z" fill="#192E35"/>
<path fill-rule="evenodd" clip-rule="evenodd" d="M204.664 66.1295C204.869 65.9441 205.185 65.9596 205.37 66.1642L234.37 98.1642C234.556 98.3689 234.54 98.6851 234.336 98.8705C234.131 99.0559 233.815 99.0404 233.63 98.8358L204.63 66.8358C204.444 66.6311 204.46 66.3149 204.664 66.1295Z" fill="#192E35"/>
<path fill-rule="evenodd" clip-rule="evenodd" d="M82.5145 62.881C82.5803 62.6128 82.851 62.4487 83.1192 62.5145L109.619 69.0145C109.887 69.0803 110.052 69.351 109.986 69.6192C109.92 69.8874 109.649 70.0515 109.381 69.9857L82.881 63.4857C82.6128 63.4199 82.4487 63.1492 82.5145 62.881Z" fill="#192E35"/>
<path fill-rule="evenodd" clip-rule="evenodd" d="M71.7766 64.0529C72.0236 63.9294 72.3239 64.0295 72.4474 64.2765L72.0002 64.5001C72.4474 64.2765 72.4479 64.2774 72.4483 64.2783L72.4492 64.2801L72.451 64.2838L72.4546 64.2915C72.4571 64.2969 72.4597 64.3026 72.4622 64.3087C72.4673 64.3208 72.4726 64.3344 72.4777 64.3493C72.488 64.3792 72.4977 64.4144 72.5053 64.4548C72.5206 64.5364 72.5263 64.6353 72.512 64.7496C72.4833 64.9794 72.3775 65.2471 72.1502 65.5501C71.7051 66.1436 70.7467 66.9359 68.7238 67.9473C67.7367 68.4409 67.0725 68.8349 66.6307 69.1441C66.2148 69.4352 66.0198 69.635 65.9342 69.7518C66.0143 69.892 66.0251 70.0684 65.9474 70.2237C65.8239 70.4707 65.5236 70.5708 65.2766 70.4473L65.5002 70.0001C65.2766 70.4473 65.2759 70.447 65.2752 70.4466L65.2738 70.4459L65.2708 70.4444L65.2644 70.441L65.2502 70.4332C65.2401 70.4275 65.2287 70.4206 65.2163 70.4125C65.1917 70.3964 65.162 70.3747 65.1306 70.3464C65.068 70.29 64.9925 70.2021 64.9422 70.0764C64.8301 69.7961 64.9019 69.4962 65.0842 69.2228C65.2596 68.9597 65.5679 68.6674 66.0572 68.3249C66.553 67.9779 67.2638 67.5593 68.2766 67.0529C70.2538 66.0643 71.0453 65.3567 71.3502 64.9501C71.4835 64.7724 71.5122 64.6676 71.5184 64.634C71.4553 64.408 71.5589 64.1617 71.7766 64.0529Z" fill="#192E35"/>
<path fill-rule="evenodd" clip-rule="evenodd" d="M138.518 78.8685C138.59 78.6021 138.865 78.4451 139.132 78.5178L139 79.0001L138.869 79.4825C138.602 79.4098 138.445 79.1349 138.518 78.8685ZM161.5 79.5001C161.617 79.9863 161.617 79.9864 161.617 79.9864L161.598 79.9908L161.546 80.0032C161.499 80.014 161.432 80.0298 161.344 80.0499C161.169 80.09 160.916 80.1473 160.599 80.2162C159.966 80.3538 159.081 80.5378 158.071 80.7234C156.06 81.0932 153.525 81.4749 151.506 81.5001C148.979 81.5316 145.81 81.0222 143.297 80.5133C142.036 80.2578 140.93 80.0005 140.139 79.8069C139.744 79.7102 139.427 79.6293 139.209 79.5725C139.099 79.5441 139.015 79.5217 138.957 79.5064L138.892 79.4888L138.875 79.4842L138.869 79.4825C138.868 79.4825 138.869 79.4825 139 79.0001L139.132 78.5178L139.137 78.5191L139.152 78.5233L139.215 78.5402C139.271 78.555 139.353 78.5768 139.46 78.6047C139.675 78.6604 139.987 78.7401 140.377 78.8356C141.158 79.0267 142.25 79.2809 143.496 79.5332C145.997 80.0396 149.078 80.5302 151.494 80.5002C153.424 80.4761 155.889 80.1079 157.89 79.7399C158.887 79.5567 159.762 79.3749 160.387 79.239C160.699 79.1711 160.949 79.1146 161.12 79.0752C161.206 79.0556 161.272 79.0401 161.317 79.0297L161.367 79.0178L161.383 79.0141L161.5 79.5001ZM161.5 79.5001L161.617 79.9864C161.885 79.922 162.051 79.6521 161.986 79.3836C161.922 79.115 161.651 78.9497 161.383 79.0141L161.5 79.5001Z" fill="#192E35"/>
<path fill-rule="evenodd" clip-rule="evenodd" d="M99.5553 96.2718C99.6814 96.0261 99.9828 95.9292 100.228 96.0553L100 96.5001L99.7718 96.9449C99.5261 96.8188 99.4292 96.5175 99.5553 96.2718ZM135 107.5C134.931 107.995 134.931 107.995 134.931 107.995L134.896 107.99L134.795 107.976C134.706 107.963 134.575 107.944 134.406 107.919C134.069 107.869 133.578 107.796 132.968 107.7C131.746 107.508 130.043 107.228 128.113 106.874C124.26 106.167 119.483 105.162 115.845 103.975C112.573 102.908 108.55 101.147 105.358 99.66C103.759 98.9153 102.363 98.2369 101.367 97.7446C100.869 97.4984 100.47 97.2988 100.196 97.1605C100.059 97.0914 99.9535 97.0376 99.8817 97.0011L99.8 96.9594L99.7718 96.9449C99.7717 96.9449 99.7718 96.9449 100 96.5001L100.228 96.0553L100.255 96.069L100.335 96.1099C100.406 96.1459 100.511 96.1992 100.647 96.2677C100.919 96.4049 101.314 96.6033 101.81 96.8481C102.801 97.3378 104.189 98.0127 105.78 98.7535C108.966 100.238 112.943 101.977 116.155 103.025C119.726 104.19 124.449 105.185 128.294 105.89C130.213 106.242 131.908 106.521 133.123 106.712C133.73 106.807 134.217 106.881 134.552 106.93C134.72 106.955 134.849 106.974 134.937 106.986L135.036 107L135.069 107.005L135 107.5ZM135 107.5L134.931 107.995C135.204 108.033 135.457 107.843 135.495 107.569C135.534 107.296 135.342 107.043 135.069 107.005L135 107.5Z" fill="#192E35"/>
<path d="M209.702 106.691C210.904 111.704 205.934 119.342 205.934 119.342L164.923 118.568L168.056 104.996C168.056 104.996 176.249 94.0951 183.986 92.6479C191.548 91.2337 196.965 93.1928 202.928 98.0529C206.251 100.761 208.703 102.522 209.702 106.691Z" fill="#E1DA96"/>
<path fill-rule="evenodd" clip-rule="evenodd" d="M176.003 97.2647C175.927 97.3156 175.852 97.3658 175.777 97.4152C175.548 97.5684 175.237 97.5063 175.084 97.2765C174.931 97.0468 174.993 96.7363 175.223 96.5831C175.32 96.5184 175.419 96.452 175.521 96.3841C179.035 94.0354 185.177 89.9303 192.144 92.0203C194.705 92.7887 197.623 94.3147 200.075 95.8234C202.52 97.3285 204.561 98.8531 205.354 99.6457C205.549 99.8409 205.549 100.158 205.354 100.353C205.158 100.548 204.842 100.548 204.646 100.353C203.939 99.6453 201.98 98.17 199.551 96.6751C197.127 95.1838 194.295 93.7098 191.856 92.9781C185.349 91.026 179.566 94.8862 176.003 97.2647Z" fill="#192E35"/>
<path d="M207.19 116.773C206.782 125.324 196.39 131.776 183.977 131.185C171.565 130.593 161.833 123.182 162.241 114.631C162.649 106.08 173.041 99.6281 185.453 100.22C197.866 100.811 207.598 108.223 207.19 116.773Z" fill="#E1DA96"/>
<path fill-rule="evenodd" clip-rule="evenodd" d="M199.558 126.558C203.57 124.067 206.007 120.578 206.191 116.726C206.375 112.873 204.28 109.169 200.523 106.307C196.77 103.449 191.436 101.506 185.406 101.219C179.376 100.931 173.881 102.358 169.873 104.846C165.861 107.337 163.424 110.826 163.24 114.678C163.056 118.531 165.151 122.236 168.908 125.097C172.66 127.955 177.995 129.898 184.025 130.186C190.055 130.473 195.55 129.046 199.558 126.558ZM183.977 131.185C196.39 131.776 206.782 125.324 207.19 116.773C207.598 108.223 197.866 100.811 185.453 100.22C173.041 99.6281 162.649 106.08 162.241 114.631C161.833 123.182 171.565 130.593 183.977 131.185Z" fill="#192E35"/>
<path d="M201.197 116.488C200.894 122.832 193.27 127.623 184.168 127.189C175.066 126.755 167.932 121.261 168.234 114.917C168.537 108.573 176.161 103.781 185.263 104.215C194.365 104.649 201.499 110.144 201.197 116.488Z" fill="#E1DA96"/>
<path fill-rule="evenodd" clip-rule="evenodd" d="M195.45 123.534C198.342 121.716 200.067 119.195 200.198 116.44C200.329 113.686 198.852 111.012 196.146 108.927C193.444 106.846 189.588 105.423 185.215 105.214C180.843 105.006 176.869 106.056 173.981 107.871C171.089 109.688 169.364 112.21 169.233 114.964C169.102 117.719 170.579 120.393 173.284 122.477C175.987 124.558 179.843 125.982 184.216 126.19C188.588 126.399 192.562 125.349 195.45 123.534ZM184.168 127.189C193.27 127.623 200.894 122.832 201.197 116.488C201.499 110.144 194.365 104.649 185.263 104.215C176.161 103.781 168.537 108.573 168.234 114.917C167.932 121.261 175.066 126.755 184.168 127.189Z" fill="#192E35"/>
<path d="M195.204 116.202C195.006 120.34 190.151 123.47 184.358 123.194C178.566 122.918 174.03 119.34 174.227 115.202C174.425 111.065 179.28 107.935 185.073 108.211C190.865 108.487 195.401 112.065 195.204 116.202Z" fill="#BAB65E"/>
<path fill-rule="evenodd" clip-rule="evenodd" d="M191.337 120.513C193.108 119.371 194.125 117.817 194.205 116.155C194.284 114.492 193.419 112.848 191.765 111.544C190.113 110.241 187.737 109.339 185.025 109.21C182.313 109.08 179.862 109.752 178.094 110.892C176.323 112.033 175.305 113.588 175.226 115.25C175.147 116.912 176.012 118.557 177.666 119.861C179.318 121.164 181.694 122.066 184.406 122.195C187.118 122.324 189.569 121.653 191.337 120.513ZM184.358 123.194C190.151 123.47 195.006 120.34 195.204 116.202C195.401 112.065 190.865 108.487 185.073 108.211C179.28 107.935 174.425 111.065 174.227 115.202C174.03 119.34 178.566 122.918 184.358 123.194Z" fill="#192E35"/>
<defs>
<linearGradient id="paint0_linear_4951_25437" x1="150.739" y1="99.6094" x2="150.739" y2="177.151" gradientUnits="userSpaceOnUse">
<stop stop-color="#E0ECF3"/>
<stop offset="1" stop-color="#95ACB9"/>
</linearGradient>
</defs>
</svg>
